<?xml version="1.0" encoding="UTF-8" standalone="no"?>
<!DOCTYPE svg PUBLIC "-//W3C//DTD SVG 1.1//EN"
 "http://www.w3.org/Graphics/SVG/1.1/DTD/svg11.dtd">
<!-- Generated by graphviz version 2.38.0 (20140413.2041)
 -->
<!-- Title: libopenage/pathfinding/a_star.h Pages: 1 -->
<svg width="270pt" height="106pt"
 viewBox="0.00 0.00 269.50 106.00" xmlns="http://www.w3.org/2000/svg" xmlns:xlink="http://www.w3.org/1999/xlink">
<g id="graph0" class="graph" transform="scale(1 1) rotate(0) translate(4 102)">
<title>libopenage/pathfinding/a_star.h</title>
<polygon fill="white" stroke="none" points="-4,4 -4,-102 265.5,-102 265.5,4 -4,4"/>
<!-- Node49 -->
<g id="node1" class="node"><title>Node49</title>
<g id="a_node1"><a xlink:title=" ">
<polygon fill="#bfbfbf" stroke="black" points="70,-67.5 70,-97.5 183,-97.5 183,-67.5 70,-67.5"/>
<text text-anchor="start" x="78" y="-85.5" font-family="Helvetica,sans-Serif" font-size="10.00">libopenage/pathfinding</text>
<text text-anchor="middle" x="126.5" y="-74.5" font-family="Helvetica,sans-Serif" font-size="10.00">/a_star.h</text>
</a>
</g>
</g>
<!-- Node50 -->
<g id="node2" class="node"><title>Node50</title>
<g id="a_node2"><a xlink:href="a__star_8cpp.xhtml" target="_top" xlink:title=" ">
<polygon fill="white" stroke="black" points="0,-0.5 0,-30.5 113,-30.5 113,-0.5 0,-0.5"/>
<text text-anchor="start" x="8" y="-18.5" font-family="Helvetica,sans-Serif" font-size="10.00">libopenage/pathfinding</text>
<text text-anchor="middle" x="56.5" y="-7.5" font-family="Helvetica,sans-Serif" font-size="10.00">/a_star.cpp</text>
</a>
</g>
</g>
<!-- Node49&#45;&gt;Node50 -->
<g id="edge1" class="edge"><title>Node49&#45;&gt;Node50</title>
<path fill="none" stroke="midnightblue" d="M103.682,-60.3115C93.1813,-50.5612 81.0097,-39.259 71.6593,-30.5765"/>
<polygon fill="midnightblue" stroke="midnightblue" points="101.601,-63.1562 111.311,-67.396 106.365,-58.0266 101.601,-63.1562"/>
</g>
<!-- Node51 -->
<g id="node3" class="node"><title>Node51</title>
<g id="a_node3"><a xlink:href="unit_2action_8cpp.xhtml" target="_top" xlink:title=" ">
<polygon fill="white" stroke="black" points="131.5,-6 131.5,-25 261.5,-25 261.5,-6 131.5,-6"/>
<text text-anchor="middle" x="196.5" y="-13" font-family="Helvetica,sans-Serif" font-size="10.00">libopenage/unit/action.cpp</text>
</a>
</g>
</g>
<!-- Node49&#45;&gt;Node51 -->
<g id="edge2" class="edge"><title>Node49&#45;&gt;Node51</title>
<path fill="none" stroke="midnightblue" d="M149.293,-60.335C162.145,-48.401 177.507,-34.1359 187.137,-25.1945"/>
<polygon fill="midnightblue" stroke="midnightblue" points="146.635,-58.0266 141.689,-67.396 151.399,-63.1562 146.635,-58.0266"/>
</g>
</g>
</svg>
