<?xml version="1.0" encoding="UTF-8" standalone="no"?>
<!DOCTYPE svg PUBLIC "-//W3C//DTD SVG 1.1//EN"
 "http://www.w3.org/Graphics/SVG/1.1/DTD/svg11.dtd">
<!-- Generated by graphviz version 2.38.0 (20140413.2041)
 -->
<!-- Title: C:/Users/Jameson/Documents/git&#45;projects/openage/libopenage/unit/attributes.h Pages: 1 -->
<!--zoomable 440 -->
<svg id="main" version="1.1" xmlns="http://www.w3.org/2000/svg" xmlns:xlink="http://www.w3.org/1999/xlink" xml:space="preserve" onload="init(evt)">
<style type="text/css"><![CDATA[
.edge:hover path { stroke: red; }
.edge:hover polygon { stroke: red; fill: red; }
]]></style>
<script type="text/javascript"><![CDATA[
var edges = document.getElementsByTagName('g');
if (edges && edges.length) {
  for (var i=0;i<edges.length;i++) {
    if (edges[i].id.substr(0,4)=='edge') {
      edges[i].setAttribute('class','edge');
    }
  }
}
]]></script>
        <defs>
                <circle id="rim" cx="0" cy="0" r="7"/>
                <circle id="rim2" cx="0" cy="0" r="3.5"/>
                <g id="zoomPlus">
                        <use xlink:href="#rim" fill="#404040">
                                <set attributeName="fill" to="#808080" begin="zoomplus.mouseover" end="zoomplus.mouseout"/>
                        </use>
                        <path d="M-4,0h8M0,-4v8" fill="none" stroke="white" stroke-width="1.5" pointer-events="none"/>
                </g>
                <g id="zoomMin">
                        <use xlink:href="#rim" fill="#404040">
                                <set attributeName="fill" to="#808080" begin="zoomminus.mouseover" end="zoomminus.mouseout"/>
                        </use>
                        <path d="M-4,0h8" fill="none" stroke="white" stroke-width="1.5" pointer-events="none"/>
                </g>
                <g id="dirArrow">
                        <path fill="none" stroke="white" stroke-width="1.5" d="M0,-3.0v7 M-2.5,-0.5L0,-3.0L2.5,-0.5"/>
                </g>
               <g id="resetDef">
                       <use xlink:href="#rim2" fill="#404040">
                               <set attributeName="fill" to="#808080" begin="reset.mouseover" end="reset.mouseout"/>
                       </use>
               </g>
        </defs>

<script type="text/javascript">
var viewWidth = 2439;
var viewHeight = 440;
var sectionId = 'dynsection-1';
</script>
<script xlink:href="svgpan.js"/>
<svg id="graph" class="graph">
<g id="viewport">
<title>C:/Users/Jameson/Documents/git&#45;projects/openage/libopenage/unit/attributes.h</title>
<polygon fill="white" stroke="none" points="-4,4 -4,-436 2435.41,-436 2435.41,4 -4,4"/>
<!-- Node57 -->
<g id="node1" class="node"><title>Node57</title>
<g id="a_node1"><a xlink:title=" ">
<polygon fill="#bfbfbf" stroke="black" points="1458.41,-390.5 1458.41,-431.5 1615.41,-431.5 1615.41,-390.5 1458.41,-390.5"/>
<text text-anchor="start" x="1466.41" y="-419.5" font-family="Helvetica,sans-Serif" font-size="10.00">C:/Users/Jameson/Documents</text>
<text text-anchor="start" x="1466.41" y="-408.5" font-family="Helvetica,sans-Serif" font-size="10.00">/git&#45;projects/openage/libopenage</text>
<text text-anchor="middle" x="1536.91" y="-397.5" font-family="Helvetica,sans-Serif" font-size="10.00">/unit/attributes.h</text>
</a>
</g>
</g>
<!-- Node58 -->
<g id="node2" class="node"><title>Node58</title>
<g id="a_node2"><a xlink:href="unit__type_8h.xhtml" target="_top" xlink:title=" ">
<polygon fill="white" stroke="black" points="779.414,-312.5 779.414,-353.5 936.414,-353.5 936.414,-312.5 779.414,-312.5"/>
<text text-anchor="start" x="787.414" y="-341.5" font-family="Helvetica,sans-Serif" font-size="10.00">C:/Users/Jameson/Documents</text>
<text text-anchor="start" x="787.414" y="-330.5" font-family="Helvetica,sans-Serif" font-size="10.00">/git&#45;projects/openage/libopenage</text>
<text text-anchor="middle" x="857.914" y="-319.5" font-family="Helvetica,sans-Serif" font-size="10.00">/unit/unit_type.h</text>
</a>
</g>
</g>
<!-- Node57&#45;&gt;Node58 -->
<g id="edge1" class="edge"><title>Node57&#45;&gt;Node58</title>
<path fill="none" stroke="midnightblue" d="M1448.16,-400.066C1314.57,-385.113 1063.93,-357.059 936.546,-342.801"/>
<polygon fill="midnightblue" stroke="midnightblue" points="1448.03,-403.573 1458.36,-401.208 1448.81,-396.617 1448.03,-403.573"/>
</g>
<!-- Node82 -->
<g id="node26" class="node"><title>Node82</title>
<g id="a_node26"><a xlink:href="unit_8h.xhtml" target="_top" xlink:title=" ">
<polygon fill="white" stroke="black" points="1458.41,-312.5 1458.41,-353.5 1615.41,-353.5 1615.41,-312.5 1458.41,-312.5"/>
<text text-anchor="start" x="1466.41" y="-341.5" font-family="Helvetica,sans-Serif" font-size="10.00">C:/Users/Jameson/Documents</text>
<text text-anchor="start" x="1466.41" y="-330.5" font-family="Helvetica,sans-Serif" font-size="10.00">/git&#45;projects/openage/libopenage</text>
<text text-anchor="middle" x="1536.91" y="-319.5" font-family="Helvetica,sans-Serif" font-size="10.00">/unit/unit.h</text>
</a>
</g>
</g>
<!-- Node57&#45;&gt;Node82 -->
<g id="edge28" class="edge"><title>Node57&#45;&gt;Node82</title>
<path fill="none" stroke="midnightblue" d="M1536.91,-380.297C1536.91,-371.301 1536.91,-361.653 1536.91,-353.506"/>
<polygon fill="midnightblue" stroke="midnightblue" points="1533.41,-380.428 1536.91,-390.428 1540.41,-380.428 1533.41,-380.428"/>
</g>
<!-- Node87 -->
<g id="node31" class="node"><title>Node87</title>
<g id="a_node31"><a xlink:href="attributes_8cpp.xhtml" target="_top" xlink:title=" ">
<polygon fill="white" stroke="black" points="1633.41,-312.5 1633.41,-353.5 1790.41,-353.5 1790.41,-312.5 1633.41,-312.5"/>
<text text-anchor="start" x="1641.41" y="-341.5" font-family="Helvetica,sans-Serif" font-size="10.00">C:/Users/Jameson/Documents</text>
<text text-anchor="start" x="1641.41" y="-330.5" font-family="Helvetica,sans-Serif" font-size="10.00">/git&#45;projects/openage/libopenage</text>
<text text-anchor="middle" x="1711.91" y="-319.5" font-family="Helvetica,sans-Serif" font-size="10.00">/unit/attributes.cpp</text>
</a>
</g>
</g>
<!-- Node57&#45;&gt;Node87 -->
<g id="edge50" class="edge"><title>Node57&#45;&gt;Node87</title>
<path fill="none" stroke="midnightblue" d="M1591.42,-386.329C1615.7,-375.783 1643.96,-363.513 1667,-353.506"/>
<polygon fill="midnightblue" stroke="midnightblue" points="1589.76,-383.234 1581.98,-390.428 1592.55,-389.655 1589.76,-383.234"/>
</g>
<!-- Node59 -->
<g id="node3" class="node"><title>Node59</title>
<g id="a_node3"><a xlink:href="game__control_8h.xhtml" target="_top" xlink:title=" ">
<polygon fill="white" stroke="black" points="438.414,-234.5 438.414,-275.5 595.414,-275.5 595.414,-234.5 438.414,-234.5"/>
<text text-anchor="start" x="446.414" y="-263.5" font-family="Helvetica,sans-Serif" font-size="10.00">C:/Users/Jameson/Documents</text>
<text text-anchor="start" x="446.414" y="-252.5" font-family="Helvetica,sans-Serif" font-size="10.00">/git&#45;projects/openage/libopenage</text>
<text text-anchor="middle" x="516.914" y="-241.5" font-family="Helvetica,sans-Serif" font-size="10.00">/game_control.h</text>
</a>
</g>
</g>
<!-- Node58&#45;&gt;Node59 -->
<g id="edge2" class="edge"><title>Node58&#45;&gt;Node59</title>
<path fill="none" stroke="midnightblue" d="M769.375,-312.267C715.536,-300.268 647.392,-285.08 595.474,-273.509"/>
<polygon fill="midnightblue" stroke="midnightblue" points="768.732,-315.709 779.254,-314.469 770.255,-308.877 768.732,-315.709"/>
</g>
<!-- Node68 -->
<g id="node12" class="node"><title>Node68</title>
<g id="a_node12"><a xlink:href="producer_8h.xhtml" target="_top" xlink:title=" ">
<polygon fill="white" stroke="black" points="1351.41,-234.5 1351.41,-275.5 1508.41,-275.5 1508.41,-234.5 1351.41,-234.5"/>
<text text-anchor="start" x="1359.41" y="-263.5" font-family="Helvetica,sans-Serif" font-size="10.00">C:/Users/Jameson/Documents</text>
<text text-anchor="start" x="1359.41" y="-252.5" font-family="Helvetica,sans-Serif" font-size="10.00">/git&#45;projects/openage/libopenage</text>
<text text-anchor="middle" x="1429.91" y="-241.5" font-family="Helvetica,sans-Serif" font-size="10.00">/unit/producer.h</text>
</a>
</g>
</g>
<!-- Node58&#45;&gt;Node68 -->
<g id="edge13" class="edge"><title>Node58&#45;&gt;Node68</title>
<path fill="none" stroke="midnightblue" d="M946.698,-320.204C1057.52,-305.478 1245.36,-280.521 1351.24,-266.453"/>
<polygon fill="midnightblue" stroke="midnightblue" points="946,-316.765 936.548,-321.552 946.922,-323.704 946,-316.765"/>
</g>
<!-- Node70 -->
<g id="node14" class="node"><title>Node70</title>
<g id="a_node14"><a xlink:href="game__save_8cpp.xhtml" target="_top" xlink:title=" ">
<polygon fill="white" stroke="black" points="699.414,-156.5 699.414,-197.5 856.414,-197.5 856.414,-156.5 699.414,-156.5"/>
<text text-anchor="start" x="707.414" y="-185.5" font-family="Helvetica,sans-Serif" font-size="10.00">C:/Users/Jameson/Documents</text>
<text text-anchor="start" x="707.414" y="-174.5" font-family="Helvetica,sans-Serif" font-size="10.00">/git&#45;projects/openage/libopenage</text>
<text text-anchor="middle" x="777.914" y="-163.5" font-family="Helvetica,sans-Serif" font-size="10.00">/gamestate/game_save.cpp</text>
</a>
</g>
</g>
<!-- Node58&#45;&gt;Node70 -->
<g id="edge24" class="edge"><title>Node58&#45;&gt;Node70</title>
<path fill="none" stroke="midnightblue" d="M843.143,-303.565C827.185,-272.847 802.177,-224.705 788.217,-197.832"/>
<polygon fill="midnightblue" stroke="midnightblue" points="840.066,-305.235 847.782,-312.496 846.278,-302.008 840.066,-305.235"/>
</g>
<!-- Node77 -->
<g id="node21" class="node"><title>Node77</title>
<g id="a_node21"><a xlink:href="civilisation_8cpp.xhtml" target="_top" xlink:title=" ">
<polygon fill="white" stroke="black" points="263.414,-234.5 263.414,-275.5 420.414,-275.5 420.414,-234.5 263.414,-234.5"/>
<text text-anchor="start" x="271.414" y="-263.5" font-family="Helvetica,sans-Serif" font-size="10.00">C:/Users/Jameson/Documents</text>
<text text-anchor="start" x="271.414" y="-252.5" font-family="Helvetica,sans-Serif" font-size="10.00">/git&#45;projects/openage/libopenage</text>
<text text-anchor="middle" x="341.914" y="-241.5" font-family="Helvetica,sans-Serif" font-size="10.00">/gamestate/civilisation.cpp</text>
</a>
</g>
</g>
<!-- Node58&#45;&gt;Node77 -->
<g id="edge22" class="edge"><title>Node58&#45;&gt;Node77</title>
<path fill="none" stroke="midnightblue" d="M769.182,-322.938C682.161,-313.458 545.891,-297.03 428.914,-276 426.169,-275.506 423.379,-274.983 420.565,-274.437"/>
<polygon fill="midnightblue" stroke="midnightblue" points="768.964,-326.434 779.283,-324.031 769.717,-319.475 768.964,-326.434"/>
</g>
<!-- Node78 -->
<g id="node22" class="node"><title>Node78</title>
<g id="a_node22"><a xlink:href="game__main_8cpp.xhtml" target="_top" xlink:title=" ">
<polygon fill="white" stroke="black" points="634.414,-234.5 634.414,-275.5 791.414,-275.5 791.414,-234.5 634.414,-234.5"/>
<text text-anchor="start" x="642.414" y="-263.5" font-family="Helvetica,sans-Serif" font-size="10.00">C:/Users/Jameson/Documents</text>
<text text-anchor="start" x="642.414" y="-252.5" font-family="Helvetica,sans-Serif" font-size="10.00">/git&#45;projects/openage/libopenage</text>
<text text-anchor="middle" x="712.914" y="-241.5" font-family="Helvetica,sans-Serif" font-size="10.00">/gamestate/game_main.cpp</text>
</a>
</g>
</g>
<!-- Node58&#45;&gt;Node78 -->
<g id="edge23" class="edge"><title>Node58&#45;&gt;Node78</title>
<path fill="none" stroke="midnightblue" d="M811.681,-307.768C791.805,-297.35 768.884,-285.336 750.129,-275.506"/>
<polygon fill="midnightblue" stroke="midnightblue" points="810.091,-310.886 820.573,-312.428 813.341,-304.686 810.091,-310.886"/>
</g>
<!-- Node79 -->
<g id="node23" class="node"><title>Node79</title>
<g id="a_node23"><a xlink:href="player_8cpp.xhtml" target="_top" xlink:title=" ">
<polygon fill="white" stroke="black" points="886.414,-234.5 886.414,-275.5 1043.41,-275.5 1043.41,-234.5 886.414,-234.5"/>
<text text-anchor="start" x="894.414" y="-263.5" font-family="Helvetica,sans-Serif" font-size="10.00">C:/Users/Jameson/Documents</text>
<text text-anchor="start" x="894.414" y="-252.5" font-family="Helvetica,sans-Serif" font-size="10.00">/git&#45;projects/openage/libopenage</text>
<text text-anchor="middle" x="964.914" y="-241.5" font-family="Helvetica,sans-Serif" font-size="10.00">/gamestate/player.cpp</text>
</a>
</g>
</g>
<!-- Node58&#45;&gt;Node79 -->
<g id="edge25" class="edge"><title>Node58&#45;&gt;Node79</title>
<path fill="none" stroke="midnightblue" d="M893.625,-306.635C907.913,-296.487 924.111,-284.982 937.452,-275.506"/>
<polygon fill="midnightblue" stroke="midnightblue" points="891.595,-303.784 885.469,-312.428 895.649,-309.491 891.595,-303.784"/>
</g>
<!-- Node80 -->
<g id="node24" class="node"><title>Node80</title>
<g id="a_node24"><a xlink:href="attribute_8cpp.xhtml" target="_top" xlink:title=" ">
<polygon fill="white" stroke="black" points="1061.41,-234.5 1061.41,-275.5 1218.41,-275.5 1218.41,-234.5 1061.41,-234.5"/>
<text text-anchor="start" x="1069.41" y="-263.5" font-family="Helvetica,sans-Serif" font-size="10.00">C:/Users/Jameson/Documents</text>
<text text-anchor="start" x="1069.41" y="-252.5" font-family="Helvetica,sans-Serif" font-size="10.00">/git&#45;projects/openage/libopenage</text>
<text text-anchor="middle" x="1139.91" y="-241.5" font-family="Helvetica,sans-Serif" font-size="10.00">/unit/attribute.cpp</text>
</a>
</g>
</g>
<!-- Node58&#45;&gt;Node80 -->
<g id="edge26" class="edge"><title>Node58&#45;&gt;Node80</title>
<path fill="none" stroke="midnightblue" d="M940.335,-309.787C980.627,-298.929 1028.68,-285.978 1067.54,-275.506"/>
<polygon fill="midnightblue" stroke="midnightblue" points="939.281,-306.446 930.536,-312.428 941.102,-313.205 939.281,-306.446"/>
</g>
<!-- Node81 -->
<g id="node25" class="node"><title>Node81</title>
<g id="a_node25"><a xlink:href="unit__type_8cpp.xhtml" target="_top" xlink:title=" ">
<polygon fill="white" stroke="black" points="874.414,-156.5 874.414,-197.5 1031.41,-197.5 1031.41,-156.5 874.414,-156.5"/>
<text text-anchor="start" x="882.414" y="-185.5" font-family="Helvetica,sans-Serif" font-size="10.00">C:/Users/Jameson/Documents</text>
<text text-anchor="start" x="882.414" y="-174.5" font-family="Helvetica,sans-Serif" font-size="10.00">/git&#45;projects/openage/libopenage</text>
<text text-anchor="middle" x="952.914" y="-163.5" font-family="Helvetica,sans-Serif" font-size="10.00">/unit/unit_type.cpp</text>
</a>
</g>
</g>
<!-- Node58&#45;&gt;Node81 -->
<g id="edge27" class="edge"><title>Node58&#45;&gt;Node81</title>
<path fill="none" stroke="midnightblue" d="M858.108,-302.352C859.506,-281.762 863.983,-254.46 876.914,-234 886.371,-219.037 901.375,-206.733 915.563,-197.506"/>
<polygon fill="midnightblue" stroke="midnightblue" points="854.607,-302.281 857.629,-312.436 861.599,-302.613 854.607,-302.281"/>
</g>
<!-- Node60 -->
<g id="node4" class="node"><title>Node60</title>
<g id="a_node4"><a xlink:href="game__control_8cpp.xhtml" target="_top" xlink:title=" ">
<polygon fill="white" stroke="black" points="135.414,-156.5 135.414,-197.5 292.414,-197.5 292.414,-156.5 135.414,-156.5"/>
<text text-anchor="start" x="143.414" y="-185.5" font-family="Helvetica,sans-Serif" font-size="10.00">C:/Users/Jameson/Documents</text>
<text text-anchor="start" x="143.414" y="-174.5" font-family="Helvetica,sans-Serif" font-size="10.00">/git&#45;projects/openage/libopenage</text>
<text text-anchor="middle" x="213.914" y="-163.5" font-family="Helvetica,sans-Serif" font-size="10.00">/game_control.cpp</text>
</a>
</g>
</g>
<!-- Node59&#45;&gt;Node60 -->
<g id="edge3" class="edge"><title>Node59&#45;&gt;Node60</title>
<path fill="none" stroke="midnightblue" d="M429.178,-231.994C385.719,-221.093 333.696,-208.044 291.68,-197.506"/>
<polygon fill="midnightblue" stroke="midnightblue" points="428.333,-235.39 438.884,-234.428 430.036,-228.6 428.333,-235.39"/>
</g>
<!-- Node61 -->
<g id="node5" class="node"><title>Node61</title>
<g id="a_node5"><a xlink:href="game__control__link_8h.xhtml" target="_top" xlink:title=" ">
<polygon fill="white" stroke="black" points="310.414,-156.5 310.414,-197.5 467.414,-197.5 467.414,-156.5 310.414,-156.5"/>
<text text-anchor="start" x="318.414" y="-185.5" font-family="Helvetica,sans-Serif" font-size="10.00">C:/Users/Jameson/Documents</text>
<text text-anchor="start" x="318.414" y="-174.5" font-family="Helvetica,sans-Serif" font-size="10.00">/git&#45;projects/openage/libopenage</text>
<text text-anchor="middle" x="388.914" y="-163.5" font-family="Helvetica,sans-Serif" font-size="10.00">/gui/game_control_link.h</text>
</a>
</g>
</g>
<!-- Node59&#45;&gt;Node61 -->
<g id="edge4" class="edge"><title>Node59&#45;&gt;Node61</title>
<path fill="none" stroke="midnightblue" d="M475.151,-229.203C457.828,-218.918 438.024,-207.159 421.766,-197.506"/>
<polygon fill="midnightblue" stroke="midnightblue" points="473.566,-232.332 483.951,-234.428 477.139,-226.313 473.566,-232.332"/>
</g>
<!-- Node66 -->
<g id="node10" class="node"><title>Node66</title>
<g id="a_node10"><a xlink:href="resources__list__model_8cpp.xhtml" target="_top" xlink:title=" ">
<polygon fill="white" stroke="black" points="573.414,-78.5 573.414,-119.5 730.414,-119.5 730.414,-78.5 573.414,-78.5"/>
<text text-anchor="start" x="581.414" y="-107.5" font-family="Helvetica,sans-Serif" font-size="10.00">C:/Users/Jameson/Documents</text>
<text text-anchor="start" x="581.414" y="-96.5" font-family="Helvetica,sans-Serif" font-size="10.00">/git&#45;projects/openage/libopenage</text>
<text text-anchor="middle" x="651.914" y="-85.5" font-family="Helvetica,sans-Serif" font-size="10.00">/gui/resources_list_model.cpp</text>
</a>
</g>
</g>
<!-- Node59&#45;&gt;Node66 -->
<g id="edge11" class="edge"><title>Node59&#45;&gt;Node66</title>
<path fill="none" stroke="midnightblue" d="M507.982,-224.566C503.507,-203.686 501.523,-175.941 514.914,-156 523.581,-143.095 554.661,-129.878 585.031,-119.528"/>
<polygon fill="midnightblue" stroke="midnightblue" points="504.633,-225.604 510.402,-234.491 511.433,-223.946 504.633,-225.604"/>
</g>
<!-- Node67 -->
<g id="node11" class="node"><title>Node67</title>
<g id="a_node11"><a xlink:href="main_8cpp.xhtml" target="_top" xlink:title=" ">
<polygon fill="white" stroke="black" points="524.414,-156.5 524.414,-197.5 681.414,-197.5 681.414,-156.5 524.414,-156.5"/>
<text text-anchor="start" x="532.414" y="-185.5" font-family="Helvetica,sans-Serif" font-size="10.00">C:/Users/Jameson/Documents</text>
<text text-anchor="start" x="532.414" y="-174.5" font-family="Helvetica,sans-Serif" font-size="10.00">/git&#45;projects/openage/libopenage</text>
<text text-anchor="middle" x="602.914" y="-163.5" font-family="Helvetica,sans-Serif" font-size="10.00">/main.cpp</text>
</a>
</g>
</g>
<!-- Node59&#45;&gt;Node67 -->
<g id="edge12" class="edge"><title>Node59&#45;&gt;Node67</title>
<path fill="none" stroke="midnightblue" d="M546.586,-227.779C557.828,-217.843 570.42,-206.716 580.842,-197.506"/>
<polygon fill="midnightblue" stroke="midnightblue" points="544.237,-225.183 539.061,-234.428 548.872,-230.429 544.237,-225.183"/>
</g>
<!-- Node62 -->
<g id="node6" class="node"><title>Node62</title>
<g id="a_node6"><a xlink:href="actions__list__model_8h.xhtml" target="_top" xlink:title=" ">
<polygon fill="white" stroke="black" points="398.414,-78.5 398.414,-119.5 555.414,-119.5 555.414,-78.5 398.414,-78.5"/>
<text text-anchor="start" x="406.414" y="-107.5" font-family="Helvetica,sans-Serif" font-size="10.00">C:/Users/Jameson/Documents</text>
<text text-anchor="start" x="406.414" y="-96.5" font-family="Helvetica,sans-Serif" font-size="10.00">/git&#45;projects/openage/libopenage</text>
<text text-anchor="middle" x="476.914" y="-85.5" font-family="Helvetica,sans-Serif" font-size="10.00">/gui/actions_list_model.h</text>
</a>
</g>
</g>
<!-- Node61&#45;&gt;Node62 -->
<g id="edge5" class="edge"><title>Node61&#45;&gt;Node62</title>
<path fill="none" stroke="midnightblue" d="M419.276,-149.779C430.78,-139.843 443.664,-128.716 454.329,-119.506"/>
<polygon fill="midnightblue" stroke="midnightblue" points="416.857,-147.243 411.576,-156.428 421.432,-152.541 416.857,-147.243"/>
</g>
<!-- Node63 -->
<g id="node7" class="node"><title>Node63</title>
<g id="a_node7"><a xlink:href="actions__list__model_8cpp.xhtml" target="_top" xlink:title=" ">
<polygon fill="white" stroke="black" points="156.414,-0.5 156.414,-41.5 313.414,-41.5 313.414,-0.5 156.414,-0.5"/>
<text text-anchor="start" x="164.414" y="-29.5" font-family="Helvetica,sans-Serif" font-size="10.00">C:/Users/Jameson/Documents</text>
<text text-anchor="start" x="164.414" y="-18.5" font-family="Helvetica,sans-Serif" font-size="10.00">/git&#45;projects/openage/libopenage</text>
<text text-anchor="middle" x="234.914" y="-7.5" font-family="Helvetica,sans-Serif" font-size="10.00">/gui/actions_list_model.cpp</text>
</a>
</g>
</g>
<!-- Node61&#45;&gt;Node63 -->
<g id="edge7" class="edge"><title>Node61&#45;&gt;Node63</title>
<path fill="none" stroke="midnightblue" d="M300.296,-156.257C221.751,-146.718 52.9146,-166.425 11.9141,-120 -34.9052,-66.9867 74.6341,-41.4136 156.211,-30.0538"/>
<polygon fill="midnightblue" stroke="midnightblue" points="299.908,-159.738 310.31,-157.728 300.925,-152.812 299.908,-159.738"/>
</g>
<!-- Node64 -->
<g id="node8" class="node"><title>Node64</title>
<g id="a_node8"><a xlink:href="category__contents__list__model_8cpp.xhtml" target="_top" xlink:title=" ">
<polygon fill="white" stroke="black" points="20.9141,-78.5 20.9141,-119.5 204.914,-119.5 204.914,-78.5 20.9141,-78.5"/>
<text text-anchor="start" x="28.9141" y="-107.5" font-family="Helvetica,sans-Serif" font-size="10.00">C:/Users/Jameson/Documents</text>
<text text-anchor="start" x="28.9141" y="-96.5" font-family="Helvetica,sans-Serif" font-size="10.00">/git&#45;projects/openage/libopenage</text>
<text text-anchor="middle" x="112.914" y="-85.5" font-family="Helvetica,sans-Serif" font-size="10.00">/gui/category_contents_list_model.cpp</text>
</a>
</g>
</g>
<!-- Node61&#45;&gt;Node64 -->
<g id="edge8" class="edge"><title>Node61&#45;&gt;Node64</title>
<path fill="none" stroke="midnightblue" d="M307.997,-153.718C268.614,-142.874 221.701,-129.956 183.75,-119.506"/>
<polygon fill="midnightblue" stroke="midnightblue" points="307.267,-157.148 317.837,-156.428 309.125,-150.399 307.267,-157.148"/>
</g>
<!-- Node65 -->
<g id="node9" class="node"><title>Node65</title>
<g id="a_node9"><a xlink:href="game__control__link_8cpp.xhtml" target="_top" xlink:title=" ">
<polygon fill="white" stroke="black" points="223.414,-78.5 223.414,-119.5 380.414,-119.5 380.414,-78.5 223.414,-78.5"/>
<text text-anchor="start" x="231.414" y="-107.5" font-family="Helvetica,sans-Serif" font-size="10.00">C:/Users/Jameson/Documents</text>
<text text-anchor="start" x="231.414" y="-96.5" font-family="Helvetica,sans-Serif" font-size="10.00">/git&#45;projects/openage/libopenage</text>
<text text-anchor="middle" x="301.914" y="-85.5" font-family="Helvetica,sans-Serif" font-size="10.00">/gui/game_control_link.cpp</text>
</a>
</g>
</g>
<!-- Node61&#45;&gt;Node65 -->
<g id="edge9" class="edge"><title>Node61&#45;&gt;Node65</title>
<path fill="none" stroke="midnightblue" d="M358.897,-149.779C347.524,-139.843 334.786,-128.716 324.243,-119.506"/>
<polygon fill="midnightblue" stroke="midnightblue" points="356.676,-152.485 366.509,-156.428 361.281,-147.213 356.676,-152.485"/>
</g>
<!-- Node61&#45;&gt;Node66 -->
<g id="edge10" class="edge"><title>Node61&#45;&gt;Node66</title>
<path fill="none" stroke="midnightblue" d="M466.498,-153.58C503.927,-142.764 548.405,-129.911 584.415,-119.506"/>
<polygon fill="midnightblue" stroke="midnightblue" points="465.278,-150.289 456.643,-156.428 467.222,-157.014 465.278,-150.289"/>
</g>
<!-- Node62&#45;&gt;Node63 -->
<g id="edge6" class="edge"><title>Node62&#45;&gt;Node63</title>
<path fill="none" stroke="midnightblue" d="M404.645,-75.3039C370.389,-64.5458 329.877,-51.8229 297.024,-41.5056"/>
<polygon fill="midnightblue" stroke="midnightblue" points="404.004,-78.771 414.593,-78.4281 406.101,-72.0926 404.004,-78.771"/>
</g>
<!-- Node69 -->
<g id="node13" class="node"><title>Node69</title>
<g id="a_node13"><a xlink:href="game__renderer_8cpp.xhtml" target="_top" xlink:title=" ">
<polygon fill="white" stroke="black" points="1749.41,-156.5 1749.41,-197.5 1906.41,-197.5 1906.41,-156.5 1749.41,-156.5"/>
<text text-anchor="start" x="1757.41" y="-185.5" font-family="Helvetica,sans-Serif" font-size="10.00">C:/Users/Jameson/Documents</text>
<text text-anchor="start" x="1757.41" y="-174.5" font-family="Helvetica,sans-Serif" font-size="10.00">/git&#45;projects/openage/libopenage</text>
<text text-anchor="middle" x="1827.91" y="-163.5" font-family="Helvetica,sans-Serif" font-size="10.00">/game_renderer.cpp</text>
</a>
</g>
</g>
<!-- Node68&#45;&gt;Node69 -->
<g id="edge14" class="edge"><title>Node68&#45;&gt;Node69</title>
<path fill="none" stroke="midnightblue" d="M1518.91,-239.138C1581.22,-228.449 1666.33,-213.279 1740.91,-198 1743.65,-197.44 1746.43,-196.86 1749.23,-196.266"/>
<polygon fill="midnightblue" stroke="midnightblue" points="1517.99,-235.745 1508.72,-240.881 1519.17,-242.645 1517.99,-235.745"/>
</g>
<!-- Node68&#45;&gt;Node70 -->
<g id="edge15" class="edge"><title>Node68&#45;&gt;Node70</title>
<path fill="none" stroke="midnightblue" d="M1341.14,-243.035C1315.28,-239.966 1286.99,-236.727 1260.91,-234 1085.15,-215.614 1039.43,-225.861 864.914,-198 862.159,-197.56 859.362,-197.083 856.541,-196.577"/>
<polygon fill="midnightblue" stroke="midnightblue" points="1340.95,-246.537 1351.29,-244.246 1341.77,-239.586 1340.95,-246.537"/>
</g>
<!-- Node71 -->
<g id="node15" class="node"><title>Node71</title>
<g id="a_node15"><a xlink:href="game__spec_8cpp.xhtml" target="_top" xlink:title=" ">
<polygon fill="white" stroke="black" points="1224.41,-156.5 1224.41,-197.5 1381.41,-197.5 1381.41,-156.5 1224.41,-156.5"/>
<text text-anchor="start" x="1232.41" y="-185.5" font-family="Helvetica,sans-Serif" font-size="10.00">C:/Users/Jameson/Documents</text>
<text text-anchor="start" x="1232.41" y="-174.5" font-family="Helvetica,sans-Serif" font-size="10.00">/git&#45;projects/openage/libopenage</text>
<text text-anchor="middle" x="1302.91" y="-163.5" font-family="Helvetica,sans-Serif" font-size="10.00">/gamestate/game_spec.cpp</text>
</a>
</g>
</g>
<!-- Node68&#45;&gt;Node71 -->
<g id="edge16" class="edge"><title>Node68&#45;&gt;Node71</title>
<path fill="none" stroke="midnightblue" d="M1388.48,-229.203C1371.29,-218.918 1351.64,-207.159 1335.51,-197.506"/>
<polygon fill="midnightblue" stroke="midnightblue" points="1386.83,-232.296 1397.21,-234.428 1390.42,-226.29 1386.83,-232.296"/>
</g>
<!-- Node72 -->
<g id="node16" class="node"><title>Node72</title>
<g id="a_node16"><a xlink:href="unit_2action_8cpp.xhtml" target="_top" xlink:title=" ">
<polygon fill="white" stroke="black" points="1574.41,-156.5 1574.41,-197.5 1731.41,-197.5 1731.41,-156.5 1574.41,-156.5"/>
<text text-anchor="start" x="1582.41" y="-185.5" font-family="Helvetica,sans-Serif" font-size="10.00">C:/Users/Jameson/Documents</text>
<text text-anchor="start" x="1582.41" y="-174.5" font-family="Helvetica,sans-Serif" font-size="10.00">/git&#45;projects/openage/libopenage</text>
<text text-anchor="middle" x="1652.91" y="-163.5" font-family="Helvetica,sans-Serif" font-size="10.00">/unit/action.cpp</text>
</a>
</g>
</g>
<!-- Node68&#45;&gt;Node72 -->
<g id="edge17" class="edge"><title>Node68&#45;&gt;Node72</title>
<path fill="none" stroke="midnightblue" d="M1496.92,-231.165C1528.4,-220.437 1565.54,-207.779 1595.68,-197.506"/>
<polygon fill="midnightblue" stroke="midnightblue" points="1495.68,-227.889 1487.34,-234.428 1497.94,-234.515 1495.68,-227.889"/>
</g>
<!-- Node73 -->
<g id="node17" class="node"><title>Node73</title>
<g id="a_node17"><a xlink:href="producer_8cpp.xhtml" target="_top" xlink:title=" ">
<polygon fill="white" stroke="black" points="1924.41,-156.5 1924.41,-197.5 2081.41,-197.5 2081.41,-156.5 1924.41,-156.5"/>
<text text-anchor="start" x="1932.41" y="-185.5" font-family="Helvetica,sans-Serif" font-size="10.00">C:/Users/Jameson/Documents</text>
<text text-anchor="start" x="1932.41" y="-174.5" font-family="Helvetica,sans-Serif" font-size="10.00">/git&#45;projects/openage/libopenage</text>
<text text-anchor="middle" x="2002.91" y="-163.5" font-family="Helvetica,sans-Serif" font-size="10.00">/unit/producer.cpp</text>
</a>
</g>
</g>
<!-- Node68&#45;&gt;Node73 -->
<g id="edge18" class="edge"><title>Node68&#45;&gt;Node73</title>
<path fill="none" stroke="midnightblue" d="M1518.9,-239.337C1531.64,-237.427 1544.6,-235.586 1556.91,-234 1715.96,-213.519 1757.68,-224.015 1915.91,-198 1918.67,-197.547 1921.46,-197.06 1924.28,-196.544"/>
<polygon fill="midnightblue" stroke="midnightblue" points="1518.1,-235.918 1508.74,-240.881 1519.15,-242.839 1518.1,-235.918"/>
</g>
<!-- Node74 -->
<g id="node18" class="node"><title>Node74</title>
<g id="a_node18"><a xlink:href="selection_8cpp.xhtml" target="_top" xlink:title=" ">
<polygon fill="white" stroke="black" points="2099.41,-156.5 2099.41,-197.5 2256.41,-197.5 2256.41,-156.5 2099.41,-156.5"/>
<text text-anchor="start" x="2107.41" y="-185.5" font-family="Helvetica,sans-Serif" font-size="10.00">C:/Users/Jameson/Documents</text>
<text text-anchor="start" x="2107.41" y="-174.5" font-family="Helvetica,sans-Serif" font-size="10.00">/git&#45;projects/openage/libopenage</text>
<text text-anchor="middle" x="2177.91" y="-163.5" font-family="Helvetica,sans-Serif" font-size="10.00">/unit/selection.cpp</text>
</a>
</g>
</g>
<!-- Node68&#45;&gt;Node74 -->
<g id="edge19" class="edge"><title>Node68&#45;&gt;Node74</title>
<path fill="none" stroke="midnightblue" d="M1518.85,-238.968C1531.6,-237.112 1544.58,-235.385 1556.91,-234 1793.3,-207.472 1855.59,-232.756 2090.91,-198 2093.67,-197.592 2096.48,-197.143 2099.3,-196.66"/>
<polygon fill="midnightblue" stroke="midnightblue" points="1518.07,-235.546 1508.69,-240.479 1519.1,-242.47 1518.07,-235.546"/>
</g>
<!-- Node75 -->
<g id="node19" class="node"><title>Node75</title>
<g id="a_node19"><a xlink:href="unit_8cpp.xhtml" target="_top" xlink:title=" ">
<polygon fill="white" stroke="black" points="1399.41,-156.5 1399.41,-197.5 1556.41,-197.5 1556.41,-156.5 1399.41,-156.5"/>
<text text-anchor="start" x="1407.41" y="-185.5" font-family="Helvetica,sans-Serif" font-size="10.00">C:/Users/Jameson/Documents</text>
<text text-anchor="start" x="1407.41" y="-174.5" font-family="Helvetica,sans-Serif" font-size="10.00">/git&#45;projects/openage/libopenage</text>
<text text-anchor="middle" x="1477.91" y="-163.5" font-family="Helvetica,sans-Serif" font-size="10.00">/unit/unit.cpp</text>
</a>
</g>
</g>
<!-- Node68&#45;&gt;Node75 -->
<g id="edge20" class="edge"><title>Node68&#45;&gt;Node75</title>
<path fill="none" stroke="midnightblue" d="M1447.75,-225.757C1453.69,-216.354 1460.17,-206.096 1465.59,-197.506"/>
<polygon fill="midnightblue" stroke="midnightblue" points="1444.66,-224.104 1442.28,-234.428 1450.57,-227.842 1444.66,-224.104"/>
</g>
<!-- Node76 -->
<g id="node20" class="node"><title>Node76</title>
<g id="a_node20"><a xlink:href="unit__container_8cpp.xhtml" target="_top" xlink:title=" ">
<polygon fill="white" stroke="black" points="1049.41,-156.5 1049.41,-197.5 1206.41,-197.5 1206.41,-156.5 1049.41,-156.5"/>
<text text-anchor="start" x="1057.41" y="-185.5" font-family="Helvetica,sans-Serif" font-size="10.00">C:/Users/Jameson/Documents</text>
<text text-anchor="start" x="1057.41" y="-174.5" font-family="Helvetica,sans-Serif" font-size="10.00">/git&#45;projects/openage/libopenage</text>
<text text-anchor="middle" x="1127.91" y="-163.5" font-family="Helvetica,sans-Serif" font-size="10.00">/unit/unit_container.cpp</text>
</a>
</g>
</g>
<!-- Node68&#45;&gt;Node76 -->
<g id="edge21" class="edge"><title>Node68&#45;&gt;Node76</title>
<path fill="none" stroke="midnightblue" d="M1342.19,-231.925C1298.93,-221.038 1247.21,-208.022 1205.42,-197.506"/>
<polygon fill="midnightblue" stroke="midnightblue" points="1341.59,-235.382 1352.14,-234.428 1343.3,-228.593 1341.59,-235.382"/>
</g>
<!-- Node82&#45;&gt;Node68 -->
<g id="edge37" class="edge"><title>Node82&#45;&gt;Node68</title>
<path fill="none" stroke="midnightblue" d="M1501.2,-306.635C1486.92,-296.487 1470.72,-284.982 1457.38,-275.506"/>
<polygon fill="midnightblue" stroke="midnightblue" points="1499.18,-309.491 1509.36,-312.428 1503.23,-303.784 1499.18,-309.491"/>
</g>
<!-- Node82&#45;&gt;Node69 -->
<g id="edge38" class="edge"><title>Node82&#45;&gt;Node69</title>
<path fill="none" stroke="midnightblue" d="M1625.5,-311.463C1667.95,-300.645 1713.5,-287.313 1731.91,-276 1753.62,-262.663 1753.16,-252.264 1770.91,-234 1782.81,-221.766 1796.43,-208.36 1807.38,-197.733"/>
<polygon fill="midnightblue" stroke="midnightblue" points="1624.49,-308.107 1615.65,-313.943 1626.2,-314.895 1624.49,-308.107"/>
</g>
<!-- Node82&#45;&gt;Node70 -->
<g id="edge39" class="edge"><title>Node82&#45;&gt;Node70</title>
<path fill="none" stroke="midnightblue" d="M1448.22,-329.253C1391.17,-323.96 1317.41,-310.266 1260.91,-276 1240.38,-263.545 1248.05,-245.402 1226.91,-234 1155.76,-195.619 944.69,-211.082 864.914,-198 862.161,-197.549 859.365,-197.062 856.546,-196.547"/>
<polygon fill="midnightblue" stroke="midnightblue" points="1448.05,-332.751 1458.31,-330.118 1448.64,-325.776 1448.05,-332.751"/>
</g>
<!-- Node82&#45;&gt;Node73 -->
<g id="edge45" class="edge"><title>Node82&#45;&gt;Node73</title>
<path fill="none" stroke="midnightblue" d="M1625.57,-312.396C1713.58,-304.839 2084.9,-314.723 2120.91,-276 2133.63,-262.331 2130.89,-249.777 2120.91,-234 2110.55,-217.613 2093.95,-205.926 2076.43,-197.626"/>
<polygon fill="midnightblue" stroke="midnightblue" points="1625.03,-308.934 1615.49,-313.525 1625.81,-315.89 1625.03,-308.934"/>
</g>
<!-- Node82&#45;&gt;Node74 -->
<g id="edge46" class="edge"><title>Node82&#45;&gt;Node74</title>
<path fill="none" stroke="midnightblue" d="M1625.58,-312.35C1715.44,-304.077 2094.63,-308.357 2138.91,-276 2164.05,-257.635 2173,-220.445 2176.18,-197.531"/>
<polygon fill="midnightblue" stroke="midnightblue" points="1625.02,-308.892 1615.48,-313.515 1625.82,-315.846 1625.02,-308.892"/>
</g>
<!-- Node82&#45;&gt;Node75 -->
<g id="edge47" class="edge"><title>Node82&#45;&gt;Node75</title>
<path fill="none" stroke="midnightblue" d="M1534.51,-302.44C1532.09,-282.471 1527.31,-255.865 1517.91,-234 1512.3,-220.937 1503.26,-207.918 1495.2,-197.725"/>
<polygon fill="midnightblue" stroke="midnightblue" points="1531.04,-302.931 1535.59,-312.498 1538,-302.18 1531.04,-302.931"/>
</g>
<!-- Node82&#45;&gt;Node76 -->
<g id="edge48" class="edge"><title>Node82&#45;&gt;Node76</title>
<path fill="none" stroke="midnightblue" d="M1447.93,-315.819C1413.62,-307.196 1375,-294.441 1342.91,-276 1319.47,-262.53 1322.11,-247.883 1298.91,-234 1270.77,-217.155 1236.94,-204.708 1206.83,-195.884"/>
<polygon fill="midnightblue" stroke="midnightblue" points="1447.4,-319.294 1457.95,-318.253 1449.06,-312.491 1447.4,-319.294"/>
</g>
<!-- Node82&#45;&gt;Node79 -->
<g id="edge41" class="edge"><title>Node82&#45;&gt;Node79</title>
<path fill="none" stroke="midnightblue" d="M1448.3,-324.744C1350.74,-316.065 1189.47,-299.677 1051.91,-276 1049.16,-275.527 1046.37,-275.021 1043.56,-274.49"/>
<polygon fill="midnightblue" stroke="midnightblue" points="1448.14,-328.244 1458.41,-325.636 1448.76,-321.271 1448.14,-328.244"/>
</g>
<!-- Node82&#45;&gt;Node80 -->
<g id="edge44" class="edge"><title>Node82&#45;&gt;Node80</title>
<path fill="none" stroke="midnightblue" d="M1448.44,-316.417C1387.71,-305.546 1305.32,-290.452 1232.91,-276 1228.22,-275.063 1223.39,-274.081 1218.53,-273.077"/>
<polygon fill="midnightblue" stroke="midnightblue" points="1447.91,-319.878 1458.37,-318.192 1449.15,-312.987 1447.91,-319.878"/>
</g>
<!-- Node82&#45;&gt;Node81 -->
<g id="edge49" class="edge"><title>Node82&#45;&gt;Node81</title>
<path fill="none" stroke="midnightblue" d="M1448.12,-323.971C1401.2,-316.657 1344.12,-302.685 1298.91,-276 1277.24,-263.204 1283.02,-246.034 1260.91,-234 1173.5,-186.427 1137.57,-217.158 1039.91,-198 1037.18,-197.463 1034.39,-196.903 1031.59,-196.325"/>
<polygon fill="midnightblue" stroke="midnightblue" points="1447.87,-327.472 1458.28,-325.475 1448.9,-320.547 1447.87,-327.472"/>
</g>
<!-- Node83 -->
<g id="node27" class="node"><title>Node83</title>
<g id="a_node27"><a xlink:href="unit_2action_8h.xhtml" target="_top" xlink:title=" ">
<polygon fill="white" stroke="black" points="1565.41,-234.5 1565.41,-275.5 1722.41,-275.5 1722.41,-234.5 1565.41,-234.5"/>
<text text-anchor="start" x="1573.41" y="-263.5" font-family="Helvetica,sans-Serif" font-size="10.00">C:/Users/Jameson/Documents</text>
<text text-anchor="start" x="1573.41" y="-252.5" font-family="Helvetica,sans-Serif" font-size="10.00">/git&#45;projects/openage/libopenage</text>
<text text-anchor="middle" x="1643.91" y="-241.5" font-family="Helvetica,sans-Serif" font-size="10.00">/unit/action.h</text>
</a>
</g>
</g>
<!-- Node82&#45;&gt;Node83 -->
<g id="edge29" class="edge"><title>Node82&#45;&gt;Node83</title>
<path fill="none" stroke="midnightblue" d="M1572.63,-306.635C1586.91,-296.487 1603.11,-284.982 1616.45,-275.506"/>
<polygon fill="midnightblue" stroke="midnightblue" points="1570.6,-303.784 1564.47,-312.428 1574.65,-309.491 1570.6,-303.784"/>
</g>
<!-- Node84 -->
<g id="node28" class="node"><title>Node84</title>
<g id="a_node28"><a xlink:href="ability_8cpp.xhtml" target="_top" xlink:title=" ">
<polygon fill="white" stroke="black" points="2274.41,-156.5 2274.41,-197.5 2431.41,-197.5 2431.41,-156.5 2274.41,-156.5"/>
<text text-anchor="start" x="2282.41" y="-185.5" font-family="Helvetica,sans-Serif" font-size="10.00">C:/Users/Jameson/Documents</text>
<text text-anchor="start" x="2282.41" y="-174.5" font-family="Helvetica,sans-Serif" font-size="10.00">/git&#45;projects/openage/libopenage</text>
<text text-anchor="middle" x="2352.91" y="-163.5" font-family="Helvetica,sans-Serif" font-size="10.00">/unit/ability.cpp</text>
</a>
</g>
</g>
<!-- Node82&#45;&gt;Node84 -->
<g id="edge43" class="edge"><title>Node82&#45;&gt;Node84</title>
<path fill="none" stroke="midnightblue" d="M1625.57,-312.065C1865.77,-278.882 1937.78,-340.803 2166.91,-276 2226.97,-259.014 2289.79,-220.995 2324.88,-197.62"/>
<polygon fill="midnightblue" stroke="midnightblue" points="1624.89,-308.627 1615.48,-313.501 1625.87,-315.557 1624.89,-308.627"/>
</g>
<!-- Node85 -->
<g id="node29" class="node"><title>Node85</title>
<g id="a_node29"><a xlink:href="generator_8cpp.xhtml" target="_top" xlink:title=" ">
<polygon fill="white" stroke="black" points="1779.41,-234.5 1779.41,-275.5 1936.41,-275.5 1936.41,-234.5 1779.41,-234.5"/>
<text text-anchor="start" x="1787.41" y="-263.5" font-family="Helvetica,sans-Serif" font-size="10.00">C:/Users/Jameson/Documents</text>
<text text-anchor="start" x="1787.41" y="-252.5" font-family="Helvetica,sans-Serif" font-size="10.00">/git&#45;projects/openage/libopenage</text>
<text text-anchor="middle" x="1857.91" y="-241.5" font-family="Helvetica,sans-Serif" font-size="10.00">/gamestate/generator.cpp</text>
</a>
</g>
</g>
<!-- Node82&#45;&gt;Node85 -->
<g id="edge40" class="edge"><title>Node82&#45;&gt;Node85</title>
<path fill="none" stroke="midnightblue" d="M1625.25,-311.086C1673.5,-299.662 1732.74,-285.637 1779.37,-274.597"/>
<polygon fill="midnightblue" stroke="midnightblue" points="1624.36,-307.698 1615.44,-313.408 1625.98,-314.51 1624.36,-307.698"/>
</g>
<!-- Node86 -->
<g id="node30" class="node"><title>Node86</title>
<g id="a_node30"><a xlink:href="terrain__object_8cpp.xhtml" target="_top" xlink:title=" ">
<polygon fill="white" stroke="black" points="1954.41,-234.5 1954.41,-275.5 2111.41,-275.5 2111.41,-234.5 1954.41,-234.5"/>
<text text-anchor="start" x="1962.41" y="-263.5" font-family="Helvetica,sans-Serif" font-size="10.00">C:/Users/Jameson/Documents</text>
<text text-anchor="start" x="1962.41" y="-252.5" font-family="Helvetica,sans-Serif" font-size="10.00">/git&#45;projects/openage/libopenage</text>
<text text-anchor="middle" x="2032.91" y="-241.5" font-family="Helvetica,sans-Serif" font-size="10.00">/terrain/terrain_object.cpp</text>
</a>
</g>
</g>
<!-- Node82&#45;&gt;Node86 -->
<g id="edge42" class="edge"><title>Node82&#45;&gt;Node86</title>
<path fill="none" stroke="midnightblue" d="M1625.51,-312.009C1768.22,-288.578 1807.57,-299.579 1945.91,-276 1948.66,-275.531 1951.46,-275.03 1954.27,-274.502"/>
<polygon fill="midnightblue" stroke="midnightblue" points="1624.8,-308.58 1615.51,-313.68 1625.95,-315.485 1624.8,-308.58"/>
</g>
<!-- Node83&#45;&gt;Node69 -->
<g id="edge30" class="edge"><title>Node83&#45;&gt;Node69</title>
<path fill="none" stroke="midnightblue" d="M1700.55,-230.609C1726.23,-220.001 1756.25,-207.602 1780.69,-197.506"/>
<polygon fill="midnightblue" stroke="midnightblue" points="1699.21,-227.376 1691.3,-234.428 1701.88,-233.845 1699.21,-227.376"/>
</g>
<!-- Node83&#45;&gt;Node72 -->
<g id="edge32" class="edge"><title>Node83&#45;&gt;Node72</title>
<path fill="none" stroke="midnightblue" d="M1647.43,-224.297C1648.5,-215.301 1649.64,-205.653 1650.6,-197.506"/>
<polygon fill="midnightblue" stroke="midnightblue" points="1643.93,-224.086 1646.23,-234.428 1650.88,-224.909 1643.93,-224.086"/>
</g>
<!-- Node83&#45;&gt;Node73 -->
<g id="edge33" class="edge"><title>Node83&#45;&gt;Node73</title>
<path fill="none" stroke="midnightblue" d="M1732.66,-236.263C1785.87,-225.496 1854.84,-211.305 1915.91,-198 1918.64,-197.406 1921.41,-196.797 1924.21,-196.178"/>
<polygon fill="midnightblue" stroke="midnightblue" points="1731.68,-232.89 1722.57,-238.302 1733.07,-239.751 1731.68,-232.89"/>
</g>
<!-- Node83&#45;&gt;Node74 -->
<g id="edge34" class="edge"><title>Node83&#45;&gt;Node74</title>
<path fill="none" stroke="midnightblue" d="M1732.64,-239.515C1745.47,-237.57 1758.52,-235.672 1770.91,-234 1912.75,-214.863 1949.83,-222.071 2090.91,-198 2093.66,-197.531 2096.46,-197.029 2099.27,-196.501"/>
<polygon fill="midnightblue" stroke="midnightblue" points="1731.78,-236.107 1722.42,-241.082 1732.84,-243.026 1731.78,-236.107"/>
</g>
<!-- Node83&#45;&gt;Node75 -->
<g id="edge35" class="edge"><title>Node83&#45;&gt;Node75</title>
<path fill="none" stroke="midnightblue" d="M1591.91,-230.189C1568.94,-219.675 1542.28,-207.469 1520.52,-197.506"/>
<polygon fill="midnightblue" stroke="midnightblue" points="1590.62,-233.448 1601.17,-234.428 1593.53,-227.083 1590.62,-233.448"/>
</g>
<!-- Node83&#45;&gt;Node81 -->
<g id="edge36" class="edge"><title>Node83&#45;&gt;Node81</title>
<path fill="none" stroke="midnightblue" d="M1555.4,-239.011C1542.84,-237.158 1530.07,-235.42 1517.91,-234 1306.31,-209.28 1250.55,-229.956 1039.91,-198 1037.16,-197.582 1034.36,-197.123 1031.53,-196.632"/>
<polygon fill="midnightblue" stroke="midnightblue" points="1555,-242.49 1565.41,-240.517 1556.04,-235.568 1555,-242.49"/>
</g>
<!-- Node83&#45;&gt;Node84 -->
<g id="edge31" class="edge"><title>Node83&#45;&gt;Node84</title>
<path fill="none" stroke="midnightblue" d="M1732.86,-239.028C1745.61,-237.163 1758.58,-235.417 1770.91,-234 1990.05,-208.821 2047.79,-230.806 2265.91,-198 2268.67,-197.585 2271.47,-197.13 2274.3,-196.641"/>
<polygon fill="midnightblue" stroke="midnightblue" points="1732.07,-235.606 1722.7,-240.544 1733.11,-242.529 1732.07,-235.606"/>
</g>
</g>
</svg>
        <g id="navigator" transform="translate(0 0)" fill="#404254">
                <rect fill="#f2f5e9" fill-opacity="0.5" stroke="#606060" stroke-width=".5" x="0" y="0" width="60" height="60"/>
                <use id="zoomplus" xlink:href="#zoomPlus" x="17" y="9" onmousedown="handleZoom(evt,'in')"/>
                <use id="zoomminus" xlink:href="#zoomMin" x="42" y="9" onmousedown="handleZoom(evt,'out')"/>
                <use id="reset" xlink:href="#resetDef" x="30" y="36" onmousedown="handleReset()"/>
                <g id="arrowUp" xlink:href="#dirArrow" transform="translate(30 24)" onmousedown="handlePan(0,-1)">
                  <use xlink:href="#rim" fill="#404040">
                        <set attributeName="fill" to="#808080" begin="arrowUp.mouseover" end="arrowUp.mouseout"/>
                  </use>
                  <path fill="none" stroke="white" stroke-width="1.5" d="M0,-3.0v7 M-2.5,-0.5L0,-3.0L2.5,-0.5"/>
                </g>
                <g id="arrowRight" xlink:href="#dirArrow" transform="rotate(90) translate(36 -43)" onmousedown="handlePan(1,0)">
                  <use xlink:href="#rim" fill="#404040">
                        <set attributeName="fill" to="#808080" begin="arrowRight.mouseover" end="arrowRight.mouseout"/>
                  </use>
                  <path fill="none" stroke="white" stroke-width="1.5" d="M0,-3.0v7 M-2.5,-0.5L0,-3.0L2.5,-0.5"/>
                </g>
                <g id="arrowDown" xlink:href="#dirArrow" transform="rotate(180) translate(-30 -48)" onmousedown="handlePan(0,1)">
                  <use xlink:href="#rim" fill="#404040">
                        <set attributeName="fill" to="#808080" begin="arrowDown.mouseover" end="arrowDown.mouseout"/>
                  </use>
                  <path fill="none" stroke="white" stroke-width="1.5" d="M0,-3.0v7 M-2.5,-0.5L0,-3.0L2.5,-0.5"/>
                </g>
                <g id="arrowLeft" xlink:href="#dirArrow" transform="rotate(270) translate(-36 17)" onmousedown="handlePan(-1,0)">
                  <use xlink:href="#rim" fill="#404040">
                        <set attributeName="fill" to="#808080" begin="arrowLeft.mouseover" end="arrowLeft.mouseout"/>
                  </use>
                  <path fill="none" stroke="white" stroke-width="1.5" d="M0,-3.0v7 M-2.5,-0.5L0,-3.0L2.5,-0.5"/>
                </g>
        </g>
        <svg viewBox="0 0 15 15" width="100%" height="30px" preserveAspectRatio="xMaxYMin meet">
         <g id="arrow_out" transform="scale(0.3 0.3)">
          <a xlink:href="attributes_8h__dep__incl_org.svg" target="_base">
           <rect id="button" ry="5" rx="5" y="6" x="6" height="38" width="38"
                fill="#f2f5e9" fill-opacity="0.5" stroke="#606060" stroke-width="1.0"/>
           <path id="arrow"
             d="M 11.500037,31.436501 C 11.940474,20.09759 22.043105,11.32322 32.158766,21.979434 L 37.068811,17.246167 C 37.068811,17.246167 37.088388,32 37.088388,32 L 22.160133,31.978069 C 22.160133,31.978069 26.997745,27.140456 26.997745,27.140456 C 18.528582,18.264221 13.291696,25.230495 11.500037,31.436501 z"
             style="fill:#404040;"/>
          </a>
         </g>
        </svg>
</svg>
