<?xml version="1.0" encoding="UTF-8" standalone="no"?>
<!DOCTYPE svg PUBLIC "-//W3C//DTD SVG 1.1//EN"
 "http://www.w3.org/Graphics/SVG/1.1/DTD/svg11.dtd">
<!-- Generated by graphviz version 2.38.0 (20140413.2041)
 -->
<!-- Title: libopenage/audio/error.h Pages: 1 -->
<svg width="901pt" height="420pt"
 viewBox="0.00 0.00 900.50 420.45" xmlns="http://www.w3.org/2000/svg" xmlns:xlink="http://www.w3.org/1999/xlink">
<g id="graph0" class="graph" transform="scale(1 1) rotate(0) translate(4 416.452)">
<title>libopenage/audio/error.h</title>
<polygon fill="white" stroke="none" points="-4,4 -4,-416.452 896.5,-416.452 896.5,4 -4,4"/>
<!-- Node0 -->
<g id="node1" class="node"><title>Node0</title>
<g id="a_node1"><a xlink:title=" ">
<polygon fill="#bfbfbf" stroke="black" points="576,-392.952 576,-411.952 696,-411.952 696,-392.952 576,-392.952"/>
<text text-anchor="middle" x="636" y="-399.952" font-family="Helvetica,sans-Serif" font-size="10.00">libopenage/audio/error.h</text>
</a>
</g>
</g>
<!-- Node1 -->
<g id="node2" class="node"><title>Node1</title>
<g id="a_node2"><a xlink:href="error_2error_8h.xhtml" target="_top" xlink:title=" ">
<polygon fill="white" stroke="black" points="598,-336.952 598,-355.952 674,-355.952 674,-336.952 598,-336.952"/>
<text text-anchor="middle" x="636" y="-343.952" font-family="Helvetica,sans-Serif" font-size="10.00">../error/error.h</text>
</a>
</g>
</g>
<!-- Node0&#45;&gt;Node1 -->
<g id="edge1" class="edge"><title>Node0&#45;&gt;Node1</title>
<path fill="none" stroke="midnightblue" d="M636,-392.535C636,-385.458 636,-375.313 636,-366.438"/>
<polygon fill="midnightblue" stroke="midnightblue" points="639.5,-366.203 636,-356.203 632.5,-366.203 639.5,-366.203"/>
</g>
<!-- Node2 -->
<g id="node3" class="node"><title>Node2</title>
<g id="a_node3"><a xlink:title=" ">
<polygon fill="white" stroke="#bfbfbf" points="197,-56.9516 197,-75.9516 251,-75.9516 251,-56.9516 197,-56.9516"/>
<text text-anchor="middle" x="224" y="-63.9516" font-family="Helvetica,sans-Serif" font-size="10.00">iostream</text>
</a>
</g>
</g>
<!-- Node1&#45;&gt;Node2 -->
<g id="edge2" class="edge"><title>Node1&#45;&gt;Node2</title>
<path fill="none" stroke="midnightblue" d="M597.646,-343.097C497.53,-335.908 236,-309.995 236,-235.452 236,-235.452 236,-235.452 236,-177.452 236,-145.209 230.842,-107.963 227.289,-86.1328"/>
<polygon fill="midnightblue" stroke="midnightblue" points="230.69,-85.2498 225.569,-75.9749 223.788,-86.419 230.69,-85.2498"/>
</g>
<!-- Node3 -->
<g id="node4" class="node"><title>Node3</title>
<g id="a_node4"><a xlink:title=" ">
<polygon fill="white" stroke="#bfbfbf" points="687,-56.9516 687,-75.9516 739,-75.9516 739,-56.9516 687,-56.9516"/>
<text text-anchor="middle" x="713" y="-63.9516" font-family="Helvetica,sans-Serif" font-size="10.00">memory</text>
</a>
</g>
</g>
<!-- Node1&#45;&gt;Node3 -->
<g id="edge3" class="edge"><title>Node1&#45;&gt;Node3</title>
<path fill="none" stroke="midnightblue" d="M651.357,-336.762C677.772,-320.544 729,-282.967 729,-235.452 729,-235.452 729,-235.452 729,-177.452 729,-145.077 722.129,-107.897 717.393,-86.1109"/>
<polygon fill="midnightblue" stroke="midnightblue" points="720.777,-85.2104 715.158,-76.2287 713.95,-86.7545 720.777,-85.2104"/>
</g>
<!-- Node4 -->
<g id="node5" class="node"><title>Node4</title>
<g id="a_node5"><a xlink:title=" ">
<polygon fill="white" stroke="#bfbfbf" points="833.5,-280.952 833.5,-299.952 892.5,-299.952 892.5,-280.952 833.5,-280.952"/>
<text text-anchor="middle" x="863" y="-287.952" font-family="Helvetica,sans-Serif" font-size="10.00">stdexcept</text>
</a>
</g>
</g>
<!-- Node1&#45;&gt;Node4 -->
<g id="edge4" class="edge"><title>Node1&#45;&gt;Node4</title>
<path fill="none" stroke="midnightblue" d="M671.969,-336.895C713.287,-327.066 780.863,-310.991 823.58,-300.829"/>
<polygon fill="midnightblue" stroke="midnightblue" points="824.43,-304.225 833.348,-298.505 822.81,-297.415 824.43,-304.225"/>
</g>
<!-- Node5 -->
<g id="node6" class="node"><title>Node5</title>
<g id="a_node6"><a xlink:title=" ">
<polygon fill="white" stroke="#bfbfbf" points="296.5,-0.951632 296.5,-19.9516 337.5,-19.9516 337.5,-0.951632 296.5,-0.951632"/>
<text text-anchor="middle" x="317" y="-7.95163" font-family="Helvetica,sans-Serif" font-size="10.00">string</text>
</a>
</g>
</g>
<!-- Node1&#45;&gt;Node5 -->
<g id="edge5" class="edge"><title>Node1&#45;&gt;Node5</title>
<path fill="none" stroke="midnightblue" d="M674.349,-338.193C724.211,-326.28 805,-297.416 805,-235.452 805,-235.452 805,-235.452 805,-121.452 805,-88.6409 797.301,-74.6499 770,-56.4516 700.645,-10.2219 438.054,-9.62355 347.735,-10.846"/>
<polygon fill="midnightblue" stroke="midnightblue" points="347.544,-7.34842 337.599,-11.0012 347.651,-14.3476 347.544,-7.34842"/>
</g>
<!-- Node6 -->
<g id="node7" class="node"><title>Node6</title>
<g id="a_node7"><a xlink:href="compiler_8h.xhtml" target="_top" xlink:title=" ">
<polygon fill="white" stroke="black" points="25,-56.9516 25,-75.9516 111,-75.9516 111,-56.9516 25,-56.9516"/>
<text text-anchor="middle" x="68" y="-63.9516" font-family="Helvetica,sans-Serif" font-size="10.00">../util/compiler.h</text>
</a>
</g>
</g>
<!-- Node1&#45;&gt;Node6 -->
<g id="edge6" class="edge"><title>Node1&#45;&gt;Node6</title>
<path fill="none" stroke="midnightblue" d="M597.85,-346.19C470.497,-347.644 68,-343.679 68,-235.452 68,-235.452 68,-235.452 68,-177.452 68,-145.4 68,-108.094 68,-86.2005"/>
<polygon fill="midnightblue" stroke="midnightblue" points="71.5001,-86.0094 68,-76.0094 64.5001,-86.0094 71.5001,-86.0094"/>
</g>
<!-- Node9 -->
<g id="node10" class="node"><title>Node9</title>
<g id="a_node10"><a xlink:href="message_8h.xhtml" target="_top" xlink:title=" ">
<polygon fill="white" stroke="black" points="498.5,-280.952 498.5,-299.952 587.5,-299.952 587.5,-280.952 498.5,-280.952"/>
<text text-anchor="middle" x="543" y="-287.952" font-family="Helvetica,sans-Serif" font-size="10.00">../log/message.h</text>
</a>
</g>
</g>
<!-- Node1&#45;&gt;Node9 -->
<g id="edge11" class="edge"><title>Node1&#45;&gt;Node9</title>
<path fill="none" stroke="midnightblue" d="M621.058,-336.776C606.415,-328.273 583.866,-315.18 566.762,-305.249"/>
<polygon fill="midnightblue" stroke="midnightblue" points="568.31,-302.101 557.905,-300.106 564.795,-308.154 568.31,-302.101"/>
</g>
<!-- Node6&#45;&gt;Node5 -->
<g id="edge8" class="edge"><title>Node6&#45;&gt;Node5</title>
<path fill="none" stroke="midnightblue" d="M107.455,-56.8952C157.094,-46.1301 241.283,-27.8722 286.357,-18.0971"/>
<polygon fill="midnightblue" stroke="midnightblue" points="287.375,-21.4579 296.406,-15.9179 285.891,-14.6169 287.375,-21.4579"/>
</g>
<!-- Node7 -->
<g id="node8" class="node"><title>Node7</title>
<g id="a_node8"><a xlink:title=" ">
<polygon fill="white" stroke="#bfbfbf" points="86,-0.951632 86,-19.9516 136,-19.9516 136,-0.951632 86,-0.951632"/>
<text text-anchor="middle" x="111" y="-7.95163" font-family="Helvetica,sans-Serif" font-size="10.00">ciso646</text>
</a>
</g>
</g>
<!-- Node6&#45;&gt;Node7 -->
<g id="edge7" class="edge"><title>Node6&#45;&gt;Node7</title>
<path fill="none" stroke="midnightblue" d="M75.1006,-56.5346C81.237,-48.8284 90.2697,-37.485 97.7392,-28.1047"/>
<polygon fill="midnightblue" stroke="midnightblue" points="100.54,-30.2058 104.032,-20.2027 95.0643,-25.8453 100.54,-30.2058"/>
</g>
<!-- Node8 -->
<g id="node9" class="node"><title>Node8</title>
<g id="a_node9"><a xlink:href="signal_8h.xhtml" target="_top" xlink:title=" ">
<polygon fill="white" stroke="black" points="0,-0.951632 0,-19.9516 50,-19.9516 50,-0.951632 0,-0.951632"/>
<text text-anchor="middle" x="25" y="-7.95163" font-family="Helvetica,sans-Serif" font-size="10.00">signal.h</text>
</a>
</g>
</g>
<!-- Node6&#45;&gt;Node8 -->
<g id="edge9" class="edge"><title>Node6&#45;&gt;Node8</title>
<path fill="none" stroke="midnightblue" d="M60.8994,-56.5346C54.763,-48.8284 45.7303,-37.485 38.2608,-28.1047"/>
<polygon fill="midnightblue" stroke="midnightblue" points="40.9357,-25.8453 31.9685,-20.2027 35.4598,-30.2058 40.9357,-25.8453"/>
</g>
<!-- Node8&#45;&gt;Node8 -->
<g id="edge10" class="edge"><title>Node8&#45;&gt;Node8</title>
<path fill="none" stroke="midnightblue" d="M43.5634,-20.0262C55.9465,-22.7213 68,-19.5298 68,-10.4516 68,-3.92673 61.7731,-0.442852 53.6726,-0"/>
<polygon fill="midnightblue" stroke="midnightblue" points="53.2234,3.47427 43.5634,-0.877047 53.8285,-3.49953 53.2234,3.47427"/>
</g>
<!-- Node9&#45;&gt;Node5 -->
<g id="edge13" class="edge"><title>Node9&#45;&gt;Node5</title>
<path fill="none" stroke="midnightblue" d="M587.601,-283.014C614.811,-277.056 648.721,-265.742 672,-244.452 738.506,-183.628 808.328,-123.407 748,-56.4516 721.239,-26.751 441.783,-15.3482 347.71,-12.3335"/>
<polygon fill="midnightblue" stroke="midnightblue" points="347.788,-8.83438 337.684,-12.0218 347.57,-15.831 347.788,-8.83438"/>
</g>
<!-- Node10 -->
<g id="node11" class="node"><title>Node10</title>
<g id="a_node11"><a xlink:title=" ">
<polygon fill="white" stroke="#bfbfbf" points="617,-224.952 617,-243.952 663,-243.952 663,-224.952 617,-224.952"/>
<text text-anchor="middle" x="640" y="-231.952" font-family="Helvetica,sans-Serif" font-size="10.00">cstdint</text>
</a>
</g>
</g>
<!-- Node9&#45;&gt;Node10 -->
<g id="edge12" class="edge"><title>Node9&#45;&gt;Node10</title>
<path fill="none" stroke="midnightblue" d="M558.585,-280.776C573.999,-272.194 597.812,-258.938 615.71,-248.974"/>
<polygon fill="midnightblue" stroke="midnightblue" points="617.419,-252.028 624.454,-244.106 614.014,-245.912 617.419,-252.028"/>
</g>
<!-- Node11 -->
<g id="node12" class="node"><title>Node11</title>
<g id="a_node12"><a xlink:title=" ">
<polygon fill="white" stroke="#bfbfbf" points="327,-224.952 327,-243.952 377,-243.952 377,-224.952 327,-224.952"/>
<text text-anchor="middle" x="352" y="-231.952" font-family="Helvetica,sans-Serif" font-size="10.00">config.h</text>
</a>
</g>
</g>
<!-- Node9&#45;&gt;Node11 -->
<g id="edge14" class="edge"><title>Node9&#45;&gt;Node11</title>
<path fill="none" stroke="midnightblue" d="M512.735,-280.895C478.653,-271.259 423.335,-255.62 387.309,-245.434"/>
<polygon fill="midnightblue" stroke="midnightblue" points="387.818,-241.941 377.243,-242.588 385.914,-248.677 387.818,-241.941"/>
</g>
<!-- Node12 -->
<g id="node13" class="node"><title>Node12</title>
<g id="a_node13"><a xlink:href="constexpr_8h.xhtml" target="_top" xlink:title=" ">
<polygon fill="white" stroke="black" points="395,-224.952 395,-243.952 487,-243.952 487,-224.952 395,-224.952"/>
<text text-anchor="middle" x="441" y="-231.952" font-family="Helvetica,sans-Serif" font-size="10.00">../util/constexpr.h</text>
</a>
</g>
</g>
<!-- Node9&#45;&gt;Node12 -->
<g id="edge15" class="edge"><title>Node9&#45;&gt;Node12</title>
<path fill="none" stroke="midnightblue" d="M526.612,-280.776C510.329,-272.155 485.133,-258.816 466.284,-248.837"/>
<polygon fill="midnightblue" stroke="midnightblue" points="467.823,-245.692 457.347,-244.106 464.548,-251.878 467.823,-245.692"/>
</g>
<!-- Node14 -->
<g id="node15" class="node"><title>Node14</title>
<g id="a_node15"><a xlink:href="stringformatter_8h.xhtml" target="_top" xlink:title=" ">
<polygon fill="white" stroke="black" points="430,-168.952 430,-187.952 542,-187.952 542,-168.952 430,-168.952"/>
<text text-anchor="middle" x="486" y="-175.952" font-family="Helvetica,sans-Serif" font-size="10.00">../util/stringformatter.h</text>
</a>
</g>
</g>
<!-- Node9&#45;&gt;Node14 -->
<g id="edge17" class="edge"><title>Node9&#45;&gt;Node14</title>
<path fill="none" stroke="midnightblue" d="M538.527,-280.82C529.204,-262.828 507.531,-221.002 495.134,-197.078"/>
<polygon fill="midnightblue" stroke="midnightblue" points="498.16,-195.312 490.452,-188.043 491.945,-198.532 498.16,-195.312"/>
</g>
<!-- Node24 -->
<g id="node25" class="node"><title>Node24</title>
<g id="a_node25"><a xlink:href="logsink_8h.xhtml" target="_top" xlink:title=" ">
<polygon fill="white" stroke="black" points="543,-224.952 543,-243.952 599,-243.952 599,-224.952 543,-224.952"/>
<text text-anchor="middle" x="571" y="-231.952" font-family="Helvetica,sans-Serif" font-size="10.00">logsink.h</text>
</a>
</g>
</g>
<!-- Node9&#45;&gt;Node24 -->
<g id="edge33" class="edge"><title>Node9&#45;&gt;Node24</title>
<path fill="none" stroke="midnightblue" d="M547.624,-280.535C551.456,-273.143 557.024,-262.405 561.765,-253.263"/>
<polygon fill="midnightblue" stroke="midnightblue" points="564.966,-254.691 566.462,-244.203 558.752,-251.469 564.966,-254.691"/>
</g>
<!-- Node27 -->
<g id="node28" class="node"><title>Node27</title>
<g id="a_node28"><a xlink:href="level_8h.xhtml" target="_top" xlink:title=" ">
<polygon fill="white" stroke="black" points="277,-168.952 277,-187.952 321,-187.952 321,-168.952 277,-168.952"/>
<text text-anchor="middle" x="299" y="-175.952" font-family="Helvetica,sans-Serif" font-size="10.00">level.h</text>
</a>
</g>
</g>
<!-- Node9&#45;&gt;Node27 -->
<g id="edge41" class="edge"><title>Node9&#45;&gt;Node27</title>
<path fill="none" stroke="midnightblue" d="M498.386,-285.954C440.499,-280.525 343.843,-268.139 318,-244.452 305.154,-232.677 300.814,-212.748 299.437,-198.054"/>
<polygon fill="midnightblue" stroke="midnightblue" points="302.93,-197.845 298.869,-188.059 295.942,-198.242 302.93,-197.845"/>
</g>
<!-- Node13 -->
<g id="node14" class="node"><title>Node13</title>
<g id="a_node14"><a xlink:title=" ">
<polygon fill="white" stroke="#bfbfbf" points="366.5,-168.952 366.5,-187.952 411.5,-187.952 411.5,-168.952 366.5,-168.952"/>
<text text-anchor="middle" x="389" y="-175.952" font-family="Helvetica,sans-Serif" font-size="10.00">cstdlib</text>
</a>
</g>
</g>
<!-- Node12&#45;&gt;Node13 -->
<g id="edge16" class="edge"><title>Node12&#45;&gt;Node13</title>
<path fill="none" stroke="midnightblue" d="M432.413,-224.535C424.841,-216.671 413.622,-205.02 404.486,-195.533"/>
<polygon fill="midnightblue" stroke="midnightblue" points="406.885,-192.978 397.427,-188.203 401.842,-197.834 406.885,-192.978"/>
</g>
<!-- Node14&#45;&gt;Node3 -->
<g id="edge19" class="edge"><title>Node14&#45;&gt;Node3</title>
<path fill="none" stroke="midnightblue" d="M526.646,-168.917C556.368,-161.7 597.072,-149.746 630,-132.452 655.389,-119.117 680.792,-97.7551 696.681,-83.188"/>
<polygon fill="midnightblue" stroke="midnightblue" points="699.164,-85.6577 704.072,-76.2682 694.38,-80.5477 699.164,-85.6577"/>
</g>
<!-- Node14&#45;&gt;Node6 -->
<g id="edge21" class="edge"><title>Node14&#45;&gt;Node6</title>
<path fill="none" stroke="midnightblue" d="M429.838,-169.738C426.51,-169.298 423.211,-168.867 420,-168.452 289.005,-151.528 241.78,-194.165 125,-132.452 104.34,-121.534 87.7275,-99.855 77.8805,-84.542"/>
<polygon fill="midnightblue" stroke="midnightblue" points="80.8502,-82.6894 72.648,-75.9831 74.8779,-86.3407 80.8502,-82.6894"/>
</g>
<!-- Node15 -->
<g id="node16" class="node"><title>Node15</title>
<g id="a_node16"><a xlink:title=" ">
<polygon fill="white" stroke="#bfbfbf" points="575,-112.952 575,-131.952 621,-131.952 621,-112.952 575,-112.952"/>
<text text-anchor="middle" x="598" y="-119.952" font-family="Helvetica,sans-Serif" font-size="10.00">atomic</text>
</a>
</g>
</g>
<!-- Node14&#45;&gt;Node15 -->
<g id="edge18" class="edge"><title>Node14&#45;&gt;Node15</title>
<path fill="none" stroke="midnightblue" d="M503.995,-168.776C522.038,-160.076 550.047,-146.572 570.803,-136.565"/>
<polygon fill="midnightblue" stroke="midnightblue" points="572.562,-139.602 580.05,-132.106 569.522,-133.296 572.562,-139.602"/>
</g>
<!-- Node16 -->
<g id="node17" class="node"><title>Node16</title>
<g id="a_node17"><a xlink:title=" ">
<polygon fill="white" stroke="#bfbfbf" points="495,-112.952 495,-131.952 557,-131.952 557,-112.952 495,-112.952"/>
<text text-anchor="middle" x="526" y="-119.952" font-family="Helvetica,sans-Serif" font-size="10.00">type_traits</text>
</a>
</g>
</g>
<!-- Node14&#45;&gt;Node16 -->
<g id="edge20" class="edge"><title>Node14&#45;&gt;Node16</title>
<path fill="none" stroke="midnightblue" d="M492.605,-168.535C498.255,-160.907 506.545,-149.716 513.451,-140.392"/>
<polygon fill="midnightblue" stroke="midnightblue" points="516.378,-142.322 519.518,-132.203 510.753,-138.155 516.378,-142.322"/>
</g>
<!-- Node17 -->
<g id="node18" class="node"><title>Node17</title>
<g id="a_node18"><a xlink:href="externalsstream_8h.xhtml" target="_top" xlink:title=" ">
<polygon fill="white" stroke="black" points="264.5,-112.952 264.5,-131.952 359.5,-131.952 359.5,-112.952 264.5,-112.952"/>
<text text-anchor="middle" x="312" y="-119.952" font-family="Helvetica,sans-Serif" font-size="10.00">externalsstream.h</text>
</a>
</g>
</g>
<!-- Node14&#45;&gt;Node17 -->
<g id="edge22" class="edge"><title>Node14&#45;&gt;Node17</title>
<path fill="none" stroke="midnightblue" d="M458.429,-168.895C428.903,-159.732 381.882,-145.139 349.117,-134.971"/>
<polygon fill="midnightblue" stroke="midnightblue" points="350.03,-131.589 339.442,-131.968 347.955,-138.275 350.03,-131.589"/>
</g>
<!-- Node18 -->
<g id="node19" class="node"><title>Node18</title>
<g id="a_node19"><a xlink:href="strings_8h.xhtml" target="_top" xlink:title=" ">
<polygon fill="white" stroke="black" points="423,-112.952 423,-131.952 477,-131.952 477,-112.952 423,-112.952"/>
<text text-anchor="middle" x="450" y="-119.952" font-family="Helvetica,sans-Serif" font-size="10.00">strings.h</text>
</a>
</g>
</g>
<!-- Node14&#45;&gt;Node18 -->
<g id="edge25" class="edge"><title>Node14&#45;&gt;Node18</title>
<path fill="none" stroke="midnightblue" d="M480.055,-168.535C475.023,-160.986 467.663,-149.946 461.487,-140.681"/>
<polygon fill="midnightblue" stroke="midnightblue" points="464.293,-138.582 455.834,-132.203 458.469,-142.465 464.293,-138.582"/>
</g>
<!-- Node17&#45;&gt;Node2 -->
<g id="edge23" class="edge"><title>Node17&#45;&gt;Node2</title>
<path fill="none" stroke="midnightblue" d="M297.861,-112.776C284.134,-104.352 263.064,-91.4225 246.936,-81.5258"/>
<polygon fill="midnightblue" stroke="midnightblue" points="248.457,-78.3532 238.104,-76.1061 244.796,-84.3195 248.457,-78.3532"/>
</g>
<!-- Node17&#45;&gt;Node5 -->
<g id="edge24" class="edge"><title>Node17&#45;&gt;Node5</title>
<path fill="none" stroke="midnightblue" d="M309.154,-112.61C305.495,-100.093 299.953,-76.4999 303,-56.4516 304.368,-47.4526 307.19,-37.7767 309.945,-29.7117"/>
<polygon fill="midnightblue" stroke="midnightblue" points="313.265,-30.8238 313.4,-20.2298 306.688,-28.4275 313.265,-30.8238"/>
</g>
<!-- Node18&#45;&gt;Node3 -->
<g id="edge29" class="edge"><title>Node18&#45;&gt;Node3</title>
<path fill="none" stroke="midnightblue" d="M477.086,-114.496C480.088,-113.78 483.105,-113.084 486,-112.452 567.754,-94.5847 591.542,-95.2007 676.816,-76.5965"/>
<polygon fill="midnightblue" stroke="midnightblue" points="677.661,-79.9944 686.672,-74.4213 676.152,-73.1589 677.661,-79.9944"/>
</g>
<!-- Node18&#45;&gt;Node5 -->
<g id="edge31" class="edge"><title>Node18&#45;&gt;Node5</title>
<path fill="none" stroke="midnightblue" d="M422.634,-117.635C396.773,-112.608 358.659,-101.287 336,-76.4516 324.495,-63.8418 319.929,-44.628 318.131,-30.3569"/>
<polygon fill="midnightblue" stroke="midnightblue" points="321.598,-29.8324 317.203,-20.192 314.627,-30.4687 321.598,-29.8324"/>
</g>
<!-- Node19 -->
<g id="node20" class="node"><title>Node19</title>
<g id="a_node20"><a xlink:title=" ">
<polygon fill="white" stroke="#bfbfbf" points="475.5,-56.9516 475.5,-75.9516 524.5,-75.9516 524.5,-56.9516 475.5,-56.9516"/>
<text text-anchor="middle" x="500" y="-63.9516" font-family="Helvetica,sans-Serif" font-size="10.00">cstdarg</text>
</a>
</g>
</g>
<!-- Node18&#45;&gt;Node19 -->
<g id="edge26" class="edge"><title>Node18&#45;&gt;Node19</title>
<path fill="none" stroke="midnightblue" d="M458.256,-112.535C465.465,-104.75 476.11,-93.2531 484.846,-83.8182"/>
<polygon fill="midnightblue" stroke="midnightblue" points="487.671,-85.9183 491.897,-76.2027 482.535,-81.1624 487.671,-85.9183"/>
</g>
<!-- Node20 -->
<g id="node21" class="node"><title>Node20</title>
<g id="a_node21"><a xlink:title=" ">
<polygon fill="white" stroke="#bfbfbf" points="543,-56.9516 543,-75.9516 601,-75.9516 601,-56.9516 543,-56.9516"/>
<text text-anchor="middle" x="572" y="-63.9516" font-family="Helvetica,sans-Serif" font-size="10.00">functional</text>
</a>
</g>
</g>
<!-- Node18&#45;&gt;Node20 -->
<g id="edge27" class="edge"><title>Node18&#45;&gt;Node20</title>
<path fill="none" stroke="midnightblue" d="M469.331,-112.895C489.32,-104.048 520.743,-90.1391 543.564,-80.0381"/>
<polygon fill="midnightblue" stroke="midnightblue" points="545.032,-83.2161 552.759,-75.9681 542.198,-76.8151 545.032,-83.2161"/>
</g>
<!-- Node21 -->
<g id="node22" class="node"><title>Node21</title>
<g id="a_node22"><a xlink:title=" ">
<polygon fill="white" stroke="#bfbfbf" points="619,-56.9516 619,-75.9516 669,-75.9516 669,-56.9516 619,-56.9516"/>
<text text-anchor="middle" x="644" y="-63.9516" font-family="Helvetica,sans-Serif" font-size="10.00">iomanip</text>
</a>
</g>
</g>
<!-- Node18&#45;&gt;Node21 -->
<g id="edge28" class="edge"><title>Node18&#45;&gt;Node21</title>
<path fill="none" stroke="midnightblue" d="M477.384,-113.829C511.849,-104.236 571.095,-87.7447 608.865,-77.2314"/>
<polygon fill="midnightblue" stroke="midnightblue" points="610.215,-80.4888 618.91,-74.4353 608.338,-73.7451 610.215,-80.4888"/>
</g>
<!-- Node22 -->
<g id="node23" class="node"><title>Node22</title>
<g id="a_node23"><a xlink:title=" ">
<polygon fill="white" stroke="#bfbfbf" points="345,-56.9516 345,-75.9516 397,-75.9516 397,-56.9516 345,-56.9516"/>
<text text-anchor="middle" x="371" y="-63.9516" font-family="Helvetica,sans-Serif" font-size="10.00">sstream</text>
</a>
</g>
</g>
<!-- Node18&#45;&gt;Node22 -->
<g id="edge30" class="edge"><title>Node18&#45;&gt;Node22</title>
<path fill="none" stroke="midnightblue" d="M437.307,-112.776C425.099,-104.431 406.422,-91.6638 391.997,-81.804"/>
<polygon fill="midnightblue" stroke="midnightblue" points="393.892,-78.8598 383.661,-76.1061 389.942,-84.6387 393.892,-78.8598"/>
</g>
<!-- Node23 -->
<g id="node24" class="node"><title>Node23</title>
<g id="a_node24"><a xlink:title=" ">
<polygon fill="white" stroke="#bfbfbf" points="415,-56.9516 415,-75.9516 457,-75.9516 457,-56.9516 415,-56.9516"/>
<text text-anchor="middle" x="436" y="-63.9516" font-family="Helvetica,sans-Serif" font-size="10.00">vector</text>
</a>
</g>
</g>
<!-- Node18&#45;&gt;Node23 -->
<g id="edge32" class="edge"><title>Node18&#45;&gt;Node23</title>
<path fill="none" stroke="midnightblue" d="M447.688,-112.535C445.833,-105.379 443.165,-95.0869 440.846,-86.1428"/>
<polygon fill="midnightblue" stroke="midnightblue" points="444.166,-85.0043 438.269,-76.2027 437.391,-86.7611 444.166,-85.0043"/>
</g>
<!-- Node25 -->
<g id="node26" class="node"><title>Node25</title>
<g id="a_node26"><a xlink:title=" ">
<polygon fill="white" stroke="#bfbfbf" points="622.5,-168.952 622.5,-187.952 651.5,-187.952 651.5,-168.952 622.5,-168.952"/>
<text text-anchor="middle" x="637" y="-175.952" font-family="Helvetica,sans-Serif" font-size="10.00">list</text>
</a>
</g>
</g>
<!-- Node24&#45;&gt;Node25 -->
<g id="edge34" class="edge"><title>Node24&#45;&gt;Node25</title>
<path fill="none" stroke="midnightblue" d="M581.604,-224.776C591.456,-216.715 606.351,-204.528 618.215,-194.821"/>
<polygon fill="midnightblue" stroke="midnightblue" points="620.68,-197.327 626.203,-188.286 616.247,-191.909 620.68,-197.327"/>
</g>
<!-- Node26 -->
<g id="node27" class="node"><title>Node26</title>
<g id="a_node27"><a xlink:title=" ">
<polygon fill="white" stroke="#bfbfbf" points="560,-168.952 560,-187.952 604,-187.952 604,-168.952 560,-168.952"/>
<text text-anchor="middle" x="582" y="-175.952" font-family="Helvetica,sans-Serif" font-size="10.00">mutex</text>
</a>
</g>
</g>
<!-- Node24&#45;&gt;Node26 -->
<g id="edge35" class="edge"><title>Node24&#45;&gt;Node26</title>
<path fill="none" stroke="midnightblue" d="M572.816,-224.535C574.274,-217.379 576.371,-207.087 578.193,-198.143"/>
<polygon fill="midnightblue" stroke="midnightblue" points="581.651,-198.7 580.217,-188.203 574.792,-197.303 581.651,-198.7"/>
</g>
<!-- Node24&#45;&gt;Node27 -->
<g id="edge36" class="edge"><title>Node24&#45;&gt;Node27</title>
<path fill="none" stroke="midnightblue" d="M542.916,-227.876C492.016,-217.771 384.83,-196.491 331.113,-185.827"/>
<polygon fill="midnightblue" stroke="midnightblue" points="331.605,-182.356 321.115,-183.842 330.242,-189.222 331.605,-182.356"/>
</g>
<!-- Node28 -->
<g id="node29" class="node"><title>Node28</title>
<g id="a_node29"><a xlink:href="enum_8h.xhtml" target="_top" xlink:title=" ">
<polygon fill="white" stroke="black" points="134,-112.952 134,-131.952 208,-131.952 208,-112.952 134,-112.952"/>
<text text-anchor="middle" x="171" y="-119.952" font-family="Helvetica,sans-Serif" font-size="10.00">../util/enum.h</text>
</a>
</g>
</g>
<!-- Node27&#45;&gt;Node28 -->
<g id="edge37" class="edge"><title>Node27&#45;&gt;Node28</title>
<path fill="none" stroke="midnightblue" d="M278.718,-168.895C257.653,-160.008 224.483,-146.015 200.514,-135.903"/>
<polygon fill="midnightblue" stroke="midnightblue" points="201.761,-132.63 191.187,-131.968 199.04,-139.08 201.761,-132.63"/>
</g>
<!-- Node28&#45;&gt;Node2 -->
<g id="edge38" class="edge"><title>Node28&#45;&gt;Node2</title>
<path fill="none" stroke="midnightblue" d="M179.752,-112.535C187.47,-104.671 198.905,-93.0205 208.217,-83.5329"/>
<polygon fill="midnightblue" stroke="midnightblue" points="210.904,-85.7912 215.411,-76.2027 205.908,-80.8879 210.904,-85.7912"/>
</g>
<!-- Node28&#45;&gt;Node6 -->
<g id="edge40" class="edge"><title>Node28&#45;&gt;Node6</title>
<path fill="none" stroke="midnightblue" d="M154.451,-112.776C138.008,-104.155 112.565,-90.8159 93.5316,-80.8371"/>
<polygon fill="midnightblue" stroke="midnightblue" points="94.9895,-77.6496 84.5077,-76.1061 91.7391,-83.8493 94.9895,-77.6496"/>
</g>
<!-- Node29 -->
<g id="node30" class="node"><title>Node29</title>
<g id="a_node30"><a xlink:title=" ">
<polygon fill="white" stroke="#bfbfbf" points="129,-56.9516 129,-75.9516 179,-75.9516 179,-56.9516 129,-56.9516"/>
<text text-anchor="middle" x="154" y="-63.9516" font-family="Helvetica,sans-Serif" font-size="10.00">typeinfo</text>
</a>
</g>
</g>
<!-- Node28&#45;&gt;Node29 -->
<g id="edge39" class="edge"><title>Node28&#45;&gt;Node29</title>
<path fill="none" stroke="midnightblue" d="M168.193,-112.535C165.915,-105.3 162.629,-94.8603 159.792,-85.8484"/>
<polygon fill="midnightblue" stroke="midnightblue" points="163.096,-84.6902 156.755,-76.2027 156.419,-86.7922 163.096,-84.6902"/>
</g>
</g>
</svg>
