<?xml version="1.0" encoding="UTF-8" standalone="no"?>
<!DOCTYPE svg PUBLIC "-//W3C//DTD SVG 1.1//EN"
 "http://www.w3.org/Graphics/SVG/1.1/DTD/svg11.dtd">
<!-- Generated by graphviz version 2.38.0 (20140413.2041)
 -->
<!-- Title: libopenage/error/backtrace.cpp Pages: 1 -->
<svg width="303pt" height="140pt"
 viewBox="0.00 0.00 303.00 140.00" xmlns="http://www.w3.org/2000/svg" xmlns:xlink="http://www.w3.org/1999/xlink">
<g id="graph0" class="graph" transform="scale(1 1) rotate(0) translate(4 136)">
<title>libopenage/error/backtrace.cpp</title>
<polygon fill="white" stroke="none" points="-4,4 -4,-136 299,-136 299,4 -4,4"/>
<!-- Node0 -->
<g id="node1" class="node"><title>Node0</title>
<g id="a_node1"><a xlink:title=" ">
<polygon fill="#bfbfbf" stroke="black" points="142,-112.5 142,-131.5 292,-131.5 292,-112.5 142,-112.5"/>
<text text-anchor="middle" x="217" y="-119.5" font-family="Helvetica,sans-Serif" font-size="10.00">libopenage/error/backtrace.cpp</text>
</a>
</g>
</g>
<!-- Node1 -->
<g id="node2" class="node"><title>Node1</title>
<g id="a_node2"><a xlink:href="backtrace_8h.xhtml" target="_top" xlink:title=" ">
<polygon fill="white" stroke="black" points="115,-56.5 115,-75.5 183,-75.5 183,-56.5 115,-56.5"/>
<text text-anchor="middle" x="149" y="-63.5" font-family="Helvetica,sans-Serif" font-size="10.00">backtrace.h</text>
</a>
</g>
</g>
<!-- Node0&#45;&gt;Node1 -->
<g id="edge1" class="edge"><title>Node0&#45;&gt;Node1</title>
<path fill="none" stroke="midnightblue" d="M206.075,-112.324C195.825,-104.185 180.279,-91.8395 167.999,-82.0874"/>
<polygon fill="midnightblue" stroke="midnightblue" points="170.132,-79.3119 160.124,-75.8339 165.779,-84.7937 170.132,-79.3119"/>
</g>
<!-- Node4 -->
<g id="node5" class="node"><title>Node4</title>
<g id="a_node5"><a xlink:title=" ">
<polygon fill="white" stroke="#bfbfbf" points="196,-0.5 196,-19.5 250,-19.5 250,-0.5 196,-0.5"/>
<text text-anchor="middle" x="223" y="-7.5" font-family="Helvetica,sans-Serif" font-size="10.00">iostream</text>
</a>
</g>
</g>
<!-- Node0&#45;&gt;Node4 -->
<g id="edge6" class="edge"><title>Node0&#45;&gt;Node4</title>
<path fill="none" stroke="midnightblue" d="M217.471,-112.368C218.439,-94.617 220.673,-53.6664 221.986,-29.5974"/>
<polygon fill="midnightblue" stroke="midnightblue" points="225.481,-29.7672 222.531,-19.5914 218.492,-29.3859 225.481,-29.7672"/>
</g>
<!-- Node6 -->
<g id="node7" class="node"><title>Node6</title>
<g id="a_node7"><a xlink:title=" ">
<polygon fill="white" stroke="#bfbfbf" points="245,-56.5 245,-75.5 295,-75.5 295,-56.5 245,-56.5"/>
<text text-anchor="middle" x="270" y="-63.5" font-family="Helvetica,sans-Serif" font-size="10.00">config.h</text>
</a>
</g>
</g>
<!-- Node0&#45;&gt;Node6 -->
<g id="edge7" class="edge"><title>Node0&#45;&gt;Node6</title>
<path fill="none" stroke="midnightblue" d="M225.752,-112.083C233.47,-104.22 244.905,-92.5688 254.217,-83.0813"/>
<polygon fill="midnightblue" stroke="midnightblue" points="256.904,-85.3396 261.411,-75.7511 251.908,-80.4363 256.904,-85.3396"/>
</g>
<!-- Node2 -->
<g id="node3" class="node"><title>Node2</title>
<g id="a_node3"><a xlink:title=" ">
<polygon fill="white" stroke="#bfbfbf" points="0,-0.5 0,-19.5 42,-19.5 42,-0.5 0,-0.5"/>
<text text-anchor="middle" x="21" y="-7.5" font-family="Helvetica,sans-Serif" font-size="10.00">vector</text>
</a>
</g>
</g>
<!-- Node1&#45;&gt;Node2 -->
<g id="edge2" class="edge"><title>Node1&#45;&gt;Node2</title>
<path fill="none" stroke="midnightblue" d="M128.718,-56.4435C107.653,-47.5566 74.4832,-33.5632 50.5145,-23.4514"/>
<polygon fill="midnightblue" stroke="midnightblue" points="51.7612,-20.1787 41.1871,-19.5164 49.0403,-26.6283 51.7612,-20.1787"/>
</g>
<!-- Node3 -->
<g id="node4" class="node"><title>Node3</title>
<g id="a_node4"><a xlink:title=" ">
<polygon fill="white" stroke="#bfbfbf" points="60.5,-0.5 60.5,-19.5 101.5,-19.5 101.5,-0.5 60.5,-0.5"/>
<text text-anchor="middle" x="81" y="-7.5" font-family="Helvetica,sans-Serif" font-size="10.00">string</text>
</a>
</g>
</g>
<!-- Node1&#45;&gt;Node3 -->
<g id="edge3" class="edge"><title>Node1&#45;&gt;Node3</title>
<path fill="none" stroke="midnightblue" d="M138.075,-56.324C127.825,-48.1849 112.279,-35.8395 99.999,-26.0874"/>
<polygon fill="midnightblue" stroke="midnightblue" points="102.132,-23.3119 92.1242,-19.8339 97.7787,-28.7937 102.132,-23.3119"/>
</g>
<!-- Node1&#45;&gt;Node4 -->
<g id="edge4" class="edge"><title>Node1&#45;&gt;Node4</title>
<path fill="none" stroke="midnightblue" d="M160.889,-56.324C172.15,-48.1066 189.287,-35.6017 202.709,-25.8069"/>
<polygon fill="midnightblue" stroke="midnightblue" points="204.88,-28.5559 210.894,-19.8339 200.753,-22.9014 204.88,-28.5559"/>
</g>
<!-- Node5 -->
<g id="node6" class="node"><title>Node5</title>
<g id="a_node6"><a xlink:title=" ">
<polygon fill="white" stroke="#bfbfbf" points="120,-0.5 120,-19.5 178,-19.5 178,-0.5 120,-0.5"/>
<text text-anchor="middle" x="149" y="-7.5" font-family="Helvetica,sans-Serif" font-size="10.00">functional</text>
</a>
</g>
</g>
<!-- Node1&#45;&gt;Node5 -->
<g id="edge5" class="edge"><title>Node1&#45;&gt;Node5</title>
<path fill="none" stroke="midnightblue" d="M149,-56.083C149,-49.0059 149,-38.8611 149,-29.9865"/>
<polygon fill="midnightblue" stroke="midnightblue" points="152.5,-29.751 149,-19.7511 145.5,-29.7511 152.5,-29.751"/>
</g>
</g>
</svg>
