<?xml version="1.0" encoding="UTF-8" standalone="no"?>
<!DOCTYPE svg PUBLIC "-//W3C//DTD SVG 1.1//EN"
 "http://www.w3.org/Graphics/SVG/1.1/DTD/svg11.dtd">
<!-- Generated by graphviz version 2.38.0 (20140413.2041)
 -->
<!-- Title: libopenage/audio/category.h Pages: 1 -->
<!--zoomable 296 -->
<svg id="main" version="1.1" xmlns="http://www.w3.org/2000/svg" xmlns:xlink="http://www.w3.org/1999/xlink" xml:space="preserve" onload="init(evt)">
<style type="text/css"><![CDATA[
.edge:hover path { stroke: red; }
.edge:hover polygon { stroke: red; fill: red; }
]]></style>
<script type="text/javascript"><![CDATA[
var edges = document.getElementsByTagName('g');
if (edges && edges.length) {
  for (var i=0;i<edges.length;i++) {
    if (edges[i].id.substr(0,4)=='edge') {
      edges[i].setAttribute('class','edge');
    }
  }
}
]]></script>
        <defs>
                <circle id="rim" cx="0" cy="0" r="7"/>
                <circle id="rim2" cx="0" cy="0" r="3.5"/>
                <g id="zoomPlus">
                        <use xlink:href="#rim" fill="#404040">
                                <set attributeName="fill" to="#808080" begin="zoomplus.mouseover" end="zoomplus.mouseout"/>
                        </use>
                        <path d="M-4,0h8M0,-4v8" fill="none" stroke="white" stroke-width="1.5" pointer-events="none"/>
                </g>
                <g id="zoomMin">
                        <use xlink:href="#rim" fill="#404040">
                                <set attributeName="fill" to="#808080" begin="zoomminus.mouseover" end="zoomminus.mouseout"/>
                        </use>
                        <path d="M-4,0h8" fill="none" stroke="white" stroke-width="1.5" pointer-events="none"/>
                </g>
                <g id="dirArrow">
                        <path fill="none" stroke="white" stroke-width="1.5" d="M0,-3.0v7 M-2.5,-0.5L0,-3.0L2.5,-0.5"/>
                </g>
               <g id="resetDef">
                       <use xlink:href="#rim2" fill="#404040">
                               <set attributeName="fill" to="#808080" begin="reset.mouseover" end="reset.mouseout"/>
                       </use>
               </g>
        </defs>

<script type="text/javascript">
var viewWidth = 3124;
var viewHeight = 296;
var sectionId = 'dynsection-1';
</script>
<script xlink:href="svgpan.js"/>
<svg id="graph" class="graph">
<g id="viewport">
<title>libopenage/audio/category.h</title>
<polygon fill="white" stroke="none" points="-4,4 -4,-292 3120,-292 3120,4 -4,4"/>
<!-- Node2 -->
<g id="node1" class="node"><title>Node2</title>
<g id="a_node1"><a xlink:title=" ">
<polygon fill="#bfbfbf" stroke="black" points="2611.5,-268.5 2611.5,-287.5 2749.5,-287.5 2749.5,-268.5 2611.5,-268.5"/>
<text text-anchor="middle" x="2680.5" y="-275.5" font-family="Helvetica,sans-Serif" font-size="10.00">libopenage/audio/category.h</text>
</a>
</g>
</g>
<!-- Node3 -->
<g id="node2" class="node"><title>Node3</title>
<g id="a_node2"><a xlink:href="audio__manager_8h.xhtml" target="_top" xlink:title=" ">
<polygon fill="white" stroke="black" points="2383.5,-134.5 2383.5,-164.5 2499.5,-164.5 2499.5,-134.5 2383.5,-134.5"/>
<text text-anchor="start" x="2391.5" y="-152.5" font-family="Helvetica,sans-Serif" font-size="10.00">libopenage/audio/audio</text>
<text text-anchor="middle" x="2441.5" y="-141.5" font-family="Helvetica,sans-Serif" font-size="10.00">_manager.h</text>
</a>
</g>
</g>
<!-- Node2&#45;&gt;Node3 -->
<g id="edge1" class="edge"><title>Node2&#45;&gt;Node3</title>
<path fill="none" stroke="midnightblue" d="M2601.26,-269.78C2546.65,-263.179 2480.46,-251.42 2460.5,-232 2442.38,-214.37 2440.12,-183.055 2440.52,-164.802"/>
<polygon fill="midnightblue" stroke="midnightblue" points="2600.97,-273.27 2611.31,-270.953 2601.78,-266.317 2600.97,-273.27"/>
</g>
<!-- Node29 -->
<g id="node28" class="node"><title>Node29</title>
<g id="a_node28"><a xlink:href="hash__functions_8h.xhtml" target="_top" xlink:title=" ">
<polygon fill="white" stroke="black" points="2300,-201.5 2300,-231.5 2413,-231.5 2413,-201.5 2300,-201.5"/>
<text text-anchor="start" x="2308" y="-219.5" font-family="Helvetica,sans-Serif" font-size="10.00">libopenage/audio/hash</text>
<text text-anchor="middle" x="2356.5" y="-208.5" font-family="Helvetica,sans-Serif" font-size="10.00">_functions.h</text>
</a>
</g>
</g>
<!-- Node2&#45;&gt;Node29 -->
<g id="edge28" class="edge"><title>Node2&#45;&gt;Node29</title>
<path fill="none" stroke="midnightblue" d="M2620.58,-266.784C2569.27,-257.93 2493.44,-244.595 2427.5,-232 2422.8,-231.103 2417.94,-230.153 2413.06,-229.185"/>
<polygon fill="midnightblue" stroke="midnightblue" points="2620.06,-270.246 2630.51,-268.494 2621.25,-263.347 2620.06,-270.246"/>
</g>
<!-- Node30 -->
<g id="node29" class="node"><title>Node30</title>
<g id="a_node29"><a xlink:href="sound_8h.xhtml" target="_top" xlink:title=" ">
<polygon fill="white" stroke="black" points="2470,-207 2470,-226 2597,-226 2597,-207 2470,-207"/>
<text text-anchor="middle" x="2533.5" y="-214" font-family="Helvetica,sans-Serif" font-size="10.00">libopenage/audio/sound.h</text>
</a>
</g>
</g>
<!-- Node2&#45;&gt;Node30 -->
<g id="edge31" class="edge"><title>Node2&#45;&gt;Node30</title>
<path fill="none" stroke="midnightblue" d="M2649.94,-264.631C2621.38,-253.072 2579.5,-236.12 2554.52,-226.009"/>
<polygon fill="midnightblue" stroke="midnightblue" points="2648.86,-267.967 2659.44,-268.475 2651.48,-261.479 2648.86,-267.967"/>
</g>
<!-- Node31 -->
<g id="node30" class="node"><title>Node31</title>
<g id="a_node30"><a xlink:href="resource__def_8h.xhtml" target="_top" xlink:title=" ">
<polygon fill="white" stroke="black" points="2615.5,-201.5 2615.5,-231.5 2745.5,-231.5 2745.5,-201.5 2615.5,-201.5"/>
<text text-anchor="start" x="2623.5" y="-219.5" font-family="Helvetica,sans-Serif" font-size="10.00">libopenage/audio/resource</text>
<text text-anchor="middle" x="2680.5" y="-208.5" font-family="Helvetica,sans-Serif" font-size="10.00">_def.h</text>
</a>
</g>
</g>
<!-- Node2&#45;&gt;Node31 -->
<g id="edge34" class="edge"><title>Node2&#45;&gt;Node31</title>
<path fill="none" stroke="midnightblue" d="M2680.5,-258.235C2680.5,-249.586 2680.5,-239.497 2680.5,-231.523"/>
<polygon fill="midnightblue" stroke="midnightblue" points="2677,-258.475 2680.5,-268.475 2684,-258.475 2677,-258.475"/>
</g>
<!-- Node32 -->
<g id="node31" class="node"><title>Node32</title>
<g id="a_node31"><a xlink:href="audio_2resource_8h.xhtml" target="_top" xlink:title=" ">
<polygon fill="white" stroke="black" points="2754.5,-140 2754.5,-159 2892.5,-159 2892.5,-140 2754.5,-140"/>
<text text-anchor="middle" x="2823.5" y="-147" font-family="Helvetica,sans-Serif" font-size="10.00">libopenage/audio/resource.h</text>
</a>
</g>
</g>
<!-- Node2&#45;&gt;Node32 -->
<g id="edge48" class="edge"><title>Node2&#45;&gt;Node32</title>
<path fill="none" stroke="midnightblue" d="M2707.11,-263.56C2721.85,-255.462 2740.06,-244.343 2754.5,-232 2781.42,-208.991 2806.58,-174.948 2817.62,-159.144"/>
<polygon fill="midnightblue" stroke="midnightblue" points="2705.17,-260.628 2698,-268.427 2708.47,-266.803 2705.17,-260.628"/>
</g>
<!-- Node33 -->
<g id="node32" class="node"><title>Node33</title>
<g id="a_node32"><a xlink:href="dynamic__resource_8h.xhtml" target="_top" xlink:title=" ">
<polygon fill="white" stroke="black" points="2840,-67.5 2840,-97.5 2969,-97.5 2969,-67.5 2840,-67.5"/>
<text text-anchor="start" x="2848" y="-85.5" font-family="Helvetica,sans-Serif" font-size="10.00">libopenage/audio/dynamic</text>
<text text-anchor="middle" x="2904.5" y="-74.5" font-family="Helvetica,sans-Serif" font-size="10.00">_resource.h</text>
</a>
</g>
</g>
<!-- Node2&#45;&gt;Node33 -->
<g id="edge50" class="edge"><title>Node2&#45;&gt;Node33</title>
<path fill="none" stroke="midnightblue" d="M2737.06,-265.945C2790.03,-252.252 2866.17,-223.205 2901.5,-165 2914.06,-144.303 2911.18,-114.892 2907.88,-97.6432"/>
<polygon fill="midnightblue" stroke="midnightblue" points="2735.99,-262.604 2727.12,-268.405 2737.67,-269.399 2735.99,-262.604"/>
</g>
<!-- Node37 -->
<g id="node36" class="node"><title>Node37</title>
<g id="a_node36"><a xlink:href="category_8cpp.xhtml" target="_top" xlink:title=" ">
<polygon fill="white" stroke="black" points="2949,-207 2949,-226 3098,-226 3098,-207 2949,-207"/>
<text text-anchor="middle" x="3023.5" y="-214" font-family="Helvetica,sans-Serif" font-size="10.00">libopenage/audio/category.cpp</text>
</a>
</g>
</g>
<!-- Node2&#45;&gt;Node37 -->
<g id="edge49" class="edge"><title>Node2&#45;&gt;Node37</title>
<path fill="none" stroke="midnightblue" d="M2739.54,-266.759C2805.91,-255.246 2912.47,-236.76 2974.45,-226.009"/>
<polygon fill="midnightblue" stroke="midnightblue" points="2738.9,-263.317 2729.64,-268.475 2740.09,-270.214 2738.9,-263.317"/>
</g>
<!-- Node4 -->
<g id="node3" class="node"><title>Node4</title>
<g id="a_node3"><a xlink:href="audio__manager_8cpp.xhtml" target="_top" xlink:title=" ">
<polygon fill="white" stroke="black" points="2308.5,-67.5 2308.5,-97.5 2424.5,-97.5 2424.5,-67.5 2308.5,-67.5"/>
<text text-anchor="start" x="2316.5" y="-85.5" font-family="Helvetica,sans-Serif" font-size="10.00">libopenage/audio/audio</text>
<text text-anchor="middle" x="2366.5" y="-74.5" font-family="Helvetica,sans-Serif" font-size="10.00">_manager.cpp</text>
</a>
</g>
</g>
<!-- Node3&#45;&gt;Node4 -->
<g id="edge2" class="edge"><title>Node3&#45;&gt;Node4</title>
<path fill="none" stroke="midnightblue" d="M2417.38,-127.598C2406.06,-117.783 2392.86,-106.344 2382.74,-97.5765"/>
<polygon fill="midnightblue" stroke="midnightblue" points="2415.38,-130.492 2425.23,-134.396 2419.96,-125.202 2415.38,-130.492"/>
</g>
<!-- Node5 -->
<g id="node4" class="node"><title>Node5</title>
<g id="a_node4"><a xlink:href="dynamic__resource_8cpp.xhtml" target="_top" xlink:title=" ">
<polygon fill="white" stroke="black" points="2683,-0.5 2683,-30.5 2812,-30.5 2812,-0.5 2683,-0.5"/>
<text text-anchor="start" x="2691" y="-18.5" font-family="Helvetica,sans-Serif" font-size="10.00">libopenage/audio/dynamic</text>
<text text-anchor="middle" x="2747.5" y="-7.5" font-family="Helvetica,sans-Serif" font-size="10.00">_resource.cpp</text>
</a>
</g>
</g>
<!-- Node3&#45;&gt;Node5 -->
<g id="edge3" class="edge"><title>Node3&#45;&gt;Node5</title>
<path fill="none" stroke="midnightblue" d="M2373.42,-134.261C2324.18,-120.976 2270.92,-98.4616 2299.5,-67 2327.57,-36.0981 2632.19,-37.021 2673.5,-31 2676.61,-30.5469 2679.79,-30.0512 2682.99,-29.5251"/>
<polygon fill="midnightblue" stroke="midnightblue" points="2372.63,-137.672 2383.19,-136.794 2374.38,-130.896 2372.63,-137.672"/>
</g>
<!-- Node6 -->
<g id="node5" class="node"><title>Node6</title>
<g id="a_node5"><a xlink:href="engine_8h.xhtml" target="_top" xlink:title=" ">
<polygon fill="white" stroke="black" points="1467,-73 1467,-92 1570,-92 1570,-73 1467,-73"/>
<text text-anchor="middle" x="1518.5" y="-80" font-family="Helvetica,sans-Serif" font-size="10.00">libopenage/engine.h</text>
</a>
</g>
</g>
<!-- Node3&#45;&gt;Node6 -->
<g id="edge4" class="edge"><title>Node3&#45;&gt;Node6</title>
<path fill="none" stroke="midnightblue" d="M2373.2,-143.69C2196.4,-131.239 1726.65,-98.1587 1570.09,-87.1332"/>
<polygon fill="midnightblue" stroke="midnightblue" points="2373.19,-147.198 2383.41,-144.409 2373.68,-140.215 2373.19,-147.198"/>
</g>
<!-- Node28 -->
<g id="node27" class="node"><title>Node28</title>
<g id="a_node27"><a xlink:href="sound_8cpp.xhtml" target="_top" xlink:title=" ">
<polygon fill="white" stroke="black" points="2443,-73 2443,-92 2580,-92 2580,-73 2443,-73"/>
<text text-anchor="middle" x="2511.5" y="-80" font-family="Helvetica,sans-Serif" font-size="10.00">libopenage/audio/sound.cpp</text>
</a>
</g>
</g>
<!-- Node3&#45;&gt;Node28 -->
<g id="edge27" class="edge"><title>Node3&#45;&gt;Node28</title>
<path fill="none" stroke="midnightblue" d="M2464.29,-127.335C2477.15,-115.401 2492.51,-101.136 2502.14,-92.1945"/>
<polygon fill="midnightblue" stroke="midnightblue" points="2461.64,-125.027 2456.69,-134.396 2466.4,-130.156 2461.64,-125.027"/>
</g>
<!-- Node6&#45;&gt;Node5 -->
<g id="edge5" class="edge"><title>Node6&#45;&gt;Node5</title>
<path fill="none" stroke="midnightblue" d="M1580.44,-82.0449C1753.78,-82.8697 2258.22,-80.4827 2673.5,-31 2676.49,-30.6437 2679.54,-30.2345 2682.61,-29.7845"/>
<polygon fill="midnightblue" stroke="midnightblue" points="1580.26,-78.544 1570.24,-81.9907 1580.22,-85.5439 1580.26,-78.544"/>
</g>
<!-- Node7 -->
<g id="node6" class="node"><title>Node7</title>
<g id="a_node6"><a xlink:href="audio_2resource_8cpp.xhtml" target="_top" xlink:title=" ">
<polygon fill="white" stroke="black" points="2830,-6 2830,-25 2979,-25 2979,-6 2830,-6"/>
<text text-anchor="middle" x="2904.5" y="-13" font-family="Helvetica,sans-Serif" font-size="10.00">libopenage/audio/resource.cpp</text>
</a>
</g>
</g>
<!-- Node6&#45;&gt;Node7 -->
<g id="edge6" class="edge"><title>Node6&#45;&gt;Node7</title>
<path fill="none" stroke="midnightblue" d="M1580.48,-80.184C1805.01,-75.2465 2575.52,-56.7813 2820.5,-31 2833.89,-29.5905 2848.38,-27.3509 2861.49,-25.0495"/>
<polygon fill="midnightblue" stroke="midnightblue" points="1580.12,-76.6908 1570.2,-80.4088 1580.28,-83.6891 1580.12,-76.6908"/>
</g>
<!-- Node8 -->
<g id="node7" class="node"><title>Node8</title>
<g id="a_node7"><a xlink:href="console_8cpp.xhtml" target="_top" xlink:title=" ">
<polygon fill="white" stroke="black" points="1350.5,-0.5 1350.5,-30.5 1450.5,-30.5 1450.5,-0.5 1350.5,-0.5"/>
<text text-anchor="start" x="1358.5" y="-18.5" font-family="Helvetica,sans-Serif" font-size="10.00">libopenage/console</text>
<text text-anchor="middle" x="1400.5" y="-7.5" font-family="Helvetica,sans-Serif" font-size="10.00">/console.cpp</text>
</a>
</g>
</g>
<!-- Node6&#45;&gt;Node8 -->
<g id="edge7" class="edge"><title>Node6&#45;&gt;Node8</title>
<path fill="none" stroke="midnightblue" d="M1493.81,-67.9015C1473.96,-56.9655 1446.16,-41.6532 1426.08,-30.589"/>
<polygon fill="midnightblue" stroke="midnightblue" points="1492.14,-70.9745 1502.59,-72.7338 1495.52,-64.8432 1492.14,-70.9745"/>
</g>
<!-- Node9 -->
<g id="node8" class="node"><title>Node9</title>
<g id="a_node8"><a xlink:href="draw_8cpp.xhtml" target="_top" xlink:title=" ">
<polygon fill="white" stroke="black" points="1468.5,-0.5 1468.5,-30.5 1568.5,-30.5 1568.5,-0.5 1468.5,-0.5"/>
<text text-anchor="start" x="1476.5" y="-18.5" font-family="Helvetica,sans-Serif" font-size="10.00">libopenage/console</text>
<text text-anchor="middle" x="1518.5" y="-7.5" font-family="Helvetica,sans-Serif" font-size="10.00">/draw.cpp</text>
</a>
</g>
</g>
<!-- Node6&#45;&gt;Node9 -->
<g id="edge8" class="edge"><title>Node6&#45;&gt;Node9</title>
<path fill="none" stroke="midnightblue" d="M1518.5,-62.4107C1518.5,-52.222 1518.5,-39.901 1518.5,-30.589"/>
<polygon fill="midnightblue" stroke="midnightblue" points="1515,-62.7338 1518.5,-72.7338 1522,-62.7338 1515,-62.7338"/>
</g>
<!-- Node10 -->
<g id="node9" class="node"><title>Node10</title>
<g id="a_node9"><a xlink:href="engine_8cpp.xhtml" target="_top" xlink:title=" ">
<polygon fill="white" stroke="black" points="1587,-6 1587,-25 1700,-25 1700,-6 1587,-6"/>
<text text-anchor="middle" x="1643.5" y="-13" font-family="Helvetica,sans-Serif" font-size="10.00">libopenage/engine.cpp</text>
</a>
</g>
</g>
<!-- Node6&#45;&gt;Node10 -->
<g id="edge9" class="edge"><title>Node6&#45;&gt;Node10</title>
<path fill="none" stroke="midnightblue" d="M1544.26,-68.1034C1569.02,-55.2309 1605.69,-36.16 1626.83,-25.1672"/>
<polygon fill="midnightblue" stroke="midnightblue" points="1542.36,-65.1497 1535.1,-72.8685 1545.59,-71.3602 1542.36,-65.1497"/>
</g>
<!-- Node11 -->
<g id="node10" class="node"><title>Node11</title>
<g id="a_node10"><a xlink:href="game__control_8cpp.xhtml" target="_top" xlink:title=" ">
<polygon fill="white" stroke="black" points="1718,-6 1718,-25 1861,-25 1861,-6 1718,-6"/>
<text text-anchor="middle" x="1789.5" y="-13" font-family="Helvetica,sans-Serif" font-size="10.00">libopenage/game_control.cpp</text>
</a>
</g>
</g>
<!-- Node6&#45;&gt;Node11 -->
<g id="edge10" class="edge"><title>Node6&#45;&gt;Node11</title>
<path fill="none" stroke="midnightblue" d="M1564.09,-70.5642C1617.52,-57.7499 1704.93,-36.7848 1753.71,-25.0834"/>
<polygon fill="midnightblue" stroke="midnightblue" points="1563.12,-67.1996 1554.21,-72.9355 1564.75,-74.0066 1563.12,-67.1996"/>
</g>
<!-- Node12 -->
<g id="node11" class="node"><title>Node12</title>
<g id="a_node11"><a xlink:href="game__renderer_8cpp.xhtml" target="_top" xlink:title=" ">
<polygon fill="white" stroke="black" points="1879,-6 1879,-25 2028,-25 2028,-6 1879,-6"/>
<text text-anchor="middle" x="1953.5" y="-13" font-family="Helvetica,sans-Serif" font-size="10.00">libopenage/game_renderer.cpp</text>
</a>
</g>
</g>
<!-- Node6&#45;&gt;Node12 -->
<g id="edge11" class="edge"><title>Node6&#45;&gt;Node12</title>
<path fill="none" stroke="midnightblue" d="M1580.01,-73.1824C1650.15,-63.5741 1768.22,-47.0243 1869.5,-31 1881.19,-29.1499 1893.78,-27.0401 1905.56,-25.0135"/>
<polygon fill="midnightblue" stroke="midnightblue" points="1579.45,-69.7262 1570.02,-74.5488 1580.4,-76.6617 1579.45,-69.7262"/>
</g>
<!-- Node13 -->
<g id="node12" class="node"><title>Node13</title>
<g id="a_node12"><a xlink:href="game__main_8cpp.xhtml" target="_top" xlink:title=" ">
<polygon fill="white" stroke="black" points="2046.5,-0.5 2046.5,-30.5 2158.5,-30.5 2158.5,-0.5 2046.5,-0.5"/>
<text text-anchor="start" x="2054.5" y="-18.5" font-family="Helvetica,sans-Serif" font-size="10.00">libopenage/gamestate</text>
<text text-anchor="middle" x="2102.5" y="-7.5" font-family="Helvetica,sans-Serif" font-size="10.00">/game_main.cpp</text>
</a>
</g>
</g>
<!-- Node6&#45;&gt;Node13 -->
<g id="edge12" class="edge"><title>Node6&#45;&gt;Node13</title>
<path fill="none" stroke="midnightblue" d="M1580.49,-77.8516C1677.97,-71.576 1872.89,-56.8537 2036.5,-31 2039.74,-30.4873 2043.07,-29.9133 2046.42,-29.2975"/>
<polygon fill="midnightblue" stroke="midnightblue" points="1579.98,-74.3765 1570.22,-78.5041 1580.43,-81.3624 1579.98,-74.3765"/>
</g>
<!-- Node14 -->
<g id="node13" class="node"><title>Node14</title>
<g id="a_node13"><a xlink:href="game__spec_8cpp.xhtml" target="_top" xlink:title=" ">
<polygon fill="white" stroke="black" points="2552.5,-0.5 2552.5,-30.5 2664.5,-30.5 2664.5,-0.5 2552.5,-0.5"/>
<text text-anchor="start" x="2560.5" y="-18.5" font-family="Helvetica,sans-Serif" font-size="10.00">libopenage/gamestate</text>
<text text-anchor="middle" x="2608.5" y="-7.5" font-family="Helvetica,sans-Serif" font-size="10.00">/game_spec.cpp</text>
</a>
</g>
</g>
<!-- Node6&#45;&gt;Node14 -->
<g id="edge13" class="edge"><title>Node6&#45;&gt;Node14</title>
<path fill="none" stroke="midnightblue" d="M1580.38,-82.1069C1740.43,-82.8871 2180.9,-80.0124 2543.5,-31 2546.36,-30.6128 2549.29,-30.163 2552.24,-29.6664"/>
<polygon fill="midnightblue" stroke="midnightblue" points="1580.26,-78.6063 1570.25,-82.0507 1580.23,-85.6062 1580.26,-78.6063"/>
</g>
<!-- Node15 -->
<g id="node14" class="node"><title>Node15</title>
<g id="a_node14"><a xlink:href="engine__link_8cpp.xhtml" target="_top" xlink:title=" ">
<polygon fill="white" stroke="black" points="2176.5,-0.5 2176.5,-30.5 2286.5,-30.5 2286.5,-0.5 2176.5,-0.5"/>
<text text-anchor="start" x="2184.5" y="-18.5" font-family="Helvetica,sans-Serif" font-size="10.00">libopenage/gui/engine</text>
<text text-anchor="middle" x="2231.5" y="-7.5" font-family="Helvetica,sans-Serif" font-size="10.00">_link.cpp</text>
</a>
</g>
</g>
<!-- Node6&#45;&gt;Node15 -->
<g id="edge14" class="edge"><title>Node6&#45;&gt;Node15</title>
<path fill="none" stroke="midnightblue" d="M1580.2,-79.6803C1695.93,-75.6075 1953.28,-63.4268 2167.5,-31 2170.43,-30.5567 2173.42,-30.0538 2176.44,-29.5081"/>
<polygon fill="midnightblue" stroke="midnightblue" points="1579.98,-76.1855 1570.11,-80.0272 1580.22,-83.1813 1579.98,-76.1855"/>
</g>
<!-- Node16 -->
<g id="node15" class="node"><title>Node16</title>
<g id="a_node15"><a xlink:href="game__control__link_8cpp.xhtml" target="_top" xlink:title=" ">
<polygon fill="white" stroke="black" points="2304.5,-0.5 2304.5,-30.5 2410.5,-30.5 2410.5,-0.5 2304.5,-0.5"/>
<text text-anchor="start" x="2312.5" y="-18.5" font-family="Helvetica,sans-Serif" font-size="10.00">libopenage/gui/game</text>
<text text-anchor="middle" x="2357.5" y="-7.5" font-family="Helvetica,sans-Serif" font-size="10.00">_control_link.cpp</text>
</a>
</g>
</g>
<!-- Node6&#45;&gt;Node16 -->
<g id="edge15" class="edge"><title>Node6&#45;&gt;Node16</title>
<path fill="none" stroke="midnightblue" d="M1580.5,-80.9306C1712.65,-78.9596 2031.54,-70.1711 2295.5,-31 2298.34,-30.5781 2301.25,-30.0923 2304.17,-29.56"/>
<polygon fill="midnightblue" stroke="midnightblue" points="1580.13,-77.4354 1570.18,-81.0762 1580.23,-84.4347 1580.13,-77.4354"/>
</g>
<!-- Node17 -->
<g id="node16" class="node"><title>Node17</title>
<g id="a_node16"><a xlink:href="game__main__link_8cpp.xhtml" target="_top" xlink:title=" ">
<polygon fill="white" stroke="black" points="2428.5,-0.5 2428.5,-30.5 2534.5,-30.5 2534.5,-0.5 2428.5,-0.5"/>
<text text-anchor="start" x="2436.5" y="-18.5" font-family="Helvetica,sans-Serif" font-size="10.00">libopenage/gui/game</text>
<text text-anchor="middle" x="2481.5" y="-7.5" font-family="Helvetica,sans-Serif" font-size="10.00">_main_link.cpp</text>
</a>
</g>
</g>
<!-- Node6&#45;&gt;Node17 -->
<g id="edge16" class="edge"><title>Node6&#45;&gt;Node17</title>
<path fill="none" stroke="midnightblue" d="M1580.25,-81.7213C1726.73,-81.4466 2106.4,-76.038 2419.5,-31 2422.34,-30.5908 2425.25,-30.1151 2428.18,-29.5907"/>
<polygon fill="midnightblue" stroke="midnightblue" points="1580.11,-78.2214 1570.11,-81.7327 1580.12,-85.2214 1580.11,-78.2214"/>
</g>
<!-- Node18 -->
<g id="node17" class="node"><title>Node18</title>
<g id="a_node17"><a xlink:href="gui_2gui_8cpp.xhtml" target="_top" xlink:title=" ">
<polygon fill="white" stroke="black" points="0,-6 0,-25 113,-25 113,-6 0,-6"/>
<text text-anchor="middle" x="56.5" y="-13" font-family="Helvetica,sans-Serif" font-size="10.00">libopenage/gui/gui.cpp</text>
</a>
</g>
</g>
<!-- Node6&#45;&gt;Node18 -->
<g id="edge17" class="edge"><title>Node6&#45;&gt;Node18</title>
<path fill="none" stroke="midnightblue" d="M1456.73,-80.7453C1222.12,-77.6488 386.236,-64.4641 122.5,-31 111.793,-29.6414 100.257,-27.3866 89.872,-25.0553"/>
<polygon fill="midnightblue" stroke="midnightblue" points="1456.75,-84.2457 1466.79,-80.8767 1456.84,-77.2463 1456.75,-84.2457"/>
</g>
<!-- Node19 -->
<g id="node18" class="node"><title>Node19</title>
<g id="a_node18"><a xlink:href="main_8cpp.xhtml" target="_top" xlink:title=" ">
<polygon fill="white" stroke="black" points="131.5,-6 131.5,-25 237.5,-25 237.5,-6 131.5,-6"/>
<text text-anchor="middle" x="184.5" y="-13" font-family="Helvetica,sans-Serif" font-size="10.00">libopenage/main.cpp</text>
</a>
</g>
</g>
<!-- Node6&#45;&gt;Node19 -->
<g id="edge18" class="edge"><title>Node6&#45;&gt;Node19</title>
<path fill="none" stroke="midnightblue" d="M1456.77,-80.6036C1235.79,-77.152 484.585,-63.2681 246.5,-31 236.422,-29.6341 225.58,-27.3773 215.825,-25.0463"/>
<polygon fill="midnightblue" stroke="midnightblue" points="1456.84,-84.1049 1466.89,-80.7601 1456.95,-77.1058 1456.84,-84.1049"/>
</g>
<!-- Node20 -->
<g id="node19" class="node"><title>Node20</title>
<g id="a_node19"><a xlink:href="terrain_8cpp.xhtml" target="_top" xlink:title=" ">
<polygon fill="white" stroke="black" points="256,-0.5 256,-30.5 349,-30.5 349,-0.5 256,-0.5"/>
<text text-anchor="start" x="264" y="-18.5" font-family="Helvetica,sans-Serif" font-size="10.00">libopenage/terrain</text>
<text text-anchor="middle" x="302.5" y="-7.5" font-family="Helvetica,sans-Serif" font-size="10.00">/terrain.cpp</text>
</a>
</g>
</g>
<!-- Node6&#45;&gt;Node20 -->
<g id="edge19" class="edge"><title>Node6&#45;&gt;Node20</title>
<path fill="none" stroke="midnightblue" d="M1456.62,-80.5567C1248.13,-77.1048 572.415,-63.6176 357.5,-31 354.766,-30.5851 351.973,-30.0875 349.165,-29.5303"/>
<polygon fill="midnightblue" stroke="midnightblue" points="1456.72,-84.0587 1466.78,-80.723 1456.83,-77.0597 1456.72,-84.0587"/>
</g>
<!-- Node21 -->
<g id="node20" class="node"><title>Node21</title>
<g id="a_node20"><a xlink:href="terrain__chunk_8cpp.xhtml" target="_top" xlink:title=" ">
<polygon fill="white" stroke="black" points="367,-0.5 367,-30.5 464,-30.5 464,-0.5 367,-0.5"/>
<text text-anchor="start" x="375" y="-18.5" font-family="Helvetica,sans-Serif" font-size="10.00">libopenage/terrain</text>
<text text-anchor="middle" x="415.5" y="-7.5" font-family="Helvetica,sans-Serif" font-size="10.00">/terrain_chunk.cpp</text>
</a>
</g>
</g>
<!-- Node6&#45;&gt;Node21 -->
<g id="edge20" class="edge"><title>Node6&#45;&gt;Node21</title>
<path fill="none" stroke="midnightblue" d="M1456.93,-80.1515C1262.68,-75.641 664.268,-59.7224 472.5,-31 469.773,-30.5916 466.988,-30.1081 464.186,-29.5698"/>
<polygon fill="midnightblue" stroke="midnightblue" points="1456.89,-83.6513 1466.97,-80.3827 1457.05,-76.6532 1456.89,-83.6513"/>
</g>
<!-- Node22 -->
<g id="node21" class="node"><title>Node22</title>
<g id="a_node21"><a xlink:href="terrain__object_8cpp.xhtml" target="_top" xlink:title=" ">
<polygon fill="white" stroke="black" points="482,-0.5 482,-30.5 579,-30.5 579,-0.5 482,-0.5"/>
<text text-anchor="start" x="490" y="-18.5" font-family="Helvetica,sans-Serif" font-size="10.00">libopenage/terrain</text>
<text text-anchor="middle" x="530.5" y="-7.5" font-family="Helvetica,sans-Serif" font-size="10.00">/terrain_object.cpp</text>
</a>
</g>
</g>
<!-- Node6&#45;&gt;Node22 -->
<g id="edge21" class="edge"><title>Node6&#45;&gt;Node22</title>
<path fill="none" stroke="midnightblue" d="M1456.62,-82.1968C1306.74,-83.0056 912.691,-79.8684 588.5,-31 585.421,-30.5359 582.267,-29.9814 579.098,-29.3641"/>
<polygon fill="midnightblue" stroke="midnightblue" points="1457.01,-85.6946 1466.99,-82.1324 1456.97,-78.6947 1457.01,-85.6946"/>
</g>
<!-- Node23 -->
<g id="node22" class="node"><title>Node23</title>
<g id="a_node22"><a xlink:href="unit_2action_8cpp.xhtml" target="_top" xlink:title=" ">
<polygon fill="white" stroke="black" points="597.5,-6 597.5,-25 727.5,-25 727.5,-6 597.5,-6"/>
<text text-anchor="middle" x="662.5" y="-13" font-family="Helvetica,sans-Serif" font-size="10.00">libopenage/unit/action.cpp</text>
</a>
</g>
</g>
<!-- Node6&#45;&gt;Node23 -->
<g id="edge22" class="edge"><title>Node6&#45;&gt;Node23</title>
<path fill="none" stroke="midnightblue" d="M1456.21,-80.2037C1323.41,-76.8424 1002.83,-65.5462 736.5,-31 724.945,-29.5012 712.481,-27.292 701.136,-25.0475"/>
<polygon fill="midnightblue" stroke="midnightblue" points="1456.49,-83.7117 1466.58,-80.4596 1456.67,-76.7139 1456.49,-83.7117"/>
</g>
<!-- Node24 -->
<g id="node23" class="node"><title>Node24</title>
<g id="a_node23"><a xlink:href="producer_8cpp.xhtml" target="_top" xlink:title=" ">
<polygon fill="white" stroke="black" points="746,-6 746,-25 887,-25 887,-6 746,-6"/>
<text text-anchor="middle" x="816.5" y="-13" font-family="Helvetica,sans-Serif" font-size="10.00">libopenage/unit/producer.cpp</text>
</a>
</g>
</g>
<!-- Node6&#45;&gt;Node24 -->
<g id="edge23" class="edge"><title>Node6&#45;&gt;Node24</title>
<path fill="none" stroke="midnightblue" d="M1456.5,-78.5456C1344.24,-72.7361 1099.98,-57.983 895.5,-31 883.473,-29.4129 870.496,-27.2298 858.605,-25.0392"/>
<polygon fill="midnightblue" stroke="midnightblue" points="1456.46,-82.0479 1466.62,-79.0637 1456.82,-75.057 1456.46,-82.0479"/>
</g>
<!-- Node25 -->
<g id="node24" class="node"><title>Node25</title>
<g id="a_node24"><a xlink:href="selection_8cpp.xhtml" target="_top" xlink:title=" ">
<polygon fill="white" stroke="black" points="905,-6 905,-25 1048,-25 1048,-6 905,-6"/>
<text text-anchor="middle" x="976.5" y="-13" font-family="Helvetica,sans-Serif" font-size="10.00">libopenage/unit/selection.cpp</text>
</a>
</g>
</g>
<!-- Node6&#45;&gt;Node25 -->
<g id="edge24" class="edge"><title>Node6&#45;&gt;Node25</title>
<path fill="none" stroke="midnightblue" d="M1456.56,-76.1273C1367.74,-68.1058 1199.17,-51.701 1056.5,-31 1044.77,-29.2975 1032.12,-27.1511 1020.42,-25.0354"/>
<polygon fill="midnightblue" stroke="midnightblue" points="1456.46,-79.6319 1466.73,-77.0404 1457.08,-72.6599 1456.46,-79.6319"/>
</g>
<!-- Node26 -->
<g id="node25" class="node"><title>Node26</title>
<g id="a_node25"><a xlink:href="unit_8cpp.xhtml" target="_top" xlink:title=" ">
<polygon fill="white" stroke="black" points="1066,-6 1066,-25 1185,-25 1185,-6 1066,-6"/>
<text text-anchor="middle" x="1125.5" y="-13" font-family="Helvetica,sans-Serif" font-size="10.00">libopenage/unit/unit.cpp</text>
</a>
</g>
</g>
<!-- Node6&#45;&gt;Node26 -->
<g id="edge25" class="edge"><title>Node6&#45;&gt;Node26</title>
<path fill="none" stroke="midnightblue" d="M1456.69,-72.9459C1391.18,-63.6341 1284.78,-47.811 1193.5,-31 1183.77,-29.2073 1173.29,-27.0753 1163.55,-25.0054"/>
<polygon fill="midnightblue" stroke="midnightblue" points="1456.45,-76.4471 1466.85,-74.3836 1457.44,-69.5162 1456.45,-76.4471"/>
</g>
<!-- Node27 -->
<g id="node26" class="node"><title>Node27</title>
<g id="a_node26"><a xlink:href="profiler_8cpp.xhtml" target="_top" xlink:title=" ">
<polygon fill="white" stroke="black" points="1203,-6 1203,-25 1332,-25 1332,-6 1203,-6"/>
<text text-anchor="middle" x="1267.5" y="-13" font-family="Helvetica,sans-Serif" font-size="10.00">libopenage/util/profiler.cpp</text>
</a>
</g>
</g>
<!-- Node6&#45;&gt;Node27 -->
<g id="edge26" class="edge"><title>Node6&#45;&gt;Node27</title>
<path fill="none" stroke="midnightblue" d="M1475.65,-70.4039C1426.12,-57.5757 1345.64,-36.7361 1300.65,-25.0834"/>
<polygon fill="midnightblue" stroke="midnightblue" points="1474.87,-73.8168 1485.43,-72.9355 1476.62,-67.0403 1474.87,-73.8168"/>
</g>
<!-- Node29&#45;&gt;Node3 -->
<g id="edge29" class="edge"><title>Node29&#45;&gt;Node3</title>
<path fill="none" stroke="midnightblue" d="M2383.09,-195.168C2396.09,-185.228 2411.4,-173.514 2423.09,-164.577"/>
<polygon fill="midnightblue" stroke="midnightblue" points="2380.76,-192.541 2374.94,-201.396 2385.01,-198.102 2380.76,-192.541"/>
</g>
<!-- Node29&#45;&gt;Node4 -->
<g id="edge30" class="edge"><title>Node29&#45;&gt;Node4</title>
<path fill="none" stroke="midnightblue" d="M2358.33,-191.39C2360.41,-163.901 2363.74,-119.888 2365.44,-97.5247"/>
<polygon fill="midnightblue" stroke="midnightblue" points="2354.84,-191.138 2357.57,-201.374 2361.82,-191.667 2354.84,-191.138"/>
</g>
<!-- Node30&#45;&gt;Node3 -->
<g id="edge32" class="edge"><title>Node30&#45;&gt;Node3</title>
<path fill="none" stroke="midnightblue" d="M2512.76,-200.849C2497.41,-190 2476.61,-175.303 2461.44,-164.589"/>
<polygon fill="midnightblue" stroke="midnightblue" points="2510.91,-203.822 2521.09,-206.734 2514.94,-198.105 2510.91,-203.822"/>
</g>
<!-- Node30&#45;&gt;Node28 -->
<g id="edge33" class="edge"><title>Node30&#45;&gt;Node28</title>
<path fill="none" stroke="midnightblue" d="M2530.38,-196.775C2525.54,-167.746 2516.42,-113.038 2512.92,-92.0212"/>
<polygon fill="midnightblue" stroke="midnightblue" points="2526.96,-197.551 2532.06,-206.839 2533.86,-196.4 2526.96,-197.551"/>
</g>
<!-- Node31&#45;&gt;Node3 -->
<g id="edge35" class="edge"><title>Node31&#45;&gt;Node3</title>
<path fill="none" stroke="midnightblue" d="M2619.28,-198.85C2580.31,-188.252 2530.4,-174.677 2493.38,-164.611"/>
<polygon fill="midnightblue" stroke="midnightblue" points="2618.37,-202.229 2628.93,-201.476 2620.2,-195.474 2618.37,-202.229"/>
</g>
<!-- Node31&#45;&gt;Node14 -->
<g id="edge47" class="edge"><title>Node31&#45;&gt;Node14</title>
<path fill="none" stroke="midnightblue" d="M2631.62,-196.707C2618.16,-189.01 2605.16,-178.629 2597.5,-165 2584.77,-142.352 2598.81,-63.7225 2605.43,-30.9819"/>
<polygon fill="midnightblue" stroke="midnightblue" points="2630,-199.812 2640.48,-201.385 2633.27,-193.622 2630,-199.812"/>
</g>
<!-- Node31&#45;&gt;Node32 -->
<g id="edge36" class="edge"><title>Node31&#45;&gt;Node32</title>
<path fill="none" stroke="midnightblue" d="M2720.91,-197.131C2748.43,-184.62 2783.59,-168.64 2804.78,-159.007"/>
<polygon fill="midnightblue" stroke="midnightblue" points="2719.18,-194.072 2711.53,-201.396 2722.08,-200.444 2719.18,-194.072"/>
</g>
<!-- Node36 -->
<g id="node35" class="node"><title>Node36</title>
<g id="a_node35"><a xlink:href="resource__def_8cpp.xhtml" target="_top" xlink:title=" ">
<polygon fill="white" stroke="black" points="2606.5,-134.5 2606.5,-164.5 2736.5,-164.5 2736.5,-134.5 2606.5,-134.5"/>
<text text-anchor="start" x="2614.5" y="-152.5" font-family="Helvetica,sans-Serif" font-size="10.00">libopenage/audio/resource</text>
<text text-anchor="middle" x="2671.5" y="-141.5" font-family="Helvetica,sans-Serif" font-size="10.00">_def.cpp</text>
</a>
</g>
</g>
<!-- Node31&#45;&gt;Node36 -->
<g id="edge46" class="edge"><title>Node31&#45;&gt;Node36</title>
<path fill="none" stroke="midnightblue" d="M2677.16,-191.403C2675.91,-182.37 2674.53,-172.408 2673.45,-164.577"/>
<polygon fill="midnightblue" stroke="midnightblue" points="2673.71,-191.971 2678.55,-201.396 2680.64,-191.01 2673.71,-191.971"/>
</g>
<!-- Node32&#45;&gt;Node4 -->
<g id="edge37" class="edge"><title>Node32&#45;&gt;Node4</title>
<path fill="none" stroke="midnightblue" d="M2770.6,-138.157C2762.22,-136.666 2753.63,-135.224 2745.5,-134 2607.47,-113.232 2571.21,-120.79 2433.5,-98 2430.56,-97.5142 2427.56,-96.985 2424.54,-96.4256"/>
<polygon fill="midnightblue" stroke="midnightblue" points="2770.21,-141.644 2780.68,-139.99 2771.46,-134.757 2770.21,-141.644"/>
</g>
<!-- Node32&#45;&gt;Node7 -->
<g id="edge44" class="edge"><title>Node32&#45;&gt;Node7</title>
<path fill="none" stroke="midnightblue" d="M2820.77,-129.892C2819.17,-112.435 2819.27,-86.2113 2830.5,-67 2842.19,-46.9906 2865.34,-33.166 2882.65,-25.1051"/>
<polygon fill="midnightblue" stroke="midnightblue" points="2817.31,-130.423 2821.98,-139.935 2824.26,-129.59 2817.31,-130.423"/>
</g>
<!-- Node32&#45;&gt;Node28 -->
<g id="edge45" class="edge"><title>Node32&#45;&gt;Node28</title>
<path fill="none" stroke="midnightblue" d="M2772.53,-137.882C2711.18,-125.099 2609.33,-103.882 2552.7,-92.0834"/>
<polygon fill="midnightblue" stroke="midnightblue" points="2771.89,-141.322 2782.39,-139.936 2773.31,-134.469 2771.89,-141.322"/>
</g>
<!-- Node32&#45;&gt;Node33 -->
<g id="edge38" class="edge"><title>Node32&#45;&gt;Node33</title>
<path fill="none" stroke="midnightblue" d="M2842.52,-133.237C2855.96,-122.452 2873.84,-108.102 2886.94,-97.589"/>
<polygon fill="midnightblue" stroke="midnightblue" points="2840.03,-130.745 2834.42,-139.734 2844.41,-136.205 2840.03,-130.745"/>
</g>
<!-- Node34 -->
<g id="node33" class="node"><title>Node34</title>
<g id="a_node33"><a xlink:href="in__memory__resource_8h.xhtml" target="_top" xlink:title=" ">
<polygon fill="white" stroke="black" points="2987.5,-67.5 2987.5,-97.5 3095.5,-97.5 3095.5,-67.5 2987.5,-67.5"/>
<text text-anchor="start" x="2995.5" y="-85.5" font-family="Helvetica,sans-Serif" font-size="10.00">libopenage/audio/in</text>
<text text-anchor="middle" x="3041.5" y="-74.5" font-family="Helvetica,sans-Serif" font-size="10.00">_memory_resource.h</text>
</a>
</g>
</g>
<!-- Node32&#45;&gt;Node34 -->
<g id="edge41" class="edge"><title>Node32&#45;&gt;Node34</title>
<path fill="none" stroke="midnightblue" d="M2862.35,-136.917C2899.31,-125.895 2954.99,-109.294 2994.45,-97.5281"/>
<polygon fill="midnightblue" stroke="midnightblue" points="2861.03,-133.657 2852.45,-139.869 2863.03,-140.365 2861.03,-133.657"/>
</g>
<!-- Node33&#45;&gt;Node5 -->
<g id="edge39" class="edge"><title>Node33&#45;&gt;Node5</title>
<path fill="none" stroke="midnightblue" d="M2861.13,-63.5442C2836.01,-53.143 2804.84,-40.238 2781.5,-30.5765"/>
<polygon fill="midnightblue" stroke="midnightblue" points="2859.86,-66.8045 2870.43,-67.396 2862.53,-60.3368 2859.86,-66.8045"/>
</g>
<!-- Node33&#45;&gt;Node7 -->
<g id="edge40" class="edge"><title>Node33&#45;&gt;Node7</title>
<path fill="none" stroke="midnightblue" d="M2904.5,-57.2495C2904.5,-46.017 2904.5,-33.3767 2904.5,-25.1945"/>
<polygon fill="midnightblue" stroke="midnightblue" points="2901,-57.3959 2904.5,-67.396 2908,-57.396 2901,-57.3959"/>
</g>
<!-- Node34&#45;&gt;Node7 -->
<g id="edge43" class="edge"><title>Node34&#45;&gt;Node7</title>
<path fill="none" stroke="midnightblue" d="M3002.44,-62.9674C2976.12,-50.481 2942.64,-34.5978 2922.43,-25.007"/>
<polygon fill="midnightblue" stroke="midnightblue" points="3001.24,-66.2715 3011.77,-67.396 3004.24,-59.9472 3001.24,-66.2715"/>
</g>
<!-- Node35 -->
<g id="node34" class="node"><title>Node35</title>
<g id="a_node34"><a xlink:href="in__memory__resource_8cpp.xhtml" target="_top" xlink:title=" ">
<polygon fill="white" stroke="black" points="2997,-0.5 2997,-30.5 3116,-30.5 3116,-0.5 2997,-0.5"/>
<text text-anchor="start" x="3005" y="-18.5" font-family="Helvetica,sans-Serif" font-size="10.00">libopenage/audio/in</text>
<text text-anchor="middle" x="3056.5" y="-7.5" font-family="Helvetica,sans-Serif" font-size="10.00">_memory_resource.cpp</text>
</a>
</g>
</g>
<!-- Node34&#45;&gt;Node35 -->
<g id="edge42" class="edge"><title>Node34&#45;&gt;Node35</title>
<path fill="none" stroke="midnightblue" d="M3047.06,-57.4029C3049.15,-48.3703 3051.44,-38.4078 3053.25,-30.5765"/>
<polygon fill="midnightblue" stroke="midnightblue" points="3043.59,-56.865 3044.75,-67.396 3050.41,-58.4391 3043.59,-56.865"/>
</g>
</g>
</svg>
        <g id="navigator" transform="translate(0 0)" fill="#404254">
                <rect fill="#f2f5e9" fill-opacity="0.5" stroke="#606060" stroke-width=".5" x="0" y="0" width="60" height="60"/>
                <use id="zoomplus" xlink:href="#zoomPlus" x="17" y="9" onmousedown="handleZoom(evt,'in')"/>
                <use id="zoomminus" xlink:href="#zoomMin" x="42" y="9" onmousedown="handleZoom(evt,'out')"/>
                <use id="reset" xlink:href="#resetDef" x="30" y="36" onmousedown="handleReset()"/>
                <g id="arrowUp" xlink:href="#dirArrow" transform="translate(30 24)" onmousedown="handlePan(0,-1)">
                  <use xlink:href="#rim" fill="#404040">
                        <set attributeName="fill" to="#808080" begin="arrowUp.mouseover" end="arrowUp.mouseout"/>
                  </use>
                  <path fill="none" stroke="white" stroke-width="1.5" d="M0,-3.0v7 M-2.5,-0.5L0,-3.0L2.5,-0.5"/>
                </g>
                <g id="arrowRight" xlink:href="#dirArrow" transform="rotate(90) translate(36 -43)" onmousedown="handlePan(1,0)">
                  <use xlink:href="#rim" fill="#404040">
                        <set attributeName="fill" to="#808080" begin="arrowRight.mouseover" end="arrowRight.mouseout"/>
                  </use>
                  <path fill="none" stroke="white" stroke-width="1.5" d="M0,-3.0v7 M-2.5,-0.5L0,-3.0L2.5,-0.5"/>
                </g>
                <g id="arrowDown" xlink:href="#dirArrow" transform="rotate(180) translate(-30 -48)" onmousedown="handlePan(0,1)">
                  <use xlink:href="#rim" fill="#404040">
                        <set attributeName="fill" to="#808080" begin="arrowDown.mouseover" end="arrowDown.mouseout"/>
                  </use>
                  <path fill="none" stroke="white" stroke-width="1.5" d="M0,-3.0v7 M-2.5,-0.5L0,-3.0L2.5,-0.5"/>
                </g>
                <g id="arrowLeft" xlink:href="#dirArrow" transform="rotate(270) translate(-36 17)" onmousedown="handlePan(-1,0)">
                  <use xlink:href="#rim" fill="#404040">
                        <set attributeName="fill" to="#808080" begin="arrowLeft.mouseover" end="arrowLeft.mouseout"/>
                  </use>
                  <path fill="none" stroke="white" stroke-width="1.5" d="M0,-3.0v7 M-2.5,-0.5L0,-3.0L2.5,-0.5"/>
                </g>
        </g>
        <svg viewBox="0 0 15 15" width="100%" height="30px" preserveAspectRatio="xMaxYMin meet">
         <g id="arrow_out" transform="scale(0.3 0.3)">
          <a xlink:href="category_8h__dep__incl_org.svg" target="_base">
           <rect id="button" ry="5" rx="5" y="6" x="6" height="38" width="38"
                fill="#f2f5e9" fill-opacity="0.5" stroke="#606060" stroke-width="1.0"/>
           <path id="arrow"
             d="M 11.500037,31.436501 C 11.940474,20.09759 22.043105,11.32322 32.158766,21.979434 L 37.068811,17.246167 C 37.068811,17.246167 37.088388,32 37.088388,32 L 22.160133,31.978069 C 22.160133,31.978069 26.997745,27.140456 26.997745,27.140456 C 18.528582,18.264221 13.291696,25.230495 11.500037,31.436501 z"
             style="fill:#404040;"/>
          </a>
         </g>
        </svg>
</svg>
