<?xml version="1.0" encoding="UTF-8" standalone="no"?>
<!DOCTYPE svg PUBLIC "-//W3C//DTD SVG 1.1//EN"
 "http://www.w3.org/Graphics/SVG/1.1/DTD/svg11.dtd">
<!-- Generated by graphviz version 2.38.0 (20140413.2041)
 -->
<!-- Title: libopenage/coord/chunk.h Pages: 1 -->
<svg width="1142pt" height="588pt"
 viewBox="0.00 0.00 1141.65 588.45" xmlns="http://www.w3.org/2000/svg" xmlns:xlink="http://www.w3.org/1999/xlink">
<g id="graph0" class="graph" transform="scale(1 1) rotate(0) translate(4 584.452)">
<title>libopenage/coord/chunk.h</title>
<polygon fill="white" stroke="none" points="-4,4 -4,-584.452 1137.65,-584.452 1137.65,4 -4,4"/>
<!-- Node0 -->
<g id="node1" class="node"><title>Node0</title>
<g id="a_node1"><a xlink:title=" ">
<polygon fill="#bfbfbf" stroke="black" points="687.646,-560.952 687.646,-579.952 815.646,-579.952 815.646,-560.952 687.646,-560.952"/>
<text text-anchor="middle" x="751.646" y="-567.952" font-family="Helvetica,sans-Serif" font-size="10.00">libopenage/coord/chunk.h</text>
</a>
</g>
</g>
<!-- Node1 -->
<g id="node2" class="node"><title>Node1</title>
<g id="a_node2"><a xlink:href="declarations_8h.xhtml" target="_top" xlink:title=" ">
<polygon fill="white" stroke="black" points="609.146,-504.952 609.146,-523.952 686.146,-523.952 686.146,-504.952 609.146,-504.952"/>
<text text-anchor="middle" x="647.646" y="-511.952" font-family="Helvetica,sans-Serif" font-size="10.00">declarations.h</text>
</a>
</g>
</g>
<!-- Node0&#45;&gt;Node1 -->
<g id="edge1" class="edge"><title>Node0&#45;&gt;Node1</title>
<path fill="none" stroke="midnightblue" d="M734.936,-560.776C718.334,-552.155 692.644,-538.816 673.425,-528.837"/>
<polygon fill="midnightblue" stroke="midnightblue" points="674.802,-525.608 664.314,-524.106 671.576,-531.821 674.802,-525.608"/>
</g>
<!-- Node40 -->
<g id="node41" class="node"><title>Node40</title>
<g id="a_node41"><a xlink:title=" ">
<polygon fill="white" stroke="#bfbfbf" points="704.646,-504.952 704.646,-523.952 798.646,-523.952 798.646,-504.952 704.646,-504.952"/>
<text text-anchor="middle" x="751.646" y="-511.952" font-family="Helvetica,sans-Serif" font-size="10.00">coord_nese.gen.h</text>
</a>
</g>
</g>
<!-- Node0&#45;&gt;Node40 -->
<g id="edge61" class="edge"><title>Node0&#45;&gt;Node40</title>
<path fill="none" stroke="midnightblue" d="M751.646,-560.535C751.646,-553.458 751.646,-543.313 751.646,-534.438"/>
<polygon fill="midnightblue" stroke="midnightblue" points="755.146,-534.203 751.646,-524.203 748.146,-534.203 755.146,-534.203"/>
</g>
<!-- Node41 -->
<g id="node42" class="node"><title>Node41</title>
<g id="a_node42"><a xlink:title=" ">
<polygon fill="white" stroke="#bfbfbf" points="816.646,-504.952 816.646,-523.952 920.646,-523.952 920.646,-504.952 816.646,-504.952"/>
<text text-anchor="middle" x="868.646" y="-511.952" font-family="Helvetica,sans-Serif" font-size="10.00">coord_neseup.gen.h</text>
</a>
</g>
</g>
<!-- Node0&#45;&gt;Node41 -->
<g id="edge62" class="edge"><title>Node0&#45;&gt;Node41</title>
<path fill="none" stroke="midnightblue" d="M770.185,-560.895C789.269,-552.087 819.221,-538.263 841.082,-528.174"/>
<polygon fill="midnightblue" stroke="midnightblue" points="842.581,-531.337 850.194,-523.968 839.647,-524.981 842.581,-531.337"/>
</g>
<!-- Node2 -->
<g id="node3" class="node"><title>Node2</title>
<g id="a_node3"><a xlink:title=" ">
<polygon fill="white" stroke="#bfbfbf" points="1087.65,-224.952 1087.65,-243.952 1133.65,-243.952 1133.65,-224.952 1087.65,-224.952"/>
<text text-anchor="middle" x="1110.65" y="-231.952" font-family="Helvetica,sans-Serif" font-size="10.00">cstdint</text>
</a>
</g>
</g>
<!-- Node1&#45;&gt;Node2 -->
<g id="edge2" class="edge"><title>Node1&#45;&gt;Node2</title>
<path fill="none" stroke="midnightblue" d="M686.524,-506.144C796.798,-485.154 1103.65,-424.829 1103.65,-403.452 1103.65,-403.452 1103.65,-403.452 1103.65,-345.452 1103.65,-313.335 1106.65,-276.05 1108.73,-254.177"/>
<polygon fill="midnightblue" stroke="midnightblue" points="1112.23,-254.293 1109.73,-243.998 1105.27,-253.606 1112.23,-254.293"/>
</g>
<!-- Node3 -->
<g id="node4" class="node"><title>Node3</title>
<g id="a_node4"><a xlink:href="fixed__point_8h.xhtml" target="_top" xlink:title=" ">
<polygon fill="white" stroke="black" points="143.646,-448.952 143.646,-467.952 239.646,-467.952 239.646,-448.952 143.646,-448.952"/>
<text text-anchor="middle" x="191.646" y="-455.952" font-family="Helvetica,sans-Serif" font-size="10.00">../util/fixed_point.h</text>
</a>
</g>
</g>
<!-- Node1&#45;&gt;Node3 -->
<g id="edge3" class="edge"><title>Node1&#45;&gt;Node3</title>
<path fill="none" stroke="midnightblue" d="M608.768,-508.848C528.554,-499.349 344.331,-477.533 249.854,-466.345"/>
<polygon fill="midnightblue" stroke="midnightblue" points="250.235,-462.865 239.893,-465.165 249.412,-469.817 250.235,-462.865"/>
</g>
<!-- Node4 -->
<g id="node5" class="node"><title>Node4</title>
<g id="a_node5"><a xlink:title=" ">
<polygon fill="white" stroke="#bfbfbf" points="107.646,-336.952 107.646,-355.952 163.646,-355.952 163.646,-336.952 107.646,-336.952"/>
<text text-anchor="middle" x="135.646" y="-343.952" font-family="Helvetica,sans-Serif" font-size="10.00">algorithm</text>
</a>
</g>
</g>
<!-- Node3&#45;&gt;Node4 -->
<g id="edge4" class="edge"><title>Node3&#45;&gt;Node4</title>
<path fill="none" stroke="midnightblue" d="M184.543,-448.935C177.518,-440.202 166.809,-426.014 159.646,-412.452 151.745,-397.493 145.283,-379.355 141.062,-366.044"/>
<polygon fill="midnightblue" stroke="midnightblue" points="144.319,-364.724 138.062,-356.174 137.622,-366.76 144.319,-364.724"/>
</g>
<!-- Node5 -->
<g id="node6" class="node"><title>Node5</title>
<g id="a_node6"><a xlink:title=" ">
<polygon fill="white" stroke="#bfbfbf" points="29.1458,-392.952 29.1458,-411.952 74.1458,-411.952 74.1458,-392.952 29.1458,-392.952"/>
<text text-anchor="middle" x="51.6458" y="-399.952" font-family="Helvetica,sans-Serif" font-size="10.00">climits</text>
</a>
</g>
</g>
<!-- Node3&#45;&gt;Node5 -->
<g id="edge5" class="edge"><title>Node3&#45;&gt;Node5</title>
<path fill="none" stroke="midnightblue" d="M169.462,-448.895C146.217,-439.929 109.497,-425.766 83.2306,-415.634"/>
<polygon fill="midnightblue" stroke="midnightblue" points="84.3151,-412.301 73.7255,-411.968 81.7959,-418.832 84.3151,-412.301"/>
</g>
<!-- Node6 -->
<g id="node7" class="node"><title>Node6</title>
<g id="a_node7"><a xlink:title=" ">
<polygon fill="white" stroke="#bfbfbf" points="45.6458,-336.952 45.6458,-355.952 89.6458,-355.952 89.6458,-336.952 45.6458,-336.952"/>
<text text-anchor="middle" x="67.6458" y="-343.952" font-family="Helvetica,sans-Serif" font-size="10.00">cmath</text>
</a>
</g>
</g>
<!-- Node3&#45;&gt;Node6 -->
<g id="edge6" class="edge"><title>Node3&#45;&gt;Node6</title>
<path fill="none" stroke="midnightblue" d="M181.916,-448.82C160.999,-430.265 111.511,-386.365 85.0482,-362.889"/>
<polygon fill="midnightblue" stroke="midnightblue" points="87.1341,-360.061 77.3307,-356.043 82.4888,-365.297 87.1341,-360.061"/>
</g>
<!-- Node7 -->
<g id="node8" class="node"><title>Node7</title>
<g id="a_node8"><a xlink:title=" ">
<polygon fill="white" stroke="#bfbfbf" points="228.646,-112.952 228.646,-131.952 278.646,-131.952 278.646,-112.952 228.646,-112.952"/>
<text text-anchor="middle" x="253.646" y="-119.952" font-family="Helvetica,sans-Serif" font-size="10.00">iomanip</text>
</a>
</g>
</g>
<!-- Node3&#45;&gt;Node7 -->
<g id="edge7" class="edge"><title>Node3&#45;&gt;Node7</title>
<path fill="none" stroke="midnightblue" d="M143.517,-457.21C105.128,-454.423 52.5154,-444.398 19.6458,-412.452 -1.93753,-391.475 0.645843,-377.549 0.645843,-347.452 0.645843,-347.452 0.645843,-347.452 0.645843,-233.452 0.645843,-139.604 148.861,-124.976 218.405,-123.278"/>
<polygon fill="midnightblue" stroke="midnightblue" points="218.522,-126.777 228.462,-123.11 218.405,-119.778 218.522,-126.777"/>
</g>
<!-- Node8 -->
<g id="node9" class="node"><title>Node8</title>
<g id="a_node9"><a xlink:title=" ">
<polygon fill="white" stroke="#bfbfbf" points="232.646,-392.952 232.646,-411.952 272.646,-411.952 272.646,-392.952 232.646,-392.952"/>
<text text-anchor="middle" x="252.646" y="-399.952" font-family="Helvetica,sans-Serif" font-size="10.00">limits</text>
</a>
</g>
</g>
<!-- Node3&#45;&gt;Node8 -->
<g id="edge8" class="edge"><title>Node3&#45;&gt;Node8</title>
<path fill="none" stroke="midnightblue" d="M201.447,-448.776C210.464,-440.793 224.052,-428.764 234.964,-419.105"/>
<polygon fill="midnightblue" stroke="midnightblue" points="237.499,-421.535 242.667,-412.286 232.859,-416.293 237.499,-421.535"/>
</g>
<!-- Node9 -->
<g id="node10" class="node"><title>Node9</title>
<g id="a_node10"><a xlink:title=" ">
<polygon fill="white" stroke="#bfbfbf" points="290.646,-392.952 290.646,-411.952 342.646,-411.952 342.646,-392.952 290.646,-392.952"/>
<text text-anchor="middle" x="316.646" y="-399.952" font-family="Helvetica,sans-Serif" font-size="10.00">ostream</text>
</a>
</g>
</g>
<!-- Node3&#45;&gt;Node9 -->
<g id="edge9" class="edge"><title>Node3&#45;&gt;Node9</title>
<path fill="none" stroke="midnightblue" d="M211.452,-448.895C231.933,-440.048 264.129,-426.139 287.511,-416.038"/>
<polygon fill="midnightblue" stroke="midnightblue" points="289.14,-419.147 296.932,-411.968 286.364,-412.721 289.14,-419.147"/>
</g>
<!-- Node10 -->
<g id="node11" class="node"><title>Node10</title>
<g id="a_node11"><a xlink:title=" ">
<polygon fill="white" stroke="#bfbfbf" points="407.646,-168.952 407.646,-187.952 469.646,-187.952 469.646,-168.952 407.646,-168.952"/>
<text text-anchor="middle" x="438.646" y="-175.952" font-family="Helvetica,sans-Serif" font-size="10.00">type_traits</text>
</a>
</g>
</g>
<!-- Node3&#45;&gt;Node10 -->
<g id="edge10" class="edge"><title>Node3&#45;&gt;Node10</title>
<path fill="none" stroke="midnightblue" d="M239.73,-456.3C275.363,-452.844 322.596,-442.362 351.646,-412.452 375.904,-387.475 359.467,-369.426 370.646,-336.452 388.228,-284.589 415.753,-226.001 429.781,-197.271"/>
<polygon fill="midnightblue" stroke="midnightblue" points="433.017,-198.623 434.295,-188.105 426.737,-195.53 433.017,-198.623"/>
</g>
<!-- Node11 -->
<g id="node12" class="node"><title>Node11</title>
<g id="a_node12"><a xlink:href="misc_8h.xhtml" target="_top" xlink:title=" ">
<polygon fill="white" stroke="black" points="168.646,-392.952 168.646,-411.952 214.646,-411.952 214.646,-392.952 168.646,-392.952"/>
<text text-anchor="middle" x="191.646" y="-399.952" font-family="Helvetica,sans-Serif" font-size="10.00">misc.h</text>
</a>
</g>
</g>
<!-- Node3&#45;&gt;Node11 -->
<g id="edge11" class="edge"><title>Node3&#45;&gt;Node11</title>
<path fill="none" stroke="midnightblue" d="M191.646,-448.535C191.646,-441.458 191.646,-431.313 191.646,-422.438"/>
<polygon fill="midnightblue" stroke="midnightblue" points="195.146,-422.203 191.646,-412.203 188.146,-422.203 195.146,-422.203"/>
</g>
<!-- Node11&#45;&gt;Node4 -->
<g id="edge12" class="edge"><title>Node11&#45;&gt;Node4</title>
<path fill="none" stroke="midnightblue" d="M182.648,-392.776C174.451,-384.871 162.14,-373 152.174,-363.389"/>
<polygon fill="midnightblue" stroke="midnightblue" points="154.435,-360.707 144.807,-356.286 149.576,-365.746 154.435,-360.707"/>
</g>
<!-- Node11&#45;&gt;Node6 -->
<g id="edge14" class="edge"><title>Node11&#45;&gt;Node6</title>
<path fill="none" stroke="midnightblue" d="M171.998,-392.895C151.681,-384.048 119.743,-370.139 96.5481,-360.038"/>
<polygon fill="midnightblue" stroke="midnightblue" points="97.7679,-356.752 87.2021,-355.968 94.973,-363.17 97.7679,-356.752"/>
</g>
<!-- Node12 -->
<g id="node13" class="node"><title>Node12</title>
<g id="a_node13"><a xlink:title=" ">
<polygon fill="white" stroke="#bfbfbf" points="473.646,-336.952 473.646,-355.952 521.646,-355.952 521.646,-336.952 473.646,-336.952"/>
<text text-anchor="middle" x="497.646" y="-343.952" font-family="Helvetica,sans-Serif" font-size="10.00">limits.h</text>
</a>
</g>
</g>
<!-- Node11&#45;&gt;Node12 -->
<g id="edge13" class="edge"><title>Node11&#45;&gt;Node12</title>
<path fill="none" stroke="midnightblue" d="M214.98,-394.523C217.884,-393.769 220.824,-393.057 223.646,-392.452 326.436,-370.411 356.892,-378.238 463.692,-356.426"/>
<polygon fill="midnightblue" stroke="midnightblue" points="464.498,-359.834 473.575,-354.369 463.072,-352.981 464.498,-359.834"/>
</g>
<!-- Node13 -->
<g id="node14" class="node"><title>Node13</title>
<g id="a_node14"><a xlink:title=" ">
<polygon fill="white" stroke="#bfbfbf" points="539.646,-336.952 539.646,-355.952 585.646,-355.952 585.646,-336.952 539.646,-336.952"/>
<text text-anchor="middle" x="562.646" y="-343.952" font-family="Helvetica,sans-Serif" font-size="10.00">cstring</text>
</a>
</g>
</g>
<!-- Node11&#45;&gt;Node13 -->
<g id="edge15" class="edge"><title>Node11&#45;&gt;Node13</title>
<path fill="none" stroke="midnightblue" d="M214.962,-394.436C217.87,-393.697 220.815,-393.012 223.646,-392.452 355.251,-366.397 394.072,-382.342 529.416,-356.408"/>
<polygon fill="midnightblue" stroke="midnightblue" points="530.188,-359.823 539.33,-354.467 528.844,-352.954 530.188,-359.823"/>
</g>
<!-- Node14 -->
<g id="node15" class="node"><title>Node14</title>
<g id="a_node15"><a xlink:title=" ">
<polygon fill="white" stroke="#bfbfbf" points="370.146,-0.951632 370.146,-19.9516 411.146,-19.9516 411.146,-0.951632 370.146,-0.951632"/>
<text text-anchor="middle" x="390.646" y="-7.95163" font-family="Helvetica,sans-Serif" font-size="10.00">string</text>
</a>
</g>
</g>
<!-- Node11&#45;&gt;Node14 -->
<g id="edge16" class="edge"><title>Node11&#45;&gt;Node14</title>
<path fill="none" stroke="midnightblue" d="M189.234,-392.855C177.612,-349.384 131.857,-152.095 229.646,-56.4516 264.714,-22.1529 323.655,-13.5285 359.66,-11.6275"/>
<polygon fill="midnightblue" stroke="midnightblue" points="360.186,-15.1101 370.046,-11.2324 359.92,-8.11516 360.186,-15.1101"/>
</g>
<!-- Node15 -->
<g id="node16" class="node"><title>Node15</title>
<g id="a_node16"><a xlink:title=" ">
<polygon fill="white" stroke="#bfbfbf" points="334.646,-112.952 334.646,-131.952 376.646,-131.952 376.646,-112.952 334.646,-112.952"/>
<text text-anchor="middle" x="355.646" y="-119.952" font-family="Helvetica,sans-Serif" font-size="10.00">vector</text>
</a>
</g>
</g>
<!-- Node11&#45;&gt;Node15 -->
<g id="edge17" class="edge"><title>Node11&#45;&gt;Node15</title>
<path fill="none" stroke="midnightblue" d="M198.181,-392.864C211.095,-375.012 238.646,-332.156 238.646,-291.452 238.646,-291.452 238.646,-291.452 238.646,-233.452 238.646,-202.656 241.951,-191.257 262.646,-168.452 279.144,-150.271 304.586,-138.667 324.692,-131.805"/>
<polygon fill="midnightblue" stroke="midnightblue" points="325.892,-135.096 334.356,-128.724 323.766,-128.427 325.892,-135.096"/>
</g>
<!-- Node16 -->
<g id="node17" class="node"><title>Node16</title>
<g id="a_node17"><a xlink:title=" ">
<polygon fill="white" stroke="#bfbfbf" points="394.646,-112.952 394.646,-131.952 446.646,-131.952 446.646,-112.952 394.646,-112.952"/>
<text text-anchor="middle" x="420.646" y="-119.952" font-family="Helvetica,sans-Serif" font-size="10.00">memory</text>
</a>
</g>
</g>
<!-- Node11&#45;&gt;Node16 -->
<g id="edge18" class="edge"><title>Node11&#45;&gt;Node16</title>
<path fill="none" stroke="midnightblue" d="M205.303,-392.694C229.33,-376.092 276.646,-337.548 276.646,-291.452 276.646,-291.452 276.646,-291.452 276.646,-233.452 276.646,-179.134 342.148,-148.049 384.797,-133.565"/>
<polygon fill="midnightblue" stroke="midnightblue" points="386.135,-136.811 394.569,-130.399 383.977,-130.152 386.135,-136.811"/>
</g>
<!-- Node17 -->
<g id="node18" class="node"><title>Node17</title>
<g id="a_node18"><a xlink:href="error_2error_8h.xhtml" target="_top" xlink:title=" ">
<polygon fill="white" stroke="black" points="379.646,-336.952 379.646,-355.952 455.646,-355.952 455.646,-336.952 379.646,-336.952"/>
<text text-anchor="middle" x="417.646" y="-343.952" font-family="Helvetica,sans-Serif" font-size="10.00">../error/error.h</text>
</a>
</g>
</g>
<!-- Node11&#45;&gt;Node17 -->
<g id="edge19" class="edge"><title>Node11&#45;&gt;Node17</title>
<path fill="none" stroke="midnightblue" d="M214.684,-394.835C217.693,-394.011 220.739,-393.197 223.646,-392.452 273.248,-379.731 330.391,-366.667 369.746,-357.915"/>
<polygon fill="midnightblue" stroke="midnightblue" points="370.597,-361.311 379.603,-355.73 369.082,-354.477 370.597,-361.311"/>
</g>
<!-- Node20 -->
<g id="node21" class="node"><title>Node20</title>
<g id="a_node21"><a xlink:href="compiler_8h.xhtml" target="_top" xlink:title=" ">
<polygon fill="white" stroke="black" points="948.646,-56.9516 948.646,-75.9516 1034.65,-75.9516 1034.65,-56.9516 948.646,-56.9516"/>
<text text-anchor="middle" x="991.646" y="-63.9516" font-family="Helvetica,sans-Serif" font-size="10.00">../util/compiler.h</text>
</a>
</g>
</g>
<!-- Node11&#45;&gt;Node20 -->
<g id="edge60" class="edge"><title>Node11&#45;&gt;Node20</title>
<path fill="none" stroke="midnightblue" d="M214.951,-394.381C217.861,-393.651 220.81,-392.984 223.646,-392.452 386.469,-361.905 430.131,-375.923 594.646,-356.452 698.261,-344.188 1059.65,-395.79 1059.65,-291.452 1059.65,-291.452 1059.65,-291.452 1059.65,-177.452 1059.65,-139 1029.21,-102.764 1009.06,-82.9896"/>
<polygon fill="midnightblue" stroke="midnightblue" points="1011.35,-80.3381 1001.68,-76.0182 1006.55,-85.4281 1011.35,-80.3381"/>
</g>
<!-- Node17&#45;&gt;Node14 -->
<g id="edge23" class="edge"><title>Node17&#45;&gt;Node14</title>
<path fill="none" stroke="midnightblue" d="M404.521,-336.85C366.819,-311.245 258.427,-231.131 219.646,-132.452 193.965,-67.1055 304.268,-31.5041 360.06,-17.9478"/>
<polygon fill="midnightblue" stroke="midnightblue" points="361.175,-21.2817 370.117,-15.5994 359.583,-14.4651 361.175,-21.2817"/>
</g>
<!-- Node17&#45;&gt;Node16 -->
<g id="edge21" class="edge"><title>Node17&#45;&gt;Node16</title>
<path fill="none" stroke="midnightblue" d="M414.728,-336.856C406.386,-311.03 383.947,-231.984 398.646,-168.452 400.876,-158.814 405.467,-148.857 409.882,-140.767"/>
<polygon fill="midnightblue" stroke="midnightblue" points="412.996,-142.373 415.008,-131.971 406.949,-138.848 412.996,-142.373"/>
</g>
<!-- Node18 -->
<g id="node19" class="node"><title>Node18</title>
<g id="a_node19"><a xlink:title=" ">
<polygon fill="white" stroke="#bfbfbf" points="808.646,-56.9516 808.646,-75.9516 862.646,-75.9516 862.646,-56.9516 808.646,-56.9516"/>
<text text-anchor="middle" x="835.646" y="-63.9516" font-family="Helvetica,sans-Serif" font-size="10.00">iostream</text>
</a>
</g>
</g>
<!-- Node17&#45;&gt;Node18 -->
<g id="edge20" class="edge"><title>Node17&#45;&gt;Node18</title>
<path fill="none" stroke="midnightblue" d="M444.485,-336.87C490.794,-321.538 588.008,-287.023 663.646,-244.452 713.223,-216.548 720.076,-201.128 766.646,-168.452 790.258,-151.884 804.245,-156.18 820.646,-132.452 830.009,-118.905 833.599,-100.355 834.94,-86.538"/>
<polygon fill="midnightblue" stroke="midnightblue" points="838.452,-86.4668 835.615,-76.2589 831.467,-86.0081 838.452,-86.4668"/>
</g>
<!-- Node19 -->
<g id="node20" class="node"><title>Node19</title>
<g id="a_node20"><a xlink:title=" ">
<polygon fill="white" stroke="#bfbfbf" points="446.146,-280.952 446.146,-299.952 505.146,-299.952 505.146,-280.952 446.146,-280.952"/>
<text text-anchor="middle" x="475.646" y="-287.952" font-family="Helvetica,sans-Serif" font-size="10.00">stdexcept</text>
</a>
</g>
</g>
<!-- Node17&#45;&gt;Node19 -->
<g id="edge22" class="edge"><title>Node17&#45;&gt;Node19</title>
<path fill="none" stroke="midnightblue" d="M426.965,-336.776C435.538,-328.793 448.458,-316.764 458.833,-307.105"/>
<polygon fill="midnightblue" stroke="midnightblue" points="461.224,-309.661 466.158,-300.286 456.454,-304.538 461.224,-309.661"/>
</g>
<!-- Node17&#45;&gt;Node20 -->
<g id="edge24" class="edge"><title>Node17&#45;&gt;Node20</title>
<path fill="none" stroke="midnightblue" d="M455.815,-337.83C458.797,-337.33 461.767,-336.863 464.646,-336.452 632.147,-312.514 678.611,-337.775 843.646,-300.452 925.792,-281.874 1021.65,-319.672 1021.65,-235.452 1021.65,-235.452 1021.65,-235.452 1021.65,-177.452 1021.65,-144.092 1008.64,-106.983 999.76,-85.519"/>
<polygon fill="midnightblue" stroke="midnightblue" points="1002.86,-83.8729 995.692,-76.0729 996.433,-86.6418 1002.86,-83.8729"/>
</g>
<!-- Node23 -->
<g id="node24" class="node"><title>Node23</title>
<g id="a_node24"><a xlink:href="message_8h.xhtml" target="_top" xlink:title=" ">
<polygon fill="white" stroke="black" points="746.146,-280.952 746.146,-299.952 835.146,-299.952 835.146,-280.952 746.146,-280.952"/>
<text text-anchor="middle" x="790.646" y="-287.952" font-family="Helvetica,sans-Serif" font-size="10.00">../log/message.h</text>
</a>
</g>
</g>
<!-- Node17&#45;&gt;Node23 -->
<g id="edge29" class="edge"><title>Node17&#45;&gt;Node23</title>
<path fill="none" stroke="midnightblue" d="M455.836,-337.966C458.814,-337.435 461.777,-336.924 464.646,-336.452 559.764,-320.791 671.11,-306.226 735.976,-298.115"/>
<polygon fill="midnightblue" stroke="midnightblue" points="736.487,-301.579 745.978,-296.87 735.622,-294.633 736.487,-301.579"/>
</g>
<!-- Node20&#45;&gt;Node14 -->
<g id="edge26" class="edge"><title>Node20&#45;&gt;Node14</title>
<path fill="none" stroke="midnightblue" d="M948.56,-57.6885C945.548,-57.24 942.554,-56.8218 939.646,-56.4516 742.883,-31.4112 504.583,-17.4074 421.208,-12.9935"/>
<polygon fill="midnightblue" stroke="midnightblue" points="421.323,-9.49479 411.154,-12.4682 420.958,-16.4853 421.323,-9.49479"/>
</g>
<!-- Node21 -->
<g id="node22" class="node"><title>Node21</title>
<g id="a_node22"><a xlink:title=" ">
<polygon fill="white" stroke="#bfbfbf" points="932.646,-0.951632 932.646,-19.9516 982.646,-19.9516 982.646,-0.951632 932.646,-0.951632"/>
<text text-anchor="middle" x="957.646" y="-7.95163" font-family="Helvetica,sans-Serif" font-size="10.00">ciso646</text>
</a>
</g>
</g>
<!-- Node20&#45;&gt;Node21 -->
<g id="edge25" class="edge"><title>Node20&#45;&gt;Node21</title>
<path fill="none" stroke="midnightblue" d="M986.031,-56.5346C981.278,-48.9857 974.328,-37.9465 968.494,-28.6814"/>
<polygon fill="midnightblue" stroke="midnightblue" points="971.446,-26.8002 963.156,-20.2027 965.522,-30.5299 971.446,-26.8002"/>
</g>
<!-- Node22 -->
<g id="node23" class="node"><title>Node22</title>
<g id="a_node23"><a xlink:href="signal_8h.xhtml" target="_top" xlink:title=" ">
<polygon fill="white" stroke="black" points="1000.65,-0.951632 1000.65,-19.9516 1050.65,-19.9516 1050.65,-0.951632 1000.65,-0.951632"/>
<text text-anchor="middle" x="1025.65" y="-7.95163" font-family="Helvetica,sans-Serif" font-size="10.00">signal.h</text>
</a>
</g>
</g>
<!-- Node20&#45;&gt;Node22 -->
<g id="edge27" class="edge"><title>Node20&#45;&gt;Node22</title>
<path fill="none" stroke="midnightblue" d="M997.26,-56.5346C1002.01,-48.9857 1008.96,-37.9465 1014.8,-28.6814"/>
<polygon fill="midnightblue" stroke="midnightblue" points="1017.77,-30.5299 1020.14,-20.2027 1011.85,-26.8002 1017.77,-30.5299"/>
</g>
<!-- Node22&#45;&gt;Node22 -->
<g id="edge28" class="edge"><title>Node22&#45;&gt;Node22</title>
<path fill="none" stroke="midnightblue" d="M1044.21,-20.0262C1056.59,-22.7213 1068.65,-19.5298 1068.65,-10.4516 1068.65,-3.92673 1062.42,-0.442852 1054.32,-0"/>
<polygon fill="midnightblue" stroke="midnightblue" points="1053.87,3.47427 1044.21,-0.877047 1054.47,-3.49953 1053.87,3.47427"/>
</g>
<!-- Node23&#45;&gt;Node2 -->
<g id="edge30" class="edge"><title>Node23&#45;&gt;Node2</title>
<path fill="none" stroke="midnightblue" d="M835.477,-281.886C900.573,-270.901 1019.77,-250.786 1077.53,-241.04"/>
<polygon fill="midnightblue" stroke="midnightblue" points="1078.3,-244.46 1087.57,-239.345 1077.13,-237.558 1078.3,-244.46"/>
</g>
<!-- Node23&#45;&gt;Node14 -->
<g id="edge31" class="edge"><title>Node23&#45;&gt;Node14</title>
<path fill="none" stroke="midnightblue" d="M745.976,-285.784C669.995,-277.903 512.751,-254.359 398.646,-188.452 358.089,-165.026 312.436,-157.386 325.646,-112.452 335.438,-79.1423 359.988,-46.4373 375.957,-27.6407"/>
<polygon fill="midnightblue" stroke="midnightblue" points="378.662,-29.8641 382.607,-20.0309 373.391,-25.2581 378.662,-29.8641"/>
</g>
<!-- Node24 -->
<g id="node25" class="node"><title>Node24</title>
<g id="a_node25"><a xlink:title=" ">
<polygon fill="white" stroke="#bfbfbf" points="710.646,-224.952 710.646,-243.952 760.646,-243.952 760.646,-224.952 710.646,-224.952"/>
<text text-anchor="middle" x="735.646" y="-231.952" font-family="Helvetica,sans-Serif" font-size="10.00">config.h</text>
</a>
</g>
</g>
<!-- Node23&#45;&gt;Node24 -->
<g id="edge32" class="edge"><title>Node23&#45;&gt;Node24</title>
<path fill="none" stroke="midnightblue" d="M781.564,-280.535C773.475,-272.593 761.45,-260.787 751.736,-251.249"/>
<polygon fill="midnightblue" stroke="midnightblue" points="754.147,-248.711 744.559,-244.203 749.243,-253.706 754.147,-248.711"/>
</g>
<!-- Node25 -->
<g id="node26" class="node"><title>Node25</title>
<g id="a_node26"><a xlink:href="constexpr_8h.xhtml" target="_top" xlink:title=" ">
<polygon fill="white" stroke="black" points="778.646,-224.952 778.646,-243.952 870.646,-243.952 870.646,-224.952 778.646,-224.952"/>
<text text-anchor="middle" x="824.646" y="-231.952" font-family="Helvetica,sans-Serif" font-size="10.00">../util/constexpr.h</text>
</a>
</g>
</g>
<!-- Node23&#45;&gt;Node25 -->
<g id="edge33" class="edge"><title>Node23&#45;&gt;Node25</title>
<path fill="none" stroke="midnightblue" d="M796.26,-280.535C801.013,-272.986 807.964,-261.946 813.797,-252.681"/>
<polygon fill="midnightblue" stroke="midnightblue" points="816.77,-254.53 819.136,-244.203 810.846,-250.8 816.77,-254.53"/>
</g>
<!-- Node27 -->
<g id="node28" class="node"><title>Node27</title>
<g id="a_node28"><a xlink:href="stringformatter_8h.xhtml" target="_top" xlink:title=" ">
<polygon fill="white" stroke="black" points="542.646,-224.952 542.646,-243.952 654.646,-243.952 654.646,-224.952 542.646,-224.952"/>
<text text-anchor="middle" x="598.646" y="-231.952" font-family="Helvetica,sans-Serif" font-size="10.00">../util/stringformatter.h</text>
</a>
</g>
</g>
<!-- Node23&#45;&gt;Node27 -->
<g id="edge35" class="edge"><title>Node23&#45;&gt;Node27</title>
<path fill="none" stroke="midnightblue" d="M760.223,-280.895C727.361,-271.653 674.861,-256.887 638.671,-246.709"/>
<polygon fill="midnightblue" stroke="midnightblue" points="639.501,-243.306 628.926,-243.968 637.605,-250.045 639.501,-243.306"/>
</g>
<!-- Node34 -->
<g id="node35" class="node"><title>Node34</title>
<g id="a_node35"><a xlink:href="logsink_8h.xhtml" target="_top" xlink:title=" ">
<polygon fill="white" stroke="black" points="888.646,-224.952 888.646,-243.952 944.646,-243.952 944.646,-224.952 888.646,-224.952"/>
<text text-anchor="middle" x="916.646" y="-231.952" font-family="Helvetica,sans-Serif" font-size="10.00">logsink.h</text>
</a>
</g>
</g>
<!-- Node23&#45;&gt;Node34 -->
<g id="edge51" class="edge"><title>Node23&#45;&gt;Node34</title>
<path fill="none" stroke="midnightblue" d="M810.611,-280.895C831.255,-272.048 863.708,-258.139 887.277,-248.038"/>
<polygon fill="midnightblue" stroke="midnightblue" points="888.961,-251.124 896.774,-243.968 886.204,-244.69 888.961,-251.124"/>
</g>
<!-- Node37 -->
<g id="node38" class="node"><title>Node37</title>
<g id="a_node38"><a xlink:href="level_8h.xhtml" target="_top" xlink:title=" ">
<polygon fill="white" stroke="black" points="949.646,-168.952 949.646,-187.952 993.646,-187.952 993.646,-168.952 949.646,-168.952"/>
<text text-anchor="middle" x="971.646" y="-175.952" font-family="Helvetica,sans-Serif" font-size="10.00">level.h</text>
</a>
</g>
</g>
<!-- Node23&#45;&gt;Node37 -->
<g id="edge59" class="edge"><title>Node23&#45;&gt;Node37</title>
<path fill="none" stroke="midnightblue" d="M835.319,-288.705C871.888,-285.677 922.496,-275.577 953.646,-244.452 965.672,-232.435 969.847,-213.142 971.208,-198.69"/>
<polygon fill="midnightblue" stroke="midnightblue" points="974.721,-198.552 971.792,-188.37 967.732,-198.157 974.721,-198.552"/>
</g>
<!-- Node26 -->
<g id="node27" class="node"><title>Node26</title>
<g id="a_node27"><a xlink:title=" ">
<polygon fill="white" stroke="#bfbfbf" points="776.146,-168.952 776.146,-187.952 821.146,-187.952 821.146,-168.952 776.146,-168.952"/>
<text text-anchor="middle" x="798.646" y="-175.952" font-family="Helvetica,sans-Serif" font-size="10.00">cstdlib</text>
</a>
</g>
</g>
<!-- Node25&#45;&gt;Node26 -->
<g id="edge34" class="edge"><title>Node25&#45;&gt;Node26</title>
<path fill="none" stroke="midnightblue" d="M820.352,-224.535C816.794,-217.143 811.623,-206.405 807.222,-197.263"/>
<polygon fill="midnightblue" stroke="midnightblue" points="810.351,-195.694 802.859,-188.203 804.044,-198.731 810.351,-195.694"/>
</g>
<!-- Node27&#45;&gt;Node10 -->
<g id="edge38" class="edge"><title>Node27&#45;&gt;Node10</title>
<path fill="none" stroke="midnightblue" d="M573.293,-224.895C546.377,-215.811 503.65,-201.39 473.559,-191.235"/>
<polygon fill="midnightblue" stroke="midnightblue" points="474.474,-187.85 463.88,-187.968 472.235,-194.482 474.474,-187.85"/>
</g>
<!-- Node27&#45;&gt;Node16 -->
<g id="edge37" class="edge"><title>Node27&#45;&gt;Node16</title>
<path fill="none" stroke="midnightblue" d="M582.054,-224.929C565.305,-216.191 538.816,-202 516.646,-188.452 489.81,-172.052 459.969,-151.456 440.789,-137.897"/>
<polygon fill="midnightblue" stroke="midnightblue" points="442.711,-134.969 432.533,-132.028 438.656,-140.674 442.711,-134.969"/>
</g>
<!-- Node27&#45;&gt;Node20 -->
<g id="edge39" class="edge"><title>Node27&#45;&gt;Node20</title>
<path fill="none" stroke="midnightblue" d="M617.417,-224.924C648.075,-211.287 711.054,-184.478 766.646,-168.452 847.132,-145.248 882.781,-180.14 951.646,-132.452 967.95,-121.161 978.863,-100.854 985.115,-85.9333"/>
<polygon fill="midnightblue" stroke="midnightblue" points="988.525,-86.8162 988.854,-76.2264 981.993,-84.2998 988.525,-86.8162"/>
</g>
<!-- Node28 -->
<g id="node29" class="node"><title>Node28</title>
<g id="a_node29"><a xlink:title=" ">
<polygon fill="white" stroke="#bfbfbf" points="635.646,-168.952 635.646,-187.952 681.646,-187.952 681.646,-168.952 635.646,-168.952"/>
<text text-anchor="middle" x="658.646" y="-175.952" font-family="Helvetica,sans-Serif" font-size="10.00">atomic</text>
</a>
</g>
</g>
<!-- Node27&#45;&gt;Node28 -->
<g id="edge36" class="edge"><title>Node27&#45;&gt;Node28</title>
<path fill="none" stroke="midnightblue" d="M608.286,-224.776C617.155,-216.793 630.521,-204.764 641.254,-195.105"/>
<polygon fill="midnightblue" stroke="midnightblue" points="643.739,-197.577 648.83,-188.286 639.056,-192.374 643.739,-197.577"/>
</g>
<!-- Node29 -->
<g id="node30" class="node"><title>Node29</title>
<g id="a_node30"><a xlink:href="externalsstream_8h.xhtml" target="_top" xlink:title=" ">
<polygon fill="white" stroke="black" points="717.146,-112.952 717.146,-131.952 812.146,-131.952 812.146,-112.952 717.146,-112.952"/>
<text text-anchor="middle" x="764.646" y="-119.952" font-family="Helvetica,sans-Serif" font-size="10.00">externalsstream.h</text>
</a>
</g>
</g>
<!-- Node27&#45;&gt;Node29 -->
<g id="edge40" class="edge"><title>Node27&#45;&gt;Node29</title>
<path fill="none" stroke="midnightblue" d="M600.081,-224.535C602.787,-210.602 609.945,-183.69 626.646,-168.452 640.2,-156.084 682.989,-143.226 717.366,-134.437"/>
<polygon fill="midnightblue" stroke="midnightblue" points="718.415,-137.782 727.265,-131.957 716.714,-130.992 718.415,-137.782"/>
</g>
<!-- Node30 -->
<g id="node31" class="node"><title>Node30</title>
<g id="a_node31"><a xlink:href="strings_8h.xhtml" target="_top" xlink:title=" ">
<polygon fill="white" stroke="black" points="525.646,-168.952 525.646,-187.952 579.646,-187.952 579.646,-168.952 525.646,-168.952"/>
<text text-anchor="middle" x="552.646" y="-175.952" font-family="Helvetica,sans-Serif" font-size="10.00">strings.h</text>
</a>
</g>
</g>
<!-- Node27&#45;&gt;Node30 -->
<g id="edge43" class="edge"><title>Node27&#45;&gt;Node30</title>
<path fill="none" stroke="midnightblue" d="M591.05,-224.535C584.418,-216.75 574.625,-205.253 566.588,-195.818"/>
<polygon fill="midnightblue" stroke="midnightblue" points="569.25,-193.546 560.1,-188.203 563.921,-198.085 569.25,-193.546"/>
</g>
<!-- Node29&#45;&gt;Node14 -->
<g id="edge42" class="edge"><title>Node29&#45;&gt;Node14</title>
<path fill="none" stroke="midnightblue" d="M735.61,-112.912C666.251,-92.512 491.469,-41.1054 420.897,-20.3489"/>
<polygon fill="midnightblue" stroke="midnightblue" points="421.847,-16.9802 411.266,-17.5162 419.872,-23.6958 421.847,-16.9802"/>
</g>
<!-- Node29&#45;&gt;Node18 -->
<g id="edge41" class="edge"><title>Node29&#45;&gt;Node18</title>
<path fill="none" stroke="midnightblue" d="M776.053,-112.776C786.755,-104.636 802.987,-92.2911 815.809,-82.5391"/>
<polygon fill="midnightblue" stroke="midnightblue" points="818.19,-85.1251 824.031,-76.2855 813.953,-79.5534 818.19,-85.1251"/>
</g>
<!-- Node30&#45;&gt;Node7 -->
<g id="edge46" class="edge"><title>Node30&#45;&gt;Node7</title>
<path fill="none" stroke="midnightblue" d="M525.584,-172.564C471.34,-162.768 349.343,-140.735 288.925,-129.823"/>
<polygon fill="midnightblue" stroke="midnightblue" points="289.199,-126.316 278.736,-127.983 287.955,-133.205 289.199,-126.316"/>
</g>
<!-- Node30&#45;&gt;Node14 -->
<g id="edge49" class="edge"><title>Node30&#45;&gt;Node14</title>
<path fill="none" stroke="midnightblue" d="M539.822,-168.873C527.431,-160.313 508.419,-146.453 493.646,-132.452 457.781,-98.4603 421.68,-52.7996 403.231,-28.4395"/>
<polygon fill="midnightblue" stroke="midnightblue" points="405.863,-26.1144 397.062,-20.2149 400.263,-30.3148 405.863,-26.1144"/>
</g>
<!-- Node30&#45;&gt;Node15 -->
<g id="edge50" class="edge"><title>Node30&#45;&gt;Node15</title>
<path fill="none" stroke="midnightblue" d="M525.39,-170.36C494.151,-162.177 441.181,-148.135 386.746,-132.71"/>
<polygon fill="midnightblue" stroke="midnightblue" points="387.505,-129.287 376.929,-129.918 385.59,-136.02 387.505,-129.287"/>
</g>
<!-- Node30&#45;&gt;Node16 -->
<g id="edge47" class="edge"><title>Node30&#45;&gt;Node16</title>
<path fill="none" stroke="midnightblue" d="M531.73,-168.895C509.91,-159.969 475.496,-145.89 450.754,-135.768"/>
<polygon fill="midnightblue" stroke="midnightblue" points="452.044,-132.515 441.464,-131.968 449.394,-138.994 452.044,-132.515"/>
</g>
<!-- Node31 -->
<g id="node32" class="node"><title>Node31</title>
<g id="a_node32"><a xlink:title=" ">
<polygon fill="white" stroke="#bfbfbf" points="503.146,-112.952 503.146,-131.952 552.146,-131.952 552.146,-112.952 503.146,-112.952"/>
<text text-anchor="middle" x="527.646" y="-119.952" font-family="Helvetica,sans-Serif" font-size="10.00">cstdarg</text>
</a>
</g>
</g>
<!-- Node30&#45;&gt;Node31 -->
<g id="edge44" class="edge"><title>Node30&#45;&gt;Node31</title>
<path fill="none" stroke="midnightblue" d="M548.518,-168.535C545.132,-161.222 540.23,-150.633 536.027,-141.555"/>
<polygon fill="midnightblue" stroke="midnightblue" points="539.075,-139.807 531.697,-132.203 532.722,-142.748 539.075,-139.807"/>
</g>
<!-- Node32 -->
<g id="node33" class="node"><title>Node32</title>
<g id="a_node33"><a xlink:title=" ">
<polygon fill="white" stroke="#bfbfbf" points="570.646,-112.952 570.646,-131.952 628.646,-131.952 628.646,-112.952 570.646,-112.952"/>
<text text-anchor="middle" x="599.646" y="-119.952" font-family="Helvetica,sans-Serif" font-size="10.00">functional</text>
</a>
</g>
</g>
<!-- Node30&#45;&gt;Node32 -->
<g id="edge45" class="edge"><title>Node30&#45;&gt;Node32</title>
<path fill="none" stroke="midnightblue" d="M560.407,-168.535C567.183,-160.75 577.189,-149.253 585.401,-139.818"/>
<polygon fill="midnightblue" stroke="midnightblue" points="588.104,-142.044 592.029,-132.203 582.824,-137.448 588.104,-142.044"/>
</g>
<!-- Node33 -->
<g id="node34" class="node"><title>Node33</title>
<g id="a_node34"><a xlink:title=" ">
<polygon fill="white" stroke="#bfbfbf" points="646.646,-112.952 646.646,-131.952 698.646,-131.952 698.646,-112.952 646.646,-112.952"/>
<text text-anchor="middle" x="672.646" y="-119.952" font-family="Helvetica,sans-Serif" font-size="10.00">sstream</text>
</a>
</g>
</g>
<!-- Node30&#45;&gt;Node33 -->
<g id="edge48" class="edge"><title>Node30&#45;&gt;Node33</title>
<path fill="none" stroke="midnightblue" d="M571.66,-168.895C591.233,-160.087 621.953,-146.263 644.375,-136.174"/>
<polygon fill="midnightblue" stroke="midnightblue" points="646.038,-139.263 653.72,-131.968 643.165,-132.88 646.038,-139.263"/>
</g>
<!-- Node35 -->
<g id="node36" class="node"><title>Node35</title>
<g id="a_node36"><a xlink:title=" ">
<polygon fill="white" stroke="#bfbfbf" points="902.146,-168.952 902.146,-187.952 931.146,-187.952 931.146,-168.952 902.146,-168.952"/>
<text text-anchor="middle" x="916.646" y="-175.952" font-family="Helvetica,sans-Serif" font-size="10.00">list</text>
</a>
</g>
</g>
<!-- Node34&#45;&gt;Node35 -->
<g id="edge52" class="edge"><title>Node34&#45;&gt;Node35</title>
<path fill="none" stroke="midnightblue" d="M916.646,-224.535C916.646,-217.458 916.646,-207.313 916.646,-198.438"/>
<polygon fill="midnightblue" stroke="midnightblue" points="920.146,-198.203 916.646,-188.203 913.146,-198.203 920.146,-198.203"/>
</g>
<!-- Node36 -->
<g id="node37" class="node"><title>Node36</title>
<g id="a_node37"><a xlink:title=" ">
<polygon fill="white" stroke="#bfbfbf" points="839.646,-168.952 839.646,-187.952 883.646,-187.952 883.646,-168.952 839.646,-168.952"/>
<text text-anchor="middle" x="861.646" y="-175.952" font-family="Helvetica,sans-Serif" font-size="10.00">mutex</text>
</a>
</g>
</g>
<!-- Node34&#45;&gt;Node36 -->
<g id="edge53" class="edge"><title>Node34&#45;&gt;Node36</title>
<path fill="none" stroke="midnightblue" d="M907.564,-224.535C899.475,-216.593 887.45,-204.787 877.736,-195.249"/>
<polygon fill="midnightblue" stroke="midnightblue" points="880.147,-192.711 870.559,-188.203 875.243,-197.706 880.147,-192.711"/>
</g>
<!-- Node34&#45;&gt;Node37 -->
<g id="edge54" class="edge"><title>Node34&#45;&gt;Node37</title>
<path fill="none" stroke="midnightblue" d="M925.728,-224.535C933.817,-216.593 945.841,-204.787 955.556,-195.249"/>
<polygon fill="midnightblue" stroke="midnightblue" points="958.049,-197.706 962.733,-188.203 953.145,-192.711 958.049,-197.706"/>
</g>
<!-- Node38 -->
<g id="node39" class="node"><title>Node38</title>
<g id="a_node39"><a xlink:href="enum_8h.xhtml" target="_top" xlink:title=" ">
<polygon fill="white" stroke="black" points="868.646,-112.952 868.646,-131.952 942.646,-131.952 942.646,-112.952 868.646,-112.952"/>
<text text-anchor="middle" x="905.646" y="-119.952" font-family="Helvetica,sans-Serif" font-size="10.00">../util/enum.h</text>
</a>
</g>
</g>
<!-- Node37&#45;&gt;Node38 -->
<g id="edge55" class="edge"><title>Node37&#45;&gt;Node38</title>
<path fill="none" stroke="midnightblue" d="M961.042,-168.776C951.19,-160.715 936.295,-148.528 924.431,-138.821"/>
<polygon fill="midnightblue" stroke="midnightblue" points="926.399,-135.909 916.443,-132.286 921.966,-141.327 926.399,-135.909"/>
</g>
<!-- Node38&#45;&gt;Node18 -->
<g id="edge56" class="edge"><title>Node38&#45;&gt;Node18</title>
<path fill="none" stroke="midnightblue" d="M894.399,-112.776C883.848,-104.636 867.845,-92.2911 855.204,-82.5391"/>
<polygon fill="midnightblue" stroke="midnightblue" points="857.153,-79.6224 847.097,-76.2855 852.877,-85.1648 857.153,-79.6224"/>
</g>
<!-- Node38&#45;&gt;Node20 -->
<g id="edge58" class="edge"><title>Node38&#45;&gt;Node20</title>
<path fill="none" stroke="midnightblue" d="M919.463,-112.776C932.879,-104.352 953.47,-91.4225 969.231,-81.5258"/>
<polygon fill="midnightblue" stroke="midnightblue" points="971.255,-84.388 977.863,-76.1061 967.533,-78.4597 971.255,-84.388"/>
</g>
<!-- Node39 -->
<g id="node40" class="node"><title>Node39</title>
<g id="a_node40"><a xlink:title=" ">
<polygon fill="white" stroke="#bfbfbf" points="880.646,-56.9516 880.646,-75.9516 930.646,-75.9516 930.646,-56.9516 880.646,-56.9516"/>
<text text-anchor="middle" x="905.646" y="-63.9516" font-family="Helvetica,sans-Serif" font-size="10.00">typeinfo</text>
</a>
</g>
</g>
<!-- Node38&#45;&gt;Node39 -->
<g id="edge57" class="edge"><title>Node38&#45;&gt;Node39</title>
<path fill="none" stroke="midnightblue" d="M905.646,-112.535C905.646,-105.458 905.646,-95.3127 905.646,-86.4381"/>
<polygon fill="midnightblue" stroke="midnightblue" points="909.146,-86.2027 905.646,-76.2027 902.146,-86.2027 909.146,-86.2027"/>
</g>
</g>
</svg>
