<?xml version="1.0" encoding="UTF-8" standalone="no"?>
<!DOCTYPE svg PUBLIC "-//W3C//DTD SVG 1.1//EN"
 "http://www.w3.org/Graphics/SVG/1.1/DTD/svg11.dtd">
<!-- Generated by graphviz version 2.38.0 (20140413.2041)
 -->
<!-- Title: openage::audio::InMemoryLoader Pages: 1 -->
<svg width="139pt" height="347pt"
 viewBox="0.00 0.00 139.00 347.00" xmlns="http://www.w3.org/2000/svg" xmlns:xlink="http://www.w3.org/1999/xlink">
<g id="graph0" class="graph" transform="scale(1 1) rotate(0) translate(4 343)">
<title>openage::audio::InMemoryLoader</title>
<polygon fill="white" stroke="none" points="-4,4 -4,-343 135,-343 135,4 -4,4"/>
<!-- Node2 -->
<g id="node1" class="node"><title>Node2</title>
<g id="a_node1"><a xlink:title=" ">
<polygon fill="#bfbfbf" stroke="black" points="0,-0.5 0,-101.5 131,-101.5 131,-0.5 0,-0.5"/>
<text text-anchor="start" x="8" y="-89.5" font-family="Helvetica,sans-Serif" font-size="10.00">openage::audio::InMemory</text>
<text text-anchor="middle" x="65.5" y="-78.5" font-family="Helvetica,sans-Serif" font-size="10.00">Loader</text>
<polyline fill="none" stroke="black" points="0,-71.5 131,-71.5 "/>
<text text-anchor="middle" x="65.5" y="-59.5" font-family="Helvetica,sans-Serif" font-size="10.00"> </text>
<polyline fill="none" stroke="black" points="0,-52.5 131,-52.5 "/>
<text text-anchor="start" x="8" y="-40.5" font-family="Helvetica,sans-Serif" font-size="10.00">+ InMemoryLoader()</text>
<text text-anchor="start" x="8" y="-29.5" font-family="Helvetica,sans-Serif" font-size="10.00">+ ~InMemoryLoader()</text>
<text text-anchor="start" x="8" y="-18.5" font-family="Helvetica,sans-Serif" font-size="10.00">+ get_resource()</text>
<text text-anchor="start" x="8" y="-7.5" font-family="Helvetica,sans-Serif" font-size="10.00">+ create()</text>
</a>
</g>
</g>
<!-- Node3 -->
<g id="node2" class="node"><title>Node3</title>
<g id="a_node2"><a xlink:href="classopenage_1_1util_1_1_path.xhtml" target="_top" xlink:title=" ">
<polygon fill="white" stroke="black" points="16.5,-149.5 16.5,-338.5 114.5,-338.5 114.5,-149.5 16.5,-149.5"/>
<text text-anchor="middle" x="65.5" y="-326.5" font-family="Helvetica,sans-Serif" font-size="10.00">openage::util::Path</text>
<polyline fill="none" stroke="black" points="16.5,-319.5 114.5,-319.5 "/>
<text text-anchor="start" x="24.5" y="-307.5" font-family="Helvetica,sans-Serif" font-size="10.00"># fsobj</text>
<text text-anchor="start" x="24.5" y="-296.5" font-family="Helvetica,sans-Serif" font-size="10.00"># parts</text>
<polyline fill="none" stroke="black" points="16.5,-289.5 114.5,-289.5 "/>
<text text-anchor="start" x="24.5" y="-277.5" font-family="Helvetica,sans-Serif" font-size="10.00">+ Path()</text>
<text text-anchor="start" x="24.5" y="-266.5" font-family="Helvetica,sans-Serif" font-size="10.00">+ Path()</text>
<text text-anchor="start" x="24.5" y="-255.5" font-family="Helvetica,sans-Serif" font-size="10.00">+ Path()</text>
<text text-anchor="start" x="24.5" y="-244.5" font-family="Helvetica,sans-Serif" font-size="10.00">+ ~Path()</text>
<text text-anchor="start" x="24.5" y="-233.5" font-family="Helvetica,sans-Serif" font-size="10.00">+ exists()</text>
<text text-anchor="start" x="24.5" y="-222.5" font-family="Helvetica,sans-Serif" font-size="10.00">+ is_file()</text>
<text text-anchor="start" x="24.5" y="-211.5" font-family="Helvetica,sans-Serif" font-size="10.00">+ is_dir()</text>
<text text-anchor="start" x="24.5" y="-200.5" font-family="Helvetica,sans-Serif" font-size="10.00">+ writable()</text>
<text text-anchor="start" x="24.5" y="-189.5" font-family="Helvetica,sans-Serif" font-size="10.00">+ list()</text>
<text text-anchor="start" x="24.5" y="-178.5" font-family="Helvetica,sans-Serif" font-size="10.00">+ iterdir()</text>
<text text-anchor="start" x="24.5" y="-167.5" font-family="Helvetica,sans-Serif" font-size="10.00">and 33 more...</text>
<text text-anchor="start" x="24.5" y="-156.5" font-family="Helvetica,sans-Serif" font-size="10.00">&#45; get_native_path()</text>
</a>
</g>
</g>
<!-- Node3&#45;&gt;Node2 -->
<g id="edge1" class="edge"><title>Node3&#45;&gt;Node2</title>
<path fill="none" stroke="#404040" d="M65.5,-149.458C65.5,-137.311 65.5,-125.122 65.5,-113.677"/>
<polygon fill="none" stroke="#404040" points="65.5001,-113.587 61.5,-107.587 65.5,-101.587 69.5,-107.587 65.5001,-113.587"/>
<text text-anchor="middle" x="79.5" y="-123" font-family="Helvetica,sans-Serif" font-size="10.00"> #path</text>
</g>
</g>
</svg>
