<?xml version="1.0" encoding="UTF-8" standalone="no"?>
<!DOCTYPE svg PUBLIC "-//W3C//DTD SVG 1.1//EN"
 "http://www.w3.org/Graphics/SVG/1.1/DTD/svg11.dtd">
<!-- Generated by graphviz version 2.38.0 (20140413.2041)
 -->
<!-- Title: openage.convert.dataformat.exportable.Exportable.get_data_format Pages: 1 -->
<!--zoomable 137 -->
<svg id="main" version="1.1" xmlns="http://www.w3.org/2000/svg" xmlns:xlink="http://www.w3.org/1999/xlink" xml:space="preserve" onload="init(evt)">
<style type="text/css"><![CDATA[
.edge:hover path { stroke: red; }
.edge:hover polygon { stroke: red; fill: red; }
]]></style>
<script type="text/javascript"><![CDATA[
var edges = document.getElementsByTagName('g');
if (edges && edges.length) {
  for (var i=0;i<edges.length;i++) {
    if (edges[i].id.substr(0,4)=='edge') {
      edges[i].setAttribute('class','edge');
    }
  }
}
]]></script>
        <defs>
                <circle id="rim" cx="0" cy="0" r="7"/>
                <circle id="rim2" cx="0" cy="0" r="3.5"/>
                <g id="zoomPlus">
                        <use xlink:href="#rim" fill="#404040">
                                <set attributeName="fill" to="#808080" begin="zoomplus.mouseover" end="zoomplus.mouseout"/>
                        </use>
                        <path d="M-4,0h8M0,-4v8" fill="none" stroke="white" stroke-width="1.5" pointer-events="none"/>
                </g>
                <g id="zoomMin">
                        <use xlink:href="#rim" fill="#404040">
                                <set attributeName="fill" to="#808080" begin="zoomminus.mouseover" end="zoomminus.mouseout"/>
                        </use>
                        <path d="M-4,0h8" fill="none" stroke="white" stroke-width="1.5" pointer-events="none"/>
                </g>
                <g id="dirArrow">
                        <path fill="none" stroke="white" stroke-width="1.5" d="M0,-3.0v7 M-2.5,-0.5L0,-3.0L2.5,-0.5"/>
                </g>
               <g id="resetDef">
                       <use xlink:href="#rim2" fill="#404040">
                               <set attributeName="fill" to="#808080" begin="reset.mouseover" end="reset.mouseout"/>
                       </use>
               </g>
        </defs>

<script type="text/javascript">
var viewWidth = 641;
var viewHeight = 137;
var sectionId = 'dynsection-6';
</script>
<script xlink:href="svgpan.js"/>
<svg id="graph" class="graph">
<g id="viewport">
<title>openage.convert.dataformat.exportable.Exportable.get_data_format</title>
<polygon fill="white" stroke="none" points="-4,4 -4,-133 637,-133 637,4 -4,4"/>
<!-- Node15 -->
<g id="node1" class="node"><title>Node15</title>
<g id="a_node1"><a xlink:title="return all members of this exportable (a struct.)">
<polygon fill="#bfbfbf" stroke="black" points="446,-49.5 446,-79.5 633,-79.5 633,-49.5 446,-49.5"/>
<text text-anchor="start" x="454" y="-67.5" font-family="Helvetica,sans-Serif" font-size="10.00">openage.convert.dataformat.exportable.</text>
<text text-anchor="middle" x="539.5" y="-56.5" font-family="Helvetica,sans-Serif" font-size="10.00">Exportable.get_data_format</text>
</a>
</g>
</g>
<!-- Node16 -->
<g id="node2" class="node"><title>Node16</title>
<g id="a_node2"><a xlink:href="classopenage_1_1convert_1_1dataformat_1_1exportable_1_1_exportable.xhtml#abd30175646af16d47c9024685a16e3e3" target="_top" xlink:title="main data dumping function, the magic happens in here.">
<polygon fill="white" stroke="black" points="223,-98.5 223,-128.5 410,-128.5 410,-98.5 223,-98.5"/>
<text text-anchor="start" x="231" y="-116.5" font-family="Helvetica,sans-Serif" font-size="10.00">openage.convert.dataformat.exportable.</text>
<text text-anchor="middle" x="316.5" y="-105.5" font-family="Helvetica,sans-Serif" font-size="10.00">Exportable.dump</text>
</a>
</g>
</g>
<!-- Node15&#45;&gt;Node16 -->
<g id="edge1" class="edge"><title>Node15&#45;&gt;Node16</title>
<path fill="none" stroke="midnightblue" d="M460.662,-81.7581C436.037,-87.218 409.035,-93.205 385.181,-98.4938"/>
<polygon fill="midnightblue" stroke="midnightblue" points="461.686,-85.1163 470.691,-79.5346 460.17,-78.2823 461.686,-85.1163"/>
</g>
<!-- Node18 -->
<g id="node4" class="node"><title>Node18</title>
<g id="a_node4"><a xlink:href="classopenage_1_1convert_1_1dataformat_1_1exportable_1_1_exportable.xhtml#a552736ad870b3bc198363f257765da34" target="_top" xlink:title="provides a deterministic hash of all exported structure members">
<polygon fill="white" stroke="black" points="223,-49.5 223,-79.5 410,-79.5 410,-49.5 223,-49.5"/>
<text text-anchor="start" x="231" y="-67.5" font-family="Helvetica,sans-Serif" font-size="10.00">openage.convert.dataformat.exportable.</text>
<text text-anchor="middle" x="316.5" y="-56.5" font-family="Helvetica,sans-Serif" font-size="10.00">Exportable.format_hash</text>
</a>
</g>
</g>
<!-- Node15&#45;&gt;Node18 -->
<g id="edge3" class="edge"><title>Node15&#45;&gt;Node18</title>
<path fill="none" stroke="midnightblue" d="M435.717,-64.5C427.146,-64.5 418.513,-64.5 410.026,-64.5"/>
<polygon fill="midnightblue" stroke="midnightblue" points="435.737,-68.0001 445.737,-64.5 435.737,-61.0001 435.737,-68.0001"/>
</g>
<!-- Node20 -->
<g id="node6" class="node"><title>Node20</title>
<g id="a_node6"><a xlink:href="classopenage_1_1convert_1_1dataformat_1_1exportable_1_1_exportable.xhtml#abb235653b7107dc8194c16bd114210e6" target="_top" xlink:title="create struct definitions for this class and its subdata references.">
<polygon fill="white" stroke="black" points="223,-0.5 223,-30.5 410,-30.5 410,-0.5 223,-0.5"/>
<text text-anchor="start" x="231" y="-18.5" font-family="Helvetica,sans-Serif" font-size="10.00">openage.convert.dataformat.exportable.</text>
<text text-anchor="middle" x="316.5" y="-7.5" font-family="Helvetica,sans-Serif" font-size="10.00">Exportable.structs</text>
</a>
</g>
</g>
<!-- Node15&#45;&gt;Node20 -->
<g id="edge5" class="edge"><title>Node15&#45;&gt;Node20</title>
<path fill="none" stroke="midnightblue" d="M460.662,-47.2419C436.037,-41.782 409.035,-35.795 385.181,-30.5062"/>
<polygon fill="midnightblue" stroke="midnightblue" points="460.17,-50.7177 470.691,-49.4654 461.686,-43.8837 460.17,-50.7177"/>
</g>
<!-- Node17 -->
<g id="node3" class="node"><title>Node17</title>
<g id="a_node3"><a xlink:href="classopenage_1_1convert_1_1texture_1_1_texture.xhtml#a5ab6d4ff626d130203d59cdafc830f0d" target="_top" xlink:title=" ">
<polygon fill="white" stroke="black" points="32,-98.5 32,-128.5 155,-128.5 155,-98.5 32,-98.5"/>
<text text-anchor="start" x="40" y="-116.5" font-family="Helvetica,sans-Serif" font-size="10.00">openage.convert.texture.</text>
<text text-anchor="middle" x="93.5" y="-105.5" font-family="Helvetica,sans-Serif" font-size="10.00">Texture.save</text>
</a>
</g>
</g>
<!-- Node16&#45;&gt;Node17 -->
<g id="edge2" class="edge"><title>Node16&#45;&gt;Node17</title>
<path fill="none" stroke="midnightblue" d="M212.529,-113.5C192.93,-113.5 173.012,-113.5 155.26,-113.5"/>
<polygon fill="midnightblue" stroke="midnightblue" points="212.737,-117 222.737,-113.5 212.737,-110 212.737,-117"/>
</g>
<!-- Node19 -->
<g id="node5" class="node"><title>Node19</title>
<g id="a_node5"><a xlink:href="classopenage_1_1convert_1_1gamedata_1_1empiresdat_1_1_empires_dat.xhtml#ac03cb1fa789e78ec10c7c2404d149f5a" target="_top" xlink:title="return the unique hash for the data format tree">
<polygon fill="white" stroke="black" points="0,-49.5 0,-79.5 187,-79.5 187,-49.5 0,-49.5"/>
<text text-anchor="start" x="8" y="-67.5" font-family="Helvetica,sans-Serif" font-size="10.00">openage.convert.gamedata.empiresdat.</text>
<text text-anchor="middle" x="93.5" y="-56.5" font-family="Helvetica,sans-Serif" font-size="10.00">EmpiresDat.get_hash</text>
</a>
</g>
</g>
<!-- Node18&#45;&gt;Node19 -->
<g id="edge4" class="edge"><title>Node18&#45;&gt;Node19</title>
<path fill="none" stroke="midnightblue" d="M212.717,-64.5C204.146,-64.5 195.513,-64.5 187.026,-64.5"/>
<polygon fill="midnightblue" stroke="midnightblue" points="212.737,-68.0001 222.737,-64.5 212.737,-61.0001 212.737,-68.0001"/>
</g>
</g>
</svg>
        <g id="navigator" transform="translate(0 0)" fill="#404254">
                <rect fill="#f2f5e9" fill-opacity="0.5" stroke="#606060" stroke-width=".5" x="0" y="0" width="60" height="60"/>
                <use id="zoomplus" xlink:href="#zoomPlus" x="17" y="9" onmousedown="handleZoom(evt,'in')"/>
                <use id="zoomminus" xlink:href="#zoomMin" x="42" y="9" onmousedown="handleZoom(evt,'out')"/>
                <use id="reset" xlink:href="#resetDef" x="30" y="36" onmousedown="handleReset()"/>
                <g id="arrowUp" xlink:href="#dirArrow" transform="translate(30 24)" onmousedown="handlePan(0,-1)">
                  <use xlink:href="#rim" fill="#404040">
                        <set attributeName="fill" to="#808080" begin="arrowUp.mouseover" end="arrowUp.mouseout"/>
                  </use>
                  <path fill="none" stroke="white" stroke-width="1.5" d="M0,-3.0v7 M-2.5,-0.5L0,-3.0L2.5,-0.5"/>
                </g>
                <g id="arrowRight" xlink:href="#dirArrow" transform="rotate(90) translate(36 -43)" onmousedown="handlePan(1,0)">
                  <use xlink:href="#rim" fill="#404040">
                        <set attributeName="fill" to="#808080" begin="arrowRight.mouseover" end="arrowRight.mouseout"/>
                  </use>
                  <path fill="none" stroke="white" stroke-width="1.5" d="M0,-3.0v7 M-2.5,-0.5L0,-3.0L2.5,-0.5"/>
                </g>
                <g id="arrowDown" xlink:href="#dirArrow" transform="rotate(180) translate(-30 -48)" onmousedown="handlePan(0,1)">
                  <use xlink:href="#rim" fill="#404040">
                        <set attributeName="fill" to="#808080" begin="arrowDown.mouseover" end="arrowDown.mouseout"/>
                  </use>
                  <path fill="none" stroke="white" stroke-width="1.5" d="M0,-3.0v7 M-2.5,-0.5L0,-3.0L2.5,-0.5"/>
                </g>
                <g id="arrowLeft" xlink:href="#dirArrow" transform="rotate(270) translate(-36 17)" onmousedown="handlePan(-1,0)">
                  <use xlink:href="#rim" fill="#404040">
                        <set attributeName="fill" to="#808080" begin="arrowLeft.mouseover" end="arrowLeft.mouseout"/>
                  </use>
                  <path fill="none" stroke="white" stroke-width="1.5" d="M0,-3.0v7 M-2.5,-0.5L0,-3.0L2.5,-0.5"/>
                </g>
        </g>
        <svg viewBox="0 0 15 15" width="100%" height="30px" preserveAspectRatio="xMaxYMin meet">
         <g id="arrow_out" transform="scale(0.3 0.3)">
          <a xlink:href="classopenage_1_1convert_1_1dataformat_1_1exportable_1_1_exportable_ac173bb76cce6f538107168c61a427ab9_icgraph_org.svg" target="_base">
           <rect id="button" ry="5" rx="5" y="6" x="6" height="38" width="38"
                fill="#f2f5e9" fill-opacity="0.5" stroke="#606060" stroke-width="1.0"/>
           <path id="arrow"
             d="M 11.500037,31.436501 C 11.940474,20.09759 22.043105,11.32322 32.158766,21.979434 L 37.068811,17.246167 C 37.068811,17.246167 37.088388,32 37.088388,32 L 22.160133,31.978069 C 22.160133,31.978069 26.997745,27.140456 26.997745,27.140456 C 18.528582,18.264221 13.291696,25.230495 11.500037,31.436501 z"
             style="fill:#404040;"/>
          </a>
         </g>
        </svg>
</svg>
