<?xml version="1.0" encoding="UTF-8" standalone="no"?>
<!DOCTYPE svg PUBLIC "-//W3C//DTD SVG 1.1//EN"
 "http://www.w3.org/Graphics/SVG/1.1/DTD/svg11.dtd">
<!-- Generated by graphviz version 2.38.0 (20140413.2041)
 -->
<!-- Title: openage::curve::Queue::between Pages: 1 -->
<!--zoomable 224 -->
<svg id="main" version="1.1" xmlns="http://www.w3.org/2000/svg" xmlns:xlink="http://www.w3.org/1999/xlink" xml:space="preserve" onload="init(evt)">
<style type="text/css"><![CDATA[
.edge:hover path { stroke: red; }
.edge:hover polygon { stroke: red; fill: red; }
]]></style>
<script type="text/javascript"><![CDATA[
var edges = document.getElementsByTagName('g');
if (edges && edges.length) {
  for (var i=0;i<edges.length;i++) {
    if (edges[i].id.substr(0,4)=='edge') {
      edges[i].setAttribute('class','edge');
    }
  }
}
]]></script>
        <defs>
                <circle id="rim" cx="0" cy="0" r="7"/>
                <circle id="rim2" cx="0" cy="0" r="3.5"/>
                <g id="zoomPlus">
                        <use xlink:href="#rim" fill="#404040">
                                <set attributeName="fill" to="#808080" begin="zoomplus.mouseover" end="zoomplus.mouseout"/>
                        </use>
                        <path d="M-4,0h8M0,-4v8" fill="none" stroke="white" stroke-width="1.5" pointer-events="none"/>
                </g>
                <g id="zoomMin">
                        <use xlink:href="#rim" fill="#404040">
                                <set attributeName="fill" to="#808080" begin="zoomminus.mouseover" end="zoomminus.mouseout"/>
                        </use>
                        <path d="M-4,0h8" fill="none" stroke="white" stroke-width="1.5" pointer-events="none"/>
                </g>
                <g id="dirArrow">
                        <path fill="none" stroke="white" stroke-width="1.5" d="M0,-3.0v7 M-2.5,-0.5L0,-3.0L2.5,-0.5"/>
                </g>
               <g id="resetDef">
                       <use xlink:href="#rim2" fill="#404040">
                               <set attributeName="fill" to="#808080" begin="reset.mouseover" end="reset.mouseout"/>
                       </use>
               </g>
        </defs>

<script type="text/javascript">
var viewWidth = 772;
var viewHeight = 224;
var sectionId = 'dynsection-3';
</script>
<script xlink:href="svgpan.js"/>
<svg id="graph" class="graph">
<g id="viewport">
<title>openage::curve::Queue::between</title>
<polygon fill="white" stroke="none" points="-4,4 -4,-220.439 768,-220.439 768,4 -4,4"/>
<!-- Node56 -->
<g id="node1" class="node"><title>Node56</title>
<g id="a_node1"><a xlink:title=" ">
<polygon fill="#bfbfbf" stroke="black" points="0,-139.939 0,-169.939 116,-169.939 116,-139.939 0,-139.939"/>
<text text-anchor="start" x="8" y="-157.939" font-family="Helvetica,sans-Serif" font-size="10.00">openage::curve::Queue</text>
<text text-anchor="middle" x="58" y="-146.939" font-family="Helvetica,sans-Serif" font-size="10.00">::between</text>
</a>
</g>
</g>
<!-- Node57 -->
<g id="node2" class="node"><title>Node57</title>
<g id="a_node2"><a xlink:href="namespaceopenage_1_1curve_1_1tests.xhtml#afc4e799a037edab37e1e35a74da593b7" target="_top" xlink:title=" ">
<polygon fill="white" stroke="black" points="152,-117.939 152,-147.939 262,-147.939 262,-117.939 152,-117.939"/>
<text text-anchor="start" x="160" y="-135.939" font-family="Helvetica,sans-Serif" font-size="10.00">openage::curve::tests</text>
<text text-anchor="middle" x="207" y="-124.939" font-family="Helvetica,sans-Serif" font-size="10.00">::container</text>
</a>
</g>
</g>
<!-- Node56&#45;&gt;Node57 -->
<g id="edge1" class="edge"><title>Node56&#45;&gt;Node57</title>
<path fill="none" stroke="midnightblue" d="M116.255,-146.37C124.508,-145.135 133.049,-143.857 141.432,-142.602"/>
<polygon fill="midnightblue" stroke="midnightblue" points="142.178,-146.029 151.55,-141.088 141.142,-139.106 142.178,-146.029"/>
</g>
<!-- Node58 -->
<g id="node3" class="node"><title>Node58</title>
<g id="a_node3"><a xlink:href="namespaceopenage_1_1curve_1_1tests.xhtml#aafe8d47259322a390c43cae62d308296" target="_top" xlink:title=" ">
<polygon fill="white" stroke="black" points="298,-73.9386 298,-103.939 408,-103.939 408,-73.9386 298,-73.9386"/>
<text text-anchor="start" x="306" y="-91.9386" font-family="Helvetica,sans-Serif" font-size="10.00">openage::curve::tests</text>
<text text-anchor="middle" x="353" y="-80.9386" font-family="Helvetica,sans-Serif" font-size="10.00">::test_map</text>
</a>
</g>
</g>
<!-- Node57&#45;&gt;Node58 -->
<g id="edge2" class="edge"><title>Node57&#45;&gt;Node58</title>
<path fill="none" stroke="midnightblue" d="M257.154,-117.919C268.611,-114.418 280.93,-110.654 292.772,-107.036"/>
<polygon fill="midnightblue" stroke="midnightblue" points="294.038,-110.309 302.579,-104.04 291.992,-103.615 294.038,-110.309"/>
</g>
<!-- Node59 -->
<g id="node4" class="node"><title>Node59</title>
<g id="a_node4"><a xlink:href="namespaceopenage_1_1curve_1_1tests.xhtml#a994d019a14acd704605a0ccff85558c8" target="_top" xlink:title=" ">
<polygon fill="white" stroke="black" points="298,-24.9386 298,-54.9386 408,-54.9386 408,-24.9386 298,-24.9386"/>
<text text-anchor="start" x="306" y="-42.9386" font-family="Helvetica,sans-Serif" font-size="10.00">openage::curve::tests</text>
<text text-anchor="middle" x="353" y="-31.9386" font-family="Helvetica,sans-Serif" font-size="10.00">::test_list</text>
</a>
</g>
</g>
<!-- Node57&#45;&gt;Node59 -->
<g id="edge3" class="edge"><title>Node57&#45;&gt;Node59</title>
<path fill="none" stroke="midnightblue" d="M225.052,-117.895C242.533,-102.961 270.919,-80.0308 298,-63.9386 300.481,-62.4647 303.068,-61.0249 305.708,-59.6296"/>
<polygon fill="midnightblue" stroke="midnightblue" points="307.438,-62.6777 314.814,-55.0719 304.305,-56.418 307.438,-62.6777"/>
</g>
<!-- Node60 -->
<g id="node5" class="node"><title>Node60</title>
<g id="a_node5"><a xlink:href="namespaceopenage_1_1curve_1_1tests.xhtml#ae4b27fadf76c2a10960f6b7e7ff7c724" target="_top" xlink:title=" ">
<polygon fill="white" stroke="black" points="298,-161.939 298,-191.939 408,-191.939 408,-161.939 298,-161.939"/>
<text text-anchor="start" x="306" y="-179.939" font-family="Helvetica,sans-Serif" font-size="10.00">openage::curve::tests</text>
<text text-anchor="middle" x="353" y="-168.939" font-family="Helvetica,sans-Serif" font-size="10.00">::test_queue</text>
</a>
</g>
</g>
<!-- Node57&#45;&gt;Node60 -->
<g id="edge4" class="edge"><title>Node57&#45;&gt;Node60</title>
<path fill="none" stroke="midnightblue" d="M257.154,-147.958C268.611,-151.459 280.93,-155.223 292.772,-158.841"/>
<polygon fill="midnightblue" stroke="midnightblue" points="291.992,-162.263 302.579,-161.838 294.038,-155.568 291.992,-162.263"/>
</g>
<!-- Node60&#45;&gt;Node56 -->
<g id="edge11" class="edge"><title>Node60&#45;&gt;Node56</title>
<path fill="none" stroke="midnightblue" d="M297.923,-172.878C249.532,-169.245 178.401,-163.904 126.335,-159.995"/>
<polygon fill="midnightblue" stroke="midnightblue" points="126.423,-156.491 116.189,-159.233 125.899,-163.472 126.423,-156.491"/>
</g>
<!-- Node61 -->
<g id="node6" class="node"><title>Node61</title>
<g id="a_node6"><a xlink:href="classopenage_1_1curve_1_1_queue.xhtml#ae7d94b0875221550e5af663a64ea2aec" target="_top" xlink:title=" ">
<polygon fill="white" stroke="black" points="455,-185.939 455,-215.939 571,-215.939 571,-185.939 455,-185.939"/>
<text text-anchor="start" x="463" y="-203.939" font-family="Helvetica,sans-Serif" font-size="10.00">openage::curve::Queue</text>
<text text-anchor="middle" x="513" y="-192.939" font-family="Helvetica,sans-Serif" font-size="10.00">::insert</text>
</a>
</g>
</g>
<!-- Node60&#45;&gt;Node61 -->
<g id="edge5" class="edge"><title>Node60&#45;&gt;Node61</title>
<path fill="none" stroke="midnightblue" d="M408.375,-185.198C420.091,-186.978 432.61,-188.879 444.75,-190.723"/>
<polygon fill="midnightblue" stroke="midnightblue" points="444.42,-194.213 454.833,-192.255 445.472,-187.293 444.42,-194.213"/>
</g>
<!-- Node63 -->
<g id="node8" class="node"><title>Node63</title>
<g id="a_node8"><a xlink:href="classopenage_1_1curve_1_1_queue.xhtml#acbff846f0aad39b82c1dbffe83f80fba" target="_top" xlink:title=" ">
<polygon fill="white" stroke="black" points="455,-136.939 455,-166.939 571,-166.939 571,-136.939 455,-136.939"/>
<text text-anchor="start" x="463" y="-154.939" font-family="Helvetica,sans-Serif" font-size="10.00">openage::curve::Queue</text>
<text text-anchor="middle" x="513" y="-143.939" font-family="Helvetica,sans-Serif" font-size="10.00">::begin</text>
</a>
</g>
</g>
<!-- Node60&#45;&gt;Node63 -->
<g id="edge8" class="edge"><title>Node60&#45;&gt;Node63</title>
<path fill="none" stroke="midnightblue" d="M408.375,-168.335C420.091,-166.481 432.61,-164.5 444.75,-162.579"/>
<polygon fill="midnightblue" stroke="midnightblue" points="445.503,-166.004 454.833,-160.984 444.409,-159.09 445.503,-166.004"/>
</g>
<!-- Node64 -->
<g id="node9" class="node"><title>Node64</title>
<g id="a_node9"><a xlink:href="classopenage_1_1curve_1_1_queue.xhtml#a3a60297cec80ae6d759ea3567922db8e" target="_top" xlink:title=" ">
<polygon fill="white" stroke="black" points="444,-98.4386 444,-117.439 582,-117.439 582,-98.4386 444,-98.4386"/>
<text text-anchor="middle" x="513" y="-105.439" font-family="Helvetica,sans-Serif" font-size="10.00">openage::curve::Queue::end</text>
</a>
</g>
</g>
<!-- Node60&#45;&gt;Node64 -->
<g id="edge12" class="edge"><title>Node60&#45;&gt;Node64</title>
<path fill="none" stroke="midnightblue" d="M377.679,-161.762C395.399,-150.912 420.522,-136.583 444,-126.939 449.804,-124.554 456.005,-122.364 462.213,-120.385"/>
<polygon fill="midnightblue" stroke="midnightblue" points="463.358,-123.696 471.918,-117.453 461.333,-116.995 463.358,-123.696"/>
</g>
<!-- Node61&#45;&gt;Node57 -->
<g id="edge6" class="edge"><title>Node61&#45;&gt;Node57</title>
<path fill="none" stroke="midnightblue" d="M454.999,-210.598C410.948,-215.79 349.077,-218.065 298,-200.939 271.111,-191.922 245.842,-171.346 228.966,-155.174"/>
<polygon fill="midnightblue" stroke="midnightblue" points="231.397,-152.656 221.827,-148.111 226.474,-157.632 231.397,-152.656"/>
</g>
<!-- Node62 -->
<g id="node7" class="node"><title>Node62</title>
<g id="a_node7"><a xlink:href="namespaceopenage_1_1console_1_1tests.xhtml#a46ebd3333dc9196558ac9aced828d117" target="_top" xlink:title=" ">
<polygon fill="white" stroke="black" points="618,-142.439 618,-161.439 764,-161.439 764,-142.439 618,-142.439"/>
<text text-anchor="middle" x="691" y="-149.439" font-family="Helvetica,sans-Serif" font-size="10.00">openage::console::tests::max</text>
</a>
</g>
</g>
<!-- Node61&#45;&gt;Node62 -->
<g id="edge7" class="edge"><title>Node61&#45;&gt;Node62</title>
<path fill="none" stroke="midnightblue" d="M568.242,-185.837C593.253,-178.874 622.551,-170.717 646.14,-164.15"/>
<polygon fill="midnightblue" stroke="midnightblue" points="647.176,-167.494 655.871,-161.441 645.298,-160.751 647.176,-167.494"/>
</g>
<!-- Node63&#45;&gt;Node57 -->
<g id="edge9" class="edge"><title>Node63&#45;&gt;Node57</title>
<path fill="none" stroke="midnightblue" d="M454.766,-148.361C402.892,-145.119 326.519,-140.346 272.502,-136.97"/>
<polygon fill="midnightblue" stroke="midnightblue" points="272.548,-133.466 262.349,-136.335 272.111,-140.453 272.548,-133.466"/>
</g>
<!-- Node63&#45;&gt;Node62 -->
<g id="edge10" class="edge"><title>Node63&#45;&gt;Node62</title>
<path fill="none" stroke="midnightblue" d="M571.142,-151.939C582.748,-151.939 595.173,-151.939 607.456,-151.939"/>
<polygon fill="midnightblue" stroke="midnightblue" points="607.72,-155.439 617.72,-151.939 607.72,-148.439 607.72,-155.439"/>
</g>
<!-- Node64&#45;&gt;Node57 -->
<g id="edge13" class="edge"><title>Node64&#45;&gt;Node57</title>
<path fill="none" stroke="midnightblue" d="M505.303,-98.4154C490.515,-78.3249 452.803,-32.049 408,-14.9386 362.328,2.5035 341.816,6.74816 298,-14.9386 258.754,-34.3636 231.95,-80.0073 218.366,-108.494"/>
<polygon fill="midnightblue" stroke="midnightblue" points="215.093,-107.234 214.113,-117.783 221.458,-110.148 215.093,-107.234"/>
</g>
<!-- Node64&#45;&gt;Node62 -->
<g id="edge14" class="edge"><title>Node64&#45;&gt;Node62</title>
<path fill="none" stroke="midnightblue" d="M552.189,-117.486C578.482,-124.059 613.619,-132.843 641.833,-139.897"/>
<polygon fill="midnightblue" stroke="midnightblue" points="641.335,-143.38 651.885,-142.41 643.033,-136.589 641.335,-143.38"/>
</g>
</g>
</svg>
        <g id="navigator" transform="translate(0 0)" fill="#404254">
                <rect fill="#f2f5e9" fill-opacity="0.5" stroke="#606060" stroke-width=".5" x="0" y="0" width="60" height="60"/>
                <use id="zoomplus" xlink:href="#zoomPlus" x="17" y="9" onmousedown="handleZoom(evt,'in')"/>
                <use id="zoomminus" xlink:href="#zoomMin" x="42" y="9" onmousedown="handleZoom(evt,'out')"/>
                <use id="reset" xlink:href="#resetDef" x="30" y="36" onmousedown="handleReset()"/>
                <g id="arrowUp" xlink:href="#dirArrow" transform="translate(30 24)" onmousedown="handlePan(0,-1)">
                  <use xlink:href="#rim" fill="#404040">
                        <set attributeName="fill" to="#808080" begin="arrowUp.mouseover" end="arrowUp.mouseout"/>
                  </use>
                  <path fill="none" stroke="white" stroke-width="1.5" d="M0,-3.0v7 M-2.5,-0.5L0,-3.0L2.5,-0.5"/>
                </g>
                <g id="arrowRight" xlink:href="#dirArrow" transform="rotate(90) translate(36 -43)" onmousedown="handlePan(1,0)">
                  <use xlink:href="#rim" fill="#404040">
                        <set attributeName="fill" to="#808080" begin="arrowRight.mouseover" end="arrowRight.mouseout"/>
                  </use>
                  <path fill="none" stroke="white" stroke-width="1.5" d="M0,-3.0v7 M-2.5,-0.5L0,-3.0L2.5,-0.5"/>
                </g>
                <g id="arrowDown" xlink:href="#dirArrow" transform="rotate(180) translate(-30 -48)" onmousedown="handlePan(0,1)">
                  <use xlink:href="#rim" fill="#404040">
                        <set attributeName="fill" to="#808080" begin="arrowDown.mouseover" end="arrowDown.mouseout"/>
                  </use>
                  <path fill="none" stroke="white" stroke-width="1.5" d="M0,-3.0v7 M-2.5,-0.5L0,-3.0L2.5,-0.5"/>
                </g>
                <g id="arrowLeft" xlink:href="#dirArrow" transform="rotate(270) translate(-36 17)" onmousedown="handlePan(-1,0)">
                  <use xlink:href="#rim" fill="#404040">
                        <set attributeName="fill" to="#808080" begin="arrowLeft.mouseover" end="arrowLeft.mouseout"/>
                  </use>
                  <path fill="none" stroke="white" stroke-width="1.5" d="M0,-3.0v7 M-2.5,-0.5L0,-3.0L2.5,-0.5"/>
                </g>
        </g>
        <svg viewBox="0 0 15 15" width="100%" height="30px" preserveAspectRatio="xMaxYMin meet">
         <g id="arrow_out" transform="scale(0.3 0.3)">
          <a xlink:href="classopenage_1_1curve_1_1_queue_a3ba35a56fa550d939d0d16c71c63e56c_cgraph_org.svg" target="_base">
           <rect id="button" ry="5" rx="5" y="6" x="6" height="38" width="38"
                fill="#f2f5e9" fill-opacity="0.5" stroke="#606060" stroke-width="1.0"/>
           <path id="arrow"
             d="M 11.500037,31.436501 C 11.940474,20.09759 22.043105,11.32322 32.158766,21.979434 L 37.068811,17.246167 C 37.068811,17.246167 37.088388,32 37.088388,32 L 22.160133,31.978069 C 22.160133,31.978069 26.997745,27.140456 26.997745,27.140456 C 18.528582,18.264221 13.291696,25.230495 11.500037,31.436501 z"
             style="fill:#404040;"/>
          </a>
         </g>
        </svg>
</svg>
