<?xml version="1.0" encoding="UTF-8" standalone="no"?>
<!DOCTYPE svg PUBLIC "-//W3C//DTD SVG 1.1//EN"
 "http://www.w3.org/Graphics/SVG/1.1/DTD/svg11.dtd">
<!-- Generated by graphviz version 2.38.0 (20140413.2041)
 -->
<!-- Title: openage::util::fslike::FSLike::writable Pages: 1 -->
<svg width="281pt" height="137pt"
 viewBox="0.00 0.00 281.00 137.00" xmlns="http://www.w3.org/2000/svg" xmlns:xlink="http://www.w3.org/1999/xlink">
<g id="graph0" class="graph" transform="scale(1 1) rotate(0) translate(4 133)">
<title>openage::util::fslike::FSLike::writable</title>
<polygon fill="white" stroke="none" points="-4,4 -4,-133 277,-133 277,4 -4,4"/>
<!-- Node62 -->
<g id="node1" class="node"><title>Node62</title>
<g id="a_node1"><a xlink:title=" ">
<polygon fill="#bfbfbf" stroke="black" points="172,-49.5 172,-79.5 273,-79.5 273,-49.5 172,-49.5"/>
<text text-anchor="start" x="180" y="-67.5" font-family="Helvetica,sans-Serif" font-size="10.00">openage::util::fslike</text>
<text text-anchor="middle" x="222.5" y="-56.5" font-family="Helvetica,sans-Serif" font-size="10.00">::FSLike::writable</text>
</a>
</g>
</g>
<!-- Node63 -->
<g id="node2" class="node"><title>Node63</title>
<g id="a_node2"><a xlink:href="classopenage_1_1util_1_1fslike_1_1wrapper_1_1_wrapper.xhtml#a9477182385b8db4a3b2874a9360b690f" target="_top" xlink:title="Returns a new flattened path.">
<polygon fill="white" stroke="black" points="1,-98.5 1,-128.5 135,-128.5 135,-98.5 1,-98.5"/>
<text text-anchor="start" x="9" y="-116.5" font-family="Helvetica,sans-Serif" font-size="10.00">openage.util.fslike.wrapper.</text>
<text text-anchor="middle" x="68" y="-105.5" font-family="Helvetica,sans-Serif" font-size="10.00">Wrapper.resolve_w</text>
</a>
</g>
</g>
<!-- Node62&#45;&gt;Node63 -->
<g id="edge1" class="edge"><title>Node62&#45;&gt;Node63</title>
<path fill="none" stroke="midnightblue" d="M164.673,-82.7591C148.589,-87.9273 131.268,-93.4924 115.844,-98.4484"/>
<polygon fill="midnightblue" stroke="midnightblue" points="166.051,-85.9928 174.501,-79.6014 163.909,-79.3284 166.051,-85.9928"/>
</g>
<!-- Node64 -->
<g id="node3" class="node"><title>Node64</title>
<g id="a_node3"><a xlink:href="classopenage_1_1util_1_1fslike_1_1_f_s_like.xhtml#a2624d82034fe926a371f978b1d572f93" target="_top" xlink:title=" ">
<polygon fill="white" stroke="black" points="17.5,-49.5 17.5,-79.5 118.5,-79.5 118.5,-49.5 17.5,-49.5"/>
<text text-anchor="start" x="25.5" y="-67.5" font-family="Helvetica,sans-Serif" font-size="10.00">openage::util::fslike</text>
<text text-anchor="middle" x="68" y="-56.5" font-family="Helvetica,sans-Serif" font-size="10.00">::FSLike::resolve_w</text>
</a>
</g>
</g>
<!-- Node62&#45;&gt;Node64 -->
<g id="edge2" class="edge"><title>Node62&#45;&gt;Node64</title>
<path fill="none" stroke="midnightblue" d="M161.743,-64.5C147.435,-64.5 132.312,-64.5 118.525,-64.5"/>
<polygon fill="midnightblue" stroke="midnightblue" points="161.988,-68.0001 171.988,-64.5 161.988,-61.0001 161.988,-68.0001"/>
</g>
<!-- Node65 -->
<g id="node4" class="node"><title>Node65</title>
<g id="a_node4"><a xlink:href="classopenage_1_1util_1_1fslike_1_1abstract_1_1_f_s_like_object.xhtml#a255427aef3f55eea705114af7d7c107f" target="_top" xlink:title="Returns a new flattened path.">
<polygon fill="white" stroke="black" points="0,-0.5 0,-30.5 136,-30.5 136,-0.5 0,-0.5"/>
<text text-anchor="start" x="8" y="-18.5" font-family="Helvetica,sans-Serif" font-size="10.00">openage.util.fslike.abstract.</text>
<text text-anchor="middle" x="68" y="-7.5" font-family="Helvetica,sans-Serif" font-size="10.00">FSLikeObject.resolve_w</text>
</a>
</g>
</g>
<!-- Node62&#45;&gt;Node65 -->
<g id="edge3" class="edge"><title>Node62&#45;&gt;Node65</title>
<path fill="none" stroke="midnightblue" d="M164.673,-46.2409C148.589,-41.0727 131.268,-35.5076 115.844,-30.5516"/>
<polygon fill="midnightblue" stroke="midnightblue" points="163.909,-49.6716 174.501,-49.3986 166.051,-43.0072 163.909,-49.6716"/>
</g>
</g>
</svg>
