<?xml version="1.0" encoding="UTF-8" standalone="no"?>
<!DOCTYPE svg PUBLIC "-//W3C//DTD SVG 1.1//EN"
 "http://www.w3.org/Graphics/SVG/1.1/DTD/svg11.dtd">
<!-- Generated by graphviz version 2.38.0 (20140413.2041)
 -->
<!-- Title: openage::log::LogSink::set_loglevel Pages: 1 -->
<svg width="273pt" height="78pt"
 viewBox="0.00 0.00 273.00 77.50" xmlns="http://www.w3.org/2000/svg" xmlns:xlink="http://www.w3.org/1999/xlink">
<g id="graph0" class="graph" transform="scale(1 1) rotate(0) translate(4 73.5)">
<title>openage::log::LogSink::set_loglevel</title>
<polygon fill="white" stroke="none" points="-4,4 -4,-73.5 269,-73.5 269,4 -4,4"/>
<!-- Node28 -->
<g id="node1" class="node"><title>Node28</title>
<g id="a_node1"><a xlink:title=" ">
<polygon fill="#bfbfbf" stroke="black" points="152,-17 152,-47 265,-47 265,-17 152,-17"/>
<text text-anchor="start" x="160" y="-35" font-family="Helvetica,sans-Serif" font-size="10.00">openage::log::LogSink</text>
<text text-anchor="middle" x="208.5" y="-24" font-family="Helvetica,sans-Serif" font-size="10.00">::set_loglevel</text>
</a>
</g>
</g>
<!-- Node29 -->
<g id="node2" class="node"><title>Node29</title>
<g id="a_node2"><a xlink:href="classopenage_1_1log_1_1_log_sink.xhtml#aea8f646801e461e689465c769f63136c" target="_top" xlink:title=" ">
<polygon fill="white" stroke="black" points="1.5,-39 1.5,-69 114.5,-69 114.5,-39 1.5,-39"/>
<text text-anchor="start" x="9.5" y="-57" font-family="Helvetica,sans-Serif" font-size="10.00">openage::log::LogSink</text>
<text text-anchor="middle" x="58" y="-46" font-family="Helvetica,sans-Serif" font-size="10.00">::LogSink</text>
</a>
</g>
</g>
<!-- Node28&#45;&gt;Node29 -->
<g id="edge1" class="edge"><title>Node28&#45;&gt;Node29</title>
<path fill="none" stroke="midnightblue" d="M141.66,-41.7541C132.605,-43.0955 123.381,-44.462 114.537,-45.7723"/>
<polygon fill="midnightblue" stroke="midnightblue" points="142.402,-45.1824 151.782,-40.2546 141.377,-38.2579 142.402,-45.1824"/>
</g>
<!-- Node30 -->
<g id="node3" class="node"><title>Node30</title>
<g id="a_node3"><a xlink:href="namespaceopenage_1_1log.xhtml#ac8660073c35f9900e8c1169f2899b7d2" target="_top" xlink:title="Sets the log level of the global stdout sink.">
<polygon fill="white" stroke="black" points="0,-0.5 0,-19.5 116,-19.5 116,-0.5 0,-0.5"/>
<text text-anchor="middle" x="58" y="-7.5" font-family="Helvetica,sans-Serif" font-size="10.00">openage::log::set_level</text>
</a>
</g>
</g>
<!-- Node28&#45;&gt;Node30 -->
<g id="edge2" class="edge"><title>Node28&#45;&gt;Node30</title>
<path fill="none" stroke="midnightblue" d="M141.794,-22.2658C133.201,-20.9928 124.454,-19.6969 116.021,-18.4475"/>
<polygon fill="midnightblue" stroke="midnightblue" points="141.377,-25.7421 151.782,-23.7454 142.402,-18.8176 141.377,-25.7421"/>
</g>
</g>
</svg>
