<?xml version="1.0" encoding="UTF-8" standalone="no"?>
<!DOCTYPE svg PUBLIC "-//W3C//DTD SVG 1.1//EN"
 "http://www.w3.org/Graphics/SVG/1.1/DTD/svg11.dtd">
<!-- Generated by graphviz version 2.38.0 (20140413.2041)
 -->
<!-- Title: openage::pyinterface::PyIfFunc::PyIfFunc Pages: 1 -->
<!--zoomable 142 -->
<svg id="main" version="1.1" xmlns="http://www.w3.org/2000/svg" xmlns:xlink="http://www.w3.org/1999/xlink" xml:space="preserve" onload="init(evt)">
<style type="text/css"><![CDATA[
.edge:hover path { stroke: red; }
.edge:hover polygon { stroke: red; fill: red; }
]]></style>
<script type="text/javascript"><![CDATA[
var edges = document.getElementsByTagName('g');
if (edges && edges.length) {
  for (var i=0;i<edges.length;i++) {
    if (edges[i].id.substr(0,4)=='edge') {
      edges[i].setAttribute('class','edge');
    }
  }
}
]]></script>
        <defs>
                <circle id="rim" cx="0" cy="0" r="7"/>
                <circle id="rim2" cx="0" cy="0" r="3.5"/>
                <g id="zoomPlus">
                        <use xlink:href="#rim" fill="#404040">
                                <set attributeName="fill" to="#808080" begin="zoomplus.mouseover" end="zoomplus.mouseout"/>
                        </use>
                        <path d="M-4,0h8M0,-4v8" fill="none" stroke="white" stroke-width="1.5" pointer-events="none"/>
                </g>
                <g id="zoomMin">
                        <use xlink:href="#rim" fill="#404040">
                                <set attributeName="fill" to="#808080" begin="zoomminus.mouseover" end="zoomminus.mouseout"/>
                        </use>
                        <path d="M-4,0h8" fill="none" stroke="white" stroke-width="1.5" pointer-events="none"/>
                </g>
                <g id="dirArrow">
                        <path fill="none" stroke="white" stroke-width="1.5" d="M0,-3.0v7 M-2.5,-0.5L0,-3.0L2.5,-0.5"/>
                </g>
               <g id="resetDef">
                       <use xlink:href="#rim2" fill="#404040">
                               <set attributeName="fill" to="#808080" begin="reset.mouseover" end="reset.mouseout"/>
                       </use>
               </g>
        </defs>

<script type="text/javascript">
var viewWidth = 963;
var viewHeight = 142;
var sectionId = 'dynsection-2';
</script>
<script xlink:href="svgpan.js"/>
<svg id="graph" class="graph">
<g id="viewport">
<title>openage::pyinterface::PyIfFunc::PyIfFunc</title>
<polygon fill="white" stroke="none" points="-4,4 -4,-138 959,-138 959,4 -4,4"/>
<!-- Node0 -->
<g id="node1" class="node"><title>Node0</title>
<g id="a_node1"><a xlink:title=" ">
<polygon fill="#bfbfbf" stroke="black" points="0,-43 0,-73 107,-73 107,-43 0,-43"/>
<text text-anchor="start" x="8" y="-61" font-family="Helvetica,sans-Serif" font-size="10.00">openage::pyinterface</text>
<text text-anchor="middle" x="53.5" y="-50" font-family="Helvetica,sans-Serif" font-size="10.00">::PyIfFunc::PyIfFunc</text>
</a>
</g>
</g>
<!-- Node1 -->
<g id="node2" class="node"><title>Node1</title>
<g id="a_node2"><a xlink:href="namespaceopenage_1_1pyinterface.xhtml#a591d9bd55fa1f9904547f3f2dcb3796d" target="_top" xlink:title=" ">
<polygon fill="white" stroke="black" points="159.5,-71 159.5,-101 276.5,-101 276.5,-71 159.5,-71"/>
<text text-anchor="start" x="167.5" y="-89" font-family="Helvetica,sans-Serif" font-size="10.00">openage::pyinterface</text>
<text text-anchor="middle" x="218" y="-78" font-family="Helvetica,sans-Serif" font-size="10.00">::add_py_if_component</text>
</a>
</g>
</g>
<!-- Node0&#45;&gt;Node1 -->
<g id="edge1" class="edge"><title>Node0&#45;&gt;Node1</title>
<path fill="none" stroke="midnightblue" d="M107.259,-67.0908C120.682,-69.4037 135.293,-71.9213 149.346,-74.3427"/>
<polygon fill="midnightblue" stroke="midnightblue" points="149.006,-77.8356 159.455,-76.0845 150.194,-70.9372 149.006,-77.8356"/>
</g>
<!-- Node11 -->
<g id="node12" class="node"><title>Node11</title>
<g id="a_node12"><a xlink:href="classopenage_1_1pyinterface_1_1_func.xhtml#a83b9691db46167c2637c86f5a71cb40f" target="_top" xlink:title=" ">
<polygon fill="white" stroke="black" points="143,-10.5 143,-51.5 293,-51.5 293,-10.5 143,-10.5"/>
<text text-anchor="start" x="151" y="-39.5" font-family="Helvetica,sans-Serif" font-size="10.00">openage::pyinterface</text>
<text text-anchor="start" x="151" y="-28.5" font-family="Helvetica,sans-Serif" font-size="10.00">::Func&lt; ReturnType, ArgTypes</text>
<text text-anchor="middle" x="218" y="-17.5" font-family="Helvetica,sans-Serif" font-size="10.00"> ... &gt;::check_fptr</text>
</a>
</g>
</g>
<!-- Node0&#45;&gt;Node11 -->
<g id="edge13" class="edge"><title>Node0&#45;&gt;Node11</title>
<path fill="none" stroke="midnightblue" d="M107.259,-49.2339C115.541,-47.8578 124.275,-46.4066 133.052,-44.9484"/>
<polygon fill="midnightblue" stroke="midnightblue" points="133.665,-48.3945 142.956,-43.3027 132.518,-41.4892 133.665,-48.3945"/>
</g>
<!-- Node2 -->
<g id="node3" class="node"><title>Node2</title>
<g id="a_node3"><a xlink:href="namespaceopenage_1_1log.xhtml#a325b0901ddb3f2af36f93781b7dd9744" target="_top" xlink:title="error message">
<polygon fill="white" stroke="black" points="357,-114.5 357,-133.5 440,-133.5 440,-114.5 357,-114.5"/>
<text text-anchor="middle" x="398.5" y="-121.5" font-family="Helvetica,sans-Serif" font-size="10.00">openage.log.err</text>
</a>
</g>
</g>
<!-- Node1&#45;&gt;Node2 -->
<g id="edge2" class="edge"><title>Node1&#45;&gt;Node2</title>
<path fill="none" stroke="midnightblue" d="M276.954,-98.3375C299.451,-103.127 324.987,-108.563 346.745,-113.195"/>
<polygon fill="midnightblue" stroke="midnightblue" points="346.263,-116.671 356.772,-115.33 347.72,-109.824 346.263,-116.671"/>
</g>
<!-- Node3 -->
<g id="node4" class="node"><title>Node3</title>
<g id="a_node4"><a xlink:href="namespaceopenage_1_1util.xhtml#ae411a50a0e24d32ab564979b2df6ed24" target="_top" xlink:title=" ">
<polygon fill="white" stroke="black" points="337.5,-76.5 337.5,-95.5 459.5,-95.5 459.5,-76.5 337.5,-76.5"/>
<text text-anchor="middle" x="398.5" y="-83.5" font-family="Helvetica,sans-Serif" font-size="10.00">openage::util::is_symbol</text>
</a>
</g>
</g>
<!-- Node1&#45;&gt;Node3 -->
<g id="edge3" class="edge"><title>Node1&#45;&gt;Node3</title>
<path fill="none" stroke="midnightblue" d="M276.954,-86C292.971,-86 310.528,-86 327.166,-86"/>
<polygon fill="midnightblue" stroke="midnightblue" points="327.385,-89.5001 337.385,-86 327.385,-82.5001 327.385,-89.5001"/>
</g>
<!-- Node4 -->
<g id="node5" class="node"><title>Node4</title>
<g id="a_node5"><a xlink:href="namespaceopenage_1_1util.xhtml#ac6219374623d05b075782ea1adb09c0c" target="_top" xlink:title=" ">
<polygon fill="white" stroke="black" points="329,-38.5 329,-57.5 468,-57.5 468,-38.5 329,-38.5"/>
<text text-anchor="middle" x="398.5" y="-45.5" font-family="Helvetica,sans-Serif" font-size="10.00">openage::util::symbol_name</text>
</a>
</g>
</g>
<!-- Node1&#45;&gt;Node4 -->
<g id="edge4" class="edge"><title>Node1&#45;&gt;Node4</title>
<path fill="none" stroke="midnightblue" d="M276.954,-73.6625C298.125,-69.1555 321.986,-64.0759 342.858,-59.6324"/>
<polygon fill="midnightblue" stroke="midnightblue" points="343.788,-63.013 352.84,-57.5074 342.331,-56.1664 343.788,-63.013"/>
</g>
<!-- Node5 -->
<g id="node6" class="node"><title>Node5</title>
<g id="a_node6"><a xlink:href="namespaceopenage_1_1util.xhtml#abe26c67b0463cb53c33b0659ebb89370" target="_top" xlink:title=" ">
<polygon fill="white" stroke="black" points="515.5,-77 515.5,-107 612.5,-107 612.5,-77 515.5,-77"/>
<text text-anchor="start" x="523.5" y="-95" font-family="Helvetica,sans-Serif" font-size="10.00">openage::util::addr</text>
<text text-anchor="middle" x="564" y="-84" font-family="Helvetica,sans-Serif" font-size="10.00">_to_string</text>
</a>
</g>
</g>
<!-- Node4&#45;&gt;Node5 -->
<g id="edge5" class="edge"><title>Node4&#45;&gt;Node5</title>
<path fill="none" stroke="midnightblue" d="M434.977,-57.5473C455.604,-63.0983 482.092,-70.2265 505.616,-76.5573"/>
<polygon fill="midnightblue" stroke="midnightblue" points="504.925,-79.9957 515.491,-79.2147 506.744,-73.2362 504.925,-79.9957"/>
</g>
<!-- Node6 -->
<g id="node7" class="node"><title>Node6</title>
<g id="a_node7"><a xlink:href="namespaceopenage_1_1util.xhtml#a5546877ed3bcad568ab21989a40ec088" target="_top" xlink:title=" ">
<polygon fill="white" stroke="black" points="677.5,-60.5 677.5,-79.5 787.5,-79.5 787.5,-60.5 677.5,-60.5"/>
<text text-anchor="middle" x="732.5" y="-67.5" font-family="Helvetica,sans-Serif" font-size="10.00">openage::util::sformat</text>
</a>
</g>
</g>
<!-- Node4&#45;&gt;Node6 -->
<g id="edge12" class="edge"><title>Node4&#45;&gt;Node6</title>
<path fill="none" stroke="midnightblue" d="M468.291,-52.5584C526.791,-56.4349 610.16,-61.9594 667.306,-65.7462"/>
<polygon fill="midnightblue" stroke="midnightblue" points="667.096,-69.2398 677.305,-66.4088 667.559,-62.2551 667.096,-69.2398"/>
</g>
<!-- Node8 -->
<g id="node9" class="node"><title>Node8</title>
<g id="a_node9"><a xlink:href="namespaceopenage_1_1util.xhtml#aebed129b2a0773520cdd8d40b0f70318" target="_top" xlink:title=" ">
<polygon fill="white" stroke="black" points="504,-0.5 504,-19.5 624,-19.5 624,-0.5 504,-0.5"/>
<text text-anchor="middle" x="564" y="-7.5" font-family="Helvetica,sans-Serif" font-size="10.00">openage::util::demangle</text>
</a>
</g>
</g>
<!-- Node4&#45;&gt;Node8 -->
<g id="edge8" class="edge"><title>Node4&#45;&gt;Node8</title>
<path fill="none" stroke="midnightblue" d="M440.758,-38.411C462.431,-33.3739 489.183,-27.1562 512.13,-21.8229"/>
<polygon fill="midnightblue" stroke="midnightblue" points="513.091,-25.1931 522.039,-19.5201 511.506,-18.3748 513.091,-25.1931"/>
</g>
<!-- Node5&#45;&gt;Node6 -->
<g id="edge6" class="edge"><title>Node5&#45;&gt;Node6</title>
<path fill="none" stroke="midnightblue" d="M612.712,-85.6957C629.739,-83.4459 649.207,-80.8735 667.388,-78.4712"/>
<polygon fill="midnightblue" stroke="midnightblue" points="667.877,-81.9371 677.333,-77.1573 666.96,-74.9974 667.877,-81.9371"/>
</g>
<!-- Node7 -->
<g id="node8" class="node"><title>Node7</title>
<g id="a_node8"><a xlink:href="namespaceopenage_1_1util.xhtml#a042594ac67e652c429fba1eeb1bec6fa" target="_top" xlink:title=" ">
<polygon fill="white" stroke="black" points="841,-60.5 841,-79.5 955,-79.5 955,-60.5 841,-60.5"/>
<text text-anchor="middle" x="898" y="-67.5" font-family="Helvetica,sans-Serif" font-size="10.00">openage::util::vsformat</text>
</a>
</g>
</g>
<!-- Node6&#45;&gt;Node7 -->
<g id="edge7" class="edge"><title>Node6&#45;&gt;Node7</title>
<path fill="none" stroke="midnightblue" d="M787.943,-70C801.623,-70 816.455,-70 830.645,-70"/>
<polygon fill="midnightblue" stroke="midnightblue" points="830.838,-73.5001 840.838,-70 830.838,-66.5001 830.838,-73.5001"/>
</g>
<!-- Node9 -->
<g id="node10" class="node"><title>Node9</title>
<g id="a_node10"><a xlink:href="namespaceopenage_1_1testing_1_1testing.xhtml#ac25bf81db406af62d08113ef7ae9fd6e" target="_top" xlink:title=" ">
<polygon fill="white" stroke="black" points="660,-0.5 660,-19.5 805,-19.5 805,-0.5 660,-0.5"/>
<text text-anchor="middle" x="732.5" y="-7.5" font-family="Helvetica,sans-Serif" font-size="10.00">openage.testing.testing.result</text>
</a>
</g>
</g>
<!-- Node8&#45;&gt;Node9 -->
<g id="edge9" class="edge"><title>Node8&#45;&gt;Node9</title>
<path fill="none" stroke="midnightblue" d="M624.17,-10C632.501,-10 641.184,-10 649.843,-10"/>
<polygon fill="midnightblue" stroke="midnightblue" points="649.976,-13.5001 659.976,-10 649.976,-6.5001 649.976,-13.5001"/>
</g>
<!-- Node10 -->
<g id="node11" class="node"><title>Node10</title>
<g id="a_node11"><a xlink:href="namespaceopenage_1_1util.xhtml#a7bc4421a5f0f57f3a0aba3f96eb8d19c" target="_top" xlink:title=" ">
<polygon fill="white" stroke="black" points="850.5,-0.5 850.5,-19.5 945.5,-19.5 945.5,-0.5 850.5,-0.5"/>
<text text-anchor="middle" x="898" y="-7.5" font-family="Helvetica,sans-Serif" font-size="10.00">openage::util::repr</text>
</a>
</g>
</g>
<!-- Node9&#45;&gt;Node10 -->
<g id="edge10" class="edge"><title>Node9&#45;&gt;Node10</title>
<path fill="none" stroke="midnightblue" d="M805.213,-3.29542C816.907,-3.18911 828.878,-3.26943 840.151,-3.53638"/>
<polygon fill="midnightblue" stroke="midnightblue" points="840.181,-7.03867 850.279,-3.83401 840.386,-0.0416928 840.181,-7.03867"/>
</g>
<!-- Node10&#45;&gt;Node9 -->
<g id="edge11" class="edge"><title>Node10&#45;&gt;Node9</title>
<path fill="none" stroke="midnightblue" d="M850.279,-16.166C839.306,-16.555 827.294,-16.7497 815.282,-16.75"/>
<polygon fill="midnightblue" stroke="midnightblue" points="815.229,-13.2498 805.213,-16.7046 815.198,-20.2498 815.229,-13.2498"/>
</g>
</g>
</svg>
        <g id="navigator" transform="translate(0 0)" fill="#404254">
                <rect fill="#f2f5e9" fill-opacity="0.5" stroke="#606060" stroke-width=".5" x="0" y="0" width="60" height="60"/>
                <use id="zoomplus" xlink:href="#zoomPlus" x="17" y="9" onmousedown="handleZoom(evt,'in')"/>
                <use id="zoomminus" xlink:href="#zoomMin" x="42" y="9" onmousedown="handleZoom(evt,'out')"/>
                <use id="reset" xlink:href="#resetDef" x="30" y="36" onmousedown="handleReset()"/>
                <g id="arrowUp" xlink:href="#dirArrow" transform="translate(30 24)" onmousedown="handlePan(0,-1)">
                  <use xlink:href="#rim" fill="#404040">
                        <set attributeName="fill" to="#808080" begin="arrowUp.mouseover" end="arrowUp.mouseout"/>
                  </use>
                  <path fill="none" stroke="white" stroke-width="1.5" d="M0,-3.0v7 M-2.5,-0.5L0,-3.0L2.5,-0.5"/>
                </g>
                <g id="arrowRight" xlink:href="#dirArrow" transform="rotate(90) translate(36 -43)" onmousedown="handlePan(1,0)">
                  <use xlink:href="#rim" fill="#404040">
                        <set attributeName="fill" to="#808080" begin="arrowRight.mouseover" end="arrowRight.mouseout"/>
                  </use>
                  <path fill="none" stroke="white" stroke-width="1.5" d="M0,-3.0v7 M-2.5,-0.5L0,-3.0L2.5,-0.5"/>
                </g>
                <g id="arrowDown" xlink:href="#dirArrow" transform="rotate(180) translate(-30 -48)" onmousedown="handlePan(0,1)">
                  <use xlink:href="#rim" fill="#404040">
                        <set attributeName="fill" to="#808080" begin="arrowDown.mouseover" end="arrowDown.mouseout"/>
                  </use>
                  <path fill="none" stroke="white" stroke-width="1.5" d="M0,-3.0v7 M-2.5,-0.5L0,-3.0L2.5,-0.5"/>
                </g>
                <g id="arrowLeft" xlink:href="#dirArrow" transform="rotate(270) translate(-36 17)" onmousedown="handlePan(-1,0)">
                  <use xlink:href="#rim" fill="#404040">
                        <set attributeName="fill" to="#808080" begin="arrowLeft.mouseover" end="arrowLeft.mouseout"/>
                  </use>
                  <path fill="none" stroke="white" stroke-width="1.5" d="M0,-3.0v7 M-2.5,-0.5L0,-3.0L2.5,-0.5"/>
                </g>
        </g>
        <svg viewBox="0 0 15 15" width="100%" height="30px" preserveAspectRatio="xMaxYMin meet">
         <g id="arrow_out" transform="scale(0.3 0.3)">
          <a xlink:href="classopenage_1_1pyinterface_1_1_py_if_func_a151c2faee8d91169645204f1eb3a6a22_cgraph_org.svg" target="_base">
           <rect id="button" ry="5" rx="5" y="6" x="6" height="38" width="38"
                fill="#f2f5e9" fill-opacity="0.5" stroke="#606060" stroke-width="1.0"/>
           <path id="arrow"
             d="M 11.500037,31.436501 C 11.940474,20.09759 22.043105,11.32322 32.158766,21.979434 L 37.068811,17.246167 C 37.068811,17.246167 37.088388,32 37.088388,32 L 22.160133,31.978069 C 22.160133,31.978069 26.997745,27.140456 26.997745,27.140456 C 18.528582,18.264221 13.291696,25.230495 11.500037,31.436501 z"
             style="fill:#404040;"/>
          </a>
         </g>
        </svg>
</svg>
