<?xml version="1.0" encoding="UTF-8" standalone="no"?>
<!DOCTYPE svg PUBLIC "-//W3C//DTD SVG 1.1//EN"
 "http://www.w3.org/Graphics/SVG/1.1/DTD/svg11.dtd">
<!-- Generated by graphviz version 2.38.0 (20140413.2041)
 -->
<!-- Title: qtsdl::GuiRenderingCtxActivator Pages: 1 -->
<svg width="203pt" height="281pt"
 viewBox="0.00 0.00 203.00 281.00" xmlns="http://www.w3.org/2000/svg" xmlns:xlink="http://www.w3.org/1999/xlink">
<g id="graph0" class="graph" transform="scale(1 1) rotate(0) translate(4 277)">
<title>qtsdl::GuiRenderingCtxActivator</title>
<polygon fill="white" stroke="none" points="-4,4 -4,-277 199,-277 199,4 -4,4"/>
<!-- Node1 -->
<g id="node1" class="node"><title>Node1</title>
<g id="a_node1"><a xlink:title=" ">
<polygon fill="#bfbfbf" stroke="black" points="2.5,-0.5 2.5,-112.5 157.5,-112.5 157.5,-0.5 2.5,-0.5"/>
<text text-anchor="middle" x="80" y="-100.5" font-family="Helvetica,sans-Serif" font-size="10.00">qtsdl::GuiRenderingCtxActivator</text>
<polyline fill="none" stroke="black" points="2.5,-93.5 157.5,-93.5 "/>
<text text-anchor="middle" x="80" y="-81.5" font-family="Helvetica,sans-Serif" font-size="10.00"> </text>
<polyline fill="none" stroke="black" points="2.5,-74.5 157.5,-74.5 "/>
<text text-anchor="start" x="10.5" y="-62.5" font-family="Helvetica,sans-Serif" font-size="10.00">+ GuiRenderingCtxActivator()</text>
<text text-anchor="start" x="10.5" y="-51.5" font-family="Helvetica,sans-Serif" font-size="10.00">+ ~GuiRenderingCtxActivator()</text>
<text text-anchor="start" x="10.5" y="-40.5" font-family="Helvetica,sans-Serif" font-size="10.00">+ GuiRenderingCtxActivator()</text>
<text text-anchor="start" x="10.5" y="-29.5" font-family="Helvetica,sans-Serif" font-size="10.00">+ operator=()</text>
<text text-anchor="start" x="10.5" y="-18.5" font-family="Helvetica,sans-Serif" font-size="10.00">&#45; GuiRenderingCtxActivator()</text>
<text text-anchor="start" x="10.5" y="-7.5" font-family="Helvetica,sans-Serif" font-size="10.00">&#45; operator=()</text>
</a>
</g>
</g>
<!-- Node2 -->
<g id="node2" class="node"><title>Node2</title>
<g id="a_node2"><a xlink:href="classqtsdl_1_1_gui_rendering_setup_routines.xhtml" target="_top" xlink:title=" ">
<polygon fill="white" stroke="black" points="0,-160.5 0,-272.5 160,-272.5 160,-160.5 0,-160.5"/>
<text text-anchor="start" x="8" y="-260.5" font-family="Helvetica,sans-Serif" font-size="10.00">qtsdl::GuiRenderingSetup</text>
<text text-anchor="middle" x="80" y="-249.5" font-family="Helvetica,sans-Serif" font-size="10.00">Routines</text>
<polyline fill="none" stroke="black" points="0,-242.5 160,-242.5 "/>
<text text-anchor="start" x="8" y="-230.5" font-family="Helvetica,sans-Serif" font-size="10.00">&#45; ctx_extraction_mode</text>
<polyline fill="none" stroke="black" points="0,-223.5 160,-223.5 "/>
<text text-anchor="start" x="8" y="-211.5" font-family="Helvetica,sans-Serif" font-size="10.00">+ GuiRenderingSetupRoutines()</text>
<text text-anchor="start" x="8" y="-200.5" font-family="Helvetica,sans-Serif" font-size="10.00">+ ~GuiRenderingSetupRoutines()</text>
<text text-anchor="start" x="8" y="-189.5" font-family="Helvetica,sans-Serif" font-size="10.00">+ get_ctx()</text>
<text text-anchor="start" x="8" y="-178.5" font-family="Helvetica,sans-Serif" font-size="10.00">&#45; pre_render()</text>
<text text-anchor="start" x="8" y="-167.5" font-family="Helvetica,sans-Serif" font-size="10.00">&#45; post_render()</text>
</a>
</g>
</g>
<!-- Node2&#45;&gt;Node1 -->
<g id="edge1" class="edge"><title>Node2&#45;&gt;Node1</title>
<path fill="none" stroke="#404040" d="M80,-160.239C80,-148.813 80,-136.657 80,-124.855"/>
<polygon fill="none" stroke="#404040" points="80.0001,-124.73 76,-118.73 80,-112.73 84,-118.729 80.0001,-124.73"/>
<text text-anchor="middle" x="137.5" y="-134" font-family="Helvetica,sans-Serif" font-size="10.00"> &#45;rendering_setup_routines</text>
</g>
</g>
</svg>
