<?xml version="1.0" encoding="UTF-8" standalone="no"?>
<!DOCTYPE svg PUBLIC "-//W3C//DTD SVG 1.1//EN"
 "http://www.w3.org/Graphics/SVG/1.1/DTD/svg11.dtd">
<!-- Generated by graphviz version 2.38.0 (20140413.2041)
 -->
<!-- Title: openage::TerrainObject::from_edge Pages: 1 -->
<!--zoomable 112 -->
<svg id="main" version="1.1" xmlns="http://www.w3.org/2000/svg" xmlns:xlink="http://www.w3.org/1999/xlink" xml:space="preserve" onload="init(evt)">
<style type="text/css"><![CDATA[
.edge:hover path { stroke: red; }
.edge:hover polygon { stroke: red; fill: red; }
]]></style>
<script type="text/javascript"><![CDATA[
var edges = document.getElementsByTagName('g');
if (edges && edges.length) {
  for (var i=0;i<edges.length;i++) {
    if (edges[i].id.substr(0,4)=='edge') {
      edges[i].setAttribute('class','edge');
    }
  }
}
]]></script>
        <defs>
                <circle id="rim" cx="0" cy="0" r="7"/>
                <circle id="rim2" cx="0" cy="0" r="3.5"/>
                <g id="zoomPlus">
                        <use xlink:href="#rim" fill="#404040">
                                <set attributeName="fill" to="#808080" begin="zoomplus.mouseover" end="zoomplus.mouseout"/>
                        </use>
                        <path d="M-4,0h8M0,-4v8" fill="none" stroke="white" stroke-width="1.5" pointer-events="none"/>
                </g>
                <g id="zoomMin">
                        <use xlink:href="#rim" fill="#404040">
                                <set attributeName="fill" to="#808080" begin="zoomminus.mouseover" end="zoomminus.mouseout"/>
                        </use>
                        <path d="M-4,0h8" fill="none" stroke="white" stroke-width="1.5" pointer-events="none"/>
                </g>
                <g id="dirArrow">
                        <path fill="none" stroke="white" stroke-width="1.5" d="M0,-3.0v7 M-2.5,-0.5L0,-3.0L2.5,-0.5"/>
                </g>
               <g id="resetDef">
                       <use xlink:href="#rim2" fill="#404040">
                               <set attributeName="fill" to="#808080" begin="reset.mouseover" end="reset.mouseout"/>
                       </use>
               </g>
        </defs>

<script type="text/javascript">
var viewWidth = 577;
var viewHeight = 112;
var sectionId = 'dynsection-6';
</script>
<script xlink:href="svgpan.js"/>
<svg id="graph" class="graph">
<g id="viewport">
<title>openage::TerrainObject::from_edge</title>
<polygon fill="white" stroke="none" points="-4,4 -4,-108 573,-108 573,4 -4,4"/>
<!-- Node35 -->
<g id="node1" class="node"><title>Node35</title>
<g id="a_node1"><a xlink:title="how far is a point from the edge of this object">
<polygon fill="#bfbfbf" stroke="black" points="452,-48.5 452,-78.5 569,-78.5 569,-48.5 452,-48.5"/>
<text text-anchor="start" x="460" y="-66.5" font-family="Helvetica,sans-Serif" font-size="10.00">openage::TerrainObject</text>
<text text-anchor="middle" x="510.5" y="-55.5" font-family="Helvetica,sans-Serif" font-size="10.00">::from_edge</text>
</a>
</g>
</g>
<!-- Node36 -->
<g id="node2" class="node"><title>Node36</title>
<g id="a_node2"><a xlink:href="namespaceopenage_1_1path.xhtml#a047e97b9a81a866f064ad6d6f8dddfd6" target="_top" xlink:title="path between 2 objects, with how close to come to end point">
<polygon fill="white" stroke="black" points="292,-54 292,-73 416,-73 416,-54 292,-54"/>
<text text-anchor="middle" x="354" y="-61" font-family="Helvetica,sans-Serif" font-size="10.00">openage::path::to_object</text>
</a>
</g>
</g>
<!-- Node35&#45;&gt;Node36 -->
<g id="edge1" class="edge"><title>Node35&#45;&gt;Node36</title>
<path fill="none" stroke="midnightblue" d="M441.718,-63.5C433.228,-63.5 424.583,-63.5 416.201,-63.5"/>
<polygon fill="midnightblue" stroke="midnightblue" points="441.97,-67.0001 451.97,-63.5 441.97,-60.0001 441.97,-67.0001"/>
</g>
<!-- Node37 -->
<g id="node3" class="node"><title>Node37</title>
<g id="a_node3"><a xlink:href="classopenage_1_1_idle_action.xhtml#a90d182b9575459830744488f776a2f4e" target="_top" xlink:title="each action has its own update functionality which gets called when this is the active action">
<polygon fill="white" stroke="black" points="150,-73.5 150,-103.5 252,-103.5 252,-73.5 150,-73.5"/>
<text text-anchor="start" x="158" y="-91.5" font-family="Helvetica,sans-Serif" font-size="10.00">openage::IdleAction</text>
<text text-anchor="middle" x="201" y="-80.5" font-family="Helvetica,sans-Serif" font-size="10.00">::update</text>
</a>
</g>
</g>
<!-- Node36&#45;&gt;Node37 -->
<g id="edge2" class="edge"><title>Node36&#45;&gt;Node37</title>
<path fill="none" stroke="midnightblue" d="M285.4,-74.692C274.321,-76.5263 263.013,-78.3986 252.443,-80.1485"/>
<polygon fill="midnightblue" stroke="midnightblue" points="286.189,-78.1092 295.483,-73.0227 285.045,-71.2032 286.189,-78.1092"/>
</g>
<!-- Node38 -->
<g id="node4" class="node"><title>Node38</title>
<g id="a_node4"><a xlink:href="classopenage_1_1_move_action.xhtml#a4e56fc82672dfaf3c62f846afbd6df69" target="_top" xlink:title="use a star to find a path to target">
<polygon fill="white" stroke="black" points="146,-24.5 146,-54.5 256,-54.5 256,-24.5 146,-24.5"/>
<text text-anchor="start" x="154" y="-42.5" font-family="Helvetica,sans-Serif" font-size="10.00">openage::MoveAction</text>
<text text-anchor="middle" x="201" y="-31.5" font-family="Helvetica,sans-Serif" font-size="10.00">::set_path</text>
</a>
</g>
</g>
<!-- Node36&#45;&gt;Node38 -->
<g id="edge3" class="edge"><title>Node36&#45;&gt;Node38</title>
<path fill="none" stroke="midnightblue" d="M282.804,-52.3431C273.812,-50.9138 264.719,-49.4685 256.038,-48.0888"/>
<polygon fill="midnightblue" stroke="midnightblue" points="282.461,-55.8324 292.887,-53.9456 283.56,-48.9192 282.461,-55.8324"/>
</g>
<!-- Node39 -->
<g id="node5" class="node"><title>Node39</title>
<g id="a_node5"><a xlink:href="classopenage_1_1_move_action.xhtml#a1b34ceffe821a5ef2afd3c3fc08ae3d1" target="_top" xlink:title=" ">
<polygon fill="white" stroke="black" points="0,-49.5 0,-79.5 110,-79.5 110,-49.5 0,-49.5"/>
<text text-anchor="start" x="8" y="-67.5" font-family="Helvetica,sans-Serif" font-size="10.00">openage::MoveAction</text>
<text text-anchor="middle" x="55" y="-56.5" font-family="Helvetica,sans-Serif" font-size="10.00">::initialise</text>
</a>
</g>
</g>
<!-- Node38&#45;&gt;Node39 -->
<g id="edge4" class="edge"><title>Node38&#45;&gt;Node39</title>
<path fill="none" stroke="midnightblue" d="M136.009,-50.6095C127.439,-52.0974 118.716,-53.6119 110.333,-55.0672"/>
<polygon fill="midnightblue" stroke="midnightblue" points="136.716,-54.0392 145.97,-48.8802 135.519,-47.1424 136.716,-54.0392"/>
</g>
<!-- Node40 -->
<g id="node6" class="node"><title>Node40</title>
<g id="a_node6"><a xlink:href="classopenage_1_1_move_action.xhtml#afa4e4983c00b0207af76c7b717e81a05" target="_top" xlink:title="each action has its own update functionality which gets called when this is the active action">
<polygon fill="white" stroke="black" points="0,-0.5 0,-30.5 110,-30.5 110,-0.5 0,-0.5"/>
<text text-anchor="start" x="8" y="-18.5" font-family="Helvetica,sans-Serif" font-size="10.00">openage::MoveAction</text>
<text text-anchor="middle" x="55" y="-7.5" font-family="Helvetica,sans-Serif" font-size="10.00">::update</text>
</a>
</g>
</g>
<!-- Node38&#45;&gt;Node40 -->
<g id="edge5" class="edge"><title>Node38&#45;&gt;Node40</title>
<path fill="none" stroke="midnightblue" d="M136.009,-28.8349C127.439,-27.4065 118.716,-25.9526 110.333,-24.5555"/>
<polygon fill="midnightblue" stroke="midnightblue" points="135.531,-32.3033 145.97,-30.495 136.682,-25.3986 135.531,-32.3033"/>
</g>
</g>
</svg>
        <g id="navigator" transform="translate(0 0)" fill="#404254">
                <rect fill="#f2f5e9" fill-opacity="0.5" stroke="#606060" stroke-width=".5" x="0" y="0" width="60" height="60"/>
                <use id="zoomplus" xlink:href="#zoomPlus" x="17" y="9" onmousedown="handleZoom(evt,'in')"/>
                <use id="zoomminus" xlink:href="#zoomMin" x="42" y="9" onmousedown="handleZoom(evt,'out')"/>
                <use id="reset" xlink:href="#resetDef" x="30" y="36" onmousedown="handleReset()"/>
                <g id="arrowUp" xlink:href="#dirArrow" transform="translate(30 24)" onmousedown="handlePan(0,-1)">
                  <use xlink:href="#rim" fill="#404040">
                        <set attributeName="fill" to="#808080" begin="arrowUp.mouseover" end="arrowUp.mouseout"/>
                  </use>
                  <path fill="none" stroke="white" stroke-width="1.5" d="M0,-3.0v7 M-2.5,-0.5L0,-3.0L2.5,-0.5"/>
                </g>
                <g id="arrowRight" xlink:href="#dirArrow" transform="rotate(90) translate(36 -43)" onmousedown="handlePan(1,0)">
                  <use xlink:href="#rim" fill="#404040">
                        <set attributeName="fill" to="#808080" begin="arrowRight.mouseover" end="arrowRight.mouseout"/>
                  </use>
                  <path fill="none" stroke="white" stroke-width="1.5" d="M0,-3.0v7 M-2.5,-0.5L0,-3.0L2.5,-0.5"/>
                </g>
                <g id="arrowDown" xlink:href="#dirArrow" transform="rotate(180) translate(-30 -48)" onmousedown="handlePan(0,1)">
                  <use xlink:href="#rim" fill="#404040">
                        <set attributeName="fill" to="#808080" begin="arrowDown.mouseover" end="arrowDown.mouseout"/>
                  </use>
                  <path fill="none" stroke="white" stroke-width="1.5" d="M0,-3.0v7 M-2.5,-0.5L0,-3.0L2.5,-0.5"/>
                </g>
                <g id="arrowLeft" xlink:href="#dirArrow" transform="rotate(270) translate(-36 17)" onmousedown="handlePan(-1,0)">
                  <use xlink:href="#rim" fill="#404040">
                        <set attributeName="fill" to="#808080" begin="arrowLeft.mouseover" end="arrowLeft.mouseout"/>
                  </use>
                  <path fill="none" stroke="white" stroke-width="1.5" d="M0,-3.0v7 M-2.5,-0.5L0,-3.0L2.5,-0.5"/>
                </g>
        </g>
        <svg viewBox="0 0 15 15" width="100%" height="30px" preserveAspectRatio="xMaxYMin meet">
         <g id="arrow_out" transform="scale(0.3 0.3)">
          <a xlink:href="classopenage_1_1_terrain_object_a6ef3514689565c74e503570d0ba7adbb_icgraph_org.svg" target="_base">
           <rect id="button" ry="5" rx="5" y="6" x="6" height="38" width="38"
                fill="#f2f5e9" fill-opacity="0.5" stroke="#606060" stroke-width="1.0"/>
           <path id="arrow"
             d="M 11.500037,31.436501 C 11.940474,20.09759 22.043105,11.32322 32.158766,21.979434 L 37.068811,17.246167 C 37.068811,17.246167 37.088388,32 37.088388,32 L 22.160133,31.978069 C 22.160133,31.978069 26.997745,27.140456 26.997745,27.140456 C 18.528582,18.264221 13.291696,25.230495 11.500037,31.436501 z"
             style="fill:#404040;"/>
          </a>
         </g>
        </svg>
</svg>
