<?xml version="1.0" encoding="UTF-8" standalone="no"?>
<!DOCTYPE svg PUBLIC "-//W3C//DTD SVG 1.1//EN"
 "http://www.w3.org/Graphics/SVG/1.1/DTD/svg11.dtd">
<!-- Generated by graphviz version 2.38.0 (20140413.2041)
 -->
<!-- Title: openage::renderer::opengl::GlContext::GlContext Pages: 1 -->
<svg width="671pt" height="248pt"
 viewBox="0.00 0.00 671.00 248.00" xmlns="http://www.w3.org/2000/svg" xmlns:xlink="http://www.w3.org/1999/xlink">
<g id="graph0" class="graph" transform="scale(1 1) rotate(0) translate(4 244)">
<title>openage::renderer::opengl::GlContext::GlContext</title>
<polygon fill="white" stroke="none" points="-4,4 -4,-244 667,-244 667,4 -4,4"/>
<!-- Node0 -->
<g id="node1" class="node"><title>Node0</title>
<g id="a_node1"><a xlink:title="Create a GL context in the given SDL window.">
<polygon fill="#bfbfbf" stroke="black" points="0,-133 0,-163 144,-163 144,-133 0,-133"/>
<text text-anchor="start" x="8" y="-151" font-family="Helvetica,sans-Serif" font-size="10.00">openage::renderer::</text>
<text text-anchor="middle" x="72" y="-140" font-family="Helvetica,sans-Serif" font-size="10.00">opengl::GlContext::GlContext</text>
</a>
</g>
</g>
<!-- Node1 -->
<g id="node2" class="node"><title>Node1</title>
<g id="a_node2"><a xlink:href="namespaceopenage_1_1log.xhtml#aad3d76b2466dbc4f81552935f2d84faa" target="_top" xlink:title="debug message">
<polygon fill="white" stroke="black" points="196,-220.5 196,-239.5 284,-239.5 284,-220.5 196,-220.5"/>
<text text-anchor="middle" x="240" y="-227.5" font-family="Helvetica,sans-Serif" font-size="10.00">openage.log.dbg</text>
</a>
</g>
</g>
<!-- Node0&#45;&gt;Node1 -->
<g id="edge1" class="edge"><title>Node0&#45;&gt;Node1</title>
<path fill="none" stroke="midnightblue" d="M98.9669,-163.123C120.382,-175.339 151.727,-192.637 180,-206 187.747,-209.662 196.211,-213.306 204.246,-216.607"/>
<polygon fill="midnightblue" stroke="midnightblue" points="203.176,-219.95 213.759,-220.443 205.794,-213.457 203.176,-219.95"/>
</g>
<!-- Node2 -->
<g id="node3" class="node"><title>Node2</title>
<g id="a_node3"><a xlink:href="namespaceopenage_1_1log.xhtml#a325b0901ddb3f2af36f93781b7dd9744" target="_top" xlink:title="error message">
<polygon fill="white" stroke="black" points="366,-151.5 366,-170.5 449,-170.5 449,-151.5 366,-151.5"/>
<text text-anchor="middle" x="407.5" y="-158.5" font-family="Helvetica,sans-Serif" font-size="10.00">openage.log.err</text>
</a>
</g>
</g>
<!-- Node0&#45;&gt;Node2 -->
<g id="edge2" class="edge"><title>Node0&#45;&gt;Node2</title>
<path fill="none" stroke="midnightblue" d="M126.461,-163.028C143.435,-167.114 162.375,-170.968 180,-173 240.19,-179.938 309.848,-174.201 355.85,-168.519"/>
<polygon fill="midnightblue" stroke="midnightblue" points="356.393,-171.979 365.867,-167.237 355.504,-165.035 356.393,-171.979"/>
</g>
<!-- Node3 -->
<g id="node4" class="node"><title>Node3</title>
<g id="a_node4"><a xlink:href="namespaceopenage_1_1renderer_1_1opengl.xhtml#a9c2d5be08671cd8ffbd6c4ce668f1007" target="_top" xlink:title="Finds out the supported graphics functions and OpenGL version of the device.">
<polygon fill="white" stroke="black" points="180,-133 180,-163 300,-163 300,-133 180,-133"/>
<text text-anchor="start" x="188" y="-151" font-family="Helvetica,sans-Serif" font-size="10.00">openage::renderer::</text>
<text text-anchor="middle" x="240" y="-140" font-family="Helvetica,sans-Serif" font-size="10.00">opengl::find_capabilities</text>
</a>
</g>
</g>
<!-- Node0&#45;&gt;Node3 -->
<g id="edge3" class="edge"><title>Node0&#45;&gt;Node3</title>
<path fill="none" stroke="midnightblue" d="M144.362,-148C152.796,-148 161.394,-148 169.797,-148"/>
<polygon fill="midnightblue" stroke="midnightblue" points="169.927,-151.5 179.927,-148 169.927,-144.5 169.927,-151.5"/>
</g>
<!-- Node4 -->
<g id="node5" class="node"><title>Node4</title>
<g id="a_node5"><a xlink:href="namespaceopenage_1_1log.xhtml#a3f1815b698faf5786fc5e20bcac7704b" target="_top" xlink:title="info message">
<polygon fill="white" stroke="black" points="196.5,-94.5 196.5,-113.5 283.5,-113.5 283.5,-94.5 196.5,-94.5"/>
<text text-anchor="middle" x="240" y="-101.5" font-family="Helvetica,sans-Serif" font-size="10.00">openage.log.info</text>
</a>
</g>
</g>
<!-- Node0&#45;&gt;Node4 -->
<g id="edge5" class="edge"><title>Node0&#45;&gt;Node4</title>
<path fill="none" stroke="midnightblue" d="M129.663,-132.981C150.299,-127.511 173.357,-121.399 192.959,-116.204"/>
<polygon fill="midnightblue" stroke="midnightblue" points="194.094,-119.524 202.864,-113.578 192.301,-112.757 194.094,-119.524"/>
</g>
<!-- Node5 -->
<g id="node6" class="node"><title>Node5</title>
<g id="a_node6"><a xlink:href="namespaceopenage_1_1log.xhtml#a0eff614e7d6e818746700ed9d29e583f" target="_top" xlink:title="Convenience method that makes use of the &#39;general&#39; LogSource.">
<polygon fill="white" stroke="black" points="194.5,-56.5 194.5,-75.5 285.5,-75.5 285.5,-56.5 194.5,-56.5"/>
<text text-anchor="middle" x="240" y="-63.5" font-family="Helvetica,sans-Serif" font-size="10.00">openage::log::log</text>
</a>
</g>
</g>
<!-- Node0&#45;&gt;Node5 -->
<g id="edge6" class="edge"><title>Node0&#45;&gt;Node5</title>
<path fill="none" stroke="midnightblue" d="M95.1806,-132.974C116.297,-119.151 149.319,-98.7691 180,-85 184.786,-82.8521 189.889,-80.8332 195.014,-78.9721"/>
<polygon fill="midnightblue" stroke="midnightblue" points="196.506,-82.1604 204.821,-75.5952 194.226,-75.5418 196.506,-82.1604"/>
</g>
<!-- Node3&#45;&gt;Node2 -->
<g id="edge4" class="edge"><title>Node3&#45;&gt;Node2</title>
<path fill="none" stroke="midnightblue" d="M300.282,-152.657C318.425,-154.082 338.209,-155.636 355.731,-157.012"/>
<polygon fill="midnightblue" stroke="midnightblue" points="355.514,-160.506 365.757,-157.8 356.062,-153.527 355.514,-160.506"/>
</g>
<!-- Node6 -->
<g id="node7" class="node"><title>Node6</title>
<g id="a_node7"><a xlink:href="namespaceopenage_1_1log.xhtml#a3fbb0c225d01e222648ec28a43507188" target="_top" xlink:title="Returns a reference to a general named log source, for use by log::log().">
<polygon fill="white" stroke="black" points="352.5,-83 352.5,-113 462.5,-113 462.5,-83 352.5,-83"/>
<text text-anchor="start" x="360.5" y="-101" font-family="Helvetica,sans-Serif" font-size="10.00">openage::log::general</text>
<text text-anchor="middle" x="407.5" y="-90" font-family="Helvetica,sans-Serif" font-size="10.00">_source</text>
</a>
</g>
</g>
<!-- Node5&#45;&gt;Node6 -->
<g id="edge7" class="edge"><title>Node5&#45;&gt;Node6</title>
<path fill="none" stroke="midnightblue" d="M285.787,-74.6597C303.152,-78.0173 323.365,-81.9255 342.228,-85.5727"/>
<polygon fill="midnightblue" stroke="midnightblue" points="341.76,-89.0471 352.243,-87.5092 343.089,-82.1744 341.76,-89.0471"/>
</g>
<!-- Node7 -->
<g id="node8" class="node"><title>Node7</title>
<g id="a_node8"><a xlink:href="classopenage_1_1log_1_1_log_source.xhtml#a5640099e20af4cd368c767dbcef3a1df" target="_top" xlink:title="Logs a message (get one via MSG(level)).">
<polygon fill="white" stroke="black" points="336,-44.5 336,-63.5 479,-63.5 479,-44.5 336,-44.5"/>
<text text-anchor="middle" x="407.5" y="-51.5" font-family="Helvetica,sans-Serif" font-size="10.00">openage::log::LogSource::log</text>
</a>
</g>
</g>
<!-- Node5&#45;&gt;Node7 -->
<g id="edge8" class="edge"><title>Node5&#45;&gt;Node7</title>
<path fill="none" stroke="midnightblue" d="M285.787,-62.7526C298.189,-61.8534 312.044,-60.8488 325.822,-59.8498"/>
<polygon fill="midnightblue" stroke="midnightblue" points="326.098,-63.339 335.819,-59.1249 325.592,-56.3573 326.098,-63.339"/>
</g>
<!-- Node8 -->
<g id="node9" class="node"><title>Node8</title>
<g id="a_node9"><a xlink:href="namespaceopenage_1_1log.xhtml#a3d2885be9c3a09b9ff7ee8764b2e5f39" target="_top" xlink:title="Returns a reference to the global stdout logsink object; Initializes the object if needed.">
<polygon fill="white" stroke="black" points="537,-88 537,-118 641,-118 641,-88 537,-88"/>
<text text-anchor="start" x="545" y="-106" font-family="Helvetica,sans-Serif" font-size="10.00">openage::log::global</text>
<text text-anchor="middle" x="589" y="-95" font-family="Helvetica,sans-Serif" font-size="10.00">_stdoutsink</text>
</a>
</g>
</g>
<!-- Node7&#45;&gt;Node8 -->
<g id="edge9" class="edge"><title>Node7&#45;&gt;Node8</title>
<path fill="none" stroke="midnightblue" d="M444.014,-63.5314C455.211,-66.5474 467.625,-69.902 479,-73 494.535,-77.2311 511.305,-81.8309 526.925,-86.1288"/>
<polygon fill="midnightblue" stroke="midnightblue" points="526.429,-89.6222 536.999,-88.9026 528.287,-82.8734 526.429,-89.6222"/>
</g>
<!-- Node9 -->
<g id="node10" class="node"><title>Node9</title>
<g id="a_node10"><a xlink:href="classopenage_1_1log_1_1_log_sink_list.xhtml#a2d47416fab12651553b4b58c86fd6f84" target="_top" xlink:title=" ">
<polygon fill="white" stroke="black" points="524.5,-39 524.5,-69 653.5,-69 653.5,-39 524.5,-39"/>
<text text-anchor="start" x="532.5" y="-57" font-family="Helvetica,sans-Serif" font-size="10.00">openage::log::LogSinkList</text>
<text text-anchor="middle" x="589" y="-46" font-family="Helvetica,sans-Serif" font-size="10.00">::instance</text>
</a>
</g>
</g>
<!-- Node7&#45;&gt;Node9 -->
<g id="edge10" class="edge"><title>Node7&#45;&gt;Node9</title>
<path fill="none" stroke="midnightblue" d="M479.185,-54C490.719,-54 502.693,-54 514.297,-54"/>
<polygon fill="midnightblue" stroke="midnightblue" points="514.38,-57.5001 524.379,-54 514.379,-50.5001 514.38,-57.5001"/>
</g>
<!-- Node10 -->
<g id="node11" class="node"><title>Node10</title>
<g id="a_node11"><a xlink:href="classopenage_1_1log_1_1_log_sink_list.xhtml#a8456b84ab55e1fe151c51438c5bfebdd" target="_top" xlink:title=" ">
<polygon fill="white" stroke="black" points="515,-0.5 515,-19.5 663,-19.5 663,-0.5 515,-0.5"/>
<text text-anchor="middle" x="589" y="-7.5" font-family="Helvetica,sans-Serif" font-size="10.00">openage::log::LogSinkList::log</text>
</a>
</g>
</g>
<!-- Node7&#45;&gt;Node10 -->
<g id="edge11" class="edge"><title>Node7&#45;&gt;Node10</title>
<path fill="none" stroke="midnightblue" d="M447.449,-44.4527C474.382,-37.8508 510.415,-29.0181 539.253,-21.949"/>
<polygon fill="midnightblue" stroke="midnightblue" points="540.248,-25.3089 549.127,-19.5287 538.581,-18.5102 540.248,-25.3089"/>
</g>
</g>
</svg>
