<?xml version="1.0" encoding="UTF-8" standalone="no"?>
<!DOCTYPE svg PUBLIC "-//W3C//DTD SVG 1.1//EN"
 "http://www.w3.org/Graphics/SVG/1.1/DTD/svg11.dtd">
<!-- Generated by graphviz version 2.38.0 (20140413.2041)
 -->
<!-- Title: openage::ActionMode::available Pages: 1 -->
<svg width="656pt" height="185pt"
 viewBox="0.00 0.00 656.00 184.50" xmlns="http://www.w3.org/2000/svg" xmlns:xlink="http://www.w3.org/1999/xlink">
<g id="graph0" class="graph" transform="scale(1 1) rotate(0) translate(4 180.5)">
<title>openage::ActionMode::available</title>
<polygon fill="white" stroke="none" points="-4,4 -4,-180.5 652,-180.5 652,4 -4,4"/>
<!-- Node52 -->
<g id="node1" class="node"><title>Node52</title>
<g id="a_node1"><a xlink:title=" ">
<polygon fill="#bfbfbf" stroke="black" points="0,-83 0,-113 111,-113 111,-83 0,-83"/>
<text text-anchor="start" x="8" y="-101" font-family="Helvetica,sans-Serif" font-size="10.00">openage::ActionMode</text>
<text text-anchor="middle" x="55.5" y="-90" font-family="Helvetica,sans-Serif" font-size="10.00">::available</text>
</a>
</g>
</g>
<!-- Node53 -->
<g id="node2" class="node"><title>Node53</title>
<g id="a_node2"><a xlink:href="classopenage_1_1_game_control.xhtml#aed1e983dee9b075a3343b72aed5678bd" target="_top" xlink:title=" ">
<polygon fill="white" stroke="black" points="158,-146 158,-176 274,-176 274,-146 158,-146"/>
<text text-anchor="start" x="166" y="-164" font-family="Helvetica,sans-Serif" font-size="10.00">openage::GameControl</text>
<text text-anchor="middle" x="216" y="-153" font-family="Helvetica,sans-Serif" font-size="10.00">::get_engine</text>
</a>
</g>
</g>
<!-- Node52&#45;&gt;Node53 -->
<g id="edge1" class="edge"><title>Node52&#45;&gt;Node53</title>
<path fill="none" stroke="midnightblue" d="M91.5912,-113.169C108.3,-120.28 128.606,-128.761 147,-136 152.399,-138.125 158.059,-140.295 163.713,-142.426"/>
<polygon fill="midnightblue" stroke="midnightblue" points="162.579,-145.739 173.172,-145.96 165.029,-139.182 162.579,-145.739"/>
</g>
<!-- Node55 -->
<g id="node4" class="node"><title>Node55</title>
<g id="a_node4"><a xlink:href="classopenage_1_1_engine.xhtml#a3e79c3919abbc3cab0716e4807f7c93e" target="_top" xlink:title=" ">
<polygon fill="white" stroke="black" points="147,-107.5 147,-126.5 285,-126.5 285,-107.5 147,-107.5"/>
<text text-anchor="middle" x="216" y="-114.5" font-family="Helvetica,sans-Serif" font-size="10.00">openage::Engine::get_game</text>
</a>
</g>
</g>
<!-- Node52&#45;&gt;Node55 -->
<g id="edge3" class="edge"><title>Node52&#45;&gt;Node55</title>
<path fill="none" stroke="midnightblue" d="M111.047,-104.539C119.349,-105.534 128.054,-106.577 136.743,-107.619"/>
<polygon fill="midnightblue" stroke="midnightblue" points="136.565,-111.123 146.91,-108.838 137.398,-104.172 136.565,-111.123"/>
</g>
<!-- Node56 -->
<g id="node5" class="node"><title>Node56</title>
<g id="a_node5"><a xlink:href="namespaceopenage_1_1log.xhtml#a0eff614e7d6e818746700ed9d29e583f" target="_top" xlink:title=" ">
<polygon fill="white" stroke="black" points="170.5,-69.5 170.5,-88.5 261.5,-88.5 261.5,-69.5 170.5,-69.5"/>
<text text-anchor="middle" x="216" y="-76.5" font-family="Helvetica,sans-Serif" font-size="10.00">openage::log::log</text>
</a>
</g>
</g>
<!-- Node52&#45;&gt;Node56 -->
<g id="edge4" class="edge"><title>Node52&#45;&gt;Node56</title>
<path fill="none" stroke="midnightblue" d="M111.047,-91.4613C126.913,-89.5593 144.248,-87.4813 160.134,-85.577"/>
<polygon fill="midnightblue" stroke="midnightblue" points="160.822,-89.0196 170.335,-84.3542 159.989,-82.0694 160.822,-89.0196"/>
</g>
<!-- Node62 -->
<g id="node11" class="node"><title>Node62</title>
<g id="a_node11"><a xlink:href="namespaceopenage_1_1log.xhtml#a7ca418e1b1fcf210ff91cd25dc8e6a36" target="_top" xlink:title="warning message">
<polygon fill="white" stroke="black" points="170,-31.5 170,-50.5 262,-50.5 262,-31.5 170,-31.5"/>
<text text-anchor="middle" x="216" y="-38.5" font-family="Helvetica,sans-Serif" font-size="10.00">openage.log.warn</text>
</a>
</g>
</g>
<!-- Node52&#45;&gt;Node62 -->
<g id="edge10" class="edge"><title>Node52&#45;&gt;Node62</title>
<path fill="none" stroke="midnightblue" d="M89.6355,-82.9132C106.596,-75.4927 127.688,-66.7229 147,-60 153.611,-57.6985 160.657,-55.4783 167.614,-53.4177"/>
<polygon fill="midnightblue" stroke="midnightblue" points="169.04,-56.6496 177.683,-50.5219 167.105,-49.9223 169.04,-56.6496"/>
</g>
<!-- Node54 -->
<g id="node3" class="node"><title>Node54</title>
<g id="a_node3"><a xlink:href="namespaceopenage_1_1log.xhtml#a325b0901ddb3f2af36f93781b7dd9744" target="_top" xlink:title="error message">
<polygon fill="white" stroke="black" points="351,-151.5 351,-170.5 434,-170.5 434,-151.5 351,-151.5"/>
<text text-anchor="middle" x="392.5" y="-158.5" font-family="Helvetica,sans-Serif" font-size="10.00">openage.log.err</text>
</a>
</g>
</g>
<!-- Node53&#45;&gt;Node54 -->
<g id="edge2" class="edge"><title>Node53&#45;&gt;Node54</title>
<path fill="none" stroke="midnightblue" d="M274.138,-161C295.566,-161 319.756,-161 340.583,-161"/>
<polygon fill="midnightblue" stroke="midnightblue" points="340.822,-164.5 350.821,-161 340.821,-157.5 340.822,-164.5"/>
</g>
<!-- Node57 -->
<g id="node6" class="node"><title>Node57</title>
<g id="a_node6"><a xlink:href="namespaceopenage_1_1log.xhtml#a3fbb0c225d01e222648ec28a43507188" target="_top" xlink:title=" ">
<polygon fill="white" stroke="black" points="337.5,-83 337.5,-113 447.5,-113 447.5,-83 337.5,-83"/>
<text text-anchor="start" x="345.5" y="-101" font-family="Helvetica,sans-Serif" font-size="10.00">openage::log::general</text>
<text text-anchor="middle" x="392.5" y="-90" font-family="Helvetica,sans-Serif" font-size="10.00">_source</text>
</a>
</g>
</g>
<!-- Node56&#45;&gt;Node57 -->
<g id="edge5" class="edge"><title>Node56&#45;&gt;Node57</title>
<path fill="none" stroke="midnightblue" d="M261.938,-83.893C281.814,-86.0571 305.556,-88.6422 327.254,-91.0047"/>
<polygon fill="midnightblue" stroke="midnightblue" points="327.065,-94.5048 337.385,-92.1079 327.823,-87.5459 327.065,-94.5048"/>
</g>
<!-- Node58 -->
<g id="node7" class="node"><title>Node58</title>
<g id="a_node7"><a xlink:href="classopenage_1_1log_1_1_log_source.xhtml#a5640099e20af4cd368c767dbcef3a1df" target="_top" xlink:title=" ">
<polygon fill="white" stroke="black" points="321,-44.5 321,-63.5 464,-63.5 464,-44.5 321,-44.5"/>
<text text-anchor="middle" x="392.5" y="-51.5" font-family="Helvetica,sans-Serif" font-size="10.00">openage::log::LogSource::log</text>
</a>
</g>
</g>
<!-- Node56&#45;&gt;Node58 -->
<g id="edge6" class="edge"><title>Node56&#45;&gt;Node58</title>
<path fill="none" stroke="midnightblue" d="M261.938,-72.5619C278.127,-70.2426 296.88,-67.5559 315.004,-64.9593"/>
<polygon fill="midnightblue" stroke="midnightblue" points="315.586,-68.4118 324.988,-63.5289 314.593,-61.4825 315.586,-68.4118"/>
</g>
<!-- Node59 -->
<g id="node8" class="node"><title>Node59</title>
<g id="a_node8"><a xlink:href="namespaceopenage_1_1log.xhtml#a3d2885be9c3a09b9ff7ee8764b2e5f39" target="_top" xlink:title=" ">
<polygon fill="white" stroke="black" points="522,-88 522,-118 626,-118 626,-88 522,-88"/>
<text text-anchor="start" x="530" y="-106" font-family="Helvetica,sans-Serif" font-size="10.00">openage::log::global</text>
<text text-anchor="middle" x="574" y="-95" font-family="Helvetica,sans-Serif" font-size="10.00">_stdoutsink</text>
</a>
</g>
</g>
<!-- Node58&#45;&gt;Node59 -->
<g id="edge7" class="edge"><title>Node58&#45;&gt;Node59</title>
<path fill="none" stroke="midnightblue" d="M429.014,-63.5314C440.211,-66.5474 452.625,-69.902 464,-73 479.535,-77.2311 496.305,-81.8309 511.925,-86.1288"/>
<polygon fill="midnightblue" stroke="midnightblue" points="511.429,-89.6222 521.999,-88.9026 513.287,-82.8734 511.429,-89.6222"/>
</g>
<!-- Node60 -->
<g id="node9" class="node"><title>Node60</title>
<g id="a_node9"><a xlink:href="classopenage_1_1log_1_1_log_sink_list.xhtml#a2d47416fab12651553b4b58c86fd6f84" target="_top" xlink:title=" ">
<polygon fill="white" stroke="black" points="509.5,-39 509.5,-69 638.5,-69 638.5,-39 509.5,-39"/>
<text text-anchor="start" x="517.5" y="-57" font-family="Helvetica,sans-Serif" font-size="10.00">openage::log::LogSinkList</text>
<text text-anchor="middle" x="574" y="-46" font-family="Helvetica,sans-Serif" font-size="10.00">::instance</text>
</a>
</g>
</g>
<!-- Node58&#45;&gt;Node60 -->
<g id="edge8" class="edge"><title>Node58&#45;&gt;Node60</title>
<path fill="none" stroke="midnightblue" d="M464.185,-54C475.719,-54 487.693,-54 499.297,-54"/>
<polygon fill="midnightblue" stroke="midnightblue" points="499.38,-57.5001 509.379,-54 499.379,-50.5001 499.38,-57.5001"/>
</g>
<!-- Node61 -->
<g id="node10" class="node"><title>Node61</title>
<g id="a_node10"><a xlink:href="classopenage_1_1log_1_1_log_sink_list.xhtml#a8456b84ab55e1fe151c51438c5bfebdd" target="_top" xlink:title=" ">
<polygon fill="white" stroke="black" points="500,-0.5 500,-19.5 648,-19.5 648,-0.5 500,-0.5"/>
<text text-anchor="middle" x="574" y="-7.5" font-family="Helvetica,sans-Serif" font-size="10.00">openage::log::LogSinkList::log</text>
</a>
</g>
</g>
<!-- Node58&#45;&gt;Node61 -->
<g id="edge9" class="edge"><title>Node58&#45;&gt;Node61</title>
<path fill="none" stroke="midnightblue" d="M432.449,-44.4527C459.382,-37.8508 495.415,-29.0181 524.253,-21.949"/>
<polygon fill="midnightblue" stroke="midnightblue" points="525.248,-25.3089 534.127,-19.5287 523.581,-18.5102 525.248,-25.3089"/>
</g>
</g>
</svg>
