<?xml version="1.0" encoding="UTF-8" standalone="no"?>
<!DOCTYPE svg PUBLIC "-//W3C//DTD SVG 1.1//EN"
 "http://www.w3.org/Graphics/SVG/1.1/DTD/svg11.dtd">
<!-- Generated by graphviz version 2.38.0 (20140413.2041)
 -->
<!-- Title: qtsdl::GuiItem&lt; T &gt; Pages: 1 -->
<svg width="338pt" height="493pt"
 viewBox="0.00 0.00 337.50 493.00" xmlns="http://www.w3.org/2000/svg" xmlns:xlink="http://www.w3.org/1999/xlink">
<g id="graph0" class="graph" transform="scale(1 1) rotate(0) translate(4 489)">
<title>qtsdl::GuiItem&lt; T &gt;</title>
<polygon fill="white" stroke="none" points="-4,4 -4,-489 333.5,-489 333.5,4 -4,4"/>
<!-- Node5 -->
<g id="node1" class="node"><title>Node5</title>
<g id="a_node1"><a xlink:title=" ">
<polygon fill="#bfbfbf" stroke="black" points="128.5,-0.5 128.5,-57.5 229.5,-57.5 229.5,-0.5 128.5,-0.5"/>
<text text-anchor="middle" x="179" y="-45.5" font-family="Helvetica,sans-Serif" font-size="10.00">qtsdl::GuiItem&lt; T &gt;</text>
<polyline fill="none" stroke="black" points="128.5,-38.5 229.5,-38.5 "/>
<text text-anchor="middle" x="179" y="-26.5" font-family="Helvetica,sans-Serif" font-size="10.00"> </text>
<polyline fill="none" stroke="black" points="128.5,-19.5 229.5,-19.5 "/>
<text text-anchor="start" x="136.5" y="-7.5" font-family="Helvetica,sans-Serif" font-size="10.00">+ GuiItem()</text>
</a>
</g>
</g>
<!-- Node6 -->
<g id="node2" class="node"><title>Node6</title>
<g id="a_node2"><a xlink:href="classqtsdl_1_1_gui_item_origin.xhtml" target="_top" xlink:title=" ">
<polygon fill="white" stroke="black" points="16,-117.5 16,-174.5 142,-174.5 142,-117.5 16,-117.5"/>
<text text-anchor="middle" x="79" y="-162.5" font-family="Helvetica,sans-Serif" font-size="10.00">qtsdl::GuiItemOrigin&lt; T &gt;</text>
<polyline fill="none" stroke="black" points="16,-155.5 142,-155.5 "/>
<text text-anchor="middle" x="79" y="-143.5" font-family="Helvetica,sans-Serif" font-size="10.00"> </text>
<polyline fill="none" stroke="black" points="16,-136.5 142,-136.5 "/>
<text text-anchor="middle" x="79" y="-124.5" font-family="Helvetica,sans-Serif" font-size="10.00"> </text>
</a>
</g>
</g>
<!-- Node6&#45;&gt;Node5 -->
<g id="edge1" class="edge"><title>Node6&#45;&gt;Node5</title>
<path fill="none" stroke="midnightblue" d="M109.839,-109.535C124.336,-92.8641 141.364,-73.2816 154.896,-57.7192"/>
<polygon fill="none" stroke="midnightblue" points="106.873,-107.612 102.952,-117.455 112.155,-112.205 106.873,-107.612"/>
</g>
<!-- Node7 -->
<g id="node3" class="node"><title>Node7</title>
<g id="a_node3"><a xlink:href="classqtsdl_1_1_persistent_core_holder.xhtml" target="_top" xlink:title=" ">
<polygon fill="white" stroke="black" points="11,-261 11,-362 147,-362 147,-261 11,-261"/>
<text text-anchor="start" x="19" y="-350" font-family="Helvetica,sans-Serif" font-size="10.00">qtsdl::PersistentCoreHolder</text>
<text text-anchor="start" x="19" y="-339" font-family="Helvetica,sans-Serif" font-size="10.00">&lt; typename qtsdl::Unwrap</text>
<text text-anchor="middle" x="79" y="-328" font-family="Helvetica,sans-Serif" font-size="10.00">&lt; T &gt;::Type &gt;</text>
<polyline fill="none" stroke="black" points="11,-321 147,-321 "/>
<text text-anchor="start" x="19" y="-309" font-family="Helvetica,sans-Serif" font-size="10.00">+ core</text>
<polyline fill="none" stroke="black" points="11,-302 147,-302 "/>
<text text-anchor="start" x="19" y="-290" font-family="Helvetica,sans-Serif" font-size="10.00">+ PersistentCoreHolder()</text>
<text text-anchor="start" x="19" y="-279" font-family="Helvetica,sans-Serif" font-size="10.00">+ PersistentCoreHolder()</text>
<text text-anchor="start" x="19" y="-268" font-family="Helvetica,sans-Serif" font-size="10.00">+ adopt_shell()</text>
</a>
</g>
</g>
<!-- Node7&#45;&gt;Node6 -->
<g id="edge2" class="edge"><title>Node7&#45;&gt;Node6</title>
<path fill="none" stroke="#404040" d="M79,-260.556C79,-236.895 79,-209.022 79,-186.813"/>
<polygon fill="none" stroke="#404040" points="79.0001,-186.793 75,-180.793 79,-174.793 83,-180.793 79.0001,-186.793"/>
<text text-anchor="middle" x="95.5" y="-218" font-family="Helvetica,sans-Serif" font-size="10.00"> &#45;holder</text>
</g>
<!-- Node8 -->
<g id="node4" class="node"><title>Node8</title>
<g id="a_node4"><a xlink:href="classqtsdl_1_1_persistent_core_holder_base.xhtml" target="_top" xlink:title=" ">
<polygon fill="white" stroke="black" points="0,-416.5 0,-484.5 158,-484.5 158,-416.5 0,-416.5"/>
<text text-anchor="middle" x="79" y="-472.5" font-family="Helvetica,sans-Serif" font-size="10.00">qtsdl::PersistentCoreHolderBase</text>
<polyline fill="none" stroke="black" points="0,-465.5 158,-465.5 "/>
<text text-anchor="middle" x="79" y="-453.5" font-family="Helvetica,sans-Serif" font-size="10.00"> </text>
<polyline fill="none" stroke="black" points="0,-446.5 158,-446.5 "/>
<text text-anchor="start" x="8" y="-434.5" font-family="Helvetica,sans-Serif" font-size="10.00">+ ~PersistentCoreHolderBase()</text>
<text text-anchor="start" x="8" y="-423.5" font-family="Helvetica,sans-Serif" font-size="10.00">+ adopt_shell()</text>
</a>
</g>
</g>
<!-- Node8&#45;&gt;Node7 -->
<g id="edge3" class="edge"><title>Node8&#45;&gt;Node7</title>
<path fill="none" stroke="midnightblue" d="M79,-406.038C79,-392.103 79,-376.565 79,-362.217"/>
<polygon fill="none" stroke="midnightblue" points="75.5001,-406.336 79,-416.336 82.5001,-406.336 75.5001,-406.336"/>
</g>
<!-- Node9 -->
<g id="node5" class="node"><title>Node9</title>
<g id="a_node5"><a xlink:href="classqtsdl_1_1_gui_item_core_instantiator.xhtml" target="_top" xlink:title=" ">
<polygon fill="white" stroke="black" points="160.5,-95.5 160.5,-196.5 329.5,-196.5 329.5,-95.5 160.5,-95.5"/>
<text text-anchor="middle" x="245" y="-184.5" font-family="Helvetica,sans-Serif" font-size="10.00">qtsdl::GuiItemCoreInstantiator&lt; T &gt;</text>
<polyline fill="none" stroke="black" points="160.5,-177.5 329.5,-177.5 "/>
<text text-anchor="middle" x="245" y="-165.5" font-family="Helvetica,sans-Serif" font-size="10.00"> </text>
<polyline fill="none" stroke="black" points="160.5,-158.5 329.5,-158.5 "/>
<text text-anchor="start" x="168.5" y="-146.5" font-family="Helvetica,sans-Serif" font-size="10.00">+ GuiItemCoreInstantiator()</text>
<text text-anchor="start" x="168.5" y="-135.5" font-family="Helvetica,sans-Serif" font-size="10.00">&#45; instantiate_core()</text>
<text text-anchor="start" x="168.5" y="-124.5" font-family="Helvetica,sans-Serif" font-size="10.00">&#45; do_adopt_core()</text>
<text text-anchor="start" x="168.5" y="-113.5" font-family="Helvetica,sans-Serif" font-size="10.00">&#45; GuiItemCoreInstantiator()</text>
<text text-anchor="start" x="168.5" y="-102.5" font-family="Helvetica,sans-Serif" font-size="10.00">&#45; operator=()</text>
</a>
</g>
</g>
<!-- Node9&#45;&gt;Node5 -->
<g id="edge4" class="edge"><title>Node9&#45;&gt;Node5</title>
<path fill="none" stroke="midnightblue" d="M211.386,-86.4309C205.628,-76.398 199.895,-66.4085 194.889,-57.6848"/>
<polygon fill="none" stroke="midnightblue" points="208.422,-88.2972 216.435,-95.2282 214.493,-84.8128 208.422,-88.2972"/>
</g>
<!-- Node10 -->
<g id="node6" class="node"><title>Node10</title>
<g id="a_node6"><a xlink:href="classqtsdl_1_1_gui_item_methods.xhtml" target="_top" xlink:title=" ">
<polygon fill="white" stroke="black" points="176,-244.5 176,-378.5 314,-378.5 314,-244.5 176,-244.5"/>
<text text-anchor="middle" x="245" y="-366.5" font-family="Helvetica,sans-Serif" font-size="10.00">qtsdl::GuiItemMethods&lt; T &gt;</text>
<polyline fill="none" stroke="black" points="176,-359.5 314,-359.5 "/>
<text text-anchor="middle" x="245" y="-347.5" font-family="Helvetica,sans-Serif" font-size="10.00"> </text>
<polyline fill="none" stroke="black" points="176,-340.5 314,-340.5 "/>
<text text-anchor="start" x="184" y="-328.5" font-family="Helvetica,sans-Serif" font-size="10.00">+ ~GuiItemMethods()</text>
<text text-anchor="start" x="184" y="-317.5" font-family="Helvetica,sans-Serif" font-size="10.00">+ get()</text>
<text text-anchor="start" x="184" y="-306.5" font-family="Helvetica,sans-Serif" font-size="10.00">+ get()</text>
<text text-anchor="start" x="184" y="-295.5" font-family="Helvetica,sans-Serif" font-size="10.00">+ i()</text>
<text text-anchor="start" x="184" y="-284.5" font-family="Helvetica,sans-Serif" font-size="10.00"># s()</text>
<text text-anchor="start" x="184" y="-273.5" font-family="Helvetica,sans-Serif" font-size="10.00"># sf()</text>
<text text-anchor="start" x="184" y="-262.5" font-family="Helvetica,sans-Serif" font-size="10.00">&#45; assign_while_catching</text>
<text text-anchor="start" x="184" y="-251.5" font-family="Helvetica,sans-Serif" font-size="10.00">_constant_properies_inits()</text>
</a>
</g>
</g>
<!-- Node10&#45;&gt;Node9 -->
<g id="edge5" class="edge"><title>Node10&#45;&gt;Node9</title>
<path fill="none" stroke="midnightblue" d="M245,-234.288C245,-221.513 245,-208.558 245,-196.676"/>
<polygon fill="none" stroke="midnightblue" points="241.5,-234.47 245,-244.47 248.5,-234.47 241.5,-234.47"/>
</g>
</g>
</svg>
