<?xml version="1.0" encoding="UTF-8" standalone="no"?>
<!DOCTYPE svg PUBLIC "-//W3C//DTD SVG 1.1//EN"
 "http://www.w3.org/Graphics/SVG/1.1/DTD/svg11.dtd">
<!-- Generated by graphviz version 2.38.0 (20140413.2041)
 -->
<!-- Title: openage::log::LogSink Pages: 1 -->
<!--zoomable 1181 -->
<svg id="main" version="1.1" xmlns="http://www.w3.org/2000/svg" xmlns:xlink="http://www.w3.org/1999/xlink" xml:space="preserve" onload="init(evt)">
<style type="text/css"><![CDATA[
.edge:hover path { stroke: red; }
.edge:hover polygon { stroke: red; fill: red; }
]]></style>
<script type="text/javascript"><![CDATA[
var edges = document.getElementsByTagName('g');
if (edges && edges.length) {
  for (var i=0;i<edges.length;i++) {
    if (edges[i].id.substr(0,4)=='edge') {
      edges[i].setAttribute('class','edge');
    }
  }
}
]]></script>
        <defs>
                <circle id="rim" cx="0" cy="0" r="7"/>
                <circle id="rim2" cx="0" cy="0" r="3.5"/>
                <g id="zoomPlus">
                        <use xlink:href="#rim" fill="#404040">
                                <set attributeName="fill" to="#808080" begin="zoomplus.mouseover" end="zoomplus.mouseout"/>
                        </use>
                        <path d="M-4,0h8M0,-4v8" fill="none" stroke="white" stroke-width="1.5" pointer-events="none"/>
                </g>
                <g id="zoomMin">
                        <use xlink:href="#rim" fill="#404040">
                                <set attributeName="fill" to="#808080" begin="zoomminus.mouseover" end="zoomminus.mouseout"/>
                        </use>
                        <path d="M-4,0h8" fill="none" stroke="white" stroke-width="1.5" pointer-events="none"/>
                </g>
                <g id="dirArrow">
                        <path fill="none" stroke="white" stroke-width="1.5" d="M0,-3.0v7 M-2.5,-0.5L0,-3.0L2.5,-0.5"/>
                </g>
               <g id="resetDef">
                       <use xlink:href="#rim2" fill="#404040">
                               <set attributeName="fill" to="#808080" begin="reset.mouseover" end="reset.mouseout"/>
                       </use>
               </g>
        </defs>

<script type="text/javascript">
var viewWidth = 309;
var viewHeight = 1181;
var sectionId = 'dynsection-1';
</script>
<script xlink:href="svgpan.js"/>
<svg id="graph" class="graph">
<g id="viewport">
<title>openage::log::LogSink</title>
<polygon fill="white" stroke="none" points="-4,4 -4,-1177 304.5,-1177 304.5,4 -4,4"/>
<!-- Node4 -->
<g id="node1" class="node"><title>Node4</title>
<g id="a_node1"><a xlink:title=" ">
<polygon fill="#bfbfbf" stroke="black" points="56.5,-0.5 56.5,-90.5 175.5,-90.5 175.5,-0.5 56.5,-0.5"/>
<text text-anchor="middle" x="116" y="-78.5" font-family="Helvetica,sans-Serif" font-size="10.00">openage::log::LogSink</text>
<polyline fill="none" stroke="black" points="56.5,-71.5 175.5,-71.5 "/>
<text text-anchor="middle" x="116" y="-59.5" font-family="Helvetica,sans-Serif" font-size="10.00"> </text>
<polyline fill="none" stroke="black" points="56.5,-52.5 175.5,-52.5 "/>
<text text-anchor="start" x="64.5" y="-40.5" font-family="Helvetica,sans-Serif" font-size="10.00">+ LogSink()</text>
<text text-anchor="start" x="64.5" y="-29.5" font-family="Helvetica,sans-Serif" font-size="10.00">+ ~LogSink()</text>
<text text-anchor="start" x="64.5" y="-18.5" font-family="Helvetica,sans-Serif" font-size="10.00">+ set_loglevel()</text>
<text text-anchor="start" x="64.5" y="-7.5" font-family="Helvetica,sans-Serif" font-size="10.00">&#45; output_log_message()</text>
</a>
</g>
</g>
<!-- Node5 -->
<g id="node2" class="node"><title>Node5</title>
<g id="a_node2"><a xlink:href="structopenage_1_1log_1_1level.xhtml" target="_top" xlink:title=" ">
<polygon fill="white" stroke="black" points="67.5,-138.5 67.5,-195.5 164.5,-195.5 164.5,-138.5 67.5,-138.5"/>
<text text-anchor="middle" x="116" y="-183.5" font-family="Helvetica,sans-Serif" font-size="10.00">openage::log::level</text>
<polyline fill="none" stroke="black" points="67.5,-176.5 164.5,-176.5 "/>
<text text-anchor="middle" x="116" y="-164.5" font-family="Helvetica,sans-Serif" font-size="10.00"> </text>
<polyline fill="none" stroke="black" points="67.5,-157.5 164.5,-157.5 "/>
<text text-anchor="start" x="75.5" y="-145.5" font-family="Helvetica,sans-Serif" font-size="10.00">+ level()</text>
</a>
</g>
</g>
<!-- Node5&#45;&gt;Node4 -->
<g id="edge1" class="edge"><title>Node5&#45;&gt;Node4</title>
<path fill="none" stroke="#404040" d="M116,-138.284C116,-127.735 116,-115.294 116,-103.035"/>
<polygon fill="none" stroke="#404040" points="116,-102.912 112,-96.9125 116,-90.9125 120,-96.9124 116,-102.912"/>
<text text-anchor="middle" x="135" y="-112" font-family="Helvetica,sans-Serif" font-size="10.00"> &#45;loglevel</text>
</g>
<!-- Node6 -->
<g id="node3" class="node"><title>Node6</title>
<g id="a_node3"><a xlink:href="classopenage_1_1util_1_1_enum.xhtml" target="_top" xlink:title=" ">
<polygon fill="white" stroke="black" points="161,-233.5 161,-433.5 271,-433.5 271,-233.5 161,-233.5"/>
<text text-anchor="start" x="169" y="-421.5" font-family="Helvetica,sans-Serif" font-size="10.00">openage::util::Enum</text>
<text text-anchor="middle" x="216" y="-410.5" font-family="Helvetica,sans-Serif" font-size="10.00">&lt; level_value &gt;</text>
<polyline fill="none" stroke="black" points="161,-403.5 271,-403.5 "/>
<text text-anchor="middle" x="216" y="-391.5" font-family="Helvetica,sans-Serif" font-size="10.00"> </text>
<polyline fill="none" stroke="black" points="161,-384.5 271,-384.5 "/>
<text text-anchor="start" x="169" y="-372.5" font-family="Helvetica,sans-Serif" font-size="10.00">+ Enum()</text>
<text text-anchor="start" x="169" y="-361.5" font-family="Helvetica,sans-Serif" font-size="10.00">+ Enum()</text>
<text text-anchor="start" x="169" y="-350.5" font-family="Helvetica,sans-Serif" font-size="10.00">+ operator const level</text>
<text text-anchor="start" x="169" y="-339.5" font-family="Helvetica,sans-Serif" font-size="10.00">_value &amp;()</text>
<text text-anchor="start" x="169" y="-328.5" font-family="Helvetica,sans-Serif" font-size="10.00">+ operator=()</text>
<text text-anchor="start" x="169" y="-317.5" font-family="Helvetica,sans-Serif" font-size="10.00">+ operator &#45;&gt;()</text>
<text text-anchor="start" x="169" y="-306.5" font-family="Helvetica,sans-Serif" font-size="10.00">+ operator==()</text>
<text text-anchor="start" x="169" y="-295.5" font-family="Helvetica,sans-Serif" font-size="10.00">+ operator !=()</text>
<text text-anchor="start" x="169" y="-284.5" font-family="Helvetica,sans-Serif" font-size="10.00">+ operator&lt;=()</text>
<text text-anchor="start" x="169" y="-273.5" font-family="Helvetica,sans-Serif" font-size="10.00">+ operator&lt;()</text>
<text text-anchor="start" x="169" y="-262.5" font-family="Helvetica,sans-Serif" font-size="10.00">+ operator &gt;=()</text>
<text text-anchor="start" x="169" y="-251.5" font-family="Helvetica,sans-Serif" font-size="10.00">+ operator &gt;()</text>
<text text-anchor="start" x="169" y="-240.5" font-family="Helvetica,sans-Serif" font-size="10.00">+ get()</text>
</a>
</g>
</g>
<!-- Node6&#45;&gt;Node5 -->
<g id="edge2" class="edge"><title>Node6&#45;&gt;Node5</title>
<path fill="none" stroke="midnightblue" d="M155.506,-232.988C147.179,-219.29 139.258,-206.26 132.725,-195.513"/>
<polygon fill="none" stroke="midnightblue" points="152.55,-234.863 160.735,-241.589 158.531,-231.226 152.55,-234.863"/>
</g>
<!-- Node7 -->
<g id="node4" class="node"><title>Node7</title>
<g id="a_node4"><a xlink:href="structopenage_1_1log_1_1level__value.xhtml" target="_top" xlink:title=" ">
<polygon fill="white" stroke="black" points="26.5,-542 26.5,-610 123.5,-610 123.5,-542 26.5,-542"/>
<text text-anchor="start" x="34.5" y="-598" font-family="Helvetica,sans-Serif" font-size="10.00">openage::log::level</text>
<text text-anchor="middle" x="75" y="-587" font-family="Helvetica,sans-Serif" font-size="10.00">_value</text>
<polyline fill="none" stroke="black" points="26.5,-580 123.5,-580 "/>
<text text-anchor="start" x="34.5" y="-568" font-family="Helvetica,sans-Serif" font-size="10.00">+ colorcode</text>
<polyline fill="none" stroke="black" points="26.5,-561 123.5,-561 "/>
<text text-anchor="middle" x="75" y="-549" font-family="Helvetica,sans-Serif" font-size="10.00"> </text>
</a>
</g>
</g>
<!-- Node7&#45;&gt;Node5 -->
<g id="edge9" class="edge"><title>Node7&#45;&gt;Node5</title>
<path fill="none" stroke="#404040" d="M71.2373,-541.84C65.2345,-480.021 56.7541,-343.431 84,-233 86.175,-224.185 89.6678,-215.172 93.5623,-206.775"/>
<polygon fill="none" stroke="#404040" points="93.6872,-206.524 92.7809,-199.37 99.0359,-195.782 99.9423,-202.936 93.6872,-206.524"/>
<text text-anchor="middle" x="118" y="-331" font-family="Helvetica,sans-Serif" font-size="10.00"> +NOOPTIMIZE</text>
</g>
<!-- Node7&#45;&gt;Node6 -->
<g id="edge3" class="edge"><title>Node7&#45;&gt;Node6</title>
<path fill="none" stroke="#404040" d="M94.4574,-541.812C110.133,-515.075 133.064,-475.961 154.797,-438.893"/>
<polygon fill="none" stroke="#404040" points="154.818,-438.856 154.402,-431.657 160.887,-428.504 161.303,-435.703 154.818,-438.856"/>
<text text-anchor="middle" x="161.5" y="-455" font-family="Helvetica,sans-Serif" font-size="10.00"> #value</text>
</g>
<!-- Node8 -->
<g id="node5" class="node"><title>Node8</title>
<g id="a_node5"><a xlink:href="classopenage_1_1util_1_1_enum_value.xhtml" target="_top" xlink:title=" ">
<polygon fill="white" stroke="black" points="11,-718.5 11,-874.5 139,-874.5 139,-718.5 11,-718.5"/>
<text text-anchor="start" x="19" y="-862.5" font-family="Helvetica,sans-Serif" font-size="10.00">openage::util::EnumValue</text>
<text text-anchor="middle" x="75" y="-851.5" font-family="Helvetica,sans-Serif" font-size="10.00">&lt; level_value &gt;</text>
<polyline fill="none" stroke="black" points="11,-844.5 139,-844.5 "/>
<text text-anchor="start" x="19" y="-832.5" font-family="Helvetica,sans-Serif" font-size="10.00">+ name</text>
<text text-anchor="start" x="19" y="-821.5" font-family="Helvetica,sans-Serif" font-size="10.00">+ numeric</text>
<polyline fill="none" stroke="black" points="11,-814.5 139,-814.5 "/>
<text text-anchor="start" x="19" y="-802.5" font-family="Helvetica,sans-Serif" font-size="10.00">+ EnumValue()</text>
<text text-anchor="start" x="19" y="-791.5" font-family="Helvetica,sans-Serif" font-size="10.00">+ operator=()</text>
<text text-anchor="start" x="19" y="-780.5" font-family="Helvetica,sans-Serif" font-size="10.00">+ operator==()</text>
<text text-anchor="start" x="19" y="-769.5" font-family="Helvetica,sans-Serif" font-size="10.00">+ operator !=()</text>
<text text-anchor="start" x="19" y="-758.5" font-family="Helvetica,sans-Serif" font-size="10.00">+ operator&lt;=()</text>
<text text-anchor="start" x="19" y="-747.5" font-family="Helvetica,sans-Serif" font-size="10.00">+ operator&lt;()</text>
<text text-anchor="start" x="19" y="-736.5" font-family="Helvetica,sans-Serif" font-size="10.00">+ operator &gt;=()</text>
<text text-anchor="start" x="19" y="-725.5" font-family="Helvetica,sans-Serif" font-size="10.00">+ operator &gt;()</text>
</a>
</g>
</g>
<!-- Node8&#45;&gt;Node7 -->
<g id="edge4" class="edge"><title>Node8&#45;&gt;Node7</title>
<path fill="none" stroke="midnightblue" d="M75,-708.346C75,-673.826 75,-636.234 75,-610.146"/>
<polygon fill="none" stroke="midnightblue" points="71.5001,-708.465 75,-718.465 78.5001,-708.465 71.5001,-708.465"/>
</g>
<!-- Node9 -->
<g id="node6" class="node"><title>Node9</title>
<g id="a_node6"><a xlink:href="classopenage_1_1util_1_1_enum_value.xhtml" target="_top" xlink:title=" ">
<polygon fill="white" stroke="black" points="0,-922.5 0,-1067.5 150,-1067.5 150,-922.5 0,-922.5"/>
<text text-anchor="start" x="8" y="-1055.5" font-family="Helvetica,sans-Serif" font-size="10.00">openage::util::EnumValue</text>
<text text-anchor="middle" x="75" y="-1044.5" font-family="Helvetica,sans-Serif" font-size="10.00">&lt; DerivedType, NumericType &gt;</text>
<polyline fill="none" stroke="black" points="0,-1037.5 150,-1037.5 "/>
<text text-anchor="start" x="8" y="-1025.5" font-family="Helvetica,sans-Serif" font-size="10.00">+ name</text>
<polyline fill="none" stroke="black" points="0,-1018.5 150,-1018.5 "/>
<text text-anchor="start" x="8" y="-1006.5" font-family="Helvetica,sans-Serif" font-size="10.00">+ EnumValue()</text>
<text text-anchor="start" x="8" y="-995.5" font-family="Helvetica,sans-Serif" font-size="10.00">+ operator=()</text>
<text text-anchor="start" x="8" y="-984.5" font-family="Helvetica,sans-Serif" font-size="10.00">+ operator==()</text>
<text text-anchor="start" x="8" y="-973.5" font-family="Helvetica,sans-Serif" font-size="10.00">+ operator !=()</text>
<text text-anchor="start" x="8" y="-962.5" font-family="Helvetica,sans-Serif" font-size="10.00">+ operator&lt;=()</text>
<text text-anchor="start" x="8" y="-951.5" font-family="Helvetica,sans-Serif" font-size="10.00">+ operator&lt;()</text>
<text text-anchor="start" x="8" y="-940.5" font-family="Helvetica,sans-Serif" font-size="10.00">+ operator &gt;=()</text>
<text text-anchor="start" x="8" y="-929.5" font-family="Helvetica,sans-Serif" font-size="10.00">+ operator &gt;()</text>
</a>
</g>
</g>
<!-- Node9&#45;&gt;Node8 -->
<g id="edge5" class="edge"><title>Node9&#45;&gt;Node8</title>
<path fill="none" stroke="orange" d="M75,-911.962C75,-899.626 75,-886.938 75,-874.708"/>
<polygon fill="orange" stroke="orange" points="71.5001,-912.225 75,-922.225 78.5001,-912.225 71.5001,-912.225"/>
<text text-anchor="middle" x="108.5" y="-896" font-family="Helvetica,sans-Serif" font-size="10.00"> &lt; level_value &gt;</text>
</g>
<!-- Node10 -->
<g id="node7" class="node"><title>Node10</title>
<g id="a_node7"><a xlink:title=" ">
<polygon fill="white" stroke="#bfbfbf" points="38,-1115.5 38,-1172.5 112,-1172.5 112,-1115.5 38,-1115.5"/>
<text text-anchor="middle" x="75" y="-1160.5" font-family="Helvetica,sans-Serif" font-size="10.00">NumericType</text>
<polyline fill="none" stroke="#bfbfbf" points="38,-1153.5 112,-1153.5 "/>
<text text-anchor="middle" x="75" y="-1141.5" font-family="Helvetica,sans-Serif" font-size="10.00"> </text>
<polyline fill="none" stroke="#bfbfbf" points="38,-1134.5 112,-1134.5 "/>
<text text-anchor="middle" x="75" y="-1122.5" font-family="Helvetica,sans-Serif" font-size="10.00"> </text>
</a>
</g>
</g>
<!-- Node10&#45;&gt;Node9 -->
<g id="edge6" class="edge"><title>Node10&#45;&gt;Node9</title>
<path fill="none" stroke="#404040" d="M75,-1115.35C75,-1105.01 75,-1092.66 75,-1079.89"/>
<polygon fill="none" stroke="#404040" points="75.0001,-1079.56 71,-1073.56 75,-1067.56 79,-1073.56 75.0001,-1079.56"/>
<text text-anchor="middle" x="97" y="-1089" font-family="Helvetica,sans-Serif" font-size="10.00"> +numeric</text>
</g>
<!-- Node11 -->
<g id="node8" class="node"><title>Node11</title>
<g id="a_node8"><a xlink:href="classopenage_1_1util_1_1_enum.xhtml" target="_top" xlink:title=" ">
<polygon fill="white" stroke="black" points="141.5,-481.5 141.5,-670.5 300.5,-670.5 300.5,-481.5 141.5,-481.5"/>
<text text-anchor="start" x="149.5" y="-658.5" font-family="Helvetica,sans-Serif" font-size="10.00">openage::util::Enum</text>
<text text-anchor="middle" x="221" y="-647.5" font-family="Helvetica,sans-Serif" font-size="10.00">&lt; DerivedType &gt;</text>
<polyline fill="none" stroke="black" points="141.5,-640.5 300.5,-640.5 "/>
<text text-anchor="middle" x="221" y="-628.5" font-family="Helvetica,sans-Serif" font-size="10.00"> </text>
<polyline fill="none" stroke="black" points="141.5,-621.5 300.5,-621.5 "/>
<text text-anchor="start" x="149.5" y="-609.5" font-family="Helvetica,sans-Serif" font-size="10.00">+ Enum()</text>
<text text-anchor="start" x="149.5" y="-598.5" font-family="Helvetica,sans-Serif" font-size="10.00">+ Enum()</text>
<text text-anchor="start" x="149.5" y="-587.5" font-family="Helvetica,sans-Serif" font-size="10.00">+ operator const DerivedType &amp;()</text>
<text text-anchor="start" x="149.5" y="-576.5" font-family="Helvetica,sans-Serif" font-size="10.00">+ operator=()</text>
<text text-anchor="start" x="149.5" y="-565.5" font-family="Helvetica,sans-Serif" font-size="10.00">+ operator &#45;&gt;()</text>
<text text-anchor="start" x="149.5" y="-554.5" font-family="Helvetica,sans-Serif" font-size="10.00">+ operator==()</text>
<text text-anchor="start" x="149.5" y="-543.5" font-family="Helvetica,sans-Serif" font-size="10.00">+ operator !=()</text>
<text text-anchor="start" x="149.5" y="-532.5" font-family="Helvetica,sans-Serif" font-size="10.00">+ operator&lt;=()</text>
<text text-anchor="start" x="149.5" y="-521.5" font-family="Helvetica,sans-Serif" font-size="10.00">+ operator&lt;()</text>
<text text-anchor="start" x="149.5" y="-510.5" font-family="Helvetica,sans-Serif" font-size="10.00">+ operator &gt;=()</text>
<text text-anchor="start" x="149.5" y="-499.5" font-family="Helvetica,sans-Serif" font-size="10.00">+ operator &gt;()</text>
<text text-anchor="start" x="149.5" y="-488.5" font-family="Helvetica,sans-Serif" font-size="10.00">+ get()</text>
</a>
</g>
</g>
<!-- Node11&#45;&gt;Node6 -->
<g id="edge7" class="edge"><title>Node11&#45;&gt;Node6</title>
<path fill="none" stroke="orange" d="M218.839,-471.036C218.582,-458.706 218.321,-446.142 218.066,-433.877"/>
<polygon fill="orange" stroke="orange" points="215.345,-471.403 219.053,-481.328 222.344,-471.257 215.345,-471.403"/>
<text text-anchor="middle" x="252.5" y="-455" font-family="Helvetica,sans-Serif" font-size="10.00"> &lt; level_value &gt;</text>
</g>
<!-- Node12 -->
<g id="node9" class="node"><title>Node12</title>
<g id="a_node9"><a xlink:title=" ">
<polygon fill="white" stroke="#bfbfbf" points="186.5,-768 186.5,-825 255.5,-825 255.5,-768 186.5,-768"/>
<text text-anchor="middle" x="221" y="-813" font-family="Helvetica,sans-Serif" font-size="10.00">DerivedType</text>
<polyline fill="none" stroke="#bfbfbf" points="186.5,-806 255.5,-806 "/>
<text text-anchor="middle" x="221" y="-794" font-family="Helvetica,sans-Serif" font-size="10.00"> </text>
<polyline fill="none" stroke="#bfbfbf" points="186.5,-787 255.5,-787 "/>
<text text-anchor="middle" x="221" y="-775" font-family="Helvetica,sans-Serif" font-size="10.00"> </text>
</a>
</g>
</g>
<!-- Node12&#45;&gt;Node11 -->
<g id="edge8" class="edge"><title>Node12&#45;&gt;Node11</title>
<path fill="none" stroke="#404040" d="M221,-767.827C221,-746.036 221,-714.186 221,-682.725"/>
<polygon fill="none" stroke="#404040" points="221,-682.709 217,-676.709 221,-670.709 225,-676.709 221,-682.709"/>
<text text-anchor="middle" x="236.5" y="-692" font-family="Helvetica,sans-Serif" font-size="10.00"> #value</text>
</g>
</g>
</svg>
        <g id="navigator" transform="translate(0 0)" fill="#404254">
                <rect fill="#f2f5e9" fill-opacity="0.5" stroke="#606060" stroke-width=".5" x="0" y="0" width="60" height="60"/>
                <use id="zoomplus" xlink:href="#zoomPlus" x="17" y="9" onmousedown="handleZoom(evt,'in')"/>
                <use id="zoomminus" xlink:href="#zoomMin" x="42" y="9" onmousedown="handleZoom(evt,'out')"/>
                <use id="reset" xlink:href="#resetDef" x="30" y="36" onmousedown="handleReset()"/>
                <g id="arrowUp" xlink:href="#dirArrow" transform="translate(30 24)" onmousedown="handlePan(0,-1)">
                  <use xlink:href="#rim" fill="#404040">
                        <set attributeName="fill" to="#808080" begin="arrowUp.mouseover" end="arrowUp.mouseout"/>
                  </use>
                  <path fill="none" stroke="white" stroke-width="1.5" d="M0,-3.0v7 M-2.5,-0.5L0,-3.0L2.5,-0.5"/>
                </g>
                <g id="arrowRight" xlink:href="#dirArrow" transform="rotate(90) translate(36 -43)" onmousedown="handlePan(1,0)">
                  <use xlink:href="#rim" fill="#404040">
                        <set attributeName="fill" to="#808080" begin="arrowRight.mouseover" end="arrowRight.mouseout"/>
                  </use>
                  <path fill="none" stroke="white" stroke-width="1.5" d="M0,-3.0v7 M-2.5,-0.5L0,-3.0L2.5,-0.5"/>
                </g>
                <g id="arrowDown" xlink:href="#dirArrow" transform="rotate(180) translate(-30 -48)" onmousedown="handlePan(0,1)">
                  <use xlink:href="#rim" fill="#404040">
                        <set attributeName="fill" to="#808080" begin="arrowDown.mouseover" end="arrowDown.mouseout"/>
                  </use>
                  <path fill="none" stroke="white" stroke-width="1.5" d="M0,-3.0v7 M-2.5,-0.5L0,-3.0L2.5,-0.5"/>
                </g>
                <g id="arrowLeft" xlink:href="#dirArrow" transform="rotate(270) translate(-36 17)" onmousedown="handlePan(-1,0)">
                  <use xlink:href="#rim" fill="#404040">
                        <set attributeName="fill" to="#808080" begin="arrowLeft.mouseover" end="arrowLeft.mouseout"/>
                  </use>
                  <path fill="none" stroke="white" stroke-width="1.5" d="M0,-3.0v7 M-2.5,-0.5L0,-3.0L2.5,-0.5"/>
                </g>
        </g>
        <svg viewBox="0 0 15 15" width="100%" height="30px" preserveAspectRatio="xMaxYMin meet">
         <g id="arrow_out" transform="scale(0.3 0.3)">
          <a xlink:href="classopenage_1_1log_1_1_log_sink__coll__graph_org.svg" target="_base">
           <rect id="button" ry="5" rx="5" y="6" x="6" height="38" width="38"
                fill="#f2f5e9" fill-opacity="0.5" stroke="#606060" stroke-width="1.0"/>
           <path id="arrow"
             d="M 11.500037,31.436501 C 11.940474,20.09759 22.043105,11.32322 32.158766,21.979434 L 37.068811,17.246167 C 37.068811,17.246167 37.088388,32 37.088388,32 L 22.160133,31.978069 C 22.160133,31.978069 26.997745,27.140456 26.997745,27.140456 C 18.528582,18.264221 13.291696,25.230495 11.500037,31.436501 z"
             style="fill:#404040;"/>
          </a>
         </g>
        </svg>
</svg>
