<?xml version="1.0" encoding="UTF-8" standalone="no"?>
<!DOCTYPE svg PUBLIC "-//W3C//DTD SVG 1.1//EN"
 "http://www.w3.org/Graphics/SVG/1.1/DTD/svg11.dtd">
<!-- Generated by graphviz version 2.38.0 (20140413.2041)
 -->
<!-- Title: openage::ObjectProducer::place Pages: 1 -->
<svg width="1002pt" height="605pt"
 viewBox="0.00 0.00 1002.00 605.25" xmlns="http://www.w3.org/2000/svg" xmlns:xlink="http://www.w3.org/1999/xlink">
<g id="graph0" class="graph" transform="scale(1 1) rotate(0) translate(4 601.254)">
<title>openage::ObjectProducer::place</title>
<polygon fill="white" stroke="none" points="-4,4 -4,-601.254 998,-601.254 998,4 -4,4"/>
<!-- Node38 -->
<g id="node1" class="node"><title>Node38</title>
<g id="a_node1"><a xlink:title="set unit in place – return if placement was successful">
<polygon fill="#bfbfbf" stroke="black" points="0,-338.5 0,-368.5 127,-368.5 127,-338.5 0,-338.5"/>
<text text-anchor="start" x="8" y="-356.5" font-family="Helvetica,sans-Serif" font-size="10.00">openage::ObjectProducer</text>
<text text-anchor="middle" x="63.5" y="-345.5" font-family="Helvetica,sans-Serif" font-size="10.00">::place</text>
</a>
</g>
</g>
<!-- Node39 -->
<g id="node2" class="node"><title>Node39</title>
<g id="a_node2"><a xlink:href="namespaceopenage.xhtml#a012c2c0bdd9534a3d648ada6c608ebf2" target="_top" xlink:title=" ">
<polygon fill="white" stroke="black" points="163,-388 163,-407 292,-407 292,-388 163,-388"/>
<text text-anchor="middle" x="227.5" y="-395" font-family="Helvetica,sans-Serif" font-size="10.00">openage::allowed_terrains</text>
</a>
</g>
</g>
<!-- Node38&#45;&gt;Node39 -->
<g id="edge1" class="edge"><title>Node38&#45;&gt;Node39</title>
<path fill="none" stroke="midnightblue" d="M119.798,-368.519C139.936,-373.989 162.439,-380.101 181.569,-385.296"/>
<polygon fill="midnightblue" stroke="midnightblue" points="180.667,-388.678 191.235,-387.922 182.502,-381.923 180.667,-388.678"/>
</g>
<!-- Node42 -->
<g id="node5" class="node"><title>Node42</title>
<g id="a_node5"><a xlink:href="classopenage_1_1log_1_1_log_source.xhtml#a5640099e20af4cd368c767dbcef3a1df" target="_top" xlink:title="Logs a message (get one via MSG(level)).">
<polygon fill="white" stroke="black" points="519,-500 519,-519 662,-519 662,-500 519,-500"/>
<text text-anchor="middle" x="590.5" y="-507" font-family="Helvetica,sans-Serif" font-size="10.00">openage::log::LogSource::log</text>
</a>
</g>
</g>
<!-- Node38&#45;&gt;Node42 -->
<g id="edge20" class="edge"><title>Node38&#45;&gt;Node42</title>
<path fill="none" stroke="midnightblue" d="M67.4232,-368.71C75.3837,-405.608 101.136,-500.028 163,-543.5 278.189,-624.443 342.07,-598.216 479,-565.5 511.763,-557.672 545.798,-538.461 567.285,-524.725"/>
<polygon fill="midnightblue" stroke="midnightblue" points="569.238,-527.63 575.686,-519.223 565.403,-521.775 569.238,-527.63"/>
</g>
<!-- Node47 -->
<g id="node10" class="node"><title>Node47</title>
<g id="a_node10"><a xlink:href="classopenage_1_1_terrain_object.xhtml#a9ca18bc39c074f2172f12b4903ba0bb0" target="_top" xlink:title="should this object be tested for collisions, which decides whether another object is allowed to overl...">
<polygon fill="white" stroke="black" points="169,-504.5 169,-534.5 286,-534.5 286,-504.5 169,-504.5"/>
<text text-anchor="start" x="177" y="-522.5" font-family="Helvetica,sans-Serif" font-size="10.00">openage::TerrainObject</text>
<text text-anchor="middle" x="227.5" y="-511.5" font-family="Helvetica,sans-Serif" font-size="10.00">::check_collisions</text>
</a>
</g>
</g>
<!-- Node38&#45;&gt;Node47 -->
<g id="edge9" class="edge"><title>Node38&#45;&gt;Node47</title>
<path fill="none" stroke="midnightblue" d="M71.5991,-368.539C85.4829,-396.499 118.778,-456.873 163,-492.5 166.112,-495.007 169.491,-497.319 173.015,-499.445"/>
<polygon fill="midnightblue" stroke="midnightblue" points="171.548,-502.632 182.003,-504.348 174.901,-496.487 171.548,-502.632"/>
</g>
<!-- Node49 -->
<g id="node12" class="node"><title>Node49</title>
<g id="a_node12"><a xlink:href="namespaceopenage_1_1log.xhtml#aad3d76b2466dbc4f81552935f2d84faa" target="_top" xlink:title="debug message">
<polygon fill="white" stroke="black" points="183.5,-426 183.5,-445 271.5,-445 271.5,-426 183.5,-426"/>
<text text-anchor="middle" x="227.5" y="-433" font-family="Helvetica,sans-Serif" font-size="10.00">openage.log.dbg</text>
</a>
</g>
</g>
<!-- Node38&#45;&gt;Node49 -->
<g id="edge12" class="edge"><title>Node38&#45;&gt;Node49</title>
<path fill="none" stroke="midnightblue" d="M84.3014,-368.519C103.546,-382.532 134.03,-403.218 163,-416.5 167.969,-418.778 173.28,-420.865 178.635,-422.753"/>
<polygon fill="midnightblue" stroke="midnightblue" points="177.664,-426.118 188.257,-425.935 179.862,-419.472 177.664,-426.118"/>
</g>
<!-- Node50 -->
<g id="node13" class="node"><title>Node50</title>
<g id="a_node13"><a xlink:href="classopenage_1_1_unit.xhtml#ae422123ecc6a2e930ba86e45bf8a5a37" target="_top" xlink:title="draws this action by taking the graphic type of the top action the graphic is found from the current ...">
<polygon fill="white" stroke="black" points="176,-464 176,-483 279,-483 279,-464 176,-464"/>
<text text-anchor="middle" x="227.5" y="-471" font-family="Helvetica,sans-Serif" font-size="10.00">openage::Unit::draw</text>
</a>
</g>
</g>
<!-- Node38&#45;&gt;Node50 -->
<g id="edge13" class="edge"><title>Node38&#45;&gt;Node50</title>
<path fill="none" stroke="midnightblue" d="M75.1439,-368.516C91.5389,-390.559 125.075,-431.543 163,-454.5 166.445,-456.586 170.136,-458.456 173.939,-460.131"/>
<polygon fill="midnightblue" stroke="midnightblue" points="172.966,-463.509 183.554,-463.904 175.523,-456.993 172.966,-463.509"/>
</g>
<!-- Node54 -->
<g id="node17" class="node"><title>Node54</title>
<g id="a_node17"><a xlink:href="classopenage_1_1_terrain_object.xhtml#a95d5633a7448be10a5e6274351aac959" target="_top" xlink:title="draws outline of this terrain space in current position">
<polygon fill="white" stroke="black" points="169,-338.5 169,-368.5 286,-368.5 286,-338.5 169,-338.5"/>
<text text-anchor="start" x="177" y="-356.5" font-family="Helvetica,sans-Serif" font-size="10.00">openage::TerrainObject</text>
<text text-anchor="middle" x="227.5" y="-345.5" font-family="Helvetica,sans-Serif" font-size="10.00">::draw_outline</text>
</a>
</g>
</g>
<!-- Node38&#45;&gt;Node54 -->
<g id="edge17" class="edge"><title>Node38&#45;&gt;Node54</title>
<path fill="none" stroke="midnightblue" d="M127.133,-353.5C137.417,-353.5 148.118,-353.5 158.524,-353.5"/>
<polygon fill="midnightblue" stroke="midnightblue" points="158.806,-357 168.806,-353.5 158.806,-350 158.806,-357"/>
</g>
<!-- Node55 -->
<g id="node18" class="node"><title>Node55</title>
<g id="a_node18"><a xlink:href="classopenage_1_1_terrain_object.xhtml#a1fc44d40095260aca43dd9582c61de97" target="_top" xlink:title="returns the range of tiles covered if the object was in the given pos">
<polygon fill="white" stroke="black" points="169,-289.5 169,-319.5 286,-319.5 286,-289.5 169,-289.5"/>
<text text-anchor="start" x="177" y="-307.5" font-family="Helvetica,sans-Serif" font-size="10.00">openage::TerrainObject</text>
<text text-anchor="middle" x="227.5" y="-296.5" font-family="Helvetica,sans-Serif" font-size="10.00">::get_range</text>
</a>
</g>
</g>
<!-- Node38&#45;&gt;Node55 -->
<g id="edge18" class="edge"><title>Node38&#45;&gt;Node55</title>
<path fill="none" stroke="midnightblue" d="M114.427,-338.399C130.981,-333.392 149.575,-327.768 166.788,-322.561"/>
<polygon fill="midnightblue" stroke="midnightblue" points="168.179,-325.797 176.738,-319.552 166.153,-319.097 168.179,-325.797"/>
</g>
<!-- Node56 -->
<g id="node19" class="node"><title>Node56</title>
<g id="a_node19"><a xlink:href="classopenage_1_1_terrain_object.xhtml#ac5837451def43e3c3774e1ea1ba64d02" target="_top" xlink:title="would this intersect with another object if it were positioned at the given point">
<polygon fill="white" stroke="black" points="169,-240.5 169,-270.5 286,-270.5 286,-240.5 169,-240.5"/>
<text text-anchor="start" x="177" y="-258.5" font-family="Helvetica,sans-Serif" font-size="10.00">openage::TerrainObject</text>
<text text-anchor="middle" x="227.5" y="-247.5" font-family="Helvetica,sans-Serif" font-size="10.00">::intersects</text>
</a>
</g>
</g>
<!-- Node38&#45;&gt;Node56 -->
<g id="edge19" class="edge"><title>Node38&#45;&gt;Node56</title>
<path fill="none" stroke="midnightblue" d="M81.6119,-338.247C100.484,-322.02 132.264,-296.404 163,-279.5 166.035,-277.831 169.21,-276.228 172.453,-274.7"/>
<polygon fill="midnightblue" stroke="midnightblue" points="173.991,-277.846 181.713,-270.592 171.153,-271.448 173.991,-277.846"/>
</g>
<!-- Node57 -->
<g id="node20" class="node"><title>Node57</title>
<g id="a_node20"><a xlink:href="classopenage_1_1_unit.xhtml#a76a10b9ab26e62d7b712a6c796052ee3" target="_top" xlink:title="constructs a new location for this unit replacing any existing locatio">
<polygon fill="white" stroke="black" points="174,-191.5 174,-221.5 281,-221.5 281,-191.5 174,-191.5"/>
<text text-anchor="start" x="182" y="-209.5" font-family="Helvetica,sans-Serif" font-size="10.00">openage::Unit::make</text>
<text text-anchor="middle" x="227.5" y="-198.5" font-family="Helvetica,sans-Serif" font-size="10.00">_location</text>
</a>
</g>
</g>
<!-- Node38&#45;&gt;Node57 -->
<g id="edge21" class="edge"><title>Node38&#45;&gt;Node57</title>
<path fill="none" stroke="midnightblue" d="M72.8508,-338.475C87.7755,-312.898 121.395,-260.737 163,-230.5 165.044,-229.015 167.191,-227.61 169.409,-226.282"/>
<polygon fill="midnightblue" stroke="midnightblue" points="171.093,-229.35 178.252,-221.54 167.785,-223.182 171.093,-229.35"/>
</g>
<!-- Node58 -->
<g id="node21" class="node"><title>Node58</title>
<g id="a_node21"><a xlink:href="classopenage_1_1_sound.xhtml#a526acd600cd69f6f421a253fc169398b" target="_top" xlink:title=" ">
<polygon fill="white" stroke="black" points="172,-153 172,-172 283,-172 283,-153 172,-153"/>
<text text-anchor="middle" x="227.5" y="-160" font-family="Helvetica,sans-Serif" font-size="10.00">openage::Sound::play</text>
</a>
</g>
</g>
<!-- Node38&#45;&gt;Node58 -->
<g id="edge22" class="edge"><title>Node38&#45;&gt;Node58</title>
<path fill="none" stroke="midnightblue" d="M68.9173,-338.299C79.4424,-304.791 109.221,-224.17 163,-181.5 165.282,-179.69 167.733,-178.051 170.298,-176.569"/>
<polygon fill="midnightblue" stroke="midnightblue" points="171.946,-179.659 179.377,-172.106 168.858,-173.377 171.946,-179.659"/>
</g>
<!-- Node70 -->
<g id="node33" class="node"><title>Node70</title>
<g id="a_node33"><a xlink:href="namespaceopenage.xhtml#a3a0d4d7c2bc234c442c13758d306f60c" target="_top" xlink:title="get all tiles in the tile range – useful for iterating returns a flat list of tiles between the recta...">
<polygon fill="white" stroke="black" points="182.5,-115 182.5,-134 272.5,-134 272.5,-115 182.5,-115"/>
<text text-anchor="middle" x="227.5" y="-122" font-family="Helvetica,sans-Serif" font-size="10.00">openage::tile_list</text>
</a>
</g>
</g>
<!-- Node38&#45;&gt;Node70 -->
<g id="edge37" class="edge"><title>Node38&#45;&gt;Node70</title>
<path fill="none" stroke="midnightblue" d="M67.2257,-338.235C74.9243,-299.64 100.475,-197.403 163,-143.5 166.05,-140.87 169.454,-138.604 173.056,-136.652"/>
<polygon fill="midnightblue" stroke="midnightblue" points="174.691,-139.753 182.335,-132.416 171.784,-133.385 174.691,-139.753"/>
</g>
<!-- Node40 -->
<g id="node3" class="node"><title>Node40</title>
<g id="a_node3"><a xlink:href="namespaceopenage_1_1log.xhtml#a0eff614e7d6e818746700ed9d29e583f" target="_top" xlink:title="Convenience method that makes use of the &#39;general&#39; LogSource.">
<polygon fill="white" stroke="black" points="358,-382 358,-401 449,-401 449,-382 358,-382"/>
<text text-anchor="middle" x="403.5" y="-389" font-family="Helvetica,sans-Serif" font-size="10.00">openage::log::log</text>
</a>
</g>
</g>
<!-- Node39&#45;&gt;Node40 -->
<g id="edge2" class="edge"><title>Node39&#45;&gt;Node40</title>
<path fill="none" stroke="midnightblue" d="M292.303,-395.3C310.465,-394.674 330.081,-393.997 347.659,-393.391"/>
<polygon fill="midnightblue" stroke="midnightblue" points="347.874,-396.886 357.747,-393.043 347.632,-389.89 347.874,-396.886"/>
</g>
<!-- Node46 -->
<g id="node9" class="node"><title>Node46</title>
<g id="a_node9"><a xlink:href="namespaceopenage_1_1log.xhtml#a7ca418e1b1fcf210ff91cd25dc8e6a36" target="_top" xlink:title="warning message">
<polygon fill="white" stroke="black" points="357.5,-344 357.5,-363 449.5,-363 449.5,-344 357.5,-344"/>
<text text-anchor="middle" x="403.5" y="-351" font-family="Helvetica,sans-Serif" font-size="10.00">openage.log.warn</text>
</a>
</g>
</g>
<!-- Node39&#45;&gt;Node46 -->
<g id="edge8" class="edge"><title>Node39&#45;&gt;Node46</title>
<path fill="none" stroke="midnightblue" d="M266.255,-387.953C292.249,-381.38 326.987,-372.595 354.88,-365.542"/>
<polygon fill="midnightblue" stroke="midnightblue" points="355.982,-368.874 364.818,-363.029 354.265,-362.087 355.982,-368.874"/>
</g>
<!-- Node41 -->
<g id="node4" class="node"><title>Node41</title>
<g id="a_node4"><a xlink:href="namespaceopenage_1_1log.xhtml#a3fbb0c225d01e222648ec28a43507188" target="_top" xlink:title="Returns a reference to a general named log source, for use by log::log().">
<polygon fill="white" stroke="black" points="535.5,-376.5 535.5,-406.5 645.5,-406.5 645.5,-376.5 535.5,-376.5"/>
<text text-anchor="start" x="543.5" y="-394.5" font-family="Helvetica,sans-Serif" font-size="10.00">openage::log::general</text>
<text text-anchor="middle" x="590.5" y="-383.5" font-family="Helvetica,sans-Serif" font-size="10.00">_source</text>
</a>
</g>
</g>
<!-- Node40&#45;&gt;Node41 -->
<g id="edge3" class="edge"><title>Node40&#45;&gt;Node41</title>
<path fill="none" stroke="midnightblue" d="M449.283,-391.5C472.028,-391.5 500.073,-391.5 525.09,-391.5"/>
<polygon fill="midnightblue" stroke="midnightblue" points="525.236,-395 535.236,-391.5 525.236,-388 525.236,-395"/>
</g>
<!-- Node40&#45;&gt;Node42 -->
<g id="edge4" class="edge"><title>Node40&#45;&gt;Node42</title>
<path fill="none" stroke="midnightblue" d="M449.143,-399.175C459.31,-401.92 469.814,-405.599 479,-410.5 518.697,-431.681 555.669,-470.051 575.151,-492.291"/>
<polygon fill="midnightblue" stroke="midnightblue" points="572.562,-494.647 581.731,-499.955 577.873,-490.087 572.562,-494.647"/>
</g>
<!-- Node43 -->
<g id="node6" class="node"><title>Node43</title>
<g id="a_node6"><a xlink:href="namespaceopenage_1_1log.xhtml#a3d2885be9c3a09b9ff7ee8764b2e5f39" target="_top" xlink:title="Returns a reference to the global stdout logsink object; Initializes the object if needed.">
<polygon fill="white" stroke="black" points="724,-543.5 724,-573.5 828,-573.5 828,-543.5 724,-543.5"/>
<text text-anchor="start" x="732" y="-561.5" font-family="Helvetica,sans-Serif" font-size="10.00">openage::log::global</text>
<text text-anchor="middle" x="776" y="-550.5" font-family="Helvetica,sans-Serif" font-size="10.00">_stdoutsink</text>
</a>
</g>
</g>
<!-- Node42&#45;&gt;Node43 -->
<g id="edge5" class="edge"><title>Node42&#45;&gt;Node43</title>
<path fill="none" stroke="midnightblue" d="M627.316,-519.064C651.947,-525.641 685.276,-534.541 714.038,-542.221"/>
<polygon fill="midnightblue" stroke="midnightblue" points="713.435,-545.683 723.999,-544.881 715.241,-538.92 713.435,-545.683"/>
</g>
<!-- Node44 -->
<g id="node7" class="node"><title>Node44</title>
<g id="a_node7"><a xlink:href="classopenage_1_1log_1_1_log_sink_list.xhtml#a2d47416fab12651553b4b58c86fd6f84" target="_top" xlink:title=" ">
<polygon fill="white" stroke="black" points="711.5,-494.5 711.5,-524.5 840.5,-524.5 840.5,-494.5 711.5,-494.5"/>
<text text-anchor="start" x="719.5" y="-512.5" font-family="Helvetica,sans-Serif" font-size="10.00">openage::log::LogSinkList</text>
<text text-anchor="middle" x="776" y="-501.5" font-family="Helvetica,sans-Serif" font-size="10.00">::instance</text>
</a>
</g>
</g>
<!-- Node42&#45;&gt;Node44 -->
<g id="edge6" class="edge"><title>Node42&#45;&gt;Node44</title>
<path fill="none" stroke="midnightblue" d="M662.183,-509.5C674.93,-509.5 688.25,-509.5 701.085,-509.5"/>
<polygon fill="midnightblue" stroke="midnightblue" points="701.255,-513 711.255,-509.5 701.255,-506 701.255,-513"/>
</g>
<!-- Node45 -->
<g id="node8" class="node"><title>Node45</title>
<g id="a_node8"><a xlink:href="classopenage_1_1log_1_1_log_sink_list.xhtml#a8456b84ab55e1fe151c51438c5bfebdd" target="_top" xlink:title=" ">
<polygon fill="white" stroke="black" points="702,-456 702,-475 850,-475 850,-456 702,-456"/>
<text text-anchor="middle" x="776" y="-463" font-family="Helvetica,sans-Serif" font-size="10.00">openage::log::LogSinkList::log</text>
</a>
</g>
</g>
<!-- Node42&#45;&gt;Node45 -->
<g id="edge7" class="edge"><title>Node42&#45;&gt;Node45</title>
<path fill="none" stroke="midnightblue" d="M631.317,-499.953C658.85,-493.351 695.686,-484.518 725.167,-477.449"/>
<polygon fill="midnightblue" stroke="midnightblue" points="726.353,-480.764 735.261,-475.029 724.72,-473.957 726.353,-480.764"/>
</g>
<!-- Node48 -->
<g id="node11" class="node"><title>Node48</title>
<g id="a_node11"><a xlink:href="classopenage_1_1_terrain_object.xhtml#ad4fa56a3ee5387e217fa8d9297acda7b" target="_top" xlink:title="returns true if this object has been placed.">
<polygon fill="white" stroke="black" points="345,-507.5 345,-537.5 462,-537.5 462,-507.5 345,-507.5"/>
<text text-anchor="start" x="353" y="-525.5" font-family="Helvetica,sans-Serif" font-size="10.00">openage::TerrainObject</text>
<text text-anchor="middle" x="403.5" y="-514.5" font-family="Helvetica,sans-Serif" font-size="10.00">::is_placed</text>
</a>
</g>
</g>
<!-- Node47&#45;&gt;Node48 -->
<g id="edge10" class="edge"><title>Node47&#45;&gt;Node48</title>
<path fill="none" stroke="midnightblue" d="M286.439,-520.499C301.848,-520.765 318.63,-521.054 334.522,-521.328"/>
<polygon fill="midnightblue" stroke="midnightblue" points="334.755,-524.832 344.814,-521.505 334.875,-517.833 334.755,-524.832"/>
</g>
<!-- Node48&#45;&gt;Node48 -->
<g id="edge11" class="edge"><title>Node48&#45;&gt;Node48</title>
<path fill="none" stroke="midnightblue" d="M372.828,-537.659C365.432,-547.057 375.656,-556 403.5,-556 420.467,-556 430.892,-552.679 434.773,-547.958"/>
<polygon fill="midnightblue" stroke="midnightblue" points="438.249,-547.438 434.172,-537.659 431.261,-547.846 438.249,-547.438"/>
</g>
<!-- Node51 -->
<g id="node14" class="node"><title>Node51</title>
<g id="a_node14"><a xlink:href="classopenage_1_1_unit.xhtml#a86a49987e082055274e98a142baffad8" target="_top" xlink:title="returns the current action on top of the stack">
<polygon fill="white" stroke="black" points="355.5,-420 355.5,-439 451.5,-439 451.5,-420 355.5,-420"/>
<text text-anchor="middle" x="403.5" y="-427" font-family="Helvetica,sans-Serif" font-size="10.00">openage::Unit::top</text>
</a>
</g>
</g>
<!-- Node50&#45;&gt;Node51 -->
<g id="edge14" class="edge"><title>Node50&#45;&gt;Node51</title>
<path fill="none" stroke="midnightblue" d="M266.255,-463.953C292.249,-457.38 326.987,-448.595 354.88,-441.542"/>
<polygon fill="midnightblue" stroke="midnightblue" points="355.982,-444.874 364.818,-439.029 354.265,-438.087 355.982,-444.874"/>
</g>
<!-- Node53 -->
<g id="node16" class="node"><title>Node53</title>
<g id="a_node16"><a xlink:href="classopenage_1_1_unit_action.xhtml#a6cd7405af72dd0cf3994cee74608cf8b" target="_top" xlink:title="determines which graphic should be used for drawing this unit finds the default graphic using the uni...">
<polygon fill="white" stroke="black" points="351.5,-458.5 351.5,-488.5 455.5,-488.5 455.5,-458.5 351.5,-458.5"/>
<text text-anchor="start" x="359.5" y="-476.5" font-family="Helvetica,sans-Serif" font-size="10.00">openage::UnitAction</text>
<text text-anchor="middle" x="403.5" y="-465.5" font-family="Helvetica,sans-Serif" font-size="10.00">::current_graphics</text>
</a>
</g>
</g>
<!-- Node50&#45;&gt;Node53 -->
<g id="edge16" class="edge"><title>Node50&#45;&gt;Node53</title>
<path fill="none" stroke="midnightblue" d="M279.296,-473.5C298.689,-473.5 321.004,-473.5 341.268,-473.5"/>
<polygon fill="midnightblue" stroke="midnightblue" points="341.34,-477 351.34,-473.5 341.34,-470 341.34,-477"/>
</g>
<!-- Node52 -->
<g id="node15" class="node"><title>Node52</title>
<g id="a_node15"><a xlink:href="namespaceopenage_1_1log.xhtml#a325b0901ddb3f2af36f93781b7dd9744" target="_top" xlink:title="error message">
<polygon fill="white" stroke="black" points="549,-270 549,-289 632,-289 632,-270 549,-270"/>
<text text-anchor="middle" x="590.5" y="-277" font-family="Helvetica,sans-Serif" font-size="10.00">openage.log.err</text>
</a>
</g>
</g>
<!-- Node51&#45;&gt;Node52 -->
<g id="edge15" class="edge"><title>Node51&#45;&gt;Node52</title>
<path fill="none" stroke="midnightblue" d="M451.684,-422.282C461.194,-419.532 470.783,-415.737 479,-410.5 500.308,-396.921 498.782,-385.875 515,-366.5 535.402,-342.127 559.371,-314.272 574.499,-296.786"/>
<polygon fill="midnightblue" stroke="midnightblue" points="577.259,-298.946 581.161,-289.095 571.968,-294.362 577.259,-298.946"/>
</g>
<!-- Node58&#45;&gt;Node40 -->
<g id="edge35" class="edge"><title>Node58&#45;&gt;Node40</title>
<path fill="none" stroke="midnightblue" d="M279.741,-172.103C284.325,-174.57 288.535,-177.652 292,-181.5 349.811,-245.687 268.885,-309.512 328,-372.5 333.524,-378.385 340.594,-382.551 348.173,-385.48"/>
<polygon fill="midnightblue" stroke="midnightblue" points="347.377,-388.898 357.967,-388.565 349.481,-382.222 347.377,-388.898"/>
</g>
<!-- Node58&#45;&gt;Node46 -->
<g id="edge36" class="edge"><title>Node58&#45;&gt;Node46</title>
<path fill="none" stroke="midnightblue" d="M279.253,-172.107C283.99,-174.57 288.368,-177.65 292,-181.5 339.642,-231.998 279.644,-283.686 328,-333.5 333.509,-339.175 340.442,-343.297 347.848,-346.279"/>
<polygon fill="midnightblue" stroke="midnightblue" points="346.817,-349.624 357.411,-349.478 349.038,-342.986 346.817,-349.624"/>
</g>
<!-- Node59 -->
<g id="node22" class="node"><title>Node59</title>
<g id="a_node22"><a xlink:href="namespaceopenage_1_1rng.xhtml#a398e36f7942536cd461ca212dfee6cb5" target="_top" xlink:title="Returns a random number n [lower, upper) from the global rng.">
<polygon fill="white" stroke="black" points="348,-98.5 348,-128.5 459,-128.5 459,-98.5 348,-98.5"/>
<text text-anchor="start" x="356" y="-116.5" font-family="Helvetica,sans-Serif" font-size="10.00">openage::rng::random</text>
<text text-anchor="middle" x="403.5" y="-105.5" font-family="Helvetica,sans-Serif" font-size="10.00">_range</text>
</a>
</g>
</g>
<!-- Node58&#45;&gt;Node59 -->
<g id="edge23" class="edge"><title>Node58&#45;&gt;Node59</title>
<path fill="none" stroke="midnightblue" d="M262.462,-152.936C284.299,-146.787 313.344,-138.607 339.32,-131.292"/>
<polygon fill="midnightblue" stroke="midnightblue" points="340.427,-134.617 349.103,-128.537 338.529,-127.879 340.427,-134.617"/>
</g>
<!-- Node63 -->
<g id="node26" class="node"><title>Node63</title>
<g id="a_node26"><a xlink:href="classopenage_1_1_game_spec.xhtml#a3a21c92c49ec4d0add95e8aacd83ebe0" target="_top" xlink:title="Return the asset manager used for loading resources of this game specification.">
<polygon fill="white" stroke="black" points="346.5,-49.5 346.5,-79.5 460.5,-79.5 460.5,-49.5 346.5,-49.5"/>
<text text-anchor="start" x="354.5" y="-67.5" font-family="Helvetica,sans-Serif" font-size="10.00">openage::GameSpec::</text>
<text text-anchor="middle" x="403.5" y="-56.5" font-family="Helvetica,sans-Serif" font-size="10.00">get_asset_manager</text>
</a>
</g>
</g>
<!-- Node58&#45;&gt;Node63 -->
<g id="edge27" class="edge"><title>Node58&#45;&gt;Node63</title>
<path fill="none" stroke="midnightblue" d="M274.756,-152.886C280.891,-150.43 286.835,-147.353 292,-143.5 315.416,-126.03 304.768,-106.214 328,-88.5 330.842,-86.3333 333.886,-84.3586 337.06,-82.5591"/>
<polygon fill="midnightblue" stroke="midnightblue" points="338.917,-85.5435 346.294,-77.9384 335.785,-79.2836 338.917,-85.5435"/>
</g>
<!-- Node64 -->
<g id="node27" class="node"><title>Node64</title>
<g id="a_node27"><a xlink:href="classopenage_1_1_asset_manager.xhtml#a50069b4b3cd4b5fcf8fb5f4b480c721d" target="_top" xlink:title="Return the engine responsible for this asset manager.">
<polygon fill="white" stroke="black" points="342.5,-0.5 342.5,-30.5 464.5,-30.5 464.5,-0.5 342.5,-0.5"/>
<text text-anchor="start" x="350.5" y="-18.5" font-family="Helvetica,sans-Serif" font-size="10.00">openage::AssetManager</text>
<text text-anchor="middle" x="403.5" y="-7.5" font-family="Helvetica,sans-Serif" font-size="10.00">::get_engine</text>
</a>
</g>
</g>
<!-- Node58&#45;&gt;Node64 -->
<g id="edge28" class="edge"><title>Node58&#45;&gt;Node64</title>
<path fill="none" stroke="midnightblue" d="M277.926,-152.974C283.09,-150.505 287.929,-147.401 292,-143.5 327.314,-109.656 293.042,-73.7114 328,-39.5 329.697,-37.8397 331.508,-36.2943 333.412,-34.8557"/>
<polygon fill="midnightblue" stroke="midnightblue" points="335.721,-37.5347 342.273,-29.2084 331.959,-31.6317 335.721,-37.5347"/>
</g>
<!-- Node65 -->
<g id="node28" class="node"><title>Node65</title>
<g id="a_node28"><a xlink:href="classopenage_1_1_engine.xhtml#ad925a7a6258d1382edd274ee4ceafdbd" target="_top" xlink:title="return this engine&#39;s audio manager.">
<polygon fill="white" stroke="black" points="349,-294.5 349,-324.5 458,-324.5 458,-294.5 349,-294.5"/>
<text text-anchor="start" x="357" y="-312.5" font-family="Helvetica,sans-Serif" font-size="10.00">openage::Engine::get</text>
<text text-anchor="middle" x="403.5" y="-301.5" font-family="Helvetica,sans-Serif" font-size="10.00">_audio_manager</text>
</a>
</g>
</g>
<!-- Node58&#45;&gt;Node65 -->
<g id="edge29" class="edge"><title>Node58&#45;&gt;Node65</title>
<path fill="none" stroke="midnightblue" d="M277.915,-172.038C283.081,-174.504 287.923,-177.605 292,-181.5 327.061,-215.001 293.497,-250.425 328,-284.5 331.516,-287.972 335.528,-290.962 339.826,-293.537"/>
<polygon fill="midnightblue" stroke="midnightblue" points="338.489,-296.786 348.981,-298.261 341.699,-290.565 338.489,-296.786"/>
</g>
<!-- Node66 -->
<g id="node29" class="node"><title>Node66</title>
<g id="a_node29"><a xlink:href="classopenage_1_1audio_1_1_audio_manager.xhtml#a6df7195e7f02f6959a9a241037e48657" target="_top" xlink:title="If this audio manager is available.">
<polygon fill="white" stroke="black" points="328,-245.5 328,-275.5 479,-275.5 479,-245.5 328,-245.5"/>
<text text-anchor="start" x="336" y="-263.5" font-family="Helvetica,sans-Serif" font-size="10.00">openage::audio::AudioManager</text>
<text text-anchor="middle" x="403.5" y="-252.5" font-family="Helvetica,sans-Serif" font-size="10.00">::is_available</text>
</a>
</g>
</g>
<!-- Node58&#45;&gt;Node66 -->
<g id="edge30" class="edge"><title>Node58&#45;&gt;Node66</title>
<path fill="none" stroke="midnightblue" d="M274.398,-172.024C280.653,-174.495 286.726,-177.6 292,-181.5 315.192,-198.651 305.095,-217.969 328,-235.5 330.336,-237.288 332.807,-238.952 335.374,-240.501"/>
<polygon fill="midnightblue" stroke="midnightblue" points="333.943,-243.704 344.412,-245.332 337.243,-237.531 333.943,-243.704"/>
</g>
<!-- Node67 -->
<g id="node30" class="node"><title>Node67</title>
<g id="a_node30"><a xlink:href="classopenage_1_1audio_1_1_audio_manager.xhtml#a4fcd0ea2e63f5035df72bdceb0ac22f2" target="_top" xlink:title="Returns a sound object with the given category and the given id.">
<polygon fill="white" stroke="black" points="328,-196.5 328,-226.5 479,-226.5 479,-196.5 328,-196.5"/>
<text text-anchor="start" x="336" y="-214.5" font-family="Helvetica,sans-Serif" font-size="10.00">openage::audio::AudioManager</text>
<text text-anchor="middle" x="403.5" y="-203.5" font-family="Helvetica,sans-Serif" font-size="10.00">::get_sound</text>
</a>
</g>
</g>
<!-- Node58&#45;&gt;Node67 -->
<g id="edge31" class="edge"><title>Node58&#45;&gt;Node67</title>
<path fill="none" stroke="midnightblue" d="M262.462,-172.064C284.299,-178.213 313.344,-186.393 339.32,-193.708"/>
<polygon fill="midnightblue" stroke="midnightblue" points="338.529,-197.121 349.103,-196.463 340.427,-190.383 338.529,-197.121"/>
</g>
<!-- Node68 -->
<g id="node31" class="node"><title>Node68</title>
<g id="a_node31"><a xlink:href="classopenage_1_1audio_1_1_sound.xhtml#a7e4854e55386f2498a332eed36e374d4" target="_top" xlink:title="Resets the sound to it&#39;s beginning and starts playing it.">
<polygon fill="white" stroke="black" points="345.5,-147.5 345.5,-177.5 461.5,-177.5 461.5,-147.5 345.5,-147.5"/>
<text text-anchor="start" x="353.5" y="-165.5" font-family="Helvetica,sans-Serif" font-size="10.00">openage::audio::Sound</text>
<text text-anchor="middle" x="403.5" y="-154.5" font-family="Helvetica,sans-Serif" font-size="10.00">::play</text>
</a>
</g>
</g>
<!-- Node58&#45;&gt;Node68 -->
<g id="edge33" class="edge"><title>Node58&#45;&gt;Node68</title>
<path fill="none" stroke="midnightblue" d="M283.077,-162.5C299.657,-162.5 318.069,-162.5 335.374,-162.5"/>
<polygon fill="midnightblue" stroke="midnightblue" points="335.412,-166 345.412,-162.5 335.412,-159 335.412,-166"/>
</g>
<!-- Node60 -->
<g id="node23" class="node"><title>Node60</title>
<g id="a_node23"><a xlink:href="classopenage_1_1rng_1_1_r_n_g.xhtml#ad7b2ba8c495b7ee100b7708b633bc060" target="_top" xlink:title="Returns a random integer in the range [lower, upper].">
<polygon fill="white" stroke="black" points="537.5,-98.5 537.5,-128.5 643.5,-128.5 643.5,-98.5 537.5,-98.5"/>
<text text-anchor="start" x="545.5" y="-116.5" font-family="Helvetica,sans-Serif" font-size="10.00">openage::rng::RNG::</text>
<text text-anchor="middle" x="590.5" y="-105.5" font-family="Helvetica,sans-Serif" font-size="10.00">random_range</text>
</a>
</g>
</g>
<!-- Node59&#45;&gt;Node60 -->
<g id="edge24" class="edge"><title>Node59&#45;&gt;Node60</title>
<path fill="none" stroke="midnightblue" d="M459.006,-113.5C480.352,-113.5 504.966,-113.5 527.025,-113.5"/>
<polygon fill="midnightblue" stroke="midnightblue" points="527.29,-117 537.29,-113.5 527.29,-110 527.29,-117"/>
</g>
<!-- Node61 -->
<g id="node24" class="node"><title>Node61</title>
<g id="a_node24"><a xlink:href="classopenage_1_1rng_1_1_r_n_g.xhtml#a95f8c2c7e00ab2531e0e6c33ae70e154" target="_top" xlink:title="Retrieves a random value from the generator.">
<polygon fill="white" stroke="black" points="723,-98.5 723,-128.5 829,-128.5 829,-98.5 723,-98.5"/>
<text text-anchor="start" x="731" y="-116.5" font-family="Helvetica,sans-Serif" font-size="10.00">openage::rng::RNG::</text>
<text text-anchor="middle" x="776" y="-105.5" font-family="Helvetica,sans-Serif" font-size="10.00">random</text>
</a>
</g>
</g>
<!-- Node60&#45;&gt;Node61 -->
<g id="edge25" class="edge"><title>Node60&#45;&gt;Node61</title>
<path fill="none" stroke="midnightblue" d="M643.593,-113.5C665.094,-113.5 690.193,-113.5 712.661,-113.5"/>
<polygon fill="midnightblue" stroke="midnightblue" points="712.777,-117 722.777,-113.5 712.777,-110 712.777,-117"/>
</g>
<!-- Node62 -->
<g id="node25" class="node"><title>Node62</title>
<g id="a_node25"><a xlink:href="namespaceopenage_1_1rng.xhtml#af7d90437e58aaa4fe1d816ad7b62dc07" target="_top" xlink:title=" ">
<polygon fill="white" stroke="black" points="886,-104 886,-123 994,-123 994,-104 886,-104"/>
<text text-anchor="middle" x="940" y="-111" font-family="Helvetica,sans-Serif" font-size="10.00">openage::rng::do_rng</text>
</a>
</g>
</g>
<!-- Node61&#45;&gt;Node62 -->
<g id="edge26" class="edge"><title>Node61&#45;&gt;Node62</title>
<path fill="none" stroke="midnightblue" d="M829.15,-113.5C843.879,-113.5 860.074,-113.5 875.396,-113.5"/>
<polygon fill="midnightblue" stroke="midnightblue" points="875.836,-117 885.836,-113.5 875.836,-110 875.836,-117"/>
</g>
<!-- Node67&#45;&gt;Node52 -->
<g id="edge32" class="edge"><title>Node67&#45;&gt;Node52</title>
<path fill="none" stroke="midnightblue" d="M452.752,-226.52C461.521,-229.399 470.561,-232.464 479,-235.5 505.622,-245.076 535.401,-257.006 557.331,-266.027"/>
<polygon fill="midnightblue" stroke="midnightblue" points="556.236,-269.361 566.815,-269.948 558.911,-262.892 556.236,-269.361"/>
</g>
<!-- Node69 -->
<g id="node32" class="node"><title>Node69</title>
<g id="a_node32"><a xlink:href="classopenage_1_1audio_1_1_audio_manager.xhtml#a558810ebb9233d8f80da70d48b0bf282" target="_top" xlink:title=" ">
<polygon fill="white" stroke="black" points="515,-147.5 515,-177.5 666,-177.5 666,-147.5 515,-147.5"/>
<text text-anchor="start" x="523" y="-165.5" font-family="Helvetica,sans-Serif" font-size="10.00">openage::audio::AudioManager</text>
<text text-anchor="middle" x="590.5" y="-154.5" font-family="Helvetica,sans-Serif" font-size="10.00">::add_sound</text>
</a>
</g>
</g>
<!-- Node68&#45;&gt;Node69 -->
<g id="edge34" class="edge"><title>Node68&#45;&gt;Node69</title>
<path fill="none" stroke="midnightblue" d="M461.516,-162.5C475.231,-162.5 490.173,-162.5 504.85,-162.5"/>
<polygon fill="midnightblue" stroke="midnightblue" points="504.95,-166 514.95,-162.5 504.95,-159 504.95,-166"/>
</g>
</g>
</svg>
