<?xml version="1.0" encoding="UTF-8" standalone="no"?>
<!DOCTYPE svg PUBLIC "-//W3C//DTD SVG 1.1//EN"
 "http://www.w3.org/Graphics/SVG/1.1/DTD/svg11.dtd">
<!-- Generated by graphviz version 2.38.0 (20140413.2041)
 -->
<!-- Title: openage::event::Event Pages: 1 -->
<svg width="415pt" height="600pt"
 viewBox="0.00 0.00 414.50 600.00" xmlns="http://www.w3.org/2000/svg" xmlns:xlink="http://www.w3.org/1999/xlink">
<g id="graph0" class="graph" transform="scale(1 1) rotate(0) translate(4 596)">
<title>openage::event::Event</title>
<polygon fill="white" stroke="none" points="-4,4 -4,-596 410.5,-596 410.5,4 -4,4"/>
<!-- Node2 -->
<g id="node1" class="node"><title>Node2</title>
<g id="a_node1"><a xlink:title=" ">
<polygon fill="#bfbfbf" stroke="black" points="135,-0.5 135,-178.5 247,-178.5 247,-0.5 135,-0.5"/>
<text text-anchor="middle" x="191" y="-166.5" font-family="Helvetica,sans-Serif" font-size="10.00">openage::event::Event</text>
<polyline fill="none" stroke="black" points="135,-159.5 247,-159.5 "/>
<text text-anchor="start" x="143" y="-147.5" font-family="Helvetica,sans-Serif" font-size="10.00">&#45; target</text>
<text text-anchor="start" x="143" y="-136.5" font-family="Helvetica,sans-Serif" font-size="10.00">&#45; eventclass</text>
<text text-anchor="start" x="143" y="-125.5" font-family="Helvetica,sans-Serif" font-size="10.00">&#45; myhash</text>
<polyline fill="none" stroke="black" points="135,-118.5 247,-118.5 "/>
<text text-anchor="start" x="143" y="-106.5" font-family="Helvetica,sans-Serif" font-size="10.00">+ Event()</text>
<text text-anchor="start" x="143" y="-95.5" font-family="Helvetica,sans-Serif" font-size="10.00">+ get_target()</text>
<text text-anchor="start" x="143" y="-84.5" font-family="Helvetica,sans-Serif" font-size="10.00">+ get_eventclass()</text>
<text text-anchor="start" x="143" y="-73.5" font-family="Helvetica,sans-Serif" font-size="10.00">+ reschedule()</text>
<text text-anchor="start" x="143" y="-62.5" font-family="Helvetica,sans-Serif" font-size="10.00">+ hash()</text>
<text text-anchor="start" x="143" y="-51.5" font-family="Helvetica,sans-Serif" font-size="10.00">+ get_time()</text>
<text text-anchor="start" x="143" y="-40.5" font-family="Helvetica,sans-Serif" font-size="10.00">+ set_time()</text>
<text text-anchor="start" x="143" y="-29.5" font-family="Helvetica,sans-Serif" font-size="10.00">+ get_params()</text>
<text text-anchor="start" x="143" y="-18.5" font-family="Helvetica,sans-Serif" font-size="10.00">+ depend_on()</text>
<text text-anchor="start" x="143" y="-7.5" font-family="Helvetica,sans-Serif" font-size="10.00">+ operator&lt;()</text>
</a>
</g>
</g>
<!-- Node3 -->
<g id="node2" class="node"><title>Node3</title>
<g id="a_node2"><a xlink:title=" ">
<polygon fill="white" stroke="#bfbfbf" points="0,-380.5 0,-448.5 104,-448.5 104,-380.5 0,-380.5"/>
<text text-anchor="start" x="8" y="-436.5" font-family="Helvetica,sans-Serif" font-size="10.00">std::enable_shared</text>
<text text-anchor="middle" x="52" y="-425.5" font-family="Helvetica,sans-Serif" font-size="10.00">_from_this&lt; Event &gt;</text>
<polyline fill="none" stroke="#bfbfbf" points="0,-418.5 104,-418.5 "/>
<text text-anchor="middle" x="52" y="-406.5" font-family="Helvetica,sans-Serif" font-size="10.00"> </text>
<polyline fill="none" stroke="#bfbfbf" points="0,-399.5 104,-399.5 "/>
<text text-anchor="middle" x="52" y="-387.5" font-family="Helvetica,sans-Serif" font-size="10.00"> </text>
</a>
</g>
</g>
<!-- Node3&#45;&gt;Node2 -->
<g id="edge1" class="edge"><title>Node3&#45;&gt;Node2</title>
<path fill="none" stroke="midnightblue" d="M64.7418,-370.64C75.9892,-334.449 93.5826,-281.553 113,-237 121.346,-217.849 131.221,-197.796 141.089,-178.887"/>
<polygon fill="none" stroke="midnightblue" points="61.3393,-369.797 61.7415,-380.384 68.0294,-371.857 61.3393,-369.797"/>
</g>
<!-- Node4 -->
<g id="node3" class="node"><title>Node4</title>
<g id="a_node3"><a xlink:href="classopenage_1_1event_1_1_event_class_1_1param__map.xhtml" target="_top" xlink:title=" ">
<polygon fill="white" stroke="black" points="122.5,-347.5 122.5,-481.5 259.5,-481.5 259.5,-347.5 122.5,-347.5"/>
<text text-anchor="start" x="130.5" y="-469.5" font-family="Helvetica,sans-Serif" font-size="10.00">openage::event::EventClass</text>
<text text-anchor="middle" x="191" y="-458.5" font-family="Helvetica,sans-Serif" font-size="10.00">::param_map</text>
<polyline fill="none" stroke="black" points="122.5,-451.5 259.5,-451.5 "/>
<text text-anchor="start" x="130.5" y="-439.5" font-family="Helvetica,sans-Serif" font-size="10.00">&#45; map</text>
<polyline fill="none" stroke="black" points="122.5,-432.5 259.5,-432.5 "/>
<text text-anchor="start" x="130.5" y="-420.5" font-family="Helvetica,sans-Serif" font-size="10.00">+ param_map()</text>
<text text-anchor="start" x="130.5" y="-409.5" font-family="Helvetica,sans-Serif" font-size="10.00">+ param_map()</text>
<text text-anchor="start" x="130.5" y="-398.5" font-family="Helvetica,sans-Serif" font-size="10.00">+ param_map()</text>
<text text-anchor="start" x="130.5" y="-387.5" font-family="Helvetica,sans-Serif" font-size="10.00">+ get()</text>
<text text-anchor="start" x="130.5" y="-376.5" font-family="Helvetica,sans-Serif" font-size="10.00">+ contains()</text>
<text text-anchor="start" x="130.5" y="-365.5" font-family="Helvetica,sans-Serif" font-size="10.00">+ check_type()</text>
<text text-anchor="start" x="130.5" y="-354.5" font-family="Helvetica,sans-Serif" font-size="10.00">&#45; check_type()</text>
</a>
</g>
</g>
<!-- Node4&#45;&gt;Node2 -->
<g id="edge2" class="edge"><title>Node4&#45;&gt;Node2</title>
<path fill="none" stroke="#404040" d="M191,-347.357C191,-302.248 191,-241.675 191,-190.681"/>
<polygon fill="none" stroke="#404040" points="191,-190.614 187,-184.614 191,-178.614 195,-184.614 191,-190.614"/>
<text text-anchor="middle" x="210.5" y="-205.5" font-family="Helvetica,sans-Serif" font-size="10.00"> &#45;params</text>
</g>
<!-- Node5 -->
<g id="node4" class="node"><title>Node5</title>
<g id="a_node4"><a xlink:href="classopenage_1_1util_1_1_fixed_point.xhtml" target="_top" xlink:title=" ">
<polygon fill="white" stroke="black" points="277.5,-237.5 277.5,-591.5 406.5,-591.5 406.5,-237.5 277.5,-237.5"/>
<text text-anchor="start" x="285.5" y="-579.5" font-family="Helvetica,sans-Serif" font-size="10.00">openage::util::FixedPoint</text>
<text text-anchor="middle" x="342" y="-568.5" font-family="Helvetica,sans-Serif" font-size="10.00">&lt; int64_t, 16 &gt;</text>
<polyline fill="none" stroke="black" points="277.5,-561.5 406.5,-561.5 "/>
<text text-anchor="start" x="285.5" y="-549.5" font-family="Helvetica,sans-Serif" font-size="10.00">&#45; raw_value</text>
<text text-anchor="start" x="285.5" y="-538.5" font-family="Helvetica,sans-Serif" font-size="10.00">&#45; from_double_factor</text>
<text text-anchor="start" x="285.5" y="-527.5" font-family="Helvetica,sans-Serif" font-size="10.00">&#45; to_double_factor</text>
<text text-anchor="start" x="285.5" y="-516.5" font-family="Helvetica,sans-Serif" font-size="10.00">&#45; from_float_factor</text>
<text text-anchor="start" x="285.5" y="-505.5" font-family="Helvetica,sans-Serif" font-size="10.00">&#45; to_float_factor</text>
<text text-anchor="start" x="285.5" y="-494.5" font-family="Helvetica,sans-Serif" font-size="10.00">&#45; approx_decimal_places</text>
<polyline fill="none" stroke="black" points="277.5,-487.5 406.5,-487.5 "/>
<text text-anchor="start" x="285.5" y="-475.5" font-family="Helvetica,sans-Serif" font-size="10.00">+ FixedPoint()</text>
<text text-anchor="start" x="285.5" y="-464.5" font-family="Helvetica,sans-Serif" font-size="10.00">+ FixedPoint()</text>
<text text-anchor="start" x="285.5" y="-453.5" font-family="Helvetica,sans-Serif" font-size="10.00">+ FixedPoint()</text>
<text text-anchor="start" x="285.5" y="-442.5" font-family="Helvetica,sans-Serif" font-size="10.00">+ FixedPoint()</text>
<text text-anchor="start" x="285.5" y="-431.5" font-family="Helvetica,sans-Serif" font-size="10.00">+ operator=()</text>
<text text-anchor="start" x="285.5" y="-420.5" font-family="Helvetica,sans-Serif" font-size="10.00">+ operator=()</text>
<text text-anchor="start" x="285.5" y="-409.5" font-family="Helvetica,sans-Serif" font-size="10.00">+ get_raw_value()</text>
<text text-anchor="start" x="285.5" y="-398.5" font-family="Helvetica,sans-Serif" font-size="10.00">+ to_int()</text>
<text text-anchor="start" x="285.5" y="-387.5" font-family="Helvetica,sans-Serif" font-size="10.00">+ operator int()</text>
<text text-anchor="start" x="285.5" y="-376.5" font-family="Helvetica,sans-Serif" font-size="10.00">+ to_float()</text>
<text text-anchor="start" x="285.5" y="-365.5" font-family="Helvetica,sans-Serif" font-size="10.00">and 21 more...</text>
<text text-anchor="start" x="285.5" y="-354.5" font-family="Helvetica,sans-Serif" font-size="10.00">+ zero()</text>
<text text-anchor="start" x="285.5" y="-343.5" font-family="Helvetica,sans-Serif" font-size="10.00">+ from_int()</text>
<text text-anchor="start" x="285.5" y="-332.5" font-family="Helvetica,sans-Serif" font-size="10.00">+ from_float()</text>
<text text-anchor="start" x="285.5" y="-321.5" font-family="Helvetica,sans-Serif" font-size="10.00">+ from_double()</text>
<text text-anchor="start" x="285.5" y="-310.5" font-family="Helvetica,sans-Serif" font-size="10.00">+ from_fixedpoint()</text>
<text text-anchor="start" x="285.5" y="-299.5" font-family="Helvetica,sans-Serif" font-size="10.00">+ min_value()</text>
<text text-anchor="start" x="285.5" y="-288.5" font-family="Helvetica,sans-Serif" font-size="10.00">+ max_value()</text>
<text text-anchor="start" x="285.5" y="-277.5" font-family="Helvetica,sans-Serif" font-size="10.00">+ from_raw_value()</text>
<text text-anchor="start" x="285.5" y="-266.5" font-family="Helvetica,sans-Serif" font-size="10.00">&#45; power_of_two()</text>
<text text-anchor="start" x="285.5" y="-255.5" font-family="Helvetica,sans-Serif" font-size="10.00">&#45; fractional_part_bitmask()</text>
<text text-anchor="start" x="285.5" y="-244.5" font-family="Helvetica,sans-Serif" font-size="10.00">&#45; raw_value_from_double()</text>
</a>
</g>
</g>
<!-- Node5&#45;&gt;Node2 -->
<g id="edge3" class="edge"><title>Node5&#45;&gt;Node2</title>
<path fill="none" stroke="#404040" d="M277.357,-257.26C274.244,-250.391 271.117,-243.612 268,-237 260.684,-221.479 252.591,-205.227 244.482,-189.429"/>
<polygon fill="none" stroke="#404040" points="244.385,-189.241 238.076,-185.747 238.875,-178.58 245.183,-182.074 244.385,-189.241"/>
<text text-anchor="middle" x="293" y="-211" font-family="Helvetica,sans-Serif" font-size="10.00"> +last_triggered</text>
<text text-anchor="middle" x="293" y="-200" font-family="Helvetica,sans-Serif" font-size="10.00">&#45;time</text>
</g>
</g>
</svg>
