<?xml version="1.0" encoding="UTF-8" standalone="no"?>
<!DOCTYPE svg PUBLIC "-//W3C//DTD SVG 1.1//EN"
 "http://www.w3.org/Graphics/SVG/1.1/DTD/svg11.dtd">
<!-- Generated by graphviz version 2.38.0 (20140413.2041)
 -->
<!-- Title: openage::Research Pages: 1 -->
<svg width="642pt" height="1329pt"
 viewBox="0.00 0.00 642.00 1329.00" xmlns="http://www.w3.org/2000/svg" xmlns:xlink="http://www.w3.org/1999/xlink">
<g id="graph0" class="graph" transform="scale(1 1) rotate(0) translate(4 1325)">
<title>openage::Research</title>
<polygon fill="white" stroke="none" points="-4,4 -4,-1325 638,-1325 638,4 -4,4"/>
<!-- Node1 -->
<g id="node1" class="node"><title>Node1</title>
<g id="a_node1"><a xlink:title=" ">
<polygon fill="#bfbfbf" stroke="black" points="257,-0.5 257,-145.5 358,-145.5 358,-0.5 257,-0.5"/>
<text text-anchor="middle" x="307.5" y="-133.5" font-family="Helvetica,sans-Serif" font-size="10.00">openage::Research</text>
<polyline fill="none" stroke="black" points="257,-126.5 358,-126.5 "/>
<text text-anchor="start" x="265" y="-114.5" font-family="Helvetica,sans-Serif" font-size="10.00"># active_count</text>
<text text-anchor="start" x="265" y="-103.5" font-family="Helvetica,sans-Serif" font-size="10.00"># completed_count</text>
<polyline fill="none" stroke="black" points="257,-96.5 358,-96.5 "/>
<text text-anchor="start" x="265" y="-84.5" font-family="Helvetica,sans-Serif" font-size="10.00">+ Research()</text>
<text text-anchor="start" x="265" y="-73.5" font-family="Helvetica,sans-Serif" font-size="10.00">+ started()</text>
<text text-anchor="start" x="265" y="-62.5" font-family="Helvetica,sans-Serif" font-size="10.00">+ stopped()</text>
<text text-anchor="start" x="265" y="-51.5" font-family="Helvetica,sans-Serif" font-size="10.00">+ completed()</text>
<text text-anchor="start" x="265" y="-40.5" font-family="Helvetica,sans-Serif" font-size="10.00">+ can_start()</text>
<text text-anchor="start" x="265" y="-29.5" font-family="Helvetica,sans-Serif" font-size="10.00">+ is_active()</text>
<text text-anchor="start" x="265" y="-18.5" font-family="Helvetica,sans-Serif" font-size="10.00">+ is_researched()</text>
<text text-anchor="start" x="265" y="-7.5" font-family="Helvetica,sans-Serif" font-size="10.00">+ apply()</text>
</a>
</g>
</g>
<!-- Node2 -->
<g id="node2" class="node"><title>Node2</title>
<g id="a_node2"><a xlink:href="classopenage_1_1_research_type.xhtml" target="_top" xlink:title=" ">
<polygon fill="white" stroke="black" points="246.5,-193.5 246.5,-338.5 368.5,-338.5 368.5,-193.5 246.5,-193.5"/>
<text text-anchor="middle" x="307.5" y="-326.5" font-family="Helvetica,sans-Serif" font-size="10.00">openage::ResearchType</text>
<polyline fill="none" stroke="black" points="246.5,-319.5 368.5,-319.5 "/>
<text text-anchor="middle" x="307.5" y="-307.5" font-family="Helvetica,sans-Serif" font-size="10.00"> </text>
<polyline fill="none" stroke="black" points="246.5,-300.5 368.5,-300.5 "/>
<text text-anchor="start" x="254.5" y="-288.5" font-family="Helvetica,sans-Serif" font-size="10.00">+ ResearchType()</text>
<text text-anchor="start" x="254.5" y="-277.5" font-family="Helvetica,sans-Serif" font-size="10.00">+ id()</text>
<text text-anchor="start" x="254.5" y="-266.5" font-family="Helvetica,sans-Serif" font-size="10.00">+ name()</text>
<text text-anchor="start" x="254.5" y="-255.5" font-family="Helvetica,sans-Serif" font-size="10.00">+ category()</text>
<text text-anchor="start" x="254.5" y="-244.5" font-family="Helvetica,sans-Serif" font-size="10.00">+ initialise()</text>
<text text-anchor="start" x="254.5" y="-233.5" font-family="Helvetica,sans-Serif" font-size="10.00">+ get_max_repeats()</text>
<text text-anchor="start" x="254.5" y="-222.5" font-family="Helvetica,sans-Serif" font-size="10.00">+ get_research_time()</text>
<text text-anchor="start" x="254.5" y="-211.5" font-family="Helvetica,sans-Serif" font-size="10.00">+ get_research_cost()</text>
<text text-anchor="start" x="254.5" y="-200.5" font-family="Helvetica,sans-Serif" font-size="10.00">+ apply()</text>
</a>
</g>
</g>
<!-- Node2&#45;&gt;Node1 -->
<g id="edge1" class="edge"><title>Node2&#45;&gt;Node1</title>
<path fill="none" stroke="#404040" d="M307.5,-193.335C307.5,-181.786 307.5,-169.741 307.5,-157.935"/>
<polygon fill="none" stroke="#404040" points="307.5,-157.749 303.5,-151.749 307.5,-145.749 311.5,-151.749 307.5,-157.749"/>
<text text-anchor="middle" x="321.5" y="-167" font-family="Helvetica,sans-Serif" font-size="10.00"> +type</text>
</g>
<!-- Node3 -->
<g id="node3" class="node"><title>Node3</title>
<g id="a_node3"><a xlink:href="classopenage_1_1_player.xhtml" target="_top" xlink:title=" ">
<polygon fill="white" stroke="black" points="214.5,-386.5 214.5,-663.5 338.5,-663.5 338.5,-386.5 214.5,-386.5"/>
<text text-anchor="middle" x="276.5" y="-651.5" font-family="Helvetica,sans-Serif" font-size="10.00">openage::Player</text>
<polyline fill="none" stroke="black" points="214.5,-644.5 338.5,-644.5 "/>
<text text-anchor="start" x="222.5" y="-632.5" font-family="Helvetica,sans-Serif" font-size="10.00">+ player_number</text>
<text text-anchor="start" x="222.5" y="-621.5" font-family="Helvetica,sans-Serif" font-size="10.00">+ color</text>
<text text-anchor="start" x="222.5" y="-610.5" font-family="Helvetica,sans-Serif" font-size="10.00">+ name</text>
<text text-anchor="start" x="222.5" y="-599.5" font-family="Helvetica,sans-Serif" font-size="10.00">&#45; available_objects</text>
<text text-anchor="start" x="222.5" y="-588.5" font-family="Helvetica,sans-Serif" font-size="10.00">&#45; available_ids</text>
<text text-anchor="start" x="222.5" y="-577.5" font-family="Helvetica,sans-Serif" font-size="10.00">&#45; units_have</text>
<text text-anchor="start" x="222.5" y="-566.5" font-family="Helvetica,sans-Serif" font-size="10.00">&#45; units_had</text>
<text text-anchor="start" x="222.5" y="-555.5" font-family="Helvetica,sans-Serif" font-size="10.00">&#45; units_pending</text>
<text text-anchor="start" x="222.5" y="-544.5" font-family="Helvetica,sans-Serif" font-size="10.00">&#45; age</text>
<polyline fill="none" stroke="black" points="214.5,-537.5 338.5,-537.5 "/>
<text text-anchor="start" x="222.5" y="-525.5" font-family="Helvetica,sans-Serif" font-size="10.00">+ Player()</text>
<text text-anchor="start" x="222.5" y="-514.5" font-family="Helvetica,sans-Serif" font-size="10.00">+ operator==()</text>
<text text-anchor="start" x="222.5" y="-503.5" font-family="Helvetica,sans-Serif" font-size="10.00">+ is_enemy()</text>
<text text-anchor="start" x="222.5" y="-492.5" font-family="Helvetica,sans-Serif" font-size="10.00">+ is_ally()</text>
<text text-anchor="start" x="222.5" y="-481.5" font-family="Helvetica,sans-Serif" font-size="10.00">+ owns()</text>
<text text-anchor="start" x="222.5" y="-470.5" font-family="Helvetica,sans-Serif" font-size="10.00">+ receive()</text>
<text text-anchor="start" x="222.5" y="-459.5" font-family="Helvetica,sans-Serif" font-size="10.00">+ receive()</text>
<text text-anchor="start" x="222.5" y="-448.5" font-family="Helvetica,sans-Serif" font-size="10.00">+ can_receive()</text>
<text text-anchor="start" x="222.5" y="-437.5" font-family="Helvetica,sans-Serif" font-size="10.00">+ can_receive()</text>
<text text-anchor="start" x="222.5" y="-426.5" font-family="Helvetica,sans-Serif" font-size="10.00">+ deduct()</text>
<text text-anchor="start" x="222.5" y="-415.5" font-family="Helvetica,sans-Serif" font-size="10.00">and 18 more...</text>
<text text-anchor="start" x="222.5" y="-404.5" font-family="Helvetica,sans-Serif" font-size="10.00">&#45; is_unit_pending()</text>
<text text-anchor="start" x="222.5" y="-393.5" font-family="Helvetica,sans-Serif" font-size="10.00">&#45; on_resources_change()</text>
</a>
</g>
</g>
<!-- Node3&#45;&gt;Node2 -->
<g id="edge2" class="edge"><title>Node3&#45;&gt;Node2</title>
<path fill="none" stroke="#404040" d="M293.089,-386.471C294.548,-374.377 295.994,-362.389 297.375,-350.94"/>
<polygon fill="none" stroke="#404040" points="297.408,-350.663 294.156,-344.227 298.845,-338.749 302.098,-345.185 297.408,-350.663"/>
<text text-anchor="middle" x="315" y="-360" font-family="Helvetica,sans-Serif" font-size="10.00"> +owner</text>
</g>
<!-- Node4 -->
<g id="node4" class="node"><title>Node4</title>
<g id="a_node4"><a xlink:href="classopenage_1_1_player_score.xhtml" target="_top" xlink:title=" ">
<polygon fill="white" stroke="black" points="115,-232 115,-300 228,-300 228,-232 115,-232"/>
<text text-anchor="middle" x="171.5" y="-288" font-family="Helvetica,sans-Serif" font-size="10.00">openage::PlayerScore</text>
<polyline fill="none" stroke="black" points="115,-281 228,-281 "/>
<text text-anchor="middle" x="171.5" y="-269" font-family="Helvetica,sans-Serif" font-size="10.00"> </text>
<polyline fill="none" stroke="black" points="115,-262 228,-262 "/>
<text text-anchor="start" x="123" y="-250" font-family="Helvetica,sans-Serif" font-size="10.00">+ PlayerScore()</text>
<text text-anchor="start" x="123" y="-239" font-family="Helvetica,sans-Serif" font-size="10.00">+ update_score()</text>
</a>
</g>
</g>
<!-- Node3&#45;&gt;Node4 -->
<g id="edge5" class="edge"><title>Node3&#45;&gt;Node4</title>
<path fill="none" stroke="#404040" d="M214.466,-447.333C198.426,-423.314 183.228,-395.784 174.5,-368 168.931,-350.272 167.457,-329.923 167.642,-312.157"/>
<polygon fill="none" stroke="#404040" points="167.646,-312.038 163.836,-305.916 168.021,-300.043 171.832,-306.166 167.646,-312.038"/>
<text text-anchor="middle" x="191" y="-360" font-family="Helvetica,sans-Serif" font-size="10.00"> &#45;player</text>
</g>
<!-- Node4&#45;&gt;Node3 -->
<g id="edge3" class="edge"><title>Node4&#45;&gt;Node3</title>
<path fill="none" stroke="#404040" d="M186.692,-300.176C194.328,-317.1 203.61,-338.059 211.5,-357 213.906,-362.775 216.335,-368.674 218.768,-374.64"/>
<polygon fill="none" stroke="#404040" points="218.94,-375.064 224.901,-379.121 223.449,-386.184 217.488,-382.127 218.94,-375.064"/>
<text text-anchor="middle" x="232.5" y="-360" font-family="Helvetica,sans-Serif" font-size="10.00"> +score</text>
</g>
<!-- Node5 -->
<g id="node5" class="node"><title>Node5</title>
<g id="a_node5"><a xlink:href="classopenage_1_1_score.xhtml" target="_top" xlink:title=" ">
<polygon fill="white" stroke="black" points="0,-1120.5 0,-1320.5 127,-1320.5 127,-1120.5 0,-1120.5"/>
<text text-anchor="middle" x="63.5" y="-1308.5" font-family="Helvetica,sans-Serif" font-size="10.00">openage::Score</text>
<polyline fill="none" stroke="black" points="0,-1301.5 127,-1301.5 "/>
<text text-anchor="start" x="8" y="-1289.5" font-family="Helvetica,sans-Serif" font-size="10.00"># score</text>
<text text-anchor="start" x="8" y="-1278.5" font-family="Helvetica,sans-Serif" font-size="10.00"># score_total</text>
<text text-anchor="start" x="8" y="-1267.5" font-family="Helvetica,sans-Serif" font-size="10.00">&#45; score_exploration</text>
<text text-anchor="start" x="8" y="-1256.5" font-family="Helvetica,sans-Serif" font-size="10.00">&#45; score_resources</text>
<polyline fill="none" stroke="black" points="0,-1249.5 127,-1249.5 "/>
<text text-anchor="start" x="8" y="-1237.5" font-family="Helvetica,sans-Serif" font-size="10.00">+ Score()</text>
<text text-anchor="start" x="8" y="-1226.5" font-family="Helvetica,sans-Serif" font-size="10.00">+ add_score()</text>
<text text-anchor="start" x="8" y="-1215.5" font-family="Helvetica,sans-Serif" font-size="10.00">+ add_score()</text>
<text text-anchor="start" x="8" y="-1204.5" font-family="Helvetica,sans-Serif" font-size="10.00">+ remove_score()</text>
<text text-anchor="start" x="8" y="-1193.5" font-family="Helvetica,sans-Serif" font-size="10.00">+ remove_score()</text>
<text text-anchor="start" x="8" y="-1182.5" font-family="Helvetica,sans-Serif" font-size="10.00">+ update_map_explored()</text>
<text text-anchor="start" x="8" y="-1171.5" font-family="Helvetica,sans-Serif" font-size="10.00">+ update_resources()</text>
<text text-anchor="start" x="8" y="-1160.5" font-family="Helvetica,sans-Serif" font-size="10.00">+ update_score()</text>
<text text-anchor="start" x="8" y="-1149.5" font-family="Helvetica,sans-Serif" font-size="10.00">+ get_score()</text>
<text text-anchor="start" x="8" y="-1138.5" font-family="Helvetica,sans-Serif" font-size="10.00">+ get_score()</text>
<text text-anchor="start" x="8" y="-1127.5" font-family="Helvetica,sans-Serif" font-size="10.00">+ get_score_total()</text>
</a>
</g>
</g>
<!-- Node5&#45;&gt;Node4 -->
<g id="edge4" class="edge"><title>Node5&#45;&gt;Node4</title>
<path fill="none" stroke="midnightblue" d="M40.9429,-1110.05C38.2876,-1089.99 36.5,-1069.18 36.5,-1049.5 36.5,-1049.5 36.5,-1049.5 36.5,-524 36.5,-435.045 100.672,-346.587 140.528,-300.225"/>
<polygon fill="none" stroke="midnightblue" points="37.503,-1110.72 42.3586,-1120.14 44.4351,-1109.75 37.503,-1110.72"/>
</g>
<!-- Node7 -->
<g id="node7" class="node"><title>Node7</title>
<g id="a_node7"><a xlink:href="classopenage_1_1_team_score.xhtml" target="_top" xlink:title=" ">
<polygon fill="white" stroke="black" points="65,-1014.5 65,-1082.5 174,-1082.5 174,-1014.5 65,-1014.5"/>
<text text-anchor="middle" x="119.5" y="-1070.5" font-family="Helvetica,sans-Serif" font-size="10.00">openage::TeamScore</text>
<polyline fill="none" stroke="black" points="65,-1063.5 174,-1063.5 "/>
<text text-anchor="middle" x="119.5" y="-1051.5" font-family="Helvetica,sans-Serif" font-size="10.00"> </text>
<polyline fill="none" stroke="black" points="65,-1044.5 174,-1044.5 "/>
<text text-anchor="start" x="73" y="-1032.5" font-family="Helvetica,sans-Serif" font-size="10.00">+ TeamScore()</text>
<text text-anchor="start" x="73" y="-1021.5" font-family="Helvetica,sans-Serif" font-size="10.00">+ update_score()</text>
</a>
</g>
</g>
<!-- Node5&#45;&gt;Node7 -->
<g id="edge8" class="edge"><title>Node5&#45;&gt;Node7</title>
<path fill="none" stroke="midnightblue" d="M99.4025,-1110.51C102.661,-1100.62 105.763,-1091.2 108.513,-1082.85"/>
<polygon fill="none" stroke="midnightblue" points="96.042,-1109.53 96.2375,-1120.12 102.691,-1111.72 96.042,-1109.53"/>
</g>
<!-- Node6 -->
<g id="node6" class="node"><title>Node6</title>
<g id="a_node6"><a xlink:href="classopenage_1_1_team.xhtml" target="_top" xlink:title=" ">
<polygon fill="white" stroke="black" points="64.5,-755.5 64.5,-933.5 192.5,-933.5 192.5,-755.5 64.5,-755.5"/>
<text text-anchor="middle" x="128.5" y="-921.5" font-family="Helvetica,sans-Serif" font-size="10.00">openage::Team</text>
<polyline fill="none" stroke="black" points="64.5,-914.5 192.5,-914.5 "/>
<text text-anchor="start" x="72.5" y="-902.5" font-family="Helvetica,sans-Serif" font-size="10.00">+ id</text>
<text text-anchor="start" x="72.5" y="-891.5" font-family="Helvetica,sans-Serif" font-size="10.00">+ name</text>
<text text-anchor="start" x="72.5" y="-880.5" font-family="Helvetica,sans-Serif" font-size="10.00">&#45; members</text>
<polyline fill="none" stroke="black" points="64.5,-873.5 192.5,-873.5 "/>
<text text-anchor="start" x="72.5" y="-861.5" font-family="Helvetica,sans-Serif" font-size="10.00">+ Team()</text>
<text text-anchor="start" x="72.5" y="-850.5" font-family="Helvetica,sans-Serif" font-size="10.00">+ Team()</text>
<text text-anchor="start" x="72.5" y="-839.5" font-family="Helvetica,sans-Serif" font-size="10.00">+ Team()</text>
<text text-anchor="start" x="72.5" y="-828.5" font-family="Helvetica,sans-Serif" font-size="10.00">+ operator==()</text>
<text text-anchor="start" x="72.5" y="-817.5" font-family="Helvetica,sans-Serif" font-size="10.00">+ add_member()</text>
<text text-anchor="start" x="72.5" y="-806.5" font-family="Helvetica,sans-Serif" font-size="10.00">+ change_member_type()</text>
<text text-anchor="start" x="72.5" y="-795.5" font-family="Helvetica,sans-Serif" font-size="10.00">+ is_member()</text>
<text text-anchor="start" x="72.5" y="-784.5" font-family="Helvetica,sans-Serif" font-size="10.00">+ remove_member()</text>
<text text-anchor="start" x="72.5" y="-773.5" font-family="Helvetica,sans-Serif" font-size="10.00">+ get_member_type()</text>
<text text-anchor="start" x="72.5" y="-762.5" font-family="Helvetica,sans-Serif" font-size="10.00">+ get_players()</text>
</a>
</g>
</g>
<!-- Node6&#45;&gt;Node3 -->
<g id="edge6" class="edge"><title>Node6&#45;&gt;Node3</title>
<path fill="none" stroke="#404040" d="M169.53,-755.48C181.856,-729.036 195.717,-699.301 209.272,-670.222"/>
<polygon fill="none" stroke="#404040" points="209.378,-669.994 208.288,-662.865 214.448,-659.117 215.539,-666.245 209.378,-669.994"/>
<text text-anchor="middle" x="218" y="-690.5" font-family="Helvetica,sans-Serif" font-size="10.00"> +team</text>
</g>
<!-- Node6&#45;&gt;Node7 -->
<g id="edge9" class="edge"><title>Node6&#45;&gt;Node7</title>
<path fill="none" stroke="#404040" d="M133.163,-933.598C133.283,-954.122 132.627,-975.861 130.5,-996 130.272,-998.157 129.992,-1000.36 129.672,-1002.57"/>
<polygon fill="none" stroke="#404040" points="129.668,-1002.59 132.594,-1009.18 127.636,-1014.42 124.71,-1007.83 129.668,-1002.59"/>
<text text-anchor="middle" x="145.5" y="-988" font-family="Helvetica,sans-Serif" font-size="10.00"> &#45;team</text>
</g>
<!-- Node7&#45;&gt;Node6 -->
<g id="edge7" class="edge"><title>Node7&#45;&gt;Node6</title>
<path fill="none" stroke="#404040" d="M102.298,-1014.39C99.8972,-1008.41 97.8065,-1002.13 96.5,-996 93.0495,-979.812 93.1439,-962.644 95.2693,-945.918"/>
<polygon fill="none" stroke="#404040" points="95.3041,-945.695 92.277,-939.15 97.1542,-933.838 100.181,-940.383 95.3041,-945.695"/>
<text text-anchor="middle" x="113.5" y="-988" font-family="Helvetica,sans-Serif" font-size="10.00"> +score</text>
</g>
<!-- Node8 -->
<g id="node8" class="node"><title>Node8</title>
<g id="a_node8"><a xlink:href="classopenage_1_1_resource_bundle.xhtml" target="_top" xlink:title=" ">
<polygon fill="white" stroke="black" points="211,-733.5 211,-955.5 342,-955.5 342,-733.5 211,-733.5"/>
<text text-anchor="middle" x="276.5" y="-943.5" font-family="Helvetica,sans-Serif" font-size="10.00">openage::ResourceBundle</text>
<polyline fill="none" stroke="black" points="211,-936.5 342,-936.5 "/>
<text text-anchor="start" x="219" y="-924.5" font-family="Helvetica,sans-Serif" font-size="10.00">&#45; count</text>
<text text-anchor="start" x="219" y="-913.5" font-family="Helvetica,sans-Serif" font-size="10.00">&#45; value</text>
<polyline fill="none" stroke="black" points="211,-906.5 342,-906.5 "/>
<text text-anchor="start" x="219" y="-894.5" font-family="Helvetica,sans-Serif" font-size="10.00">+ ResourceBundle()</text>
<text text-anchor="start" x="219" y="-883.5" font-family="Helvetica,sans-Serif" font-size="10.00">+ ResourceBundle()</text>
<text text-anchor="start" x="219" y="-872.5" font-family="Helvetica,sans-Serif" font-size="10.00">+ ~ResourceBundle()</text>
<text text-anchor="start" x="219" y="-861.5" font-family="Helvetica,sans-Serif" font-size="10.00">+ ResourceBundle()</text>
<text text-anchor="start" x="219" y="-850.5" font-family="Helvetica,sans-Serif" font-size="10.00">+ clone()</text>
<text text-anchor="start" x="219" y="-839.5" font-family="Helvetica,sans-Serif" font-size="10.00">+ operator&gt;()</text>
<text text-anchor="start" x="219" y="-828.5" font-family="Helvetica,sans-Serif" font-size="10.00">+ operator&gt;=()</text>
<text text-anchor="start" x="219" y="-817.5" font-family="Helvetica,sans-Serif" font-size="10.00">+ operator+=()</text>
<text text-anchor="start" x="219" y="-806.5" font-family="Helvetica,sans-Serif" font-size="10.00">+ operator&#45;=()</text>
<text text-anchor="start" x="219" y="-795.5" font-family="Helvetica,sans-Serif" font-size="10.00">+ operator *=()</text>
<text text-anchor="start" x="219" y="-784.5" font-family="Helvetica,sans-Serif" font-size="10.00">and 13 more...</text>
<text text-anchor="start" x="219" y="-773.5" font-family="Helvetica,sans-Serif" font-size="10.00">&#45; ResourceBundle()</text>
<text text-anchor="start" x="219" y="-762.5" font-family="Helvetica,sans-Serif" font-size="10.00">&#45; expand()</text>
<text text-anchor="start" x="219" y="-751.5" font-family="Helvetica,sans-Serif" font-size="10.00">&#45; expand()</text>
<text text-anchor="start" x="219" y="-740.5" font-family="Helvetica,sans-Serif" font-size="10.00">&#45; min_count()</text>
</a>
</g>
</g>
<!-- Node8&#45;&gt;Node3 -->
<g id="edge10" class="edge"><title>Node8&#45;&gt;Node3</title>
<path fill="none" stroke="#404040" d="M276.5,-733.345C276.5,-714.731 276.5,-695.13 276.5,-675.71"/>
<polygon fill="none" stroke="#404040" points="276.5,-675.652 272.5,-669.652 276.5,-663.652 280.5,-669.652 276.5,-675.652"/>
<text text-anchor="middle" x="322" y="-696" font-family="Helvetica,sans-Serif" font-size="10.00"> &#45;resources_capacity</text>
<text text-anchor="middle" x="322" y="-685" font-family="Helvetica,sans-Serif" font-size="10.00">&#45;resources</text>
</g>
<!-- Node9 -->
<g id="node9" class="node"><title>Node9</title>
<g id="a_node9"><a xlink:href="classopenage_1_1_population_tracker.xhtml" target="_top" xlink:title=" ">
<polygon fill="white" stroke="black" points="360,-722.5 360,-966.5 497,-966.5 497,-722.5 360,-722.5"/>
<text text-anchor="middle" x="428.5" y="-954.5" font-family="Helvetica,sans-Serif" font-size="10.00">openage::PopulationTracker</text>
<polyline fill="none" stroke="black" points="360,-947.5 497,-947.5 "/>
<text text-anchor="start" x="368" y="-935.5" font-family="Helvetica,sans-Serif" font-size="10.00">&#45; demand</text>
<text text-anchor="start" x="368" y="-924.5" font-family="Helvetica,sans-Serif" font-size="10.00">&#45; capacity_static</text>
<text text-anchor="start" x="368" y="-913.5" font-family="Helvetica,sans-Serif" font-size="10.00">&#45; capacity_real</text>
<text text-anchor="start" x="368" y="-902.5" font-family="Helvetica,sans-Serif" font-size="10.00">&#45; capacity_max</text>
<text text-anchor="start" x="368" y="-891.5" font-family="Helvetica,sans-Serif" font-size="10.00">&#45; capacity_total</text>
<text text-anchor="start" x="368" y="-880.5" font-family="Helvetica,sans-Serif" font-size="10.00">&#45; capacity</text>
<polyline fill="none" stroke="black" points="360,-873.5 497,-873.5 "/>
<text text-anchor="start" x="368" y="-861.5" font-family="Helvetica,sans-Serif" font-size="10.00">+ PopulationTracker()</text>
<text text-anchor="start" x="368" y="-850.5" font-family="Helvetica,sans-Serif" font-size="10.00">+ demand_population()</text>
<text text-anchor="start" x="368" y="-839.5" font-family="Helvetica,sans-Serif" font-size="10.00">+ free_population()</text>
<text text-anchor="start" x="368" y="-828.5" font-family="Helvetica,sans-Serif" font-size="10.00">+ add_capacity_static()</text>
<text text-anchor="start" x="368" y="-817.5" font-family="Helvetica,sans-Serif" font-size="10.00">+ add_capacity()</text>
<text text-anchor="start" x="368" y="-806.5" font-family="Helvetica,sans-Serif" font-size="10.00">+ remove_capacity()</text>
<text text-anchor="start" x="368" y="-795.5" font-family="Helvetica,sans-Serif" font-size="10.00">+ add_capacity_max()</text>
<text text-anchor="start" x="368" y="-784.5" font-family="Helvetica,sans-Serif" font-size="10.00">+ get_demand()</text>
<text text-anchor="start" x="368" y="-773.5" font-family="Helvetica,sans-Serif" font-size="10.00">+ get_capacity()</text>
<text text-anchor="start" x="368" y="-762.5" font-family="Helvetica,sans-Serif" font-size="10.00">+ get_space()</text>
<text text-anchor="start" x="368" y="-751.5" font-family="Helvetica,sans-Serif" font-size="10.00">+ get_capacity_overflow()</text>
<text text-anchor="start" x="368" y="-740.5" font-family="Helvetica,sans-Serif" font-size="10.00">+ is_capacity_maxed()</text>
<text text-anchor="start" x="368" y="-729.5" font-family="Helvetica,sans-Serif" font-size="10.00">&#45; update_capacity()</text>
</a>
</g>
</g>
<!-- Node9&#45;&gt;Node3 -->
<g id="edge11" class="edge"><title>Node9&#45;&gt;Node3</title>
<path fill="none" stroke="#404040" d="M388.88,-722.439C383.448,-708.63 377.62,-694.893 371.5,-682 363.581,-665.315 354.348,-648.148 344.809,-631.581"/>
<polygon fill="none" stroke="#404040" points="344.559,-631.154 338.079,-627.99 338.507,-620.792 344.987,-623.955 344.559,-631.154"/>
<text text-anchor="middle" x="408.5" y="-690.5" font-family="Helvetica,sans-Serif" font-size="10.00"> +population</text>
</g>
<!-- Node10 -->
<g id="node10" class="node"><title>Node10</title>
<g id="a_node10"><a xlink:href="classopenage_1_1_civilisation.xhtml" target="_top" xlink:title=" ">
<polygon fill="white" stroke="black" points="515,-755.5 515,-933.5 634,-933.5 634,-755.5 515,-755.5"/>
<text text-anchor="middle" x="574.5" y="-921.5" font-family="Helvetica,sans-Serif" font-size="10.00">openage::Civilisation</text>
<polyline fill="none" stroke="black" points="515,-914.5 634,-914.5 "/>
<text text-anchor="start" x="523" y="-902.5" font-family="Helvetica,sans-Serif" font-size="10.00">+ civ_id</text>
<text text-anchor="start" x="523" y="-891.5" font-family="Helvetica,sans-Serif" font-size="10.00">+ civ_name</text>
<text text-anchor="start" x="523" y="-880.5" font-family="Helvetica,sans-Serif" font-size="10.00">&#45; civ_objects</text>
<text text-anchor="start" x="523" y="-869.5" font-family="Helvetica,sans-Serif" font-size="10.00">&#45; all_categories</text>
<text text-anchor="start" x="523" y="-858.5" font-family="Helvetica,sans-Serif" font-size="10.00">&#45; categories</text>
<text text-anchor="start" x="523" y="-847.5" font-family="Helvetica,sans-Serif" font-size="10.00">&#45; buildings</text>
<polyline fill="none" stroke="black" points="515,-840.5 634,-840.5 "/>
<text text-anchor="start" x="523" y="-828.5" font-family="Helvetica,sans-Serif" font-size="10.00">+ Civilisation()</text>
<text text-anchor="start" x="523" y="-817.5" font-family="Helvetica,sans-Serif" font-size="10.00">+ object_meta()</text>
<text text-anchor="start" x="523" y="-806.5" font-family="Helvetica,sans-Serif" font-size="10.00">+ get_category()</text>
<text text-anchor="start" x="523" y="-795.5" font-family="Helvetica,sans-Serif" font-size="10.00">+ get_type_categories()</text>
<text text-anchor="start" x="523" y="-784.5" font-family="Helvetica,sans-Serif" font-size="10.00">+ get_building_data()</text>
<text text-anchor="start" x="523" y="-773.5" font-family="Helvetica,sans-Serif" font-size="10.00">+ initialise_unit_types()</text>
<text text-anchor="start" x="523" y="-762.5" font-family="Helvetica,sans-Serif" font-size="10.00">&#45; add_to_category()</text>
</a>
</g>
</g>
<!-- Node10&#45;&gt;Node3 -->
<g id="edge12" class="edge"><title>Node10&#45;&gt;Node3</title>
<path fill="none" stroke="#404040" d="M529.386,-755.45C522.016,-743.771 513.989,-732.293 505.5,-722 459.551,-666.292 396.6,-613.691 348.328,-577.035"/>
<polygon fill="none" stroke="#404040" points="348.158,-576.907 340.958,-576.494 338.57,-569.69 345.769,-570.102 348.158,-576.907"/>
<text text-anchor="middle" x="501" y="-690.5" font-family="Helvetica,sans-Serif" font-size="10.00"> +civ</text>
</g>
</g>
</svg>
