<?xml version="1.0" encoding="UTF-8" standalone="no"?>
<!DOCTYPE svg PUBLIC "-//W3C//DTD SVG 1.1//EN"
 "http://www.w3.org/Graphics/SVG/1.1/DTD/svg11.dtd">
<!-- Generated by graphviz version 2.38.0 (20140413.2041)
 -->
<!-- Title: openage::Unit::secondary_action Pages: 1 -->
<svg width="305pt" height="39pt"
 viewBox="0.00 0.00 305.00 39.00" xmlns="http://www.w3.org/2000/svg" xmlns:xlink="http://www.w3.org/1999/xlink">
<g id="graph0" class="graph" transform="scale(1 1) rotate(0) translate(4 35)">
<title>openage::Unit::secondary_action</title>
<polygon fill="white" stroke="none" points="-4,4 -4,-35 301,-35 301,4 -4,4"/>
<!-- Node388 -->
<g id="node1" class="node"><title>Node388</title>
<g id="a_node1"><a xlink:title="adds a secondary action which is always updated">
<polygon fill="#bfbfbf" stroke="black" points="169,-0.5 169,-30.5 297,-30.5 297,-0.5 169,-0.5"/>
<text text-anchor="start" x="177" y="-18.5" font-family="Helvetica,sans-Serif" font-size="10.00">openage::Unit::secondary</text>
<text text-anchor="middle" x="233" y="-7.5" font-family="Helvetica,sans-Serif" font-size="10.00">_action</text>
</a>
</g>
</g>
<!-- Node389 -->
<g id="node2" class="node"><title>Node389</title>
<g id="a_node2"><a xlink:href="classopenage_1_1_ungarrison_ability.xhtml#a6ed7fdb59dc12befd1e0be6fbdd2b387" target="_top" xlink:title="applies command to a given unit">
<polygon fill="white" stroke="black" points="0,-0.5 0,-30.5 133,-30.5 133,-0.5 0,-0.5"/>
<text text-anchor="start" x="8" y="-18.5" font-family="Helvetica,sans-Serif" font-size="10.00">openage::UngarrisonAbility</text>
<text text-anchor="middle" x="66.5" y="-7.5" font-family="Helvetica,sans-Serif" font-size="10.00">::invoke</text>
</a>
</g>
</g>
<!-- Node388&#45;&gt;Node389 -->
<g id="edge1" class="edge"><title>Node388&#45;&gt;Node389</title>
<path fill="none" stroke="midnightblue" d="M158.623,-15.5C150.149,-15.5 141.549,-15.5 133.187,-15.5"/>
<polygon fill="midnightblue" stroke="midnightblue" points="158.87,-19.0001 168.87,-15.5 158.87,-12.0001 158.87,-19.0001"/>
</g>
</g>
</svg>
