<?xml version="1.0" encoding="UTF-8" standalone="no"?>
<!DOCTYPE svg PUBLIC "-//W3C//DTD SVG 1.1//EN"
 "http://www.w3.org/Graphics/SVG/1.1/DTD/svg11.dtd">
<!-- Generated by graphviz version 2.38.0 (20140413.2041)
 -->
<!-- Title: openage::util::EnumValue&lt; DerivedType, NumericType &gt; Pages: 1 -->
<svg width="158pt" height="259pt"
 viewBox="0.00 0.00 158.00 259.00" xmlns="http://www.w3.org/2000/svg" xmlns:xlink="http://www.w3.org/1999/xlink">
<g id="graph0" class="graph" transform="scale(1 1) rotate(0) translate(4 255)">
<title>openage::util::EnumValue&lt; DerivedType, NumericType &gt;</title>
<polygon fill="white" stroke="none" points="-4,4 -4,-255 154,-255 154,4 -4,4"/>
<!-- Node1 -->
<g id="node1" class="node"><title>Node1</title>
<g id="a_node1"><a xlink:title=" ">
<polygon fill="#bfbfbf" stroke="black" points="0,-0.5 0,-145.5 150,-145.5 150,-0.5 0,-0.5"/>
<text text-anchor="start" x="8" y="-133.5" font-family="Helvetica,sans-Serif" font-size="10.00">openage::util::EnumValue</text>
<text text-anchor="middle" x="75" y="-122.5" font-family="Helvetica,sans-Serif" font-size="10.00">&lt; DerivedType, NumericType &gt;</text>
<polyline fill="none" stroke="black" points="0,-115.5 150,-115.5 "/>
<text text-anchor="start" x="8" y="-103.5" font-family="Helvetica,sans-Serif" font-size="10.00">+ name</text>
<polyline fill="none" stroke="black" points="0,-96.5 150,-96.5 "/>
<text text-anchor="start" x="8" y="-84.5" font-family="Helvetica,sans-Serif" font-size="10.00">+ EnumValue()</text>
<text text-anchor="start" x="8" y="-73.5" font-family="Helvetica,sans-Serif" font-size="10.00">+ operator=()</text>
<text text-anchor="start" x="8" y="-62.5" font-family="Helvetica,sans-Serif" font-size="10.00">+ operator==()</text>
<text text-anchor="start" x="8" y="-51.5" font-family="Helvetica,sans-Serif" font-size="10.00">+ operator !=()</text>
<text text-anchor="start" x="8" y="-40.5" font-family="Helvetica,sans-Serif" font-size="10.00">+ operator&lt;=()</text>
<text text-anchor="start" x="8" y="-29.5" font-family="Helvetica,sans-Serif" font-size="10.00">+ operator&lt;()</text>
<text text-anchor="start" x="8" y="-18.5" font-family="Helvetica,sans-Serif" font-size="10.00">+ operator &gt;=()</text>
<text text-anchor="start" x="8" y="-7.5" font-family="Helvetica,sans-Serif" font-size="10.00">+ operator &gt;()</text>
</a>
</g>
</g>
<!-- Node2 -->
<g id="node2" class="node"><title>Node2</title>
<g id="a_node2"><a xlink:title=" ">
<polygon fill="white" stroke="#bfbfbf" points="38,-193.5 38,-250.5 112,-250.5 112,-193.5 38,-193.5"/>
<text text-anchor="middle" x="75" y="-238.5" font-family="Helvetica,sans-Serif" font-size="10.00">NumericType</text>
<polyline fill="none" stroke="#bfbfbf" points="38,-231.5 112,-231.5 "/>
<text text-anchor="middle" x="75" y="-219.5" font-family="Helvetica,sans-Serif" font-size="10.00"> </text>
<polyline fill="none" stroke="#bfbfbf" points="38,-212.5 112,-212.5 "/>
<text text-anchor="middle" x="75" y="-200.5" font-family="Helvetica,sans-Serif" font-size="10.00"> </text>
</a>
</g>
</g>
<!-- Node2&#45;&gt;Node1 -->
<g id="edge1" class="edge"><title>Node2&#45;&gt;Node1</title>
<path fill="none" stroke="#404040" d="M75,-193.35C75,-183.014 75,-170.664 75,-157.886"/>
<polygon fill="none" stroke="#404040" points="75.0001,-157.555 71,-151.556 75,-145.555 79,-151.555 75.0001,-157.555"/>
<text text-anchor="middle" x="97" y="-167" font-family="Helvetica,sans-Serif" font-size="10.00"> +numeric</text>
</g>
</g>
</svg>
