<?xml version="1.0" encoding="UTF-8" standalone="no"?>
<!DOCTYPE svg PUBLIC "-//W3C//DTD SVG 1.1//EN"
 "http://www.w3.org/Graphics/SVG/1.1/DTD/svg11.dtd">
<!-- Generated by graphviz version 2.38.0 (20140413.2041)
 -->
<!-- Title: openage::job::JobManager::start Pages: 1 -->
<svg width="424pt" height="138pt"
 viewBox="0.00 0.00 424.00 138.00" xmlns="http://www.w3.org/2000/svg" xmlns:xlink="http://www.w3.org/1999/xlink">
<g id="graph0" class="graph" transform="scale(1 1) rotate(0) translate(4 134)">
<title>openage::job::JobManager::start</title>
<polygon fill="white" stroke="none" points="-4,4 -4,-134 420,-134 420,4 -4,4"/>
<!-- Node61 -->
<g id="node1" class="node"><title>Node61</title>
<g id="a_node1"><a xlink:title=" ">
<polygon fill="#bfbfbf" stroke="black" points="285,-61 285,-91 416,-91 416,-61 285,-61"/>
<text text-anchor="start" x="293" y="-79" font-family="Helvetica,sans-Serif" font-size="10.00">openage::job::JobManager</text>
<text text-anchor="middle" x="350.5" y="-68" font-family="Helvetica,sans-Serif" font-size="10.00">::start</text>
</a>
</g>
</g>
<!-- Node62 -->
<g id="node2" class="node"><title>Node62</title>
<g id="a_node2"><a xlink:href="classopenage_1_1_engine.xhtml#a1f1b60bb90c738f6b64a6e19e49cde6d" target="_top" xlink:title=" ">
<polygon fill="white" stroke="black" points="138,-110.5 138,-129.5 247,-129.5 247,-110.5 138,-110.5"/>
<text text-anchor="middle" x="192.5" y="-117.5" font-family="Helvetica,sans-Serif" font-size="10.00">openage::Engine::run</text>
</a>
</g>
</g>
<!-- Node61&#45;&gt;Node62 -->
<g id="edge1" class="edge"><title>Node61&#45;&gt;Node62</title>
<path fill="none" stroke="midnightblue" d="M286.481,-93.7745C266.304,-99.4654 244.738,-105.548 227.459,-110.422"/>
<polygon fill="midnightblue" stroke="midnightblue" points="287.576,-97.1025 296.25,-91.0192 285.675,-90.3653 287.576,-97.1025"/>
</g>
<!-- Node63 -->
<g id="node3" class="node"><title>Node63</title>
<g id="a_node3"><a xlink:href="namespaceopenage_1_1job_1_1tests.xhtml#abca5d5e032e3cdbbe7176fde710f7abd" target="_top" xlink:title=" ">
<polygon fill="white" stroke="black" points="142.5,-61 142.5,-91 242.5,-91 242.5,-61 142.5,-61"/>
<text text-anchor="start" x="150.5" y="-79" font-family="Helvetica,sans-Serif" font-size="10.00">openage::job::tests</text>
<text text-anchor="middle" x="192.5" y="-68" font-family="Helvetica,sans-Serif" font-size="10.00">::test_simple_job</text>
</a>
</g>
</g>
<!-- Node61&#45;&gt;Node63 -->
<g id="edge2" class="edge"><title>Node61&#45;&gt;Node63</title>
<path fill="none" stroke="midnightblue" d="M274.402,-76C263.613,-76 252.749,-76 242.639,-76"/>
<polygon fill="midnightblue" stroke="midnightblue" points="274.697,-79.5001 284.697,-76 274.697,-72.5001 274.697,-79.5001"/>
</g>
<!-- Node65 -->
<g id="node5" class="node"><title>Node65</title>
<g id="a_node5"><a xlink:href="namespaceopenage_1_1job_1_1tests.xhtml#a9e15fa28b3f67065f69fb17a569e4ecc" target="_top" xlink:title=" ">
<polygon fill="white" stroke="black" points="136,-0.5 136,-41.5 249,-41.5 249,-0.5 136,-0.5"/>
<text text-anchor="start" x="144" y="-29.5" font-family="Helvetica,sans-Serif" font-size="10.00">openage::job::tests</text>
<text text-anchor="start" x="144" y="-18.5" font-family="Helvetica,sans-Serif" font-size="10.00">::test_simple_job_with</text>
<text text-anchor="middle" x="192.5" y="-7.5" font-family="Helvetica,sans-Serif" font-size="10.00">_exception</text>
</a>
</g>
</g>
<!-- Node61&#45;&gt;Node65 -->
<g id="edge4" class="edge"><title>Node61&#45;&gt;Node65</title>
<path fill="none" stroke="midnightblue" d="M297.02,-57.4975C281.659,-52.0815 264.813,-46.1423 249.255,-40.6573"/>
<polygon fill="midnightblue" stroke="midnightblue" points="296.278,-60.9468 306.872,-60.971 298.605,-54.345 296.278,-60.9468"/>
</g>
<!-- Node64 -->
<g id="node4" class="node"><title>Node64</title>
<g id="a_node4"><a xlink:href="namespaceopenage_1_1job_1_1tests.xhtml#af342bd56aa228b49c1a6867982aca505" target="_top" xlink:title=" ">
<polygon fill="white" stroke="black" points="0,-33 0,-63 100,-63 100,-33 0,-33"/>
<text text-anchor="start" x="8" y="-51" font-family="Helvetica,sans-Serif" font-size="10.00">openage::job::tests</text>
<text text-anchor="middle" x="50" y="-40" font-family="Helvetica,sans-Serif" font-size="10.00">::test_job_manager</text>
</a>
</g>
</g>
<!-- Node63&#45;&gt;Node64 -->
<g id="edge3" class="edge"><title>Node63&#45;&gt;Node64</title>
<path fill="none" stroke="midnightblue" d="M132.299,-64.2019C121.659,-62.0816 110.673,-59.8922 100.35,-57.8348"/>
<polygon fill="midnightblue" stroke="midnightblue" points="131.869,-67.6849 142.36,-66.207 133.237,-60.8199 131.869,-67.6849"/>
</g>
<!-- Node65&#45;&gt;Node64 -->
<g id="edge5" class="edge"><title>Node65&#45;&gt;Node64</title>
<path fill="none" stroke="midnightblue" d="M125.898,-33.6069C117.253,-35.2681 108.514,-36.9474 100.208,-38.5437"/>
<polygon fill="midnightblue" stroke="midnightblue" points="126.811,-36.9955 135.971,-31.6711 125.49,-30.1213 126.811,-36.9955"/>
</g>
</g>
</svg>
