<?xml version="1.0" encoding="UTF-8" standalone="no"?>
<!DOCTYPE svg PUBLIC "-//W3C//DTD SVG 1.1//EN"
 "http://www.w3.org/Graphics/SVG/1.1/DTD/svg11.dtd">
<!-- Generated by graphviz version 2.38.0 (20140413.2041)
 -->
<!-- Title: openage::GameMainHandle::set_game Pages: 1 -->
<svg width="325pt" height="78pt"
 viewBox="0.00 0.00 325.00 77.50" xmlns="http://www.w3.org/2000/svg" xmlns:xlink="http://www.w3.org/1999/xlink">
<g id="graph0" class="graph" transform="scale(1 1) rotate(0) translate(4 73.5)">
<title>openage::GameMainHandle::set_game</title>
<polygon fill="white" stroke="none" points="-4,4 -4,-73.5 321,-73.5 321,4 -4,4"/>
<!-- Node19 -->
<g id="node1" class="node"><title>Node19</title>
<g id="a_node1"><a xlink:title="Pass the given game to the engine and start it.">
<polygon fill="#bfbfbf" stroke="black" points="0,-17 0,-47 137,-47 137,-17 0,-17"/>
<text text-anchor="start" x="8" y="-35" font-family="Helvetica,sans-Serif" font-size="10.00">openage::GameMainHandle</text>
<text text-anchor="middle" x="68.5" y="-24" font-family="Helvetica,sans-Serif" font-size="10.00">::set_game</text>
</a>
</g>
</g>
<!-- Node20 -->
<g id="node2" class="node"><title>Node20</title>
<g id="a_node2"><a xlink:href="classopenage_1_1_game_main_handle.xhtml#a7ae88934bf1fc3c90e397441657718d2" target="_top" xlink:title="Emit a qt signal to notify for changes in a running game.">
<polygon fill="white" stroke="black" points="176.5,-39 176.5,-69 313.5,-69 313.5,-39 176.5,-39"/>
<text text-anchor="start" x="184.5" y="-57" font-family="Helvetica,sans-Serif" font-size="10.00">openage::GameMainHandle</text>
<text text-anchor="middle" x="245" y="-46" font-family="Helvetica,sans-Serif" font-size="10.00">::announce_running</text>
</a>
</g>
</g>
<!-- Node19&#45;&gt;Node20 -->
<g id="edge1" class="edge"><title>Node19&#45;&gt;Node20</title>
<path fill="none" stroke="midnightblue" d="M137.466,-40.5688C146.912,-41.7597 156.676,-42.9907 166.284,-44.202"/>
<polygon fill="midnightblue" stroke="midnightblue" points="165.86,-47.6762 176.22,-45.4546 166.736,-40.7312 165.86,-47.6762"/>
</g>
<!-- Node21 -->
<g id="node3" class="node"><title>Node21</title>
<g id="a_node3"><a xlink:href="classopenage_1_1_engine.xhtml#a06eb9cde29e294b956187c88042ae8ea" target="_top" xlink:title="Start a game with the given game generator.">
<polygon fill="white" stroke="black" points="173,-0.5 173,-19.5 317,-19.5 317,-0.5 173,-0.5"/>
<text text-anchor="middle" x="245" y="-7.5" font-family="Helvetica,sans-Serif" font-size="10.00">openage::Engine::start_game</text>
</a>
</g>
</g>
<!-- Node19&#45;&gt;Node21 -->
<g id="edge2" class="edge"><title>Node19&#45;&gt;Node21</title>
<path fill="none" stroke="midnightblue" d="M137.466,-23.4312C145.698,-22.3934 154.171,-21.3251 162.572,-20.266"/>
<polygon fill="midnightblue" stroke="midnightblue" points="163.279,-23.7047 172.763,-18.9812 162.403,-16.7596 163.279,-23.7047"/>
</g>
</g>
</svg>
