<?xml version="1.0" encoding="UTF-8" standalone="no"?>
<!DOCTYPE svg PUBLIC "-//W3C//DTD SVG 1.1//EN"
 "http://www.w3.org/Graphics/SVG/1.1/DTD/svg11.dtd">
<!-- Generated by graphviz version 2.38.0 (20140413.2041)
 -->
<!-- Title: openage::util::fslike::Directory::is_dir Pages: 1 -->
<!--zoomable 78 -->
<svg id="main" version="1.1" xmlns="http://www.w3.org/2000/svg" xmlns:xlink="http://www.w3.org/1999/xlink" xml:space="preserve" onload="init(evt)">
<style type="text/css"><![CDATA[
.edge:hover path { stroke: red; }
.edge:hover polygon { stroke: red; fill: red; }
]]></style>
<script type="text/javascript"><![CDATA[
var edges = document.getElementsByTagName('g');
if (edges && edges.length) {
  for (var i=0;i<edges.length;i++) {
    if (edges[i].id.substr(0,4)=='edge') {
      edges[i].setAttribute('class','edge');
    }
  }
}
]]></script>
        <defs>
                <circle id="rim" cx="0" cy="0" r="7"/>
                <circle id="rim2" cx="0" cy="0" r="3.5"/>
                <g id="zoomPlus">
                        <use xlink:href="#rim" fill="#404040">
                                <set attributeName="fill" to="#808080" begin="zoomplus.mouseover" end="zoomplus.mouseout"/>
                        </use>
                        <path d="M-4,0h8M0,-4v8" fill="none" stroke="white" stroke-width="1.5" pointer-events="none"/>
                </g>
                <g id="zoomMin">
                        <use xlink:href="#rim" fill="#404040">
                                <set attributeName="fill" to="#808080" begin="zoomminus.mouseover" end="zoomminus.mouseout"/>
                        </use>
                        <path d="M-4,0h8" fill="none" stroke="white" stroke-width="1.5" pointer-events="none"/>
                </g>
                <g id="dirArrow">
                        <path fill="none" stroke="white" stroke-width="1.5" d="M0,-3.0v7 M-2.5,-0.5L0,-3.0L2.5,-0.5"/>
                </g>
               <g id="resetDef">
                       <use xlink:href="#rim2" fill="#404040">
                               <set attributeName="fill" to="#808080" begin="reset.mouseover" end="reset.mouseout"/>
                       </use>
               </g>
        </defs>

<script type="text/javascript">
var viewWidth = 558;
var viewHeight = 78;
var sectionId = 'dynsection-7';
</script>
<script xlink:href="svgpan.js"/>
<svg id="graph" class="graph">
<g id="viewport">
<title>openage::util::fslike::Directory::is_dir</title>
<polygon fill="white" stroke="none" points="-4,4 -4,-73.5 554,-73.5 554,4 -4,4"/>
<!-- Node33 -->
<g id="node1" class="node"><title>Node33</title>
<g id="a_node1"><a xlink:title=" ">
<polygon fill="#bfbfbf" stroke="black" points="0,-17 0,-47 101,-47 101,-17 0,-17"/>
<text text-anchor="start" x="8" y="-35" font-family="Helvetica,sans-Serif" font-size="10.00">openage::util::fslike</text>
<text text-anchor="middle" x="50.5" y="-24" font-family="Helvetica,sans-Serif" font-size="10.00">::Directory::is_dir</text>
</a>
</g>
</g>
<!-- Node34 -->
<g id="node2" class="node"><title>Node34</title>
<g id="a_node2"><a xlink:href="classopenage_1_1util_1_1fslike_1_1_directory.xhtml#a2c5d51674da6c9c62ae8753f3a8a6cd0" target="_top" xlink:title=" ">
<polygon fill="white" stroke="black" points="137,-17 137,-47 238,-47 238,-17 137,-17"/>
<text text-anchor="start" x="145" y="-35" font-family="Helvetica,sans-Serif" font-size="10.00">openage::util::fslike</text>
<text text-anchor="middle" x="187.5" y="-24" font-family="Helvetica,sans-Serif" font-size="10.00">::Directory::do_stat</text>
</a>
</g>
</g>
<!-- Node33&#45;&gt;Node34 -->
<g id="edge1" class="edge"><title>Node33&#45;&gt;Node34</title>
<path fill="none" stroke="midnightblue" d="M101.002,-32C109.241,-32 117.866,-32 126.335,-32"/>
<polygon fill="midnightblue" stroke="midnightblue" points="126.552,-35.5001 136.552,-32 126.552,-28.5001 126.552,-35.5001"/>
</g>
<!-- Node35 -->
<g id="node3" class="node"><title>Node35</title>
<g id="a_node3"><a xlink:href="classopenage_1_1util_1_1fslike_1_1_directory.xhtml#a7dab02972c0d0fa8ef5b3fd387966855" target="_top" xlink:title="resolve the path to an actually usable one.">
<polygon fill="white" stroke="black" points="296,-39 296,-69 397,-69 397,-39 296,-39"/>
<text text-anchor="start" x="304" y="-57" font-family="Helvetica,sans-Serif" font-size="10.00">openage::util::fslike</text>
<text text-anchor="middle" x="346.5" y="-46" font-family="Helvetica,sans-Serif" font-size="10.00">::Directory::resolve</text>
</a>
</g>
</g>
<!-- Node34&#45;&gt;Node35 -->
<g id="edge2" class="edge"><title>Node34&#45;&gt;Node35</title>
<path fill="none" stroke="midnightblue" d="M238.176,-38.9609C253.283,-41.0779 270.044,-43.4266 285.743,-45.6264"/>
<polygon fill="midnightblue" stroke="midnightblue" points="285.489,-49.125 295.878,-47.0466 286.461,-42.1927 285.489,-49.125"/>
</g>
<!-- Node36 -->
<g id="node4" class="node"><title>Node36</title>
<g id="a_node4"><a xlink:href="namespaceopenage_1_1testing_1_1testing.xhtml#ac25bf81db406af62d08113ef7ae9fd6e" target="_top" xlink:title=" ">
<polygon fill="white" stroke="black" points="274,-0.5 274,-19.5 419,-19.5 419,-0.5 274,-0.5"/>
<text text-anchor="middle" x="346.5" y="-7.5" font-family="Helvetica,sans-Serif" font-size="10.00">openage.testing.testing.result</text>
</a>
</g>
</g>
<!-- Node34&#45;&gt;Node36 -->
<g id="edge3" class="edge"><title>Node34&#45;&gt;Node36</title>
<path fill="none" stroke="midnightblue" d="M238.176,-25.0391C247.541,-23.7267 257.542,-22.3253 267.532,-20.9255"/>
<polygon fill="midnightblue" stroke="midnightblue" points="268.076,-24.3835 277.494,-19.5296 267.105,-17.4512 268.076,-24.3835"/>
</g>
<!-- Node37 -->
<g id="node5" class="node"><title>Node37</title>
<g id="a_node5"><a xlink:href="namespaceopenage_1_1util.xhtml#a7bc4421a5f0f57f3a0aba3f96eb8d19c" target="_top" xlink:title="method that behaves similar to python&#39;s &quot;repr&quot;.">
<polygon fill="white" stroke="black" points="455,-0.5 455,-19.5 550,-19.5 550,-0.5 455,-0.5"/>
<text text-anchor="middle" x="502.5" y="-7.5" font-family="Helvetica,sans-Serif" font-size="10.00">openage::util::repr</text>
</a>
</g>
</g>
<!-- Node36&#45;&gt;Node37 -->
<g id="edge4" class="edge"><title>Node36&#45;&gt;Node37</title>
<path fill="none" stroke="midnightblue" d="M419.09,-3.26483C427.595,-3.21813 436.189,-3.28172 444.453,-3.4556"/>
<polygon fill="midnightblue" stroke="midnightblue" points="444.622,-6.9614 454.713,-3.73483 444.812,0.0360109 444.622,-6.9614"/>
</g>
<!-- Node37&#45;&gt;Node36 -->
<g id="edge5" class="edge"><title>Node37&#45;&gt;Node36</title>
<path fill="none" stroke="midnightblue" d="M454.713,-16.2652C446.626,-16.5381 438.01,-16.6958 429.312,-16.7383"/>
<polygon fill="midnightblue" stroke="midnightblue" points="429.091,-13.2383 419.09,-16.7352 429.089,-20.2383 429.091,-13.2383"/>
</g>
</g>
</svg>
        <g id="navigator" transform="translate(0 0)" fill="#404254">
                <rect fill="#f2f5e9" fill-opacity="0.5" stroke="#606060" stroke-width=".5" x="0" y="0" width="60" height="60"/>
                <use id="zoomplus" xlink:href="#zoomPlus" x="17" y="9" onmousedown="handleZoom(evt,'in')"/>
                <use id="zoomminus" xlink:href="#zoomMin" x="42" y="9" onmousedown="handleZoom(evt,'out')"/>
                <use id="reset" xlink:href="#resetDef" x="30" y="36" onmousedown="handleReset()"/>
                <g id="arrowUp" xlink:href="#dirArrow" transform="translate(30 24)" onmousedown="handlePan(0,-1)">
                  <use xlink:href="#rim" fill="#404040">
                        <set attributeName="fill" to="#808080" begin="arrowUp.mouseover" end="arrowUp.mouseout"/>
                  </use>
                  <path fill="none" stroke="white" stroke-width="1.5" d="M0,-3.0v7 M-2.5,-0.5L0,-3.0L2.5,-0.5"/>
                </g>
                <g id="arrowRight" xlink:href="#dirArrow" transform="rotate(90) translate(36 -43)" onmousedown="handlePan(1,0)">
                  <use xlink:href="#rim" fill="#404040">
                        <set attributeName="fill" to="#808080" begin="arrowRight.mouseover" end="arrowRight.mouseout"/>
                  </use>
                  <path fill="none" stroke="white" stroke-width="1.5" d="M0,-3.0v7 M-2.5,-0.5L0,-3.0L2.5,-0.5"/>
                </g>
                <g id="arrowDown" xlink:href="#dirArrow" transform="rotate(180) translate(-30 -48)" onmousedown="handlePan(0,1)">
                  <use xlink:href="#rim" fill="#404040">
                        <set attributeName="fill" to="#808080" begin="arrowDown.mouseover" end="arrowDown.mouseout"/>
                  </use>
                  <path fill="none" stroke="white" stroke-width="1.5" d="M0,-3.0v7 M-2.5,-0.5L0,-3.0L2.5,-0.5"/>
                </g>
                <g id="arrowLeft" xlink:href="#dirArrow" transform="rotate(270) translate(-36 17)" onmousedown="handlePan(-1,0)">
                  <use xlink:href="#rim" fill="#404040">
                        <set attributeName="fill" to="#808080" begin="arrowLeft.mouseover" end="arrowLeft.mouseout"/>
                  </use>
                  <path fill="none" stroke="white" stroke-width="1.5" d="M0,-3.0v7 M-2.5,-0.5L0,-3.0L2.5,-0.5"/>
                </g>
        </g>
        <svg viewBox="0 0 15 15" width="100%" height="30px" preserveAspectRatio="xMaxYMin meet">
         <g id="arrow_out" transform="scale(0.3 0.3)">
          <a xlink:href="classopenage_1_1util_1_1fslike_1_1_directory_ac5dced8dddac80ad98b3804a64a36af0_cgraph_org.svg" target="_base">
           <rect id="button" ry="5" rx="5" y="6" x="6" height="38" width="38"
                fill="#f2f5e9" fill-opacity="0.5" stroke="#606060" stroke-width="1.0"/>
           <path id="arrow"
             d="M 11.500037,31.436501 C 11.940474,20.09759 22.043105,11.32322 32.158766,21.979434 L 37.068811,17.246167 C 37.068811,17.246167 37.088388,32 37.088388,32 L 22.160133,31.978069 C 22.160133,31.978069 26.997745,27.140456 26.997745,27.140456 C 18.528582,18.264221 13.291696,25.230495 11.500037,31.436501 z"
             style="fill:#404040;"/>
          </a>
         </g>
        </svg>
</svg>
