<?xml version="1.0" encoding="UTF-8" standalone="no"?>
<!DOCTYPE svg PUBLIC "-//W3C//DTD SVG 1.1//EN"
 "http://www.w3.org/Graphics/SVG/1.1/DTD/svg11.dtd">
<!-- Generated by graphviz version 2.38.0 (20140413.2041)
 -->
<!-- Title: openage::OutputMode::set_game_control Pages: 1 -->
<svg width="950pt" height="152pt"
 viewBox="0.00 0.00 950.00 151.50" xmlns="http://www.w3.org/2000/svg" xmlns:xlink="http://www.w3.org/1999/xlink">
<g id="graph0" class="graph" transform="scale(1 1) rotate(0) translate(4 147.5)">
<title>openage::OutputMode::set_game_control</title>
<polygon fill="white" stroke="none" points="-4,4 -4,-147.5 946,-147.5 946,4 -4,4"/>
<!-- Node81 -->
<g id="node1" class="node"><title>Node81</title>
<g id="a_node1"><a xlink:title=" ">
<polygon fill="#bfbfbf" stroke="black" points="0,-24.5 0,-54.5 113,-54.5 113,-24.5 0,-24.5"/>
<text text-anchor="start" x="8" y="-42.5" font-family="Helvetica,sans-Serif" font-size="10.00">openage::OutputMode</text>
<text text-anchor="middle" x="56.5" y="-31.5" font-family="Helvetica,sans-Serif" font-size="10.00">::set_game_control</text>
</a>
</g>
</g>
<!-- Node82 -->
<g id="node2" class="node"><title>Node82</title>
<g id="a_node2"><a xlink:href="classopenage_1_1_output_mode.xhtml#aafb84951c6575c14b5517312c5cfe191" target="_top" xlink:title=" ">
<polygon fill="white" stroke="black" points="150.5,-49.5 150.5,-79.5 263.5,-79.5 263.5,-49.5 150.5,-49.5"/>
<text text-anchor="start" x="158.5" y="-67.5" font-family="Helvetica,sans-Serif" font-size="10.00">openage::OutputMode</text>
<text text-anchor="middle" x="207" y="-56.5" font-family="Helvetica,sans-Serif" font-size="10.00">::announce</text>
</a>
</g>
</g>
<!-- Node81&#45;&gt;Node82 -->
<g id="edge1" class="edge"><title>Node81&#45;&gt;Node82</title>
<path fill="none" stroke="midnightblue" d="M113.218,-48.8802C122.068,-50.3701 131.293,-51.9231 140.345,-53.4471"/>
<polygon fill="midnightblue" stroke="midnightblue" points="140.021,-56.9416 150.463,-55.1504 141.183,-50.0387 140.021,-56.9416"/>
</g>
<!-- Node90 -->
<g id="node10" class="node"><title>Node90</title>
<g id="a_node10"><a xlink:href="classopenage_1_1_output_mode.xhtml#aa9737f66ac8869d475df2d22d073017e" target="_top" xlink:title=" ">
<polygon fill="white" stroke="black" points="149,-0.5 149,-30.5 265,-30.5 265,-0.5 149,-0.5"/>
<text text-anchor="start" x="157" y="-18.5" font-family="Helvetica,sans-Serif" font-size="10.00">openage::OutputMode</text>
<text text-anchor="middle" x="207" y="-7.5" font-family="Helvetica,sans-Serif" font-size="10.00">::on_game_control_set</text>
</a>
</g>
</g>
<!-- Node81&#45;&gt;Node90 -->
<g id="edge10" class="edge"><title>Node81&#45;&gt;Node90</title>
<path fill="none" stroke="midnightblue" d="M113.218,-30.495C121.618,-29.1375 130.356,-27.7253 138.963,-26.3342"/>
<polygon fill="midnightblue" stroke="midnightblue" points="139.666,-29.7662 148.979,-24.7155 138.549,-22.8559 139.666,-29.7662"/>
</g>
<!-- Node83 -->
<g id="node3" class="node"><title>Node83</title>
<g id="a_node3"><a xlink:href="classopenage_1_1input_1_1_input_context.xhtml#ab79e2d06d4aab199d3fb9c5dc5b6ff3f" target="_top" xlink:title=" ">
<polygon fill="white" stroke="black" points="301,-74.5 301,-104.5 442,-104.5 442,-74.5 301,-74.5"/>
<text text-anchor="start" x="309" y="-92.5" font-family="Helvetica,sans-Serif" font-size="10.00">openage::input::InputContext</text>
<text text-anchor="middle" x="371.5" y="-81.5" font-family="Helvetica,sans-Serif" font-size="10.00">::active_binds</text>
</a>
</g>
</g>
<!-- Node82&#45;&gt;Node83 -->
<g id="edge2" class="edge"><title>Node82&#45;&gt;Node83</title>
<path fill="none" stroke="midnightblue" d="M263.923,-73.1036C272.688,-74.452 281.89,-75.8676 291.061,-77.2785"/>
<polygon fill="midnightblue" stroke="midnightblue" points="290.562,-80.7429 300.978,-78.8043 291.626,-73.8243 290.562,-80.7429"/>
</g>
<!-- Node89 -->
<g id="node9" class="node"><title>Node89</title>
<g id="a_node9"><a xlink:href="classopenage_1_1_output_mode.xhtml#a088f019691b4233408a7d230b0a5604b" target="_top" xlink:title=" ">
<polygon fill="white" stroke="black" points="315,-25.5 315,-55.5 428,-55.5 428,-25.5 315,-25.5"/>
<text text-anchor="start" x="323" y="-43.5" font-family="Helvetica,sans-Serif" font-size="10.00">openage::OutputMode</text>
<text text-anchor="middle" x="371.5" y="-32.5" font-family="Helvetica,sans-Serif" font-size="10.00">::name</text>
</a>
</g>
</g>
<!-- Node82&#45;&gt;Node89 -->
<g id="edge9" class="edge"><title>Node82&#45;&gt;Node89</title>
<path fill="none" stroke="midnightblue" d="M263.923,-56.2406C277.019,-54.3065 291.09,-52.2283 304.576,-50.2365"/>
<polygon fill="midnightblue" stroke="midnightblue" points="305.368,-53.6576 314.749,-48.734 304.345,-46.7327 305.368,-53.6576"/>
</g>
<!-- Node84 -->
<g id="node4" class="node"><title>Node84</title>
<g id="a_node4"><a xlink:href="classopenage_1_1input_1_1_input_manager.xhtml#ac5b6bbe740edcca81b63996a22472a53" target="_top" xlink:title=" ">
<polygon fill="white" stroke="black" points="478,-74.5 478,-104.5 623,-104.5 623,-74.5 478,-74.5"/>
<text text-anchor="start" x="486" y="-92.5" font-family="Helvetica,sans-Serif" font-size="10.00">openage::input::InputManager</text>
<text text-anchor="middle" x="550.5" y="-81.5" font-family="Helvetica,sans-Serif" font-size="10.00">::active_binds</text>
</a>
</g>
</g>
<!-- Node83&#45;&gt;Node84 -->
<g id="edge3" class="edge"><title>Node83&#45;&gt;Node84</title>
<path fill="none" stroke="midnightblue" d="M442.201,-89.5C450.523,-89.5 459.077,-89.5 467.551,-89.5"/>
<polygon fill="midnightblue" stroke="midnightblue" points="467.827,-93.0001 477.827,-89.5 467.827,-86.0001 467.827,-93.0001"/>
</g>
<!-- Node85 -->
<g id="node5" class="node"><title>Node85</title>
<g id="a_node5"><a xlink:href="namespaceopenage_1_1testing_1_1testing.xhtml#ac25bf81db406af62d08113ef7ae9fd6e" target="_top" xlink:title=" ">
<polygon fill="white" stroke="black" points="662.5,-124 662.5,-143 807.5,-143 807.5,-124 662.5,-124"/>
<text text-anchor="middle" x="735" y="-131" font-family="Helvetica,sans-Serif" font-size="10.00">openage.testing.testing.result</text>
</a>
</g>
</g>
<!-- Node84&#45;&gt;Node85 -->
<g id="edge4" class="edge"><title>Node84&#45;&gt;Node85</title>
<path fill="none" stroke="midnightblue" d="M613.796,-104.519C636.988,-110.111 662.964,-116.374 684.819,-121.643"/>
<polygon fill="midnightblue" stroke="midnightblue" points="684.003,-125.046 694.545,-123.988 685.644,-118.241 684.003,-125.046"/>
</g>
<!-- Node87 -->
<g id="node7" class="node"><title>Node87</title>
<g id="a_node7"><a xlink:href="classopenage_1_1input_1_1_input_manager.xhtml#aa0777d6b8ecc513c2a90ae8273d1938c" target="_top" xlink:title=" ">
<polygon fill="white" stroke="black" points="662.5,-74.5 662.5,-104.5 807.5,-104.5 807.5,-74.5 662.5,-74.5"/>
<text text-anchor="start" x="670.5" y="-92.5" font-family="Helvetica,sans-Serif" font-size="10.00">openage::input::InputManager</text>
<text text-anchor="middle" x="735" y="-81.5" font-family="Helvetica,sans-Serif" font-size="10.00">::get_action_manager</text>
</a>
</g>
</g>
<!-- Node84&#45;&gt;Node87 -->
<g id="edge7" class="edge"><title>Node84&#45;&gt;Node87</title>
<path fill="none" stroke="midnightblue" d="M623.105,-89.5C632.666,-89.5 642.529,-89.5 652.246,-89.5"/>
<polygon fill="midnightblue" stroke="midnightblue" points="652.302,-93.0001 662.302,-89.5 652.302,-86.0001 652.302,-93.0001"/>
</g>
<!-- Node88 -->
<g id="node8" class="node"><title>Node88</title>
<g id="a_node8"><a xlink:href="classopenage_1_1input_1_1_action_manager.xhtml#a44e53d5edb2092424df17b709b743358" target="_top" xlink:title=" ">
<polygon fill="white" stroke="black" points="659,-25.5 659,-55.5 811,-55.5 811,-25.5 659,-25.5"/>
<text text-anchor="start" x="667" y="-43.5" font-family="Helvetica,sans-Serif" font-size="10.00">openage::input::ActionManager</text>
<text text-anchor="middle" x="735" y="-32.5" font-family="Helvetica,sans-Serif" font-size="10.00">::get_name</text>
</a>
</g>
</g>
<!-- Node84&#45;&gt;Node88 -->
<g id="edge8" class="edge"><title>Node84&#45;&gt;Node88</title>
<path fill="none" stroke="midnightblue" d="M607.745,-74.3986C626.829,-69.2747 648.32,-63.5044 668.089,-58.1968"/>
<polygon fill="midnightblue" stroke="midnightblue" points="669.19,-61.525 677.941,-55.5516 667.375,-54.7645 669.19,-61.525"/>
</g>
<!-- Node86 -->
<g id="node6" class="node"><title>Node86</title>
<g id="a_node6"><a xlink:href="namespaceopenage_1_1util.xhtml#a7bc4421a5f0f57f3a0aba3f96eb8d19c" target="_top" xlink:title=" ">
<polygon fill="white" stroke="black" points="847,-124 847,-143 942,-143 942,-124 847,-124"/>
<text text-anchor="middle" x="894.5" y="-131" font-family="Helvetica,sans-Serif" font-size="10.00">openage::util::repr</text>
</a>
</g>
</g>
<!-- Node85&#45;&gt;Node86 -->
<g id="edge5" class="edge"><title>Node85&#45;&gt;Node86</title>
<path fill="none" stroke="midnightblue" d="M807.837,-126.773C817.386,-126.709 827.072,-126.778 836.327,-126.98"/>
<polygon fill="midnightblue" stroke="midnightblue" points="836.469,-130.486 846.563,-127.266 836.664,-123.488 836.469,-130.486"/>
</g>
<!-- Node86&#45;&gt;Node85 -->
<g id="edge6" class="edge"><title>Node86&#45;&gt;Node85</title>
<path fill="none" stroke="midnightblue" d="M846.563,-139.734C837.522,-140.044 827.809,-140.214 818.028,-140.245"/>
<polygon fill="midnightblue" stroke="midnightblue" points="817.843,-136.745 807.837,-140.227 817.83,-143.745 817.843,-136.745"/>
</g>
</g>
</svg>
