<?xml version="1.0" encoding="UTF-8" standalone="no"?>
<!DOCTYPE svg PUBLIC "-//W3C//DTD SVG 1.1//EN"
 "http://www.w3.org/Graphics/SVG/1.1/DTD/svg11.dtd">
<!-- Generated by graphviz version 2.38.0 (20140413.2041)
 -->
<!-- Title: qtsdl::TemporaryDisableGuiRendererSync::~TemporaryDisableGuiRendererSync Pages: 1 -->
<svg width="328pt" height="50pt"
 viewBox="0.00 0.00 328.00 50.00" xmlns="http://www.w3.org/2000/svg" xmlns:xlink="http://www.w3.org/1999/xlink">
<g id="graph0" class="graph" transform="scale(1 1) rotate(0) translate(4 46)">
<title>qtsdl::TemporaryDisableGuiRendererSync::~TemporaryDisableGuiRendererSync</title>
<polygon fill="white" stroke="none" points="-4,4 -4,-46 324,-46 324,4 -4,4"/>
<!-- Node2 -->
<g id="node1" class="node"><title>Node2</title>
<g id="a_node1"><a xlink:title=" ">
<polygon fill="#bfbfbf" stroke="black" points="0,-0.5 0,-41.5 168,-41.5 168,-0.5 0,-0.5"/>
<text text-anchor="start" x="8" y="-29.5" font-family="Helvetica,sans-Serif" font-size="10.00">qtsdl::TemporaryDisableGui</text>
<text text-anchor="start" x="8" y="-18.5" font-family="Helvetica,sans-Serif" font-size="10.00">RendererSync::~TemporaryDisable</text>
<text text-anchor="middle" x="84" y="-7.5" font-family="Helvetica,sans-Serif" font-size="10.00">GuiRendererSync</text>
</a>
</g>
</g>
<!-- Node3 -->
<g id="node2" class="node"><title>Node3</title>
<g id="a_node2"><a xlink:href="classqtsdl_1_1_gui_renderer_impl.xhtml#a9cbfe11160f7430b912b9dce3fb3063c" target="_top" xlink:title="Sets &#39;GuiRendererImpl::need_sync&#39; to true.">
<polygon fill="white" stroke="black" points="204,-6 204,-36 320,-36 320,-6 204,-6"/>
<text text-anchor="start" x="212" y="-24" font-family="Helvetica,sans-Serif" font-size="10.00">qtsdl::GuiRendererImpl</text>
<text text-anchor="middle" x="262" y="-13" font-family="Helvetica,sans-Serif" font-size="10.00">::demand_sync</text>
</a>
</g>
</g>
<!-- Node2&#45;&gt;Node3 -->
<g id="edge1" class="edge"><title>Node2&#45;&gt;Node3</title>
<path fill="none" stroke="midnightblue" d="M168.104,-21C176.709,-21 185.378,-21 193.778,-21"/>
<polygon fill="midnightblue" stroke="midnightblue" points="193.869,-24.5001 203.869,-21 193.869,-17.5001 193.869,-24.5001"/>
</g>
</g>
</svg>
