<?xml version="1.0" encoding="UTF-8" standalone="no"?>
<!DOCTYPE svg PUBLIC "-//W3C//DTD SVG 1.1//EN"
 "http://www.w3.org/Graphics/SVG/1.1/DTD/svg11.dtd">
<!-- Generated by graphviz version 2.38.0 (20140413.2041)
 -->
<!-- Title: openage.util.filelike.readonly.PosSavingReadOnlyFileLikeObject Pages: 1 -->
<svg width="485pt" height="816pt"
 viewBox="0.00 0.00 485.00 816.00" xmlns="http://www.w3.org/2000/svg" xmlns:xlink="http://www.w3.org/1999/xlink">
<g id="graph0" class="graph" transform="scale(1 1) rotate(0) translate(4 812)">
<title>openage.util.filelike.readonly.PosSavingReadOnlyFileLikeObject</title>
<polygon fill="white" stroke="none" points="-4,4 -4,-812 481,-812 481,4 -4,4"/>
<!-- Node0 -->
<g id="node1" class="node"><title>Node0</title>
<g id="a_node1"><a xlink:title="Stores the current seek position in self.pos.">
<polygon fill="#bfbfbf" stroke="black" points="173,-226.5 173,-327.5 340,-327.5 340,-226.5 173,-226.5"/>
<text text-anchor="start" x="181" y="-315.5" font-family="Helvetica,sans-Serif" font-size="10.00">openage.util.filelike.readonly.</text>
<text text-anchor="middle" x="256.5" y="-304.5" font-family="Helvetica,sans-Serif" font-size="10.00">PosSavingReadOnlyFileLikeObject</text>
<polyline fill="none" stroke="black" points="173,-297.5 340,-297.5 "/>
<text text-anchor="start" x="181" y="-285.5" font-family="Helvetica,sans-Serif" font-size="10.00">+ pos</text>
<polyline fill="none" stroke="black" points="173,-278.5 340,-278.5 "/>
<text text-anchor="start" x="181" y="-266.5" font-family="Helvetica,sans-Serif" font-size="10.00">+ __init__()</text>
<text text-anchor="start" x="181" y="-255.5" font-family="Helvetica,sans-Serif" font-size="10.00">+ seek()</text>
<text text-anchor="start" x="181" y="-244.5" font-family="Helvetica,sans-Serif" font-size="10.00">+ seekable()</text>
<text text-anchor="start" x="181" y="-233.5" font-family="Helvetica,sans-Serif" font-size="10.00">+ tell()</text>
</a>
</g>
</g>
<!-- Node4 -->
<g id="node5" class="node"><title>Node4</title>
<g id="a_node5"><a xlink:href="classopenage_1_1cabextract_1_1cab_1_1_c_a_b_folder_stream.xhtml" target="_top" xlink:title=" ">
<polygon fill="white" stroke="black" points="0,-0.5 0,-189.5 171,-189.5 171,-0.5 0,-0.5"/>
<text text-anchor="start" x="8" y="-177.5" font-family="Helvetica,sans-Serif" font-size="10.00">openage.cabextract.cab.CABFolder</text>
<text text-anchor="middle" x="85.5" y="-166.5" font-family="Helvetica,sans-Serif" font-size="10.00">Stream</text>
<polyline fill="none" stroke="black" points="0,-159.5 171,-159.5 "/>
<text text-anchor="start" x="8" y="-147.5" font-family="Helvetica,sans-Serif" font-size="10.00">+ fileobj</text>
<text text-anchor="start" x="8" y="-136.5" font-family="Helvetica,sans-Serif" font-size="10.00">+ blockcount</text>
<text text-anchor="start" x="8" y="-125.5" font-family="Helvetica,sans-Serif" font-size="10.00">+ blockreserved</text>
<text text-anchor="start" x="8" y="-114.5" font-family="Helvetica,sans-Serif" font-size="10.00">+ blockoffsets</text>
<text text-anchor="start" x="8" y="-103.5" font-family="Helvetica,sans-Serif" font-size="10.00">+ streamindex</text>
<text text-anchor="start" x="8" y="-92.5" font-family="Helvetica,sans-Serif" font-size="10.00">+ closed</text>
<polyline fill="none" stroke="black" points="0,-85.5 171,-85.5 "/>
<text text-anchor="start" x="8" y="-73.5" font-family="Helvetica,sans-Serif" font-size="10.00">+ __init__()</text>
<text text-anchor="start" x="8" y="-62.5" font-family="Helvetica,sans-Serif" font-size="10.00">+ next_block_size()</text>
<text text-anchor="start" x="8" y="-51.5" font-family="Helvetica,sans-Serif" font-size="10.00">+ read_block_data()</text>
<text text-anchor="start" x="8" y="-40.5" font-family="Helvetica,sans-Serif" font-size="10.00">+ read_blocks()</text>
<text text-anchor="start" x="8" y="-29.5" font-family="Helvetica,sans-Serif" font-size="10.00">+ read()</text>
<text text-anchor="start" x="8" y="-18.5" font-family="Helvetica,sans-Serif" font-size="10.00">+ get_size()</text>
<text text-anchor="start" x="8" y="-7.5" font-family="Helvetica,sans-Serif" font-size="10.00">+ close()</text>
</a>
</g>
</g>
<!-- Node0&#45;&gt;Node4 -->
<g id="edge4" class="edge"><title>Node0&#45;&gt;Node4</title>
<path fill="none" stroke="midnightblue" d="M202.237,-218.881C192.339,-208.462 181.793,-197.361 171.243,-186.255"/>
<polygon fill="none" stroke="midnightblue" points="199.896,-221.498 209.321,-226.338 204.971,-216.677 199.896,-221.498"/>
</g>
<!-- Node5 -->
<g id="node6" class="node"><title>Node5</title>
<g id="a_node6"><a xlink:href="classopenage_1_1util_1_1filelike_1_1stream_1_1_stream_fragment.xhtml" target="_top" xlink:title=" ">
<polygon fill="white" stroke="black" points="189,-28 189,-162 324,-162 324,-28 189,-28"/>
<text text-anchor="start" x="197" y="-150" font-family="Helvetica,sans-Serif" font-size="10.00">openage.util.filelike.stream.</text>
<text text-anchor="middle" x="256.5" y="-139" font-family="Helvetica,sans-Serif" font-size="10.00">StreamFragment</text>
<polyline fill="none" stroke="black" points="189,-132 324,-132 "/>
<text text-anchor="start" x="197" y="-120" font-family="Helvetica,sans-Serif" font-size="10.00">+ stream</text>
<text text-anchor="start" x="197" y="-109" font-family="Helvetica,sans-Serif" font-size="10.00">+ start</text>
<text text-anchor="start" x="197" y="-98" font-family="Helvetica,sans-Serif" font-size="10.00">+ size</text>
<text text-anchor="start" x="197" y="-87" font-family="Helvetica,sans-Serif" font-size="10.00">+ closed</text>
<polyline fill="none" stroke="black" points="189,-80 324,-80 "/>
<text text-anchor="start" x="197" y="-68" font-family="Helvetica,sans-Serif" font-size="10.00">+ __init__()</text>
<text text-anchor="start" x="197" y="-57" font-family="Helvetica,sans-Serif" font-size="10.00">+ read()</text>
<text text-anchor="start" x="197" y="-46" font-family="Helvetica,sans-Serif" font-size="10.00">+ get_size()</text>
<text text-anchor="start" x="197" y="-35" font-family="Helvetica,sans-Serif" font-size="10.00">+ close()</text>
</a>
</g>
</g>
<!-- Node0&#45;&gt;Node5 -->
<g id="edge5" class="edge"><title>Node0&#45;&gt;Node5</title>
<path fill="none" stroke="midnightblue" d="M256.5,-216.311C256.5,-198.906 256.5,-179.79 256.5,-162.018"/>
<polygon fill="none" stroke="midnightblue" points="253,-216.338 256.5,-226.338 260,-216.338 253,-216.338"/>
</g>
<!-- Node6 -->
<g id="node7" class="node"><title>Node6</title>
<g id="a_node7"><a xlink:href="classopenage_1_1util_1_1filelike_1_1stream_1_1_stream_seek_buffer.xhtml" target="_top" xlink:title=" ">
<polygon fill="white" stroke="black" points="342,-17 342,-173 477,-173 477,-17 342,-17"/>
<text text-anchor="start" x="350" y="-161" font-family="Helvetica,sans-Serif" font-size="10.00">openage.util.filelike.stream.</text>
<text text-anchor="middle" x="409.5" y="-150" font-family="Helvetica,sans-Serif" font-size="10.00">StreamSeekBuffer</text>
<polyline fill="none" stroke="black" points="342,-143 477,-143 "/>
<text text-anchor="start" x="350" y="-131" font-family="Helvetica,sans-Serif" font-size="10.00">+ wrapped</text>
<text text-anchor="start" x="350" y="-120" font-family="Helvetica,sans-Serif" font-size="10.00">+ keepbuffered</text>
<text text-anchor="start" x="350" y="-109" font-family="Helvetica,sans-Serif" font-size="10.00">+ minread</text>
<text text-anchor="start" x="350" y="-98" font-family="Helvetica,sans-Serif" font-size="10.00">+ buf</text>
<text text-anchor="start" x="350" y="-87" font-family="Helvetica,sans-Serif" font-size="10.00">+ closed</text>
<polyline fill="none" stroke="black" points="342,-80 477,-80 "/>
<text text-anchor="start" x="350" y="-68" font-family="Helvetica,sans-Serif" font-size="10.00">+ __init__()</text>
<text text-anchor="start" x="350" y="-57" font-family="Helvetica,sans-Serif" font-size="10.00">+ resetwrappeed()</text>
<text text-anchor="start" x="350" y="-46" font-family="Helvetica,sans-Serif" font-size="10.00">+ read()</text>
<text text-anchor="start" x="350" y="-35" font-family="Helvetica,sans-Serif" font-size="10.00">+ get_size()</text>
<text text-anchor="start" x="350" y="-24" font-family="Helvetica,sans-Serif" font-size="10.00">+ close()</text>
</a>
</g>
</g>
<!-- Node0&#45;&gt;Node6 -->
<g id="edge6" class="edge"><title>Node0&#45;&gt;Node6</title>
<path fill="none" stroke="midnightblue" d="M308.452,-218.781C316.905,-209.241 325.506,-199.393 333.5,-190 338.124,-184.566 342.861,-178.917 347.598,-173.207"/>
<polygon fill="none" stroke="midnightblue" points="305.749,-216.554 301.718,-226.352 310.979,-221.206 305.749,-216.554"/>
</g>
<!-- Node1 -->
<g id="node2" class="node"><title>Node1</title>
<g id="a_node2"><a xlink:href="classopenage_1_1util_1_1filelike_1_1readonly_1_1_read_only_file_like_object.xhtml" target="_top" xlink:title=" ">
<polygon fill="white" stroke="black" points="185.5,-364.5 185.5,-465.5 327.5,-465.5 327.5,-364.5 185.5,-364.5"/>
<text text-anchor="start" x="193.5" y="-453.5" font-family="Helvetica,sans-Serif" font-size="10.00">openage.util.filelike.readonly.</text>
<text text-anchor="middle" x="256.5" y="-442.5" font-family="Helvetica,sans-Serif" font-size="10.00">ReadOnlyFileLikeObject</text>
<polyline fill="none" stroke="black" points="185.5,-435.5 327.5,-435.5 "/>
<text text-anchor="middle" x="256.5" y="-423.5" font-family="Helvetica,sans-Serif" font-size="10.00"> </text>
<polyline fill="none" stroke="black" points="185.5,-416.5 327.5,-416.5 "/>
<text text-anchor="start" x="193.5" y="-404.5" font-family="Helvetica,sans-Serif" font-size="10.00">+ flush()</text>
<text text-anchor="start" x="193.5" y="-393.5" font-family="Helvetica,sans-Serif" font-size="10.00">+ readable()</text>
<text text-anchor="start" x="193.5" y="-382.5" font-family="Helvetica,sans-Serif" font-size="10.00">+ write()</text>
<text text-anchor="start" x="193.5" y="-371.5" font-family="Helvetica,sans-Serif" font-size="10.00">+ writable()</text>
</a>
</g>
</g>
<!-- Node1&#45;&gt;Node0 -->
<g id="edge1" class="edge"><title>Node1&#45;&gt;Node0</title>
<path fill="none" stroke="midnightblue" d="M256.5,-354C256.5,-345.271 256.5,-336.363 256.5,-327.863"/>
<polygon fill="none" stroke="midnightblue" points="253,-354.131 256.5,-364.131 260,-354.131 253,-354.131"/>
</g>
<!-- Node2 -->
<g id="node3" class="node"><title>Node2</title>
<g id="a_node3"><a xlink:href="classopenage_1_1util_1_1filelike_1_1abstract_1_1_file_like_object.xhtml" target="_top" xlink:title="Abstract base class for file&#45;like objects.">
<polygon fill="white" stroke="black" points="186.5,-502.5 186.5,-713.5 326.5,-713.5 326.5,-502.5 186.5,-502.5"/>
<text text-anchor="start" x="194.5" y="-701.5" font-family="Helvetica,sans-Serif" font-size="10.00">openage.util.filelike.abstract.</text>
<text text-anchor="middle" x="256.5" y="-690.5" font-family="Helvetica,sans-Serif" font-size="10.00">FileLikeObject</text>
<polyline fill="none" stroke="black" points="186.5,-683.5 326.5,-683.5 "/>
<text text-anchor="start" x="194.5" y="-671.5" font-family="Helvetica,sans-Serif" font-size="10.00">+ closed</text>
<polyline fill="none" stroke="black" points="186.5,-664.5 326.5,-664.5 "/>
<text text-anchor="start" x="194.5" y="-652.5" font-family="Helvetica,sans-Serif" font-size="10.00">+ __init__()</text>
<text text-anchor="start" x="194.5" y="-641.5" font-family="Helvetica,sans-Serif" font-size="10.00">+ read()</text>
<text text-anchor="start" x="194.5" y="-630.5" font-family="Helvetica,sans-Serif" font-size="10.00">+ readable()</text>
<text text-anchor="start" x="194.5" y="-619.5" font-family="Helvetica,sans-Serif" font-size="10.00">+ write()</text>
<text text-anchor="start" x="194.5" y="-608.5" font-family="Helvetica,sans-Serif" font-size="10.00">+ writable()</text>
<text text-anchor="start" x="194.5" y="-597.5" font-family="Helvetica,sans-Serif" font-size="10.00">+ seek()</text>
<text text-anchor="start" x="194.5" y="-586.5" font-family="Helvetica,sans-Serif" font-size="10.00">+ seekable()</text>
<text text-anchor="start" x="194.5" y="-575.5" font-family="Helvetica,sans-Serif" font-size="10.00">+ tell()</text>
<text text-anchor="start" x="194.5" y="-564.5" font-family="Helvetica,sans-Serif" font-size="10.00">+ close()</text>
<text text-anchor="start" x="194.5" y="-553.5" font-family="Helvetica,sans-Serif" font-size="10.00">+ flush()</text>
<text text-anchor="start" x="194.5" y="-542.5" font-family="Helvetica,sans-Serif" font-size="10.00">+ get_size()</text>
<text text-anchor="start" x="194.5" y="-531.5" font-family="Helvetica,sans-Serif" font-size="10.00">+ __enter__()</text>
<text text-anchor="start" x="194.5" y="-520.5" font-family="Helvetica,sans-Serif" font-size="10.00">+ __exit__()</text>
<text text-anchor="start" x="194.5" y="-509.5" font-family="Helvetica,sans-Serif" font-size="10.00">+ seek_helper()</text>
</a>
</g>
</g>
<!-- Node2&#45;&gt;Node1 -->
<g id="edge2" class="edge"><title>Node2&#45;&gt;Node1</title>
<path fill="none" stroke="midnightblue" d="M256.5,-492.234C256.5,-483.051 256.5,-474.115 256.5,-465.787"/>
<polygon fill="none" stroke="midnightblue" points="253,-492.28 256.5,-502.28 260,-492.28 253,-492.28"/>
</g>
<!-- Node3 -->
<g id="node4" class="node"><title>Node3</title>
<g id="a_node4"><a xlink:title=" ">
<polygon fill="white" stroke="#bfbfbf" points="238,-750.5 238,-807.5 275,-807.5 275,-750.5 238,-750.5"/>
<text text-anchor="middle" x="256.5" y="-795.5" font-family="Helvetica,sans-Serif" font-size="10.00">ABC</text>
<polyline fill="none" stroke="#bfbfbf" points="238,-788.5 275,-788.5 "/>
<text text-anchor="middle" x="256.5" y="-776.5" font-family="Helvetica,sans-Serif" font-size="10.00"> </text>
<polyline fill="none" stroke="#bfbfbf" points="238,-769.5 275,-769.5 "/>
<text text-anchor="middle" x="256.5" y="-757.5" font-family="Helvetica,sans-Serif" font-size="10.00"> </text>
</a>
</g>
</g>
<!-- Node3&#45;&gt;Node2 -->
<g id="edge3" class="edge"><title>Node3&#45;&gt;Node2</title>
<path fill="none" stroke="midnightblue" d="M256.5,-740.233C256.5,-732.038 256.5,-722.987 256.5,-713.584"/>
<polygon fill="none" stroke="midnightblue" points="253,-740.471 256.5,-750.471 260,-740.471 253,-740.471"/>
</g>
</g>
</svg>
