<?xml version="1.0" encoding="UTF-8" standalone="no"?>
<!DOCTYPE svg PUBLIC "-//W3C//DTD SVG 1.1//EN"
 "http://www.w3.org/Graphics/SVG/1.1/DTD/svg11.dtd">
<!-- Generated by graphviz version 2.38.0 (20140413.2041)
 -->
<!-- Title: openage::renderer::ShaderProgram::update_uniform_input Pages: 1 -->
<svg width="333pt" height="100pt"
 viewBox="0.00 0.00 333.00 99.50" xmlns="http://www.w3.org/2000/svg" xmlns:xlink="http://www.w3.org/1999/xlink">
<g id="graph0" class="graph" transform="scale(1 1) rotate(0) translate(4 95.5)">
<title>openage::renderer::ShaderProgram::update_uniform_input</title>
<polygon fill="white" stroke="none" points="-4,4 -4,-95.5 329,-95.5 329,4 -4,4"/>
<!-- Node39 -->
<g id="node1" class="node"><title>Node39</title>
<g id="a_node1"><a xlink:title=" ">
<polygon fill="#bfbfbf" stroke="black" points="206,-27.5 206,-68.5 325,-68.5 325,-27.5 206,-27.5"/>
<text text-anchor="start" x="214" y="-56.5" font-family="Helvetica,sans-Serif" font-size="10.00">openage::renderer::</text>
<text text-anchor="start" x="214" y="-45.5" font-family="Helvetica,sans-Serif" font-size="10.00">ShaderProgram::update</text>
<text text-anchor="middle" x="265.5" y="-34.5" font-family="Helvetica,sans-Serif" font-size="10.00">_uniform_input</text>
</a>
</g>
</g>
<!-- Node40 -->
<g id="node2" class="node"><title>Node40</title>
<g id="a_node2"><a xlink:href="classopenage_1_1renderer_1_1_shader_program.xhtml#ab6dd8cc82461a8dd2e08087264f658bd" target="_top" xlink:title="Creates a new uniform input (a binding of uniform names to values) for this shader and optionally set...">
<polygon fill="white" stroke="black" points="0,-61 0,-91 170,-91 170,-61 0,-61"/>
<text text-anchor="start" x="8" y="-79" font-family="Helvetica,sans-Serif" font-size="10.00">openage::renderer::</text>
<text text-anchor="middle" x="85" y="-68" font-family="Helvetica,sans-Serif" font-size="10.00">ShaderProgram::new_uniform_input</text>
</a>
</g>
</g>
<!-- Node39&#45;&gt;Node40 -->
<g id="edge1" class="edge"><title>Node39&#45;&gt;Node40</title>
<path fill="none" stroke="midnightblue" d="M195.529,-58.819C187.189,-60.1273 178.599,-61.4747 170.072,-62.8122"/>
<polygon fill="midnightblue" stroke="midnightblue" points="196.221,-62.2533 205.558,-57.2458 195.136,-55.3379 196.221,-62.2533"/>
</g>
<!-- Node41 -->
<g id="node3" class="node"><title>Node41</title>
<g id="a_node3"><a xlink:href="classopenage_1_1renderer_1_1_shader_program.xhtml#a40d140c46c04de019b5081c5276bf201" target="_top" xlink:title="Updates the given uniform input with new uniform values similarly to new_uniform_input.">
<polygon fill="white" stroke="black" points="25.5,-0.5 25.5,-41.5 144.5,-41.5 144.5,-0.5 25.5,-0.5"/>
<text text-anchor="start" x="33.5" y="-29.5" font-family="Helvetica,sans-Serif" font-size="10.00">openage::renderer::</text>
<text text-anchor="start" x="33.5" y="-18.5" font-family="Helvetica,sans-Serif" font-size="10.00">ShaderProgram::update</text>
<text text-anchor="middle" x="85" y="-7.5" font-family="Helvetica,sans-Serif" font-size="10.00">_uniform_input</text>
</a>
</g>
</g>
<!-- Node39&#45;&gt;Node41 -->
<g id="edge2" class="edge"><title>Node39&#45;&gt;Node41</title>
<path fill="none" stroke="midnightblue" d="M195.279,-37.5295C178.527,-34.9957 160.783,-32.3118 144.576,-29.8602"/>
<polygon fill="midnightblue" stroke="midnightblue" points="195.147,-41.0493 205.558,-39.0844 196.194,-34.1281 195.147,-41.0493"/>
</g>
</g>
</svg>
