<?xml version="1.0" encoding="UTF-8" standalone="no"?>
<!DOCTYPE svg PUBLIC "-//W3C//DTD SVG 1.1//EN"
 "http://www.w3.org/Graphics/SVG/1.1/DTD/svg11.dtd">
<!-- Generated by graphviz version 2.38.0 (20140413.2041)
 -->
<!-- Title: openage::curve::Discrete::get_previous Pages: 1 -->
<!--zoomable 283 -->
<svg id="main" version="1.1" xmlns="http://www.w3.org/2000/svg" xmlns:xlink="http://www.w3.org/1999/xlink" xml:space="preserve" onload="init(evt)">
<style type="text/css"><![CDATA[
.edge:hover path { stroke: red; }
.edge:hover polygon { stroke: red; fill: red; }
]]></style>
<script type="text/javascript"><![CDATA[
var edges = document.getElementsByTagName('g');
if (edges && edges.length) {
  for (var i=0;i<edges.length;i++) {
    if (edges[i].id.substr(0,4)=='edge') {
      edges[i].setAttribute('class','edge');
    }
  }
}
]]></script>
        <defs>
                <circle id="rim" cx="0" cy="0" r="7"/>
                <circle id="rim2" cx="0" cy="0" r="3.5"/>
                <g id="zoomPlus">
                        <use xlink:href="#rim" fill="#404040">
                                <set attributeName="fill" to="#808080" begin="zoomplus.mouseover" end="zoomplus.mouseout"/>
                        </use>
                        <path d="M-4,0h8M0,-4v8" fill="none" stroke="white" stroke-width="1.5" pointer-events="none"/>
                </g>
                <g id="zoomMin">
                        <use xlink:href="#rim" fill="#404040">
                                <set attributeName="fill" to="#808080" begin="zoomminus.mouseover" end="zoomminus.mouseout"/>
                        </use>
                        <path d="M-4,0h8" fill="none" stroke="white" stroke-width="1.5" pointer-events="none"/>
                </g>
                <g id="dirArrow">
                        <path fill="none" stroke="white" stroke-width="1.5" d="M0,-3.0v7 M-2.5,-0.5L0,-3.0L2.5,-0.5"/>
                </g>
               <g id="resetDef">
                       <use xlink:href="#rim2" fill="#404040">
                               <set attributeName="fill" to="#808080" begin="reset.mouseover" end="reset.mouseout"/>
                       </use>
               </g>
        </defs>

<script type="text/javascript">
var viewWidth = 780;
var viewHeight = 283;
var sectionId = 'dynsection-4';
</script>
<script xlink:href="svgpan.js"/>
<svg id="graph" class="graph">
<g id="viewport">
<title>openage::curve::Discrete::get_previous</title>
<polygon fill="white" stroke="none" points="-4,4 -4,-279 776,-279 776,4 -4,4"/>
<!-- Node12 -->
<g id="node1" class="node"><title>Node12</title>
<g id="a_node1"><a xlink:title="Return, if existing, the time and value of keyframe with time &lt; t.">
<polygon fill="#bfbfbf" stroke="black" points="0,-113.5 0,-143.5 124,-143.5 124,-113.5 0,-113.5"/>
<text text-anchor="start" x="8" y="-131.5" font-family="Helvetica,sans-Serif" font-size="10.00">openage::curve::Discrete</text>
<text text-anchor="middle" x="62" y="-120.5" font-family="Helvetica,sans-Serif" font-size="10.00">::get_previous</text>
</a>
</g>
</g>
<!-- Node13 -->
<g id="node2" class="node"><title>Node13</title>
<g id="a_node2"><a xlink:href="namespaceopenage_1_1curve_1_1tests.xhtml#afc4e799a037edab37e1e35a74da593b7" target="_top" xlink:title=" ">
<polygon fill="white" stroke="black" points="160,-113.5 160,-143.5 270,-143.5 270,-113.5 160,-113.5"/>
<text text-anchor="start" x="168" y="-131.5" font-family="Helvetica,sans-Serif" font-size="10.00">openage::curve::tests</text>
<text text-anchor="middle" x="215" y="-120.5" font-family="Helvetica,sans-Serif" font-size="10.00">::container</text>
</a>
</g>
</g>
<!-- Node12&#45;&gt;Node13 -->
<g id="edge1" class="edge"><title>Node12&#45;&gt;Node13</title>
<path fill="none" stroke="midnightblue" d="M124.417,-128.5C132.776,-128.5 141.374,-128.5 149.781,-128.5"/>
<polygon fill="midnightblue" stroke="midnightblue" points="149.912,-132 159.912,-128.5 149.912,-125 149.912,-132"/>
</g>
<!-- Node14 -->
<g id="node3" class="node"><title>Node14</title>
<g id="a_node3"><a xlink:href="namespaceopenage_1_1curve_1_1tests.xhtml#aafe8d47259322a390c43cae62d308296" target="_top" xlink:title=" ">
<polygon fill="white" stroke="black" points="306,-244.5 306,-274.5 416,-274.5 416,-244.5 306,-244.5"/>
<text text-anchor="start" x="314" y="-262.5" font-family="Helvetica,sans-Serif" font-size="10.00">openage::curve::tests</text>
<text text-anchor="middle" x="361" y="-251.5" font-family="Helvetica,sans-Serif" font-size="10.00">::test_map</text>
</a>
</g>
</g>
<!-- Node13&#45;&gt;Node14 -->
<g id="edge2" class="edge"><title>Node13&#45;&gt;Node14</title>
<path fill="none" stroke="midnightblue" d="M225.607,-143.87C240.436,-166.537 270.887,-209.091 306,-235.5 307.799,-236.853 309.686,-238.15 311.632,-239.391"/>
<polygon fill="midnightblue" stroke="midnightblue" points="310.051,-242.519 320.464,-244.473 313.542,-236.452 310.051,-242.519"/>
</g>
<!-- Node15 -->
<g id="node4" class="node"><title>Node15</title>
<g id="a_node4"><a xlink:href="namespaceopenage_1_1curve_1_1tests.xhtml#a994d019a14acd704605a0ccff85558c8" target="_top" xlink:title=" ">
<polygon fill="white" stroke="black" points="306,-195.5 306,-225.5 416,-225.5 416,-195.5 306,-195.5"/>
<text text-anchor="start" x="314" y="-213.5" font-family="Helvetica,sans-Serif" font-size="10.00">openage::curve::tests</text>
<text text-anchor="middle" x="361" y="-202.5" font-family="Helvetica,sans-Serif" font-size="10.00">::test_list</text>
</a>
</g>
</g>
<!-- Node13&#45;&gt;Node15 -->
<g id="edge3" class="edge"><title>Node13&#45;&gt;Node15</title>
<path fill="none" stroke="midnightblue" d="M241.927,-143.634C259.873,-154.072 284.333,-168.223 306,-180.5 311.695,-183.727 317.743,-187.12 323.653,-190.417"/>
<polygon fill="midnightblue" stroke="midnightblue" points="322.316,-193.678 332.756,-195.481 325.719,-187.561 322.316,-193.678"/>
</g>
<!-- Node16 -->
<g id="node5" class="node"><title>Node16</title>
<g id="a_node5"><a xlink:href="namespaceopenage_1_1curve_1_1tests.xhtml#ae4b27fadf76c2a10960f6b7e7ff7c724" target="_top" xlink:title=" ">
<polygon fill="white" stroke="black" points="306,-69.5 306,-99.5 416,-99.5 416,-69.5 306,-69.5"/>
<text text-anchor="start" x="314" y="-87.5" font-family="Helvetica,sans-Serif" font-size="10.00">openage::curve::tests</text>
<text text-anchor="middle" x="361" y="-76.5" font-family="Helvetica,sans-Serif" font-size="10.00">::test_queue</text>
</a>
</g>
</g>
<!-- Node13&#45;&gt;Node16 -->
<g id="edge4" class="edge"><title>Node13&#45;&gt;Node16</title>
<path fill="none" stroke="midnightblue" d="M265.154,-113.481C276.611,-109.98 288.93,-106.216 300.772,-102.597"/>
<polygon fill="midnightblue" stroke="midnightblue" points="302.038,-105.87 310.579,-99.6009 299.992,-99.176 302.038,-105.87"/>
</g>
<!-- Node17 -->
<g id="node6" class="node"><title>Node17</title>
<g id="a_node6"><a xlink:href="classopenage_1_1curve_1_1_queue.xhtml#ae7d94b0875221550e5af663a64ea2aec" target="_top" xlink:title=" ">
<polygon fill="white" stroke="black" points="463,-144.5 463,-174.5 579,-174.5 579,-144.5 463,-144.5"/>
<text text-anchor="start" x="471" y="-162.5" font-family="Helvetica,sans-Serif" font-size="10.00">openage::curve::Queue</text>
<text text-anchor="middle" x="521" y="-151.5" font-family="Helvetica,sans-Serif" font-size="10.00">::insert</text>
</a>
</g>
</g>
<!-- Node16&#45;&gt;Node17 -->
<g id="edge5" class="edge"><title>Node16&#45;&gt;Node17</title>
<path fill="none" stroke="midnightblue" d="M386.678,-99.5732C404.467,-110.099 429.251,-124.075 452,-134.5 456.669,-136.639 461.578,-138.732 466.532,-140.739"/>
<polygon fill="midnightblue" stroke="midnightblue" points="465.475,-144.084 476.063,-144.482 468.034,-137.569 465.475,-144.084"/>
</g>
<!-- Node19 -->
<g id="node8" class="node"><title>Node19</title>
<g id="a_node8"><a xlink:href="classopenage_1_1curve_1_1_queue.xhtml#acbff846f0aad39b82c1dbffe83f80fba" target="_top" xlink:title=" ">
<polygon fill="white" stroke="black" points="463,-95.5 463,-125.5 579,-125.5 579,-95.5 463,-95.5"/>
<text text-anchor="start" x="471" y="-113.5" font-family="Helvetica,sans-Serif" font-size="10.00">openage::curve::Queue</text>
<text text-anchor="middle" x="521" y="-102.5" font-family="Helvetica,sans-Serif" font-size="10.00">::begin</text>
</a>
</g>
</g>
<!-- Node16&#45;&gt;Node19 -->
<g id="edge8" class="edge"><title>Node16&#45;&gt;Node19</title>
<path fill="none" stroke="midnightblue" d="M416.375,-93.4477C428.091,-95.3757 440.61,-97.4358 452.75,-99.4335"/>
<polygon fill="midnightblue" stroke="midnightblue" points="452.397,-102.922 462.833,-101.093 453.534,-96.0154 452.397,-102.922"/>
</g>
<!-- Node20 -->
<g id="node9" class="node"><title>Node20</title>
<g id="a_node9"><a xlink:href="classopenage_1_1curve_1_1_queue.xhtml#a3ba35a56fa550d939d0d16c71c63e56c" target="_top" xlink:title=" ">
<polygon fill="white" stroke="black" points="463,-0.5 463,-30.5 579,-30.5 579,-0.5 463,-0.5"/>
<text text-anchor="start" x="471" y="-18.5" font-family="Helvetica,sans-Serif" font-size="10.00">openage::curve::Queue</text>
<text text-anchor="middle" x="521" y="-7.5" font-family="Helvetica,sans-Serif" font-size="10.00">::between</text>
</a>
</g>
</g>
<!-- Node16&#45;&gt;Node20 -->
<g id="edge11" class="edge"><title>Node16&#45;&gt;Node20</title>
<path fill="none" stroke="midnightblue" d="M396.674,-69.3577C420.033,-59.1565 451.037,-45.6167 476.114,-34.6652"/>
<polygon fill="midnightblue" stroke="midnightblue" points="477.644,-37.8167 485.407,-30.607 474.842,-31.4017 477.644,-37.8167"/>
</g>
<!-- Node21 -->
<g id="node10" class="node"><title>Node21</title>
<g id="a_node10"><a xlink:href="classopenage_1_1curve_1_1_queue.xhtml#a3a60297cec80ae6d759ea3567922db8e" target="_top" xlink:title=" ">
<polygon fill="white" stroke="black" points="452,-57 452,-76 590,-76 590,-57 452,-57"/>
<text text-anchor="middle" x="521" y="-64" font-family="Helvetica,sans-Serif" font-size="10.00">openage::curve::Queue::end</text>
</a>
</g>
</g>
<!-- Node16&#45;&gt;Node21 -->
<g id="edge13" class="edge"><title>Node16&#45;&gt;Node21</title>
<path fill="none" stroke="midnightblue" d="M416.375,-78.3054C424.587,-77.3698 433.194,-76.3893 441.788,-75.4102"/>
<polygon fill="midnightblue" stroke="midnightblue" points="442.308,-78.8737 451.847,-74.2642 441.515,-71.9187 442.308,-78.8737"/>
</g>
<!-- Node17&#45;&gt;Node13 -->
<g id="edge6" class="edge"><title>Node17&#45;&gt;Node13</title>
<path fill="none" stroke="midnightblue" d="M462.766,-153.664C410.892,-148.374 334.519,-140.586 280.502,-135.078"/>
<polygon fill="midnightblue" stroke="midnightblue" points="280.653,-131.575 270.349,-134.042 279.942,-138.539 280.653,-131.575"/>
</g>
<!-- Node18 -->
<g id="node7" class="node"><title>Node18</title>
<g id="a_node7"><a xlink:href="namespaceopenage_1_1console_1_1tests.xhtml#a46ebd3333dc9196558ac9aced828d117" target="_top" xlink:title=" ">
<polygon fill="white" stroke="black" points="626,-101 626,-120 772,-120 772,-101 626,-101"/>
<text text-anchor="middle" x="699" y="-108" font-family="Helvetica,sans-Serif" font-size="10.00">openage::console::tests::max</text>
</a>
</g>
</g>
<!-- Node17&#45;&gt;Node18 -->
<g id="edge7" class="edge"><title>Node17&#45;&gt;Node18</title>
<path fill="none" stroke="midnightblue" d="M576.242,-144.399C601.253,-137.435 630.551,-129.278 654.14,-122.711"/>
<polygon fill="midnightblue" stroke="midnightblue" points="655.176,-126.056 663.871,-120.002 653.298,-119.312 655.176,-126.056"/>
</g>
<!-- Node19&#45;&gt;Node13 -->
<g id="edge9" class="edge"><title>Node19&#45;&gt;Node13</title>
<path fill="none" stroke="midnightblue" d="M462.766,-113.889C410.892,-116.96 334.519,-121.482 280.502,-124.681"/>
<polygon fill="midnightblue" stroke="midnightblue" points="280.125,-121.197 270.349,-125.282 280.539,-128.185 280.125,-121.197"/>
</g>
<!-- Node19&#45;&gt;Node18 -->
<g id="edge10" class="edge"><title>Node19&#45;&gt;Node18</title>
<path fill="none" stroke="midnightblue" d="M579.142,-110.5C590.748,-110.5 603.173,-110.5 615.456,-110.5"/>
<polygon fill="midnightblue" stroke="midnightblue" points="615.72,-114 625.72,-110.5 615.72,-107 615.72,-114"/>
</g>
<!-- Node20&#45;&gt;Node13 -->
<g id="edge12" class="edge"><title>Node20&#45;&gt;Node13</title>
<path fill="none" stroke="midnightblue" d="M462.817,-13.9702C418.109,-14.9113 355.459,-21.0454 306,-44.5 276.429,-58.5232 250.033,-85.8239 233.595,-105.501"/>
<polygon fill="midnightblue" stroke="midnightblue" points="230.763,-103.436 227.179,-113.407 236.198,-107.847 230.763,-103.436"/>
</g>
<!-- Node21&#45;&gt;Node13 -->
<g id="edge14" class="edge"><title>Node21&#45;&gt;Node13</title>
<path fill="none" stroke="midnightblue" d="M479.72,-56.928C435.757,-48.3482 363.908,-39.8563 306,-59.5 278.836,-68.7145 253.442,-89.7879 236.601,-106.238"/>
<polygon fill="midnightblue" stroke="midnightblue" points="234.044,-103.846 229.489,-113.412 239.015,-108.775 234.044,-103.846"/>
</g>
<!-- Node21&#45;&gt;Node18 -->
<g id="edge15" class="edge"><title>Node21&#45;&gt;Node18</title>
<path fill="none" stroke="midnightblue" d="M560.189,-76.0473C586.482,-82.6204 621.619,-91.4048 649.833,-98.4583"/>
<polygon fill="midnightblue" stroke="midnightblue" points="649.335,-101.941 659.885,-100.971 651.033,-95.1504 649.335,-101.941"/>
</g>
</g>
</svg>
        <g id="navigator" transform="translate(0 0)" fill="#404254">
                <rect fill="#f2f5e9" fill-opacity="0.5" stroke="#606060" stroke-width=".5" x="0" y="0" width="60" height="60"/>
                <use id="zoomplus" xlink:href="#zoomPlus" x="17" y="9" onmousedown="handleZoom(evt,'in')"/>
                <use id="zoomminus" xlink:href="#zoomMin" x="42" y="9" onmousedown="handleZoom(evt,'out')"/>
                <use id="reset" xlink:href="#resetDef" x="30" y="36" onmousedown="handleReset()"/>
                <g id="arrowUp" xlink:href="#dirArrow" transform="translate(30 24)" onmousedown="handlePan(0,-1)">
                  <use xlink:href="#rim" fill="#404040">
                        <set attributeName="fill" to="#808080" begin="arrowUp.mouseover" end="arrowUp.mouseout"/>
                  </use>
                  <path fill="none" stroke="white" stroke-width="1.5" d="M0,-3.0v7 M-2.5,-0.5L0,-3.0L2.5,-0.5"/>
                </g>
                <g id="arrowRight" xlink:href="#dirArrow" transform="rotate(90) translate(36 -43)" onmousedown="handlePan(1,0)">
                  <use xlink:href="#rim" fill="#404040">
                        <set attributeName="fill" to="#808080" begin="arrowRight.mouseover" end="arrowRight.mouseout"/>
                  </use>
                  <path fill="none" stroke="white" stroke-width="1.5" d="M0,-3.0v7 M-2.5,-0.5L0,-3.0L2.5,-0.5"/>
                </g>
                <g id="arrowDown" xlink:href="#dirArrow" transform="rotate(180) translate(-30 -48)" onmousedown="handlePan(0,1)">
                  <use xlink:href="#rim" fill="#404040">
                        <set attributeName="fill" to="#808080" begin="arrowDown.mouseover" end="arrowDown.mouseout"/>
                  </use>
                  <path fill="none" stroke="white" stroke-width="1.5" d="M0,-3.0v7 M-2.5,-0.5L0,-3.0L2.5,-0.5"/>
                </g>
                <g id="arrowLeft" xlink:href="#dirArrow" transform="rotate(270) translate(-36 17)" onmousedown="handlePan(-1,0)">
                  <use xlink:href="#rim" fill="#404040">
                        <set attributeName="fill" to="#808080" begin="arrowLeft.mouseover" end="arrowLeft.mouseout"/>
                  </use>
                  <path fill="none" stroke="white" stroke-width="1.5" d="M0,-3.0v7 M-2.5,-0.5L0,-3.0L2.5,-0.5"/>
                </g>
        </g>
        <svg viewBox="0 0 15 15" width="100%" height="30px" preserveAspectRatio="xMaxYMin meet">
         <g id="arrow_out" transform="scale(0.3 0.3)">
          <a xlink:href="classopenage_1_1curve_1_1_discrete_a9be982a0d41cb6b5f2968aafcf147c82_cgraph_org.svg" target="_base">
           <rect id="button" ry="5" rx="5" y="6" x="6" height="38" width="38"
                fill="#f2f5e9" fill-opacity="0.5" stroke="#606060" stroke-width="1.0"/>
           <path id="arrow"
             d="M 11.500037,31.436501 C 11.940474,20.09759 22.043105,11.32322 32.158766,21.979434 L 37.068811,17.246167 C 37.068811,17.246167 37.088388,32 37.088388,32 L 22.160133,31.978069 C 22.160133,31.978069 26.997745,27.140456 26.997745,27.140456 C 18.528582,18.264221 13.291696,25.230495 11.500037,31.436501 z"
             style="fill:#404040;"/>
          </a>
         </g>
        </svg>
</svg>
