<?xml version="1.0" encoding="UTF-8" standalone="no"?>
<!DOCTYPE svg PUBLIC "-//W3C//DTD SVG 1.1//EN"
 "http://www.w3.org/Graphics/SVG/1.1/DTD/svg11.dtd">
<!-- Generated by graphviz version 2.38.0 (20140413.2041)
 -->
<!-- Title: openage::event::Loop::update_changes Pages: 1 -->
<!--zoomable 372 -->
<svg id="main" version="1.1" xmlns="http://www.w3.org/2000/svg" xmlns:xlink="http://www.w3.org/1999/xlink" xml:space="preserve" onload="init(evt)">
<style type="text/css"><![CDATA[
.edge:hover path { stroke: red; }
.edge:hover polygon { stroke: red; fill: red; }
]]></style>
<script type="text/javascript"><![CDATA[
var edges = document.getElementsByTagName('g');
if (edges && edges.length) {
  for (var i=0;i<edges.length;i++) {
    if (edges[i].id.substr(0,4)=='edge') {
      edges[i].setAttribute('class','edge');
    }
  }
}
]]></script>
        <defs>
                <circle id="rim" cx="0" cy="0" r="7"/>
                <circle id="rim2" cx="0" cy="0" r="3.5"/>
                <g id="zoomPlus">
                        <use xlink:href="#rim" fill="#404040">
                                <set attributeName="fill" to="#808080" begin="zoomplus.mouseover" end="zoomplus.mouseout"/>
                        </use>
                        <path d="M-4,0h8M0,-4v8" fill="none" stroke="white" stroke-width="1.5" pointer-events="none"/>
                </g>
                <g id="zoomMin">
                        <use xlink:href="#rim" fill="#404040">
                                <set attributeName="fill" to="#808080" begin="zoomminus.mouseover" end="zoomminus.mouseout"/>
                        </use>
                        <path d="M-4,0h8" fill="none" stroke="white" stroke-width="1.5" pointer-events="none"/>
                </g>
                <g id="dirArrow">
                        <path fill="none" stroke="white" stroke-width="1.5" d="M0,-3.0v7 M-2.5,-0.5L0,-3.0L2.5,-0.5"/>
                </g>
               <g id="resetDef">
                       <use xlink:href="#rim2" fill="#404040">
                               <set attributeName="fill" to="#808080" begin="reset.mouseover" end="reset.mouseout"/>
                       </use>
               </g>
        </defs>

<script type="text/javascript">
var viewWidth = 656;
var viewHeight = 372;
var sectionId = 'dynsection-10';
</script>
<script xlink:href="svgpan.js"/>
<svg id="graph" class="graph">
<g id="viewport">
<title>openage::event::Loop::update_changes</title>
<polygon fill="white" stroke="none" points="-4,4 -4,-368 652,-368 652,4 -4,4"/>
<!-- Node115 -->
<g id="node1" class="node"><title>Node115</title>
<g id="a_node1"><a xlink:title=" ">
<polygon fill="#bfbfbf" stroke="black" points="0,-164.5 0,-194.5 109,-194.5 109,-164.5 0,-164.5"/>
<text text-anchor="start" x="8" y="-182.5" font-family="Helvetica,sans-Serif" font-size="10.00">openage::event::Loop</text>
<text text-anchor="middle" x="54.5" y="-171.5" font-family="Helvetica,sans-Serif" font-size="10.00">::update_changes</text>
</a>
</g>
</g>
<!-- Node116 -->
<g id="node2" class="node"><title>Node116</title>
<g id="a_node2"><a xlink:href="classopenage_1_1event_1_1_event_queue.xhtml#a2f04cadaa84a8629b94020cb26b999ad" target="_top" xlink:title=" ">
<polygon fill="white" stroke="black" points="145,-284.5 145,-314.5 285,-314.5 285,-284.5 145,-284.5"/>
<text text-anchor="start" x="153" y="-302.5" font-family="Helvetica,sans-Serif" font-size="10.00">openage::event::EventQueue</text>
<text text-anchor="middle" x="215" y="-291.5" font-family="Helvetica,sans-Serif" font-size="10.00">::clear_changes</text>
</a>
</g>
</g>
<!-- Node115&#45;&gt;Node116 -->
<g id="edge1" class="edge"><title>Node115&#45;&gt;Node116</title>
<path fill="none" stroke="midnightblue" d="M66.2333,-194.764C81.5286,-215.491 111.482,-252.473 145,-274.5 147.965,-276.448 151.101,-278.269 154.336,-279.966"/>
<polygon fill="midnightblue" stroke="midnightblue" points="153.124,-283.266 163.655,-284.426 156.146,-276.952 153.124,-283.266"/>
</g>
<!-- Node117 -->
<g id="node3" class="node"><title>Node117</title>
<g id="a_node3"><a xlink:href="classopenage_1_1event_1_1_event_queue.xhtml#a8f45163ce661267cf80d811a776c8733" target="_top" xlink:title=" ">
<polygon fill="white" stroke="black" points="145,-235.5 145,-265.5 285,-265.5 285,-235.5 145,-235.5"/>
<text text-anchor="start" x="153" y="-253.5" font-family="Helvetica,sans-Serif" font-size="10.00">openage::event::EventQueue</text>
<text text-anchor="middle" x="215" y="-242.5" font-family="Helvetica,sans-Serif" font-size="10.00">::enqueue_change</text>
</a>
</g>
</g>
<!-- Node115&#45;&gt;Node117 -->
<g id="edge2" class="edge"><title>Node115&#45;&gt;Node117</title>
<path fill="none" stroke="midnightblue" d="M82.485,-194.509C100.025,-203.978 123.541,-216.143 145,-225.5 149.964,-227.664 155.181,-229.799 160.431,-231.854"/>
<polygon fill="midnightblue" stroke="midnightblue" points="159.278,-235.16 169.868,-235.457 161.774,-228.621 159.278,-235.16"/>
</g>
<!-- Node124 -->
<g id="node10" class="node"><title>Node124</title>
<g id="a_node10"><a xlink:href="classopenage_1_1event_1_1_event_queue.xhtml#a501fe0a6571ddf1a97bf6d7a6328d924" target="_top" xlink:title=" ">
<polygon fill="white" stroke="black" points="145,-186.5 145,-216.5 285,-216.5 285,-186.5 145,-186.5"/>
<text text-anchor="start" x="153" y="-204.5" font-family="Helvetica,sans-Serif" font-size="10.00">openage::event::EventQueue</text>
<text text-anchor="middle" x="215" y="-193.5" font-family="Helvetica,sans-Serif" font-size="10.00">::get_changes</text>
</a>
</g>
</g>
<!-- Node115&#45;&gt;Node124 -->
<g id="edge9" class="edge"><title>Node115&#45;&gt;Node124</title>
<path fill="none" stroke="midnightblue" d="M109.161,-186.948C117.423,-188.095 126.101,-189.3 134.779,-190.504"/>
<polygon fill="midnightblue" stroke="midnightblue" points="134.554,-194.006 144.941,-191.914 135.517,-187.073 134.554,-194.006"/>
</g>
<!-- Node125 -->
<g id="node11" class="node"><title>Node125</title>
<g id="a_node11"><a xlink:href="namespaceopenage_1_1log.xhtml#a0eff614e7d6e818746700ed9d29e583f" target="_top" xlink:title=" ">
<polygon fill="white" stroke="black" points="169.5,-148 169.5,-167 260.5,-167 260.5,-148 169.5,-148"/>
<text text-anchor="middle" x="215" y="-155" font-family="Helvetica,sans-Serif" font-size="10.00">openage::log::log</text>
</a>
</g>
</g>
<!-- Node115&#45;&gt;Node125 -->
<g id="edge10" class="edge"><title>Node115&#45;&gt;Node125</title>
<path fill="none" stroke="midnightblue" d="M109.161,-172.052C125.221,-169.823 142.852,-167.375 158.997,-165.134"/>
<polygon fill="midnightblue" stroke="midnightblue" points="159.937,-168.538 169.361,-163.696 158.975,-161.604 159.937,-168.538"/>
</g>
<!-- Node131 -->
<g id="node17" class="node"><title>Node131</title>
<g id="a_node17"><a xlink:href="namespacestd.xhtml#a34591a1d8ee5da3f16f56554590d5e16" target="_top" xlink:title=" ">
<polygon fill="white" stroke="black" points="189,-104 189,-123 241,-123 241,-104 189,-104"/>
<text text-anchor="middle" x="215" y="-111" font-family="Helvetica,sans-Serif" font-size="10.00">std::min</text>
</a>
</g>
</g>
<!-- Node115&#45;&gt;Node131 -->
<g id="edge16" class="edge"><title>Node115&#45;&gt;Node131</title>
<path fill="none" stroke="midnightblue" d="M86.7037,-164.444C103.776,-156.4 125.387,-146.53 145,-138.5 156.014,-133.991 168.176,-129.444 179.183,-125.487"/>
<polygon fill="midnightblue" stroke="midnightblue" points="180.647,-128.681 188.9,-122.037 178.305,-122.085 180.647,-128.681"/>
</g>
<!-- Node134 -->
<g id="node20" class="node"><title>Node134</title>
<g id="a_node20"><a xlink:href="classopenage_1_1event_1_1_event_queue.xhtml#a42433f50adffb7e0a20c43889292e54c" target="_top" xlink:title=" ">
<polygon fill="white" stroke="black" points="145,-27.5 145,-57.5 285,-57.5 285,-27.5 145,-27.5"/>
<text text-anchor="start" x="153" y="-45.5" font-family="Helvetica,sans-Serif" font-size="10.00">openage::event::EventQueue</text>
<text text-anchor="middle" x="215" y="-34.5" font-family="Helvetica,sans-Serif" font-size="10.00">::remove</text>
</a>
</g>
</g>
<!-- Node115&#45;&gt;Node134 -->
<g id="edge19" class="edge"><title>Node115&#45;&gt;Node134</title>
<path fill="none" stroke="midnightblue" d="M70.5289,-164.209C87.9253,-146.754 117.692,-117.629 145,-94.5 157.555,-83.8664 172.019,-72.7988 184.45,-63.6212"/>
<polygon fill="midnightblue" stroke="midnightblue" points="186.679,-66.3271 192.684,-57.5979 182.546,-60.6775 186.679,-66.3271"/>
</g>
<!-- Node118 -->
<g id="node4" class="node"><title>Node118</title>
<g id="a_node4"><a xlink:href="classopenage_1_1event_1_1_event_store.xhtml#a4be75c01219e59abd20b9f906c8b7154" target="_top" xlink:title=" ">
<polygon fill="white" stroke="black" points="325,-333.5 325,-363.5 460,-363.5 460,-333.5 325,-333.5"/>
<text text-anchor="start" x="333" y="-351.5" font-family="Helvetica,sans-Serif" font-size="10.00">openage::event::EventStore</text>
<text text-anchor="middle" x="392.5" y="-340.5" font-family="Helvetica,sans-Serif" font-size="10.00">::contains</text>
</a>
</g>
</g>
<!-- Node117&#45;&gt;Node118 -->
<g id="edge3" class="edge"><title>Node117&#45;&gt;Node118</title>
<path fill="none" stroke="midnightblue" d="M270.029,-265.583C275.326,-268.134 280.425,-271.088 285,-274.5 306.951,-290.87 298.995,-308.203 321,-324.5 322.857,-325.875 324.799,-327.176 326.804,-328.405"/>
<polygon fill="midnightblue" stroke="midnightblue" points="325.477,-331.667 335.938,-333.349 328.81,-325.511 325.477,-331.667"/>
</g>
<!-- Node119 -->
<g id="node5" class="node"><title>Node119</title>
<g id="a_node5"><a xlink:href="classopenage_1_1event_1_1_event_store.xhtml#ae17679f5da2da238bc0f423befda3850" target="_top" xlink:title=" ">
<polygon fill="white" stroke="black" points="325,-284.5 325,-314.5 460,-314.5 460,-284.5 325,-284.5"/>
<text text-anchor="start" x="333" y="-302.5" font-family="Helvetica,sans-Serif" font-size="10.00">openage::event::EventStore</text>
<text text-anchor="middle" x="392.5" y="-291.5" font-family="Helvetica,sans-Serif" font-size="10.00">::push</text>
</a>
</g>
</g>
<!-- Node117&#45;&gt;Node119 -->
<g id="edge4" class="edge"><title>Node117&#45;&gt;Node119</title>
<path fill="none" stroke="midnightblue" d="M270.088,-265.601C288.356,-270.702 308.918,-276.443 327.856,-281.73"/>
<polygon fill="midnightblue" stroke="midnightblue" points="327.018,-285.13 337.591,-284.448 328.9,-278.388 327.018,-285.13"/>
</g>
<!-- Node122 -->
<g id="node8" class="node"><title>Node122</title>
<g id="a_node8"><a xlink:href="classopenage_1_1event_1_1_event_store.xhtml#ae8a67463b44b369d9402186cf332e247" target="_top" xlink:title=" ">
<polygon fill="white" stroke="black" points="325,-235.5 325,-265.5 460,-265.5 460,-235.5 325,-235.5"/>
<text text-anchor="start" x="333" y="-253.5" font-family="Helvetica,sans-Serif" font-size="10.00">openage::event::EventStore</text>
<text text-anchor="middle" x="392.5" y="-242.5" font-family="Helvetica,sans-Serif" font-size="10.00">::update</text>
</a>
</g>
</g>
<!-- Node117&#45;&gt;Node122 -->
<g id="edge7" class="edge"><title>Node117&#45;&gt;Node122</title>
<path fill="none" stroke="midnightblue" d="M285.11,-250.5C294.792,-250.5 304.792,-250.5 314.607,-250.5"/>
<polygon fill="midnightblue" stroke="midnightblue" points="314.748,-254 324.748,-250.5 314.748,-247 314.748,-254"/>
</g>
<!-- Node120 -->
<g id="node6" class="node"><title>Node120</title>
<g id="a_node6"><a xlink:href="classopenage_1_1datastructure_1_1_pairing_heap.xhtml#a75e9e7602b59aeee47a2fd84a10c8f74" target="_top" xlink:title=" ">
<polygon fill="white" stroke="black" points="516,-333.5 516,-363.5 632,-363.5 632,-333.5 516,-333.5"/>
<text text-anchor="start" x="524" y="-351.5" font-family="Helvetica,sans-Serif" font-size="10.00">openage::datastructure</text>
<text text-anchor="middle" x="574" y="-340.5" font-family="Helvetica,sans-Serif" font-size="10.00">::PairingHeap::push</text>
</a>
</g>
</g>
<!-- Node119&#45;&gt;Node120 -->
<g id="edge5" class="edge"><title>Node119&#45;&gt;Node120</title>
<path fill="none" stroke="midnightblue" d="M448.821,-314.601C467.591,-319.725 488.729,-325.496 508.172,-330.803"/>
<polygon fill="midnightblue" stroke="midnightblue" points="507.293,-334.191 517.862,-333.448 509.137,-327.438 507.293,-334.191"/>
</g>
<!-- Node121 -->
<g id="node7" class="node"><title>Node121</title>
<g id="a_node7"><a xlink:href="classopenage_1_1datastructure_1_1_pairing_heap.xhtml#a45599db3b89b27ad5c53ca900a67df85" target="_top" xlink:title=" ">
<polygon fill="white" stroke="black" points="516,-284.5 516,-314.5 632,-314.5 632,-284.5 516,-284.5"/>
<text text-anchor="start" x="524" y="-302.5" font-family="Helvetica,sans-Serif" font-size="10.00">openage::datastructure</text>
<text text-anchor="middle" x="574" y="-291.5" font-family="Helvetica,sans-Serif" font-size="10.00">::PairingHeap::size</text>
</a>
</g>
</g>
<!-- Node119&#45;&gt;Node121 -->
<g id="edge6" class="edge"><title>Node119&#45;&gt;Node121</title>
<path fill="none" stroke="midnightblue" d="M460.084,-299.5C475,-299.5 490.833,-299.5 505.775,-299.5"/>
<polygon fill="midnightblue" stroke="midnightblue" points="505.955,-303 515.955,-299.5 505.955,-296 505.955,-303"/>
</g>
<!-- Node123 -->
<g id="node9" class="node"><title>Node123</title>
<g id="a_node9"><a xlink:href="classopenage_1_1datastructure_1_1_pairing_heap.xhtml#aab81daeebac3d236ced4a85117483d76" target="_top" xlink:title=" ">
<polygon fill="white" stroke="black" points="516,-235.5 516,-265.5 632,-265.5 632,-235.5 516,-235.5"/>
<text text-anchor="start" x="524" y="-253.5" font-family="Helvetica,sans-Serif" font-size="10.00">openage::datastructure</text>
<text text-anchor="middle" x="574" y="-242.5" font-family="Helvetica,sans-Serif" font-size="10.00">::PairingHeap::update</text>
</a>
</g>
</g>
<!-- Node122&#45;&gt;Node123 -->
<g id="edge8" class="edge"><title>Node122&#45;&gt;Node123</title>
<path fill="none" stroke="midnightblue" d="M460.084,-250.5C475,-250.5 490.833,-250.5 505.775,-250.5"/>
<polygon fill="midnightblue" stroke="midnightblue" points="505.955,-254 515.955,-250.5 505.955,-247 505.955,-254"/>
</g>
<!-- Node126 -->
<g id="node12" class="node"><title>Node126</title>
<g id="a_node12"><a xlink:href="namespaceopenage_1_1log.xhtml#a3fbb0c225d01e222648ec28a43507188" target="_top" xlink:title=" ">
<polygon fill="white" stroke="black" points="337.5,-186.5 337.5,-216.5 447.5,-216.5 447.5,-186.5 337.5,-186.5"/>
<text text-anchor="start" x="345.5" y="-204.5" font-family="Helvetica,sans-Serif" font-size="10.00">openage::log::general</text>
<text text-anchor="middle" x="392.5" y="-193.5" font-family="Helvetica,sans-Serif" font-size="10.00">_source</text>
</a>
</g>
</g>
<!-- Node125&#45;&gt;Node126 -->
<g id="edge11" class="edge"><title>Node125&#45;&gt;Node126</title>
<path fill="none" stroke="midnightblue" d="M254.081,-167.047C275.435,-172.401 302.64,-179.222 327.2,-185.379"/>
<polygon fill="midnightblue" stroke="midnightblue" points="326.627,-188.844 337.178,-187.881 328.33,-182.054 326.627,-188.844"/>
</g>
<!-- Node127 -->
<g id="node13" class="node"><title>Node127</title>
<g id="a_node13"><a xlink:href="classopenage_1_1log_1_1_log_source.xhtml#a5640099e20af4cd368c767dbcef3a1df" target="_top" xlink:title=" ">
<polygon fill="white" stroke="black" points="321,-148 321,-167 464,-167 464,-148 321,-148"/>
<text text-anchor="middle" x="392.5" y="-155" font-family="Helvetica,sans-Serif" font-size="10.00">openage::log::LogSource::log</text>
</a>
</g>
</g>
<!-- Node125&#45;&gt;Node127 -->
<g id="edge12" class="edge"><title>Node125&#45;&gt;Node127</title>
<path fill="none" stroke="midnightblue" d="M260.74,-157.5C276.021,-157.5 293.614,-157.5 310.84,-157.5"/>
<polygon fill="midnightblue" stroke="midnightblue" points="310.92,-161 320.919,-157.5 310.919,-154 310.92,-161"/>
</g>
<!-- Node128 -->
<g id="node14" class="node"><title>Node128</title>
<g id="a_node14"><a xlink:href="namespaceopenage_1_1log.xhtml#a3d2885be9c3a09b9ff7ee8764b2e5f39" target="_top" xlink:title=" ">
<polygon fill="white" stroke="black" points="522,-186.5 522,-216.5 626,-216.5 626,-186.5 522,-186.5"/>
<text text-anchor="start" x="530" y="-204.5" font-family="Helvetica,sans-Serif" font-size="10.00">openage::log::global</text>
<text text-anchor="middle" x="574" y="-193.5" font-family="Helvetica,sans-Serif" font-size="10.00">_stdoutsink</text>
</a>
</g>
</g>
<!-- Node127&#45;&gt;Node128 -->
<g id="edge13" class="edge"><title>Node127&#45;&gt;Node128</title>
<path fill="none" stroke="midnightblue" d="M432.449,-167.047C455.672,-172.74 485.661,-180.091 511.97,-186.54"/>
<polygon fill="midnightblue" stroke="midnightblue" points="511.306,-189.981 521.851,-188.962 512.972,-183.182 511.306,-189.981"/>
</g>
<!-- Node129 -->
<g id="node15" class="node"><title>Node129</title>
<g id="a_node15"><a xlink:href="classopenage_1_1log_1_1_log_sink_list.xhtml#a2d47416fab12651553b4b58c86fd6f84" target="_top" xlink:title=" ">
<polygon fill="white" stroke="black" points="509.5,-137.5 509.5,-167.5 638.5,-167.5 638.5,-137.5 509.5,-137.5"/>
<text text-anchor="start" x="517.5" y="-155.5" font-family="Helvetica,sans-Serif" font-size="10.00">openage::log::LogSinkList</text>
<text text-anchor="middle" x="574" y="-144.5" font-family="Helvetica,sans-Serif" font-size="10.00">::instance</text>
</a>
</g>
</g>
<!-- Node127&#45;&gt;Node129 -->
<g id="edge14" class="edge"><title>Node127&#45;&gt;Node129</title>
<path fill="none" stroke="midnightblue" d="M464.185,-155.531C475.719,-155.21 487.693,-154.876 499.297,-154.553"/>
<polygon fill="midnightblue" stroke="midnightblue" points="499.481,-158.049 509.379,-154.272 499.286,-151.052 499.481,-158.049"/>
</g>
<!-- Node130 -->
<g id="node16" class="node"><title>Node130</title>
<g id="a_node16"><a xlink:href="classopenage_1_1log_1_1_log_sink_list.xhtml#a8456b84ab55e1fe151c51438c5bfebdd" target="_top" xlink:title=" ">
<polygon fill="white" stroke="black" points="500,-99 500,-118 648,-118 648,-99 500,-99"/>
<text text-anchor="middle" x="574" y="-106" font-family="Helvetica,sans-Serif" font-size="10.00">openage::log::LogSinkList::log</text>
</a>
</g>
</g>
<!-- Node127&#45;&gt;Node130 -->
<g id="edge15" class="edge"><title>Node127&#45;&gt;Node130</title>
<path fill="none" stroke="midnightblue" d="M427.045,-147.972C452.828,-140.663 486.28,-131.217 500,-127.5 508.358,-125.235 517.269,-122.873 525.889,-120.614"/>
<polygon fill="midnightblue" stroke="midnightblue" points="527.032,-123.933 535.825,-118.023 525.265,-117.16 527.032,-123.933"/>
</g>
<!-- Node132 -->
<g id="node18" class="node"><title>Node132</title>
<g id="a_node18"><a xlink:href="classopenage_1_1util_1_1_fixed_point.xhtml#aa01c403263c2142c0ce9ce40cde89066" target="_top" xlink:title=" ">
<polygon fill="white" stroke="black" points="330,-98.5 330,-128.5 455,-128.5 455,-98.5 330,-98.5"/>
<text text-anchor="start" x="338" y="-116.5" font-family="Helvetica,sans-Serif" font-size="10.00">openage::util::FixedPoint</text>
<text text-anchor="middle" x="392.5" y="-105.5" font-family="Helvetica,sans-Serif" font-size="10.00">::from_raw_value</text>
</a>
</g>
</g>
<!-- Node131&#45;&gt;Node132 -->
<g id="edge17" class="edge"><title>Node131&#45;&gt;Node132</title>
<path fill="none" stroke="midnightblue" d="M241.145,-113.5C261.657,-113.5 291.693,-113.5 319.536,-113.5"/>
<polygon fill="midnightblue" stroke="midnightblue" points="319.674,-117 329.673,-113.5 319.673,-110 319.674,-117"/>
</g>
<!-- Node133 -->
<g id="node19" class="node"><title>Node133</title>
<g id="a_node19"><a xlink:href="classopenage_1_1util_1_1_fixed_point.xhtml#affe7a3ec44c6f7ac96312875af742f87" target="_top" xlink:title=" ">
<polygon fill="white" stroke="black" points="330,-49.5 330,-79.5 455,-79.5 455,-49.5 330,-49.5"/>
<text text-anchor="start" x="338" y="-67.5" font-family="Helvetica,sans-Serif" font-size="10.00">openage::util::FixedPoint</text>
<text text-anchor="middle" x="392.5" y="-56.5" font-family="Helvetica,sans-Serif" font-size="10.00">::get_raw_value</text>
</a>
</g>
</g>
<!-- Node131&#45;&gt;Node133 -->
<g id="edge18" class="edge"><title>Node131&#45;&gt;Node133</title>
<path fill="none" stroke="midnightblue" d="M241.145,-106.479C263.625,-100.203 297.545,-90.7325 327.48,-82.3745"/>
<polygon fill="midnightblue" stroke="midnightblue" points="328.767,-85.6492 337.457,-79.5889 326.884,-78.9071 328.767,-85.6492"/>
</g>
<!-- Node135 -->
<g id="node21" class="node"><title>Node135</title>
<g id="a_node21"><a xlink:href="classopenage_1_1event_1_1_event_store.xhtml#acf182eb2f89c80bb6c790a24d192398f" target="_top" xlink:title=" ">
<polygon fill="white" stroke="black" points="325,-0.5 325,-30.5 460,-30.5 460,-0.5 325,-0.5"/>
<text text-anchor="start" x="333" y="-18.5" font-family="Helvetica,sans-Serif" font-size="10.00">openage::event::EventStore</text>
<text text-anchor="middle" x="392.5" y="-7.5" font-family="Helvetica,sans-Serif" font-size="10.00">::erase</text>
</a>
</g>
</g>
<!-- Node134&#45;&gt;Node135 -->
<g id="edge20" class="edge"><title>Node134&#45;&gt;Node135</title>
<path fill="none" stroke="midnightblue" d="M285.11,-31.8676C294.792,-30.3781 304.792,-28.8397 314.607,-27.3297"/>
<polygon fill="midnightblue" stroke="midnightblue" points="315.397,-30.7495 324.748,-25.7695 314.332,-23.8309 315.397,-30.7495"/>
</g>
<!-- Node136 -->
<g id="node22" class="node"><title>Node136</title>
<g id="a_node22"><a xlink:href="classopenage_1_1datastructure_1_1_pairing_heap.xhtml#a8f6c87e73e47397b92a2766989a30c0f" target="_top" xlink:title=" ">
<polygon fill="white" stroke="black" points="507.5,-0.5 507.5,-30.5 640.5,-30.5 640.5,-0.5 507.5,-0.5"/>
<text text-anchor="start" x="515.5" y="-18.5" font-family="Helvetica,sans-Serif" font-size="10.00">openage::datastructure</text>
<text text-anchor="middle" x="574" y="-7.5" font-family="Helvetica,sans-Serif" font-size="10.00">::PairingHeap::unlink_node</text>
</a>
</g>
</g>
<!-- Node135&#45;&gt;Node136 -->
<g id="edge21" class="edge"><title>Node135&#45;&gt;Node136</title>
<path fill="none" stroke="midnightblue" d="M460.084,-15.5C472.166,-15.5 484.849,-15.5 497.173,-15.5"/>
<polygon fill="midnightblue" stroke="midnightblue" points="497.42,-19.0001 507.42,-15.5 497.42,-12.0001 497.42,-19.0001"/>
</g>
</g>
</svg>
        <g id="navigator" transform="translate(0 0)" fill="#404254">
                <rect fill="#f2f5e9" fill-opacity="0.5" stroke="#606060" stroke-width=".5" x="0" y="0" width="60" height="60"/>
                <use id="zoomplus" xlink:href="#zoomPlus" x="17" y="9" onmousedown="handleZoom(evt,'in')"/>
                <use id="zoomminus" xlink:href="#zoomMin" x="42" y="9" onmousedown="handleZoom(evt,'out')"/>
                <use id="reset" xlink:href="#resetDef" x="30" y="36" onmousedown="handleReset()"/>
                <g id="arrowUp" xlink:href="#dirArrow" transform="translate(30 24)" onmousedown="handlePan(0,-1)">
                  <use xlink:href="#rim" fill="#404040">
                        <set attributeName="fill" to="#808080" begin="arrowUp.mouseover" end="arrowUp.mouseout"/>
                  </use>
                  <path fill="none" stroke="white" stroke-width="1.5" d="M0,-3.0v7 M-2.5,-0.5L0,-3.0L2.5,-0.5"/>
                </g>
                <g id="arrowRight" xlink:href="#dirArrow" transform="rotate(90) translate(36 -43)" onmousedown="handlePan(1,0)">
                  <use xlink:href="#rim" fill="#404040">
                        <set attributeName="fill" to="#808080" begin="arrowRight.mouseover" end="arrowRight.mouseout"/>
                  </use>
                  <path fill="none" stroke="white" stroke-width="1.5" d="M0,-3.0v7 M-2.5,-0.5L0,-3.0L2.5,-0.5"/>
                </g>
                <g id="arrowDown" xlink:href="#dirArrow" transform="rotate(180) translate(-30 -48)" onmousedown="handlePan(0,1)">
                  <use xlink:href="#rim" fill="#404040">
                        <set attributeName="fill" to="#808080" begin="arrowDown.mouseover" end="arrowDown.mouseout"/>
                  </use>
                  <path fill="none" stroke="white" stroke-width="1.5" d="M0,-3.0v7 M-2.5,-0.5L0,-3.0L2.5,-0.5"/>
                </g>
                <g id="arrowLeft" xlink:href="#dirArrow" transform="rotate(270) translate(-36 17)" onmousedown="handlePan(-1,0)">
                  <use xlink:href="#rim" fill="#404040">
                        <set attributeName="fill" to="#808080" begin="arrowLeft.mouseover" end="arrowLeft.mouseout"/>
                  </use>
                  <path fill="none" stroke="white" stroke-width="1.5" d="M0,-3.0v7 M-2.5,-0.5L0,-3.0L2.5,-0.5"/>
                </g>
        </g>
        <svg viewBox="0 0 15 15" width="100%" height="30px" preserveAspectRatio="xMaxYMin meet">
         <g id="arrow_out" transform="scale(0.3 0.3)">
          <a xlink:href="classopenage_1_1event_1_1_loop_a3cb0ae638435b575fe689c550b27a823_cgraph_org.svg" target="_base">
           <rect id="button" ry="5" rx="5" y="6" x="6" height="38" width="38"
                fill="#f2f5e9" fill-opacity="0.5" stroke="#606060" stroke-width="1.0"/>
           <path id="arrow"
             d="M 11.500037,31.436501 C 11.940474,20.09759 22.043105,11.32322 32.158766,21.979434 L 37.068811,17.246167 C 37.068811,17.246167 37.088388,32 37.088388,32 L 22.160133,31.978069 C 22.160133,31.978069 26.997745,27.140456 26.997745,27.140456 C 18.528582,18.264221 13.291696,25.230495 11.500037,31.436501 z"
             style="fill:#404040;"/>
          </a>
         </g>
        </svg>
</svg>
