<?xml version="1.0" encoding="UTF-8" standalone="no"?>
<!DOCTYPE svg PUBLIC "-//W3C//DTD SVG 1.1//EN"
 "http://www.w3.org/Graphics/SVG/1.1/DTD/svg11.dtd">
<!-- Generated by graphviz version 2.38.0 (20140413.2041)
 -->
<!-- Title: openage::GameSpec::valid_graphic_id Pages: 1 -->
<!--zoomable 186 -->
<svg id="main" version="1.1" xmlns="http://www.w3.org/2000/svg" xmlns:xlink="http://www.w3.org/1999/xlink" xml:space="preserve" onload="init(evt)">
<style type="text/css"><![CDATA[
.edge:hover path { stroke: red; }
.edge:hover polygon { stroke: red; fill: red; }
]]></style>
<script type="text/javascript"><![CDATA[
var edges = document.getElementsByTagName('g');
if (edges && edges.length) {
  for (var i=0;i<edges.length;i++) {
    if (edges[i].id.substr(0,4)=='edge') {
      edges[i].setAttribute('class','edge');
    }
  }
}
]]></script>
        <defs>
                <circle id="rim" cx="0" cy="0" r="7"/>
                <circle id="rim2" cx="0" cy="0" r="3.5"/>
                <g id="zoomPlus">
                        <use xlink:href="#rim" fill="#404040">
                                <set attributeName="fill" to="#808080" begin="zoomplus.mouseover" end="zoomplus.mouseout"/>
                        </use>
                        <path d="M-4,0h8M0,-4v8" fill="none" stroke="white" stroke-width="1.5" pointer-events="none"/>
                </g>
                <g id="zoomMin">
                        <use xlink:href="#rim" fill="#404040">
                                <set attributeName="fill" to="#808080" begin="zoomminus.mouseover" end="zoomminus.mouseout"/>
                        </use>
                        <path d="M-4,0h8" fill="none" stroke="white" stroke-width="1.5" pointer-events="none"/>
                </g>
                <g id="dirArrow">
                        <path fill="none" stroke="white" stroke-width="1.5" d="M0,-3.0v7 M-2.5,-0.5L0,-3.0L2.5,-0.5"/>
                </g>
               <g id="resetDef">
                       <use xlink:href="#rim2" fill="#404040">
                               <set attributeName="fill" to="#808080" begin="reset.mouseover" end="reset.mouseout"/>
                       </use>
               </g>
        </defs>

<script type="text/javascript">
var viewWidth = 566;
var viewHeight = 186;
var sectionId = 'dynsection-28';
</script>
<script xlink:href="svgpan.js"/>
<svg id="graph" class="graph">
<g id="viewport">
<title>openage::GameSpec::valid_graphic_id</title>
<polygon fill="white" stroke="none" points="-4,4 -4,-182 562,-182 562,4 -4,4"/>
<!-- Node221 -->
<g id="node1" class="node"><title>Node221</title>
<g id="a_node1"><a xlink:title="check graphic id is valid">
<polygon fill="#bfbfbf" stroke="black" points="444,-73.5 444,-103.5 558,-103.5 558,-73.5 444,-73.5"/>
<text text-anchor="start" x="452" y="-91.5" font-family="Helvetica,sans-Serif" font-size="10.00">openage::GameSpec::</text>
<text text-anchor="middle" x="501" y="-80.5" font-family="Helvetica,sans-Serif" font-size="10.00">valid_graphic_id</text>
</a>
</g>
</g>
<!-- Node222 -->
<g id="node2" class="node"><title>Node222</title>
<g id="a_node2"><a xlink:href="classopenage_1_1_game_spec.xhtml#acbe30bd72e3a9ef46c461e497d726711" target="_top" xlink:title="loads required assets to construct a buildings.">
<polygon fill="white" stroke="black" points="294,-147.5 294,-177.5 408,-177.5 408,-147.5 294,-147.5"/>
<text text-anchor="start" x="302" y="-165.5" font-family="Helvetica,sans-Serif" font-size="10.00">openage::GameSpec::</text>
<text text-anchor="middle" x="351" y="-154.5" font-family="Helvetica,sans-Serif" font-size="10.00">load_building</text>
</a>
</g>
</g>
<!-- Node221&#45;&gt;Node222 -->
<g id="edge1" class="edge"><title>Node221&#45;&gt;Node222</title>
<path fill="none" stroke="midnightblue" d="M464.767,-108.646C447.8,-118.09 427.047,-129.267 408,-138.5 401.718,-141.545 394.953,-144.615 388.372,-147.495"/>
<polygon fill="midnightblue" stroke="midnightblue" points="466.756,-111.544 473.768,-103.602 463.334,-105.437 466.756,-111.544"/>
</g>
<!-- Node225 -->
<g id="node5" class="node"><title>Node225</title>
<g id="a_node5"><a xlink:href="classopenage_1_1_game_spec.xhtml#a51a1664688173a588e6ead16703f8e82" target="_top" xlink:title="loads assets for living things.">
<polygon fill="white" stroke="black" points="294,-98.5 294,-128.5 408,-128.5 408,-98.5 294,-98.5"/>
<text text-anchor="start" x="302" y="-116.5" font-family="Helvetica,sans-Serif" font-size="10.00">openage::GameSpec::</text>
<text text-anchor="middle" x="351" y="-105.5" font-family="Helvetica,sans-Serif" font-size="10.00">load_living</text>
</a>
</g>
</g>
<!-- Node221&#45;&gt;Node225 -->
<g id="edge4" class="edge"><title>Node221&#45;&gt;Node225</title>
<path fill="none" stroke="midnightblue" d="M433.72,-99.696C425.204,-101.134 416.551,-102.596 408.218,-104.004"/>
<polygon fill="midnightblue" stroke="midnightblue" points="434.348,-103.14 443.625,-98.0227 433.182,-96.2373 434.348,-103.14"/>
</g>
<!-- Node226 -->
<g id="node6" class="node"><title>Node226</title>
<g id="a_node6"><a xlink:href="classopenage_1_1_game_spec.xhtml#a67579e89ee667f00dc301433a23458af" target="_top" xlink:title="load missile assets.">
<polygon fill="white" stroke="black" points="294,-49.5 294,-79.5 408,-79.5 408,-49.5 294,-49.5"/>
<text text-anchor="start" x="302" y="-67.5" font-family="Helvetica,sans-Serif" font-size="10.00">openage::GameSpec::</text>
<text text-anchor="middle" x="351" y="-56.5" font-family="Helvetica,sans-Serif" font-size="10.00">load_missile</text>
</a>
</g>
</g>
<!-- Node221&#45;&gt;Node226 -->
<g id="edge6" class="edge"><title>Node221&#45;&gt;Node226</title>
<path fill="none" stroke="midnightblue" d="M433.72,-77.7519C425.204,-76.371 416.551,-74.9678 408.218,-73.6164"/>
<polygon fill="midnightblue" stroke="midnightblue" points="433.194,-81.2122 443.625,-79.3582 434.315,-74.3025 433.194,-81.2122"/>
</g>
<!-- Node227 -->
<g id="node7" class="node"><title>Node227</title>
<g id="a_node7"><a xlink:href="classopenage_1_1_game_spec.xhtml#af210d4508dea9f8f87aa98c3fc0e3359" target="_top" xlink:title="load assets for other game objects (not building and living).">
<polygon fill="white" stroke="black" points="294,-0.5 294,-30.5 408,-30.5 408,-0.5 294,-0.5"/>
<text text-anchor="start" x="302" y="-18.5" font-family="Helvetica,sans-Serif" font-size="10.00">openage::GameSpec::</text>
<text text-anchor="middle" x="351" y="-7.5" font-family="Helvetica,sans-Serif" font-size="10.00">load_object</text>
</a>
</g>
</g>
<!-- Node221&#45;&gt;Node227 -->
<g id="edge8" class="edge"><title>Node221&#45;&gt;Node227</title>
<path fill="none" stroke="midnightblue" d="M463.135,-68.6106C446.423,-59.7641 426.338,-49.3667 408,-40.5 401.099,-37.163 393.65,-33.7255 386.507,-30.508"/>
<polygon fill="midnightblue" stroke="midnightblue" points="461.567,-71.7411 472.04,-73.3462 464.854,-65.5607 461.567,-71.7411"/>
</g>
<!-- Node223 -->
<g id="node3" class="node"><title>Node223</title>
<g id="a_node3"><a xlink:href="classopenage_1_1_game_spec.xhtml#ab009229f56624608b53820adf2895cbc" target="_top" xlink:title="makes initial unit types for a particular civ id">
<polygon fill="white" stroke="black" points="144,-73.5 144,-103.5 258,-103.5 258,-73.5 144,-73.5"/>
<text text-anchor="start" x="152" y="-91.5" font-family="Helvetica,sans-Serif" font-size="10.00">openage::GameSpec::</text>
<text text-anchor="middle" x="201" y="-80.5" font-family="Helvetica,sans-Serif" font-size="10.00">create_unit_types</text>
</a>
</g>
</g>
<!-- Node222&#45;&gt;Node223 -->
<g id="edge2" class="edge"><title>Node222&#45;&gt;Node223</title>
<path fill="none" stroke="midnightblue" d="M304.321,-143.342C300.811,-141.742 297.337,-140.118 294,-138.5 271.426,-127.558 246.455,-113.883 228.232,-103.602"/>
<polygon fill="midnightblue" stroke="midnightblue" points="303.07,-146.616 313.628,-147.495 305.923,-140.224 303.07,-146.616"/>
</g>
<!-- Node224 -->
<g id="node4" class="node"><title>Node224</title>
<g id="a_node4"><a xlink:href="classopenage_1_1_civilisation.xhtml#abdf1eb9f96df9f35741f8f6bb763c403" target="_top" xlink:title="initialise the unit meta data">
<polygon fill="white" stroke="black" points="0,-73.5 0,-103.5 108,-103.5 108,-73.5 0,-73.5"/>
<text text-anchor="start" x="8" y="-91.5" font-family="Helvetica,sans-Serif" font-size="10.00">openage::Civilisation</text>
<text text-anchor="middle" x="54" y="-80.5" font-family="Helvetica,sans-Serif" font-size="10.00">::initialise_unit_types</text>
</a>
</g>
</g>
<!-- Node223&#45;&gt;Node224 -->
<g id="edge3" class="edge"><title>Node223&#45;&gt;Node224</title>
<path fill="none" stroke="midnightblue" d="M133.872,-88.5C125.223,-88.5 116.452,-88.5 108.057,-88.5"/>
<polygon fill="midnightblue" stroke="midnightblue" points="133.939,-92.0001 143.939,-88.5 133.939,-85.0001 133.939,-92.0001"/>
</g>
<!-- Node225&#45;&gt;Node223 -->
<g id="edge5" class="edge"><title>Node225&#45;&gt;Node223</title>
<path fill="none" stroke="midnightblue" d="M283.72,-102.304C275.204,-100.866 266.551,-99.4039 258.218,-97.9963"/>
<polygon fill="midnightblue" stroke="midnightblue" points="283.182,-105.763 293.625,-103.977 284.348,-98.8605 283.182,-105.763"/>
</g>
<!-- Node226&#45;&gt;Node223 -->
<g id="edge7" class="edge"><title>Node226&#45;&gt;Node223</title>
<path fill="none" stroke="midnightblue" d="M283.72,-75.2481C275.204,-76.629 266.551,-78.0322 258.218,-79.3836"/>
<polygon fill="midnightblue" stroke="midnightblue" points="284.315,-78.6975 293.625,-73.6418 283.194,-71.7878 284.315,-78.6975"/>
</g>
<!-- Node227&#45;&gt;Node223 -->
<g id="edge9" class="edge"><title>Node227&#45;&gt;Node223</title>
<path fill="none" stroke="midnightblue" d="M306.354,-34.6735C302.163,-36.608 297.99,-38.5708 294,-40.5 272.267,-51.0087 248.079,-63.6675 229.96,-73.3462"/>
<polygon fill="midnightblue" stroke="midnightblue" points="307.845,-37.8402 315.493,-30.508 304.942,-31.4705 307.845,-37.8402"/>
</g>
</g>
</svg>
        <g id="navigator" transform="translate(0 0)" fill="#404254">
                <rect fill="#f2f5e9" fill-opacity="0.5" stroke="#606060" stroke-width=".5" x="0" y="0" width="60" height="60"/>
                <use id="zoomplus" xlink:href="#zoomPlus" x="17" y="9" onmousedown="handleZoom(evt,'in')"/>
                <use id="zoomminus" xlink:href="#zoomMin" x="42" y="9" onmousedown="handleZoom(evt,'out')"/>
                <use id="reset" xlink:href="#resetDef" x="30" y="36" onmousedown="handleReset()"/>
                <g id="arrowUp" xlink:href="#dirArrow" transform="translate(30 24)" onmousedown="handlePan(0,-1)">
                  <use xlink:href="#rim" fill="#404040">
                        <set attributeName="fill" to="#808080" begin="arrowUp.mouseover" end="arrowUp.mouseout"/>
                  </use>
                  <path fill="none" stroke="white" stroke-width="1.5" d="M0,-3.0v7 M-2.5,-0.5L0,-3.0L2.5,-0.5"/>
                </g>
                <g id="arrowRight" xlink:href="#dirArrow" transform="rotate(90) translate(36 -43)" onmousedown="handlePan(1,0)">
                  <use xlink:href="#rim" fill="#404040">
                        <set attributeName="fill" to="#808080" begin="arrowRight.mouseover" end="arrowRight.mouseout"/>
                  </use>
                  <path fill="none" stroke="white" stroke-width="1.5" d="M0,-3.0v7 M-2.5,-0.5L0,-3.0L2.5,-0.5"/>
                </g>
                <g id="arrowDown" xlink:href="#dirArrow" transform="rotate(180) translate(-30 -48)" onmousedown="handlePan(0,1)">
                  <use xlink:href="#rim" fill="#404040">
                        <set attributeName="fill" to="#808080" begin="arrowDown.mouseover" end="arrowDown.mouseout"/>
                  </use>
                  <path fill="none" stroke="white" stroke-width="1.5" d="M0,-3.0v7 M-2.5,-0.5L0,-3.0L2.5,-0.5"/>
                </g>
                <g id="arrowLeft" xlink:href="#dirArrow" transform="rotate(270) translate(-36 17)" onmousedown="handlePan(-1,0)">
                  <use xlink:href="#rim" fill="#404040">
                        <set attributeName="fill" to="#808080" begin="arrowLeft.mouseover" end="arrowLeft.mouseout"/>
                  </use>
                  <path fill="none" stroke="white" stroke-width="1.5" d="M0,-3.0v7 M-2.5,-0.5L0,-3.0L2.5,-0.5"/>
                </g>
        </g>
        <svg viewBox="0 0 15 15" width="100%" height="30px" preserveAspectRatio="xMaxYMin meet">
         <g id="arrow_out" transform="scale(0.3 0.3)">
          <a xlink:href="classopenage_1_1_game_spec_a4183e5b82dd51fd66629d287026b5daa_icgraph_org.svg" target="_base">
           <rect id="button" ry="5" rx="5" y="6" x="6" height="38" width="38"
                fill="#f2f5e9" fill-opacity="0.5" stroke="#606060" stroke-width="1.0"/>
           <path id="arrow"
             d="M 11.500037,31.436501 C 11.940474,20.09759 22.043105,11.32322 32.158766,21.979434 L 37.068811,17.246167 C 37.068811,17.246167 37.088388,32 37.088388,32 L 22.160133,31.978069 C 22.160133,31.978069 26.997745,27.140456 26.997745,27.140456 C 18.528582,18.264221 13.291696,25.230495 11.500037,31.436501 z"
             style="fill:#404040;"/>
          </a>
         </g>
        </svg>
</svg>
