<?xml version="1.0" encoding="UTF-8" standalone="no"?>
<!DOCTYPE svg PUBLIC "-//W3C//DTD SVG 1.1//EN"
 "http://www.w3.org/Graphics/SVG/1.1/DTD/svg11.dtd">
<!-- Generated by graphviz version 2.38.0 (20140413.2041)
 -->
<!-- Title: openage::UnitSelection::remove_unit Pages: 1 -->
<!--zoomable 88 -->
<svg id="main" version="1.1" xmlns="http://www.w3.org/2000/svg" xmlns:xlink="http://www.w3.org/1999/xlink" xml:space="preserve" onload="init(evt)">
<style type="text/css"><![CDATA[
.edge:hover path { stroke: red; }
.edge:hover polygon { stroke: red; fill: red; }
]]></style>
<script type="text/javascript"><![CDATA[
var edges = document.getElementsByTagName('g');
if (edges && edges.length) {
  for (var i=0;i<edges.length;i++) {
    if (edges[i].id.substr(0,4)=='edge') {
      edges[i].setAttribute('class','edge');
    }
  }
}
]]></script>
        <defs>
                <circle id="rim" cx="0" cy="0" r="7"/>
                <circle id="rim2" cx="0" cy="0" r="3.5"/>
                <g id="zoomPlus">
                        <use xlink:href="#rim" fill="#404040">
                                <set attributeName="fill" to="#808080" begin="zoomplus.mouseover" end="zoomplus.mouseout"/>
                        </use>
                        <path d="M-4,0h8M0,-4v8" fill="none" stroke="white" stroke-width="1.5" pointer-events="none"/>
                </g>
                <g id="zoomMin">
                        <use xlink:href="#rim" fill="#404040">
                                <set attributeName="fill" to="#808080" begin="zoomminus.mouseover" end="zoomminus.mouseout"/>
                        </use>
                        <path d="M-4,0h8" fill="none" stroke="white" stroke-width="1.5" pointer-events="none"/>
                </g>
                <g id="dirArrow">
                        <path fill="none" stroke="white" stroke-width="1.5" d="M0,-3.0v7 M-2.5,-0.5L0,-3.0L2.5,-0.5"/>
                </g>
               <g id="resetDef">
                       <use xlink:href="#rim2" fill="#404040">
                               <set attributeName="fill" to="#808080" begin="reset.mouseover" end="reset.mouseout"/>
                       </use>
               </g>
        </defs>

<script type="text/javascript">
var viewWidth = 736;
var viewHeight = 88;
var sectionId = 'dynsection-20';
</script>
<script xlink:href="svgpan.js"/>
<svg id="graph" class="graph">
<g id="viewport">
<title>openage::UnitSelection::remove_unit</title>
<polygon fill="white" stroke="none" points="-4,4 -4,-84 732,-84 732,4 -4,4"/>
<!-- Node145 -->
<g id="node1" class="node"><title>Node145</title>
<g id="a_node1"><a xlink:title=" ">
<polygon fill="#bfbfbf" stroke="black" points="611,-24.5 611,-54.5 728,-54.5 728,-24.5 611,-24.5"/>
<text text-anchor="start" x="619" y="-42.5" font-family="Helvetica,sans-Serif" font-size="10.00">openage::UnitSelection</text>
<text text-anchor="middle" x="669.5" y="-31.5" font-family="Helvetica,sans-Serif" font-size="10.00">::remove_unit</text>
</a>
</g>
</g>
<!-- Node146 -->
<g id="node2" class="node"><title>Node146</title>
<g id="a_node2"><a xlink:href="classopenage_1_1_unit_selection.xhtml#a2cc48ccbea18ec579f9ad27a89b1d96a" target="_top" xlink:title="kill a single unit in the selection">
<polygon fill="white" stroke="black" points="305,-49.5 305,-79.5 422,-79.5 422,-49.5 305,-49.5"/>
<text text-anchor="start" x="313" y="-67.5" font-family="Helvetica,sans-Serif" font-size="10.00">openage::UnitSelection</text>
<text text-anchor="middle" x="363.5" y="-56.5" font-family="Helvetica,sans-Serif" font-size="10.00">::kill_unit</text>
</a>
</g>
</g>
<!-- Node145&#45;&gt;Node146 -->
<g id="edge1" class="edge"><title>Node145&#45;&gt;Node146</title>
<path fill="none" stroke="midnightblue" d="M600.85,-45.0634C547.16,-49.4786 472.926,-55.5834 422.06,-59.7664"/>
<polygon fill="midnightblue" stroke="midnightblue" points="601.283,-48.5396 610.963,-44.2317 600.709,-41.5632 601.283,-48.5396"/>
</g>
<!-- Node148 -->
<g id="node4" class="node"><title>Node148</title>
<g id="a_node4"><a xlink:href="classopenage_1_1_unit_selection.xhtml#ae76387eeee60f994b678d79ca4a198e8" target="_top" xlink:title=" ">
<polygon fill="white" stroke="black" points="458,-2.5 458,-32.5 575,-32.5 575,-2.5 458,-2.5"/>
<text text-anchor="start" x="466" y="-20.5" font-family="Helvetica,sans-Serif" font-size="10.00">openage::UnitSelection</text>
<text text-anchor="middle" x="516.5" y="-9.5" font-family="Helvetica,sans-Serif" font-size="10.00">::toggle_unit</text>
</a>
</g>
</g>
<!-- Node145&#45;&gt;Node148 -->
<g id="edge3" class="edge"><title>Node145&#45;&gt;Node148</title>
<path fill="none" stroke="midnightblue" d="M600.948,-29.658C592.322,-28.4012 583.556,-27.1241 575.107,-25.8931"/>
<polygon fill="midnightblue" stroke="midnightblue" points="600.582,-33.1416 610.983,-31.12 601.592,-26.2147 600.582,-33.1416"/>
</g>
<!-- Node147 -->
<g id="node3" class="node"><title>Node147</title>
<g id="a_node3"><a xlink:href="classopenage_1_1_action_mode.xhtml#a43f98279255b857ee8fa9943117271e8" target="_top" xlink:title="Called after GameControl has been set by QML from set_game_control.">
<polygon fill="white" stroke="black" points="0,-24.5 0,-54.5 116,-54.5 116,-24.5 0,-24.5"/>
<text text-anchor="start" x="8" y="-42.5" font-family="Helvetica,sans-Serif" font-size="10.00">openage::ActionMode</text>
<text text-anchor="middle" x="58" y="-31.5" font-family="Helvetica,sans-Serif" font-size="10.00">::on_game_control_set</text>
</a>
</g>
</g>
<!-- Node146&#45;&gt;Node147 -->
<g id="edge2" class="edge"><title>Node146&#45;&gt;Node147</title>
<path fill="none" stroke="midnightblue" d="M294.581,-58.9054C240.871,-54.4811 166.743,-48.375 116.071,-44.201"/>
<polygon fill="midnightblue" stroke="midnightblue" points="294.446,-62.406 304.7,-59.7388 295.021,-55.4296 294.446,-62.406"/>
</g>
<!-- Node149 -->
<g id="node5" class="node"><title>Node149</title>
<g id="a_node5"><a xlink:href="classopenage_1_1_unit_selection.xhtml#ae351437c3a9fafc071961486f7eef075" target="_top" xlink:title="point unit selection">
<polygon fill="white" stroke="black" points="305,-0.5 305,-30.5 422,-30.5 422,-0.5 305,-0.5"/>
<text text-anchor="start" x="313" y="-18.5" font-family="Helvetica,sans-Serif" font-size="10.00">openage::UnitSelection</text>
<text text-anchor="middle" x="363.5" y="-7.5" font-family="Helvetica,sans-Serif" font-size="10.00">::select_point</text>
</a>
</g>
</g>
<!-- Node148&#45;&gt;Node149 -->
<g id="edge4" class="edge"><title>Node148&#45;&gt;Node149</title>
<path fill="none" stroke="midnightblue" d="M447.948,-16.6053C439.322,-16.491 430.556,-16.3749 422.107,-16.263"/>
<polygon fill="midnightblue" stroke="midnightblue" points="447.937,-20.1053 457.983,-16.7382 448.03,-13.106 447.937,-20.1053"/>
</g>
<!-- Node150 -->
<g id="node6" class="node"><title>Node150</title>
<g id="a_node6"><a xlink:href="classopenage_1_1_unit_selection.xhtml#a6b4a0b9275c8ebf623d50a7509487623" target="_top" xlink:title=" ">
<polygon fill="white" stroke="black" points="152,-2.5 152,-32.5 269,-32.5 269,-2.5 152,-2.5"/>
<text text-anchor="start" x="160" y="-20.5" font-family="Helvetica,sans-Serif" font-size="10.00">openage::UnitSelection</text>
<text text-anchor="middle" x="210.5" y="-9.5" font-family="Helvetica,sans-Serif" font-size="10.00">::drag_release</text>
</a>
</g>
</g>
<!-- Node149&#45;&gt;Node150 -->
<g id="edge5" class="edge"><title>Node149&#45;&gt;Node150</title>
<path fill="none" stroke="midnightblue" d="M294.948,-16.3947C286.322,-16.509 277.556,-16.6251 269.107,-16.737"/>
<polygon fill="midnightblue" stroke="midnightblue" points="295.03,-19.894 304.983,-16.2618 294.937,-12.8947 295.03,-19.894"/>
</g>
<!-- Node150&#45;&gt;Node147 -->
<g id="edge6" class="edge"><title>Node150&#45;&gt;Node147</title>
<path fill="none" stroke="midnightblue" d="M141.838,-27.3907C133.327,-28.6349 124.685,-29.8982 116.354,-31.1161"/>
<polygon fill="midnightblue" stroke="midnightblue" points="142.355,-30.8526 151.743,-25.9429 141.342,-23.9262 142.355,-30.8526"/>
</g>
</g>
</svg>
        <g id="navigator" transform="translate(0 0)" fill="#404254">
                <rect fill="#f2f5e9" fill-opacity="0.5" stroke="#606060" stroke-width=".5" x="0" y="0" width="60" height="60"/>
                <use id="zoomplus" xlink:href="#zoomPlus" x="17" y="9" onmousedown="handleZoom(evt,'in')"/>
                <use id="zoomminus" xlink:href="#zoomMin" x="42" y="9" onmousedown="handleZoom(evt,'out')"/>
                <use id="reset" xlink:href="#resetDef" x="30" y="36" onmousedown="handleReset()"/>
                <g id="arrowUp" xlink:href="#dirArrow" transform="translate(30 24)" onmousedown="handlePan(0,-1)">
                  <use xlink:href="#rim" fill="#404040">
                        <set attributeName="fill" to="#808080" begin="arrowUp.mouseover" end="arrowUp.mouseout"/>
                  </use>
                  <path fill="none" stroke="white" stroke-width="1.5" d="M0,-3.0v7 M-2.5,-0.5L0,-3.0L2.5,-0.5"/>
                </g>
                <g id="arrowRight" xlink:href="#dirArrow" transform="rotate(90) translate(36 -43)" onmousedown="handlePan(1,0)">
                  <use xlink:href="#rim" fill="#404040">
                        <set attributeName="fill" to="#808080" begin="arrowRight.mouseover" end="arrowRight.mouseout"/>
                  </use>
                  <path fill="none" stroke="white" stroke-width="1.5" d="M0,-3.0v7 M-2.5,-0.5L0,-3.0L2.5,-0.5"/>
                </g>
                <g id="arrowDown" xlink:href="#dirArrow" transform="rotate(180) translate(-30 -48)" onmousedown="handlePan(0,1)">
                  <use xlink:href="#rim" fill="#404040">
                        <set attributeName="fill" to="#808080" begin="arrowDown.mouseover" end="arrowDown.mouseout"/>
                  </use>
                  <path fill="none" stroke="white" stroke-width="1.5" d="M0,-3.0v7 M-2.5,-0.5L0,-3.0L2.5,-0.5"/>
                </g>
                <g id="arrowLeft" xlink:href="#dirArrow" transform="rotate(270) translate(-36 17)" onmousedown="handlePan(-1,0)">
                  <use xlink:href="#rim" fill="#404040">
                        <set attributeName="fill" to="#808080" begin="arrowLeft.mouseover" end="arrowLeft.mouseout"/>
                  </use>
                  <path fill="none" stroke="white" stroke-width="1.5" d="M0,-3.0v7 M-2.5,-0.5L0,-3.0L2.5,-0.5"/>
                </g>
        </g>
        <svg viewBox="0 0 15 15" width="100%" height="30px" preserveAspectRatio="xMaxYMin meet">
         <g id="arrow_out" transform="scale(0.3 0.3)">
          <a xlink:href="classopenage_1_1_unit_selection_a55faa863da0461730ad3deed70b726c2_icgraph_org.svg" target="_base">
           <rect id="button" ry="5" rx="5" y="6" x="6" height="38" width="38"
                fill="#f2f5e9" fill-opacity="0.5" stroke="#606060" stroke-width="1.0"/>
           <path id="arrow"
             d="M 11.500037,31.436501 C 11.940474,20.09759 22.043105,11.32322 32.158766,21.979434 L 37.068811,17.246167 C 37.068811,17.246167 37.088388,32 37.088388,32 L 22.160133,31.978069 C 22.160133,31.978069 26.997745,27.140456 26.997745,27.140456 C 18.528582,18.264221 13.291696,25.230495 11.500037,31.436501 z"
             style="fill:#404040;"/>
          </a>
         </g>
        </svg>
</svg>
