<?xml version="1.0" encoding="UTF-8" standalone="no"?>
<!DOCTYPE svg PUBLIC "-//W3C//DTD SVG 1.1//EN"
 "http://www.w3.org/Graphics/SVG/1.1/DTD/svg11.dtd">
<!-- Generated by graphviz version 2.38.0 (20140413.2041)
 -->
<!-- Title: openage::MoveAbility::can_invoke Pages: 1 -->
<svg width="299pt" height="116pt"
 viewBox="0.00 0.00 299.00 115.50" xmlns="http://www.w3.org/2000/svg" xmlns:xlink="http://www.w3.org/1999/xlink">
<g id="graph0" class="graph" transform="scale(1 1) rotate(0) translate(4 111.5)">
<title>openage::MoveAbility::can_invoke</title>
<polygon fill="white" stroke="none" points="-4,4 -4,-111.5 295,-111.5 295,4 -4,4"/>
<!-- Node2 -->
<g id="node1" class="node"><title>Node2</title>
<g id="a_node1"><a xlink:title=" ">
<polygon fill="#bfbfbf" stroke="black" points="0,-33 0,-63 109,-63 109,-33 0,-33"/>
<text text-anchor="start" x="8" y="-51" font-family="Helvetica,sans-Serif" font-size="10.00">openage::MoveAbility</text>
<text text-anchor="middle" x="54.5" y="-40" font-family="Helvetica,sans-Serif" font-size="10.00">::can_invoke</text>
</a>
</g>
</g>
<!-- Node3 -->
<g id="node2" class="node"><title>Node3</title>
<g id="a_node2"><a xlink:href="classopenage_1_1_command.xhtml#a26adf9105a1e53a39212e11914466353" target="_top" xlink:title=" ">
<polygon fill="white" stroke="black" points="155.5,-77 155.5,-107 280.5,-107 280.5,-77 155.5,-77"/>
<text text-anchor="start" x="163.5" y="-95" font-family="Helvetica,sans-Serif" font-size="10.00">openage::Command::has</text>
<text text-anchor="middle" x="218" y="-84" font-family="Helvetica,sans-Serif" font-size="10.00">_position</text>
</a>
</g>
</g>
<!-- Node2&#45;&gt;Node3 -->
<g id="edge1" class="edge"><title>Node2&#45;&gt;Node3</title>
<path fill="none" stroke="midnightblue" d="M109.277,-62.6514C122.995,-66.3888 137.886,-70.4458 152.096,-74.3172"/>
<polygon fill="midnightblue" stroke="midnightblue" points="151.234,-77.7097 161.802,-76.9615 153.074,-70.9559 151.234,-77.7097"/>
</g>
<!-- Node4 -->
<g id="node3" class="node"><title>Node4</title>
<g id="a_node3"><a xlink:href="classopenage_1_1_command.xhtml#a89702d889840a84d4f1cadd017b4e8c2" target="_top" xlink:title=" ">
<polygon fill="white" stroke="black" points="145,-38.5 145,-57.5 291,-57.5 291,-38.5 145,-38.5"/>
<text text-anchor="middle" x="218" y="-45.5" font-family="Helvetica,sans-Serif" font-size="10.00">openage::Command::has_unit</text>
</a>
</g>
</g>
<!-- Node2&#45;&gt;Node4 -->
<g id="edge2" class="edge"><title>Node2&#45;&gt;Node4</title>
<path fill="none" stroke="midnightblue" d="M109.277,-48C117.455,-48 126.05,-48 134.669,-48"/>
<polygon fill="midnightblue" stroke="midnightblue" points="134.775,-51.5001 144.775,-48 134.775,-44.5001 134.775,-51.5001"/>
</g>
<!-- Node5 -->
<g id="node4" class="node"><title>Node5</title>
<g id="a_node4"><a xlink:href="classopenage_1_1_command.xhtml#aac8f87a8abd4c2ed97832d42c4954514" target="_top" xlink:title=" ">
<polygon fill="white" stroke="black" points="155.5,-0.5 155.5,-19.5 280.5,-19.5 280.5,-0.5 155.5,-0.5"/>
<text text-anchor="middle" x="218" y="-7.5" font-family="Helvetica,sans-Serif" font-size="10.00">openage::Command::unit</text>
</a>
</g>
</g>
<!-- Node2&#45;&gt;Node5 -->
<g id="edge3" class="edge"><title>Node2&#45;&gt;Node5</title>
<path fill="none" stroke="midnightblue" d="M109.277,-35.3466C127.781,-30.9927 148.419,-26.1366 166.641,-21.8492"/>
<polygon fill="midnightblue" stroke="midnightblue" points="167.554,-25.2301 176.486,-19.5327 165.95,-18.4162 167.554,-25.2301"/>
</g>
</g>
</svg>
