<?xml version="1.0" encoding="UTF-8" standalone="no"?>
<!DOCTYPE svg PUBLIC "-//W3C//DTD SVG 1.1//EN"
 "http://www.w3.org/Graphics/SVG/1.1/DTD/svg11.dtd">
<!-- Generated by graphviz version 2.38.0 (20140413.2041)
 -->
<!-- Title: openage::Engine::on_resize Pages: 1 -->
<svg width="604pt" height="132pt"
 viewBox="0.00 0.00 604.00 132.00" xmlns="http://www.w3.org/2000/svg" xmlns:xlink="http://www.w3.org/1999/xlink">
<g id="graph0" class="graph" transform="scale(1 1) rotate(0) translate(4 128)">
<title>openage::Engine::on_resize</title>
<polygon fill="white" stroke="none" points="-4,4 -4,-128 600,-128 600,4 -4,4"/>
<!-- Node200 -->
<g id="node1" class="node"><title>Node200</title>
<g id="a_node1"><a xlink:title="window resize handler function.">
<polygon fill="#bfbfbf" stroke="black" points="0,-80 0,-110 106,-110 106,-80 0,-80"/>
<text text-anchor="start" x="8" y="-98" font-family="Helvetica,sans-Serif" font-size="10.00">openage::Engine::on</text>
<text text-anchor="middle" x="53" y="-87" font-family="Helvetica,sans-Serif" font-size="10.00">_resize</text>
</a>
</g>
</g>
<!-- Node201 -->
<g id="node2" class="node"><title>Node201</title>
<g id="a_node2"><a xlink:href="namespaceopenage_1_1log.xhtml#aad3d76b2466dbc4f81552935f2d84faa" target="_top" xlink:title="debug message">
<polygon fill="white" stroke="black" points="143.5,-104.5 143.5,-123.5 231.5,-123.5 231.5,-104.5 143.5,-104.5"/>
<text text-anchor="middle" x="187.5" y="-111.5" font-family="Helvetica,sans-Serif" font-size="10.00">openage.log.dbg</text>
</a>
</g>
</g>
<!-- Node200&#45;&gt;Node201 -->
<g id="edge1" class="edge"><title>Node200&#45;&gt;Node201</title>
<path fill="none" stroke="midnightblue" d="M106.368,-102.509C115.302,-103.79 124.589,-105.122 133.539,-106.406"/>
<polygon fill="midnightblue" stroke="midnightblue" points="133.068,-109.874 143.464,-107.829 134.062,-102.945 133.068,-109.874"/>
</g>
<!-- Node202 -->
<g id="node3" class="node"><title>Node202</title>
<g id="a_node3"><a xlink:href="namespaceopenage_1_1log.xhtml#a0eff614e7d6e818746700ed9d29e583f" target="_top" xlink:title="Convenience method that makes use of the &#39;general&#39; LogSource.">
<polygon fill="white" stroke="black" points="142,-66.5 142,-85.5 233,-85.5 233,-66.5 142,-66.5"/>
<text text-anchor="middle" x="187.5" y="-73.5" font-family="Helvetica,sans-Serif" font-size="10.00">openage::log::log</text>
</a>
</g>
</g>
<!-- Node200&#45;&gt;Node202 -->
<g id="edge2" class="edge"><title>Node200&#45;&gt;Node202</title>
<path fill="none" stroke="midnightblue" d="M106.368,-87.4907C114.699,-86.2961 123.336,-85.0574 131.721,-83.8551"/>
<polygon fill="midnightblue" stroke="midnightblue" points="132.384,-87.2959 141.786,-82.4118 131.39,-80.3668 132.384,-87.2959"/>
</g>
<!-- Node203 -->
<g id="node4" class="node"><title>Node203</title>
<g id="a_node4"><a xlink:href="namespaceopenage_1_1log.xhtml#a3fbb0c225d01e222648ec28a43507188" target="_top" xlink:title="Returns a reference to a general named log source, for use by log::log().">
<polygon fill="white" stroke="black" points="285.5,-83 285.5,-113 395.5,-113 395.5,-83 285.5,-83"/>
<text text-anchor="start" x="293.5" y="-101" font-family="Helvetica,sans-Serif" font-size="10.00">openage::log::general</text>
<text text-anchor="middle" x="340.5" y="-90" font-family="Helvetica,sans-Serif" font-size="10.00">_source</text>
</a>
</g>
</g>
<!-- Node202&#45;&gt;Node203 -->
<g id="edge3" class="edge"><title>Node202&#45;&gt;Node203</title>
<path fill="none" stroke="midnightblue" d="M233.396,-82.5412C246.548,-84.4573 261.191,-86.5907 275.296,-88.6457"/>
<polygon fill="midnightblue" stroke="midnightblue" points="275.042,-92.1456 285.442,-90.124 276.051,-85.2188 275.042,-92.1456"/>
</g>
<!-- Node204 -->
<g id="node5" class="node"><title>Node204</title>
<g id="a_node5"><a xlink:href="classopenage_1_1log_1_1_log_source.xhtml#a5640099e20af4cd368c767dbcef3a1df" target="_top" xlink:title="Logs a message (get one via MSG(level)).">
<polygon fill="white" stroke="black" points="269,-44.5 269,-63.5 412,-63.5 412,-44.5 269,-44.5"/>
<text text-anchor="middle" x="340.5" y="-51.5" font-family="Helvetica,sans-Serif" font-size="10.00">openage::log::LogSource::log</text>
</a>
</g>
</g>
<!-- Node202&#45;&gt;Node204 -->
<g id="edge4" class="edge"><title>Node202&#45;&gt;Node204</title>
<path fill="none" stroke="midnightblue" d="M233.396,-69.4588C243.081,-68.0479 253.574,-66.5191 264.065,-64.9905"/>
<polygon fill="midnightblue" stroke="midnightblue" points="264.706,-68.4342 274.097,-63.5289 263.697,-61.5073 264.706,-68.4342"/>
</g>
<!-- Node205 -->
<g id="node6" class="node"><title>Node205</title>
<g id="a_node6"><a xlink:href="namespaceopenage_1_1log.xhtml#a3d2885be9c3a09b9ff7ee8764b2e5f39" target="_top" xlink:title="Returns a reference to the global stdout logsink object; Initializes the object if needed.">
<polygon fill="white" stroke="black" points="470,-88 470,-118 574,-118 574,-88 470,-88"/>
<text text-anchor="start" x="478" y="-106" font-family="Helvetica,sans-Serif" font-size="10.00">openage::log::global</text>
<text text-anchor="middle" x="522" y="-95" font-family="Helvetica,sans-Serif" font-size="10.00">_stdoutsink</text>
</a>
</g>
</g>
<!-- Node204&#45;&gt;Node205 -->
<g id="edge5" class="edge"><title>Node204&#45;&gt;Node205</title>
<path fill="none" stroke="midnightblue" d="M376.536,-63.564C400.265,-70.0416 432.246,-78.7718 460.085,-86.3714"/>
<polygon fill="midnightblue" stroke="midnightblue" points="459.17,-89.7497 469.739,-89.0067 461.014,-82.9968 459.17,-89.7497"/>
</g>
<!-- Node206 -->
<g id="node7" class="node"><title>Node206</title>
<g id="a_node7"><a xlink:href="classopenage_1_1log_1_1_log_sink_list.xhtml#a2d47416fab12651553b4b58c86fd6f84" target="_top" xlink:title=" ">
<polygon fill="white" stroke="black" points="457.5,-39 457.5,-69 586.5,-69 586.5,-39 457.5,-39"/>
<text text-anchor="start" x="465.5" y="-57" font-family="Helvetica,sans-Serif" font-size="10.00">openage::log::LogSinkList</text>
<text text-anchor="middle" x="522" y="-46" font-family="Helvetica,sans-Serif" font-size="10.00">::instance</text>
</a>
</g>
</g>
<!-- Node204&#45;&gt;Node206 -->
<g id="edge6" class="edge"><title>Node204&#45;&gt;Node206</title>
<path fill="none" stroke="midnightblue" d="M412.185,-54C423.719,-54 435.693,-54 447.297,-54"/>
<polygon fill="midnightblue" stroke="midnightblue" points="447.38,-57.5001 457.379,-54 447.379,-50.5001 447.38,-57.5001"/>
</g>
<!-- Node207 -->
<g id="node8" class="node"><title>Node207</title>
<g id="a_node8"><a xlink:href="classopenage_1_1log_1_1_log_sink_list.xhtml#a8456b84ab55e1fe151c51438c5bfebdd" target="_top" xlink:title=" ">
<polygon fill="white" stroke="black" points="448,-0.5 448,-19.5 596,-19.5 596,-0.5 448,-0.5"/>
<text text-anchor="middle" x="522" y="-7.5" font-family="Helvetica,sans-Serif" font-size="10.00">openage::log::LogSinkList::log</text>
</a>
</g>
</g>
<!-- Node204&#45;&gt;Node207 -->
<g id="edge7" class="edge"><title>Node204&#45;&gt;Node207</title>
<path fill="none" stroke="midnightblue" d="M380.449,-44.4527C407.382,-37.8508 443.415,-29.0181 472.253,-21.949"/>
<polygon fill="midnightblue" stroke="midnightblue" points="473.248,-25.3089 482.127,-19.5287 471.581,-18.5102 473.248,-25.3089"/>
</g>
</g>
</svg>
