<?xml version="1.0" encoding="UTF-8" standalone="no"?>
<!DOCTYPE svg PUBLIC "-//W3C//DTD SVG 1.1//EN"
 "http://www.w3.org/Graphics/SVG/1.1/DTD/svg11.dtd">
<!-- Generated by graphviz version 2.38.0 (20140413.2041)
 -->
<!-- Title: openage::util::Quaternion::dot Pages: 1 -->
<svg width="772pt" height="215pt"
 viewBox="0.00 0.00 772.00 215.00" xmlns="http://www.w3.org/2000/svg" xmlns:xlink="http://www.w3.org/1999/xlink">
<g id="graph0" class="graph" transform="scale(1 1) rotate(0) translate(4 211)">
<title>openage::util::Quaternion::dot</title>
<polygon fill="white" stroke="none" points="-4,4 -4,-211 768,-211 768,4 -4,4"/>
<!-- Node28 -->
<g id="node1" class="node"><title>Node28</title>
<g id="a_node1"><a xlink:title=" ">
<polygon fill="#bfbfbf" stroke="black" points="619,-79 619,-98 764,-98 764,-79 619,-79"/>
<text text-anchor="middle" x="691.5" y="-86" font-family="Helvetica,sans-Serif" font-size="10.00">openage::util::Quaternion::dot</text>
</a>
</g>
</g>
<!-- Node29 -->
<g id="node2" class="node"><title>Node29</title>
<g id="a_node2"><a xlink:href="classopenage_1_1util_1_1_quaternion.xhtml#aa3f586260959ed4c65c62a3ec93f6a6e" target="_top" xlink:title=" ">
<polygon fill="white" stroke="black" points="136,-176.5 136,-206.5 261,-206.5 261,-176.5 136,-176.5"/>
<text text-anchor="start" x="144" y="-194.5" font-family="Helvetica,sans-Serif" font-size="10.00">openage::util::Quaternion</text>
<text text-anchor="middle" x="198.5" y="-183.5" font-family="Helvetica,sans-Serif" font-size="10.00">::equals</text>
</a>
</g>
</g>
<!-- Node28&#45;&gt;Node29 -->
<g id="edge1" class="edge"><title>Node28&#45;&gt;Node29</title>
<path fill="none" stroke="midnightblue" d="M646.039,-100.738C626.732,-105.881 603.817,-111.758 583,-116.5 470.054,-142.228 337.166,-167.001 261.184,-180.647"/>
<polygon fill="midnightblue" stroke="midnightblue" points="647.024,-104.097 655.775,-98.1251 645.21,-97.3366 647.024,-104.097"/>
</g>
<!-- Node31 -->
<g id="node4" class="node"><title>Node31</title>
<g id="a_node4"><a xlink:href="classopenage_1_1util_1_1_quaternion.xhtml#aae617726f6df2524bd7402fdefb3cc0f" target="_top" xlink:title=" ">
<polygon fill="white" stroke="black" points="297,-98.5 297,-128.5 422,-128.5 422,-98.5 297,-98.5"/>
<text text-anchor="start" x="305" y="-116.5" font-family="Helvetica,sans-Serif" font-size="10.00">openage::util::Quaternion</text>
<text text-anchor="middle" x="359.5" y="-105.5" font-family="Helvetica,sans-Serif" font-size="10.00">::equals_rad</text>
</a>
</g>
</g>
<!-- Node28&#45;&gt;Node31 -->
<g id="edge3" class="edge"><title>Node28&#45;&gt;Node31</title>
<path fill="none" stroke="midnightblue" d="M608.709,-94.6963C551.003,-99.068 474.905,-104.833 422.254,-108.822"/>
<polygon fill="midnightblue" stroke="midnightblue" points="609.188,-98.1701 618.895,-93.9246 608.659,-91.1901 609.188,-98.1701"/>
</g>
<!-- Node33 -->
<g id="node6" class="node"><title>Node33</title>
<g id="a_node6"><a xlink:href="classopenage_1_1util_1_1_quaternion.xhtml#a61731d4de80ddb267346159ea173511b" target="_top" xlink:title=" ">
<polygon fill="white" stroke="black" points="458,-51.5 458,-81.5 583,-81.5 583,-51.5 458,-51.5"/>
<text text-anchor="start" x="466" y="-69.5" font-family="Helvetica,sans-Serif" font-size="10.00">openage::util::Quaternion</text>
<text text-anchor="middle" x="520.5" y="-58.5" font-family="Helvetica,sans-Serif" font-size="10.00">::inverse</text>
</a>
</g>
</g>
<!-- Node28&#45;&gt;Node33 -->
<g id="edge7" class="edge"><title>Node28&#45;&gt;Node33</title>
<path fill="none" stroke="midnightblue" d="M608.749,-77.8578C600.128,-76.7357 591.47,-75.6085 583.133,-74.5232"/>
<polygon fill="midnightblue" stroke="midnightblue" points="608.461,-81.3498 618.829,-79.17 609.364,-74.4083 608.461,-81.3498"/>
</g>
<!-- Node35 -->
<g id="node8" class="node"><title>Node35</title>
<g id="a_node8"><a xlink:href="classopenage_1_1util_1_1_quaternion.xhtml#a82f95e1d240ee7f39982060a17fe37ec" target="_top" xlink:title=" ">
<polygon fill="white" stroke="black" points="458,-1.5 458,-31.5 583,-31.5 583,-1.5 458,-1.5"/>
<text text-anchor="start" x="466" y="-19.5" font-family="Helvetica,sans-Serif" font-size="10.00">openage::util::Quaternion</text>
<text text-anchor="middle" x="520.5" y="-8.5" font-family="Helvetica,sans-Serif" font-size="10.00">::norm</text>
</a>
</g>
</g>
<!-- Node28&#45;&gt;Node35 -->
<g id="edge10" class="edge"><title>Node28&#45;&gt;Node35</title>
<path fill="none" stroke="midnightblue" d="M659.893,-74.8653C638.432,-65.3673 609.041,-52.4832 583,-41.5 575.248,-38.2303 566.916,-34.7925 558.965,-31.5483"/>
<polygon fill="midnightblue" stroke="midnightblue" points="658.594,-78.1181 669.155,-78.9721 661.432,-71.719 658.594,-78.1181"/>
</g>
<!-- Node30 -->
<g id="node3" class="node"><title>Node30</title>
<g id="a_node3"><a xlink:href="namespaceopenage_1_1util_1_1tests.xhtml#ab3f1d081c603b383598beeee8e4429df" target="_top" xlink:title=" ">
<polygon fill="white" stroke="black" points="0,-88.5 0,-118.5 100,-118.5 100,-88.5 0,-88.5"/>
<text text-anchor="start" x="8" y="-106.5" font-family="Helvetica,sans-Serif" font-size="10.00">openage::util::tests</text>
<text text-anchor="middle" x="50" y="-95.5" font-family="Helvetica,sans-Serif" font-size="10.00">::quaternion</text>
</a>
</g>
</g>
<!-- Node29&#45;&gt;Node30 -->
<g id="edge2" class="edge"><title>Node29&#45;&gt;Node30</title>
<path fill="none" stroke="midnightblue" d="M155.102,-171.822C148.622,-168.527 142.073,-165.028 136,-161.5 113.138,-148.218 88.3008,-130.908 71.4133,-118.667"/>
<polygon fill="midnightblue" stroke="midnightblue" points="153.971,-175.168 164.484,-176.483 157.085,-168.899 153.971,-175.168"/>
</g>
<!-- Node31&#45;&gt;Node30 -->
<g id="edge6" class="edge"><title>Node31&#45;&gt;Node30</title>
<path fill="none" stroke="midnightblue" d="M286.894,-125.252C243.145,-130.637 186.152,-134.444 136,-127.5 122.634,-125.649 108.413,-122.235 95.5042,-118.551"/>
<polygon fill="midnightblue" stroke="midnightblue" points="287.395,-128.716 296.866,-123.969 286.501,-121.773 287.395,-128.716"/>
</g>
<!-- Node32 -->
<g id="node5" class="node"><title>Node32</title>
<g id="a_node5"><a xlink:href="classopenage_1_1util_1_1_quaternion.xhtml#a2e1d1f1785181562048952f28858bea9" target="_top" xlink:title=" ">
<polygon fill="white" stroke="black" points="136,-88.5 136,-118.5 261,-118.5 261,-88.5 136,-88.5"/>
<text text-anchor="start" x="144" y="-106.5" font-family="Helvetica,sans-Serif" font-size="10.00">openage::util::Quaternion</text>
<text text-anchor="middle" x="198.5" y="-95.5" font-family="Helvetica,sans-Serif" font-size="10.00">::equals_deg</text>
</a>
</g>
</g>
<!-- Node31&#45;&gt;Node32 -->
<g id="edge4" class="edge"><title>Node31&#45;&gt;Node32</title>
<path fill="none" stroke="midnightblue" d="M286.408,-108.966C278.01,-108.438 269.501,-107.903 261.26,-107.384"/>
<polygon fill="midnightblue" stroke="midnightblue" points="286.371,-112.47 296.571,-109.605 286.811,-105.484 286.371,-112.47"/>
</g>
<!-- Node32&#45;&gt;Node30 -->
<g id="edge5" class="edge"><title>Node32&#45;&gt;Node30</title>
<path fill="none" stroke="midnightblue" d="M125.697,-103.5C117.059,-103.5 108.394,-103.5 100.184,-103.5"/>
<polygon fill="midnightblue" stroke="midnightblue" points="125.795,-107 135.795,-103.5 125.795,-100 125.795,-107"/>
</g>
<!-- Node34 -->
<g id="node7" class="node"><title>Node34</title>
<g id="a_node7"><a xlink:href="classopenage_1_1util_1_1_quaternion.xhtml#ab7cebbaf133b69d0122980f73416ddf6" target="_top" xlink:title=" ">
<polygon fill="white" stroke="black" points="297,-49.5 297,-79.5 422,-79.5 422,-49.5 297,-49.5"/>
<text text-anchor="start" x="305" y="-67.5" font-family="Helvetica,sans-Serif" font-size="10.00">openage::util::Quaternion</text>
<text text-anchor="middle" x="359.5" y="-56.5" font-family="Helvetica,sans-Serif" font-size="10.00">::inversed</text>
</a>
</g>
</g>
<!-- Node33&#45;&gt;Node34 -->
<g id="edge8" class="edge"><title>Node33&#45;&gt;Node34</title>
<path fill="none" stroke="midnightblue" d="M447.408,-65.5932C439.01,-65.4875 430.501,-65.3805 422.26,-65.2769"/>
<polygon fill="midnightblue" stroke="midnightblue" points="447.528,-69.0949 457.571,-65.721 447.616,-62.0954 447.528,-69.0949"/>
</g>
<!-- Node34&#45;&gt;Node30 -->
<g id="edge9" class="edge"><title>Node34&#45;&gt;Node30</title>
<path fill="none" stroke="midnightblue" d="M286.409,-64.9733C242.621,-66.2647 185.757,-69.7311 136,-78.5 122.518,-80.8761 108.136,-84.6216 95.1106,-88.4973"/>
<polygon fill="midnightblue" stroke="midnightblue" points="286.773,-68.465 296.677,-64.703 286.588,-61.4675 286.773,-68.465"/>
</g>
<!-- Node36 -->
<g id="node9" class="node"><title>Node36</title>
<g id="a_node9"><a xlink:href="classopenage_1_1util_1_1_quaternion.xhtml#a1ea971d2f39920e062b0b91971296b65" target="_top" xlink:title=" ">
<polygon fill="white" stroke="black" points="297,-0.5 297,-30.5 422,-30.5 422,-0.5 297,-0.5"/>
<text text-anchor="start" x="305" y="-18.5" font-family="Helvetica,sans-Serif" font-size="10.00">openage::util::Quaternion</text>
<text text-anchor="middle" x="359.5" y="-7.5" font-family="Helvetica,sans-Serif" font-size="10.00">::normalize</text>
</a>
</g>
</g>
<!-- Node35&#45;&gt;Node36 -->
<g id="edge11" class="edge"><title>Node35&#45;&gt;Node36</title>
<path fill="none" stroke="midnightblue" d="M447.408,-16.0466C439.01,-15.9938 430.501,-15.9403 422.26,-15.8884"/>
<polygon fill="midnightblue" stroke="midnightblue" points="447.549,-19.5475 457.571,-16.1105 447.593,-12.5476 447.549,-19.5475"/>
</g>
<!-- Node37 -->
<g id="node10" class="node"><title>Node37</title>
<g id="a_node10"><a xlink:href="classopenage_1_1util_1_1_quaternion.xhtml#adaf56c826ceec78d0f4980148ce498fa" target="_top" xlink:title=" ">
<polygon fill="white" stroke="black" points="136,-0.5 136,-30.5 261,-30.5 261,-0.5 136,-0.5"/>
<text text-anchor="start" x="144" y="-18.5" font-family="Helvetica,sans-Serif" font-size="10.00">openage::util::Quaternion</text>
<text text-anchor="middle" x="198.5" y="-7.5" font-family="Helvetica,sans-Serif" font-size="10.00">::normalized</text>
</a>
</g>
</g>
<!-- Node36&#45;&gt;Node37 -->
<g id="edge12" class="edge"><title>Node36&#45;&gt;Node37</title>
<path fill="none" stroke="midnightblue" d="M286.408,-15.5C278.01,-15.5 269.501,-15.5 261.26,-15.5"/>
<polygon fill="midnightblue" stroke="midnightblue" points="286.571,-19.0001 296.571,-15.5 286.571,-12.0001 286.571,-19.0001"/>
</g>
<!-- Node37&#45;&gt;Node30 -->
<g id="edge13" class="edge"><title>Node37&#45;&gt;Node30</title>
<path fill="none" stroke="midnightblue" d="M155.102,-35.178C148.622,-38.4727 142.073,-41.9716 136,-45.5 113.138,-58.7823 88.3008,-76.0922 71.4133,-88.3334"/>
<polygon fill="midnightblue" stroke="midnightblue" points="157.085,-38.1009 164.484,-30.5173 153.971,-31.8318 157.085,-38.1009"/>
</g>
</g>
</svg>
