<?xml version="1.0" encoding="UTF-8" standalone="no"?>
<!DOCTYPE svg PUBLIC "-//W3C//DTD SVG 1.1//EN"
 "http://www.w3.org/Graphics/SVG/1.1/DTD/svg11.dtd">
<!-- Generated by graphviz version 2.38.0 (20140413.2041)
 -->
<!-- Title: openage::EditorModeSignals::categories_changed Pages: 1 -->
<!--zoomable 143 -->
<svg id="main" version="1.1" xmlns="http://www.w3.org/2000/svg" xmlns:xlink="http://www.w3.org/1999/xlink" xml:space="preserve" onload="init(evt)">
<style type="text/css"><![CDATA[
.edge:hover path { stroke: red; }
.edge:hover polygon { stroke: red; fill: red; }
]]></style>
<script type="text/javascript"><![CDATA[
var edges = document.getElementsByTagName('g');
if (edges && edges.length) {
  for (var i=0;i<edges.length;i++) {
    if (edges[i].id.substr(0,4)=='edge') {
      edges[i].setAttribute('class','edge');
    }
  }
}
]]></script>
        <defs>
                <circle id="rim" cx="0" cy="0" r="7"/>
                <circle id="rim2" cx="0" cy="0" r="3.5"/>
                <g id="zoomPlus">
                        <use xlink:href="#rim" fill="#404040">
                                <set attributeName="fill" to="#808080" begin="zoomplus.mouseover" end="zoomplus.mouseout"/>
                        </use>
                        <path d="M-4,0h8M0,-4v8" fill="none" stroke="white" stroke-width="1.5" pointer-events="none"/>
                </g>
                <g id="zoomMin">
                        <use xlink:href="#rim" fill="#404040">
                                <set attributeName="fill" to="#808080" begin="zoomminus.mouseover" end="zoomminus.mouseout"/>
                        </use>
                        <path d="M-4,0h8" fill="none" stroke="white" stroke-width="1.5" pointer-events="none"/>
                </g>
                <g id="dirArrow">
                        <path fill="none" stroke="white" stroke-width="1.5" d="M0,-3.0v7 M-2.5,-0.5L0,-3.0L2.5,-0.5"/>
                </g>
               <g id="resetDef">
                       <use xlink:href="#rim2" fill="#404040">
                               <set attributeName="fill" to="#808080" begin="reset.mouseover" end="reset.mouseout"/>
                       </use>
               </g>
        </defs>

<script type="text/javascript">
var viewWidth = 635;
var viewHeight = 143;
var sectionId = 'dynsection-2';
</script>
<script xlink:href="svgpan.js"/>
<svg id="graph" class="graph">
<g id="viewport">
<title>openage::EditorModeSignals::categories_changed</title>
<polygon fill="white" stroke="none" points="-4,4 -4,-139 631,-139 631,4 -4,4"/>
<!-- Node3 -->
<g id="node1" class="node"><title>Node3</title>
<g id="a_node1"><a xlink:title=" ">
<polygon fill="#bfbfbf" stroke="black" points="486,-24.5 486,-54.5 627,-54.5 627,-24.5 486,-24.5"/>
<text text-anchor="start" x="494" y="-42.5" font-family="Helvetica,sans-Serif" font-size="10.00">openage::EditorModeSignals</text>
<text text-anchor="middle" x="556.5" y="-31.5" font-family="Helvetica,sans-Serif" font-size="10.00">::categories_changed</text>
</a>
</g>
</g>
<!-- Node4 -->
<g id="node2" class="node"><title>Node4</title>
<g id="a_node2"><a xlink:href="classopenage_1_1_editor_mode.xhtml#a360404d7810def66e59134ee6ea4d0d2" target="_top" xlink:title=" ">
<polygon fill="white" stroke="black" points="328.5,-49.5 328.5,-79.5 443.5,-79.5 443.5,-49.5 328.5,-49.5"/>
<text text-anchor="start" x="336.5" y="-67.5" font-family="Helvetica,sans-Serif" font-size="10.00">openage::EditorMode</text>
<text text-anchor="middle" x="386" y="-56.5" font-family="Helvetica,sans-Serif" font-size="10.00">::announce_categories</text>
</a>
</g>
</g>
<!-- Node3&#45;&gt;Node4 -->
<g id="edge1" class="edge"><title>Node3&#45;&gt;Node4</title>
<path fill="none" stroke="midnightblue" d="M475.975,-51.2989C465.012,-52.9255 453.942,-54.5679 443.511,-56.1156"/>
<polygon fill="midnightblue" stroke="midnightblue" points="476.614,-54.7426 485.992,-49.8128 475.586,-47.8184 476.614,-54.7426"/>
</g>
<!-- Node8 -->
<g id="node6" class="node"><title>Node8</title>
<g id="a_node6"><a xlink:href="classopenage_1_1gui_1_1_editor_mode_link.xhtml#ac1c41942ee1dda4e2774eddebc6e1104" target="_top" xlink:title=" ">
<polygon fill="white" stroke="black" points="322,-0.5 322,-30.5 450,-30.5 450,-0.5 322,-0.5"/>
<text text-anchor="start" x="330" y="-18.5" font-family="Helvetica,sans-Serif" font-size="10.00">openage::gui::EditorMode</text>
<text text-anchor="middle" x="386" y="-7.5" font-family="Helvetica,sans-Serif" font-size="10.00">Link::on_core_adopted</text>
</a>
</g>
</g>
<!-- Node3&#45;&gt;Node8 -->
<g id="edge6" class="edge"><title>Node3&#45;&gt;Node8</title>
<path fill="none" stroke="midnightblue" d="M475.898,-28.162C467.255,-26.931 458.547,-25.6906 450.138,-24.493"/>
<polygon fill="midnightblue" stroke="midnightblue" points="475.598,-31.6546 485.992,-29.5997 476.585,-24.7245 475.598,-31.6546"/>
</g>
<!-- Node5 -->
<g id="node3" class="node"><title>Node5</title>
<g id="a_node3"><a xlink:href="classopenage_1_1_editor_mode.xhtml#aeac3794a1c9c6b6492413573d3670133" target="_top" xlink:title="Emit the &quot;announced&quot; signal with (name, InputContext::active_binds).">
<polygon fill="white" stroke="black" points="161,-104.5 161,-134.5 270,-134.5 270,-104.5 161,-104.5"/>
<text text-anchor="start" x="169" y="-122.5" font-family="Helvetica,sans-Serif" font-size="10.00">openage::EditorMode</text>
<text text-anchor="middle" x="215.5" y="-111.5" font-family="Helvetica,sans-Serif" font-size="10.00">::announce</text>
</a>
</g>
</g>
<!-- Node4&#45;&gt;Node5 -->
<g id="edge2" class="edge"><title>Node4&#45;&gt;Node5</title>
<path fill="none" stroke="midnightblue" d="M329.235,-82.7022C307.589,-89.7678 283.099,-97.7616 262.488,-104.489"/>
<polygon fill="midnightblue" stroke="midnightblue" points="330.536,-85.9593 338.957,-79.529 328.364,-79.3048 330.536,-85.9593"/>
</g>
<!-- Node6 -->
<g id="node4" class="node"><title>Node6</title>
<g id="a_node4"><a xlink:href="classopenage_1_1_editor_mode_signals.xhtml#a99bfe9ca55710da4414986c20c41a05e" target="_top" xlink:title=" ">
<polygon fill="white" stroke="black" points="145,-44 145,-85 286,-85 286,-44 145,-44"/>
<text text-anchor="start" x="153" y="-73" font-family="Helvetica,sans-Serif" font-size="10.00">openage::EditorModeSignals</text>
<text text-anchor="start" x="153" y="-62" font-family="Helvetica,sans-Serif" font-size="10.00">::on_current_player_name</text>
<text text-anchor="middle" x="215.5" y="-51" font-family="Helvetica,sans-Serif" font-size="10.00">_changed</text>
</a>
</g>
</g>
<!-- Node4&#45;&gt;Node6 -->
<g id="edge3" class="edge"><title>Node4&#45;&gt;Node6</title>
<path fill="none" stroke="midnightblue" d="M318.393,-64.5C307.782,-64.5 296.78,-64.5 286.101,-64.5"/>
<polygon fill="midnightblue" stroke="midnightblue" points="318.423,-68.0001 328.423,-64.5 318.423,-61.0001 318.423,-68.0001"/>
</g>
<!-- Node7 -->
<g id="node5" class="node"><title>Node7</title>
<g id="a_node5"><a xlink:href="classopenage_1_1_editor_mode.xhtml#a4c17017408bec2740f3653123bd17660" target="_top" xlink:title="Called when the GameControl is set in QML.">
<polygon fill="white" stroke="black" points="0,-24.5 0,-54.5 109,-54.5 109,-24.5 0,-24.5"/>
<text text-anchor="start" x="8" y="-42.5" font-family="Helvetica,sans-Serif" font-size="10.00">openage::EditorMode</text>
<text text-anchor="middle" x="54.5" y="-31.5" font-family="Helvetica,sans-Serif" font-size="10.00">::set_game_control</text>
</a>
</g>
</g>
<!-- Node4&#45;&gt;Node7 -->
<g id="edge5" class="edge"><title>Node4&#45;&gt;Node7</title>
<path fill="none" stroke="midnightblue" d="M334.81,-46.1715C319.37,-41.3843 302.176,-36.8971 286,-34.5 226.014,-25.6109 156.301,-28.994 109.382,-33.2372"/>
<polygon fill="midnightblue" stroke="midnightblue" points="334.084,-49.6144 344.676,-49.3417 336.226,-42.9501 334.084,-49.6144"/>
</g>
<!-- Node6&#45;&gt;Node7 -->
<g id="edge4" class="edge"><title>Node6&#45;&gt;Node7</title>
<path fill="none" stroke="midnightblue" d="M134.717,-51.9556C126.144,-50.6075 117.574,-49.2601 109.408,-47.9761"/>
<polygon fill="midnightblue" stroke="midnightblue" points="134.338,-55.4388 144.76,-53.5346 135.425,-48.5238 134.338,-55.4388"/>
</g>
</g>
</svg>
        <g id="navigator" transform="translate(0 0)" fill="#404254">
                <rect fill="#f2f5e9" fill-opacity="0.5" stroke="#606060" stroke-width=".5" x="0" y="0" width="60" height="60"/>
                <use id="zoomplus" xlink:href="#zoomPlus" x="17" y="9" onmousedown="handleZoom(evt,'in')"/>
                <use id="zoomminus" xlink:href="#zoomMin" x="42" y="9" onmousedown="handleZoom(evt,'out')"/>
                <use id="reset" xlink:href="#resetDef" x="30" y="36" onmousedown="handleReset()"/>
                <g id="arrowUp" xlink:href="#dirArrow" transform="translate(30 24)" onmousedown="handlePan(0,-1)">
                  <use xlink:href="#rim" fill="#404040">
                        <set attributeName="fill" to="#808080" begin="arrowUp.mouseover" end="arrowUp.mouseout"/>
                  </use>
                  <path fill="none" stroke="white" stroke-width="1.5" d="M0,-3.0v7 M-2.5,-0.5L0,-3.0L2.5,-0.5"/>
                </g>
                <g id="arrowRight" xlink:href="#dirArrow" transform="rotate(90) translate(36 -43)" onmousedown="handlePan(1,0)">
                  <use xlink:href="#rim" fill="#404040">
                        <set attributeName="fill" to="#808080" begin="arrowRight.mouseover" end="arrowRight.mouseout"/>
                  </use>
                  <path fill="none" stroke="white" stroke-width="1.5" d="M0,-3.0v7 M-2.5,-0.5L0,-3.0L2.5,-0.5"/>
                </g>
                <g id="arrowDown" xlink:href="#dirArrow" transform="rotate(180) translate(-30 -48)" onmousedown="handlePan(0,1)">
                  <use xlink:href="#rim" fill="#404040">
                        <set attributeName="fill" to="#808080" begin="arrowDown.mouseover" end="arrowDown.mouseout"/>
                  </use>
                  <path fill="none" stroke="white" stroke-width="1.5" d="M0,-3.0v7 M-2.5,-0.5L0,-3.0L2.5,-0.5"/>
                </g>
                <g id="arrowLeft" xlink:href="#dirArrow" transform="rotate(270) translate(-36 17)" onmousedown="handlePan(-1,0)">
                  <use xlink:href="#rim" fill="#404040">
                        <set attributeName="fill" to="#808080" begin="arrowLeft.mouseover" end="arrowLeft.mouseout"/>
                  </use>
                  <path fill="none" stroke="white" stroke-width="1.5" d="M0,-3.0v7 M-2.5,-0.5L0,-3.0L2.5,-0.5"/>
                </g>
        </g>
        <svg viewBox="0 0 15 15" width="100%" height="30px" preserveAspectRatio="xMaxYMin meet">
         <g id="arrow_out" transform="scale(0.3 0.3)">
          <a xlink:href="classopenage_1_1_editor_mode_signals_a30b7b704e3b67509ebe3b10cea2349ce_icgraph_org.svg" target="_base">
           <rect id="button" ry="5" rx="5" y="6" x="6" height="38" width="38"
                fill="#f2f5e9" fill-opacity="0.5" stroke="#606060" stroke-width="1.0"/>
           <path id="arrow"
             d="M 11.500037,31.436501 C 11.940474,20.09759 22.043105,11.32322 32.158766,21.979434 L 37.068811,17.246167 C 37.068811,17.246167 37.088388,32 37.088388,32 L 22.160133,31.978069 C 22.160133,31.978069 26.997745,27.140456 26.997745,27.140456 C 18.528582,18.264221 13.291696,25.230495 11.500037,31.436501 z"
             style="fill:#404040;"/>
          </a>
         </g>
        </svg>
</svg>
