<?xml version="1.0" encoding="UTF-8" standalone="no"?>
<!DOCTYPE svg PUBLIC "-//W3C//DTD SVG 1.1//EN"
 "http://www.w3.org/Graphics/SVG/1.1/DTD/svg11.dtd">
<!-- Generated by graphviz version 2.38.0 (20140413.2041)
 -->
<!-- Title: openage::Unit::draw Pages: 1 -->
<svg width="370pt" height="78pt"
 viewBox="0.00 0.00 370.00 77.50" xmlns="http://www.w3.org/2000/svg" xmlns:xlink="http://www.w3.org/1999/xlink">
<g id="graph0" class="graph" transform="scale(1 1) rotate(0) translate(4 73.5)">
<title>openage::Unit::draw</title>
<polygon fill="white" stroke="none" points="-4,4 -4,-73.5 366,-73.5 366,4 -4,4"/>
<!-- Node69 -->
<g id="node1" class="node"><title>Node69</title>
<g id="a_node1"><a xlink:title="draws this action by taking the graphic type of the top action the graphic is found from the current ...">
<polygon fill="#bfbfbf" stroke="black" points="0,-22.5 0,-41.5 103,-41.5 103,-22.5 0,-22.5"/>
<text text-anchor="middle" x="51.5" y="-29.5" font-family="Helvetica,sans-Serif" font-size="10.00">openage::Unit::draw</text>
</a>
</g>
</g>
<!-- Node70 -->
<g id="node2" class="node"><title>Node70</title>
<g id="a_node2"><a xlink:href="classopenage_1_1_unit_action.xhtml#a6cd7405af72dd0cf3994cee74608cf8b" target="_top" xlink:title="determines which graphic should be used for drawing this unit finds the default graphic using the uni...">
<polygon fill="white" stroke="black" points="139,-39 139,-69 243,-69 243,-39 139,-39"/>
<text text-anchor="start" x="147" y="-57" font-family="Helvetica,sans-Serif" font-size="10.00">openage::UnitAction</text>
<text text-anchor="middle" x="191" y="-46" font-family="Helvetica,sans-Serif" font-size="10.00">::current_graphics</text>
</a>
</g>
</g>
<!-- Node69&#45;&gt;Node70 -->
<g id="edge1" class="edge"><title>Node69&#45;&gt;Node70</title>
<path fill="none" stroke="midnightblue" d="M103.309,-40.1295C111.667,-41.4667 120.405,-42.8648 128.981,-44.2369"/>
<polygon fill="midnightblue" stroke="midnightblue" points="128.513,-47.7065 138.941,-45.8305 129.619,-40.7945 128.513,-47.7065"/>
</g>
<!-- Node71 -->
<g id="node3" class="node"><title>Node71</title>
<g id="a_node3"><a xlink:href="classopenage_1_1_unit.xhtml#a86a49987e082055274e98a142baffad8" target="_top" xlink:title="returns the current action on top of the stack">
<polygon fill="white" stroke="black" points="143,-0.5 143,-19.5 239,-19.5 239,-0.5 143,-0.5"/>
<text text-anchor="middle" x="191" y="-7.5" font-family="Helvetica,sans-Serif" font-size="10.00">openage::Unit::top</text>
</a>
</g>
</g>
<!-- Node69&#45;&gt;Node71 -->
<g id="edge2" class="edge"><title>Node69&#45;&gt;Node71</title>
<path fill="none" stroke="midnightblue" d="M103.309,-23.8705C112.848,-22.3443 122.882,-20.7389 132.605,-19.1832"/>
<polygon fill="midnightblue" stroke="midnightblue" points="133.269,-22.6216 142.59,-17.5856 132.163,-15.7095 133.269,-22.6216"/>
</g>
<!-- Node72 -->
<g id="node4" class="node"><title>Node72</title>
<g id="a_node4"><a xlink:href="namespaceopenage_1_1log.xhtml#a325b0901ddb3f2af36f93781b7dd9744" target="_top" xlink:title="error message">
<polygon fill="white" stroke="black" points="279,-0.5 279,-19.5 362,-19.5 362,-0.5 279,-0.5"/>
<text text-anchor="middle" x="320.5" y="-7.5" font-family="Helvetica,sans-Serif" font-size="10.00">openage.log.err</text>
</a>
</g>
</g>
<!-- Node71&#45;&gt;Node72 -->
<g id="edge3" class="edge"><title>Node71&#45;&gt;Node72</title>
<path fill="none" stroke="midnightblue" d="M239.114,-10C248.801,-10 259.04,-10 268.846,-10"/>
<polygon fill="midnightblue" stroke="midnightblue" points="268.868,-13.5001 278.868,-10 268.868,-6.5001 268.868,-13.5001"/>
</g>
</g>
</svg>
