<?xml version="1.0" encoding="UTF-8" standalone="no"?>
<!DOCTYPE svg PUBLIC "-//W3C//DTD SVG 1.1//EN"
 "http://www.w3.org/Graphics/SVG/1.1/DTD/svg11.dtd">
<!-- Generated by graphviz version 2.38.0 (20140413.2041)
 -->
<!-- Title: openage::Terrain::check_tile_position Pages: 1 -->
<svg width="615pt" height="39pt"
 viewBox="0.00 0.00 615.00 39.00" xmlns="http://www.w3.org/2000/svg" xmlns:xlink="http://www.w3.org/1999/xlink">
<g id="graph0" class="graph" transform="scale(1 1) rotate(0) translate(4 35)">
<title>openage::Terrain::check_tile_position</title>
<polygon fill="white" stroke="none" points="-4,4 -4,-35 611,-35 611,4 -4,4"/>
<!-- Node64 -->
<g id="node1" class="node"><title>Node64</title>
<g id="a_node1"><a xlink:title=" ">
<polygon fill="#bfbfbf" stroke="black" points="486,-0.5 486,-30.5 607,-30.5 607,-0.5 486,-0.5"/>
<text text-anchor="start" x="494" y="-18.5" font-family="Helvetica,sans-Serif" font-size="10.00">openage::Terrain::check</text>
<text text-anchor="middle" x="546.5" y="-7.5" font-family="Helvetica,sans-Serif" font-size="10.00">_tile_position</text>
</a>
</g>
</g>
<!-- Node65 -->
<g id="node2" class="node"><title>Node65</title>
<g id="a_node2"><a xlink:href="classopenage_1_1_terrain.xhtml#ab9457472de4a25ef737684e27d1d5810" target="_top" xlink:title=" ">
<polygon fill="white" stroke="black" points="311,-6 311,-25 450,-25 450,-6 311,-6"/>
<text text-anchor="middle" x="380.5" y="-13" font-family="Helvetica,sans-Serif" font-size="10.00">openage::Terrain::check_tile</text>
</a>
</g>
</g>
<!-- Node64&#45;&gt;Node65 -->
<g id="edge1" class="edge"><title>Node64&#45;&gt;Node65</title>
<path fill="none" stroke="midnightblue" d="M475.604,-15.5C467.13,-15.5 458.479,-15.5 450.025,-15.5"/>
<polygon fill="midnightblue" stroke="midnightblue" points="475.828,-19.0001 485.828,-15.5 475.828,-12.0001 475.828,-19.0001"/>
</g>
<!-- Node66 -->
<g id="node3" class="node"><title>Node66</title>
<g id="a_node3"><a xlink:href="classopenage_1_1_terrain.xhtml#ac5f73cac07115849392bb22598ae8fba" target="_top" xlink:title=" ">
<polygon fill="white" stroke="black" points="171,-6 171,-25 275,-25 275,-6 171,-6"/>
<text text-anchor="middle" x="223" y="-13" font-family="Helvetica,sans-Serif" font-size="10.00">openage::Terrain::fill</text>
</a>
</g>
</g>
<!-- Node65&#45;&gt;Node66 -->
<g id="edge2" class="edge"><title>Node65&#45;&gt;Node66</title>
<path fill="none" stroke="midnightblue" d="M300.639,-15.5C291.932,-15.5 283.244,-15.5 275.011,-15.5"/>
<polygon fill="midnightblue" stroke="midnightblue" points="300.843,-19.0001 310.843,-15.5 300.843,-12.0001 300.843,-19.0001"/>
</g>
<!-- Node67 -->
<g id="node4" class="node"><title>Node67</title>
<g id="a_node4"><a xlink:href="classopenage_1_1convert_1_1colortable_1_1_color_table.xhtml#a5223d2c9c8019307e1c81e31b9b5124e" target="_top" xlink:title=" ">
<polygon fill="white" stroke="black" points="0,-0.5 0,-30.5 135,-30.5 135,-0.5 0,-0.5"/>
<text text-anchor="start" x="8" y="-18.5" font-family="Helvetica,sans-Serif" font-size="10.00">openage.convert.colortable.</text>
<text text-anchor="middle" x="67.5" y="-7.5" font-family="Helvetica,sans-Serif" font-size="10.00">ColorTable.__init__</text>
</a>
</g>
</g>
<!-- Node66&#45;&gt;Node67 -->
<g id="edge3" class="edge"><title>Node66&#45;&gt;Node67</title>
<path fill="none" stroke="midnightblue" d="M160.793,-15.5C152.389,-15.5 143.726,-15.5 135.229,-15.5"/>
<polygon fill="midnightblue" stroke="midnightblue" points="160.887,-19.0001 170.887,-15.5 160.887,-12.0001 160.887,-19.0001"/>
</g>
</g>
</svg>
