<?xml version="1.0" encoding="UTF-8" standalone="no"?>
<!DOCTYPE svg PUBLIC "-//W3C//DTD SVG 1.1//EN"
 "http://www.w3.org/Graphics/SVG/1.1/DTD/svg11.dtd">
<!-- Generated by graphviz version 2.38.0 (20140413.2041)
 -->
<!-- Title: openage::gui::CategoryContentsListModel::set_editor_mode Pages: 1 -->
<svg width="1524pt" height="286pt"
 viewBox="0.00 0.00 1524.00 285.50" xmlns="http://www.w3.org/2000/svg" xmlns:xlink="http://www.w3.org/1999/xlink">
<g id="graph0" class="graph" transform="scale(1 1) rotate(0) translate(4 281.5)">
<title>openage::gui::CategoryContentsListModel::set_editor_mode</title>
<polygon fill="white" stroke="none" points="-4,4 -4,-281.5 1520,-281.5 1520,4 -4,4"/>
<!-- Node37 -->
<g id="node1" class="node"><title>Node37</title>
<g id="a_node1"><a xlink:title=" ">
<polygon fill="#bfbfbf" stroke="black" points="0,-36 0,-66 156,-66 156,-36 0,-36"/>
<text text-anchor="start" x="8" y="-54" font-family="Helvetica,sans-Serif" font-size="10.00">openage::gui::CategoryContents</text>
<text text-anchor="middle" x="78" y="-43" font-family="Helvetica,sans-Serif" font-size="10.00">ListModel::set_editor_mode</text>
</a>
</g>
</g>
<!-- Node38 -->
<g id="node2" class="node"><title>Node38</title>
<g id="a_node2"><a xlink:href="classopenage_1_1gui_1_1_category_contents_list_model.xhtml#ae2f8844ff265e3c40e61e9993b272127" target="_top" xlink:title=" ">
<polygon fill="white" stroke="black" points="192,-60.5 192,-101.5 348,-101.5 348,-60.5 192,-60.5"/>
<text text-anchor="start" x="200" y="-89.5" font-family="Helvetica,sans-Serif" font-size="10.00">openage::gui::CategoryContents</text>
<text text-anchor="start" x="200" y="-78.5" font-family="Helvetica,sans-Serif" font-size="10.00">ListModel::on_categories</text>
<text text-anchor="middle" x="270" y="-67.5" font-family="Helvetica,sans-Serif" font-size="10.00">_content_changed</text>
</a>
</g>
</g>
<!-- Node37&#45;&gt;Node38 -->
<g id="edge1" class="edge"><title>Node37&#45;&gt;Node38</title>
<path fill="none" stroke="midnightblue" d="M156.006,-63.1589C164.509,-64.5014 173.211,-65.8754 181.827,-67.2358"/>
<polygon fill="midnightblue" stroke="midnightblue" points="181.46,-70.7212 191.884,-68.8238 182.552,-63.8069 181.46,-70.7212"/>
</g>
<!-- Node54 -->
<g id="node18" class="node"><title>Node54</title>
<g id="a_node18"><a xlink:href="classopenage_1_1gui_1_1_category_contents_list_model.xhtml#aa2e0aadf7e45f501bde15a55d21908bc" target="_top" xlink:title=" ">
<polygon fill="white" stroke="black" points="192,-0.5 192,-41.5 348,-41.5 348,-0.5 192,-0.5"/>
<text text-anchor="start" x="200" y="-29.5" font-family="Helvetica,sans-Serif" font-size="10.00">openage::gui::CategoryContents</text>
<text text-anchor="start" x="200" y="-18.5" font-family="Helvetica,sans-Serif" font-size="10.00">ListModel::on_category_content</text>
<text text-anchor="middle" x="270" y="-7.5" font-family="Helvetica,sans-Serif" font-size="10.00">_changed</text>
</a>
</g>
</g>
<!-- Node37&#45;&gt;Node54 -->
<g id="edge23" class="edge"><title>Node37&#45;&gt;Node54</title>
<path fill="none" stroke="midnightblue" d="M156.006,-38.8411C164.509,-37.4986 173.211,-36.1246 181.827,-34.7642"/>
<polygon fill="midnightblue" stroke="midnightblue" points="182.552,-38.1931 191.884,-33.1762 181.46,-31.2788 182.552,-38.1931"/>
</g>
<!-- Node39 -->
<g id="node3" class="node"><title>Node39</title>
<g id="a_node3"><a xlink:href="classopenage_1_1gui_1_1_editor_mode_link.xhtml#a4604a1e7eae32183404c1e4f8bf5f808" target="_top" xlink:title=" ">
<polygon fill="white" stroke="black" points="384,-60.5 384,-101.5 512,-101.5 512,-60.5 384,-60.5"/>
<text text-anchor="start" x="392" y="-89.5" font-family="Helvetica,sans-Serif" font-size="10.00">openage::gui::EditorMode</text>
<text text-anchor="start" x="392" y="-78.5" font-family="Helvetica,sans-Serif" font-size="10.00">Link::announce_category</text>
<text text-anchor="middle" x="448" y="-67.5" font-family="Helvetica,sans-Serif" font-size="10.00">_content</text>
</a>
</g>
</g>
<!-- Node38&#45;&gt;Node39 -->
<g id="edge2" class="edge"><title>Node38&#45;&gt;Node39</title>
<path fill="none" stroke="midnightblue" d="M348.196,-81C356.667,-81 365.273,-81 373.694,-81"/>
<polygon fill="midnightblue" stroke="midnightblue" points="373.853,-84.5001 383.853,-81 373.853,-77.5001 373.853,-84.5001"/>
</g>
<!-- Node40 -->
<g id="node4" class="node"><title>Node40</title>
<g id="a_node4"><a xlink:href="classopenage_1_1_editor_mode.xhtml#a8bc3906c89a7ecceff2c24512c5be24b" target="_top" xlink:title=" ">
<polygon fill="white" stroke="black" points="563.5,-88.5 563.5,-129.5 672.5,-129.5 672.5,-88.5 563.5,-88.5"/>
<text text-anchor="start" x="571.5" y="-117.5" font-family="Helvetica,sans-Serif" font-size="10.00">openage::EditorMode</text>
<text text-anchor="start" x="571.5" y="-106.5" font-family="Helvetica,sans-Serif" font-size="10.00">::announce_category</text>
<text text-anchor="middle" x="618" y="-95.5" font-family="Helvetica,sans-Serif" font-size="10.00">_content</text>
</a>
</g>
</g>
<!-- Node39&#45;&gt;Node40 -->
<g id="edge3" class="edge"><title>Node39&#45;&gt;Node40</title>
<path fill="none" stroke="midnightblue" d="M512.035,-91.5058C525.464,-93.744 539.657,-96.1095 553.118,-98.353"/>
<polygon fill="midnightblue" stroke="midnightblue" points="552.804,-101.849 563.244,-100.041 553.955,-94.9442 552.804,-101.849"/>
</g>
<!-- Node53 -->
<g id="node17" class="node"><title>Node53</title>
<g id="a_node17"><a xlink:href="classqtsdl_1_1_shadow.xhtml#a72190fd685d21b446fae24b92412b54f" target="_top" xlink:title=" ">
<polygon fill="white" stroke="black" points="548,-39 548,-69 688,-69 688,-39 548,-39"/>
<text text-anchor="start" x="556" y="-57" font-family="Helvetica,sans-Serif" font-size="10.00">qtsdl::Shadow&lt; OutputMode</text>
<text text-anchor="middle" x="618" y="-46" font-family="Helvetica,sans-Serif" font-size="10.00">Link &gt;::i</text>
</a>
</g>
</g>
<!-- Node39&#45;&gt;Node53 -->
<g id="edge22" class="edge"><title>Node39&#45;&gt;Node53</title>
<path fill="none" stroke="midnightblue" d="M512.035,-70.8694C520.467,-69.5142 529.2,-68.1107 537.864,-66.7183"/>
<polygon fill="midnightblue" stroke="midnightblue" points="538.663,-70.1349 547.98,-65.0924 537.552,-63.2236 538.663,-70.1349"/>
</g>
<!-- Node41 -->
<g id="node5" class="node"><title>Node41</title>
<g id="a_node5"><a xlink:href="namespaceopenage_1_1util.xhtml#ac6f34c002692bc844cd70de03e10bc5d" target="_top" xlink:title="std::for_each except just on containers.">
<polygon fill="white" stroke="black" points="724.5,-121.5 724.5,-140.5 839.5,-140.5 839.5,-121.5 724.5,-121.5"/>
<text text-anchor="middle" x="782" y="-128.5" font-family="Helvetica,sans-Serif" font-size="10.00">openage::util::for_each</text>
</a>
</g>
</g>
<!-- Node40&#45;&gt;Node41 -->
<g id="edge4" class="edge"><title>Node40&#45;&gt;Node41</title>
<path fill="none" stroke="midnightblue" d="M672.944,-116.326C686.073,-118.109 700.273,-120.037 713.929,-121.892"/>
<polygon fill="midnightblue" stroke="midnightblue" points="713.859,-125.414 724.239,-123.292 714.801,-118.478 713.859,-125.414"/>
</g>
<!-- Node51 -->
<g id="node15" class="node"><title>Node51</title>
<g id="a_node15"><a xlink:href="classopenage_1_1_game_control.xhtml#aa7c61c3caafc810355005e83c8f234e2" target="_top" xlink:title=" ">
<polygon fill="white" stroke="black" points="724,-72 724,-102 840,-102 840,-72 724,-72"/>
<text text-anchor="start" x="732" y="-90" font-family="Helvetica,sans-Serif" font-size="10.00">openage::GameControl</text>
<text text-anchor="middle" x="782" y="-79" font-family="Helvetica,sans-Serif" font-size="10.00">::get_current_player</text>
</a>
</g>
</g>
<!-- Node40&#45;&gt;Node51 -->
<g id="edge20" class="edge"><title>Node40&#45;&gt;Node51</title>
<path fill="none" stroke="midnightblue" d="M672.944,-101.674C685.999,-99.9013 700.115,-97.9844 713.7,-96.1395"/>
<polygon fill="midnightblue" stroke="midnightblue" points="714.522,-99.5601 723.96,-94.7462 713.58,-92.6238 714.522,-99.5601"/>
</g>
<!-- Node42 -->
<g id="node6" class="node"><title>Node42</title>
<g id="a_node6"><a xlink:href="namespaceopenage_1_1curve_1_1tests.xhtml#afc4e799a037edab37e1e35a74da593b7" target="_top" xlink:title=" ">
<polygon fill="white" stroke="black" points="890,-116 890,-146 1000,-146 1000,-116 890,-116"/>
<text text-anchor="start" x="898" y="-134" font-family="Helvetica,sans-Serif" font-size="10.00">openage::curve::tests</text>
<text text-anchor="middle" x="945" y="-123" font-family="Helvetica,sans-Serif" font-size="10.00">::container</text>
</a>
</g>
</g>
<!-- Node41&#45;&gt;Node42 -->
<g id="edge5" class="edge"><title>Node41&#45;&gt;Node42</title>
<path fill="none" stroke="midnightblue" d="M839.763,-131C852.748,-131 866.639,-131 879.909,-131"/>
<polygon fill="midnightblue" stroke="midnightblue" points="879.91,-134.5 889.91,-131 879.91,-127.5 879.91,-134.5"/>
</g>
<!-- Node43 -->
<g id="node7" class="node"><title>Node43</title>
<g id="a_node7"><a xlink:href="namespaceopenage_1_1curve_1_1tests.xhtml#a994d019a14acd704605a0ccff85558c8" target="_top" xlink:title=" ">
<polygon fill="white" stroke="black" points="1050,-247 1050,-277 1160,-277 1160,-247 1050,-247"/>
<text text-anchor="start" x="1058" y="-265" font-family="Helvetica,sans-Serif" font-size="10.00">openage::curve::tests</text>
<text text-anchor="middle" x="1105" y="-254" font-family="Helvetica,sans-Serif" font-size="10.00">::test_list</text>
</a>
</g>
</g>
<!-- Node42&#45;&gt;Node43 -->
<g id="edge6" class="edge"><title>Node42&#45;&gt;Node43</title>
<path fill="none" stroke="midnightblue" d="M957.645,-146.265C975.475,-168.797 1011.54,-211.181 1050,-238 1052.06,-239.438 1054.22,-240.82 1056.45,-242.144"/>
<polygon fill="midnightblue" stroke="midnightblue" points="1054.8,-245.231 1065.25,-246.96 1058.16,-239.09 1054.8,-245.231"/>
</g>
<!-- Node44 -->
<g id="node8" class="node"><title>Node44</title>
<g id="a_node8"><a xlink:href="namespaceopenage_1_1curve_1_1tests.xhtml#aafe8d47259322a390c43cae62d308296" target="_top" xlink:title=" ">
<polygon fill="white" stroke="black" points="1050,-198 1050,-228 1160,-228 1160,-198 1050,-198"/>
<text text-anchor="start" x="1058" y="-216" font-family="Helvetica,sans-Serif" font-size="10.00">openage::curve::tests</text>
<text text-anchor="middle" x="1105" y="-205" font-family="Helvetica,sans-Serif" font-size="10.00">::test_map</text>
</a>
</g>
</g>
<!-- Node42&#45;&gt;Node44 -->
<g id="edge7" class="edge"><title>Node42&#45;&gt;Node44</title>
<path fill="none" stroke="midnightblue" d="M974.98,-146.04C1000.51,-159.291 1037.89,-178.689 1065.85,-193.199"/>
<polygon fill="midnightblue" stroke="midnightblue" points="1064.45,-196.417 1074.94,-197.917 1067.67,-190.204 1064.45,-196.417"/>
</g>
<!-- Node45 -->
<g id="node9" class="node"><title>Node45</title>
<g id="a_node9"><a xlink:href="namespaceopenage_1_1curve_1_1tests.xhtml#ae4b27fadf76c2a10960f6b7e7ff7c724" target="_top" xlink:title=" ">
<polygon fill="white" stroke="black" points="1050,-72 1050,-102 1160,-102 1160,-72 1050,-72"/>
<text text-anchor="start" x="1058" y="-90" font-family="Helvetica,sans-Serif" font-size="10.00">openage::curve::tests</text>
<text text-anchor="middle" x="1105" y="-79" font-family="Helvetica,sans-Serif" font-size="10.00">::test_queue</text>
</a>
</g>
</g>
<!-- Node42&#45;&gt;Node45 -->
<g id="edge8" class="edge"><title>Node42&#45;&gt;Node45</title>
<path fill="none" stroke="midnightblue" d="M999.933,-115.981C1012.95,-112.355 1026.99,-108.447 1040.4,-104.71"/>
<polygon fill="midnightblue" stroke="midnightblue" points="1041.35,-108.081 1050.04,-102.026 1039.47,-101.337 1041.35,-108.081"/>
</g>
<!-- Node46 -->
<g id="node10" class="node"><title>Node46</title>
<g id="a_node10"><a xlink:href="classopenage_1_1curve_1_1_queue.xhtml#acbff846f0aad39b82c1dbffe83f80fba" target="_top" xlink:title=" ">
<polygon fill="white" stroke="black" points="1207,-147 1207,-177 1323,-177 1323,-147 1207,-147"/>
<text text-anchor="start" x="1215" y="-165" font-family="Helvetica,sans-Serif" font-size="10.00">openage::curve::Queue</text>
<text text-anchor="middle" x="1265" y="-154" font-family="Helvetica,sans-Serif" font-size="10.00">::begin</text>
</a>
</g>
</g>
<!-- Node45&#45;&gt;Node46 -->
<g id="edge9" class="edge"><title>Node45&#45;&gt;Node46</title>
<path fill="none" stroke="midnightblue" d="M1130.68,-102.073C1148.47,-112.599 1173.25,-126.575 1196,-137 1200.67,-139.139 1205.58,-141.232 1210.53,-143.239"/>
<polygon fill="midnightblue" stroke="midnightblue" points="1209.48,-146.584 1220.06,-146.982 1212.03,-140.069 1209.48,-146.584"/>
</g>
<!-- Node48 -->
<g id="node12" class="node"><title>Node48</title>
<g id="a_node12"><a xlink:href="classopenage_1_1curve_1_1_queue.xhtml#a3ba35a56fa550d939d0d16c71c63e56c" target="_top" xlink:title=" ">
<polygon fill="white" stroke="black" points="1207,-3 1207,-33 1323,-33 1323,-3 1207,-3"/>
<text text-anchor="start" x="1215" y="-21" font-family="Helvetica,sans-Serif" font-size="10.00">openage::curve::Queue</text>
<text text-anchor="middle" x="1265" y="-10" font-family="Helvetica,sans-Serif" font-size="10.00">::between</text>
</a>
</g>
</g>
<!-- Node45&#45;&gt;Node48 -->
<g id="edge12" class="edge"><title>Node45&#45;&gt;Node48</title>
<path fill="none" stroke="midnightblue" d="M1140.67,-71.8577C1164.03,-61.6565 1195.04,-48.1167 1220.11,-37.1652"/>
<polygon fill="midnightblue" stroke="midnightblue" points="1221.64,-40.3167 1229.41,-33.107 1218.84,-33.9017 1221.64,-40.3167"/>
</g>
<!-- Node49 -->
<g id="node13" class="node"><title>Node49</title>
<g id="a_node13"><a xlink:href="classopenage_1_1curve_1_1_queue.xhtml#a3a60297cec80ae6d759ea3567922db8e" target="_top" xlink:title=" ">
<polygon fill="white" stroke="black" points="1196,-108.5 1196,-127.5 1334,-127.5 1334,-108.5 1196,-108.5"/>
<text text-anchor="middle" x="1265" y="-115.5" font-family="Helvetica,sans-Serif" font-size="10.00">openage::curve::Queue::end</text>
</a>
</g>
</g>
<!-- Node45&#45;&gt;Node49 -->
<g id="edge14" class="edge"><title>Node45&#45;&gt;Node49</title>
<path fill="none" stroke="midnightblue" d="M1160.37,-97.6684C1174.88,-100.514 1190.62,-103.602 1205.34,-106.491"/>
<polygon fill="midnightblue" stroke="midnightblue" points="1204.86,-109.963 1215.35,-108.454 1206.21,-103.094 1204.86,-109.963"/>
</g>
<!-- Node50 -->
<g id="node14" class="node"><title>Node50</title>
<g id="a_node14"><a xlink:href="classopenage_1_1curve_1_1_queue.xhtml#ae7d94b0875221550e5af663a64ea2aec" target="_top" xlink:title=" ">
<polygon fill="white" stroke="black" points="1207,-59 1207,-89 1323,-89 1323,-59 1207,-59"/>
<text text-anchor="start" x="1215" y="-77" font-family="Helvetica,sans-Serif" font-size="10.00">openage::curve::Queue</text>
<text text-anchor="middle" x="1265" y="-66" font-family="Helvetica,sans-Serif" font-size="10.00">::insert</text>
</a>
</g>
</g>
<!-- Node45&#45;&gt;Node50 -->
<g id="edge17" class="edge"><title>Node45&#45;&gt;Node50</title>
<path fill="none" stroke="midnightblue" d="M1160.37,-82.5261C1172.09,-81.5622 1184.61,-80.5321 1196.75,-79.5332"/>
<polygon fill="midnightblue" stroke="midnightblue" points="1197.15,-83.012 1206.83,-78.7036 1196.58,-76.0355 1197.15,-83.012"/>
</g>
<!-- Node46&#45;&gt;Node42 -->
<g id="edge10" class="edge"><title>Node46&#45;&gt;Node42</title>
<path fill="none" stroke="midnightblue" d="M1206.97,-156.44C1151.71,-151.053 1068.02,-142.895 1010.39,-137.277"/>
<polygon fill="midnightblue" stroke="midnightblue" points="1010.6,-133.781 1000.3,-136.294 1009.92,-140.748 1010.6,-133.781"/>
</g>
<!-- Node47 -->
<g id="node11" class="node"><title>Node47</title>
<g id="a_node11"><a xlink:href="namespaceopenage_1_1console_1_1tests.xhtml#a46ebd3333dc9196558ac9aced828d117" target="_top" xlink:title=" ">
<polygon fill="white" stroke="black" points="1370,-108.5 1370,-127.5 1516,-127.5 1516,-108.5 1370,-108.5"/>
<text text-anchor="middle" x="1443" y="-115.5" font-family="Helvetica,sans-Serif" font-size="10.00">openage::console::tests::max</text>
</a>
</g>
</g>
<!-- Node46&#45;&gt;Node47 -->
<g id="edge11" class="edge"><title>Node46&#45;&gt;Node47</title>
<path fill="none" stroke="midnightblue" d="M1323.14,-147.714C1346.03,-141.991 1372.12,-135.471 1394,-129.999"/>
<polygon fill="midnightblue" stroke="midnightblue" points="1394.89,-133.386 1403.74,-127.565 1393.19,-126.595 1394.89,-133.386"/>
</g>
<!-- Node48&#45;&gt;Node42 -->
<g id="edge13" class="edge"><title>Node48&#45;&gt;Node42</title>
<path fill="none" stroke="midnightblue" d="M1206.53,-11.2972C1160.49,-8.89105 1096.19,-12.4776 1050,-43 1023.1,-60.7803 1038.62,-85.1758 1014,-106 1012.03,-107.67 1009.93,-109.233 1007.74,-110.696"/>
<polygon fill="midnightblue" stroke="midnightblue" points="1005.8,-107.778 998.939,-115.852 1009.34,-113.818 1005.8,-107.778"/>
</g>
<!-- Node49&#45;&gt;Node42 -->
<g id="edge15" class="edge"><title>Node49&#45;&gt;Node42</title>
<path fill="none" stroke="midnightblue" d="M1195.79,-120.789C1140.89,-123.033 1064.29,-126.164 1010.42,-128.366"/>
<polygon fill="midnightblue" stroke="midnightblue" points="1010.15,-124.874 1000.3,-128.78 1010.44,-131.869 1010.15,-124.874"/>
</g>
<!-- Node49&#45;&gt;Node47 -->
<g id="edge16" class="edge"><title>Node49&#45;&gt;Node47</title>
<path fill="none" stroke="midnightblue" d="M1334.05,-118C1342.46,-118 1351.13,-118 1359.72,-118"/>
<polygon fill="midnightblue" stroke="midnightblue" points="1359.76,-121.5 1369.76,-118 1359.76,-114.5 1359.76,-121.5"/>
</g>
<!-- Node50&#45;&gt;Node42 -->
<g id="edge18" class="edge"><title>Node50&#45;&gt;Node42</title>
<path fill="none" stroke="midnightblue" d="M1215.19,-58.9281C1170.11,-47.8402 1102.42,-38.5229 1050,-63 1027.42,-73.5461 1034.39,-91.6594 1014,-106 1011.33,-107.882 1008.49,-109.639 1005.56,-111.278"/>
<polygon fill="midnightblue" stroke="midnightblue" points="1003.88,-108.208 996.532,-115.844 1007.03,-114.454 1003.88,-108.208"/>
</g>
<!-- Node50&#45;&gt;Node47 -->
<g id="edge19" class="edge"><title>Node50&#45;&gt;Node47</title>
<path fill="none" stroke="midnightblue" d="M1323.14,-88.2855C1346.03,-94.0086 1372.12,-100.529 1394,-106.001"/>
<polygon fill="midnightblue" stroke="midnightblue" points="1393.19,-109.405 1403.74,-108.435 1394.89,-102.614 1393.19,-109.405"/>
</g>
<!-- Node52 -->
<g id="node16" class="node"><title>Node52</title>
<g id="a_node16"><a xlink:href="classopenage_1_1_engine.xhtml#a3e79c3919abbc3cab0716e4807f7c93e" target="_top" xlink:title="return currently running game or null if a game is not currently running">
<polygon fill="white" stroke="black" points="876,-77.5 876,-96.5 1014,-96.5 1014,-77.5 876,-77.5"/>
<text text-anchor="middle" x="945" y="-84.5" font-family="Helvetica,sans-Serif" font-size="10.00">openage::Engine::get_game</text>
</a>
</g>
</g>
<!-- Node51&#45;&gt;Node52 -->
<g id="edge21" class="edge"><title>Node51&#45;&gt;Node52</title>
<path fill="none" stroke="midnightblue" d="M840.216,-87C848.531,-87 857.209,-87 865.851,-87"/>
<polygon fill="midnightblue" stroke="midnightblue" points="865.955,-90.5001 875.955,-87 865.955,-83.5001 865.955,-90.5001"/>
</g>
</g>
</svg>
