<?xml version="1.0" encoding="UTF-8" standalone="no"?>
<!DOCTYPE svg PUBLIC "-//W3C//DTD SVG 1.1//EN"
 "http://www.w3.org/Graphics/SVG/1.1/DTD/svg11.dtd">
<!-- Generated by graphviz version 2.38.0 (20140413.2041)
 -->
<!-- Title: openage::Unit::is_own_unit Pages: 1 -->
<!--zoomable 132 -->
<svg id="main" version="1.1" xmlns="http://www.w3.org/2000/svg" xmlns:xlink="http://www.w3.org/1999/xlink" xml:space="preserve" onload="init(evt)">
<style type="text/css"><![CDATA[
.edge:hover path { stroke: red; }
.edge:hover polygon { stroke: red; fill: red; }
]]></style>
<script type="text/javascript"><![CDATA[
var edges = document.getElementsByTagName('g');
if (edges && edges.length) {
  for (var i=0;i<edges.length;i++) {
    if (edges[i].id.substr(0,4)=='edge') {
      edges[i].setAttribute('class','edge');
    }
  }
}
]]></script>
        <defs>
                <circle id="rim" cx="0" cy="0" r="7"/>
                <circle id="rim2" cx="0" cy="0" r="3.5"/>
                <g id="zoomPlus">
                        <use xlink:href="#rim" fill="#404040">
                                <set attributeName="fill" to="#808080" begin="zoomplus.mouseover" end="zoomplus.mouseout"/>
                        </use>
                        <path d="M-4,0h8M0,-4v8" fill="none" stroke="white" stroke-width="1.5" pointer-events="none"/>
                </g>
                <g id="zoomMin">
                        <use xlink:href="#rim" fill="#404040">
                                <set attributeName="fill" to="#808080" begin="zoomminus.mouseover" end="zoomminus.mouseout"/>
                        </use>
                        <path d="M-4,0h8" fill="none" stroke="white" stroke-width="1.5" pointer-events="none"/>
                </g>
                <g id="dirArrow">
                        <path fill="none" stroke="white" stroke-width="1.5" d="M0,-3.0v7 M-2.5,-0.5L0,-3.0L2.5,-0.5"/>
                </g>
               <g id="resetDef">
                       <use xlink:href="#rim2" fill="#404040">
                               <set attributeName="fill" to="#808080" begin="reset.mouseover" end="reset.mouseout"/>
                       </use>
               </g>
        </defs>

<script type="text/javascript">
var viewWidth = 1067;
var viewHeight = 132;
var sectionId = 'dynsection-27';
</script>
<script xlink:href="svgpan.js"/>
<svg id="graph" class="graph">
<g id="viewport">
<title>openage::Unit::is_own_unit</title>
<polygon fill="white" stroke="none" points="-4,4 -4,-128 1063,-128 1063,4 -4,4"/>
<!-- Node329 -->
<g id="node1" class="node"><title>Node329</title>
<g id="a_node1"><a xlink:title="checks whether the current player is the owner of this unit">
<polygon fill="#bfbfbf" stroke="black" points="925,-30 925,-49 1059,-49 1059,-30 925,-30"/>
<text text-anchor="middle" x="992" y="-37" font-family="Helvetica,sans-Serif" font-size="10.00">openage::Unit::is_own_unit</text>
</a>
</g>
</g>
<!-- Node330 -->
<g id="node2" class="node"><title>Node330</title>
<g id="a_node2"><a xlink:href="classopenage_1_1_unit_selection.xhtml#a9ec8fd5cfcfa451cce1123ff87894719" target="_top" xlink:title="Check whether the currently selected units may be selected at the same time If not,...">
<polygon fill="white" stroke="black" points="764,-47.5 764,-77.5 889,-77.5 889,-47.5 764,-47.5"/>
<text text-anchor="start" x="772" y="-65.5" font-family="Helvetica,sans-Serif" font-size="10.00">openage::UnitSelection</text>
<text text-anchor="middle" x="826.5" y="-54.5" font-family="Helvetica,sans-Serif" font-size="10.00">::get_unit_selection_type</text>
</a>
</g>
</g>
<!-- Node329&#45;&gt;Node330 -->
<g id="edge1" class="edge"><title>Node329&#45;&gt;Node330</title>
<path fill="none" stroke="midnightblue" d="M914.863,-50.2103C906.201,-51.4288 897.455,-52.6592 889.016,-53.8464"/>
<polygon fill="midnightblue" stroke="midnightblue" points="915.555,-53.6477 924.97,-48.7887 914.579,-46.7159 915.555,-53.6477"/>
</g>
<!-- Node337 -->
<g id="node9" class="node"><title>Node337</title>
<g id="a_node9"><a xlink:href="classopenage_1_1_unit_selection.xhtml#a2cc48ccbea18ec579f9ad27a89b1d96a" target="_top" xlink:title="kill a single unit in the selection">
<polygon fill="white" stroke="black" points="611,-0.5 611,-30.5 728,-30.5 728,-0.5 611,-0.5"/>
<text text-anchor="start" x="619" y="-18.5" font-family="Helvetica,sans-Serif" font-size="10.00">openage::UnitSelection</text>
<text text-anchor="middle" x="669.5" y="-7.5" font-family="Helvetica,sans-Serif" font-size="10.00">::kill_unit</text>
</a>
</g>
</g>
<!-- Node329&#45;&gt;Node337 -->
<g id="edge9" class="edge"><title>Node329&#45;&gt;Node337</title>
<path fill="none" stroke="midnightblue" d="M914.89,-33.8006C857.611,-29.5114 780.311,-23.723 728.107,-19.8138"/>
<polygon fill="midnightblue" stroke="midnightblue" points="914.747,-37.2997 924.981,-34.5563 915.27,-30.3192 914.747,-37.2997"/>
</g>
<!-- Node331 -->
<g id="node3" class="node"><title>Node331</title>
<g id="a_node3"><a xlink:href="classopenage_1_1_unit_selection.xhtml#ac7668d88460dbf57f79a75cbe55e34f3" target="_top" xlink:title=" ">
<polygon fill="white" stroke="black" points="611,-49.5 611,-79.5 728,-79.5 728,-49.5 611,-49.5"/>
<text text-anchor="start" x="619" y="-67.5" font-family="Helvetica,sans-Serif" font-size="10.00">openage::UnitSelection</text>
<text text-anchor="middle" x="669.5" y="-56.5" font-family="Helvetica,sans-Serif" font-size="10.00">::add_unit</text>
</a>
</g>
</g>
<!-- Node330&#45;&gt;Node331 -->
<g id="edge2" class="edge"><title>Node330&#45;&gt;Node331</title>
<path fill="none" stroke="midnightblue" d="M753.519,-63.4288C745.037,-63.5382 736.466,-63.6488 728.215,-63.7553"/>
<polygon fill="midnightblue" stroke="midnightblue" points="753.841,-66.925 763.795,-63.2962 753.75,-59.9256 753.841,-66.925"/>
</g>
<!-- Node332 -->
<g id="node4" class="node"><title>Node332</title>
<g id="a_node4"><a xlink:href="classopenage_1_1_unit_selection.xhtml#ae76387eeee60f994b678d79ca4a198e8" target="_top" xlink:title=" ">
<polygon fill="white" stroke="black" points="458,-91.5 458,-121.5 575,-121.5 575,-91.5 458,-91.5"/>
<text text-anchor="start" x="466" y="-109.5" font-family="Helvetica,sans-Serif" font-size="10.00">openage::UnitSelection</text>
<text text-anchor="middle" x="516.5" y="-98.5" font-family="Helvetica,sans-Serif" font-size="10.00">::toggle_unit</text>
</a>
</g>
</g>
<!-- Node331&#45;&gt;Node332 -->
<g id="edge3" class="edge"><title>Node331&#45;&gt;Node332</title>
<path fill="none" stroke="midnightblue" d="M604.446,-82.3163C593.463,-85.3711 582.15,-88.518 571.464,-91.4902"/>
<polygon fill="midnightblue" stroke="midnightblue" points="605.716,-85.5961 614.412,-79.5443 603.84,-78.8521 605.716,-85.5961"/>
</g>
<!-- Node336 -->
<g id="node8" class="node"><title>Node336</title>
<g id="a_node8"><a xlink:href="classopenage_1_1_unit_selection.xhtml#a1c3efeb8415c50094d66844e69402342" target="_top" xlink:title="boxed unit selection">
<polygon fill="white" stroke="black" points="305,-44.5 305,-74.5 422,-74.5 422,-44.5 305,-44.5"/>
<text text-anchor="start" x="313" y="-62.5" font-family="Helvetica,sans-Serif" font-size="10.00">openage::UnitSelection</text>
<text text-anchor="middle" x="363.5" y="-51.5" font-family="Helvetica,sans-Serif" font-size="10.00">::select_space</text>
</a>
</g>
</g>
<!-- Node331&#45;&gt;Node336 -->
<g id="edge7" class="edge"><title>Node331&#45;&gt;Node336</title>
<path fill="none" stroke="midnightblue" d="M600.85,-63.3873C547.16,-62.5043 472.926,-61.2833 422.06,-60.4467"/>
<polygon fill="midnightblue" stroke="midnightblue" points="600.906,-66.8886 610.963,-63.5537 601.021,-59.8896 600.906,-66.8886"/>
</g>
<!-- Node333 -->
<g id="node5" class="node"><title>Node333</title>
<g id="a_node5"><a xlink:href="classopenage_1_1_unit_selection.xhtml#ae351437c3a9fafc071961486f7eef075" target="_top" xlink:title="point unit selection">
<polygon fill="white" stroke="black" points="305,-93.5 305,-123.5 422,-123.5 422,-93.5 305,-93.5"/>
<text text-anchor="start" x="313" y="-111.5" font-family="Helvetica,sans-Serif" font-size="10.00">openage::UnitSelection</text>
<text text-anchor="middle" x="363.5" y="-100.5" font-family="Helvetica,sans-Serif" font-size="10.00">::select_point</text>
</a>
</g>
</g>
<!-- Node332&#45;&gt;Node333 -->
<g id="edge4" class="edge"><title>Node332&#45;&gt;Node333</title>
<path fill="none" stroke="midnightblue" d="M447.948,-107.395C439.322,-107.509 430.556,-107.625 422.107,-107.737"/>
<polygon fill="midnightblue" stroke="midnightblue" points="448.03,-110.894 457.983,-107.262 447.937,-103.895 448.03,-110.894"/>
</g>
<!-- Node334 -->
<g id="node6" class="node"><title>Node334</title>
<g id="a_node6"><a xlink:href="classopenage_1_1_unit_selection.xhtml#a6b4a0b9275c8ebf623d50a7509487623" target="_top" xlink:title=" ">
<polygon fill="white" stroke="black" points="152,-44.5 152,-74.5 269,-74.5 269,-44.5 152,-44.5"/>
<text text-anchor="start" x="160" y="-62.5" font-family="Helvetica,sans-Serif" font-size="10.00">openage::UnitSelection</text>
<text text-anchor="middle" x="210.5" y="-51.5" font-family="Helvetica,sans-Serif" font-size="10.00">::drag_release</text>
</a>
</g>
</g>
<!-- Node333&#45;&gt;Node334 -->
<g id="edge5" class="edge"><title>Node333&#45;&gt;Node334</title>
<path fill="none" stroke="midnightblue" d="M306.232,-90.2409C290.306,-85.0727 273.156,-79.5076 257.883,-74.5516"/>
<polygon fill="midnightblue" stroke="midnightblue" points="305.371,-93.641 315.963,-93.3986 307.532,-86.9828 305.371,-93.641"/>
</g>
<!-- Node335 -->
<g id="node7" class="node"><title>Node335</title>
<g id="a_node7"><a xlink:href="classopenage_1_1_action_mode.xhtml#a43f98279255b857ee8fa9943117271e8" target="_top" xlink:title="Called after GameControl has been set by QML from set_game_control.">
<polygon fill="white" stroke="black" points="0,-22.5 0,-52.5 116,-52.5 116,-22.5 0,-22.5"/>
<text text-anchor="start" x="8" y="-40.5" font-family="Helvetica,sans-Serif" font-size="10.00">openage::ActionMode</text>
<text text-anchor="middle" x="58" y="-29.5" font-family="Helvetica,sans-Serif" font-size="10.00">::on_game_control_set</text>
</a>
</g>
</g>
<!-- Node334&#45;&gt;Node335 -->
<g id="edge6" class="edge"><title>Node334&#45;&gt;Node335</title>
<path fill="none" stroke="midnightblue" d="M141.838,-49.6093C133.327,-48.3651 124.685,-47.1018 116.354,-45.8839"/>
<polygon fill="midnightblue" stroke="midnightblue" points="141.342,-53.0738 151.743,-51.0571 142.355,-46.1474 141.342,-53.0738"/>
</g>
<!-- Node336&#45;&gt;Node334 -->
<g id="edge8" class="edge"><title>Node336&#45;&gt;Node334</title>
<path fill="none" stroke="midnightblue" d="M294.948,-59.5C286.322,-59.5 277.556,-59.5 269.107,-59.5"/>
<polygon fill="midnightblue" stroke="midnightblue" points="294.983,-63.0001 304.983,-59.5 294.983,-56.0001 294.983,-63.0001"/>
</g>
<!-- Node337&#45;&gt;Node335 -->
<g id="edge10" class="edge"><title>Node337&#45;&gt;Node335</title>
<path fill="none" stroke="midnightblue" d="M600.646,-17.9492C479.677,-22.3156 228.898,-31.3675 116.123,-35.4381"/>
<polygon fill="midnightblue" stroke="midnightblue" points="601.018,-21.4381 610.885,-17.5796 600.765,-14.4427 601.018,-21.4381"/>
</g>
</g>
</svg>
        <g id="navigator" transform="translate(0 0)" fill="#404254">
                <rect fill="#f2f5e9" fill-opacity="0.5" stroke="#606060" stroke-width=".5" x="0" y="0" width="60" height="60"/>
                <use id="zoomplus" xlink:href="#zoomPlus" x="17" y="9" onmousedown="handleZoom(evt,'in')"/>
                <use id="zoomminus" xlink:href="#zoomMin" x="42" y="9" onmousedown="handleZoom(evt,'out')"/>
                <use id="reset" xlink:href="#resetDef" x="30" y="36" onmousedown="handleReset()"/>
                <g id="arrowUp" xlink:href="#dirArrow" transform="translate(30 24)" onmousedown="handlePan(0,-1)">
                  <use xlink:href="#rim" fill="#404040">
                        <set attributeName="fill" to="#808080" begin="arrowUp.mouseover" end="arrowUp.mouseout"/>
                  </use>
                  <path fill="none" stroke="white" stroke-width="1.5" d="M0,-3.0v7 M-2.5,-0.5L0,-3.0L2.5,-0.5"/>
                </g>
                <g id="arrowRight" xlink:href="#dirArrow" transform="rotate(90) translate(36 -43)" onmousedown="handlePan(1,0)">
                  <use xlink:href="#rim" fill="#404040">
                        <set attributeName="fill" to="#808080" begin="arrowRight.mouseover" end="arrowRight.mouseout"/>
                  </use>
                  <path fill="none" stroke="white" stroke-width="1.5" d="M0,-3.0v7 M-2.5,-0.5L0,-3.0L2.5,-0.5"/>
                </g>
                <g id="arrowDown" xlink:href="#dirArrow" transform="rotate(180) translate(-30 -48)" onmousedown="handlePan(0,1)">
                  <use xlink:href="#rim" fill="#404040">
                        <set attributeName="fill" to="#808080" begin="arrowDown.mouseover" end="arrowDown.mouseout"/>
                  </use>
                  <path fill="none" stroke="white" stroke-width="1.5" d="M0,-3.0v7 M-2.5,-0.5L0,-3.0L2.5,-0.5"/>
                </g>
                <g id="arrowLeft" xlink:href="#dirArrow" transform="rotate(270) translate(-36 17)" onmousedown="handlePan(-1,0)">
                  <use xlink:href="#rim" fill="#404040">
                        <set attributeName="fill" to="#808080" begin="arrowLeft.mouseover" end="arrowLeft.mouseout"/>
                  </use>
                  <path fill="none" stroke="white" stroke-width="1.5" d="M0,-3.0v7 M-2.5,-0.5L0,-3.0L2.5,-0.5"/>
                </g>
        </g>
        <svg viewBox="0 0 15 15" width="100%" height="30px" preserveAspectRatio="xMaxYMin meet">
         <g id="arrow_out" transform="scale(0.3 0.3)">
          <a xlink:href="classopenage_1_1_unit_aba4a16068cf5a6b218a4c78f499874b0_icgraph_org.svg" target="_base">
           <rect id="button" ry="5" rx="5" y="6" x="6" height="38" width="38"
                fill="#f2f5e9" fill-opacity="0.5" stroke="#606060" stroke-width="1.0"/>
           <path id="arrow"
             d="M 11.500037,31.436501 C 11.940474,20.09759 22.043105,11.32322 32.158766,21.979434 L 37.068811,17.246167 C 37.068811,17.246167 37.088388,32 37.088388,32 L 22.160133,31.978069 C 22.160133,31.978069 26.997745,27.140456 26.997745,27.140456 C 18.528582,18.264221 13.291696,25.230495 11.500037,31.436501 z"
             style="fill:#404040;"/>
          </a>
         </g>
        </svg>
</svg>
