<?xml version="1.0" encoding="UTF-8" standalone="no"?>
<!DOCTYPE svg PUBLIC "-//W3C//DTD SVG 1.1//EN"
 "http://www.w3.org/Graphics/SVG/1.1/DTD/svg11.dtd">
<!-- Generated by graphviz version 2.38.0 (20140413.2041)
 -->
<!-- Title: openage::audio::AudioManager::is_available Pages: 1 -->
<svg width="808pt" height="725pt"
 viewBox="0.00 0.00 808.00 725.00" xmlns="http://www.w3.org/2000/svg" xmlns:xlink="http://www.w3.org/1999/xlink">
<g id="graph0" class="graph" transform="scale(1 1) rotate(0) translate(4 721)">
<title>openage::audio::AudioManager::is_available</title>
<polygon fill="white" stroke="none" points="-4,4 -4,-721 804,-721 804,4 -4,4"/>
<!-- Node66 -->
<g id="node1" class="node"><title>Node66</title>
<g id="a_node1"><a xlink:title=" ">
<polygon fill="#bfbfbf" stroke="black" points="649,-365.5 649,-395.5 800,-395.5 800,-365.5 649,-365.5"/>
<text text-anchor="start" x="657" y="-383.5" font-family="Helvetica,sans-Serif" font-size="10.00">openage::audio::AudioManager</text>
<text text-anchor="middle" x="724.5" y="-372.5" font-family="Helvetica,sans-Serif" font-size="10.00">::is_available</text>
</a>
</g>
</g>
<!-- Node67 -->
<g id="node2" class="node"><title>Node67</title>
<g id="a_node2"><a xlink:href="classopenage_1_1audio_1_1_sound.xhtml#afc94edcbbee8f78f7c3b25c759f6ee62" target="_top" xlink:title=" ">
<polygon fill="white" stroke="black" points="497,-387.5 497,-417.5 613,-417.5 613,-387.5 497,-387.5"/>
<text text-anchor="start" x="505" y="-405.5" font-family="Helvetica,sans-Serif" font-size="10.00">openage::audio::Sound</text>
<text text-anchor="middle" x="555" y="-394.5" font-family="Helvetica,sans-Serif" font-size="10.00">::is_playing</text>
</a>
</g>
</g>
<!-- Node66&#45;&gt;Node67 -->
<g id="edge1" class="edge"><title>Node66&#45;&gt;Node67</title>
<path fill="none" stroke="midnightblue" d="M638.538,-391.659C629.982,-392.783 621.443,-393.905 613.278,-394.977"/>
<polygon fill="midnightblue" stroke="midnightblue" points="639.109,-395.114 648.568,-390.342 638.198,-388.174 639.109,-395.114"/>
</g>
<!-- Node68 -->
<g id="node3" class="node"><title>Node68</title>
<g id="a_node3"><a xlink:href="classopenage_1_1_sound.xhtml#a526acd600cd69f6f421a253fc169398b" target="_top" xlink:title=" ">
<polygon fill="white" stroke="black" points="499.5,-349 499.5,-368 610.5,-368 610.5,-349 499.5,-349"/>
<text text-anchor="middle" x="555" y="-356" font-family="Helvetica,sans-Serif" font-size="10.00">openage::Sound::play</text>
</a>
</g>
</g>
<!-- Node66&#45;&gt;Node68 -->
<g id="edge2" class="edge"><title>Node66&#45;&gt;Node68</title>
<path fill="none" stroke="midnightblue" d="M638.399,-369.323C629.014,-368.09 619.652,-366.86 610.784,-365.696"/>
<polygon fill="midnightblue" stroke="midnightblue" points="638.198,-372.826 648.568,-370.658 639.109,-365.886 638.198,-372.826"/>
</g>
<!-- Node69 -->
<g id="node4" class="node"><title>Node69</title>
<g id="a_node4"><a xlink:href="classopenage_1_1_unit_texture.xhtml#ae0fe182788f2f7b1f346abf32cbac39a" target="_top" xlink:title=" ">
<polygon fill="white" stroke="black" points="340,-686.5 340,-716.5 449,-716.5 449,-686.5 340,-686.5"/>
<text text-anchor="start" x="348" y="-704.5" font-family="Helvetica,sans-Serif" font-size="10.00">openage::UnitTexture</text>
<text text-anchor="middle" x="394.5" y="-693.5" font-family="Helvetica,sans-Serif" font-size="10.00">::draw</text>
</a>
</g>
</g>
<!-- Node68&#45;&gt;Node69 -->
<g id="edge3" class="edge"><title>Node68&#45;&gt;Node69</title>
<path fill="none" stroke="midnightblue" d="M501.308,-374.009C499.751,-375.381 498.305,-376.875 497,-378.5 413.193,-482.864 544.087,-572.562 461,-677.5 457.692,-681.678 453.586,-685.128 449.055,-687.979"/>
<polygon fill="midnightblue" stroke="midnightblue" points="503.63,-376.66 509.883,-368.108 499.661,-370.894 503.63,-376.66"/>
</g>
<!-- Node70 -->
<g id="node5" class="node"><title>Node70</title>
<g id="a_node5"><a xlink:href="classopenage_1_1_move_ability.xhtml#a1d0ebbdd7b98efa293ebc91287a6dee4" target="_top" xlink:title=" ">
<polygon fill="white" stroke="black" points="340,-637.5 340,-667.5 449,-667.5 449,-637.5 340,-637.5"/>
<text text-anchor="start" x="348" y="-655.5" font-family="Helvetica,sans-Serif" font-size="10.00">openage::MoveAbility</text>
<text text-anchor="middle" x="394.5" y="-644.5" font-family="Helvetica,sans-Serif" font-size="10.00">::invoke</text>
</a>
</g>
</g>
<!-- Node68&#45;&gt;Node70 -->
<g id="edge4" class="edge"><title>Node68&#45;&gt;Node70</title>
<path fill="none" stroke="midnightblue" d="M501.849,-373.628C500.091,-375.104 498.461,-376.723 497,-378.5 425.702,-465.208 531.7,-541.303 461,-628.5 457.72,-632.545 453.694,-635.908 449.265,-638.705"/>
<polygon fill="midnightblue" stroke="midnightblue" points="503.869,-376.488 510.257,-368.035 499.992,-370.659 503.869,-376.488"/>
</g>
<!-- Node71 -->
<g id="node6" class="node"><title>Node71</title>
<g id="a_node6"><a xlink:href="classopenage_1_1_garrison_ability.xhtml#afbd9de019824dcf92b3b5dd4e5e1aea7" target="_top" xlink:title=" ">
<polygon fill="white" stroke="black" points="333,-588.5 333,-618.5 456,-618.5 456,-588.5 333,-588.5"/>
<text text-anchor="start" x="341" y="-606.5" font-family="Helvetica,sans-Serif" font-size="10.00">openage::GarrisonAbility</text>
<text text-anchor="middle" x="394.5" y="-595.5" font-family="Helvetica,sans-Serif" font-size="10.00">::invoke</text>
</a>
</g>
</g>
<!-- Node68&#45;&gt;Node71 -->
<g id="edge5" class="edge"><title>Node68&#45;&gt;Node71</title>
<path fill="none" stroke="midnightblue" d="M502.023,-373.61C500.207,-375.091 498.519,-376.716 497,-378.5 438.168,-447.603 519.355,-509.993 461,-579.5 458.119,-582.932 454.702,-585.873 450.965,-588.394"/>
<polygon fill="midnightblue" stroke="midnightblue" points="504.187,-376.379 510.678,-368.005 500.382,-370.504 504.187,-376.379"/>
</g>
<!-- Node72 -->
<g id="node7" class="node"><title>Node72</title>
<g id="a_node7"><a xlink:href="classopenage_1_1_ungarrison_ability.xhtml#a6ed7fdb59dc12befd1e0be6fbdd2b387" target="_top" xlink:title=" ">
<polygon fill="white" stroke="black" points="328,-539.5 328,-569.5 461,-569.5 461,-539.5 328,-539.5"/>
<text text-anchor="start" x="336" y="-557.5" font-family="Helvetica,sans-Serif" font-size="10.00">openage::UngarrisonAbility</text>
<text text-anchor="middle" x="394.5" y="-546.5" font-family="Helvetica,sans-Serif" font-size="10.00">::invoke</text>
</a>
</g>
</g>
<!-- Node68&#45;&gt;Node72 -->
<g id="edge6" class="edge"><title>Node68&#45;&gt;Node72</title>
<path fill="none" stroke="midnightblue" d="M502.246,-373.638C500.359,-375.111 498.596,-376.727 497,-378.5 450.551,-430.097 507.093,-478.585 461,-530.5 457.944,-533.941 454.353,-536.89 450.452,-539.416"/>
<polygon fill="midnightblue" stroke="midnightblue" points="504.557,-376.322 511.184,-368.055 500.848,-370.384 504.557,-376.322"/>
</g>
<!-- Node73 -->
<g id="node8" class="node"><title>Node73</title>
<g id="a_node8"><a xlink:href="classopenage_1_1_train_ability.xhtml#af4ea7db282a8000eb59e8edc540d40c4" target="_top" xlink:title=" ">
<polygon fill="white" stroke="black" points="341,-490.5 341,-520.5 448,-520.5 448,-490.5 341,-490.5"/>
<text text-anchor="start" x="349" y="-508.5" font-family="Helvetica,sans-Serif" font-size="10.00">openage::TrainAbility</text>
<text text-anchor="middle" x="394.5" y="-497.5" font-family="Helvetica,sans-Serif" font-size="10.00">::invoke</text>
</a>
</g>
</g>
<!-- Node68&#45;&gt;Node73 -->
<g id="edge7" class="edge"><title>Node68&#45;&gt;Node73</title>
<path fill="none" stroke="midnightblue" d="M503.744,-372.952C501.322,-374.606 499.05,-376.448 497,-378.5 462.731,-412.811 495.032,-446.954 461,-481.5 457.26,-485.296 452.871,-488.496 448.166,-491.193"/>
<polygon fill="midnightblue" stroke="midnightblue" points="505.474,-375.995 512.455,-368.025 502.028,-369.902 505.474,-375.995"/>
</g>
<!-- Node74 -->
<g id="node9" class="node"><title>Node74</title>
<g id="a_node9"><a xlink:href="classopenage_1_1_research_ability.xhtml#a47bc3b71628ece52bceeafdae473d039" target="_top" xlink:title=" ">
<polygon fill="white" stroke="black" points="330.5,-441.5 330.5,-471.5 458.5,-471.5 458.5,-441.5 330.5,-441.5"/>
<text text-anchor="start" x="338.5" y="-459.5" font-family="Helvetica,sans-Serif" font-size="10.00">openage::ResearchAbility</text>
<text text-anchor="middle" x="394.5" y="-448.5" font-family="Helvetica,sans-Serif" font-size="10.00">::invoke</text>
</a>
</g>
</g>
<!-- Node68&#45;&gt;Node74 -->
<g id="edge8" class="edge"><title>Node68&#45;&gt;Node74</title>
<path fill="none" stroke="midnightblue" d="M506.556,-372.357C503.179,-374.172 499.949,-376.211 497,-378.5 474.215,-396.188 483.662,-414.656 461,-432.5 456.718,-435.872 451.918,-438.799 446.913,-441.335"/>
<polygon fill="midnightblue" stroke="midnightblue" points="508.168,-375.467 515.745,-368.062 505.204,-369.126 508.168,-375.467"/>
</g>
<!-- Node75 -->
<g id="node10" class="node"><title>Node75</title>
<g id="a_node10"><a xlink:href="classopenage_1_1_build_ability.xhtml#acf4dba9dcd9ed37efcbec8f14da3c3a2" target="_top" xlink:title=" ">
<polygon fill="white" stroke="black" points="340.5,-392.5 340.5,-422.5 448.5,-422.5 448.5,-392.5 340.5,-392.5"/>
<text text-anchor="start" x="348.5" y="-410.5" font-family="Helvetica,sans-Serif" font-size="10.00">openage::BuildAbility</text>
<text text-anchor="middle" x="394.5" y="-399.5" font-family="Helvetica,sans-Serif" font-size="10.00">::invoke</text>
</a>
</g>
</g>
<!-- Node68&#45;&gt;Node75 -->
<g id="edge9" class="edge"><title>Node68&#45;&gt;Node75</title>
<path fill="none" stroke="midnightblue" d="M513.428,-371.043C492.308,-377.572 466.332,-385.602 444.14,-392.463"/>
<polygon fill="midnightblue" stroke="midnightblue" points="514.543,-374.362 523.063,-368.064 512.476,-367.674 514.543,-374.362"/>
</g>
<!-- Node76 -->
<g id="node11" class="node"><title>Node76</title>
<g id="a_node11"><a xlink:href="classopenage_1_1_gather_ability.xhtml#a24e201b13152f9cc654d2b69ec95940e" target="_top" xlink:title=" ">
<polygon fill="white" stroke="black" points="336.5,-343.5 336.5,-373.5 452.5,-373.5 452.5,-343.5 336.5,-343.5"/>
<text text-anchor="start" x="344.5" y="-361.5" font-family="Helvetica,sans-Serif" font-size="10.00">openage::GatherAbility</text>
<text text-anchor="middle" x="394.5" y="-350.5" font-family="Helvetica,sans-Serif" font-size="10.00">::invoke</text>
</a>
</g>
</g>
<!-- Node68&#45;&gt;Node76 -->
<g id="edge10" class="edge"><title>Node68&#45;&gt;Node76</title>
<path fill="none" stroke="midnightblue" d="M489.357,-358.5C477.172,-358.5 464.51,-358.5 452.577,-358.5"/>
<polygon fill="midnightblue" stroke="midnightblue" points="489.453,-362 499.453,-358.5 489.453,-355 489.453,-362"/>
</g>
<!-- Node77 -->
<g id="node12" class="node"><title>Node77</title>
<g id="a_node12"><a xlink:href="classopenage_1_1_attack_ability.xhtml#ab607828e9d6469ea9405cfc5f1ab2735" target="_top" xlink:title=" ">
<polygon fill="white" stroke="black" points="337,-294.5 337,-324.5 452,-324.5 452,-294.5 337,-294.5"/>
<text text-anchor="start" x="345" y="-312.5" font-family="Helvetica,sans-Serif" font-size="10.00">openage::AttackAbility</text>
<text text-anchor="middle" x="394.5" y="-301.5" font-family="Helvetica,sans-Serif" font-size="10.00">::invoke</text>
</a>
</g>
</g>
<!-- Node68&#45;&gt;Node77 -->
<g id="edge11" class="edge"><title>Node68&#45;&gt;Node77</title>
<path fill="none" stroke="midnightblue" d="M513.428,-345.957C492.308,-339.428 466.332,-331.398 444.14,-324.537"/>
<polygon fill="midnightblue" stroke="midnightblue" points="512.476,-349.326 523.063,-348.936 514.543,-342.638 512.476,-349.326"/>
</g>
<!-- Node78 -->
<g id="node13" class="node"><title>Node78</title>
<g id="a_node13"><a xlink:href="classopenage_1_1_repair_ability.xhtml#aac321a378657813f98a938df9be7256d" target="_top" xlink:title=" ">
<polygon fill="white" stroke="black" points="337.5,-245.5 337.5,-275.5 451.5,-275.5 451.5,-245.5 337.5,-245.5"/>
<text text-anchor="start" x="345.5" y="-263.5" font-family="Helvetica,sans-Serif" font-size="10.00">openage::RepairAbility</text>
<text text-anchor="middle" x="394.5" y="-252.5" font-family="Helvetica,sans-Serif" font-size="10.00">::invoke</text>
</a>
</g>
</g>
<!-- Node68&#45;&gt;Node78 -->
<g id="edge12" class="edge"><title>Node68&#45;&gt;Node78</title>
<path fill="none" stroke="midnightblue" d="M536.485,-342.095C518.604,-326.015 489.503,-301.633 461,-285.5 454.539,-281.843 447.437,-278.509 440.368,-275.552"/>
<polygon fill="midnightblue" stroke="midnightblue" points="534.124,-344.679 543.868,-348.84 538.846,-339.511 534.124,-344.679"/>
</g>
<!-- Node79 -->
<g id="node14" class="node"><title>Node79</title>
<g id="a_node14"><a xlink:href="classopenage_1_1_heal_ability.xhtml#a7da7aca0fca2b96e24874441df1a016e" target="_top" xlink:title=" ">
<polygon fill="white" stroke="black" points="341.5,-196.5 341.5,-226.5 447.5,-226.5 447.5,-196.5 341.5,-196.5"/>
<text text-anchor="start" x="349.5" y="-214.5" font-family="Helvetica,sans-Serif" font-size="10.00">openage::HealAbility</text>
<text text-anchor="middle" x="394.5" y="-203.5" font-family="Helvetica,sans-Serif" font-size="10.00">::invoke</text>
</a>
</g>
</g>
<!-- Node68&#45;&gt;Node79 -->
<g id="edge13" class="edge"><title>Node68&#45;&gt;Node79</title>
<path fill="none" stroke="midnightblue" d="M544.212,-339.828C529.475,-313.383 499.205,-265.067 461,-236.5 455.931,-232.71 450.219,-229.428 444.334,-226.604"/>
<polygon fill="midnightblue" stroke="midnightblue" points="541.237,-341.685 549.083,-348.805 547.39,-338.347 541.237,-341.685"/>
</g>
<!-- Node80 -->
<g id="node15" class="node"><title>Node80</title>
<g id="a_node15"><a xlink:href="classopenage_1_1_patrol_ability.xhtml#ad0b338306b2825e24536dc95bf4ae3d1" target="_top" xlink:title=" ">
<polygon fill="white" stroke="black" points="338.5,-147.5 338.5,-177.5 450.5,-177.5 450.5,-147.5 338.5,-147.5"/>
<text text-anchor="start" x="346.5" y="-165.5" font-family="Helvetica,sans-Serif" font-size="10.00">openage::PatrolAbility</text>
<text text-anchor="middle" x="394.5" y="-154.5" font-family="Helvetica,sans-Serif" font-size="10.00">::invoke</text>
</a>
</g>
</g>
<!-- Node68&#45;&gt;Node80 -->
<g id="edge14" class="edge"><title>Node68&#45;&gt;Node80</title>
<path fill="none" stroke="midnightblue" d="M548.349,-338.911C537.264,-303.797 509.43,-229.861 461,-187.5 456.602,-183.654 451.551,-180.371 446.246,-177.575"/>
<polygon fill="midnightblue" stroke="midnightblue" points="545.114,-340.304 551.365,-348.858 551.813,-338.273 545.114,-340.304"/>
</g>
<!-- Node81 -->
<g id="node16" class="node"><title>Node81</title>
<g id="a_node16"><a xlink:href="classopenage_1_1_convert_ability.xhtml#a3ed81fd0cceaa364654c89803c3b0e48" target="_top" xlink:title=" ">
<polygon fill="white" stroke="black" points="335,-98.5 335,-128.5 454,-128.5 454,-98.5 335,-98.5"/>
<text text-anchor="start" x="343" y="-116.5" font-family="Helvetica,sans-Serif" font-size="10.00">openage::ConvertAbility</text>
<text text-anchor="middle" x="394.5" y="-105.5" font-family="Helvetica,sans-Serif" font-size="10.00">::invoke</text>
</a>
</g>
</g>
<!-- Node68&#45;&gt;Node81 -->
<g id="edge15" class="edge"><title>Node68&#45;&gt;Node81</title>
<path fill="none" stroke="midnightblue" d="M550.971,-338.701C543.467,-296.229 520.157,-195.603 461,-138.5 456.972,-134.611 452.276,-131.313 447.283,-128.519"/>
<polygon fill="midnightblue" stroke="midnightblue" points="547.527,-339.33 552.618,-348.621 554.433,-338.183 547.527,-339.33"/>
</g>
<!-- Node82 -->
<g id="node17" class="node"><title>Node82</title>
<g id="a_node17"><a xlink:href="classopenage_1_1_object_producer.xhtml#a6063c50f0e551a3a5a1a4c08f555bf0e" target="_top" xlink:title=" ">
<polygon fill="white" stroke="black" points="331,-49.5 331,-79.5 458,-79.5 458,-49.5 331,-49.5"/>
<text text-anchor="start" x="339" y="-67.5" font-family="Helvetica,sans-Serif" font-size="10.00">openage::ObjectProducer</text>
<text text-anchor="middle" x="394.5" y="-56.5" font-family="Helvetica,sans-Serif" font-size="10.00">::place</text>
</a>
</g>
</g>
<!-- Node68&#45;&gt;Node82 -->
<g id="edge16" class="edge"><title>Node68&#45;&gt;Node82</title>
<path fill="none" stroke="midnightblue" d="M552.737,-338.771C548.573,-289.9 531.185,-161.95 461,-89.5 457.274,-85.6534 452.893,-82.3906 448.194,-79.6244"/>
<polygon fill="midnightblue" stroke="midnightblue" points="549.261,-339.223 553.504,-348.931 556.242,-338.696 549.261,-339.223"/>
</g>
<!-- Node85 -->
<g id="node20" class="node"><title>Node85</title>
<g id="a_node20"><a xlink:href="classopenage_1_1_building_producer.xhtml#a4ed90b69cb9398ae0cc40625a1fa36d3" target="_top" xlink:title=" ">
<polygon fill="white" stroke="black" points="328,-0.5 328,-30.5 461,-30.5 461,-0.5 328,-0.5"/>
<text text-anchor="start" x="336" y="-18.5" font-family="Helvetica,sans-Serif" font-size="10.00">openage::BuildingProducer</text>
<text text-anchor="middle" x="394.5" y="-7.5" font-family="Helvetica,sans-Serif" font-size="10.00">::place</text>
</a>
</g>
</g>
<!-- Node68&#45;&gt;Node85 -->
<g id="edge19" class="edge"><title>Node68&#45;&gt;Node85</title>
<path fill="none" stroke="midnightblue" d="M553.986,-338.946C552.891,-284.381 542.402,-128.698 461,-40.5 457.45,-36.6539 453.245,-33.3946 448.705,-30.6333"/>
<polygon fill="midnightblue" stroke="midnightblue" points="550.487,-339.034 554.1,-348.993 557.487,-338.955 550.487,-339.034"/>
</g>
<!-- Node83 -->
<g id="node18" class="node"><title>Node83</title>
<g id="a_node18"><a xlink:href="classopenage_1_1_movable_producer.xhtml#ace952d53d7717d9db843391f49fbf76b" target="_top" xlink:title=" ">
<polygon fill="white" stroke="black" points="158,-49.5 158,-79.5 292,-79.5 292,-49.5 158,-49.5"/>
<text text-anchor="start" x="166" y="-67.5" font-family="Helvetica,sans-Serif" font-size="10.00">openage::MovableProducer</text>
<text text-anchor="middle" x="225" y="-56.5" font-family="Helvetica,sans-Serif" font-size="10.00">::place</text>
</a>
</g>
</g>
<!-- Node82&#45;&gt;Node83 -->
<g id="edge17" class="edge"><title>Node82&#45;&gt;Node83</title>
<path fill="none" stroke="midnightblue" d="M320.548,-64.5C311.148,-64.5 301.563,-64.5 292.278,-64.5"/>
<polygon fill="midnightblue" stroke="midnightblue" points="320.653,-68.0001 330.653,-64.5 320.653,-61.0001 320.653,-68.0001"/>
</g>
<!-- Node84 -->
<g id="node19" class="node"><title>Node84</title>
<g id="a_node19"><a xlink:href="classopenage_1_1_living_producer.xhtml#af454fa0fd996b30d44590a2e00a4380b" target="_top" xlink:title=" ">
<polygon fill="white" stroke="black" points="0,-49.5 0,-79.5 122,-79.5 122,-49.5 0,-49.5"/>
<text text-anchor="start" x="8" y="-67.5" font-family="Helvetica,sans-Serif" font-size="10.00">openage::LivingProducer</text>
<text text-anchor="middle" x="61" y="-56.5" font-family="Helvetica,sans-Serif" font-size="10.00">::place</text>
</a>
</g>
</g>
<!-- Node83&#45;&gt;Node84 -->
<g id="edge18" class="edge"><title>Node83&#45;&gt;Node84</title>
<path fill="none" stroke="midnightblue" d="M147.609,-64.5C139.017,-64.5 130.355,-64.5 122.013,-64.5"/>
<polygon fill="midnightblue" stroke="midnightblue" points="147.641,-68.0001 157.641,-64.5 147.641,-61.0001 147.641,-68.0001"/>
</g>
</g>
</svg>
