<?xml version="1.0" encoding="UTF-8" standalone="no"?>
<!DOCTYPE svg PUBLIC "-//W3C//DTD SVG 1.1//EN"
 "http://www.w3.org/Graphics/SVG/1.1/DTD/svg11.dtd">
<!-- Generated by graphviz version 2.38.0 (20140413.2041)
 -->
<!-- Title: openage.util.struct.NamedStruct.__str__ Pages: 1 -->
<svg width="618pt" height="78pt"
 viewBox="0.00 0.00 618.00 77.50" xmlns="http://www.w3.org/2000/svg" xmlns:xlink="http://www.w3.org/1999/xlink">
<g id="graph0" class="graph" transform="scale(1 1) rotate(0) translate(4 73.5)">
<title>openage.util.struct.NamedStruct.__str__</title>
<polygon fill="white" stroke="none" points="-4,4 -4,-73.5 614,-73.5 614,4 -4,4"/>
<!-- Node15 -->
<g id="node1" class="node"><title>Node15</title>
<g id="a_node1"><a xlink:title=" ">
<polygon fill="#bfbfbf" stroke="black" points="0,-17 0,-47 131,-47 131,-17 0,-17"/>
<text text-anchor="start" x="8" y="-35" font-family="Helvetica,sans-Serif" font-size="10.00">openage.util.struct.Named</text>
<text text-anchor="middle" x="65.5" y="-24" font-family="Helvetica,sans-Serif" font-size="10.00">Struct.__str__</text>
</a>
</g>
</g>
<!-- Node16 -->
<g id="node2" class="node"><title>Node16</title>
<g id="a_node2"><a xlink:href="classopenage_1_1util_1_1struct_1_1_named_struct.xhtml#abe42962b06b44bf3b9f3ebbbdde85f5c" target="_top" xlink:title="Returns a key&#45;value dict for all attributes.">
<polygon fill="white" stroke="black" points="167,-39 167,-69 298,-69 298,-39 167,-39"/>
<text text-anchor="start" x="175" y="-57" font-family="Helvetica,sans-Serif" font-size="10.00">openage.util.struct.Named</text>
<text text-anchor="middle" x="232.5" y="-46" font-family="Helvetica,sans-Serif" font-size="10.00">Struct.as_dict</text>
</a>
</g>
</g>
<!-- Node15&#45;&gt;Node16 -->
<g id="edge1" class="edge"><title>Node15&#45;&gt;Node16</title>
<path fill="none" stroke="midnightblue" d="M131.239,-40.6318C139.675,-41.7566 148.371,-42.9161 156.951,-44.0601"/>
<polygon fill="midnightblue" stroke="midnightblue" points="156.573,-47.5406 166.948,-45.3931 157.498,-40.602 156.573,-47.5406"/>
</g>
<!-- Node17 -->
<g id="node3" class="node"><title>Node17</title>
<g id="a_node3"><a xlink:href="namespaceopenage_1_1py.xhtml#a4d2bbe46a5d10404c658b54f3b199551" target="_top" xlink:title=" ">
<polygon fill="white" stroke="black" points="189,-0.5 189,-19.5 276,-19.5 276,-0.5 189,-0.5"/>
<text text-anchor="middle" x="232.5" y="-7.5" font-family="Helvetica,sans-Serif" font-size="10.00">openage::py::str</text>
</a>
</g>
</g>
<!-- Node15&#45;&gt;Node17 -->
<g id="edge2" class="edge"><title>Node15&#45;&gt;Node17</title>
<path fill="none" stroke="midnightblue" d="M131.239,-23.3682C146.937,-21.2751 163.536,-19.0619 178.613,-17.0516"/>
<polygon fill="midnightblue" stroke="midnightblue" points="179.329,-20.4872 188.779,-15.6962 178.404,-13.5486 179.329,-20.4872"/>
</g>
<!-- Node18 -->
<g id="node4" class="node"><title>Node18</title>
<g id="a_node4"><a xlink:href="namespaceopenage_1_1testing_1_1testing.xhtml#ac25bf81db406af62d08113ef7ae9fd6e" target="_top" xlink:title=" ">
<polygon fill="white" stroke="black" points="334,-0.5 334,-19.5 479,-19.5 479,-0.5 334,-0.5"/>
<text text-anchor="middle" x="406.5" y="-7.5" font-family="Helvetica,sans-Serif" font-size="10.00">openage.testing.testing.result</text>
</a>
</g>
</g>
<!-- Node17&#45;&gt;Node18 -->
<g id="edge3" class="edge"><title>Node17&#45;&gt;Node18</title>
<path fill="none" stroke="midnightblue" d="M276.017,-10C290.434,-10 307.063,-10 323.497,-10"/>
<polygon fill="midnightblue" stroke="midnightblue" points="323.683,-13.5001 333.683,-10 323.683,-6.5001 323.683,-13.5001"/>
</g>
<!-- Node19 -->
<g id="node5" class="node"><title>Node19</title>
<g id="a_node5"><a xlink:href="namespaceopenage_1_1util.xhtml#a7bc4421a5f0f57f3a0aba3f96eb8d19c" target="_top" xlink:title=" ">
<polygon fill="white" stroke="black" points="515,-0.5 515,-19.5 610,-19.5 610,-0.5 515,-0.5"/>
<text text-anchor="middle" x="562.5" y="-7.5" font-family="Helvetica,sans-Serif" font-size="10.00">openage::util::repr</text>
</a>
</g>
</g>
<!-- Node18&#45;&gt;Node19 -->
<g id="edge4" class="edge"><title>Node18&#45;&gt;Node19</title>
<path fill="none" stroke="midnightblue" d="M479.09,-3.26483C487.595,-3.21813 496.189,-3.28172 504.453,-3.4556"/>
<polygon fill="midnightblue" stroke="midnightblue" points="504.622,-6.9614 514.713,-3.73483 504.812,0.0360109 504.622,-6.9614"/>
</g>
<!-- Node19&#45;&gt;Node18 -->
<g id="edge5" class="edge"><title>Node19&#45;&gt;Node18</title>
<path fill="none" stroke="midnightblue" d="M514.713,-16.2652C506.626,-16.5381 498.01,-16.6958 489.312,-16.7383"/>
<polygon fill="midnightblue" stroke="midnightblue" points="489.091,-13.2383 479.09,-16.7352 489.089,-20.2383 489.091,-13.2383"/>
</g>
</g>
</svg>
