<?xml version="1.0" encoding="UTF-8" standalone="no"?>
<!DOCTYPE svg PUBLIC "-//W3C//DTD SVG 1.1//EN"
 "http://www.w3.org/Graphics/SVG/1.1/DTD/svg11.dtd">
<!-- Generated by graphviz version 2.38.0 (20140413.2041)
 -->
<!-- Title: openage::audio::Error Pages: 1 -->
<svg width="143pt" height="353pt"
 viewBox="0.00 0.00 143.00 353.00" xmlns="http://www.w3.org/2000/svg" xmlns:xlink="http://www.w3.org/1999/xlink">
<g id="graph0" class="graph" transform="scale(1 1) rotate(0) translate(4 349)">
<title>openage::audio::Error</title>
<polygon fill="white" stroke="none" points="-4,4 -4,-349 139,-349 139,4 -4,4"/>
<!-- Node0 -->
<g id="node1" class="node"><title>Node0</title>
<g id="a_node1"><a xlink:title=" ">
<polygon fill="#bfbfbf" stroke="black" points="12.5,-0.5 12.5,-57.5 122.5,-57.5 122.5,-0.5 12.5,-0.5"/>
<text text-anchor="middle" x="67.5" y="-45.5" font-family="Helvetica,sans-Serif" font-size="10.00">openage::audio::Error</text>
<polyline fill="none" stroke="black" points="12.5,-38.5 122.5,-38.5 "/>
<text text-anchor="middle" x="67.5" y="-26.5" font-family="Helvetica,sans-Serif" font-size="10.00"> </text>
<polyline fill="none" stroke="black" points="12.5,-19.5 122.5,-19.5 "/>
<text text-anchor="start" x="20.5" y="-7.5" font-family="Helvetica,sans-Serif" font-size="10.00">+ Error()</text>
</a>
</g>
</g>
<!-- Node1 -->
<g id="node2" class="node"><title>Node1</title>
<g id="a_node2"><a xlink:href="classopenage_1_1error_1_1_error.xhtml" target="_top" xlink:title="Openage base exception type; the constructor usage is analogous to log::log().">
<polygon fill="white" stroke="black" points="0,-94.5 0,-250.5 135,-250.5 135,-94.5 0,-94.5"/>
<text text-anchor="middle" x="67.5" y="-238.5" font-family="Helvetica,sans-Serif" font-size="10.00">openage::error::Error</text>
<polyline fill="none" stroke="black" points="0,-231.5 135,-231.5 "/>
<text text-anchor="start" x="8" y="-219.5" font-family="Helvetica,sans-Serif" font-size="10.00">+ msg</text>
<text text-anchor="start" x="8" y="-208.5" font-family="Helvetica,sans-Serif" font-size="10.00">+ backtrace</text>
<text text-anchor="start" x="8" y="-197.5" font-family="Helvetica,sans-Serif" font-size="10.00">&#45; cause</text>
<polyline fill="none" stroke="black" points="0,-190.5 135,-190.5 "/>
<text text-anchor="start" x="8" y="-178.5" font-family="Helvetica,sans-Serif" font-size="10.00">+ Error()</text>
<text text-anchor="start" x="8" y="-167.5" font-family="Helvetica,sans-Serif" font-size="10.00">+ store_cause()</text>
<text text-anchor="start" x="8" y="-156.5" font-family="Helvetica,sans-Serif" font-size="10.00">+ trim_backtrace()</text>
<text text-anchor="start" x="8" y="-145.5" font-family="Helvetica,sans-Serif" font-size="10.00">+ rethrow_cause()</text>
<text text-anchor="start" x="8" y="-134.5" font-family="Helvetica,sans-Serif" font-size="10.00">+ type_name()</text>
<text text-anchor="start" x="8" y="-123.5" font-family="Helvetica,sans-Serif" font-size="10.00">+ what()</text>
<text text-anchor="start" x="8" y="-112.5" font-family="Helvetica,sans-Serif" font-size="10.00">+ debug_break_on_create()</text>
<text text-anchor="start" x="8" y="-101.5" font-family="Helvetica,sans-Serif" font-size="10.00">&#45; Error()</text>
</a>
</g>
</g>
<!-- Node1&#45;&gt;Node0 -->
<g id="edge1" class="edge"><title>Node1&#45;&gt;Node0</title>
<path fill="none" stroke="midnightblue" d="M67.5,-83.8376C67.5,-74.4771 67.5,-65.5362 67.5,-57.7238"/>
<polygon fill="none" stroke="midnightblue" points="64.0001,-84.1258 67.5,-94.1258 71.0001,-84.1259 64.0001,-84.1258"/>
</g>
<!-- Node2 -->
<g id="node3" class="node"><title>Node2</title>
<g id="a_node3"><a xlink:title=" ">
<polygon fill="white" stroke="#bfbfbf" points="30.5,-287.5 30.5,-344.5 104.5,-344.5 104.5,-287.5 30.5,-287.5"/>
<text text-anchor="middle" x="67.5" y="-332.5" font-family="Helvetica,sans-Serif" font-size="10.00">runtime_error</text>
<polyline fill="none" stroke="#bfbfbf" points="30.5,-325.5 104.5,-325.5 "/>
<text text-anchor="middle" x="67.5" y="-313.5" font-family="Helvetica,sans-Serif" font-size="10.00"> </text>
<polyline fill="none" stroke="#bfbfbf" points="30.5,-306.5 104.5,-306.5 "/>
<text text-anchor="middle" x="67.5" y="-294.5" font-family="Helvetica,sans-Serif" font-size="10.00"> </text>
</a>
</g>
</g>
<!-- Node2&#45;&gt;Node1 -->
<g id="edge2" class="edge"><title>Node2&#45;&gt;Node1</title>
<path fill="none" stroke="midnightblue" d="M67.5,-277.34C67.5,-269.044 67.5,-259.964 67.5,-250.736"/>
<polygon fill="none" stroke="midnightblue" points="64.0001,-277.381 67.5,-287.381 71.0001,-277.382 64.0001,-277.381"/>
</g>
</g>
</svg>
