<?xml version="1.0" encoding="UTF-8" standalone="no"?>
<!DOCTYPE svg PUBLIC "-//W3C//DTD SVG 1.1//EN"
 "http://www.w3.org/Graphics/SVG/1.1/DTD/svg11.dtd">
<!-- Generated by graphviz version 2.38.0 (20140413.2041)
 -->
<!-- Title: openage::gui::GameControlLink::set_game Pages: 1 -->
<!--zoomable 105 -->
<svg id="main" version="1.1" xmlns="http://www.w3.org/2000/svg" xmlns:xlink="http://www.w3.org/1999/xlink" xml:space="preserve" onload="init(evt)">
<style type="text/css"><![CDATA[
.edge:hover path { stroke: red; }
.edge:hover polygon { stroke: red; fill: red; }
]]></style>
<script type="text/javascript"><![CDATA[
var edges = document.getElementsByTagName('g');
if (edges && edges.length) {
  for (var i=0;i<edges.length;i++) {
    if (edges[i].id.substr(0,4)=='edge') {
      edges[i].setAttribute('class','edge');
    }
  }
}
]]></script>
        <defs>
                <circle id="rim" cx="0" cy="0" r="7"/>
                <circle id="rim2" cx="0" cy="0" r="3.5"/>
                <g id="zoomPlus">
                        <use xlink:href="#rim" fill="#404040">
                                <set attributeName="fill" to="#808080" begin="zoomplus.mouseover" end="zoomplus.mouseout"/>
                        </use>
                        <path d="M-4,0h8M0,-4v8" fill="none" stroke="white" stroke-width="1.5" pointer-events="none"/>
                </g>
                <g id="zoomMin">
                        <use xlink:href="#rim" fill="#404040">
                                <set attributeName="fill" to="#808080" begin="zoomminus.mouseover" end="zoomminus.mouseout"/>
                        </use>
                        <path d="M-4,0h8" fill="none" stroke="white" stroke-width="1.5" pointer-events="none"/>
                </g>
                <g id="dirArrow">
                        <path fill="none" stroke="white" stroke-width="1.5" d="M0,-3.0v7 M-2.5,-0.5L0,-3.0L2.5,-0.5"/>
                </g>
               <g id="resetDef">
                       <use xlink:href="#rim2" fill="#404040">
                               <set attributeName="fill" to="#808080" begin="reset.mouseover" end="reset.mouseout"/>
                       </use>
               </g>
        </defs>

<script type="text/javascript">
var viewWidth = 1008;
var viewHeight = 105;
var sectionId = 'dynsection-15';
</script>
<script xlink:href="svgpan.js"/>
<svg id="graph" class="graph">
<g id="viewport">
<title>openage::gui::GameControlLink::set_game</title>
<polygon fill="white" stroke="none" points="-4,4 -4,-100.5 1004,-100.5 1004,4 -4,4"/>
<!-- Node134 -->
<g id="node1" class="node"><title>Node134</title>
<g id="a_node1"><a xlink:title=" ">
<polygon fill="#bfbfbf" stroke="black" points="0,-41 0,-71 135,-71 135,-41 0,-41"/>
<text text-anchor="start" x="8" y="-59" font-family="Helvetica,sans-Serif" font-size="10.00">openage::gui::GameControl</text>
<text text-anchor="middle" x="67.5" y="-48" font-family="Helvetica,sans-Serif" font-size="10.00">Link::set_game</text>
</a>
</g>
</g>
<!-- Node135 -->
<g id="node2" class="node"><title>Node135</title>
<g id="a_node2"><a xlink:href="classqtsdl_1_1_gui_item_methods.xhtml#ae1736d128156183ad9e760b8a49b3361" target="_top" xlink:title="Set property.">
<polygon fill="white" stroke="black" points="171,-66 171,-96 292,-96 292,-66 171,-66"/>
<text text-anchor="start" x="179" y="-84" font-family="Helvetica,sans-Serif" font-size="10.00">qtsdl::GuiItemMethods</text>
<text text-anchor="middle" x="231.5" y="-73" font-family="Helvetica,sans-Serif" font-size="10.00">&lt; GameControlLink &gt;::s</text>
</a>
</g>
</g>
<!-- Node134&#45;&gt;Node135 -->
<g id="edge1" class="edge"><title>Node134&#45;&gt;Node135</title>
<path fill="none" stroke="midnightblue" d="M135.327,-66.3128C143.692,-67.6037 152.265,-68.9267 160.675,-70.2245"/>
<polygon fill="midnightblue" stroke="midnightblue" points="160.409,-73.7249 170.826,-71.7911 161.477,-66.8068 160.409,-73.7249"/>
</g>
<!-- Node136 -->
<g id="node3" class="node"><title>Node136</title>
<g id="a_node3"><a xlink:href="classopenage_1_1_game_control.xhtml#ae6ce3ec10ca18afc9cb7235c88ac7113" target="_top" xlink:title=" ">
<polygon fill="white" stroke="black" points="173.5,-17 173.5,-47 289.5,-47 289.5,-17 173.5,-17"/>
<text text-anchor="start" x="181.5" y="-35" font-family="Helvetica,sans-Serif" font-size="10.00">openage::GameControl</text>
<text text-anchor="middle" x="231.5" y="-24" font-family="Helvetica,sans-Serif" font-size="10.00">::set_game</text>
</a>
</g>
</g>
<!-- Node134&#45;&gt;Node136 -->
<g id="edge2" class="edge"><title>Node134&#45;&gt;Node136</title>
<path fill="none" stroke="midnightblue" d="M135.327,-46.0997C144.608,-44.7248 154.145,-43.3119 163.43,-41.9362"/>
<polygon fill="midnightblue" stroke="midnightblue" points="164.004,-45.3895 173.383,-40.4618 162.978,-38.4651 164.004,-45.3895"/>
</g>
<!-- Node137 -->
<g id="node4" class="node"><title>Node137</title>
<g id="a_node4"><a xlink:href="classopenage_1_1_game_control_signals.xhtml#acd3484cc1f7feb2163be431acfc88c96" target="_top" xlink:title=" ">
<polygon fill="white" stroke="black" points="328,-17 328,-47 477,-47 477,-17 328,-17"/>
<text text-anchor="start" x="336" y="-35" font-family="Helvetica,sans-Serif" font-size="10.00">openage::GameControlSignals</text>
<text text-anchor="middle" x="402.5" y="-24" font-family="Helvetica,sans-Serif" font-size="10.00">::on_game_running</text>
</a>
</g>
</g>
<!-- Node136&#45;&gt;Node137 -->
<g id="edge3" class="edge"><title>Node136&#45;&gt;Node137</title>
<path fill="none" stroke="midnightblue" d="M289.716,-32C298.717,-32 308.181,-32 317.634,-32"/>
<polygon fill="midnightblue" stroke="midnightblue" points="317.866,-35.5001 327.866,-32 317.866,-28.5001 317.866,-35.5001"/>
</g>
<!-- Node138 -->
<g id="node5" class="node"><title>Node138</title>
<g id="a_node5"><a xlink:href="classopenage_1_1_game_control.xhtml#a3d4b9fbef261d19138ba87083e4083a5" target="_top" xlink:title=" ">
<polygon fill="white" stroke="black" points="513,-17 513,-47 674,-47 674,-17 513,-17"/>
<text text-anchor="start" x="521" y="-35" font-family="Helvetica,sans-Serif" font-size="10.00">openage::GameControl</text>
<text text-anchor="middle" x="593.5" y="-24" font-family="Helvetica,sans-Serif" font-size="10.00">::announce_current_player_name</text>
</a>
</g>
</g>
<!-- Node137&#45;&gt;Node138 -->
<g id="edge4" class="edge"><title>Node137&#45;&gt;Node138</title>
<path fill="none" stroke="midnightblue" d="M477.114,-32C485.532,-32 494.183,-32 502.781,-32"/>
<polygon fill="midnightblue" stroke="midnightblue" points="502.833,-35.5001 512.833,-32 502.833,-28.5001 502.833,-35.5001"/>
</g>
<!-- Node139 -->
<g id="node6" class="node"><title>Node139</title>
<g id="a_node6"><a xlink:href="classopenage_1_1_game_control.xhtml#aa7c61c3caafc810355005e83c8f234e2" target="_top" xlink:title=" ">
<polygon fill="white" stroke="black" points="710,-39 710,-69 826,-69 826,-39 710,-39"/>
<text text-anchor="start" x="718" y="-57" font-family="Helvetica,sans-Serif" font-size="10.00">openage::GameControl</text>
<text text-anchor="middle" x="768" y="-46" font-family="Helvetica,sans-Serif" font-size="10.00">::get_current_player</text>
</a>
</g>
</g>
<!-- Node138&#45;&gt;Node139 -->
<g id="edge5" class="edge"><title>Node138&#45;&gt;Node139</title>
<path fill="none" stroke="midnightblue" d="M674.186,-42.1628C682.721,-43.2514 691.343,-44.351 699.714,-45.4185"/>
<polygon fill="midnightblue" stroke="midnightblue" points="699.415,-48.9087 709.777,-46.702 700.3,-41.9649 699.415,-48.9087"/>
</g>
<!-- Node141 -->
<g id="node8" class="node"><title>Node141</title>
<g id="a_node8"><a xlink:href="namespacestd.xhtml#a26aa0f4be3a77ac5cc3ce0cabb545042" target="_top" xlink:title=" ">
<polygon fill="white" stroke="black" points="731,-0.5 731,-19.5 805,-19.5 805,-0.5 731,-0.5"/>
<text text-anchor="middle" x="768" y="-7.5" font-family="Helvetica,sans-Serif" font-size="10.00">std::to_string</text>
</a>
</g>
</g>
<!-- Node138&#45;&gt;Node141 -->
<g id="edge7" class="edge"><title>Node138&#45;&gt;Node141</title>
<path fill="none" stroke="midnightblue" d="M674.186,-21.8372C690.098,-19.8078 706.31,-17.7402 720.638,-15.9129"/>
<polygon fill="midnightblue" stroke="midnightblue" points="721.23,-19.3658 730.707,-14.6287 720.344,-12.422 721.23,-19.3658"/>
</g>
<!-- Node140 -->
<g id="node7" class="node"><title>Node140</title>
<g id="a_node7"><a xlink:href="classopenage_1_1_engine.xhtml#a3e79c3919abbc3cab0716e4807f7c93e" target="_top" xlink:title="return currently running game or null if a game is not currently running">
<polygon fill="white" stroke="black" points="862,-44.5 862,-63.5 1000,-63.5 1000,-44.5 862,-44.5"/>
<text text-anchor="middle" x="931" y="-51.5" font-family="Helvetica,sans-Serif" font-size="10.00">openage::Engine::get_game</text>
</a>
</g>
</g>
<!-- Node139&#45;&gt;Node140 -->
<g id="edge6" class="edge"><title>Node139&#45;&gt;Node140</title>
<path fill="none" stroke="midnightblue" d="M826.216,-54C834.531,-54 843.209,-54 851.851,-54"/>
<polygon fill="midnightblue" stroke="midnightblue" points="851.955,-57.5001 861.955,-54 851.955,-50.5001 851.955,-57.5001"/>
</g>
</g>
</svg>
        <g id="navigator" transform="translate(0 0)" fill="#404254">
                <rect fill="#f2f5e9" fill-opacity="0.5" stroke="#606060" stroke-width=".5" x="0" y="0" width="60" height="60"/>
                <use id="zoomplus" xlink:href="#zoomPlus" x="17" y="9" onmousedown="handleZoom(evt,'in')"/>
                <use id="zoomminus" xlink:href="#zoomMin" x="42" y="9" onmousedown="handleZoom(evt,'out')"/>
                <use id="reset" xlink:href="#resetDef" x="30" y="36" onmousedown="handleReset()"/>
                <g id="arrowUp" xlink:href="#dirArrow" transform="translate(30 24)" onmousedown="handlePan(0,-1)">
                  <use xlink:href="#rim" fill="#404040">
                        <set attributeName="fill" to="#808080" begin="arrowUp.mouseover" end="arrowUp.mouseout"/>
                  </use>
                  <path fill="none" stroke="white" stroke-width="1.5" d="M0,-3.0v7 M-2.5,-0.5L0,-3.0L2.5,-0.5"/>
                </g>
                <g id="arrowRight" xlink:href="#dirArrow" transform="rotate(90) translate(36 -43)" onmousedown="handlePan(1,0)">
                  <use xlink:href="#rim" fill="#404040">
                        <set attributeName="fill" to="#808080" begin="arrowRight.mouseover" end="arrowRight.mouseout"/>
                  </use>
                  <path fill="none" stroke="white" stroke-width="1.5" d="M0,-3.0v7 M-2.5,-0.5L0,-3.0L2.5,-0.5"/>
                </g>
                <g id="arrowDown" xlink:href="#dirArrow" transform="rotate(180) translate(-30 -48)" onmousedown="handlePan(0,1)">
                  <use xlink:href="#rim" fill="#404040">
                        <set attributeName="fill" to="#808080" begin="arrowDown.mouseover" end="arrowDown.mouseout"/>
                  </use>
                  <path fill="none" stroke="white" stroke-width="1.5" d="M0,-3.0v7 M-2.5,-0.5L0,-3.0L2.5,-0.5"/>
                </g>
                <g id="arrowLeft" xlink:href="#dirArrow" transform="rotate(270) translate(-36 17)" onmousedown="handlePan(-1,0)">
                  <use xlink:href="#rim" fill="#404040">
                        <set attributeName="fill" to="#808080" begin="arrowLeft.mouseover" end="arrowLeft.mouseout"/>
                  </use>
                  <path fill="none" stroke="white" stroke-width="1.5" d="M0,-3.0v7 M-2.5,-0.5L0,-3.0L2.5,-0.5"/>
                </g>
        </g>
        <svg viewBox="0 0 15 15" width="100%" height="30px" preserveAspectRatio="xMaxYMin meet">
         <g id="arrow_out" transform="scale(0.3 0.3)">
          <a xlink:href="classopenage_1_1gui_1_1_game_control_link_ae7ae95345cce7b97f5cbab741589808a_cgraph_org.svg" target="_base">
           <rect id="button" ry="5" rx="5" y="6" x="6" height="38" width="38"
                fill="#f2f5e9" fill-opacity="0.5" stroke="#606060" stroke-width="1.0"/>
           <path id="arrow"
             d="M 11.500037,31.436501 C 11.940474,20.09759 22.043105,11.32322 32.158766,21.979434 L 37.068811,17.246167 C 37.068811,17.246167 37.088388,32 37.088388,32 L 22.160133,31.978069 C 22.160133,31.978069 26.997745,27.140456 26.997745,27.140456 C 18.528582,18.264221 13.291696,25.230495 11.500037,31.436501 z"
             style="fill:#404040;"/>
          </a>
         </g>
        </svg>
</svg>
