<?xml version="1.0" encoding="UTF-8" standalone="no"?>
<!DOCTYPE svg PUBLIC "-//W3C//DTD SVG 1.1//EN"
 "http://www.w3.org/Graphics/SVG/1.1/DTD/svg11.dtd">
<!-- Generated by graphviz version 2.38.0 (20140413.2041)
 -->
<!-- Title: openage::IdleAction::name Pages: 1 -->
<svg width="420pt" height="137pt"
 viewBox="0.00 0.00 420.00 137.00" xmlns="http://www.w3.org/2000/svg" xmlns:xlink="http://www.w3.org/1999/xlink">
<g id="graph0" class="graph" transform="scale(1 1) rotate(0) translate(4 133)">
<title>openage::IdleAction::name</title>
<polygon fill="white" stroke="none" points="-4,4 -4,-133 416,-133 416,4 -4,4"/>
<!-- Node18 -->
<g id="node1" class="node"><title>Node18</title>
<g id="a_node1"><a xlink:title="debug string to identify action types">
<polygon fill="#bfbfbf" stroke="black" points="310,-49.5 310,-79.5 412,-79.5 412,-49.5 310,-49.5"/>
<text text-anchor="start" x="318" y="-67.5" font-family="Helvetica,sans-Serif" font-size="10.00">openage::IdleAction</text>
<text text-anchor="middle" x="361" y="-56.5" font-family="Helvetica,sans-Serif" font-size="10.00">::name</text>
</a>
</g>
</g>
<!-- Node19 -->
<g id="node2" class="node"><title>Node19</title>
<g id="a_node2"><a xlink:href="classopenage_1_1util_1_1fslike_1_1path_1_1_path.xhtml#aab5ade46752aa652e414b1c3bac704c1" target="_top" xlink:title="Name without suffix (such that stem + suffix == name).">
<polygon fill="white" stroke="black" points="155,-98.5 155,-128.5 274,-128.5 274,-98.5 155,-98.5"/>
<text text-anchor="start" x="163" y="-116.5" font-family="Helvetica,sans-Serif" font-size="10.00">openage.util.fslike.path.</text>
<text text-anchor="middle" x="214.5" y="-105.5" font-family="Helvetica,sans-Serif" font-size="10.00">Path.stem</text>
</a>
</g>
</g>
<!-- Node18&#45;&gt;Node19 -->
<g id="edge1" class="edge"><title>Node18&#45;&gt;Node19</title>
<path fill="none" stroke="midnightblue" d="M305.769,-82.8896C290.724,-87.9916 274.565,-93.4711 260.136,-98.3641"/>
<polygon fill="midnightblue" stroke="midnightblue" points="307.12,-86.1275 315.466,-79.6014 304.872,-79.4983 307.12,-86.1275"/>
</g>
<!-- Node21 -->
<g id="node4" class="node"><title>Node21</title>
<g id="a_node4"><a xlink:href="classopenage_1_1util_1_1fslike_1_1path_1_1_path.xhtml#a7b11153f6ef9787c4c583bcf0126ba6a" target="_top" xlink:title="The last suffix of the name of the topmost component (str).">
<polygon fill="white" stroke="black" points="155,-49.5 155,-79.5 274,-79.5 274,-49.5 155,-49.5"/>
<text text-anchor="start" x="163" y="-67.5" font-family="Helvetica,sans-Serif" font-size="10.00">openage.util.fslike.path.</text>
<text text-anchor="middle" x="214.5" y="-56.5" font-family="Helvetica,sans-Serif" font-size="10.00">Path.suffix</text>
</a>
</g>
</g>
<!-- Node18&#45;&gt;Node21 -->
<g id="edge3" class="edge"><title>Node18&#45;&gt;Node21</title>
<path fill="none" stroke="midnightblue" d="M299.724,-64.5C291.292,-64.5 282.637,-64.5 274.234,-64.5"/>
<polygon fill="midnightblue" stroke="midnightblue" points="299.866,-68.0001 309.866,-64.5 299.866,-61.0001 299.866,-68.0001"/>
</g>
<!-- Node22 -->
<g id="node5" class="node"><title>Node22</title>
<g id="a_node5"><a xlink:href="classopenage_1_1util_1_1fslike_1_1path_1_1_path.xhtml#a912043b2fbd330e3493588f6c6af92b8" target="_top" xlink:title="The suffixes of the name of the topmost component (str list).">
<polygon fill="white" stroke="black" points="155,-0.5 155,-30.5 274,-30.5 274,-0.5 155,-0.5"/>
<text text-anchor="start" x="163" y="-18.5" font-family="Helvetica,sans-Serif" font-size="10.00">openage.util.fslike.path.</text>
<text text-anchor="middle" x="214.5" y="-7.5" font-family="Helvetica,sans-Serif" font-size="10.00">Path.suffixes</text>
</a>
</g>
</g>
<!-- Node18&#45;&gt;Node22 -->
<g id="edge4" class="edge"><title>Node18&#45;&gt;Node22</title>
<path fill="none" stroke="midnightblue" d="M305.769,-46.1104C290.724,-41.0084 274.565,-35.5289 260.136,-30.6359"/>
<polygon fill="midnightblue" stroke="midnightblue" points="304.872,-49.5017 315.466,-49.3986 307.12,-42.8725 304.872,-49.5017"/>
</g>
<!-- Node20 -->
<g id="node3" class="node"><title>Node20</title>
<g id="a_node3"><a xlink:href="classopenage_1_1util_1_1fslike_1_1path_1_1_path.xhtml#a3ab02f8ab30da2c239dc08a5bb463b58" target="_top" xlink:title="Returns path for different suffix (same parent and stem).">
<polygon fill="white" stroke="black" points="0,-98.5 0,-128.5 119,-128.5 119,-98.5 0,-98.5"/>
<text text-anchor="start" x="8" y="-116.5" font-family="Helvetica,sans-Serif" font-size="10.00">openage.util.fslike.path.</text>
<text text-anchor="middle" x="59.5" y="-105.5" font-family="Helvetica,sans-Serif" font-size="10.00">Path.with_suffix</text>
</a>
</g>
</g>
<!-- Node19&#45;&gt;Node20 -->
<g id="edge2" class="edge"><title>Node19&#45;&gt;Node20</title>
<path fill="none" stroke="midnightblue" d="M144.507,-113.5C136.007,-113.5 127.383,-113.5 119.059,-113.5"/>
<polygon fill="midnightblue" stroke="midnightblue" points="144.784,-117 154.784,-113.5 144.784,-110 144.784,-117"/>
</g>
</g>
</svg>
