<?xml version="1.0" encoding="UTF-8" standalone="no"?>
<!DOCTYPE svg PUBLIC "-//W3C//DTD SVG 1.1//EN"
 "http://www.w3.org/Graphics/SVG/1.1/DTD/svg11.dtd">
<!-- Generated by graphviz version 2.38.0 (20140413.2041)
 -->
<!-- Title: openage::gui::GameControlLink::on_modes_changed Pages: 1 -->
<svg width="1349pt" height="348pt"
 viewBox="0.00 0.00 1349.00 347.50" xmlns="http://www.w3.org/2000/svg" xmlns:xlink="http://www.w3.org/1999/xlink">
<g id="graph0" class="graph" transform="scale(1 1) rotate(0) translate(4 343.5)">
<title>openage::gui::GameControlLink::on_modes_changed</title>
<polygon fill="white" stroke="none" points="-4,4 -4,-343.5 1345,-343.5 1345,4 -4,4"/>
<!-- Node81 -->
<g id="node1" class="node"><title>Node81</title>
<g id="a_node1"><a xlink:title=" ">
<polygon fill="#bfbfbf" stroke="black" points="0,-242.5 0,-272.5 135,-272.5 135,-242.5 0,-242.5"/>
<text text-anchor="start" x="8" y="-260.5" font-family="Helvetica,sans-Serif" font-size="10.00">openage::gui::GameControl</text>
<text text-anchor="middle" x="67.5" y="-249.5" font-family="Helvetica,sans-Serif" font-size="10.00">Link::on_modes_changed</text>
</a>
</g>
</g>
<!-- Node82 -->
<g id="node2" class="node"><title>Node82</title>
<g id="a_node2"><a xlink:href="classqtsdl_1_1_gui_item_methods.xhtml#ac54e8509493e71387cc423d3b594c774" target="_top" xlink:title=" ">
<polygon fill="white" stroke="black" points="179.5,-291.5 179.5,-321.5 297.5,-321.5 297.5,-291.5 179.5,-291.5"/>
<text text-anchor="start" x="187.5" y="-309.5" font-family="Helvetica,sans-Serif" font-size="10.00">qtsdl::GuiItemMethods</text>
<text text-anchor="middle" x="238.5" y="-298.5" font-family="Helvetica,sans-Serif" font-size="10.00">&lt; GameControlLink &gt;::i</text>
</a>
</g>
</g>
<!-- Node81&#45;&gt;Node82 -->
<g id="edge1" class="edge"><title>Node81&#45;&gt;Node82</title>
<path fill="none" stroke="midnightblue" d="M120.585,-272.601C138.095,-277.679 157.795,-283.39 175.962,-288.658"/>
<polygon fill="midnightblue" stroke="midnightblue" points="175.008,-292.025 185.587,-291.448 176.958,-285.302 175.008,-292.025"/>
</g>
<!-- Node83 -->
<g id="node3" class="node"><title>Node83</title>
<g id="a_node3"><a xlink:href="classopenage_1_1gui_1_1_game_control_link.xhtml#a652b322aaebf092e2f0735aae8b54e1c" target="_top" xlink:title=" ">
<polygon fill="white" stroke="black" points="171,-242.5 171,-272.5 306,-272.5 306,-242.5 171,-242.5"/>
<text text-anchor="start" x="179" y="-260.5" font-family="Helvetica,sans-Serif" font-size="10.00">openage::gui::GameControl</text>
<text text-anchor="middle" x="238.5" y="-249.5" font-family="Helvetica,sans-Serif" font-size="10.00">Link::on_mode_changed</text>
</a>
</g>
</g>
<!-- Node81&#45;&gt;Node83 -->
<g id="edge2" class="edge"><title>Node81&#45;&gt;Node83</title>
<path fill="none" stroke="midnightblue" d="M135.293,-257.5C143.624,-257.5 152.194,-257.5 160.661,-257.5"/>
<polygon fill="midnightblue" stroke="midnightblue" points="160.915,-261 170.915,-257.5 160.915,-254 160.915,-261"/>
</g>
<!-- Node86 -->
<g id="node6" class="node"><title>Node86</title>
<g id="a_node6"><a xlink:href="classopenage_1_1_game_control.xhtml#a1d0f073f844955000861e4c0d08b20e0" target="_top" xlink:title=" ">
<polygon fill="white" stroke="black" points="180.5,-147.5 180.5,-177.5 296.5,-177.5 296.5,-147.5 180.5,-147.5"/>
<text text-anchor="start" x="188.5" y="-165.5" font-family="Helvetica,sans-Serif" font-size="10.00">openage::GameControl</text>
<text text-anchor="middle" x="238.5" y="-154.5" font-family="Helvetica,sans-Serif" font-size="10.00">::set_mode</text>
</a>
</g>
</g>
<!-- Node81&#45;&gt;Node86 -->
<g id="edge5" class="edge"><title>Node81&#45;&gt;Node86</title>
<path fill="none" stroke="midnightblue" d="M95.2786,-242.447C123.996,-226.304 169.75,-200.584 201.579,-182.692"/>
<polygon fill="midnightblue" stroke="midnightblue" points="203.565,-185.591 210.567,-177.64 200.135,-179.489 203.565,-185.591"/>
</g>
<!-- Node84 -->
<g id="node4" class="node"><title>Node84</title>
<g id="a_node4"><a xlink:href="namespaceqtsdl.xhtml#a5a0a6c84da4886196d22ea5de4477e66" target="_top" xlink:title=" ">
<polygon fill="white" stroke="black" points="382.5,-295 382.5,-314 446.5,-314 446.5,-295 382.5,-295"/>
<text text-anchor="middle" x="414.5" y="-302" font-family="Helvetica,sans-Serif" font-size="10.00">qtsdl::wrap</text>
</a>
</g>
</g>
<!-- Node83&#45;&gt;Node84 -->
<g id="edge3" class="edge"><title>Node83&#45;&gt;Node84</title>
<path fill="none" stroke="midnightblue" d="M294.272,-272.537C309.702,-276.753 326.504,-281.325 342,-285.5 351.859,-288.157 362.491,-290.996 372.463,-293.647"/>
<polygon fill="midnightblue" stroke="midnightblue" points="371.6,-297.039 382.164,-296.223 373.397,-290.274 371.6,-297.039"/>
</g>
<!-- Node85 -->
<g id="node5" class="node"><title>Node85</title>
<g id="a_node5"><a xlink:href="namespaceqtsdl.xhtml#a220ce9f0bb41d3f42a8b559e454ed4bc" target="_top" xlink:title=" ">
<polygon fill="white" stroke="black" points="526.5,-295 526.5,-314 660.5,-314 660.5,-295 526.5,-295"/>
<text text-anchor="middle" x="593.5" y="-302" font-family="Helvetica,sans-Serif" font-size="10.00">qtsdl::checked_static_cast</text>
</a>
</g>
</g>
<!-- Node84&#45;&gt;Node85 -->
<g id="edge4" class="edge"><title>Node84&#45;&gt;Node85</title>
<path fill="none" stroke="midnightblue" d="M446.737,-304.5C466.101,-304.5 491.875,-304.5 516.362,-304.5"/>
<polygon fill="midnightblue" stroke="midnightblue" points="516.389,-308 526.389,-304.5 516.389,-301 516.389,-308"/>
</g>
<!-- Node87 -->
<g id="node7" class="node"><title>Node87</title>
<g id="a_node7"><a xlink:href="classopenage_1_1_game_control.xhtml#a8c867441262580369ff7c66ba6bd0e4b" target="_top" xlink:title=" ">
<polygon fill="white" stroke="black" points="356.5,-245.5 356.5,-275.5 472.5,-275.5 472.5,-245.5 356.5,-245.5"/>
<text text-anchor="start" x="364.5" y="-263.5" font-family="Helvetica,sans-Serif" font-size="10.00">openage::GameControl</text>
<text text-anchor="middle" x="414.5" y="-252.5" font-family="Helvetica,sans-Serif" font-size="10.00">::announce_mode</text>
</a>
</g>
</g>
<!-- Node86&#45;&gt;Node87 -->
<g id="edge6" class="edge"><title>Node86&#45;&gt;Node87</title>
<path fill="none" stroke="midnightblue" d="M257.371,-177.627C277.064,-193.704 310.181,-219.031 342,-235.5 346.051,-237.597 350.317,-239.584 354.665,-241.454"/>
<polygon fill="midnightblue" stroke="midnightblue" points="353.682,-244.832 364.264,-245.354 356.317,-238.347 353.682,-244.832"/>
</g>
<!-- Node96 -->
<g id="node16" class="node"><title>Node96</title>
<g id="a_node16"><a xlink:href="classopenage_1_1_engine.xhtml#a248149eac4678d70fe55d6ba5cdc695a" target="_top" xlink:title=" ">
<polygon fill="white" stroke="black" points="360,-196.5 360,-226.5 469,-226.5 469,-196.5 360,-196.5"/>
<text text-anchor="start" x="368" y="-214.5" font-family="Helvetica,sans-Serif" font-size="10.00">openage::Engine::get</text>
<text text-anchor="middle" x="414.5" y="-203.5" font-family="Helvetica,sans-Serif" font-size="10.00">_input_manager</text>
</a>
</g>
</g>
<!-- Node86&#45;&gt;Node96 -->
<g id="edge16" class="edge"><title>Node86&#45;&gt;Node96</title>
<path fill="none" stroke="midnightblue" d="M293.126,-177.601C311.237,-182.702 331.624,-188.443 350.4,-193.73"/>
<polygon fill="midnightblue" stroke="midnightblue" points="349.477,-197.107 360.052,-196.448 351.375,-190.369 349.477,-197.107"/>
</g>
<!-- Node97 -->
<g id="node17" class="node"><title>Node97</title>
<g id="a_node17"><a xlink:href="classopenage_1_1_output_mode.xhtml#a84beca51250156148fe4af178ed87c22" target="_top" xlink:title=" ">
<polygon fill="white" stroke="black" points="358,-147.5 358,-177.5 471,-177.5 471,-147.5 358,-147.5"/>
<text text-anchor="start" x="366" y="-165.5" font-family="Helvetica,sans-Serif" font-size="10.00">openage::OutputMode</text>
<text text-anchor="middle" x="414.5" y="-154.5" font-family="Helvetica,sans-Serif" font-size="10.00">::on_enter</text>
</a>
</g>
</g>
<!-- Node86&#45;&gt;Node97 -->
<g id="edge17" class="edge"><title>Node86&#45;&gt;Node97</title>
<path fill="none" stroke="midnightblue" d="M296.956,-162.5C313.187,-162.5 330.975,-162.5 347.658,-162.5"/>
<polygon fill="midnightblue" stroke="midnightblue" points="347.879,-166 357.879,-162.5 347.879,-159 347.879,-166"/>
</g>
<!-- Node98 -->
<g id="node18" class="node"><title>Node98</title>
<g id="a_node18"><a xlink:href="classopenage_1_1_output_mode.xhtml#ac4731437d730c75e214f7fda4c218da1" target="_top" xlink:title=" ">
<polygon fill="white" stroke="black" points="358,-98.5 358,-128.5 471,-128.5 471,-98.5 358,-98.5"/>
<text text-anchor="start" x="366" y="-116.5" font-family="Helvetica,sans-Serif" font-size="10.00">openage::OutputMode</text>
<text text-anchor="middle" x="414.5" y="-105.5" font-family="Helvetica,sans-Serif" font-size="10.00">::on_exit</text>
</a>
</g>
</g>
<!-- Node86&#45;&gt;Node98 -->
<g id="edge18" class="edge"><title>Node86&#45;&gt;Node98</title>
<path fill="none" stroke="midnightblue" d="M293.126,-147.399C311.237,-142.298 331.624,-136.557 350.4,-131.27"/>
<polygon fill="midnightblue" stroke="midnightblue" points="351.375,-134.631 360.052,-128.552 349.477,-127.893 351.375,-134.631"/>
</g>
<!-- Node99 -->
<g id="node19" class="node"><title>Node99</title>
<g id="a_node19"><a xlink:href="classopenage_1_1input_1_1_input_manager.xhtml#a2ece2b2ad4a08c15fb00a39b0f553d3c" target="_top" xlink:title=" ">
<polygon fill="white" stroke="black" points="342,-49.5 342,-79.5 487,-79.5 487,-49.5 342,-49.5"/>
<text text-anchor="start" x="350" y="-67.5" font-family="Helvetica,sans-Serif" font-size="10.00">openage::input::InputManager</text>
<text text-anchor="middle" x="414.5" y="-56.5" font-family="Helvetica,sans-Serif" font-size="10.00">::push_context</text>
</a>
</g>
</g>
<!-- Node86&#45;&gt;Node99 -->
<g id="edge19" class="edge"><title>Node86&#45;&gt;Node99</title>
<path fill="none" stroke="midnightblue" d="M256.936,-147.369C276.519,-131.006 309.788,-105.049 342,-88.5 345.503,-86.7003 349.17,-84.9922 352.914,-83.379"/>
<polygon fill="midnightblue" stroke="midnightblue" points="354.374,-86.5639 362.33,-79.5665 351.747,-80.0756 354.374,-86.5639"/>
</g>
<!-- Node101 -->
<g id="node21" class="node"><title>Node101</title>
<g id="a_node21"><a xlink:href="classopenage_1_1input_1_1_input_manager.xhtml#a469024c2b2ac7769e0fa578c73fde160" target="_top" xlink:title=" ">
<polygon fill="white" stroke="black" points="342,-0.5 342,-30.5 487,-30.5 487,-0.5 342,-0.5"/>
<text text-anchor="start" x="350" y="-18.5" font-family="Helvetica,sans-Serif" font-size="10.00">openage::input::InputManager</text>
<text text-anchor="middle" x="414.5" y="-7.5" font-family="Helvetica,sans-Serif" font-size="10.00">::remove_context</text>
</a>
</g>
</g>
<!-- Node86&#45;&gt;Node101 -->
<g id="edge21" class="edge"><title>Node86&#45;&gt;Node101</title>
<path fill="none" stroke="midnightblue" d="M248.224,-147.32C263.807,-121.509 298.868,-69.0051 342,-39.5 344.253,-37.9591 346.612,-36.5099 349.047,-35.1479"/>
<polygon fill="midnightblue" stroke="midnightblue" points="350.764,-38.2023 358.132,-30.5887 347.624,-31.9459 350.764,-38.2023"/>
</g>
<!-- Node88 -->
<g id="node8" class="node"><title>Node88</title>
<g id="a_node8"><a xlink:href="classopenage_1_1_output_mode.xhtml#aafb84951c6575c14b5517312c5cfe191" target="_top" xlink:title=" ">
<polygon fill="white" stroke="black" points="537,-245.5 537,-275.5 650,-275.5 650,-245.5 537,-245.5"/>
<text text-anchor="start" x="545" y="-263.5" font-family="Helvetica,sans-Serif" font-size="10.00">openage::OutputMode</text>
<text text-anchor="middle" x="593.5" y="-252.5" font-family="Helvetica,sans-Serif" font-size="10.00">::announce</text>
</a>
</g>
</g>
<!-- Node87&#45;&gt;Node88 -->
<g id="edge7" class="edge"><title>Node87&#45;&gt;Node88</title>
<path fill="none" stroke="midnightblue" d="M472.967,-260.5C490.096,-260.5 509.002,-260.5 526.625,-260.5"/>
<polygon fill="midnightblue" stroke="midnightblue" points="526.829,-264 536.829,-260.5 526.829,-257 526.829,-264"/>
</g>
<!-- Node89 -->
<g id="node9" class="node"><title>Node89</title>
<g id="a_node9"><a xlink:href="classopenage_1_1input_1_1_input_context.xhtml#ab79e2d06d4aab199d3fb9c5dc5b6ff3f" target="_top" xlink:title=" ">
<polygon fill="white" stroke="black" points="700,-270.5 700,-300.5 841,-300.5 841,-270.5 700,-270.5"/>
<text text-anchor="start" x="708" y="-288.5" font-family="Helvetica,sans-Serif" font-size="10.00">openage::input::InputContext</text>
<text text-anchor="middle" x="770.5" y="-277.5" font-family="Helvetica,sans-Serif" font-size="10.00">::active_binds</text>
</a>
</g>
</g>
<!-- Node88&#45;&gt;Node89 -->
<g id="edge8" class="edge"><title>Node88&#45;&gt;Node89</title>
<path fill="none" stroke="midnightblue" d="M650.352,-268.479C662.867,-270.267 676.38,-272.197 689.656,-274.094"/>
<polygon fill="midnightblue" stroke="midnightblue" points="689.347,-277.585 699.741,-275.534 690.337,-270.655 689.347,-277.585"/>
</g>
<!-- Node95 -->
<g id="node15" class="node"><title>Node95</title>
<g id="a_node15"><a xlink:href="classopenage_1_1_output_mode.xhtml#a088f019691b4233408a7d230b0a5604b" target="_top" xlink:title=" ">
<polygon fill="white" stroke="black" points="714,-221.5 714,-251.5 827,-251.5 827,-221.5 714,-221.5"/>
<text text-anchor="start" x="722" y="-239.5" font-family="Helvetica,sans-Serif" font-size="10.00">openage::OutputMode</text>
<text text-anchor="middle" x="770.5" y="-228.5" font-family="Helvetica,sans-Serif" font-size="10.00">::name</text>
</a>
</g>
</g>
<!-- Node88&#45;&gt;Node95 -->
<g id="edge15" class="edge"><title>Node88&#45;&gt;Node95</title>
<path fill="none" stroke="midnightblue" d="M650.352,-252.84C667.327,-250.512 686.138,-247.933 703.703,-245.524"/>
<polygon fill="midnightblue" stroke="midnightblue" points="704.446,-248.954 713.878,-244.128 703.495,-242.019 704.446,-248.954"/>
</g>
<!-- Node90 -->
<g id="node10" class="node"><title>Node90</title>
<g id="a_node10"><a xlink:href="classopenage_1_1input_1_1_input_manager.xhtml#ac5b6bbe740edcca81b63996a22472a53" target="_top" xlink:title=" ">
<polygon fill="white" stroke="black" points="877,-270.5 877,-300.5 1022,-300.5 1022,-270.5 877,-270.5"/>
<text text-anchor="start" x="885" y="-288.5" font-family="Helvetica,sans-Serif" font-size="10.00">openage::input::InputManager</text>
<text text-anchor="middle" x="949.5" y="-277.5" font-family="Helvetica,sans-Serif" font-size="10.00">::active_binds</text>
</a>
</g>
</g>
<!-- Node89&#45;&gt;Node90 -->
<g id="edge9" class="edge"><title>Node89&#45;&gt;Node90</title>
<path fill="none" stroke="midnightblue" d="M841.201,-285.5C849.523,-285.5 858.077,-285.5 866.551,-285.5"/>
<polygon fill="midnightblue" stroke="midnightblue" points="866.827,-289 876.827,-285.5 866.827,-282 866.827,-289"/>
</g>
<!-- Node91 -->
<g id="node11" class="node"><title>Node91</title>
<g id="a_node11"><a xlink:href="namespaceopenage_1_1testing_1_1testing.xhtml#ac25bf81db406af62d08113ef7ae9fd6e" target="_top" xlink:title=" ">
<polygon fill="white" stroke="black" points="1061.5,-320 1061.5,-339 1206.5,-339 1206.5,-320 1061.5,-320"/>
<text text-anchor="middle" x="1134" y="-327" font-family="Helvetica,sans-Serif" font-size="10.00">openage.testing.testing.result</text>
</a>
</g>
</g>
<!-- Node90&#45;&gt;Node91 -->
<g id="edge10" class="edge"><title>Node90&#45;&gt;Node91</title>
<path fill="none" stroke="midnightblue" d="M1012.8,-300.519C1035.99,-306.111 1061.96,-312.374 1083.82,-317.643"/>
<polygon fill="midnightblue" stroke="midnightblue" points="1083,-321.046 1093.55,-319.988 1084.64,-314.241 1083,-321.046"/>
</g>
<!-- Node93 -->
<g id="node13" class="node"><title>Node93</title>
<g id="a_node13"><a xlink:href="classopenage_1_1input_1_1_input_manager.xhtml#aa0777d6b8ecc513c2a90ae8273d1938c" target="_top" xlink:title=" ">
<polygon fill="white" stroke="black" points="1061.5,-270.5 1061.5,-300.5 1206.5,-300.5 1206.5,-270.5 1061.5,-270.5"/>
<text text-anchor="start" x="1069.5" y="-288.5" font-family="Helvetica,sans-Serif" font-size="10.00">openage::input::InputManager</text>
<text text-anchor="middle" x="1134" y="-277.5" font-family="Helvetica,sans-Serif" font-size="10.00">::get_action_manager</text>
</a>
</g>
</g>
<!-- Node90&#45;&gt;Node93 -->
<g id="edge13" class="edge"><title>Node90&#45;&gt;Node93</title>
<path fill="none" stroke="midnightblue" d="M1022.11,-285.5C1031.67,-285.5 1041.53,-285.5 1051.25,-285.5"/>
<polygon fill="midnightblue" stroke="midnightblue" points="1051.3,-289 1061.3,-285.5 1051.3,-282 1051.3,-289"/>
</g>
<!-- Node94 -->
<g id="node14" class="node"><title>Node94</title>
<g id="a_node14"><a xlink:href="classopenage_1_1input_1_1_action_manager.xhtml#a44e53d5edb2092424df17b709b743358" target="_top" xlink:title=" ">
<polygon fill="white" stroke="black" points="1058,-221.5 1058,-251.5 1210,-251.5 1210,-221.5 1058,-221.5"/>
<text text-anchor="start" x="1066" y="-239.5" font-family="Helvetica,sans-Serif" font-size="10.00">openage::input::ActionManager</text>
<text text-anchor="middle" x="1134" y="-228.5" font-family="Helvetica,sans-Serif" font-size="10.00">::get_name</text>
</a>
</g>
</g>
<!-- Node90&#45;&gt;Node94 -->
<g id="edge14" class="edge"><title>Node90&#45;&gt;Node94</title>
<path fill="none" stroke="midnightblue" d="M1006.75,-270.399C1025.83,-265.275 1047.32,-259.504 1067.09,-254.197"/>
<polygon fill="midnightblue" stroke="midnightblue" points="1068.19,-257.525 1076.94,-251.552 1066.38,-250.764 1068.19,-257.525"/>
</g>
<!-- Node92 -->
<g id="node12" class="node"><title>Node92</title>
<g id="a_node12"><a xlink:href="namespaceopenage_1_1util.xhtml#a7bc4421a5f0f57f3a0aba3f96eb8d19c" target="_top" xlink:title=" ">
<polygon fill="white" stroke="black" points="1246,-320 1246,-339 1341,-339 1341,-320 1246,-320"/>
<text text-anchor="middle" x="1293.5" y="-327" font-family="Helvetica,sans-Serif" font-size="10.00">openage::util::repr</text>
</a>
</g>
</g>
<!-- Node91&#45;&gt;Node92 -->
<g id="edge11" class="edge"><title>Node91&#45;&gt;Node92</title>
<path fill="none" stroke="midnightblue" d="M1206.84,-322.773C1216.39,-322.709 1226.07,-322.778 1235.33,-322.98"/>
<polygon fill="midnightblue" stroke="midnightblue" points="1235.47,-326.486 1245.56,-323.266 1235.66,-319.488 1235.47,-326.486"/>
</g>
<!-- Node92&#45;&gt;Node91 -->
<g id="edge12" class="edge"><title>Node92&#45;&gt;Node91</title>
<path fill="none" stroke="midnightblue" d="M1245.56,-335.734C1236.52,-336.044 1226.81,-336.214 1217.03,-336.245"/>
<polygon fill="midnightblue" stroke="midnightblue" points="1216.84,-332.745 1206.84,-336.227 1216.83,-339.745 1216.84,-332.745"/>
</g>
<!-- Node100 -->
<g id="node20" class="node"><title>Node100</title>
<g id="a_node20"><a xlink:href="classopenage_1_1input_1_1_input_context.xhtml#a0a5d3374a164faf57483d7555f0b84b5" target="_top" xlink:title=" ">
<polygon fill="white" stroke="black" points="523,-49.5 523,-79.5 664,-79.5 664,-49.5 523,-49.5"/>
<text text-anchor="start" x="531" y="-67.5" font-family="Helvetica,sans-Serif" font-size="10.00">openage::input::InputContext</text>
<text text-anchor="middle" x="593.5" y="-56.5" font-family="Helvetica,sans-Serif" font-size="10.00">::register_to</text>
</a>
</g>
</g>
<!-- Node99&#45;&gt;Node100 -->
<g id="edge20" class="edge"><title>Node99&#45;&gt;Node100</title>
<path fill="none" stroke="midnightblue" d="M487.238,-64.5C495.617,-64.5 504.205,-64.5 512.685,-64.5"/>
<polygon fill="midnightblue" stroke="midnightblue" points="512.955,-68.0001 522.955,-64.5 512.955,-61.0001 512.955,-68.0001"/>
</g>
<!-- Node102 -->
<g id="node22" class="node"><title>Node102</title>
<g id="a_node22"><a xlink:href="classopenage_1_1input_1_1_input_context.xhtml#a12ae83daa8c6bfefef320a07377a9246" target="_top" xlink:title=" ">
<polygon fill="white" stroke="black" points="523,-0.5 523,-30.5 664,-30.5 664,-0.5 523,-0.5"/>
<text text-anchor="start" x="531" y="-18.5" font-family="Helvetica,sans-Serif" font-size="10.00">openage::input::InputContext</text>
<text text-anchor="middle" x="593.5" y="-7.5" font-family="Helvetica,sans-Serif" font-size="10.00">::unregister</text>
</a>
</g>
</g>
<!-- Node101&#45;&gt;Node102 -->
<g id="edge22" class="edge"><title>Node101&#45;&gt;Node102</title>
<path fill="none" stroke="midnightblue" d="M487.238,-15.5C495.617,-15.5 504.205,-15.5 512.685,-15.5"/>
<polygon fill="midnightblue" stroke="midnightblue" points="512.955,-19.0001 522.955,-15.5 512.955,-12.0001 512.955,-19.0001"/>
</g>
</g>
</svg>
