<?xml version="1.0" encoding="UTF-8" standalone="no"?>
<!DOCTYPE svg PUBLIC "-//W3C//DTD SVG 1.1//EN"
 "http://www.w3.org/Graphics/SVG/1.1/DTD/svg11.dtd">
<!-- Generated by graphviz version 2.38.0 (20140413.2041)
 -->
<!-- Title: openage::console::Buf::chrdataptr Pages: 1 -->
<svg width="433pt" height="39pt"
 viewBox="0.00 0.00 433.00 39.00" xmlns="http://www.w3.org/2000/svg" xmlns:xlink="http://www.w3.org/1999/xlink">
<g id="graph0" class="graph" transform="scale(1 1) rotate(0) translate(4 35)">
<title>openage::console::Buf::chrdataptr</title>
<polygon fill="white" stroke="none" points="-4,4 -4,-35 429,-35 429,4 -4,4"/>
<!-- Node29 -->
<g id="node1" class="node"><title>Node29</title>
<g id="a_node1"><a xlink:title=" ">
<polygon fill="#bfbfbf" stroke="black" points="0,-0.5 0,-30.5 113,-30.5 113,-0.5 0,-0.5"/>
<text text-anchor="start" x="8" y="-18.5" font-family="Helvetica,sans-Serif" font-size="10.00">openage::console::Buf</text>
<text text-anchor="middle" x="56.5" y="-7.5" font-family="Helvetica,sans-Serif" font-size="10.00">::chrdataptr</text>
</a>
</g>
</g>
<!-- Node30 -->
<g id="node2" class="node"><title>Node30</title>
<g id="a_node2"><a xlink:href="namespaceopenage_1_1testing_1_1testing.xhtml#ac25bf81db406af62d08113ef7ae9fd6e" target="_top" xlink:title=" ">
<polygon fill="white" stroke="black" points="149,-6 149,-25 294,-25 294,-6 149,-6"/>
<text text-anchor="middle" x="221.5" y="-13" font-family="Helvetica,sans-Serif" font-size="10.00">openage.testing.testing.result</text>
</a>
</g>
</g>
<!-- Node29&#45;&gt;Node30 -->
<g id="edge1" class="edge"><title>Node29&#45;&gt;Node30</title>
<path fill="none" stroke="midnightblue" d="M113.139,-15.5C121.425,-15.5 130.109,-15.5 138.796,-15.5"/>
<polygon fill="midnightblue" stroke="midnightblue" points="138.972,-19.0001 148.972,-15.5 138.972,-12.0001 138.972,-19.0001"/>
</g>
<!-- Node31 -->
<g id="node3" class="node"><title>Node31</title>
<g id="a_node3"><a xlink:href="namespaceopenage_1_1util.xhtml#a7bc4421a5f0f57f3a0aba3f96eb8d19c" target="_top" xlink:title=" ">
<polygon fill="white" stroke="black" points="330,-6 330,-25 425,-25 425,-6 330,-6"/>
<text text-anchor="middle" x="377.5" y="-13" font-family="Helvetica,sans-Serif" font-size="10.00">openage::util::repr</text>
</a>
</g>
</g>
<!-- Node30&#45;&gt;Node31 -->
<g id="edge2" class="edge"><title>Node30&#45;&gt;Node31</title>
<path fill="none" stroke="midnightblue" d="M294.09,-8.76483C302.595,-8.71813 311.189,-8.78172 319.453,-8.9556"/>
<polygon fill="midnightblue" stroke="midnightblue" points="319.622,-12.4614 329.713,-9.23483 319.812,-5.46399 319.622,-12.4614"/>
</g>
<!-- Node31&#45;&gt;Node30 -->
<g id="edge3" class="edge"><title>Node31&#45;&gt;Node30</title>
<path fill="none" stroke="midnightblue" d="M329.713,-21.7652C321.626,-22.0381 313.01,-22.1958 304.312,-22.2383"/>
<polygon fill="midnightblue" stroke="midnightblue" points="304.091,-18.7383 294.09,-22.2352 304.089,-25.7383 304.091,-18.7383"/>
</g>
</g>
</svg>
