<?xml version="1.0" encoding="UTF-8" standalone="no"?>
<!DOCTYPE svg PUBLIC "-//W3C//DTD SVG 1.1//EN"
 "http://www.w3.org/Graphics/SVG/1.1/DTD/svg11.dtd">
<!-- Generated by graphviz version 2.38.0 (20140413.2041)
 -->
<!-- Title: openage::renderer::opengl::GlTexture2d::upload Pages: 1 -->
<svg width="276pt" height="268pt"
 viewBox="0.00 0.00 276.00 268.00" xmlns="http://www.w3.org/2000/svg" xmlns:xlink="http://www.w3.org/1999/xlink">
<g id="graph0" class="graph" transform="scale(1 1) rotate(0) translate(4 264)">
<title>openage::renderer::opengl::GlTexture2d::upload</title>
<polygon fill="white" stroke="none" points="-4,4 -4,-264 272,-264 272,4 -4,4"/>
<!-- Node11 -->
<g id="node1" class="node"><title>Node11</title>
<g id="a_node1"><a xlink:title="Uploads the provided data into the GPU texture storage.">
<polygon fill="#bfbfbf" stroke="black" points="0,-120.5 0,-161.5 104,-161.5 104,-120.5 0,-120.5"/>
<text text-anchor="start" x="8" y="-149.5" font-family="Helvetica,sans-Serif" font-size="10.00">openage::renderer::</text>
<text text-anchor="start" x="8" y="-138.5" font-family="Helvetica,sans-Serif" font-size="10.00">opengl::GlTexture2d</text>
<text text-anchor="middle" x="52" y="-127.5" font-family="Helvetica,sans-Serif" font-size="10.00">::upload</text>
</a>
</g>
</g>
<!-- Node12 -->
<g id="node2" class="node"><title>Node12</title>
<g id="a_node2"><a xlink:href="namespaceopenage_1_1log.xhtml#a325b0901ddb3f2af36f93781b7dd9744" target="_top" xlink:title="error message">
<polygon fill="white" stroke="black" points="162.5,-240.5 162.5,-259.5 245.5,-259.5 245.5,-240.5 162.5,-240.5"/>
<text text-anchor="middle" x="204" y="-247.5" font-family="Helvetica,sans-Serif" font-size="10.00">openage.log.err</text>
</a>
</g>
</g>
<!-- Node11&#45;&gt;Node12 -->
<g id="edge1" class="edge"><title>Node11&#45;&gt;Node12</title>
<path fill="none" stroke="midnightblue" d="M68.0035,-161.839C83.751,-182.266 110.314,-212.896 140,-231 144.054,-233.472 148.452,-235.642 152.976,-237.544"/>
<polygon fill="midnightblue" stroke="midnightblue" points="151.776,-240.832 162.368,-241.079 154.242,-234.28 151.776,-240.832"/>
</g>
<!-- Node13 -->
<g id="node3" class="node"><title>Node13</title>
<g id="a_node3"><a xlink:href="classopenage_1_1renderer_1_1resources_1_1_texture2d_data.xhtml#a04a2df204bf7d3f7029b2e74ee417fec" target="_top" xlink:title="Returns a pointer to the raw texture data, in row&#45;major order.">
<polygon fill="white" stroke="black" points="140,-180.5 140,-221.5 268,-221.5 268,-180.5 140,-180.5"/>
<text text-anchor="start" x="148" y="-209.5" font-family="Helvetica,sans-Serif" font-size="10.00">openage::renderer::</text>
<text text-anchor="start" x="148" y="-198.5" font-family="Helvetica,sans-Serif" font-size="10.00">resources::Texture2dData</text>
<text text-anchor="middle" x="204" y="-187.5" font-family="Helvetica,sans-Serif" font-size="10.00">::get_data</text>
</a>
</g>
</g>
<!-- Node11&#45;&gt;Node13 -->
<g id="edge2" class="edge"><title>Node11&#45;&gt;Node13</title>
<path fill="none" stroke="midnightblue" d="M104.202,-161.481C116.376,-166.35 129.482,-171.593 142.044,-176.618"/>
<polygon fill="midnightblue" stroke="midnightblue" points="140.935,-179.944 151.52,-180.408 143.535,-173.444 140.935,-179.944"/>
</g>
<!-- Node14 -->
<g id="node4" class="node"><title>Node14</title>
<g id="a_node4"><a xlink:href="classopenage_1_1renderer_1_1resources_1_1_texture2d_info.xhtml#a57830eb6623cc7171953bc0214c6ee2c" target="_top" xlink:title=" ">
<polygon fill="white" stroke="black" points="142.5,-120.5 142.5,-161.5 265.5,-161.5 265.5,-120.5 142.5,-120.5"/>
<text text-anchor="start" x="150.5" y="-149.5" font-family="Helvetica,sans-Serif" font-size="10.00">openage::renderer::</text>
<text text-anchor="start" x="150.5" y="-138.5" font-family="Helvetica,sans-Serif" font-size="10.00">resources::Texture2dInfo</text>
<text text-anchor="middle" x="204" y="-127.5" font-family="Helvetica,sans-Serif" font-size="10.00">::get_format</text>
</a>
</g>
</g>
<!-- Node11&#45;&gt;Node14 -->
<g id="edge3" class="edge"><title>Node11&#45;&gt;Node14</title>
<path fill="none" stroke="midnightblue" d="M104.202,-141C113.239,-141 122.791,-141 132.252,-141"/>
<polygon fill="midnightblue" stroke="midnightblue" points="132.455,-144.5 142.455,-141 132.455,-137.5 132.455,-144.5"/>
</g>
<!-- Node15 -->
<g id="node5" class="node"><title>Node15</title>
<g id="a_node5"><a xlink:href="classopenage_1_1renderer_1_1resources_1_1_texture2d_data.xhtml#a4a3717b88a0cfe57351eb76866a8aed5" target="_top" xlink:title="Returns the information describing this texture data.">
<polygon fill="white" stroke="black" points="140,-60.5 140,-101.5 268,-101.5 268,-60.5 140,-60.5"/>
<text text-anchor="start" x="148" y="-89.5" font-family="Helvetica,sans-Serif" font-size="10.00">openage::renderer::</text>
<text text-anchor="start" x="148" y="-78.5" font-family="Helvetica,sans-Serif" font-size="10.00">resources::Texture2dData</text>
<text text-anchor="middle" x="204" y="-67.5" font-family="Helvetica,sans-Serif" font-size="10.00">::get_info</text>
</a>
</g>
</g>
<!-- Node11&#45;&gt;Node15 -->
<g id="edge4" class="edge"><title>Node11&#45;&gt;Node15</title>
<path fill="none" stroke="midnightblue" d="M104.202,-120.519C116.376,-115.65 129.482,-110.407 142.044,-105.382"/>
<polygon fill="midnightblue" stroke="midnightblue" points="143.535,-108.556 151.52,-101.592 140.935,-102.056 143.535,-108.556"/>
</g>
<!-- Node16 -->
<g id="node6" class="node"><title>Node16</title>
<g id="a_node6"><a xlink:href="classopenage_1_1renderer_1_1resources_1_1_texture2d_info.xhtml#a3bd462432c63a67c1b199c3f717bce50" target="_top" xlink:title="Returns the dimensions of the whole texture bitmap.">
<polygon fill="white" stroke="black" points="142.5,-0.5 142.5,-41.5 265.5,-41.5 265.5,-0.5 142.5,-0.5"/>
<text text-anchor="start" x="150.5" y="-29.5" font-family="Helvetica,sans-Serif" font-size="10.00">openage::renderer::</text>
<text text-anchor="start" x="150.5" y="-18.5" font-family="Helvetica,sans-Serif" font-size="10.00">resources::Texture2dInfo</text>
<text text-anchor="middle" x="204" y="-7.5" font-family="Helvetica,sans-Serif" font-size="10.00">::get_size</text>
</a>
</g>
</g>
<!-- Node11&#45;&gt;Node16 -->
<g id="edge5" class="edge"><title>Node11&#45;&gt;Node16</title>
<path fill="none" stroke="midnightblue" d="M69.2309,-120.343C85.5158,-100.63 112.122,-71.0451 140,-51 142.065,-49.5149 144.216,-48.0715 146.424,-46.673"/>
<polygon fill="midnightblue" stroke="midnightblue" points="148.335,-49.609 155.164,-41.5085 144.774,-43.5825 148.335,-49.609"/>
</g>
</g>
</svg>
