<?xml version="1.0" encoding="UTF-8" standalone="no"?>
<!DOCTYPE svg PUBLIC "-//W3C//DTD SVG 1.1//EN"
 "http://www.w3.org/Graphics/SVG/1.1/DTD/svg11.dtd">
<!-- Generated by graphviz version 2.38.0 (20140413.2041)
 -->
<!-- Title: openage::UnitAction Pages: 1 -->
<svg width="1554pt" height="793pt"
 viewBox="0.00 0.00 1553.50 793.00" xmlns="http://www.w3.org/2000/svg" xmlns:xlink="http://www.w3.org/1999/xlink">
<g id="graph0" class="graph" transform="scale(1 1) rotate(0) translate(4 789)">
<title>openage::UnitAction</title>
<polygon fill="white" stroke="none" points="-4,4 -4,-789 1549.5,-789 1549.5,4 -4,4"/>
<!-- Node0 -->
<g id="node1" class="node"><title>Node0</title>
<g id="a_node1"><a xlink:title=" ">
<polygon fill="#bfbfbf" stroke="black" points="604,-485.5 604,-784.5 712,-784.5 712,-485.5 604,-485.5"/>
<text text-anchor="middle" x="658" y="-772.5" font-family="Helvetica,sans-Serif" font-size="10.00">openage::UnitAction</text>
<polyline fill="none" stroke="black" points="604,-765.5 712,-765.5 "/>
<text text-anchor="start" x="612" y="-753.5" font-family="Helvetica,sans-Serif" font-size="10.00">+ show_debug</text>
<text text-anchor="start" x="612" y="-742.5" font-family="Helvetica,sans-Serif" font-size="10.00"># entity</text>
<text text-anchor="start" x="612" y="-731.5" font-family="Helvetica,sans-Serif" font-size="10.00"># graphic</text>
<text text-anchor="start" x="612" y="-720.5" font-family="Helvetica,sans-Serif" font-size="10.00"># frame</text>
<text text-anchor="start" x="612" y="-709.5" font-family="Helvetica,sans-Serif" font-size="10.00"># frame_rate</text>
<text text-anchor="start" x="612" y="-698.5" font-family="Helvetica,sans-Serif" font-size="10.00"># debug_draw_action</text>
<polyline fill="none" stroke="black" points="604,-691.5 712,-691.5 "/>
<text text-anchor="start" x="612" y="-679.5" font-family="Helvetica,sans-Serif" font-size="10.00">+ UnitAction()</text>
<text text-anchor="start" x="612" y="-668.5" font-family="Helvetica,sans-Serif" font-size="10.00">+ ~UnitAction()</text>
<text text-anchor="start" x="612" y="-657.5" font-family="Helvetica,sans-Serif" font-size="10.00">+ type()</text>
<text text-anchor="start" x="612" y="-646.5" font-family="Helvetica,sans-Serif" font-size="10.00">+ current_frame()</text>
<text text-anchor="start" x="612" y="-635.5" font-family="Helvetica,sans-Serif" font-size="10.00">+ update()</text>
<text text-anchor="start" x="612" y="-624.5" font-family="Helvetica,sans-Serif" font-size="10.00">+ on_completion()</text>
<text text-anchor="start" x="612" y="-613.5" font-family="Helvetica,sans-Serif" font-size="10.00">+ completed()</text>
<text text-anchor="start" x="612" y="-602.5" font-family="Helvetica,sans-Serif" font-size="10.00">+ allow_interupt()</text>
<text text-anchor="start" x="612" y="-591.5" font-family="Helvetica,sans-Serif" font-size="10.00">+ allow_control()</text>
<text text-anchor="start" x="612" y="-580.5" font-family="Helvetica,sans-Serif" font-size="10.00">+ name()</text>
<text text-anchor="start" x="612" y="-569.5" font-family="Helvetica,sans-Serif" font-size="10.00">+ current_graphics()</text>
<text text-anchor="start" x="612" y="-558.5" font-family="Helvetica,sans-Serif" font-size="10.00">+ draw_debug()</text>
<text text-anchor="start" x="612" y="-547.5" font-family="Helvetica,sans-Serif" font-size="10.00">+ face_towards()</text>
<text text-anchor="start" x="612" y="-536.5" font-family="Helvetica,sans-Serif" font-size="10.00">+ damage_unit()</text>
<text text-anchor="start" x="612" y="-525.5" font-family="Helvetica,sans-Serif" font-size="10.00">+ move_to()</text>
<text text-anchor="start" x="612" y="-514.5" font-family="Helvetica,sans-Serif" font-size="10.00">+ adjacent_range()</text>
<text text-anchor="start" x="612" y="-503.5" font-family="Helvetica,sans-Serif" font-size="10.00">+ get_attack_range()</text>
<text text-anchor="start" x="612" y="-492.5" font-family="Helvetica,sans-Serif" font-size="10.00">+ get_heal_range()</text>
</a>
</g>
</g>
<!-- Node1 -->
<g id="node2" class="node"><title>Node1</title>
<g id="a_node2"><a xlink:href="classopenage_1_1_dead_action.xhtml" target="_top" xlink:title=" ">
<polygon fill="white" stroke="black" points="0,-248.5 0,-393.5 110,-393.5 110,-248.5 0,-248.5"/>
<text text-anchor="middle" x="55" y="-381.5" font-family="Helvetica,sans-Serif" font-size="10.00">openage::DeadAction</text>
<polyline fill="none" stroke="black" points="0,-374.5 110,-374.5 "/>
<text text-anchor="start" x="8" y="-362.5" font-family="Helvetica,sans-Serif" font-size="10.00">&#45; end_frame</text>
<text text-anchor="start" x="8" y="-351.5" font-family="Helvetica,sans-Serif" font-size="10.00">&#45; on_complete_func</text>
<polyline fill="none" stroke="black" points="0,-344.5 110,-344.5 "/>
<text text-anchor="start" x="8" y="-332.5" font-family="Helvetica,sans-Serif" font-size="10.00">+ DeadAction()</text>
<text text-anchor="start" x="8" y="-321.5" font-family="Helvetica,sans-Serif" font-size="10.00">+ ~DeadAction()</text>
<text text-anchor="start" x="8" y="-310.5" font-family="Helvetica,sans-Serif" font-size="10.00">+ update()</text>
<text text-anchor="start" x="8" y="-299.5" font-family="Helvetica,sans-Serif" font-size="10.00">+ on_completion()</text>
<text text-anchor="start" x="8" y="-288.5" font-family="Helvetica,sans-Serif" font-size="10.00">+ completed()</text>
<text text-anchor="start" x="8" y="-277.5" font-family="Helvetica,sans-Serif" font-size="10.00">+ allow_interupt()</text>
<text text-anchor="start" x="8" y="-266.5" font-family="Helvetica,sans-Serif" font-size="10.00">+ allow_control()</text>
<text text-anchor="start" x="8" y="-255.5" font-family="Helvetica,sans-Serif" font-size="10.00">+ name()</text>
</a>
</g>
</g>
<!-- Node0&#45;&gt;Node1 -->
<g id="edge1" class="edge"><title>Node0&#45;&gt;Node1</title>
<path fill="none" stroke="midnightblue" d="M593.448,-627.46C483.942,-613.269 260.049,-570.47 120,-449 102.879,-434.151 89.6934,-413.692 79.8168,-393.531"/>
<polygon fill="none" stroke="midnightblue" points="593.323,-630.972 603.681,-628.746 594.195,-624.026 593.323,-630.972"/>
</g>
<!-- Node2 -->
<g id="node3" class="node"><title>Node2</title>
<g id="a_node3"><a xlink:href="classopenage_1_1_decay_action.xhtml" target="_top" xlink:title=" ">
<polygon fill="white" stroke="black" points="128.5,-254 128.5,-388 243.5,-388 243.5,-254 128.5,-254"/>
<text text-anchor="middle" x="186" y="-376" font-family="Helvetica,sans-Serif" font-size="10.00">openage::DecayAction</text>
<polyline fill="none" stroke="black" points="128.5,-369 243.5,-369 "/>
<text text-anchor="start" x="136.5" y="-357" font-family="Helvetica,sans-Serif" font-size="10.00">&#45; end_frame</text>
<polyline fill="none" stroke="black" points="128.5,-350 243.5,-350 "/>
<text text-anchor="start" x="136.5" y="-338" font-family="Helvetica,sans-Serif" font-size="10.00">+ DecayAction()</text>
<text text-anchor="start" x="136.5" y="-327" font-family="Helvetica,sans-Serif" font-size="10.00">+ ~DecayAction()</text>
<text text-anchor="start" x="136.5" y="-316" font-family="Helvetica,sans-Serif" font-size="10.00">+ update()</text>
<text text-anchor="start" x="136.5" y="-305" font-family="Helvetica,sans-Serif" font-size="10.00">+ on_completion()</text>
<text text-anchor="start" x="136.5" y="-294" font-family="Helvetica,sans-Serif" font-size="10.00">+ completed()</text>
<text text-anchor="start" x="136.5" y="-283" font-family="Helvetica,sans-Serif" font-size="10.00">+ allow_interupt()</text>
<text text-anchor="start" x="136.5" y="-272" font-family="Helvetica,sans-Serif" font-size="10.00">+ allow_control()</text>
<text text-anchor="start" x="136.5" y="-261" font-family="Helvetica,sans-Serif" font-size="10.00">+ name()</text>
</a>
</g>
</g>
<!-- Node0&#45;&gt;Node2 -->
<g id="edge2" class="edge"><title>Node0&#45;&gt;Node2</title>
<path fill="none" stroke="midnightblue" d="M594.061,-618.739C507.451,-595.241 352.29,-542.789 253,-449 235.24,-432.224 221.259,-409.681 210.767,-388.245"/>
<polygon fill="none" stroke="midnightblue" points="593.197,-622.131 603.762,-621.328 595.002,-615.368 593.197,-622.131"/>
</g>
<!-- Node3 -->
<g id="node4" class="node"><title>Node3</title>
<g id="a_node4"><a xlink:href="classopenage_1_1_foundation_action.xhtml" target="_top" xlink:title=" ">
<polygon fill="white" stroke="black" points="261.5,-248.5 261.5,-393.5 396.5,-393.5 396.5,-248.5 261.5,-248.5"/>
<text text-anchor="middle" x="329" y="-381.5" font-family="Helvetica,sans-Serif" font-size="10.00">openage::FoundationAction</text>
<polyline fill="none" stroke="black" points="261.5,-374.5 396.5,-374.5 "/>
<text text-anchor="start" x="269.5" y="-362.5" font-family="Helvetica,sans-Serif" font-size="10.00">&#45; add_destruct_effect</text>
<text text-anchor="start" x="269.5" y="-351.5" font-family="Helvetica,sans-Serif" font-size="10.00">&#45; cancel</text>
<polyline fill="none" stroke="black" points="261.5,-344.5 396.5,-344.5 "/>
<text text-anchor="start" x="269.5" y="-332.5" font-family="Helvetica,sans-Serif" font-size="10.00">+ FoundationAction()</text>
<text text-anchor="start" x="269.5" y="-321.5" font-family="Helvetica,sans-Serif" font-size="10.00">+ ~FoundationAction()</text>
<text text-anchor="start" x="269.5" y="-310.5" font-family="Helvetica,sans-Serif" font-size="10.00">+ update()</text>
<text text-anchor="start" x="269.5" y="-299.5" font-family="Helvetica,sans-Serif" font-size="10.00">+ on_completion()</text>
<text text-anchor="start" x="269.5" y="-288.5" font-family="Helvetica,sans-Serif" font-size="10.00">+ completed()</text>
<text text-anchor="start" x="269.5" y="-277.5" font-family="Helvetica,sans-Serif" font-size="10.00">+ allow_interupt()</text>
<text text-anchor="start" x="269.5" y="-266.5" font-family="Helvetica,sans-Serif" font-size="10.00">+ allow_control()</text>
<text text-anchor="start" x="269.5" y="-255.5" font-family="Helvetica,sans-Serif" font-size="10.00">+ name()</text>
</a>
</g>
</g>
<!-- Node0&#45;&gt;Node3 -->
<g id="edge3" class="edge"><title>Node0&#45;&gt;Node3</title>
<path fill="none" stroke="midnightblue" d="M595.233,-597.727C540.705,-564.075 461.919,-510.084 406,-449 390.94,-432.549 377.266,-412.715 365.761,-393.664"/>
<polygon fill="none" stroke="midnightblue" points="593.412,-600.717 603.768,-602.952 597.066,-594.746 593.412,-600.717"/>
</g>
<!-- Node4 -->
<g id="node5" class="node"><title>Node4</title>
<g id="a_node5"><a xlink:href="classopenage_1_1_idle_action.xhtml" target="_top" xlink:title=" ">
<polygon fill="white" stroke="black" points="415,-248.5 415,-393.5 517,-393.5 517,-248.5 415,-248.5"/>
<text text-anchor="middle" x="466" y="-381.5" font-family="Helvetica,sans-Serif" font-size="10.00">openage::IdleAction</text>
<polyline fill="none" stroke="black" points="415,-374.5 517,-374.5 "/>
<text text-anchor="start" x="423" y="-362.5" font-family="Helvetica,sans-Serif" font-size="10.00">&#45; search</text>
<text text-anchor="start" x="423" y="-351.5" font-family="Helvetica,sans-Serif" font-size="10.00">&#45; auto_abilities</text>
<polyline fill="none" stroke="black" points="415,-344.5 517,-344.5 "/>
<text text-anchor="start" x="423" y="-332.5" font-family="Helvetica,sans-Serif" font-size="10.00">+ IdleAction()</text>
<text text-anchor="start" x="423" y="-321.5" font-family="Helvetica,sans-Serif" font-size="10.00">+ ~IdleAction()</text>
<text text-anchor="start" x="423" y="-310.5" font-family="Helvetica,sans-Serif" font-size="10.00">+ update()</text>
<text text-anchor="start" x="423" y="-299.5" font-family="Helvetica,sans-Serif" font-size="10.00">+ on_completion()</text>
<text text-anchor="start" x="423" y="-288.5" font-family="Helvetica,sans-Serif" font-size="10.00">+ completed()</text>
<text text-anchor="start" x="423" y="-277.5" font-family="Helvetica,sans-Serif" font-size="10.00">+ allow_interupt()</text>
<text text-anchor="start" x="423" y="-266.5" font-family="Helvetica,sans-Serif" font-size="10.00">+ allow_control()</text>
<text text-anchor="start" x="423" y="-255.5" font-family="Helvetica,sans-Serif" font-size="10.00">+ name()</text>
</a>
</g>
</g>
<!-- Node0&#45;&gt;Node4 -->
<g id="edge4" class="edge"><title>Node0&#45;&gt;Node4</title>
<path fill="none" stroke="midnightblue" d="M597.878,-556.307C574.125,-523.992 547.442,-485.549 526,-449 515.758,-431.542 505.851,-412.055 497.137,-393.689"/>
<polygon fill="none" stroke="midnightblue" points="595.091,-558.424 603.849,-564.386 600.72,-554.264 595.091,-558.424"/>
</g>
<!-- Node5 -->
<g id="node6" class="node"><title>Node5</title>
<g id="a_node6"><a xlink:href="classopenage_1_1_move_action.xhtml" target="_top" xlink:title=" ">
<polygon fill="white" stroke="black" points="535,-193.5 535,-448.5 645,-448.5 645,-193.5 535,-193.5"/>
<text text-anchor="middle" x="590" y="-436.5" font-family="Helvetica,sans-Serif" font-size="10.00">openage::MoveAction</text>
<polyline fill="none" stroke="black" points="535,-429.5 645,-429.5 "/>
<text text-anchor="start" x="543" y="-417.5" font-family="Helvetica,sans-Serif" font-size="10.00">&#45; unit_target</text>
<text text-anchor="start" x="543" y="-406.5" font-family="Helvetica,sans-Serif" font-size="10.00">&#45; target</text>
<text text-anchor="start" x="543" y="-395.5" font-family="Helvetica,sans-Serif" font-size="10.00">&#45; distance_to_target</text>
<text text-anchor="start" x="543" y="-384.5" font-family="Helvetica,sans-Serif" font-size="10.00">&#45; radius</text>
<text text-anchor="start" x="543" y="-373.5" font-family="Helvetica,sans-Serif" font-size="10.00">&#45; path</text>
<text text-anchor="start" x="543" y="-362.5" font-family="Helvetica,sans-Serif" font-size="10.00">&#45; allow_repath</text>
<text text-anchor="start" x="543" y="-351.5" font-family="Helvetica,sans-Serif" font-size="10.00">&#45; end_action</text>
<polyline fill="none" stroke="black" points="535,-344.5 645,-344.5 "/>
<text text-anchor="start" x="543" y="-332.5" font-family="Helvetica,sans-Serif" font-size="10.00">+ MoveAction()</text>
<text text-anchor="start" x="543" y="-321.5" font-family="Helvetica,sans-Serif" font-size="10.00">+ MoveAction()</text>
<text text-anchor="start" x="543" y="-310.5" font-family="Helvetica,sans-Serif" font-size="10.00">+ ~MoveAction()</text>
<text text-anchor="start" x="543" y="-299.5" font-family="Helvetica,sans-Serif" font-size="10.00">+ update()</text>
<text text-anchor="start" x="543" y="-288.5" font-family="Helvetica,sans-Serif" font-size="10.00">+ on_completion()</text>
<text text-anchor="start" x="543" y="-277.5" font-family="Helvetica,sans-Serif" font-size="10.00">+ completed()</text>
<text text-anchor="start" x="543" y="-266.5" font-family="Helvetica,sans-Serif" font-size="10.00">+ allow_interupt()</text>
<text text-anchor="start" x="543" y="-255.5" font-family="Helvetica,sans-Serif" font-size="10.00">+ allow_control()</text>
<text text-anchor="start" x="543" y="-244.5" font-family="Helvetica,sans-Serif" font-size="10.00">+ name()</text>
<text text-anchor="start" x="543" y="-233.5" font-family="Helvetica,sans-Serif" font-size="10.00">+ next_waypoint()</text>
<text text-anchor="start" x="543" y="-222.5" font-family="Helvetica,sans-Serif" font-size="10.00">&#45; initialise()</text>
<text text-anchor="start" x="543" y="-211.5" font-family="Helvetica,sans-Serif" font-size="10.00">&#45; set_path()</text>
<text text-anchor="start" x="543" y="-200.5" font-family="Helvetica,sans-Serif" font-size="10.00">&#45; set_distance()</text>
</a>
</g>
</g>
<!-- Node0&#45;&gt;Node5 -->
<g id="edge5" class="edge"><title>Node0&#45;&gt;Node5</title>
<path fill="none" stroke="midnightblue" d="M623.403,-475.26C621.463,-466.358 619.525,-457.468 617.615,-448.706"/>
<polygon fill="none" stroke="midnightblue" points="620.044,-476.285 625.593,-485.31 626.883,-474.794 620.044,-476.285"/>
</g>
<!-- Node6 -->
<g id="node7" class="node"><title>Node6</title>
<g id="a_node7"><a xlink:href="classopenage_1_1_projectile_action.xhtml" target="_top" xlink:title=" ">
<polygon fill="white" stroke="black" points="663,-248.5 663,-393.5 791,-393.5 791,-248.5 663,-248.5"/>
<text text-anchor="middle" x="727" y="-381.5" font-family="Helvetica,sans-Serif" font-size="10.00">openage::ProjectileAction</text>
<polyline fill="none" stroke="black" points="663,-374.5 791,-374.5 "/>
<text text-anchor="start" x="671" y="-362.5" font-family="Helvetica,sans-Serif" font-size="10.00">&#45; grav</text>
<text text-anchor="start" x="671" y="-351.5" font-family="Helvetica,sans-Serif" font-size="10.00">&#45; has_hit</text>
<polyline fill="none" stroke="black" points="663,-344.5 791,-344.5 "/>
<text text-anchor="start" x="671" y="-332.5" font-family="Helvetica,sans-Serif" font-size="10.00">+ ProjectileAction()</text>
<text text-anchor="start" x="671" y="-321.5" font-family="Helvetica,sans-Serif" font-size="10.00">+ ~ProjectileAction()</text>
<text text-anchor="start" x="671" y="-310.5" font-family="Helvetica,sans-Serif" font-size="10.00">+ update()</text>
<text text-anchor="start" x="671" y="-299.5" font-family="Helvetica,sans-Serif" font-size="10.00">+ on_completion()</text>
<text text-anchor="start" x="671" y="-288.5" font-family="Helvetica,sans-Serif" font-size="10.00">+ completed()</text>
<text text-anchor="start" x="671" y="-277.5" font-family="Helvetica,sans-Serif" font-size="10.00">+ allow_interupt()</text>
<text text-anchor="start" x="671" y="-266.5" font-family="Helvetica,sans-Serif" font-size="10.00">+ allow_control()</text>
<text text-anchor="start" x="671" y="-255.5" font-family="Helvetica,sans-Serif" font-size="10.00">+ name()</text>
</a>
</g>
</g>
<!-- Node0&#45;&gt;Node6 -->
<g id="edge6" class="edge"><title>Node0&#45;&gt;Node6</title>
<path fill="none" stroke="midnightblue" d="M693.114,-475.222C699.423,-446.697 705.704,-418.297 711.113,-393.836"/>
<polygon fill="none" stroke="midnightblue" points="689.625,-474.79 690.883,-485.31 696.46,-476.302 689.625,-474.79"/>
</g>
<!-- Node7 -->
<g id="node8" class="node"><title>Node7</title>
<g id="a_node8"><a xlink:href="classopenage_1_1_research_action.xhtml" target="_top" xlink:title=" ">
<polygon fill="white" stroke="black" points="809,-232 809,-410 937,-410 937,-232 809,-232"/>
<text text-anchor="middle" x="873" y="-398" font-family="Helvetica,sans-Serif" font-size="10.00">openage::ResearchAction</text>
<polyline fill="none" stroke="black" points="809,-391 937,-391 "/>
<text text-anchor="start" x="817" y="-379" font-family="Helvetica,sans-Serif" font-size="10.00">&#45; research</text>
<text text-anchor="start" x="817" y="-368" font-family="Helvetica,sans-Serif" font-size="10.00">&#45; timer</text>
<text text-anchor="start" x="817" y="-357" font-family="Helvetica,sans-Serif" font-size="10.00">&#45; complete</text>
<polyline fill="none" stroke="black" points="809,-350 937,-350 "/>
<text text-anchor="start" x="817" y="-338" font-family="Helvetica,sans-Serif" font-size="10.00">+ ResearchAction()</text>
<text text-anchor="start" x="817" y="-327" font-family="Helvetica,sans-Serif" font-size="10.00">+ ~ResearchAction()</text>
<text text-anchor="start" x="817" y="-316" font-family="Helvetica,sans-Serif" font-size="10.00">+ update()</text>
<text text-anchor="start" x="817" y="-305" font-family="Helvetica,sans-Serif" font-size="10.00">+ on_completion()</text>
<text text-anchor="start" x="817" y="-294" font-family="Helvetica,sans-Serif" font-size="10.00">+ completed()</text>
<text text-anchor="start" x="817" y="-283" font-family="Helvetica,sans-Serif" font-size="10.00">+ allow_interupt()</text>
<text text-anchor="start" x="817" y="-272" font-family="Helvetica,sans-Serif" font-size="10.00">+ allow_control()</text>
<text text-anchor="start" x="817" y="-261" font-family="Helvetica,sans-Serif" font-size="10.00">+ name()</text>
<text text-anchor="start" x="817" y="-250" font-family="Helvetica,sans-Serif" font-size="10.00">+ get_progress()</text>
<text text-anchor="start" x="817" y="-239" font-family="Helvetica,sans-Serif" font-size="10.00">+ get_research_type()</text>
</a>
</g>
</g>
<!-- Node0&#45;&gt;Node7 -->
<g id="edge7" class="edge"><title>Node0&#45;&gt;Node7</title>
<path fill="none" stroke="midnightblue" d="M718.347,-560.075C744.504,-526.867 774.835,-486.734 800,-449 808.255,-436.623 816.549,-423.27 824.433,-410.035"/>
<polygon fill="none" stroke="midnightblue" points="715.598,-557.909 712.141,-567.924 721.089,-562.25 715.598,-557.909"/>
</g>
<!-- Node8 -->
<g id="node9" class="node"><title>Node8</title>
<g id="a_node9"><a xlink:href="classopenage_1_1_target_action.xhtml" target="_top" xlink:title=" ">
<polygon fill="white" stroke="black" points="955,-210 955,-432 1069,-432 1069,-210 955,-210"/>
<text text-anchor="middle" x="1012" y="-420" font-family="Helvetica,sans-Serif" font-size="10.00">openage::TargetAction</text>
<polyline fill="none" stroke="black" points="955,-413 1069,-413 "/>
<text text-anchor="start" x="963" y="-401" font-family="Helvetica,sans-Serif" font-size="10.00">&#45; target</text>
<text text-anchor="start" x="963" y="-390" font-family="Helvetica,sans-Serif" font-size="10.00">&#45; target_type_id</text>
<text text-anchor="start" x="963" y="-379" font-family="Helvetica,sans-Serif" font-size="10.00">&#45; repath_attempts</text>
<text text-anchor="start" x="963" y="-368" font-family="Helvetica,sans-Serif" font-size="10.00">&#45; end_action</text>
<text text-anchor="start" x="963" y="-357" font-family="Helvetica,sans-Serif" font-size="10.00">&#45; dist_to_target</text>
<text text-anchor="start" x="963" y="-346" font-family="Helvetica,sans-Serif" font-size="10.00">&#45; radius</text>
<polyline fill="none" stroke="black" points="955,-339 1069,-339 "/>
<text text-anchor="start" x="963" y="-327" font-family="Helvetica,sans-Serif" font-size="10.00">+ TargetAction()</text>
<text text-anchor="start" x="963" y="-316" font-family="Helvetica,sans-Serif" font-size="10.00">+ TargetAction()</text>
<text text-anchor="start" x="963" y="-305" font-family="Helvetica,sans-Serif" font-size="10.00">+ ~TargetAction()</text>
<text text-anchor="start" x="963" y="-294" font-family="Helvetica,sans-Serif" font-size="10.00">+ update()</text>
<text text-anchor="start" x="963" y="-283" font-family="Helvetica,sans-Serif" font-size="10.00">+ on_completion()</text>
<text text-anchor="start" x="963" y="-272" font-family="Helvetica,sans-Serif" font-size="10.00">+ completed()</text>
<text text-anchor="start" x="963" y="-261" font-family="Helvetica,sans-Serif" font-size="10.00">+ allow_interupt()</text>
<text text-anchor="start" x="963" y="-250" font-family="Helvetica,sans-Serif" font-size="10.00">+ allow_control()</text>
<text text-anchor="start" x="963" y="-239" font-family="Helvetica,sans-Serif" font-size="10.00">+ name()</text>
<text text-anchor="start" x="963" y="-228" font-family="Helvetica,sans-Serif" font-size="10.00">+ update_in_range()</text>
<text text-anchor="start" x="963" y="-217" font-family="Helvetica,sans-Serif" font-size="10.00">and 7 more...</text>
</a>
</g>
</g>
<!-- Node0&#45;&gt;Node8 -->
<g id="edge8" class="edge"><title>Node0&#45;&gt;Node8</title>
<path fill="none" stroke="midnightblue" d="M721.096,-605.588C784.425,-574.524 881.582,-519.614 946,-449 950.773,-443.768 955.301,-438.127 959.579,-432.233"/>
<polygon fill="none" stroke="midnightblue" points="719.476,-602.484 712.006,-609.998 722.531,-608.782 719.476,-602.484"/>
</g>
<!-- Node16 -->
<g id="node17" class="node"><title>Node16</title>
<g id="a_node17"><a xlink:href="classopenage_1_1_train_action.xhtml" target="_top" xlink:title=" ">
<polygon fill="white" stroke="black" points="1087,-232 1087,-410 1195,-410 1195,-232 1087,-232"/>
<text text-anchor="middle" x="1141" y="-398" font-family="Helvetica,sans-Serif" font-size="10.00">openage::TrainAction</text>
<polyline fill="none" stroke="black" points="1087,-391 1195,-391 "/>
<text text-anchor="start" x="1095" y="-379" font-family="Helvetica,sans-Serif" font-size="10.00">&#45; trained</text>
<text text-anchor="start" x="1095" y="-368" font-family="Helvetica,sans-Serif" font-size="10.00">&#45; timer</text>
<text text-anchor="start" x="1095" y="-357" font-family="Helvetica,sans-Serif" font-size="10.00">&#45; started</text>
<text text-anchor="start" x="1095" y="-346" font-family="Helvetica,sans-Serif" font-size="10.00">&#45; complete</text>
<polyline fill="none" stroke="black" points="1087,-339 1195,-339 "/>
<text text-anchor="start" x="1095" y="-327" font-family="Helvetica,sans-Serif" font-size="10.00">+ TrainAction()</text>
<text text-anchor="start" x="1095" y="-316" font-family="Helvetica,sans-Serif" font-size="10.00">+ ~TrainAction()</text>
<text text-anchor="start" x="1095" y="-305" font-family="Helvetica,sans-Serif" font-size="10.00">+ update()</text>
<text text-anchor="start" x="1095" y="-294" font-family="Helvetica,sans-Serif" font-size="10.00">+ on_completion()</text>
<text text-anchor="start" x="1095" y="-283" font-family="Helvetica,sans-Serif" font-size="10.00">+ completed()</text>
<text text-anchor="start" x="1095" y="-272" font-family="Helvetica,sans-Serif" font-size="10.00">+ allow_interupt()</text>
<text text-anchor="start" x="1095" y="-261" font-family="Helvetica,sans-Serif" font-size="10.00">+ allow_control()</text>
<text text-anchor="start" x="1095" y="-250" font-family="Helvetica,sans-Serif" font-size="10.00">+ name()</text>
<text text-anchor="start" x="1095" y="-239" font-family="Helvetica,sans-Serif" font-size="10.00">+ get_progress()</text>
</a>
</g>
</g>
<!-- Node0&#45;&gt;Node16 -->
<g id="edge16" class="edge"><title>Node0&#45;&gt;Node16</title>
<path fill="none" stroke="midnightblue" d="M721.812,-620.435C811.439,-598.462 975.134,-547.28 1078,-449 1089.57,-437.948 1099.32,-424.321 1107.44,-410.139"/>
<polygon fill="none" stroke="midnightblue" points="720.956,-617.041 712.052,-622.784 722.594,-623.847 720.956,-617.041"/>
</g>
<!-- Node17 -->
<g id="node18" class="node"><title>Node17</title>
<g id="a_node18"><a xlink:href="classopenage_1_1_ungarrison_action.xhtml" target="_top" xlink:title=" ">
<polygon fill="white" stroke="black" points="1213,-248.5 1213,-393.5 1347,-393.5 1347,-248.5 1213,-248.5"/>
<text text-anchor="middle" x="1280" y="-381.5" font-family="Helvetica,sans-Serif" font-size="10.00">openage::UngarrisonAction</text>
<polyline fill="none" stroke="black" points="1213,-374.5 1347,-374.5 "/>
<text text-anchor="start" x="1221" y="-362.5" font-family="Helvetica,sans-Serif" font-size="10.00">&#45; position</text>
<text text-anchor="start" x="1221" y="-351.5" font-family="Helvetica,sans-Serif" font-size="10.00">&#45; complete</text>
<polyline fill="none" stroke="black" points="1213,-344.5 1347,-344.5 "/>
<text text-anchor="start" x="1221" y="-332.5" font-family="Helvetica,sans-Serif" font-size="10.00">+ UngarrisonAction()</text>
<text text-anchor="start" x="1221" y="-321.5" font-family="Helvetica,sans-Serif" font-size="10.00">+ ~UngarrisonAction()</text>
<text text-anchor="start" x="1221" y="-310.5" font-family="Helvetica,sans-Serif" font-size="10.00">+ update()</text>
<text text-anchor="start" x="1221" y="-299.5" font-family="Helvetica,sans-Serif" font-size="10.00">+ on_completion()</text>
<text text-anchor="start" x="1221" y="-288.5" font-family="Helvetica,sans-Serif" font-size="10.00">+ completed()</text>
<text text-anchor="start" x="1221" y="-277.5" font-family="Helvetica,sans-Serif" font-size="10.00">+ allow_interupt()</text>
<text text-anchor="start" x="1221" y="-266.5" font-family="Helvetica,sans-Serif" font-size="10.00">+ allow_control()</text>
<text text-anchor="start" x="1221" y="-255.5" font-family="Helvetica,sans-Serif" font-size="10.00">+ name()</text>
</a>
</g>
</g>
<!-- Node0&#45;&gt;Node17 -->
<g id="edge17" class="edge"><title>Node0&#45;&gt;Node17</title>
<path fill="none" stroke="midnightblue" d="M722.317,-626.763C832.034,-611.502 1057.68,-567.111 1204,-449 1222.29,-434.233 1237.22,-413.797 1248.85,-393.632"/>
<polygon fill="none" stroke="midnightblue" points="721.826,-623.298 712.386,-628.109 722.766,-630.234 721.826,-623.298"/>
</g>
<!-- Node9 -->
<g id="node10" class="node"><title>Node9</title>
<g id="a_node10"><a xlink:href="classopenage_1_1_attack_action.xhtml" target="_top" xlink:title=" ">
<polygon fill="white" stroke="black" points="478.5,-11.5 478.5,-145.5 615.5,-145.5 615.5,-11.5 478.5,-11.5"/>
<text text-anchor="middle" x="547" y="-133.5" font-family="Helvetica,sans-Serif" font-size="10.00">openage::AttackAction</text>
<polyline fill="none" stroke="black" points="478.5,-126.5 615.5,-126.5 "/>
<text text-anchor="start" x="486.5" y="-114.5" font-family="Helvetica,sans-Serif" font-size="10.00">&#45; timer</text>
<polyline fill="none" stroke="black" points="478.5,-107.5 615.5,-107.5 "/>
<text text-anchor="start" x="486.5" y="-95.5" font-family="Helvetica,sans-Serif" font-size="10.00">+ AttackAction()</text>
<text text-anchor="start" x="486.5" y="-84.5" font-family="Helvetica,sans-Serif" font-size="10.00">+ ~AttackAction()</text>
<text text-anchor="start" x="486.5" y="-73.5" font-family="Helvetica,sans-Serif" font-size="10.00">+ update_in_range()</text>
<text text-anchor="start" x="486.5" y="-62.5" font-family="Helvetica,sans-Serif" font-size="10.00">+ on_completion_in_range()</text>
<text text-anchor="start" x="486.5" y="-51.5" font-family="Helvetica,sans-Serif" font-size="10.00">+ completed_in_range()</text>
<text text-anchor="start" x="486.5" y="-40.5" font-family="Helvetica,sans-Serif" font-size="10.00">+ name()</text>
<text text-anchor="start" x="486.5" y="-29.5" font-family="Helvetica,sans-Serif" font-size="10.00">&#45; attack()</text>
<text text-anchor="start" x="486.5" y="-18.5" font-family="Helvetica,sans-Serif" font-size="10.00">&#45; fire_projectile()</text>
</a>
</g>
</g>
<!-- Node8&#45;&gt;Node9 -->
<g id="edge9" class="edge"><title>Node8&#45;&gt;Node9</title>
<path fill="none" stroke="midnightblue" d="M957.694,-202.471C954.029,-199.02 950.136,-195.839 946,-193 827.644,-111.749 754.46,-219.047 625,-157 618.458,-153.865 612.14,-149.953 606.123,-145.564"/>
<polygon fill="none" stroke="midnightblue" points="955.427,-205.162 964.897,-209.913 960.456,-200.293 955.427,-205.162"/>
</g>
<!-- Node10 -->
<g id="node11" class="node"><title>Node10</title>
<g id="a_node11"><a xlink:href="classopenage_1_1_build_action.xhtml" target="_top" xlink:title=" ">
<polygon fill="white" stroke="black" points="633.5,-0.5 633.5,-156.5 770.5,-156.5 770.5,-0.5 633.5,-0.5"/>
<text text-anchor="middle" x="702" y="-144.5" font-family="Helvetica,sans-Serif" font-size="10.00">openage::BuildAction</text>
<polyline fill="none" stroke="black" points="633.5,-137.5 770.5,-137.5 "/>
<text text-anchor="start" x="641.5" y="-125.5" font-family="Helvetica,sans-Serif" font-size="10.00">&#45; complete</text>
<text text-anchor="start" x="641.5" y="-114.5" font-family="Helvetica,sans-Serif" font-size="10.00">&#45; build_rate</text>
<text text-anchor="start" x="641.5" y="-103.5" font-family="Helvetica,sans-Serif" font-size="10.00">&#45; search_tile_distance</text>
<polyline fill="none" stroke="black" points="633.5,-96.5 770.5,-96.5 "/>
<text text-anchor="start" x="641.5" y="-84.5" font-family="Helvetica,sans-Serif" font-size="10.00">+ BuildAction()</text>
<text text-anchor="start" x="641.5" y="-73.5" font-family="Helvetica,sans-Serif" font-size="10.00">+ ~BuildAction()</text>
<text text-anchor="start" x="641.5" y="-62.5" font-family="Helvetica,sans-Serif" font-size="10.00">+ update_in_range()</text>
<text text-anchor="start" x="641.5" y="-51.5" font-family="Helvetica,sans-Serif" font-size="10.00">+ on_completion_in_range()</text>
<text text-anchor="start" x="641.5" y="-40.5" font-family="Helvetica,sans-Serif" font-size="10.00">+ completed_in_range()</text>
<text text-anchor="start" x="641.5" y="-29.5" font-family="Helvetica,sans-Serif" font-size="10.00">+ on_completion()</text>
<text text-anchor="start" x="641.5" y="-18.5" font-family="Helvetica,sans-Serif" font-size="10.00">+ name()</text>
<text text-anchor="start" x="641.5" y="-7.5" font-family="Helvetica,sans-Serif" font-size="10.00">+ get_progress()</text>
</a>
</g>
</g>
<!-- Node8&#45;&gt;Node10 -->
<g id="edge10" class="edge"><title>Node8&#45;&gt;Node10</title>
<path fill="none" stroke="midnightblue" d="M956.569,-202.254C953.23,-198.938 949.71,-195.835 946,-193 886.018,-147.16 846.328,-193.052 780,-157 776.813,-155.268 773.67,-153.366 770.581,-151.329"/>
<polygon fill="none" stroke="midnightblue" points="954.229,-204.878 963.593,-209.834 959.363,-200.12 954.229,-204.878"/>
</g>
<!-- Node11 -->
<g id="node12" class="node"><title>Node11</title>
<g id="a_node12"><a xlink:href="classopenage_1_1_convert_action.xhtml" target="_top" xlink:title=" ">
<polygon fill="white" stroke="black" points="788.5,-22.5 788.5,-134.5 925.5,-134.5 925.5,-22.5 788.5,-22.5"/>
<text text-anchor="middle" x="857" y="-122.5" font-family="Helvetica,sans-Serif" font-size="10.00">openage::ConvertAction</text>
<polyline fill="none" stroke="black" points="788.5,-115.5 925.5,-115.5 "/>
<text text-anchor="start" x="796.5" y="-103.5" font-family="Helvetica,sans-Serif" font-size="10.00">&#45; complete</text>
<polyline fill="none" stroke="black" points="788.5,-96.5 925.5,-96.5 "/>
<text text-anchor="start" x="796.5" y="-84.5" font-family="Helvetica,sans-Serif" font-size="10.00">+ ConvertAction()</text>
<text text-anchor="start" x="796.5" y="-73.5" font-family="Helvetica,sans-Serif" font-size="10.00">+ ~ConvertAction()</text>
<text text-anchor="start" x="796.5" y="-62.5" font-family="Helvetica,sans-Serif" font-size="10.00">+ update_in_range()</text>
<text text-anchor="start" x="796.5" y="-51.5" font-family="Helvetica,sans-Serif" font-size="10.00">+ on_completion_in_range()</text>
<text text-anchor="start" x="796.5" y="-40.5" font-family="Helvetica,sans-Serif" font-size="10.00">+ completed_in_range()</text>
<text text-anchor="start" x="796.5" y="-29.5" font-family="Helvetica,sans-Serif" font-size="10.00">+ name()</text>
</a>
</g>
</g>
<!-- Node8&#45;&gt;Node11 -->
<g id="edge11" class="edge"><title>Node8&#45;&gt;Node11</title>
<path fill="none" stroke="midnightblue" d="M951.059,-201.027C949.382,-198.31 947.694,-195.631 946,-193 933.256,-173.21 917.871,-152.651 903.503,-134.555"/>
<polygon fill="none" stroke="midnightblue" points="948.205,-203.072 956.375,-209.817 954.194,-199.449 948.205,-203.072"/>
</g>
<!-- Node12 -->
<g id="node13" class="node"><title>Node12</title>
<g id="a_node13"><a xlink:href="classopenage_1_1_garrison_action.xhtml" target="_top" xlink:title=" ">
<polygon fill="white" stroke="black" points="943.5,-22.5 943.5,-134.5 1080.5,-134.5 1080.5,-22.5 943.5,-22.5"/>
<text text-anchor="middle" x="1012" y="-122.5" font-family="Helvetica,sans-Serif" font-size="10.00">openage::GarrisonAction</text>
<polyline fill="none" stroke="black" points="943.5,-115.5 1080.5,-115.5 "/>
<text text-anchor="start" x="951.5" y="-103.5" font-family="Helvetica,sans-Serif" font-size="10.00">&#45; complete</text>
<polyline fill="none" stroke="black" points="943.5,-96.5 1080.5,-96.5 "/>
<text text-anchor="start" x="951.5" y="-84.5" font-family="Helvetica,sans-Serif" font-size="10.00">+ GarrisonAction()</text>
<text text-anchor="start" x="951.5" y="-73.5" font-family="Helvetica,sans-Serif" font-size="10.00">+ ~GarrisonAction()</text>
<text text-anchor="start" x="951.5" y="-62.5" font-family="Helvetica,sans-Serif" font-size="10.00">+ update_in_range()</text>
<text text-anchor="start" x="951.5" y="-51.5" font-family="Helvetica,sans-Serif" font-size="10.00">+ on_completion_in_range()</text>
<text text-anchor="start" x="951.5" y="-40.5" font-family="Helvetica,sans-Serif" font-size="10.00">+ completed_in_range()</text>
<text text-anchor="start" x="951.5" y="-29.5" font-family="Helvetica,sans-Serif" font-size="10.00">+ name()</text>
</a>
</g>
</g>
<!-- Node8&#45;&gt;Node12 -->
<g id="edge12" class="edge"><title>Node8&#45;&gt;Node12</title>
<path fill="none" stroke="midnightblue" d="M1012,-199.842C1012,-177.035 1012,-154.224 1012,-134.69"/>
<polygon fill="none" stroke="midnightblue" points="1008.5,-199.956 1012,-209.956 1015.5,-199.956 1008.5,-199.956"/>
</g>
<!-- Node13 -->
<g id="node14" class="node"><title>Node13</title>
<g id="a_node14"><a xlink:href="classopenage_1_1_gather_action.xhtml" target="_top" xlink:title=" ">
<polygon fill="white" stroke="black" points="1098.5,-0.5 1098.5,-156.5 1235.5,-156.5 1235.5,-0.5 1098.5,-0.5"/>
<text text-anchor="middle" x="1167" y="-144.5" font-family="Helvetica,sans-Serif" font-size="10.00">openage::GatherAction</text>
<polyline fill="none" stroke="black" points="1098.5,-137.5 1235.5,-137.5 "/>
<text text-anchor="start" x="1106.5" y="-125.5" font-family="Helvetica,sans-Serif" font-size="10.00">&#45; complete</text>
<text text-anchor="start" x="1106.5" y="-114.5" font-family="Helvetica,sans-Serif" font-size="10.00">&#45; target_resource</text>
<text text-anchor="start" x="1106.5" y="-103.5" font-family="Helvetica,sans-Serif" font-size="10.00">&#45; target</text>
<text text-anchor="start" x="1106.5" y="-92.5" font-family="Helvetica,sans-Serif" font-size="10.00">&#45; resource_class</text>
<polyline fill="none" stroke="black" points="1098.5,-85.5 1235.5,-85.5 "/>
<text text-anchor="start" x="1106.5" y="-73.5" font-family="Helvetica,sans-Serif" font-size="10.00">+ GatherAction()</text>
<text text-anchor="start" x="1106.5" y="-62.5" font-family="Helvetica,sans-Serif" font-size="10.00">+ ~GatherAction()</text>
<text text-anchor="start" x="1106.5" y="-51.5" font-family="Helvetica,sans-Serif" font-size="10.00">+ update_in_range()</text>
<text text-anchor="start" x="1106.5" y="-40.5" font-family="Helvetica,sans-Serif" font-size="10.00">+ on_completion_in_range()</text>
<text text-anchor="start" x="1106.5" y="-29.5" font-family="Helvetica,sans-Serif" font-size="10.00">+ completed_in_range()</text>
<text text-anchor="start" x="1106.5" y="-18.5" font-family="Helvetica,sans-Serif" font-size="10.00">+ name()</text>
<text text-anchor="start" x="1106.5" y="-7.5" font-family="Helvetica,sans-Serif" font-size="10.00">&#45; nearest_dropsite()</text>
</a>
</g>
</g>
<!-- Node8&#45;&gt;Node13 -->
<g id="edge13" class="edge"><title>Node8&#45;&gt;Node13</title>
<path fill="none" stroke="midnightblue" d="M1072.94,-201.027C1074.62,-198.31 1076.31,-195.631 1078,-193 1085.8,-180.895 1094.58,-168.501 1103.51,-156.56"/>
<polygon fill="none" stroke="midnightblue" points="1069.81,-199.449 1067.63,-209.817 1075.8,-203.072 1069.81,-199.449"/>
</g>
<!-- Node14 -->
<g id="node15" class="node"><title>Node14</title>
<g id="a_node15"><a xlink:href="classopenage_1_1_heal_action.xhtml" target="_top" xlink:title=" ">
<polygon fill="white" stroke="black" points="1253.5,-17 1253.5,-140 1390.5,-140 1390.5,-17 1253.5,-17"/>
<text text-anchor="middle" x="1322" y="-128" font-family="Helvetica,sans-Serif" font-size="10.00">openage::HealAction</text>
<polyline fill="none" stroke="black" points="1253.5,-121 1390.5,-121 "/>
<text text-anchor="start" x="1261.5" y="-109" font-family="Helvetica,sans-Serif" font-size="10.00">&#45; timer</text>
<polyline fill="none" stroke="black" points="1253.5,-102 1390.5,-102 "/>
<text text-anchor="start" x="1261.5" y="-90" font-family="Helvetica,sans-Serif" font-size="10.00">+ HealAction()</text>
<text text-anchor="start" x="1261.5" y="-79" font-family="Helvetica,sans-Serif" font-size="10.00">+ ~HealAction()</text>
<text text-anchor="start" x="1261.5" y="-68" font-family="Helvetica,sans-Serif" font-size="10.00">+ update_in_range()</text>
<text text-anchor="start" x="1261.5" y="-57" font-family="Helvetica,sans-Serif" font-size="10.00">+ on_completion_in_range()</text>
<text text-anchor="start" x="1261.5" y="-46" font-family="Helvetica,sans-Serif" font-size="10.00">+ completed_in_range()</text>
<text text-anchor="start" x="1261.5" y="-35" font-family="Helvetica,sans-Serif" font-size="10.00">+ name()</text>
<text text-anchor="start" x="1261.5" y="-24" font-family="Helvetica,sans-Serif" font-size="10.00">&#45; heal()</text>
</a>
</g>
</g>
<!-- Node8&#45;&gt;Node14 -->
<g id="edge14" class="edge"><title>Node8&#45;&gt;Node14</title>
<path fill="none" stroke="midnightblue" d="M1067.43,-202.248C1070.77,-198.934 1074.29,-195.833 1078,-193 1138.36,-146.934 1178.38,-193.433 1245,-157 1253.49,-152.358 1261.65,-146.49 1269.28,-140.069"/>
<polygon fill="none" stroke="midnightblue" points="1064.63,-200.112 1060.4,-209.825 1069.77,-204.872 1064.63,-200.112"/>
</g>
<!-- Node15 -->
<g id="node16" class="node"><title>Node15</title>
<g id="a_node16"><a xlink:href="classopenage_1_1_repair_action.xhtml" target="_top" xlink:title=" ">
<polygon fill="white" stroke="black" points="1408.5,-11.5 1408.5,-145.5 1545.5,-145.5 1545.5,-11.5 1408.5,-11.5"/>
<text text-anchor="middle" x="1477" y="-133.5" font-family="Helvetica,sans-Serif" font-size="10.00">openage::RepairAction</text>
<polyline fill="none" stroke="black" points="1408.5,-126.5 1545.5,-126.5 "/>
<text text-anchor="start" x="1416.5" y="-114.5" font-family="Helvetica,sans-Serif" font-size="10.00">&#45; cost</text>
<text text-anchor="start" x="1416.5" y="-103.5" font-family="Helvetica,sans-Serif" font-size="10.00">&#45; timer</text>
<text text-anchor="start" x="1416.5" y="-92.5" font-family="Helvetica,sans-Serif" font-size="10.00">&#45; complete</text>
<polyline fill="none" stroke="black" points="1408.5,-85.5 1545.5,-85.5 "/>
<text text-anchor="start" x="1416.5" y="-73.5" font-family="Helvetica,sans-Serif" font-size="10.00">+ RepairAction()</text>
<text text-anchor="start" x="1416.5" y="-62.5" font-family="Helvetica,sans-Serif" font-size="10.00">+ ~RepairAction()</text>
<text text-anchor="start" x="1416.5" y="-51.5" font-family="Helvetica,sans-Serif" font-size="10.00">+ update_in_range()</text>
<text text-anchor="start" x="1416.5" y="-40.5" font-family="Helvetica,sans-Serif" font-size="10.00">+ on_completion_in_range()</text>
<text text-anchor="start" x="1416.5" y="-29.5" font-family="Helvetica,sans-Serif" font-size="10.00">+ completed_in_range()</text>
<text text-anchor="start" x="1416.5" y="-18.5" font-family="Helvetica,sans-Serif" font-size="10.00">+ name()</text>
</a>
</g>
</g>
<!-- Node8&#45;&gt;Node15 -->
<g id="edge15" class="edge"><title>Node8&#45;&gt;Node15</title>
<path fill="none" stroke="midnightblue" d="M1066.31,-202.47C1069.97,-199.019 1073.86,-195.838 1078,-193 1196.73,-111.52 1270.33,-219.634 1400,-157 1406.49,-153.865 1412.75,-149.953 1418.7,-145.564"/>
<polygon fill="none" stroke="midnightblue" points="1063.54,-200.291 1059.1,-209.91 1068.57,-205.16 1063.54,-200.291"/>
</g>
</g>
</svg>
