<?xml version="1.0" encoding="UTF-8" standalone="no"?>
<!DOCTYPE svg PUBLIC "-//W3C//DTD SVG 1.1//EN"
 "http://www.w3.org/Graphics/SVG/1.1/DTD/svg11.dtd">
<!-- Generated by graphviz version 2.38.0 (20140413.2041)
 -->
<!-- Title: qtsdl::GuiItem&lt; T &gt; Pages: 1 -->
<!--zoomable 631 -->
<svg id="main" version="1.1" xmlns="http://www.w3.org/2000/svg" xmlns:xlink="http://www.w3.org/1999/xlink" xml:space="preserve" onload="init(evt)">
<style type="text/css"><![CDATA[
.edge:hover path { stroke: red; }
.edge:hover polygon { stroke: red; fill: red; }
]]></style>
<script type="text/javascript"><![CDATA[
var edges = document.getElementsByTagName('g');
if (edges && edges.length) {
  for (var i=0;i<edges.length;i++) {
    if (edges[i].id.substr(0,4)=='edge') {
      edges[i].setAttribute('class','edge');
    }
  }
}
]]></script>
        <defs>
                <circle id="rim" cx="0" cy="0" r="7"/>
                <circle id="rim2" cx="0" cy="0" r="3.5"/>
                <g id="zoomPlus">
                        <use xlink:href="#rim" fill="#404040">
                                <set attributeName="fill" to="#808080" begin="zoomplus.mouseover" end="zoomplus.mouseout"/>
                        </use>
                        <path d="M-4,0h8M0,-4v8" fill="none" stroke="white" stroke-width="1.5" pointer-events="none"/>
                </g>
                <g id="zoomMin">
                        <use xlink:href="#rim" fill="#404040">
                                <set attributeName="fill" to="#808080" begin="zoomminus.mouseover" end="zoomminus.mouseout"/>
                        </use>
                        <path d="M-4,0h8" fill="none" stroke="white" stroke-width="1.5" pointer-events="none"/>
                </g>
                <g id="dirArrow">
                        <path fill="none" stroke="white" stroke-width="1.5" d="M0,-3.0v7 M-2.5,-0.5L0,-3.0L2.5,-0.5"/>
                </g>
               <g id="resetDef">
                       <use xlink:href="#rim2" fill="#404040">
                               <set attributeName="fill" to="#808080" begin="reset.mouseover" end="reset.mouseout"/>
                       </use>
               </g>
        </defs>

<script type="text/javascript">
var viewWidth = 327;
var viewHeight = 631;
var sectionId = 'dynsection-1';
</script>
<script xlink:href="svgpan.js"/>
<svg id="graph" class="graph">
<g id="viewport">
<title>qtsdl::GuiItem&lt; T &gt;</title>
<polygon fill="white" stroke="none" points="-4,4 -4,-627 322.5,-627 322.5,4 -4,4"/>
<!-- Node16 -->
<g id="node1" class="node"><title>Node16</title>
<g id="a_node1"><a xlink:title="Base for shell QObjects that need corresponding cores to be kept alive across GUI reloads.">
<polygon fill="#bfbfbf" stroke="black" points="117.5,-0.5 117.5,-57.5 218.5,-57.5 218.5,-0.5 117.5,-0.5"/>
<text text-anchor="middle" x="168" y="-45.5" font-family="Helvetica,sans-Serif" font-size="10.00">qtsdl::GuiItem&lt; T &gt;</text>
<polyline fill="none" stroke="black" points="117.5,-38.5 218.5,-38.5 "/>
<text text-anchor="middle" x="168" y="-26.5" font-family="Helvetica,sans-Serif" font-size="10.00"> </text>
<polyline fill="none" stroke="black" points="117.5,-19.5 218.5,-19.5 "/>
<text text-anchor="start" x="125.5" y="-7.5" font-family="Helvetica,sans-Serif" font-size="10.00">+ GuiItem()</text>
</a>
</g>
</g>
<!-- Node17 -->
<g id="node2" class="node"><title>Node17</title>
<g id="a_node2"><a xlink:href="classqtsdl_1_1_gui_item_origin.xhtml" target="_top" xlink:title=" ">
<polygon fill="white" stroke="black" points="5,-117.5 5,-174.5 131,-174.5 131,-117.5 5,-117.5"/>
<text text-anchor="middle" x="68" y="-162.5" font-family="Helvetica,sans-Serif" font-size="10.00">qtsdl::GuiItemOrigin&lt; T &gt;</text>
<polyline fill="none" stroke="black" points="5,-155.5 131,-155.5 "/>
<text text-anchor="middle" x="68" y="-143.5" font-family="Helvetica,sans-Serif" font-size="10.00"> </text>
<polyline fill="none" stroke="black" points="5,-136.5 131,-136.5 "/>
<text text-anchor="middle" x="68" y="-124.5" font-family="Helvetica,sans-Serif" font-size="10.00"> </text>
</a>
</g>
</g>
<!-- Node17&#45;&gt;Node16 -->
<g id="edge1" class="edge"><title>Node17&#45;&gt;Node16</title>
<path fill="none" stroke="midnightblue" d="M98.8391,-109.535C113.336,-92.8641 130.364,-73.2816 143.896,-57.7192"/>
<polygon fill="none" stroke="midnightblue" points="95.8732,-107.612 91.9525,-117.455 101.155,-112.205 95.8732,-107.612"/>
</g>
<!-- Node18 -->
<g id="node3" class="node"><title>Node18</title>
<g id="a_node3"><a xlink:href="classqtsdl_1_1_persistent_core_holder.xhtml" target="_top" xlink:title=" ">
<polygon fill="white" stroke="black" points="0,-261 0,-362 136,-362 136,-261 0,-261"/>
<text text-anchor="start" x="8" y="-350" font-family="Helvetica,sans-Serif" font-size="10.00">qtsdl::PersistentCoreHolder</text>
<text text-anchor="start" x="8" y="-339" font-family="Helvetica,sans-Serif" font-size="10.00">&lt; typename qtsdl::Unwrap</text>
<text text-anchor="middle" x="68" y="-328" font-family="Helvetica,sans-Serif" font-size="10.00">&lt; T &gt;::Type &gt;</text>
<polyline fill="none" stroke="black" points="0,-321 136,-321 "/>
<text text-anchor="start" x="8" y="-309" font-family="Helvetica,sans-Serif" font-size="10.00">+ core</text>
<polyline fill="none" stroke="black" points="0,-302 136,-302 "/>
<text text-anchor="start" x="8" y="-290" font-family="Helvetica,sans-Serif" font-size="10.00">+ PersistentCoreHolder()</text>
<text text-anchor="start" x="8" y="-279" font-family="Helvetica,sans-Serif" font-size="10.00">+ PersistentCoreHolder()</text>
<text text-anchor="start" x="8" y="-268" font-family="Helvetica,sans-Serif" font-size="10.00">+ adopt_shell()</text>
</a>
</g>
</g>
<!-- Node18&#45;&gt;Node17 -->
<g id="edge2" class="edge"><title>Node18&#45;&gt;Node17</title>
<path fill="none" stroke="#404040" d="M68,-260.556C68,-236.895 68,-209.022 68,-186.813"/>
<polygon fill="none" stroke="#404040" points="68.0001,-186.793 64,-180.793 68,-174.793 72,-180.793 68.0001,-186.793"/>
<text text-anchor="middle" x="84.5" y="-218" font-family="Helvetica,sans-Serif" font-size="10.00"> &#45;holder</text>
</g>
<!-- Node19 -->
<g id="node4" class="node"><title>Node19</title>
<g id="a_node4"><a xlink:href="classqtsdl_1_1_persistent_core_holder_base.xhtml" target="_top" xlink:title="Helper to hide the type of the core.">
<polygon fill="white" stroke="black" points="6,-554.5 6,-622.5 164,-622.5 164,-554.5 6,-554.5"/>
<text text-anchor="middle" x="85" y="-610.5" font-family="Helvetica,sans-Serif" font-size="10.00">qtsdl::PersistentCoreHolderBase</text>
<polyline fill="none" stroke="black" points="6,-603.5 164,-603.5 "/>
<text text-anchor="middle" x="85" y="-591.5" font-family="Helvetica,sans-Serif" font-size="10.00"> </text>
<polyline fill="none" stroke="black" points="6,-584.5 164,-584.5 "/>
<text text-anchor="start" x="14" y="-572.5" font-family="Helvetica,sans-Serif" font-size="10.00">+ ~PersistentCoreHolderBase()</text>
<text text-anchor="start" x="14" y="-561.5" font-family="Helvetica,sans-Serif" font-size="10.00">+ adopt_shell()</text>
</a>
</g>
</g>
<!-- Node19&#45;&gt;Node18 -->
<g id="edge3" class="edge"><title>Node19&#45;&gt;Node18</title>
<path fill="none" stroke="midnightblue" d="M75.1586,-544.414C73.4626,-535.402 71.9439,-525.926 71,-517 65.4367,-464.387 65.3331,-403.743 66.2185,-362.239"/>
<polygon fill="none" stroke="midnightblue" points="71.7482,-545.21 77.1276,-554.337 78.6144,-543.848 71.7482,-545.21"/>
</g>
<!-- Node20 -->
<g id="node5" class="node"><title>Node20</title>
<g id="a_node5"><a xlink:href="classqtsdl_1_1_persistent_core_holder.xhtml" target="_top" xlink:title=" ">
<polygon fill="white" stroke="black" points="80.5,-437.5 80.5,-516.5 239.5,-516.5 239.5,-437.5 80.5,-437.5"/>
<text text-anchor="middle" x="160" y="-504.5" font-family="Helvetica,sans-Serif" font-size="10.00">qtsdl::PersistentCoreHolder&lt; T &gt;</text>
<polyline fill="none" stroke="black" points="80.5,-497.5 239.5,-497.5 "/>
<text text-anchor="start" x="88.5" y="-485.5" font-family="Helvetica,sans-Serif" font-size="10.00">+ core</text>
<polyline fill="none" stroke="black" points="80.5,-478.5 239.5,-478.5 "/>
<text text-anchor="start" x="88.5" y="-466.5" font-family="Helvetica,sans-Serif" font-size="10.00">+ PersistentCoreHolder()</text>
<text text-anchor="start" x="88.5" y="-455.5" font-family="Helvetica,sans-Serif" font-size="10.00">+ PersistentCoreHolder()</text>
<text text-anchor="start" x="88.5" y="-444.5" font-family="Helvetica,sans-Serif" font-size="10.00">+ adopt_shell()</text>
</a>
</g>
</g>
<!-- Node19&#45;&gt;Node20 -->
<g id="edge5" class="edge"><title>Node19&#45;&gt;Node20</title>
<path fill="none" stroke="midnightblue" d="M113.362,-546.091C119.941,-536.487 126.919,-526.299 133.418,-516.81"/>
<polygon fill="none" stroke="midnightblue" points="110.469,-544.121 107.706,-554.349 116.245,-548.077 110.469,-544.121"/>
</g>
<!-- Node20&#45;&gt;Node18 -->
<g id="edge4" class="edge"><title>Node20&#45;&gt;Node18</title>
<path fill="none" stroke="orange" d="M133.149,-428.282C121.453,-407.494 107.745,-383.134 95.9289,-362.134"/>
<polygon fill="orange" stroke="orange" points="130.243,-430.254 138.197,-437.253 136.344,-426.821 130.243,-430.254"/>
<text text-anchor="start" x="128" y="-411" font-family="Helvetica,sans-Serif" font-size="10.00"> &lt; typename qtsdl::Unwrap</text>
<text text-anchor="middle" x="187" y="-400" font-family="Helvetica,sans-Serif" font-size="10.00">&lt; T &gt;::Type &gt;</text>
</g>
<!-- Node21 -->
<g id="node6" class="node"><title>Node21</title>
<g id="a_node6"><a xlink:href="classqtsdl_1_1_gui_item_core_instantiator.xhtml" target="_top" xlink:title=" ">
<polygon fill="white" stroke="black" points="149.5,-95.5 149.5,-196.5 318.5,-196.5 318.5,-95.5 149.5,-95.5"/>
<text text-anchor="middle" x="234" y="-184.5" font-family="Helvetica,sans-Serif" font-size="10.00">qtsdl::GuiItemCoreInstantiator&lt; T &gt;</text>
<polyline fill="none" stroke="black" points="149.5,-177.5 318.5,-177.5 "/>
<text text-anchor="middle" x="234" y="-165.5" font-family="Helvetica,sans-Serif" font-size="10.00"> </text>
<polyline fill="none" stroke="black" points="149.5,-158.5 318.5,-158.5 "/>
<text text-anchor="start" x="157.5" y="-146.5" font-family="Helvetica,sans-Serif" font-size="10.00">+ GuiItemCoreInstantiator()</text>
<text text-anchor="start" x="157.5" y="-135.5" font-family="Helvetica,sans-Serif" font-size="10.00">&#45; instantiate_core()</text>
<text text-anchor="start" x="157.5" y="-124.5" font-family="Helvetica,sans-Serif" font-size="10.00">&#45; do_adopt_core()</text>
<text text-anchor="start" x="157.5" y="-113.5" font-family="Helvetica,sans-Serif" font-size="10.00">&#45; GuiItemCoreInstantiator()</text>
<text text-anchor="start" x="157.5" y="-102.5" font-family="Helvetica,sans-Serif" font-size="10.00">&#45; operator=()</text>
</a>
</g>
</g>
<!-- Node21&#45;&gt;Node16 -->
<g id="edge6" class="edge"><title>Node21&#45;&gt;Node16</title>
<path fill="none" stroke="midnightblue" d="M200.386,-86.4309C194.628,-76.398 188.895,-66.4085 183.889,-57.6848"/>
<polygon fill="none" stroke="midnightblue" points="197.422,-88.2972 205.435,-95.2282 203.493,-84.8128 197.422,-88.2972"/>
</g>
<!-- Node22 -->
<g id="node7" class="node"><title>Node22</title>
<g id="a_node7"><a xlink:href="classqtsdl_1_1_gui_item_methods.xhtml" target="_top" xlink:title="Member function of the GuiPersistentItem.">
<polygon fill="white" stroke="black" points="165,-244.5 165,-378.5 303,-378.5 303,-244.5 165,-244.5"/>
<text text-anchor="middle" x="234" y="-366.5" font-family="Helvetica,sans-Serif" font-size="10.00">qtsdl::GuiItemMethods&lt; T &gt;</text>
<polyline fill="none" stroke="black" points="165,-359.5 303,-359.5 "/>
<text text-anchor="middle" x="234" y="-347.5" font-family="Helvetica,sans-Serif" font-size="10.00"> </text>
<polyline fill="none" stroke="black" points="165,-340.5 303,-340.5 "/>
<text text-anchor="start" x="173" y="-328.5" font-family="Helvetica,sans-Serif" font-size="10.00">+ ~GuiItemMethods()</text>
<text text-anchor="start" x="173" y="-317.5" font-family="Helvetica,sans-Serif" font-size="10.00">+ get()</text>
<text text-anchor="start" x="173" y="-306.5" font-family="Helvetica,sans-Serif" font-size="10.00">+ get()</text>
<text text-anchor="start" x="173" y="-295.5" font-family="Helvetica,sans-Serif" font-size="10.00">+ i()</text>
<text text-anchor="start" x="173" y="-284.5" font-family="Helvetica,sans-Serif" font-size="10.00"># s()</text>
<text text-anchor="start" x="173" y="-273.5" font-family="Helvetica,sans-Serif" font-size="10.00"># sf()</text>
<text text-anchor="start" x="173" y="-262.5" font-family="Helvetica,sans-Serif" font-size="10.00">&#45; assign_while_catching</text>
<text text-anchor="start" x="173" y="-251.5" font-family="Helvetica,sans-Serif" font-size="10.00">_constant_properies_inits()</text>
</a>
</g>
</g>
<!-- Node22&#45;&gt;Node21 -->
<g id="edge7" class="edge"><title>Node22&#45;&gt;Node21</title>
<path fill="none" stroke="midnightblue" d="M234,-234.288C234,-221.513 234,-208.558 234,-196.676"/>
<polygon fill="none" stroke="midnightblue" points="230.5,-234.47 234,-244.47 237.5,-234.47 230.5,-234.47"/>
</g>
</g>
</svg>
        <g id="navigator" transform="translate(0 0)" fill="#404254">
                <rect fill="#f2f5e9" fill-opacity="0.5" stroke="#606060" stroke-width=".5" x="0" y="0" width="60" height="60"/>
                <use id="zoomplus" xlink:href="#zoomPlus" x="17" y="9" onmousedown="handleZoom(evt,'in')"/>
                <use id="zoomminus" xlink:href="#zoomMin" x="42" y="9" onmousedown="handleZoom(evt,'out')"/>
                <use id="reset" xlink:href="#resetDef" x="30" y="36" onmousedown="handleReset()"/>
                <g id="arrowUp" xlink:href="#dirArrow" transform="translate(30 24)" onmousedown="handlePan(0,-1)">
                  <use xlink:href="#rim" fill="#404040">
                        <set attributeName="fill" to="#808080" begin="arrowUp.mouseover" end="arrowUp.mouseout"/>
                  </use>
                  <path fill="none" stroke="white" stroke-width="1.5" d="M0,-3.0v7 M-2.5,-0.5L0,-3.0L2.5,-0.5"/>
                </g>
                <g id="arrowRight" xlink:href="#dirArrow" transform="rotate(90) translate(36 -43)" onmousedown="handlePan(1,0)">
                  <use xlink:href="#rim" fill="#404040">
                        <set attributeName="fill" to="#808080" begin="arrowRight.mouseover" end="arrowRight.mouseout"/>
                  </use>
                  <path fill="none" stroke="white" stroke-width="1.5" d="M0,-3.0v7 M-2.5,-0.5L0,-3.0L2.5,-0.5"/>
                </g>
                <g id="arrowDown" xlink:href="#dirArrow" transform="rotate(180) translate(-30 -48)" onmousedown="handlePan(0,1)">
                  <use xlink:href="#rim" fill="#404040">
                        <set attributeName="fill" to="#808080" begin="arrowDown.mouseover" end="arrowDown.mouseout"/>
                  </use>
                  <path fill="none" stroke="white" stroke-width="1.5" d="M0,-3.0v7 M-2.5,-0.5L0,-3.0L2.5,-0.5"/>
                </g>
                <g id="arrowLeft" xlink:href="#dirArrow" transform="rotate(270) translate(-36 17)" onmousedown="handlePan(-1,0)">
                  <use xlink:href="#rim" fill="#404040">
                        <set attributeName="fill" to="#808080" begin="arrowLeft.mouseover" end="arrowLeft.mouseout"/>
                  </use>
                  <path fill="none" stroke="white" stroke-width="1.5" d="M0,-3.0v7 M-2.5,-0.5L0,-3.0L2.5,-0.5"/>
                </g>
        </g>
        <svg viewBox="0 0 15 15" width="100%" height="30px" preserveAspectRatio="xMaxYMin meet">
         <g id="arrow_out" transform="scale(0.3 0.3)">
          <a xlink:href="classqtsdl_1_1_gui_item__coll__graph_org.svg" target="_base">
           <rect id="button" ry="5" rx="5" y="6" x="6" height="38" width="38"
                fill="#f2f5e9" fill-opacity="0.5" stroke="#606060" stroke-width="1.0"/>
           <path id="arrow"
             d="M 11.500037,31.436501 C 11.940474,20.09759 22.043105,11.32322 32.158766,21.979434 L 37.068811,17.246167 C 37.068811,17.246167 37.088388,32 37.088388,32 L 22.160133,31.978069 C 22.160133,31.978069 26.997745,27.140456 26.997745,27.140456 C 18.528582,18.264221 13.291696,25.230495 11.500037,31.436501 z"
             style="fill:#404040;"/>
          </a>
         </g>
        </svg>
</svg>
