<?xml version="1.0" encoding="UTF-8" standalone="no"?>
<!DOCTYPE svg PUBLIC "-//W3C//DTD SVG 1.1//EN"
 "http://www.w3.org/Graphics/SVG/1.1/DTD/svg11.dtd">
<!-- Generated by graphviz version 2.38.0 (20140413.2041)
 -->
<!-- Title: openage::AssetManager::check_updates Pages: 1 -->
<svg width="620pt" height="127pt"
 viewBox="0.00 0.00 620.00 126.50" xmlns="http://www.w3.org/2000/svg" xmlns:xlink="http://www.w3.org/1999/xlink">
<g id="graph0" class="graph" transform="scale(1 1) rotate(0) translate(4 122.5)">
<title>openage::AssetManager::check_updates</title>
<polygon fill="white" stroke="none" points="-4,4 -4,-122.5 616,-122.5 616,4 -4,4"/>
<!-- Node2 -->
<g id="node1" class="node"><title>Node2</title>
<g id="a_node1"><a xlink:title="Ask the kernel whether there were updates to watched files.">
<polygon fill="#bfbfbf" stroke="black" points="0,-61 0,-91 122,-91 122,-61 0,-61"/>
<text text-anchor="start" x="8" y="-79" font-family="Helvetica,sans-Serif" font-size="10.00">openage::AssetManager</text>
<text text-anchor="middle" x="61" y="-68" font-family="Helvetica,sans-Serif" font-size="10.00">::check_updates</text>
</a>
</g>
</g>
<!-- Node3 -->
<g id="node2" class="node"><title>Node3</title>
<g id="a_node2"><a xlink:href="namespaceopenage_1_1log.xhtml#a0eff614e7d6e818746700ed9d29e583f" target="_top" xlink:title="Convenience method that makes use of the &#39;general&#39; LogSource.">
<polygon fill="white" stroke="black" points="158,-66.5 158,-85.5 249,-85.5 249,-66.5 158,-66.5"/>
<text text-anchor="middle" x="203.5" y="-73.5" font-family="Helvetica,sans-Serif" font-size="10.00">openage::log::log</text>
</a>
</g>
</g>
<!-- Node2&#45;&gt;Node3 -->
<g id="edge1" class="edge"><title>Node2&#45;&gt;Node3</title>
<path fill="none" stroke="midnightblue" d="M122.4,-76C130.767,-76 139.325,-76 147.585,-76"/>
<polygon fill="midnightblue" stroke="midnightblue" points="147.852,-79.5001 157.852,-76 147.852,-72.5001 147.852,-79.5001"/>
</g>
<!-- Node4 -->
<g id="node3" class="node"><title>Node4</title>
<g id="a_node3"><a xlink:href="namespaceopenage_1_1log.xhtml#a3fbb0c225d01e222648ec28a43507188" target="_top" xlink:title="Returns a reference to a general named log source, for use by log::log().">
<polygon fill="white" stroke="black" points="301.5,-83 301.5,-113 411.5,-113 411.5,-83 301.5,-83"/>
<text text-anchor="start" x="309.5" y="-101" font-family="Helvetica,sans-Serif" font-size="10.00">openage::log::general</text>
<text text-anchor="middle" x="356.5" y="-90" font-family="Helvetica,sans-Serif" font-size="10.00">_source</text>
</a>
</g>
</g>
<!-- Node3&#45;&gt;Node4 -->
<g id="edge2" class="edge"><title>Node3&#45;&gt;Node4</title>
<path fill="none" stroke="midnightblue" d="M249.396,-82.5412C262.548,-84.4573 277.191,-86.5907 291.296,-88.6457"/>
<polygon fill="midnightblue" stroke="midnightblue" points="291.042,-92.1456 301.442,-90.124 292.051,-85.2188 291.042,-92.1456"/>
</g>
<!-- Node5 -->
<g id="node4" class="node"><title>Node5</title>
<g id="a_node4"><a xlink:href="classopenage_1_1log_1_1_log_source.xhtml#a5640099e20af4cd368c767dbcef3a1df" target="_top" xlink:title="Logs a message (get one via MSG(level)).">
<polygon fill="white" stroke="black" points="285,-44.5 285,-63.5 428,-63.5 428,-44.5 285,-44.5"/>
<text text-anchor="middle" x="356.5" y="-51.5" font-family="Helvetica,sans-Serif" font-size="10.00">openage::log::LogSource::log</text>
</a>
</g>
</g>
<!-- Node3&#45;&gt;Node5 -->
<g id="edge3" class="edge"><title>Node3&#45;&gt;Node5</title>
<path fill="none" stroke="midnightblue" d="M249.396,-69.4588C259.081,-68.0479 269.574,-66.5191 280.065,-64.9905"/>
<polygon fill="midnightblue" stroke="midnightblue" points="280.706,-68.4342 290.097,-63.5289 279.697,-61.5073 280.706,-68.4342"/>
</g>
<!-- Node6 -->
<g id="node5" class="node"><title>Node6</title>
<g id="a_node5"><a xlink:href="namespaceopenage_1_1log.xhtml#a3d2885be9c3a09b9ff7ee8764b2e5f39" target="_top" xlink:title="Returns a reference to the global stdout logsink object; Initializes the object if needed.">
<polygon fill="white" stroke="black" points="486,-88 486,-118 590,-118 590,-88 486,-88"/>
<text text-anchor="start" x="494" y="-106" font-family="Helvetica,sans-Serif" font-size="10.00">openage::log::global</text>
<text text-anchor="middle" x="538" y="-95" font-family="Helvetica,sans-Serif" font-size="10.00">_stdoutsink</text>
</a>
</g>
</g>
<!-- Node5&#45;&gt;Node6 -->
<g id="edge4" class="edge"><title>Node5&#45;&gt;Node6</title>
<path fill="none" stroke="midnightblue" d="M392.536,-63.564C416.265,-70.0416 448.246,-78.7718 476.085,-86.3714"/>
<polygon fill="midnightblue" stroke="midnightblue" points="475.17,-89.7497 485.739,-89.0067 477.014,-82.9968 475.17,-89.7497"/>
</g>
<!-- Node7 -->
<g id="node6" class="node"><title>Node7</title>
<g id="a_node6"><a xlink:href="classopenage_1_1log_1_1_log_sink_list.xhtml#a2d47416fab12651553b4b58c86fd6f84" target="_top" xlink:title=" ">
<polygon fill="white" stroke="black" points="473.5,-39 473.5,-69 602.5,-69 602.5,-39 473.5,-39"/>
<text text-anchor="start" x="481.5" y="-57" font-family="Helvetica,sans-Serif" font-size="10.00">openage::log::LogSinkList</text>
<text text-anchor="middle" x="538" y="-46" font-family="Helvetica,sans-Serif" font-size="10.00">::instance</text>
</a>
</g>
</g>
<!-- Node5&#45;&gt;Node7 -->
<g id="edge5" class="edge"><title>Node5&#45;&gt;Node7</title>
<path fill="none" stroke="midnightblue" d="M428.185,-54C439.719,-54 451.693,-54 463.297,-54"/>
<polygon fill="midnightblue" stroke="midnightblue" points="463.38,-57.5001 473.379,-54 463.379,-50.5001 463.38,-57.5001"/>
</g>
<!-- Node8 -->
<g id="node7" class="node"><title>Node8</title>
<g id="a_node7"><a xlink:href="classopenage_1_1log_1_1_log_sink_list.xhtml#a8456b84ab55e1fe151c51438c5bfebdd" target="_top" xlink:title=" ">
<polygon fill="white" stroke="black" points="464,-0.5 464,-19.5 612,-19.5 612,-0.5 464,-0.5"/>
<text text-anchor="middle" x="538" y="-7.5" font-family="Helvetica,sans-Serif" font-size="10.00">openage::log::LogSinkList::log</text>
</a>
</g>
</g>
<!-- Node5&#45;&gt;Node8 -->
<g id="edge6" class="edge"><title>Node5&#45;&gt;Node8</title>
<path fill="none" stroke="midnightblue" d="M396.449,-44.4527C423.382,-37.8508 459.415,-29.0181 488.253,-21.949"/>
<polygon fill="midnightblue" stroke="midnightblue" points="489.248,-25.3089 498.127,-19.5287 487.581,-18.5102 489.248,-25.3089"/>
</g>
</g>
</svg>
