<?xml version="1.0" encoding="UTF-8" standalone="no"?>
<!DOCTYPE svg PUBLIC "-//W3C//DTD SVG 1.1//EN"
 "http://www.w3.org/Graphics/SVG/1.1/DTD/svg11.dtd">
<!-- Generated by graphviz version 2.38.0 (20140413.2041)
 -->
<!-- Title: qtsdl::GuiPropertyMapImpl::property_changed Pages: 1 -->
<svg width="316pt" height="100pt"
 viewBox="0.00 0.00 316.00 99.50" xmlns="http://www.w3.org/2000/svg" xmlns:xlink="http://www.w3.org/1999/xlink">
<g id="graph0" class="graph" transform="scale(1 1) rotate(0) translate(4 95.5)">
<title>qtsdl::GuiPropertyMapImpl::property_changed</title>
<polygon fill="white" stroke="none" points="-4,4 -4,-95.5 312,-95.5 312,4 -4,4"/>
<!-- Node7 -->
<g id="node1" class="node"><title>Node7</title>
<g id="a_node1"><a xlink:title=" ">
<polygon fill="#bfbfbf" stroke="black" points="176,-27.5 176,-57.5 308,-57.5 308,-27.5 176,-27.5"/>
<text text-anchor="start" x="184" y="-45.5" font-family="Helvetica,sans-Serif" font-size="10.00">qtsdl::GuiPropertyMapImpl</text>
<text text-anchor="middle" x="242" y="-34.5" font-family="Helvetica,sans-Serif" font-size="10.00">::property_changed</text>
</a>
</g>
</g>
<!-- Node8 -->
<g id="node2" class="node"><title>Node8</title>
<g id="a_node2"><a xlink:href="classqtsdl_1_1_gui_item_list_model.xhtml#a0e965b2d5161f95e8118b197ac2f0f42" target="_top" xlink:title=" ">
<polygon fill="white" stroke="black" points="0,-50 0,-91 140,-91 140,-50 0,-50"/>
<text text-anchor="start" x="8" y="-79" font-family="Helvetica,sans-Serif" font-size="10.00">qtsdl::GuiItemListModel</text>
<text text-anchor="start" x="8" y="-68" font-family="Helvetica,sans-Serif" font-size="10.00">&lt; GeneratorLink &gt;::establish</text>
<text text-anchor="middle" x="70" y="-57" font-family="Helvetica,sans-Serif" font-size="10.00">_to_gui_propagation</text>
</a>
</g>
</g>
<!-- Node7&#45;&gt;Node8 -->
<g id="edge1" class="edge"><title>Node7&#45;&gt;Node8</title>
<path fill="none" stroke="midnightblue" d="M165.78,-54.8892C157.208,-56.3011 148.501,-57.7351 140.015,-59.1328"/>
<polygon fill="midnightblue" stroke="midnightblue" points="166.462,-58.3242 175.76,-53.2455 165.324,-51.4172 166.462,-58.3242"/>
</g>
<!-- Node9 -->
<g id="node3" class="node"><title>Node9</title>
<g id="a_node3"><a xlink:href="classqtsdl_1_1_gui_property_map_impl.xhtml#a80eccbbffe3ab324cd17a4edeae23649" target="_top" xlink:title=" ">
<polygon fill="white" stroke="black" points="4,-0.5 4,-30.5 136,-30.5 136,-0.5 4,-0.5"/>
<text text-anchor="start" x="12" y="-18.5" font-family="Helvetica,sans-Serif" font-size="10.00">qtsdl::GuiPropertyMapImpl</text>
<text text-anchor="middle" x="70" y="-7.5" font-family="Helvetica,sans-Serif" font-size="10.00">::event</text>
</a>
</g>
</g>
<!-- Node7&#45;&gt;Node9 -->
<g id="edge2" class="edge"><title>Node7&#45;&gt;Node9</title>
<path fill="none" stroke="midnightblue" d="M165.585,-30.5224C155.74,-28.9587 145.721,-27.3675 136.066,-25.834"/>
<polygon fill="midnightblue" stroke="midnightblue" points="165.335,-34.0263 175.76,-32.1383 166.433,-27.113 165.335,-34.0263"/>
</g>
</g>
</svg>
