<?xml version="1.0" encoding="UTF-8" standalone="no"?>
<!DOCTYPE svg PUBLIC "-//W3C//DTD SVG 1.1//EN"
 "http://www.w3.org/Graphics/SVG/1.1/DTD/svg11.dtd">
<!-- Generated by graphviz version 2.38.0 (20140413.2041)
 -->
<!-- Title: openage::GameControl::set_game Pages: 1 -->
<svg width="832pt" height="78pt"
 viewBox="0.00 0.00 832.00 77.50" xmlns="http://www.w3.org/2000/svg" xmlns:xlink="http://www.w3.org/1999/xlink">
<g id="graph0" class="graph" transform="scale(1 1) rotate(0) translate(4 73.5)">
<title>openage::GameControl::set_game</title>
<polygon fill="white" stroke="none" points="-4,4 -4,-73.5 828,-73.5 828,4 -4,4"/>
<!-- Node105 -->
<g id="node1" class="node"><title>Node105</title>
<g id="a_node1"><a xlink:title=" ">
<polygon fill="#bfbfbf" stroke="black" points="0,-17 0,-47 116,-47 116,-17 0,-17"/>
<text text-anchor="start" x="8" y="-35" font-family="Helvetica,sans-Serif" font-size="10.00">openage::GameControl</text>
<text text-anchor="middle" x="58" y="-24" font-family="Helvetica,sans-Serif" font-size="10.00">::set_game</text>
</a>
</g>
</g>
<!-- Node106 -->
<g id="node2" class="node"><title>Node106</title>
<g id="a_node2"><a xlink:href="classopenage_1_1_game_control_signals.xhtml#acd3484cc1f7feb2163be431acfc88c96" target="_top" xlink:title=" ">
<polygon fill="white" stroke="black" points="152,-17 152,-47 301,-47 301,-17 152,-17"/>
<text text-anchor="start" x="160" y="-35" font-family="Helvetica,sans-Serif" font-size="10.00">openage::GameControlSignals</text>
<text text-anchor="middle" x="226.5" y="-24" font-family="Helvetica,sans-Serif" font-size="10.00">::on_game_running</text>
</a>
</g>
</g>
<!-- Node105&#45;&gt;Node106 -->
<g id="edge1" class="edge"><title>Node105&#45;&gt;Node106</title>
<path fill="none" stroke="midnightblue" d="M116.3,-32C124.548,-32 133.175,-32 141.807,-32"/>
<polygon fill="midnightblue" stroke="midnightblue" points="141.922,-35.5001 151.922,-32 141.922,-28.5001 141.922,-35.5001"/>
</g>
<!-- Node107 -->
<g id="node3" class="node"><title>Node107</title>
<g id="a_node3"><a xlink:href="classopenage_1_1_game_control.xhtml#a3d4b9fbef261d19138ba87083e4083a5" target="_top" xlink:title=" ">
<polygon fill="white" stroke="black" points="337,-17 337,-47 498,-47 498,-17 337,-17"/>
<text text-anchor="start" x="345" y="-35" font-family="Helvetica,sans-Serif" font-size="10.00">openage::GameControl</text>
<text text-anchor="middle" x="417.5" y="-24" font-family="Helvetica,sans-Serif" font-size="10.00">::announce_current_player_name</text>
</a>
</g>
</g>
<!-- Node106&#45;&gt;Node107 -->
<g id="edge2" class="edge"><title>Node106&#45;&gt;Node107</title>
<path fill="none" stroke="midnightblue" d="M301.114,-32C309.532,-32 318.183,-32 326.781,-32"/>
<polygon fill="midnightblue" stroke="midnightblue" points="326.833,-35.5001 336.833,-32 326.833,-28.5001 326.833,-35.5001"/>
</g>
<!-- Node108 -->
<g id="node4" class="node"><title>Node108</title>
<g id="a_node4"><a xlink:href="classopenage_1_1_game_control.xhtml#aa7c61c3caafc810355005e83c8f234e2" target="_top" xlink:title=" ">
<polygon fill="white" stroke="black" points="534,-39 534,-69 650,-69 650,-39 534,-39"/>
<text text-anchor="start" x="542" y="-57" font-family="Helvetica,sans-Serif" font-size="10.00">openage::GameControl</text>
<text text-anchor="middle" x="592" y="-46" font-family="Helvetica,sans-Serif" font-size="10.00">::get_current_player</text>
</a>
</g>
</g>
<!-- Node107&#45;&gt;Node108 -->
<g id="edge3" class="edge"><title>Node107&#45;&gt;Node108</title>
<path fill="none" stroke="midnightblue" d="M498.186,-42.1628C506.721,-43.2514 515.343,-44.351 523.714,-45.4185"/>
<polygon fill="midnightblue" stroke="midnightblue" points="523.415,-48.9087 533.777,-46.702 524.3,-41.9649 523.415,-48.9087"/>
</g>
<!-- Node110 -->
<g id="node6" class="node"><title>Node110</title>
<g id="a_node6"><a xlink:href="namespacestd.xhtml#a26aa0f4be3a77ac5cc3ce0cabb545042" target="_top" xlink:title=" ">
<polygon fill="white" stroke="black" points="555,-0.5 555,-19.5 629,-19.5 629,-0.5 555,-0.5"/>
<text text-anchor="middle" x="592" y="-7.5" font-family="Helvetica,sans-Serif" font-size="10.00">std::to_string</text>
</a>
</g>
</g>
<!-- Node107&#45;&gt;Node110 -->
<g id="edge5" class="edge"><title>Node107&#45;&gt;Node110</title>
<path fill="none" stroke="midnightblue" d="M498.186,-21.8372C514.098,-19.8078 530.31,-17.7402 544.638,-15.9129"/>
<polygon fill="midnightblue" stroke="midnightblue" points="545.23,-19.3658 554.707,-14.6287 544.344,-12.422 545.23,-19.3658"/>
</g>
<!-- Node109 -->
<g id="node5" class="node"><title>Node109</title>
<g id="a_node5"><a xlink:href="classopenage_1_1_engine.xhtml#a3e79c3919abbc3cab0716e4807f7c93e" target="_top" xlink:title="return currently running game or null if a game is not currently running">
<polygon fill="white" stroke="black" points="686,-44.5 686,-63.5 824,-63.5 824,-44.5 686,-44.5"/>
<text text-anchor="middle" x="755" y="-51.5" font-family="Helvetica,sans-Serif" font-size="10.00">openage::Engine::get_game</text>
</a>
</g>
</g>
<!-- Node108&#45;&gt;Node109 -->
<g id="edge4" class="edge"><title>Node108&#45;&gt;Node109</title>
<path fill="none" stroke="midnightblue" d="M650.216,-54C658.531,-54 667.209,-54 675.851,-54"/>
<polygon fill="midnightblue" stroke="midnightblue" points="675.955,-57.5001 685.955,-54 675.955,-50.5001 675.955,-57.5001"/>
</g>
</g>
</svg>
