<?xml version="1.0" encoding="UTF-8" standalone="no"?>
<!DOCTYPE svg PUBLIC "-//W3C//DTD SVG 1.1//EN"
 "http://www.w3.org/Graphics/SVG/1.1/DTD/svg11.dtd">
<!-- Generated by graphviz version 2.38.0 (20140413.2041)
 -->
<!-- Title: qtsdl::Inherits&lt; T, P &gt; Pages: 1 -->
<!--zoomable 580 -->
<svg id="main" version="1.1" xmlns="http://www.w3.org/2000/svg" xmlns:xlink="http://www.w3.org/1999/xlink" xml:space="preserve" onload="init(evt)">
<style type="text/css"><![CDATA[
.edge:hover path { stroke: red; }
.edge:hover polygon { stroke: red; fill: red; }
]]></style>
<script type="text/javascript"><![CDATA[
var edges = document.getElementsByTagName('g');
if (edges && edges.length) {
  for (var i=0;i<edges.length;i++) {
    if (edges[i].id.substr(0,4)=='edge') {
      edges[i].setAttribute('class','edge');
    }
  }
}
]]></script>
        <defs>
                <circle id="rim" cx="0" cy="0" r="7"/>
                <circle id="rim2" cx="0" cy="0" r="3.5"/>
                <g id="zoomPlus">
                        <use xlink:href="#rim" fill="#404040">
                                <set attributeName="fill" to="#808080" begin="zoomplus.mouseover" end="zoomplus.mouseout"/>
                        </use>
                        <path d="M-4,0h8M0,-4v8" fill="none" stroke="white" stroke-width="1.5" pointer-events="none"/>
                </g>
                <g id="zoomMin">
                        <use xlink:href="#rim" fill="#404040">
                                <set attributeName="fill" to="#808080" begin="zoomminus.mouseover" end="zoomminus.mouseout"/>
                        </use>
                        <path d="M-4,0h8" fill="none" stroke="white" stroke-width="1.5" pointer-events="none"/>
                </g>
                <g id="dirArrow">
                        <path fill="none" stroke="white" stroke-width="1.5" d="M0,-3.0v7 M-2.5,-0.5L0,-3.0L2.5,-0.5"/>
                </g>
               <g id="resetDef">
                       <use xlink:href="#rim2" fill="#404040">
                               <set attributeName="fill" to="#808080" begin="reset.mouseover" end="reset.mouseout"/>
                       </use>
               </g>
        </defs>

<script type="text/javascript">
var viewWidth = 444;
var viewHeight = 580;
var sectionId = 'dynsection-1';
</script>
<script xlink:href="svgpan.js"/>
<svg id="graph" class="graph">
<g id="viewport">
<title>qtsdl::Inherits&lt; T, P &gt;</title>
<polygon fill="white" stroke="none" points="-4,4 -4,-576 440,-576 440,4 -4,4"/>
<!-- Node13 -->
<g id="node1" class="node"><title>Node13</title>
<g id="a_node1"><a xlink:title=" ">
<polygon fill="#bfbfbf" stroke="black" points="87,-0.5 87,-68.5 198,-68.5 198,-0.5 87,-0.5"/>
<text text-anchor="middle" x="142.5" y="-56.5" font-family="Helvetica,sans-Serif" font-size="10.00">qtsdl::Inherits&lt; T, P &gt;</text>
<polyline fill="none" stroke="black" points="87,-49.5 198,-49.5 "/>
<text text-anchor="middle" x="142.5" y="-37.5" font-family="Helvetica,sans-Serif" font-size="10.00"> </text>
<polyline fill="none" stroke="black" points="87,-30.5 198,-30.5 "/>
<text text-anchor="start" x="95" y="-18.5" font-family="Helvetica,sans-Serif" font-size="10.00">+ Inherits()</text>
<text text-anchor="start" x="95" y="-7.5" font-family="Helvetica,sans-Serif" font-size="10.00">+ ~Inherits()</text>
</a>
</g>
</g>
<!-- Node14 -->
<g id="node2" class="node"><title>Node14</title>
<g id="a_node2"><a xlink:href="classqtsdl_1_1_shadow.xhtml" target="_top" xlink:title=" ">
<polygon fill="white" stroke="black" points="0,-106.5 0,-207.5 101,-207.5 101,-106.5 0,-106.5"/>
<text text-anchor="middle" x="50.5" y="-195.5" font-family="Helvetica,sans-Serif" font-size="10.00">qtsdl::Shadow&lt; T &gt;</text>
<polyline fill="none" stroke="black" points="0,-188.5 101,-188.5 "/>
<text text-anchor="middle" x="50.5" y="-176.5" font-family="Helvetica,sans-Serif" font-size="10.00"> </text>
<polyline fill="none" stroke="black" points="0,-169.5 101,-169.5 "/>
<text text-anchor="start" x="8" y="-157.5" font-family="Helvetica,sans-Serif" font-size="10.00">+ Shadow()</text>
<text text-anchor="start" x="8" y="-146.5" font-family="Helvetica,sans-Serif" font-size="10.00">+ get()</text>
<text text-anchor="start" x="8" y="-135.5" font-family="Helvetica,sans-Serif" font-size="10.00">+ i()</text>
<text text-anchor="start" x="8" y="-124.5" font-family="Helvetica,sans-Serif" font-size="10.00">+ s()</text>
<text text-anchor="start" x="8" y="-113.5" font-family="Helvetica,sans-Serif" font-size="10.00">+ sf()</text>
</a>
</g>
</g>
<!-- Node14&#45;&gt;Node13 -->
<g id="edge1" class="edge"><title>Node14&#45;&gt;Node13</title>
<path fill="none" stroke="midnightblue" d="M94.6392,-98.1873C102.395,-88.0287 110.222,-77.7775 117.235,-68.5915"/>
<polygon fill="none" stroke="midnightblue" points="91.7376,-96.2201 88.4511,-106.292 97.3014,-100.468 91.7376,-96.2201"/>
</g>
<!-- Node15 -->
<g id="node3" class="node"><title>Node15</title>
<g id="a_node3"><a xlink:title=" ">
<polygon fill="white" stroke="#bfbfbf" points="36,-294 36,-351 65,-351 65,-294 36,-294"/>
<text text-anchor="middle" x="50.5" y="-339" font-family="Helvetica,sans-Serif" font-size="10.00">T</text>
<polyline fill="none" stroke="#bfbfbf" points="36,-332 65,-332 "/>
<text text-anchor="middle" x="50.5" y="-320" font-family="Helvetica,sans-Serif" font-size="10.00"> </text>
<polyline fill="none" stroke="#bfbfbf" points="36,-313 65,-313 "/>
<text text-anchor="middle" x="50.5" y="-301" font-family="Helvetica,sans-Serif" font-size="10.00"> </text>
</a>
</g>
</g>
<!-- Node15&#45;&gt;Node14 -->
<g id="edge2" class="edge"><title>Node15&#45;&gt;Node14</title>
<path fill="none" stroke="midnightblue" d="M50.5,-283.562C50.5,-260.996 50.5,-232.108 50.5,-207.732"/>
<polygon fill="none" stroke="midnightblue" points="47.0001,-283.764 50.5,-293.764 54.0001,-283.764 47.0001,-283.764"/>
</g>
<!-- Node16 -->
<g id="node4" class="node"><title>Node16</title>
<g id="a_node4"><a xlink:href="classqtsdl_1_1_gui_item_core_instantiator.xhtml" target="_top" xlink:title=" ">
<polygon fill="white" stroke="black" points="119.5,-106.5 119.5,-207.5 289.5,-207.5 289.5,-106.5 119.5,-106.5"/>
<text text-anchor="middle" x="204.5" y="-195.5" font-family="Helvetica,sans-Serif" font-size="10.00">qtsdl::GuiItemCoreInstantiator&lt; P &gt;</text>
<polyline fill="none" stroke="black" points="119.5,-188.5 289.5,-188.5 "/>
<text text-anchor="middle" x="204.5" y="-176.5" font-family="Helvetica,sans-Serif" font-size="10.00"> </text>
<polyline fill="none" stroke="black" points="119.5,-169.5 289.5,-169.5 "/>
<text text-anchor="start" x="127.5" y="-157.5" font-family="Helvetica,sans-Serif" font-size="10.00">+ GuiItemCoreInstantiator()</text>
<text text-anchor="start" x="127.5" y="-146.5" font-family="Helvetica,sans-Serif" font-size="10.00">&#45; GuiItemCoreInstantiator()</text>
<text text-anchor="start" x="127.5" y="-135.5" font-family="Helvetica,sans-Serif" font-size="10.00">&#45; instantiate_core()</text>
<text text-anchor="start" x="127.5" y="-124.5" font-family="Helvetica,sans-Serif" font-size="10.00">&#45; do_adopt_core()</text>
<text text-anchor="start" x="127.5" y="-113.5" font-family="Helvetica,sans-Serif" font-size="10.00">&#45; operator=()</text>
</a>
</g>
</g>
<!-- Node16&#45;&gt;Node13 -->
<g id="edge3" class="edge"><title>Node16&#45;&gt;Node13</title>
<path fill="none" stroke="midnightblue" d="M174.288,-97.2819C169.214,-87.4206 164.112,-77.5047 159.526,-68.5915"/>
<polygon fill="none" stroke="midnightblue" points="171.237,-99.0016 178.924,-106.292 177.461,-95.799 171.237,-99.0016"/>
</g>
<!-- Node17 -->
<g id="node5" class="node"><title>Node17</title>
<g id="a_node5"><a xlink:href="classqtsdl_1_1_gui_item_methods.xhtml" target="_top" xlink:title=" ">
<polygon fill="white" stroke="black" points="108.5,-255.5 108.5,-389.5 248.5,-389.5 248.5,-255.5 108.5,-255.5"/>
<text text-anchor="middle" x="178.5" y="-377.5" font-family="Helvetica,sans-Serif" font-size="10.00">qtsdl::GuiItemMethods&lt; P &gt;</text>
<polyline fill="none" stroke="black" points="108.5,-370.5 248.5,-370.5 "/>
<text text-anchor="middle" x="178.5" y="-358.5" font-family="Helvetica,sans-Serif" font-size="10.00"> </text>
<polyline fill="none" stroke="black" points="108.5,-351.5 248.5,-351.5 "/>
<text text-anchor="start" x="116.5" y="-339.5" font-family="Helvetica,sans-Serif" font-size="10.00">+ ~GuiItemMethods()</text>
<text text-anchor="start" x="116.5" y="-328.5" font-family="Helvetica,sans-Serif" font-size="10.00">+ get()</text>
<text text-anchor="start" x="116.5" y="-317.5" font-family="Helvetica,sans-Serif" font-size="10.00">+ get()</text>
<text text-anchor="start" x="116.5" y="-306.5" font-family="Helvetica,sans-Serif" font-size="10.00">+ i()</text>
<text text-anchor="start" x="116.5" y="-295.5" font-family="Helvetica,sans-Serif" font-size="10.00"># s()</text>
<text text-anchor="start" x="116.5" y="-284.5" font-family="Helvetica,sans-Serif" font-size="10.00"># sf()</text>
<text text-anchor="start" x="116.5" y="-273.5" font-family="Helvetica,sans-Serif" font-size="10.00">&#45; assign_while_catching</text>
<text text-anchor="start" x="116.5" y="-262.5" font-family="Helvetica,sans-Serif" font-size="10.00">_constant_properies_inits()</text>
</a>
</g>
</g>
<!-- Node17&#45;&gt;Node16 -->
<g id="edge4" class="edge"><title>Node17&#45;&gt;Node16</title>
<path fill="none" stroke="midnightblue" d="M190.619,-245.288C192.651,-232.513 194.711,-219.558 196.6,-207.676"/>
<polygon fill="none" stroke="midnightblue" points="187.114,-245.044 189,-255.47 194.027,-246.143 187.114,-245.044"/>
</g>
<!-- Node18 -->
<g id="node6" class="node"><title>Node18</title>
<g id="a_node6"><a xlink:href="classqtsdl_1_1_gui_item_methods.xhtml" target="_top" xlink:title=" ">
<polygon fill="white" stroke="black" points="211.5,-437.5 211.5,-571.5 349.5,-571.5 349.5,-437.5 211.5,-437.5"/>
<text text-anchor="middle" x="280.5" y="-559.5" font-family="Helvetica,sans-Serif" font-size="10.00">qtsdl::GuiItemMethods&lt; T &gt;</text>
<polyline fill="none" stroke="black" points="211.5,-552.5 349.5,-552.5 "/>
<text text-anchor="middle" x="280.5" y="-540.5" font-family="Helvetica,sans-Serif" font-size="10.00"> </text>
<polyline fill="none" stroke="black" points="211.5,-533.5 349.5,-533.5 "/>
<text text-anchor="start" x="219.5" y="-521.5" font-family="Helvetica,sans-Serif" font-size="10.00">+ ~GuiItemMethods()</text>
<text text-anchor="start" x="219.5" y="-510.5" font-family="Helvetica,sans-Serif" font-size="10.00">+ get()</text>
<text text-anchor="start" x="219.5" y="-499.5" font-family="Helvetica,sans-Serif" font-size="10.00">+ get()</text>
<text text-anchor="start" x="219.5" y="-488.5" font-family="Helvetica,sans-Serif" font-size="10.00">+ i()</text>
<text text-anchor="start" x="219.5" y="-477.5" font-family="Helvetica,sans-Serif" font-size="10.00"># s()</text>
<text text-anchor="start" x="219.5" y="-466.5" font-family="Helvetica,sans-Serif" font-size="10.00"># sf()</text>
<text text-anchor="start" x="219.5" y="-455.5" font-family="Helvetica,sans-Serif" font-size="10.00">&#45; assign_while_catching</text>
<text text-anchor="start" x="219.5" y="-444.5" font-family="Helvetica,sans-Serif" font-size="10.00">_constant_properies_inits()</text>
</a>
</g>
</g>
<!-- Node18&#45;&gt;Node17 -->
<g id="edge5" class="edge"><title>Node18&#45;&gt;Node17</title>
<path fill="none" stroke="orange" d="M238.087,-428.653C230.782,-415.762 223.234,-402.443 216.068,-389.796"/>
<polygon fill="orange" stroke="orange" points="235.123,-430.522 243.098,-437.497 241.213,-427.071 235.123,-430.522"/>
<text text-anchor="middle" x="246.5" y="-411" font-family="Helvetica,sans-Serif" font-size="10.00"> &lt; P &gt;</text>
</g>
<!-- Node19 -->
<g id="node7" class="node"><title>Node19</title>
<g id="a_node7"><a xlink:href="classqtsdl_1_1_gui_item_core_instantiator.xhtml" target="_top" xlink:title=" ">
<polygon fill="white" stroke="black" points="267,-272 267,-373 436,-373 436,-272 267,-272"/>
<text text-anchor="middle" x="351.5" y="-361" font-family="Helvetica,sans-Serif" font-size="10.00">qtsdl::GuiItemCoreInstantiator&lt; T &gt;</text>
<polyline fill="none" stroke="black" points="267,-354 436,-354 "/>
<text text-anchor="middle" x="351.5" y="-342" font-family="Helvetica,sans-Serif" font-size="10.00"> </text>
<polyline fill="none" stroke="black" points="267,-335 436,-335 "/>
<text text-anchor="start" x="275" y="-323" font-family="Helvetica,sans-Serif" font-size="10.00">+ GuiItemCoreInstantiator()</text>
<text text-anchor="start" x="275" y="-312" font-family="Helvetica,sans-Serif" font-size="10.00">&#45; instantiate_core()</text>
<text text-anchor="start" x="275" y="-301" font-family="Helvetica,sans-Serif" font-size="10.00">&#45; do_adopt_core()</text>
<text text-anchor="start" x="275" y="-290" font-family="Helvetica,sans-Serif" font-size="10.00">&#45; GuiItemCoreInstantiator()</text>
<text text-anchor="start" x="275" y="-279" font-family="Helvetica,sans-Serif" font-size="10.00">&#45; operator=()</text>
</a>
</g>
</g>
<!-- Node18&#45;&gt;Node19 -->
<g id="edge7" class="edge"><title>Node18&#45;&gt;Node19</title>
<path fill="none" stroke="midnightblue" d="M310.214,-428.169C317.543,-409.588 325.21,-390.151 331.92,-373.14"/>
<polygon fill="none" stroke="midnightblue" points="306.948,-426.91 306.535,-437.497 313.46,-429.479 306.948,-426.91"/>
</g>
<!-- Node19&#45;&gt;Node16 -->
<g id="edge6" class="edge"><title>Node19&#45;&gt;Node16</title>
<path fill="none" stroke="orange" d="M299.638,-263.816C283.148,-245.475 265.062,-225.36 249.129,-207.638"/>
<polygon fill="orange" stroke="orange" points="297.308,-266.46 306.596,-271.556 302.513,-261.78 297.308,-266.46"/>
<text text-anchor="middle" x="287.5" y="-229" font-family="Helvetica,sans-Serif" font-size="10.00"> &lt; P &gt;</text>
</g>
</g>
</svg>
        <g id="navigator" transform="translate(0 0)" fill="#404254">
                <rect fill="#f2f5e9" fill-opacity="0.5" stroke="#606060" stroke-width=".5" x="0" y="0" width="60" height="60"/>
                <use id="zoomplus" xlink:href="#zoomPlus" x="17" y="9" onmousedown="handleZoom(evt,'in')"/>
                <use id="zoomminus" xlink:href="#zoomMin" x="42" y="9" onmousedown="handleZoom(evt,'out')"/>
                <use id="reset" xlink:href="#resetDef" x="30" y="36" onmousedown="handleReset()"/>
                <g id="arrowUp" xlink:href="#dirArrow" transform="translate(30 24)" onmousedown="handlePan(0,-1)">
                  <use xlink:href="#rim" fill="#404040">
                        <set attributeName="fill" to="#808080" begin="arrowUp.mouseover" end="arrowUp.mouseout"/>
                  </use>
                  <path fill="none" stroke="white" stroke-width="1.5" d="M0,-3.0v7 M-2.5,-0.5L0,-3.0L2.5,-0.5"/>
                </g>
                <g id="arrowRight" xlink:href="#dirArrow" transform="rotate(90) translate(36 -43)" onmousedown="handlePan(1,0)">
                  <use xlink:href="#rim" fill="#404040">
                        <set attributeName="fill" to="#808080" begin="arrowRight.mouseover" end="arrowRight.mouseout"/>
                  </use>
                  <path fill="none" stroke="white" stroke-width="1.5" d="M0,-3.0v7 M-2.5,-0.5L0,-3.0L2.5,-0.5"/>
                </g>
                <g id="arrowDown" xlink:href="#dirArrow" transform="rotate(180) translate(-30 -48)" onmousedown="handlePan(0,1)">
                  <use xlink:href="#rim" fill="#404040">
                        <set attributeName="fill" to="#808080" begin="arrowDown.mouseover" end="arrowDown.mouseout"/>
                  </use>
                  <path fill="none" stroke="white" stroke-width="1.5" d="M0,-3.0v7 M-2.5,-0.5L0,-3.0L2.5,-0.5"/>
                </g>
                <g id="arrowLeft" xlink:href="#dirArrow" transform="rotate(270) translate(-36 17)" onmousedown="handlePan(-1,0)">
                  <use xlink:href="#rim" fill="#404040">
                        <set attributeName="fill" to="#808080" begin="arrowLeft.mouseover" end="arrowLeft.mouseout"/>
                  </use>
                  <path fill="none" stroke="white" stroke-width="1.5" d="M0,-3.0v7 M-2.5,-0.5L0,-3.0L2.5,-0.5"/>
                </g>
        </g>
        <svg viewBox="0 0 15 15" width="100%" height="30px" preserveAspectRatio="xMaxYMin meet">
         <g id="arrow_out" transform="scale(0.3 0.3)">
          <a xlink:href="classqtsdl_1_1_inherits__coll__graph_org.svg" target="_base">
           <rect id="button" ry="5" rx="5" y="6" x="6" height="38" width="38"
                fill="#f2f5e9" fill-opacity="0.5" stroke="#606060" stroke-width="1.0"/>
           <path id="arrow"
             d="M 11.500037,31.436501 C 11.940474,20.09759 22.043105,11.32322 32.158766,21.979434 L 37.068811,17.246167 C 37.068811,17.246167 37.088388,32 37.088388,32 L 22.160133,31.978069 C 22.160133,31.978069 26.997745,27.140456 26.997745,27.140456 C 18.528582,18.264221 13.291696,25.230495 11.500037,31.436501 z"
             style="fill:#404040;"/>
          </a>
         </g>
        </svg>
</svg>
