<?xml version="1.0" encoding="UTF-8" standalone="no"?>
<!DOCTYPE svg PUBLIC "-//W3C//DTD SVG 1.1//EN"
 "http://www.w3.org/Graphics/SVG/1.1/DTD/svg11.dtd">
<!-- Generated by graphviz version 2.38.0 (20140413.2041)
 -->
<!-- Title: openage::Attribute&lt; attr_type::population &gt; Pages: 1 -->
<svg width="148pt" height="353pt"
 viewBox="0.00 0.00 148.00 353.00" xmlns="http://www.w3.org/2000/svg" xmlns:xlink="http://www.w3.org/1999/xlink">
<g id="graph0" class="graph" transform="scale(1 1) rotate(0) translate(4 349)">
<title>openage::Attribute&lt; attr_type::population &gt;</title>
<polygon fill="white" stroke="none" points="-4,4 -4,-349 144,-349 144,4 -4,4"/>
<!-- Node0 -->
<g id="node1" class="node"><title>Node0</title>
<g id="a_node1"><a xlink:title="The population capacity and the population demand.">
<polygon fill="#bfbfbf" stroke="black" points="8.5,-0.5 8.5,-90.5 131.5,-90.5 131.5,-0.5 8.5,-0.5"/>
<text text-anchor="start" x="16.5" y="-78.5" font-family="Helvetica,sans-Serif" font-size="10.00">openage::Attribute</text>
<text text-anchor="middle" x="70" y="-67.5" font-family="Helvetica,sans-Serif" font-size="10.00">&lt; attr_type::population &gt;</text>
<polyline fill="none" stroke="black" points="8.5,-60.5 131.5,-60.5 "/>
<text text-anchor="start" x="16.5" y="-48.5" font-family="Helvetica,sans-Serif" font-size="10.00">+ demand</text>
<text text-anchor="start" x="16.5" y="-37.5" font-family="Helvetica,sans-Serif" font-size="10.00">+ capacity</text>
<polyline fill="none" stroke="black" points="8.5,-30.5 131.5,-30.5 "/>
<text text-anchor="start" x="16.5" y="-18.5" font-family="Helvetica,sans-Serif" font-size="10.00">+ Attribute()</text>
<text text-anchor="start" x="16.5" y="-7.5" font-family="Helvetica,sans-Serif" font-size="10.00">+ copy()</text>
</a>
</g>
</g>
<!-- Node1 -->
<g id="node2" class="node"><title>Node1</title>
<g id="a_node2"><a xlink:href="classopenage_1_1_shared_attribute_container.xhtml" target="_top" xlink:title="Wraps a templated shared attribute.">
<polygon fill="white" stroke="black" points="0,-127.5 0,-206.5 140,-206.5 140,-127.5 0,-127.5"/>
<text text-anchor="start" x="8" y="-194.5" font-family="Helvetica,sans-Serif" font-size="10.00">openage::SharedAttribute</text>
<text text-anchor="middle" x="70" y="-183.5" font-family="Helvetica,sans-Serif" font-size="10.00">Container</text>
<polyline fill="none" stroke="black" points="0,-176.5 140,-176.5 "/>
<text text-anchor="middle" x="70" y="-164.5" font-family="Helvetica,sans-Serif" font-size="10.00"> </text>
<polyline fill="none" stroke="black" points="0,-157.5 140,-157.5 "/>
<text text-anchor="start" x="8" y="-145.5" font-family="Helvetica,sans-Serif" font-size="10.00">+ SharedAttributeContainer()</text>
<text text-anchor="start" x="8" y="-134.5" font-family="Helvetica,sans-Serif" font-size="10.00">+ shared()</text>
</a>
</g>
</g>
<!-- Node1&#45;&gt;Node0 -->
<g id="edge1" class="edge"><title>Node1&#45;&gt;Node0</title>
<path fill="none" stroke="midnightblue" d="M70,-117.187C70,-108.491 70,-99.4758 70,-90.9111"/>
<polygon fill="none" stroke="midnightblue" points="66.5001,-117.202 70,-127.202 73.5001,-117.202 66.5001,-117.202"/>
</g>
<!-- Node2 -->
<g id="node3" class="node"><title>Node2</title>
<g id="a_node3"><a xlink:href="classopenage_1_1_attribute_container.xhtml" target="_top" xlink:title="Wraps a templated attribute.">
<polygon fill="white" stroke="black" points="1.5,-243.5 1.5,-344.5 138.5,-344.5 138.5,-243.5 1.5,-243.5"/>
<text text-anchor="middle" x="70" y="-332.5" font-family="Helvetica,sans-Serif" font-size="10.00">openage::AttributeContainer</text>
<polyline fill="none" stroke="black" points="1.5,-325.5 138.5,-325.5 "/>
<text text-anchor="start" x="9.5" y="-313.5" font-family="Helvetica,sans-Serif" font-size="10.00">+ type</text>
<polyline fill="none" stroke="black" points="1.5,-306.5 138.5,-306.5 "/>
<text text-anchor="start" x="9.5" y="-294.5" font-family="Helvetica,sans-Serif" font-size="10.00">+ AttributeContainer()</text>
<text text-anchor="start" x="9.5" y="-283.5" font-family="Helvetica,sans-Serif" font-size="10.00">+ AttributeContainer()</text>
<text text-anchor="start" x="9.5" y="-272.5" font-family="Helvetica,sans-Serif" font-size="10.00">+ ~AttributeContainer()</text>
<text text-anchor="start" x="9.5" y="-261.5" font-family="Helvetica,sans-Serif" font-size="10.00">+ shared()</text>
<text text-anchor="start" x="9.5" y="-250.5" font-family="Helvetica,sans-Serif" font-size="10.00">+ copy()</text>
</a>
</g>
</g>
<!-- Node2&#45;&gt;Node1 -->
<g id="edge2" class="edge"><title>Node2&#45;&gt;Node1</title>
<path fill="none" stroke="midnightblue" d="M70,-233.186C70,-224.221 70,-215.181 70,-206.808"/>
<polygon fill="none" stroke="midnightblue" points="66.5001,-233.237 70,-243.238 73.5001,-233.238 66.5001,-233.237"/>
</g>
</g>
</svg>
