<?xml version="1.0" encoding="UTF-8" standalone="no"?>
<!DOCTYPE svg PUBLIC "-//W3C//DTD SVG 1.1//EN"
 "http://www.w3.org/Graphics/SVG/1.1/DTD/svg11.dtd">
<!-- Generated by graphviz version 2.38.0 (20140413.2041)
 -->
<!-- Title: openage::renderer::resources::Texture2dData::Texture2dData Pages: 1 -->
<!--zoomable 403 -->
<svg id="main" version="1.1" xmlns="http://www.w3.org/2000/svg" xmlns:xlink="http://www.w3.org/1999/xlink" xml:space="preserve" onload="init(evt)">
<style type="text/css"><![CDATA[
.edge:hover path { stroke: red; }
.edge:hover polygon { stroke: red; fill: red; }
]]></style>
<script type="text/javascript"><![CDATA[
var edges = document.getElementsByTagName('g');
if (edges && edges.length) {
  for (var i=0;i<edges.length;i++) {
    if (edges[i].id.substr(0,4)=='edge') {
      edges[i].setAttribute('class','edge');
    }
  }
}
]]></script>
        <defs>
                <circle id="rim" cx="0" cy="0" r="7"/>
                <circle id="rim2" cx="0" cy="0" r="3.5"/>
                <g id="zoomPlus">
                        <use xlink:href="#rim" fill="#404040">
                                <set attributeName="fill" to="#808080" begin="zoomplus.mouseover" end="zoomplus.mouseout"/>
                        </use>
                        <path d="M-4,0h8M0,-4v8" fill="none" stroke="white" stroke-width="1.5" pointer-events="none"/>
                </g>
                <g id="zoomMin">
                        <use xlink:href="#rim" fill="#404040">
                                <set attributeName="fill" to="#808080" begin="zoomminus.mouseover" end="zoomminus.mouseout"/>
                        </use>
                        <path d="M-4,0h8" fill="none" stroke="white" stroke-width="1.5" pointer-events="none"/>
                </g>
                <g id="dirArrow">
                        <path fill="none" stroke="white" stroke-width="1.5" d="M0,-3.0v7 M-2.5,-0.5L0,-3.0L2.5,-0.5"/>
                </g>
               <g id="resetDef">
                       <use xlink:href="#rim2" fill="#404040">
                               <set attributeName="fill" to="#808080" begin="reset.mouseover" end="reset.mouseout"/>
                       </use>
               </g>
        </defs>

<script type="text/javascript">
var viewWidth = 647;
var viewHeight = 403;
var sectionId = 'dynsection-1';
</script>
<script xlink:href="svgpan.js"/>
<svg id="graph" class="graph">
<g id="viewport">
<title>openage::renderer::resources::Texture2dData::Texture2dData</title>
<polygon fill="white" stroke="none" points="-4,4 -4,-398.5 643,-398.5 643,4 -4,4"/>
<!-- Node0 -->
<g id="node1" class="node"><title>Node0</title>
<g id="a_node1"><a xlink:title="Create a texture from an image file.">
<polygon fill="#bfbfbf" stroke="black" points="0,-233 0,-274 128,-274 128,-233 0,-233"/>
<text text-anchor="start" x="8" y="-262" font-family="Helvetica,sans-Serif" font-size="10.00">openage::renderer::</text>
<text text-anchor="start" x="8" y="-251" font-family="Helvetica,sans-Serif" font-size="10.00">resources::Texture2dData</text>
<text text-anchor="middle" x="64" y="-240" font-family="Helvetica,sans-Serif" font-size="10.00">::Texture2dData</text>
</a>
</g>
</g>
<!-- Node1 -->
<g id="node2" class="node"><title>Node1</title>
<g id="a_node2"><a xlink:href="namespaceopenage_1_1log.xhtml#aad3d76b2466dbc4f81552935f2d84faa" target="_top" xlink:title="debug message">
<polygon fill="white" stroke="black" points="176,-375 176,-394 264,-394 264,-375 176,-375"/>
<text text-anchor="middle" x="220" y="-382" font-family="Helvetica,sans-Serif" font-size="10.00">openage.log.dbg</text>
</a>
</g>
</g>
<!-- Node0&#45;&gt;Node1 -->
<g id="edge1" class="edge"><title>Node0&#45;&gt;Node1</title>
<path fill="none" stroke="midnightblue" d="M78.2973,-274.18C95.3369,-299.137 127.119,-340.818 164,-365.5 166.944,-367.47 170.113,-369.257 173.39,-370.874"/>
<polygon fill="midnightblue" stroke="midnightblue" points="172.252,-374.196 182.817,-374.991 175.054,-367.781 172.252,-374.196"/>
</g>
<!-- Node2 -->
<g id="node3" class="node"><title>Node2</title>
<g id="a_node3"><a xlink:href="namespaceopenage_1_1log.xhtml#a325b0901ddb3f2af36f93781b7dd9744" target="_top" xlink:title="error message">
<polygon fill="white" stroke="black" points="178.5,-337 178.5,-356 261.5,-356 261.5,-337 178.5,-337"/>
<text text-anchor="middle" x="220" y="-344" font-family="Helvetica,sans-Serif" font-size="10.00">openage.log.err</text>
</a>
</g>
</g>
<!-- Node0&#45;&gt;Node2 -->
<g id="edge2" class="edge"><title>Node0&#45;&gt;Node2</title>
<path fill="none" stroke="midnightblue" d="M88.4003,-274.29C107.622,-290.524 136.127,-312.731 164,-327.5 167.974,-329.606 172.229,-331.553 176.547,-333.335"/>
<polygon fill="midnightblue" stroke="midnightblue" points="175.425,-336.653 186.016,-336.965 177.931,-330.117 175.425,-336.653"/>
</g>
<!-- Node3 -->
<g id="node4" class="node"><title>Node3</title>
<g id="a_node4"><a xlink:href="classopenage_1_1util_1_1_path.xhtml#a3fc6528c66f6d83e122e753f73511a3d" target="_top" xlink:title=" ">
<polygon fill="white" stroke="black" points="171,-287.5 171,-317.5 269,-317.5 269,-287.5 171,-287.5"/>
<text text-anchor="start" x="179" y="-305.5" font-family="Helvetica,sans-Serif" font-size="10.00">openage::util::Path</text>
<text text-anchor="middle" x="220" y="-294.5" font-family="Helvetica,sans-Serif" font-size="10.00">::get_parent</text>
</a>
</g>
</g>
<!-- Node0&#45;&gt;Node3 -->
<g id="edge3" class="edge"><title>Node0&#45;&gt;Node3</title>
<path fill="none" stroke="midnightblue" d="M128.082,-273.572C139.389,-277.169 151.111,-280.899 162.227,-284.436"/>
<polygon fill="midnightblue" stroke="midnightblue" points="161.223,-287.789 171.814,-287.486 163.346,-281.119 161.223,-287.789"/>
</g>
<!-- Node5 -->
<g id="node6" class="node"><title>Node5</title>
<g id="a_node6"><a xlink:href="classopenage_1_1util_1_1_path.xhtml#afed5e82e9f515fc2d8e2cdc291edebca" target="_top" xlink:title=" ">
<polygon fill="white" stroke="black" points="171,-238.5 171,-268.5 269,-268.5 269,-238.5 171,-238.5"/>
<text text-anchor="start" x="179" y="-256.5" font-family="Helvetica,sans-Serif" font-size="10.00">openage::util::Path</text>
<text text-anchor="middle" x="220" y="-245.5" font-family="Helvetica,sans-Serif" font-size="10.00">::get_stem</text>
</a>
</g>
</g>
<!-- Node0&#45;&gt;Node5 -->
<g id="edge5" class="edge"><title>Node0&#45;&gt;Node5</title>
<path fill="none" stroke="midnightblue" d="M128.082,-253.5C138.909,-253.5 150.116,-253.5 160.807,-253.5"/>
<polygon fill="midnightblue" stroke="midnightblue" points="160.871,-257 170.871,-253.5 160.871,-250 160.871,-257"/>
</g>
<!-- Node7 -->
<g id="node8" class="node"><title>Node7</title>
<g id="a_node8"><a xlink:href="namespaceopenage_1_1renderer_1_1resources.xhtml#a62ad4c6594b8ad6f357a9e5b18575bc4" target="_top" xlink:title="Tries to guess the alignment of image rows based on image parameters.">
<polygon fill="white" stroke="black" points="164,-178 164,-219 276,-219 276,-178 164,-178"/>
<text text-anchor="start" x="172" y="-207" font-family="Helvetica,sans-Serif" font-size="10.00">openage::renderer::</text>
<text text-anchor="start" x="172" y="-196" font-family="Helvetica,sans-Serif" font-size="10.00">resources::guess_row</text>
<text text-anchor="middle" x="220" y="-185" font-family="Helvetica,sans-Serif" font-size="10.00">_alignment</text>
</a>
</g>
</g>
<!-- Node0&#45;&gt;Node7 -->
<g id="edge7" class="edge"><title>Node0&#45;&gt;Node7</title>
<path fill="none" stroke="midnightblue" d="M122.782,-232.864C133.106,-229.176 143.923,-225.313 154.424,-221.563"/>
<polygon fill="midnightblue" stroke="midnightblue" points="155.714,-224.819 163.955,-218.159 153.36,-218.226 155.714,-224.819"/>
</g>
<!-- Node9 -->
<g id="node10" class="node"><title>Node9</title>
<g id="a_node10"><a xlink:href="namespaceopenage_1_1log.xhtml#a0eff614e7d6e818746700ed9d29e583f" target="_top" xlink:title="Convenience method that makes use of the &#39;general&#39; LogSource.">
<polygon fill="white" stroke="black" points="174.5,-140 174.5,-159 265.5,-159 265.5,-140 174.5,-140"/>
<text text-anchor="middle" x="220" y="-147" font-family="Helvetica,sans-Serif" font-size="10.00">openage::log::log</text>
</a>
</g>
</g>
<!-- Node0&#45;&gt;Node9 -->
<g id="edge9" class="edge"><title>Node0&#45;&gt;Node9</title>
<path fill="none" stroke="midnightblue" d="M84.4865,-232.776C103.292,-213.807 133.35,-186.091 164,-168.5 167.647,-166.407 171.562,-164.492 175.562,-162.753"/>
<polygon fill="midnightblue" stroke="midnightblue" points="176.964,-165.962 184.961,-159.013 174.376,-159.458 176.964,-165.962"/>
</g>
<!-- Node15 -->
<g id="node16" class="node"><title>Node15</title>
<g id="a_node16"><a xlink:href="classopenage_1_1util_1_1_path.xhtml#a4ca4da6e9e2d8adadb02373ff2be8ebe" target="_top" xlink:title="Resolve the native path by flattening all underlying filesystem objects (like unions).">
<polygon fill="white" stroke="black" points="166.5,-49.5 166.5,-79.5 273.5,-79.5 273.5,-49.5 166.5,-49.5"/>
<text text-anchor="start" x="174.5" y="-67.5" font-family="Helvetica,sans-Serif" font-size="10.00">openage::util::Path</text>
<text text-anchor="middle" x="220" y="-56.5" font-family="Helvetica,sans-Serif" font-size="10.00">::resolve_native_path</text>
</a>
</g>
</g>
<!-- Node0&#45;&gt;Node15 -->
<g id="edge15" class="edge"><title>Node0&#45;&gt;Node15</title>
<path fill="none" stroke="midnightblue" d="M81.3599,-232.956C100.904,-208.464 134.647,-166.34 164,-130.5 175.784,-116.112 189.136,-100.083 199.734,-87.424"/>
<polygon fill="midnightblue" stroke="midnightblue" points="202.514,-89.5554 206.256,-79.6433 197.15,-85.0586 202.514,-89.5554"/>
</g>
<!-- Node4 -->
<g id="node5" class="node"><title>Node4</title>
<g id="a_node5"><a xlink:href="classopenage_1_1util_1_1_path.xhtml#a21fb5a34dad3027d7c9fca721211a258" target="_top" xlink:title=" ">
<polygon fill="white" stroke="black" points="334.5,-287.5 334.5,-317.5 432.5,-317.5 432.5,-287.5 334.5,-287.5"/>
<text text-anchor="start" x="342.5" y="-305.5" font-family="Helvetica,sans-Serif" font-size="10.00">openage::util::Path</text>
<text text-anchor="middle" x="383.5" y="-294.5" font-family="Helvetica,sans-Serif" font-size="10.00">::joinpath</text>
</a>
</g>
</g>
<!-- Node3&#45;&gt;Node4 -->
<g id="edge4" class="edge"><title>Node3&#45;&gt;Node4</title>
<path fill="none" stroke="midnightblue" d="M269.018,-302.5C286.354,-302.5 306.112,-302.5 324.23,-302.5"/>
<polygon fill="midnightblue" stroke="midnightblue" points="324.388,-306 334.388,-302.5 324.388,-299 324.388,-306"/>
</g>
<!-- Node6 -->
<g id="node7" class="node"><title>Node6</title>
<g id="a_node7"><a xlink:href="classopenage_1_1util_1_1_path.xhtml#a20819ad3bd985841f0538e3adac52cf6" target="_top" xlink:title=" ">
<polygon fill="white" stroke="black" points="334.5,-238.5 334.5,-268.5 432.5,-268.5 432.5,-238.5 334.5,-238.5"/>
<text text-anchor="start" x="342.5" y="-256.5" font-family="Helvetica,sans-Serif" font-size="10.00">openage::util::Path</text>
<text text-anchor="middle" x="383.5" y="-245.5" font-family="Helvetica,sans-Serif" font-size="10.00">::get_name</text>
</a>
</g>
</g>
<!-- Node5&#45;&gt;Node6 -->
<g id="edge6" class="edge"><title>Node5&#45;&gt;Node6</title>
<path fill="none" stroke="midnightblue" d="M269.018,-253.5C286.354,-253.5 306.112,-253.5 324.23,-253.5"/>
<polygon fill="midnightblue" stroke="midnightblue" points="324.388,-257 334.388,-253.5 324.388,-250 324.388,-257"/>
</g>
<!-- Node8 -->
<g id="node9" class="node"><title>Node8</title>
<g id="a_node9"><a xlink:href="namespaceopenage_1_1renderer_1_1resources.xhtml#aa8bc42c345504717eba7d38b39d278c2" target="_top" xlink:title="Returns the size in bytes of a single pixel of the specified format.">
<polygon fill="white" stroke="black" points="329,-186.5 329,-216.5 438,-216.5 438,-186.5 329,-186.5"/>
<text text-anchor="start" x="337" y="-204.5" font-family="Helvetica,sans-Serif" font-size="10.00">openage::renderer::</text>
<text text-anchor="middle" x="383.5" y="-193.5" font-family="Helvetica,sans-Serif" font-size="10.00">resources::pixel_size</text>
</a>
</g>
</g>
<!-- Node7&#45;&gt;Node8 -->
<g id="edge8" class="edge"><title>Node7&#45;&gt;Node8</title>
<path fill="none" stroke="midnightblue" d="M276.127,-199.524C289.878,-199.779 304.734,-200.055 318.858,-200.318"/>
<polygon fill="midnightblue" stroke="midnightblue" points="318.923,-203.82 328.987,-200.506 319.053,-196.821 318.923,-203.82"/>
</g>
<!-- Node10 -->
<g id="node11" class="node"><title>Node10</title>
<g id="a_node11"><a xlink:href="namespaceopenage_1_1log.xhtml#a3fbb0c225d01e222648ec28a43507188" target="_top" xlink:title="Returns a reference to a general named log source, for use by log::log().">
<polygon fill="white" stroke="black" points="328.5,-137.5 328.5,-167.5 438.5,-167.5 438.5,-137.5 328.5,-137.5"/>
<text text-anchor="start" x="336.5" y="-155.5" font-family="Helvetica,sans-Serif" font-size="10.00">openage::log::general</text>
<text text-anchor="middle" x="383.5" y="-144.5" font-family="Helvetica,sans-Serif" font-size="10.00">_source</text>
</a>
</g>
</g>
<!-- Node9&#45;&gt;Node10 -->
<g id="edge10" class="edge"><title>Node9&#45;&gt;Node10</title>
<path fill="none" stroke="midnightblue" d="M265.558,-150.328C281.792,-150.629 300.487,-150.977 318.098,-151.304"/>
<polygon fill="midnightblue" stroke="midnightblue" points="318.252,-154.807 328.316,-151.493 318.382,-147.808 318.252,-154.807"/>
</g>
<!-- Node11 -->
<g id="node12" class="node"><title>Node11</title>
<g id="a_node12"><a xlink:href="classopenage_1_1log_1_1_log_source.xhtml#a5640099e20af4cd368c767dbcef3a1df" target="_top" xlink:title="Logs a message (get one via MSG(level)).">
<polygon fill="white" stroke="black" points="312,-99 312,-118 455,-118 455,-99 312,-99"/>
<text text-anchor="middle" x="383.5" y="-106" font-family="Helvetica,sans-Serif" font-size="10.00">openage::log::LogSource::log</text>
</a>
</g>
</g>
<!-- Node9&#45;&gt;Node11 -->
<g id="edge11" class="edge"><title>Node9&#45;&gt;Node11</title>
<path fill="none" stroke="midnightblue" d="M258.457,-139.991C281.307,-134.19 310.722,-126.722 335.173,-120.515"/>
<polygon fill="midnightblue" stroke="midnightblue" points="336.135,-123.882 344.966,-118.029 334.413,-117.097 336.135,-123.882"/>
</g>
<!-- Node12 -->
<g id="node13" class="node"><title>Node12</title>
<g id="a_node13"><a xlink:href="namespaceopenage_1_1log.xhtml#a3d2885be9c3a09b9ff7ee8764b2e5f39" target="_top" xlink:title="Returns a reference to the global stdout logsink object; Initializes the object if needed.">
<polygon fill="white" stroke="black" points="513,-142.5 513,-172.5 617,-172.5 617,-142.5 513,-142.5"/>
<text text-anchor="start" x="521" y="-160.5" font-family="Helvetica,sans-Serif" font-size="10.00">openage::log::global</text>
<text text-anchor="middle" x="565" y="-149.5" font-family="Helvetica,sans-Serif" font-size="10.00">_stdoutsink</text>
</a>
</g>
</g>
<!-- Node11&#45;&gt;Node12 -->
<g id="edge12" class="edge"><title>Node11&#45;&gt;Node12</title>
<path fill="none" stroke="midnightblue" d="M420.014,-118.031C431.211,-121.047 443.625,-124.402 455,-127.5 470.535,-131.731 487.305,-136.331 502.925,-140.629"/>
<polygon fill="midnightblue" stroke="midnightblue" points="502.429,-144.122 512.999,-143.403 504.287,-137.373 502.429,-144.122"/>
</g>
<!-- Node13 -->
<g id="node14" class="node"><title>Node13</title>
<g id="a_node14"><a xlink:href="classopenage_1_1log_1_1_log_sink_list.xhtml#a2d47416fab12651553b4b58c86fd6f84" target="_top" xlink:title=" ">
<polygon fill="white" stroke="black" points="500.5,-93.5 500.5,-123.5 629.5,-123.5 629.5,-93.5 500.5,-93.5"/>
<text text-anchor="start" x="508.5" y="-111.5" font-family="Helvetica,sans-Serif" font-size="10.00">openage::log::LogSinkList</text>
<text text-anchor="middle" x="565" y="-100.5" font-family="Helvetica,sans-Serif" font-size="10.00">::instance</text>
</a>
</g>
</g>
<!-- Node11&#45;&gt;Node13 -->
<g id="edge13" class="edge"><title>Node11&#45;&gt;Node13</title>
<path fill="none" stroke="midnightblue" d="M455.185,-108.5C466.719,-108.5 478.693,-108.5 490.297,-108.5"/>
<polygon fill="midnightblue" stroke="midnightblue" points="490.38,-112 500.379,-108.5 490.379,-105 490.38,-112"/>
</g>
<!-- Node14 -->
<g id="node15" class="node"><title>Node14</title>
<g id="a_node15"><a xlink:href="classopenage_1_1log_1_1_log_sink_list.xhtml#a8456b84ab55e1fe151c51438c5bfebdd" target="_top" xlink:title=" ">
<polygon fill="white" stroke="black" points="491,-55 491,-74 639,-74 639,-55 491,-55"/>
<text text-anchor="middle" x="565" y="-62" font-family="Helvetica,sans-Serif" font-size="10.00">openage::log::LogSinkList::log</text>
</a>
</g>
</g>
<!-- Node11&#45;&gt;Node14 -->
<g id="edge14" class="edge"><title>Node11&#45;&gt;Node14</title>
<path fill="none" stroke="midnightblue" d="M423.449,-98.9527C450.382,-92.3508 486.415,-83.5181 515.253,-76.449"/>
<polygon fill="midnightblue" stroke="midnightblue" points="516.248,-79.8089 525.127,-74.0287 514.581,-73.0102 516.248,-79.8089"/>
</g>
<!-- Node16 -->
<g id="node17" class="node"><title>Node16</title>
<g id="a_node17"><a xlink:href="classopenage_1_1util_1_1_path.xhtml#a919083912ceb465d8b3c28e4766161fe" target="_top" xlink:title=" ">
<polygon fill="white" stroke="black" points="326,-49.5 326,-79.5 441,-79.5 441,-49.5 326,-49.5"/>
<text text-anchor="start" x="334" y="-67.5" font-family="Helvetica,sans-Serif" font-size="10.00">openage::util::Path</text>
<text text-anchor="middle" x="383.5" y="-56.5" font-family="Helvetica,sans-Serif" font-size="10.00">::resolve_native_path_r</text>
</a>
</g>
</g>
<!-- Node15&#45;&gt;Node16 -->
<g id="edge16" class="edge"><title>Node15&#45;&gt;Node16</title>
<path fill="none" stroke="midnightblue" d="M273.881,-64.5C287.28,-64.5 301.845,-64.5 315.829,-64.5"/>
<polygon fill="midnightblue" stroke="midnightblue" points="315.884,-68.0001 325.884,-64.5 315.884,-61.0001 315.884,-68.0001"/>
</g>
<!-- Node17 -->
<g id="node18" class="node"><title>Node17</title>
<g id="a_node18"><a xlink:href="classopenage_1_1util_1_1_path.xhtml#a1175be01a6df63d066ca6f2d3e2c4d3c" target="_top" xlink:title=" ">
<polygon fill="white" stroke="black" points="324,-0.5 324,-30.5 443,-30.5 443,-0.5 324,-0.5"/>
<text text-anchor="start" x="332" y="-18.5" font-family="Helvetica,sans-Serif" font-size="10.00">openage::util::Path</text>
<text text-anchor="middle" x="383.5" y="-7.5" font-family="Helvetica,sans-Serif" font-size="10.00">::resolve_native_path_w</text>
</a>
</g>
</g>
<!-- Node15&#45;&gt;Node17 -->
<g id="edge17" class="edge"><title>Node15&#45;&gt;Node17</title>
<path fill="none" stroke="midnightblue" d="M270.773,-49.3986C287.275,-44.3917 305.812,-38.7676 322.972,-33.561"/>
<polygon fill="midnightblue" stroke="midnightblue" points="324.338,-36.8042 332.891,-30.5516 322.306,-30.1058 324.338,-36.8042"/>
</g>
</g>
</svg>
        <g id="navigator" transform="translate(0 0)" fill="#404254">
                <rect fill="#f2f5e9" fill-opacity="0.5" stroke="#606060" stroke-width=".5" x="0" y="0" width="60" height="60"/>
                <use id="zoomplus" xlink:href="#zoomPlus" x="17" y="9" onmousedown="handleZoom(evt,'in')"/>
                <use id="zoomminus" xlink:href="#zoomMin" x="42" y="9" onmousedown="handleZoom(evt,'out')"/>
                <use id="reset" xlink:href="#resetDef" x="30" y="36" onmousedown="handleReset()"/>
                <g id="arrowUp" xlink:href="#dirArrow" transform="translate(30 24)" onmousedown="handlePan(0,-1)">
                  <use xlink:href="#rim" fill="#404040">
                        <set attributeName="fill" to="#808080" begin="arrowUp.mouseover" end="arrowUp.mouseout"/>
                  </use>
                  <path fill="none" stroke="white" stroke-width="1.5" d="M0,-3.0v7 M-2.5,-0.5L0,-3.0L2.5,-0.5"/>
                </g>
                <g id="arrowRight" xlink:href="#dirArrow" transform="rotate(90) translate(36 -43)" onmousedown="handlePan(1,0)">
                  <use xlink:href="#rim" fill="#404040">
                        <set attributeName="fill" to="#808080" begin="arrowRight.mouseover" end="arrowRight.mouseout"/>
                  </use>
                  <path fill="none" stroke="white" stroke-width="1.5" d="M0,-3.0v7 M-2.5,-0.5L0,-3.0L2.5,-0.5"/>
                </g>
                <g id="arrowDown" xlink:href="#dirArrow" transform="rotate(180) translate(-30 -48)" onmousedown="handlePan(0,1)">
                  <use xlink:href="#rim" fill="#404040">
                        <set attributeName="fill" to="#808080" begin="arrowDown.mouseover" end="arrowDown.mouseout"/>
                  </use>
                  <path fill="none" stroke="white" stroke-width="1.5" d="M0,-3.0v7 M-2.5,-0.5L0,-3.0L2.5,-0.5"/>
                </g>
                <g id="arrowLeft" xlink:href="#dirArrow" transform="rotate(270) translate(-36 17)" onmousedown="handlePan(-1,0)">
                  <use xlink:href="#rim" fill="#404040">
                        <set attributeName="fill" to="#808080" begin="arrowLeft.mouseover" end="arrowLeft.mouseout"/>
                  </use>
                  <path fill="none" stroke="white" stroke-width="1.5" d="M0,-3.0v7 M-2.5,-0.5L0,-3.0L2.5,-0.5"/>
                </g>
        </g>
        <svg viewBox="0 0 15 15" width="100%" height="30px" preserveAspectRatio="xMaxYMin meet">
         <g id="arrow_out" transform="scale(0.3 0.3)">
          <a xlink:href="classopenage_1_1renderer_1_1resources_1_1_texture2d_data_a54659e7f41b37d889bba34111bb003d0_cgraph_org.svg" target="_base">
           <rect id="button" ry="5" rx="5" y="6" x="6" height="38" width="38"
                fill="#f2f5e9" fill-opacity="0.5" stroke="#606060" stroke-width="1.0"/>
           <path id="arrow"
             d="M 11.500037,31.436501 C 11.940474,20.09759 22.043105,11.32322 32.158766,21.979434 L 37.068811,17.246167 C 37.068811,17.246167 37.088388,32 37.088388,32 L 22.160133,31.978069 C 22.160133,31.978069 26.997745,27.140456 26.997745,27.140456 C 18.528582,18.264221 13.291696,25.230495 11.500037,31.436501 z"
             style="fill:#404040;"/>
          </a>
         </g>
        </svg>
</svg>
