<?xml version="1.0" encoding="UTF-8" standalone="no"?>
<!DOCTYPE svg PUBLIC "-//W3C//DTD SVG 1.1//EN"
 "http://www.w3.org/Graphics/SVG/1.1/DTD/svg11.dtd">
<!-- Generated by graphviz version 2.38.0 (20140413.2041)
 -->
<!-- Title: openage::util::ExternalProfiler::stop Pages: 1 -->
<svg width="642pt" height="170pt"
 viewBox="0.00 0.00 642.00 170.00" xmlns="http://www.w3.org/2000/svg" xmlns:xlink="http://www.w3.org/1999/xlink">
<g id="graph0" class="graph" transform="scale(1 1) rotate(0) translate(4 166)">
<title>openage::util::ExternalProfiler::stop</title>
<polygon fill="white" stroke="none" points="-4,4 -4,-166 638,-166 638,4 -4,4"/>
<!-- Node34 -->
<g id="node1" class="node"><title>Node34</title>
<g id="a_node1"><a xlink:title=" ">
<polygon fill="#bfbfbf" stroke="black" points="0,-99 0,-129 144,-129 144,-99 0,-99"/>
<text text-anchor="start" x="8" y="-117" font-family="Helvetica,sans-Serif" font-size="10.00">openage::util::ExternalProfiler</text>
<text text-anchor="middle" x="72" y="-106" font-family="Helvetica,sans-Serif" font-size="10.00">::stop</text>
</a>
</g>
</g>
<!-- Node35 -->
<g id="node2" class="node"><title>Node35</title>
<g id="a_node2"><a xlink:href="namespaceopenage_1_1log.xhtml#a325b0901ddb3f2af36f93781b7dd9744" target="_top" xlink:title="error message">
<polygon fill="white" stroke="black" points="184,-142.5 184,-161.5 267,-161.5 267,-142.5 184,-142.5"/>
<text text-anchor="middle" x="225.5" y="-149.5" font-family="Helvetica,sans-Serif" font-size="10.00">openage.log.err</text>
</a>
</g>
</g>
<!-- Node34&#45;&gt;Node35 -->
<g id="edge1" class="edge"><title>Node34&#45;&gt;Node35</title>
<path fill="none" stroke="midnightblue" d="M132.877,-129.019C147.386,-132.658 162.708,-136.501 176.583,-139.981"/>
<polygon fill="midnightblue" stroke="midnightblue" points="175.847,-143.405 186.399,-142.443 177.551,-136.615 175.847,-143.405"/>
</g>
<!-- Node36 -->
<g id="node3" class="node"><title>Node36</title>
<g id="a_node3"><a xlink:href="namespaceopenage_1_1log.xhtml#a3f1815b698faf5786fc5e20bcac7704b" target="_top" xlink:title="info message">
<polygon fill="white" stroke="black" points="182,-104.5 182,-123.5 269,-123.5 269,-104.5 182,-104.5"/>
<text text-anchor="middle" x="225.5" y="-111.5" font-family="Helvetica,sans-Serif" font-size="10.00">openage.log.info</text>
</a>
</g>
</g>
<!-- Node34&#45;&gt;Node36 -->
<g id="edge2" class="edge"><title>Node34&#45;&gt;Node36</title>
<path fill="none" stroke="midnightblue" d="M144.314,-114C153.471,-114 162.714,-114 171.507,-114"/>
<polygon fill="midnightblue" stroke="midnightblue" points="171.589,-117.5 181.589,-114 171.589,-110.5 171.589,-117.5"/>
</g>
<!-- Node37 -->
<g id="node4" class="node"><title>Node37</title>
<g id="a_node4"><a xlink:href="namespaceopenage_1_1log.xhtml#a0eff614e7d6e818746700ed9d29e583f" target="_top" xlink:title=" ">
<polygon fill="white" stroke="black" points="180,-66.5 180,-85.5 271,-85.5 271,-66.5 180,-66.5"/>
<text text-anchor="middle" x="225.5" y="-73.5" font-family="Helvetica,sans-Serif" font-size="10.00">openage::log::log</text>
</a>
</g>
</g>
<!-- Node34&#45;&gt;Node37 -->
<g id="edge3" class="edge"><title>Node34&#45;&gt;Node37</title>
<path fill="none" stroke="midnightblue" d="M132.877,-98.9814C147.386,-95.3422 162.708,-91.499 176.583,-88.0187"/>
<polygon fill="midnightblue" stroke="midnightblue" points="177.551,-91.3846 186.399,-85.5568 175.847,-84.5949 177.551,-91.3846"/>
</g>
<!-- Node38 -->
<g id="node5" class="node"><title>Node38</title>
<g id="a_node5"><a xlink:href="namespaceopenage_1_1log.xhtml#a3fbb0c225d01e222648ec28a43507188" target="_top" xlink:title=" ">
<polygon fill="white" stroke="black" points="323.5,-83 323.5,-113 433.5,-113 433.5,-83 323.5,-83"/>
<text text-anchor="start" x="331.5" y="-101" font-family="Helvetica,sans-Serif" font-size="10.00">openage::log::general</text>
<text text-anchor="middle" x="378.5" y="-90" font-family="Helvetica,sans-Serif" font-size="10.00">_source</text>
</a>
</g>
</g>
<!-- Node37&#45;&gt;Node38 -->
<g id="edge4" class="edge"><title>Node37&#45;&gt;Node38</title>
<path fill="none" stroke="midnightblue" d="M271.396,-82.5412C284.548,-84.4573 299.191,-86.5907 313.296,-88.6457"/>
<polygon fill="midnightblue" stroke="midnightblue" points="313.042,-92.1456 323.442,-90.124 314.051,-85.2188 313.042,-92.1456"/>
</g>
<!-- Node39 -->
<g id="node6" class="node"><title>Node39</title>
<g id="a_node6"><a xlink:href="classopenage_1_1log_1_1_log_source.xhtml#a5640099e20af4cd368c767dbcef3a1df" target="_top" xlink:title=" ">
<polygon fill="white" stroke="black" points="307,-44.5 307,-63.5 450,-63.5 450,-44.5 307,-44.5"/>
<text text-anchor="middle" x="378.5" y="-51.5" font-family="Helvetica,sans-Serif" font-size="10.00">openage::log::LogSource::log</text>
</a>
</g>
</g>
<!-- Node37&#45;&gt;Node39 -->
<g id="edge5" class="edge"><title>Node37&#45;&gt;Node39</title>
<path fill="none" stroke="midnightblue" d="M271.396,-69.4588C281.081,-68.0479 291.574,-66.5191 302.065,-64.9905"/>
<polygon fill="midnightblue" stroke="midnightblue" points="302.706,-68.4342 312.097,-63.5289 301.697,-61.5073 302.706,-68.4342"/>
</g>
<!-- Node40 -->
<g id="node7" class="node"><title>Node40</title>
<g id="a_node7"><a xlink:href="namespaceopenage_1_1log.xhtml#a3d2885be9c3a09b9ff7ee8764b2e5f39" target="_top" xlink:title=" ">
<polygon fill="white" stroke="black" points="508,-88 508,-118 612,-118 612,-88 508,-88"/>
<text text-anchor="start" x="516" y="-106" font-family="Helvetica,sans-Serif" font-size="10.00">openage::log::global</text>
<text text-anchor="middle" x="560" y="-95" font-family="Helvetica,sans-Serif" font-size="10.00">_stdoutsink</text>
</a>
</g>
</g>
<!-- Node39&#45;&gt;Node40 -->
<g id="edge6" class="edge"><title>Node39&#45;&gt;Node40</title>
<path fill="none" stroke="midnightblue" d="M414.536,-63.564C438.265,-70.0416 470.246,-78.7718 498.085,-86.3714"/>
<polygon fill="midnightblue" stroke="midnightblue" points="497.17,-89.7497 507.739,-89.0067 499.014,-82.9968 497.17,-89.7497"/>
</g>
<!-- Node41 -->
<g id="node8" class="node"><title>Node41</title>
<g id="a_node8"><a xlink:href="classopenage_1_1log_1_1_log_sink_list.xhtml#a2d47416fab12651553b4b58c86fd6f84" target="_top" xlink:title=" ">
<polygon fill="white" stroke="black" points="495.5,-39 495.5,-69 624.5,-69 624.5,-39 495.5,-39"/>
<text text-anchor="start" x="503.5" y="-57" font-family="Helvetica,sans-Serif" font-size="10.00">openage::log::LogSinkList</text>
<text text-anchor="middle" x="560" y="-46" font-family="Helvetica,sans-Serif" font-size="10.00">::instance</text>
</a>
</g>
</g>
<!-- Node39&#45;&gt;Node41 -->
<g id="edge7" class="edge"><title>Node39&#45;&gt;Node41</title>
<path fill="none" stroke="midnightblue" d="M450.185,-54C461.719,-54 473.693,-54 485.297,-54"/>
<polygon fill="midnightblue" stroke="midnightblue" points="485.38,-57.5001 495.379,-54 485.379,-50.5001 485.38,-57.5001"/>
</g>
<!-- Node42 -->
<g id="node9" class="node"><title>Node42</title>
<g id="a_node9"><a xlink:href="classopenage_1_1log_1_1_log_sink_list.xhtml#a8456b84ab55e1fe151c51438c5bfebdd" target="_top" xlink:title=" ">
<polygon fill="white" stroke="black" points="486,-0.5 486,-19.5 634,-19.5 634,-0.5 486,-0.5"/>
<text text-anchor="middle" x="560" y="-7.5" font-family="Helvetica,sans-Serif" font-size="10.00">openage::log::LogSinkList::log</text>
</a>
</g>
</g>
<!-- Node39&#45;&gt;Node42 -->
<g id="edge8" class="edge"><title>Node39&#45;&gt;Node42</title>
<path fill="none" stroke="midnightblue" d="M418.449,-44.4527C445.382,-37.8508 481.415,-29.0181 510.253,-21.949"/>
<polygon fill="midnightblue" stroke="midnightblue" points="511.248,-25.3089 520.127,-19.5287 509.581,-18.5102 511.248,-25.3089"/>
</g>
</g>
</svg>
