<?xml version="1.0" encoding="UTF-8" standalone="no"?>
<!DOCTYPE svg PUBLIC "-//W3C//DTD SVG 1.1//EN"
 "http://www.w3.org/Graphics/SVG/1.1/DTD/svg11.dtd">
<!-- Generated by graphviz version 2.38.0 (20140413.2041)
 -->
<!-- Title: openage::renderer::opengl::GlRenderer::add_shader Pages: 1 -->
<svg width="264pt" height="50pt"
 viewBox="0.00 0.00 264.00 50.00" xmlns="http://www.w3.org/2000/svg" xmlns:xlink="http://www.w3.org/1999/xlink">
<g id="graph0" class="graph" transform="scale(1 1) rotate(0) translate(4 46)">
<title>openage::renderer::opengl::GlRenderer::add_shader</title>
<polygon fill="white" stroke="none" points="-4,4 -4,-46 260,-46 260,4 -4,4"/>
<!-- Node13 -->
<g id="node1" class="node"><title>Node13</title>
<g id="a_node1"><a xlink:title="Compiles the given shader source code into a shader program.">
<polygon fill="#bfbfbf" stroke="black" points="0,-0.5 0,-41.5 106,-41.5 106,-0.5 0,-0.5"/>
<text text-anchor="start" x="8" y="-29.5" font-family="Helvetica,sans-Serif" font-size="10.00">openage::renderer::</text>
<text text-anchor="start" x="8" y="-18.5" font-family="Helvetica,sans-Serif" font-size="10.00">opengl::GlRenderer::</text>
<text text-anchor="middle" x="53" y="-7.5" font-family="Helvetica,sans-Serif" font-size="10.00">add_shader</text>
</a>
</g>
</g>
<!-- Node14 -->
<g id="node2" class="node"><title>Node14</title>
<g id="a_node2"><a xlink:href="classopenage_1_1renderer_1_1opengl_1_1_gl_context.xhtml#aa495f18ed15219f0e5b771db1d3a937b" target="_top" xlink:title="Returns the capabilities of this context.">
<polygon fill="white" stroke="black" points="142,-0.5 142,-41.5 256,-41.5 256,-0.5 142,-0.5"/>
<text text-anchor="start" x="150" y="-29.5" font-family="Helvetica,sans-Serif" font-size="10.00">openage::renderer::</text>
<text text-anchor="start" x="150" y="-18.5" font-family="Helvetica,sans-Serif" font-size="10.00">opengl::GlContext::get</text>
<text text-anchor="middle" x="199" y="-7.5" font-family="Helvetica,sans-Serif" font-size="10.00">_capabilities</text>
</a>
</g>
</g>
<!-- Node13&#45;&gt;Node14 -->
<g id="edge1" class="edge"><title>Node13&#45;&gt;Node14</title>
<path fill="none" stroke="midnightblue" d="M106.395,-21C114.513,-21 122.991,-21 131.372,-21"/>
<polygon fill="midnightblue" stroke="midnightblue" points="131.515,-24.5001 141.515,-21 131.515,-17.5001 131.515,-24.5001"/>
</g>
</g>
</svg>
