<?xml version="1.0" encoding="UTF-8" standalone="no"?>
<!DOCTYPE svg PUBLIC "-//W3C//DTD SVG 1.1//EN"
 "http://www.w3.org/Graphics/SVG/1.1/DTD/svg11.dtd">
<!-- Generated by graphviz version 2.38.0 (20140413.2041)
 -->
<!-- Title: openage::util::Path::with_name Pages: 1 -->
<svg width="552pt" height="39pt"
 viewBox="0.00 0.00 552.00 39.00" xmlns="http://www.w3.org/2000/svg" xmlns:xlink="http://www.w3.org/1999/xlink">
<g id="graph0" class="graph" transform="scale(1 1) rotate(0) translate(4 35)">
<title>openage::util::Path::with_name</title>
<polygon fill="white" stroke="none" points="-4,4 -4,-35 548,-35 548,4 -4,4"/>
<!-- Node227 -->
<g id="node1" class="node"><title>Node227</title>
<g id="a_node1"><a xlink:title=" ">
<polygon fill="#bfbfbf" stroke="black" points="446,-0.5 446,-30.5 544,-30.5 544,-0.5 446,-0.5"/>
<text text-anchor="start" x="454" y="-18.5" font-family="Helvetica,sans-Serif" font-size="10.00">openage::util::Path</text>
<text text-anchor="middle" x="495" y="-7.5" font-family="Helvetica,sans-Serif" font-size="10.00">::with_name</text>
</a>
</g>
</g>
<!-- Node228 -->
<g id="node2" class="node"><title>Node228</title>
<g id="a_node2"><a xlink:href="classopenage_1_1util_1_1_path.xhtml#aa7993e64af5227c5949074566deadbf6" target="_top" xlink:title=" ">
<polygon fill="white" stroke="black" points="312,-0.5 312,-30.5 410,-30.5 410,-0.5 312,-0.5"/>
<text text-anchor="start" x="320" y="-18.5" font-family="Helvetica,sans-Serif" font-size="10.00">openage::util::Path</text>
<text text-anchor="middle" x="361" y="-7.5" font-family="Helvetica,sans-Serif" font-size="10.00">::with_suffix</text>
</a>
</g>
</g>
<!-- Node227&#45;&gt;Node228 -->
<g id="edge1" class="edge"><title>Node227&#45;&gt;Node228</title>
<path fill="none" stroke="midnightblue" d="M435.708,-15.5C427.191,-15.5 418.5,-15.5 410.214,-15.5"/>
<polygon fill="midnightblue" stroke="midnightblue" points="435.972,-19.0001 445.972,-15.5 435.972,-12.0001 435.972,-19.0001"/>
</g>
<!-- Node229 -->
<g id="node3" class="node"><title>Node229</title>
<g id="a_node3"><a xlink:href="classopenage_1_1_texture.xhtml#a1fba0cda4b2ce8306d8f6278e936681a" target="_top" xlink:title=" ">
<polygon fill="white" stroke="black" points="160,-6 160,-25 276,-25 276,-6 160,-6"/>
<text text-anchor="middle" x="218" y="-13" font-family="Helvetica,sans-Serif" font-size="10.00">openage::Texture::load</text>
</a>
</g>
</g>
<!-- Node228&#45;&gt;Node229 -->
<g id="edge2" class="edge"><title>Node228&#45;&gt;Node229</title>
<path fill="none" stroke="midnightblue" d="M301.72,-15.5C293.273,-15.5 284.584,-15.5 276.16,-15.5"/>
<polygon fill="midnightblue" stroke="midnightblue" points="301.87,-19.0001 311.87,-15.5 301.87,-12.0001 301.87,-19.0001"/>
</g>
<!-- Node230 -->
<g id="node4" class="node"><title>Node230</title>
<g id="a_node4"><a xlink:href="classopenage_1_1_texture.xhtml#ac02524c602d22cecd5a06199e113cc43" target="_top" xlink:title=" ">
<polygon fill="white" stroke="black" points="0,-6 0,-25 124,-25 124,-6 0,-6"/>
<text text-anchor="middle" x="62" y="-13" font-family="Helvetica,sans-Serif" font-size="10.00">openage::Texture::reload</text>
</a>
</g>
</g>
<!-- Node229&#45;&gt;Node230 -->
<g id="edge3" class="edge"><title>Node229&#45;&gt;Node230</title>
<path fill="none" stroke="midnightblue" d="M149.438,-15.5C140.975,-15.5 132.358,-15.5 124.003,-15.5"/>
<polygon fill="midnightblue" stroke="midnightblue" points="149.656,-19.0001 159.656,-15.5 149.656,-12.0001 149.656,-19.0001"/>
</g>
</g>
</svg>
