<?xml version="1.0" encoding="UTF-8" standalone="no"?>
<!DOCTYPE svg PUBLIC "-//W3C//DTD SVG 1.1//EN"
 "http://www.w3.org/Graphics/SVG/1.1/DTD/svg11.dtd">
<!-- Generated by graphviz version 2.38.0 (20140413.2041)
 -->
<!-- Title: openage.convert.dataformat.members.MultisubtypeMember.get_empty_value Pages: 1 -->
<svg width="628pt" height="39pt"
 viewBox="0.00 0.00 628.00 39.00" xmlns="http://www.w3.org/2000/svg" xmlns:xlink="http://www.w3.org/1999/xlink">
<g id="graph0" class="graph" transform="scale(1 1) rotate(0) translate(4 35)">
<title>openage.convert.dataformat.members.MultisubtypeMember.get_empty_value</title>
<polygon fill="white" stroke="none" points="-4,4 -4,-35 624,-35 624,4 -4,4"/>
<!-- Node14 -->
<g id="node1" class="node"><title>Node14</title>
<g id="a_node1"><a xlink:title="when this data field is not filled, use the returned value instead.">
<polygon fill="#bfbfbf" stroke="black" points="0,-0.5 0,-30.5 183,-30.5 183,-0.5 0,-0.5"/>
<text text-anchor="start" x="8" y="-18.5" font-family="Helvetica,sans-Serif" font-size="10.00">openage.convert.dataformat.members.</text>
<text text-anchor="middle" x="91.5" y="-7.5" font-family="Helvetica,sans-Serif" font-size="10.00">MultisubtypeMember.get_empty_value</text>
</a>
</g>
</g>
<!-- Node15 -->
<g id="node2" class="node"><title>Node15</title>
<g id="a_node2"><a xlink:href="namespaceopenage_1_1py.xhtml#a58cbca251b8e2118e0a6b9b0b78a7b32" target="_top" xlink:title="list()">
<polygon fill="white" stroke="black" points="219,-6 219,-25 308,-25 308,-6 219,-6"/>
<text text-anchor="middle" x="263.5" y="-13" font-family="Helvetica,sans-Serif" font-size="10.00">openage::py::list</text>
</a>
</g>
</g>
<!-- Node14&#45;&gt;Node15 -->
<g id="edge1" class="edge"><title>Node14&#45;&gt;Node15</title>
<path fill="none" stroke="midnightblue" d="M183.472,-15.5C192.131,-15.5 200.707,-15.5 208.838,-15.5"/>
<polygon fill="midnightblue" stroke="midnightblue" points="208.873,-19.0001 218.873,-15.5 208.873,-12.0001 208.873,-19.0001"/>
</g>
<!-- Node16 -->
<g id="node3" class="node"><title>Node16</title>
<g id="a_node3"><a xlink:href="namespaceopenage_1_1testing_1_1testing.xhtml#ac25bf81db406af62d08113ef7ae9fd6e" target="_top" xlink:title=" ">
<polygon fill="white" stroke="black" points="344,-6 344,-25 489,-25 489,-6 344,-6"/>
<text text-anchor="middle" x="416.5" y="-13" font-family="Helvetica,sans-Serif" font-size="10.00">openage.testing.testing.result</text>
</a>
</g>
</g>
<!-- Node15&#45;&gt;Node16 -->
<g id="edge2" class="edge"><title>Node15&#45;&gt;Node16</title>
<path fill="none" stroke="midnightblue" d="M308.175,-15.5C316.189,-15.5 324.788,-15.5 333.503,-15.5"/>
<polygon fill="midnightblue" stroke="midnightblue" points="333.759,-19.0001 343.759,-15.5 333.759,-12.0001 333.759,-19.0001"/>
</g>
<!-- Node17 -->
<g id="node4" class="node"><title>Node17</title>
<g id="a_node4"><a xlink:href="namespaceopenage_1_1util.xhtml#a7bc4421a5f0f57f3a0aba3f96eb8d19c" target="_top" xlink:title="method that behaves similar to python&#39;s &quot;repr&quot;.">
<polygon fill="white" stroke="black" points="525,-6 525,-25 620,-25 620,-6 525,-6"/>
<text text-anchor="middle" x="572.5" y="-13" font-family="Helvetica,sans-Serif" font-size="10.00">openage::util::repr</text>
</a>
</g>
</g>
<!-- Node16&#45;&gt;Node17 -->
<g id="edge3" class="edge"><title>Node16&#45;&gt;Node17</title>
<path fill="none" stroke="midnightblue" d="M489.09,-8.76483C497.595,-8.71813 506.189,-8.78172 514.453,-8.9556"/>
<polygon fill="midnightblue" stroke="midnightblue" points="514.622,-12.4614 524.713,-9.23483 514.812,-5.46399 514.622,-12.4614"/>
</g>
<!-- Node17&#45;&gt;Node16 -->
<g id="edge4" class="edge"><title>Node17&#45;&gt;Node16</title>
<path fill="none" stroke="midnightblue" d="M524.713,-21.7652C516.626,-22.0381 508.01,-22.1958 499.312,-22.2383"/>
<polygon fill="midnightblue" stroke="midnightblue" points="499.091,-18.7383 489.09,-22.2352 499.089,-25.7383 499.091,-18.7383"/>
</g>
</g>
</svg>
