<?xml version="1.0" encoding="UTF-8" standalone="no"?>
<!DOCTYPE svg PUBLIC "-//W3C//DTD SVG 1.1//EN"
 "http://www.w3.org/Graphics/SVG/1.1/DTD/svg11.dtd">
<!-- Generated by graphviz version 2.38.0 (20140413.2041)
 -->
<!-- Title: openage::pyinterface::PyObjectRef::get Pages: 1 -->
<svg width="258pt" height="88pt"
 viewBox="0.00 0.00 258.00 88.00" xmlns="http://www.w3.org/2000/svg" xmlns:xlink="http://www.w3.org/1999/xlink">
<g id="graph0" class="graph" transform="scale(1 1) rotate(0) translate(4 84)">
<title>openage::pyinterface::PyObjectRef::get</title>
<polygon fill="white" stroke="none" points="-4,4 -4,-84 254,-84 254,4 -4,4"/>
<!-- Node62 -->
<g id="node1" class="node"><title>Node62</title>
<g id="a_node1"><a xlink:title="obj[key]">
<polygon fill="#bfbfbf" stroke="black" points="143,-24.5 143,-54.5 250,-54.5 250,-24.5 143,-24.5"/>
<text text-anchor="start" x="151" y="-42.5" font-family="Helvetica,sans-Serif" font-size="10.00">openage::pyinterface</text>
<text text-anchor="middle" x="196.5" y="-31.5" font-family="Helvetica,sans-Serif" font-size="10.00">::PyObjectRef::get</text>
</a>
</g>
</g>
<!-- Node63 -->
<g id="node2" class="node"><title>Node63</title>
<g id="a_node2"><a xlink:href="classopenage_1_1pyinterface_1_1_py_object_ref.xhtml#aaff2674b9d1b7ffcf0a67f8ecba9f1b6" target="_top" xlink:title="obj[key]">
<polygon fill="white" stroke="black" points="0,-49.5 0,-79.5 107,-79.5 107,-49.5 0,-49.5"/>
<text text-anchor="start" x="8" y="-67.5" font-family="Helvetica,sans-Serif" font-size="10.00">openage::pyinterface</text>
<text text-anchor="middle" x="53.5" y="-56.5" font-family="Helvetica,sans-Serif" font-size="10.00">::PyObjectRef::get</text>
</a>
</g>
</g>
<!-- Node62&#45;&gt;Node63 -->
<g id="edge1" class="edge"><title>Node62&#45;&gt;Node63</title>
<path fill="none" stroke="midnightblue" d="M132.95,-50.5905C124.3,-52.124 115.49,-53.6862 107.047,-55.1831"/>
<polygon fill="midnightblue" stroke="midnightblue" points="133.761,-54.0012 142.997,-48.8091 132.539,-47.1087 133.761,-54.0012"/>
</g>
<!-- Node64 -->
<g id="node3" class="node"><title>Node64</title>
<g id="a_node3"><a xlink:href="namespaceopenage_1_1pyinterface_1_1tests.xhtml#ad69d94519ba25682897d8da53beb86df" target="_top" xlink:title=" ">
<polygon fill="white" stroke="black" points="0,-0.5 0,-30.5 107,-30.5 107,-0.5 0,-0.5"/>
<text text-anchor="start" x="8" y="-18.5" font-family="Helvetica,sans-Serif" font-size="10.00">openage::pyinterface</text>
<text text-anchor="middle" x="53.5" y="-7.5" font-family="Helvetica,sans-Serif" font-size="10.00">::tests::pyobject</text>
</a>
</g>
</g>
<!-- Node62&#45;&gt;Node64 -->
<g id="edge2" class="edge"><title>Node62&#45;&gt;Node64</title>
<path fill="none" stroke="midnightblue" d="M132.95,-28.8531C124.3,-27.3809 115.49,-25.8812 107.047,-24.4442"/>
<polygon fill="midnightblue" stroke="midnightblue" points="132.551,-32.3356 142.997,-30.5633 133.726,-25.4348 132.551,-32.3356"/>
</g>
</g>
</svg>
