<?xml version="1.0" encoding="UTF-8" standalone="no"?>
<!DOCTYPE svg PUBLIC "-//W3C//DTD SVG 1.1//EN"
 "http://www.w3.org/Graphics/SVG/1.1/DTD/svg11.dtd">
<!-- Generated by graphviz version 2.38.0 (20140413.2041)
 -->
<!-- Title: openage::renderer::opengl::GlRenderer Pages: 1 -->
<!--zoomable 573 -->
<svg id="main" version="1.1" xmlns="http://www.w3.org/2000/svg" xmlns:xlink="http://www.w3.org/1999/xlink" xml:space="preserve" onload="init(evt)">
<style type="text/css"><![CDATA[
.edge:hover path { stroke: red; }
.edge:hover polygon { stroke: red; fill: red; }
]]></style>
<script type="text/javascript"><![CDATA[
var edges = document.getElementsByTagName('g');
if (edges && edges.length) {
  for (var i=0;i<edges.length;i++) {
    if (edges[i].id.substr(0,4)=='edge') {
      edges[i].setAttribute('class','edge');
    }
  }
}
]]></script>
        <defs>
                <circle id="rim" cx="0" cy="0" r="7"/>
                <circle id="rim2" cx="0" cy="0" r="3.5"/>
                <g id="zoomPlus">
                        <use xlink:href="#rim" fill="#404040">
                                <set attributeName="fill" to="#808080" begin="zoomplus.mouseover" end="zoomplus.mouseout"/>
                        </use>
                        <path d="M-4,0h8M0,-4v8" fill="none" stroke="white" stroke-width="1.5" pointer-events="none"/>
                </g>
                <g id="zoomMin">
                        <use xlink:href="#rim" fill="#404040">
                                <set attributeName="fill" to="#808080" begin="zoomminus.mouseover" end="zoomminus.mouseout"/>
                        </use>
                        <path d="M-4,0h8" fill="none" stroke="white" stroke-width="1.5" pointer-events="none"/>
                </g>
                <g id="dirArrow">
                        <path fill="none" stroke="white" stroke-width="1.5" d="M0,-3.0v7 M-2.5,-0.5L0,-3.0L2.5,-0.5"/>
                </g>
               <g id="resetDef">
                       <use xlink:href="#rim2" fill="#404040">
                               <set attributeName="fill" to="#808080" begin="reset.mouseover" end="reset.mouseout"/>
                       </use>
               </g>
        </defs>

<script type="text/javascript">
var viewWidth = 398;
var viewHeight = 573;
var sectionId = 'dynsection-1';
</script>
<script xlink:href="svgpan.js"/>
<svg id="graph" class="graph">
<g id="viewport">
<title>openage::renderer::opengl::GlRenderer</title>
<polygon fill="white" stroke="none" points="-4,4 -4,-569 393.5,-569 393.5,4 -4,4"/>
<!-- Node2 -->
<g id="node1" class="node"><title>Node2</title>
<g id="a_node1"><a xlink:title="The OpenGL specialization of the rendering interface.">
<polygon fill="#bfbfbf" stroke="black" points="132,-0.5 132,-167.5 256,-167.5 256,-0.5 132,-0.5"/>
<text text-anchor="start" x="140" y="-155.5" font-family="Helvetica,sans-Serif" font-size="10.00">openage::renderer::</text>
<text text-anchor="middle" x="194" y="-144.5" font-family="Helvetica,sans-Serif" font-size="10.00">opengl::GlRenderer</text>
<polyline fill="none" stroke="black" points="132,-137.5 256,-137.5 "/>
<text text-anchor="middle" x="194" y="-125.5" font-family="Helvetica,sans-Serif" font-size="10.00"> </text>
<polyline fill="none" stroke="black" points="132,-118.5 256,-118.5 "/>
<text text-anchor="start" x="140" y="-106.5" font-family="Helvetica,sans-Serif" font-size="10.00">+ GlRenderer()</text>
<text text-anchor="start" x="140" y="-95.5" font-family="Helvetica,sans-Serif" font-size="10.00">+ add_texture()</text>
<text text-anchor="start" x="140" y="-84.5" font-family="Helvetica,sans-Serif" font-size="10.00">+ add_texture()</text>
<text text-anchor="start" x="140" y="-73.5" font-family="Helvetica,sans-Serif" font-size="10.00">+ add_shader()</text>
<text text-anchor="start" x="140" y="-62.5" font-family="Helvetica,sans-Serif" font-size="10.00">+ add_mesh_geometry()</text>
<text text-anchor="start" x="140" y="-51.5" font-family="Helvetica,sans-Serif" font-size="10.00">+ add_bufferless_quad()</text>
<text text-anchor="start" x="140" y="-40.5" font-family="Helvetica,sans-Serif" font-size="10.00">+ create_texture_target()</text>
<text text-anchor="start" x="140" y="-29.5" font-family="Helvetica,sans-Serif" font-size="10.00">+ get_display_target()</text>
<text text-anchor="start" x="140" y="-18.5" font-family="Helvetica,sans-Serif" font-size="10.00">+ display_into_data()</text>
<text text-anchor="start" x="140" y="-7.5" font-family="Helvetica,sans-Serif" font-size="10.00">+ render()</text>
</a>
</g>
</g>
<!-- Node3 -->
<g id="node2" class="node"><title>Node3</title>
<g id="a_node2"><a xlink:href="classopenage_1_1renderer_1_1_renderer.xhtml" target="_top" xlink:title=" ">
<polygon fill="white" stroke="black" points="0,-215.5 0,-382.5 124,-382.5 124,-215.5 0,-215.5"/>
<text text-anchor="start" x="8" y="-370.5" font-family="Helvetica,sans-Serif" font-size="10.00">openage::renderer::</text>
<text text-anchor="middle" x="62" y="-359.5" font-family="Helvetica,sans-Serif" font-size="10.00">Renderer</text>
<polyline fill="none" stroke="black" points="0,-352.5 124,-352.5 "/>
<text text-anchor="middle" x="62" y="-340.5" font-family="Helvetica,sans-Serif" font-size="10.00"> </text>
<polyline fill="none" stroke="black" points="0,-333.5 124,-333.5 "/>
<text text-anchor="start" x="8" y="-321.5" font-family="Helvetica,sans-Serif" font-size="10.00">+ ~Renderer()</text>
<text text-anchor="start" x="8" y="-310.5" font-family="Helvetica,sans-Serif" font-size="10.00">+ add_texture()</text>
<text text-anchor="start" x="8" y="-299.5" font-family="Helvetica,sans-Serif" font-size="10.00">+ add_texture()</text>
<text text-anchor="start" x="8" y="-288.5" font-family="Helvetica,sans-Serif" font-size="10.00">+ add_shader()</text>
<text text-anchor="start" x="8" y="-277.5" font-family="Helvetica,sans-Serif" font-size="10.00">+ add_mesh_geometry()</text>
<text text-anchor="start" x="8" y="-266.5" font-family="Helvetica,sans-Serif" font-size="10.00">+ add_bufferless_quad()</text>
<text text-anchor="start" x="8" y="-255.5" font-family="Helvetica,sans-Serif" font-size="10.00">+ create_texture_target()</text>
<text text-anchor="start" x="8" y="-244.5" font-family="Helvetica,sans-Serif" font-size="10.00">+ get_display_target()</text>
<text text-anchor="start" x="8" y="-233.5" font-family="Helvetica,sans-Serif" font-size="10.00">+ display_into_data()</text>
<text text-anchor="start" x="8" y="-222.5" font-family="Helvetica,sans-Serif" font-size="10.00">+ render()</text>
</a>
</g>
</g>
<!-- Node3&#45;&gt;Node2 -->
<g id="edge1" class="edge"><title>Node3&#45;&gt;Node2</title>
<path fill="none" stroke="midnightblue" d="M118.497,-206.835C126.571,-193.805 134.84,-180.463 142.805,-167.61"/>
<polygon fill="none" stroke="midnightblue" points="115.516,-205 113.224,-215.344 121.466,-208.687 115.516,-205"/>
</g>
<!-- Node4 -->
<g id="node3" class="node"><title>Node4</title>
<g id="a_node3"><a xlink:href="classopenage_1_1renderer_1_1opengl_1_1_gl_context.xhtml" target="_top" xlink:title="Manages an OpenGL context.">
<polygon fill="white" stroke="black" points="142.5,-215.5 142.5,-382.5 245.5,-382.5 245.5,-215.5 142.5,-215.5"/>
<text text-anchor="start" x="150.5" y="-370.5" font-family="Helvetica,sans-Serif" font-size="10.00">openage::renderer::</text>
<text text-anchor="middle" x="194" y="-359.5" font-family="Helvetica,sans-Serif" font-size="10.00">opengl::GlContext</text>
<polyline fill="none" stroke="black" points="142.5,-352.5 245.5,-352.5 "/>
<text text-anchor="start" x="150.5" y="-340.5" font-family="Helvetica,sans-Serif" font-size="10.00">&#45; gl_context</text>
<polyline fill="none" stroke="black" points="142.5,-333.5 245.5,-333.5 "/>
<text text-anchor="start" x="150.5" y="-321.5" font-family="Helvetica,sans-Serif" font-size="10.00">+ GlContext()</text>
<text text-anchor="start" x="150.5" y="-310.5" font-family="Helvetica,sans-Serif" font-size="10.00">+ ~GlContext()</text>
<text text-anchor="start" x="150.5" y="-299.5" font-family="Helvetica,sans-Serif" font-size="10.00">+ GlContext()</text>
<text text-anchor="start" x="150.5" y="-288.5" font-family="Helvetica,sans-Serif" font-size="10.00">+ operator=()</text>
<text text-anchor="start" x="150.5" y="-277.5" font-family="Helvetica,sans-Serif" font-size="10.00">+ GlContext()</text>
<text text-anchor="start" x="150.5" y="-266.5" font-family="Helvetica,sans-Serif" font-size="10.00">+ operator=()</text>
<text text-anchor="start" x="150.5" y="-255.5" font-family="Helvetica,sans-Serif" font-size="10.00">+ get_raw_context()</text>
<text text-anchor="start" x="150.5" y="-244.5" font-family="Helvetica,sans-Serif" font-size="10.00">+ get_capabilities()</text>
<text text-anchor="start" x="150.5" y="-233.5" font-family="Helvetica,sans-Serif" font-size="10.00">+ set_vsync()</text>
<text text-anchor="start" x="150.5" y="-222.5" font-family="Helvetica,sans-Serif" font-size="10.00">+ check_error()</text>
</a>
</g>
</g>
<!-- Node4&#45;&gt;Node2 -->
<g id="edge2" class="edge"><title>Node4&#45;&gt;Node2</title>
<path fill="none" stroke="#404040" d="M194,-215.344C194,-203.714 194,-191.684 194,-179.848"/>
<polygon fill="none" stroke="#404040" points="194,-179.61 190,-173.61 194,-167.61 198,-173.61 194,-179.61"/>
<text text-anchor="middle" x="220" y="-189" font-family="Helvetica,sans-Serif" font-size="10.00"> &#45;gl_context</text>
</g>
<!-- Node5 -->
<g id="node4" class="node"><title>Node5</title>
<g id="a_node4"><a xlink:href="structopenage_1_1renderer_1_1opengl_1_1gl__context__capabilities.xhtml" target="_top" xlink:title="Stores information about context capabilities and limitations.">
<polygon fill="white" stroke="black" points="115,-430.5 115,-564.5 265,-564.5 265,-430.5 115,-430.5"/>
<text text-anchor="start" x="123" y="-552.5" font-family="Helvetica,sans-Serif" font-size="10.00">openage::renderer::</text>
<text text-anchor="middle" x="190" y="-541.5" font-family="Helvetica,sans-Serif" font-size="10.00">opengl::gl_context_capabilities</text>
<polyline fill="none" stroke="black" points="115,-534.5 265,-534.5 "/>
<text text-anchor="start" x="123" y="-522.5" font-family="Helvetica,sans-Serif" font-size="10.00">+ max_vertex_attributes</text>
<text text-anchor="start" x="123" y="-511.5" font-family="Helvetica,sans-Serif" font-size="10.00">+ max_texture_slots</text>
<text text-anchor="start" x="123" y="-500.5" font-family="Helvetica,sans-Serif" font-size="10.00">+ max_texture_size</text>
<text text-anchor="start" x="123" y="-489.5" font-family="Helvetica,sans-Serif" font-size="10.00">+ max_uniform_buffer</text>
<text text-anchor="start" x="123" y="-478.5" font-family="Helvetica,sans-Serif" font-size="10.00">_bindings</text>
<text text-anchor="start" x="123" y="-467.5" font-family="Helvetica,sans-Serif" font-size="10.00">+ major_version</text>
<text text-anchor="start" x="123" y="-456.5" font-family="Helvetica,sans-Serif" font-size="10.00">+ minor_version</text>
<polyline fill="none" stroke="black" points="115,-449.5 265,-449.5 "/>
<text text-anchor="middle" x="190" y="-437.5" font-family="Helvetica,sans-Serif" font-size="10.00"> </text>
</a>
</g>
</g>
<!-- Node5&#45;&gt;Node4 -->
<g id="edge3" class="edge"><title>Node5&#45;&gt;Node4</title>
<path fill="none" stroke="#404040" d="M191.349,-430.248C191.579,-418.919 191.823,-406.953 192.065,-395.049"/>
<polygon fill="none" stroke="#404040" points="192.072,-394.694 188.195,-388.614 192.317,-382.697 196.194,-388.777 192.072,-394.694"/>
<text text-anchor="middle" x="219.5" y="-404" font-family="Helvetica,sans-Serif" font-size="10.00"> &#45;capabilities</text>
</g>
<!-- Node6 -->
<g id="node5" class="node"><title>Node6</title>
<g id="a_node5"><a xlink:href="classopenage_1_1renderer_1_1opengl_1_1_gl_render_target.xhtml" target="_top" xlink:title=" ">
<polygon fill="white" stroke="black" points="270.5,-243 270.5,-355 389.5,-355 389.5,-243 270.5,-243"/>
<text text-anchor="start" x="278.5" y="-343" font-family="Helvetica,sans-Serif" font-size="10.00">openage::renderer::</text>
<text text-anchor="middle" x="330" y="-332" font-family="Helvetica,sans-Serif" font-size="10.00">opengl::GlRenderTarget</text>
<polyline fill="none" stroke="black" points="270.5,-325 389.5,-325 "/>
<text text-anchor="start" x="278.5" y="-313" font-family="Helvetica,sans-Serif" font-size="10.00">&#45; type</text>
<text text-anchor="start" x="278.5" y="-302" font-family="Helvetica,sans-Serif" font-size="10.00">&#45; framebuffer</text>
<polyline fill="none" stroke="black" points="270.5,-295 389.5,-295 "/>
<text text-anchor="start" x="278.5" y="-283" font-family="Helvetica,sans-Serif" font-size="10.00">+ GlRenderTarget()</text>
<text text-anchor="start" x="278.5" y="-272" font-family="Helvetica,sans-Serif" font-size="10.00">+ GlRenderTarget()</text>
<text text-anchor="start" x="278.5" y="-261" font-family="Helvetica,sans-Serif" font-size="10.00">+ bind_write()</text>
<text text-anchor="start" x="278.5" y="-250" font-family="Helvetica,sans-Serif" font-size="10.00">+ bind_read()</text>
</a>
</g>
</g>
<!-- Node6&#45;&gt;Node2 -->
<g id="edge4" class="edge"><title>Node6&#45;&gt;Node2</title>
<path fill="none" stroke="#404040" d="M294.8,-242.87C282.105,-222.988 267.405,-199.965 253.223,-177.753"/>
<polygon fill="none" stroke="#404040" points="253.21,-177.733 246.61,-174.829 246.752,-167.619 253.353,-170.524 253.21,-177.733"/>
<text text-anchor="middle" x="280.5" y="-189" font-family="Helvetica,sans-Serif" font-size="10.00"> &#45;display</text>
</g>
<!-- Node7 -->
<g id="node6" class="node"><title>Node7</title>
<g id="a_node6"><a xlink:href="classopenage_1_1renderer_1_1_render_target.xhtml" target="_top" xlink:title="The abstract base for a render target.">
<polygon fill="white" stroke="black" points="283.5,-458 283.5,-537 384.5,-537 384.5,-458 283.5,-458"/>
<text text-anchor="start" x="291.5" y="-525" font-family="Helvetica,sans-Serif" font-size="10.00">openage::renderer::</text>
<text text-anchor="middle" x="334" y="-514" font-family="Helvetica,sans-Serif" font-size="10.00">RenderTarget</text>
<polyline fill="none" stroke="black" points="283.5,-507 384.5,-507 "/>
<text text-anchor="middle" x="334" y="-495" font-family="Helvetica,sans-Serif" font-size="10.00"> </text>
<polyline fill="none" stroke="black" points="283.5,-488 384.5,-488 "/>
<text text-anchor="start" x="291.5" y="-476" font-family="Helvetica,sans-Serif" font-size="10.00">+ ~RenderTarget()</text>
<text text-anchor="start" x="291.5" y="-465" font-family="Helvetica,sans-Serif" font-size="10.00"># RenderTarget()</text>
</a>
</g>
</g>
<!-- Node7&#45;&gt;Node6 -->
<g id="edge5" class="edge"><title>Node7&#45;&gt;Node6</title>
<path fill="none" stroke="midnightblue" d="M332.999,-447.312C332.428,-419.277 331.711,-384.071 331.122,-355.108"/>
<polygon fill="none" stroke="midnightblue" points="329.507,-447.751 333.21,-457.678 336.505,-447.609 329.507,-447.751"/>
</g>
</g>
</svg>
        <g id="navigator" transform="translate(0 0)" fill="#404254">
                <rect fill="#f2f5e9" fill-opacity="0.5" stroke="#606060" stroke-width=".5" x="0" y="0" width="60" height="60"/>
                <use id="zoomplus" xlink:href="#zoomPlus" x="17" y="9" onmousedown="handleZoom(evt,'in')"/>
                <use id="zoomminus" xlink:href="#zoomMin" x="42" y="9" onmousedown="handleZoom(evt,'out')"/>
                <use id="reset" xlink:href="#resetDef" x="30" y="36" onmousedown="handleReset()"/>
                <g id="arrowUp" xlink:href="#dirArrow" transform="translate(30 24)" onmousedown="handlePan(0,-1)">
                  <use xlink:href="#rim" fill="#404040">
                        <set attributeName="fill" to="#808080" begin="arrowUp.mouseover" end="arrowUp.mouseout"/>
                  </use>
                  <path fill="none" stroke="white" stroke-width="1.5" d="M0,-3.0v7 M-2.5,-0.5L0,-3.0L2.5,-0.5"/>
                </g>
                <g id="arrowRight" xlink:href="#dirArrow" transform="rotate(90) translate(36 -43)" onmousedown="handlePan(1,0)">
                  <use xlink:href="#rim" fill="#404040">
                        <set attributeName="fill" to="#808080" begin="arrowRight.mouseover" end="arrowRight.mouseout"/>
                  </use>
                  <path fill="none" stroke="white" stroke-width="1.5" d="M0,-3.0v7 M-2.5,-0.5L0,-3.0L2.5,-0.5"/>
                </g>
                <g id="arrowDown" xlink:href="#dirArrow" transform="rotate(180) translate(-30 -48)" onmousedown="handlePan(0,1)">
                  <use xlink:href="#rim" fill="#404040">
                        <set attributeName="fill" to="#808080" begin="arrowDown.mouseover" end="arrowDown.mouseout"/>
                  </use>
                  <path fill="none" stroke="white" stroke-width="1.5" d="M0,-3.0v7 M-2.5,-0.5L0,-3.0L2.5,-0.5"/>
                </g>
                <g id="arrowLeft" xlink:href="#dirArrow" transform="rotate(270) translate(-36 17)" onmousedown="handlePan(-1,0)">
                  <use xlink:href="#rim" fill="#404040">
                        <set attributeName="fill" to="#808080" begin="arrowLeft.mouseover" end="arrowLeft.mouseout"/>
                  </use>
                  <path fill="none" stroke="white" stroke-width="1.5" d="M0,-3.0v7 M-2.5,-0.5L0,-3.0L2.5,-0.5"/>
                </g>
        </g>
        <svg viewBox="0 0 15 15" width="100%" height="30px" preserveAspectRatio="xMaxYMin meet">
         <g id="arrow_out" transform="scale(0.3 0.3)">
          <a xlink:href="classopenage_1_1renderer_1_1opengl_1_1_gl_renderer__coll__graph_org.svg" target="_base">
           <rect id="button" ry="5" rx="5" y="6" x="6" height="38" width="38"
                fill="#f2f5e9" fill-opacity="0.5" stroke="#606060" stroke-width="1.0"/>
           <path id="arrow"
             d="M 11.500037,31.436501 C 11.940474,20.09759 22.043105,11.32322 32.158766,21.979434 L 37.068811,17.246167 C 37.068811,17.246167 37.088388,32 37.088388,32 L 22.160133,31.978069 C 22.160133,31.978069 26.997745,27.140456 26.997745,27.140456 C 18.528582,18.264221 13.291696,25.230495 11.500037,31.436501 z"
             style="fill:#404040;"/>
          </a>
         </g>
        </svg>
</svg>
