<?xml version="1.0" encoding="UTF-8" standalone="no"?>
<!DOCTYPE svg PUBLIC "-//W3C//DTD SVG 1.1//EN"
 "http://www.w3.org/Graphics/SVG/1.1/DTD/svg11.dtd">
<!-- Generated by graphviz version 2.38.0 (20140413.2041)
 -->
<!-- Title: openage::Research::apply Pages: 1 -->
<svg width="300pt" height="127pt"
 viewBox="0.00 0.00 300.00 126.50" xmlns="http://www.w3.org/2000/svg" xmlns:xlink="http://www.w3.org/1999/xlink">
<g id="graph0" class="graph" transform="scale(1 1) rotate(0) translate(4 122.5)">
<title>openage::Research::apply</title>
<polygon fill="white" stroke="none" points="-4,4 -4,-122.5 296,-122.5 296,4 -4,4"/>
<!-- Node2 -->
<g id="node1" class="node"><title>Node2</title>
<g id="a_node1"><a xlink:title="Apply the modifications to the owner player.">
<polygon fill="#bfbfbf" stroke="black" points="0,-49.5 0,-79.5 107,-79.5 107,-49.5 0,-49.5"/>
<text text-anchor="start" x="8" y="-67.5" font-family="Helvetica,sans-Serif" font-size="10.00">openage::Research::</text>
<text text-anchor="middle" x="53.5" y="-56.5" font-family="Helvetica,sans-Serif" font-size="10.00">apply</text>
</a>
</g>
</g>
<!-- Node3 -->
<g id="node2" class="node"><title>Node3</title>
<g id="a_node2"><a xlink:href="classopenage_1_1_player.xhtml#ab5854d681fef5b4a8327097c8ea19bbe" target="_top" xlink:title="Advance to next age;.">
<polygon fill="white" stroke="black" points="143,-99 143,-118 292,-118 292,-99 143,-99"/>
<text text-anchor="middle" x="217.5" y="-106" font-family="Helvetica,sans-Serif" font-size="10.00">openage::Player::advance_age</text>
</a>
</g>
</g>
<!-- Node2&#45;&gt;Node3 -->
<g id="edge1" class="edge"><title>Node2&#45;&gt;Node3</title>
<path fill="none" stroke="midnightblue" d="M107.328,-79.6316C119.059,-82.9335 131.441,-86.3737 143,-89.5 151.504,-91.8001 160.579,-94.1944 169.345,-96.4769"/>
<polygon fill="midnightblue" stroke="midnightblue" points="168.508,-99.8754 179.066,-98.9955 170.264,-93.0991 168.508,-99.8754"/>
</g>
<!-- Node4 -->
<g id="node3" class="node"><title>Node4</title>
<g id="a_node3"><a xlink:href="classopenage_1_1_research_type.xhtml#af58948dd42b8d8a97233d2fdd9885e83" target="_top" xlink:title="Performs the modifications (eg.">
<polygon fill="white" stroke="black" points="156.5,-49.5 156.5,-79.5 278.5,-79.5 278.5,-49.5 156.5,-49.5"/>
<text text-anchor="start" x="164.5" y="-67.5" font-family="Helvetica,sans-Serif" font-size="10.00">openage::ResearchType</text>
<text text-anchor="middle" x="217.5" y="-56.5" font-family="Helvetica,sans-Serif" font-size="10.00">::apply</text>
</a>
</g>
</g>
<!-- Node2&#45;&gt;Node4 -->
<g id="edge2" class="edge"><title>Node2&#45;&gt;Node4</title>
<path fill="none" stroke="midnightblue" d="M107.097,-64.5C119.49,-64.5 132.899,-64.5 145.94,-64.5"/>
<polygon fill="midnightblue" stroke="midnightblue" points="146.294,-68.0001 156.294,-64.5 146.294,-61.0001 146.294,-68.0001"/>
</g>
<!-- Node5 -->
<g id="node4" class="node"><title>Node5</title>
<g id="a_node4"><a xlink:href="classopenage_1_1_research_type.xhtml#a76a5bd220674135f0bf93eed3f1bce92" target="_top" xlink:title="Gets the research category of the research.">
<polygon fill="white" stroke="black" points="156.5,-0.5 156.5,-30.5 278.5,-30.5 278.5,-0.5 156.5,-0.5"/>
<text text-anchor="start" x="164.5" y="-18.5" font-family="Helvetica,sans-Serif" font-size="10.00">openage::ResearchType</text>
<text text-anchor="middle" x="217.5" y="-7.5" font-family="Helvetica,sans-Serif" font-size="10.00">::category</text>
</a>
</g>
</g>
<!-- Node2&#45;&gt;Node5 -->
<g id="edge3" class="edge"><title>Node2&#45;&gt;Node5</title>
<path fill="none" stroke="midnightblue" d="M104.427,-49.3986C120.981,-44.3917 139.575,-38.7676 156.788,-33.561"/>
<polygon fill="midnightblue" stroke="midnightblue" points="158.179,-36.7969 166.738,-30.5516 156.153,-30.0967 158.179,-36.7969"/>
</g>
</g>
</svg>
