<?xml version="1.0" encoding="UTF-8" standalone="no"?>
<!DOCTYPE svg PUBLIC "-//W3C//DTD SVG 1.1//EN"
 "http://www.w3.org/Graphics/SVG/1.1/DTD/svg11.dtd">
<!-- Generated by graphviz version 2.38.0 (20140413.2041)
 -->
<!-- Title: openage::renderer::opengl::GlShader Pages: 1 -->
<svg width="127pt" height="270pt"
 viewBox="0.00 0.00 127.00 270.00" xmlns="http://www.w3.org/2000/svg" xmlns:xlink="http://www.w3.org/1999/xlink">
<g id="graph0" class="graph" transform="scale(1 1) rotate(0) translate(4 266)">
<title>openage::renderer::opengl::GlShader</title>
<polygon fill="white" stroke="none" points="-4,4 -4,-266 123,-266 123,4 -4,4"/>
<!-- Node0 -->
<g id="node1" class="node"><title>Node0</title>
<g id="a_node1"><a xlink:title="A single OpenGL shader stage.">
<polygon fill="#bfbfbf" stroke="black" points="9,-0.5 9,-79.5 110,-79.5 110,-0.5 9,-0.5"/>
<text text-anchor="start" x="17" y="-67.5" font-family="Helvetica,sans-Serif" font-size="10.00">openage::renderer::</text>
<text text-anchor="middle" x="59.5" y="-56.5" font-family="Helvetica,sans-Serif" font-size="10.00">opengl::GlShader</text>
<polyline fill="none" stroke="black" points="9,-49.5 110,-49.5 "/>
<text text-anchor="start" x="17" y="-37.5" font-family="Helvetica,sans-Serif" font-size="10.00">&#45; type</text>
<polyline fill="none" stroke="black" points="9,-30.5 110,-30.5 "/>
<text text-anchor="start" x="17" y="-18.5" font-family="Helvetica,sans-Serif" font-size="10.00">+ GlShader()</text>
<text text-anchor="start" x="17" y="-7.5" font-family="Helvetica,sans-Serif" font-size="10.00">+ get_type()</text>
</a>
</g>
</g>
<!-- Node1 -->
<g id="node2" class="node"><title>Node1</title>
<g id="a_node2"><a xlink:href="classopenage_1_1renderer_1_1opengl_1_1_gl_simple_object.xhtml" target="_top" xlink:title="A base class for all classes representing OpenGL Objects to inherit from.">
<polygon fill="white" stroke="black" points="0,-116.5 0,-261.5 119,-261.5 119,-116.5 0,-116.5"/>
<text text-anchor="start" x="8" y="-249.5" font-family="Helvetica,sans-Serif" font-size="10.00">openage::renderer::</text>
<text text-anchor="middle" x="59.5" y="-238.5" font-family="Helvetica,sans-Serif" font-size="10.00">opengl::GlSimpleObject</text>
<polyline fill="none" stroke="black" points="0,-231.5 119,-231.5 "/>
<text text-anchor="start" x="8" y="-219.5" font-family="Helvetica,sans-Serif" font-size="10.00"># handle</text>
<text text-anchor="start" x="8" y="-208.5" font-family="Helvetica,sans-Serif" font-size="10.00"># delete_fun</text>
<polyline fill="none" stroke="black" points="0,-201.5 119,-201.5 "/>
<text text-anchor="start" x="8" y="-189.5" font-family="Helvetica,sans-Serif" font-size="10.00">+ GlSimpleObject()</text>
<text text-anchor="start" x="8" y="-178.5" font-family="Helvetica,sans-Serif" font-size="10.00">+ operator=()</text>
<text text-anchor="start" x="8" y="-167.5" font-family="Helvetica,sans-Serif" font-size="10.00">+ GlSimpleObject()</text>
<text text-anchor="start" x="8" y="-156.5" font-family="Helvetica,sans-Serif" font-size="10.00">+ operator=()</text>
<text text-anchor="start" x="8" y="-145.5" font-family="Helvetica,sans-Serif" font-size="10.00">+ ~GlSimpleObject()</text>
<text text-anchor="start" x="8" y="-134.5" font-family="Helvetica,sans-Serif" font-size="10.00">+ get_handle()</text>
<text text-anchor="start" x="8" y="-123.5" font-family="Helvetica,sans-Serif" font-size="10.00"># GlSimpleObject()</text>
</a>
</g>
</g>
<!-- Node1&#45;&gt;Node0 -->
<g id="edge1" class="edge"><title>Node1&#45;&gt;Node0</title>
<path fill="none" stroke="midnightblue" d="M59.5,-105.954C59.5,-96.8992 59.5,-88.0195 59.5,-79.875"/>
<polygon fill="none" stroke="midnightblue" points="56.0001,-106.222 59.5,-116.223 63.0001,-106.223 56.0001,-106.222"/>
</g>
</g>
</svg>
