<?xml version="1.0" encoding="UTF-8" standalone="no"?>
<!DOCTYPE svg PUBLIC "-//W3C//DTD SVG 1.1//EN"
 "http://www.w3.org/Graphics/SVG/1.1/DTD/svg11.dtd">
<!-- Generated by graphviz version 2.38.0 (20140413.2041)
 -->
<!-- Title: openage::log::LogSink::set_loglevel Pages: 1 -->
<svg width="700pt" height="112pt"
 viewBox="0.00 0.00 700.00 112.00" xmlns="http://www.w3.org/2000/svg" xmlns:xlink="http://www.w3.org/1999/xlink">
<g id="graph0" class="graph" transform="scale(1 1) rotate(0) translate(4 108)">
<title>openage::log::LogSink::set_loglevel</title>
<polygon fill="white" stroke="none" points="-4,4 -4,-108 696,-108 696,4 -4,4"/>
<!-- Node21 -->
<g id="node1" class="node"><title>Node21</title>
<g id="a_node1"><a xlink:title=" ">
<polygon fill="#bfbfbf" stroke="black" points="0,-48.5 0,-78.5 113,-78.5 113,-48.5 0,-48.5"/>
<text text-anchor="start" x="8" y="-66.5" font-family="Helvetica,sans-Serif" font-size="10.00">openage::log::LogSink</text>
<text text-anchor="middle" x="56.5" y="-55.5" font-family="Helvetica,sans-Serif" font-size="10.00">::set_loglevel</text>
</a>
</g>
</g>
<!-- Node22 -->
<g id="node2" class="node"><title>Node22</title>
<g id="a_node2"><a xlink:href="classopenage_1_1log_1_1_log_sink_list.xhtml#a2d47416fab12651553b4b58c86fd6f84" target="_top" xlink:title=" ">
<polygon fill="white" stroke="black" points="149,-73.5 149,-103.5 278,-103.5 278,-73.5 149,-73.5"/>
<text text-anchor="start" x="157" y="-91.5" font-family="Helvetica,sans-Serif" font-size="10.00">openage::log::LogSinkList</text>
<text text-anchor="middle" x="213.5" y="-80.5" font-family="Helvetica,sans-Serif" font-size="10.00">::instance</text>
</a>
</g>
</g>
<!-- Node21&#45;&gt;Node22 -->
<g id="edge1" class="edge"><title>Node21&#45;&gt;Node22</title>
<path fill="none" stroke="midnightblue" d="M113.021,-72.455C121.387,-73.8044 130.126,-75.2139 138.801,-76.6131"/>
<polygon fill="midnightblue" stroke="midnightblue" points="138.5,-80.1097 148.93,-78.2467 139.615,-73.199 138.5,-80.1097"/>
</g>
<!-- Node23 -->
<g id="node3" class="node"><title>Node23</title>
<g id="a_node3"><a xlink:href="classopenage_1_1log_1_1_log_sink_list.xhtml#a92501d950b96e9c1978e9112f91773d2" target="_top" xlink:title=" ">
<polygon fill="white" stroke="black" points="149,-24.5 149,-54.5 278,-54.5 278,-24.5 149,-24.5"/>
<text text-anchor="start" x="157" y="-42.5" font-family="Helvetica,sans-Serif" font-size="10.00">openage::log::LogSinkList</text>
<text text-anchor="middle" x="213.5" y="-31.5" font-family="Helvetica,sans-Serif" font-size="10.00">::loglevel_changed</text>
</a>
</g>
</g>
<!-- Node21&#45;&gt;Node23 -->
<g id="edge2" class="edge"><title>Node21&#45;&gt;Node23</title>
<path fill="none" stroke="midnightblue" d="M113.021,-54.9032C121.387,-53.6078 130.126,-52.2547 138.801,-50.9114"/>
<polygon fill="midnightblue" stroke="midnightblue" points="139.583,-54.3322 148.93,-49.3431 138.512,-47.4146 139.583,-54.3322"/>
</g>
<!-- Node24 -->
<g id="node4" class="node"><title>Node24</title>
<g id="a_node4"><a xlink:href="classopenage_1_1log_1_1_log_sink_list.xhtml#a6a410aaea79c35f3e06113b1096ee248" target="_top" xlink:title=" ">
<polygon fill="white" stroke="black" points="314,-24.5 314,-54.5 443,-54.5 443,-24.5 314,-24.5"/>
<text text-anchor="start" x="322" y="-42.5" font-family="Helvetica,sans-Serif" font-size="10.00">openage::log::LogSinkList</text>
<text text-anchor="middle" x="378.5" y="-31.5" font-family="Helvetica,sans-Serif" font-size="10.00">::set_lowest_loglevel</text>
</a>
</g>
</g>
<!-- Node23&#45;&gt;Node24 -->
<g id="edge3" class="edge"><title>Node23&#45;&gt;Node24</title>
<path fill="none" stroke="midnightblue" d="M278.454,-39.5C286.761,-39.5 295.322,-39.5 303.772,-39.5"/>
<polygon fill="midnightblue" stroke="midnightblue" points="303.998,-43.0001 313.998,-39.5 303.998,-36.0001 303.998,-43.0001"/>
</g>
<!-- Node25 -->
<g id="node5" class="node"><title>Node25</title>
<g id="a_node5"><a xlink:href="namespacestd.xhtml#a34591a1d8ee5da3f16f56554590d5e16" target="_top" xlink:title=" ">
<polygon fill="white" stroke="black" points="479,-30 479,-49 531,-49 531,-30 479,-30"/>
<text text-anchor="middle" x="505" y="-37" font-family="Helvetica,sans-Serif" font-size="10.00">std::min</text>
</a>
</g>
</g>
<!-- Node24&#45;&gt;Node25 -->
<g id="edge4" class="edge"><title>Node24&#45;&gt;Node25</title>
<path fill="none" stroke="midnightblue" d="M443.209,-39.5C452.028,-39.5 460.807,-39.5 468.84,-39.5"/>
<polygon fill="midnightblue" stroke="midnightblue" points="468.909,-43.0001 478.909,-39.5 468.909,-36.0001 468.909,-43.0001"/>
</g>
<!-- Node26 -->
<g id="node6" class="node"><title>Node26</title>
<g id="a_node6"><a xlink:href="classopenage_1_1util_1_1_fixed_point.xhtml#aa01c403263c2142c0ce9ce40cde89066" target="_top" xlink:title=" ">
<polygon fill="white" stroke="black" points="567,-49.5 567,-79.5 692,-79.5 692,-49.5 567,-49.5"/>
<text text-anchor="start" x="575" y="-67.5" font-family="Helvetica,sans-Serif" font-size="10.00">openage::util::FixedPoint</text>
<text text-anchor="middle" x="629.5" y="-56.5" font-family="Helvetica,sans-Serif" font-size="10.00">::from_raw_value</text>
</a>
</g>
</g>
<!-- Node25&#45;&gt;Node26 -->
<g id="edge5" class="edge"><title>Node25&#45;&gt;Node26</title>
<path fill="none" stroke="midnightblue" d="M531.085,-44.6195C538.745,-46.1826 547.579,-47.9856 556.737,-49.8546"/>
<polygon fill="midnightblue" stroke="midnightblue" points="556.264,-53.3299 566.761,-51.9003 557.663,-46.4713 556.264,-53.3299"/>
</g>
<!-- Node27 -->
<g id="node7" class="node"><title>Node27</title>
<g id="a_node7"><a xlink:href="classopenage_1_1util_1_1_fixed_point.xhtml#affe7a3ec44c6f7ac96312875af742f87" target="_top" xlink:title=" ">
<polygon fill="white" stroke="black" points="567,-0.5 567,-30.5 692,-30.5 692,-0.5 567,-0.5"/>
<text text-anchor="start" x="575" y="-18.5" font-family="Helvetica,sans-Serif" font-size="10.00">openage::util::FixedPoint</text>
<text text-anchor="middle" x="629.5" y="-7.5" font-family="Helvetica,sans-Serif" font-size="10.00">::get_raw_value</text>
</a>
</g>
</g>
<!-- Node25&#45;&gt;Node27 -->
<g id="edge6" class="edge"><title>Node25&#45;&gt;Node27</title>
<path fill="none" stroke="midnightblue" d="M531.085,-34.5853C538.745,-33.0847 547.579,-31.3538 556.737,-29.5596"/>
<polygon fill="midnightblue" stroke="midnightblue" points="557.621,-32.9531 566.761,-27.5957 556.275,-26.0837 557.621,-32.9531"/>
</g>
</g>
</svg>
