<?xml version="1.0" encoding="UTF-8" standalone="no"?>
<!DOCTYPE svg PUBLIC "-//W3C//DTD SVG 1.1//EN"
 "http://www.w3.org/Graphics/SVG/1.1/DTD/svg11.dtd">
<!-- Generated by graphviz version 2.38.0 (20140413.2041)
 -->
<!-- Title: openage::console::Buf::process_escaped_cp Pages: 1 -->
<svg width="421pt" height="39pt"
 viewBox="0.00 0.00 421.00 39.00" xmlns="http://www.w3.org/2000/svg" xmlns:xlink="http://www.w3.org/1999/xlink">
<g id="graph0" class="graph" transform="scale(1 1) rotate(0) translate(4 35)">
<title>openage::console::Buf::process_escaped_cp</title>
<polygon fill="white" stroke="none" points="-4,4 -4,-35 417,-35 417,4 -4,4"/>
<!-- Node176 -->
<g id="node1" class="node"><title>Node176</title>
<g id="a_node1"><a xlink:title="processes a single&#45;codepoint escape sequence.">
<polygon fill="#bfbfbf" stroke="black" points="298,-0.5 298,-30.5 413,-30.5 413,-0.5 298,-0.5"/>
<text text-anchor="start" x="306" y="-18.5" font-family="Helvetica,sans-Serif" font-size="10.00">openage::console::Buf</text>
<text text-anchor="middle" x="355.5" y="-7.5" font-family="Helvetica,sans-Serif" font-size="10.00">::process_escaped_cp</text>
</a>
</g>
</g>
<!-- Node177 -->
<g id="node2" class="node"><title>Node177</title>
<g id="a_node2"><a xlink:href="classopenage_1_1console_1_1_buf.xhtml#adcdc21533ab920bd72f92f27333716bf" target="_top" xlink:title="processes one unicode codepoint internally called by write(char) after feeding the char into streamde...">
<polygon fill="white" stroke="black" points="149,-0.5 149,-30.5 262,-30.5 262,-0.5 149,-0.5"/>
<text text-anchor="start" x="157" y="-18.5" font-family="Helvetica,sans-Serif" font-size="10.00">openage::console::Buf</text>
<text text-anchor="middle" x="205.5" y="-7.5" font-family="Helvetica,sans-Serif" font-size="10.00">::process_codepoint</text>
</a>
</g>
</g>
<!-- Node176&#45;&gt;Node177 -->
<g id="edge1" class="edge"><title>Node176&#45;&gt;Node177</title>
<path fill="none" stroke="midnightblue" d="M287.545,-15.5C279.144,-15.5 270.62,-15.5 262.413,-15.5"/>
<polygon fill="midnightblue" stroke="midnightblue" points="287.703,-19.0001 297.703,-15.5 287.703,-12.0001 287.703,-19.0001"/>
</g>
<!-- Node178 -->
<g id="node3" class="node"><title>Node178</title>
<g id="a_node3"><a xlink:href="classopenage_1_1console_1_1_buf.xhtml#a7f70c41ed91a5283fd2dd337b7493eaa" target="_top" xlink:title="write a single byte to the buffer.">
<polygon fill="white" stroke="black" points="0,-0.5 0,-30.5 113,-30.5 113,-0.5 0,-0.5"/>
<text text-anchor="start" x="8" y="-18.5" font-family="Helvetica,sans-Serif" font-size="10.00">openage::console::Buf</text>
<text text-anchor="middle" x="56.5" y="-7.5" font-family="Helvetica,sans-Serif" font-size="10.00">::write</text>
</a>
</g>
</g>
<!-- Node177&#45;&gt;Node178 -->
<g id="edge2" class="edge"><title>Node177&#45;&gt;Node178</title>
<path fill="none" stroke="midnightblue" d="M138.922,-15.5C130.319,-15.5 121.57,-15.5 113.153,-15.5"/>
<polygon fill="midnightblue" stroke="midnightblue" points="138.926,-19.0001 148.926,-15.5 138.926,-12.0001 138.926,-19.0001"/>
</g>
</g>
</svg>
