<?xml version="1.0" encoding="UTF-8" standalone="no"?>
<!DOCTYPE svg PUBLIC "-//W3C//DTD SVG 1.1//EN"
 "http://www.w3.org/Graphics/SVG/1.1/DTD/svg11.dtd">
<!-- Generated by graphviz version 2.38.0 (20140413.2041)
 -->
<!-- Title: openage::audio::DynamicResource::start_preloading Pages: 1 -->
<svg width="380pt" height="39pt"
 viewBox="0.00 0.00 380.00 39.00" xmlns="http://www.w3.org/2000/svg" xmlns:xlink="http://www.w3.org/1999/xlink">
<g id="graph0" class="graph" transform="scale(1 1) rotate(0) translate(4 35)">
<title>openage::audio::DynamicResource::start_preloading</title>
<polygon fill="white" stroke="none" points="-4,4 -4,-35 376,-35 376,4 -4,4"/>
<!-- Node17 -->
<g id="node1" class="node"><title>Node17</title>
<g id="a_node1"><a xlink:title=" ">
<polygon fill="#bfbfbf" stroke="black" points="204,-0.5 204,-30.5 372,-30.5 372,-0.5 204,-0.5"/>
<text text-anchor="start" x="212" y="-18.5" font-family="Helvetica,sans-Serif" font-size="10.00">openage::audio::DynamicResource</text>
<text text-anchor="middle" x="288" y="-7.5" font-family="Helvetica,sans-Serif" font-size="10.00">::start_preloading</text>
</a>
</g>
</g>
<!-- Node18 -->
<g id="node2" class="node"><title>Node18</title>
<g id="a_node2"><a xlink:href="classopenage_1_1audio_1_1_dynamic_resource.xhtml#a92355342f8790b7d89431544dd0c5ac0" target="_top" xlink:title=" ">
<polygon fill="white" stroke="black" points="0,-0.5 0,-30.5 168,-30.5 168,-0.5 0,-0.5"/>
<text text-anchor="start" x="8" y="-18.5" font-family="Helvetica,sans-Serif" font-size="10.00">openage::audio::DynamicResource</text>
<text text-anchor="middle" x="84" y="-7.5" font-family="Helvetica,sans-Serif" font-size="10.00">::get_data</text>
</a>
</g>
</g>
<!-- Node17&#45;&gt;Node18 -->
<g id="edge1" class="edge"><title>Node17&#45;&gt;Node18</title>
<path fill="none" stroke="midnightblue" d="M193.891,-15.5C185.266,-15.5 176.565,-15.5 168.04,-15.5"/>
<polygon fill="midnightblue" stroke="midnightblue" points="193.964,-19.0001 203.964,-15.5 193.964,-12.0001 193.964,-19.0001"/>
</g>
</g>
</svg>
