<?xml version="1.0" encoding="UTF-8" standalone="no"?>
<!DOCTYPE svg PUBLIC "-//W3C//DTD SVG 1.1//EN"
 "http://www.w3.org/Graphics/SVG/1.1/DTD/svg11.dtd">
<!-- Generated by graphviz version 2.38.0 (20140413.2041)
 -->
<!-- Title: openage::renderer::opengl::GlWindow::GlWindow Pages: 1 -->
<svg width="969pt" height="256pt"
 viewBox="0.00 0.00 969.00 255.50" xmlns="http://www.w3.org/2000/svg" xmlns:xlink="http://www.w3.org/1999/xlink">
<g id="graph0" class="graph" transform="scale(1 1) rotate(0) translate(4 251.5)">
<title>openage::renderer::opengl::GlWindow::GlWindow</title>
<polygon fill="white" stroke="none" points="-4,4 -4,-251.5 965,-251.5 965,4 -4,4"/>
<!-- Node0 -->
<g id="node1" class="node"><title>Node0</title>
<g id="a_node1"><a xlink:title="Create a shiny window with the given title.">
<polygon fill="#bfbfbf" stroke="black" points="0,-129 0,-159 146,-159 146,-129 0,-129"/>
<text text-anchor="start" x="8" y="-147" font-family="Helvetica,sans-Serif" font-size="10.00">openage::renderer::</text>
<text text-anchor="middle" x="73" y="-136" font-family="Helvetica,sans-Serif" font-size="10.00">opengl::GlWindow::GlWindow</text>
</a>
</g>
</g>
<!-- Node1 -->
<g id="node2" class="node"><title>Node1</title>
<g id="a_node2"><a xlink:href="classopenage_1_1renderer_1_1_window.xhtml#ad63c0200f828c7134ddc81ce711c171b" target="_top" xlink:title=" ">
<polygon fill="white" stroke="black" points="182,-217 182,-247 328,-247 328,-217 182,-217"/>
<text text-anchor="start" x="190" y="-235" font-family="Helvetica,sans-Serif" font-size="10.00">openage::renderer::</text>
<text text-anchor="middle" x="255" y="-224" font-family="Helvetica,sans-Serif" font-size="10.00">Window::add_resize_callback</text>
</a>
</g>
</g>
<!-- Node0&#45;&gt;Node1 -->
<g id="edge1" class="edge"><title>Node0&#45;&gt;Node1</title>
<path fill="none" stroke="midnightblue" d="M100.258,-159.037C121.901,-171.203 153.553,-188.475 182,-202 189.908,-205.76 198.415,-209.535 206.714,-213.076"/>
<polygon fill="midnightblue" stroke="midnightblue" points="205.377,-216.311 215.952,-216.963 208.092,-209.859 205.377,-216.311"/>
</g>
<!-- Node2 -->
<g id="node3" class="node"><title>Node2</title>
<g id="a_node3"><a xlink:href="namespaceopenage_1_1log.xhtml#a325b0901ddb3f2af36f93781b7dd9744" target="_top" xlink:title="error message">
<polygon fill="white" stroke="black" points="511,-156.5 511,-175.5 594,-175.5 594,-156.5 511,-156.5"/>
<text text-anchor="middle" x="552.5" y="-163.5" font-family="Helvetica,sans-Serif" font-size="10.00">openage.log.err</text>
</a>
</g>
</g>
<!-- Node0&#45;&gt;Node2 -->
<g id="edge2" class="edge"><title>Node0&#45;&gt;Node2</title>
<path fill="none" stroke="midnightblue" d="M130.781,-159.059C147.186,-162.743 165.198,-166.156 182,-168 295.351,-180.443 429.44,-174.642 500.816,-169.933"/>
<polygon fill="midnightblue" stroke="midnightblue" points="501.143,-173.419 510.882,-169.249 500.668,-166.435 501.143,-173.419"/>
</g>
<!-- Node3 -->
<g id="node4" class="node"><title>Node3</title>
<g id="a_node4"><a xlink:href="namespaceopenage_1_1log.xhtml#a3f1815b698faf5786fc5e20bcac7704b" target="_top" xlink:title="info message">
<polygon fill="white" stroke="black" points="509,-104.5 509,-123.5 596,-123.5 596,-104.5 509,-104.5"/>
<text text-anchor="middle" x="552.5" y="-111.5" font-family="Helvetica,sans-Serif" font-size="10.00">openage.log.info</text>
</a>
</g>
</g>
<!-- Node0&#45;&gt;Node3 -->
<g id="edge3" class="edge"><title>Node0&#45;&gt;Node3</title>
<path fill="none" stroke="midnightblue" d="M128.539,-128.986C145.53,-124.956 164.422,-121.128 182,-119 294.152,-105.42 426.841,-108.156 498.751,-111.188"/>
<polygon fill="midnightblue" stroke="midnightblue" points="498.765,-114.692 508.91,-111.635 499.074,-107.698 498.765,-114.692"/>
</g>
<!-- Node4 -->
<g id="node5" class="node"><title>Node4</title>
<g id="a_node5"><a xlink:href="namespaceopenage_1_1log.xhtml#a0eff614e7d6e818746700ed9d29e583f" target="_top" xlink:title=" ">
<polygon fill="white" stroke="black" points="507,-66.5 507,-85.5 598,-85.5 598,-66.5 507,-66.5"/>
<text text-anchor="middle" x="552.5" y="-73.5" font-family="Helvetica,sans-Serif" font-size="10.00">openage::log::log</text>
</a>
</g>
</g>
<!-- Node0&#45;&gt;Node4 -->
<g id="edge4" class="edge"><title>Node0&#45;&gt;Node4</title>
<path fill="none" stroke="midnightblue" d="M109.336,-128.972C130.115,-120.795 157.115,-111.295 182,-106 291.95,-82.6031 423.867,-77.1674 496.596,-76.0752"/>
<polygon fill="midnightblue" stroke="midnightblue" points="496.933,-79.5713 506.888,-75.944 496.844,-72.5719 496.933,-79.5713"/>
</g>
<!-- Node10 -->
<g id="node11" class="node"><title>Node10</title>
<g id="a_node11"><a xlink:href="namespaceopenage_1_1renderer.xhtml#a791eb93b7b9b7d62f339a9d3190d61b1" target="_top" xlink:title=" ">
<polygon fill="white" stroke="black" points="204.5,-129 204.5,-159 305.5,-159 305.5,-129 204.5,-129"/>
<text text-anchor="start" x="212.5" y="-147" font-family="Helvetica,sans-Serif" font-size="10.00">openage::renderer::</text>
<text text-anchor="middle" x="255" y="-136" font-family="Helvetica,sans-Serif" font-size="10.00">make_sdl_available</text>
</a>
</g>
</g>
<!-- Node0&#45;&gt;Node10 -->
<g id="edge10" class="edge"><title>Node0&#45;&gt;Node10</title>
<path fill="none" stroke="midnightblue" d="M146.176,-144C162.069,-144 178.736,-144 194.083,-144"/>
<polygon fill="midnightblue" stroke="midnightblue" points="194.472,-147.5 204.472,-144 194.472,-140.5 194.472,-147.5"/>
</g>
<!-- Node5 -->
<g id="node6" class="node"><title>Node5</title>
<g id="a_node6"><a xlink:href="namespaceopenage_1_1log.xhtml#a3fbb0c225d01e222648ec28a43507188" target="_top" xlink:title=" ">
<polygon fill="white" stroke="black" points="650.5,-83 650.5,-113 760.5,-113 760.5,-83 650.5,-83"/>
<text text-anchor="start" x="658.5" y="-101" font-family="Helvetica,sans-Serif" font-size="10.00">openage::log::general</text>
<text text-anchor="middle" x="705.5" y="-90" font-family="Helvetica,sans-Serif" font-size="10.00">_source</text>
</a>
</g>
</g>
<!-- Node4&#45;&gt;Node5 -->
<g id="edge5" class="edge"><title>Node4&#45;&gt;Node5</title>
<path fill="none" stroke="midnightblue" d="M598.396,-82.5412C611.548,-84.4573 626.191,-86.5907 640.296,-88.6457"/>
<polygon fill="midnightblue" stroke="midnightblue" points="640.042,-92.1456 650.442,-90.124 641.051,-85.2188 640.042,-92.1456"/>
</g>
<!-- Node6 -->
<g id="node7" class="node"><title>Node6</title>
<g id="a_node7"><a xlink:href="classopenage_1_1log_1_1_log_source.xhtml#a5640099e20af4cd368c767dbcef3a1df" target="_top" xlink:title=" ">
<polygon fill="white" stroke="black" points="634,-44.5 634,-63.5 777,-63.5 777,-44.5 634,-44.5"/>
<text text-anchor="middle" x="705.5" y="-51.5" font-family="Helvetica,sans-Serif" font-size="10.00">openage::log::LogSource::log</text>
</a>
</g>
</g>
<!-- Node4&#45;&gt;Node6 -->
<g id="edge6" class="edge"><title>Node4&#45;&gt;Node6</title>
<path fill="none" stroke="midnightblue" d="M598.396,-69.4588C608.081,-68.0479 618.574,-66.5191 629.065,-64.9905"/>
<polygon fill="midnightblue" stroke="midnightblue" points="629.706,-68.4342 639.097,-63.5289 628.697,-61.5073 629.706,-68.4342"/>
</g>
<!-- Node7 -->
<g id="node8" class="node"><title>Node7</title>
<g id="a_node8"><a xlink:href="namespaceopenage_1_1log.xhtml#a3d2885be9c3a09b9ff7ee8764b2e5f39" target="_top" xlink:title=" ">
<polygon fill="white" stroke="black" points="835,-88 835,-118 939,-118 939,-88 835,-88"/>
<text text-anchor="start" x="843" y="-106" font-family="Helvetica,sans-Serif" font-size="10.00">openage::log::global</text>
<text text-anchor="middle" x="887" y="-95" font-family="Helvetica,sans-Serif" font-size="10.00">_stdoutsink</text>
</a>
</g>
</g>
<!-- Node6&#45;&gt;Node7 -->
<g id="edge7" class="edge"><title>Node6&#45;&gt;Node7</title>
<path fill="none" stroke="midnightblue" d="M742.014,-63.5314C753.211,-66.5474 765.625,-69.902 777,-73 792.535,-77.2311 809.305,-81.8309 824.925,-86.1288"/>
<polygon fill="midnightblue" stroke="midnightblue" points="824.429,-89.6222 834.999,-88.9026 826.287,-82.8734 824.429,-89.6222"/>
</g>
<!-- Node8 -->
<g id="node9" class="node"><title>Node8</title>
<g id="a_node9"><a xlink:href="classopenage_1_1log_1_1_log_sink_list.xhtml#a2d47416fab12651553b4b58c86fd6f84" target="_top" xlink:title=" ">
<polygon fill="white" stroke="black" points="822.5,-39 822.5,-69 951.5,-69 951.5,-39 822.5,-39"/>
<text text-anchor="start" x="830.5" y="-57" font-family="Helvetica,sans-Serif" font-size="10.00">openage::log::LogSinkList</text>
<text text-anchor="middle" x="887" y="-46" font-family="Helvetica,sans-Serif" font-size="10.00">::instance</text>
</a>
</g>
</g>
<!-- Node6&#45;&gt;Node8 -->
<g id="edge8" class="edge"><title>Node6&#45;&gt;Node8</title>
<path fill="none" stroke="midnightblue" d="M777.185,-54C788.719,-54 800.693,-54 812.297,-54"/>
<polygon fill="midnightblue" stroke="midnightblue" points="812.38,-57.5001 822.379,-54 812.379,-50.5001 812.38,-57.5001"/>
</g>
<!-- Node9 -->
<g id="node10" class="node"><title>Node9</title>
<g id="a_node10"><a xlink:href="classopenage_1_1log_1_1_log_sink_list.xhtml#a8456b84ab55e1fe151c51438c5bfebdd" target="_top" xlink:title=" ">
<polygon fill="white" stroke="black" points="813,-0.5 813,-19.5 961,-19.5 961,-0.5 813,-0.5"/>
<text text-anchor="middle" x="887" y="-7.5" font-family="Helvetica,sans-Serif" font-size="10.00">openage::log::LogSinkList::log</text>
</a>
</g>
</g>
<!-- Node6&#45;&gt;Node9 -->
<g id="edge9" class="edge"><title>Node6&#45;&gt;Node9</title>
<path fill="none" stroke="midnightblue" d="M745.449,-44.4527C772.382,-37.8508 808.415,-29.0181 837.253,-21.949"/>
<polygon fill="midnightblue" stroke="midnightblue" points="838.248,-25.3089 847.127,-19.5287 836.581,-18.5102 838.248,-25.3089"/>
</g>
<!-- Node11 -->
<g id="node12" class="node"><title>Node11</title>
<g id="a_node12"><a xlink:href="classopenage_1_1renderer_1_1_s_d_l.xhtml#a49774bd3b06bf0ac40e5c471fed34013" target="_top" xlink:title=" ">
<polygon fill="white" stroke="black" points="364,-129 364,-159 471,-159 471,-129 364,-129"/>
<text text-anchor="start" x="372" y="-147" font-family="Helvetica,sans-Serif" font-size="10.00">openage::renderer::</text>
<text text-anchor="middle" x="417.5" y="-136" font-family="Helvetica,sans-Serif" font-size="10.00">SDL::make_available</text>
</a>
</g>
</g>
<!-- Node10&#45;&gt;Node11 -->
<g id="edge11" class="edge"><title>Node10&#45;&gt;Node11</title>
<path fill="none" stroke="midnightblue" d="M305.903,-144C321.001,-144 337.779,-144 353.61,-144"/>
<polygon fill="midnightblue" stroke="midnightblue" points="353.849,-147.5 363.849,-144 353.849,-140.5 353.849,-147.5"/>
</g>
<!-- Node11&#45;&gt;Node2 -->
<g id="edge12" class="edge"><title>Node11&#45;&gt;Node2</title>
<path fill="none" stroke="midnightblue" d="M471.065,-152.695C480.873,-154.317 491.104,-156.01 500.853,-157.622"/>
<polygon fill="midnightblue" stroke="midnightblue" points="500.362,-161.089 510.799,-159.268 501.505,-154.182 500.362,-161.089"/>
</g>
<!-- Node11&#45;&gt;Node3 -->
<g id="edge13" class="edge"><title>Node11&#45;&gt;Node3</title>
<path fill="none" stroke="midnightblue" d="M471.065,-132.143C480.343,-130.05 490,-127.872 499.269,-125.781"/>
<polygon fill="midnightblue" stroke="midnightblue" points="500.153,-129.17 509.138,-123.555 498.613,-122.342 500.153,-129.17"/>
</g>
<!-- Node11&#45;&gt;Node4 -->
<g id="edge14" class="edge"><title>Node11&#45;&gt;Node4</title>
<path fill="none" stroke="midnightblue" d="M444.078,-128.928C461.557,-118.855 485.383,-105.565 507,-95 510.632,-93.2248 514.471,-91.4457 518.311,-89.7267"/>
<polygon fill="midnightblue" stroke="midnightblue" points="519.974,-92.8201 527.741,-85.6144 517.175,-86.4038 519.974,-92.8201"/>
</g>
</g>
</svg>
