<?xml version="1.0" encoding="UTF-8" standalone="no"?>
<!DOCTYPE svg PUBLIC "-//W3C//DTD SVG 1.1//EN"
 "http://www.w3.org/Graphics/SVG/1.1/DTD/svg11.dtd">
<!-- Generated by graphviz version 2.38.0 (20140413.2041)
 -->
<!-- Title: openage::Texture::get_subtexture_count Pages: 1 -->
<svg width="1547pt" height="274pt"
 viewBox="0.00 0.00 1547.00 274.00" xmlns="http://www.w3.org/2000/svg" xmlns:xlink="http://www.w3.org/1999/xlink">
<g id="graph0" class="graph" transform="scale(1 1) rotate(0) translate(4 270)">
<title>openage::Texture::get_subtexture_count</title>
<polygon fill="white" stroke="none" points="-4,4 -4,-270 1543,-270 1543,4 -4,4"/>
<!-- Node76 -->
<g id="node1" class="node"><title>Node76</title>
<g id="a_node1"><a xlink:title=" ">
<polygon fill="#bfbfbf" stroke="black" points="1428,-112.5 1428,-142.5 1539,-142.5 1539,-112.5 1428,-112.5"/>
<text text-anchor="start" x="1436" y="-130.5" font-family="Helvetica,sans-Serif" font-size="10.00">openage::Texture::get</text>
<text text-anchor="middle" x="1483.5" y="-119.5" font-family="Helvetica,sans-Serif" font-size="10.00">_subtexture_count</text>
</a>
</g>
</g>
<!-- Node77 -->
<g id="node2" class="node"><title>Node77</title>
<g id="a_node2"><a xlink:href="classopenage_1_1_terrain.xhtml#a72f81eb7623d4ade8272f8163bfcb4d9" target="_top" xlink:title=" ">
<polygon fill="white" stroke="black" points="1255,-235.5 1255,-265.5 1389,-265.5 1389,-235.5 1255,-235.5"/>
<text text-anchor="start" x="1263" y="-253.5" font-family="Helvetica,sans-Serif" font-size="10.00">openage::Terrain::calculate</text>
<text text-anchor="middle" x="1322" y="-242.5" font-family="Helvetica,sans-Serif" font-size="10.00">_masks</text>
</a>
</g>
</g>
<!-- Node76&#45;&gt;Node77 -->
<g id="edge1" class="edge"><title>Node76&#45;&gt;Node77</title>
<path fill="none" stroke="midnightblue" d="M1466.38,-151.008C1450.01,-173.283 1422.73,-206.257 1392,-226.5 1386.92,-229.849 1381.31,-232.786 1375.56,-235.347"/>
<polygon fill="midnightblue" stroke="midnightblue" points="1469.32,-152.922 1472.31,-142.758 1463.63,-148.837 1469.32,-152.922"/>
</g>
<!-- Node78 -->
<g id="node3" class="node"><title>Node78</title>
<g id="a_node3"><a xlink:href="classopenage_1_1_terrain.xhtml#a16e91ba2a775715dc81088e47e508786" target="_top" xlink:title=" ">
<polygon fill="white" stroke="black" points="1261,-186.5 1261,-216.5 1383,-216.5 1383,-186.5 1261,-186.5"/>
<text text-anchor="start" x="1269" y="-204.5" font-family="Helvetica,sans-Serif" font-size="10.00">openage::Terrain::create</text>
<text text-anchor="middle" x="1322" y="-193.5" font-family="Helvetica,sans-Serif" font-size="10.00">_tile_advice</text>
</a>
</g>
</g>
<!-- Node76&#45;&gt;Node78 -->
<g id="edge2" class="edge"><title>Node76&#45;&gt;Node78</title>
<path fill="none" stroke="midnightblue" d="M1448.87,-147.868C1432.13,-157.547 1411.36,-168.859 1392,-177.5 1384.93,-180.653 1377.32,-183.666 1369.82,-186.427"/>
<polygon fill="midnightblue" stroke="midnightblue" points="1450.87,-150.757 1457.73,-142.686 1447.33,-144.715 1450.87,-150.757"/>
</g>
<!-- Node79 -->
<g id="node4" class="node"><title>Node79</title>
<g id="a_node4"><a xlink:href="classopenage_1_1_unit_texture.xhtml#acd15e688a5bce0b7e7268e90bb9affdd" target="_top" xlink:title=" ">
<polygon fill="white" stroke="black" points="1267.5,-137.5 1267.5,-167.5 1376.5,-167.5 1376.5,-137.5 1267.5,-137.5"/>
<text text-anchor="start" x="1275.5" y="-155.5" font-family="Helvetica,sans-Serif" font-size="10.00">openage::UnitTexture</text>
<text text-anchor="middle" x="1322" y="-144.5" font-family="Helvetica,sans-Serif" font-size="10.00">::draw</text>
</a>
</g>
</g>
<!-- Node76&#45;&gt;Node79 -->
<g id="edge3" class="edge"><title>Node76&#45;&gt;Node79</title>
<path fill="none" stroke="midnightblue" d="M1417.39,-137.705C1403.85,-139.828 1389.72,-142.042 1376.64,-144.092"/>
<polygon fill="midnightblue" stroke="midnightblue" points="1418.27,-141.11 1427.61,-136.104 1417.19,-134.194 1418.27,-141.11"/>
</g>
<!-- Node80 -->
<g id="node5" class="node"><title>Node80</title>
<g id="a_node5"><a xlink:href="classopenage_1_1_unit_texture.xhtml#a74f56948004978ef96508c6486b34430" target="_top" xlink:title=" ">
<polygon fill="white" stroke="black" points="1267.5,-88.5 1267.5,-118.5 1376.5,-118.5 1376.5,-88.5 1267.5,-88.5"/>
<text text-anchor="start" x="1275.5" y="-106.5" font-family="Helvetica,sans-Serif" font-size="10.00">openage::UnitTexture</text>
<text text-anchor="middle" x="1322" y="-95.5" font-family="Helvetica,sans-Serif" font-size="10.00">::initialise</text>
</a>
</g>
</g>
<!-- Node76&#45;&gt;Node80 -->
<g id="edge4" class="edge"><title>Node76&#45;&gt;Node80</title>
<path fill="none" stroke="midnightblue" d="M1417.39,-117.703C1403.85,-115.665 1389.72,-113.539 1376.64,-111.572"/>
<polygon fill="midnightblue" stroke="midnightblue" points="1417.2,-121.214 1427.61,-119.241 1418.24,-114.291 1417.2,-121.214"/>
</g>
<!-- Node81 -->
<g id="node6" class="node"><title>Node81</title>
<g id="a_node6"><a xlink:href="namespaceopenage_1_1gui.xhtml#af717f0e1527d227ea7c4a8e9f34e87b8" target="_top" xlink:title=" ">
<polygon fill="white" stroke="black" points="1252,-50 1252,-69 1392,-69 1392,-50 1252,-50"/>
<text text-anchor="middle" x="1322" y="-57" font-family="Helvetica,sans-Serif" font-size="10.00">openage::gui::isAtlasTexture</text>
</a>
</g>
</g>
<!-- Node76&#45;&gt;Node81 -->
<g id="edge5" class="edge"><title>Node76&#45;&gt;Node81</title>
<path fill="none" stroke="midnightblue" d="M1449.42,-107.23C1432.66,-97.5752 1411.72,-86.4331 1392,-78.5 1383.01,-74.883 1373.09,-71.7062 1363.65,-69.0372"/>
<polygon fill="midnightblue" stroke="midnightblue" points="1447.87,-110.379 1458.27,-112.412 1451.41,-104.339 1447.87,-110.379"/>
</g>
<!-- Node94 -->
<g id="node19" class="node"><title>Node94</title>
<g id="a_node19"><a xlink:href="classopenage_1_1_unit_texture.xhtml#a7fad704b779a60bf744ee6b91ba6d6a2" target="_top" xlink:title=" ">
<polygon fill="white" stroke="black" points="1267.5,-0.5 1267.5,-30.5 1376.5,-30.5 1376.5,-0.5 1267.5,-0.5"/>
<text text-anchor="start" x="1275.5" y="-18.5" font-family="Helvetica,sans-Serif" font-size="10.00">openage::UnitTexture</text>
<text text-anchor="middle" x="1322" y="-7.5" font-family="Helvetica,sans-Serif" font-size="10.00">::subtexture</text>
</a>
</g>
</g>
<!-- Node76&#45;&gt;Node94 -->
<g id="edge19" class="edge"><title>Node76&#45;&gt;Node94</title>
<path fill="none" stroke="midnightblue" d="M1463.54,-104.518C1446.54,-85.1667 1420.01,-57.9306 1392,-40.5 1385.94,-36.7303 1379.23,-33.4135 1372.45,-30.5319"/>
<polygon fill="midnightblue" stroke="midnightblue" points="1461.05,-106.983 1470.22,-112.276 1466.35,-102.415 1461.05,-106.983"/>
</g>
<!-- Node82 -->
<g id="node7" class="node"><title>Node82</title>
<g id="a_node7"><a xlink:href="classopenage_1_1gui_1_1_gui_texture.xhtml#aa857182d062f11dc1d300e5965596511" target="_top" xlink:title=" ">
<polygon fill="white" stroke="black" points="1090.5,-91.5 1090.5,-121.5 1215.5,-121.5 1215.5,-91.5 1090.5,-91.5"/>
<text text-anchor="start" x="1098.5" y="-109.5" font-family="Helvetica,sans-Serif" font-size="10.00">openage::gui::GuiTexture</text>
<text text-anchor="middle" x="1153" y="-98.5" font-family="Helvetica,sans-Serif" font-size="10.00">::isAtlasTexture</text>
</a>
</g>
</g>
<!-- Node81&#45;&gt;Node82 -->
<g id="edge6" class="edge"><title>Node81&#45;&gt;Node82</title>
<path fill="none" stroke="midnightblue" d="M1276.49,-71.6902C1268.34,-73.9409 1259.91,-76.2811 1252,-78.5 1237.18,-82.6581 1221.11,-87.2238 1206.36,-91.4399"/>
<polygon fill="midnightblue" stroke="midnightblue" points="1277.52,-75.0347 1286.23,-69.0034 1275.66,-68.2863 1277.52,-75.0347"/>
</g>
<!-- Node85 -->
<g id="node10" class="node"><title>Node85</title>
<g id="a_node10"><a xlink:href="namespaceopenage_1_1gui.xhtml#a4f415900a4d4e55b09b0be3c2ba60d54" target="_top" xlink:title=" ">
<polygon fill="white" stroke="black" points="1090,-50 1090,-69 1216,-69 1216,-50 1090,-50"/>
<text text-anchor="middle" x="1153" y="-57" font-family="Helvetica,sans-Serif" font-size="10.00">openage::gui::native_size</text>
</a>
</g>
</g>
<!-- Node81&#45;&gt;Node85 -->
<g id="edge9" class="edge"><title>Node81&#45;&gt;Node85</title>
<path fill="none" stroke="midnightblue" d="M1241.37,-59.5C1232.93,-59.5 1224.43,-59.5 1216.22,-59.5"/>
<polygon fill="midnightblue" stroke="midnightblue" points="1241.63,-63.0001 1251.63,-59.5 1241.63,-56.0001 1241.63,-63.0001"/>
</g>
<!-- Node83 -->
<g id="node8" class="node"><title>Node83</title>
<g id="a_node8"><a xlink:href="classopenage_1_1gui_1_1_gui_texture.xhtml#acabd4037e0b47cda554ae353c2c3be3e" target="_top" xlink:title=" ">
<polygon fill="white" stroke="black" points="921.5,-140.5 921.5,-170.5 1046.5,-170.5 1046.5,-140.5 921.5,-140.5"/>
<text text-anchor="start" x="929.5" y="-158.5" font-family="Helvetica,sans-Serif" font-size="10.00">openage::gui::GuiTexture</text>
<text text-anchor="middle" x="984" y="-147.5" font-family="Helvetica,sans-Serif" font-size="10.00">::removedFromAtlas</text>
</a>
</g>
</g>
<!-- Node82&#45;&gt;Node83 -->
<g id="edge7" class="edge"><title>Node82&#45;&gt;Node83</title>
<path fill="none" stroke="midnightblue" d="M1090.77,-124.467C1072.87,-129.717 1053.51,-135.399 1036.3,-140.448"/>
<polygon fill="midnightblue" stroke="midnightblue" points="1091.92,-127.775 1100.53,-121.601 1089.95,-121.059 1091.92,-127.775"/>
</g>
<!-- Node84 -->
<g id="node9" class="node"><title>Node84</title>
<g id="a_node9"><a xlink:href="classopenage_1_1gui_1_1_gui_texture.xhtml#afee0e8d811d508b6e16ae7ab4cf2c4a3" target="_top" xlink:title=" ">
<polygon fill="white" stroke="black" points="914,-91.5 914,-121.5 1054,-121.5 1054,-91.5 914,-91.5"/>
<text text-anchor="start" x="922" y="-109.5" font-family="Helvetica,sans-Serif" font-size="10.00">openage::gui::GuiTexture</text>
<text text-anchor="middle" x="984" y="-98.5" font-family="Helvetica,sans-Serif" font-size="10.00">::normalizedTextureSubRect</text>
</a>
</g>
</g>
<!-- Node82&#45;&gt;Node84 -->
<g id="edge8" class="edge"><title>Node82&#45;&gt;Node84</title>
<path fill="none" stroke="midnightblue" d="M1080.21,-106.5C1071.53,-106.5 1062.69,-106.5 1054.05,-106.5"/>
<polygon fill="midnightblue" stroke="midnightblue" points="1080.29,-110 1090.29,-106.5 1080.29,-103 1080.29,-110"/>
</g>
<!-- Node86 -->
<g id="node11" class="node"><title>Node86</title>
<g id="a_node11"><a xlink:href="namespaceopenage_1_1gui.xhtml#a1ed7c99cf0d2a47548927d8d688b0c42" target="_top" xlink:title=" ">
<polygon fill="white" stroke="black" points="930.5,-42.5 930.5,-72.5 1037.5,-72.5 1037.5,-42.5 930.5,-42.5"/>
<text text-anchor="start" x="938.5" y="-60.5" font-family="Helvetica,sans-Serif" font-size="10.00">openage::gui::aspect</text>
<text text-anchor="middle" x="984" y="-49.5" font-family="Helvetica,sans-Serif" font-size="10.00">_fit_size</text>
</a>
</g>
</g>
<!-- Node85&#45;&gt;Node86 -->
<g id="edge10" class="edge"><title>Node85&#45;&gt;Node86</title>
<path fill="none" stroke="midnightblue" d="M1079.64,-58.6334C1065.53,-58.4644 1050.98,-58.2902 1037.66,-58.1306"/>
<polygon fill="midnightblue" stroke="midnightblue" points="1079.77,-62.1352 1089.82,-58.7553 1079.86,-55.1357 1079.77,-62.1352"/>
</g>
<!-- Node87 -->
<g id="node12" class="node"><title>Node87</title>
<g id="a_node12"><a xlink:href="classopenage_1_1gui_1_1_gui_game_spec_image_provider_impl.xhtml#ac4c74475a47396d2e1824d2625e9d666" target="_top" xlink:title=" ">
<polygon fill="white" stroke="black" points="736,-37 736,-78 878,-78 878,-37 736,-37"/>
<text text-anchor="start" x="744" y="-66" font-family="Helvetica,sans-Serif" font-size="10.00">openage::gui::GuiGameSpec</text>
<text text-anchor="start" x="744" y="-55" font-family="Helvetica,sans-Serif" font-size="10.00">ImageProviderImpl::overwrite</text>
<text text-anchor="middle" x="807" y="-44" font-family="Helvetica,sans-Serif" font-size="10.00">_texture_handle</text>
</a>
</g>
</g>
<!-- Node86&#45;&gt;Node87 -->
<g id="edge11" class="edge"><title>Node86&#45;&gt;Node87</title>
<path fill="none" stroke="midnightblue" d="M920.275,-57.5C906.657,-57.5 892.167,-57.5 878.279,-57.5"/>
<polygon fill="midnightblue" stroke="midnightblue" points="920.494,-61.0001 930.494,-57.5 920.494,-54.0001 920.494,-61.0001"/>
</g>
<!-- Node88 -->
<g id="node13" class="node"><title>Node88</title>
<g id="a_node13"><a xlink:href="classopenage_1_1gui_1_1_gui_game_spec_image_provider_impl.xhtml#ab296b31a83e17fbd14f7106ce4c2a54a" target="_top" xlink:title=" ">
<polygon fill="white" stroke="black" points="558,-67 558,-108 700,-108 700,-67 558,-67"/>
<text text-anchor="start" x="566" y="-96" font-family="Helvetica,sans-Serif" font-size="10.00">openage::gui::GuiGameSpec</text>
<text text-anchor="start" x="566" y="-85" font-family="Helvetica,sans-Serif" font-size="10.00">ImageProviderImpl::migrate</text>
<text text-anchor="middle" x="629" y="-74" font-family="Helvetica,sans-Serif" font-size="10.00">_to_new_game_spec</text>
</a>
</g>
</g>
<!-- Node87&#45;&gt;Node88 -->
<g id="edge12" class="edge"><title>Node87&#45;&gt;Node88</title>
<path fill="none" stroke="midnightblue" d="M725.899,-71.1535C717.294,-72.6203 708.588,-74.1044 700.112,-75.5491"/>
<polygon fill="midnightblue" stroke="midnightblue" points="726.665,-74.5736 735.934,-69.443 725.488,-67.6731 726.665,-74.5736"/>
</g>
<!-- Node92 -->
<g id="node17" class="node"><title>Node92</title>
<g id="a_node17"><a xlink:href="classopenage_1_1gui_1_1_gui_game_spec_image_provider_impl.xhtml#a183dbf9c55bb6ce603654585a92db3b1" target="_top" xlink:title=" ">
<polygon fill="white" stroke="black" points="558,-7 558,-48 700,-48 700,-7 558,-7"/>
<text text-anchor="start" x="566" y="-36" font-family="Helvetica,sans-Serif" font-size="10.00">openage::gui::GuiGameSpec</text>
<text text-anchor="start" x="566" y="-25" font-family="Helvetica,sans-Serif" font-size="10.00">ImageProviderImpl::fill</text>
<text text-anchor="middle" x="629" y="-14" font-family="Helvetica,sans-Serif" font-size="10.00">_texture_handle</text>
</a>
</g>
</g>
<!-- Node87&#45;&gt;Node92 -->
<g id="edge17" class="edge"><title>Node87&#45;&gt;Node92</title>
<path fill="none" stroke="midnightblue" d="M725.899,-43.8465C717.294,-42.3797 708.588,-40.8956 700.112,-39.4509"/>
<polygon fill="midnightblue" stroke="midnightblue" points="725.488,-47.3269 735.934,-45.557 726.665,-40.4264 725.488,-47.3269"/>
</g>
<!-- Node89 -->
<g id="node14" class="node"><title>Node89</title>
<g id="a_node14"><a xlink:href="classopenage_1_1gui_1_1_gui_game_spec_image_provider_impl.xhtml#a96f49e5b70c5848778479d8ae36431b9" target="_top" xlink:title=" ">
<polygon fill="white" stroke="black" points="380,-67 380,-108 522,-108 522,-67 380,-67"/>
<text text-anchor="start" x="388" y="-96" font-family="Helvetica,sans-Serif" font-size="10.00">openage::gui::GuiGameSpec</text>
<text text-anchor="start" x="388" y="-85" font-family="Helvetica,sans-Serif" font-size="10.00">ImageProviderImpl::on_game</text>
<text text-anchor="middle" x="451" y="-74" font-family="Helvetica,sans-Serif" font-size="10.00">_spec_loaded</text>
</a>
</g>
</g>
<!-- Node88&#45;&gt;Node89 -->
<g id="edge13" class="edge"><title>Node88&#45;&gt;Node89</title>
<path fill="none" stroke="midnightblue" d="M547.899,-87.5C539.294,-87.5 530.588,-87.5 522.112,-87.5"/>
<polygon fill="midnightblue" stroke="midnightblue" points="547.934,-91.0001 557.934,-87.5 547.934,-84.0001 547.934,-91.0001"/>
</g>
<!-- Node90 -->
<g id="node15" class="node"><title>Node90</title>
<g id="a_node15"><a xlink:href="classopenage_1_1gui_1_1_gui_image_provider_link.xhtml#a545162ca0fa8e596f4a2afafda0e2b0f" target="_top" xlink:title=" ">
<polygon fill="white" stroke="black" points="0,-72.5 0,-102.5 154,-102.5 154,-72.5 0,-72.5"/>
<text text-anchor="start" x="8" y="-90.5" font-family="Helvetica,sans-Serif" font-size="10.00">openage::gui::GuiImageProvider</text>
<text text-anchor="middle" x="77" y="-79.5" font-family="Helvetica,sans-Serif" font-size="10.00">Link::set_game_spec</text>
</a>
</g>
</g>
<!-- Node89&#45;&gt;Node90 -->
<g id="edge14" class="edge"><title>Node89&#45;&gt;Node90</title>
<path fill="none" stroke="midnightblue" d="M369.716,-89.1746C361.036,-89.308 352.334,-89.4214 344,-89.5 275.559,-90.1456 258.442,-90.111 190,-89.5 178.429,-89.3967 166.187,-89.2334 154.21,-89.0435"/>
<polygon fill="midnightblue" stroke="midnightblue" points="369.929,-92.6717 379.871,-89.0097 369.815,-85.6726 369.929,-92.6717"/>
</g>
<!-- Node91 -->
<g id="node16" class="node"><title>Node91</title>
<g id="a_node16"><a xlink:href="classopenage_1_1gui_1_1_gui_image_provider_link.xhtml#a4448d1bf9cbb8e7f8842989fd414c66b" target="_top" xlink:title=" ">
<polygon fill="white" stroke="black" points="190,-50.5 190,-80.5 344,-80.5 344,-50.5 190,-50.5"/>
<text text-anchor="start" x="198" y="-68.5" font-family="Helvetica,sans-Serif" font-size="10.00">openage::gui::GuiImageProvider</text>
<text text-anchor="middle" x="267" y="-57.5" font-family="Helvetica,sans-Serif" font-size="10.00">Link::on_game_spec_loaded</text>
</a>
</g>
</g>
<!-- Node89&#45;&gt;Node91 -->
<g id="edge15" class="edge"><title>Node89&#45;&gt;Node91</title>
<path fill="none" stroke="midnightblue" d="M369.912,-77.819C361.341,-76.7829 352.639,-75.7311 344.116,-74.7008"/>
<polygon fill="midnightblue" stroke="midnightblue" points="369.547,-81.3003 379.894,-79.0257 370.387,-74.3508 369.547,-81.3003"/>
</g>
<!-- Node91&#45;&gt;Node90 -->
<g id="edge16" class="edge"><title>Node91&#45;&gt;Node90</title>
<path fill="none" stroke="midnightblue" d="M179.854,-75.5809C171.33,-76.5784 162.719,-77.5861 154.304,-78.5708"/>
<polygon fill="midnightblue" stroke="midnightblue" points="180.279,-79.0552 189.804,-74.4165 179.465,-72.1026 180.279,-79.0552"/>
</g>
<!-- Node93 -->
<g id="node18" class="node"><title>Node93</title>
<g id="a_node18"><a xlink:href="classopenage_1_1gui_1_1_gui_texture_factory.xhtml#af51021a1b0298e9c467ae7b50f2a8180" target="_top" xlink:title=" ">
<polygon fill="white" stroke="black" points="383,-12.5 383,-42.5 519,-42.5 519,-12.5 383,-12.5"/>
<text text-anchor="start" x="391" y="-30.5" font-family="Helvetica,sans-Serif" font-size="10.00">openage::gui::GuiTexture</text>
<text text-anchor="middle" x="451" y="-19.5" font-family="Helvetica,sans-Serif" font-size="10.00">Factory::GuiTextureFactory</text>
</a>
</g>
</g>
<!-- Node92&#45;&gt;Node93 -->
<g id="edge18" class="edge"><title>Node92&#45;&gt;Node93</title>
<path fill="none" stroke="midnightblue" d="M547.685,-27.5C538.176,-27.5 528.547,-27.5 519.245,-27.5"/>
<polygon fill="midnightblue" stroke="midnightblue" points="547.934,-31.0001 557.934,-27.5 547.934,-24.0001 547.934,-31.0001"/>
</g>
<!-- Node95 -->
<g id="node20" class="node"><title>Node95</title>
<g id="a_node20"><a xlink:href="classopenage_1_1_unit_texture.xhtml#ae0fe182788f2f7b1f346abf32cbac39a" target="_top" xlink:title=" ">
<polygon fill="white" stroke="black" points="1098.5,-0.5 1098.5,-30.5 1207.5,-30.5 1207.5,-0.5 1098.5,-0.5"/>
<text text-anchor="start" x="1106.5" y="-18.5" font-family="Helvetica,sans-Serif" font-size="10.00">openage::UnitTexture</text>
<text text-anchor="middle" x="1153" y="-7.5" font-family="Helvetica,sans-Serif" font-size="10.00">::draw</text>
</a>
</g>
</g>
<!-- Node94&#45;&gt;Node95 -->
<g id="edge20" class="edge"><title>Node94&#45;&gt;Node95</title>
<path fill="none" stroke="midnightblue" d="M1257.22,-15.5C1240.87,-15.5 1223.44,-15.5 1207.66,-15.5"/>
<polygon fill="midnightblue" stroke="midnightblue" points="1257.24,-19.0001 1267.24,-15.5 1257.24,-12.0001 1257.24,-19.0001"/>
</g>
</g>
</svg>
