<?xml version="1.0" encoding="UTF-8" standalone="no"?>
<!DOCTYPE svg PUBLIC "-//W3C//DTD SVG 1.1//EN"
 "http://www.w3.org/Graphics/SVG/1.1/DTD/svg11.dtd">
<!-- Generated by graphviz version 2.38.0 (20140413.2041)
 -->
<!-- Title: openage::TerrainObject::remove Pages: 1 -->
<!--zoomable 127 -->
<svg id="main" version="1.1" xmlns="http://www.w3.org/2000/svg" xmlns:xlink="http://www.w3.org/1999/xlink" xml:space="preserve" onload="init(evt)">
<style type="text/css"><![CDATA[
.edge:hover path { stroke: red; }
.edge:hover polygon { stroke: red; fill: red; }
]]></style>
<script type="text/javascript"><![CDATA[
var edges = document.getElementsByTagName('g');
if (edges && edges.length) {
  for (var i=0;i<edges.length;i++) {
    if (edges[i].id.substr(0,4)=='edge') {
      edges[i].setAttribute('class','edge');
    }
  }
}
]]></script>
        <defs>
                <circle id="rim" cx="0" cy="0" r="7"/>
                <circle id="rim2" cx="0" cy="0" r="3.5"/>
                <g id="zoomPlus">
                        <use xlink:href="#rim" fill="#404040">
                                <set attributeName="fill" to="#808080" begin="zoomplus.mouseover" end="zoomplus.mouseout"/>
                        </use>
                        <path d="M-4,0h8M0,-4v8" fill="none" stroke="white" stroke-width="1.5" pointer-events="none"/>
                </g>
                <g id="zoomMin">
                        <use xlink:href="#rim" fill="#404040">
                                <set attributeName="fill" to="#808080" begin="zoomminus.mouseover" end="zoomminus.mouseout"/>
                        </use>
                        <path d="M-4,0h8" fill="none" stroke="white" stroke-width="1.5" pointer-events="none"/>
                </g>
                <g id="dirArrow">
                        <path fill="none" stroke="white" stroke-width="1.5" d="M0,-3.0v7 M-2.5,-0.5L0,-3.0L2.5,-0.5"/>
                </g>
               <g id="resetDef">
                       <use xlink:href="#rim2" fill="#404040">
                               <set attributeName="fill" to="#808080" begin="reset.mouseover" end="reset.mouseout"/>
                       </use>
               </g>
        </defs>

<script type="text/javascript">
var viewWidth = 551;
var viewHeight = 127;
var sectionId = 'dynsection-23';
</script>
<script xlink:href="svgpan.js"/>
<svg id="graph" class="graph">
<g id="viewport">
<title>openage::TerrainObject::remove</title>
<polygon fill="white" stroke="none" points="-4,4 -4,-122.5 547,-122.5 547,4 -4,4"/>
<!-- Node149 -->
<g id="node1" class="node"><title>Node149</title>
<g id="a_node1"><a xlink:title=" ">
<polygon fill="#bfbfbf" stroke="black" points="0,-39 0,-69 117,-69 117,-39 0,-39"/>
<text text-anchor="start" x="8" y="-57" font-family="Helvetica,sans-Serif" font-size="10.00">openage::TerrainObject</text>
<text text-anchor="middle" x="58.5" y="-46" font-family="Helvetica,sans-Serif" font-size="10.00">::remove</text>
</a>
</g>
</g>
<!-- Node150 -->
<g id="node2" class="node"><title>Node150</title>
<g id="a_node2"><a xlink:href="classopenage_1_1_terrain_chunk.xhtml#af163db3fba4ae99206de76666f8424df" target="_top" xlink:title=" ">
<polygon fill="white" stroke="black" points="153.5,-88 153.5,-118 269.5,-118 269.5,-88 153.5,-88"/>
<text text-anchor="start" x="161.5" y="-106" font-family="Helvetica,sans-Serif" font-size="10.00">openage::TerrainChunk</text>
<text text-anchor="middle" x="211.5" y="-95" font-family="Helvetica,sans-Serif" font-size="10.00">::get_data</text>
</a>
</g>
</g>
<!-- Node149&#45;&gt;Node150 -->
<g id="edge1" class="edge"><title>Node149&#45;&gt;Node150</title>
<path fill="none" stroke="midnightblue" d="M106.037,-69.1014C121.322,-74.0615 138.474,-79.6274 154.392,-84.7929"/>
<polygon fill="midnightblue" stroke="midnightblue" points="153.525,-88.1909 164.117,-87.9484 155.685,-81.5327 153.525,-88.1909"/>
</g>
<!-- Node153 -->
<g id="node5" class="node"><title>Node153</title>
<g id="a_node5"><a xlink:href="classopenage_1_1_terrain_object.xhtml#a170289794bdd31d673ffb3aca873bb1d" target="_top" xlink:title=" ">
<polygon fill="white" stroke="black" points="153,-39 153,-69 270,-69 270,-39 153,-39"/>
<text text-anchor="start" x="161" y="-57" font-family="Helvetica,sans-Serif" font-size="10.00">openage::TerrainObject</text>
<text text-anchor="middle" x="211.5" y="-46" font-family="Helvetica,sans-Serif" font-size="10.00">::get_terrain</text>
</a>
</g>
</g>
<!-- Node149&#45;&gt;Node153 -->
<g id="edge4" class="edge"><title>Node149&#45;&gt;Node153</title>
<path fill="none" stroke="midnightblue" d="M117.017,-54C125.464,-54 134.229,-54 142.856,-54"/>
<polygon fill="midnightblue" stroke="midnightblue" points="142.893,-57.5001 152.893,-54 142.892,-50.5001 142.893,-57.5001"/>
</g>
<!-- Node154 -->
<g id="node6" class="node"><title>Node154</title>
<g id="a_node6"><a xlink:href="namespaceopenage.xhtml#a3a0d4d7c2bc234c442c13758d306f60c" target="_top" xlink:title=" ">
<polygon fill="white" stroke="black" points="166.5,-0.5 166.5,-19.5 256.5,-19.5 256.5,-0.5 166.5,-0.5"/>
<text text-anchor="middle" x="211.5" y="-7.5" font-family="Helvetica,sans-Serif" font-size="10.00">openage::tile_list</text>
</a>
</g>
</g>
<!-- Node149&#45;&gt;Node154 -->
<g id="edge5" class="edge"><title>Node149&#45;&gt;Node154</title>
<path fill="none" stroke="midnightblue" d="M111.043,-38.9808C129.47,-33.6115 150.02,-27.6234 167.635,-22.4905"/>
<polygon fill="midnightblue" stroke="midnightblue" points="169.008,-25.7362 177.629,-19.5783 167.049,-19.0157 169.008,-25.7362"/>
</g>
<!-- Node151 -->
<g id="node3" class="node"><title>Node151</title>
<g id="a_node3"><a xlink:href="structopenage_1_1coord_1_1tile.xhtml#ab4811e492cabe885d33e85df51ceff83" target="_top" xlink:title=" ">
<polygon fill="white" stroke="black" points="306,-88 306,-118 410,-118 410,-88 306,-88"/>
<text text-anchor="start" x="314" y="-106" font-family="Helvetica,sans-Serif" font-size="10.00">openage::coord::tile</text>
<text text-anchor="middle" x="358" y="-95" font-family="Helvetica,sans-Serif" font-size="10.00">::get_pos_on_chunk</text>
</a>
</g>
</g>
<!-- Node150&#45;&gt;Node151 -->
<g id="edge2" class="edge"><title>Node150&#45;&gt;Node151</title>
<path fill="none" stroke="midnightblue" d="M269.61,-103C278.229,-103 287.148,-103 295.847,-103"/>
<polygon fill="midnightblue" stroke="midnightblue" points="295.928,-106.5 305.928,-103 295.928,-99.5001 295.928,-106.5"/>
</g>
<!-- Node152 -->
<g id="node4" class="node"><title>Node152</title>
<g id="a_node4"><a xlink:href="namespaceopenage_1_1util.xhtml#a7e483e123bf554b630319eb3dd012c02" target="_top" xlink:title=" ">
<polygon fill="white" stroke="black" points="446,-93.5 446,-112.5 543,-112.5 543,-93.5 446,-93.5"/>
<text text-anchor="middle" x="494.5" y="-100.5" font-family="Helvetica,sans-Serif" font-size="10.00">openage::util::mod</text>
</a>
</g>
</g>
<!-- Node151&#45;&gt;Node152 -->
<g id="edge3" class="edge"><title>Node151&#45;&gt;Node152</title>
<path fill="none" stroke="midnightblue" d="M410.232,-103C418.571,-103 427.259,-103 435.741,-103"/>
<polygon fill="midnightblue" stroke="midnightblue" points="435.949,-106.5 445.949,-103 435.949,-99.5001 435.949,-106.5"/>
</g>
</g>
</svg>
        <g id="navigator" transform="translate(0 0)" fill="#404254">
                <rect fill="#f2f5e9" fill-opacity="0.5" stroke="#606060" stroke-width=".5" x="0" y="0" width="60" height="60"/>
                <use id="zoomplus" xlink:href="#zoomPlus" x="17" y="9" onmousedown="handleZoom(evt,'in')"/>
                <use id="zoomminus" xlink:href="#zoomMin" x="42" y="9" onmousedown="handleZoom(evt,'out')"/>
                <use id="reset" xlink:href="#resetDef" x="30" y="36" onmousedown="handleReset()"/>
                <g id="arrowUp" xlink:href="#dirArrow" transform="translate(30 24)" onmousedown="handlePan(0,-1)">
                  <use xlink:href="#rim" fill="#404040">
                        <set attributeName="fill" to="#808080" begin="arrowUp.mouseover" end="arrowUp.mouseout"/>
                  </use>
                  <path fill="none" stroke="white" stroke-width="1.5" d="M0,-3.0v7 M-2.5,-0.5L0,-3.0L2.5,-0.5"/>
                </g>
                <g id="arrowRight" xlink:href="#dirArrow" transform="rotate(90) translate(36 -43)" onmousedown="handlePan(1,0)">
                  <use xlink:href="#rim" fill="#404040">
                        <set attributeName="fill" to="#808080" begin="arrowRight.mouseover" end="arrowRight.mouseout"/>
                  </use>
                  <path fill="none" stroke="white" stroke-width="1.5" d="M0,-3.0v7 M-2.5,-0.5L0,-3.0L2.5,-0.5"/>
                </g>
                <g id="arrowDown" xlink:href="#dirArrow" transform="rotate(180) translate(-30 -48)" onmousedown="handlePan(0,1)">
                  <use xlink:href="#rim" fill="#404040">
                        <set attributeName="fill" to="#808080" begin="arrowDown.mouseover" end="arrowDown.mouseout"/>
                  </use>
                  <path fill="none" stroke="white" stroke-width="1.5" d="M0,-3.0v7 M-2.5,-0.5L0,-3.0L2.5,-0.5"/>
                </g>
                <g id="arrowLeft" xlink:href="#dirArrow" transform="rotate(270) translate(-36 17)" onmousedown="handlePan(-1,0)">
                  <use xlink:href="#rim" fill="#404040">
                        <set attributeName="fill" to="#808080" begin="arrowLeft.mouseover" end="arrowLeft.mouseout"/>
                  </use>
                  <path fill="none" stroke="white" stroke-width="1.5" d="M0,-3.0v7 M-2.5,-0.5L0,-3.0L2.5,-0.5"/>
                </g>
        </g>
        <svg viewBox="0 0 15 15" width="100%" height="30px" preserveAspectRatio="xMaxYMin meet">
         <g id="arrow_out" transform="scale(0.3 0.3)">
          <a xlink:href="classopenage_1_1_terrain_object_af24e842fc429a5dbb73c12abcb9c3378_cgraph_org.svg" target="_base">
           <rect id="button" ry="5" rx="5" y="6" x="6" height="38" width="38"
                fill="#f2f5e9" fill-opacity="0.5" stroke="#606060" stroke-width="1.0"/>
           <path id="arrow"
             d="M 11.500037,31.436501 C 11.940474,20.09759 22.043105,11.32322 32.158766,21.979434 L 37.068811,17.246167 C 37.068811,17.246167 37.088388,32 37.088388,32 L 22.160133,31.978069 C 22.160133,31.978069 26.997745,27.140456 26.997745,27.140456 C 18.528582,18.264221 13.291696,25.230495 11.500037,31.436501 z"
             style="fill:#404040;"/>
          </a>
         </g>
        </svg>
</svg>
