<?xml version="1.0" encoding="UTF-8" standalone="no"?>
<!DOCTYPE svg PUBLIC "-//W3C//DTD SVG 1.1//EN"
 "http://www.w3.org/Graphics/SVG/1.1/DTD/svg11.dtd">
<!-- Generated by graphviz version 2.38.0 (20140413.2041)
 -->
<!-- Title: openage.util.filelike.stream.StreamSeekBuffer.read Pages: 1 -->
<svg width="645pt" height="96pt"
 viewBox="0.00 0.00 645.00 95.50" xmlns="http://www.w3.org/2000/svg" xmlns:xlink="http://www.w3.org/1999/xlink">
<g id="graph0" class="graph" transform="scale(1 1) rotate(0) translate(4 91.5)">
<title>openage.util.filelike.stream.StreamSeekBuffer.read</title>
<polygon fill="white" stroke="none" points="-4,4 -4,-91.5 641,-91.5 641,4 -4,4"/>
<!-- Node6 -->
<g id="node1" class="node"><title>Node6</title>
<g id="a_node1"><a xlink:title="Read at most size bytes (less if EOF has been reached).">
<polygon fill="#bfbfbf" stroke="black" points="0,-14 0,-44 135,-44 135,-14 0,-14"/>
<text text-anchor="start" x="8" y="-32" font-family="Helvetica,sans-Serif" font-size="10.00">openage.util.filelike.stream.</text>
<text text-anchor="middle" x="67.5" y="-21" font-family="Helvetica,sans-Serif" font-size="10.00">StreamSeekBuffer.read</text>
</a>
</g>
</g>
<!-- Node7 -->
<g id="node2" class="node"><title>Node7</title>
<g id="a_node2"><a xlink:href="namespaceopenage_1_1util_1_1math.xhtml#a7d719fd9d57ba43e020f3443b3fc2c7a" target="_top" xlink:title="clamps val to be at least minval, and at most maxval.">
<polygon fill="white" stroke="black" points="171,-38.5 171,-57.5 294,-57.5 294,-38.5 171,-38.5"/>
<text text-anchor="middle" x="232.5" y="-45.5" font-family="Helvetica,sans-Serif" font-size="10.00">openage.util.math.clamp</text>
</a>
</g>
</g>
<!-- Node6&#45;&gt;Node7 -->
<g id="edge1" class="edge"><title>Node6&#45;&gt;Node7</title>
<path fill="none" stroke="midnightblue" d="M135.269,-36.7828C143.644,-37.7592 152.235,-38.7605 160.67,-39.7437"/>
<polygon fill="midnightblue" stroke="midnightblue" points="160.519,-43.2498 170.857,-40.9312 161.33,-36.2969 160.519,-43.2498"/>
</g>
<!-- Node11 -->
<g id="node6" class="node"><title>Node11</title>
<g id="a_node6"><a xlink:href="namespaceopenage_1_1console_1_1tests.xhtml#a46ebd3333dc9196558ac9aced828d117" target="_top" xlink:title=" ">
<polygon fill="white" stroke="black" points="330,-0.5 330,-19.5 476,-19.5 476,-0.5 330,-0.5"/>
<text text-anchor="middle" x="403" y="-7.5" font-family="Helvetica,sans-Serif" font-size="10.00">openage::console::tests::max</text>
</a>
</g>
</g>
<!-- Node6&#45;&gt;Node11 -->
<g id="edge6" class="edge"><title>Node6&#45;&gt;Node11</title>
<path fill="none" stroke="midnightblue" d="M135.187,-25.2007C188.355,-22.1717 263.061,-17.9156 319.904,-14.6771"/>
<polygon fill="midnightblue" stroke="midnightblue" points="320.156,-18.1685 329.941,-14.1053 319.758,-11.1799 320.156,-18.1685"/>
</g>
<!-- Node8 -->
<g id="node3" class="node"><title>Node8</title>
<g id="a_node3"><a xlink:href="namespacestd.xhtml#a34591a1d8ee5da3f16f56554590d5e16" target="_top" xlink:title=" ">
<polygon fill="white" stroke="black" points="377,-38.5 377,-57.5 429,-57.5 429,-38.5 377,-38.5"/>
<text text-anchor="middle" x="403" y="-45.5" font-family="Helvetica,sans-Serif" font-size="10.00">std::min</text>
</a>
</g>
</g>
<!-- Node7&#45;&gt;Node8 -->
<g id="edge2" class="edge"><title>Node7&#45;&gt;Node8</title>
<path fill="none" stroke="midnightblue" d="M294.332,-48C318.686,-48 345.876,-48 366.839,-48"/>
<polygon fill="midnightblue" stroke="midnightblue" points="366.888,-51.5001 376.888,-48 366.888,-44.5001 366.888,-51.5001"/>
</g>
<!-- Node7&#45;&gt;Node11 -->
<g id="edge5" class="edge"><title>Node7&#45;&gt;Node11</title>
<path fill="none" stroke="midnightblue" d="M276.02,-38.411C298.455,-33.3513 326.173,-27.1004 349.893,-21.7512"/>
<polygon fill="midnightblue" stroke="midnightblue" points="350.801,-25.1343 359.786,-19.5201 349.261,-18.3058 350.801,-25.1343"/>
</g>
<!-- Node9 -->
<g id="node4" class="node"><title>Node9</title>
<g id="a_node4"><a xlink:href="classopenage_1_1util_1_1_fixed_point.xhtml#aa01c403263c2142c0ce9ce40cde89066" target="_top" xlink:title=" ">
<polygon fill="white" stroke="black" points="512,-57 512,-87 637,-87 637,-57 512,-57"/>
<text text-anchor="start" x="520" y="-75" font-family="Helvetica,sans-Serif" font-size="10.00">openage::util::FixedPoint</text>
<text text-anchor="middle" x="574.5" y="-64" font-family="Helvetica,sans-Serif" font-size="10.00">::from_raw_value</text>
</a>
</g>
</g>
<!-- Node8&#45;&gt;Node9 -->
<g id="edge3" class="edge"><title>Node8&#45;&gt;Node9</title>
<path fill="none" stroke="midnightblue" d="M429.01,-51.5413C448.196,-54.2579 475.693,-58.1513 501.56,-61.8139"/>
<polygon fill="midnightblue" stroke="midnightblue" points="501.36,-65.3203 511.752,-63.2569 502.342,-58.3895 501.36,-65.3203"/>
</g>
<!-- Node10 -->
<g id="node5" class="node"><title>Node10</title>
<g id="a_node5"><a xlink:href="classopenage_1_1util_1_1_fixed_point.xhtml#affe7a3ec44c6f7ac96312875af742f87" target="_top" xlink:title=" ">
<polygon fill="white" stroke="black" points="512,-8 512,-38 637,-38 637,-8 512,-8"/>
<text text-anchor="start" x="520" y="-26" font-family="Helvetica,sans-Serif" font-size="10.00">openage::util::FixedPoint</text>
<text text-anchor="middle" x="574.5" y="-15" font-family="Helvetica,sans-Serif" font-size="10.00">::get_raw_value</text>
</a>
</g>
</g>
<!-- Node8&#45;&gt;Node10 -->
<g id="edge4" class="edge"><title>Node8&#45;&gt;Node10</title>
<path fill="none" stroke="midnightblue" d="M429.01,-44.3112C448.196,-41.4814 475.693,-37.4258 501.56,-33.6106"/>
<polygon fill="midnightblue" stroke="midnightblue" points="502.37,-37.0291 511.752,-32.1074 501.348,-30.104 502.37,-37.0291"/>
</g>
</g>
</svg>
