<?xml version="1.0" encoding="UTF-8" standalone="no"?>
<!DOCTYPE svg PUBLIC "-//W3C//DTD SVG 1.1//EN"
 "http://www.w3.org/Graphics/SVG/1.1/DTD/svg11.dtd">
<!-- Generated by graphviz version 2.38.0 (20140413.2041)
 -->
<!-- Title: openage::renderer::resources::Texture2dInfo::get_subtexture_coordinates Pages: 1 -->
<svg width="429pt" height="50pt"
 viewBox="0.00 0.00 429.00 50.00" xmlns="http://www.w3.org/2000/svg" xmlns:xlink="http://www.w3.org/1999/xlink">
<g id="graph0" class="graph" transform="scale(1 1) rotate(0) translate(4 46)">
<title>openage::renderer::resources::Texture2dInfo::get_subtexture_coordinates</title>
<polygon fill="white" stroke="none" points="-4,4 -4,-46 425,-46 425,4 -4,4"/>
<!-- Node64 -->
<g id="node1" class="node"><title>Node64</title>
<g id="a_node1"><a xlink:title=" ">
<polygon fill="#bfbfbf" stroke="black" points="0,-0.5 0,-41.5 143,-41.5 143,-0.5 0,-0.5"/>
<text text-anchor="start" x="8" y="-29.5" font-family="Helvetica,sans-Serif" font-size="10.00">openage::renderer::</text>
<text text-anchor="start" x="8" y="-18.5" font-family="Helvetica,sans-Serif" font-size="10.00">resources::Texture2dInfo</text>
<text text-anchor="middle" x="71.5" y="-7.5" font-family="Helvetica,sans-Serif" font-size="10.00">::get_subtexture_coordinates</text>
</a>
</g>
</g>
<!-- Node65 -->
<g id="node2" class="node"><title>Node65</title>
<g id="a_node2"><a xlink:href="classopenage_1_1renderer_1_1resources_1_1_texture2d_info.xhtml#ac6b8cd33b4ba1ba68f10f504d92c42f6" target="_top" xlink:title="Returns the coordinates of the subtexture with the given ID.">
<polygon fill="white" stroke="black" points="179,-0.5 179,-41.5 302,-41.5 302,-0.5 179,-0.5"/>
<text text-anchor="start" x="187" y="-29.5" font-family="Helvetica,sans-Serif" font-size="10.00">openage::renderer::</text>
<text text-anchor="start" x="187" y="-18.5" font-family="Helvetica,sans-Serif" font-size="10.00">resources::Texture2dInfo</text>
<text text-anchor="middle" x="240.5" y="-7.5" font-family="Helvetica,sans-Serif" font-size="10.00">::get_subtexture</text>
</a>
</g>
</g>
<!-- Node64&#45;&gt;Node65 -->
<g id="edge1" class="edge"><title>Node64&#45;&gt;Node65</title>
<path fill="none" stroke="midnightblue" d="M143.323,-21C151.729,-21 160.31,-21 168.715,-21"/>
<polygon fill="midnightblue" stroke="midnightblue" points="168.857,-24.5001 178.857,-21 168.857,-17.5001 168.857,-24.5001"/>
</g>
<!-- Node66 -->
<g id="node3" class="node"><title>Node66</title>
<g id="a_node3"><a xlink:href="namespaceopenage_1_1log.xhtml#a325b0901ddb3f2af36f93781b7dd9744" target="_top" xlink:title="error message">
<polygon fill="white" stroke="black" points="338,-11.5 338,-30.5 421,-30.5 421,-11.5 338,-11.5"/>
<text text-anchor="middle" x="379.5" y="-18.5" font-family="Helvetica,sans-Serif" font-size="10.00">openage.log.err</text>
</a>
</g>
</g>
<!-- Node65&#45;&gt;Node66 -->
<g id="edge2" class="edge"><title>Node65&#45;&gt;Node66</title>
<path fill="none" stroke="midnightblue" d="M302.388,-21C310.83,-21 319.427,-21 327.66,-21"/>
<polygon fill="midnightblue" stroke="midnightblue" points="327.853,-24.5001 337.853,-21 327.853,-17.5001 327.853,-24.5001"/>
</g>
</g>
</svg>
