<?xml version="1.0" encoding="UTF-8" standalone="no"?>
<!DOCTYPE svg PUBLIC "-//W3C//DTD SVG 1.1//EN"
 "http://www.w3.org/Graphics/SVG/1.1/DTD/svg11.dtd">
<!-- Generated by graphviz version 2.38.0 (20140413.2041)
 -->
<!-- Title: openage::Player::deduct Pages: 1 -->
<!--zoomable 217 -->
<svg id="main" version="1.1" xmlns="http://www.w3.org/2000/svg" xmlns:xlink="http://www.w3.org/1999/xlink" xml:space="preserve" onload="init(evt)">
<style type="text/css"><![CDATA[
.edge:hover path { stroke: red; }
.edge:hover polygon { stroke: red; fill: red; }
]]></style>
<script type="text/javascript"><![CDATA[
var edges = document.getElementsByTagName('g');
if (edges && edges.length) {
  for (var i=0;i<edges.length;i++) {
    if (edges[i].id.substr(0,4)=='edge') {
      edges[i].setAttribute('class','edge');
    }
  }
}
]]></script>
        <defs>
                <circle id="rim" cx="0" cy="0" r="7"/>
                <circle id="rim2" cx="0" cy="0" r="3.5"/>
                <g id="zoomPlus">
                        <use xlink:href="#rim" fill="#404040">
                                <set attributeName="fill" to="#808080" begin="zoomplus.mouseover" end="zoomplus.mouseout"/>
                        </use>
                        <path d="M-4,0h8M0,-4v8" fill="none" stroke="white" stroke-width="1.5" pointer-events="none"/>
                </g>
                <g id="zoomMin">
                        <use xlink:href="#rim" fill="#404040">
                                <set attributeName="fill" to="#808080" begin="zoomminus.mouseover" end="zoomminus.mouseout"/>
                        </use>
                        <path d="M-4,0h8" fill="none" stroke="white" stroke-width="1.5" pointer-events="none"/>
                </g>
                <g id="dirArrow">
                        <path fill="none" stroke="white" stroke-width="1.5" d="M0,-3.0v7 M-2.5,-0.5L0,-3.0L2.5,-0.5"/>
                </g>
               <g id="resetDef">
                       <use xlink:href="#rim2" fill="#404040">
                               <set attributeName="fill" to="#808080" begin="reset.mouseover" end="reset.mouseout"/>
                       </use>
               </g>
        </defs>

<script type="text/javascript">
var viewWidth = 862;
var viewHeight = 217;
var sectionId = 'dynsection-12';
</script>
<script xlink:href="svgpan.js"/>
<svg id="graph" class="graph">
<g id="viewport">
<title>openage::Player::deduct</title>
<polygon fill="white" stroke="none" points="-4,4 -4,-213 858,-213 858,4 -4,4"/>
<!-- Node87 -->
<g id="node1" class="node"><title>Node87</title>
<g id="a_node1"><a xlink:title=" ">
<polygon fill="#bfbfbf" stroke="black" points="0,-159 0,-178 122,-178 122,-159 0,-159"/>
<text text-anchor="middle" x="61" y="-166" font-family="Helvetica,sans-Serif" font-size="10.00">openage::Player::deduct</text>
</a>
</g>
</g>
<!-- Node88 -->
<g id="node2" class="node"><title>Node88</title>
<g id="a_node2"><a xlink:href="classopenage_1_1_resource_bundle.xhtml#ae324ee7f007981e5f9629f6ed30b8641" target="_top" xlink:title=" ">
<polygon fill="white" stroke="black" points="158,-178.5 158,-208.5 289,-208.5 289,-178.5 158,-178.5"/>
<text text-anchor="start" x="166" y="-196.5" font-family="Helvetica,sans-Serif" font-size="10.00">openage::ResourceBundle</text>
<text text-anchor="middle" x="223.5" y="-185.5" font-family="Helvetica,sans-Serif" font-size="10.00">::deduct</text>
</a>
</g>
</g>
<!-- Node87&#45;&gt;Node88 -->
<g id="edge1" class="edge"><title>Node87&#45;&gt;Node88</title>
<path fill="none" stroke="midnightblue" d="M122.221,-177.88C130.596,-179.185 139.282,-180.538 147.882,-181.877"/>
<polygon fill="midnightblue" stroke="midnightblue" points="147.494,-185.359 157.913,-183.44 148.571,-178.442 147.494,-185.359"/>
</g>
<!-- Node90 -->
<g id="node4" class="node"><title>Node90</title>
<g id="a_node4"><a xlink:href="classopenage_1_1_player.xhtml#a2a7b7334922d4cdf68236f8684cbfe38" target="_top" xlink:title=" ">
<polygon fill="white" stroke="black" points="171.5,-129.5 171.5,-159.5 275.5,-159.5 275.5,-129.5 171.5,-129.5"/>
<text text-anchor="start" x="179.5" y="-147.5" font-family="Helvetica,sans-Serif" font-size="10.00">openage::Player::on</text>
<text text-anchor="middle" x="223.5" y="-136.5" font-family="Helvetica,sans-Serif" font-size="10.00">_resources_change</text>
</a>
</g>
</g>
<!-- Node87&#45;&gt;Node90 -->
<g id="edge3" class="edge"><title>Node87&#45;&gt;Node90</title>
<path fill="none" stroke="midnightblue" d="M122.221,-159.495C134.995,-157.585 148.492,-155.567 161.302,-153.651"/>
<polygon fill="midnightblue" stroke="midnightblue" points="162.029,-157.081 171.401,-152.141 160.994,-150.158 162.029,-157.081"/>
</g>
<!-- Node89 -->
<g id="node3" class="node"><title>Node89</title>
<g id="a_node3"><a xlink:href="classopenage_1_1_resource_bundle.xhtml#a386ff157dd71560a8c9b1578fe5386e6" target="_top" xlink:title=" ">
<polygon fill="white" stroke="black" points="325,-184 325,-203 477,-203 477,-184 325,-184"/>
<text text-anchor="middle" x="401" y="-191" font-family="Helvetica,sans-Serif" font-size="10.00">openage::ResourceBundle::has</text>
</a>
</g>
</g>
<!-- Node88&#45;&gt;Node89 -->
<g id="edge2" class="edge"><title>Node88&#45;&gt;Node89</title>
<path fill="none" stroke="midnightblue" d="M289.351,-193.5C297.542,-193.5 306.02,-193.5 314.47,-193.5"/>
<polygon fill="midnightblue" stroke="midnightblue" points="314.743,-197 324.743,-193.5 314.743,-190 314.743,-197"/>
</g>
<!-- Node91 -->
<g id="node5" class="node"><title>Node91</title>
<g id="a_node5"><a xlink:href="classopenage_1_1_resource_bundle.xhtml#aa3e1dfb21fe065f769a21a13f667984b" target="_top" xlink:title=" ">
<polygon fill="white" stroke="black" points="335.5,-132.5 335.5,-162.5 466.5,-162.5 466.5,-132.5 335.5,-132.5"/>
<text text-anchor="start" x="343.5" y="-150.5" font-family="Helvetica,sans-Serif" font-size="10.00">openage::ResourceBundle</text>
<text text-anchor="middle" x="401" y="-139.5" font-family="Helvetica,sans-Serif" font-size="10.00">::limit</text>
</a>
</g>
</g>
<!-- Node90&#45;&gt;Node91 -->
<g id="edge4" class="edge"><title>Node90&#45;&gt;Node91</title>
<path fill="none" stroke="midnightblue" d="M275.734,-145.376C291.15,-145.639 308.397,-145.934 325.019,-146.218"/>
<polygon fill="midnightblue" stroke="midnightblue" points="325.207,-149.722 335.266,-146.393 325.327,-142.723 325.207,-149.722"/>
</g>
<!-- Node94 -->
<g id="node8" class="node"><title>Node94</title>
<g id="a_node8"><a xlink:href="classopenage_1_1_score.xhtml#a692b0ccf6ec945e3cb5e8540b6b9abc6" target="_top" xlink:title=" ">
<polygon fill="white" stroke="black" points="341,-63.5 341,-93.5 461,-93.5 461,-63.5 341,-63.5"/>
<text text-anchor="start" x="349" y="-81.5" font-family="Helvetica,sans-Serif" font-size="10.00">openage::Score::update</text>
<text text-anchor="middle" x="401" y="-70.5" font-family="Helvetica,sans-Serif" font-size="10.00">_resources</text>
</a>
</g>
</g>
<!-- Node90&#45;&gt;Node94 -->
<g id="edge7" class="edge"><title>Node90&#45;&gt;Node94</title>
<path fill="none" stroke="midnightblue" d="M264.763,-129.358C290.18,-119.8 323.203,-107.381 350.253,-97.2081"/>
<polygon fill="midnightblue" stroke="midnightblue" points="351.796,-100.367 359.924,-93.5713 349.332,-93.8153 351.796,-100.367"/>
</g>
<!-- Node92 -->
<g id="node6" class="node"><title>Node92</title>
<g id="a_node6"><a xlink:href="classopenage_1_1_resource_bundle.xhtml#a7c6e69b4cd066ccceb01e89687057090" target="_top" xlink:title=" ">
<polygon fill="white" stroke="black" points="525,-176.5 525,-206.5 656,-206.5 656,-176.5 525,-176.5"/>
<text text-anchor="start" x="533" y="-194.5" font-family="Helvetica,sans-Serif" font-size="10.00">openage::ResourceBundle</text>
<text text-anchor="middle" x="590.5" y="-183.5" font-family="Helvetica,sans-Serif" font-size="10.00">::min_count</text>
</a>
</g>
</g>
<!-- Node91&#45;&gt;Node92 -->
<g id="edge5" class="edge"><title>Node91&#45;&gt;Node92</title>
<path fill="none" stroke="midnightblue" d="M466.002,-162.519C481.904,-166.251 499.08,-170.281 515.42,-174.116"/>
<polygon fill="midnightblue" stroke="midnightblue" points="514.933,-177.597 525.468,-176.474 516.532,-170.782 514.933,-177.597"/>
</g>
<!-- Node93 -->
<g id="node7" class="node"><title>Node93</title>
<g id="a_node7"><a xlink:href="classopenage_1_1_resource_bundle.xhtml#a85c59861409e505a3c5fb020a73ef1c2" target="_top" xlink:title=" ">
<polygon fill="white" stroke="black" points="704,-94 704,-113 854,-113 854,-94 704,-94"/>
<text text-anchor="middle" x="779" y="-101" font-family="Helvetica,sans-Serif" font-size="10.00">openage::ResourceBundle::get</text>
</a>
</g>
</g>
<!-- Node91&#45;&gt;Node93 -->
<g id="edge6" class="edge"><title>Node91&#45;&gt;Node93</title>
<path fill="none" stroke="midnightblue" d="M466.529,-145.638C520.584,-143.421 599.649,-138.648 668,-128.5 689.28,-125.341 712.552,-120.289 732.188,-115.551"/>
<polygon fill="midnightblue" stroke="midnightblue" points="733.221,-118.902 742.095,-113.114 731.548,-112.105 733.221,-118.902"/>
</g>
<!-- Node95 -->
<g id="node9" class="node"><title>Node95</title>
<g id="a_node9"><a xlink:href="classopenage_1_1_score.xhtml#a7867975c457c1de476f8d5ecd1ae452f" target="_top" xlink:title=" ">
<polygon fill="white" stroke="black" points="529.5,-88.5 529.5,-118.5 651.5,-118.5 651.5,-88.5 529.5,-88.5"/>
<text text-anchor="start" x="537.5" y="-106.5" font-family="Helvetica,sans-Serif" font-size="10.00">openage::Score::remove</text>
<text text-anchor="middle" x="590.5" y="-95.5" font-family="Helvetica,sans-Serif" font-size="10.00">_score</text>
</a>
</g>
</g>
<!-- Node94&#45;&gt;Node95 -->
<g id="edge8" class="edge"><title>Node94&#45;&gt;Node95</title>
<path fill="none" stroke="midnightblue" d="M461.069,-86.3758C479.54,-88.8387 500.102,-91.5802 519.263,-94.1351"/>
<polygon fill="midnightblue" stroke="midnightblue" points="519.063,-97.6393 529.438,-95.4917 519.988,-90.7007 519.063,-97.6393"/>
</g>
<!-- Node96 -->
<g id="node10" class="node"><title>Node96</title>
<g id="a_node10"><a xlink:href="classopenage_1_1_resource_bundle.xhtml#a76ff3bbdb074f255cd4b2a80d82e2a00" target="_top" xlink:title=" ">
<polygon fill="white" stroke="black" points="513,-50 513,-69 668,-69 668,-50 513,-50"/>
<text text-anchor="middle" x="590.5" y="-57" font-family="Helvetica,sans-Serif" font-size="10.00">openage::ResourceBundle::sum</text>
</a>
</g>
</g>
<!-- Node94&#45;&gt;Node96 -->
<g id="edge9" class="edge"><title>Node94&#45;&gt;Node96</title>
<path fill="none" stroke="midnightblue" d="M461.069,-72.5144C474.285,-71.1752 488.571,-69.7275 502.649,-68.3009"/>
<polygon fill="midnightblue" stroke="midnightblue" points="503.248,-71.7582 512.844,-67.2678 502.542,-64.7939 503.248,-71.7582"/>
</g>
<!-- Node97 -->
<g id="node11" class="node"><title>Node97</title>
<g id="a_node11"><a xlink:href="classopenage_1_1_score.xhtml#ab03c4138b0129edb062c498f4393b8ba" target="_top" xlink:title=" ">
<polygon fill="white" stroke="black" points="537,-0.5 537,-30.5 644,-30.5 644,-0.5 537,-0.5"/>
<text text-anchor="start" x="545" y="-18.5" font-family="Helvetica,sans-Serif" font-size="10.00">openage::Score::add</text>
<text text-anchor="middle" x="590.5" y="-7.5" font-family="Helvetica,sans-Serif" font-size="10.00">_score</text>
</a>
</g>
</g>
<!-- Node94&#45;&gt;Node97 -->
<g id="edge11" class="edge"><title>Node94&#45;&gt;Node97</title>
<path fill="none" stroke="midnightblue" d="M445.443,-63.4704C465.916,-56.4281 490.689,-47.964 513,-40.5 519.499,-38.3257 526.316,-36.067 533.09,-33.8358"/>
<polygon fill="midnightblue" stroke="midnightblue" points="534.534,-37.0456 542.943,-30.5999 532.35,-30.3951 534.534,-37.0456"/>
</g>
<!-- Node96&#45;&gt;Node93 -->
<g id="edge10" class="edge"><title>Node96&#45;&gt;Node93</title>
<path fill="none" stroke="midnightblue" d="M631.968,-69.0473C660.073,-75.6781 697.716,-84.5591 727.744,-91.6435"/>
<polygon fill="midnightblue" stroke="midnightblue" points="727.075,-95.0815 737.611,-93.9713 728.682,-88.2685 727.075,-95.0815"/>
</g>
</g>
</svg>
        <g id="navigator" transform="translate(0 0)" fill="#404254">
                <rect fill="#f2f5e9" fill-opacity="0.5" stroke="#606060" stroke-width=".5" x="0" y="0" width="60" height="60"/>
                <use id="zoomplus" xlink:href="#zoomPlus" x="17" y="9" onmousedown="handleZoom(evt,'in')"/>
                <use id="zoomminus" xlink:href="#zoomMin" x="42" y="9" onmousedown="handleZoom(evt,'out')"/>
                <use id="reset" xlink:href="#resetDef" x="30" y="36" onmousedown="handleReset()"/>
                <g id="arrowUp" xlink:href="#dirArrow" transform="translate(30 24)" onmousedown="handlePan(0,-1)">
                  <use xlink:href="#rim" fill="#404040">
                        <set attributeName="fill" to="#808080" begin="arrowUp.mouseover" end="arrowUp.mouseout"/>
                  </use>
                  <path fill="none" stroke="white" stroke-width="1.5" d="M0,-3.0v7 M-2.5,-0.5L0,-3.0L2.5,-0.5"/>
                </g>
                <g id="arrowRight" xlink:href="#dirArrow" transform="rotate(90) translate(36 -43)" onmousedown="handlePan(1,0)">
                  <use xlink:href="#rim" fill="#404040">
                        <set attributeName="fill" to="#808080" begin="arrowRight.mouseover" end="arrowRight.mouseout"/>
                  </use>
                  <path fill="none" stroke="white" stroke-width="1.5" d="M0,-3.0v7 M-2.5,-0.5L0,-3.0L2.5,-0.5"/>
                </g>
                <g id="arrowDown" xlink:href="#dirArrow" transform="rotate(180) translate(-30 -48)" onmousedown="handlePan(0,1)">
                  <use xlink:href="#rim" fill="#404040">
                        <set attributeName="fill" to="#808080" begin="arrowDown.mouseover" end="arrowDown.mouseout"/>
                  </use>
                  <path fill="none" stroke="white" stroke-width="1.5" d="M0,-3.0v7 M-2.5,-0.5L0,-3.0L2.5,-0.5"/>
                </g>
                <g id="arrowLeft" xlink:href="#dirArrow" transform="rotate(270) translate(-36 17)" onmousedown="handlePan(-1,0)">
                  <use xlink:href="#rim" fill="#404040">
                        <set attributeName="fill" to="#808080" begin="arrowLeft.mouseover" end="arrowLeft.mouseout"/>
                  </use>
                  <path fill="none" stroke="white" stroke-width="1.5" d="M0,-3.0v7 M-2.5,-0.5L0,-3.0L2.5,-0.5"/>
                </g>
        </g>
        <svg viewBox="0 0 15 15" width="100%" height="30px" preserveAspectRatio="xMaxYMin meet">
         <g id="arrow_out" transform="scale(0.3 0.3)">
          <a xlink:href="classopenage_1_1_player_a3ff378e505d9036c74204730b53d9fba_cgraph_org.svg" target="_base">
           <rect id="button" ry="5" rx="5" y="6" x="6" height="38" width="38"
                fill="#f2f5e9" fill-opacity="0.5" stroke="#606060" stroke-width="1.0"/>
           <path id="arrow"
             d="M 11.500037,31.436501 C 11.940474,20.09759 22.043105,11.32322 32.158766,21.979434 L 37.068811,17.246167 C 37.068811,17.246167 37.088388,32 37.088388,32 L 22.160133,31.978069 C 22.160133,31.978069 26.997745,27.140456 26.997745,27.140456 C 18.528582,18.264221 13.291696,25.230495 11.500037,31.436501 z"
             style="fill:#404040;"/>
          </a>
         </g>
        </svg>
</svg>
