<?xml version="1.0" encoding="UTF-8" standalone="no"?>
<!DOCTYPE svg PUBLIC "-//W3C//DTD SVG 1.1//EN"
 "http://www.w3.org/Graphics/SVG/1.1/DTD/svg11.dtd">
<!-- Generated by graphviz version 2.38.0 (20140413.2041)
 -->
<!-- Title: openage::audio::AudioManager::audio_callback Pages: 1 -->
<svg width="299pt" height="39pt"
 viewBox="0.00 0.00 299.00 39.00" xmlns="http://www.w3.org/2000/svg" xmlns:xlink="http://www.w3.org/1999/xlink">
<g id="graph0" class="graph" transform="scale(1 1) rotate(0) translate(4 35)">
<title>openage::audio::AudioManager::audio_callback</title>
<polygon fill="white" stroke="none" points="-4,4 -4,-35 295,-35 295,4 -4,4"/>
<!-- Node30 -->
<g id="node1" class="node"><title>Node30</title>
<g id="a_node1"><a xlink:title="Called from the audio system once to request new data.">
<polygon fill="#bfbfbf" stroke="black" points="0,-0.5 0,-30.5 151,-30.5 151,-0.5 0,-0.5"/>
<text text-anchor="start" x="8" y="-18.5" font-family="Helvetica,sans-Serif" font-size="10.00">openage::audio::AudioManager</text>
<text text-anchor="middle" x="75.5" y="-7.5" font-family="Helvetica,sans-Serif" font-size="10.00">::audio_callback</text>
</a>
</g>
</g>
<!-- Node31 -->
<g id="node2" class="node"><title>Node31</title>
<g id="a_node2"><a xlink:href="namespaceopenage_1_1util.xhtml#acd8f5a72ed6227f640eda13229878c6f" target="_top" xlink:title="Remove the given element index in the vector.">
<polygon fill="white" stroke="black" points="187,-0.5 187,-30.5 291,-30.5 291,-0.5 187,-0.5"/>
<text text-anchor="start" x="195" y="-18.5" font-family="Helvetica,sans-Serif" font-size="10.00">openage::util::vector</text>
<text text-anchor="middle" x="239" y="-7.5" font-family="Helvetica,sans-Serif" font-size="10.00">_remove_swap_end</text>
</a>
</g>
</g>
<!-- Node30&#45;&gt;Node31 -->
<g id="edge1" class="edge"><title>Node30&#45;&gt;Node31</title>
<path fill="none" stroke="midnightblue" d="M151.104,-15.5C159.683,-15.5 168.355,-15.5 176.729,-15.5"/>
<polygon fill="midnightblue" stroke="midnightblue" points="176.77,-19.0001 186.77,-15.5 176.77,-12.0001 176.77,-19.0001"/>
</g>
</g>
</svg>
