<?xml version="1.0" encoding="UTF-8" standalone="no"?>
<!DOCTYPE svg PUBLIC "-//W3C//DTD SVG 1.1//EN"
 "http://www.w3.org/Graphics/SVG/1.1/DTD/svg11.dtd">
<!-- Generated by graphviz version 2.38.0 (20140413.2041)
 -->
<!-- Title: qtsdl::GuiItemLink Pages: 1 -->
<!--zoomable 738 -->
<svg id="main" version="1.1" xmlns="http://www.w3.org/2000/svg" xmlns:xlink="http://www.w3.org/1999/xlink" xml:space="preserve" onload="init(evt)">
<style type="text/css"><![CDATA[
.edge:hover path { stroke: red; }
.edge:hover polygon { stroke: red; fill: red; }
]]></style>
<script type="text/javascript"><![CDATA[
var edges = document.getElementsByTagName('g');
if (edges && edges.length) {
  for (var i=0;i<edges.length;i++) {
    if (edges[i].id.substr(0,4)=='edge') {
      edges[i].setAttribute('class','edge');
    }
  }
}
]]></script>
        <defs>
                <circle id="rim" cx="0" cy="0" r="7"/>
                <circle id="rim2" cx="0" cy="0" r="3.5"/>
                <g id="zoomPlus">
                        <use xlink:href="#rim" fill="#404040">
                                <set attributeName="fill" to="#808080" begin="zoomplus.mouseover" end="zoomplus.mouseout"/>
                        </use>
                        <path d="M-4,0h8M0,-4v8" fill="none" stroke="white" stroke-width="1.5" pointer-events="none"/>
                </g>
                <g id="zoomMin">
                        <use xlink:href="#rim" fill="#404040">
                                <set attributeName="fill" to="#808080" begin="zoomminus.mouseover" end="zoomminus.mouseout"/>
                        </use>
                        <path d="M-4,0h8" fill="none" stroke="white" stroke-width="1.5" pointer-events="none"/>
                </g>
                <g id="dirArrow">
                        <path fill="none" stroke="white" stroke-width="1.5" d="M0,-3.0v7 M-2.5,-0.5L0,-3.0L2.5,-0.5"/>
                </g>
               <g id="resetDef">
                       <use xlink:href="#rim2" fill="#404040">
                               <set attributeName="fill" to="#808080" begin="reset.mouseover" end="reset.mouseout"/>
                       </use>
               </g>
        </defs>

<script type="text/javascript">
var viewWidth = 1145;
var viewHeight = 738;
var sectionId = 'dynsection-0';
</script>
<script xlink:href="svgpan.js"/>
<svg id="graph" class="graph">
<g id="viewport">
<title>qtsdl::GuiItemLink</title>
<polygon fill="white" stroke="none" points="-4,4 -4,-734 1140.5,-734 1140.5,4 -4,4"/>
<!-- Node0 -->
<g id="node1" class="node"><title>Node0</title>
<g id="a_node1"><a xlink:title=" ">
<polygon fill="#bfbfbf" stroke="black" points="861,-672.5 861,-729.5 956,-729.5 956,-672.5 861,-672.5"/>
<text text-anchor="middle" x="908.5" y="-717.5" font-family="Helvetica,sans-Serif" font-size="10.00">qtsdl::GuiItemLink</text>
<polyline fill="none" stroke="black" points="861,-710.5 956,-710.5 "/>
<text text-anchor="middle" x="908.5" y="-698.5" font-family="Helvetica,sans-Serif" font-size="10.00"> </text>
<polyline fill="none" stroke="black" points="861,-691.5 956,-691.5 "/>
<text text-anchor="start" x="869" y="-679.5" font-family="Helvetica,sans-Serif" font-size="10.00">+ ~GuiItemLink()</text>
</a>
</g>
</g>
<!-- Node1 -->
<g id="node2" class="node"><title>Node1</title>
<g id="a_node2"><a xlink:href="classqtsdl_1_1_gui_item_q_object.xhtml" target="_top" xlink:title=" ">
<polygon fill="white" stroke="black" points="444,-540 444,-597 557,-597 557,-540 444,-540"/>
<text text-anchor="middle" x="500.5" y="-585" font-family="Helvetica,sans-Serif" font-size="10.00">qtsdl::GuiItemQObject</text>
<polyline fill="none" stroke="black" points="444,-578 557,-578 "/>
<text text-anchor="middle" x="500.5" y="-566" font-family="Helvetica,sans-Serif" font-size="10.00"> </text>
<polyline fill="none" stroke="black" points="444,-559 557,-559 "/>
<text text-anchor="start" x="452" y="-547" font-family="Helvetica,sans-Serif" font-size="10.00">+ GuiItemQObject()</text>
</a>
</g>
</g>
<!-- Node0&#45;&gt;Node1 -->
<g id="edge1" class="edge"><title>Node0&#45;&gt;Node1</title>
<path fill="none" stroke="midnightblue" d="M851.248,-681.688C773.372,-656.779 634.881,-612.482 557.26,-587.655"/>
<polygon fill="none" stroke="midnightblue" points="850.308,-685.062 860.899,-684.775 852.44,-678.394 850.308,-685.062"/>
</g>
<!-- Node7 -->
<g id="node8" class="node"><title>Node7</title>
<g id="a_node8"><a xlink:href="classqtsdl_1_1_gui_list_model.xhtml" target="_top" xlink:title=" ">
<polygon fill="white" stroke="black" points="846,-501.5 846,-635.5 971,-635.5 971,-501.5 846,-501.5"/>
<text text-anchor="middle" x="908.5" y="-623.5" font-family="Helvetica,sans-Serif" font-size="10.00">qtsdl::GuiListModel</text>
<polyline fill="none" stroke="black" points="846,-616.5 971,-616.5 "/>
<text text-anchor="start" x="854" y="-604.5" font-family="Helvetica,sans-Serif" font-size="10.00">&#45; values</text>
<polyline fill="none" stroke="black" points="846,-597.5 971,-597.5 "/>
<text text-anchor="start" x="854" y="-585.5" font-family="Helvetica,sans-Serif" font-size="10.00">+ GuiListModel()</text>
<text text-anchor="start" x="854" y="-574.5" font-family="Helvetica,sans-Serif" font-size="10.00">+ ~GuiListModel()</text>
<text text-anchor="start" x="854" y="-563.5" font-family="Helvetica,sans-Serif" font-size="10.00">+ set()</text>
<text text-anchor="start" x="854" y="-552.5" font-family="Helvetica,sans-Serif" font-size="10.00">+ on_property_changed()</text>
<text text-anchor="start" x="854" y="-541.5" font-family="Helvetica,sans-Serif" font-size="10.00">&#45; rowCount()</text>
<text text-anchor="start" x="854" y="-530.5" font-family="Helvetica,sans-Serif" font-size="10.00">&#45; flags()</text>
<text text-anchor="start" x="854" y="-519.5" font-family="Helvetica,sans-Serif" font-size="10.00">&#45; data()</text>
<text text-anchor="start" x="854" y="-508.5" font-family="Helvetica,sans-Serif" font-size="10.00">&#45; setData()</text>
</a>
</g>
</g>
<!-- Node0&#45;&gt;Node7 -->
<g id="edge7" class="edge"><title>Node0&#45;&gt;Node7</title>
<path fill="none" stroke="midnightblue" d="M908.5,-662.16C908.5,-653.782 908.5,-644.668 908.5,-635.533"/>
<polygon fill="none" stroke="midnightblue" points="905,-662.324 908.5,-672.324 912,-662.324 905,-662.324"/>
</g>
<!-- Node9 -->
<g id="node10" class="node"><title>Node9</title>
<g id="a_node10"><a xlink:href="classqtsdl_1_1_gui_singleton_item.xhtml" target="_top" xlink:title=" ">
<polygon fill="white" stroke="black" points="998.5,-534.5 998.5,-602.5 1116.5,-602.5 1116.5,-534.5 998.5,-534.5"/>
<text text-anchor="middle" x="1057.5" y="-590.5" font-family="Helvetica,sans-Serif" font-size="10.00">qtsdl::GuiSingletonItem</text>
<polyline fill="none" stroke="black" points="998.5,-583.5 1116.5,-583.5 "/>
<text text-anchor="middle" x="1057.5" y="-571.5" font-family="Helvetica,sans-Serif" font-size="10.00"> </text>
<polyline fill="none" stroke="black" points="998.5,-564.5 1116.5,-564.5 "/>
<text text-anchor="start" x="1006.5" y="-552.5" font-family="Helvetica,sans-Serif" font-size="10.00">+ GuiSingletonItem()</text>
<text text-anchor="start" x="1006.5" y="-541.5" font-family="Helvetica,sans-Serif" font-size="10.00">+ ~GuiSingletonItem()</text>
</a>
</g>
</g>
<!-- Node0&#45;&gt;Node9 -->
<g id="edge9" class="edge"><title>Node0&#45;&gt;Node9</title>
<path fill="none" stroke="midnightblue" d="M947.715,-665.654C969.939,-646.19 997.61,-621.954 1019.61,-602.684"/>
<polygon fill="none" stroke="midnightblue" points="945.316,-663.103 940.099,-672.324 949.928,-668.369 945.316,-663.103"/>
</g>
<!-- Node2 -->
<g id="node3" class="node"><title>Node2</title>
<g id="a_node3"><a xlink:href="classopenage_1_1gui_1_1_asset_manager_link.xhtml" target="_top" xlink:title=" ">
<polygon fill="white" stroke="black" points="0,-160 0,-305 159,-305 159,-160 0,-160"/>
<text text-anchor="middle" x="79.5" y="-293" font-family="Helvetica,sans-Serif" font-size="10.00">openage::gui::AssetManagerLink</text>
<polyline fill="none" stroke="black" points="0,-286 159,-286 "/>
<text text-anchor="start" x="8" y="-274" font-family="Helvetica,sans-Serif" font-size="10.00">+ assetDir</text>
<text text-anchor="start" x="8" y="-263" font-family="Helvetica,sans-Serif" font-size="10.00">+ engine</text>
<text text-anchor="start" x="8" y="-252" font-family="Helvetica,sans-Serif" font-size="10.00">&#45; asset_dir</text>
<text text-anchor="start" x="8" y="-241" font-family="Helvetica,sans-Serif" font-size="10.00">&#45; engine</text>
<polyline fill="none" stroke="black" points="0,-234 159,-234 "/>
<text text-anchor="start" x="8" y="-222" font-family="Helvetica,sans-Serif" font-size="10.00">+ AssetManagerLink()</text>
<text text-anchor="start" x="8" y="-211" font-family="Helvetica,sans-Serif" font-size="10.00">+ ~AssetManagerLink()</text>
<text text-anchor="start" x="8" y="-200" font-family="Helvetica,sans-Serif" font-size="10.00">+ get_asset_dir()</text>
<text text-anchor="start" x="8" y="-189" font-family="Helvetica,sans-Serif" font-size="10.00">+ set_asset_dir()</text>
<text text-anchor="start" x="8" y="-178" font-family="Helvetica,sans-Serif" font-size="10.00">+ get_engine()</text>
<text text-anchor="start" x="8" y="-167" font-family="Helvetica,sans-Serif" font-size="10.00">+ set_engine()</text>
</a>
</g>
</g>
<!-- Node1&#45;&gt;Node2 -->
<g id="edge2" class="edge"><title>Node1&#45;&gt;Node2</title>
<path fill="none" stroke="midnightblue" d="M433.695,-563.921C359.63,-556.497 240.946,-533.845 167.5,-465 122.876,-423.172 100.673,-356.35 89.7517,-305.226"/>
<polygon fill="none" stroke="midnightblue" points="433.558,-567.423 443.84,-564.87 434.21,-560.454 433.558,-567.423"/>
</g>
<!-- Node3 -->
<g id="node4" class="node"><title>Node3</title>
<g id="a_node4"><a xlink:href="classopenage_1_1gui_1_1_game_control_link.xhtml" target="_top" xlink:title=" ">
<polygon fill="white" stroke="black" points="177,-0.5 177,-464.5 330,-464.5 330,-0.5 177,-0.5"/>
<text text-anchor="middle" x="253.5" y="-452.5" font-family="Helvetica,sans-Serif" font-size="10.00">openage::gui::GameControlLink</text>
<polyline fill="none" stroke="black" points="177,-445.5 330,-445.5 "/>
<text text-anchor="start" x="185" y="-433.5" font-family="Helvetica,sans-Serif" font-size="10.00">+ mode</text>
<text text-anchor="start" x="185" y="-422.5" font-family="Helvetica,sans-Serif" font-size="10.00">+ effectiveModeIndex</text>
<text text-anchor="start" x="185" y="-411.5" font-family="Helvetica,sans-Serif" font-size="10.00">+ modeIndex</text>
<text text-anchor="start" x="185" y="-400.5" font-family="Helvetica,sans-Serif" font-size="10.00">+ modes</text>
<text text-anchor="start" x="185" y="-389.5" font-family="Helvetica,sans-Serif" font-size="10.00">+ engine</text>
<text text-anchor="start" x="185" y="-378.5" font-family="Helvetica,sans-Serif" font-size="10.00">+ game</text>
<text text-anchor="start" x="185" y="-367.5" font-family="Helvetica,sans-Serif" font-size="10.00">+ currentPlayerName</text>
<text text-anchor="start" x="185" y="-356.5" font-family="Helvetica,sans-Serif" font-size="10.00">+ currentCivIndex</text>
<text text-anchor="start" x="185" y="-345.5" font-family="Helvetica,sans-Serif" font-size="10.00">&#45; mode</text>
<text text-anchor="start" x="185" y="-334.5" font-family="Helvetica,sans-Serif" font-size="10.00">&#45; effective_mode_index</text>
<text text-anchor="start" x="185" y="-323.5" font-family="Helvetica,sans-Serif" font-size="10.00">&#45; mode_index</text>
<text text-anchor="start" x="185" y="-312.5" font-family="Helvetica,sans-Serif" font-size="10.00">&#45; engine</text>
<text text-anchor="start" x="185" y="-301.5" font-family="Helvetica,sans-Serif" font-size="10.00">&#45; game</text>
<text text-anchor="start" x="185" y="-290.5" font-family="Helvetica,sans-Serif" font-size="10.00">&#45; current_player_name</text>
<text text-anchor="start" x="185" y="-279.5" font-family="Helvetica,sans-Serif" font-size="10.00">&#45; current_civ_index</text>
<polyline fill="none" stroke="black" points="177,-272.5 330,-272.5 "/>
<text text-anchor="start" x="185" y="-260.5" font-family="Helvetica,sans-Serif" font-size="10.00">+ GameControlLink()</text>
<text text-anchor="start" x="185" y="-249.5" font-family="Helvetica,sans-Serif" font-size="10.00">+ ~GameControlLink()</text>
<text text-anchor="start" x="185" y="-238.5" font-family="Helvetica,sans-Serif" font-size="10.00">+ get_mode()</text>
<text text-anchor="start" x="185" y="-227.5" font-family="Helvetica,sans-Serif" font-size="10.00">+ get_effective_mode</text>
<text text-anchor="start" x="185" y="-216.5" font-family="Helvetica,sans-Serif" font-size="10.00">_index()</text>
<text text-anchor="start" x="185" y="-205.5" font-family="Helvetica,sans-Serif" font-size="10.00">+ get_mode_index()</text>
<text text-anchor="start" x="185" y="-194.5" font-family="Helvetica,sans-Serif" font-size="10.00">+ set_mode_index()</text>
<text text-anchor="start" x="185" y="-183.5" font-family="Helvetica,sans-Serif" font-size="10.00">+ get_modes()</text>
<text text-anchor="start" x="185" y="-172.5" font-family="Helvetica,sans-Serif" font-size="10.00">+ set_modes()</text>
<text text-anchor="start" x="185" y="-161.5" font-family="Helvetica,sans-Serif" font-size="10.00">+ get_engine()</text>
<text text-anchor="start" x="185" y="-150.5" font-family="Helvetica,sans-Serif" font-size="10.00">+ set_engine()</text>
<text text-anchor="start" x="185" y="-139.5" font-family="Helvetica,sans-Serif" font-size="10.00">+ get_game()</text>
<text text-anchor="start" x="185" y="-128.5" font-family="Helvetica,sans-Serif" font-size="10.00">+ set_game()</text>
<text text-anchor="start" x="185" y="-117.5" font-family="Helvetica,sans-Serif" font-size="10.00">+ get_current_player_name()</text>
<text text-anchor="start" x="185" y="-106.5" font-family="Helvetica,sans-Serif" font-size="10.00">+ get_current_civ_index()</text>
<text text-anchor="start" x="185" y="-95.5" font-family="Helvetica,sans-Serif" font-size="10.00">&#45; classBegin()</text>
<text text-anchor="start" x="185" y="-84.5" font-family="Helvetica,sans-Serif" font-size="10.00">&#45; on_core_adopted()</text>
<text text-anchor="start" x="185" y="-73.5" font-family="Helvetica,sans-Serif" font-size="10.00">&#45; componentComplete()</text>
<text text-anchor="start" x="185" y="-62.5" font-family="Helvetica,sans-Serif" font-size="10.00">&#45; on_mode_changed()</text>
<text text-anchor="start" x="185" y="-51.5" font-family="Helvetica,sans-Serif" font-size="10.00">&#45; on_modes_changed()</text>
<text text-anchor="start" x="185" y="-40.5" font-family="Helvetica,sans-Serif" font-size="10.00">&#45; on_current_player_name</text>
<text text-anchor="start" x="185" y="-29.5" font-family="Helvetica,sans-Serif" font-size="10.00">_changed()</text>
<text text-anchor="start" x="185" y="-18.5" font-family="Helvetica,sans-Serif" font-size="10.00">&#45; on_current_civ_index</text>
<text text-anchor="start" x="185" y="-7.5" font-family="Helvetica,sans-Serif" font-size="10.00">_changed()</text>
</a>
</g>
</g>
<!-- Node1&#45;&gt;Node3 -->
<g id="edge3" class="edge"><title>Node1&#45;&gt;Node3</title>
<path fill="none" stroke="midnightblue" d="M434.798,-538.627C402.014,-521.362 364.014,-496.598 338.5,-465 335.609,-461.419 332.81,-457.731 330.102,-453.95"/>
<polygon fill="none" stroke="midnightblue" points="433.397,-541.842 443.892,-543.298 436.595,-535.616 433.397,-541.842"/>
</g>
<!-- Node4 -->
<g id="node5" class="node"><title>Node4</title>
<g id="a_node5"><a xlink:href="classopenage_1_1gui_1_1_game_main_link.xhtml" target="_top" xlink:title=" ">
<polygon fill="white" stroke="black" points="348,-138 348,-327 491,-327 491,-138 348,-138"/>
<text text-anchor="middle" x="419.5" y="-315" font-family="Helvetica,sans-Serif" font-size="10.00">openage::gui::GameMainLink</text>
<polyline fill="none" stroke="black" points="348,-308 491,-308 "/>
<text text-anchor="start" x="356" y="-296" font-family="Helvetica,sans-Serif" font-size="10.00">+ state</text>
<text text-anchor="start" x="356" y="-285" font-family="Helvetica,sans-Serif" font-size="10.00">+ engine</text>
<text text-anchor="start" x="356" y="-274" font-family="Helvetica,sans-Serif" font-size="10.00">&#45; active</text>
<text text-anchor="start" x="356" y="-263" font-family="Helvetica,sans-Serif" font-size="10.00">&#45; engine</text>
<polyline fill="none" stroke="black" points="348,-256 491,-256 "/>
<text text-anchor="start" x="356" y="-244" font-family="Helvetica,sans-Serif" font-size="10.00">+ GameMainLink()</text>
<text text-anchor="start" x="356" y="-233" font-family="Helvetica,sans-Serif" font-size="10.00">+ ~GameMainLink()</text>
<text text-anchor="start" x="356" y="-222" font-family="Helvetica,sans-Serif" font-size="10.00">+ get_state()</text>
<text text-anchor="start" x="356" y="-211" font-family="Helvetica,sans-Serif" font-size="10.00">+ get_engine()</text>
<text text-anchor="start" x="356" y="-200" font-family="Helvetica,sans-Serif" font-size="10.00">+ set_engine()</text>
<text text-anchor="start" x="356" y="-189" font-family="Helvetica,sans-Serif" font-size="10.00">+ clear()</text>
<text text-anchor="start" x="356" y="-178" font-family="Helvetica,sans-Serif" font-size="10.00">&#45; classBegin()</text>
<text text-anchor="start" x="356" y="-167" font-family="Helvetica,sans-Serif" font-size="10.00">&#45; on_core_adopted()</text>
<text text-anchor="start" x="356" y="-156" font-family="Helvetica,sans-Serif" font-size="10.00">&#45; componentComplete()</text>
<text text-anchor="start" x="356" y="-145" font-family="Helvetica,sans-Serif" font-size="10.00">&#45; on_game_running()</text>
</a>
</g>
</g>
<!-- Node1&#45;&gt;Node4 -->
<g id="edge4" class="edge"><title>Node1&#45;&gt;Node4</title>
<path fill="none" stroke="midnightblue" d="M491.424,-530.076C479.595,-481.301 458.499,-394.31 442.202,-327.109"/>
<polygon fill="none" stroke="midnightblue" points="488.044,-530.99 493.803,-539.883 494.847,-529.34 488.044,-530.99"/>
</g>
<!-- Node5 -->
<g id="node6" class="node"><title>Node5</title>
<g id="a_node6"><a xlink:href="classopenage_1_1gui_1_1_game_spec_link.xhtml" target="_top" xlink:title=" ">
<polygon fill="white" stroke="black" points="509,-88.5 509,-376.5 654,-376.5 654,-88.5 509,-88.5"/>
<text text-anchor="middle" x="581.5" y="-364.5" font-family="Helvetica,sans-Serif" font-size="10.00">openage::gui::GameSpecLink</text>
<polyline fill="none" stroke="black" points="509,-357.5 654,-357.5 "/>
<text text-anchor="start" x="517" y="-345.5" font-family="Helvetica,sans-Serif" font-size="10.00">+ state</text>
<text text-anchor="start" x="517" y="-334.5" font-family="Helvetica,sans-Serif" font-size="10.00">+ active</text>
<text text-anchor="start" x="517" y="-323.5" font-family="Helvetica,sans-Serif" font-size="10.00">+ assetManager</text>
<text text-anchor="start" x="517" y="-312.5" font-family="Helvetica,sans-Serif" font-size="10.00">+ terrainIdCount</text>
<text text-anchor="start" x="517" y="-301.5" font-family="Helvetica,sans-Serif" font-size="10.00">&#45; asset_manager</text>
<text text-anchor="start" x="517" y="-290.5" font-family="Helvetica,sans-Serif" font-size="10.00">&#45; terrain_id_count</text>
<text text-anchor="start" x="517" y="-279.5" font-family="Helvetica,sans-Serif" font-size="10.00">&#45; loaded_game_spec</text>
<polyline fill="none" stroke="black" points="509,-272.5 654,-272.5 "/>
<text text-anchor="start" x="517" y="-260.5" font-family="Helvetica,sans-Serif" font-size="10.00">+ GameSpecLink()</text>
<text text-anchor="start" x="517" y="-249.5" font-family="Helvetica,sans-Serif" font-size="10.00">+ ~GameSpecLink()</text>
<text text-anchor="start" x="517" y="-238.5" font-family="Helvetica,sans-Serif" font-size="10.00">+ get_state()</text>
<text text-anchor="start" x="517" y="-227.5" font-family="Helvetica,sans-Serif" font-size="10.00">+ get_active()</text>
<text text-anchor="start" x="517" y="-216.5" font-family="Helvetica,sans-Serif" font-size="10.00">+ set_active()</text>
<text text-anchor="start" x="517" y="-205.5" font-family="Helvetica,sans-Serif" font-size="10.00">+ get_asset_manager()</text>
<text text-anchor="start" x="517" y="-194.5" font-family="Helvetica,sans-Serif" font-size="10.00">+ set_asset_manager()</text>
<text text-anchor="start" x="517" y="-183.5" font-family="Helvetica,sans-Serif" font-size="10.00">+ get_terrain_id_count()</text>
<text text-anchor="start" x="517" y="-172.5" font-family="Helvetica,sans-Serif" font-size="10.00">+ invalidate()</text>
<text text-anchor="start" x="517" y="-161.5" font-family="Helvetica,sans-Serif" font-size="10.00">+ get_loaded_spec()</text>
<text text-anchor="start" x="517" y="-150.5" font-family="Helvetica,sans-Serif" font-size="10.00">&#45; classBegin()</text>
<text text-anchor="start" x="517" y="-139.5" font-family="Helvetica,sans-Serif" font-size="10.00">&#45; on_core_adopted()</text>
<text text-anchor="start" x="517" y="-128.5" font-family="Helvetica,sans-Serif" font-size="10.00">&#45; componentComplete()</text>
<text text-anchor="start" x="517" y="-117.5" font-family="Helvetica,sans-Serif" font-size="10.00">&#45; set_state()</text>
<text text-anchor="start" x="517" y="-106.5" font-family="Helvetica,sans-Serif" font-size="10.00">&#45; on_load_job_finished()</text>
<text text-anchor="start" x="517" y="-95.5" font-family="Helvetica,sans-Serif" font-size="10.00">&#45; on_game_spec_loaded()</text>
</a>
</g>
</g>
<!-- Node1&#45;&gt;Node5 -->
<g id="edge5" class="edge"><title>Node1&#45;&gt;Node5</title>
<path fill="none" stroke="midnightblue" d="M509.604,-529.96C518.664,-492.6 533.142,-432.901 546.739,-376.835"/>
<polygon fill="none" stroke="midnightblue" points="506.153,-529.34 507.197,-539.883 512.956,-530.99 506.153,-529.34"/>
</g>
<!-- Node6 -->
<g id="node7" class="node"><title>Node6</title>
<g id="a_node7"><a xlink:href="classopenage_1_1gui_1_1_output_mode_link.xhtml" target="_top" xlink:title=" ">
<polygon fill="white" stroke="black" points="672,-154.5 672,-310.5 821,-310.5 821,-154.5 672,-154.5"/>
<text text-anchor="middle" x="746.5" y="-298.5" font-family="Helvetica,sans-Serif" font-size="10.00">openage::gui::OutputModeLink</text>
<polyline fill="none" stroke="black" points="672,-291.5 821,-291.5 "/>
<text text-anchor="start" x="680" y="-279.5" font-family="Helvetica,sans-Serif" font-size="10.00">+ name</text>
<text text-anchor="start" x="680" y="-268.5" font-family="Helvetica,sans-Serif" font-size="10.00">+ binds</text>
<polyline fill="none" stroke="black" points="672,-261.5 821,-261.5 "/>
<text text-anchor="start" x="680" y="-249.5" font-family="Helvetica,sans-Serif" font-size="10.00">+ OutputModeLink()</text>
<text text-anchor="start" x="680" y="-238.5" font-family="Helvetica,sans-Serif" font-size="10.00">+ ~OutputModeLink()</text>
<text text-anchor="start" x="680" y="-227.5" font-family="Helvetica,sans-Serif" font-size="10.00">+ get_name()</text>
<text text-anchor="start" x="680" y="-216.5" font-family="Helvetica,sans-Serif" font-size="10.00">+ get_binds()</text>
<text text-anchor="start" x="680" y="-205.5" font-family="Helvetica,sans-Serif" font-size="10.00"># classBegin()</text>
<text text-anchor="start" x="680" y="-194.5" font-family="Helvetica,sans-Serif" font-size="10.00"># on_core_adopted()</text>
<text text-anchor="start" x="680" y="-183.5" font-family="Helvetica,sans-Serif" font-size="10.00"># componentComplete()</text>
<text text-anchor="start" x="680" y="-172.5" font-family="Helvetica,sans-Serif" font-size="10.00">&#45; on_announced()</text>
<text text-anchor="start" x="680" y="-161.5" font-family="Helvetica,sans-Serif" font-size="10.00">&#45; on_binds_changed()</text>
</a>
</g>
</g>
<!-- Node1&#45;&gt;Node6 -->
<g id="edge6" class="edge"><title>Node1&#45;&gt;Node6</title>
<path fill="none" stroke="midnightblue" d="M566.252,-538.667C599.05,-521.413 637.046,-496.647 662.5,-465 698.407,-420.357 719.739,-359.022 731.916,-310.7"/>
<polygon fill="none" stroke="midnightblue" points="564.454,-535.656 557.153,-543.334 567.649,-541.884 564.454,-535.656"/>
</g>
<!-- Node8 -->
<g id="node9" class="node"><title>Node8</title>
<g id="a_node9"><a xlink:href="classopenage_1_1gui_1_1_generator_link.xhtml" target="_top" xlink:title=" ">
<polygon fill="white" stroke="black" points="839,-198.5 839,-266.5 978,-266.5 978,-198.5 839,-198.5"/>
<text text-anchor="middle" x="908.5" y="-254.5" font-family="Helvetica,sans-Serif" font-size="10.00">openage::gui::GeneratorLink</text>
<polyline fill="none" stroke="black" points="839,-247.5 978,-247.5 "/>
<text text-anchor="middle" x="908.5" y="-235.5" font-family="Helvetica,sans-Serif" font-size="10.00"> </text>
<polyline fill="none" stroke="black" points="839,-228.5 978,-228.5 "/>
<text text-anchor="start" x="847" y="-216.5" font-family="Helvetica,sans-Serif" font-size="10.00">+ GeneratorLink()</text>
<text text-anchor="start" x="847" y="-205.5" font-family="Helvetica,sans-Serif" font-size="10.00">+ ~GeneratorLink()</text>
</a>
</g>
</g>
<!-- Node7&#45;&gt;Node8 -->
<g id="edge8" class="edge"><title>Node7&#45;&gt;Node8</title>
<path fill="none" stroke="midnightblue" d="M908.5,-490.917C908.5,-420.225 908.5,-318.588 908.5,-266.71"/>
<polygon fill="none" stroke="midnightblue" points="905,-491.113 908.5,-501.113 912,-491.113 905,-491.113"/>
</g>
<!-- Node10 -->
<g id="node11" class="node"><title>Node10</title>
<g id="a_node11"><a xlink:href="classopenage_1_1gui_1_1_engine_link.xhtml" target="_top" xlink:title=" ">
<polygon fill="white" stroke="black" points="996.5,-160 996.5,-305 1136.5,-305 1136.5,-160 996.5,-160"/>
<text text-anchor="middle" x="1066.5" y="-293" font-family="Helvetica,sans-Serif" font-size="10.00">openage::gui::EngineLink</text>
<polyline fill="none" stroke="black" points="996.5,-286 1136.5,-286 "/>
<text text-anchor="start" x="1004.5" y="-274" font-family="Helvetica,sans-Serif" font-size="10.00">+ globalBinds</text>
<text text-anchor="start" x="1004.5" y="-263" font-family="Helvetica,sans-Serif" font-size="10.00">&#45; core</text>
<text text-anchor="start" x="1004.5" y="-252" font-family="Helvetica,sans-Serif" font-size="10.00">&#45; global_binds</text>
<polyline fill="none" stroke="black" points="996.5,-245 1136.5,-245 "/>
<text text-anchor="start" x="1004.5" y="-233" font-family="Helvetica,sans-Serif" font-size="10.00">+ EngineLink()</text>
<text text-anchor="start" x="1004.5" y="-222" font-family="Helvetica,sans-Serif" font-size="10.00">+ ~EngineLink()</text>
<text text-anchor="start" x="1004.5" y="-211" font-family="Helvetica,sans-Serif" font-size="10.00">+ get()</text>
<text text-anchor="start" x="1004.5" y="-200" font-family="Helvetica,sans-Serif" font-size="10.00">+ get_global_binds()</text>
<text text-anchor="start" x="1004.5" y="-189" font-family="Helvetica,sans-Serif" font-size="10.00">+ stop()</text>
<text text-anchor="start" x="1004.5" y="-178" font-family="Helvetica,sans-Serif" font-size="10.00">+ provider()</text>
<text text-anchor="start" x="1004.5" y="-167" font-family="Helvetica,sans-Serif" font-size="10.00">&#45; on_global_binds_changed()</text>
</a>
</g>
</g>
<!-- Node9&#45;&gt;Node10 -->
<g id="edge10" class="edge"><title>Node9&#45;&gt;Node10</title>
<path fill="none" stroke="midnightblue" d="M1058.67,-524.049C1060.17,-468.503 1062.78,-371.579 1064.57,-305.062"/>
<polygon fill="none" stroke="midnightblue" points="1055.17,-524.163 1058.4,-534.254 1062.16,-524.352 1055.17,-524.163"/>
</g>
</g>
</svg>
        <g id="navigator" transform="translate(0 0)" fill="#404254">
                <rect fill="#f2f5e9" fill-opacity="0.5" stroke="#606060" stroke-width=".5" x="0" y="0" width="60" height="60"/>
                <use id="zoomplus" xlink:href="#zoomPlus" x="17" y="9" onmousedown="handleZoom(evt,'in')"/>
                <use id="zoomminus" xlink:href="#zoomMin" x="42" y="9" onmousedown="handleZoom(evt,'out')"/>
                <use id="reset" xlink:href="#resetDef" x="30" y="36" onmousedown="handleReset()"/>
                <g id="arrowUp" xlink:href="#dirArrow" transform="translate(30 24)" onmousedown="handlePan(0,-1)">
                  <use xlink:href="#rim" fill="#404040">
                        <set attributeName="fill" to="#808080" begin="arrowUp.mouseover" end="arrowUp.mouseout"/>
                  </use>
                  <path fill="none" stroke="white" stroke-width="1.5" d="M0,-3.0v7 M-2.5,-0.5L0,-3.0L2.5,-0.5"/>
                </g>
                <g id="arrowRight" xlink:href="#dirArrow" transform="rotate(90) translate(36 -43)" onmousedown="handlePan(1,0)">
                  <use xlink:href="#rim" fill="#404040">
                        <set attributeName="fill" to="#808080" begin="arrowRight.mouseover" end="arrowRight.mouseout"/>
                  </use>
                  <path fill="none" stroke="white" stroke-width="1.5" d="M0,-3.0v7 M-2.5,-0.5L0,-3.0L2.5,-0.5"/>
                </g>
                <g id="arrowDown" xlink:href="#dirArrow" transform="rotate(180) translate(-30 -48)" onmousedown="handlePan(0,1)">
                  <use xlink:href="#rim" fill="#404040">
                        <set attributeName="fill" to="#808080" begin="arrowDown.mouseover" end="arrowDown.mouseout"/>
                  </use>
                  <path fill="none" stroke="white" stroke-width="1.5" d="M0,-3.0v7 M-2.5,-0.5L0,-3.0L2.5,-0.5"/>
                </g>
                <g id="arrowLeft" xlink:href="#dirArrow" transform="rotate(270) translate(-36 17)" onmousedown="handlePan(-1,0)">
                  <use xlink:href="#rim" fill="#404040">
                        <set attributeName="fill" to="#808080" begin="arrowLeft.mouseover" end="arrowLeft.mouseout"/>
                  </use>
                  <path fill="none" stroke="white" stroke-width="1.5" d="M0,-3.0v7 M-2.5,-0.5L0,-3.0L2.5,-0.5"/>
                </g>
        </g>
        <svg viewBox="0 0 15 15" width="100%" height="30px" preserveAspectRatio="xMaxYMin meet">
         <g id="arrow_out" transform="scale(0.3 0.3)">
          <a xlink:href="classqtsdl_1_1_gui_item_link__inherit__graph_org.svg" target="_base">
           <rect id="button" ry="5" rx="5" y="6" x="6" height="38" width="38"
                fill="#f2f5e9" fill-opacity="0.5" stroke="#606060" stroke-width="1.0"/>
           <path id="arrow"
             d="M 11.500037,31.436501 C 11.940474,20.09759 22.043105,11.32322 32.158766,21.979434 L 37.068811,17.246167 C 37.068811,17.246167 37.088388,32 37.088388,32 L 22.160133,31.978069 C 22.160133,31.978069 26.997745,27.140456 26.997745,27.140456 C 18.528582,18.264221 13.291696,25.230495 11.500037,31.436501 z"
             style="fill:#404040;"/>
          </a>
         </g>
        </svg>
</svg>
