<?xml version="1.0" encoding="UTF-8" standalone="no"?>
<!DOCTYPE svg PUBLIC "-//W3C//DTD SVG 1.1//EN"
 "http://www.w3.org/Graphics/SVG/1.1/DTD/svg11.dtd">
<!-- Generated by graphviz version 2.38.0 (20140413.2041)
 -->
<!-- Title: openage::input::InputContext::unregister Pages: 1 -->
<svg width="842pt" height="276pt"
 viewBox="0.00 0.00 842.00 276.00" xmlns="http://www.w3.org/2000/svg" xmlns:xlink="http://www.w3.org/1999/xlink">
<g id="graph0" class="graph" transform="scale(1 1) rotate(0) translate(4 272)">
<title>openage::input::InputContext::unregister</title>
<polygon fill="white" stroke="none" points="-4,4 -4,-272 838,-272 838,4 -4,4"/>
<!-- Node69 -->
<g id="node1" class="node"><title>Node69</title>
<g id="a_node1"><a xlink:title="Remove the registration to an input manager.">
<polygon fill="#bfbfbf" stroke="black" points="693,-146.5 693,-176.5 834,-176.5 834,-146.5 693,-146.5"/>
<text text-anchor="start" x="701" y="-164.5" font-family="Helvetica,sans-Serif" font-size="10.00">openage::input::InputContext</text>
<text text-anchor="middle" x="763.5" y="-153.5" font-family="Helvetica,sans-Serif" font-size="10.00">::unregister</text>
</a>
</g>
</g>
<!-- Node70 -->
<g id="node2" class="node"><title>Node70</title>
<g id="a_node2"><a xlink:href="classopenage_1_1input_1_1_input_manager.xhtml#a469024c2b2ac7769e0fa578c73fde160" target="_top" xlink:title="removes any matching registered context from the stack.">
<polygon fill="white" stroke="black" points="512,-146.5 512,-176.5 657,-176.5 657,-146.5 512,-146.5"/>
<text text-anchor="start" x="520" y="-164.5" font-family="Helvetica,sans-Serif" font-size="10.00">openage::input::InputManager</text>
<text text-anchor="middle" x="584.5" y="-153.5" font-family="Helvetica,sans-Serif" font-size="10.00">::remove_context</text>
</a>
</g>
</g>
<!-- Node69&#45;&gt;Node70 -->
<g id="edge1" class="edge"><title>Node69&#45;&gt;Node70</title>
<path fill="none" stroke="midnightblue" d="M682.554,-161.5C674.094,-161.5 665.53,-161.5 657.173,-161.5"/>
<polygon fill="midnightblue" stroke="midnightblue" points="682.799,-165 692.799,-161.5 682.799,-158 682.799,-165"/>
</g>
<!-- Node71 -->
<g id="node3" class="node"><title>Node71</title>
<g id="a_node3"><a xlink:href="classopenage_1_1console_1_1_console.xhtml#a8a86e7fece57c47da16e37633c624ece" target="_top" xlink:title=" ">
<polygon fill="white" stroke="black" points="342,-195.5 342,-225.5 476,-225.5 476,-195.5 342,-195.5"/>
<text text-anchor="start" x="350" y="-213.5" font-family="Helvetica,sans-Serif" font-size="10.00">openage::console::Console</text>
<text text-anchor="middle" x="409" y="-202.5" font-family="Helvetica,sans-Serif" font-size="10.00">::set_visible</text>
</a>
</g>
</g>
<!-- Node70&#45;&gt;Node71 -->
<g id="edge2" class="edge"><title>Node70&#45;&gt;Node71</title>
<path fill="none" stroke="midnightblue" d="M520.398,-179.321C501.665,-184.612 481.34,-190.352 463.295,-195.448"/>
<polygon fill="midnightblue" stroke="midnightblue" points="521.356,-182.688 530.029,-176.601 519.454,-175.951 521.356,-182.688"/>
</g>
<!-- Node74 -->
<g id="node6" class="node"><title>Node74</title>
<g id="a_node6"><a xlink:href="classopenage_1_1_action_mode.xhtml#a9c7d1f16c862692b1172079402ac0f18" target="_top" xlink:title="Called when the mode is left.">
<polygon fill="white" stroke="black" points="353.5,-146.5 353.5,-176.5 464.5,-176.5 464.5,-146.5 353.5,-146.5"/>
<text text-anchor="start" x="361.5" y="-164.5" font-family="Helvetica,sans-Serif" font-size="10.00">openage::ActionMode</text>
<text text-anchor="middle" x="409" y="-153.5" font-family="Helvetica,sans-Serif" font-size="10.00">::on_exit</text>
</a>
</g>
</g>
<!-- Node70&#45;&gt;Node74 -->
<g id="edge6" class="edge"><title>Node70&#45;&gt;Node74</title>
<path fill="none" stroke="midnightblue" d="M501.875,-161.5C489.273,-161.5 476.527,-161.5 464.705,-161.5"/>
<polygon fill="midnightblue" stroke="midnightblue" points="501.929,-165 511.929,-161.5 501.929,-158 501.929,-165"/>
</g>
<!-- Node75 -->
<g id="node7" class="node"><title>Node75</title>
<g id="a_node7"><a xlink:href="classopenage_1_1_game_control.xhtml#a1d0f073f844955000861e4c0d08b20e0" target="_top" xlink:title=" ">
<polygon fill="white" stroke="black" points="351,-97.5 351,-127.5 467,-127.5 467,-97.5 351,-97.5"/>
<text text-anchor="start" x="359" y="-115.5" font-family="Helvetica,sans-Serif" font-size="10.00">openage::GameControl</text>
<text text-anchor="middle" x="409" y="-104.5" font-family="Helvetica,sans-Serif" font-size="10.00">::set_mode</text>
</a>
</g>
</g>
<!-- Node70&#45;&gt;Node75 -->
<g id="edge7" class="edge"><title>Node70&#45;&gt;Node75</title>
<path fill="none" stroke="midnightblue" d="M520.398,-143.679C501.665,-138.388 481.34,-132.648 463.295,-127.552"/>
<polygon fill="midnightblue" stroke="midnightblue" points="519.454,-147.049 530.029,-146.399 521.356,-140.312 519.454,-147.049"/>
</g>
<!-- Node72 -->
<g id="node4" class="node"><title>Node72</title>
<g id="a_node4"><a xlink:href="classopenage_1_1console_1_1_console.xhtml#a4e0359f0f3cbbf66da045ba1a33ffa57" target="_top" xlink:title="a temporary console command interpreter">
<polygon fill="white" stroke="black" points="171.5,-237.5 171.5,-267.5 305.5,-267.5 305.5,-237.5 171.5,-237.5"/>
<text text-anchor="start" x="179.5" y="-255.5" font-family="Helvetica,sans-Serif" font-size="10.00">openage::console::Console</text>
<text text-anchor="middle" x="238.5" y="-244.5" font-family="Helvetica,sans-Serif" font-size="10.00">::interpret</text>
</a>
</g>
</g>
<!-- Node71&#45;&gt;Node72 -->
<g id="edge3" class="edge"><title>Node71&#45;&gt;Node72</title>
<path fill="none" stroke="midnightblue" d="M337.647,-228.036C325.041,-231.178 312.007,-234.427 299.718,-237.49"/>
<polygon fill="midnightblue" stroke="midnightblue" points="338.787,-231.359 347.644,-225.544 337.094,-224.567 338.787,-231.359"/>
</g>
<!-- Node73 -->
<g id="node5" class="node"><title>Node73</title>
<g id="a_node5"><a xlink:href="classopenage_1_1console_1_1_console.xhtml#ab5e30408417ac212bd3f35e50edd3a82" target="_top" xlink:title="register this console to the engine.">
<polygon fill="white" stroke="black" points="0.5,-216.5 0.5,-246.5 134.5,-246.5 134.5,-216.5 0.5,-216.5"/>
<text text-anchor="start" x="8.5" y="-234.5" font-family="Helvetica,sans-Serif" font-size="10.00">openage::console::Console</text>
<text text-anchor="middle" x="67.5" y="-223.5" font-family="Helvetica,sans-Serif" font-size="10.00">::register_to_engine</text>
</a>
</g>
</g>
<!-- Node71&#45;&gt;Node73 -->
<g id="edge5" class="edge"><title>Node71&#45;&gt;Node73</title>
<path fill="none" stroke="midnightblue" d="M331.681,-215.221C272.422,-218.886 191.098,-223.917 134.598,-227.411"/>
<polygon fill="midnightblue" stroke="midnightblue" points="331.97,-218.71 341.735,-214.599 331.538,-211.723 331.97,-218.71"/>
</g>
<!-- Node72&#45;&gt;Node73 -->
<g id="edge4" class="edge"><title>Node72&#45;&gt;Node73</title>
<path fill="none" stroke="midnightblue" d="M161.236,-243.023C152.353,-241.92 143.347,-240.801 134.617,-239.716"/>
<polygon fill="midnightblue" stroke="midnightblue" points="160.836,-246.501 171.192,-244.261 161.7,-239.554 160.836,-246.501"/>
</g>
<!-- Node76 -->
<g id="node8" class="node"><title>Node76</title>
<g id="a_node8"><a xlink:href="classopenage_1_1gui_1_1_game_control_link.xhtml#aef267067b8bc03f0df3bfdecce515cd6" target="_top" xlink:title=" ">
<polygon fill="white" stroke="black" points="171,-147.5 171,-177.5 306,-177.5 306,-147.5 171,-147.5"/>
<text text-anchor="start" x="179" y="-165.5" font-family="Helvetica,sans-Serif" font-size="10.00">openage::gui::GameControl</text>
<text text-anchor="middle" x="238.5" y="-154.5" font-family="Helvetica,sans-Serif" font-size="10.00">Link::on_modes_changed</text>
</a>
</g>
</g>
<!-- Node75&#45;&gt;Node76 -->
<g id="edge8" class="edge"><title>Node75&#45;&gt;Node76</title>
<path fill="none" stroke="midnightblue" d="M347.787,-130.367C328.972,-135.95 308.412,-142.051 290.311,-147.423"/>
<polygon fill="midnightblue" stroke="midnightblue" points="348.853,-133.702 357.444,-127.502 346.862,-126.991 348.853,-133.702"/>
</g>
<!-- Node78 -->
<g id="node10" class="node"><title>Node78</title>
<g id="a_node10"><a xlink:href="classopenage_1_1_game_control.xhtml#ad7c9d48df33f8f56ab5686c36648bfa5" target="_top" xlink:title=" ">
<polygon fill="white" stroke="black" points="180.5,-98.5 180.5,-128.5 296.5,-128.5 296.5,-98.5 180.5,-98.5"/>
<text text-anchor="start" x="188.5" y="-116.5" font-family="Helvetica,sans-Serif" font-size="10.00">openage::GameControl</text>
<text text-anchor="middle" x="238.5" y="-105.5" font-family="Helvetica,sans-Serif" font-size="10.00">::set_engine</text>
</a>
</g>
</g>
<!-- Node75&#45;&gt;Node78 -->
<g id="edge10" class="edge"><title>Node75&#45;&gt;Node78</title>
<path fill="none" stroke="midnightblue" d="M340.542,-112.9C326.04,-112.986 310.846,-113.077 296.774,-113.16"/>
<polygon fill="midnightblue" stroke="midnightblue" points="340.975,-116.398 350.954,-112.839 340.933,-109.398 340.975,-116.398"/>
</g>
<!-- Node80 -->
<g id="node12" class="node"><title>Node80</title>
<g id="a_node12"><a xlink:href="classopenage_1_1gui_1_1_game_control_link.xhtml#ab9397074dbc2c25f69e718e053572fab" target="_top" xlink:title=" ">
<polygon fill="white" stroke="black" points="171,-49.5 171,-79.5 306,-79.5 306,-49.5 171,-49.5"/>
<text text-anchor="start" x="179" y="-67.5" font-family="Helvetica,sans-Serif" font-size="10.00">openage::gui::GameControl</text>
<text text-anchor="middle" x="238.5" y="-56.5" font-family="Helvetica,sans-Serif" font-size="10.00">Link::set_mode_index</text>
</a>
</g>
</g>
<!-- Node75&#45;&gt;Node80 -->
<g id="edge12" class="edge"><title>Node75&#45;&gt;Node80</title>
<path fill="none" stroke="midnightblue" d="M345.068,-94.5727C327.65,-89.611 308.932,-84.2787 292.165,-79.5024"/>
<polygon fill="midnightblue" stroke="midnightblue" points="344.572,-98.0705 355.148,-97.4442 346.489,-91.3384 344.572,-98.0705"/>
</g>
<!-- Node81 -->
<g id="node13" class="node"><title>Node81</title>
<g id="a_node13"><a xlink:href="classopenage_1_1_game_control.xhtml#aa44a60840b738c202e328902943d8162" target="_top" xlink:title=" ">
<polygon fill="white" stroke="black" points="180.5,-0.5 180.5,-30.5 296.5,-30.5 296.5,-0.5 180.5,-0.5"/>
<text text-anchor="start" x="188.5" y="-18.5" font-family="Helvetica,sans-Serif" font-size="10.00">openage::GameControl</text>
<text text-anchor="middle" x="238.5" y="-7.5" font-family="Helvetica,sans-Serif" font-size="10.00">::set_modes</text>
</a>
</g>
</g>
<!-- Node75&#45;&gt;Node81 -->
<g id="edge13" class="edge"><title>Node75&#45;&gt;Node81</title>
<path fill="none" stroke="midnightblue" d="M382.245,-91.0181C362.363,-75.2119 333.663,-54.0344 306,-39.5 299.807,-36.246 293.074,-33.2512 286.35,-30.5615"/>
<polygon fill="midnightblue" stroke="midnightblue" points="380.215,-93.8774 390.198,-97.4283 384.609,-88.4275 380.215,-93.8774"/>
</g>
<!-- Node77 -->
<g id="node9" class="node"><title>Node77</title>
<g id="a_node9"><a xlink:href="classopenage_1_1gui_1_1_game_control_link.xhtml#ac65023c9d5f785efe775b1dd99111c42" target="_top" xlink:title=" ">
<polygon fill="white" stroke="black" points="0,-147.5 0,-177.5 135,-177.5 135,-147.5 0,-147.5"/>
<text text-anchor="start" x="8" y="-165.5" font-family="Helvetica,sans-Serif" font-size="10.00">openage::gui::GameControl</text>
<text text-anchor="middle" x="67.5" y="-154.5" font-family="Helvetica,sans-Serif" font-size="10.00">Link::on_core_adopted</text>
</a>
</g>
</g>
<!-- Node76&#45;&gt;Node77 -->
<g id="edge9" class="edge"><title>Node76&#45;&gt;Node77</title>
<path fill="none" stroke="midnightblue" d="M160.449,-162.5C151.981,-162.5 143.411,-162.5 135.085,-162.5"/>
<polygon fill="midnightblue" stroke="midnightblue" points="160.707,-166 170.707,-162.5 160.707,-159 160.707,-166"/>
</g>
<!-- Node79 -->
<g id="node11" class="node"><title>Node79</title>
<g id="a_node11"><a xlink:href="classopenage_1_1gui_1_1_game_control_link.xhtml#a0a4bb8a5d7b2e5637d317fe51f02ad5f" target="_top" xlink:title=" ">
<polygon fill="white" stroke="black" points="0,-98.5 0,-128.5 135,-128.5 135,-98.5 0,-98.5"/>
<text text-anchor="start" x="8" y="-116.5" font-family="Helvetica,sans-Serif" font-size="10.00">openage::gui::GameControl</text>
<text text-anchor="middle" x="67.5" y="-105.5" font-family="Helvetica,sans-Serif" font-size="10.00">Link::set_engine</text>
</a>
</g>
</g>
<!-- Node78&#45;&gt;Node79 -->
<g id="edge11" class="edge"><title>Node78&#45;&gt;Node79</title>
<path fill="none" stroke="midnightblue" d="M169.946,-113.5C158.529,-113.5 146.682,-113.5 135.286,-113.5"/>
<polygon fill="midnightblue" stroke="midnightblue" points="170.284,-117 180.284,-113.5 170.284,-110 170.284,-117"/>
</g>
<!-- Node82 -->
<g id="node14" class="node"><title>Node82</title>
<g id="a_node14"><a xlink:href="classopenage_1_1gui_1_1_game_control_link.xhtml#a54ebef9560dd3607b61083b0f8ecb9ba" target="_top" xlink:title=" ">
<polygon fill="white" stroke="black" points="0,-0.5 0,-30.5 135,-30.5 135,-0.5 0,-0.5"/>
<text text-anchor="start" x="8" y="-18.5" font-family="Helvetica,sans-Serif" font-size="10.00">openage::gui::GameControl</text>
<text text-anchor="middle" x="67.5" y="-7.5" font-family="Helvetica,sans-Serif" font-size="10.00">Link::set_modes</text>
</a>
</g>
</g>
<!-- Node81&#45;&gt;Node82 -->
<g id="edge14" class="edge"><title>Node81&#45;&gt;Node82</title>
<path fill="none" stroke="midnightblue" d="M169.946,-15.5C158.529,-15.5 146.682,-15.5 135.286,-15.5"/>
<polygon fill="midnightblue" stroke="midnightblue" points="170.284,-19.0001 180.284,-15.5 170.284,-12.0001 170.284,-19.0001"/>
</g>
</g>
</svg>
