<?xml version="1.0" encoding="UTF-8" standalone="no"?>
<!DOCTYPE svg PUBLIC "-//W3C//DTD SVG 1.1//EN"
 "http://www.w3.org/Graphics/SVG/1.1/DTD/svg11.dtd">
<!-- Generated by graphviz version 2.38.0 (20140413.2041)
 -->
<!-- Title: qtsdl::GuiListModel Pages: 1 -->
<!--zoomable 612 -->
<svg id="main" version="1.1" xmlns="http://www.w3.org/2000/svg" xmlns:xlink="http://www.w3.org/1999/xlink" xml:space="preserve" onload="init(evt)">
<style type="text/css"><![CDATA[
.edge:hover path { stroke: red; }
.edge:hover polygon { stroke: red; fill: red; }
]]></style>
<script type="text/javascript"><![CDATA[
var edges = document.getElementsByTagName('g');
if (edges && edges.length) {
  for (var i=0;i<edges.length;i++) {
    if (edges[i].id.substr(0,4)=='edge') {
      edges[i].setAttribute('class','edge');
    }
  }
}
]]></script>
        <defs>
                <circle id="rim" cx="0" cy="0" r="7"/>
                <circle id="rim2" cx="0" cy="0" r="3.5"/>
                <g id="zoomPlus">
                        <use xlink:href="#rim" fill="#404040">
                                <set attributeName="fill" to="#808080" begin="zoomplus.mouseover" end="zoomplus.mouseout"/>
                        </use>
                        <path d="M-4,0h8M0,-4v8" fill="none" stroke="white" stroke-width="1.5" pointer-events="none"/>
                </g>
                <g id="zoomMin">
                        <use xlink:href="#rim" fill="#404040">
                                <set attributeName="fill" to="#808080" begin="zoomminus.mouseover" end="zoomminus.mouseout"/>
                        </use>
                        <path d="M-4,0h8" fill="none" stroke="white" stroke-width="1.5" pointer-events="none"/>
                </g>
                <g id="dirArrow">
                        <path fill="none" stroke="white" stroke-width="1.5" d="M0,-3.0v7 M-2.5,-0.5L0,-3.0L2.5,-0.5"/>
                </g>
               <g id="resetDef">
                       <use xlink:href="#rim2" fill="#404040">
                               <set attributeName="fill" to="#808080" begin="reset.mouseover" end="reset.mouseout"/>
                       </use>
               </g>
        </defs>

<script type="text/javascript">
var viewWidth = 381;
var viewHeight = 612;
var sectionId = 'dynsection-0';
</script>
<script xlink:href="svgpan.js"/>
<svg id="graph" class="graph">
<g id="viewport">
<title>qtsdl::GuiListModel</title>
<polygon fill="white" stroke="none" points="-4,4 -4,-608 377,-608 377,4 -4,4"/>
<!-- Node0 -->
<g id="node1" class="node"><title>Node0</title>
<g id="a_node1"><a xlink:title=" ">
<polygon fill="#bfbfbf" stroke="black" points="128,-105.5 128,-239.5 253,-239.5 253,-105.5 128,-105.5"/>
<text text-anchor="middle" x="190.5" y="-227.5" font-family="Helvetica,sans-Serif" font-size="10.00">qtsdl::GuiListModel</text>
<polyline fill="none" stroke="black" points="128,-220.5 253,-220.5 "/>
<text text-anchor="start" x="136" y="-208.5" font-family="Helvetica,sans-Serif" font-size="10.00">&#45; values</text>
<polyline fill="none" stroke="black" points="128,-201.5 253,-201.5 "/>
<text text-anchor="start" x="136" y="-189.5" font-family="Helvetica,sans-Serif" font-size="10.00">+ GuiListModel()</text>
<text text-anchor="start" x="136" y="-178.5" font-family="Helvetica,sans-Serif" font-size="10.00">+ ~GuiListModel()</text>
<text text-anchor="start" x="136" y="-167.5" font-family="Helvetica,sans-Serif" font-size="10.00">+ set()</text>
<text text-anchor="start" x="136" y="-156.5" font-family="Helvetica,sans-Serif" font-size="10.00">+ on_property_changed()</text>
<text text-anchor="start" x="136" y="-145.5" font-family="Helvetica,sans-Serif" font-size="10.00">&#45; rowCount()</text>
<text text-anchor="start" x="136" y="-134.5" font-family="Helvetica,sans-Serif" font-size="10.00">&#45; flags()</text>
<text text-anchor="start" x="136" y="-123.5" font-family="Helvetica,sans-Serif" font-size="10.00">&#45; data()</text>
<text text-anchor="start" x="136" y="-112.5" font-family="Helvetica,sans-Serif" font-size="10.00">&#45; setData()</text>
</a>
</g>
</g>
<!-- Node5 -->
<g id="node6" class="node"><title>Node5</title>
<g id="a_node6"><a xlink:href="classopenage_1_1gui_1_1_generator_link.xhtml" target="_top" xlink:title=" ">
<polygon fill="white" stroke="black" points="121,-0.5 121,-68.5 260,-68.5 260,-0.5 121,-0.5"/>
<text text-anchor="middle" x="190.5" y="-56.5" font-family="Helvetica,sans-Serif" font-size="10.00">openage::gui::GeneratorLink</text>
<polyline fill="none" stroke="black" points="121,-49.5 260,-49.5 "/>
<text text-anchor="middle" x="190.5" y="-37.5" font-family="Helvetica,sans-Serif" font-size="10.00"> </text>
<polyline fill="none" stroke="black" points="121,-30.5 260,-30.5 "/>
<text text-anchor="start" x="129" y="-18.5" font-family="Helvetica,sans-Serif" font-size="10.00">+ GeneratorLink()</text>
<text text-anchor="start" x="129" y="-7.5" font-family="Helvetica,sans-Serif" font-size="10.00">+ ~GeneratorLink()</text>
</a>
</g>
</g>
<!-- Node0&#45;&gt;Node5 -->
<g id="edge5" class="edge"><title>Node0&#45;&gt;Node5</title>
<path fill="none" stroke="midnightblue" d="M190.5,-95.3667C190.5,-86.0791 190.5,-76.9969 190.5,-68.8265"/>
<polygon fill="none" stroke="midnightblue" points="187,-95.4919 190.5,-105.492 194,-95.492 187,-95.4919"/>
</g>
<!-- Node1 -->
<g id="node2" class="node"><title>Node1</title>
<g id="a_node2"><a xlink:title=" ">
<polygon fill="white" stroke="#bfbfbf" points="0,-320.5 0,-377.5 103,-377.5 103,-320.5 0,-320.5"/>
<text text-anchor="middle" x="51.5" y="-365.5" font-family="Helvetica,sans-Serif" font-size="10.00">QAbstractListModel</text>
<polyline fill="none" stroke="#bfbfbf" points="0,-358.5 103,-358.5 "/>
<text text-anchor="middle" x="51.5" y="-346.5" font-family="Helvetica,sans-Serif" font-size="10.00"> </text>
<polyline fill="none" stroke="#bfbfbf" points="0,-339.5 103,-339.5 "/>
<text text-anchor="middle" x="51.5" y="-327.5" font-family="Helvetica,sans-Serif" font-size="10.00"> </text>
</a>
</g>
</g>
<!-- Node1&#45;&gt;Node0 -->
<g id="edge1" class="edge"><title>Node1&#45;&gt;Node0</title>
<path fill="none" stroke="midnightblue" d="M79.8714,-312.383C96.4991,-291.508 118.032,-264.475 137.677,-239.814"/>
<polygon fill="none" stroke="midnightblue" points="77.0179,-310.347 73.525,-320.35 82.4932,-314.709 77.0179,-310.347"/>
</g>
<!-- Node2 -->
<g id="node3" class="node"><title>Node2</title>
<g id="a_node3"><a xlink:href="classqtsdl_1_1_gui_item_base.xhtml" target="_top" xlink:title=" ">
<polygon fill="white" stroke="black" points="121.5,-276.5 121.5,-421.5 259.5,-421.5 259.5,-276.5 121.5,-276.5"/>
<text text-anchor="middle" x="190.5" y="-409.5" font-family="Helvetica,sans-Serif" font-size="10.00">qtsdl::GuiItemBase</text>
<polyline fill="none" stroke="black" points="121.5,-402.5 259.5,-402.5 "/>
<text text-anchor="start" x="129.5" y="-390.5" font-family="Helvetica,sans-Serif" font-size="10.00"># game_logic_caller</text>
<text text-anchor="start" x="129.5" y="-379.5" font-family="Helvetica,sans-Serif" font-size="10.00"># instantiate_core_func</text>
<text text-anchor="start" x="129.5" y="-368.5" font-family="Helvetica,sans-Serif" font-size="10.00"># do_adopt_core_func</text>
<text text-anchor="start" x="129.5" y="-357.5" font-family="Helvetica,sans-Serif" font-size="10.00"># on_core_adopted_func</text>
<polyline fill="none" stroke="black" points="121.5,-350.5 259.5,-350.5 "/>
<text text-anchor="start" x="129.5" y="-338.5" font-family="Helvetica,sans-Serif" font-size="10.00">+ ~GuiItemBase()</text>
<text text-anchor="start" x="129.5" y="-327.5" font-family="Helvetica,sans-Serif" font-size="10.00">&#45; instantiate_core()</text>
<text text-anchor="start" x="129.5" y="-316.5" font-family="Helvetica,sans-Serif" font-size="10.00">&#45; adopt_core()</text>
<text text-anchor="start" x="129.5" y="-305.5" font-family="Helvetica,sans-Serif" font-size="10.00">&#45; do_adopt_core()</text>
<text text-anchor="start" x="129.5" y="-294.5" font-family="Helvetica,sans-Serif" font-size="10.00">&#45; on_core_adopted()</text>
<text text-anchor="start" x="129.5" y="-283.5" font-family="Helvetica,sans-Serif" font-size="10.00">&#45; set_game_logic_callback()</text>
</a>
</g>
</g>
<!-- Node2&#45;&gt;Node0 -->
<g id="edge2" class="edge"><title>Node2&#45;&gt;Node0</title>
<path fill="none" stroke="midnightblue" d="M190.5,-266.249C190.5,-257.327 190.5,-248.328 190.5,-239.628"/>
<polygon fill="none" stroke="midnightblue" points="187,-266.269 190.5,-276.269 194,-266.269 187,-266.269"/>
</g>
<!-- Node3 -->
<g id="node4" class="node"><title>Node3</title>
<g id="a_node4"><a xlink:href="classqtsdl_1_1_deferred_initial_constant_property_values.xhtml" target="_top" xlink:title=" ">
<polygon fill="white" stroke="black" points="110.5,-458.5 110.5,-603.5 270.5,-603.5 270.5,-458.5 110.5,-458.5"/>
<text text-anchor="start" x="118.5" y="-591.5" font-family="Helvetica,sans-Serif" font-size="10.00">qtsdl::DeferredInitialConstant</text>
<text text-anchor="middle" x="190.5" y="-580.5" font-family="Helvetica,sans-Serif" font-size="10.00">PropertyValues</text>
<polyline fill="none" stroke="black" points="110.5,-573.5 270.5,-573.5 "/>
<text text-anchor="start" x="118.5" y="-561.5" font-family="Helvetica,sans-Serif" font-size="10.00"># init_over</text>
<text text-anchor="start" x="118.5" y="-550.5" font-family="Helvetica,sans-Serif" font-size="10.00"># static_properties_assignments</text>
<polyline fill="none" stroke="black" points="110.5,-543.5 270.5,-543.5 "/>
<text text-anchor="start" x="118.5" y="-531.5" font-family="Helvetica,sans-Serif" font-size="10.00">+ DeferredInitialConstantProperty</text>
<text text-anchor="start" x="118.5" y="-520.5" font-family="Helvetica,sans-Serif" font-size="10.00">Values()</text>
<text text-anchor="start" x="118.5" y="-509.5" font-family="Helvetica,sans-Serif" font-size="10.00">+ ~DeferredInitialConstant</text>
<text text-anchor="start" x="118.5" y="-498.5" font-family="Helvetica,sans-Serif" font-size="10.00">PropertyValues()</text>
<text text-anchor="start" x="118.5" y="-487.5" font-family="Helvetica,sans-Serif" font-size="10.00">+ apply_static_properties()</text>
<text text-anchor="start" x="118.5" y="-476.5" font-family="Helvetica,sans-Serif" font-size="10.00">+ clear_static_properties()</text>
<text text-anchor="start" x="118.5" y="-465.5" font-family="Helvetica,sans-Serif" font-size="10.00">+ is_init_over()</text>
</a>
</g>
</g>
<!-- Node3&#45;&gt;Node2 -->
<g id="edge3" class="edge"><title>Node3&#45;&gt;Node2</title>
<path fill="none" stroke="midnightblue" d="M190.5,-448.079C190.5,-439.278 190.5,-430.374 190.5,-421.705"/>
<polygon fill="none" stroke="midnightblue" points="187,-448.342 190.5,-458.342 194,-448.342 187,-448.342"/>
</g>
<!-- Node4 -->
<g id="node5" class="node"><title>Node4</title>
<g id="a_node5"><a xlink:href="classqtsdl_1_1_gui_item_link.xhtml" target="_top" xlink:title=" ">
<polygon fill="white" stroke="black" points="278,-320.5 278,-377.5 373,-377.5 373,-320.5 278,-320.5"/>
<text text-anchor="middle" x="325.5" y="-365.5" font-family="Helvetica,sans-Serif" font-size="10.00">qtsdl::GuiItemLink</text>
<polyline fill="none" stroke="black" points="278,-358.5 373,-358.5 "/>
<text text-anchor="middle" x="325.5" y="-346.5" font-family="Helvetica,sans-Serif" font-size="10.00"> </text>
<polyline fill="none" stroke="black" points="278,-339.5 373,-339.5 "/>
<text text-anchor="start" x="286" y="-327.5" font-family="Helvetica,sans-Serif" font-size="10.00">+ ~GuiItemLink()</text>
</a>
</g>
</g>
<!-- Node4&#45;&gt;Node0 -->
<g id="edge4" class="edge"><title>Node4&#45;&gt;Node0</title>
<path fill="none" stroke="midnightblue" d="M297.945,-312.383C281.796,-291.508 260.882,-264.475 241.803,-239.814"/>
<polygon fill="none" stroke="midnightblue" points="295.222,-314.582 304.109,-320.35 300.758,-310.299 295.222,-314.582"/>
</g>
</g>
</svg>
        <g id="navigator" transform="translate(0 0)" fill="#404254">
                <rect fill="#f2f5e9" fill-opacity="0.5" stroke="#606060" stroke-width=".5" x="0" y="0" width="60" height="60"/>
                <use id="zoomplus" xlink:href="#zoomPlus" x="17" y="9" onmousedown="handleZoom(evt,'in')"/>
                <use id="zoomminus" xlink:href="#zoomMin" x="42" y="9" onmousedown="handleZoom(evt,'out')"/>
                <use id="reset" xlink:href="#resetDef" x="30" y="36" onmousedown="handleReset()"/>
                <g id="arrowUp" xlink:href="#dirArrow" transform="translate(30 24)" onmousedown="handlePan(0,-1)">
                  <use xlink:href="#rim" fill="#404040">
                        <set attributeName="fill" to="#808080" begin="arrowUp.mouseover" end="arrowUp.mouseout"/>
                  </use>
                  <path fill="none" stroke="white" stroke-width="1.5" d="M0,-3.0v7 M-2.5,-0.5L0,-3.0L2.5,-0.5"/>
                </g>
                <g id="arrowRight" xlink:href="#dirArrow" transform="rotate(90) translate(36 -43)" onmousedown="handlePan(1,0)">
                  <use xlink:href="#rim" fill="#404040">
                        <set attributeName="fill" to="#808080" begin="arrowRight.mouseover" end="arrowRight.mouseout"/>
                  </use>
                  <path fill="none" stroke="white" stroke-width="1.5" d="M0,-3.0v7 M-2.5,-0.5L0,-3.0L2.5,-0.5"/>
                </g>
                <g id="arrowDown" xlink:href="#dirArrow" transform="rotate(180) translate(-30 -48)" onmousedown="handlePan(0,1)">
                  <use xlink:href="#rim" fill="#404040">
                        <set attributeName="fill" to="#808080" begin="arrowDown.mouseover" end="arrowDown.mouseout"/>
                  </use>
                  <path fill="none" stroke="white" stroke-width="1.5" d="M0,-3.0v7 M-2.5,-0.5L0,-3.0L2.5,-0.5"/>
                </g>
                <g id="arrowLeft" xlink:href="#dirArrow" transform="rotate(270) translate(-36 17)" onmousedown="handlePan(-1,0)">
                  <use xlink:href="#rim" fill="#404040">
                        <set attributeName="fill" to="#808080" begin="arrowLeft.mouseover" end="arrowLeft.mouseout"/>
                  </use>
                  <path fill="none" stroke="white" stroke-width="1.5" d="M0,-3.0v7 M-2.5,-0.5L0,-3.0L2.5,-0.5"/>
                </g>
        </g>
        <svg viewBox="0 0 15 15" width="100%" height="30px" preserveAspectRatio="xMaxYMin meet">
         <g id="arrow_out" transform="scale(0.3 0.3)">
          <a xlink:href="classqtsdl_1_1_gui_list_model__inherit__graph_org.svg" target="_base">
           <rect id="button" ry="5" rx="5" y="6" x="6" height="38" width="38"
                fill="#f2f5e9" fill-opacity="0.5" stroke="#606060" stroke-width="1.0"/>
           <path id="arrow"
             d="M 11.500037,31.436501 C 11.940474,20.09759 22.043105,11.32322 32.158766,21.979434 L 37.068811,17.246167 C 37.068811,17.246167 37.088388,32 37.088388,32 L 22.160133,31.978069 C 22.160133,31.978069 26.997745,27.140456 26.997745,27.140456 C 18.528582,18.264221 13.291696,25.230495 11.500037,31.436501 z"
             style="fill:#404040;"/>
          </a>
         </g>
        </svg>
</svg>
