<?xml version="1.0" encoding="UTF-8" standalone="no"?>
<!DOCTYPE svg PUBLIC "-//W3C//DTD SVG 1.1//EN"
 "http://www.w3.org/Graphics/SVG/1.1/DTD/svg11.dtd">
<!-- Generated by graphviz version 2.38.0 (20140413.2041)
 -->
<!-- Title: openage::Terrain::texture Pages: 1 -->
<svg width="303pt" height="78pt"
 viewBox="0.00 0.00 303.00 77.50" xmlns="http://www.w3.org/2000/svg" xmlns:xlink="http://www.w3.org/1999/xlink">
<g id="graph0" class="graph" transform="scale(1 1) rotate(0) translate(4 73.5)">
<title>openage::Terrain::texture</title>
<polygon fill="white" stroke="none" points="-4,4 -4,-73.5 299,-73.5 299,4 -4,4"/>
<!-- Node246 -->
<g id="node1" class="node"><title>Node246</title>
<g id="a_node1"><a xlink:title=" ">
<polygon fill="#bfbfbf" stroke="black" points="170,-22.5 170,-41.5 295,-41.5 295,-22.5 170,-22.5"/>
<text text-anchor="middle" x="232.5" y="-29.5" font-family="Helvetica,sans-Serif" font-size="10.00">openage::Terrain::texture</text>
</a>
</g>
</g>
<!-- Node247 -->
<g id="node2" class="node"><title>Node247</title>
<g id="a_node2"><a xlink:href="classopenage_1_1_terrain.xhtml#a72f81eb7623d4ade8272f8163bfcb4d9" target="_top" xlink:title=" ">
<polygon fill="white" stroke="black" points="0,-39 0,-69 134,-69 134,-39 0,-39"/>
<text text-anchor="start" x="8" y="-57" font-family="Helvetica,sans-Serif" font-size="10.00">openage::Terrain::calculate</text>
<text text-anchor="middle" x="67" y="-46" font-family="Helvetica,sans-Serif" font-size="10.00">_masks</text>
</a>
</g>
</g>
<!-- Node246&#45;&gt;Node247 -->
<g id="edge1" class="edge"><title>Node246&#45;&gt;Node247</title>
<path fill="none" stroke="midnightblue" d="M159.532,-41.6838C151.129,-42.8144 142.586,-43.9639 134.266,-45.0835"/>
<polygon fill="midnightblue" stroke="midnightblue" points="160.244,-45.1196 169.688,-40.3173 159.31,-38.1821 160.244,-45.1196"/>
</g>
<!-- Node248 -->
<g id="node3" class="node"><title>Node248</title>
<g id="a_node3"><a xlink:href="classopenage_1_1_terrain.xhtml#ae8e6bd38cdaa86dcff31251de1c6deec" target="_top" xlink:title=" ">
<polygon fill="white" stroke="black" points="9.5,-0.5 9.5,-19.5 124.5,-19.5 124.5,-0.5 9.5,-0.5"/>
<text text-anchor="middle" x="67" y="-7.5" font-family="Helvetica,sans-Serif" font-size="10.00">openage::Terrain::draw</text>
</a>
</g>
</g>
<!-- Node246&#45;&gt;Node248 -->
<g id="edge2" class="edge"><title>Node246&#45;&gt;Node248</title>
<path fill="none" stroke="midnightblue" d="M159.489,-22.3104C147.775,-20.7343 135.792,-19.1218 124.518,-17.6048"/>
<polygon fill="midnightblue" stroke="midnightblue" points="159.31,-25.8179 169.688,-23.6827 160.244,-18.8804 159.31,-25.8179"/>
</g>
</g>
</svg>
