<?xml version="1.0" encoding="UTF-8" standalone="no"?>
<!DOCTYPE svg PUBLIC "-//W3C//DTD SVG 1.1//EN"
 "http://www.w3.org/Graphics/SVG/1.1/DTD/svg11.dtd">
<!-- Generated by graphviz version 2.38.0 (20140413.2041)
 -->
<!-- Title: openage::curve::ValueContainer::set_last Pages: 1 -->
<!--zoomable 368 -->
<svg id="main" version="1.1" xmlns="http://www.w3.org/2000/svg" xmlns:xlink="http://www.w3.org/1999/xlink" xml:space="preserve" onload="init(evt)">
<style type="text/css"><![CDATA[
.edge:hover path { stroke: red; }
.edge:hover polygon { stroke: red; fill: red; }
]]></style>
<script type="text/javascript"><![CDATA[
var edges = document.getElementsByTagName('g');
if (edges && edges.length) {
  for (var i=0;i<edges.length;i++) {
    if (edges[i].id.substr(0,4)=='edge') {
      edges[i].setAttribute('class','edge');
    }
  }
}
]]></script>
        <defs>
                <circle id="rim" cx="0" cy="0" r="7"/>
                <circle id="rim2" cx="0" cy="0" r="3.5"/>
                <g id="zoomPlus">
                        <use xlink:href="#rim" fill="#404040">
                                <set attributeName="fill" to="#808080" begin="zoomplus.mouseover" end="zoomplus.mouseout"/>
                        </use>
                        <path d="M-4,0h8M0,-4v8" fill="none" stroke="white" stroke-width="1.5" pointer-events="none"/>
                </g>
                <g id="zoomMin">
                        <use xlink:href="#rim" fill="#404040">
                                <set attributeName="fill" to="#808080" begin="zoomminus.mouseover" end="zoomminus.mouseout"/>
                        </use>
                        <path d="M-4,0h8" fill="none" stroke="white" stroke-width="1.5" pointer-events="none"/>
                </g>
                <g id="dirArrow">
                        <path fill="none" stroke="white" stroke-width="1.5" d="M0,-3.0v7 M-2.5,-0.5L0,-3.0L2.5,-0.5"/>
                </g>
               <g id="resetDef">
                       <use xlink:href="#rim2" fill="#404040">
                               <set attributeName="fill" to="#808080" begin="reset.mouseover" end="reset.mouseout"/>
                       </use>
               </g>
        </defs>

<script type="text/javascript">
var viewWidth = 874;
var viewHeight = 368;
var sectionId = 'dynsection-8';
</script>
<script xlink:href="svgpan.js"/>
<svg id="graph" class="graph">
<g id="viewport">
<title>openage::curve::ValueContainer::set_last</title>
<polygon fill="white" stroke="none" points="-4,4 -4,-363.5 870,-363.5 870,4 -4,4"/>
<!-- Node49 -->
<g id="node1" class="node"><title>Node49</title>
<g id="a_node1"><a xlink:title=" ">
<polygon fill="#bfbfbf" stroke="black" points="0,-233.5 0,-263.5 154,-263.5 154,-233.5 0,-233.5"/>
<text text-anchor="start" x="8" y="-251.5" font-family="Helvetica,sans-Serif" font-size="10.00">openage::curve::ValueContainer</text>
<text text-anchor="middle" x="77" y="-240.5" font-family="Helvetica,sans-Serif" font-size="10.00">::set_last</text>
</a>
</g>
</g>
<!-- Node50 -->
<g id="node2" class="node"><title>Node50</title>
<g id="a_node2"><a xlink:href="namespaceopenage_1_1convert_1_1changelog.xhtml#aacfbef73c68f07a70b75e8a01b4d0f99" target="_top" xlink:title="return all changed components since the passed version number.">
<polygon fill="white" stroke="black" points="190,-302 190,-321 364,-321 364,-302 190,-302"/>
<text text-anchor="middle" x="277" y="-309" font-family="Helvetica,sans-Serif" font-size="10.00">openage.convert.changelog.changes</text>
</a>
</g>
</g>
<!-- Node49&#45;&gt;Node50 -->
<g id="edge1" class="edge"><title>Node49&#45;&gt;Node50</title>
<path fill="none" stroke="midnightblue" d="M125.174,-263.51C159.028,-274.282 204.142,-288.636 236.186,-298.832"/>
<polygon fill="midnightblue" stroke="midnightblue" points="235.509,-302.289 246.099,-301.986 237.631,-295.619 235.509,-302.289"/>
</g>
<!-- Node53 -->
<g id="node5" class="node"><title>Node53</title>
<g id="a_node5"><a xlink:href="namespaceopenage_1_1curve_1_1tests.xhtml#afc4e799a037edab37e1e35a74da593b7" target="_top" xlink:title=" ">
<polygon fill="white" stroke="black" points="222,-148.5 222,-178.5 332,-178.5 332,-148.5 222,-148.5"/>
<text text-anchor="start" x="230" y="-166.5" font-family="Helvetica,sans-Serif" font-size="10.00">openage::curve::tests</text>
<text text-anchor="middle" x="277" y="-155.5" font-family="Helvetica,sans-Serif" font-size="10.00">::container</text>
</a>
</g>
</g>
<!-- Node49&#45;&gt;Node53 -->
<g id="edge4" class="edge"><title>Node49&#45;&gt;Node53</title>
<path fill="none" stroke="midnightblue" d="M112.943,-233.499C145.962,-219.324 195.643,-197.997 231.485,-182.61"/>
<polygon fill="midnightblue" stroke="midnightblue" points="232.932,-185.798 240.741,-178.637 230.171,-179.365 232.932,-185.798"/>
</g>
<!-- Node51 -->
<g id="node3" class="node"><title>Node51</title>
<g id="a_node3"><a xlink:href="namespaceopenage_1_1log.xhtml#a3f1815b698faf5786fc5e20bcac7704b" target="_top" xlink:title="info message">
<polygon fill="white" stroke="black" points="411.5,-302 411.5,-321 498.5,-321 498.5,-302 411.5,-302"/>
<text text-anchor="middle" x="455" y="-309" font-family="Helvetica,sans-Serif" font-size="10.00">openage.log.info</text>
</a>
</g>
</g>
<!-- Node50&#45;&gt;Node51 -->
<g id="edge2" class="edge"><title>Node50&#45;&gt;Node51</title>
<path fill="none" stroke="midnightblue" d="M364.195,-311.5C376.86,-311.5 389.574,-311.5 401.288,-311.5"/>
<polygon fill="midnightblue" stroke="midnightblue" points="401.299,-315 411.299,-311.5 401.299,-308 401.299,-315"/>
</g>
<!-- Node52 -->
<g id="node4" class="node"><title>Node52</title>
<g id="a_node4"><a xlink:href="namespaceopenage_1_1log.xhtml#a7ca418e1b1fcf210ff91cd25dc8e6a36" target="_top" xlink:title="warning message">
<polygon fill="white" stroke="black" points="409,-340 409,-359 501,-359 501,-340 409,-340"/>
<text text-anchor="middle" x="455" y="-347" font-family="Helvetica,sans-Serif" font-size="10.00">openage.log.warn</text>
</a>
</g>
</g>
<!-- Node50&#45;&gt;Node52 -->
<g id="edge3" class="edge"><title>Node50&#45;&gt;Node52</title>
<path fill="none" stroke="midnightblue" d="M322.412,-321.089C345.951,-326.171 375.057,-332.455 399.905,-337.82"/>
<polygon fill="midnightblue" stroke="midnightblue" points="399.394,-341.291 409.907,-339.98 400.871,-334.448 399.394,-341.291"/>
</g>
<!-- Node54 -->
<g id="node6" class="node"><title>Node54</title>
<g id="a_node6"><a xlink:href="namespaceopenage_1_1curve_1_1tests.xhtml#aafe8d47259322a390c43cae62d308296" target="_top" xlink:title=" ">
<polygon fill="white" stroke="black" points="400,-0.5 400,-30.5 510,-30.5 510,-0.5 400,-0.5"/>
<text text-anchor="start" x="408" y="-18.5" font-family="Helvetica,sans-Serif" font-size="10.00">openage::curve::tests</text>
<text text-anchor="middle" x="455" y="-7.5" font-family="Helvetica,sans-Serif" font-size="10.00">::test_map</text>
</a>
</g>
</g>
<!-- Node53&#45;&gt;Node54 -->
<g id="edge5" class="edge"><title>Node53&#45;&gt;Node54</title>
<path fill="none" stroke="midnightblue" d="M291.187,-148.411C312.474,-124.621 356.444,-77.7887 400,-45.5 404.691,-42.0222 409.83,-38.6666 415.014,-35.5385"/>
<polygon fill="midnightblue" stroke="midnightblue" points="416.806,-38.5453 423.709,-30.5076 413.3,-32.4864 416.806,-38.5453"/>
</g>
<!-- Node55 -->
<g id="node7" class="node"><title>Node55</title>
<g id="a_node7"><a xlink:href="namespaceopenage_1_1curve_1_1tests.xhtml#a994d019a14acd704605a0ccff85558c8" target="_top" xlink:title=" ">
<polygon fill="white" stroke="black" points="400,-252.5 400,-282.5 510,-282.5 510,-252.5 400,-252.5"/>
<text text-anchor="start" x="408" y="-270.5" font-family="Helvetica,sans-Serif" font-size="10.00">openage::curve::tests</text>
<text text-anchor="middle" x="455" y="-259.5" font-family="Helvetica,sans-Serif" font-size="10.00">::test_list</text>
</a>
</g>
</g>
<!-- Node53&#45;&gt;Node55 -->
<g id="edge6" class="edge"><title>Node53&#45;&gt;Node55</title>
<path fill="none" stroke="midnightblue" d="M302.142,-178.516C326.638,-193.664 365.725,-217.594 400,-237.5 405.599,-240.752 411.561,-244.138 417.403,-247.415"/>
<polygon fill="midnightblue" stroke="midnightblue" points="415.976,-250.627 426.414,-252.44 419.384,-244.513 415.976,-250.627"/>
</g>
<!-- Node56 -->
<g id="node8" class="node"><title>Node56</title>
<g id="a_node8"><a xlink:href="namespaceopenage_1_1curve_1_1tests.xhtml#ae4b27fadf76c2a10960f6b7e7ff7c724" target="_top" xlink:title=" ">
<polygon fill="white" stroke="black" points="400,-126.5 400,-156.5 510,-156.5 510,-126.5 400,-126.5"/>
<text text-anchor="start" x="408" y="-144.5" font-family="Helvetica,sans-Serif" font-size="10.00">openage::curve::tests</text>
<text text-anchor="middle" x="455" y="-133.5" font-family="Helvetica,sans-Serif" font-size="10.00">::test_queue</text>
</a>
</g>
</g>
<!-- Node53&#45;&gt;Node56 -->
<g id="edge7" class="edge"><title>Node53&#45;&gt;Node56</title>
<path fill="none" stroke="midnightblue" d="M332.242,-156.72C350.478,-154.44 370.994,-151.876 389.913,-149.511"/>
<polygon fill="midnightblue" stroke="midnightblue" points="390.449,-152.971 399.937,-148.258 389.58,-146.025 390.449,-152.971"/>
</g>
<!-- Node57 -->
<g id="node9" class="node"><title>Node57</title>
<g id="a_node9"><a xlink:href="classopenage_1_1curve_1_1_queue.xhtml#ae7d94b0875221550e5af663a64ea2aec" target="_top" xlink:title=" ">
<polygon fill="white" stroke="black" points="557,-142.5 557,-172.5 673,-172.5 673,-142.5 557,-142.5"/>
<text text-anchor="start" x="565" y="-160.5" font-family="Helvetica,sans-Serif" font-size="10.00">openage::curve::Queue</text>
<text text-anchor="middle" x="615" y="-149.5" font-family="Helvetica,sans-Serif" font-size="10.00">::insert</text>
</a>
</g>
</g>
<!-- Node56&#45;&gt;Node57 -->
<g id="edge8" class="edge"><title>Node56&#45;&gt;Node57</title>
<path fill="none" stroke="midnightblue" d="M510.375,-147.006C522.091,-148.193 534.61,-149.46 546.75,-150.69"/>
<polygon fill="midnightblue" stroke="midnightblue" points="546.531,-154.186 556.833,-151.711 547.236,-147.221 546.531,-154.186"/>
</g>
<!-- Node59 -->
<g id="node11" class="node"><title>Node59</title>
<g id="a_node11"><a xlink:href="classopenage_1_1curve_1_1_queue.xhtml#acbff846f0aad39b82c1dbffe83f80fba" target="_top" xlink:title=" ">
<polygon fill="white" stroke="black" points="557,-93.5 557,-123.5 673,-123.5 673,-93.5 557,-93.5"/>
<text text-anchor="start" x="565" y="-111.5" font-family="Helvetica,sans-Serif" font-size="10.00">openage::curve::Queue</text>
<text text-anchor="middle" x="615" y="-100.5" font-family="Helvetica,sans-Serif" font-size="10.00">::begin</text>
</a>
</g>
</g>
<!-- Node56&#45;&gt;Node59 -->
<g id="edge11" class="edge"><title>Node56&#45;&gt;Node59</title>
<path fill="none" stroke="midnightblue" d="M510.375,-130.143C522.091,-127.696 534.61,-125.082 546.75,-122.546"/>
<polygon fill="midnightblue" stroke="midnightblue" points="547.76,-125.911 556.833,-120.44 546.328,-119.058 547.76,-125.911"/>
</g>
<!-- Node60 -->
<g id="node12" class="node"><title>Node60</title>
<g id="a_node12"><a xlink:href="classopenage_1_1curve_1_1_queue.xhtml#a3ba35a56fa550d939d0d16c71c63e56c" target="_top" xlink:title=" ">
<polygon fill="white" stroke="black" points="557,-202.5 557,-232.5 673,-232.5 673,-202.5 557,-202.5"/>
<text text-anchor="start" x="565" y="-220.5" font-family="Helvetica,sans-Serif" font-size="10.00">openage::curve::Queue</text>
<text text-anchor="middle" x="615" y="-209.5" font-family="Helvetica,sans-Serif" font-size="10.00">::between</text>
</a>
</g>
</g>
<!-- Node56&#45;&gt;Node60 -->
<g id="edge14" class="edge"><title>Node56&#45;&gt;Node60</title>
<path fill="none" stroke="midnightblue" d="M487.216,-156.515C511.913,-168.395 546.592,-185.076 573.439,-197.99"/>
<polygon fill="midnightblue" stroke="midnightblue" points="572.05,-201.205 582.579,-202.386 575.085,-194.897 572.05,-201.205"/>
</g>
<!-- Node61 -->
<g id="node13" class="node"><title>Node61</title>
<g id="a_node13"><a xlink:href="classopenage_1_1curve_1_1_queue.xhtml#a3a60297cec80ae6d759ea3567922db8e" target="_top" xlink:title=" ">
<polygon fill="white" stroke="black" points="546,-55 546,-74 684,-74 684,-55 546,-55"/>
<text text-anchor="middle" x="615" y="-62" font-family="Helvetica,sans-Serif" font-size="10.00">openage::curve::Queue::end</text>
</a>
</g>
</g>
<!-- Node56&#45;&gt;Node61 -->
<g id="edge16" class="edge"><title>Node56&#45;&gt;Node61</title>
<path fill="none" stroke="midnightblue" d="M475.733,-126.296C493.333,-113.36 520.229,-95.0846 546,-83.5 551.3,-81.1175 556.969,-78.9658 562.689,-77.0412"/>
<polygon fill="midnightblue" stroke="midnightblue" points="563.817,-80.3555 572.306,-74.0159 561.716,-73.6781 563.817,-80.3555"/>
</g>
<!-- Node57&#45;&gt;Node53 -->
<g id="edge9" class="edge"><title>Node57&#45;&gt;Node53</title>
<path fill="none" stroke="midnightblue" d="M556.829,-162.691C541.623,-163.854 525.2,-164.916 510,-165.5 453.496,-167.67 389.198,-166.859 342.645,-165.683"/>
<polygon fill="midnightblue" stroke="midnightblue" points="342.487,-162.178 332.398,-165.411 342.301,-169.175 342.487,-162.178"/>
</g>
<!-- Node58 -->
<g id="node10" class="node"><title>Node58</title>
<g id="a_node10"><a xlink:href="namespaceopenage_1_1console_1_1tests.xhtml#a46ebd3333dc9196558ac9aced828d117" target="_top" xlink:title=" ">
<polygon fill="white" stroke="black" points="720,-99 720,-118 866,-118 866,-99 720,-99"/>
<text text-anchor="middle" x="793" y="-106" font-family="Helvetica,sans-Serif" font-size="10.00">openage::console::tests::max</text>
</a>
</g>
</g>
<!-- Node57&#45;&gt;Node58 -->
<g id="edge10" class="edge"><title>Node57&#45;&gt;Node58</title>
<path fill="none" stroke="midnightblue" d="M670.242,-142.399C695.253,-135.435 724.551,-127.278 748.14,-120.711"/>
<polygon fill="midnightblue" stroke="midnightblue" points="749.176,-124.056 757.871,-118.002 747.298,-117.312 749.176,-124.056"/>
</g>
<!-- Node59&#45;&gt;Node53 -->
<g id="edge12" class="edge"><title>Node59&#45;&gt;Node53</title>
<path fill="none" stroke="midnightblue" d="M556.618,-105.559C513.174,-104.554 452.261,-105.768 400,-116.5 371.665,-122.319 341.307,-133.992 317.962,-144.249"/>
<polygon fill="midnightblue" stroke="midnightblue" points="316.427,-141.101 308.736,-148.388 319.292,-147.488 316.427,-141.101"/>
</g>
<!-- Node59&#45;&gt;Node58 -->
<g id="edge13" class="edge"><title>Node59&#45;&gt;Node58</title>
<path fill="none" stroke="midnightblue" d="M673.142,-108.5C684.748,-108.5 697.173,-108.5 709.456,-108.5"/>
<polygon fill="midnightblue" stroke="midnightblue" points="709.72,-112 719.72,-108.5 709.72,-105 709.72,-112"/>
</g>
<!-- Node60&#45;&gt;Node53 -->
<g id="edge15" class="edge"><title>Node60&#45;&gt;Node53</title>
<path fill="none" stroke="midnightblue" d="M556.91,-208.325C497.447,-198.768 404.476,-183.827 342.423,-173.854"/>
<polygon fill="midnightblue" stroke="midnightblue" points="342.786,-170.367 332.358,-172.236 341.676,-177.279 342.786,-170.367"/>
</g>
<!-- Node61&#45;&gt;Node53 -->
<g id="edge17" class="edge"><title>Node61&#45;&gt;Node53</title>
<path fill="none" stroke="midnightblue" d="M545.779,-71.5278C503.123,-77.1597 447.464,-86.787 400,-102.5 368.841,-112.815 335.661,-129.841 311.781,-143.288"/>
<polygon fill="midnightblue" stroke="midnightblue" points="309.733,-140.428 302.789,-148.43 313.207,-146.504 309.733,-140.428"/>
</g>
<!-- Node61&#45;&gt;Node58 -->
<g id="edge18" class="edge"><title>Node61&#45;&gt;Node58</title>
<path fill="none" stroke="midnightblue" d="M654.189,-74.0473C680.482,-80.6204 715.619,-89.4048 743.833,-96.4583"/>
<polygon fill="midnightblue" stroke="midnightblue" points="743.335,-99.9414 753.885,-98.9713 745.033,-93.1504 743.335,-99.9414"/>
</g>
</g>
</svg>
        <g id="navigator" transform="translate(0 0)" fill="#404254">
                <rect fill="#f2f5e9" fill-opacity="0.5" stroke="#606060" stroke-width=".5" x="0" y="0" width="60" height="60"/>
                <use id="zoomplus" xlink:href="#zoomPlus" x="17" y="9" onmousedown="handleZoom(evt,'in')"/>
                <use id="zoomminus" xlink:href="#zoomMin" x="42" y="9" onmousedown="handleZoom(evt,'out')"/>
                <use id="reset" xlink:href="#resetDef" x="30" y="36" onmousedown="handleReset()"/>
                <g id="arrowUp" xlink:href="#dirArrow" transform="translate(30 24)" onmousedown="handlePan(0,-1)">
                  <use xlink:href="#rim" fill="#404040">
                        <set attributeName="fill" to="#808080" begin="arrowUp.mouseover" end="arrowUp.mouseout"/>
                  </use>
                  <path fill="none" stroke="white" stroke-width="1.5" d="M0,-3.0v7 M-2.5,-0.5L0,-3.0L2.5,-0.5"/>
                </g>
                <g id="arrowRight" xlink:href="#dirArrow" transform="rotate(90) translate(36 -43)" onmousedown="handlePan(1,0)">
                  <use xlink:href="#rim" fill="#404040">
                        <set attributeName="fill" to="#808080" begin="arrowRight.mouseover" end="arrowRight.mouseout"/>
                  </use>
                  <path fill="none" stroke="white" stroke-width="1.5" d="M0,-3.0v7 M-2.5,-0.5L0,-3.0L2.5,-0.5"/>
                </g>
                <g id="arrowDown" xlink:href="#dirArrow" transform="rotate(180) translate(-30 -48)" onmousedown="handlePan(0,1)">
                  <use xlink:href="#rim" fill="#404040">
                        <set attributeName="fill" to="#808080" begin="arrowDown.mouseover" end="arrowDown.mouseout"/>
                  </use>
                  <path fill="none" stroke="white" stroke-width="1.5" d="M0,-3.0v7 M-2.5,-0.5L0,-3.0L2.5,-0.5"/>
                </g>
                <g id="arrowLeft" xlink:href="#dirArrow" transform="rotate(270) translate(-36 17)" onmousedown="handlePan(-1,0)">
                  <use xlink:href="#rim" fill="#404040">
                        <set attributeName="fill" to="#808080" begin="arrowLeft.mouseover" end="arrowLeft.mouseout"/>
                  </use>
                  <path fill="none" stroke="white" stroke-width="1.5" d="M0,-3.0v7 M-2.5,-0.5L0,-3.0L2.5,-0.5"/>
                </g>
        </g>
        <svg viewBox="0 0 15 15" width="100%" height="30px" preserveAspectRatio="xMaxYMin meet">
         <g id="arrow_out" transform="scale(0.3 0.3)">
          <a xlink:href="classopenage_1_1curve_1_1_value_container_acb0b0b216cb64435edf52a01d16f70db_cgraph_org.svg" target="_base">
           <rect id="button" ry="5" rx="5" y="6" x="6" height="38" width="38"
                fill="#f2f5e9" fill-opacity="0.5" stroke="#606060" stroke-width="1.0"/>
           <path id="arrow"
             d="M 11.500037,31.436501 C 11.940474,20.09759 22.043105,11.32322 32.158766,21.979434 L 37.068811,17.246167 C 37.068811,17.246167 37.088388,32 37.088388,32 L 22.160133,31.978069 C 22.160133,31.978069 26.997745,27.140456 26.997745,27.140456 C 18.528582,18.264221 13.291696,25.230495 11.500037,31.436501 z"
             style="fill:#404040;"/>
          </a>
         </g>
        </svg>
</svg>
