<?xml version="1.0" encoding="UTF-8" standalone="no"?>
<!DOCTYPE svg PUBLIC "-//W3C//DTD SVG 1.1//EN"
 "http://www.w3.org/Graphics/SVG/1.1/DTD/svg11.dtd">
<!-- Generated by graphviz version 2.38.0 (20140413.2041)
 -->
<!-- Title: openage::Generator::player_names Pages: 1 -->
<svg width="423pt" height="78pt"
 viewBox="0.00 0.00 423.00 77.50" xmlns="http://www.w3.org/2000/svg" xmlns:xlink="http://www.w3.org/1999/xlink">
<g id="graph0" class="graph" transform="scale(1 1) rotate(0) translate(4 73.5)">
<title>openage::Generator::player_names</title>
<polygon fill="white" stroke="none" points="-4,4 -4,-73.5 419,-73.5 419,4 -4,4"/>
<!-- Node102 -->
<g id="node1" class="node"><title>Node102</title>
<g id="a_node1"><a xlink:title=" ">
<polygon fill="#bfbfbf" stroke="black" points="0,-17 0,-47 102,-47 102,-17 0,-17"/>
<text text-anchor="start" x="8" y="-35" font-family="Helvetica,sans-Serif" font-size="10.00">openage::Generator</text>
<text text-anchor="middle" x="51" y="-24" font-family="Helvetica,sans-Serif" font-size="10.00">::player_names</text>
</a>
</g>
</g>
<!-- Node103 -->
<g id="node2" class="node"><title>Node103</title>
<g id="a_node2"><a xlink:href="structqtsdl_1_1_gui_property_map.xhtml#a88e34211690a34ab7dda78ffa4f760f0" target="_top" xlink:title=" ">
<polygon fill="white" stroke="black" points="153.5,-39 153.5,-69 267.5,-69 267.5,-39 153.5,-39"/>
<text text-anchor="start" x="161.5" y="-57" font-family="Helvetica,sans-Serif" font-size="10.00">qtsdl::GuiPropertyMap</text>
<text text-anchor="middle" x="210.5" y="-46" font-family="Helvetica,sans-Serif" font-size="10.00">::get_csv</text>
</a>
</g>
</g>
<!-- Node102&#45;&gt;Node103 -->
<g id="edge1" class="edge"><title>Node102&#45;&gt;Node103</title>
<path fill="none" stroke="midnightblue" d="M102.267,-39.0214C115.379,-40.853 129.709,-42.8546 143.502,-44.7813"/>
<polygon fill="midnightblue" stroke="midnightblue" points="143.038,-48.2504 153.426,-46.1675 144.007,-41.3177 143.038,-48.2504"/>
</g>
<!-- Node105 -->
<g id="node4" class="node"><title>Node105</title>
<g id="a_node4"><a xlink:href="namespaceopenage_1_1testing_1_1testing.xhtml#ac25bf81db406af62d08113ef7ae9fd6e" target="_top" xlink:title=" ">
<polygon fill="white" stroke="black" points="138,-0.5 138,-19.5 283,-19.5 283,-0.5 138,-0.5"/>
<text text-anchor="middle" x="210.5" y="-7.5" font-family="Helvetica,sans-Serif" font-size="10.00">openage.testing.testing.result</text>
</a>
</g>
</g>
<!-- Node102&#45;&gt;Node105 -->
<g id="edge3" class="edge"><title>Node102&#45;&gt;Node105</title>
<path fill="none" stroke="midnightblue" d="M102.267,-24.9786C111.488,-23.6906 121.31,-22.3185 131.125,-20.9476"/>
<polygon fill="midnightblue" stroke="midnightblue" points="131.906,-24.3726 141.325,-19.5228 130.937,-17.4399 131.906,-24.3726"/>
</g>
<!-- Node104 -->
<g id="node3" class="node"><title>Node104</title>
<g id="a_node3"><a xlink:href="namespaceopenage_1_1util.xhtml#af74fec80080f6c627e5539bb20493ba0" target="_top" xlink:title=" ">
<polygon fill="white" stroke="black" points="319,-44.5 319,-63.5 415,-63.5 415,-44.5 319,-44.5"/>
<text text-anchor="middle" x="367" y="-51.5" font-family="Helvetica,sans-Serif" font-size="10.00">openage::util::split</text>
</a>
</g>
</g>
<!-- Node103&#45;&gt;Node104 -->
<g id="edge2" class="edge"><title>Node103&#45;&gt;Node104</title>
<path fill="none" stroke="midnightblue" d="M267.715,-54C281.053,-54 295.297,-54 308.684,-54"/>
<polygon fill="midnightblue" stroke="midnightblue" points="308.725,-57.5001 318.725,-54 308.725,-50.5001 308.725,-57.5001"/>
</g>
<!-- Node106 -->
<g id="node5" class="node"><title>Node106</title>
<g id="a_node5"><a xlink:href="namespaceopenage_1_1util.xhtml#a7bc4421a5f0f57f3a0aba3f96eb8d19c" target="_top" xlink:title=" ">
<polygon fill="white" stroke="black" points="319.5,-0.5 319.5,-19.5 414.5,-19.5 414.5,-0.5 319.5,-0.5"/>
<text text-anchor="middle" x="367" y="-7.5" font-family="Helvetica,sans-Serif" font-size="10.00">openage::util::repr</text>
</a>
</g>
</g>
<!-- Node105&#45;&gt;Node106 -->
<g id="edge4" class="edge"><title>Node105&#45;&gt;Node106</title>
<path fill="none" stroke="midnightblue" d="M283.322,-3.26483C291.95,-3.21761 300.668,-3.28315 309.044,-3.46144"/>
<polygon fill="midnightblue" stroke="midnightblue" points="308.97,-6.96062 319.062,-3.73483 309.161,0.0367781 308.97,-6.96062"/>
</g>
<!-- Node106&#45;&gt;Node105 -->
<g id="edge5" class="edge"><title>Node106&#45;&gt;Node105</title>
<path fill="none" stroke="midnightblue" d="M319.062,-16.2652C310.948,-16.5381 302.304,-16.6958 293.577,-16.7383"/>
<polygon fill="midnightblue" stroke="midnightblue" points="293.323,-13.2383 283.322,-16.7352 293.321,-20.2383 293.323,-13.2383"/>
</g>
</g>
</svg>
