<?xml version="1.0" encoding="UTF-8" standalone="no"?>
<!DOCTYPE svg PUBLIC "-//W3C//DTD SVG 1.1//EN"
 "http://www.w3.org/Graphics/SVG/1.1/DTD/svg11.dtd">
<!-- Generated by graphviz version 2.38.0 (20140413.2041)
 -->
<!-- Title: qtsdl::RecursiveDirectoryWatcherWorker::onRootDirsPathsChanged Pages: 1 -->
<svg width="728pt" height="50pt"
 viewBox="0.00 0.00 728.00 50.00" xmlns="http://www.w3.org/2000/svg" xmlns:xlink="http://www.w3.org/1999/xlink">
<g id="graph0" class="graph" transform="scale(1 1) rotate(0) translate(4 46)">
<title>qtsdl::RecursiveDirectoryWatcherWorker::onRootDirsPathsChanged</title>
<polygon fill="white" stroke="none" points="-4,4 -4,-46 724,-46 724,4 -4,4"/>
<!-- Node9 -->
<g id="node1" class="node"><title>Node9</title>
<g id="a_node1"><a xlink:title=" ">
<polygon fill="#bfbfbf" stroke="black" points="0,-0.5 0,-41.5 164,-41.5 164,-0.5 0,-0.5"/>
<text text-anchor="start" x="8" y="-29.5" font-family="Helvetica,sans-Serif" font-size="10.00">qtsdl::RecursiveDirectory</text>
<text text-anchor="start" x="8" y="-18.5" font-family="Helvetica,sans-Serif" font-size="10.00">WatcherWorker::onRootDirsPaths</text>
<text text-anchor="middle" x="82" y="-7.5" font-family="Helvetica,sans-Serif" font-size="10.00">Changed</text>
</a>
</g>
</g>
<!-- Node10 -->
<g id="node2" class="node"><title>Node10</title>
<g id="a_node2"><a xlink:href="classqtsdl_1_1_recursive_directory_watcher_worker.xhtml#a91bfaa86b49409e691361ef093d77211" target="_top" xlink:title=" ">
<polygon fill="white" stroke="black" points="200,-6 200,-36 360,-36 360,-6 200,-6"/>
<text text-anchor="start" x="208" y="-24" font-family="Helvetica,sans-Serif" font-size="10.00">qtsdl::RecursiveDirectory</text>
<text text-anchor="middle" x="280" y="-13" font-family="Helvetica,sans-Serif" font-size="10.00">WatcherWorker::restartWatching</text>
</a>
</g>
</g>
<!-- Node9&#45;&gt;Node10 -->
<g id="edge1" class="edge"><title>Node9&#45;&gt;Node10</title>
<path fill="none" stroke="midnightblue" d="M164.136,-21C172.521,-21 181.077,-21 189.546,-21"/>
<polygon fill="midnightblue" stroke="midnightblue" points="189.818,-24.5001 199.818,-21 189.818,-17.5001 189.818,-24.5001"/>
</g>
<!-- Node11 -->
<g id="node3" class="node"><title>Node11</title>
<g id="a_node3"><a xlink:href="classqtsdl_1_1_recursive_directory_watcher_worker.xhtml#ad06a00847d0e68ab3932169e674fde0b" target="_top" xlink:title=" ">
<polygon fill="white" stroke="black" points="396,-0.5 396,-41.5 521,-41.5 521,-0.5 396,-0.5"/>
<text text-anchor="start" x="404" y="-29.5" font-family="Helvetica,sans-Serif" font-size="10.00">qtsdl::RecursiveDirectory</text>
<text text-anchor="start" x="404" y="-18.5" font-family="Helvetica,sans-Serif" font-size="10.00">WatcherWorker::restart</text>
<text text-anchor="middle" x="458.5" y="-7.5" font-family="Helvetica,sans-Serif" font-size="10.00">_watching</text>
</a>
</g>
</g>
<!-- Node10&#45;&gt;Node11 -->
<g id="edge2" class="edge"><title>Node10&#45;&gt;Node11</title>
<path fill="none" stroke="midnightblue" d="M360.215,-21C368.685,-21 377.267,-21 385.644,-21"/>
<polygon fill="midnightblue" stroke="midnightblue" points="385.741,-24.5001 395.741,-21 385.741,-17.5001 385.741,-24.5001"/>
</g>
<!-- Node12 -->
<g id="node4" class="node"><title>Node12</title>
<g id="a_node4"><a xlink:href="classqtsdl_1_1_recursive_directory_watcher_worker.xhtml#ae6212c6d19cb887015d3da8a59bd4576" target="_top" xlink:title=" ">
<polygon fill="white" stroke="black" points="557,-6 557,-36 720,-36 720,-6 557,-6"/>
<text text-anchor="start" x="565" y="-24" font-family="Helvetica,sans-Serif" font-size="10.00">qtsdl::RecursiveDirectory</text>
<text text-anchor="middle" x="638.5" y="-13" font-family="Helvetica,sans-Serif" font-size="10.00">WatcherWorker::onEntryChanged</text>
</a>
</g>
</g>
<!-- Node11&#45;&gt;Node12 -->
<g id="edge3" class="edge"><title>Node11&#45;&gt;Node12</title>
<path fill="none" stroke="midnightblue" d="M521.256,-21C529.484,-21 538.055,-21 546.649,-21"/>
<polygon fill="midnightblue" stroke="midnightblue" points="546.729,-24.5001 556.729,-21 546.729,-17.5001 546.729,-24.5001"/>
</g>
</g>
</svg>
