<?xml version="1.0" encoding="UTF-8" standalone="no"?>
<!DOCTYPE svg PUBLIC "-//W3C//DTD SVG 1.1//EN"
 "http://www.w3.org/Graphics/SVG/1.1/DTD/svg11.dtd">
<!-- Generated by graphviz version 2.38.0 (20140413.2041)
 -->
<!-- Title: openage.convert.pefile.PECOFFHeader Pages: 1 -->
<svg width="225pt" height="601pt"
 viewBox="0.00 0.00 224.50 601.00" xmlns="http://www.w3.org/2000/svg" xmlns:xlink="http://www.w3.org/1999/xlink">
<g id="graph0" class="graph" transform="scale(1 1) rotate(0) translate(4 597)">
<title>openage.convert.pefile.PECOFFHeader</title>
<polygon fill="white" stroke="none" points="-4,4 -4,-597 220.5,-597 220.5,4 -4,4"/>
<!-- Node0 -->
<g id="node1" class="node"><title>Node0</title>
<g id="a_node1"><a xlink:title="The new (win32) PE and object file header.">
<polygon fill="#bfbfbf" stroke="black" points="0,-0.5 0,-145.5 186,-145.5 186,-0.5 0,-0.5"/>
<text text-anchor="middle" x="93" y="-133.5" font-family="Helvetica,sans-Serif" font-size="10.00">openage.convert.pefile.PECOFFHeader</text>
<polyline fill="none" stroke="black" points="0,-126.5 186,-126.5 "/>
<text text-anchor="start" x="8" y="-114.5" font-family="Helvetica,sans-Serif" font-size="10.00">+ endianness</text>
<text text-anchor="start" x="8" y="-103.5" font-family="Helvetica,sans-Serif" font-size="10.00">+ signature</text>
<text text-anchor="start" x="8" y="-92.5" font-family="Helvetica,sans-Serif" font-size="10.00">+ machine</text>
<text text-anchor="start" x="8" y="-81.5" font-family="Helvetica,sans-Serif" font-size="10.00">+ number_of_sections</text>
<text text-anchor="start" x="8" y="-70.5" font-family="Helvetica,sans-Serif" font-size="10.00">+ time_stamp</text>
<text text-anchor="start" x="8" y="-59.5" font-family="Helvetica,sans-Serif" font-size="10.00">+ symbol_table_ptr</text>
<text text-anchor="start" x="8" y="-48.5" font-family="Helvetica,sans-Serif" font-size="10.00">+ symbol_count</text>
<text text-anchor="start" x="8" y="-37.5" font-family="Helvetica,sans-Serif" font-size="10.00">+ opt_header_size</text>
<text text-anchor="start" x="8" y="-26.5" font-family="Helvetica,sans-Serif" font-size="10.00">+ characteristics</text>
<polyline fill="none" stroke="black" points="0,-19.5 186,-19.5 "/>
<text text-anchor="middle" x="93" y="-7.5" font-family="Helvetica,sans-Serif" font-size="10.00"> </text>
</a>
</g>
</g>
<!-- Node1 -->
<g id="node2" class="node"><title>Node1</title>
<g id="a_node2"><a xlink:href="classopenage_1_1util_1_1struct_1_1_named_struct.xhtml" target="_top" xlink:title="Designed to be inherited from, similar to Enum.">
<polygon fill="white" stroke="black" points="27.5,-182.5 27.5,-382.5 158.5,-382.5 158.5,-182.5 27.5,-182.5"/>
<text text-anchor="start" x="35.5" y="-370.5" font-family="Helvetica,sans-Serif" font-size="10.00">openage.util.struct.Named</text>
<text text-anchor="middle" x="93" y="-359.5" font-family="Helvetica,sans-Serif" font-size="10.00">Struct</text>
<polyline fill="none" stroke="black" points="27.5,-352.5 158.5,-352.5 "/>
<text text-anchor="start" x="35.5" y="-340.5" font-family="Helvetica,sans-Serif" font-size="10.00">&#45; _postprocessors</text>
<text text-anchor="start" x="35.5" y="-329.5" font-family="Helvetica,sans-Serif" font-size="10.00">&#45; _struct</text>
<text text-anchor="start" x="35.5" y="-318.5" font-family="Helvetica,sans-Serif" font-size="10.00">&#45; _attributes</text>
<polyline fill="none" stroke="black" points="27.5,-311.5 158.5,-311.5 "/>
<text text-anchor="start" x="35.5" y="-299.5" font-family="Helvetica,sans-Serif" font-size="10.00">+ __init__()</text>
<text text-anchor="start" x="35.5" y="-288.5" font-family="Helvetica,sans-Serif" font-size="10.00">+ unpack()</text>
<text text-anchor="start" x="35.5" y="-277.5" font-family="Helvetica,sans-Serif" font-size="10.00">+ size()</text>
<text text-anchor="start" x="35.5" y="-266.5" font-family="Helvetica,sans-Serif" font-size="10.00">+ read()</text>
<text text-anchor="start" x="35.5" y="-255.5" font-family="Helvetica,sans-Serif" font-size="10.00">+ from_nullbytes()</text>
<text text-anchor="start" x="35.5" y="-244.5" font-family="Helvetica,sans-Serif" font-size="10.00">+ __len__()</text>
<text text-anchor="start" x="35.5" y="-233.5" font-family="Helvetica,sans-Serif" font-size="10.00">+ __getitem__()</text>
<text text-anchor="start" x="35.5" y="-222.5" font-family="Helvetica,sans-Serif" font-size="10.00">+ as_dict()</text>
<text text-anchor="start" x="35.5" y="-211.5" font-family="Helvetica,sans-Serif" font-size="10.00">+ __iter__()</text>
<text text-anchor="start" x="35.5" y="-200.5" font-family="Helvetica,sans-Serif" font-size="10.00">+ __repr__()</text>
<text text-anchor="start" x="35.5" y="-189.5" font-family="Helvetica,sans-Serif" font-size="10.00">+ __str__()</text>
</a>
</g>
</g>
<!-- Node1&#45;&gt;Node0 -->
<g id="edge1" class="edge"><title>Node1&#45;&gt;Node0</title>
<path fill="none" stroke="midnightblue" d="M93,-172.132C93,-163.127 93,-154.178 93,-145.559"/>
<polygon fill="none" stroke="midnightblue" points="89.5001,-172.308 93,-182.308 96.5001,-172.308 89.5001,-172.308"/>
</g>
<!-- Node2 -->
<g id="node3" class="node"><title>Node2</title>
<g id="a_node3"><a xlink:title=" ">
<polygon fill="white" stroke="#bfbfbf" points="5,-430.5 5,-487.5 67,-487.5 67,-430.5 5,-430.5"/>
<text text-anchor="middle" x="36" y="-475.5" font-family="Helvetica,sans-Serif" font-size="10.00">metaclass</text>
<polyline fill="none" stroke="#bfbfbf" points="5,-468.5 67,-468.5 "/>
<text text-anchor="middle" x="36" y="-456.5" font-family="Helvetica,sans-Serif" font-size="10.00"> </text>
<polyline fill="none" stroke="#bfbfbf" points="5,-449.5 67,-449.5 "/>
<text text-anchor="middle" x="36" y="-437.5" font-family="Helvetica,sans-Serif" font-size="10.00"> </text>
</a>
</g>
</g>
<!-- Node2&#45;&gt;Node1 -->
<g id="edge2" class="edge"><title>Node2&#45;&gt;Node1</title>
<path fill="none" stroke="midnightblue" d="M48.1424,-420.827C51.8587,-409.45 56.136,-396.355 60.5421,-382.867"/>
<polygon fill="none" stroke="midnightblue" points="44.8099,-419.757 45.0318,-430.35 51.4639,-421.931 44.8099,-419.757"/>
</g>
<!-- Node3 -->
<g id="node4" class="node"><title>Node3</title>
<g id="a_node4"><a xlink:href="classopenage_1_1util_1_1struct_1_1_named_struct_meta.xhtml" target="_top" xlink:title="Metaclass for NamedStruct.">
<polygon fill="white" stroke="black" points="85.5,-419.5 85.5,-498.5 216.5,-498.5 216.5,-419.5 85.5,-419.5"/>
<text text-anchor="start" x="93.5" y="-486.5" font-family="Helvetica,sans-Serif" font-size="10.00">openage.util.struct.Named</text>
<text text-anchor="middle" x="151" y="-475.5" font-family="Helvetica,sans-Serif" font-size="10.00">StructMeta</text>
<polyline fill="none" stroke="black" points="85.5,-468.5 216.5,-468.5 "/>
<text text-anchor="middle" x="151" y="-456.5" font-family="Helvetica,sans-Serif" font-size="10.00"> </text>
<polyline fill="none" stroke="black" points="85.5,-449.5 216.5,-449.5 "/>
<text text-anchor="start" x="93.5" y="-437.5" font-family="Helvetica,sans-Serif" font-size="10.00">+ __prepare__()</text>
<text text-anchor="start" x="93.5" y="-426.5" font-family="Helvetica,sans-Serif" font-size="10.00">+ __new__()</text>
</a>
</g>
</g>
<!-- Node3&#45;&gt;Node1 -->
<g id="edge3" class="edge"><title>Node3&#45;&gt;Node1</title>
<path fill="none" stroke="midnightblue" d="M134.919,-409.619C132.098,-401.131 129.072,-392.027 125.985,-382.738"/>
<polygon fill="none" stroke="midnightblue" points="131.652,-410.887 138.128,-419.273 138.295,-408.679 131.652,-410.887"/>
</g>
<!-- Node4 -->
<g id="node5" class="node"><title>Node4</title>
<g id="a_node5"><a xlink:title=" ">
<polygon fill="white" stroke="#bfbfbf" points="133.5,-535.5 133.5,-592.5 168.5,-592.5 168.5,-535.5 133.5,-535.5"/>
<text text-anchor="middle" x="151" y="-580.5" font-family="Helvetica,sans-Serif" font-size="10.00">type</text>
<polyline fill="none" stroke="#bfbfbf" points="133.5,-573.5 168.5,-573.5 "/>
<text text-anchor="middle" x="151" y="-561.5" font-family="Helvetica,sans-Serif" font-size="10.00"> </text>
<polyline fill="none" stroke="#bfbfbf" points="133.5,-554.5 168.5,-554.5 "/>
<text text-anchor="middle" x="151" y="-542.5" font-family="Helvetica,sans-Serif" font-size="10.00"> </text>
</a>
</g>
</g>
<!-- Node4&#45;&gt;Node3 -->
<g id="edge4" class="edge"><title>Node4&#45;&gt;Node3</title>
<path fill="none" stroke="midnightblue" d="M151,-525.156C151,-516.473 151,-507.232 151,-498.52"/>
<polygon fill="none" stroke="midnightblue" points="147.5,-525.398 151,-535.398 154.5,-525.398 147.5,-525.398"/>
</g>
</g>
</svg>
