<?xml version="1.0" encoding="UTF-8" standalone="no"?>
<!DOCTYPE svg PUBLIC "-//W3C//DTD SVG 1.1//EN"
 "http://www.w3.org/Graphics/SVG/1.1/DTD/svg11.dtd">
<!-- Generated by graphviz version 2.38.0 (20140413.2041)
 -->
<!-- Title: qtsdl::GuiSeparateRenderingContext::~GuiSeparateRenderingContext Pages: 1 -->
<svg width="379pt" height="88pt"
 viewBox="0.00 0.00 379.00 88.00" xmlns="http://www.w3.org/2000/svg" xmlns:xlink="http://www.w3.org/1999/xlink">
<g id="graph0" class="graph" transform="scale(1 1) rotate(0) translate(4 84)">
<title>qtsdl::GuiSeparateRenderingContext::~GuiSeparateRenderingContext</title>
<polygon fill="white" stroke="none" points="-4,4 -4,-84 375,-84 375,4 -4,4"/>
<!-- Node2 -->
<g id="node1" class="node"><title>Node2</title>
<g id="a_node1"><a xlink:title=" ">
<polygon fill="#bfbfbf" stroke="black" points="0,-24.5 0,-54.5 194,-54.5 194,-24.5 0,-24.5"/>
<text text-anchor="start" x="8" y="-42.5" font-family="Helvetica,sans-Serif" font-size="10.00">qtsdl::GuiSeparateRendering</text>
<text text-anchor="middle" x="97" y="-31.5" font-family="Helvetica,sans-Serif" font-size="10.00">Context::~GuiSeparateRenderingContext</text>
</a>
</g>
</g>
<!-- Node3 -->
<g id="node2" class="node"><title>Node3</title>
<g id="a_node2"><a xlink:href="classqtsdl_1_1_gui_separate_rendering_context.xhtml#ad60bc0dd243b8c3ab105f33cdd605dae" target="_top" xlink:title="Function that must be called after rendering the GUI.">
<polygon fill="white" stroke="black" points="230,-49.5 230,-79.5 371,-79.5 371,-49.5 230,-49.5"/>
<text text-anchor="start" x="238" y="-67.5" font-family="Helvetica,sans-Serif" font-size="10.00">qtsdl::GuiSeparateRendering</text>
<text text-anchor="middle" x="300.5" y="-56.5" font-family="Helvetica,sans-Serif" font-size="10.00">Context::post_render</text>
</a>
</g>
</g>
<!-- Node2&#45;&gt;Node3 -->
<g id="edge1" class="edge"><title>Node2&#45;&gt;Node3</title>
<path fill="none" stroke="midnightblue" d="M194.029,-51.4143C202.604,-52.4782 211.226,-53.5479 219.643,-54.5922"/>
<polygon fill="midnightblue" stroke="midnightblue" points="219.439,-58.0936 229.794,-55.8516 220.301,-51.1469 219.439,-58.0936"/>
</g>
<!-- Node4 -->
<g id="node3" class="node"><title>Node4</title>
<g id="a_node3"><a xlink:href="classqtsdl_1_1_gui_separate_rendering_context.xhtml#a47ae13e05fbce6703f7b3329512b5a5f" target="_top" xlink:title="Function that must be called before rendering the GUI.">
<polygon fill="white" stroke="black" points="230,-0.5 230,-30.5 371,-30.5 371,-0.5 230,-0.5"/>
<text text-anchor="start" x="238" y="-18.5" font-family="Helvetica,sans-Serif" font-size="10.00">qtsdl::GuiSeparateRendering</text>
<text text-anchor="middle" x="300.5" y="-7.5" font-family="Helvetica,sans-Serif" font-size="10.00">Context::pre_render</text>
</a>
</g>
</g>
<!-- Node2&#45;&gt;Node4 -->
<g id="edge2" class="edge"><title>Node2&#45;&gt;Node4</title>
<path fill="none" stroke="midnightblue" d="M194.029,-28.0623C202.604,-27.0409 211.226,-26.0141 219.643,-25.0114"/>
<polygon fill="midnightblue" stroke="midnightblue" points="220.278,-28.4607 229.794,-23.8025 219.45,-21.5099 220.278,-28.4607"/>
</g>
</g>
</svg>
