<?xml version="1.0" encoding="UTF-8" standalone="no"?>
<!DOCTYPE svg PUBLIC "-//W3C//DTD SVG 1.1//EN"
 "http://www.w3.org/Graphics/SVG/1.1/DTD/svg11.dtd">
<!-- Generated by graphviz version 2.38.0 (20140413.2041)
 -->
<!-- Title: openage::Score::add_score Pages: 1 -->
<svg width="411pt" height="39pt"
 viewBox="0.00 0.00 411.00 39.00" xmlns="http://www.w3.org/2000/svg" xmlns:xlink="http://www.w3.org/1999/xlink">
<g id="graph0" class="graph" transform="scale(1 1) rotate(0) translate(4 35)">
<title>openage::Score::add_score</title>
<polygon fill="white" stroke="none" points="-4,4 -4,-35 407,-35 407,4 -4,4"/>
<!-- Node14 -->
<g id="node1" class="node"><title>Node14</title>
<g id="a_node1"><a xlink:title=" ">
<polygon fill="#bfbfbf" stroke="black" points="0,-0.5 0,-30.5 107,-30.5 107,-0.5 0,-0.5"/>
<text text-anchor="start" x="8" y="-18.5" font-family="Helvetica,sans-Serif" font-size="10.00">openage::Score::add</text>
<text text-anchor="middle" x="53.5" y="-7.5" font-family="Helvetica,sans-Serif" font-size="10.00">_score</text>
</a>
</g>
</g>
<!-- Node15 -->
<g id="node2" class="node"><title>Node15</title>
<g id="a_node2"><a xlink:href="classopenage_1_1_score.xhtml#ad71b795068636d35bd174acde2e080fd" target="_top" xlink:title=" ">
<polygon fill="white" stroke="black" points="143,-0.5 143,-30.5 263,-30.5 263,-0.5 143,-0.5"/>
<text text-anchor="start" x="151" y="-18.5" font-family="Helvetica,sans-Serif" font-size="10.00">openage::Score::update</text>
<text text-anchor="middle" x="203" y="-7.5" font-family="Helvetica,sans-Serif" font-size="10.00">_score</text>
</a>
</g>
</g>
<!-- Node14&#45;&gt;Node15 -->
<g id="edge1" class="edge"><title>Node14&#45;&gt;Node15</title>
<path fill="none" stroke="midnightblue" d="M107.334,-15.5C115.503,-15.5 124.045,-15.5 132.512,-15.5"/>
<polygon fill="midnightblue" stroke="midnightblue" points="132.772,-19.0001 142.772,-15.5 132.772,-12.0001 132.772,-19.0001"/>
</g>
<!-- Node16 -->
<g id="node3" class="node"><title>Node16</title>
<g id="a_node3"><a xlink:href="classopenage_1_1_score.xhtml#a544fc32ebabe81bb0122dcd4ea9c7931" target="_top" xlink:title=" ">
<polygon fill="white" stroke="black" points="299,-0.5 299,-30.5 403,-30.5 403,-0.5 299,-0.5"/>
<text text-anchor="start" x="307" y="-18.5" font-family="Helvetica,sans-Serif" font-size="10.00">openage::Score::get</text>
<text text-anchor="middle" x="351" y="-7.5" font-family="Helvetica,sans-Serif" font-size="10.00">_score</text>
</a>
</g>
</g>
<!-- Node15&#45;&gt;Node16 -->
<g id="edge2" class="edge"><title>Node15&#45;&gt;Node16</title>
<path fill="none" stroke="midnightblue" d="M263.384,-15.5C271.691,-15.5 280.241,-15.5 288.584,-15.5"/>
<polygon fill="midnightblue" stroke="midnightblue" points="288.629,-19.0001 298.629,-15.5 288.628,-12.0001 288.629,-19.0001"/>
</g>
</g>
</svg>
