<?xml version="1.0" encoding="UTF-8" standalone="no"?>
<!DOCTYPE svg PUBLIC "-//W3C//DTD SVG 1.1//EN"
 "http://www.w3.org/Graphics/SVG/1.1/DTD/svg11.dtd">
<!-- Generated by graphviz version 2.38.0 (20140413.2041)
 -->
<!-- Title: openage::AssetManager::set_asset_dir Pages: 1 -->
<!--zoomable 127 -->
<svg id="main" version="1.1" xmlns="http://www.w3.org/2000/svg" xmlns:xlink="http://www.w3.org/1999/xlink" xml:space="preserve" onload="init(evt)">
<style type="text/css"><![CDATA[
.edge:hover path { stroke: red; }
.edge:hover polygon { stroke: red; fill: red; }
]]></style>
<script type="text/javascript"><![CDATA[
var edges = document.getElementsByTagName('g');
if (edges && edges.length) {
  for (var i=0;i<edges.length;i++) {
    if (edges[i].id.substr(0,4)=='edge') {
      edges[i].setAttribute('class','edge');
    }
  }
}
]]></script>
        <defs>
                <circle id="rim" cx="0" cy="0" r="7"/>
                <circle id="rim2" cx="0" cy="0" r="3.5"/>
                <g id="zoomPlus">
                        <use xlink:href="#rim" fill="#404040">
                                <set attributeName="fill" to="#808080" begin="zoomplus.mouseover" end="zoomplus.mouseout"/>
                        </use>
                        <path d="M-4,0h8M0,-4v8" fill="none" stroke="white" stroke-width="1.5" pointer-events="none"/>
                </g>
                <g id="zoomMin">
                        <use xlink:href="#rim" fill="#404040">
                                <set attributeName="fill" to="#808080" begin="zoomminus.mouseover" end="zoomminus.mouseout"/>
                        </use>
                        <path d="M-4,0h8" fill="none" stroke="white" stroke-width="1.5" pointer-events="none"/>
                </g>
                <g id="dirArrow">
                        <path fill="none" stroke="white" stroke-width="1.5" d="M0,-3.0v7 M-2.5,-0.5L0,-3.0L2.5,-0.5"/>
                </g>
               <g id="resetDef">
                       <use xlink:href="#rim2" fill="#404040">
                               <set attributeName="fill" to="#808080" begin="reset.mouseover" end="reset.mouseout"/>
                       </use>
               </g>
        </defs>

<script type="text/javascript">
var viewWidth = 832;
var viewHeight = 127;
var sectionId = 'dynsection-12';
</script>
<script xlink:href="svgpan.js"/>
<svg id="graph" class="graph">
<g id="viewport">
<title>openage::AssetManager::set_asset_dir</title>
<polygon fill="white" stroke="none" points="-4,4 -4,-122.5 828,-122.5 828,4 -4,4"/>
<!-- Node98 -->
<g id="node1" class="node"><title>Node98</title>
<g id="a_node1"><a xlink:title="Set the asset search path.">
<polygon fill="#bfbfbf" stroke="black" points="0,-20 0,-50 122,-50 122,-20 0,-20"/>
<text text-anchor="start" x="8" y="-38" font-family="Helvetica,sans-Serif" font-size="10.00">openage::AssetManager</text>
<text text-anchor="middle" x="61" y="-27" font-family="Helvetica,sans-Serif" font-size="10.00">::set_asset_dir</text>
</a>
</g>
</g>
<!-- Node99 -->
<g id="node2" class="node"><title>Node99</title>
<g id="a_node2"><a xlink:href="classopenage_1_1_asset_manager.xhtml#afee91926bb4d9b763527a7aa28ec95d4" target="_top" xlink:title=" ">
<polygon fill="white" stroke="black" points="158,-20 158,-50 280,-50 280,-20 158,-20"/>
<text text-anchor="start" x="166" y="-38" font-family="Helvetica,sans-Serif" font-size="10.00">openage::AssetManager</text>
<text text-anchor="middle" x="219" y="-27" font-family="Helvetica,sans-Serif" font-size="10.00">::clear</text>
</a>
</g>
</g>
<!-- Node98&#45;&gt;Node99 -->
<g id="edge1" class="edge"><title>Node98&#45;&gt;Node99</title>
<path fill="none" stroke="midnightblue" d="M122.314,-35C130.604,-35 139.175,-35 147.626,-35"/>
<polygon fill="midnightblue" stroke="midnightblue" points="147.847,-38.5001 157.847,-35 147.847,-31.5001 147.847,-38.5001"/>
</g>
<!-- Node100 -->
<g id="node3" class="node"><title>Node100</title>
<g id="a_node3"><a xlink:href="namespaceopenage_1_1log.xhtml#a0eff614e7d6e818746700ed9d29e583f" target="_top" xlink:title="Convenience method that makes use of the &#39;general&#39; LogSource.">
<polygon fill="white" stroke="black" points="343,-44.5 343,-63.5 434,-63.5 434,-44.5 343,-44.5"/>
<text text-anchor="middle" x="388.5" y="-51.5" font-family="Helvetica,sans-Serif" font-size="10.00">openage::log::log</text>
</a>
</g>
</g>
<!-- Node99&#45;&gt;Node100 -->
<g id="edge2" class="edge"><title>Node99&#45;&gt;Node100</title>
<path fill="none" stroke="midnightblue" d="M280.471,-41.8594C297.544,-43.796 316.018,-45.8916 332.735,-47.7878"/>
<polygon fill="midnightblue" stroke="midnightblue" points="332.557,-51.2901 342.888,-48.9395 333.346,-44.3347 332.557,-51.2901"/>
</g>
<!-- Node106 -->
<g id="node9" class="node"><title>Node106</title>
<g id="a_node9"><a xlink:href="namespaceopenage_1_1testing_1_1testing.xhtml#ac25bf81db406af62d08113ef7ae9fd6e" target="_top" xlink:title=" ">
<polygon fill="white" stroke="black" points="316,-6.5 316,-25.5 461,-25.5 461,-6.5 316,-6.5"/>
<text text-anchor="middle" x="388.5" y="-13.5" font-family="Helvetica,sans-Serif" font-size="10.00">openage.testing.testing.result</text>
</a>
</g>
</g>
<!-- Node99&#45;&gt;Node106 -->
<g id="edge8" class="edge"><title>Node99&#45;&gt;Node106</title>
<path fill="none" stroke="midnightblue" d="M280.471,-28.1406C288.756,-27.2008 297.37,-26.2237 305.954,-25.25"/>
<polygon fill="midnightblue" stroke="midnightblue" points="306.452,-28.716 315.994,-24.1111 305.663,-21.7606 306.452,-28.716"/>
</g>
<!-- Node101 -->
<g id="node4" class="node"><title>Node101</title>
<g id="a_node4"><a xlink:href="namespaceopenage_1_1log.xhtml#a3fbb0c225d01e222648ec28a43507188" target="_top" xlink:title="Returns a reference to a general named log source, for use by log::log().">
<polygon fill="white" stroke="black" points="513.5,-83 513.5,-113 623.5,-113 623.5,-83 513.5,-83"/>
<text text-anchor="start" x="521.5" y="-101" font-family="Helvetica,sans-Serif" font-size="10.00">openage::log::general</text>
<text text-anchor="middle" x="568.5" y="-90" font-family="Helvetica,sans-Serif" font-size="10.00">_source</text>
</a>
</g>
</g>
<!-- Node100&#45;&gt;Node101 -->
<g id="edge3" class="edge"><title>Node100&#45;&gt;Node101</title>
<path fill="none" stroke="midnightblue" d="M428.123,-63.5473C450.148,-68.9917 478.311,-75.9532 503.548,-82.1916"/>
<polygon fill="midnightblue" stroke="midnightblue" points="502.874,-85.6304 513.422,-84.6324 504.554,-78.8349 502.874,-85.6304"/>
</g>
<!-- Node102 -->
<g id="node5" class="node"><title>Node102</title>
<g id="a_node5"><a xlink:href="classopenage_1_1log_1_1_log_source.xhtml#a5640099e20af4cd368c767dbcef3a1df" target="_top" xlink:title="Logs a message (get one via MSG(level)).">
<polygon fill="white" stroke="black" points="497,-44.5 497,-63.5 640,-63.5 640,-44.5 497,-44.5"/>
<text text-anchor="middle" x="568.5" y="-51.5" font-family="Helvetica,sans-Serif" font-size="10.00">openage::log::LogSource::log</text>
</a>
</g>
</g>
<!-- Node100&#45;&gt;Node102 -->
<g id="edge4" class="edge"><title>Node100&#45;&gt;Node102</title>
<path fill="none" stroke="midnightblue" d="M434.417,-54C450.332,-54 468.763,-54 486.742,-54"/>
<polygon fill="midnightblue" stroke="midnightblue" points="486.958,-57.5001 496.958,-54 486.958,-50.5001 486.958,-57.5001"/>
</g>
<!-- Node103 -->
<g id="node6" class="node"><title>Node103</title>
<g id="a_node6"><a xlink:href="namespaceopenage_1_1log.xhtml#a3d2885be9c3a09b9ff7ee8764b2e5f39" target="_top" xlink:title="Returns a reference to the global stdout logsink object; Initializes the object if needed.">
<polygon fill="white" stroke="black" points="698,-88 698,-118 802,-118 802,-88 698,-88"/>
<text text-anchor="start" x="706" y="-106" font-family="Helvetica,sans-Serif" font-size="10.00">openage::log::global</text>
<text text-anchor="middle" x="750" y="-95" font-family="Helvetica,sans-Serif" font-size="10.00">_stdoutsink</text>
</a>
</g>
</g>
<!-- Node102&#45;&gt;Node103 -->
<g id="edge5" class="edge"><title>Node102&#45;&gt;Node103</title>
<path fill="none" stroke="midnightblue" d="M604.536,-63.564C628.265,-70.0416 660.246,-78.7718 688.085,-86.3714"/>
<polygon fill="midnightblue" stroke="midnightblue" points="687.17,-89.7497 697.739,-89.0067 689.014,-82.9968 687.17,-89.7497"/>
</g>
<!-- Node104 -->
<g id="node7" class="node"><title>Node104</title>
<g id="a_node7"><a xlink:href="classopenage_1_1log_1_1_log_sink_list.xhtml#a2d47416fab12651553b4b58c86fd6f84" target="_top" xlink:title=" ">
<polygon fill="white" stroke="black" points="685.5,-39 685.5,-69 814.5,-69 814.5,-39 685.5,-39"/>
<text text-anchor="start" x="693.5" y="-57" font-family="Helvetica,sans-Serif" font-size="10.00">openage::log::LogSinkList</text>
<text text-anchor="middle" x="750" y="-46" font-family="Helvetica,sans-Serif" font-size="10.00">::instance</text>
</a>
</g>
</g>
<!-- Node102&#45;&gt;Node104 -->
<g id="edge6" class="edge"><title>Node102&#45;&gt;Node104</title>
<path fill="none" stroke="midnightblue" d="M640.185,-54C651.719,-54 663.693,-54 675.297,-54"/>
<polygon fill="midnightblue" stroke="midnightblue" points="675.38,-57.5001 685.379,-54 675.379,-50.5001 675.38,-57.5001"/>
</g>
<!-- Node105 -->
<g id="node8" class="node"><title>Node105</title>
<g id="a_node8"><a xlink:href="classopenage_1_1log_1_1_log_sink_list.xhtml#a8456b84ab55e1fe151c51438c5bfebdd" target="_top" xlink:title=" ">
<polygon fill="white" stroke="black" points="676,-0.5 676,-19.5 824,-19.5 824,-0.5 676,-0.5"/>
<text text-anchor="middle" x="750" y="-7.5" font-family="Helvetica,sans-Serif" font-size="10.00">openage::log::LogSinkList::log</text>
</a>
</g>
</g>
<!-- Node102&#45;&gt;Node105 -->
<g id="edge7" class="edge"><title>Node102&#45;&gt;Node105</title>
<path fill="none" stroke="midnightblue" d="M608.449,-44.4527C635.382,-37.8508 671.415,-29.0181 700.253,-21.949"/>
<polygon fill="midnightblue" stroke="midnightblue" points="701.248,-25.3089 710.127,-19.5287 699.581,-18.5102 701.248,-25.3089"/>
</g>
<!-- Node107 -->
<g id="node10" class="node"><title>Node107</title>
<g id="a_node10"><a xlink:href="namespaceopenage_1_1util.xhtml#a7bc4421a5f0f57f3a0aba3f96eb8d19c" target="_top" xlink:title="method that behaves similar to python&#39;s &quot;repr&quot;.">
<polygon fill="white" stroke="black" points="521,-6.5 521,-25.5 616,-25.5 616,-6.5 521,-6.5"/>
<text text-anchor="middle" x="568.5" y="-13.5" font-family="Helvetica,sans-Serif" font-size="10.00">openage::util::repr</text>
</a>
</g>
</g>
<!-- Node106&#45;&gt;Node107 -->
<g id="edge9" class="edge"><title>Node106&#45;&gt;Node107</title>
<path fill="none" stroke="midnightblue" d="M461.13,-9.36559C477.613,-9.14367 494.923,-9.2413 510.679,-9.65849"/>
<polygon fill="midnightblue" stroke="midnightblue" points="510.678,-13.1601 520.783,-9.97864 510.899,-6.16363 510.678,-13.1601"/>
</g>
<!-- Node107&#45;&gt;Node106 -->
<g id="edge10" class="edge"><title>Node107&#45;&gt;Node106</title>
<path fill="none" stroke="midnightblue" d="M520.783,-22.0214C505.681,-22.5839 488.462,-22.8207 471.578,-22.7318"/>
<polygon fill="midnightblue" stroke="midnightblue" points="471.162,-19.2279 461.13,-22.6344 471.097,-26.2276 471.162,-19.2279"/>
</g>
</g>
</svg>
        <g id="navigator" transform="translate(0 0)" fill="#404254">
                <rect fill="#f2f5e9" fill-opacity="0.5" stroke="#606060" stroke-width=".5" x="0" y="0" width="60" height="60"/>
                <use id="zoomplus" xlink:href="#zoomPlus" x="17" y="9" onmousedown="handleZoom(evt,'in')"/>
                <use id="zoomminus" xlink:href="#zoomMin" x="42" y="9" onmousedown="handleZoom(evt,'out')"/>
                <use id="reset" xlink:href="#resetDef" x="30" y="36" onmousedown="handleReset()"/>
                <g id="arrowUp" xlink:href="#dirArrow" transform="translate(30 24)" onmousedown="handlePan(0,-1)">
                  <use xlink:href="#rim" fill="#404040">
                        <set attributeName="fill" to="#808080" begin="arrowUp.mouseover" end="arrowUp.mouseout"/>
                  </use>
                  <path fill="none" stroke="white" stroke-width="1.5" d="M0,-3.0v7 M-2.5,-0.5L0,-3.0L2.5,-0.5"/>
                </g>
                <g id="arrowRight" xlink:href="#dirArrow" transform="rotate(90) translate(36 -43)" onmousedown="handlePan(1,0)">
                  <use xlink:href="#rim" fill="#404040">
                        <set attributeName="fill" to="#808080" begin="arrowRight.mouseover" end="arrowRight.mouseout"/>
                  </use>
                  <path fill="none" stroke="white" stroke-width="1.5" d="M0,-3.0v7 M-2.5,-0.5L0,-3.0L2.5,-0.5"/>
                </g>
                <g id="arrowDown" xlink:href="#dirArrow" transform="rotate(180) translate(-30 -48)" onmousedown="handlePan(0,1)">
                  <use xlink:href="#rim" fill="#404040">
                        <set attributeName="fill" to="#808080" begin="arrowDown.mouseover" end="arrowDown.mouseout"/>
                  </use>
                  <path fill="none" stroke="white" stroke-width="1.5" d="M0,-3.0v7 M-2.5,-0.5L0,-3.0L2.5,-0.5"/>
                </g>
                <g id="arrowLeft" xlink:href="#dirArrow" transform="rotate(270) translate(-36 17)" onmousedown="handlePan(-1,0)">
                  <use xlink:href="#rim" fill="#404040">
                        <set attributeName="fill" to="#808080" begin="arrowLeft.mouseover" end="arrowLeft.mouseout"/>
                  </use>
                  <path fill="none" stroke="white" stroke-width="1.5" d="M0,-3.0v7 M-2.5,-0.5L0,-3.0L2.5,-0.5"/>
                </g>
        </g>
        <svg viewBox="0 0 15 15" width="100%" height="30px" preserveAspectRatio="xMaxYMin meet">
         <g id="arrow_out" transform="scale(0.3 0.3)">
          <a xlink:href="classopenage_1_1_asset_manager_afe3aaab160ddd411afb365186d7deea4_cgraph_org.svg" target="_base">
           <rect id="button" ry="5" rx="5" y="6" x="6" height="38" width="38"
                fill="#f2f5e9" fill-opacity="0.5" stroke="#606060" stroke-width="1.0"/>
           <path id="arrow"
             d="M 11.500037,31.436501 C 11.940474,20.09759 22.043105,11.32322 32.158766,21.979434 L 37.068811,17.246167 C 37.068811,17.246167 37.088388,32 37.088388,32 L 22.160133,31.978069 C 22.160133,31.978069 26.997745,27.140456 26.997745,27.140456 C 18.528582,18.264221 13.291696,25.230495 11.500037,31.436501 z"
             style="fill:#404040;"/>
          </a>
         </g>
        </svg>
</svg>
