<?xml version="1.0" encoding="UTF-8" standalone="no"?>
<!DOCTYPE svg PUBLIC "-//W3C//DTD SVG 1.1//EN"
 "http://www.w3.org/Graphics/SVG/1.1/DTD/svg11.dtd">
<!-- Generated by graphviz version 2.38.0 (20140413.2041)
 -->
<!-- Title: openage.convert.drs.DRS Pages: 1 -->
<svg width="162pt" height="623pt"
 viewBox="0.00 0.00 162.00 623.00" xmlns="http://www.w3.org/2000/svg" xmlns:xlink="http://www.w3.org/1999/xlink">
<g id="graph0" class="graph" transform="scale(1 1) rotate(0) translate(4 619)">
<title>openage.convert.drs.DRS</title>
<polygon fill="white" stroke="none" points="-4,4 -4,-619 158,-619 158,4 -4,4"/>
<!-- Node4 -->
<g id="node1" class="node"><title>Node4</title>
<g id="a_node1"><a xlink:title="represents a file archive in DRS format.">
<polygon fill="#bfbfbf" stroke="black" points="13.5,-0.5 13.5,-90.5 140.5,-90.5 140.5,-0.5 13.5,-0.5"/>
<text text-anchor="middle" x="77" y="-78.5" font-family="Helvetica,sans-Serif" font-size="10.00">openage.convert.drs.DRS</text>
<polyline fill="none" stroke="black" points="13.5,-71.5 140.5,-71.5 "/>
<text text-anchor="start" x="21.5" y="-59.5" font-family="Helvetica,sans-Serif" font-size="10.00">+ fileobj</text>
<text text-anchor="start" x="21.5" y="-48.5" font-family="Helvetica,sans-Serif" font-size="10.00">+ header</text>
<text text-anchor="start" x="21.5" y="-37.5" font-family="Helvetica,sans-Serif" font-size="10.00">+ tables</text>
<polyline fill="none" stroke="black" points="13.5,-30.5 140.5,-30.5 "/>
<text text-anchor="start" x="21.5" y="-18.5" font-family="Helvetica,sans-Serif" font-size="10.00">+ __init__()</text>
<text text-anchor="start" x="21.5" y="-7.5" font-family="Helvetica,sans-Serif" font-size="10.00">+ read_tables()</text>
</a>
</g>
</g>
<!-- Node5 -->
<g id="node2" class="node"><title>Node5</title>
<g id="a_node2"><a xlink:href="classopenage_1_1util_1_1fslike_1_1filecollection_1_1_file_collection.xhtml" target="_top" xlink:title="FSLikeObject that holds several individual files.">
<polygon fill="white" stroke="black" points="0,-127.5 0,-305.5 154,-305.5 154,-127.5 0,-127.5"/>
<text text-anchor="start" x="8" y="-293.5" font-family="Helvetica,sans-Serif" font-size="10.00">openage.util.fslike.filecollection.</text>
<text text-anchor="middle" x="77" y="-282.5" font-family="Helvetica,sans-Serif" font-size="10.00">FileCollection</text>
<polyline fill="none" stroke="black" points="0,-275.5 154,-275.5 "/>
<text text-anchor="start" x="8" y="-263.5" font-family="Helvetica,sans-Serif" font-size="10.00">+ rootentries</text>
<polyline fill="none" stroke="black" points="0,-256.5 154,-256.5 "/>
<text text-anchor="start" x="8" y="-244.5" font-family="Helvetica,sans-Serif" font-size="10.00">+ __init__()</text>
<text text-anchor="start" x="8" y="-233.5" font-family="Helvetica,sans-Serif" font-size="10.00">+ root()</text>
<text text-anchor="start" x="8" y="-222.5" font-family="Helvetica,sans-Serif" font-size="10.00">+ get_direntries()</text>
<text text-anchor="start" x="8" y="-211.5" font-family="Helvetica,sans-Serif" font-size="10.00">+ add_fileentry()</text>
<text text-anchor="start" x="8" y="-200.5" font-family="Helvetica,sans-Serif" font-size="10.00">+ get_fileentry()</text>
<text text-anchor="start" x="8" y="-189.5" font-family="Helvetica,sans-Serif" font-size="10.00">+ open_r()</text>
<text text-anchor="start" x="8" y="-178.5" font-family="Helvetica,sans-Serif" font-size="10.00">+ open_w()</text>
<text text-anchor="start" x="8" y="-167.5" font-family="Helvetica,sans-Serif" font-size="10.00">+ list()</text>
<text text-anchor="start" x="8" y="-156.5" font-family="Helvetica,sans-Serif" font-size="10.00">+ filesize()</text>
<text text-anchor="start" x="8" y="-145.5" font-family="Helvetica,sans-Serif" font-size="10.00">+ mtime()</text>
<text text-anchor="start" x="8" y="-134.5" font-family="Helvetica,sans-Serif" font-size="10.00">and 10 more...</text>
</a>
</g>
</g>
<!-- Node5&#45;&gt;Node4 -->
<g id="edge1" class="edge"><title>Node5&#45;&gt;Node4</title>
<path fill="none" stroke="midnightblue" d="M77,-117.031C77,-107.869 77,-98.9325 77,-90.6682"/>
<polygon fill="none" stroke="midnightblue" points="73.5001,-117.04 77,-127.04 80.5001,-117.04 73.5001,-117.04"/>
</g>
<!-- Node6 -->
<g id="node3" class="node"><title>Node6</title>
<g id="a_node3"><a xlink:href="classopenage_1_1util_1_1fslike_1_1abstract_1_1_f_s_like_object.xhtml" target="_top" xlink:title=" ">
<polygon fill="white" stroke="black" points="9,-342.5 9,-520.5 145,-520.5 145,-342.5 9,-342.5"/>
<text text-anchor="start" x="17" y="-508.5" font-family="Helvetica,sans-Serif" font-size="10.00">openage.util.fslike.abstract.</text>
<text text-anchor="middle" x="77" y="-497.5" font-family="Helvetica,sans-Serif" font-size="10.00">FSLikeObject</text>
<polyline fill="none" stroke="black" points="9,-490.5 145,-490.5 "/>
<text text-anchor="middle" x="77" y="-478.5" font-family="Helvetica,sans-Serif" font-size="10.00"> </text>
<polyline fill="none" stroke="black" points="9,-471.5 145,-471.5 "/>
<text text-anchor="start" x="17" y="-459.5" font-family="Helvetica,sans-Serif" font-size="10.00">+ root()</text>
<text text-anchor="start" x="17" y="-448.5" font-family="Helvetica,sans-Serif" font-size="10.00">+ pretty()</text>
<text text-anchor="start" x="17" y="-437.5" font-family="Helvetica,sans-Serif" font-size="10.00">+ open_r()</text>
<text text-anchor="start" x="17" y="-426.5" font-family="Helvetica,sans-Serif" font-size="10.00">+ open_w()</text>
<text text-anchor="start" x="17" y="-415.5" font-family="Helvetica,sans-Serif" font-size="10.00">+ open_rw()</text>
<text text-anchor="start" x="17" y="-404.5" font-family="Helvetica,sans-Serif" font-size="10.00">+ open_a()</text>
<text text-anchor="start" x="17" y="-393.5" font-family="Helvetica,sans-Serif" font-size="10.00">+ open_ar()</text>
<text text-anchor="start" x="17" y="-382.5" font-family="Helvetica,sans-Serif" font-size="10.00">+ exists()</text>
<text text-anchor="start" x="17" y="-371.5" font-family="Helvetica,sans-Serif" font-size="10.00">+ resolve_r()</text>
<text text-anchor="start" x="17" y="-360.5" font-family="Helvetica,sans-Serif" font-size="10.00">+ resolve_w()</text>
<text text-anchor="start" x="17" y="-349.5" font-family="Helvetica,sans-Serif" font-size="10.00">and 14 more...</text>
</a>
</g>
</g>
<!-- Node6&#45;&gt;Node5 -->
<g id="edge2" class="edge"><title>Node6&#45;&gt;Node5</title>
<path fill="none" stroke="midnightblue" d="M77,-332.316C77,-323.407 77,-314.42 77,-305.607"/>
<polygon fill="none" stroke="midnightblue" points="73.5001,-332.327 77,-342.327 80.5001,-332.327 73.5001,-332.327"/>
</g>
<!-- Node7 -->
<g id="node4" class="node"><title>Node7</title>
<g id="a_node4"><a xlink:title=" ">
<polygon fill="white" stroke="#bfbfbf" points="58.5,-557.5 58.5,-614.5 95.5,-614.5 95.5,-557.5 58.5,-557.5"/>
<text text-anchor="middle" x="77" y="-602.5" font-family="Helvetica,sans-Serif" font-size="10.00">ABC</text>
<polyline fill="none" stroke="#bfbfbf" points="58.5,-595.5 95.5,-595.5 "/>
<text text-anchor="middle" x="77" y="-583.5" font-family="Helvetica,sans-Serif" font-size="10.00"> </text>
<polyline fill="none" stroke="#bfbfbf" points="58.5,-576.5 95.5,-576.5 "/>
<text text-anchor="middle" x="77" y="-564.5" font-family="Helvetica,sans-Serif" font-size="10.00"> </text>
</a>
</g>
</g>
<!-- Node7&#45;&gt;Node6 -->
<g id="edge3" class="edge"><title>Node7&#45;&gt;Node6</title>
<path fill="none" stroke="midnightblue" d="M77,-547.374C77,-539.089 77,-529.977 77,-520.62"/>
<polygon fill="none" stroke="midnightblue" points="73.5001,-547.383 77,-557.383 80.5001,-547.383 73.5001,-547.383"/>
</g>
</g>
</svg>
