<?xml version="1.0" encoding="UTF-8" standalone="no"?>
<!DOCTYPE svg PUBLIC "-//W3C//DTD SVG 1.1//EN"
 "http://www.w3.org/Graphics/SVG/1.1/DTD/svg11.dtd">
<!-- Generated by graphviz version 2.38.0 (20140413.2041)
 -->
<!-- Title: openage::util::compress::BitStream::remove_bits Pages: 1 -->
<svg width="319pt" height="100pt"
 viewBox="0.00 0.00 319.00 99.50" xmlns="http://www.w3.org/2000/svg" xmlns:xlink="http://www.w3.org/1999/xlink">
<g id="graph0" class="graph" transform="scale(1 1) rotate(0) translate(4 95.5)">
<title>openage::util::compress::BitStream::remove_bits</title>
<polygon fill="white" stroke="none" points="-4,4 -4,-95.5 315,-95.5 315,4 -4,4"/>
<!-- Node53 -->
<g id="node1" class="node"><title>Node53</title>
<g id="a_node1"><a xlink:title="for use in bitstream mode.">
<polygon fill="#bfbfbf" stroke="black" points="187,-27.5 187,-57.5 311,-57.5 311,-27.5 187,-27.5"/>
<text text-anchor="start" x="195" y="-45.5" font-family="Helvetica,sans-Serif" font-size="10.00">openage::util::compress</text>
<text text-anchor="middle" x="249" y="-34.5" font-family="Helvetica,sans-Serif" font-size="10.00">::BitStream::remove_bits</text>
</a>
</g>
</g>
<!-- Node54 -->
<g id="node2" class="node"><title>Node54</title>
<g id="a_node2"><a xlink:href="classopenage_1_1util_1_1compress_1_1_bit_stream.xhtml#a29bf6b73c439be6e72434af82309bc54" target="_top" xlink:title="for use in bitstream mode.">
<polygon fill="white" stroke="black" points="10,-50 10,-91 141,-91 141,-50 10,-50"/>
<text text-anchor="start" x="18" y="-79" font-family="Helvetica,sans-Serif" font-size="10.00">openage::util::compress</text>
<text text-anchor="start" x="18" y="-68" font-family="Helvetica,sans-Serif" font-size="10.00">::BitStream&lt; 4096 &gt;::align</text>
<text text-anchor="middle" x="75.5" y="-57" font-family="Helvetica,sans-Serif" font-size="10.00">_bitstream</text>
</a>
</g>
</g>
<!-- Node53&#45;&gt;Node54 -->
<g id="edge1" class="edge"><title>Node53&#45;&gt;Node54</title>
<path fill="none" stroke="midnightblue" d="M176.436,-54.1839C164.775,-56.0878 152.753,-58.0505 141.267,-59.9258"/>
<polygon fill="midnightblue" stroke="midnightblue" points="177.264,-57.5952 186.569,-52.5296 176.136,-50.6867 177.264,-57.5952"/>
</g>
<!-- Node55 -->
<g id="node3" class="node"><title>Node55</title>
<g id="a_node3"><a xlink:href="classopenage_1_1util_1_1compress_1_1_bit_stream.xhtml#af4522bbae0ee989e1f5b45606fb2e673" target="_top" xlink:title="for use in bitstream mode.">
<polygon fill="white" stroke="black" points="0,-0.5 0,-30.5 151,-30.5 151,-0.5 0,-0.5"/>
<text text-anchor="start" x="8" y="-18.5" font-family="Helvetica,sans-Serif" font-size="10.00">openage::util::compress</text>
<text text-anchor="middle" x="75.5" y="-7.5" font-family="Helvetica,sans-Serif" font-size="10.00">::BitStream&lt; 4096 &gt;::read_bits</text>
</a>
</g>
</g>
<!-- Node53&#45;&gt;Node55 -->
<g id="edge2" class="edge"><title>Node53&#45;&gt;Node55</title>
<path fill="none" stroke="midnightblue" d="M176.515,-31.2458C168.179,-29.9334 159.658,-28.5919 151.279,-27.2728"/>
<polygon fill="midnightblue" stroke="midnightblue" points="176.146,-34.7308 186.569,-32.8286 177.235,-27.816 176.146,-34.7308"/>
</g>
</g>
</svg>
