<?xml version="1.0" encoding="UTF-8" standalone="no"?>
<!DOCTYPE svg PUBLIC "-//W3C//DTD SVG 1.1//EN"
 "http://www.w3.org/Graphics/SVG/1.1/DTD/svg11.dtd">
<!-- Generated by graphviz version 2.38.0 (20140413.2041)
 -->
<!-- Title: openage::gui::GuiGameSpecImageProviderByFilenameImpl Pages: 1 -->
<svg width="188pt" height="667pt"
 viewBox="0.00 0.00 188.00 667.00" xmlns="http://www.w3.org/2000/svg" xmlns:xlink="http://www.w3.org/1999/xlink">
<g id="graph0" class="graph" transform="scale(1 1) rotate(0) translate(4 663)">
<title>openage::gui::GuiGameSpecImageProviderByFilenameImpl</title>
<polygon fill="white" stroke="none" points="-4,4 -4,-663 184,-663 184,4 -4,4"/>
<!-- Node0 -->
<g id="node1" class="node"><title>Node0</title>
<g id="a_node1"><a xlink:title=" ">
<polygon fill="#bfbfbf" stroke="black" points="12,-0.5 12,-134.5 168,-134.5 168,-0.5 12,-0.5"/>
<text text-anchor="start" x="20" y="-122.5" font-family="Helvetica,sans-Serif" font-size="10.00">openage::gui::GuiGameSpec</text>
<text text-anchor="middle" x="90" y="-111.5" font-family="Helvetica,sans-Serif" font-size="10.00">ImageProviderByFilenameImpl</text>
<polyline fill="none" stroke="black" points="12,-104.5 168,-104.5 "/>
<text text-anchor="middle" x="90" y="-92.5" font-family="Helvetica,sans-Serif" font-size="10.00"> </text>
<polyline fill="none" stroke="black" points="12,-85.5 168,-85.5 "/>
<text text-anchor="start" x="20" y="-73.5" font-family="Helvetica,sans-Serif" font-size="10.00">+ GuiGameSpecImageProvider</text>
<text text-anchor="start" x="20" y="-62.5" font-family="Helvetica,sans-Serif" font-size="10.00">ByFilenameImpl()</text>
<text text-anchor="start" x="20" y="-51.5" font-family="Helvetica,sans-Serif" font-size="10.00">+ ~GuiGameSpecImageProvider</text>
<text text-anchor="start" x="20" y="-40.5" font-family="Helvetica,sans-Serif" font-size="10.00">ByFilenameImpl()</text>
<text text-anchor="start" x="20" y="-29.5" font-family="Helvetica,sans-Serif" font-size="10.00">+ id()</text>
<text text-anchor="start" x="20" y="-18.5" font-family="Helvetica,sans-Serif" font-size="10.00">&#45; get_id()</text>
<text text-anchor="start" x="20" y="-7.5" font-family="Helvetica,sans-Serif" font-size="10.00">&#45; get_texture_handle()</text>
</a>
</g>
</g>
<!-- Node1 -->
<g id="node2" class="node"><title>Node1</title>
<g id="a_node2"><a xlink:href="classopenage_1_1gui_1_1_gui_game_spec_image_provider_impl.xhtml" target="_top" xlink:title=" ">
<polygon fill="white" stroke="black" points="0,-171.5 0,-415.5 180,-415.5 180,-171.5 0,-171.5"/>
<text text-anchor="start" x="8" y="-403.5" font-family="Helvetica,sans-Serif" font-size="10.00">openage::gui::GuiGameSpec</text>
<text text-anchor="middle" x="90" y="-392.5" font-family="Helvetica,sans-Serif" font-size="10.00">ImageProviderImpl</text>
<polyline fill="none" stroke="black" points="0,-385.5 180,-385.5 "/>
<text text-anchor="start" x="8" y="-373.5" font-family="Helvetica,sans-Serif" font-size="10.00"># loaded_game_spec</text>
<text text-anchor="start" x="8" y="-362.5" font-family="Helvetica,sans-Serif" font-size="10.00"># invalidated</text>
<text text-anchor="start" x="8" y="-351.5" font-family="Helvetica,sans-Serif" font-size="10.00">&#45; filled_handles</text>
<text text-anchor="start" x="8" y="-340.5" font-family="Helvetica,sans-Serif" font-size="10.00">&#45; loaded_game_spec_mutex</text>
<text text-anchor="start" x="8" y="-329.5" font-family="Helvetica,sans-Serif" font-size="10.00">&#45; loaded_game_spec_cond</text>
<text text-anchor="start" x="8" y="-318.5" font-family="Helvetica,sans-Serif" font-size="10.00">&#45; ended</text>
<text text-anchor="start" x="8" y="-307.5" font-family="Helvetica,sans-Serif" font-size="10.00">&#45; render_thread_callback</text>
<polyline fill="none" stroke="black" points="0,-300.5 180,-300.5 "/>
<text text-anchor="start" x="8" y="-288.5" font-family="Helvetica,sans-Serif" font-size="10.00">+ GuiGameSpecImageProviderImpl()</text>
<text text-anchor="start" x="8" y="-277.5" font-family="Helvetica,sans-Serif" font-size="10.00">+ ~GuiGameSpecImageProviderImpl()</text>
<text text-anchor="start" x="8" y="-266.5" font-family="Helvetica,sans-Serif" font-size="10.00">+ on_game_spec_loaded()</text>
<text text-anchor="start" x="8" y="-255.5" font-family="Helvetica,sans-Serif" font-size="10.00">+ on_game_spec_invalidated()</text>
<text text-anchor="start" x="8" y="-244.5" font-family="Helvetica,sans-Serif" font-size="10.00">+ fill_texture_handle()</text>
<text text-anchor="start" x="8" y="-233.5" font-family="Helvetica,sans-Serif" font-size="10.00"># get_missing_texture()</text>
<text text-anchor="start" x="8" y="-222.5" font-family="Helvetica,sans-Serif" font-size="10.00">&#45; get_texture_handle()</text>
<text text-anchor="start" x="8" y="-211.5" font-family="Helvetica,sans-Serif" font-size="10.00">&#45; requestTexture()</text>
<text text-anchor="start" x="8" y="-200.5" font-family="Helvetica,sans-Serif" font-size="10.00">&#45; give_up()</text>
<text text-anchor="start" x="8" y="-189.5" font-family="Helvetica,sans-Serif" font-size="10.00">&#45; migrate_to_new_game_spec()</text>
<text text-anchor="start" x="8" y="-178.5" font-family="Helvetica,sans-Serif" font-size="10.00">&#45; overwrite_texture_handle()</text>
</a>
</g>
</g>
<!-- Node1&#45;&gt;Node0 -->
<g id="edge1" class="edge"><title>Node1&#45;&gt;Node0</title>
<path fill="none" stroke="midnightblue" d="M90,-161.053C90,-152.012 90,-143.146 90,-134.699"/>
<polygon fill="none" stroke="midnightblue" points="86.5001,-161.322 90,-171.322 93.5001,-161.322 86.5001,-161.322"/>
</g>
<!-- Node2 -->
<g id="node3" class="node"><title>Node2</title>
<g id="a_node3"><a xlink:href="classqtsdl_1_1_gui_image_provider_impl.xhtml" target="_top" xlink:title=" ">
<polygon fill="white" stroke="black" points="21.5,-452.5 21.5,-564.5 158.5,-564.5 158.5,-452.5 21.5,-452.5"/>
<text text-anchor="middle" x="90" y="-552.5" font-family="Helvetica,sans-Serif" font-size="10.00">qtsdl::GuiImageProviderImpl</text>
<polyline fill="none" stroke="black" points="21.5,-545.5 158.5,-545.5 "/>
<text text-anchor="middle" x="90" y="-533.5" font-family="Helvetica,sans-Serif" font-size="10.00"> </text>
<polyline fill="none" stroke="black" points="21.5,-526.5 158.5,-526.5 "/>
<text text-anchor="start" x="29.5" y="-514.5" font-family="Helvetica,sans-Serif" font-size="10.00">+ GuiImageProviderImpl()</text>
<text text-anchor="start" x="29.5" y="-503.5" font-family="Helvetica,sans-Serif" font-size="10.00">+ ~GuiImageProviderImpl()</text>
<text text-anchor="start" x="29.5" y="-492.5" font-family="Helvetica,sans-Serif" font-size="10.00">+ get_id()</text>
<text text-anchor="start" x="29.5" y="-481.5" font-family="Helvetica,sans-Serif" font-size="10.00">+ give_up()</text>
<text text-anchor="start" x="29.5" y="-470.5" font-family="Helvetica,sans-Serif" font-size="10.00">+ take_ownership()</text>
<text text-anchor="start" x="29.5" y="-459.5" font-family="Helvetica,sans-Serif" font-size="10.00">+ take_ownership()</text>
</a>
</g>
</g>
<!-- Node2&#45;&gt;Node1 -->
<g id="edge2" class="edge"><title>Node2&#45;&gt;Node1</title>
<path fill="none" stroke="midnightblue" d="M90,-442.186C90,-433.652 90,-424.701 90,-415.605"/>
<polygon fill="none" stroke="midnightblue" points="86.5001,-442.37 90,-452.37 93.5001,-442.37 86.5001,-442.37"/>
</g>
<!-- Node3 -->
<g id="node4" class="node"><title>Node3</title>
<g id="a_node4"><a xlink:title=" ">
<polygon fill="white" stroke="#bfbfbf" points="35,-601.5 35,-658.5 145,-658.5 145,-601.5 35,-601.5"/>
<text text-anchor="middle" x="90" y="-646.5" font-family="Helvetica,sans-Serif" font-size="10.00">QQuickImageProvider</text>
<polyline fill="none" stroke="#bfbfbf" points="35,-639.5 145,-639.5 "/>
<text text-anchor="middle" x="90" y="-627.5" font-family="Helvetica,sans-Serif" font-size="10.00"> </text>
<polyline fill="none" stroke="#bfbfbf" points="35,-620.5 145,-620.5 "/>
<text text-anchor="middle" x="90" y="-608.5" font-family="Helvetica,sans-Serif" font-size="10.00"> </text>
</a>
</g>
</g>
<!-- Node3&#45;&gt;Node2 -->
<g id="edge3" class="edge"><title>Node3&#45;&gt;Node2</title>
<path fill="none" stroke="midnightblue" d="M90,-591.108C90,-582.748 90,-573.725 90,-564.834"/>
<polygon fill="none" stroke="midnightblue" points="86.5001,-591.284 90,-601.284 93.5001,-591.284 86.5001,-591.284"/>
</g>
</g>
</svg>
