<?xml version="1.0" encoding="UTF-8" standalone="no"?>
<!DOCTYPE svg PUBLIC "-//W3C//DTD SVG 1.1//EN"
 "http://www.w3.org/Graphics/SVG/1.1/DTD/svg11.dtd">
<!-- Generated by graphviz version 2.38.0 (20140413.2041)
 -->
<!-- Title: openage::util::Quaternion::equals_rad Pages: 1 -->
<svg width="430pt" height="61pt"
 viewBox="0.00 0.00 430.00 61.00" xmlns="http://www.w3.org/2000/svg" xmlns:xlink="http://www.w3.org/1999/xlink">
<g id="graph0" class="graph" transform="scale(1 1) rotate(0) translate(4 57)">
<title>openage::util::Quaternion::equals_rad</title>
<polygon fill="white" stroke="none" points="-4,4 -4,-57 426,-57 426,4 -4,4"/>
<!-- Node59 -->
<g id="node1" class="node"><title>Node59</title>
<g id="a_node1"><a xlink:title=" ">
<polygon fill="#bfbfbf" stroke="black" points="297,-0.5 297,-30.5 422,-30.5 422,-0.5 297,-0.5"/>
<text text-anchor="start" x="305" y="-18.5" font-family="Helvetica,sans-Serif" font-size="10.00">openage::util::Quaternion</text>
<text text-anchor="middle" x="359.5" y="-7.5" font-family="Helvetica,sans-Serif" font-size="10.00">::equals_rad</text>
</a>
</g>
</g>
<!-- Node60 -->
<g id="node2" class="node"><title>Node60</title>
<g id="a_node2"><a xlink:href="classopenage_1_1util_1_1_quaternion.xhtml#a2e1d1f1785181562048952f28858bea9" target="_top" xlink:title=" ">
<polygon fill="white" stroke="black" points="136,-22.5 136,-52.5 261,-52.5 261,-22.5 136,-22.5"/>
<text text-anchor="start" x="144" y="-40.5" font-family="Helvetica,sans-Serif" font-size="10.00">openage::util::Quaternion</text>
<text text-anchor="middle" x="198.5" y="-29.5" font-family="Helvetica,sans-Serif" font-size="10.00">::equals_deg</text>
</a>
</g>
</g>
<!-- Node59&#45;&gt;Node60 -->
<g id="edge1" class="edge"><title>Node59&#45;&gt;Node60</title>
<path fill="none" stroke="midnightblue" d="M286.408,-25.475C278.01,-26.637 269.501,-27.8143 261.26,-28.9546"/>
<polygon fill="midnightblue" stroke="midnightblue" points="287.145,-28.9064 296.571,-24.0688 286.186,-21.9725 287.145,-28.9064"/>
</g>
<!-- Node61 -->
<g id="node3" class="node"><title>Node61</title>
<g id="a_node3"><a xlink:href="namespaceopenage_1_1util_1_1tests.xhtml#ab3f1d081c603b383598beeee8e4429df" target="_top" xlink:title=" ">
<polygon fill="white" stroke="black" points="0,-0.5 0,-30.5 100,-30.5 100,-0.5 0,-0.5"/>
<text text-anchor="start" x="8" y="-18.5" font-family="Helvetica,sans-Serif" font-size="10.00">openage::util::tests</text>
<text text-anchor="middle" x="50" y="-7.5" font-family="Helvetica,sans-Serif" font-size="10.00">::quaternion</text>
</a>
</g>
</g>
<!-- Node59&#45;&gt;Node61 -->
<g id="edge3" class="edge"><title>Node59&#45;&gt;Node61</title>
<path fill="none" stroke="midnightblue" d="M286.744,-13.8608C278.071,-13.7121 269.335,-13.5855 261,-13.5 205.447,-12.9303 191.552,-12.8465 136,-13.5 124.487,-13.6354 112.099,-13.874 100.438,-14.1403"/>
<polygon fill="midnightblue" stroke="midnightblue" points="286.808,-17.3624 296.87,-14.0444 286.935,-10.3635 286.808,-17.3624"/>
</g>
<!-- Node60&#45;&gt;Node61 -->
<g id="edge2" class="edge"><title>Node60&#45;&gt;Node61</title>
<path fill="none" stroke="midnightblue" d="M125.697,-26.7172C117.059,-25.4201 108.394,-24.1189 100.184,-22.8859"/>
<polygon fill="midnightblue" stroke="midnightblue" points="125.386,-30.2098 135.795,-28.2338 126.426,-23.2875 125.386,-30.2098"/>
</g>
</g>
</svg>
