<?xml version="1.0" encoding="UTF-8" standalone="no"?>
<!DOCTYPE svg PUBLIC "-//W3C//DTD SVG 1.1//EN"
 "http://www.w3.org/Graphics/SVG/1.1/DTD/svg11.dtd">
<!-- Generated by graphviz version 2.38.0 (20140413.2041)
 -->
<!-- Title: openage.util.struct.Flags Pages: 1 -->
<svg width="234pt" height="287pt"
 viewBox="0.00 0.00 234.00 287.00" xmlns="http://www.w3.org/2000/svg" xmlns:xlink="http://www.w3.org/1999/xlink">
<g id="graph0" class="graph" transform="scale(1 1) rotate(0) translate(4 283)">
<title>openage.util.struct.Flags</title>
<polygon fill="white" stroke="none" points="-4,4 -4,-283 230,-283 230,4 -4,4"/>
<!-- Node6 -->
<g id="node1" class="node"><title>Node6</title>
<g id="a_node1"><a xlink:title="Designed to be inherited from, similar to Enum.">
<polygon fill="#bfbfbf" stroke="black" points="30,-0.5 30,-90.5 154,-90.5 154,-0.5 30,-0.5"/>
<text text-anchor="middle" x="92" y="-78.5" font-family="Helvetica,sans-Serif" font-size="10.00">openage.util.struct.Flags</text>
<polyline fill="none" stroke="black" points="30,-71.5 154,-71.5 "/>
<text text-anchor="start" x="38" y="-59.5" font-family="Helvetica,sans-Serif" font-size="10.00">&#45; _flags</text>
<polyline fill="none" stroke="black" points="30,-52.5 154,-52.5 "/>
<text text-anchor="start" x="38" y="-40.5" font-family="Helvetica,sans-Serif" font-size="10.00">+ __init__()</text>
<text text-anchor="start" x="38" y="-29.5" font-family="Helvetica,sans-Serif" font-size="10.00">+ unknown()</text>
<text text-anchor="start" x="38" y="-18.5" font-family="Helvetica,sans-Serif" font-size="10.00">+ as_dict()</text>
<text text-anchor="start" x="38" y="-7.5" font-family="Helvetica,sans-Serif" font-size="10.00">+ __repr__()</text>
</a>
</g>
</g>
<!-- Node7 -->
<g id="node2" class="node"><title>Node7</title>
<g id="a_node2"><a xlink:title=" ">
<polygon fill="white" stroke="#bfbfbf" points="0,-127.5 0,-184.5 62,-184.5 62,-127.5 0,-127.5"/>
<text text-anchor="middle" x="31" y="-172.5" font-family="Helvetica,sans-Serif" font-size="10.00">metaclass</text>
<polyline fill="none" stroke="#bfbfbf" points="0,-165.5 62,-165.5 "/>
<text text-anchor="middle" x="31" y="-153.5" font-family="Helvetica,sans-Serif" font-size="10.00"> </text>
<polyline fill="none" stroke="#bfbfbf" points="0,-146.5 62,-146.5 "/>
<text text-anchor="middle" x="31" y="-134.5" font-family="Helvetica,sans-Serif" font-size="10.00"> </text>
</a>
</g>
</g>
<!-- Node7&#45;&gt;Node6 -->
<g id="edge1" class="edge"><title>Node7&#45;&gt;Node6</title>
<path fill="none" stroke="midnightblue" d="M51.6081,-118.345C56.6257,-109.42 62.0438,-99.7828 67.2323,-90.5541"/>
<polygon fill="none" stroke="midnightblue" points="48.4006,-116.908 46.5507,-127.34 54.5024,-120.339 48.4006,-116.908"/>
</g>
<!-- Node8 -->
<g id="node3" class="node"><title>Node8</title>
<g id="a_node3"><a xlink:href="classopenage_1_1util_1_1struct_1_1_flags_meta.xhtml" target="_top" xlink:title="Metaclass for Flags.">
<polygon fill="white" stroke="black" points="80,-127.5 80,-184.5 226,-184.5 226,-127.5 80,-127.5"/>
<text text-anchor="middle" x="153" y="-172.5" font-family="Helvetica,sans-Serif" font-size="10.00">openage.util.struct.FlagsMeta</text>
<polyline fill="none" stroke="black" points="80,-165.5 226,-165.5 "/>
<text text-anchor="middle" x="153" y="-153.5" font-family="Helvetica,sans-Serif" font-size="10.00"> </text>
<polyline fill="none" stroke="black" points="80,-146.5 226,-146.5 "/>
<text text-anchor="start" x="88" y="-134.5" font-family="Helvetica,sans-Serif" font-size="10.00">+ __new__()</text>
</a>
</g>
</g>
<!-- Node8&#45;&gt;Node6 -->
<g id="edge2" class="edge"><title>Node8&#45;&gt;Node6</title>
<path fill="none" stroke="midnightblue" d="M132.392,-118.345C127.374,-109.42 121.956,-99.7828 116.768,-90.5541"/>
<polygon fill="none" stroke="midnightblue" points="129.498,-120.339 137.449,-127.34 135.599,-116.908 129.498,-120.339"/>
</g>
<!-- Node9 -->
<g id="node4" class="node"><title>Node9</title>
<g id="a_node4"><a xlink:title=" ">
<polygon fill="white" stroke="#bfbfbf" points="135.5,-221.5 135.5,-278.5 170.5,-278.5 170.5,-221.5 135.5,-221.5"/>
<text text-anchor="middle" x="153" y="-266.5" font-family="Helvetica,sans-Serif" font-size="10.00">type</text>
<polyline fill="none" stroke="#bfbfbf" points="135.5,-259.5 170.5,-259.5 "/>
<text text-anchor="middle" x="153" y="-247.5" font-family="Helvetica,sans-Serif" font-size="10.00"> </text>
<polyline fill="none" stroke="#bfbfbf" points="135.5,-240.5 170.5,-240.5 "/>
<text text-anchor="middle" x="153" y="-228.5" font-family="Helvetica,sans-Serif" font-size="10.00"> </text>
</a>
</g>
</g>
<!-- Node9&#45;&gt;Node8 -->
<g id="edge3" class="edge"><title>Node9&#45;&gt;Node8</title>
<path fill="none" stroke="midnightblue" d="M153,-211.209C153,-202.293 153,-192.951 153,-184.584"/>
<polygon fill="none" stroke="midnightblue" points="149.5,-211.397 153,-221.397 156.5,-211.397 149.5,-211.397"/>
</g>
</g>
</svg>
