<?xml version="1.0" encoding="UTF-8" standalone="no"?>
<!DOCTYPE svg PUBLIC "-//W3C//DTD SVG 1.1//EN"
 "http://www.w3.org/Graphics/SVG/1.1/DTD/svg11.dtd">
<!-- Generated by graphviz version 2.38.0 (20140413.2041)
 -->
<!-- Title: openage::GameSpec::create_unit_types Pages: 1 -->
<!--zoomable 235 -->
<svg id="main" version="1.1" xmlns="http://www.w3.org/2000/svg" xmlns:xlink="http://www.w3.org/1999/xlink" xml:space="preserve" onload="init(evt)">
<style type="text/css"><![CDATA[
.edge:hover path { stroke: red; }
.edge:hover polygon { stroke: red; fill: red; }
]]></style>
<script type="text/javascript"><![CDATA[
var edges = document.getElementsByTagName('g');
if (edges && edges.length) {
  for (var i=0;i<edges.length;i++) {
    if (edges[i].id.substr(0,4)=='edge') {
      edges[i].setAttribute('class','edge');
    }
  }
}
]]></script>
        <defs>
                <circle id="rim" cx="0" cy="0" r="7"/>
                <circle id="rim2" cx="0" cy="0" r="3.5"/>
                <g id="zoomPlus">
                        <use xlink:href="#rim" fill="#404040">
                                <set attributeName="fill" to="#808080" begin="zoomplus.mouseover" end="zoomplus.mouseout"/>
                        </use>
                        <path d="M-4,0h8M0,-4v8" fill="none" stroke="white" stroke-width="1.5" pointer-events="none"/>
                </g>
                <g id="zoomMin">
                        <use xlink:href="#rim" fill="#404040">
                                <set attributeName="fill" to="#808080" begin="zoomminus.mouseover" end="zoomminus.mouseout"/>
                        </use>
                        <path d="M-4,0h8" fill="none" stroke="white" stroke-width="1.5" pointer-events="none"/>
                </g>
                <g id="dirArrow">
                        <path fill="none" stroke="white" stroke-width="1.5" d="M0,-3.0v7 M-2.5,-0.5L0,-3.0L2.5,-0.5"/>
                </g>
               <g id="resetDef">
                       <use xlink:href="#rim2" fill="#404040">
                               <set attributeName="fill" to="#808080" begin="reset.mouseover" end="reset.mouseout"/>
                       </use>
               </g>
        </defs>

<script type="text/javascript">
var viewWidth = 734;
var viewHeight = 235;
var sectionId = 'dynsection-3';
</script>
<script xlink:href="svgpan.js"/>
<svg id="graph" class="graph">
<g id="viewport">
<title>openage::GameSpec::create_unit_types</title>
<polygon fill="white" stroke="none" points="-4,4 -4,-231 730,-231 730,4 -4,4"/>
<!-- Node11 -->
<g id="node1" class="node"><title>Node11</title>
<g id="a_node1"><a xlink:title=" ">
<polygon fill="#bfbfbf" stroke="black" points="0,-98.5 0,-128.5 114,-128.5 114,-98.5 0,-98.5"/>
<text text-anchor="start" x="8" y="-116.5" font-family="Helvetica,sans-Serif" font-size="10.00">openage::GameSpec::</text>
<text text-anchor="middle" x="57" y="-105.5" font-family="Helvetica,sans-Serif" font-size="10.00">create_unit_types</text>
</a>
</g>
</g>
<!-- Node12 -->
<g id="node2" class="node"><title>Node12</title>
<g id="a_node2"><a xlink:href="classopenage_1_1_game_spec.xhtml#acbe30bd72e3a9ef46c461e497d726711" target="_top" xlink:title=" ">
<polygon fill="white" stroke="black" points="150,-147.5 150,-177.5 264,-177.5 264,-147.5 150,-147.5"/>
<text text-anchor="start" x="158" y="-165.5" font-family="Helvetica,sans-Serif" font-size="10.00">openage::GameSpec::</text>
<text text-anchor="middle" x="207" y="-154.5" font-family="Helvetica,sans-Serif" font-size="10.00">load_building</text>
</a>
</g>
</g>
<!-- Node11&#45;&gt;Node12 -->
<g id="edge1" class="edge"><title>Node11&#45;&gt;Node12</title>
<path fill="none" stroke="midnightblue" d="M103.613,-128.601C118.594,-133.562 135.405,-139.127 151.007,-144.293"/>
<polygon fill="midnightblue" stroke="midnightblue" points="149.945,-147.628 160.538,-147.448 152.145,-140.983 149.945,-147.628"/>
</g>
<!-- Node17 -->
<g id="node7" class="node"><title>Node17</title>
<g id="a_node7"><a xlink:href="classopenage_1_1_game_spec.xhtml#a19adf3ebe5c03a18675ef8dcd0a3c0d5" target="_top" xlink:title=" ">
<polygon fill="white" stroke="black" points="150,-0.5 150,-30.5 264,-30.5 264,-0.5 150,-0.5"/>
<text text-anchor="start" x="158" y="-18.5" font-family="Helvetica,sans-Serif" font-size="10.00">openage::GameSpec::</text>
<text text-anchor="middle" x="207" y="-7.5" font-family="Helvetica,sans-Serif" font-size="10.00">load_complete</text>
</a>
</g>
</g>
<!-- Node11&#45;&gt;Node17 -->
<g id="edge7" class="edge"><title>Node11&#45;&gt;Node17</title>
<path fill="none" stroke="midnightblue" d="M73.9416,-98.407C91.5335,-82.3157 121.187,-56.8163 150,-39.5 152.591,-37.9429 155.301,-36.4344 158.072,-34.9829"/>
<polygon fill="midnightblue" stroke="midnightblue" points="159.635,-38.1147 167.055,-30.5523 156.538,-31.8368 159.635,-38.1147"/>
</g>
<!-- Node18 -->
<g id="node8" class="node"><title>Node18</title>
<g id="a_node8"><a xlink:href="classopenage_1_1_game_spec.xhtml#a51a1664688173a588e6ead16703f8e82" target="_top" xlink:title=" ">
<polygon fill="white" stroke="black" points="150,-98.5 150,-128.5 264,-128.5 264,-98.5 150,-98.5"/>
<text text-anchor="start" x="158" y="-116.5" font-family="Helvetica,sans-Serif" font-size="10.00">openage::GameSpec::</text>
<text text-anchor="middle" x="207" y="-105.5" font-family="Helvetica,sans-Serif" font-size="10.00">load_living</text>
</a>
</g>
</g>
<!-- Node11&#45;&gt;Node18 -->
<g id="edge8" class="edge"><title>Node11&#45;&gt;Node18</title>
<path fill="none" stroke="midnightblue" d="M114.375,-113.5C122.621,-113.5 131.178,-113.5 139.602,-113.5"/>
<polygon fill="midnightblue" stroke="midnightblue" points="139.782,-117 149.782,-113.5 139.782,-110 139.782,-117"/>
</g>
<!-- Node19 -->
<g id="node9" class="node"><title>Node19</title>
<g id="a_node9"><a xlink:href="classopenage_1_1_game_spec.xhtml#a67579e89ee667f00dc301433a23458af" target="_top" xlink:title=" ">
<polygon fill="white" stroke="black" points="150,-49.5 150,-79.5 264,-79.5 264,-49.5 150,-49.5"/>
<text text-anchor="start" x="158" y="-67.5" font-family="Helvetica,sans-Serif" font-size="10.00">openage::GameSpec::</text>
<text text-anchor="middle" x="207" y="-56.5" font-family="Helvetica,sans-Serif" font-size="10.00">load_missile</text>
</a>
</g>
</g>
<!-- Node11&#45;&gt;Node19 -->
<g id="edge11" class="edge"><title>Node11&#45;&gt;Node19</title>
<path fill="none" stroke="midnightblue" d="M103.613,-98.3986C118.594,-93.4385 135.405,-87.8726 151.007,-82.7071"/>
<polygon fill="midnightblue" stroke="midnightblue" points="152.145,-86.0173 160.538,-79.5516 149.945,-79.372 152.145,-86.0173"/>
</g>
<!-- Node20 -->
<g id="node10" class="node"><title>Node20</title>
<g id="a_node10"><a xlink:href="classopenage_1_1_game_spec.xhtml#af210d4508dea9f8f87aa98c3fc0e3359" target="_top" xlink:title=" ">
<polygon fill="white" stroke="black" points="150,-196.5 150,-226.5 264,-226.5 264,-196.5 150,-196.5"/>
<text text-anchor="start" x="158" y="-214.5" font-family="Helvetica,sans-Serif" font-size="10.00">openage::GameSpec::</text>
<text text-anchor="middle" x="207" y="-203.5" font-family="Helvetica,sans-Serif" font-size="10.00">load_object</text>
</a>
</g>
</g>
<!-- Node11&#45;&gt;Node20 -->
<g id="edge14" class="edge"><title>Node11&#45;&gt;Node20</title>
<path fill="none" stroke="midnightblue" d="M73.9416,-128.593C91.5335,-144.684 121.187,-170.184 150,-187.5 152.591,-189.057 155.301,-190.566 158.072,-192.017"/>
<polygon fill="midnightblue" stroke="midnightblue" points="156.538,-195.163 167.055,-196.448 159.635,-188.885 156.538,-195.163"/>
</g>
<!-- Node13 -->
<g id="node3" class="node"><title>Node13</title>
<g id="a_node3"><a xlink:href="classopenage_1_1_game_spec.xhtml#a4183e5b82dd51fd66629d287026b5daa" target="_top" xlink:title=" ">
<polygon fill="white" stroke="black" points="300,-145.5 300,-175.5 414,-175.5 414,-145.5 300,-145.5"/>
<text text-anchor="start" x="308" y="-163.5" font-family="Helvetica,sans-Serif" font-size="10.00">openage::GameSpec::</text>
<text text-anchor="middle" x="357" y="-152.5" font-family="Helvetica,sans-Serif" font-size="10.00">valid_graphic_id</text>
</a>
</g>
</g>
<!-- Node12&#45;&gt;Node13 -->
<g id="edge2" class="edge"><title>Node12&#45;&gt;Node13</title>
<path fill="none" stroke="midnightblue" d="M264.375,-161.738C272.621,-161.627 281.178,-161.511 289.602,-161.397"/>
<polygon fill="midnightblue" stroke="midnightblue" points="289.83,-164.895 299.782,-161.26 289.736,-157.895 289.83,-164.895"/>
</g>
<!-- Node14 -->
<g id="node4" class="node"><title>Node14</title>
<g id="a_node4"><a xlink:href="namespaceopenage_1_1py.xhtml#a58cbca251b8e2118e0a6b9b0b78a7b32" target="_top" xlink:title=" ">
<polygon fill="white" stroke="black" points="312.5,-105 312.5,-124 401.5,-124 401.5,-105 312.5,-105"/>
<text text-anchor="middle" x="357" y="-112" font-family="Helvetica,sans-Serif" font-size="10.00">openage::py::list</text>
</a>
</g>
</g>
<!-- Node12&#45;&gt;Node14 -->
<g id="edge3" class="edge"><title>Node12&#45;&gt;Node14</title>
<path fill="none" stroke="midnightblue" d="M254.422,-147.444C274.491,-140.935 297.717,-133.403 316.891,-127.184"/>
<polygon fill="midnightblue" stroke="midnightblue" points="318.077,-130.479 326.51,-124.064 315.918,-123.82 318.077,-130.479"/>
</g>
<!-- Node15 -->
<g id="node5" class="node"><title>Node15</title>
<g id="a_node5"><a xlink:href="namespaceopenage_1_1testing_1_1testing.xhtml#ac25bf81db406af62d08113ef7ae9fd6e" target="_top" xlink:title=" ">
<polygon fill="white" stroke="black" points="450,-105 450,-124 595,-124 595,-105 450,-105"/>
<text text-anchor="middle" x="522.5" y="-112" font-family="Helvetica,sans-Serif" font-size="10.00">openage.testing.testing.result</text>
</a>
</g>
</g>
<!-- Node14&#45;&gt;Node15 -->
<g id="edge4" class="edge"><title>Node14&#45;&gt;Node15</title>
<path fill="none" stroke="midnightblue" d="M401.815,-114.5C413.459,-114.5 426.421,-114.5 439.396,-114.5"/>
<polygon fill="midnightblue" stroke="midnightblue" points="439.779,-118 449.779,-114.5 439.779,-111 439.779,-118"/>
</g>
<!-- Node16 -->
<g id="node6" class="node"><title>Node16</title>
<g id="a_node6"><a xlink:href="namespaceopenage_1_1util.xhtml#a7bc4421a5f0f57f3a0aba3f96eb8d19c" target="_top" xlink:title=" ">
<polygon fill="white" stroke="black" points="631,-105 631,-124 726,-124 726,-105 631,-105"/>
<text text-anchor="middle" x="678.5" y="-112" font-family="Helvetica,sans-Serif" font-size="10.00">openage::util::repr</text>
</a>
</g>
</g>
<!-- Node15&#45;&gt;Node16 -->
<g id="edge5" class="edge"><title>Node15&#45;&gt;Node16</title>
<path fill="none" stroke="midnightblue" d="M595.09,-107.765C603.595,-107.718 612.189,-107.782 620.453,-107.956"/>
<polygon fill="midnightblue" stroke="midnightblue" points="620.622,-111.461 630.713,-108.235 620.812,-104.464 620.622,-111.461"/>
</g>
<!-- Node16&#45;&gt;Node15 -->
<g id="edge6" class="edge"><title>Node16&#45;&gt;Node15</title>
<path fill="none" stroke="midnightblue" d="M630.713,-120.765C622.626,-121.038 614.01,-121.196 605.312,-121.238"/>
<polygon fill="midnightblue" stroke="midnightblue" points="605.091,-117.738 595.09,-121.235 605.089,-124.738 605.091,-117.738"/>
</g>
<!-- Node18&#45;&gt;Node13 -->
<g id="edge9" class="edge"><title>Node18&#45;&gt;Node13</title>
<path fill="none" stroke="midnightblue" d="M255.235,-128.5C269.119,-132.91 284.457,-137.78 298.888,-142.363"/>
<polygon fill="midnightblue" stroke="midnightblue" points="298.116,-145.79 308.706,-145.481 300.235,-139.118 298.116,-145.79"/>
</g>
<!-- Node18&#45;&gt;Node14 -->
<g id="edge10" class="edge"><title>Node18&#45;&gt;Node14</title>
<path fill="none" stroke="midnightblue" d="M264.375,-113.881C276.756,-113.965 289.836,-114.053 302.116,-114.136"/>
<polygon fill="midnightblue" stroke="midnightblue" points="302.186,-117.636 312.21,-114.204 302.234,-110.637 302.186,-117.636"/>
</g>
<!-- Node19&#45;&gt;Node13 -->
<g id="edge12" class="edge"><title>Node19&#45;&gt;Node13</title>
<path fill="none" stroke="midnightblue" d="M249.669,-79.5864C254.713,-82.2014 259.623,-85.1692 264,-88.5 284.382,-104.01 279.967,-117.542 300,-133.5 303.093,-135.964 306.448,-138.276 309.927,-140.429"/>
<polygon fill="midnightblue" stroke="midnightblue" points="308.326,-143.545 318.749,-145.448 311.788,-137.46 308.326,-143.545"/>
</g>
<!-- Node19&#45;&gt;Node14 -->
<g id="edge13" class="edge"><title>Node19&#45;&gt;Node14</title>
<path fill="none" stroke="midnightblue" d="M252.405,-79.5016C273.237,-86.5395 297.815,-94.843 317.803,-101.595"/>
<polygon fill="midnightblue" stroke="midnightblue" points="316.905,-104.987 327.5,-104.872 319.146,-98.3549 316.905,-104.987"/>
</g>
<!-- Node20&#45;&gt;Node13 -->
<g id="edge15" class="edge"><title>Node20&#45;&gt;Node13</title>
<path fill="none" stroke="midnightblue" d="M251.604,-196.474C267.642,-190.948 285.985,-184.627 302.775,-178.841"/>
<polygon fill="midnightblue" stroke="midnightblue" points="304.138,-182.074 312.452,-175.506 301.857,-175.455 304.138,-182.074"/>
</g>
<!-- Node20&#45;&gt;Node14 -->
<g id="edge16" class="edge"><title>Node20&#45;&gt;Node14</title>
<path fill="none" stroke="midnightblue" d="M250.441,-196.353C255.248,-193.771 259.889,-190.828 264,-187.5 285.565,-170.043 278.171,-153.625 300,-136.5 304.006,-133.357 308.518,-130.613 313.196,-128.23"/>
<polygon fill="midnightblue" stroke="midnightblue" points="314.658,-131.411 322.311,-124.084 311.759,-125.039 314.658,-131.411"/>
</g>
</g>
</svg>
        <g id="navigator" transform="translate(0 0)" fill="#404254">
                <rect fill="#f2f5e9" fill-opacity="0.5" stroke="#606060" stroke-width=".5" x="0" y="0" width="60" height="60"/>
                <use id="zoomplus" xlink:href="#zoomPlus" x="17" y="9" onmousedown="handleZoom(evt,'in')"/>
                <use id="zoomminus" xlink:href="#zoomMin" x="42" y="9" onmousedown="handleZoom(evt,'out')"/>
                <use id="reset" xlink:href="#resetDef" x="30" y="36" onmousedown="handleReset()"/>
                <g id="arrowUp" xlink:href="#dirArrow" transform="translate(30 24)" onmousedown="handlePan(0,-1)">
                  <use xlink:href="#rim" fill="#404040">
                        <set attributeName="fill" to="#808080" begin="arrowUp.mouseover" end="arrowUp.mouseout"/>
                  </use>
                  <path fill="none" stroke="white" stroke-width="1.5" d="M0,-3.0v7 M-2.5,-0.5L0,-3.0L2.5,-0.5"/>
                </g>
                <g id="arrowRight" xlink:href="#dirArrow" transform="rotate(90) translate(36 -43)" onmousedown="handlePan(1,0)">
                  <use xlink:href="#rim" fill="#404040">
                        <set attributeName="fill" to="#808080" begin="arrowRight.mouseover" end="arrowRight.mouseout"/>
                  </use>
                  <path fill="none" stroke="white" stroke-width="1.5" d="M0,-3.0v7 M-2.5,-0.5L0,-3.0L2.5,-0.5"/>
                </g>
                <g id="arrowDown" xlink:href="#dirArrow" transform="rotate(180) translate(-30 -48)" onmousedown="handlePan(0,1)">
                  <use xlink:href="#rim" fill="#404040">
                        <set attributeName="fill" to="#808080" begin="arrowDown.mouseover" end="arrowDown.mouseout"/>
                  </use>
                  <path fill="none" stroke="white" stroke-width="1.5" d="M0,-3.0v7 M-2.5,-0.5L0,-3.0L2.5,-0.5"/>
                </g>
                <g id="arrowLeft" xlink:href="#dirArrow" transform="rotate(270) translate(-36 17)" onmousedown="handlePan(-1,0)">
                  <use xlink:href="#rim" fill="#404040">
                        <set attributeName="fill" to="#808080" begin="arrowLeft.mouseover" end="arrowLeft.mouseout"/>
                  </use>
                  <path fill="none" stroke="white" stroke-width="1.5" d="M0,-3.0v7 M-2.5,-0.5L0,-3.0L2.5,-0.5"/>
                </g>
        </g>
        <svg viewBox="0 0 15 15" width="100%" height="30px" preserveAspectRatio="xMaxYMin meet">
         <g id="arrow_out" transform="scale(0.3 0.3)">
          <a xlink:href="classopenage_1_1_game_spec_ab009229f56624608b53820adf2895cbc_cgraph_org.svg" target="_base">
           <rect id="button" ry="5" rx="5" y="6" x="6" height="38" width="38"
                fill="#f2f5e9" fill-opacity="0.5" stroke="#606060" stroke-width="1.0"/>
           <path id="arrow"
             d="M 11.500037,31.436501 C 11.940474,20.09759 22.043105,11.32322 32.158766,21.979434 L 37.068811,17.246167 C 37.068811,17.246167 37.088388,32 37.088388,32 L 22.160133,31.978069 C 22.160133,31.978069 26.997745,27.140456 26.997745,27.140456 C 18.528582,18.264221 13.291696,25.230495 11.500037,31.436501 z"
             style="fill:#404040;"/>
          </a>
         </g>
        </svg>
</svg>
