<?xml version="1.0" encoding="UTF-8" standalone="no"?>
<!DOCTYPE svg PUBLIC "-//W3C//DTD SVG 1.1//EN"
 "http://www.w3.org/Graphics/SVG/1.1/DTD/svg11.dtd">
<!-- Generated by graphviz version 2.38.0 (20140413.2041)
 -->
<!-- Title: qtsdl::GuiSubtreeImpl::init_persistent_items Pages: 1 -->
<!--zoomable 88 -->
<svg id="main" version="1.1" xmlns="http://www.w3.org/2000/svg" xmlns:xlink="http://www.w3.org/1999/xlink" xml:space="preserve" onload="init(evt)">
<style type="text/css"><![CDATA[
.edge:hover path { stroke: red; }
.edge:hover polygon { stroke: red; fill: red; }
]]></style>
<script type="text/javascript"><![CDATA[
var edges = document.getElementsByTagName('g');
if (edges && edges.length) {
  for (var i=0;i<edges.length;i++) {
    if (edges[i].id.substr(0,4)=='edge') {
      edges[i].setAttribute('class','edge');
    }
  }
}
]]></script>
        <defs>
                <circle id="rim" cx="0" cy="0" r="7"/>
                <circle id="rim2" cx="0" cy="0" r="3.5"/>
                <g id="zoomPlus">
                        <use xlink:href="#rim" fill="#404040">
                                <set attributeName="fill" to="#808080" begin="zoomplus.mouseover" end="zoomplus.mouseout"/>
                        </use>
                        <path d="M-4,0h8M0,-4v8" fill="none" stroke="white" stroke-width="1.5" pointer-events="none"/>
                </g>
                <g id="zoomMin">
                        <use xlink:href="#rim" fill="#404040">
                                <set attributeName="fill" to="#808080" begin="zoomminus.mouseover" end="zoomminus.mouseout"/>
                        </use>
                        <path d="M-4,0h8" fill="none" stroke="white" stroke-width="1.5" pointer-events="none"/>
                </g>
                <g id="dirArrow">
                        <path fill="none" stroke="white" stroke-width="1.5" d="M0,-3.0v7 M-2.5,-0.5L0,-3.0L2.5,-0.5"/>
                </g>
               <g id="resetDef">
                       <use xlink:href="#rim2" fill="#404040">
                               <set attributeName="fill" to="#808080" begin="reset.mouseover" end="reset.mouseout"/>
                       </use>
               </g>
        </defs>

<script type="text/javascript">
var viewWidth = 830;
var viewHeight = 88;
var sectionId = 'dynsection-9';
</script>
<script xlink:href="svgpan.js"/>
<svg id="graph" class="graph">
<g id="viewport">
<title>qtsdl::GuiSubtreeImpl::init_persistent_items</title>
<polygon fill="white" stroke="none" points="-4,4 -4,-84 826,-84 826,4 -4,4"/>
<!-- Node82 -->
<g id="node1" class="node"><title>Node82</title>
<g id="a_node1"><a xlink:title=" ">
<polygon fill="#bfbfbf" stroke="black" points="709,-24.5 709,-54.5 822,-54.5 822,-24.5 709,-24.5"/>
<text text-anchor="start" x="717" y="-42.5" font-family="Helvetica,sans-Serif" font-size="10.00">qtsdl::GuiSubtreeImpl</text>
<text text-anchor="middle" x="765.5" y="-31.5" font-family="Helvetica,sans-Serif" font-size="10.00">::init_persistent_items</text>
</a>
</g>
</g>
<!-- Node83 -->
<g id="node2" class="node"><title>Node83</title>
<g id="a_node2"><a xlink:href="classqtsdl_1_1_gui_subtree_impl.xhtml#aed216357736342148f86afb0d73f3fdd" target="_top" xlink:title=" ">
<polygon fill="white" stroke="black" points="528,-24.5 528,-54.5 673,-54.5 673,-24.5 528,-24.5"/>
<text text-anchor="start" x="536" y="-42.5" font-family="Helvetica,sans-Serif" font-size="10.00">qtsdl::GuiSubtreeImpl</text>
<text text-anchor="middle" x="600.5" y="-31.5" font-family="Helvetica,sans-Serif" font-size="10.00">::component_status_changed</text>
</a>
</g>
</g>
<!-- Node82&#45;&gt;Node83 -->
<g id="edge1" class="edge"><title>Node82&#45;&gt;Node83</title>
<path fill="none" stroke="midnightblue" d="M698.696,-39.5C690.247,-39.5 681.564,-39.5 673.028,-39.5"/>
<polygon fill="midnightblue" stroke="midnightblue" points="698.861,-43.0001 708.861,-39.5 698.861,-36.0001 698.861,-43.0001"/>
</g>
<!-- Node84 -->
<g id="node3" class="node"><title>Node84</title>
<g id="a_node3"><a xlink:href="classqtsdl_1_1_gui_subtree_impl.xhtml#a903d02ad6f5349af96add80f99ddf345" target="_top" xlink:title=" ">
<polygon fill="white" stroke="black" points="382,-49.5 382,-79.5 492,-79.5 492,-49.5 382,-49.5"/>
<text text-anchor="start" x="390" y="-67.5" font-family="Helvetica,sans-Serif" font-size="10.00">qtsdl::GuiSubtreeImpl</text>
<text text-anchor="middle" x="437" y="-56.5" font-family="Helvetica,sans-Serif" font-size="10.00">::attach_to</text>
</a>
</g>
</g>
<!-- Node83&#45;&gt;Node84 -->
<g id="edge2" class="edge"><title>Node83&#45;&gt;Node84</title>
<path fill="none" stroke="midnightblue" d="M517.59,-52.1795C508.946,-53.5177 500.318,-54.8532 492.105,-56.1246"/>
<polygon fill="midnightblue" stroke="midnightblue" points="518.376,-55.5996 527.723,-50.611 517.305,-48.682 518.376,-55.5996"/>
</g>
<!-- Node85 -->
<g id="node4" class="node"><title>Node85</title>
<g id="a_node4"><a xlink:href="classqtsdl_1_1_gui_subtree_impl.xhtml#aea9b559c07846786ebcf6c41ef58ff78" target="_top" xlink:title=" ">
<polygon fill="white" stroke="black" points="382,-0.5 382,-30.5 492,-30.5 492,-0.5 382,-0.5"/>
<text text-anchor="start" x="390" y="-18.5" font-family="Helvetica,sans-Serif" font-size="10.00">qtsdl::GuiSubtreeImpl</text>
<text text-anchor="middle" x="437" y="-7.5" font-family="Helvetica,sans-Serif" font-size="10.00">::onEngineReloaded</text>
</a>
</g>
</g>
<!-- Node83&#45;&gt;Node85 -->
<g id="edge3" class="edge"><title>Node83&#45;&gt;Node85</title>
<path fill="none" stroke="midnightblue" d="M517.59,-27.3277C508.946,-26.043 500.318,-24.7609 492.105,-23.5404"/>
<polygon fill="midnightblue" stroke="midnightblue" points="517.317,-30.8255 527.723,-28.8335 518.346,-23.9015 517.317,-30.8255"/>
</g>
<!-- Node86 -->
<g id="node5" class="node"><title>Node86</title>
<g id="a_node5"><a xlink:href="classqtsdl_1_1_gui_engine_impl_connection.xhtml#ac2ef61bcd0cdb991b399a29eeb5ec74c" target="_top" xlink:title=" ">
<polygon fill="white" stroke="black" points="191,-0.5 191,-30.5 346,-30.5 346,-0.5 191,-0.5"/>
<text text-anchor="start" x="199" y="-18.5" font-family="Helvetica,sans-Serif" font-size="10.00">qtsdl::GuiEngineImplConnection</text>
<text text-anchor="middle" x="268.5" y="-7.5" font-family="Helvetica,sans-Serif" font-size="10.00">::disconnect</text>
</a>
</g>
</g>
<!-- Node85&#45;&gt;Node86 -->
<g id="edge4" class="edge"><title>Node85&#45;&gt;Node86</title>
<path fill="none" stroke="midnightblue" d="M371.876,-15.5C363.492,-15.5 354.835,-15.5 346.27,-15.5"/>
<polygon fill="midnightblue" stroke="midnightblue" points="371.942,-19.0001 381.942,-15.5 371.942,-12.0001 371.942,-19.0001"/>
</g>
<!-- Node87 -->
<g id="node6" class="node"><title>Node87</title>
<g id="a_node6"><a xlink:href="classqtsdl_1_1_gui_engine_impl_connection.xhtml#a838d04049e7a234096ddc630de0fee59" target="_top" xlink:title=" ">
<polygon fill="white" stroke="black" points="0,-0.5 0,-30.5 155,-30.5 155,-0.5 0,-0.5"/>
<text text-anchor="start" x="8" y="-18.5" font-family="Helvetica,sans-Serif" font-size="10.00">qtsdl::GuiEngineImplConnection</text>
<text text-anchor="middle" x="77.5" y="-7.5" font-family="Helvetica,sans-Serif" font-size="10.00">::~GuiEngineImplConnection</text>
</a>
</g>
</g>
<!-- Node86&#45;&gt;Node87 -->
<g id="edge5" class="edge"><title>Node86&#45;&gt;Node87</title>
<path fill="none" stroke="midnightblue" d="M180.896,-15.5C172.326,-15.5 163.67,-15.5 155.21,-15.5"/>
<polygon fill="midnightblue" stroke="midnightblue" points="180.899,-19.0001 190.899,-15.5 180.899,-12.0001 180.899,-19.0001"/>
</g>
</g>
</svg>
        <g id="navigator" transform="translate(0 0)" fill="#404254">
                <rect fill="#f2f5e9" fill-opacity="0.5" stroke="#606060" stroke-width=".5" x="0" y="0" width="60" height="60"/>
                <use id="zoomplus" xlink:href="#zoomPlus" x="17" y="9" onmousedown="handleZoom(evt,'in')"/>
                <use id="zoomminus" xlink:href="#zoomMin" x="42" y="9" onmousedown="handleZoom(evt,'out')"/>
                <use id="reset" xlink:href="#resetDef" x="30" y="36" onmousedown="handleReset()"/>
                <g id="arrowUp" xlink:href="#dirArrow" transform="translate(30 24)" onmousedown="handlePan(0,-1)">
                  <use xlink:href="#rim" fill="#404040">
                        <set attributeName="fill" to="#808080" begin="arrowUp.mouseover" end="arrowUp.mouseout"/>
                  </use>
                  <path fill="none" stroke="white" stroke-width="1.5" d="M0,-3.0v7 M-2.5,-0.5L0,-3.0L2.5,-0.5"/>
                </g>
                <g id="arrowRight" xlink:href="#dirArrow" transform="rotate(90) translate(36 -43)" onmousedown="handlePan(1,0)">
                  <use xlink:href="#rim" fill="#404040">
                        <set attributeName="fill" to="#808080" begin="arrowRight.mouseover" end="arrowRight.mouseout"/>
                  </use>
                  <path fill="none" stroke="white" stroke-width="1.5" d="M0,-3.0v7 M-2.5,-0.5L0,-3.0L2.5,-0.5"/>
                </g>
                <g id="arrowDown" xlink:href="#dirArrow" transform="rotate(180) translate(-30 -48)" onmousedown="handlePan(0,1)">
                  <use xlink:href="#rim" fill="#404040">
                        <set attributeName="fill" to="#808080" begin="arrowDown.mouseover" end="arrowDown.mouseout"/>
                  </use>
                  <path fill="none" stroke="white" stroke-width="1.5" d="M0,-3.0v7 M-2.5,-0.5L0,-3.0L2.5,-0.5"/>
                </g>
                <g id="arrowLeft" xlink:href="#dirArrow" transform="rotate(270) translate(-36 17)" onmousedown="handlePan(-1,0)">
                  <use xlink:href="#rim" fill="#404040">
                        <set attributeName="fill" to="#808080" begin="arrowLeft.mouseover" end="arrowLeft.mouseout"/>
                  </use>
                  <path fill="none" stroke="white" stroke-width="1.5" d="M0,-3.0v7 M-2.5,-0.5L0,-3.0L2.5,-0.5"/>
                </g>
        </g>
        <svg viewBox="0 0 15 15" width="100%" height="30px" preserveAspectRatio="xMaxYMin meet">
         <g id="arrow_out" transform="scale(0.3 0.3)">
          <a xlink:href="classqtsdl_1_1_gui_subtree_impl_a766c2b35a935c60fcbfcc6758d908ecb_icgraph_org.svg" target="_base">
           <rect id="button" ry="5" rx="5" y="6" x="6" height="38" width="38"
                fill="#f2f5e9" fill-opacity="0.5" stroke="#606060" stroke-width="1.0"/>
           <path id="arrow"
             d="M 11.500037,31.436501 C 11.940474,20.09759 22.043105,11.32322 32.158766,21.979434 L 37.068811,17.246167 C 37.068811,17.246167 37.088388,32 37.088388,32 L 22.160133,31.978069 C 22.160133,31.978069 26.997745,27.140456 26.997745,27.140456 C 18.528582,18.264221 13.291696,25.230495 11.500037,31.436501 z"
             style="fill:#404040;"/>
          </a>
         </g>
        </svg>
</svg>
