<?xml version="1.0" encoding="UTF-8" standalone="no"?>
<!DOCTYPE svg PUBLIC "-//W3C//DTD SVG 1.1//EN"
 "http://www.w3.org/Graphics/SVG/1.1/DTD/svg11.dtd">
<!-- Generated by graphviz version 2.38.0 (20140413.2041)
 -->
<!-- Title: openage::util::ExternalProfiler::show_results Pages: 1 -->
<!--zoomable 330 -->
<svg id="main" version="1.1" xmlns="http://www.w3.org/2000/svg" xmlns:xlink="http://www.w3.org/1999/xlink" xml:space="preserve" onload="init(evt)">
<style type="text/css"><![CDATA[
.edge:hover path { stroke: red; }
.edge:hover polygon { stroke: red; fill: red; }
]]></style>
<script type="text/javascript"><![CDATA[
var edges = document.getElementsByTagName('g');
if (edges && edges.length) {
  for (var i=0;i<edges.length;i++) {
    if (edges[i].id.substr(0,4)=='edge') {
      edges[i].setAttribute('class','edge');
    }
  }
}
]]></script>
        <defs>
                <circle id="rim" cx="0" cy="0" r="7"/>
                <circle id="rim2" cx="0" cy="0" r="3.5"/>
                <g id="zoomPlus">
                        <use xlink:href="#rim" fill="#404040">
                                <set attributeName="fill" to="#808080" begin="zoomplus.mouseover" end="zoomplus.mouseout"/>
                        </use>
                        <path d="M-4,0h8M0,-4v8" fill="none" stroke="white" stroke-width="1.5" pointer-events="none"/>
                </g>
                <g id="zoomMin">
                        <use xlink:href="#rim" fill="#404040">
                                <set attributeName="fill" to="#808080" begin="zoomminus.mouseover" end="zoomminus.mouseout"/>
                        </use>
                        <path d="M-4,0h8" fill="none" stroke="white" stroke-width="1.5" pointer-events="none"/>
                </g>
                <g id="dirArrow">
                        <path fill="none" stroke="white" stroke-width="1.5" d="M0,-3.0v7 M-2.5,-0.5L0,-3.0L2.5,-0.5"/>
                </g>
               <g id="resetDef">
                       <use xlink:href="#rim2" fill="#404040">
                               <set attributeName="fill" to="#808080" begin="reset.mouseover" end="reset.mouseout"/>
                       </use>
               </g>
        </defs>

<script type="text/javascript">
var viewWidth = 1307;
var viewHeight = 330;
var sectionId = 'dynsection-1';
</script>
<script xlink:href="svgpan.js"/>
<svg id="graph" class="graph">
<g id="viewport">
<title>openage::util::ExternalProfiler::show_results</title>
<polygon fill="white" stroke="none" points="-4,4 -4,-326.001 1303,-326.001 1303,4 -4,4"/>
<!-- Node2 -->
<g id="node1" class="node"><title>Node2</title>
<g id="a_node1"><a xlink:title=" ">
<polygon fill="#bfbfbf" stroke="black" points="0,-136.5 0,-166.5 144,-166.5 144,-136.5 0,-136.5"/>
<text text-anchor="start" x="8" y="-154.5" font-family="Helvetica,sans-Serif" font-size="10.00">openage::util::ExternalProfiler</text>
<text text-anchor="middle" x="72" y="-143.5" font-family="Helvetica,sans-Serif" font-size="10.00">::show_results</text>
</a>
</g>
</g>
<!-- Node3 -->
<g id="node2" class="node"><title>Node3</title>
<g id="a_node2"><a xlink:href="namespaceopenage_1_1subprocess.xhtml#a0a0bbc382a5c765c627d6f79d8aeaf59" target="_top" xlink:title=" ">
<polygon fill="white" stroke="black" points="356,-213.5 356,-243.5 466,-243.5 466,-213.5 356,-213.5"/>
<text text-anchor="start" x="364" y="-231.5" font-family="Helvetica,sans-Serif" font-size="10.00">openage::subprocess</text>
<text text-anchor="middle" x="411" y="-220.5" font-family="Helvetica,sans-Serif" font-size="10.00">::call</text>
</a>
</g>
</g>
<!-- Node2&#45;&gt;Node3 -->
<g id="edge1" class="edge"><title>Node2&#45;&gt;Node3</title>
<path fill="none" stroke="midnightblue" d="M138.777,-166.529C198.622,-180.203 286.422,-200.264 345.777,-213.826"/>
<polygon fill="midnightblue" stroke="midnightblue" points="345.253,-217.296 355.781,-216.112 346.812,-210.472 345.253,-217.296"/>
</g>
<!-- Node4 -->
<g id="node3" class="node"><title>Node4</title>
<g id="a_node3"><a xlink:href="namespaceopenage_1_1log.xhtml#a325b0901ddb3f2af36f93781b7dd9744" target="_top" xlink:title="error message">
<polygon fill="white" stroke="black" points="527.5,-241 527.5,-260 610.5,-260 610.5,-241 527.5,-241"/>
<text text-anchor="middle" x="569" y="-248" font-family="Helvetica,sans-Serif" font-size="10.00">openage.log.err</text>
</a>
</g>
</g>
<!-- Node2&#45;&gt;Node4 -->
<g id="edge9" class="edge"><title>Node2&#45;&gt;Node4</title>
<path fill="none" stroke="midnightblue" d="M79.7125,-166.699C93.5695,-195.958 128.423,-259.51 180,-285.5 298.301,-345.112 348.543,-319.598 478,-291.5 501.36,-286.43 525.929,-274.749 543.484,-265.146"/>
<polygon fill="midnightblue" stroke="midnightblue" points="545.473,-268.043 552.463,-260.081 542.034,-261.946 545.473,-268.043"/>
</g>
<!-- Node5 -->
<g id="node4" class="node"><title>Node5</title>
<g id="a_node4"><a xlink:href="namespaceopenage_1_1log.xhtml#a0eff614e7d6e818746700ed9d29e583f" target="_top" xlink:title=" ">
<polygon fill="white" stroke="black" points="523.5,-137 523.5,-156 614.5,-156 614.5,-137 523.5,-137"/>
<text text-anchor="middle" x="569" y="-144" font-family="Helvetica,sans-Serif" font-size="10.00">openage::log::log</text>
</a>
</g>
</g>
<!-- Node2&#45;&gt;Node5 -->
<g id="edge25" class="edge"><title>Node2&#45;&gt;Node5</title>
<path fill="none" stroke="midnightblue" d="M144.137,-137.072C156.063,-135.17 168.348,-133.527 180,-132.5 298.478,-122.063 437.962,-132.664 513.209,-140.261"/>
<polygon fill="midnightblue" stroke="midnightblue" points="513.085,-143.767 523.392,-141.311 513.803,-136.804 513.085,-143.767"/>
</g>
<!-- Node11 -->
<g id="node10" class="node"><title>Node11</title>
<g id="a_node10"><a xlink:href="namespaceopenage_1_1os.xhtml#a5d72e5b58b3036f2298e474c4e9ed9b6" target="_top" xlink:title=" ">
<polygon fill="white" stroke="black" points="180,-142 180,-161 308,-161 308,-142 180,-142"/>
<text text-anchor="middle" x="244" y="-149" font-family="Helvetica,sans-Serif" font-size="10.00">openage::os::execute_file</text>
</a>
</g>
</g>
<!-- Node2&#45;&gt;Node11 -->
<g id="edge10" class="edge"><title>Node2&#45;&gt;Node11</title>
<path fill="none" stroke="midnightblue" d="M144.11,-151.5C152.519,-151.5 161.115,-151.5 169.555,-151.5"/>
<polygon fill="midnightblue" stroke="midnightblue" points="169.751,-155 179.751,-151.5 169.751,-148 169.751,-155"/>
</g>
<!-- Node12 -->
<g id="node11" class="node"><title>Node12</title>
<g id="a_node11"><a xlink:href="namespaceopenage_1_1subprocess.xhtml#aea6af6d7d8e5290e58dfafd50a96a069" target="_top" xlink:title=" ">
<polygon fill="white" stroke="black" points="356,-49.5 356,-79.5 466,-79.5 466,-49.5 356,-49.5"/>
<text text-anchor="start" x="364" y="-67.5" font-family="Helvetica,sans-Serif" font-size="10.00">openage::subprocess</text>
<text text-anchor="middle" x="411" y="-56.5" font-family="Helvetica,sans-Serif" font-size="10.00">::which</text>
</a>
</g>
</g>
<!-- Node2&#45;&gt;Node12 -->
<g id="edge31" class="edge"><title>Node2&#45;&gt;Node12</title>
<path fill="none" stroke="midnightblue" d="M95.7201,-136.267C116.677,-122.996 149.127,-104.375 180,-94.5 234.313,-77.1266 298.916,-69.7942 345.805,-66.7102"/>
<polygon fill="midnightblue" stroke="midnightblue" points="346.062,-70.2012 355.829,-66.0977 345.635,-63.2142 346.062,-70.2012"/>
</g>
<!-- Node20 -->
<g id="node19" class="node"><title>Node20</title>
<g id="a_node19"><a xlink:href="namespaceopenage_1_1os.xhtml#aaa0a892b4d5cf0b41684c5f31c6cf86b" target="_top" xlink:title=" ">
<polygon fill="white" stroke="black" points="185.5,-246.5 185.5,-276.5 302.5,-276.5 302.5,-246.5 185.5,-246.5"/>
<text text-anchor="start" x="193.5" y="-264.5" font-family="Helvetica,sans-Serif" font-size="10.00">openage::os::self_exec</text>
<text text-anchor="middle" x="244" y="-253.5" font-family="Helvetica,sans-Serif" font-size="10.00">_filename</text>
</a>
</g>
</g>
<!-- Node2&#45;&gt;Node20 -->
<g id="edge26" class="edge"><title>Node2&#45;&gt;Node20</title>
<path fill="none" stroke="midnightblue" d="M96.2813,-166.564C126.082,-185.847 177.843,-219.339 211.242,-240.951"/>
<polygon fill="midnightblue" stroke="midnightblue" points="209.431,-243.947 219.728,-246.441 213.233,-238.07 209.431,-243.947"/>
</g>
<!-- Node22 -->
<g id="node21" class="node"><title>Node22</title>
<g id="a_node21"><a xlink:href="namespaceopenage_1_1log.xhtml#a7ca418e1b1fcf210ff91cd25dc8e6a36" target="_top" xlink:title="warning message">
<polygon fill="white" stroke="black" points="198,-23 198,-42 290,-42 290,-23 198,-23"/>
<text text-anchor="middle" x="244" y="-30" font-family="Helvetica,sans-Serif" font-size="10.00">openage.log.warn</text>
</a>
</g>
</g>
<!-- Node2&#45;&gt;Node22 -->
<g id="edge30" class="edge"><title>Node2&#45;&gt;Node22</title>
<path fill="none" stroke="midnightblue" d="M86.5383,-136.455C105.644,-115.983 142.401,-79.2954 180,-56.5 186.756,-52.4042 194.329,-48.7997 201.819,-45.7122"/>
<polygon fill="midnightblue" stroke="midnightblue" points="203.133,-48.9564 211.193,-42.0798 200.604,-42.4293 203.133,-48.9564"/>
</g>
<!-- Node3&#45;&gt;Node4 -->
<g id="edge2" class="edge"><title>Node3&#45;&gt;Node4</title>
<path fill="none" stroke="midnightblue" d="M466.123,-236.133C482.739,-238.476 500.955,-241.045 517.33,-243.354"/>
<polygon fill="midnightblue" stroke="midnightblue" points="516.867,-246.824 527.258,-244.754 517.845,-239.892 516.867,-246.824"/>
</g>
<!-- Node3&#45;&gt;Node5 -->
<g id="edge3" class="edge"><title>Node3&#45;&gt;Node5</title>
<path fill="none" stroke="midnightblue" d="M440.613,-213.46C469.221,-198.422 512.886,-175.47 540.935,-160.727"/>
<polygon fill="midnightblue" stroke="midnightblue" points="542.581,-163.815 549.804,-156.064 539.324,-157.619 542.581,-163.815"/>
</g>
<!-- Node6 -->
<g id="node5" class="node"><title>Node6</title>
<g id="a_node5"><a xlink:href="namespaceopenage_1_1log.xhtml#a3fbb0c225d01e222648ec28a43507188" target="_top" xlink:title=" ">
<polygon fill="white" stroke="black" points="676.5,-156.5 676.5,-186.5 786.5,-186.5 786.5,-156.5 676.5,-156.5"/>
<text text-anchor="start" x="684.5" y="-174.5" font-family="Helvetica,sans-Serif" font-size="10.00">openage::log::general</text>
<text text-anchor="middle" x="731.5" y="-163.5" font-family="Helvetica,sans-Serif" font-size="10.00">_source</text>
</a>
</g>
</g>
<!-- Node5&#45;&gt;Node6 -->
<g id="edge4" class="edge"><title>Node5&#45;&gt;Node6</title>
<path fill="none" stroke="midnightblue" d="M614.708,-153.464C630.681,-155.952 649.008,-158.807 666.298,-161.5"/>
<polygon fill="midnightblue" stroke="midnightblue" points="665.914,-164.982 676.333,-163.063 666.991,-158.065 665.914,-164.982"/>
</g>
<!-- Node7 -->
<g id="node6" class="node"><title>Node7</title>
<g id="a_node6"><a xlink:href="classopenage_1_1log_1_1_log_source.xhtml#a5640099e20af4cd368c767dbcef3a1df" target="_top" xlink:title=" ">
<polygon fill="white" stroke="black" points="660,-118 660,-137 803,-137 803,-118 660,-118"/>
<text text-anchor="middle" x="731.5" y="-125" font-family="Helvetica,sans-Serif" font-size="10.00">openage::log::LogSource::log</text>
</a>
</g>
</g>
<!-- Node5&#45;&gt;Node7 -->
<g id="edge5" class="edge"><title>Node5&#45;&gt;Node7</title>
<path fill="none" stroke="midnightblue" d="M614.708,-141.207C625.65,-139.912 637.697,-138.486 649.759,-137.058"/>
<polygon fill="midnightblue" stroke="midnightblue" points="650.351,-140.513 659.871,-135.861 649.528,-133.561 650.351,-140.513"/>
</g>
<!-- Node8 -->
<g id="node7" class="node"><title>Node8</title>
<g id="a_node7"><a xlink:href="namespaceopenage_1_1log.xhtml#a3d2885be9c3a09b9ff7ee8764b2e5f39" target="_top" xlink:title=" ">
<polygon fill="white" stroke="black" points="861,-112.5 861,-142.5 965,-142.5 965,-112.5 861,-112.5"/>
<text text-anchor="start" x="869" y="-130.5" font-family="Helvetica,sans-Serif" font-size="10.00">openage::log::global</text>
<text text-anchor="middle" x="913" y="-119.5" font-family="Helvetica,sans-Serif" font-size="10.00">_stdoutsink</text>
</a>
</g>
</g>
<!-- Node7&#45;&gt;Node8 -->
<g id="edge6" class="edge"><title>Node7&#45;&gt;Node8</title>
<path fill="none" stroke="midnightblue" d="M803.185,-127.5C818.809,-127.5 835.241,-127.5 850.466,-127.5"/>
<polygon fill="midnightblue" stroke="midnightblue" points="850.79,-131 860.79,-127.5 850.79,-124 850.79,-131"/>
</g>
<!-- Node9 -->
<g id="node8" class="node"><title>Node9</title>
<g id="a_node8"><a xlink:href="classopenage_1_1log_1_1_log_sink_list.xhtml#a2d47416fab12651553b4b58c86fd6f84" target="_top" xlink:title=" ">
<polygon fill="white" stroke="black" points="848.5,-63.5 848.5,-93.5 977.5,-93.5 977.5,-63.5 848.5,-63.5"/>
<text text-anchor="start" x="856.5" y="-81.5" font-family="Helvetica,sans-Serif" font-size="10.00">openage::log::LogSinkList</text>
<text text-anchor="middle" x="913" y="-70.5" font-family="Helvetica,sans-Serif" font-size="10.00">::instance</text>
</a>
</g>
</g>
<!-- Node7&#45;&gt;Node9 -->
<g id="edge7" class="edge"><title>Node7&#45;&gt;Node9</title>
<path fill="none" stroke="midnightblue" d="M767.536,-117.936C790.162,-111.76 820.29,-103.535 847.177,-96.1955"/>
<polygon fill="midnightblue" stroke="midnightblue" points="848.19,-99.5469 856.916,-93.537 846.347,-92.794 848.19,-99.5469"/>
</g>
<!-- Node10 -->
<g id="node9" class="node"><title>Node10</title>
<g id="a_node9"><a xlink:href="classopenage_1_1log_1_1_log_sink_list.xhtml#a8456b84ab55e1fe151c51438c5bfebdd" target="_top" xlink:title=" ">
<polygon fill="white" stroke="black" points="839,-162 839,-181 987,-181 987,-162 839,-162"/>
<text text-anchor="middle" x="913" y="-169" font-family="Helvetica,sans-Serif" font-size="10.00">openage::log::LogSinkList::log</text>
</a>
</g>
</g>
<!-- Node7&#45;&gt;Node10 -->
<g id="edge8" class="edge"><title>Node7&#45;&gt;Node10</title>
<path fill="none" stroke="midnightblue" d="M771.449,-137.047C798.382,-143.649 834.415,-152.482 863.253,-159.551"/>
<polygon fill="midnightblue" stroke="midnightblue" points="862.581,-162.99 873.127,-161.971 864.248,-156.191 862.581,-162.99"/>
</g>
<!-- Node11&#45;&gt;Node3 -->
<g id="edge11" class="edge"><title>Node11&#45;&gt;Node3</title>
<path fill="none" stroke="midnightblue" d="M265.053,-161.14C285.019,-170.71 316.565,-185.754 344,-198.5 351.547,-202.006 359.598,-205.703 367.39,-209.257"/>
<polygon fill="midnightblue" stroke="midnightblue" points="366.162,-212.543 376.713,-213.5 369.061,-206.172 366.162,-212.543"/>
</g>
<!-- Node11&#45;&gt;Node4 -->
<g id="edge12" class="edge"><title>Node11&#45;&gt;Node4</title>
<path fill="none" stroke="midnightblue" d="M308.079,-160.971C355.692,-169.216 422.139,-183.082 478,-203.5 501.189,-211.976 525.944,-225.246 543.61,-235.527"/>
<polygon fill="midnightblue" stroke="midnightblue" points="542.254,-238.792 552.641,-240.882 545.825,-232.771 542.254,-238.792"/>
</g>
<!-- Node11&#45;&gt;Node5 -->
<g id="edge13" class="edge"><title>Node11&#45;&gt;Node5</title>
<path fill="none" stroke="midnightblue" d="M308.044,-150.524C367.672,-149.601 456.256,-148.23 513.065,-147.35"/>
<polygon fill="midnightblue" stroke="midnightblue" points="513.344,-150.847 523.288,-147.192 513.235,-143.847 513.344,-150.847"/>
</g>
<!-- Node11&#45;&gt;Node12 -->
<g id="edge14" class="edge"><title>Node11&#45;&gt;Node12</title>
<path fill="none" stroke="midnightblue" d="M263.288,-141.857C289.441,-128.067 338.125,-102.398 372.214,-84.4236"/>
<polygon fill="midnightblue" stroke="midnightblue" points="374.198,-87.3344 381.411,-79.5743 370.933,-81.1424 374.198,-87.3344"/>
</g>
<!-- Node12&#45;&gt;Node5 -->
<g id="edge24" class="edge"><title>Node12&#45;&gt;Node5</title>
<path fill="none" stroke="midnightblue" d="M449.093,-79.5213C458.737,-83.919 468.953,-89.0295 478,-94.5 495.345,-104.988 496.611,-112.085 514,-122.5 520.15,-126.183 526.966,-129.644 533.626,-132.729"/>
<polygon fill="midnightblue" stroke="midnightblue" points="532.616,-136.11 543.176,-136.963 535.452,-129.71 532.616,-136.11"/>
</g>
<!-- Node13 -->
<g id="node12" class="node"><title>Node13</title>
<g id="a_node12"><a xlink:href="namespaceopenage_1_1util.xhtml#a854794aef09b81dbec641eca208a66d7" target="_top" xlink:title=" ">
<polygon fill="white" stroke="black" points="519.5,-0.5 519.5,-30.5 618.5,-30.5 618.5,-0.5 519.5,-0.5"/>
<text text-anchor="start" x="527.5" y="-18.5" font-family="Helvetica,sans-Serif" font-size="10.00">openage::util::copy</text>
<text text-anchor="middle" x="569" y="-7.5" font-family="Helvetica,sans-Serif" font-size="10.00">_string</text>
</a>
</g>
</g>
<!-- Node12&#45;&gt;Node13 -->
<g id="edge15" class="edge"><title>Node12&#45;&gt;Node13</title>
<path fill="none" stroke="midnightblue" d="M460.078,-49.3986C476.018,-44.3917 493.924,-38.7676 510.5,-33.561"/>
<polygon fill="midnightblue" stroke="midnightblue" points="511.589,-36.8875 520.081,-30.5516 509.491,-30.2092 511.589,-36.8875"/>
</g>
<!-- Node18 -->
<g id="node17" class="node"><title>Node18</title>
<g id="a_node17"><a xlink:href="namespaceopenage_1_1util.xhtml#a664e0be1f5d2f4d1e1a624f6f4a5f0c1" target="_top" xlink:title=" ">
<polygon fill="white" stroke="black" points="674.5,-58 674.5,-77 788.5,-77 788.5,-58 674.5,-58"/>
<text text-anchor="middle" x="731.5" y="-65" font-family="Helvetica,sans-Serif" font-size="10.00">openage::util::filename</text>
</a>
</g>
</g>
<!-- Node12&#45;&gt;Node18 -->
<g id="edge21" class="edge"><title>Node12&#45;&gt;Node18</title>
<path fill="none" stroke="midnightblue" d="M465.583,-79.5573C481.076,-83.2417 498.098,-86.6544 514,-88.5 562.563,-94.1363 575.343,-93.2515 624,-88.5 643.06,-86.6387 663.77,-82.9461 681.817,-79.1693"/>
<polygon fill="midnightblue" stroke="midnightblue" points="682.783,-82.5414 691.82,-77.0115 681.307,-75.6987 682.783,-82.5414"/>
</g>
<!-- Node19 -->
<g id="node18" class="node"><title>Node19</title>
<g id="a_node18"><a xlink:href="namespaceopenage_1_1subprocess.xhtml#af8b5d87acaf3d044fdd924ef68a1cec8" target="_top" xlink:title=" ">
<polygon fill="white" stroke="black" points="514,-49.5 514,-79.5 624,-79.5 624,-49.5 514,-49.5"/>
<text text-anchor="start" x="522" y="-67.5" font-family="Helvetica,sans-Serif" font-size="10.00">openage::subprocess</text>
<text text-anchor="middle" x="569" y="-56.5" font-family="Helvetica,sans-Serif" font-size="10.00">::is_executable</text>
</a>
</g>
</g>
<!-- Node12&#45;&gt;Node19 -->
<g id="edge22" class="edge"><title>Node12&#45;&gt;Node19</title>
<path fill="none" stroke="midnightblue" d="M466.123,-64.5C478.224,-64.5 491.172,-64.5 503.641,-64.5"/>
<polygon fill="midnightblue" stroke="midnightblue" points="503.972,-68.0001 513.972,-64.5 503.972,-61.0001 503.972,-68.0001"/>
</g>
<!-- Node14 -->
<g id="node13" class="node"><title>Node14</title>
<g id="a_node13"><a xlink:href="namespaceopenage_1_1util_1_1constexpr__.xhtml#a72a87a05e383ec62bf0b60359f314df7" target="_top" xlink:title=" ">
<polygon fill="white" stroke="black" points="671,-0.5 671,-30.5 792,-30.5 792,-0.5 671,-0.5"/>
<text text-anchor="start" x="679" y="-18.5" font-family="Helvetica,sans-Serif" font-size="10.00">openage::util::constexpr</text>
<text text-anchor="middle" x="731.5" y="-7.5" font-family="Helvetica,sans-Serif" font-size="10.00">_::strlen</text>
</a>
</g>
</g>
<!-- Node13&#45;&gt;Node14 -->
<g id="edge16" class="edge"><title>Node13&#45;&gt;Node14</title>
<path fill="none" stroke="midnightblue" d="M618.591,-15.5C631.806,-15.5 646.386,-15.5 660.532,-15.5"/>
<polygon fill="midnightblue" stroke="midnightblue" points="660.73,-19.0001 670.73,-15.5 660.73,-12.0001 660.73,-19.0001"/>
</g>
<!-- Node15 -->
<g id="node14" class="node"><title>Node15</title>
<g id="a_node14"><a xlink:href="namespaceopenage_1_1py.xhtml#a4d2bbe46a5d10404c658b54f3b199551" target="_top" xlink:title=" ">
<polygon fill="white" stroke="black" points="869.5,-6 869.5,-25 956.5,-25 956.5,-6 869.5,-6"/>
<text text-anchor="middle" x="913" y="-13" font-family="Helvetica,sans-Serif" font-size="10.00">openage::py::str</text>
</a>
</g>
</g>
<!-- Node14&#45;&gt;Node15 -->
<g id="edge17" class="edge"><title>Node14&#45;&gt;Node15</title>
<path fill="none" stroke="midnightblue" d="M792.271,-15.5C813.919,-15.5 838.196,-15.5 859.201,-15.5"/>
<polygon fill="midnightblue" stroke="midnightblue" points="859.224,-19.0001 869.224,-15.5 859.224,-12.0001 859.224,-19.0001"/>
</g>
<!-- Node16 -->
<g id="node15" class="node"><title>Node16</title>
<g id="a_node15"><a xlink:href="namespaceopenage_1_1testing_1_1testing.xhtml#ac25bf81db406af62d08113ef7ae9fd6e" target="_top" xlink:title=" ">
<polygon fill="white" stroke="black" points="1023,-6 1023,-25 1168,-25 1168,-6 1023,-6"/>
<text text-anchor="middle" x="1095.5" y="-13" font-family="Helvetica,sans-Serif" font-size="10.00">openage.testing.testing.result</text>
</a>
</g>
</g>
<!-- Node15&#45;&gt;Node16 -->
<g id="edge18" class="edge"><title>Node15&#45;&gt;Node16</title>
<path fill="none" stroke="midnightblue" d="M956.776,-15.5C973.555,-15.5 993.394,-15.5 1012.71,-15.5"/>
<polygon fill="midnightblue" stroke="midnightblue" points="1012.75,-19.0001 1022.75,-15.5 1012.75,-12.0001 1012.75,-19.0001"/>
</g>
<!-- Node17 -->
<g id="node16" class="node"><title>Node17</title>
<g id="a_node16"><a xlink:href="namespaceopenage_1_1util.xhtml#a7bc4421a5f0f57f3a0aba3f96eb8d19c" target="_top" xlink:title=" ">
<polygon fill="white" stroke="black" points="1204,-6 1204,-25 1299,-25 1299,-6 1204,-6"/>
<text text-anchor="middle" x="1251.5" y="-13" font-family="Helvetica,sans-Serif" font-size="10.00">openage::util::repr</text>
</a>
</g>
</g>
<!-- Node16&#45;&gt;Node17 -->
<g id="edge19" class="edge"><title>Node16&#45;&gt;Node17</title>
<path fill="none" stroke="midnightblue" d="M1168.09,-8.76483C1176.6,-8.71813 1185.19,-8.78172 1193.45,-8.9556"/>
<polygon fill="midnightblue" stroke="midnightblue" points="1193.62,-12.4614 1203.71,-9.23483 1193.81,-5.46399 1193.62,-12.4614"/>
</g>
<!-- Node17&#45;&gt;Node16 -->
<g id="edge20" class="edge"><title>Node17&#45;&gt;Node16</title>
<path fill="none" stroke="midnightblue" d="M1203.71,-21.7652C1195.63,-22.0381 1187.01,-22.1958 1178.31,-22.2383"/>
<polygon fill="midnightblue" stroke="midnightblue" points="1178.09,-18.7383 1168.09,-22.2352 1178.09,-25.7383 1178.09,-18.7383"/>
</g>
<!-- Node19&#45;&gt;Node18 -->
<g id="edge23" class="edge"><title>Node19&#45;&gt;Node18</title>
<path fill="none" stroke="midnightblue" d="M624.338,-65.5157C637.165,-65.7554 650.982,-66.0137 664.269,-66.262"/>
<polygon fill="midnightblue" stroke="midnightblue" points="664.238,-69.762 674.301,-66.4496 664.369,-62.7632 664.238,-69.762"/>
</g>
<!-- Node21 -->
<g id="node20" class="node"><title>Node21</title>
<g id="a_node20"><a xlink:href="namespaceopenage_1_1os.xhtml#a2ff2ec43cb1353b31db1f7cae31b13be" target="_top" xlink:title=" ">
<polygon fill="white" stroke="black" points="344,-263 344,-282 478,-282 478,-263 344,-263"/>
<text text-anchor="middle" x="411" y="-270" font-family="Helvetica,sans-Serif" font-size="10.00">openage::os::read_symlink</text>
</a>
</g>
</g>
<!-- Node20&#45;&gt;Node21 -->
<g id="edge27" class="edge"><title>Node20&#45;&gt;Node21</title>
<path fill="none" stroke="midnightblue" d="M302.709,-265.347C312.78,-266.019 323.394,-266.726 333.87,-267.425"/>
<polygon fill="midnightblue" stroke="midnightblue" points="333.639,-270.917 343.85,-268.09 334.105,-263.932 333.639,-270.917"/>
</g>
<!-- Node21&#45;&gt;Node4 -->
<g id="edge28" class="edge"><title>Node21&#45;&gt;Node4</title>
<path fill="none" stroke="midnightblue" d="M478.158,-263.17C491.133,-261.34 504.556,-259.447 516.945,-257.7"/>
<polygon fill="midnightblue" stroke="midnightblue" points="517.663,-261.133 527.077,-256.271 516.686,-254.202 517.663,-261.133"/>
</g>
<!-- Node21&#45;&gt;Node5 -->
<g id="edge29" class="edge"><title>Node21&#45;&gt;Node5</title>
<path fill="none" stroke="midnightblue" d="M456.182,-262.965C463.805,-260.263 471.393,-256.834 478,-252.5 513.306,-229.341 542.379,-188.349 557.256,-164.701"/>
<polygon fill="midnightblue" stroke="midnightblue" points="560.342,-166.363 562.576,-156.006 554.371,-162.709 560.342,-166.363"/>
</g>
</g>
</svg>
        <g id="navigator" transform="translate(0 0)" fill="#404254">
                <rect fill="#f2f5e9" fill-opacity="0.5" stroke="#606060" stroke-width=".5" x="0" y="0" width="60" height="60"/>
                <use id="zoomplus" xlink:href="#zoomPlus" x="17" y="9" onmousedown="handleZoom(evt,'in')"/>
                <use id="zoomminus" xlink:href="#zoomMin" x="42" y="9" onmousedown="handleZoom(evt,'out')"/>
                <use id="reset" xlink:href="#resetDef" x="30" y="36" onmousedown="handleReset()"/>
                <g id="arrowUp" xlink:href="#dirArrow" transform="translate(30 24)" onmousedown="handlePan(0,-1)">
                  <use xlink:href="#rim" fill="#404040">
                        <set attributeName="fill" to="#808080" begin="arrowUp.mouseover" end="arrowUp.mouseout"/>
                  </use>
                  <path fill="none" stroke="white" stroke-width="1.5" d="M0,-3.0v7 M-2.5,-0.5L0,-3.0L2.5,-0.5"/>
                </g>
                <g id="arrowRight" xlink:href="#dirArrow" transform="rotate(90) translate(36 -43)" onmousedown="handlePan(1,0)">
                  <use xlink:href="#rim" fill="#404040">
                        <set attributeName="fill" to="#808080" begin="arrowRight.mouseover" end="arrowRight.mouseout"/>
                  </use>
                  <path fill="none" stroke="white" stroke-width="1.5" d="M0,-3.0v7 M-2.5,-0.5L0,-3.0L2.5,-0.5"/>
                </g>
                <g id="arrowDown" xlink:href="#dirArrow" transform="rotate(180) translate(-30 -48)" onmousedown="handlePan(0,1)">
                  <use xlink:href="#rim" fill="#404040">
                        <set attributeName="fill" to="#808080" begin="arrowDown.mouseover" end="arrowDown.mouseout"/>
                  </use>
                  <path fill="none" stroke="white" stroke-width="1.5" d="M0,-3.0v7 M-2.5,-0.5L0,-3.0L2.5,-0.5"/>
                </g>
                <g id="arrowLeft" xlink:href="#dirArrow" transform="rotate(270) translate(-36 17)" onmousedown="handlePan(-1,0)">
                  <use xlink:href="#rim" fill="#404040">
                        <set attributeName="fill" to="#808080" begin="arrowLeft.mouseover" end="arrowLeft.mouseout"/>
                  </use>
                  <path fill="none" stroke="white" stroke-width="1.5" d="M0,-3.0v7 M-2.5,-0.5L0,-3.0L2.5,-0.5"/>
                </g>
        </g>
        <svg viewBox="0 0 15 15" width="100%" height="30px" preserveAspectRatio="xMaxYMin meet">
         <g id="arrow_out" transform="scale(0.3 0.3)">
          <a xlink:href="classopenage_1_1util_1_1_external_profiler_add3055482caaf197842cc1661b463ac8_cgraph_org.svg" target="_base">
           <rect id="button" ry="5" rx="5" y="6" x="6" height="38" width="38"
                fill="#f2f5e9" fill-opacity="0.5" stroke="#606060" stroke-width="1.0"/>
           <path id="arrow"
             d="M 11.500037,31.436501 C 11.940474,20.09759 22.043105,11.32322 32.158766,21.979434 L 37.068811,17.246167 C 37.068811,17.246167 37.088388,32 37.088388,32 L 22.160133,31.978069 C 22.160133,31.978069 26.997745,27.140456 26.997745,27.140456 C 18.528582,18.264221 13.291696,25.230495 11.500037,31.436501 z"
             style="fill:#404040;"/>
          </a>
         </g>
        </svg>
</svg>
