<?xml version="1.0" encoding="UTF-8" standalone="no"?>
<!DOCTYPE svg PUBLIC "-//W3C//DTD SVG 1.1//EN"
 "http://www.w3.org/Graphics/SVG/1.1/DTD/svg11.dtd">
<!-- Generated by graphviz version 2.38.0 (20140413.2041)
 -->
<!-- Title: openage::Terrain::get_neighbors Pages: 1 -->
<svg width="720pt" height="225pt"
 viewBox="0.00 0.00 720.00 225.00" xmlns="http://www.w3.org/2000/svg" xmlns:xlink="http://www.w3.org/1999/xlink">
<g id="graph0" class="graph" transform="scale(1 1) rotate(0) translate(4 221)">
<title>openage::Terrain::get_neighbors</title>
<polygon fill="white" stroke="none" points="-4,4 -4,-221 716,-221 716,4 -4,4"/>
<!-- Node205 -->
<g id="node1" class="node"><title>Node205</title>
<g id="a_node1"><a xlink:title=" ">
<polygon fill="#bfbfbf" stroke="black" points="0,-60.5 0,-90.5 108,-90.5 108,-60.5 0,-60.5"/>
<text text-anchor="start" x="8" y="-78.5" font-family="Helvetica,sans-Serif" font-size="10.00">openage::Terrain::get</text>
<text text-anchor="middle" x="54" y="-67.5" font-family="Helvetica,sans-Serif" font-size="10.00">_neighbors</text>
</a>
</g>
</g>
<!-- Node206 -->
<g id="node2" class="node"><title>Node206</title>
<g id="a_node2"><a xlink:href="classopenage_1_1_terrain.xhtml#a437d04e21933a02a08861b50a585135e" target="_top" xlink:title=" ">
<polygon fill="white" stroke="black" points="144,-99 144,-118 276,-118 276,-99 144,-99"/>
<text text-anchor="middle" x="210" y="-106" font-family="Helvetica,sans-Serif" font-size="10.00">openage::Terrain::get_data</text>
</a>
</g>
</g>
<!-- Node205&#45;&gt;Node206 -->
<g id="edge1" class="edge"><title>Node205&#45;&gt;Node206</title>
<path fill="none" stroke="midnightblue" d="M108.43,-86.9492C123.252,-90.1255 139.365,-93.5781 154.261,-96.7702"/>
<polygon fill="midnightblue" stroke="midnightblue" points="153.837,-100.259 164.349,-98.9318 155.304,-93.4142 153.837,-100.259"/>
</g>
<!-- Node213 -->
<g id="node9" class="node"><title>Node213</title>
<g id="a_node9"><a xlink:href="classopenage_1_1_terrain.xhtml#a0de0b286ad2d9129d42b4f64e3ed9ffd" target="_top" xlink:title=" ">
<polygon fill="white" stroke="black" points="148,-34 148,-53 272,-53 272,-34 148,-34"/>
<text text-anchor="middle" x="210" y="-41" font-family="Helvetica,sans-Serif" font-size="10.00">openage::Terrain::priority</text>
</a>
</g>
</g>
<!-- Node205&#45;&gt;Node213 -->
<g id="edge9" class="edge"><title>Node205&#45;&gt;Node213</title>
<path fill="none" stroke="midnightblue" d="M108.43,-64.3978C122.899,-61.3911 138.598,-58.129 153.195,-55.0959"/>
<polygon fill="midnightblue" stroke="midnightblue" points="154.017,-58.4999 163.096,-53.0386 152.593,-51.6463 154.017,-58.4999"/>
</g>
<!-- Node207 -->
<g id="node3" class="node"><title>Node207</title>
<g id="a_node3"><a xlink:href="classopenage_1_1_terrain.xhtml#a6e0db07445c5dcc346c5e9d28458c516" target="_top" xlink:title=" ">
<polygon fill="white" stroke="black" points="321.5,-186.5 321.5,-216.5 429.5,-216.5 429.5,-186.5 321.5,-186.5"/>
<text text-anchor="start" x="329.5" y="-204.5" font-family="Helvetica,sans-Serif" font-size="10.00">openage::Terrain::get</text>
<text text-anchor="middle" x="375.5" y="-193.5" font-family="Helvetica,sans-Serif" font-size="10.00">_chunk</text>
</a>
</g>
</g>
<!-- Node206&#45;&gt;Node207 -->
<g id="edge2" class="edge"><title>Node206&#45;&gt;Node207</title>
<path fill="none" stroke="midnightblue" d="M223.162,-118.2C241.565,-132.548 277.96,-159.649 312,-177.5 315.226,-179.192 318.6,-180.829 322.035,-182.4"/>
<polygon fill="midnightblue" stroke="midnightblue" points="320.652,-185.615 331.218,-186.395 323.445,-179.196 320.652,-185.615"/>
</g>
<!-- Node208 -->
<g id="node4" class="node"><title>Node208</title>
<g id="a_node4"><a xlink:href="classopenage_1_1_terrain_chunk.xhtml#af163db3fba4ae99206de76666f8424df" target="_top" xlink:title=" ">
<polygon fill="white" stroke="black" points="317.5,-137.5 317.5,-167.5 433.5,-167.5 433.5,-137.5 317.5,-137.5"/>
<text text-anchor="start" x="325.5" y="-155.5" font-family="Helvetica,sans-Serif" font-size="10.00">openage::TerrainChunk</text>
<text text-anchor="middle" x="375.5" y="-144.5" font-family="Helvetica,sans-Serif" font-size="10.00">::get_data</text>
</a>
</g>
</g>
<!-- Node206&#45;&gt;Node208 -->
<g id="edge3" class="edge"><title>Node206&#45;&gt;Node208</title>
<path fill="none" stroke="midnightblue" d="M246.477,-118.047C264.721,-122.957 287.549,-129.1 308.857,-134.835"/>
<polygon fill="midnightblue" stroke="midnightblue" points="307.952,-138.216 318.518,-137.435 309.772,-131.456 307.952,-138.216"/>
</g>
<!-- Node209 -->
<g id="node5" class="node"><title>Node209</title>
<g id="a_node5"><a xlink:href="structopenage_1_1coord_1_1tile.xhtml#ab4811e492cabe885d33e85df51ceff83" target="_top" xlink:title=" ">
<polygon fill="white" stroke="black" points="475,-115.5 475,-145.5 579,-145.5 579,-115.5 475,-115.5"/>
<text text-anchor="start" x="483" y="-133.5" font-family="Helvetica,sans-Serif" font-size="10.00">openage::coord::tile</text>
<text text-anchor="middle" x="527" y="-122.5" font-family="Helvetica,sans-Serif" font-size="10.00">::get_pos_on_chunk</text>
</a>
</g>
</g>
<!-- Node206&#45;&gt;Node209 -->
<g id="edge6" class="edge"><title>Node206&#45;&gt;Node209</title>
<path fill="none" stroke="midnightblue" d="M276.268,-113.058C331.628,-116.925 410.46,-122.431 464.667,-126.216"/>
<polygon fill="midnightblue" stroke="midnightblue" points="464.609,-129.721 474.829,-126.926 465.097,-122.738 464.609,-129.721"/>
</g>
<!-- Node211 -->
<g id="node7" class="node"><title>Node211</title>
<g id="a_node7"><a xlink:href="structopenage_1_1coord_1_1tile.xhtml#a47c3fa2d9edf30712ddbc3b8ae217eb0" target="_top" xlink:title=" ">
<polygon fill="white" stroke="black" points="324.5,-49.5 324.5,-79.5 426.5,-79.5 426.5,-49.5 324.5,-49.5"/>
<text text-anchor="start" x="332.5" y="-67.5" font-family="Helvetica,sans-Serif" font-size="10.00">openage::coord::tile</text>
<text text-anchor="middle" x="375.5" y="-56.5" font-family="Helvetica,sans-Serif" font-size="10.00">::to_chunk</text>
</a>
</g>
</g>
<!-- Node206&#45;&gt;Node211 -->
<g id="edge7" class="edge"><title>Node206&#45;&gt;Node211</title>
<path fill="none" stroke="midnightblue" d="M246.477,-98.9527C266.276,-93.6246 291.473,-86.8435 314.268,-80.7092"/>
<polygon fill="midnightblue" stroke="midnightblue" points="315.458,-84.0137 324.205,-78.0352 313.639,-77.2541 315.458,-84.0137"/>
</g>
<!-- Node208&#45;&gt;Node209 -->
<g id="edge4" class="edge"><title>Node208&#45;&gt;Node209</title>
<path fill="none" stroke="midnightblue" d="M433.873,-144.057C444.001,-142.567 454.58,-141.01 464.808,-139.505"/>
<polygon fill="midnightblue" stroke="midnightblue" points="465.507,-142.94 474.89,-138.021 464.487,-136.014 465.507,-142.94"/>
</g>
<!-- Node210 -->
<g id="node6" class="node"><title>Node210</title>
<g id="a_node6"><a xlink:href="namespaceopenage_1_1util.xhtml#a7e483e123bf554b630319eb3dd012c02" target="_top" xlink:title=" ">
<polygon fill="white" stroke="black" points="615,-121 615,-140 712,-140 712,-121 615,-121"/>
<text text-anchor="middle" x="663.5" y="-128" font-family="Helvetica,sans-Serif" font-size="10.00">openage::util::mod</text>
</a>
</g>
</g>
<!-- Node209&#45;&gt;Node210 -->
<g id="edge5" class="edge"><title>Node209&#45;&gt;Node210</title>
<path fill="none" stroke="midnightblue" d="M579.232,-130.5C587.571,-130.5 596.259,-130.5 604.741,-130.5"/>
<polygon fill="midnightblue" stroke="midnightblue" points="604.949,-134 614.949,-130.5 604.949,-127 604.949,-134"/>
</g>
<!-- Node212 -->
<g id="node8" class="node"><title>Node212</title>
<g id="a_node8"><a xlink:href="namespaceopenage_1_1util.xhtml#a34ba6f7abd32acb48dfc6ad6efdc1bc8" target="_top" xlink:title=" ">
<polygon fill="white" stroke="black" points="482.5,-55 482.5,-74 571.5,-74 571.5,-55 482.5,-55"/>
<text text-anchor="middle" x="527" y="-62" font-family="Helvetica,sans-Serif" font-size="10.00">openage::util::div</text>
</a>
</g>
</g>
<!-- Node211&#45;&gt;Node212 -->
<g id="edge8" class="edge"><title>Node211&#45;&gt;Node212</title>
<path fill="none" stroke="midnightblue" d="M426.697,-64.5C441.309,-64.5 457.328,-64.5 472.154,-64.5"/>
<polygon fill="midnightblue" stroke="midnightblue" points="472.196,-68.0001 482.196,-64.5 472.196,-61.0001 472.196,-68.0001"/>
</g>
<!-- Node214 -->
<g id="node10" class="node"><title>Node214</title>
<g id="a_node10"><a xlink:href="classopenage_1_1_terrain.xhtml#a76cd02c887a27a6c91331573ecb84907" target="_top" xlink:title=" ">
<polygon fill="white" stroke="black" points="312,-0.5 312,-30.5 439,-30.5 439,-0.5 312,-0.5"/>
<text text-anchor="start" x="320" y="-18.5" font-family="Helvetica,sans-Serif" font-size="10.00">openage::Terrain::validate</text>
<text text-anchor="middle" x="375.5" y="-7.5" font-family="Helvetica,sans-Serif" font-size="10.00">_terrain</text>
</a>
</g>
</g>
<!-- Node213&#45;&gt;Node214 -->
<g id="edge10" class="edge"><title>Node213&#45;&gt;Node214</title>
<path fill="none" stroke="midnightblue" d="M266.81,-33.9423C278.043,-32.0185 290.006,-29.9699 301.72,-27.9639"/>
<polygon fill="midnightblue" stroke="midnightblue" points="302.659,-31.3541 311.925,-26.2162 301.478,-24.4545 302.659,-31.3541"/>
</g>
<!-- Node215 -->
<g id="node11" class="node"><title>Node215</title>
<g id="a_node11"><a xlink:href="namespaceopenage_1_1log.xhtml#a325b0901ddb3f2af36f93781b7dd9744" target="_top" xlink:title="error message">
<polygon fill="white" stroke="black" points="485.5,-6 485.5,-25 568.5,-25 568.5,-6 485.5,-6"/>
<text text-anchor="middle" x="527" y="-13" font-family="Helvetica,sans-Serif" font-size="10.00">openage.log.err</text>
</a>
</g>
</g>
<!-- Node214&#45;&gt;Node215 -->
<g id="edge11" class="edge"><title>Node214&#45;&gt;Node215</title>
<path fill="none" stroke="midnightblue" d="M439.035,-15.5C451.165,-15.5 463.735,-15.5 475.422,-15.5"/>
<polygon fill="midnightblue" stroke="midnightblue" points="475.432,-19.0001 485.432,-15.5 475.432,-12.0001 475.432,-19.0001"/>
</g>
</g>
</svg>
