<?xml version="1.0" encoding="UTF-8" standalone="no"?>
<!DOCTYPE svg PUBLIC "-//W3C//DTD SVG 1.1//EN"
 "http://www.w3.org/Graphics/SVG/1.1/DTD/svg11.dtd">
<!-- Generated by graphviz version 2.38.0 (20140413.2041)
 -->
<!-- Title: openage::input::InputContext::bind Pages: 1 -->
<svg width="490pt" height="186pt"
 viewBox="0.00 0.00 490.00 186.00" xmlns="http://www.w3.org/2000/svg" xmlns:xlink="http://www.w3.org/1999/xlink">
<g id="graph0" class="graph" transform="scale(1 1) rotate(0) translate(4 182)">
<title>openage::input::InputContext::bind</title>
<polygon fill="white" stroke="none" points="-4,4 -4,-182 486,-182 486,4 -4,4"/>
<!-- Node34 -->
<g id="node1" class="node"><title>Node34</title>
<g id="a_node1"><a xlink:title=" ">
<polygon fill="#bfbfbf" stroke="black" points="341,-73.5 341,-103.5 482,-103.5 482,-73.5 341,-73.5"/>
<text text-anchor="start" x="349" y="-91.5" font-family="Helvetica,sans-Serif" font-size="10.00">openage::input::InputContext</text>
<text text-anchor="middle" x="411.5" y="-80.5" font-family="Helvetica,sans-Serif" font-size="10.00">::bind</text>
</a>
</g>
</g>
<!-- Node35 -->
<g id="node2" class="node"><title>Node35</title>
<g id="a_node2"><a xlink:href="classopenage_1_1_action_mode.xhtml#a43f98279255b857ee8fa9943117271e8" target="_top" xlink:title=" ">
<polygon fill="white" stroke="black" points="180,-147.5 180,-177.5 296,-177.5 296,-147.5 180,-147.5"/>
<text text-anchor="start" x="188" y="-165.5" font-family="Helvetica,sans-Serif" font-size="10.00">openage::ActionMode</text>
<text text-anchor="middle" x="238" y="-154.5" font-family="Helvetica,sans-Serif" font-size="10.00">::on_game_control_set</text>
</a>
</g>
</g>
<!-- Node34&#45;&gt;Node35 -->
<g id="edge1" class="edge"><title>Node34&#45;&gt;Node35</title>
<path fill="none" stroke="midnightblue" d="M371.384,-108.113C351.672,-117.72 327.281,-129.193 305,-138.5 297.687,-141.555 289.833,-144.605 282.184,-147.457"/>
<polygon fill="midnightblue" stroke="midnightblue" points="372.934,-111.251 380.37,-103.705 369.851,-104.967 372.934,-111.251"/>
</g>
<!-- Node36 -->
<g id="node3" class="node"><title>Node36</title>
<g id="a_node3"><a xlink:href="classopenage_1_1_editor_mode.xhtml#a29b4d3a8c32153ccdc566f60fcdacf7f" target="_top" xlink:title=" ">
<polygon fill="white" stroke="black" points="180,-98.5 180,-128.5 296,-128.5 296,-98.5 180,-98.5"/>
<text text-anchor="start" x="188" y="-116.5" font-family="Helvetica,sans-Serif" font-size="10.00">openage::EditorMode</text>
<text text-anchor="middle" x="238" y="-105.5" font-family="Helvetica,sans-Serif" font-size="10.00">::on_game_control_set</text>
</a>
</g>
</g>
<!-- Node34&#45;&gt;Node36 -->
<g id="edge2" class="edge"><title>Node34&#45;&gt;Node36</title>
<path fill="none" stroke="midnightblue" d="M330.579,-100.15C318.945,-101.846 307.167,-103.563 296.107,-105.175"/>
<polygon fill="midnightblue" stroke="midnightblue" points="331.354,-103.574 340.744,-98.6685 330.344,-96.6476 331.354,-103.574"/>
</g>
<!-- Node37 -->
<g id="node4" class="node"><title>Node37</title>
<g id="a_node4"><a xlink:href="classopenage_1_1console_1_1_console.xhtml#ab5e30408417ac212bd3f35e50edd3a82" target="_top" xlink:title=" ">
<polygon fill="white" stroke="black" points="171,-49.5 171,-79.5 305,-79.5 305,-49.5 171,-49.5"/>
<text text-anchor="start" x="179" y="-67.5" font-family="Helvetica,sans-Serif" font-size="10.00">openage::console::Console</text>
<text text-anchor="middle" x="238" y="-56.5" font-family="Helvetica,sans-Serif" font-size="10.00">::register_to_engine</text>
</a>
</g>
</g>
<!-- Node34&#45;&gt;Node37 -->
<g id="edge3" class="edge"><title>Node34&#45;&gt;Node37</title>
<path fill="none" stroke="midnightblue" d="M330.729,-77.3367C322.148,-76.1359 313.487,-74.9238 305.092,-73.749"/>
<polygon fill="midnightblue" stroke="midnightblue" points="330.356,-80.8185 340.744,-78.7383 331.326,-73.8861 330.356,-80.8185"/>
</g>
<!-- Node38 -->
<g id="node5" class="node"><title>Node38</title>
<g id="a_node5"><a xlink:href="classopenage_1_1_game_control.xhtml#ad7c9d48df33f8f56ab5686c36648bfa5" target="_top" xlink:title=" ">
<polygon fill="white" stroke="black" points="180,-0.5 180,-30.5 296,-30.5 296,-0.5 180,-0.5"/>
<text text-anchor="start" x="188" y="-18.5" font-family="Helvetica,sans-Serif" font-size="10.00">openage::GameControl</text>
<text text-anchor="middle" x="238" y="-7.5" font-family="Helvetica,sans-Serif" font-size="10.00">::set_engine</text>
</a>
</g>
</g>
<!-- Node34&#45;&gt;Node38 -->
<g id="edge4" class="edge"><title>Node34&#45;&gt;Node38</title>
<path fill="none" stroke="midnightblue" d="M369.696,-69.1886C350.237,-60.1718 326.552,-49.4735 305,-40.5 296.969,-37.1561 288.316,-33.744 280.004,-30.5588"/>
<polygon fill="midnightblue" stroke="midnightblue" points="368.338,-72.4171 378.881,-73.4651 371.292,-66.0712 368.338,-72.4171"/>
</g>
<!-- Node39 -->
<g id="node6" class="node"><title>Node39</title>
<g id="a_node6"><a xlink:href="classopenage_1_1gui_1_1_game_control_link.xhtml#a0a4bb8a5d7b2e5637d317fe51f02ad5f" target="_top" xlink:title=" ">
<polygon fill="white" stroke="black" points="0,-0.5 0,-30.5 135,-30.5 135,-0.5 0,-0.5"/>
<text text-anchor="start" x="8" y="-18.5" font-family="Helvetica,sans-Serif" font-size="10.00">openage::gui::GameControl</text>
<text text-anchor="middle" x="67.5" y="-7.5" font-family="Helvetica,sans-Serif" font-size="10.00">Link::set_engine</text>
</a>
</g>
</g>
<!-- Node38&#45;&gt;Node39 -->
<g id="edge5" class="edge"><title>Node38&#45;&gt;Node39</title>
<path fill="none" stroke="midnightblue" d="M169.646,-15.5C158.263,-15.5 146.451,-15.5 135.088,-15.5"/>
<polygon fill="midnightblue" stroke="midnightblue" points="169.954,-19.0001 179.954,-15.5 169.954,-12.0001 169.954,-19.0001"/>
</g>
</g>
</svg>
