<?xml version="1.0" encoding="UTF-8" standalone="no"?>
<!DOCTYPE svg PUBLIC "-//W3C//DTD SVG 1.1//EN"
 "http://www.w3.org/Graphics/SVG/1.1/DTD/svg11.dtd">
<!-- Generated by graphviz version 2.38.0 (20140413.2041)
 -->
<!-- Title: openage.convert.binpack.Packer.height Pages: 1 -->
<svg width="317pt" height="78pt"
 viewBox="0.00 0.00 317.00 77.50" xmlns="http://www.w3.org/2000/svg" xmlns:xlink="http://www.w3.org/1999/xlink">
<g id="graph0" class="graph" transform="scale(1 1) rotate(0) translate(4 73.5)">
<title>openage.convert.binpack.Packer.height</title>
<polygon fill="white" stroke="none" points="-4,4 -4,-73.5 313,-73.5 313,4 -4,4"/>
<!-- Node2 -->
<g id="node1" class="node"><title>Node2</title>
<g id="a_node1"><a xlink:title="Gets the total height of the packing.">
<polygon fill="#bfbfbf" stroke="black" points="0,-22.5 0,-52.5 127,-52.5 127,-22.5 0,-22.5"/>
<text text-anchor="start" x="8" y="-40.5" font-family="Helvetica,sans-Serif" font-size="10.00">openage.convert.binpack.</text>
<text text-anchor="middle" x="63.5" y="-29.5" font-family="Helvetica,sans-Serif" font-size="10.00">Packer.height</text>
</a>
</g>
</g>
<!-- Node3 -->
<g id="node2" class="node"><title>Node3</title>
<g id="a_node2"><a xlink:href="namespaceopenage_1_1console_1_1tests.xhtml#a46ebd3333dc9196558ac9aced828d117" target="_top" xlink:title=" ">
<polygon fill="white" stroke="black" points="163,-50 163,-69 309,-69 309,-50 163,-50"/>
<text text-anchor="middle" x="236" y="-57" font-family="Helvetica,sans-Serif" font-size="10.00">openage::console::tests::max</text>
</a>
</g>
</g>
<!-- Node2&#45;&gt;Node3 -->
<g id="edge1" class="edge"><title>Node2&#45;&gt;Node3</title>
<path fill="none" stroke="midnightblue" d="M127.02,-45.5671C135.422,-46.6512 144.142,-47.7764 152.819,-48.896"/>
<polygon fill="midnightblue" stroke="midnightblue" points="152.599,-52.3966 162.965,-50.2051 153.495,-45.4541 152.599,-52.3966"/>
</g>
<!-- Node4 -->
<g id="node3" class="node"><title>Node4</title>
<g id="a_node3"><a xlink:href="classopenage_1_1convert_1_1binpack_1_1_packer.xhtml#a9755eed59f354457fb58dcb946986c81" target="_top" xlink:title=" ">
<polygon fill="white" stroke="black" points="172.5,-0.5 172.5,-30.5 299.5,-30.5 299.5,-0.5 172.5,-0.5"/>
<text text-anchor="start" x="180.5" y="-18.5" font-family="Helvetica,sans-Serif" font-size="10.00">openage.convert.binpack.</text>
<text text-anchor="middle" x="236" y="-7.5" font-family="Helvetica,sans-Serif" font-size="10.00">Packer.pos</text>
</a>
</g>
</g>
<!-- Node2&#45;&gt;Node4 -->
<g id="edge2" class="edge"><title>Node2&#45;&gt;Node4</title>
<path fill="none" stroke="midnightblue" d="M127.02,-29.4329C138.487,-27.9533 150.546,-26.3973 162.281,-24.883"/>
<polygon fill="midnightblue" stroke="midnightblue" points="163.018,-28.3171 172.488,-23.5661 162.122,-21.3747 163.018,-28.3171"/>
</g>
</g>
</svg>
