<?xml version="1.0" encoding="UTF-8" standalone="no"?>
<!DOCTYPE svg PUBLIC "-//W3C//DTD SVG 1.1//EN"
 "http://www.w3.org/Graphics/SVG/1.1/DTD/svg11.dtd">
<!-- Generated by graphviz version 2.38.0 (20140413.2041)
 -->
<!-- Title: openage::IdleAction::IdleAction Pages: 1 -->
<svg width="562pt" height="39pt"
 viewBox="0.00 0.00 562.00 39.00" xmlns="http://www.w3.org/2000/svg" xmlns:xlink="http://www.w3.org/1999/xlink">
<g id="graph0" class="graph" transform="scale(1 1) rotate(0) translate(4 35)">
<title>openage::IdleAction::IdleAction</title>
<polygon fill="white" stroke="none" points="-4,4 -4,-35 558,-35 558,4 -4,4"/>
<!-- Node0 -->
<g id="node1" class="node"><title>Node0</title>
<g id="a_node1"><a xlink:title=" ">
<polygon fill="#bfbfbf" stroke="black" points="0,-0.5 0,-30.5 102,-30.5 102,-0.5 0,-0.5"/>
<text text-anchor="start" x="8" y="-18.5" font-family="Helvetica,sans-Serif" font-size="10.00">openage::IdleAction</text>
<text text-anchor="middle" x="51" y="-7.5" font-family="Helvetica,sans-Serif" font-size="10.00">::IdleAction</text>
</a>
</g>
</g>
<!-- Node1 -->
<g id="node2" class="node"><title>Node1</title>
<g id="a_node2"><a xlink:href="classopenage_1_1_unit_ability.xhtml#a282f5d02a2a6912670b27aedb7f4f337" target="_top" xlink:title="set bits corresponding to abilities, useful for initialising an ability_set using a brace enclosed li...">
<polygon fill="white" stroke="black" points="138,-0.5 138,-30.5 242,-30.5 242,-0.5 138,-0.5"/>
<text text-anchor="start" x="146" y="-18.5" font-family="Helvetica,sans-Serif" font-size="10.00">openage::UnitAbility</text>
<text text-anchor="middle" x="190" y="-7.5" font-family="Helvetica,sans-Serif" font-size="10.00">::set_from_list</text>
</a>
</g>
</g>
<!-- Node0&#45;&gt;Node1 -->
<g id="edge1" class="edge"><title>Node0&#45;&gt;Node1</title>
<path fill="none" stroke="midnightblue" d="M102.236,-15.5C110.488,-15.5 119.122,-15.5 127.609,-15.5"/>
<polygon fill="midnightblue" stroke="midnightblue" points="127.852,-19.0001 137.852,-15.5 127.852,-12.0001 127.852,-19.0001"/>
</g>
<!-- Node2 -->
<g id="node3" class="node"><title>Node2</title>
<g id="a_node3"><a xlink:href="namespaceopenage_1_1testing_1_1testing.xhtml#ac25bf81db406af62d08113ef7ae9fd6e" target="_top" xlink:title=" ">
<polygon fill="white" stroke="black" points="278,-6 278,-25 423,-25 423,-6 278,-6"/>
<text text-anchor="middle" x="350.5" y="-13" font-family="Helvetica,sans-Serif" font-size="10.00">openage.testing.testing.result</text>
</a>
</g>
</g>
<!-- Node1&#45;&gt;Node2 -->
<g id="edge2" class="edge"><title>Node1&#45;&gt;Node2</title>
<path fill="none" stroke="midnightblue" d="M242.023,-15.5C250.219,-15.5 258.877,-15.5 267.579,-15.5"/>
<polygon fill="midnightblue" stroke="midnightblue" points="267.789,-19.0001 277.789,-15.5 267.789,-12.0001 267.789,-19.0001"/>
</g>
<!-- Node3 -->
<g id="node4" class="node"><title>Node3</title>
<g id="a_node4"><a xlink:href="namespaceopenage_1_1util.xhtml#a7bc4421a5f0f57f3a0aba3f96eb8d19c" target="_top" xlink:title="method that behaves similar to python&#39;s &quot;repr&quot;.">
<polygon fill="white" stroke="black" points="459,-6 459,-25 554,-25 554,-6 459,-6"/>
<text text-anchor="middle" x="506.5" y="-13" font-family="Helvetica,sans-Serif" font-size="10.00">openage::util::repr</text>
</a>
</g>
</g>
<!-- Node2&#45;&gt;Node3 -->
<g id="edge3" class="edge"><title>Node2&#45;&gt;Node3</title>
<path fill="none" stroke="midnightblue" d="M423.09,-8.76483C431.595,-8.71813 440.189,-8.78172 448.453,-8.9556"/>
<polygon fill="midnightblue" stroke="midnightblue" points="448.622,-12.4614 458.713,-9.23483 448.812,-5.46399 448.622,-12.4614"/>
</g>
<!-- Node3&#45;&gt;Node2 -->
<g id="edge4" class="edge"><title>Node3&#45;&gt;Node2</title>
<path fill="none" stroke="midnightblue" d="M458.713,-21.7652C450.626,-22.0381 442.01,-22.1958 433.312,-22.2383"/>
<polygon fill="midnightblue" stroke="midnightblue" points="433.091,-18.7383 423.09,-22.2352 433.089,-25.7383 433.091,-18.7383"/>
</g>
</g>
</svg>
