<?xml version="1.0" encoding="UTF-8" standalone="no"?>
<!DOCTYPE svg PUBLIC "-//W3C//DTD SVG 1.1//EN"
 "http://www.w3.org/Graphics/SVG/1.1/DTD/svg11.dtd">
<!-- Generated by graphviz version 2.38.0 (20140413.2041)
 -->
<!-- Title: qtsdl::GuiItem&lt; T &gt; Pages: 1 -->
<!--zoomable 524 -->
<svg id="main" version="1.1" xmlns="http://www.w3.org/2000/svg" xmlns:xlink="http://www.w3.org/1999/xlink" xml:space="preserve" onload="init(evt)">
<style type="text/css"><![CDATA[
.edge:hover path { stroke: red; }
.edge:hover polygon { stroke: red; fill: red; }
]]></style>
<script type="text/javascript"><![CDATA[
var edges = document.getElementsByTagName('g');
if (edges && edges.length) {
  for (var i=0;i<edges.length;i++) {
    if (edges[i].id.substr(0,4)=='edge') {
      edges[i].setAttribute('class','edge');
    }
  }
}
]]></script>
        <defs>
                <circle id="rim" cx="0" cy="0" r="7"/>
                <circle id="rim2" cx="0" cy="0" r="3.5"/>
                <g id="zoomPlus">
                        <use xlink:href="#rim" fill="#404040">
                                <set attributeName="fill" to="#808080" begin="zoomplus.mouseover" end="zoomplus.mouseout"/>
                        </use>
                        <path d="M-4,0h8M0,-4v8" fill="none" stroke="white" stroke-width="1.5" pointer-events="none"/>
                </g>
                <g id="zoomMin">
                        <use xlink:href="#rim" fill="#404040">
                                <set attributeName="fill" to="#808080" begin="zoomminus.mouseover" end="zoomminus.mouseout"/>
                        </use>
                        <path d="M-4,0h8" fill="none" stroke="white" stroke-width="1.5" pointer-events="none"/>
                </g>
                <g id="dirArrow">
                        <path fill="none" stroke="white" stroke-width="1.5" d="M0,-3.0v7 M-2.5,-0.5L0,-3.0L2.5,-0.5"/>
                </g>
               <g id="resetDef">
                       <use xlink:href="#rim2" fill="#404040">
                               <set attributeName="fill" to="#808080" begin="reset.mouseover" end="reset.mouseout"/>
                       </use>
               </g>
        </defs>

<script type="text/javascript">
var viewWidth = 322;
var viewHeight = 524;
var sectionId = 'dynsection-0';
</script>
<script xlink:href="svgpan.js"/>
<svg id="graph" class="graph">
<g id="viewport">
<title>qtsdl::GuiItem&lt; T &gt;</title>
<polygon fill="white" stroke="none" points="-4,4 -4,-520 317.5,-520 317.5,4 -4,4"/>
<!-- Node0 -->
<g id="node1" class="node"><title>Node0</title>
<g id="a_node1"><a xlink:title=" ">
<polygon fill="#bfbfbf" stroke="black" points="95.5,-149.5 95.5,-206.5 196.5,-206.5 196.5,-149.5 95.5,-149.5"/>
<text text-anchor="middle" x="146" y="-194.5" font-family="Helvetica,sans-Serif" font-size="10.00">qtsdl::GuiItem&lt; T &gt;</text>
<polyline fill="none" stroke="black" points="95.5,-187.5 196.5,-187.5 "/>
<text text-anchor="middle" x="146" y="-175.5" font-family="Helvetica,sans-Serif" font-size="10.00"> </text>
<polyline fill="none" stroke="black" points="95.5,-168.5 196.5,-168.5 "/>
<text text-anchor="start" x="103.5" y="-156.5" font-family="Helvetica,sans-Serif" font-size="10.00">+ GuiItem()</text>
</a>
</g>
</g>
<!-- Node4 -->
<g id="node5" class="node"><title>Node4</title>
<g id="a_node5"><a xlink:href="classqtsdl_1_1_gui_item_list_model.xhtml" target="_top" xlink:title=" ">
<polygon fill="white" stroke="black" points="68.5,-0.5 68.5,-112.5 223.5,-112.5 223.5,-0.5 68.5,-0.5"/>
<text text-anchor="middle" x="146" y="-100.5" font-family="Helvetica,sans-Serif" font-size="10.00">qtsdl::GuiItemListModel&lt; T &gt;</text>
<polyline fill="none" stroke="black" points="68.5,-93.5 223.5,-93.5 "/>
<text text-anchor="middle" x="146" y="-81.5" font-family="Helvetica,sans-Serif" font-size="10.00"> </text>
<polyline fill="none" stroke="black" points="68.5,-74.5 223.5,-74.5 "/>
<text text-anchor="start" x="76.5" y="-62.5" font-family="Helvetica,sans-Serif" font-size="10.00">+ GuiItemListModel()</text>
<text text-anchor="start" x="76.5" y="-51.5" font-family="Helvetica,sans-Serif" font-size="10.00">&#45; on_core_adopted()</text>
<text text-anchor="start" x="76.5" y="-40.5" font-family="Helvetica,sans-Serif" font-size="10.00">&#45; establish_from_gui</text>
<text text-anchor="start" x="76.5" y="-29.5" font-family="Helvetica,sans-Serif" font-size="10.00">_propagation()</text>
<text text-anchor="start" x="76.5" y="-18.5" font-family="Helvetica,sans-Serif" font-size="10.00">&#45; establish_to_gui_propagation()</text>
<text text-anchor="start" x="76.5" y="-7.5" font-family="Helvetica,sans-Serif" font-size="10.00">&#45; do_initial_to_gui_propagation()</text>
</a>
</g>
</g>
<!-- Node0&#45;&gt;Node4 -->
<g id="edge4" class="edge"><title>Node0&#45;&gt;Node4</title>
<path fill="none" stroke="midnightblue" d="M146,-139.108C146,-130.748 146,-121.725 146,-112.834"/>
<polygon fill="none" stroke="midnightblue" points="142.5,-139.284 146,-149.284 149.5,-139.284 142.5,-139.284"/>
</g>
<!-- Node1 -->
<g id="node2" class="node"><title>Node1</title>
<g id="a_node2"><a xlink:href="classqtsdl_1_1_gui_item_origin.xhtml" target="_top" xlink:title=" ">
<polygon fill="white" stroke="black" points="0,-265.5 0,-322.5 126,-322.5 126,-265.5 0,-265.5"/>
<text text-anchor="middle" x="63" y="-310.5" font-family="Helvetica,sans-Serif" font-size="10.00">qtsdl::GuiItemOrigin&lt; T &gt;</text>
<polyline fill="none" stroke="black" points="0,-303.5 126,-303.5 "/>
<text text-anchor="start" x="8" y="-291.5" font-family="Helvetica,sans-Serif" font-size="10.00">&#45; holder</text>
<polyline fill="none" stroke="black" points="0,-284.5 126,-284.5 "/>
<text text-anchor="middle" x="63" y="-272.5" font-family="Helvetica,sans-Serif" font-size="10.00"> </text>
</a>
</g>
</g>
<!-- Node1&#45;&gt;Node0 -->
<g id="edge1" class="edge"><title>Node1&#45;&gt;Node0</title>
<path fill="none" stroke="midnightblue" d="M89.0887,-257.167C100.945,-240.883 114.757,-221.912 125.805,-206.737"/>
<polygon fill="none" stroke="midnightblue" points="86.1484,-255.259 83.092,-265.404 91.8075,-259.38 86.1484,-255.259"/>
</g>
<!-- Node2 -->
<g id="node3" class="node"><title>Node2</title>
<g id="a_node3"><a xlink:href="classqtsdl_1_1_gui_item_core_instantiator.xhtml" target="_top" xlink:title=" ">
<polygon fill="white" stroke="black" points="144.5,-243.5 144.5,-344.5 313.5,-344.5 313.5,-243.5 144.5,-243.5"/>
<text text-anchor="middle" x="229" y="-332.5" font-family="Helvetica,sans-Serif" font-size="10.00">qtsdl::GuiItemCoreInstantiator&lt; T &gt;</text>
<polyline fill="none" stroke="black" points="144.5,-325.5 313.5,-325.5 "/>
<text text-anchor="middle" x="229" y="-313.5" font-family="Helvetica,sans-Serif" font-size="10.00"> </text>
<polyline fill="none" stroke="black" points="144.5,-306.5 313.5,-306.5 "/>
<text text-anchor="start" x="152.5" y="-294.5" font-family="Helvetica,sans-Serif" font-size="10.00">+ GuiItemCoreInstantiator()</text>
<text text-anchor="start" x="152.5" y="-283.5" font-family="Helvetica,sans-Serif" font-size="10.00">&#45; instantiate_core()</text>
<text text-anchor="start" x="152.5" y="-272.5" font-family="Helvetica,sans-Serif" font-size="10.00">&#45; do_adopt_core()</text>
<text text-anchor="start" x="152.5" y="-261.5" font-family="Helvetica,sans-Serif" font-size="10.00">&#45; GuiItemCoreInstantiator()</text>
<text text-anchor="start" x="152.5" y="-250.5" font-family="Helvetica,sans-Serif" font-size="10.00">&#45; operator=()</text>
</a>
</g>
</g>
<!-- Node2&#45;&gt;Node0 -->
<g id="edge2" class="edge"><title>Node2&#45;&gt;Node0</title>
<path fill="none" stroke="midnightblue" d="M186.784,-235.017C179.565,-225.101 172.374,-215.225 166.087,-206.589"/>
<polygon fill="none" stroke="midnightblue" points="184.121,-237.305 192.836,-243.33 189.78,-233.185 184.121,-237.305"/>
</g>
<!-- Node3 -->
<g id="node4" class="node"><title>Node3</title>
<g id="a_node4"><a xlink:href="classqtsdl_1_1_gui_item_methods.xhtml" target="_top" xlink:title=" ">
<polygon fill="white" stroke="black" points="160,-381.5 160,-515.5 298,-515.5 298,-381.5 160,-381.5"/>
<text text-anchor="middle" x="229" y="-503.5" font-family="Helvetica,sans-Serif" font-size="10.00">qtsdl::GuiItemMethods&lt; T &gt;</text>
<polyline fill="none" stroke="black" points="160,-496.5 298,-496.5 "/>
<text text-anchor="middle" x="229" y="-484.5" font-family="Helvetica,sans-Serif" font-size="10.00"> </text>
<polyline fill="none" stroke="black" points="160,-477.5 298,-477.5 "/>
<text text-anchor="start" x="168" y="-465.5" font-family="Helvetica,sans-Serif" font-size="10.00">+ ~GuiItemMethods()</text>
<text text-anchor="start" x="168" y="-454.5" font-family="Helvetica,sans-Serif" font-size="10.00">+ get()</text>
<text text-anchor="start" x="168" y="-443.5" font-family="Helvetica,sans-Serif" font-size="10.00">+ get()</text>
<text text-anchor="start" x="168" y="-432.5" font-family="Helvetica,sans-Serif" font-size="10.00">+ i()</text>
<text text-anchor="start" x="168" y="-421.5" font-family="Helvetica,sans-Serif" font-size="10.00"># s()</text>
<text text-anchor="start" x="168" y="-410.5" font-family="Helvetica,sans-Serif" font-size="10.00"># sf()</text>
<text text-anchor="start" x="168" y="-399.5" font-family="Helvetica,sans-Serif" font-size="10.00">&#45; assign_while_catching</text>
<text text-anchor="start" x="168" y="-388.5" font-family="Helvetica,sans-Serif" font-size="10.00">_constant_properies_inits()</text>
</a>
</g>
</g>
<!-- Node3&#45;&gt;Node2 -->
<g id="edge3" class="edge"><title>Node3&#45;&gt;Node2</title>
<path fill="none" stroke="midnightblue" d="M229,-371.274C229,-362.194 229,-353.113 229,-344.547"/>
<polygon fill="none" stroke="midnightblue" points="225.5,-371.498 229,-381.498 232.5,-371.498 225.5,-371.498"/>
</g>
</g>
</svg>
        <g id="navigator" transform="translate(0 0)" fill="#404254">
                <rect fill="#f2f5e9" fill-opacity="0.5" stroke="#606060" stroke-width=".5" x="0" y="0" width="60" height="60"/>
                <use id="zoomplus" xlink:href="#zoomPlus" x="17" y="9" onmousedown="handleZoom(evt,'in')"/>
                <use id="zoomminus" xlink:href="#zoomMin" x="42" y="9" onmousedown="handleZoom(evt,'out')"/>
                <use id="reset" xlink:href="#resetDef" x="30" y="36" onmousedown="handleReset()"/>
                <g id="arrowUp" xlink:href="#dirArrow" transform="translate(30 24)" onmousedown="handlePan(0,-1)">
                  <use xlink:href="#rim" fill="#404040">
                        <set attributeName="fill" to="#808080" begin="arrowUp.mouseover" end="arrowUp.mouseout"/>
                  </use>
                  <path fill="none" stroke="white" stroke-width="1.5" d="M0,-3.0v7 M-2.5,-0.5L0,-3.0L2.5,-0.5"/>
                </g>
                <g id="arrowRight" xlink:href="#dirArrow" transform="rotate(90) translate(36 -43)" onmousedown="handlePan(1,0)">
                  <use xlink:href="#rim" fill="#404040">
                        <set attributeName="fill" to="#808080" begin="arrowRight.mouseover" end="arrowRight.mouseout"/>
                  </use>
                  <path fill="none" stroke="white" stroke-width="1.5" d="M0,-3.0v7 M-2.5,-0.5L0,-3.0L2.5,-0.5"/>
                </g>
                <g id="arrowDown" xlink:href="#dirArrow" transform="rotate(180) translate(-30 -48)" onmousedown="handlePan(0,1)">
                  <use xlink:href="#rim" fill="#404040">
                        <set attributeName="fill" to="#808080" begin="arrowDown.mouseover" end="arrowDown.mouseout"/>
                  </use>
                  <path fill="none" stroke="white" stroke-width="1.5" d="M0,-3.0v7 M-2.5,-0.5L0,-3.0L2.5,-0.5"/>
                </g>
                <g id="arrowLeft" xlink:href="#dirArrow" transform="rotate(270) translate(-36 17)" onmousedown="handlePan(-1,0)">
                  <use xlink:href="#rim" fill="#404040">
                        <set attributeName="fill" to="#808080" begin="arrowLeft.mouseover" end="arrowLeft.mouseout"/>
                  </use>
                  <path fill="none" stroke="white" stroke-width="1.5" d="M0,-3.0v7 M-2.5,-0.5L0,-3.0L2.5,-0.5"/>
                </g>
        </g>
        <svg viewBox="0 0 15 15" width="100%" height="30px" preserveAspectRatio="xMaxYMin meet">
         <g id="arrow_out" transform="scale(0.3 0.3)">
          <a xlink:href="classqtsdl_1_1_gui_item__inherit__graph_org.svg" target="_base">
           <rect id="button" ry="5" rx="5" y="6" x="6" height="38" width="38"
                fill="#f2f5e9" fill-opacity="0.5" stroke="#606060" stroke-width="1.0"/>
           <path id="arrow"
             d="M 11.500037,31.436501 C 11.940474,20.09759 22.043105,11.32322 32.158766,21.979434 L 37.068811,17.246167 C 37.068811,17.246167 37.088388,32 37.088388,32 L 22.160133,31.978069 C 22.160133,31.978069 26.997745,27.140456 26.997745,27.140456 C 18.528582,18.264221 13.291696,25.230495 11.500037,31.436501 z"
             style="fill:#404040;"/>
          </a>
         </g>
        </svg>
</svg>
