<?xml version="1.0" encoding="UTF-8" standalone="no"?>
<!DOCTYPE svg PUBLIC "-//W3C//DTD SVG 1.1//EN"
 "http://www.w3.org/Graphics/SVG/1.1/DTD/svg11.dtd">
<!-- Generated by graphviz version 2.38.0 (20140413.2041)
 -->
<!-- Title: openage::Attribute&lt; attr_type::resource_generator &gt; Pages: 1 -->
<!--zoomable 508 -->
<svg id="main" version="1.1" xmlns="http://www.w3.org/2000/svg" xmlns:xlink="http://www.w3.org/1999/xlink" xml:space="preserve" onload="init(evt)">
<style type="text/css"><![CDATA[
.edge:hover path { stroke: red; }
.edge:hover polygon { stroke: red; fill: red; }
]]></style>
<script type="text/javascript"><![CDATA[
var edges = document.getElementsByTagName('g');
if (edges && edges.length) {
  for (var i=0;i<edges.length;i++) {
    if (edges[i].id.substr(0,4)=='edge') {
      edges[i].setAttribute('class','edge');
    }
  }
}
]]></script>
        <defs>
                <circle id="rim" cx="0" cy="0" r="7"/>
                <circle id="rim2" cx="0" cy="0" r="3.5"/>
                <g id="zoomPlus">
                        <use xlink:href="#rim" fill="#404040">
                                <set attributeName="fill" to="#808080" begin="zoomplus.mouseover" end="zoomplus.mouseout"/>
                        </use>
                        <path d="M-4,0h8M0,-4v8" fill="none" stroke="white" stroke-width="1.5" pointer-events="none"/>
                </g>
                <g id="zoomMin">
                        <use xlink:href="#rim" fill="#404040">
                                <set attributeName="fill" to="#808080" begin="zoomminus.mouseover" end="zoomminus.mouseout"/>
                        </use>
                        <path d="M-4,0h8" fill="none" stroke="white" stroke-width="1.5" pointer-events="none"/>
                </g>
                <g id="dirArrow">
                        <path fill="none" stroke="white" stroke-width="1.5" d="M0,-3.0v7 M-2.5,-0.5L0,-3.0L2.5,-0.5"/>
                </g>
               <g id="resetDef">
                       <use xlink:href="#rim2" fill="#404040">
                               <set attributeName="fill" to="#808080" begin="reset.mouseover" end="reset.mouseout"/>
                       </use>
               </g>
        </defs>

<script type="text/javascript">
var viewWidth = 298;
var viewHeight = 508;
var sectionId = 'dynsection-1';
</script>
<script xlink:href="svgpan.js"/>
<svg id="graph" class="graph">
<g id="viewport">
<title>openage::Attribute&lt; attr_type::resource_generator &gt;</title>
<polygon fill="white" stroke="none" points="-4,4 -4,-504 293.5,-504 293.5,4 -4,4"/>
<!-- Node3 -->
<g id="node1" class="node"><title>Node3</title>
<g id="a_node1"><a xlink:title="Resource generator eg.">
<polygon fill="#bfbfbf" stroke="black" points="131.5,-0.5 131.5,-90.5 238.5,-90.5 238.5,-0.5 131.5,-0.5"/>
<text text-anchor="start" x="139.5" y="-78.5" font-family="Helvetica,sans-Serif" font-size="10.00">openage::Attribute</text>
<text text-anchor="start" x="139.5" y="-67.5" font-family="Helvetica,sans-Serif" font-size="10.00">&lt; attr_type::resource</text>
<text text-anchor="middle" x="185" y="-56.5" font-family="Helvetica,sans-Serif" font-size="10.00">_generator &gt;</text>
<polyline fill="none" stroke="black" points="131.5,-49.5 238.5,-49.5 "/>
<text text-anchor="start" x="139.5" y="-37.5" font-family="Helvetica,sans-Serif" font-size="10.00">+ rate</text>
<polyline fill="none" stroke="black" points="131.5,-30.5 238.5,-30.5 "/>
<text text-anchor="start" x="139.5" y="-18.5" font-family="Helvetica,sans-Serif" font-size="10.00">+ Attribute()</text>
<text text-anchor="start" x="139.5" y="-7.5" font-family="Helvetica,sans-Serif" font-size="10.00">+ copy()</text>
</a>
</g>
</g>
<!-- Node4 -->
<g id="node2" class="node"><title>Node4</title>
<g id="a_node2"><a xlink:href="classopenage_1_1_shared_attribute_container.xhtml" target="_top" xlink:title="Wraps a templated shared attribute.">
<polygon fill="white" stroke="black" points="0,-210 0,-289 140,-289 140,-210 0,-210"/>
<text text-anchor="start" x="8" y="-277" font-family="Helvetica,sans-Serif" font-size="10.00">openage::SharedAttribute</text>
<text text-anchor="middle" x="70" y="-266" font-family="Helvetica,sans-Serif" font-size="10.00">Container</text>
<polyline fill="none" stroke="black" points="0,-259 140,-259 "/>
<text text-anchor="middle" x="70" y="-247" font-family="Helvetica,sans-Serif" font-size="10.00"> </text>
<polyline fill="none" stroke="black" points="0,-240 140,-240 "/>
<text text-anchor="start" x="8" y="-228" font-family="Helvetica,sans-Serif" font-size="10.00">+ SharedAttributeContainer()</text>
<text text-anchor="start" x="8" y="-217" font-family="Helvetica,sans-Serif" font-size="10.00">+ shared()</text>
</a>
</g>
</g>
<!-- Node4&#45;&gt;Node3 -->
<g id="edge1" class="edge"><title>Node4&#45;&gt;Node3</title>
<path fill="none" stroke="midnightblue" d="M97.354,-200.452C116.334,-167.112 141.425,-123.04 159.896,-90.5957"/>
<polygon fill="none" stroke="midnightblue" points="94.0791,-199.13 92.1732,-209.552 100.162,-202.594 94.0791,-199.13"/>
</g>
<!-- Node5 -->
<g id="node3" class="node"><title>Node5</title>
<g id="a_node3"><a xlink:href="classopenage_1_1_attribute_container.xhtml" target="_top" xlink:title="Wraps a templated attribute.">
<polygon fill="white" stroke="black" points="1.5,-398.5 1.5,-499.5 138.5,-499.5 138.5,-398.5 1.5,-398.5"/>
<text text-anchor="middle" x="70" y="-487.5" font-family="Helvetica,sans-Serif" font-size="10.00">openage::AttributeContainer</text>
<polyline fill="none" stroke="black" points="1.5,-480.5 138.5,-480.5 "/>
<text text-anchor="start" x="9.5" y="-468.5" font-family="Helvetica,sans-Serif" font-size="10.00">+ type</text>
<polyline fill="none" stroke="black" points="1.5,-461.5 138.5,-461.5 "/>
<text text-anchor="start" x="9.5" y="-449.5" font-family="Helvetica,sans-Serif" font-size="10.00">+ AttributeContainer()</text>
<text text-anchor="start" x="9.5" y="-438.5" font-family="Helvetica,sans-Serif" font-size="10.00">+ AttributeContainer()</text>
<text text-anchor="start" x="9.5" y="-427.5" font-family="Helvetica,sans-Serif" font-size="10.00">+ ~AttributeContainer()</text>
<text text-anchor="start" x="9.5" y="-416.5" font-family="Helvetica,sans-Serif" font-size="10.00">+ shared()</text>
<text text-anchor="start" x="9.5" y="-405.5" font-family="Helvetica,sans-Serif" font-size="10.00">+ copy()</text>
</a>
</g>
</g>
<!-- Node5&#45;&gt;Node4 -->
<g id="edge2" class="edge"><title>Node5&#45;&gt;Node4</title>
<path fill="none" stroke="midnightblue" d="M70,-388.235C70,-356.095 70,-317.391 70,-289.207"/>
<polygon fill="none" stroke="midnightblue" points="66.5001,-388.417 70,-398.417 73.5001,-388.417 66.5001,-388.417"/>
</g>
<!-- Node6 -->
<g id="node4" class="node"><title>Node6</title>
<g id="a_node4"><a xlink:href="classopenage_1_1_resource_bundle.xhtml" target="_top" xlink:title="A set of amounts of game resources.">
<polygon fill="white" stroke="black" points="158.5,-138.5 158.5,-360.5 289.5,-360.5 289.5,-138.5 158.5,-138.5"/>
<text text-anchor="middle" x="224" y="-348.5" font-family="Helvetica,sans-Serif" font-size="10.00">openage::ResourceBundle</text>
<polyline fill="none" stroke="black" points="158.5,-341.5 289.5,-341.5 "/>
<text text-anchor="start" x="166.5" y="-329.5" font-family="Helvetica,sans-Serif" font-size="10.00">&#45; count</text>
<text text-anchor="start" x="166.5" y="-318.5" font-family="Helvetica,sans-Serif" font-size="10.00">&#45; value</text>
<polyline fill="none" stroke="black" points="158.5,-311.5 289.5,-311.5 "/>
<text text-anchor="start" x="166.5" y="-299.5" font-family="Helvetica,sans-Serif" font-size="10.00">+ ResourceBundle()</text>
<text text-anchor="start" x="166.5" y="-288.5" font-family="Helvetica,sans-Serif" font-size="10.00">+ ResourceBundle()</text>
<text text-anchor="start" x="166.5" y="-277.5" font-family="Helvetica,sans-Serif" font-size="10.00">+ ~ResourceBundle()</text>
<text text-anchor="start" x="166.5" y="-266.5" font-family="Helvetica,sans-Serif" font-size="10.00">+ ResourceBundle()</text>
<text text-anchor="start" x="166.5" y="-255.5" font-family="Helvetica,sans-Serif" font-size="10.00">+ clone()</text>
<text text-anchor="start" x="166.5" y="-244.5" font-family="Helvetica,sans-Serif" font-size="10.00">+ operator&gt;()</text>
<text text-anchor="start" x="166.5" y="-233.5" font-family="Helvetica,sans-Serif" font-size="10.00">+ operator&gt;=()</text>
<text text-anchor="start" x="166.5" y="-222.5" font-family="Helvetica,sans-Serif" font-size="10.00">+ operator+=()</text>
<text text-anchor="start" x="166.5" y="-211.5" font-family="Helvetica,sans-Serif" font-size="10.00">+ operator&#45;=()</text>
<text text-anchor="start" x="166.5" y="-200.5" font-family="Helvetica,sans-Serif" font-size="10.00">+ operator *=()</text>
<text text-anchor="start" x="166.5" y="-189.5" font-family="Helvetica,sans-Serif" font-size="10.00">and 13 more...</text>
<text text-anchor="start" x="166.5" y="-178.5" font-family="Helvetica,sans-Serif" font-size="10.00">&#45; ResourceBundle()</text>
<text text-anchor="start" x="166.5" y="-167.5" font-family="Helvetica,sans-Serif" font-size="10.00">&#45; expand()</text>
<text text-anchor="start" x="166.5" y="-156.5" font-family="Helvetica,sans-Serif" font-size="10.00">&#45; expand()</text>
<text text-anchor="start" x="166.5" y="-145.5" font-family="Helvetica,sans-Serif" font-size="10.00">&#45; min_count()</text>
</a>
</g>
</g>
<!-- Node6&#45;&gt;Node3 -->
<g id="edge3" class="edge"><title>Node6&#45;&gt;Node3</title>
<path fill="none" stroke="#404040" d="M202.731,-138.338C200.374,-126.13 198.052,-114.102 195.904,-102.976"/>
<polygon fill="none" stroke="#404040" points="195.835,-102.617 190.77,-97.4841 193.56,-90.8346 198.625,-95.9675 195.835,-102.617"/>
<text text-anchor="middle" x="225" y="-112" font-family="Helvetica,sans-Serif" font-size="10.00"> +resources</text>
</g>
</g>
</svg>
        <g id="navigator" transform="translate(0 0)" fill="#404254">
                <rect fill="#f2f5e9" fill-opacity="0.5" stroke="#606060" stroke-width=".5" x="0" y="0" width="60" height="60"/>
                <use id="zoomplus" xlink:href="#zoomPlus" x="17" y="9" onmousedown="handleZoom(evt,'in')"/>
                <use id="zoomminus" xlink:href="#zoomMin" x="42" y="9" onmousedown="handleZoom(evt,'out')"/>
                <use id="reset" xlink:href="#resetDef" x="30" y="36" onmousedown="handleReset()"/>
                <g id="arrowUp" xlink:href="#dirArrow" transform="translate(30 24)" onmousedown="handlePan(0,-1)">
                  <use xlink:href="#rim" fill="#404040">
                        <set attributeName="fill" to="#808080" begin="arrowUp.mouseover" end="arrowUp.mouseout"/>
                  </use>
                  <path fill="none" stroke="white" stroke-width="1.5" d="M0,-3.0v7 M-2.5,-0.5L0,-3.0L2.5,-0.5"/>
                </g>
                <g id="arrowRight" xlink:href="#dirArrow" transform="rotate(90) translate(36 -43)" onmousedown="handlePan(1,0)">
                  <use xlink:href="#rim" fill="#404040">
                        <set attributeName="fill" to="#808080" begin="arrowRight.mouseover" end="arrowRight.mouseout"/>
                  </use>
                  <path fill="none" stroke="white" stroke-width="1.5" d="M0,-3.0v7 M-2.5,-0.5L0,-3.0L2.5,-0.5"/>
                </g>
                <g id="arrowDown" xlink:href="#dirArrow" transform="rotate(180) translate(-30 -48)" onmousedown="handlePan(0,1)">
                  <use xlink:href="#rim" fill="#404040">
                        <set attributeName="fill" to="#808080" begin="arrowDown.mouseover" end="arrowDown.mouseout"/>
                  </use>
                  <path fill="none" stroke="white" stroke-width="1.5" d="M0,-3.0v7 M-2.5,-0.5L0,-3.0L2.5,-0.5"/>
                </g>
                <g id="arrowLeft" xlink:href="#dirArrow" transform="rotate(270) translate(-36 17)" onmousedown="handlePan(-1,0)">
                  <use xlink:href="#rim" fill="#404040">
                        <set attributeName="fill" to="#808080" begin="arrowLeft.mouseover" end="arrowLeft.mouseout"/>
                  </use>
                  <path fill="none" stroke="white" stroke-width="1.5" d="M0,-3.0v7 M-2.5,-0.5L0,-3.0L2.5,-0.5"/>
                </g>
        </g>
        <svg viewBox="0 0 15 15" width="100%" height="30px" preserveAspectRatio="xMaxYMin meet">
         <g id="arrow_out" transform="scale(0.3 0.3)">
          <a xlink:href="classopenage_1_1_attribute_3_01attr__type_1_1resource__generator_01_4__coll__graph_org.svg" target="_base">
           <rect id="button" ry="5" rx="5" y="6" x="6" height="38" width="38"
                fill="#f2f5e9" fill-opacity="0.5" stroke="#606060" stroke-width="1.0"/>
           <path id="arrow"
             d="M 11.500037,31.436501 C 11.940474,20.09759 22.043105,11.32322 32.158766,21.979434 L 37.068811,17.246167 C 37.068811,17.246167 37.088388,32 37.088388,32 L 22.160133,31.978069 C 22.160133,31.978069 26.997745,27.140456 26.997745,27.140456 C 18.528582,18.264221 13.291696,25.230495 11.500037,31.436501 z"
             style="fill:#404040;"/>
          </a>
         </g>
        </svg>
</svg>
