<?xml version="1.0" encoding="UTF-8" standalone="no"?>
<!DOCTYPE svg PUBLIC "-//W3C//DTD SVG 1.1//EN"
 "http://www.w3.org/Graphics/SVG/1.1/DTD/svg11.dtd">
<!-- Generated by graphviz version 2.38.0 (20140413.2041)
 -->
<!-- Title: openage::util::FD::puts Pages: 1 -->
<svg width="569pt" height="161pt"
 viewBox="0.00 0.00 569.00 161.00" xmlns="http://www.w3.org/2000/svg" xmlns:xlink="http://www.w3.org/1999/xlink">
<g id="graph0" class="graph" transform="scale(1 1) rotate(0) translate(4 157)">
<title>openage::util::FD::puts</title>
<polygon fill="white" stroke="none" points="-4,4 -4,-157 565,-157 565,4 -4,4"/>
<!-- Node50 -->
<g id="node1" class="node"><title>Node50</title>
<g id="a_node1"><a xlink:title="writes the string (excluding the null terminator)">
<polygon fill="#bfbfbf" stroke="black" points="445,-72 445,-91 561,-91 561,-72 445,-72"/>
<text text-anchor="middle" x="503" y="-79" font-family="Helvetica,sans-Serif" font-size="10.00">openage::util::FD::puts</text>
</a>
</g>
</g>
<!-- Node51 -->
<g id="node2" class="node"><title>Node51</title>
<g id="a_node2"><a xlink:href="namespaceopenage_1_1console_1_1tests.xhtml#a4a108e620e3fead2c08ff14841552186" target="_top" xlink:title=" ">
<polygon fill="white" stroke="black" points="0,-122.5 0,-152.5 121,-152.5 121,-122.5 0,-122.5"/>
<text text-anchor="start" x="8" y="-140.5" font-family="Helvetica,sans-Serif" font-size="10.00">openage::console::tests</text>
<text text-anchor="middle" x="60.5" y="-129.5" font-family="Helvetica,sans-Serif" font-size="10.00">::interactive</text>
</a>
</g>
</g>
<!-- Node50&#45;&gt;Node51 -->
<g id="edge1" class="edge"><title>Node50&#45;&gt;Node51</title>
<path fill="none" stroke="midnightblue" d="M479.287,-96.5878C461.119,-107.741 434.544,-122.061 409,-128.5 310.541,-153.318 191.4,-149.401 121.292,-143.8"/>
<polygon fill="midnightblue" stroke="midnightblue" points="481.385,-99.4022 487.971,-91.103 477.647,-93.4837 481.385,-99.4022"/>
</g>
<!-- Node52 -->
<g id="node3" class="node"><title>Node52</title>
<g id="a_node3"><a xlink:href="classopenage_1_1util_1_1_f_d.xhtml#ac3b4a14cfa134355f0890c1d9ea608f4" target="_top" xlink:title="guess what this does.">
<polygon fill="white" stroke="black" points="312,-88.5 312,-118.5 409,-118.5 409,-88.5 312,-88.5"/>
<text text-anchor="start" x="320" y="-106.5" font-family="Helvetica,sans-Serif" font-size="10.00">openage::util::FD::</text>
<text text-anchor="middle" x="360.5" y="-95.5" font-family="Helvetica,sans-Serif" font-size="10.00">printf</text>
</a>
</g>
</g>
<!-- Node50&#45;&gt;Node52 -->
<g id="edge2" class="edge"><title>Node50&#45;&gt;Node52</title>
<path fill="none" stroke="midnightblue" d="M434.762,-92.0283C426.116,-93.3822 417.408,-94.7457 409.165,-96.0365"/>
<polygon fill="midnightblue" stroke="midnightblue" points="435.515,-95.4532 444.853,-90.4482 434.432,-88.5374 435.515,-95.4532"/>
</g>
<!-- Node53 -->
<g id="node4" class="node"><title>Node53</title>
<g id="a_node4"><a xlink:href="namespaceopenage_1_1console_1_1draw.xhtml#ab9e51a5e1f100773a19da09a4f9d1597" target="_top" xlink:title="very early and inefficient printing of the console to a pty.">
<polygon fill="white" stroke="black" points="157,-54.5 157,-84.5 276,-84.5 276,-54.5 157,-54.5"/>
<text text-anchor="start" x="165" y="-72.5" font-family="Helvetica,sans-Serif" font-size="10.00">openage::console::draw</text>
<text text-anchor="middle" x="216.5" y="-61.5" font-family="Helvetica,sans-Serif" font-size="10.00">::to_terminal</text>
</a>
</g>
</g>
<!-- Node50&#45;&gt;Node53 -->
<g id="edge8" class="edge"><title>Node50&#45;&gt;Node53</title>
<path fill="none" stroke="midnightblue" d="M434.738,-78.6629C386.526,-76.6294 322.221,-73.917 276.105,-71.9719"/>
<polygon fill="midnightblue" stroke="midnightblue" points="434.631,-82.1614 444.769,-79.0861 434.926,-75.1677 434.631,-82.1614"/>
</g>
<!-- Node55 -->
<g id="node6" class="node"><title>Node55</title>
<g id="a_node6"><a xlink:href="classopenage_1_1util_1_1_f_d.xhtml#a6826267ab945c97663c9e3506bbf2542" target="_top" xlink:title="writes the unicode codepoint, as utf&#45;8">
<polygon fill="white" stroke="black" points="312,-0.5 312,-30.5 409,-30.5 409,-0.5 312,-0.5"/>
<text text-anchor="start" x="320" y="-18.5" font-family="Helvetica,sans-Serif" font-size="10.00">openage::util::FD::</text>
<text text-anchor="middle" x="360.5" y="-7.5" font-family="Helvetica,sans-Serif" font-size="10.00">putcp</text>
</a>
</g>
</g>
<!-- Node50&#45;&gt;Node55 -->
<g id="edge6" class="edge"><title>Node50&#45;&gt;Node55</title>
<path fill="none" stroke="midnightblue" d="M472.28,-67.5392C449.223,-56.7082 417.313,-41.7181 393.66,-30.6071"/>
<polygon fill="midnightblue" stroke="midnightblue" points="471.031,-70.8191 481.57,-71.903 474.007,-64.4833 471.031,-70.8191"/>
</g>
<!-- Node52&#45;&gt;Node53 -->
<g id="edge3" class="edge"><title>Node52&#45;&gt;Node53</title>
<path fill="none" stroke="midnightblue" d="M301.983,-89.7283C293.471,-87.6902 284.69,-85.5878 276.155,-83.5442"/>
<polygon fill="midnightblue" stroke="midnightblue" points="301.281,-93.1591 311.821,-92.0839 302.911,-86.3515 301.281,-93.1591"/>
</g>
<!-- Node53&#45;&gt;Node51 -->
<g id="edge4" class="edge"><title>Node53&#45;&gt;Node51</title>
<path fill="none" stroke="midnightblue" d="M172.001,-88.7074C147.791,-99.3977 118.091,-112.512 95.5821,-122.451"/>
<polygon fill="midnightblue" stroke="midnightblue" points="173.588,-91.8326 181.322,-84.5914 170.761,-85.429 173.588,-91.8326"/>
</g>
<!-- Node54 -->
<g id="node5" class="node"><title>Node54</title>
<g id="a_node5"><a xlink:href="namespaceopenage_1_1console_1_1tests.xhtml#a15c3b269411a779e1ae9af60a3b6fedf" target="_top" xlink:title=" ">
<polygon fill="white" stroke="black" points="0,-54.5 0,-84.5 121,-84.5 121,-54.5 0,-54.5"/>
<text text-anchor="start" x="8" y="-72.5" font-family="Helvetica,sans-Serif" font-size="10.00">openage::console::tests</text>
<text text-anchor="middle" x="60.5" y="-61.5" font-family="Helvetica,sans-Serif" font-size="10.00">::render</text>
</a>
</g>
</g>
<!-- Node53&#45;&gt;Node54 -->
<g id="edge5" class="edge"><title>Node53&#45;&gt;Node54</title>
<path fill="none" stroke="midnightblue" d="M146.826,-69.5C138.218,-69.5 129.47,-69.5 121.018,-69.5"/>
<polygon fill="midnightblue" stroke="midnightblue" points="146.84,-73.0001 156.84,-69.5 146.84,-66.0001 146.84,-73.0001"/>
</g>
<!-- Node55&#45;&gt;Node53 -->
<g id="edge7" class="edge"><title>Node55&#45;&gt;Node53</title>
<path fill="none" stroke="midnightblue" d="M310.529,-34.1229C293.163,-40.7266 273.847,-48.0724 257.335,-54.3514"/>
<polygon fill="midnightblue" stroke="midnightblue" points="311.842,-37.368 319.945,-30.542 309.354,-30.8251 311.842,-37.368"/>
</g>
</g>
</svg>
