<?xml version="1.0" encoding="UTF-8" standalone="no"?>
<!DOCTYPE svg PUBLIC "-//W3C//DTD SVG 1.1//EN"
 "http://www.w3.org/Graphics/SVG/1.1/DTD/svg11.dtd">
<!-- Generated by graphviz version 2.38.0 (20140413.2041)
 -->
<!-- Title: openage::NyanType Pages: 1 -->
<!--zoomable 1396 -->
<svg id="main" version="1.1" xmlns="http://www.w3.org/2000/svg" xmlns:xlink="http://www.w3.org/1999/xlink" xml:space="preserve" onload="init(evt)">
<style type="text/css"><![CDATA[
.edge:hover path { stroke: red; }
.edge:hover polygon { stroke: red; fill: red; }
]]></style>
<script type="text/javascript"><![CDATA[
var edges = document.getElementsByTagName('g');
if (edges && edges.length) {
  for (var i=0;i<edges.length;i++) {
    if (edges[i].id.substr(0,4)=='edge') {
      edges[i].setAttribute('class','edge');
    }
  }
}
]]></script>
        <defs>
                <circle id="rim" cx="0" cy="0" r="7"/>
                <circle id="rim2" cx="0" cy="0" r="3.5"/>
                <g id="zoomPlus">
                        <use xlink:href="#rim" fill="#404040">
                                <set attributeName="fill" to="#808080" begin="zoomplus.mouseover" end="zoomplus.mouseout"/>
                        </use>
                        <path d="M-4,0h8M0,-4v8" fill="none" stroke="white" stroke-width="1.5" pointer-events="none"/>
                </g>
                <g id="zoomMin">
                        <use xlink:href="#rim" fill="#404040">
                                <set attributeName="fill" to="#808080" begin="zoomminus.mouseover" end="zoomminus.mouseout"/>
                        </use>
                        <path d="M-4,0h8" fill="none" stroke="white" stroke-width="1.5" pointer-events="none"/>
                </g>
                <g id="dirArrow">
                        <path fill="none" stroke="white" stroke-width="1.5" d="M0,-3.0v7 M-2.5,-0.5L0,-3.0L2.5,-0.5"/>
                </g>
               <g id="resetDef">
                       <use xlink:href="#rim2" fill="#404040">
                               <set attributeName="fill" to="#808080" begin="reset.mouseover" end="reset.mouseout"/>
                       </use>
               </g>
        </defs>

<script type="text/javascript">
var viewWidth = 811;
var viewHeight = 1396;
var sectionId = 'dynsection-1';
</script>
<script xlink:href="svgpan.js"/>
<svg id="graph" class="graph">
<g id="viewport">
<title>openage::NyanType</title>
<polygon fill="white" stroke="none" points="-4,4 -4,-1392 806.5,-1392 806.5,4 -4,4"/>
<!-- Node2 -->
<g id="node1" class="node"><title>Node2</title>
<g id="a_node1"><a xlink:title=" ">
<polygon fill="#bfbfbf" stroke="black" points="180.5,-0.5 180.5,-123.5 283.5,-123.5 283.5,-0.5 180.5,-0.5"/>
<text text-anchor="middle" x="232" y="-111.5" font-family="Helvetica,sans-Serif" font-size="10.00">openage::NyanType</text>
<polyline fill="none" stroke="black" points="180.5,-104.5 283.5,-104.5 "/>
<text text-anchor="middle" x="232" y="-92.5" font-family="Helvetica,sans-Serif" font-size="10.00"> </text>
<polyline fill="none" stroke="black" points="180.5,-85.5 283.5,-85.5 "/>
<text text-anchor="start" x="188.5" y="-73.5" font-family="Helvetica,sans-Serif" font-size="10.00">+ NyanType()</text>
<text text-anchor="start" x="188.5" y="-62.5" font-family="Helvetica,sans-Serif" font-size="10.00">+ ~NyanType()</text>
<text text-anchor="start" x="188.5" y="-51.5" font-family="Helvetica,sans-Serif" font-size="10.00">+ id()</text>
<text text-anchor="start" x="188.5" y="-40.5" font-family="Helvetica,sans-Serif" font-size="10.00">+ parent_id()</text>
<text text-anchor="start" x="188.5" y="-29.5" font-family="Helvetica,sans-Serif" font-size="10.00">+ name()</text>
<text text-anchor="start" x="188.5" y="-18.5" font-family="Helvetica,sans-Serif" font-size="10.00">+ initialise()</text>
<text text-anchor="start" x="188.5" y="-7.5" font-family="Helvetica,sans-Serif" font-size="10.00">+ place()</text>
</a>
</g>
</g>
<!-- Node3 -->
<g id="node2" class="node"><title>Node3</title>
<g id="a_node2"><a xlink:href="classopenage_1_1_unit_type.xhtml" target="_top" xlink:title=" ">
<polygon fill="white" stroke="black" points="183,-161.5 183,-405.5 281,-405.5 281,-161.5 183,-161.5"/>
<text text-anchor="middle" x="232" y="-393.5" font-family="Helvetica,sans-Serif" font-size="10.00">openage::UnitType</text>
<polyline fill="none" stroke="black" points="183,-386.5 281,-386.5 "/>
<text text-anchor="start" x="191" y="-374.5" font-family="Helvetica,sans-Serif" font-size="10.00">+ instances</text>
<text text-anchor="start" x="191" y="-363.5" font-family="Helvetica,sans-Serif" font-size="10.00">+ type_abilities</text>
<text text-anchor="start" x="191" y="-352.5" font-family="Helvetica,sans-Serif" font-size="10.00">+ have_limit</text>
<text text-anchor="start" x="191" y="-341.5" font-family="Helvetica,sans-Serif" font-size="10.00">+ had_limit</text>
<text text-anchor="start" x="191" y="-330.5" font-family="Helvetica,sans-Serif" font-size="10.00">+ graphics</text>
<text text-anchor="start" x="191" y="-319.5" font-family="Helvetica,sans-Serif" font-size="10.00">+ unit_class</text>
<text text-anchor="start" x="191" y="-308.5" font-family="Helvetica,sans-Serif" font-size="10.00">&#45; class_id</text>
<text text-anchor="start" x="191" y="-297.5" font-family="Helvetica,sans-Serif" font-size="10.00">&#45; unit_type_id</text>
<polyline fill="none" stroke="black" points="183,-290.5 281,-290.5 "/>
<text text-anchor="start" x="191" y="-278.5" font-family="Helvetica,sans-Serif" font-size="10.00">+ UnitType()</text>
<text text-anchor="start" x="191" y="-267.5" font-family="Helvetica,sans-Serif" font-size="10.00">+ match()</text>
<text text-anchor="start" x="191" y="-256.5" font-family="Helvetica,sans-Serif" font-size="10.00">+ UnitType()</text>
<text text-anchor="start" x="191" y="-245.5" font-family="Helvetica,sans-Serif" font-size="10.00">+ ~UnitType()</text>
<text text-anchor="start" x="191" y="-234.5" font-family="Helvetica,sans-Serif" font-size="10.00">+ id()</text>
<text text-anchor="start" x="191" y="-223.5" font-family="Helvetica,sans-Serif" font-size="10.00">+ parent_id()</text>
<text text-anchor="start" x="191" y="-212.5" font-family="Helvetica,sans-Serif" font-size="10.00">+ name()</text>
<text text-anchor="start" x="191" y="-201.5" font-family="Helvetica,sans-Serif" font-size="10.00">+ initialise()</text>
<text text-anchor="start" x="191" y="-190.5" font-family="Helvetica,sans-Serif" font-size="10.00">+ reinitialise()</text>
<text text-anchor="start" x="191" y="-179.5" font-family="Helvetica,sans-Serif" font-size="10.00">+ place()</text>
<text text-anchor="start" x="191" y="-168.5" font-family="Helvetica,sans-Serif" font-size="10.00">and 7 more...</text>
</a>
</g>
</g>
<!-- Node3&#45;&gt;Node2 -->
<g id="edge1" class="edge"><title>Node3&#45;&gt;Node2</title>
<path fill="none" stroke="midnightblue" d="M232,-150.904C232,-141.489 232,-132.297 232,-123.622"/>
<polygon fill="none" stroke="midnightblue" points="228.5,-151.194 232,-161.194 235.5,-151.194 228.5,-151.194"/>
</g>
<!-- Node4 -->
<g id="node3" class="node"><title>Node4</title>
<g id="a_node3"><a xlink:href="structopenage_1_1coord_1_1tile__delta.xhtml" target="_top" xlink:title=" ">
<polygon fill="white" stroke="black" points="2,-558 2,-626 104,-626 104,-558 2,-558"/>
<text text-anchor="start" x="10" y="-614" font-family="Helvetica,sans-Serif" font-size="10.00">openage::coord::tile</text>
<text text-anchor="middle" x="53" y="-603" font-family="Helvetica,sans-Serif" font-size="10.00">_delta</text>
<polyline fill="none" stroke="black" points="2,-596 104,-596 "/>
<text text-anchor="middle" x="53" y="-584" font-family="Helvetica,sans-Serif" font-size="10.00"> </text>
<polyline fill="none" stroke="black" points="2,-577 104,-577 "/>
<text text-anchor="middle" x="53" y="-565" font-family="Helvetica,sans-Serif" font-size="10.00"> </text>
</a>
</g>
</g>
<!-- Node4&#45;&gt;Node3 -->
<g id="edge2" class="edge"><title>Node4&#45;&gt;Node3</title>
<path fill="none" stroke="#404040" d="M58.3205,-557.858C64.9634,-522.833 78.5478,-466.845 103,-424 121.648,-391.325 149.285,-360.075 174.2,-335.467"/>
<polygon fill="none" stroke="#404040" points="174.266,-335.403 175.788,-328.354 182.88,-327.048 181.358,-334.097 174.266,-335.403"/>
<text text-anchor="middle" x="141.5" y="-427" font-family="Helvetica,sans-Serif" font-size="10.00"> +foundation_size</text>
</g>
<!-- Node5 -->
<g id="node4" class="node"><title>Node5</title>
<g id="a_node4"><a xlink:title=" ">
<polygon fill="white" stroke="#bfbfbf" points="0,-872 0,-951 106,-951 106,-872 0,-872"/>
<text text-anchor="start" x="8" y="-939" font-family="Helvetica,sans-Serif" font-size="10.00">CoordNeSeRelative&lt;</text>
<text text-anchor="start" x="8" y="-928" font-family="Helvetica,sans-Serif" font-size="10.00"> tile_t, tile, tile</text>
<text text-anchor="middle" x="53" y="-917" font-family="Helvetica,sans-Serif" font-size="10.00">_delta &gt;</text>
<polyline fill="none" stroke="#bfbfbf" points="0,-910 106,-910 "/>
<text text-anchor="middle" x="53" y="-898" font-family="Helvetica,sans-Serif" font-size="10.00"> </text>
<polyline fill="none" stroke="#bfbfbf" points="0,-891 106,-891 "/>
<text text-anchor="middle" x="53" y="-879" font-family="Helvetica,sans-Serif" font-size="10.00"> </text>
</a>
</g>
</g>
<!-- Node5&#45;&gt;Node4 -->
<g id="edge3" class="edge"><title>Node5&#45;&gt;Node4</title>
<path fill="none" stroke="midnightblue" d="M53,-861.84C53,-796.525 53,-682.229 53,-626.063"/>
<polygon fill="none" stroke="midnightblue" points="49.5001,-861.886 53,-871.886 56.5001,-861.886 49.5001,-861.886"/>
</g>
<!-- Node6 -->
<g id="node5" class="node"><title>Node6</title>
<g id="a_node5"><a xlink:href="classopenage_1_1_attributes.xhtml" target="_top" xlink:title=" ">
<polygon fill="white" stroke="black" points="122.5,-525 122.5,-659 223.5,-659 223.5,-525 122.5,-525"/>
<text text-anchor="middle" x="173" y="-647" font-family="Helvetica,sans-Serif" font-size="10.00">openage::Attributes</text>
<polyline fill="none" stroke="black" points="122.5,-640 223.5,-640 "/>
<text text-anchor="start" x="130.5" y="-628" font-family="Helvetica,sans-Serif" font-size="10.00">&#45; attrs</text>
<polyline fill="none" stroke="black" points="122.5,-621 223.5,-621 "/>
<text text-anchor="start" x="130.5" y="-609" font-family="Helvetica,sans-Serif" font-size="10.00">+ Attributes()</text>
<text text-anchor="start" x="130.5" y="-598" font-family="Helvetica,sans-Serif" font-size="10.00">+ add()</text>
<text text-anchor="start" x="130.5" y="-587" font-family="Helvetica,sans-Serif" font-size="10.00">+ add_copies()</text>
<text text-anchor="start" x="130.5" y="-576" font-family="Helvetica,sans-Serif" font-size="10.00">+ add_copies()</text>
<text text-anchor="start" x="130.5" y="-565" font-family="Helvetica,sans-Serif" font-size="10.00">+ remove()</text>
<text text-anchor="start" x="130.5" y="-554" font-family="Helvetica,sans-Serif" font-size="10.00">+ has()</text>
<text text-anchor="start" x="130.5" y="-543" font-family="Helvetica,sans-Serif" font-size="10.00">+ get()</text>
<text text-anchor="start" x="130.5" y="-532" font-family="Helvetica,sans-Serif" font-size="10.00">+ get()</text>
</a>
</g>
</g>
<!-- Node6&#45;&gt;Node3 -->
<g id="edge4" class="edge"><title>Node6&#45;&gt;Node3</title>
<path fill="none" stroke="#404040" d="M173.916,-524.649C175.322,-493.801 178.413,-456.773 185,-424 185.434,-421.839 185.893,-419.665 186.373,-417.482"/>
<polygon fill="none" stroke="#404040" points="186.389,-417.416 183.871,-410.659 189.14,-405.736 191.658,-412.493 186.389,-417.416"/>
<text text-anchor="middle" x="227" y="-427" font-family="Helvetica,sans-Serif" font-size="10.00"> +default_attributes</text>
</g>
<!-- Node7 -->
<g id="node6" class="node"><title>Node7</title>
<g id="a_node6"><a xlink:href="classopenage_1_1_resource_cost.xhtml" target="_top" xlink:title=" ">
<polygon fill="white" stroke="black" points="241.5,-536 241.5,-648 362.5,-648 362.5,-536 241.5,-536"/>
<text text-anchor="middle" x="302" y="-636" font-family="Helvetica,sans-Serif" font-size="10.00">openage::ResourceCost</text>
<polyline fill="none" stroke="black" points="241.5,-629 362.5,-629 "/>
<text text-anchor="start" x="249.5" y="-617" font-family="Helvetica,sans-Serif" font-size="10.00">&#45; type</text>
<polyline fill="none" stroke="black" points="241.5,-610 362.5,-610 "/>
<text text-anchor="start" x="249.5" y="-598" font-family="Helvetica,sans-Serif" font-size="10.00">+ ResourceCost()</text>
<text text-anchor="start" x="249.5" y="-587" font-family="Helvetica,sans-Serif" font-size="10.00">+ ResourceCost()</text>
<text text-anchor="start" x="249.5" y="-576" font-family="Helvetica,sans-Serif" font-size="10.00">+ ResourceCost()</text>
<text text-anchor="start" x="249.5" y="-565" font-family="Helvetica,sans-Serif" font-size="10.00">+ ~ResourceCost()</text>
<text text-anchor="start" x="249.5" y="-554" font-family="Helvetica,sans-Serif" font-size="10.00">+ set()</text>
<text text-anchor="start" x="249.5" y="-543" font-family="Helvetica,sans-Serif" font-size="10.00">+ get()</text>
</a>
</g>
</g>
<!-- Node7&#45;&gt;Node3 -->
<g id="edge5" class="edge"><title>Node7&#45;&gt;Node3</title>
<path fill="none" stroke="#404040" d="M292.033,-535.903C285.899,-503.259 277.587,-461.145 269,-424 268.503,-421.851 267.997,-419.684 267.482,-417.504"/>
<polygon fill="none" stroke="#404040" points="267.459,-417.407 262.168,-412.507 264.656,-405.738 269.947,-410.638 267.459,-417.407"/>
<text text-anchor="middle" x="286" y="-427" font-family="Helvetica,sans-Serif" font-size="10.00"> +cost</text>
</g>
<!-- Node8 -->
<g id="node7" class="node"><title>Node8</title>
<g id="a_node7"><a xlink:href="classopenage_1_1_resource_bundle.xhtml" target="_top" xlink:title=" ">
<polygon fill="white" stroke="black" points="168.5,-800.5 168.5,-1022.5 299.5,-1022.5 299.5,-800.5 168.5,-800.5"/>
<text text-anchor="middle" x="234" y="-1010.5" font-family="Helvetica,sans-Serif" font-size="10.00">openage::ResourceBundle</text>
<polyline fill="none" stroke="black" points="168.5,-1003.5 299.5,-1003.5 "/>
<text text-anchor="start" x="176.5" y="-991.5" font-family="Helvetica,sans-Serif" font-size="10.00">&#45; count</text>
<text text-anchor="start" x="176.5" y="-980.5" font-family="Helvetica,sans-Serif" font-size="10.00">&#45; value</text>
<polyline fill="none" stroke="black" points="168.5,-973.5 299.5,-973.5 "/>
<text text-anchor="start" x="176.5" y="-961.5" font-family="Helvetica,sans-Serif" font-size="10.00">+ ResourceBundle()</text>
<text text-anchor="start" x="176.5" y="-950.5" font-family="Helvetica,sans-Serif" font-size="10.00">+ ResourceBundle()</text>
<text text-anchor="start" x="176.5" y="-939.5" font-family="Helvetica,sans-Serif" font-size="10.00">+ ~ResourceBundle()</text>
<text text-anchor="start" x="176.5" y="-928.5" font-family="Helvetica,sans-Serif" font-size="10.00">+ ResourceBundle()</text>
<text text-anchor="start" x="176.5" y="-917.5" font-family="Helvetica,sans-Serif" font-size="10.00">+ clone()</text>
<text text-anchor="start" x="176.5" y="-906.5" font-family="Helvetica,sans-Serif" font-size="10.00">+ operator&gt;()</text>
<text text-anchor="start" x="176.5" y="-895.5" font-family="Helvetica,sans-Serif" font-size="10.00">+ operator&gt;=()</text>
<text text-anchor="start" x="176.5" y="-884.5" font-family="Helvetica,sans-Serif" font-size="10.00">+ operator+=()</text>
<text text-anchor="start" x="176.5" y="-873.5" font-family="Helvetica,sans-Serif" font-size="10.00">+ operator&#45;=()</text>
<text text-anchor="start" x="176.5" y="-862.5" font-family="Helvetica,sans-Serif" font-size="10.00">+ operator *=()</text>
<text text-anchor="start" x="176.5" y="-851.5" font-family="Helvetica,sans-Serif" font-size="10.00">and 13 more...</text>
<text text-anchor="start" x="176.5" y="-840.5" font-family="Helvetica,sans-Serif" font-size="10.00">&#45; ResourceBundle()</text>
<text text-anchor="start" x="176.5" y="-829.5" font-family="Helvetica,sans-Serif" font-size="10.00">&#45; expand()</text>
<text text-anchor="start" x="176.5" y="-818.5" font-family="Helvetica,sans-Serif" font-size="10.00">&#45; expand()</text>
<text text-anchor="start" x="176.5" y="-807.5" font-family="Helvetica,sans-Serif" font-size="10.00">&#45; min_count()</text>
</a>
</g>
</g>
<!-- Node8&#45;&gt;Node7 -->
<g id="edge6" class="edge"><title>Node8&#45;&gt;Node7</title>
<path fill="none" stroke="#404040" d="M228.812,-800.415C229.678,-783.088 231.56,-765.468 235,-749 241.41,-718.316 254.056,-686.204 266.652,-659.145"/>
<polygon fill="none" stroke="#404040" points="266.675,-659.098 265.646,-651.961 271.839,-648.266 272.867,-655.403 266.675,-659.098"/>
<text text-anchor="middle" x="259.5" y="-757.5" font-family="Helvetica,sans-Serif" font-size="10.00"> &#45;resources</text>
</g>
<!-- Node9 -->
<g id="node8" class="node"><title>Node9</title>
<g id="a_node8"><a xlink:href="classopenage_1_1_player.xhtml" target="_top" xlink:title=" ">
<polygon fill="white" stroke="black" points="403,-453.5 403,-730.5 527,-730.5 527,-453.5 403,-453.5"/>
<text text-anchor="middle" x="465" y="-718.5" font-family="Helvetica,sans-Serif" font-size="10.00">openage::Player</text>
<polyline fill="none" stroke="black" points="403,-711.5 527,-711.5 "/>
<text text-anchor="start" x="411" y="-699.5" font-family="Helvetica,sans-Serif" font-size="10.00">+ player_number</text>
<text text-anchor="start" x="411" y="-688.5" font-family="Helvetica,sans-Serif" font-size="10.00">+ color</text>
<text text-anchor="start" x="411" y="-677.5" font-family="Helvetica,sans-Serif" font-size="10.00">+ name</text>
<text text-anchor="start" x="411" y="-666.5" font-family="Helvetica,sans-Serif" font-size="10.00">&#45; available_objects</text>
<text text-anchor="start" x="411" y="-655.5" font-family="Helvetica,sans-Serif" font-size="10.00">&#45; available_ids</text>
<text text-anchor="start" x="411" y="-644.5" font-family="Helvetica,sans-Serif" font-size="10.00">&#45; units_have</text>
<text text-anchor="start" x="411" y="-633.5" font-family="Helvetica,sans-Serif" font-size="10.00">&#45; units_had</text>
<text text-anchor="start" x="411" y="-622.5" font-family="Helvetica,sans-Serif" font-size="10.00">&#45; units_pending</text>
<text text-anchor="start" x="411" y="-611.5" font-family="Helvetica,sans-Serif" font-size="10.00">&#45; age</text>
<polyline fill="none" stroke="black" points="403,-604.5 527,-604.5 "/>
<text text-anchor="start" x="411" y="-592.5" font-family="Helvetica,sans-Serif" font-size="10.00">+ Player()</text>
<text text-anchor="start" x="411" y="-581.5" font-family="Helvetica,sans-Serif" font-size="10.00">+ operator==()</text>
<text text-anchor="start" x="411" y="-570.5" font-family="Helvetica,sans-Serif" font-size="10.00">+ is_enemy()</text>
<text text-anchor="start" x="411" y="-559.5" font-family="Helvetica,sans-Serif" font-size="10.00">+ is_ally()</text>
<text text-anchor="start" x="411" y="-548.5" font-family="Helvetica,sans-Serif" font-size="10.00">+ owns()</text>
<text text-anchor="start" x="411" y="-537.5" font-family="Helvetica,sans-Serif" font-size="10.00">+ receive()</text>
<text text-anchor="start" x="411" y="-526.5" font-family="Helvetica,sans-Serif" font-size="10.00">+ receive()</text>
<text text-anchor="start" x="411" y="-515.5" font-family="Helvetica,sans-Serif" font-size="10.00">+ can_receive()</text>
<text text-anchor="start" x="411" y="-504.5" font-family="Helvetica,sans-Serif" font-size="10.00">+ can_receive()</text>
<text text-anchor="start" x="411" y="-493.5" font-family="Helvetica,sans-Serif" font-size="10.00">+ deduct()</text>
<text text-anchor="start" x="411" y="-482.5" font-family="Helvetica,sans-Serif" font-size="10.00">and 18 more...</text>
<text text-anchor="start" x="411" y="-471.5" font-family="Helvetica,sans-Serif" font-size="10.00">&#45; is_unit_pending()</text>
<text text-anchor="start" x="411" y="-460.5" font-family="Helvetica,sans-Serif" font-size="10.00">&#45; on_resources_change()</text>
</a>
</g>
</g>
<!-- Node8&#45;&gt;Node9 -->
<g id="edge15" class="edge"><title>Node8&#45;&gt;Node9</title>
<path fill="none" stroke="#404040" d="M283.209,-800.453C295.21,-781.567 309.456,-763.415 326,-749 342.241,-734.849 354.206,-744.489 371,-731 379.465,-724.201 387.465,-716.438 394.955,-708.138"/>
<polygon fill="none" stroke="#404040" points="395.046,-708.032 395.933,-700.876 402.88,-698.942 401.993,-706.098 395.046,-708.032"/>
<text text-anchor="middle" x="371.5" y="-763" font-family="Helvetica,sans-Serif" font-size="10.00"> &#45;resources_capacity</text>
<text text-anchor="middle" x="371.5" y="-752" font-family="Helvetica,sans-Serif" font-size="10.00">&#45;resources</text>
</g>
<!-- Node9&#45;&gt;Node3 -->
<g id="edge7" class="edge"><title>Node9&#45;&gt;Node3</title>
<path fill="none" stroke="#404040" d="M402.945,-497.389C392.508,-482.381 381.615,-467.142 371,-453 345.109,-418.505 314.788,-381.402 289.083,-350.817"/>
<polygon fill="none" stroke="#404040" points="288.999,-350.718 282.074,-348.709 281.264,-341.544 288.189,-343.552 288.999,-350.718"/>
<text text-anchor="middle" x="374.5" y="-427" font-family="Helvetica,sans-Serif" font-size="10.00"> +owner</text>
</g>
<!-- Node10 -->
<g id="node9" class="node"><title>Node10</title>
<g id="a_node9"><a xlink:href="classopenage_1_1_player_score.xhtml" target="_top" xlink:title=" ">
<polygon fill="white" stroke="black" points="464.5,-249.5 464.5,-317.5 577.5,-317.5 577.5,-249.5 464.5,-249.5"/>
<text text-anchor="middle" x="521" y="-305.5" font-family="Helvetica,sans-Serif" font-size="10.00">openage::PlayerScore</text>
<polyline fill="none" stroke="black" points="464.5,-298.5 577.5,-298.5 "/>
<text text-anchor="middle" x="521" y="-286.5" font-family="Helvetica,sans-Serif" font-size="10.00"> </text>
<polyline fill="none" stroke="black" points="464.5,-279.5 577.5,-279.5 "/>
<text text-anchor="start" x="472.5" y="-267.5" font-family="Helvetica,sans-Serif" font-size="10.00">+ PlayerScore()</text>
<text text-anchor="start" x="472.5" y="-256.5" font-family="Helvetica,sans-Serif" font-size="10.00">+ update_score()</text>
</a>
</g>
</g>
<!-- Node9&#45;&gt;Node10 -->
<g id="edge10" class="edge"><title>Node9&#45;&gt;Node10</title>
<path fill="none" stroke="#404040" d="M457.766,-453.406C458.696,-443.409 460.069,-433.52 462,-424 468.767,-390.626 483.786,-355.32 496.976,-328.577"/>
<polygon fill="none" stroke="#404040" points="497.075,-328.38 496.211,-321.221 502.487,-317.67 503.351,-324.829 497.075,-328.38"/>
<text text-anchor="middle" x="478.5" y="-427" font-family="Helvetica,sans-Serif" font-size="10.00"> &#45;player</text>
</g>
<!-- Node10&#45;&gt;Node9 -->
<g id="edge8" class="edge"><title>Node10&#45;&gt;Node9</title>
<path fill="none" stroke="#404040" d="M516.809,-317.786C512.801,-348.354 506.299,-394.861 499,-435 498.625,-437.062 498.242,-439.139 497.853,-441.228"/>
<polygon fill="none" stroke="#404040" points="497.8,-441.509 500.607,-448.151 495.555,-453.297 492.748,-446.655 497.8,-441.509"/>
<text text-anchor="middle" x="518" y="-427" font-family="Helvetica,sans-Serif" font-size="10.00"> +score</text>
</g>
<!-- Node11 -->
<g id="node10" class="node"><title>Node11</title>
<g id="a_node10"><a xlink:href="classopenage_1_1_score.xhtml" target="_top" xlink:title=" ">
<polygon fill="white" stroke="black" points="675.5,-1187.5 675.5,-1387.5 802.5,-1387.5 802.5,-1187.5 675.5,-1187.5"/>
<text text-anchor="middle" x="739" y="-1375.5" font-family="Helvetica,sans-Serif" font-size="10.00">openage::Score</text>
<polyline fill="none" stroke="black" points="675.5,-1368.5 802.5,-1368.5 "/>
<text text-anchor="start" x="683.5" y="-1356.5" font-family="Helvetica,sans-Serif" font-size="10.00"># score</text>
<text text-anchor="start" x="683.5" y="-1345.5" font-family="Helvetica,sans-Serif" font-size="10.00"># score_total</text>
<text text-anchor="start" x="683.5" y="-1334.5" font-family="Helvetica,sans-Serif" font-size="10.00">&#45; score_exploration</text>
<text text-anchor="start" x="683.5" y="-1323.5" font-family="Helvetica,sans-Serif" font-size="10.00">&#45; score_resources</text>
<polyline fill="none" stroke="black" points="675.5,-1316.5 802.5,-1316.5 "/>
<text text-anchor="start" x="683.5" y="-1304.5" font-family="Helvetica,sans-Serif" font-size="10.00">+ Score()</text>
<text text-anchor="start" x="683.5" y="-1293.5" font-family="Helvetica,sans-Serif" font-size="10.00">+ add_score()</text>
<text text-anchor="start" x="683.5" y="-1282.5" font-family="Helvetica,sans-Serif" font-size="10.00">+ add_score()</text>
<text text-anchor="start" x="683.5" y="-1271.5" font-family="Helvetica,sans-Serif" font-size="10.00">+ remove_score()</text>
<text text-anchor="start" x="683.5" y="-1260.5" font-family="Helvetica,sans-Serif" font-size="10.00">+ remove_score()</text>
<text text-anchor="start" x="683.5" y="-1249.5" font-family="Helvetica,sans-Serif" font-size="10.00">+ update_map_explored()</text>
<text text-anchor="start" x="683.5" y="-1238.5" font-family="Helvetica,sans-Serif" font-size="10.00">+ update_resources()</text>
<text text-anchor="start" x="683.5" y="-1227.5" font-family="Helvetica,sans-Serif" font-size="10.00">+ update_score()</text>
<text text-anchor="start" x="683.5" y="-1216.5" font-family="Helvetica,sans-Serif" font-size="10.00">+ get_score()</text>
<text text-anchor="start" x="683.5" y="-1205.5" font-family="Helvetica,sans-Serif" font-size="10.00">+ get_score()</text>
<text text-anchor="start" x="683.5" y="-1194.5" font-family="Helvetica,sans-Serif" font-size="10.00">+ get_score_total()</text>
</a>
</g>
</g>
<!-- Node11&#45;&gt;Node10 -->
<g id="edge9" class="edge"><title>Node11&#45;&gt;Node10</title>
<path fill="none" stroke="midnightblue" d="M761.557,-1177.05C764.212,-1156.99 766,-1136.18 766,-1116.5 766,-1116.5 766,-1116.5 766,-591 766,-468.89 645.883,-367.513 573.86,-317.702"/>
<polygon fill="none" stroke="midnightblue" points="758.065,-1176.75 760.141,-1187.14 764.997,-1177.72 758.065,-1176.75"/>
</g>
<!-- Node13 -->
<g id="node12" class="node"><title>Node13</title>
<g id="a_node12"><a xlink:href="classopenage_1_1_team_score.xhtml" target="_top" xlink:title=" ">
<polygon fill="white" stroke="black" points="628.5,-1081.5 628.5,-1149.5 737.5,-1149.5 737.5,-1081.5 628.5,-1081.5"/>
<text text-anchor="middle" x="683" y="-1137.5" font-family="Helvetica,sans-Serif" font-size="10.00">openage::TeamScore</text>
<polyline fill="none" stroke="black" points="628.5,-1130.5 737.5,-1130.5 "/>
<text text-anchor="middle" x="683" y="-1118.5" font-family="Helvetica,sans-Serif" font-size="10.00"> </text>
<polyline fill="none" stroke="black" points="628.5,-1111.5 737.5,-1111.5 "/>
<text text-anchor="start" x="636.5" y="-1099.5" font-family="Helvetica,sans-Serif" font-size="10.00">+ TeamScore()</text>
<text text-anchor="start" x="636.5" y="-1088.5" font-family="Helvetica,sans-Serif" font-size="10.00">+ update_score()</text>
</a>
</g>
</g>
<!-- Node11&#45;&gt;Node13 -->
<g id="edge13" class="edge"><title>Node11&#45;&gt;Node13</title>
<path fill="none" stroke="midnightblue" d="M703.097,-1177.51C699.839,-1167.62 696.737,-1158.2 693.987,-1149.85"/>
<polygon fill="none" stroke="midnightblue" points="699.809,-1178.72 706.263,-1187.12 706.458,-1176.53 699.809,-1178.72"/>
</g>
<!-- Node12 -->
<g id="node11" class="node"><title>Node12</title>
<g id="a_node11"><a xlink:href="classopenage_1_1_team.xhtml" target="_top" xlink:title=" ">
<polygon fill="white" stroke="black" points="610,-822.5 610,-1000.5 738,-1000.5 738,-822.5 610,-822.5"/>
<text text-anchor="middle" x="674" y="-988.5" font-family="Helvetica,sans-Serif" font-size="10.00">openage::Team</text>
<polyline fill="none" stroke="black" points="610,-981.5 738,-981.5 "/>
<text text-anchor="start" x="618" y="-969.5" font-family="Helvetica,sans-Serif" font-size="10.00">+ id</text>
<text text-anchor="start" x="618" y="-958.5" font-family="Helvetica,sans-Serif" font-size="10.00">+ name</text>
<text text-anchor="start" x="618" y="-947.5" font-family="Helvetica,sans-Serif" font-size="10.00">&#45; members</text>
<polyline fill="none" stroke="black" points="610,-940.5 738,-940.5 "/>
<text text-anchor="start" x="618" y="-928.5" font-family="Helvetica,sans-Serif" font-size="10.00">+ Team()</text>
<text text-anchor="start" x="618" y="-917.5" font-family="Helvetica,sans-Serif" font-size="10.00">+ Team()</text>
<text text-anchor="start" x="618" y="-906.5" font-family="Helvetica,sans-Serif" font-size="10.00">+ Team()</text>
<text text-anchor="start" x="618" y="-895.5" font-family="Helvetica,sans-Serif" font-size="10.00">+ operator==()</text>
<text text-anchor="start" x="618" y="-884.5" font-family="Helvetica,sans-Serif" font-size="10.00">+ add_member()</text>
<text text-anchor="start" x="618" y="-873.5" font-family="Helvetica,sans-Serif" font-size="10.00">+ change_member_type()</text>
<text text-anchor="start" x="618" y="-862.5" font-family="Helvetica,sans-Serif" font-size="10.00">+ is_member()</text>
<text text-anchor="start" x="618" y="-851.5" font-family="Helvetica,sans-Serif" font-size="10.00">+ remove_member()</text>
<text text-anchor="start" x="618" y="-840.5" font-family="Helvetica,sans-Serif" font-size="10.00">+ get_member_type()</text>
<text text-anchor="start" x="618" y="-829.5" font-family="Helvetica,sans-Serif" font-size="10.00">+ get_players()</text>
</a>
</g>
</g>
<!-- Node12&#45;&gt;Node9 -->
<g id="edge11" class="edge"><title>Node12&#45;&gt;Node9</title>
<path fill="none" stroke="#404040" d="M621.024,-822.206C614.048,-810.97 606.918,-799.673 600,-789 579.112,-756.776 555.598,-722.115 534.116,-691.035"/>
<polygon fill="none" stroke="#404040" points="534.052,-690.942 527.347,-688.288 527.219,-681.078 533.924,-683.732 534.052,-690.942"/>
<text text-anchor="middle" x="601.5" y="-757.5" font-family="Helvetica,sans-Serif" font-size="10.00"> +team</text>
</g>
<!-- Node12&#45;&gt;Node13 -->
<g id="edge14" class="edge"><title>Node12&#45;&gt;Node13</title>
<path fill="none" stroke="#404040" d="M645.008,-1000.53C641.957,-1021.26 641.88,-1043.11 648,-1063 648.788,-1065.56 649.751,-1068.11 650.848,-1070.62"/>
<polygon fill="none" stroke="#404040" points="650.883,-1070.69 657.19,-1074.18 656.39,-1081.35 650.082,-1077.85 650.883,-1070.69"/>
<text text-anchor="middle" x="662" y="-1055" font-family="Helvetica,sans-Serif" font-size="10.00"> &#45;team</text>
</g>
<!-- Node13&#45;&gt;Node12 -->
<g id="edge12" class="edge"><title>Node13&#45;&gt;Node12</title>
<path fill="none" stroke="#404040" d="M681.514,-1081.14C680.673,-1062.27 679.572,-1037.56 678.473,-1012.9"/>
<polygon fill="none" stroke="#404040" points="678.469,-1012.81 674.206,-1007 677.935,-1000.82 682.198,-1006.64 678.469,-1012.81"/>
<text text-anchor="middle" x="697" y="-1055" font-family="Helvetica,sans-Serif" font-size="10.00"> +score</text>
</g>
<!-- Node14 -->
<g id="node13" class="node"><title>Node14</title>
<g id="a_node13"><a xlink:href="classopenage_1_1_population_tracker.xhtml" target="_top" xlink:title=" ">
<polygon fill="white" stroke="black" points="317.5,-789.5 317.5,-1033.5 454.5,-1033.5 454.5,-789.5 317.5,-789.5"/>
<text text-anchor="middle" x="386" y="-1021.5" font-family="Helvetica,sans-Serif" font-size="10.00">openage::PopulationTracker</text>
<polyline fill="none" stroke="black" points="317.5,-1014.5 454.5,-1014.5 "/>
<text text-anchor="start" x="325.5" y="-1002.5" font-family="Helvetica,sans-Serif" font-size="10.00">&#45; demand</text>
<text text-anchor="start" x="325.5" y="-991.5" font-family="Helvetica,sans-Serif" font-size="10.00">&#45; capacity_static</text>
<text text-anchor="start" x="325.5" y="-980.5" font-family="Helvetica,sans-Serif" font-size="10.00">&#45; capacity_real</text>
<text text-anchor="start" x="325.5" y="-969.5" font-family="Helvetica,sans-Serif" font-size="10.00">&#45; capacity_max</text>
<text text-anchor="start" x="325.5" y="-958.5" font-family="Helvetica,sans-Serif" font-size="10.00">&#45; capacity_total</text>
<text text-anchor="start" x="325.5" y="-947.5" font-family="Helvetica,sans-Serif" font-size="10.00">&#45; capacity</text>
<polyline fill="none" stroke="black" points="317.5,-940.5 454.5,-940.5 "/>
<text text-anchor="start" x="325.5" y="-928.5" font-family="Helvetica,sans-Serif" font-size="10.00">+ PopulationTracker()</text>
<text text-anchor="start" x="325.5" y="-917.5" font-family="Helvetica,sans-Serif" font-size="10.00">+ demand_population()</text>
<text text-anchor="start" x="325.5" y="-906.5" font-family="Helvetica,sans-Serif" font-size="10.00">+ free_population()</text>
<text text-anchor="start" x="325.5" y="-895.5" font-family="Helvetica,sans-Serif" font-size="10.00">+ add_capacity_static()</text>
<text text-anchor="start" x="325.5" y="-884.5" font-family="Helvetica,sans-Serif" font-size="10.00">+ add_capacity()</text>
<text text-anchor="start" x="325.5" y="-873.5" font-family="Helvetica,sans-Serif" font-size="10.00">+ remove_capacity()</text>
<text text-anchor="start" x="325.5" y="-862.5" font-family="Helvetica,sans-Serif" font-size="10.00">+ add_capacity_max()</text>
<text text-anchor="start" x="325.5" y="-851.5" font-family="Helvetica,sans-Serif" font-size="10.00">+ get_demand()</text>
<text text-anchor="start" x="325.5" y="-840.5" font-family="Helvetica,sans-Serif" font-size="10.00">+ get_capacity()</text>
<text text-anchor="start" x="325.5" y="-829.5" font-family="Helvetica,sans-Serif" font-size="10.00">+ get_space()</text>
<text text-anchor="start" x="325.5" y="-818.5" font-family="Helvetica,sans-Serif" font-size="10.00">+ get_capacity_overflow()</text>
<text text-anchor="start" x="325.5" y="-807.5" font-family="Helvetica,sans-Serif" font-size="10.00">+ is_capacity_maxed()</text>
<text text-anchor="start" x="325.5" y="-796.5" font-family="Helvetica,sans-Serif" font-size="10.00">&#45; update_capacity()</text>
</a>
</g>
</g>
<!-- Node14&#45;&gt;Node9 -->
<g id="edge16" class="edge"><title>Node14&#45;&gt;Node9</title>
<path fill="none" stroke="#404040" d="M416.205,-789.108C419.988,-773.902 423.892,-758.212 427.767,-742.638"/>
<polygon fill="none" stroke="#404040" points="427.825,-742.407 425.392,-735.619 430.722,-730.762 433.155,-737.551 427.825,-742.407"/>
<text text-anchor="middle" x="453" y="-757.5" font-family="Helvetica,sans-Serif" font-size="10.00"> +population</text>
</g>
<!-- Node15 -->
<g id="node14" class="node"><title>Node15</title>
<g id="a_node14"><a xlink:href="classopenage_1_1_civilisation.xhtml" target="_top" xlink:title=" ">
<polygon fill="white" stroke="black" points="472.5,-822.5 472.5,-1000.5 591.5,-1000.5 591.5,-822.5 472.5,-822.5"/>
<text text-anchor="middle" x="532" y="-988.5" font-family="Helvetica,sans-Serif" font-size="10.00">openage::Civilisation</text>
<polyline fill="none" stroke="black" points="472.5,-981.5 591.5,-981.5 "/>
<text text-anchor="start" x="480.5" y="-969.5" font-family="Helvetica,sans-Serif" font-size="10.00">+ civ_id</text>
<text text-anchor="start" x="480.5" y="-958.5" font-family="Helvetica,sans-Serif" font-size="10.00">+ civ_name</text>
<text text-anchor="start" x="480.5" y="-947.5" font-family="Helvetica,sans-Serif" font-size="10.00">&#45; civ_objects</text>
<text text-anchor="start" x="480.5" y="-936.5" font-family="Helvetica,sans-Serif" font-size="10.00">&#45; all_categories</text>
<text text-anchor="start" x="480.5" y="-925.5" font-family="Helvetica,sans-Serif" font-size="10.00">&#45; categories</text>
<text text-anchor="start" x="480.5" y="-914.5" font-family="Helvetica,sans-Serif" font-size="10.00">&#45; buildings</text>
<polyline fill="none" stroke="black" points="472.5,-907.5 591.5,-907.5 "/>
<text text-anchor="start" x="480.5" y="-895.5" font-family="Helvetica,sans-Serif" font-size="10.00">+ Civilisation()</text>
<text text-anchor="start" x="480.5" y="-884.5" font-family="Helvetica,sans-Serif" font-size="10.00">+ object_meta()</text>
<text text-anchor="start" x="480.5" y="-873.5" font-family="Helvetica,sans-Serif" font-size="10.00">+ get_category()</text>
<text text-anchor="start" x="480.5" y="-862.5" font-family="Helvetica,sans-Serif" font-size="10.00">+ get_type_categories()</text>
<text text-anchor="start" x="480.5" y="-851.5" font-family="Helvetica,sans-Serif" font-size="10.00">+ get_building_data()</text>
<text text-anchor="start" x="480.5" y="-840.5" font-family="Helvetica,sans-Serif" font-size="10.00">+ initialise_unit_types()</text>
<text text-anchor="start" x="480.5" y="-829.5" font-family="Helvetica,sans-Serif" font-size="10.00">&#45; add_to_category()</text>
</a>
</g>
</g>
<!-- Node15&#45;&gt;Node9 -->
<g id="edge17" class="edge"><title>Node15&#45;&gt;Node9</title>
<path fill="none" stroke="#404040" d="M513.426,-822.48C508.197,-797.701 502.358,-770.033 496.595,-742.721"/>
<polygon fill="none" stroke="#404040" points="496.521,-742.372 491.368,-737.327 494.043,-730.631 499.196,-735.675 496.521,-742.372"/>
<text text-anchor="middle" x="513.5" y="-757.5" font-family="Helvetica,sans-Serif" font-size="10.00"> +civ</text>
</g>
</g>
</svg>
        <g id="navigator" transform="translate(0 0)" fill="#404254">
                <rect fill="#f2f5e9" fill-opacity="0.5" stroke="#606060" stroke-width=".5" x="0" y="0" width="60" height="60"/>
                <use id="zoomplus" xlink:href="#zoomPlus" x="17" y="9" onmousedown="handleZoom(evt,'in')"/>
                <use id="zoomminus" xlink:href="#zoomMin" x="42" y="9" onmousedown="handleZoom(evt,'out')"/>
                <use id="reset" xlink:href="#resetDef" x="30" y="36" onmousedown="handleReset()"/>
                <g id="arrowUp" xlink:href="#dirArrow" transform="translate(30 24)" onmousedown="handlePan(0,-1)">
                  <use xlink:href="#rim" fill="#404040">
                        <set attributeName="fill" to="#808080" begin="arrowUp.mouseover" end="arrowUp.mouseout"/>
                  </use>
                  <path fill="none" stroke="white" stroke-width="1.5" d="M0,-3.0v7 M-2.5,-0.5L0,-3.0L2.5,-0.5"/>
                </g>
                <g id="arrowRight" xlink:href="#dirArrow" transform="rotate(90) translate(36 -43)" onmousedown="handlePan(1,0)">
                  <use xlink:href="#rim" fill="#404040">
                        <set attributeName="fill" to="#808080" begin="arrowRight.mouseover" end="arrowRight.mouseout"/>
                  </use>
                  <path fill="none" stroke="white" stroke-width="1.5" d="M0,-3.0v7 M-2.5,-0.5L0,-3.0L2.5,-0.5"/>
                </g>
                <g id="arrowDown" xlink:href="#dirArrow" transform="rotate(180) translate(-30 -48)" onmousedown="handlePan(0,1)">
                  <use xlink:href="#rim" fill="#404040">
                        <set attributeName="fill" to="#808080" begin="arrowDown.mouseover" end="arrowDown.mouseout"/>
                  </use>
                  <path fill="none" stroke="white" stroke-width="1.5" d="M0,-3.0v7 M-2.5,-0.5L0,-3.0L2.5,-0.5"/>
                </g>
                <g id="arrowLeft" xlink:href="#dirArrow" transform="rotate(270) translate(-36 17)" onmousedown="handlePan(-1,0)">
                  <use xlink:href="#rim" fill="#404040">
                        <set attributeName="fill" to="#808080" begin="arrowLeft.mouseover" end="arrowLeft.mouseout"/>
                  </use>
                  <path fill="none" stroke="white" stroke-width="1.5" d="M0,-3.0v7 M-2.5,-0.5L0,-3.0L2.5,-0.5"/>
                </g>
        </g>
        <svg viewBox="0 0 15 15" width="100%" height="30px" preserveAspectRatio="xMaxYMin meet">
         <g id="arrow_out" transform="scale(0.3 0.3)">
          <a xlink:href="classopenage_1_1_nyan_type__coll__graph_org.svg" target="_base">
           <rect id="button" ry="5" rx="5" y="6" x="6" height="38" width="38"
                fill="#f2f5e9" fill-opacity="0.5" stroke="#606060" stroke-width="1.0"/>
           <path id="arrow"
             d="M 11.500037,31.436501 C 11.940474,20.09759 22.043105,11.32322 32.158766,21.979434 L 37.068811,17.246167 C 37.068811,17.246167 37.088388,32 37.088388,32 L 22.160133,31.978069 C 22.160133,31.978069 26.997745,27.140456 26.997745,27.140456 C 18.528582,18.264221 13.291696,25.230495 11.500037,31.436501 z"
             style="fill:#404040;"/>
          </a>
         </g>
        </svg>
</svg>
