<?xml version="1.0" encoding="UTF-8" standalone="no"?>
<!DOCTYPE svg PUBLIC "-//W3C//DTD SVG 1.1//EN"
 "http://www.w3.org/Graphics/SVG/1.1/DTD/svg11.dtd">
<!-- Generated by graphviz version 2.38.0 (20140413.2041)
 -->
<!-- Title: openage::event::demo::BallReflectWall::predict_invoke_time Pages: 1 -->
<svg width="626pt" height="165pt"
 viewBox="0.00 0.00 626.00 165.00" xmlns="http://www.w3.org/2000/svg" xmlns:xlink="http://www.w3.org/1999/xlink">
<g id="graph0" class="graph" transform="scale(1 1) rotate(0) translate(4 161)">
<title>openage::event::demo::BallReflectWall::predict_invoke_time</title>
<polygon fill="white" stroke="none" points="-4,4 -4,-161 622,-161 622,4 -4,4"/>
<!-- Node6 -->
<g id="node1" class="node"><title>Node6</title>
<g id="a_node1"><a xlink:title=" ">
<polygon fill="#bfbfbf" stroke="black" points="0,-58 0,-99 124,-99 124,-58 0,-58"/>
<text text-anchor="start" x="8" y="-87" font-family="Helvetica,sans-Serif" font-size="10.00">openage::event::demo</text>
<text text-anchor="start" x="8" y="-76" font-family="Helvetica,sans-Serif" font-size="10.00">::BallReflectWall::predict</text>
<text text-anchor="middle" x="62" y="-65" font-family="Helvetica,sans-Serif" font-size="10.00">_invoke_time</text>
</a>
</g>
</g>
<!-- Node7 -->
<g id="node2" class="node"><title>Node7</title>
<g id="a_node2"><a xlink:href="classopenage_1_1util_1_1_fixed_point.xhtml#a483c36345c5b597c1626162bc96dc52c" target="_top" xlink:title=" ">
<polygon fill="white" stroke="black" points="163.5,-126.5 163.5,-156.5 302.5,-156.5 302.5,-126.5 163.5,-126.5"/>
<text text-anchor="start" x="171.5" y="-144.5" font-family="Helvetica,sans-Serif" font-size="10.00">openage::util::FixedPoint</text>
<text text-anchor="middle" x="233" y="-133.5" font-family="Helvetica,sans-Serif" font-size="10.00">&lt; int64_t, 16 &gt;::from_double</text>
</a>
</g>
</g>
<!-- Node6&#45;&gt;Node7 -->
<g id="edge1" class="edge"><title>Node6&#45;&gt;Node7</title>
<path fill="none" stroke="midnightblue" d="M114.456,-99.0907C129.125,-104.843 145.155,-111.017 160,-116.5 165.865,-118.666 172.018,-120.884 178.152,-123.061"/>
<polygon fill="midnightblue" stroke="midnightblue" points="177.138,-126.415 187.733,-126.436 179.464,-119.812 177.138,-126.415"/>
</g>
<!-- Node8 -->
<g id="node3" class="node"><title>Node8</title>
<g id="a_node3"><a xlink:href="namespaceopenage_1_1console_1_1tests.xhtml#a46ebd3333dc9196558ac9aced828d117" target="_top" xlink:title=" ">
<polygon fill="white" stroke="black" points="160,-88 160,-107 306,-107 306,-88 160,-88"/>
<text text-anchor="middle" x="233" y="-95" font-family="Helvetica,sans-Serif" font-size="10.00">openage::console::tests::max</text>
</a>
</g>
</g>
<!-- Node6&#45;&gt;Node8 -->
<g id="edge2" class="edge"><title>Node6&#45;&gt;Node8</title>
<path fill="none" stroke="midnightblue" d="M124.013,-85.3594C132.371,-86.2992 141.063,-87.2763 149.723,-88.25"/>
<polygon fill="midnightblue" stroke="midnightblue" points="149.525,-91.7497 159.854,-89.3889 150.308,-84.7935 149.525,-91.7497"/>
</g>
<!-- Node9 -->
<g id="node4" class="node"><title>Node9</title>
<g id="a_node4"><a xlink:href="namespaceopenage_1_1py.xhtml#a4d2bbe46a5d10404c658b54f3b199551" target="_top" xlink:title=" ">
<polygon fill="white" stroke="black" points="189.5,-50 189.5,-69 276.5,-69 276.5,-50 189.5,-50"/>
<text text-anchor="middle" x="233" y="-57" font-family="Helvetica,sans-Serif" font-size="10.00">openage::py::str</text>
</a>
</g>
</g>
<!-- Node6&#45;&gt;Node9 -->
<g id="edge3" class="edge"><title>Node6&#45;&gt;Node9</title>
<path fill="none" stroke="midnightblue" d="M124.013,-71.6406C142.112,-69.6058 161.773,-67.3954 179.297,-65.4252"/>
<polygon fill="midnightblue" stroke="midnightblue" points="179.794,-68.8914 189.341,-64.296 179.012,-61.9353 179.794,-68.8914"/>
</g>
<!-- Node12 -->
<g id="node7" class="node"><title>Node12</title>
<g id="a_node7"><a xlink:href="classopenage_1_1util_1_1_fixed_point.xhtml#a3d55d1b8ecdb0fd4ff8e7e3da2598554" target="_top" xlink:title=" ">
<polygon fill="white" stroke="black" points="170.5,-0.5 170.5,-30.5 295.5,-30.5 295.5,-0.5 170.5,-0.5"/>
<text text-anchor="start" x="178.5" y="-18.5" font-family="Helvetica,sans-Serif" font-size="10.00">openage::util::FixedPoint</text>
<text text-anchor="middle" x="233" y="-7.5" font-family="Helvetica,sans-Serif" font-size="10.00">::to_double</text>
</a>
</g>
</g>
<!-- Node6&#45;&gt;Node12 -->
<g id="edge7" class="edge"><title>Node6&#45;&gt;Node12</title>
<path fill="none" stroke="midnightblue" d="M114.456,-57.9093C129.125,-52.157 145.155,-45.9828 160,-40.5 165.865,-38.3339 172.018,-36.1158 178.152,-33.9386"/>
<polygon fill="midnightblue" stroke="midnightblue" points="179.464,-37.1875 187.733,-30.5643 177.138,-30.585 179.464,-37.1875"/>
</g>
<!-- Node10 -->
<g id="node5" class="node"><title>Node10</title>
<g id="a_node5"><a xlink:href="namespaceopenage_1_1testing_1_1testing.xhtml#ac25bf81db406af62d08113ef7ae9fd6e" target="_top" xlink:title=" ">
<polygon fill="white" stroke="black" points="342,-50 342,-69 487,-69 487,-50 342,-50"/>
<text text-anchor="middle" x="414.5" y="-57" font-family="Helvetica,sans-Serif" font-size="10.00">openage.testing.testing.result</text>
</a>
</g>
</g>
<!-- Node9&#45;&gt;Node10 -->
<g id="edge4" class="edge"><title>Node9&#45;&gt;Node10</title>
<path fill="none" stroke="midnightblue" d="M276.539,-59.5C293.06,-59.5 312.565,-59.5 331.596,-59.5"/>
<polygon fill="midnightblue" stroke="midnightblue" points="331.791,-63.0001 341.791,-59.5 331.791,-56.0001 331.791,-63.0001"/>
</g>
<!-- Node11 -->
<g id="node6" class="node"><title>Node11</title>
<g id="a_node6"><a xlink:href="namespaceopenage_1_1util.xhtml#a7bc4421a5f0f57f3a0aba3f96eb8d19c" target="_top" xlink:title=" ">
<polygon fill="white" stroke="black" points="523,-50 523,-69 618,-69 618,-50 523,-50"/>
<text text-anchor="middle" x="570.5" y="-57" font-family="Helvetica,sans-Serif" font-size="10.00">openage::util::repr</text>
</a>
</g>
</g>
<!-- Node10&#45;&gt;Node11 -->
<g id="edge5" class="edge"><title>Node10&#45;&gt;Node11</title>
<path fill="none" stroke="midnightblue" d="M487.09,-52.7648C495.595,-52.7181 504.189,-52.7817 512.453,-52.9556"/>
<polygon fill="midnightblue" stroke="midnightblue" points="512.622,-56.4614 522.713,-53.2348 512.812,-49.464 512.622,-56.4614"/>
</g>
<!-- Node11&#45;&gt;Node10 -->
<g id="edge6" class="edge"><title>Node11&#45;&gt;Node10</title>
<path fill="none" stroke="midnightblue" d="M522.713,-65.7652C514.626,-66.0381 506.01,-66.1958 497.312,-66.2383"/>
<polygon fill="midnightblue" stroke="midnightblue" points="497.091,-62.7383 487.09,-66.2352 497.089,-69.7383 497.091,-62.7383"/>
</g>
</g>
</svg>
