<?xml version="1.0" encoding="UTF-8" standalone="no"?>
<!DOCTYPE svg PUBLIC "-//W3C//DTD SVG 1.1//EN"
 "http://www.w3.org/Graphics/SVG/1.1/DTD/svg11.dtd">
<!-- Generated by graphviz version 2.38.0 (20140413.2041)
 -->
<!-- Title: openage::gui::GeneratorLink Pages: 1 -->
<!--zoomable 794 -->
<svg id="main" version="1.1" xmlns="http://www.w3.org/2000/svg" xmlns:xlink="http://www.w3.org/1999/xlink" xml:space="preserve" onload="init(evt)">
<style type="text/css"><![CDATA[
.edge:hover path { stroke: red; }
.edge:hover polygon { stroke: red; fill: red; }
]]></style>
<script type="text/javascript"><![CDATA[
var edges = document.getElementsByTagName('g');
if (edges && edges.length) {
  for (var i=0;i<edges.length;i++) {
    if (edges[i].id.substr(0,4)=='edge') {
      edges[i].setAttribute('class','edge');
    }
  }
}
]]></script>
        <defs>
                <circle id="rim" cx="0" cy="0" r="7"/>
                <circle id="rim2" cx="0" cy="0" r="3.5"/>
                <g id="zoomPlus">
                        <use xlink:href="#rim" fill="#404040">
                                <set attributeName="fill" to="#808080" begin="zoomplus.mouseover" end="zoomplus.mouseout"/>
                        </use>
                        <path d="M-4,0h8M0,-4v8" fill="none" stroke="white" stroke-width="1.5" pointer-events="none"/>
                </g>
                <g id="zoomMin">
                        <use xlink:href="#rim" fill="#404040">
                                <set attributeName="fill" to="#808080" begin="zoomminus.mouseover" end="zoomminus.mouseout"/>
                        </use>
                        <path d="M-4,0h8" fill="none" stroke="white" stroke-width="1.5" pointer-events="none"/>
                </g>
                <g id="dirArrow">
                        <path fill="none" stroke="white" stroke-width="1.5" d="M0,-3.0v7 M-2.5,-0.5L0,-3.0L2.5,-0.5"/>
                </g>
               <g id="resetDef">
                       <use xlink:href="#rim2" fill="#404040">
                               <set attributeName="fill" to="#808080" begin="reset.mouseover" end="reset.mouseout"/>
                       </use>
               </g>
        </defs>

<script type="text/javascript">
var viewWidth = 622;
var viewHeight = 794;
var sectionId = 'dynsection-0';
</script>
<script xlink:href="svgpan.js"/>
<svg id="graph" class="graph">
<g id="viewport">
<title>openage::gui::GeneratorLink</title>
<polygon fill="white" stroke="none" points="-4,4 -4,-790 617.5,-790 617.5,4 -4,4"/>
<!-- Node0 -->
<g id="node1" class="node"><title>Node0</title>
<g id="a_node1"><a xlink:title=" ">
<polygon fill="#bfbfbf" stroke="black" points="253,-0.5 253,-68.5 392,-68.5 392,-0.5 253,-0.5"/>
<text text-anchor="middle" x="322.5" y="-56.5" font-family="Helvetica,sans-Serif" font-size="10.00">openage::gui::GeneratorLink</text>
<polyline fill="none" stroke="black" points="253,-49.5 392,-49.5 "/>
<text text-anchor="middle" x="322.5" y="-37.5" font-family="Helvetica,sans-Serif" font-size="10.00"> </text>
<polyline fill="none" stroke="black" points="253,-30.5 392,-30.5 "/>
<text text-anchor="start" x="261" y="-18.5" font-family="Helvetica,sans-Serif" font-size="10.00">+ GeneratorLink()</text>
<text text-anchor="start" x="261" y="-7.5" font-family="Helvetica,sans-Serif" font-size="10.00">+ ~GeneratorLink()</text>
</a>
</g>
</g>
<!-- Node1 -->
<g id="node2" class="node"><title>Node1</title>
<g id="a_node2"><a xlink:href="classqtsdl_1_1_gui_list_model.xhtml" target="_top" xlink:title=" ">
<polygon fill="white" stroke="black" points="155,-105.5 155,-239.5 280,-239.5 280,-105.5 155,-105.5"/>
<text text-anchor="middle" x="217.5" y="-227.5" font-family="Helvetica,sans-Serif" font-size="10.00">qtsdl::GuiListModel</text>
<polyline fill="none" stroke="black" points="155,-220.5 280,-220.5 "/>
<text text-anchor="start" x="163" y="-208.5" font-family="Helvetica,sans-Serif" font-size="10.00">&#45; values</text>
<polyline fill="none" stroke="black" points="155,-201.5 280,-201.5 "/>
<text text-anchor="start" x="163" y="-189.5" font-family="Helvetica,sans-Serif" font-size="10.00">+ GuiListModel()</text>
<text text-anchor="start" x="163" y="-178.5" font-family="Helvetica,sans-Serif" font-size="10.00">+ ~GuiListModel()</text>
<text text-anchor="start" x="163" y="-167.5" font-family="Helvetica,sans-Serif" font-size="10.00">+ set()</text>
<text text-anchor="start" x="163" y="-156.5" font-family="Helvetica,sans-Serif" font-size="10.00">+ on_property_changed()</text>
<text text-anchor="start" x="163" y="-145.5" font-family="Helvetica,sans-Serif" font-size="10.00">&#45; rowCount()</text>
<text text-anchor="start" x="163" y="-134.5" font-family="Helvetica,sans-Serif" font-size="10.00">&#45; flags()</text>
<text text-anchor="start" x="163" y="-123.5" font-family="Helvetica,sans-Serif" font-size="10.00">&#45; data()</text>
<text text-anchor="start" x="163" y="-112.5" font-family="Helvetica,sans-Serif" font-size="10.00">&#45; setData()</text>
</a>
</g>
</g>
<!-- Node1&#45;&gt;Node0 -->
<g id="edge1" class="edge"><title>Node1&#45;&gt;Node0</title>
<path fill="none" stroke="midnightblue" d="M274.675,-97.4448C282.402,-87.4369 289.992,-77.6053 296.77,-68.8265"/>
<polygon fill="none" stroke="midnightblue" points="271.803,-95.4376 268.462,-105.492 277.344,-99.7154 271.803,-95.4376"/>
</g>
<!-- Node2 -->
<g id="node3" class="node"><title>Node2</title>
<g id="a_node3"><a xlink:title=" ">
<polygon fill="white" stroke="#bfbfbf" points="0,-320.5 0,-377.5 103,-377.5 103,-320.5 0,-320.5"/>
<text text-anchor="middle" x="51.5" y="-365.5" font-family="Helvetica,sans-Serif" font-size="10.00">QAbstractListModel</text>
<polyline fill="none" stroke="#bfbfbf" points="0,-358.5 103,-358.5 "/>
<text text-anchor="middle" x="51.5" y="-346.5" font-family="Helvetica,sans-Serif" font-size="10.00"> </text>
<polyline fill="none" stroke="#bfbfbf" points="0,-339.5 103,-339.5 "/>
<text text-anchor="middle" x="51.5" y="-327.5" font-family="Helvetica,sans-Serif" font-size="10.00"> </text>
</a>
</g>
</g>
<!-- Node2&#45;&gt;Node1 -->
<g id="edge2" class="edge"><title>Node2&#45;&gt;Node1</title>
<path fill="none" stroke="midnightblue" d="M80.4216,-312.517C90.3575,-300.694 101.701,-287.588 112.5,-276 125.873,-261.65 140.701,-246.659 154.898,-232.711"/>
<polygon fill="none" stroke="midnightblue" points="77.5108,-310.543 73.7918,-320.464 82.8857,-315.027 77.5108,-310.543"/>
</g>
<!-- Node3 -->
<g id="node4" class="node"><title>Node3</title>
<g id="a_node4"><a xlink:href="classqtsdl_1_1_gui_item_base.xhtml" target="_top" xlink:title=" ">
<polygon fill="white" stroke="black" points="121.5,-276.5 121.5,-421.5 259.5,-421.5 259.5,-276.5 121.5,-276.5"/>
<text text-anchor="middle" x="190.5" y="-409.5" font-family="Helvetica,sans-Serif" font-size="10.00">qtsdl::GuiItemBase</text>
<polyline fill="none" stroke="black" points="121.5,-402.5 259.5,-402.5 "/>
<text text-anchor="start" x="129.5" y="-390.5" font-family="Helvetica,sans-Serif" font-size="10.00"># game_logic_caller</text>
<text text-anchor="start" x="129.5" y="-379.5" font-family="Helvetica,sans-Serif" font-size="10.00"># instantiate_core_func</text>
<text text-anchor="start" x="129.5" y="-368.5" font-family="Helvetica,sans-Serif" font-size="10.00"># do_adopt_core_func</text>
<text text-anchor="start" x="129.5" y="-357.5" font-family="Helvetica,sans-Serif" font-size="10.00"># on_core_adopted_func</text>
<polyline fill="none" stroke="black" points="121.5,-350.5 259.5,-350.5 "/>
<text text-anchor="start" x="129.5" y="-338.5" font-family="Helvetica,sans-Serif" font-size="10.00">+ ~GuiItemBase()</text>
<text text-anchor="start" x="129.5" y="-327.5" font-family="Helvetica,sans-Serif" font-size="10.00">&#45; instantiate_core()</text>
<text text-anchor="start" x="129.5" y="-316.5" font-family="Helvetica,sans-Serif" font-size="10.00">&#45; adopt_core()</text>
<text text-anchor="start" x="129.5" y="-305.5" font-family="Helvetica,sans-Serif" font-size="10.00">&#45; do_adopt_core()</text>
<text text-anchor="start" x="129.5" y="-294.5" font-family="Helvetica,sans-Serif" font-size="10.00">&#45; on_core_adopted()</text>
<text text-anchor="start" x="129.5" y="-283.5" font-family="Helvetica,sans-Serif" font-size="10.00">&#45; set_game_logic_callback()</text>
</a>
</g>
</g>
<!-- Node3&#45;&gt;Node1 -->
<g id="edge3" class="edge"><title>Node3&#45;&gt;Node1</title>
<path fill="none" stroke="midnightblue" d="M203.149,-266.249C204.53,-257.327 205.922,-248.328 207.268,-239.628"/>
<polygon fill="none" stroke="midnightblue" points="199.669,-265.851 201.599,-276.269 206.587,-266.922 199.669,-265.851"/>
</g>
<!-- Node4 -->
<g id="node5" class="node"><title>Node4</title>
<g id="a_node5"><a xlink:href="classqtsdl_1_1_deferred_initial_constant_property_values.xhtml" target="_top" xlink:title=" ">
<polygon fill="white" stroke="black" points="110.5,-458.5 110.5,-603.5 270.5,-603.5 270.5,-458.5 110.5,-458.5"/>
<text text-anchor="start" x="118.5" y="-591.5" font-family="Helvetica,sans-Serif" font-size="10.00">qtsdl::DeferredInitialConstant</text>
<text text-anchor="middle" x="190.5" y="-580.5" font-family="Helvetica,sans-Serif" font-size="10.00">PropertyValues</text>
<polyline fill="none" stroke="black" points="110.5,-573.5 270.5,-573.5 "/>
<text text-anchor="start" x="118.5" y="-561.5" font-family="Helvetica,sans-Serif" font-size="10.00"># init_over</text>
<text text-anchor="start" x="118.5" y="-550.5" font-family="Helvetica,sans-Serif" font-size="10.00"># static_properties_assignments</text>
<polyline fill="none" stroke="black" points="110.5,-543.5 270.5,-543.5 "/>
<text text-anchor="start" x="118.5" y="-531.5" font-family="Helvetica,sans-Serif" font-size="10.00">+ DeferredInitialConstantProperty</text>
<text text-anchor="start" x="118.5" y="-520.5" font-family="Helvetica,sans-Serif" font-size="10.00">Values()</text>
<text text-anchor="start" x="118.5" y="-509.5" font-family="Helvetica,sans-Serif" font-size="10.00">+ ~DeferredInitialConstant</text>
<text text-anchor="start" x="118.5" y="-498.5" font-family="Helvetica,sans-Serif" font-size="10.00">PropertyValues()</text>
<text text-anchor="start" x="118.5" y="-487.5" font-family="Helvetica,sans-Serif" font-size="10.00">+ apply_static_properties()</text>
<text text-anchor="start" x="118.5" y="-476.5" font-family="Helvetica,sans-Serif" font-size="10.00">+ clear_static_properties()</text>
<text text-anchor="start" x="118.5" y="-465.5" font-family="Helvetica,sans-Serif" font-size="10.00">+ is_init_over()</text>
</a>
</g>
</g>
<!-- Node4&#45;&gt;Node3 -->
<g id="edge4" class="edge"><title>Node4&#45;&gt;Node3</title>
<path fill="none" stroke="midnightblue" d="M190.5,-448.079C190.5,-439.278 190.5,-430.374 190.5,-421.705"/>
<polygon fill="none" stroke="midnightblue" points="187,-448.342 190.5,-458.342 194,-448.342 187,-448.342"/>
</g>
<!-- Node5 -->
<g id="node6" class="node"><title>Node5</title>
<g id="a_node6"><a xlink:href="classqtsdl_1_1_gui_item_link.xhtml" target="_top" xlink:title=" ">
<polygon fill="white" stroke="black" points="278,-320.5 278,-377.5 373,-377.5 373,-320.5 278,-320.5"/>
<text text-anchor="middle" x="325.5" y="-365.5" font-family="Helvetica,sans-Serif" font-size="10.00">qtsdl::GuiItemLink</text>
<polyline fill="none" stroke="black" points="278,-358.5 373,-358.5 "/>
<text text-anchor="middle" x="325.5" y="-346.5" font-family="Helvetica,sans-Serif" font-size="10.00"> </text>
<polyline fill="none" stroke="black" points="278,-339.5 373,-339.5 "/>
<text text-anchor="start" x="286" y="-327.5" font-family="Helvetica,sans-Serif" font-size="10.00">+ ~GuiItemLink()</text>
</a>
</g>
</g>
<!-- Node5&#45;&gt;Node1 -->
<g id="edge5" class="edge"><title>Node5&#45;&gt;Node1</title>
<path fill="none" stroke="midnightblue" d="M303.112,-311.827C290.241,-291.03 273.671,-264.257 258.543,-239.814"/>
<polygon fill="none" stroke="midnightblue" points="300.148,-313.689 308.387,-320.35 306.1,-310.005 300.148,-313.689"/>
</g>
<!-- Node6 -->
<g id="node7" class="node"><title>Node6</title>
<g id="a_node7"><a xlink:href="classqtsdl_1_1_gui_item_list_model.xhtml" target="_top" xlink:title=" ">
<polygon fill="white" stroke="black" points="351,-111 351,-234 506,-234 506,-111 351,-111"/>
<text text-anchor="start" x="359" y="-222" font-family="Helvetica,sans-Serif" font-size="10.00">qtsdl::GuiItemListModel</text>
<text text-anchor="middle" x="428.5" y="-211" font-family="Helvetica,sans-Serif" font-size="10.00">&lt; GeneratorLink &gt;</text>
<polyline fill="none" stroke="black" points="351,-204 506,-204 "/>
<text text-anchor="middle" x="428.5" y="-192" font-family="Helvetica,sans-Serif" font-size="10.00"> </text>
<polyline fill="none" stroke="black" points="351,-185 506,-185 "/>
<text text-anchor="start" x="359" y="-173" font-family="Helvetica,sans-Serif" font-size="10.00">+ GuiItemListModel()</text>
<text text-anchor="start" x="359" y="-162" font-family="Helvetica,sans-Serif" font-size="10.00">&#45; on_core_adopted()</text>
<text text-anchor="start" x="359" y="-151" font-family="Helvetica,sans-Serif" font-size="10.00">&#45; establish_from_gui</text>
<text text-anchor="start" x="359" y="-140" font-family="Helvetica,sans-Serif" font-size="10.00">_propagation()</text>
<text text-anchor="start" x="359" y="-129" font-family="Helvetica,sans-Serif" font-size="10.00">&#45; establish_to_gui_propagation()</text>
<text text-anchor="start" x="359" y="-118" font-family="Helvetica,sans-Serif" font-size="10.00">&#45; do_initial_to_gui_propagation()</text>
</a>
</g>
</g>
<!-- Node6&#45;&gt;Node0 -->
<g id="edge6" class="edge"><title>Node6&#45;&gt;Node0</title>
<path fill="none" stroke="midnightblue" d="M374.733,-102.516C365.552,-90.7363 356.401,-78.9961 348.384,-68.7095"/>
<polygon fill="none" stroke="midnightblue" points="372.173,-104.924 381.081,-110.66 377.694,-100.621 372.173,-104.924"/>
</g>
<!-- Node7 -->
<g id="node8" class="node"><title>Node7</title>
<g id="a_node8"><a xlink:href="classqtsdl_1_1_gui_item.xhtml" target="_top" xlink:title=" ">
<polygon fill="white" stroke="black" points="391,-315 391,-383 520,-383 520,-315 391,-315"/>
<text text-anchor="start" x="399" y="-371" font-family="Helvetica,sans-Serif" font-size="10.00">qtsdl::GuiItem&lt; Generator</text>
<text text-anchor="middle" x="455.5" y="-360" font-family="Helvetica,sans-Serif" font-size="10.00">Link &gt;</text>
<polyline fill="none" stroke="black" points="391,-353 520,-353 "/>
<text text-anchor="middle" x="455.5" y="-341" font-family="Helvetica,sans-Serif" font-size="10.00"> </text>
<polyline fill="none" stroke="black" points="391,-334 520,-334 "/>
<text text-anchor="start" x="399" y="-322" font-family="Helvetica,sans-Serif" font-size="10.00">+ GuiItem()</text>
</a>
</g>
</g>
<!-- Node7&#45;&gt;Node6 -->
<g id="edge7" class="edge"><title>Node7&#45;&gt;Node6</title>
<path fill="none" stroke="midnightblue" d="M448.804,-304.726C445.509,-283.431 441.482,-257.403 437.886,-234.159"/>
<polygon fill="none" stroke="midnightblue" points="445.37,-305.42 450.358,-314.767 452.288,-304.35 445.37,-305.42"/>
</g>
<!-- Node8 -->
<g id="node9" class="node"><title>Node8</title>
<g id="a_node9"><a xlink:href="classqtsdl_1_1_gui_item_origin.xhtml" target="_top" xlink:title=" ">
<polygon fill="white" stroke="black" points="346,-497 346,-565 449,-565 449,-497 346,-497"/>
<text text-anchor="start" x="354" y="-553" font-family="Helvetica,sans-Serif" font-size="10.00">qtsdl::GuiItemOrigin</text>
<text text-anchor="middle" x="397.5" y="-542" font-family="Helvetica,sans-Serif" font-size="10.00">&lt; GeneratorLink &gt;</text>
<polyline fill="none" stroke="black" points="346,-535 449,-535 "/>
<text text-anchor="start" x="354" y="-523" font-family="Helvetica,sans-Serif" font-size="10.00">&#45; holder</text>
<polyline fill="none" stroke="black" points="346,-516 449,-516 "/>
<text text-anchor="middle" x="397.5" y="-504" font-family="Helvetica,sans-Serif" font-size="10.00"> </text>
</a>
</g>
</g>
<!-- Node8&#45;&gt;Node7 -->
<g id="edge8" class="edge"><title>Node8&#45;&gt;Node7</title>
<path fill="none" stroke="midnightblue" d="M411.205,-487.466C421.489,-455.551 435.367,-412.48 444.831,-383.11"/>
<polygon fill="none" stroke="midnightblue" points="407.874,-486.394 408.138,-496.985 414.536,-488.541 407.874,-486.394"/>
</g>
<!-- Node9 -->
<g id="node10" class="node"><title>Node9</title>
<g id="a_node10"><a xlink:href="classqtsdl_1_1_gui_item_core_instantiator.xhtml" target="_top" xlink:title=" ">
<polygon fill="white" stroke="black" points="467.5,-475 467.5,-587 613.5,-587 613.5,-475 467.5,-475"/>
<text text-anchor="start" x="475.5" y="-575" font-family="Helvetica,sans-Serif" font-size="10.00">qtsdl::GuiItemCoreInstantiator</text>
<text text-anchor="middle" x="540.5" y="-564" font-family="Helvetica,sans-Serif" font-size="10.00">&lt; GeneratorLink &gt;</text>
<polyline fill="none" stroke="black" points="467.5,-557 613.5,-557 "/>
<text text-anchor="middle" x="540.5" y="-545" font-family="Helvetica,sans-Serif" font-size="10.00"> </text>
<polyline fill="none" stroke="black" points="467.5,-538 613.5,-538 "/>
<text text-anchor="start" x="475.5" y="-526" font-family="Helvetica,sans-Serif" font-size="10.00">+ GuiItemCoreInstantiator()</text>
<text text-anchor="start" x="475.5" y="-515" font-family="Helvetica,sans-Serif" font-size="10.00">&#45; GuiItemCoreInstantiator()</text>
<text text-anchor="start" x="475.5" y="-504" font-family="Helvetica,sans-Serif" font-size="10.00">&#45; instantiate_core()</text>
<text text-anchor="start" x="475.5" y="-493" font-family="Helvetica,sans-Serif" font-size="10.00">&#45; do_adopt_core()</text>
<text text-anchor="start" x="475.5" y="-482" font-family="Helvetica,sans-Serif" font-size="10.00">&#45; operator=()</text>
</a>
</g>
</g>
<!-- Node9&#45;&gt;Node7 -->
<g id="edge9" class="edge"><title>Node9&#45;&gt;Node7</title>
<path fill="none" stroke="midnightblue" d="M509.914,-465.229C496.758,-437.37 481.945,-406.002 471.1,-383.036"/>
<polygon fill="none" stroke="midnightblue" points="506.869,-466.977 514.304,-474.525 513.198,-463.988 506.869,-466.977"/>
</g>
<!-- Node10 -->
<g id="node11" class="node"><title>Node10</title>
<g id="a_node11"><a xlink:href="classqtsdl_1_1_gui_item_methods.xhtml" target="_top" xlink:title=" ">
<polygon fill="white" stroke="black" points="473.5,-640.5 473.5,-785.5 607.5,-785.5 607.5,-640.5 473.5,-640.5"/>
<text text-anchor="start" x="481.5" y="-773.5" font-family="Helvetica,sans-Serif" font-size="10.00">qtsdl::GuiItemMethods</text>
<text text-anchor="middle" x="540.5" y="-762.5" font-family="Helvetica,sans-Serif" font-size="10.00">&lt; GeneratorLink &gt;</text>
<polyline fill="none" stroke="black" points="473.5,-755.5 607.5,-755.5 "/>
<text text-anchor="middle" x="540.5" y="-743.5" font-family="Helvetica,sans-Serif" font-size="10.00"> </text>
<polyline fill="none" stroke="black" points="473.5,-736.5 607.5,-736.5 "/>
<text text-anchor="start" x="481.5" y="-724.5" font-family="Helvetica,sans-Serif" font-size="10.00">+ ~GuiItemMethods()</text>
<text text-anchor="start" x="481.5" y="-713.5" font-family="Helvetica,sans-Serif" font-size="10.00">+ get()</text>
<text text-anchor="start" x="481.5" y="-702.5" font-family="Helvetica,sans-Serif" font-size="10.00">+ get()</text>
<text text-anchor="start" x="481.5" y="-691.5" font-family="Helvetica,sans-Serif" font-size="10.00">+ i()</text>
<text text-anchor="start" x="481.5" y="-680.5" font-family="Helvetica,sans-Serif" font-size="10.00"># s()</text>
<text text-anchor="start" x="481.5" y="-669.5" font-family="Helvetica,sans-Serif" font-size="10.00"># sf()</text>
<text text-anchor="start" x="481.5" y="-658.5" font-family="Helvetica,sans-Serif" font-size="10.00">&#45; assign_while_catching</text>
<text text-anchor="start" x="481.5" y="-647.5" font-family="Helvetica,sans-Serif" font-size="10.00">_constant_properies_inits()</text>
</a>
</g>
</g>
<!-- Node10&#45;&gt;Node9 -->
<g id="edge10" class="edge"><title>Node10&#45;&gt;Node9</title>
<path fill="none" stroke="midnightblue" d="M540.5,-630.275C540.5,-615.638 540.5,-600.706 540.5,-587.046"/>
<polygon fill="none" stroke="midnightblue" points="537,-630.342 540.5,-640.342 544,-630.342 537,-630.342"/>
</g>
</g>
</svg>
        <g id="navigator" transform="translate(0 0)" fill="#404254">
                <rect fill="#f2f5e9" fill-opacity="0.5" stroke="#606060" stroke-width=".5" x="0" y="0" width="60" height="60"/>
                <use id="zoomplus" xlink:href="#zoomPlus" x="17" y="9" onmousedown="handleZoom(evt,'in')"/>
                <use id="zoomminus" xlink:href="#zoomMin" x="42" y="9" onmousedown="handleZoom(evt,'out')"/>
                <use id="reset" xlink:href="#resetDef" x="30" y="36" onmousedown="handleReset()"/>
                <g id="arrowUp" xlink:href="#dirArrow" transform="translate(30 24)" onmousedown="handlePan(0,-1)">
                  <use xlink:href="#rim" fill="#404040">
                        <set attributeName="fill" to="#808080" begin="arrowUp.mouseover" end="arrowUp.mouseout"/>
                  </use>
                  <path fill="none" stroke="white" stroke-width="1.5" d="M0,-3.0v7 M-2.5,-0.5L0,-3.0L2.5,-0.5"/>
                </g>
                <g id="arrowRight" xlink:href="#dirArrow" transform="rotate(90) translate(36 -43)" onmousedown="handlePan(1,0)">
                  <use xlink:href="#rim" fill="#404040">
                        <set attributeName="fill" to="#808080" begin="arrowRight.mouseover" end="arrowRight.mouseout"/>
                  </use>
                  <path fill="none" stroke="white" stroke-width="1.5" d="M0,-3.0v7 M-2.5,-0.5L0,-3.0L2.5,-0.5"/>
                </g>
                <g id="arrowDown" xlink:href="#dirArrow" transform="rotate(180) translate(-30 -48)" onmousedown="handlePan(0,1)">
                  <use xlink:href="#rim" fill="#404040">
                        <set attributeName="fill" to="#808080" begin="arrowDown.mouseover" end="arrowDown.mouseout"/>
                  </use>
                  <path fill="none" stroke="white" stroke-width="1.5" d="M0,-3.0v7 M-2.5,-0.5L0,-3.0L2.5,-0.5"/>
                </g>
                <g id="arrowLeft" xlink:href="#dirArrow" transform="rotate(270) translate(-36 17)" onmousedown="handlePan(-1,0)">
                  <use xlink:href="#rim" fill="#404040">
                        <set attributeName="fill" to="#808080" begin="arrowLeft.mouseover" end="arrowLeft.mouseout"/>
                  </use>
                  <path fill="none" stroke="white" stroke-width="1.5" d="M0,-3.0v7 M-2.5,-0.5L0,-3.0L2.5,-0.5"/>
                </g>
        </g>
        <svg viewBox="0 0 15 15" width="100%" height="30px" preserveAspectRatio="xMaxYMin meet">
         <g id="arrow_out" transform="scale(0.3 0.3)">
          <a xlink:href="classopenage_1_1gui_1_1_generator_link__inherit__graph_org.svg" target="_base">
           <rect id="button" ry="5" rx="5" y="6" x="6" height="38" width="38"
                fill="#f2f5e9" fill-opacity="0.5" stroke="#606060" stroke-width="1.0"/>
           <path id="arrow"
             d="M 11.500037,31.436501 C 11.940474,20.09759 22.043105,11.32322 32.158766,21.979434 L 37.068811,17.246167 C 37.068811,17.246167 37.088388,32 37.088388,32 L 22.160133,31.978069 C 22.160133,31.978069 26.997745,27.140456 26.997745,27.140456 C 18.528582,18.264221 13.291696,25.230495 11.500037,31.436501 z"
             style="fill:#404040;"/>
          </a>
         </g>
        </svg>
</svg>
