<?xml version="1.0" encoding="UTF-8" standalone="no"?>
<!DOCTYPE svg PUBLIC "-//W3C//DTD SVG 1.1//EN"
 "http://www.w3.org/Graphics/SVG/1.1/DTD/svg11.dtd">
<!-- Generated by graphviz version 2.38.0 (20140413.2041)
 -->
<!-- Title: openage::gui::ActionModeLink::on_core_adopted Pages: 1 -->
<svg width="1006pt" height="325pt"
 viewBox="0.00 0.00 1006.00 324.50" xmlns="http://www.w3.org/2000/svg" xmlns:xlink="http://www.w3.org/1999/xlink">
<g id="graph0" class="graph" transform="scale(1 1) rotate(0) translate(4 320.5)">
<title>openage::gui::ActionModeLink::on_core_adopted</title>
<polygon fill="white" stroke="none" points="-4,4 -4,-320.5 1002,-320.5 1002,4 -4,4"/>
<!-- Node31 -->
<g id="node1" class="node"><title>Node31</title>
<g id="a_node1"><a xlink:title=" ">
<polygon fill="#bfbfbf" stroke="black" points="0,-94 0,-124 130,-124 130,-94 0,-94"/>
<text text-anchor="start" x="8" y="-112" font-family="Helvetica,sans-Serif" font-size="10.00">openage::gui::ActionMode</text>
<text text-anchor="middle" x="65" y="-101" font-family="Helvetica,sans-Serif" font-size="10.00">Link::on_core_adopted</text>
</a>
</g>
</g>
<!-- Node32 -->
<g id="node2" class="node"><title>Node32</title>
<g id="a_node2"><a xlink:href="classopenage_1_1gui_1_1_action_mode_link.xhtml#a4eed7841550a933434148daef3a162fe" target="_top" xlink:title=" ">
<polygon fill="white" stroke="black" points="172.5,-198 172.5,-228 302.5,-228 302.5,-198 172.5,-198"/>
<text text-anchor="start" x="180.5" y="-216" font-family="Helvetica,sans-Serif" font-size="10.00">openage::gui::ActionMode</text>
<text text-anchor="middle" x="237.5" y="-205" font-family="Helvetica,sans-Serif" font-size="10.00">Link::on_ability_changed</text>
</a>
</g>
</g>
<!-- Node31&#45;&gt;Node32 -->
<g id="edge1" class="edge"><title>Node31&#45;&gt;Node32</title>
<path fill="none" stroke="midnightblue" d="M81.7918,-124.216C100.565,-141.621 133.464,-170.027 166,-188 169.877,-190.142 173.973,-192.157 178.16,-194.041"/>
<polygon fill="midnightblue" stroke="midnightblue" points="176.849,-197.286 187.423,-197.953 179.573,-190.838 176.849,-197.286"/>
</g>
<!-- Node33 -->
<g id="node3" class="node"><title>Node33</title>
<g id="a_node3"><a xlink:href="classopenage_1_1_action_mode_signals.xhtml#a400a4674187d1ce007a206c5074390da" target="_top" xlink:title=" ">
<polygon fill="white" stroke="black" points="166,-149 166,-179 309,-179 309,-149 166,-149"/>
<text text-anchor="start" x="174" y="-167" font-family="Helvetica,sans-Serif" font-size="10.00">openage::ActionModeSignals</text>
<text text-anchor="middle" x="237.5" y="-156" font-family="Helvetica,sans-Serif" font-size="10.00">::on_action</text>
</a>
</g>
</g>
<!-- Node31&#45;&gt;Node33 -->
<g id="edge2" class="edge"><title>Node31&#45;&gt;Node33</title>
<path fill="none" stroke="midnightblue" d="M112.59,-124.029C133.546,-130.789 158.457,-138.825 180.428,-145.912"/>
<polygon fill="midnightblue" stroke="midnightblue" points="179.375,-149.25 189.966,-148.989 181.524,-142.588 179.375,-149.25"/>
</g>
<!-- Node44 -->
<g id="node14" class="node"><title>Node44</title>
<g id="a_node14"><a xlink:href="classopenage_1_1gui_1_1_action_mode_link.xhtml#a5b47b6c506c74c341fbbac395b910b7a" target="_top" xlink:title=" ">
<polygon fill="white" stroke="black" points="172.5,-88.5 172.5,-129.5 302.5,-129.5 302.5,-88.5 172.5,-88.5"/>
<text text-anchor="start" x="180.5" y="-117.5" font-family="Helvetica,sans-Serif" font-size="10.00">openage::gui::ActionMode</text>
<text text-anchor="start" x="180.5" y="-106.5" font-family="Helvetica,sans-Serif" font-size="10.00">Link::on_buttons_type</text>
<text text-anchor="middle" x="237.5" y="-95.5" font-family="Helvetica,sans-Serif" font-size="10.00">_changed</text>
</a>
</g>
</g>
<!-- Node31&#45;&gt;Node44 -->
<g id="edge14" class="edge"><title>Node31&#45;&gt;Node44</title>
<path fill="none" stroke="midnightblue" d="M130.459,-109C140.821,-109 151.62,-109 162.19,-109"/>
<polygon fill="midnightblue" stroke="midnightblue" points="162.233,-112.5 172.233,-109 162.233,-105.5 162.233,-112.5"/>
</g>
<!-- Node45 -->
<g id="node15" class="node"><title>Node45</title>
<g id="a_node15"><a xlink:href="classopenage_1_1gui_1_1_action_mode_link.xhtml#a8388724e23846b1d337754421ce3fe88" target="_top" xlink:title=" ">
<polygon fill="white" stroke="black" points="166,-39 166,-69 309,-69 309,-39 166,-39"/>
<text text-anchor="start" x="174" y="-57" font-family="Helvetica,sans-Serif" font-size="10.00">openage::gui::ActionMode</text>
<text text-anchor="middle" x="237.5" y="-46" font-family="Helvetica,sans-Serif" font-size="10.00">Link::on_population_changed</text>
</a>
</g>
</g>
<!-- Node31&#45;&gt;Node45 -->
<g id="edge15" class="edge"><title>Node31&#45;&gt;Node45</title>
<path fill="none" stroke="midnightblue" d="M112.59,-93.971C133.546,-87.2108 158.457,-79.175 180.428,-72.0877"/>
<polygon fill="midnightblue" stroke="midnightblue" points="181.524,-75.4119 189.966,-69.0108 179.375,-68.7499 181.524,-75.4119"/>
</g>
<!-- Node47 -->
<g id="node17" class="node"><title>Node47</title>
<g id="a_node17"><a xlink:href="namespaceqtsdl.xhtml#af1666c815e9f0f5791315530fd76b18d" target="_top" xlink:title=" ">
<polygon fill="white" stroke="black" points="200.5,-0.5 200.5,-19.5 274.5,-19.5 274.5,-0.5 200.5,-0.5"/>
<text text-anchor="middle" x="237.5" y="-7.5" font-family="Helvetica,sans-Serif" font-size="10.00">qtsdl::unwrap</text>
</a>
</g>
</g>
<!-- Node31&#45;&gt;Node47 -->
<g id="edge17" class="edge"><title>Node31&#45;&gt;Node47</title>
<path fill="none" stroke="midnightblue" d="M80.8592,-93.7648C99.2498,-75.7563 132.285,-46.0835 166,-29 173.64,-25.129 182.157,-21.9778 190.557,-19.4362"/>
<polygon fill="midnightblue" stroke="midnightblue" points="191.608,-22.777 200.305,-16.7259 189.733,-16.0328 191.608,-22.777"/>
</g>
<!-- Node34 -->
<g id="node4" class="node"><title>Node34</title>
<g id="a_node4"><a xlink:href="classopenage_1_1input_1_1_input_context.xhtml#a97804df5309a2fd7773b02568c8ca461" target="_top" xlink:title=" ">
<polygon fill="white" stroke="black" points="360,-286 360,-316 501,-316 501,-286 360,-286"/>
<text text-anchor="start" x="368" y="-304" font-family="Helvetica,sans-Serif" font-size="10.00">openage::input::InputContext</text>
<text text-anchor="middle" x="430.5" y="-293" font-family="Helvetica,sans-Serif" font-size="10.00">::execute_if_bound</text>
</a>
</g>
</g>
<!-- Node33&#45;&gt;Node34 -->
<g id="edge3" class="edge"><title>Node33&#45;&gt;Node34</title>
<path fill="none" stroke="midnightblue" d="M296.676,-179.048C301.14,-181.583 305.329,-184.543 309,-188 339.766,-216.968 313.654,-247.661 345,-276 346.936,-277.751 348.99,-279.379 351.137,-280.893"/>
<polygon fill="midnightblue" stroke="midnightblue" points="349.465,-283.974 359.826,-286.189 353.108,-277.996 349.465,-283.974"/>
</g>
<!-- Node38 -->
<g id="node8" class="node"><title>Node38</title>
<g id="a_node8"><a xlink:href="classopenage_1_1input_1_1_action_manager.xhtml#a743f9d44332f84adb3eca195732ed09d" target="_top" xlink:title=" ">
<polygon fill="white" stroke="black" points="345,-247.5 345,-266.5 516,-266.5 516,-247.5 345,-247.5"/>
<text text-anchor="middle" x="430.5" y="-254.5" font-family="Helvetica,sans-Serif" font-size="10.00">openage::input::ActionManager::get</text>
</a>
</g>
</g>
<!-- Node33&#45;&gt;Node38 -->
<g id="edge8" class="edge"><title>Node33&#45;&gt;Node38</title>
<path fill="none" stroke="midnightblue" d="M294.062,-179.151C299.345,-181.683 304.428,-184.614 309,-188 331.005,-204.297 322.155,-222.903 345,-238 348.132,-240.07 351.457,-241.917 354.908,-243.565"/>
<polygon fill="midnightblue" stroke="midnightblue" points="353.711,-246.858 364.288,-247.477 356.406,-240.397 353.711,-246.858"/>
</g>
<!-- Node39 -->
<g id="node9" class="node"><title>Node39</title>
<g id="a_node9"><a xlink:href="classopenage_1_1_engine.xhtml#ab6233b0bf461be4bb1633cd9f7e7f08b" target="_top" xlink:title=" ">
<polygon fill="white" stroke="black" points="376,-198 376,-228 485,-228 485,-198 376,-198"/>
<text text-anchor="start" x="384" y="-216" font-family="Helvetica,sans-Serif" font-size="10.00">openage::Engine::get</text>
<text text-anchor="middle" x="430.5" y="-205" font-family="Helvetica,sans-Serif" font-size="10.00">_action_manager</text>
</a>
</g>
</g>
<!-- Node33&#45;&gt;Node39 -->
<g id="edge9" class="edge"><title>Node33&#45;&gt;Node39</title>
<path fill="none" stroke="midnightblue" d="M297.104,-179.035C318.979,-184.646 343.906,-191.041 366.186,-196.757"/>
<polygon fill="midnightblue" stroke="midnightblue" points="365.328,-200.15 375.884,-199.245 367.068,-193.37 365.328,-200.15"/>
</g>
<!-- Node40 -->
<g id="node10" class="node"><title>Node40</title>
<g id="a_node10"><a xlink:href="classopenage_1_1_game_control.xhtml#aed1e983dee9b075a3343b72aed5678bd" target="_top" xlink:title=" ">
<polygon fill="white" stroke="black" points="372.5,-149 372.5,-179 488.5,-179 488.5,-149 372.5,-149"/>
<text text-anchor="start" x="380.5" y="-167" font-family="Helvetica,sans-Serif" font-size="10.00">openage::GameControl</text>
<text text-anchor="middle" x="430.5" y="-156" font-family="Helvetica,sans-Serif" font-size="10.00">::get_engine</text>
</a>
</g>
</g>
<!-- Node33&#45;&gt;Node40 -->
<g id="edge10" class="edge"><title>Node33&#45;&gt;Node40</title>
<path fill="none" stroke="midnightblue" d="M309.079,-164C326.327,-164 344.742,-164 361.85,-164"/>
<polygon fill="midnightblue" stroke="midnightblue" points="362.311,-167.5 372.311,-164 362.311,-160.5 362.311,-167.5"/>
</g>
<!-- Node42 -->
<g id="node12" class="node"><title>Node42</title>
<g id="a_node12"><a xlink:href="classopenage_1_1_engine.xhtml#a248149eac4678d70fe55d6ba5cdc695a" target="_top" xlink:title=" ">
<polygon fill="white" stroke="black" points="376,-100 376,-130 485,-130 485,-100 376,-100"/>
<text text-anchor="start" x="384" y="-118" font-family="Helvetica,sans-Serif" font-size="10.00">openage::Engine::get</text>
<text text-anchor="middle" x="430.5" y="-107" font-family="Helvetica,sans-Serif" font-size="10.00">_input_manager</text>
</a>
</g>
</g>
<!-- Node33&#45;&gt;Node42 -->
<g id="edge12" class="edge"><title>Node33&#45;&gt;Node42</title>
<path fill="none" stroke="midnightblue" d="M297.104,-148.965C318.979,-143.354 343.906,-136.959 366.186,-131.243"/>
<polygon fill="midnightblue" stroke="midnightblue" points="367.068,-134.63 375.884,-128.755 365.328,-127.85 367.068,-134.63"/>
</g>
<!-- Node43 -->
<g id="node13" class="node"><title>Node43</title>
<g id="a_node13"><a xlink:href="classopenage_1_1input_1_1_input_manager.xhtml#a9ccb8754431247dd05c56c445bda15bc" target="_top" xlink:title=" ">
<polygon fill="white" stroke="black" points="358,-51 358,-81 503,-81 503,-51 358,-51"/>
<text text-anchor="start" x="366" y="-69" font-family="Helvetica,sans-Serif" font-size="10.00">openage::input::InputManager</text>
<text text-anchor="middle" x="430.5" y="-58" font-family="Helvetica,sans-Serif" font-size="10.00">::get_top_context</text>
</a>
</g>
</g>
<!-- Node33&#45;&gt;Node43 -->
<g id="edge13" class="edge"><title>Node33&#45;&gt;Node43</title>
<path fill="none" stroke="midnightblue" d="M292.221,-148.841C298.157,-146.053 303.892,-142.795 309,-139 330.692,-122.884 322.803,-105.413 345,-90 347.137,-88.5159 349.365,-87.1229 351.662,-85.8157"/>
<polygon fill="midnightblue" stroke="midnightblue" points="353.472,-88.8224 360.817,-81.1863 350.313,-82.5757 353.472,-88.8224"/>
</g>
<!-- Node35 -->
<g id="node5" class="node"><title>Node35</title>
<g id="a_node5"><a xlink:href="classopenage_1_1input_1_1_class_code.xhtml#a5d55c691be6f36279534fbfb91206e11" target="_top" xlink:title=" ">
<polygon fill="white" stroke="black" points="552,-286 552,-316 686,-316 686,-286 552,-286"/>
<text text-anchor="start" x="560" y="-304" font-family="Helvetica,sans-Serif" font-size="10.00">openage::input::ClassCode</text>
<text text-anchor="middle" x="619" y="-293" font-family="Helvetica,sans-Serif" font-size="10.00">::get_classes</text>
</a>
</g>
</g>
<!-- Node34&#45;&gt;Node35 -->
<g id="edge4" class="edge"><title>Node34&#45;&gt;Node35</title>
<path fill="none" stroke="midnightblue" d="M501.211,-301C514.402,-301 528.266,-301 541.65,-301"/>
<polygon fill="midnightblue" stroke="midnightblue" points="541.771,-304.5 551.771,-301 541.771,-297.5 541.771,-304.5"/>
</g>
<!-- Node36 -->
<g id="node6" class="node"><title>Node36</title>
<g id="a_node6"><a xlink:href="namespaceopenage_1_1testing_1_1testing.xhtml#ac25bf81db406af62d08113ef7ae9fd6e" target="_top" xlink:title=" ">
<polygon fill="white" stroke="black" points="722,-291.5 722,-310.5 867,-310.5 867,-291.5 722,-291.5"/>
<text text-anchor="middle" x="794.5" y="-298.5" font-family="Helvetica,sans-Serif" font-size="10.00">openage.testing.testing.result</text>
</a>
</g>
</g>
<!-- Node35&#45;&gt;Node36 -->
<g id="edge5" class="edge"><title>Node35&#45;&gt;Node36</title>
<path fill="none" stroke="midnightblue" d="M686.088,-301C694.485,-301 703.157,-301 711.762,-301"/>
<polygon fill="midnightblue" stroke="midnightblue" points="711.814,-304.5 721.814,-301 711.814,-297.5 711.814,-304.5"/>
</g>
<!-- Node37 -->
<g id="node7" class="node"><title>Node37</title>
<g id="a_node7"><a xlink:href="namespaceopenage_1_1util.xhtml#a7bc4421a5f0f57f3a0aba3f96eb8d19c" target="_top" xlink:title=" ">
<polygon fill="white" stroke="black" points="903,-291.5 903,-310.5 998,-310.5 998,-291.5 903,-291.5"/>
<text text-anchor="middle" x="950.5" y="-298.5" font-family="Helvetica,sans-Serif" font-size="10.00">openage::util::repr</text>
</a>
</g>
</g>
<!-- Node36&#45;&gt;Node37 -->
<g id="edge6" class="edge"><title>Node36&#45;&gt;Node37</title>
<path fill="none" stroke="midnightblue" d="M867.09,-294.265C875.595,-294.218 884.189,-294.282 892.453,-294.456"/>
<polygon fill="midnightblue" stroke="midnightblue" points="892.622,-297.961 902.713,-294.735 892.812,-290.964 892.622,-297.961"/>
</g>
<!-- Node37&#45;&gt;Node36 -->
<g id="edge7" class="edge"><title>Node37&#45;&gt;Node36</title>
<path fill="none" stroke="midnightblue" d="M902.713,-307.265C894.626,-307.538 886.01,-307.696 877.312,-307.738"/>
<polygon fill="midnightblue" stroke="midnightblue" points="877.091,-304.238 867.09,-307.735 877.089,-311.238 877.091,-304.238"/>
</g>
<!-- Node41 -->
<g id="node11" class="node"><title>Node41</title>
<g id="a_node11"><a xlink:href="namespaceopenage_1_1log.xhtml#a325b0901ddb3f2af36f93781b7dd9744" target="_top" xlink:title="error message">
<polygon fill="white" stroke="black" points="577.5,-154.5 577.5,-173.5 660.5,-173.5 660.5,-154.5 577.5,-154.5"/>
<text text-anchor="middle" x="619" y="-161.5" font-family="Helvetica,sans-Serif" font-size="10.00">openage.log.err</text>
</a>
</g>
</g>
<!-- Node40&#45;&gt;Node41 -->
<g id="edge11" class="edge"><title>Node40&#45;&gt;Node41</title>
<path fill="none" stroke="midnightblue" d="M488.724,-164C513.833,-164 543.06,-164 567.366,-164"/>
<polygon fill="midnightblue" stroke="midnightblue" points="567.455,-167.5 577.455,-164 567.455,-160.5 567.455,-167.5"/>
</g>
<!-- Node46 -->
<g id="node16" class="node"><title>Node46</title>
<g id="a_node16"><a xlink:href="namespaceopenage_1_1log.xhtml#a7ca418e1b1fcf210ff91cd25dc8e6a36" target="_top" xlink:title="warning message">
<polygon fill="white" stroke="black" points="384.5,-12.5 384.5,-31.5 476.5,-31.5 476.5,-12.5 384.5,-12.5"/>
<text text-anchor="middle" x="430.5" y="-19.5" font-family="Helvetica,sans-Serif" font-size="10.00">openage.log.warn</text>
</a>
</g>
</g>
<!-- Node45&#45;&gt;Node46 -->
<g id="edge16" class="edge"><title>Node45&#45;&gt;Node46</title>
<path fill="none" stroke="midnightblue" d="M309.079,-42.1753C330.624,-38.5656 353.989,-34.6511 374.354,-31.2392"/>
<polygon fill="midnightblue" stroke="midnightblue" points="375.111,-34.6611 384.395,-29.5568 373.954,-27.7574 375.111,-34.6611"/>
</g>
</g>
</svg>
