<?xml version="1.0" encoding="UTF-8" standalone="no"?>
<!DOCTYPE svg PUBLIC "-//W3C//DTD SVG 1.1//EN"
 "http://www.w3.org/Graphics/SVG/1.1/DTD/svg11.dtd">
<!-- Generated by graphviz version 2.38.0 (20140413.2041)
 -->
<!-- Title: openage::curve::CurveIterator::valid Pages: 1 -->
<svg width="347pt" height="39pt"
 viewBox="0.00 0.00 347.00 39.00" xmlns="http://www.w3.org/2000/svg" xmlns:xlink="http://www.w3.org/1999/xlink">
<g id="graph0" class="graph" transform="scale(1 1) rotate(0) translate(4 35)">
<title>openage::curve::CurveIterator::valid</title>
<polygon fill="white" stroke="none" points="-4,4 -4,-35 343,-35 343,4 -4,4"/>
<!-- Node27 -->
<g id="node1" class="node"><title>Node27</title>
<g id="a_node1"><a xlink:title=" ">
<polygon fill="#bfbfbf" stroke="black" points="197,-0.5 197,-30.5 339,-30.5 339,-0.5 197,-0.5"/>
<text text-anchor="start" x="205" y="-18.5" font-family="Helvetica,sans-Serif" font-size="10.00">openage::curve::CurveIterator</text>
<text text-anchor="middle" x="268" y="-7.5" font-family="Helvetica,sans-Serif" font-size="10.00">::valid</text>
</a>
</g>
</g>
<!-- Node28 -->
<g id="node2" class="node"><title>Node28</title>
<g id="a_node2"><a xlink:href="classopenage_1_1curve_1_1_curve_iterator.xhtml#ab14912b85502c78be50c1f1153910a04" target="_top" xlink:title=" ">
<polygon fill="white" stroke="black" points="0,-0.5 0,-30.5 161,-30.5 161,-0.5 0,-0.5"/>
<text text-anchor="start" x="8" y="-18.5" font-family="Helvetica,sans-Serif" font-size="10.00">openage::curve::CurveIterator</text>
<text text-anchor="middle" x="80.5" y="-7.5" font-family="Helvetica,sans-Serif" font-size="10.00">&lt; val_t, container_t &gt;::operator++</text>
</a>
</g>
</g>
<!-- Node27&#45;&gt;Node28 -->
<g id="edge1" class="edge"><title>Node27&#45;&gt;Node28</title>
<path fill="none" stroke="midnightblue" d="M186.619,-15.5C178.142,-15.5 169.524,-15.5 161.056,-15.5"/>
<polygon fill="midnightblue" stroke="midnightblue" points="186.87,-19.0001 196.87,-15.5 186.87,-12.0001 186.87,-19.0001"/>
</g>
</g>
</svg>
