<?xml version="1.0" encoding="UTF-8" standalone="no"?>
<!DOCTYPE svg PUBLIC "-//W3C//DTD SVG 1.1//EN"
 "http://www.w3.org/Graphics/SVG/1.1/DTD/svg11.dtd">
<!-- Generated by graphviz version 2.38.0 (20140413.2041)
 -->
<!-- Title: openage::datastructure::ConstMap::get Pages: 1 -->
<!--zoomable 111 -->
<svg id="main" version="1.1" xmlns="http://www.w3.org/2000/svg" xmlns:xlink="http://www.w3.org/1999/xlink" xml:space="preserve" onload="init(evt)">
<style type="text/css"><![CDATA[
.edge:hover path { stroke: red; }
.edge:hover polygon { stroke: red; fill: red; }
]]></style>
<script type="text/javascript"><![CDATA[
var edges = document.getElementsByTagName('g');
if (edges && edges.length) {
  for (var i=0;i<edges.length;i++) {
    if (edges[i].id.substr(0,4)=='edge') {
      edges[i].setAttribute('class','edge');
    }
  }
}
]]></script>
        <defs>
                <circle id="rim" cx="0" cy="0" r="7"/>
                <circle id="rim2" cx="0" cy="0" r="3.5"/>
                <g id="zoomPlus">
                        <use xlink:href="#rim" fill="#404040">
                                <set attributeName="fill" to="#808080" begin="zoomplus.mouseover" end="zoomplus.mouseout"/>
                        </use>
                        <path d="M-4,0h8M0,-4v8" fill="none" stroke="white" stroke-width="1.5" pointer-events="none"/>
                </g>
                <g id="zoomMin">
                        <use xlink:href="#rim" fill="#404040">
                                <set attributeName="fill" to="#808080" begin="zoomminus.mouseover" end="zoomminus.mouseout"/>
                        </use>
                        <path d="M-4,0h8" fill="none" stroke="white" stroke-width="1.5" pointer-events="none"/>
                </g>
                <g id="dirArrow">
                        <path fill="none" stroke="white" stroke-width="1.5" d="M0,-3.0v7 M-2.5,-0.5L0,-3.0L2.5,-0.5"/>
                </g>
               <g id="resetDef">
                       <use xlink:href="#rim2" fill="#404040">
                               <set attributeName="fill" to="#808080" begin="reset.mouseover" end="reset.mouseout"/>
                       </use>
               </g>
        </defs>

<script type="text/javascript">
var viewWidth = 599;
var viewHeight = 111;
var sectionId = 'dynsection-5';
</script>
<script xlink:href="svgpan.js"/>
<svg id="graph" class="graph">
<g id="viewport">
<title>openage::datastructure::ConstMap::get</title>
<polygon fill="white" stroke="none" points="-4,4 -4,-106.5 595,-106.5 595,4 -4,4"/>
<!-- Node21 -->
<g id="node1" class="node"><title>Node21</title>
<g id="a_node1"><a xlink:title="Return the stored value for the given key.">
<polygon fill="#bfbfbf" stroke="black" points="0,-44 0,-74 116,-74 116,-44 0,-44"/>
<text text-anchor="start" x="8" y="-62" font-family="Helvetica,sans-Serif" font-size="10.00">openage::datastructure</text>
<text text-anchor="middle" x="58" y="-51" font-family="Helvetica,sans-Serif" font-size="10.00">::ConstMap::get</text>
</a>
</g>
</g>
<!-- Node22 -->
<g id="node2" class="node"><title>Node22</title>
<g id="a_node2"><a xlink:href="classopenage_1_1datastructure_1_1_const_map.xhtml#a31591e877042691c20fc2ac1d6101a3c" target="_top" xlink:title="Returns the value matching key from this or following elements.">
<polygon fill="white" stroke="black" points="152,-72 152,-102 268,-102 268,-72 152,-72"/>
<text text-anchor="start" x="160" y="-90" font-family="Helvetica,sans-Serif" font-size="10.00">openage::datastructure</text>
<text text-anchor="middle" x="210" y="-79" font-family="Helvetica,sans-Serif" font-size="10.00">::ConstMap::fetch</text>
</a>
</g>
</g>
<!-- Node21&#45;&gt;Node22 -->
<g id="edge1" class="edge"><title>Node21&#45;&gt;Node22</title>
<path fill="none" stroke="midnightblue" d="M116.136,-69.6655C124.468,-71.2206 133.111,-72.834 141.622,-74.4227"/>
<polygon fill="midnightblue" stroke="midnightblue" points="141.053,-77.8769 151.525,-76.2714 142.338,-70.9958 141.053,-77.8769"/>
</g>
<!-- Node23 -->
<g id="node3" class="node"><title>Node23</title>
<g id="a_node3"><a xlink:href="classopenage_1_1datastructure_1_1_const_map.xhtml#a377a571e8a6eef221c6afd80c41f4ff0" target="_top" xlink:title="Abort when the map uses the same key more than once.">
<polygon fill="white" stroke="black" points="152,-11.5 152,-52.5 268,-52.5 268,-11.5 152,-11.5"/>
<text text-anchor="start" x="160" y="-40.5" font-family="Helvetica,sans-Serif" font-size="10.00">openage::datastructure</text>
<text text-anchor="start" x="160" y="-29.5" font-family="Helvetica,sans-Serif" font-size="10.00">::ConstMap::verify_no</text>
<text text-anchor="middle" x="210" y="-18.5" font-family="Helvetica,sans-Serif" font-size="10.00">_duplicates</text>
</a>
</g>
</g>
<!-- Node21&#45;&gt;Node23 -->
<g id="edge2" class="edge"><title>Node21&#45;&gt;Node23</title>
<path fill="none" stroke="midnightblue" d="M116.136,-48.7154C124.468,-47.2158 133.111,-45.6601 141.622,-44.1281"/>
<polygon fill="midnightblue" stroke="midnightblue" points="142.304,-47.5617 151.525,-42.3454 141.064,-40.6724 142.304,-47.5617"/>
</g>
<!-- Node24 -->
<g id="node4" class="node"><title>Node24</title>
<g id="a_node4"><a xlink:href="classopenage_1_1datastructure_1_1_const_map.xhtml#ade3ec69b783f998f0da241d4bcdec1e1" target="_top" xlink:title="Verifies that this entry&#39;s key is not used in following entries, then continues checking with the nex...">
<polygon fill="white" stroke="black" points="304,-39 304,-69 439,-69 439,-39 304,-39"/>
<text text-anchor="start" x="312" y="-57" font-family="Helvetica,sans-Serif" font-size="10.00">openage::datastructure</text>
<text text-anchor="middle" x="371.5" y="-46" font-family="Helvetica,sans-Serif" font-size="10.00">::ConstMap::all_are_unique</text>
</a>
</g>
</g>
<!-- Node23&#45;&gt;Node24 -->
<g id="edge3" class="edge"><title>Node23&#45;&gt;Node24</title>
<path fill="none" stroke="midnightblue" d="M268.133,-39.8804C276.485,-41.0324 285.198,-42.2342 293.862,-43.4292"/>
<polygon fill="midnightblue" stroke="midnightblue" points="293.601,-46.9263 303.986,-44.8256 294.558,-39.992 293.601,-46.9263"/>
</g>
<!-- Node26 -->
<g id="node6" class="node"><title>Node26</title>
<g id="a_node6"><a xlink:href="namespaceopenage_1_1log.xhtml#a325b0901ddb3f2af36f93781b7dd9744" target="_top" xlink:title="error message">
<polygon fill="white" stroke="black" points="330,-0.5 330,-19.5 413,-19.5 413,-0.5 330,-0.5"/>
<text text-anchor="middle" x="371.5" y="-7.5" font-family="Helvetica,sans-Serif" font-size="10.00">openage.log.err</text>
</a>
</g>
</g>
<!-- Node23&#45;&gt;Node26 -->
<g id="edge5" class="edge"><title>Node23&#45;&gt;Node26</title>
<path fill="none" stroke="midnightblue" d="M268.133,-24.1196C285.01,-21.7917 303.361,-19.2605 319.804,-16.9926"/>
<polygon fill="midnightblue" stroke="midnightblue" points="320.336,-20.4523 329.764,-15.6187 319.38,-13.518 320.336,-20.4523"/>
</g>
<!-- Node25 -->
<g id="node5" class="node"><title>Node25</title>
<g id="a_node5"><a xlink:href="classopenage_1_1datastructure_1_1_const_map.xhtml#a27798ebcadd576dcbf80e83173a84983" target="_top" xlink:title="Test if the key of this entry is not used in following entries.">
<polygon fill="white" stroke="black" points="475,-39 475,-69 591,-69 591,-39 475,-39"/>
<text text-anchor="start" x="483" y="-57" font-family="Helvetica,sans-Serif" font-size="10.00">openage::datastructure</text>
<text text-anchor="middle" x="533" y="-46" font-family="Helvetica,sans-Serif" font-size="10.00">::ConstMap::is_unique</text>
</a>
</g>
</g>
<!-- Node24&#45;&gt;Node25 -->
<g id="edge4" class="edge"><title>Node24&#45;&gt;Node25</title>
<path fill="none" stroke="midnightblue" d="M439.218,-54C447.593,-54 456.166,-54 464.552,-54"/>
<polygon fill="midnightblue" stroke="midnightblue" points="464.663,-57.5001 474.663,-54 464.663,-50.5001 464.663,-57.5001"/>
</g>
</g>
</svg>
        <g id="navigator" transform="translate(0 0)" fill="#404254">
                <rect fill="#f2f5e9" fill-opacity="0.5" stroke="#606060" stroke-width=".5" x="0" y="0" width="60" height="60"/>
                <use id="zoomplus" xlink:href="#zoomPlus" x="17" y="9" onmousedown="handleZoom(evt,'in')"/>
                <use id="zoomminus" xlink:href="#zoomMin" x="42" y="9" onmousedown="handleZoom(evt,'out')"/>
                <use id="reset" xlink:href="#resetDef" x="30" y="36" onmousedown="handleReset()"/>
                <g id="arrowUp" xlink:href="#dirArrow" transform="translate(30 24)" onmousedown="handlePan(0,-1)">
                  <use xlink:href="#rim" fill="#404040">
                        <set attributeName="fill" to="#808080" begin="arrowUp.mouseover" end="arrowUp.mouseout"/>
                  </use>
                  <path fill="none" stroke="white" stroke-width="1.5" d="M0,-3.0v7 M-2.5,-0.5L0,-3.0L2.5,-0.5"/>
                </g>
                <g id="arrowRight" xlink:href="#dirArrow" transform="rotate(90) translate(36 -43)" onmousedown="handlePan(1,0)">
                  <use xlink:href="#rim" fill="#404040">
                        <set attributeName="fill" to="#808080" begin="arrowRight.mouseover" end="arrowRight.mouseout"/>
                  </use>
                  <path fill="none" stroke="white" stroke-width="1.5" d="M0,-3.0v7 M-2.5,-0.5L0,-3.0L2.5,-0.5"/>
                </g>
                <g id="arrowDown" xlink:href="#dirArrow" transform="rotate(180) translate(-30 -48)" onmousedown="handlePan(0,1)">
                  <use xlink:href="#rim" fill="#404040">
                        <set attributeName="fill" to="#808080" begin="arrowDown.mouseover" end="arrowDown.mouseout"/>
                  </use>
                  <path fill="none" stroke="white" stroke-width="1.5" d="M0,-3.0v7 M-2.5,-0.5L0,-3.0L2.5,-0.5"/>
                </g>
                <g id="arrowLeft" xlink:href="#dirArrow" transform="rotate(270) translate(-36 17)" onmousedown="handlePan(-1,0)">
                  <use xlink:href="#rim" fill="#404040">
                        <set attributeName="fill" to="#808080" begin="arrowLeft.mouseover" end="arrowLeft.mouseout"/>
                  </use>
                  <path fill="none" stroke="white" stroke-width="1.5" d="M0,-3.0v7 M-2.5,-0.5L0,-3.0L2.5,-0.5"/>
                </g>
        </g>
        <svg viewBox="0 0 15 15" width="100%" height="30px" preserveAspectRatio="xMaxYMin meet">
         <g id="arrow_out" transform="scale(0.3 0.3)">
          <a xlink:href="classopenage_1_1datastructure_1_1_const_map_ab6ec9131d56e40ca60eb7d6a62d28fff_cgraph_org.svg" target="_base">
           <rect id="button" ry="5" rx="5" y="6" x="6" height="38" width="38"
                fill="#f2f5e9" fill-opacity="0.5" stroke="#606060" stroke-width="1.0"/>
           <path id="arrow"
             d="M 11.500037,31.436501 C 11.940474,20.09759 22.043105,11.32322 32.158766,21.979434 L 37.068811,17.246167 C 37.068811,17.246167 37.088388,32 37.088388,32 L 22.160133,31.978069 C 22.160133,31.978069 26.997745,27.140456 26.997745,27.140456 C 18.528582,18.264221 13.291696,25.230495 11.500037,31.436501 z"
             style="fill:#404040;"/>
          </a>
         </g>
        </svg>
</svg>
