<?xml version="1.0" encoding="UTF-8" standalone="no"?>
<!DOCTYPE svg PUBLIC "-//W3C//DTD SVG 1.1//EN"
 "http://www.w3.org/Graphics/SVG/1.1/DTD/svg11.dtd">
<!-- Generated by graphviz version 2.38.0 (20140413.2041)
 -->
<!-- Title: openage::util::compress::LZXDecompressor::decompress_next_frame Pages: 1 -->
<svg width="738pt" height="549pt"
 viewBox="0.00 0.00 738.00 548.50" xmlns="http://www.w3.org/2000/svg" xmlns:xlink="http://www.w3.org/1999/xlink">
<g id="graph0" class="graph" transform="scale(1 1) rotate(0) translate(4 544.5)">
<title>openage::util::compress::LZXDecompressor::decompress_next_frame</title>
<polygon fill="white" stroke="none" points="-4,4 -4,-544.5 734,-544.5 734,4 -4,4"/>
<!-- Node8 -->
<g id="node1" class="node"><title>Node8</title>
<g id="a_node1"><a xlink:title="Decompresses a single 32&#45;KiB frame.">
<polygon fill="#bfbfbf" stroke="black" points="0,-283 0,-324 161,-324 161,-283 0,-283"/>
<text text-anchor="start" x="8" y="-312" font-family="Helvetica,sans-Serif" font-size="10.00">openage::util::compress</text>
<text text-anchor="start" x="8" y="-301" font-family="Helvetica,sans-Serif" font-size="10.00">::LZXDecompressor::decompress</text>
<text text-anchor="middle" x="80.5" y="-290" font-family="Helvetica,sans-Serif" font-size="10.00">_next_frame</text>
</a>
</g>
</g>
<!-- Node9 -->
<g id="node2" class="node"><title>Node9</title>
<g id="a_node2"><a xlink:href="classopenage_1_1util_1_1compress_1_1_l_z_x_d_stream.xhtml#a12047565515e79d8fa7ae56c1459a724" target="_top" xlink:title="See the doc for LZXDecompressor::decompress_next_frame in lzxd.h.">
<polygon fill="white" stroke="black" points="197,-283 197,-324 333,-324 333,-283 197,-283"/>
<text text-anchor="start" x="205" y="-312" font-family="Helvetica,sans-Serif" font-size="10.00">openage::util::compress</text>
<text text-anchor="start" x="205" y="-301" font-family="Helvetica,sans-Serif" font-size="10.00">::LZXDStream::decompress</text>
<text text-anchor="middle" x="265" y="-290" font-family="Helvetica,sans-Serif" font-size="10.00">_next_frame</text>
</a>
</g>
</g>
<!-- Node8&#45;&gt;Node9 -->
<g id="edge1" class="edge"><title>Node8&#45;&gt;Node9</title>
<path fill="none" stroke="midnightblue" d="M161.016,-303.5C169.484,-303.5 178.089,-303.5 186.533,-303.5"/>
<polygon fill="midnightblue" stroke="midnightblue" points="186.732,-307 196.732,-303.5 186.732,-300 186.732,-307"/>
</g>
<!-- Node10 -->
<g id="node3" class="node"><title>Node10</title>
<g id="a_node3"><a xlink:href="namespaceopenage_1_1log.xhtml#a325b0901ddb3f2af36f93781b7dd9744" target="_top" xlink:title="error message">
<polygon fill="white" stroke="black" points="601.5,-466 601.5,-485 684.5,-485 684.5,-466 601.5,-466"/>
<text text-anchor="middle" x="643" y="-473" font-family="Helvetica,sans-Serif" font-size="10.00">openage.log.err</text>
</a>
</g>
</g>
<!-- Node9&#45;&gt;Node10 -->
<g id="edge2" class="edge"><title>Node9&#45;&gt;Node10</title>
<path fill="none" stroke="midnightblue" d="M273.592,-324.097C287.077,-357.405 318.622,-422.304 369,-451.5 437.93,-491.448 533.485,-489.405 591.345,-483.211"/>
<polygon fill="midnightblue" stroke="midnightblue" points="591.811,-486.681 601.345,-482.059 591.01,-479.727 591.811,-486.681"/>
</g>
<!-- Node11 -->
<g id="node4" class="node"><title>Node11</title>
<g id="a_node4"><a xlink:href="classopenage_1_1util_1_1compress_1_1_l_z_x_d_stream.xhtml#a21cc21ce03f6a6aa488e48661666bdd7" target="_top" xlink:title=" ">
<polygon fill="white" stroke="black" points="379,-264.5 379,-294.5 510,-294.5 510,-264.5 379,-264.5"/>
<text text-anchor="start" x="387" y="-282.5" font-family="Helvetica,sans-Serif" font-size="10.00">openage::util::compress</text>
<text text-anchor="middle" x="444.5" y="-271.5" font-family="Helvetica,sans-Serif" font-size="10.00">::LZXDStream::reset_state</text>
</a>
</g>
</g>
<!-- Node9&#45;&gt;Node11 -->
<g id="edge3" class="edge"><title>Node9&#45;&gt;Node11</title>
<path fill="none" stroke="midnightblue" d="M333.105,-294.427C344.84,-292.84 357.112,-291.181 369.032,-289.569"/>
<polygon fill="midnightblue" stroke="midnightblue" points="369.501,-293.037 378.942,-288.229 368.563,-286.101 369.501,-293.037"/>
</g>
<!-- Node12 -->
<g id="node5" class="node"><title>Node12</title>
<g id="a_node5"><a xlink:href="classopenage_1_1util_1_1compress_1_1_bit_stream.xhtml#af4522bbae0ee989e1f5b45606fb2e673" target="_top" xlink:title="for use in bitstream mode.">
<polygon fill="white" stroke="black" points="582.5,-416.5 582.5,-446.5 703.5,-446.5 703.5,-416.5 582.5,-416.5"/>
<text text-anchor="start" x="590.5" y="-434.5" font-family="Helvetica,sans-Serif" font-size="10.00">openage::util::compress</text>
<text text-anchor="middle" x="643" y="-423.5" font-family="Helvetica,sans-Serif" font-size="10.00">::BitStream::read_bits</text>
</a>
</g>
</g>
<!-- Node9&#45;&gt;Node12 -->
<g id="edge4" class="edge"><title>Node9&#45;&gt;Node12</title>
<path fill="none" stroke="midnightblue" d="M303.826,-324.178C322.955,-334.033 346.774,-345.406 369,-353.5 434.026,-377.18 454.584,-368.919 520,-391.5 536.551,-397.213 539.524,-401.575 556,-407.5 561.607,-409.516 567.469,-411.468 573.383,-413.329"/>
<polygon fill="midnightblue" stroke="midnightblue" points="572.763,-416.799 583.349,-416.371 574.806,-410.104 572.763,-416.799"/>
</g>
<!-- Node13 -->
<g id="node6" class="node"><title>Node13</title>
<g id="a_node6"><a xlink:href="classopenage_1_1util_1_1compress_1_1_l_z_x_d_stream.xhtml#af98ef8408ba92de4f9e28010c3b2d6c8" target="_top" xlink:title="Initializes the next block.">
<polygon fill="white" stroke="black" points="370.5,-313.5 370.5,-343.5 518.5,-343.5 518.5,-313.5 370.5,-313.5"/>
<text text-anchor="start" x="378.5" y="-331.5" font-family="Helvetica,sans-Serif" font-size="10.00">openage::util::compress</text>
<text text-anchor="middle" x="444.5" y="-320.5" font-family="Helvetica,sans-Serif" font-size="10.00">::LZXDStream::init_next_block</text>
</a>
</g>
</g>
<!-- Node9&#45;&gt;Node13 -->
<g id="edge5" class="edge"><title>Node9&#45;&gt;Node13</title>
<path fill="none" stroke="midnightblue" d="M333.105,-312.951C341.95,-314.197 351.1,-315.486 360.175,-316.764"/>
<polygon fill="midnightblue" stroke="midnightblue" points="359.977,-320.271 370.367,-318.2 360.953,-313.339 359.977,-320.271"/>
</g>
<!-- Node19 -->
<g id="node12" class="node"><title>Node19</title>
<g id="a_node12"><a xlink:href="classopenage_1_1util_1_1compress_1_1_l_z_x_d_stream.xhtml#a2830bc244fc83678fc56f6e44c057e7c" target="_top" xlink:title="Decodes one symbol from the current verbatim block.">
<polygon fill="white" stroke="black" points="369,-499 369,-540 520,-540 520,-499 369,-499"/>
<text text-anchor="start" x="377" y="-528" font-family="Helvetica,sans-Serif" font-size="10.00">openage::util::compress</text>
<text text-anchor="start" x="377" y="-517" font-family="Helvetica,sans-Serif" font-size="10.00">::LZXDStream::decode_symbol</text>
<text text-anchor="middle" x="444.5" y="-506" font-family="Helvetica,sans-Serif" font-size="10.00">_from_verbatim_block</text>
</a>
</g>
</g>
<!-- Node9&#45;&gt;Node19 -->
<g id="edge13" class="edge"><title>Node9&#45;&gt;Node19</title>
<path fill="none" stroke="midnightblue" d="M272.951,-324.088C286.257,-360.749 318.564,-437.86 369,-484.5 372.551,-487.784 376.465,-490.811 380.584,-493.592"/>
<polygon fill="midnightblue" stroke="midnightblue" points="378.929,-496.683 389.277,-498.958 382.606,-490.727 378.929,-496.683"/>
</g>
<!-- Node21 -->
<g id="node14" class="node"><title>Node21</title>
<g id="a_node14"><a xlink:href="classopenage_1_1util_1_1compress_1_1_l_z_x_d_stream.xhtml#a0ced870a816503c5ae2c42756dc0adb2" target="_top" xlink:title="Decodes one symbol from the current aligned block.">
<polygon fill="white" stroke="black" points="369,-401 369,-442 520,-442 520,-401 369,-401"/>
<text text-anchor="start" x="377" y="-430" font-family="Helvetica,sans-Serif" font-size="10.00">openage::util::compress</text>
<text text-anchor="start" x="377" y="-419" font-family="Helvetica,sans-Serif" font-size="10.00">::LZXDStream::decode_symbol</text>
<text text-anchor="middle" x="444.5" y="-408" font-family="Helvetica,sans-Serif" font-size="10.00">_from_aligned_block</text>
</a>
</g>
</g>
<!-- Node9&#45;&gt;Node21 -->
<g id="edge17" class="edge"><title>Node9&#45;&gt;Node21</title>
<path fill="none" stroke="midnightblue" d="M288.531,-324.303C308.64,-342.204 339.401,-367.995 369,-386.5 374.407,-389.881 380.193,-393.146 386.061,-396.234"/>
<polygon fill="midnightblue" stroke="midnightblue" points="384.807,-399.522 395.308,-400.931 387.977,-393.282 384.807,-399.522"/>
</g>
<!-- Node22 -->
<g id="node15" class="node"><title>Node22</title>
<g id="a_node15"><a xlink:href="classopenage_1_1util_1_1compress_1_1_l_z_x_d_stream.xhtml#af408bfffcc2e2e086066e13e1f6b96b7" target="_top" xlink:title="Reads the given amount of bytes from the current uncompressed block.">
<polygon fill="white" stroke="black" points="375.5,-204 375.5,-245 513.5,-245 513.5,-204 375.5,-204"/>
<text text-anchor="start" x="383.5" y="-233" font-family="Helvetica,sans-Serif" font-size="10.00">openage::util::compress</text>
<text text-anchor="start" x="383.5" y="-222" font-family="Helvetica,sans-Serif" font-size="10.00">::LZXDStream::read_data</text>
<text text-anchor="middle" x="444.5" y="-211" font-family="Helvetica,sans-Serif" font-size="10.00">_from_uncompressed_block</text>
</a>
</g>
</g>
<!-- Node9&#45;&gt;Node22 -->
<g id="edge21" class="edge"><title>Node9&#45;&gt;Node22</title>
<path fill="none" stroke="midnightblue" d="M309.167,-282.894C327.531,-274.255 349.233,-264.214 369,-255.5 373.765,-253.399 378.717,-251.255 383.701,-249.125"/>
<polygon fill="midnightblue" stroke="midnightblue" points="385.446,-252.186 393.285,-245.058 382.712,-245.742 385.446,-252.186"/>
</g>
<!-- Node24 -->
<g id="node17" class="node"><title>Node24</title>
<g id="a_node17"><a xlink:href="namespacestd.xhtml#a34591a1d8ee5da3f16f56554590d5e16" target="_top" xlink:title=" ">
<polygon fill="white" stroke="black" points="418.5,-166 418.5,-185 470.5,-185 470.5,-166 418.5,-166"/>
<text text-anchor="middle" x="444.5" y="-173" font-family="Helvetica,sans-Serif" font-size="10.00">std::min</text>
</a>
</g>
</g>
<!-- Node9&#45;&gt;Node24 -->
<g id="edge23" class="edge"><title>Node9&#45;&gt;Node24</title>
<path fill="none" stroke="midnightblue" d="M279.833,-282.895C297.56,-258.123 330.625,-217.072 369,-194.5 380.893,-187.505 395.328,-183.061 408.313,-180.248"/>
<polygon fill="midnightblue" stroke="midnightblue" points="409.178,-183.646 418.34,-178.325 407.859,-176.772 409.178,-183.646"/>
</g>
<!-- Node27 -->
<g id="node20" class="node"><title>Node27</title>
<g id="a_node20"><a xlink:href="classopenage_1_1util_1_1compress_1_1_l_z_x_d_stream.xhtml#ae957302fdbdcb4e99f5264bfc8da3e42" target="_top" xlink:title="Postprocesses the a frame&#39;s decoded data with E8 decoding.">
<polygon fill="white" stroke="black" points="376.5,-106 376.5,-147 512.5,-147 512.5,-106 376.5,-106"/>
<text text-anchor="start" x="384.5" y="-135" font-family="Helvetica,sans-Serif" font-size="10.00">openage::util::compress</text>
<text text-anchor="start" x="384.5" y="-124" font-family="Helvetica,sans-Serif" font-size="10.00">::LZXDStream::postprocess</text>
<text text-anchor="middle" x="444.5" y="-113" font-family="Helvetica,sans-Serif" font-size="10.00">_intel_e8</text>
</a>
</g>
</g>
<!-- Node9&#45;&gt;Node27 -->
<g id="edge26" class="edge"><title>Node9&#45;&gt;Node27</title>
<path fill="none" stroke="midnightblue" d="M275.583,-282.853C291.082,-251.518 324.466,-191.87 369,-156.5 370.774,-155.091 372.623,-153.74 374.531,-152.445"/>
<polygon fill="midnightblue" stroke="midnightblue" points="376.518,-155.332 383.216,-147.123 372.861,-149.364 376.518,-155.332"/>
</g>
<!-- Node28 -->
<g id="node21" class="node"><title>Node28</title>
<g id="a_node21"><a xlink:href="classopenage_1_1util_1_1compress_1_1_bit_stream.xhtml#a7a9740c842e2425f54ddfc168c0df8bb" target="_top" xlink:title="Aligns the bitstream &#45; that is, if we&#39;re currenlty in bitstream mode.">
<polygon fill="white" stroke="black" points="384,-46 384,-87 505,-87 505,-46 384,-46"/>
<text text-anchor="start" x="392" y="-75" font-family="Helvetica,sans-Serif" font-size="10.00">openage::util::compress</text>
<text text-anchor="start" x="392" y="-64" font-family="Helvetica,sans-Serif" font-size="10.00">::BitStream::align_if</text>
<text text-anchor="middle" x="444.5" y="-53" font-family="Helvetica,sans-Serif" font-size="10.00">_in_bitstream_mode</text>
</a>
</g>
</g>
<!-- Node9&#45;&gt;Node28 -->
<g id="edge27" class="edge"><title>Node9&#45;&gt;Node28</title>
<path fill="none" stroke="midnightblue" d="M270.965,-282.89C281.841,-241.921 311.512,-149.622 369,-96.5 370.927,-94.7198 372.972,-93.0392 375.109,-91.4532"/>
<polygon fill="midnightblue" stroke="midnightblue" points="377.299,-94.2028 383.745,-85.7944 373.462,-88.3479 377.299,-94.2028"/>
</g>
<!-- Node13&#45;&gt;Node10 -->
<g id="edge12" class="edge"><title>Node13&#45;&gt;Node10</title>
<path fill="none" stroke="midnightblue" d="M467.249,-343.545C483.187,-355.314 504.632,-372.777 520,-391.5 540.952,-417.026 529.536,-436.746 556,-456.5 566.249,-464.15 578.981,-468.83 591.479,-471.663"/>
<polygon fill="midnightblue" stroke="midnightblue" points="590.922,-475.119 601.401,-473.561 592.237,-468.244 590.922,-475.119"/>
</g>
<!-- Node13&#45;&gt;Node12 -->
<g id="edge7" class="edge"><title>Node13&#45;&gt;Node12</title>
<path fill="none" stroke="midnightblue" d="M494.124,-343.521C503.225,-347.561 512.289,-352.516 520,-358.5 541.349,-375.068 533.768,-392.138 556,-407.5 561.189,-411.085 566.901,-414.137 572.838,-416.735"/>
<polygon fill="midnightblue" stroke="midnightblue" points="571.724,-420.058 582.312,-420.454 574.282,-413.542 571.724,-420.058"/>
</g>
<!-- Node14 -->
<g id="node7" class="node"><title>Node14</title>
<g id="a_node7"><a xlink:href="classopenage_1_1util_1_1compress_1_1_bit_stream.xhtml#a0a33a092ac1b0b664ecf4ced11e1a313" target="_top" xlink:title="Switches to bitstream mode.">
<polygon fill="white" stroke="black" points="582.5,-197 582.5,-238 703.5,-238 703.5,-197 582.5,-197"/>
<text text-anchor="start" x="590.5" y="-226" font-family="Helvetica,sans-Serif" font-size="10.00">openage::util::compress</text>
<text text-anchor="start" x="590.5" y="-215" font-family="Helvetica,sans-Serif" font-size="10.00">::BitStream::switch_to</text>
<text text-anchor="middle" x="643" y="-204" font-family="Helvetica,sans-Serif" font-size="10.00">_bitstream_mode</text>
</a>
</g>
</g>
<!-- Node13&#45;&gt;Node14 -->
<g id="edge6" class="edge"><title>Node13&#45;&gt;Node14</title>
<path fill="none" stroke="midnightblue" d="M505.534,-313.336C510.671,-310.82 515.584,-307.896 520,-304.5 543.455,-286.463 532.858,-266.937 556,-248.5 561.254,-244.314 567.122,-240.665 573.257,-237.489"/>
<polygon fill="midnightblue" stroke="midnightblue" points="574.852,-240.607 582.396,-233.168 571.86,-234.279 574.852,-240.607"/>
</g>
<!-- Node15 -->
<g id="node8" class="node"><title>Node15</title>
<g id="a_node8"><a xlink:href="classopenage_1_1util_1_1compress_1_1_huffman_table.xhtml#a1e2e81d74fd03fd894c4acf72227cc2d" target="_top" xlink:title="calls try_make_decode_table, and, if allow_empty is false, raises an exception on failure.">
<polygon fill="white" stroke="black" points="556,-147.5 556,-177.5 730,-177.5 730,-147.5 556,-147.5"/>
<text text-anchor="start" x="564" y="-165.5" font-family="Helvetica,sans-Serif" font-size="10.00">openage::util::compress</text>
<text text-anchor="middle" x="643" y="-154.5" font-family="Helvetica,sans-Serif" font-size="10.00">::HuffmanTable::make_decode_table</text>
</a>
</g>
</g>
<!-- Node13&#45;&gt;Node15 -->
<g id="edge8" class="edge"><title>Node13&#45;&gt;Node15</title>
<path fill="none" stroke="midnightblue" d="M508.734,-313.291C512.839,-310.793 516.659,-307.885 520,-304.5 558.217,-265.777 517.23,-225.67 556,-187.5 557.454,-186.068 558.985,-184.718 560.582,-183.444"/>
<polygon fill="midnightblue" stroke="midnightblue" points="562.747,-186.204 569.053,-177.69 558.814,-180.413 562.747,-186.204"/>
</g>
<!-- Node16 -->
<g id="node9" class="node"><title>Node16</title>
<g id="a_node9"><a xlink:href="classopenage_1_1util_1_1compress_1_1_huffman_table.xhtml#a281ecfaf32eb7102310771c48034e107" target="_top" xlink:title="reads in code lengths for symbols first to last in the given table.">
<polygon fill="white" stroke="black" points="571.5,-367.5 571.5,-397.5 714.5,-397.5 714.5,-367.5 571.5,-367.5"/>
<text text-anchor="start" x="579.5" y="-385.5" font-family="Helvetica,sans-Serif" font-size="10.00">openage::util::compress</text>
<text text-anchor="middle" x="643" y="-374.5" font-family="Helvetica,sans-Serif" font-size="10.00">::HuffmanTable::read_lengths</text>
</a>
</g>
</g>
<!-- Node13&#45;&gt;Node16 -->
<g id="edge9" class="edge"><title>Node13&#45;&gt;Node16</title>
<path fill="none" stroke="midnightblue" d="M500.236,-343.542C524.196,-350.127 552.484,-357.9 577.462,-364.764"/>
<polygon fill="midnightblue" stroke="midnightblue" points="576.647,-368.17 587.217,-367.445 578.502,-361.42 576.647,-368.17"/>
</g>
<!-- Node17 -->
<g id="node10" class="node"><title>Node17</title>
<g id="a_node10"><a xlink:href="classopenage_1_1util_1_1compress_1_1_bit_stream.xhtml#af9c25fda38455fbfc348a777e109d03e" target="_top" xlink:title="Switches to bytestream mode.">
<polygon fill="white" stroke="black" points="582.5,-307 582.5,-348 703.5,-348 703.5,-307 582.5,-307"/>
<text text-anchor="start" x="590.5" y="-336" font-family="Helvetica,sans-Serif" font-size="10.00">openage::util::compress</text>
<text text-anchor="start" x="590.5" y="-325" font-family="Helvetica,sans-Serif" font-size="10.00">::BitStream::switch_to</text>
<text text-anchor="middle" x="643" y="-314" font-family="Helvetica,sans-Serif" font-size="10.00">_bytestream_mode</text>
</a>
</g>
</g>
<!-- Node13&#45;&gt;Node17 -->
<g id="edge10" class="edge"><title>Node13&#45;&gt;Node17</title>
<path fill="none" stroke="midnightblue" d="M518.669,-328.128C536.183,-328.039 554.835,-327.944 572.192,-327.855"/>
<polygon fill="midnightblue" stroke="midnightblue" points="572.261,-331.355 582.243,-327.804 572.225,-324.355 572.261,-331.355"/>
</g>
<!-- Node18 -->
<g id="node11" class="node"><title>Node18</title>
<g id="a_node11"><a xlink:href="classopenage_1_1util_1_1compress_1_1_bit_stream.xhtml#a80c91d5b7ddc061dd9082827286f0e1e" target="_top" xlink:title="for use in bytestream mode.">
<polygon fill="white" stroke="black" points="574,-257.5 574,-287.5 712,-287.5 712,-257.5 574,-257.5"/>
<text text-anchor="start" x="582" y="-275.5" font-family="Helvetica,sans-Serif" font-size="10.00">openage::util::compress</text>
<text text-anchor="middle" x="643" y="-264.5" font-family="Helvetica,sans-Serif" font-size="10.00">::BitStream::read_4bytes_le</text>
</a>
</g>
</g>
<!-- Node13&#45;&gt;Node18 -->
<g id="edge11" class="edge"><title>Node13&#45;&gt;Node18</title>
<path fill="none" stroke="midnightblue" d="M498.158,-313.493C523.158,-306.368 553.218,-297.802 579.379,-290.346"/>
<polygon fill="midnightblue" stroke="midnightblue" points="580.538,-293.655 589.196,-287.548 578.62,-286.923 580.538,-293.655"/>
</g>
<!-- Node19&#45;&gt;Node10 -->
<g id="edge15" class="edge"><title>Node19&#45;&gt;Node10</title>
<path fill="none" stroke="midnightblue" d="M520.068,-502.803C543.875,-497.472 569.654,-491.7 591.35,-486.841"/>
<polygon fill="midnightblue" stroke="midnightblue" points="592.333,-490.208 601.327,-484.607 590.804,-483.377 592.333,-490.208"/>
</g>
<!-- Node19&#45;&gt;Node12 -->
<g id="edge16" class="edge"><title>Node19&#45;&gt;Node12</title>
<path fill="none" stroke="midnightblue" d="M476.873,-498.964C498.453,-485.51 528.141,-468.296 556,-456.5 561.503,-454.17 567.293,-451.976 573.159,-449.929"/>
<polygon fill="midnightblue" stroke="midnightblue" points="574.685,-453.11 583.065,-446.627 572.472,-446.469 574.685,-453.11"/>
</g>
<!-- Node20 -->
<g id="node13" class="node"><title>Node20</title>
<g id="a_node13"><a xlink:href="classopenage_1_1util_1_1compress_1_1_huffman_table.xhtml#ae6b32648570816ac41436130bd87f3be" target="_top" xlink:title="Decodes the next huffman symbol from the input bitstream, and returns it.">
<polygon fill="white" stroke="black" points="578,-504.5 578,-534.5 708,-534.5 708,-504.5 578,-504.5"/>
<text text-anchor="start" x="586" y="-522.5" font-family="Helvetica,sans-Serif" font-size="10.00">openage::util::compress</text>
<text text-anchor="middle" x="643" y="-511.5" font-family="Helvetica,sans-Serif" font-size="10.00">::HuffmanTable::read_sym</text>
</a>
</g>
</g>
<!-- Node19&#45;&gt;Node20 -->
<g id="edge14" class="edge"><title>Node19&#45;&gt;Node20</title>
<path fill="none" stroke="midnightblue" d="M520.068,-519.5C535.654,-519.5 552.086,-519.5 567.663,-519.5"/>
<polygon fill="midnightblue" stroke="midnightblue" points="567.759,-523 577.759,-519.5 567.759,-516 567.759,-523"/>
</g>
<!-- Node21&#45;&gt;Node10 -->
<g id="edge19" class="edge"><title>Node21&#45;&gt;Node10</title>
<path fill="none" stroke="midnightblue" d="M506.873,-442.011C522.789,-447.034 539.965,-452.198 556,-456.5 567.308,-459.534 579.546,-462.452 591.145,-465.053"/>
<polygon fill="midnightblue" stroke="midnightblue" points="590.615,-468.521 601.134,-467.252 592.12,-461.684 590.615,-468.521"/>
</g>
<!-- Node21&#45;&gt;Node12 -->
<g id="edge20" class="edge"><title>Node21&#45;&gt;Node12</title>
<path fill="none" stroke="midnightblue" d="M520.068,-425.295C537.151,-426.164 555.25,-427.085 572.127,-427.944"/>
<polygon fill="midnightblue" stroke="midnightblue" points="572.292,-431.457 582.457,-428.47 572.648,-424.466 572.292,-431.457"/>
</g>
<!-- Node21&#45;&gt;Node20 -->
<g id="edge18" class="edge"><title>Node21&#45;&gt;Node20</title>
<path fill="none" stroke="midnightblue" d="M471.856,-442.214C493.444,-458.344 525.326,-480.307 556,-494.5 561.027,-496.826 566.321,-498.989 571.709,-500.989"/>
<polygon fill="midnightblue" stroke="midnightblue" points="570.878,-504.406 581.473,-504.413 573.195,-497.801 570.878,-504.406"/>
</g>
<!-- Node23 -->
<g id="node16" class="node"><title>Node23</title>
<g id="a_node16"><a xlink:href="classopenage_1_1util_1_1compress_1_1_bit_stream.xhtml#ac38c2ac02d9fa968f2c3e74a404e4014" target="_top" xlink:title="for use in bytestream mode.">
<polygon fill="white" stroke="black" points="582.5,-98.5 582.5,-128.5 703.5,-128.5 703.5,-98.5 582.5,-98.5"/>
<text text-anchor="start" x="590.5" y="-116.5" font-family="Helvetica,sans-Serif" font-size="10.00">openage::util::compress</text>
<text text-anchor="middle" x="643" y="-105.5" font-family="Helvetica,sans-Serif" font-size="10.00">::BitStream::read_bytes</text>
</a>
</g>
</g>
<!-- Node22&#45;&gt;Node23 -->
<g id="edge22" class="edge"><title>Node22&#45;&gt;Node23</title>
<path fill="none" stroke="midnightblue" d="M506.338,-203.884C511.191,-201.101 515.824,-197.983 520,-194.5 543.01,-175.309 531.964,-155.389 556,-137.5 561.141,-133.674 566.865,-130.457 572.849,-127.754"/>
<polygon fill="midnightblue" stroke="midnightblue" points="574.442,-130.885 582.42,-123.913 571.835,-124.389 574.442,-130.885"/>
</g>
<!-- Node25 -->
<g id="node18" class="node"><title>Node25</title>
<g id="a_node18"><a xlink:href="classopenage_1_1util_1_1_fixed_point.xhtml#aa01c403263c2142c0ce9ce40cde89066" target="_top" xlink:title="Factory function to construct a fixed&#45;point number with a given raw value.">
<polygon fill="white" stroke="black" points="580.5,-0.5 580.5,-30.5 705.5,-30.5 705.5,-0.5 580.5,-0.5"/>
<text text-anchor="start" x="588.5" y="-18.5" font-family="Helvetica,sans-Serif" font-size="10.00">openage::util::FixedPoint</text>
<text text-anchor="middle" x="643" y="-7.5" font-family="Helvetica,sans-Serif" font-size="10.00">::from_raw_value</text>
</a>
</g>
</g>
<!-- Node24&#45;&gt;Node25 -->
<g id="edge24" class="edge"><title>Node24&#45;&gt;Node25</title>
<path fill="none" stroke="midnightblue" d="M470.597,-175.142C486.65,-173.599 506.854,-169.019 520,-156.5 559.398,-118.979 517.026,-77.4605 556,-39.5 560.339,-35.2735 565.358,-31.7781 570.747,-28.8891"/>
<polygon fill="midnightblue" stroke="midnightblue" points="572.492,-31.9388 580.112,-24.5775 569.565,-25.5802 572.492,-31.9388"/>
</g>
<!-- Node26 -->
<g id="node19" class="node"><title>Node26</title>
<g id="a_node19"><a xlink:href="classopenage_1_1util_1_1_fixed_point.xhtml#affe7a3ec44c6f7ac96312875af742f87" target="_top" xlink:title="Converter to retrieve the raw value of the fixed&#45;point number.">
<polygon fill="white" stroke="black" points="580.5,-49.5 580.5,-79.5 705.5,-79.5 705.5,-49.5 580.5,-49.5"/>
<text text-anchor="start" x="588.5" y="-67.5" font-family="Helvetica,sans-Serif" font-size="10.00">openage::util::FixedPoint</text>
<text text-anchor="middle" x="643" y="-56.5" font-family="Helvetica,sans-Serif" font-size="10.00">::get_raw_value</text>
</a>
</g>
</g>
<!-- Node24&#45;&gt;Node26 -->
<g id="edge25" class="edge"><title>Node24&#45;&gt;Node26</title>
<path fill="none" stroke="midnightblue" d="M470.557,-174.205C486.192,-172.25 505.945,-167.562 520,-156.5 546.871,-135.35 529.367,-109.95 556,-88.5 560.563,-84.825 565.653,-81.712 571.016,-79.0751"/>
<polygon fill="midnightblue" stroke="midnightblue" points="572.469,-82.2601 580.252,-75.0719 569.685,-75.8374 572.469,-82.2601"/>
</g>
</g>
</svg>
