<?xml version="1.0" encoding="UTF-8" standalone="no"?>
<!DOCTYPE svg PUBLIC "-//W3C//DTD SVG 1.1//EN"
 "http://www.w3.org/Graphics/SVG/1.1/DTD/svg11.dtd">
<!-- Generated by graphviz version 2.38.0 (20140413.2041)
 -->
<!-- Title: openage::event::EventStore::top Pages: 1 -->
<svg width="629pt" height="39pt"
 viewBox="0.00 0.00 629.00 39.00" xmlns="http://www.w3.org/2000/svg" xmlns:xlink="http://www.w3.org/1999/xlink">
<g id="graph0" class="graph" transform="scale(1 1) rotate(0) translate(4 35)">
<title>openage::event::EventStore::top</title>
<polygon fill="white" stroke="none" points="-4,4 -4,-35 625,-35 625,4 -4,4"/>
<!-- Node49 -->
<g id="node1" class="node"><title>Node49</title>
<g id="a_node1"><a xlink:title=" ">
<polygon fill="#bfbfbf" stroke="black" points="466,-6 466,-25 621,-25 621,-6 466,-6"/>
<text text-anchor="middle" x="543.5" y="-13" font-family="Helvetica,sans-Serif" font-size="10.00">openage::event::EventStore::top</text>
</a>
</g>
</g>
<!-- Node50 -->
<g id="node2" class="node"><title>Node50</title>
<g id="a_node2"><a xlink:href="classopenage_1_1event_1_1_event_queue.xhtml#aec381e61d472643475de6fa50ae7b5d8" target="_top" xlink:title=" ">
<polygon fill="white" stroke="black" points="290,-0.5 290,-30.5 430,-30.5 430,-0.5 290,-0.5"/>
<text text-anchor="start" x="298" y="-18.5" font-family="Helvetica,sans-Serif" font-size="10.00">openage::event::EventQueue</text>
<text text-anchor="middle" x="360" y="-7.5" font-family="Helvetica,sans-Serif" font-size="10.00">::take_event</text>
</a>
</g>
</g>
<!-- Node49&#45;&gt;Node50 -->
<g id="edge1" class="edge"><title>Node49&#45;&gt;Node50</title>
<path fill="none" stroke="midnightblue" d="M455.773,-15.5C447.205,-15.5 438.589,-15.5 430.231,-15.5"/>
<polygon fill="midnightblue" stroke="midnightblue" points="455.791,-19.0001 465.791,-15.5 455.791,-12.0001 455.791,-19.0001"/>
</g>
<!-- Node51 -->
<g id="node3" class="node"><title>Node51</title>
<g id="a_node3"><a xlink:href="classopenage_1_1event_1_1_loop.xhtml#aa73104f71472a83e1afff4f11e0c619f" target="_top" xlink:title=" ">
<polygon fill="white" stroke="black" points="145,-0.5 145,-30.5 254,-30.5 254,-0.5 145,-0.5"/>
<text text-anchor="start" x="153" y="-18.5" font-family="Helvetica,sans-Serif" font-size="10.00">openage::event::Loop</text>
<text text-anchor="middle" x="199.5" y="-7.5" font-family="Helvetica,sans-Serif" font-size="10.00">::execute_events</text>
</a>
</g>
</g>
<!-- Node50&#45;&gt;Node51 -->
<g id="edge2" class="edge"><title>Node50&#45;&gt;Node51</title>
<path fill="none" stroke="midnightblue" d="M279.755,-15.5C271.056,-15.5 262.357,-15.5 254.078,-15.5"/>
<polygon fill="midnightblue" stroke="midnightblue" points="279.941,-19.0001 289.941,-15.5 279.941,-12.0001 279.941,-19.0001"/>
</g>
<!-- Node52 -->
<g id="node4" class="node"><title>Node52</title>
<g id="a_node4"><a xlink:href="classopenage_1_1event_1_1_loop.xhtml#aeba9e515057a87d7fbfddb8585095de6" target="_top" xlink:title=" ">
<polygon fill="white" stroke="black" points="0,-0.5 0,-30.5 109,-30.5 109,-0.5 0,-0.5"/>
<text text-anchor="start" x="8" y="-18.5" font-family="Helvetica,sans-Serif" font-size="10.00">openage::event::Loop</text>
<text text-anchor="middle" x="54.5" y="-7.5" font-family="Helvetica,sans-Serif" font-size="10.00">::reach_time</text>
</a>
</g>
</g>
<!-- Node51&#45;&gt;Node52 -->
<g id="edge3" class="edge"><title>Node51&#45;&gt;Node52</title>
<path fill="none" stroke="midnightblue" d="M134.676,-15.5C126.255,-15.5 117.69,-15.5 109.455,-15.5"/>
<polygon fill="midnightblue" stroke="midnightblue" points="134.845,-19.0001 144.845,-15.5 134.845,-12.0001 134.845,-19.0001"/>
</g>
</g>
</svg>
