<?xml version="1.0" encoding="UTF-8" standalone="no"?>
<!DOCTYPE svg PUBLIC "-//W3C//DTD SVG 1.1//EN"
 "http://www.w3.org/Graphics/SVG/1.1/DTD/svg11.dtd">
<!-- Generated by graphviz version 2.38.0 (20140413.2041)
 -->
<!-- Title: openage::util::Path::open Pages: 1 -->
<svg width="283pt" height="88pt"
 viewBox="0.00 0.00 283.00 88.00" xmlns="http://www.w3.org/2000/svg" xmlns:xlink="http://www.w3.org/1999/xlink">
<g id="graph0" class="graph" transform="scale(1 1) rotate(0) translate(4 84)">
<title>openage::util::Path::open</title>
<polygon fill="white" stroke="none" points="-4,4 -4,-84 279,-84 279,4 -4,4"/>
<!-- Node119 -->
<g id="node1" class="node"><title>Node119</title>
<g id="a_node1"><a xlink:title=" ">
<polygon fill="#bfbfbf" stroke="black" points="177,-24.5 177,-54.5 275,-54.5 275,-24.5 177,-24.5"/>
<text text-anchor="start" x="185" y="-42.5" font-family="Helvetica,sans-Serif" font-size="10.00">openage::util::Path</text>
<text text-anchor="middle" x="226" y="-31.5" font-family="Helvetica,sans-Serif" font-size="10.00">::open</text>
</a>
</g>
</g>
<!-- Node120 -->
<g id="node2" class="node"><title>Node120</title>
<g id="a_node2"><a xlink:href="classopenage_1_1util_1_1_c_s_v_collection.xhtml#aae99478db7d16d650eff5dd34a2194ca" target="_top" xlink:title=" ">
<polygon fill="white" stroke="black" points="0,-49.5 0,-79.5 141,-79.5 141,-49.5 0,-49.5"/>
<text text-anchor="start" x="8" y="-67.5" font-family="Helvetica,sans-Serif" font-size="10.00">openage::util::CSVCollection</text>
<text text-anchor="middle" x="70.5" y="-56.5" font-family="Helvetica,sans-Serif" font-size="10.00">::CSVCollection</text>
</a>
</g>
</g>
<!-- Node119&#45;&gt;Node120 -->
<g id="edge1" class="edge"><title>Node119&#45;&gt;Node120</title>
<path fill="none" stroke="midnightblue" d="M166.803,-48.9784C158.411,-50.3451 149.705,-51.763 141.119,-53.1614"/>
<polygon fill="midnightblue" stroke="midnightblue" points="167.545,-52.4036 176.853,-47.3416 166.42,-45.4946 167.545,-52.4036"/>
</g>
<!-- Node121 -->
<g id="node3" class="node"><title>Node121</title>
<g id="a_node3"><a xlink:href="namespaceopenage_1_1util.xhtml#a16ef0fe69558a29af4a8d568f2b5b518" target="_top" xlink:title=" ">
<polygon fill="white" stroke="black" points="22,-0.5 22,-30.5 119,-30.5 119,-0.5 22,-0.5"/>
<text text-anchor="start" x="30" y="-18.5" font-family="Helvetica,sans-Serif" font-size="10.00">openage::util::read</text>
<text text-anchor="middle" x="70.5" y="-7.5" font-family="Helvetica,sans-Serif" font-size="10.00">_csv_file</text>
</a>
</g>
</g>
<!-- Node119&#45;&gt;Node121 -->
<g id="edge2" class="edge"><title>Node119&#45;&gt;Node121</title>
<path fill="none" stroke="midnightblue" d="M166.73,-30.3893C151.039,-27.9361 134.254,-25.3116 119.213,-22.96"/>
<polygon fill="midnightblue" stroke="midnightblue" points="166.432,-33.8853 176.853,-31.9721 167.514,-26.9693 166.432,-33.8853"/>
</g>
</g>
</svg>
