<?xml version="1.0" encoding="UTF-8" standalone="no"?>
<!DOCTYPE svg PUBLIC "-//W3C//DTD SVG 1.1//EN"
 "http://www.w3.org/Graphics/SVG/1.1/DTD/svg11.dtd">
<!-- Generated by graphviz version 2.38.0 (20140413.2041)
 -->
<!-- Title: openage::UnitSelection::toggle_unit Pages: 1 -->
<svg width="1054pt" height="215pt"
 viewBox="0.00 0.00 1054.00 214.59" xmlns="http://www.w3.org/2000/svg" xmlns:xlink="http://www.w3.org/1999/xlink">
<g id="graph0" class="graph" transform="scale(1 1) rotate(0) translate(4 210.592)">
<title>openage::UnitSelection::toggle_unit</title>
<polygon fill="white" stroke="none" points="-4,4 -4,-210.592 1050,-210.592 1050,4 -4,4"/>
<!-- Node235 -->
<g id="node1" class="node"><title>Node235</title>
<g id="a_node1"><a xlink:title=" ">
<polygon fill="#bfbfbf" stroke="black" points="0,-69.0922 0,-99.0922 117,-99.0922 117,-69.0922 0,-69.0922"/>
<text text-anchor="start" x="8" y="-87.0922" font-family="Helvetica,sans-Serif" font-size="10.00">openage::UnitSelection</text>
<text text-anchor="middle" x="58.5" y="-76.0922" font-family="Helvetica,sans-Serif" font-size="10.00">::toggle_unit</text>
</a>
</g>
</g>
<!-- Node236 -->
<g id="node2" class="node"><title>Node236</title>
<g id="a_node2"><a xlink:href="classopenage_1_1_unit_selection.xhtml#ac7668d88460dbf57f79a75cbe55e34f3" target="_top" xlink:title=" ">
<polygon fill="white" stroke="black" points="153,-94.0922 153,-124.092 270,-124.092 270,-94.0922 153,-94.0922"/>
<text text-anchor="start" x="161" y="-112.092" font-family="Helvetica,sans-Serif" font-size="10.00">openage::UnitSelection</text>
<text text-anchor="middle" x="211.5" y="-101.092" font-family="Helvetica,sans-Serif" font-size="10.00">::add_unit</text>
</a>
</g>
</g>
<!-- Node235&#45;&gt;Node236 -->
<g id="edge1" class="edge"><title>Node235&#45;&gt;Node236</title>
<path fill="none" stroke="midnightblue" d="M117.017,-93.6149C125.464,-95.0133 134.229,-96.4645 142.856,-97.8928"/>
<polygon fill="midnightblue" stroke="midnightblue" points="142.455,-101.374 152.893,-99.5545 143.599,-94.468 142.455,-101.374"/>
</g>
<!-- Node246 -->
<g id="node12" class="node"><title>Node246</title>
<g id="a_node12"><a xlink:href="classopenage_1_1_unit_selection.xhtml#a55faa863da0461730ad3deed70b726c2" target="_top" xlink:title=" ">
<polygon fill="white" stroke="black" points="153,-45.0922 153,-75.0922 270,-75.0922 270,-45.0922 153,-45.0922"/>
<text text-anchor="start" x="161" y="-63.0922" font-family="Helvetica,sans-Serif" font-size="10.00">openage::UnitSelection</text>
<text text-anchor="middle" x="211.5" y="-52.0922" font-family="Helvetica,sans-Serif" font-size="10.00">::remove_unit</text>
</a>
</g>
</g>
<!-- Node235&#45;&gt;Node246 -->
<g id="edge14" class="edge"><title>Node235&#45;&gt;Node246</title>
<path fill="none" stroke="midnightblue" d="M117.017,-74.9503C125.464,-73.6078 134.229,-72.2147 142.856,-70.8435"/>
<polygon fill="midnightblue" stroke="midnightblue" points="143.566,-74.2747 152.893,-69.2483 142.467,-67.3615 143.566,-74.2747"/>
</g>
<!-- Node237 -->
<g id="node3" class="node"><title>Node237</title>
<g id="a_node3"><a xlink:href="classopenage_1_1_unit_selection.xhtml#aa97b9724248f01b525488bbba21d6b59" target="_top" xlink:title=" ">
<polygon fill="white" stroke="black" points="310,-176.092 310,-206.092 427,-206.092 427,-176.092 310,-176.092"/>
<text text-anchor="start" x="318" y="-194.092" font-family="Helvetica,sans-Serif" font-size="10.00">openage::UnitSelection</text>
<text text-anchor="middle" x="368.5" y="-183.092" font-family="Helvetica,sans-Serif" font-size="10.00">::clear</text>
</a>
</g>
</g>
<!-- Node236&#45;&gt;Node237 -->
<g id="edge2" class="edge"><title>Node236&#45;&gt;Node237</title>
<path fill="none" stroke="midnightblue" d="M238.893,-124.268C257.51,-134.849 283.108,-149.154 306,-161.092 312.59,-164.529 319.632,-168.077 326.511,-171.478"/>
<polygon fill="midnightblue" stroke="midnightblue" points="325.214,-174.74 335.734,-175.999 328.296,-168.455 325.214,-174.74"/>
</g>
<!-- Node238 -->
<g id="node4" class="node"><title>Node238</title>
<g id="a_node4"><a xlink:href="classopenage_1_1_unit.xhtml#a3e12324401051119f44e212dae1a87ce" target="_top" xlink:title=" ">
<polygon fill="white" stroke="black" points="790,-114.092 790,-144.092 886,-144.092 886,-114.092 790,-114.092"/>
<text text-anchor="start" x="798" y="-132.092" font-family="Helvetica,sans-Serif" font-size="10.00">openage::Unit::get</text>
<text text-anchor="middle" x="838" y="-121.092" font-family="Helvetica,sans-Serif" font-size="10.00">_attribute</text>
</a>
</g>
</g>
<!-- Node236&#45;&gt;Node238 -->
<g id="edge3" class="edge"><title>Node236&#45;&gt;Node238</title>
<path fill="none" stroke="midnightblue" d="M270.082,-122.657C281.897,-124.914 294.299,-126.904 306,-128.092 477.674,-145.522 682.18,-137.998 779.728,-132.693"/>
<polygon fill="midnightblue" stroke="midnightblue" points="780.168,-136.174 789.958,-132.123 779.779,-129.185 780.168,-136.174"/>
</g>
<!-- Node240 -->
<g id="node6" class="node"><title>Node240</title>
<g id="a_node6"><a xlink:href="classopenage_1_1_unit.xhtml#adfea298b04684ab09dd8f499dabb8715" target="_top" xlink:title=" ">
<polygon fill="white" stroke="black" points="312.5,-99.5922 312.5,-118.592 424.5,-118.592 424.5,-99.5922 312.5,-99.5922"/>
<text text-anchor="middle" x="368.5" y="-106.592" font-family="Helvetica,sans-Serif" font-size="10.00">openage::Unit::get_ref</text>
</a>
</g>
</g>
<!-- Node236&#45;&gt;Node240 -->
<g id="edge5" class="edge"><title>Node236&#45;&gt;Node240</title>
<path fill="none" stroke="midnightblue" d="M270.216,-109.092C280.652,-109.092 291.602,-109.092 302.235,-109.092"/>
<polygon fill="midnightblue" stroke="midnightblue" points="302.307,-112.592 312.307,-109.092 302.307,-105.592 302.307,-112.592"/>
</g>
<!-- Node241 -->
<g id="node7" class="node"><title>Node241</title>
<g id="a_node7"><a xlink:href="classopenage_1_1_unit_selection.xhtml#a9ec8fd5cfcfa451cce1123ff87894719" target="_top" xlink:title=" ">
<polygon fill="white" stroke="black" points="306,-50.0922 306,-80.0922 431,-80.0922 431,-50.0922 306,-50.0922"/>
<text text-anchor="start" x="314" y="-68.0922" font-family="Helvetica,sans-Serif" font-size="10.00">openage::UnitSelection</text>
<text text-anchor="middle" x="368.5" y="-57.0922" font-family="Helvetica,sans-Serif" font-size="10.00">::get_unit_selection_type</text>
</a>
</g>
</g>
<!-- Node236&#45;&gt;Node241 -->
<g id="edge6" class="edge"><title>Node236&#45;&gt;Node241</title>
<path fill="none" stroke="midnightblue" d="M265.409,-94.0729C278.058,-90.4821 291.682,-86.6146 304.729,-82.9111"/>
<polygon fill="midnightblue" stroke="midnightblue" points="305.903,-86.2162 314.567,-80.1184 303.991,-79.4823 305.903,-86.2162"/>
</g>
<!-- Node242 -->
<g id="node8" class="node"><title>Node242</title>
<g id="a_node8"><a xlink:href="classopenage_1_1_unit.xhtml#a6c56a8b7e9856a8e0535cacbe831bae7" target="_top" xlink:title=" ">
<polygon fill="white" stroke="black" points="789,-47.0922 789,-77.0922 887,-77.0922 887,-47.0922 789,-47.0922"/>
<text text-anchor="start" x="797" y="-65.0922" font-family="Helvetica,sans-Serif" font-size="10.00">openage::Unit::has</text>
<text text-anchor="middle" x="838" y="-54.0922" font-family="Helvetica,sans-Serif" font-size="10.00">_attribute</text>
</a>
</g>
</g>
<!-- Node236&#45;&gt;Node242 -->
<g id="edge13" class="edge"><title>Node236&#45;&gt;Node242</title>
<path fill="none" stroke="midnightblue" d="M253.747,-94.0439C259.456,-91.1509 265.052,-87.8353 270,-84.0922 290.151,-68.8493 283.167,-50.9122 306,-40.0922 465.567,35.5235 683.313,-14.2112 783.077,-44.139"/>
<polygon fill="midnightblue" stroke="midnightblue" points="782.059,-47.4874 792.645,-47.0575 784.101,-40.792 782.059,-47.4874"/>
</g>
<!-- Node239 -->
<g id="node5" class="node"><title>Node239</title>
<g id="a_node5"><a xlink:href="classopenage_1_1_attributes.xhtml#a08f927be3be6911e7cf77604f9ead10f" target="_top" xlink:title=" ">
<polygon fill="white" stroke="black" points="924,-119.592 924,-138.592 1045,-138.592 1045,-119.592 924,-119.592"/>
<text text-anchor="middle" x="984.5" y="-126.592" font-family="Helvetica,sans-Serif" font-size="10.00">openage::Attributes::get</text>
</a>
</g>
</g>
<!-- Node238&#45;&gt;Node239 -->
<g id="edge4" class="edge"><title>Node238&#45;&gt;Node239</title>
<path fill="none" stroke="midnightblue" d="M886.315,-129.092C895.14,-129.092 904.531,-129.092 913.863,-129.092"/>
<polygon fill="midnightblue" stroke="midnightblue" points="913.938,-132.592 923.938,-129.092 913.938,-125.592 913.938,-132.592"/>
</g>
<!-- Node241&#45;&gt;Node242 -->
<g id="edge7" class="edge"><title>Node241&#45;&gt;Node242</title>
<path fill="none" stroke="midnightblue" d="M431.098,-64.6969C521.728,-64.1153 689.834,-63.0365 778.6,-62.4669"/>
<polygon fill="midnightblue" stroke="midnightblue" points="778.784,-65.9659 788.761,-62.4017 778.739,-58.9661 778.784,-65.9659"/>
</g>
<!-- Node244 -->
<g id="node10" class="node"><title>Node244</title>
<g id="a_node10"><a xlink:href="classopenage_1_1_unit.xhtml#aba4a16068cf5a6b218a4c78f499874b0" target="_top" xlink:title=" ">
<polygon fill="white" stroke="black" points="467,-90.5922 467,-109.592 601,-109.592 601,-90.5922 467,-90.5922"/>
<text text-anchor="middle" x="534" y="-97.5922" font-family="Helvetica,sans-Serif" font-size="10.00">openage::Unit::is_own_unit</text>
</a>
</g>
</g>
<!-- Node241&#45;&gt;Node244 -->
<g id="edge9" class="edge"><title>Node241&#45;&gt;Node244</title>
<path fill="none" stroke="midnightblue" d="M431.312,-78.3242C446.742,-81.6272 463.181,-85.1462 478.243,-88.3704"/>
<polygon fill="midnightblue" stroke="midnightblue" points="477.91,-91.8784 488.421,-90.5492 479.375,-85.0334 477.91,-91.8784"/>
</g>
<!-- Node243 -->
<g id="node9" class="node"><title>Node243</title>
<g id="a_node9"><a xlink:href="classopenage_1_1_attributes.xhtml#aee38f453ac85b68821958ad74cdd8df5" target="_top" xlink:title=" ">
<polygon fill="white" stroke="black" points="923,-52.5922 923,-71.5922 1046,-71.5922 1046,-52.5922 923,-52.5922"/>
<text text-anchor="middle" x="984.5" y="-59.5922" font-family="Helvetica,sans-Serif" font-size="10.00">openage::Attributes::has</text>
</a>
</g>
</g>
<!-- Node242&#45;&gt;Node243 -->
<g id="edge8" class="edge"><title>Node242&#45;&gt;Node243</title>
<path fill="none" stroke="midnightblue" d="M887.116,-62.0922C895.378,-62.0922 904.115,-62.0922 912.821,-62.0922"/>
<polygon fill="midnightblue" stroke="midnightblue" points="912.997,-65.5923 922.997,-62.0922 912.997,-58.5923 912.997,-65.5923"/>
</g>
<!-- Node245 -->
<g id="node11" class="node"><title>Node245</title>
<g id="a_node11"><a xlink:href="classopenage_1_1_player.xhtml#aefd20341c814fc53919cac8761bad38b" target="_top" xlink:title=" ">
<polygon fill="white" stroke="black" points="637,-90.5922 637,-109.592 753,-109.592 753,-90.5922 637,-90.5922"/>
<text text-anchor="middle" x="695" y="-97.5922" font-family="Helvetica,sans-Serif" font-size="10.00">openage::Player::owns</text>
</a>
</g>
</g>
<!-- Node244&#45;&gt;Node245 -->
<g id="edge10" class="edge"><title>Node244&#45;&gt;Node245</title>
<path fill="none" stroke="midnightblue" d="M601.049,-100.092C609.481,-100.092 618.12,-100.092 626.573,-100.092"/>
<polygon fill="midnightblue" stroke="midnightblue" points="626.765,-103.592 636.765,-100.092 626.765,-96.5923 626.765,-103.592"/>
</g>
<!-- Node245&#45;&gt;Node238 -->
<g id="edge11" class="edge"><title>Node245&#45;&gt;Node238</title>
<path fill="none" stroke="midnightblue" d="M742.559,-109.668C754.341,-112.091 767.135,-114.723 779.391,-117.243"/>
<polygon fill="midnightblue" stroke="midnightblue" points="779.025,-120.741 789.525,-119.328 780.435,-113.885 779.025,-120.741"/>
</g>
<!-- Node245&#45;&gt;Node242 -->
<g id="edge12" class="edge"><title>Node245&#45;&gt;Node242</title>
<path fill="none" stroke="midnightblue" d="M731.58,-90.5032C745.971,-86.6249 762.958,-82.0468 779.045,-77.7114"/>
<polygon fill="midnightblue" stroke="midnightblue" points="780.169,-81.0334 788.913,-75.0517 778.347,-74.2746 780.169,-81.0334"/>
</g>
</g>
</svg>
