<?xml version="1.0" encoding="UTF-8" standalone="no"?>
<!DOCTYPE svg PUBLIC "-//W3C//DTD SVG 1.1//EN"
 "http://www.w3.org/Graphics/SVG/1.1/DTD/svg11.dtd">
<!-- Generated by graphviz version 2.38.0 (20140413.2041)
 -->
<!-- Title: openage::renderer::FontManager::get_font Pages: 1 -->
<svg width="398pt" height="50pt"
 viewBox="0.00 0.00 398.00 50.00" xmlns="http://www.w3.org/2000/svg" xmlns:xlink="http://www.w3.org/1999/xlink">
<g id="graph0" class="graph" transform="scale(1 1) rotate(0) translate(4 46)">
<title>openage::renderer::FontManager::get_font</title>
<polygon fill="white" stroke="none" points="-4,4 -4,-46 394,-46 394,4 -4,4"/>
<!-- Node13 -->
<g id="node1" class="node"><title>Node13</title>
<g id="a_node1"><a xlink:title=" ">
<polygon fill="#bfbfbf" stroke="black" points="0,-6 0,-36 114,-36 114,-6 0,-6"/>
<text text-anchor="start" x="8" y="-24" font-family="Helvetica,sans-Serif" font-size="10.00">openage::renderer::</text>
<text text-anchor="middle" x="57" y="-13" font-family="Helvetica,sans-Serif" font-size="10.00">FontManager::get_font</text>
</a>
</g>
</g>
<!-- Node14 -->
<g id="node2" class="node"><title>Node14</title>
<g id="a_node2"><a xlink:href="namespaceopenage_1_1renderer_1_1tests.xhtml#aa4bbd5ddb9f2591224c8b05fff9d945c" target="_top" xlink:title=" ">
<polygon fill="white" stroke="black" points="150,-6 150,-36 251,-36 251,-6 150,-6"/>
<text text-anchor="start" x="158" y="-24" font-family="Helvetica,sans-Serif" font-size="10.00">openage::renderer::</text>
<text text-anchor="middle" x="200.5" y="-13" font-family="Helvetica,sans-Serif" font-size="10.00">tests::font</text>
</a>
</g>
</g>
<!-- Node13&#45;&gt;Node14 -->
<g id="edge1" class="edge"><title>Node13&#45;&gt;Node14</title>
<path fill="none" stroke="midnightblue" d="M114.331,-21C122.659,-21 131.266,-21 139.663,-21"/>
<polygon fill="midnightblue" stroke="midnightblue" points="139.768,-24.5001 149.768,-21 139.768,-17.5001 139.768,-24.5001"/>
</g>
<!-- Node15 -->
<g id="node3" class="node"><title>Node15</title>
<g id="a_node3"><a xlink:href="namespaceopenage_1_1renderer_1_1tests.xhtml#a4d5611a559a9c63bcb0865c8a0829d4a" target="_top" xlink:title=" ">
<polygon fill="white" stroke="black" points="287,-0.5 287,-41.5 390,-41.5 390,-0.5 287,-0.5"/>
<text text-anchor="start" x="295" y="-29.5" font-family="Helvetica,sans-Serif" font-size="10.00">openage::renderer::</text>
<text text-anchor="start" x="295" y="-18.5" font-family="Helvetica,sans-Serif" font-size="10.00">tests::font_test_font</text>
<text text-anchor="middle" x="338.5" y="-7.5" font-family="Helvetica,sans-Serif" font-size="10.00">_description</text>
</a>
</g>
</g>
<!-- Node14&#45;&gt;Node15 -->
<g id="edge2" class="edge"><title>Node14&#45;&gt;Node15</title>
<path fill="none" stroke="midnightblue" d="M251.369,-21C259.561,-21 268.132,-21 276.557,-21"/>
<polygon fill="midnightblue" stroke="midnightblue" points="276.726,-24.5001 286.726,-21 276.726,-17.5001 276.726,-24.5001"/>
</g>
</g>
</svg>
