<?xml version="1.0" encoding="UTF-8" standalone="no"?>
<!DOCTYPE svg PUBLIC "-//W3C//DTD SVG 1.1//EN"
 "http://www.w3.org/Graphics/SVG/1.1/DTD/svg11.dtd">
<!-- Generated by graphviz version 2.38.0 (20140413.2041)
 -->
<!-- Title: openage::util::fslike::FSLike::resolve_r Pages: 1 -->
<svg width="246pt" height="88pt"
 viewBox="0.00 0.00 246.00 88.00" xmlns="http://www.w3.org/2000/svg" xmlns:xlink="http://www.w3.org/1999/xlink">
<g id="graph0" class="graph" transform="scale(1 1) rotate(0) translate(4 84)">
<title>openage::util::fslike::FSLike::resolve_r</title>
<polygon fill="white" stroke="none" points="-4,4 -4,-84 242,-84 242,4 -4,4"/>
<!-- Node44 -->
<g id="node1" class="node"><title>Node44</title>
<g id="a_node1"><a xlink:title=" ">
<polygon fill="#bfbfbf" stroke="black" points="0,-24.5 0,-54.5 101,-54.5 101,-24.5 0,-24.5"/>
<text text-anchor="start" x="8" y="-42.5" font-family="Helvetica,sans-Serif" font-size="10.00">openage::util::fslike</text>
<text text-anchor="middle" x="50.5" y="-31.5" font-family="Helvetica,sans-Serif" font-size="10.00">::FSLike::resolve_r</text>
</a>
</g>
</g>
<!-- Node45 -->
<g id="node2" class="node"><title>Node45</title>
<g id="a_node2"><a xlink:href="classopenage_1_1util_1_1fslike_1_1_f_s_like.xhtml#a3482e633a1c66d185899bc827b535500" target="_top" xlink:title=" ">
<polygon fill="white" stroke="black" points="137,-49.5 137,-79.5 238,-79.5 238,-49.5 137,-49.5"/>
<text text-anchor="start" x="145" y="-67.5" font-family="Helvetica,sans-Serif" font-size="10.00">openage::util::fslike</text>
<text text-anchor="middle" x="187.5" y="-56.5" font-family="Helvetica,sans-Serif" font-size="10.00">::FSLike::is_dir</text>
</a>
</g>
</g>
<!-- Node44&#45;&gt;Node45 -->
<g id="edge1" class="edge"><title>Node44&#45;&gt;Node45</title>
<path fill="none" stroke="midnightblue" d="M101.002,-48.6671C109.332,-50.2096 118.056,-51.8251 126.614,-53.41"/>
<polygon fill="midnightblue" stroke="midnightblue" points="126.081,-56.8708 136.552,-55.2503 127.356,-49.9878 126.081,-56.8708"/>
</g>
<!-- Node46 -->
<g id="node3" class="node"><title>Node46</title>
<g id="a_node3"><a xlink:href="classopenage_1_1util_1_1fslike_1_1_f_s_like.xhtml#adf2810f95545a0ad3ff943031c2dc5be" target="_top" xlink:title=" ">
<polygon fill="white" stroke="black" points="137,-0.5 137,-30.5 238,-30.5 238,-0.5 137,-0.5"/>
<text text-anchor="start" x="145" y="-18.5" font-family="Helvetica,sans-Serif" font-size="10.00">openage::util::fslike</text>
<text text-anchor="middle" x="187.5" y="-7.5" font-family="Helvetica,sans-Serif" font-size="10.00">::FSLike::is_file</text>
</a>
</g>
</g>
<!-- Node44&#45;&gt;Node46 -->
<g id="edge2" class="edge"><title>Node44&#45;&gt;Node46</title>
<path fill="none" stroke="midnightblue" d="M101.002,-30.6996C109.332,-29.2188 118.056,-27.6679 126.614,-26.1464"/>
<polygon fill="midnightblue" stroke="midnightblue" points="127.319,-29.5761 136.552,-24.3797 126.093,-22.6842 127.319,-29.5761"/>
</g>
</g>
</svg>
