<?xml version="1.0" encoding="UTF-8" standalone="no"?>
<!DOCTYPE svg PUBLIC "-//W3C//DTD SVG 1.1//EN"
 "http://www.w3.org/Graphics/SVG/1.1/DTD/svg11.dtd">
<!-- Generated by graphviz version 2.38.0 (20140413.2041)
 -->
<!-- Title: openage::GameControlSignals::mode_changed Pages: 1 -->
<svg width="803pt" height="207pt"
 viewBox="0.00 0.00 803.00 206.78" xmlns="http://www.w3.org/2000/svg" xmlns:xlink="http://www.w3.org/1999/xlink">
<g id="graph0" class="graph" transform="scale(1 1) rotate(0) translate(4 202.783)">
<title>openage::GameControlSignals::mode_changed</title>
<polygon fill="white" stroke="none" points="-4,4 -4,-202.783 799,-202.783 799,4 -4,4"/>
<!-- Node22 -->
<g id="node1" class="node"><title>Node22</title>
<g id="a_node1"><a xlink:title=" ">
<polygon fill="#bfbfbf" stroke="black" points="646,-11.2829 646,-41.2829 795,-41.2829 795,-11.2829 646,-11.2829"/>
<text text-anchor="start" x="654" y="-29.2829" font-family="Helvetica,sans-Serif" font-size="10.00">openage::GameControlSignals</text>
<text text-anchor="middle" x="720.5" y="-18.2829" font-family="Helvetica,sans-Serif" font-size="10.00">::mode_changed</text>
</a>
</g>
</g>
<!-- Node23 -->
<g id="node2" class="node"><title>Node23</title>
<g id="a_node2"><a xlink:href="classopenage_1_1_game_control.xhtml#a8c867441262580369ff7c66ba6bd0e4b" target="_top" xlink:title=" ">
<polygon fill="white" stroke="black" points="494,-45.2829 494,-75.2829 610,-75.2829 610,-45.2829 494,-45.2829"/>
<text text-anchor="start" x="502" y="-63.2829" font-family="Helvetica,sans-Serif" font-size="10.00">openage::GameControl</text>
<text text-anchor="middle" x="552" y="-52.2829" font-family="Helvetica,sans-Serif" font-size="10.00">::announce_mode</text>
</a>
</g>
</g>
<!-- Node22&#45;&gt;Node23 -->
<g id="edge1" class="edge"><title>Node22&#45;&gt;Node23</title>
<path fill="none" stroke="midnightblue" d="M636.084,-43.3169C627.295,-45.1115 618.509,-46.9056 610.118,-48.6192"/>
<polygon fill="midnightblue" stroke="midnightblue" points="636.888,-46.7248 645.986,-41.2947 635.488,-39.8663 636.888,-46.7248"/>
</g>
<!-- Node26 -->
<g id="node5" class="node"><title>Node26</title>
<g id="a_node5"><a xlink:href="classopenage_1_1gui_1_1_game_control_link.xhtml#ac65023c9d5f785efe775b1dd99111c42" target="_top" xlink:title=" ">
<polygon fill="white" stroke="black" points="0,-23.2829 0,-53.2829 135,-53.2829 135,-23.2829 0,-23.2829"/>
<text text-anchor="start" x="8" y="-41.2829" font-family="Helvetica,sans-Serif" font-size="10.00">openage::gui::GameControl</text>
<text text-anchor="middle" x="67.5" y="-30.2829" font-family="Helvetica,sans-Serif" font-size="10.00">Link::on_core_adopted</text>
</a>
</g>
</g>
<!-- Node22&#45;&gt;Node26 -->
<g id="edge10" class="edge"><title>Node22&#45;&gt;Node26</title>
<path fill="none" stroke="midnightblue" d="M635.763,-15.9333C527.834,-4.43609 334.592,9.90211 171,-11.2829 152.476,-13.6816 132.529,-18.4227 115.198,-23.2715"/>
<polygon fill="midnightblue" stroke="midnightblue" points="635.619,-19.438 645.938,-17.0357 636.373,-12.4788 635.619,-19.438"/>
</g>
<!-- Node24 -->
<g id="node3" class="node"><title>Node24</title>
<g id="a_node3"><a xlink:href="classopenage_1_1_game_control.xhtml#a1d0f073f844955000861e4c0d08b20e0" target="_top" xlink:title=" ">
<polygon fill="white" stroke="black" points="342,-70.2829 342,-100.283 458,-100.283 458,-70.2829 342,-70.2829"/>
<text text-anchor="start" x="350" y="-88.2829" font-family="Helvetica,sans-Serif" font-size="10.00">openage::GameControl</text>
<text text-anchor="middle" x="400" y="-77.2829" font-family="Helvetica,sans-Serif" font-size="10.00">::set_mode</text>
</a>
</g>
</g>
<!-- Node23&#45;&gt;Node24 -->
<g id="edge2" class="edge"><title>Node23&#45;&gt;Node24</title>
<path fill="none" stroke="midnightblue" d="M483.967,-71.4551C475.46,-72.8729 466.814,-74.3139 458.475,-75.7038"/>
<polygon fill="midnightblue" stroke="midnightblue" points="484.575,-74.9021 493.864,-69.8056 483.424,-67.9973 484.575,-74.9021"/>
</g>
<!-- Node25 -->
<g id="node4" class="node"><title>Node25</title>
<g id="a_node4"><a xlink:href="classopenage_1_1gui_1_1_game_control_link.xhtml#aef267067b8bc03f0df3bfdecce515cd6" target="_top" xlink:title=" ">
<polygon fill="white" stroke="black" points="171,-70.2829 171,-100.283 306,-100.283 306,-70.2829 171,-70.2829"/>
<text text-anchor="start" x="179" y="-88.2829" font-family="Helvetica,sans-Serif" font-size="10.00">openage::gui::GameControl</text>
<text text-anchor="middle" x="238.5" y="-77.2829" font-family="Helvetica,sans-Serif" font-size="10.00">Link::on_modes_changed</text>
</a>
</g>
</g>
<!-- Node24&#45;&gt;Node25 -->
<g id="edge3" class="edge"><title>Node24&#45;&gt;Node25</title>
<path fill="none" stroke="midnightblue" d="M331.642,-85.2829C323.159,-85.2829 314.484,-85.2829 306.014,-85.2829"/>
<polygon fill="midnightblue" stroke="midnightblue" points="331.867,-88.783 341.867,-85.2829 331.867,-81.783 331.867,-88.783"/>
</g>
<!-- Node27 -->
<g id="node6" class="node"><title>Node27</title>
<g id="a_node6"><a xlink:href="classopenage_1_1_game_control.xhtml#ad7c9d48df33f8f56ab5686c36648bfa5" target="_top" xlink:title=" ">
<polygon fill="white" stroke="black" points="180.5,-119.283 180.5,-149.283 296.5,-149.283 296.5,-119.283 180.5,-119.283"/>
<text text-anchor="start" x="188.5" y="-137.283" font-family="Helvetica,sans-Serif" font-size="10.00">openage::GameControl</text>
<text text-anchor="middle" x="238.5" y="-126.283" font-family="Helvetica,sans-Serif" font-size="10.00">::set_engine</text>
</a>
</g>
</g>
<!-- Node24&#45;&gt;Node27 -->
<g id="edge5" class="edge"><title>Node24&#45;&gt;Node27</title>
<path fill="none" stroke="midnightblue" d="M340.041,-103.396C323.084,-108.605 304.779,-114.229 288.494,-119.231"/>
<polygon fill="midnightblue" stroke="midnightblue" points="341.312,-106.667 349.843,-100.384 339.256,-99.9753 341.312,-106.667"/>
</g>
<!-- Node29 -->
<g id="node8" class="node"><title>Node29</title>
<g id="a_node8"><a xlink:href="classopenage_1_1gui_1_1_game_control_link.xhtml#ab9397074dbc2c25f69e718e053572fab" target="_top" xlink:title=" ">
<polygon fill="white" stroke="black" points="171,-21.2829 171,-51.2829 306,-51.2829 306,-21.2829 171,-21.2829"/>
<text text-anchor="start" x="179" y="-39.2829" font-family="Helvetica,sans-Serif" font-size="10.00">openage::gui::GameControl</text>
<text text-anchor="middle" x="238.5" y="-28.2829" font-family="Helvetica,sans-Serif" font-size="10.00">Link::set_mode_index</text>
</a>
</g>
</g>
<!-- Node24&#45;&gt;Node29 -->
<g id="edge7" class="edge"><title>Node24&#45;&gt;Node29</title>
<path fill="none" stroke="midnightblue" d="M340.041,-67.1699C323.084,-61.9607 304.779,-56.3372 288.494,-51.3344"/>
<polygon fill="midnightblue" stroke="midnightblue" points="339.256,-70.5904 349.843,-70.1814 341.312,-63.899 339.256,-70.5904"/>
</g>
<!-- Node30 -->
<g id="node9" class="node"><title>Node30</title>
<g id="a_node9"><a xlink:href="classopenage_1_1_game_control.xhtml#aa44a60840b738c202e328902943d8162" target="_top" xlink:title=" ">
<polygon fill="white" stroke="black" points="180.5,-168.283 180.5,-198.283 296.5,-198.283 296.5,-168.283 180.5,-168.283"/>
<text text-anchor="start" x="188.5" y="-186.283" font-family="Helvetica,sans-Serif" font-size="10.00">openage::GameControl</text>
<text text-anchor="middle" x="238.5" y="-175.283" font-family="Helvetica,sans-Serif" font-size="10.00">::set_modes</text>
</a>
</g>
</g>
<!-- Node24&#45;&gt;Node30 -->
<g id="edge8" class="edge"><title>Node24&#45;&gt;Node30</title>
<path fill="none" stroke="midnightblue" d="M375.293,-107.242C357.317,-123.028 331.44,-143.967 306,-158.283 299.551,-161.912 292.471,-165.213 285.412,-168.141"/>
<polygon fill="midnightblue" stroke="midnightblue" points="377.836,-109.664 382.966,-100.394 373.175,-104.441 377.836,-109.664"/>
</g>
<!-- Node25&#45;&gt;Node26 -->
<g id="edge4" class="edge"><title>Node25&#45;&gt;Node26</title>
<path fill="none" stroke="midnightblue" d="M173.778,-67.5613C156.89,-62.8646 138.821,-57.8396 122.505,-53.3019"/>
<polygon fill="midnightblue" stroke="midnightblue" points="172.991,-70.9751 183.563,-70.2825 174.866,-64.2311 172.991,-70.9751"/>
</g>
<!-- Node28 -->
<g id="node7" class="node"><title>Node28</title>
<g id="a_node7"><a xlink:href="classopenage_1_1gui_1_1_game_control_link.xhtml#a0a4bb8a5d7b2e5637d317fe51f02ad5f" target="_top" xlink:title=" ">
<polygon fill="white" stroke="black" points="0,-119.283 0,-149.283 135,-149.283 135,-119.283 0,-119.283"/>
<text text-anchor="start" x="8" y="-137.283" font-family="Helvetica,sans-Serif" font-size="10.00">openage::gui::GameControl</text>
<text text-anchor="middle" x="67.5" y="-126.283" font-family="Helvetica,sans-Serif" font-size="10.00">Link::set_engine</text>
</a>
</g>
</g>
<!-- Node27&#45;&gt;Node28 -->
<g id="edge6" class="edge"><title>Node27&#45;&gt;Node28</title>
<path fill="none" stroke="midnightblue" d="M169.946,-134.283C158.529,-134.283 146.682,-134.283 135.286,-134.283"/>
<polygon fill="midnightblue" stroke="midnightblue" points="170.284,-137.783 180.284,-134.283 170.284,-130.783 170.284,-137.783"/>
</g>
<!-- Node31 -->
<g id="node10" class="node"><title>Node31</title>
<g id="a_node10"><a xlink:href="classopenage_1_1gui_1_1_game_control_link.xhtml#a54ebef9560dd3607b61083b0f8ecb9ba" target="_top" xlink:title=" ">
<polygon fill="white" stroke="black" points="0,-168.283 0,-198.283 135,-198.283 135,-168.283 0,-168.283"/>
<text text-anchor="start" x="8" y="-186.283" font-family="Helvetica,sans-Serif" font-size="10.00">openage::gui::GameControl</text>
<text text-anchor="middle" x="67.5" y="-175.283" font-family="Helvetica,sans-Serif" font-size="10.00">Link::set_modes</text>
</a>
</g>
</g>
<!-- Node30&#45;&gt;Node31 -->
<g id="edge9" class="edge"><title>Node30&#45;&gt;Node31</title>
<path fill="none" stroke="midnightblue" d="M169.946,-183.283C158.529,-183.283 146.682,-183.283 135.286,-183.283"/>
<polygon fill="midnightblue" stroke="midnightblue" points="170.284,-186.783 180.284,-183.283 170.284,-179.783 170.284,-186.783"/>
</g>
</g>
</svg>
