<?xml version="1.0" encoding="UTF-8" standalone="no"?>
<!DOCTYPE svg PUBLIC "-//W3C//DTD SVG 1.1//EN"
 "http://www.w3.org/Graphics/SVG/1.1/DTD/svg11.dtd">
<!-- Generated by graphviz version 2.38.0 (20140413.2041)
 -->
<!-- Title: openage::util::Enum&lt; DerivedType &gt; Pages: 1 -->
<svg width="268pt" height="618pt"
 viewBox="0.00 0.00 267.50 618.00" xmlns="http://www.w3.org/2000/svg" xmlns:xlink="http://www.w3.org/1999/xlink">
<g id="graph0" class="graph" transform="scale(1 1) rotate(0) translate(4 614)">
<title>openage::util::Enum&lt; DerivedType &gt;</title>
<polygon fill="white" stroke="none" points="-4,4 -4,-614 263.5,-614 263.5,4 -4,4"/>
<!-- Node0 -->
<g id="node1" class="node"><title>Node0</title>
<g id="a_node1"><a xlink:title="Container for possible enum values.">
<polygon fill="#bfbfbf" stroke="black" points="50.5,-420.5 50.5,-609.5 209.5,-609.5 209.5,-420.5 50.5,-420.5"/>
<text text-anchor="start" x="58.5" y="-597.5" font-family="Helvetica,sans-Serif" font-size="10.00">openage::util::Enum</text>
<text text-anchor="middle" x="130" y="-586.5" font-family="Helvetica,sans-Serif" font-size="10.00">&lt; DerivedType &gt;</text>
<polyline fill="none" stroke="black" points="50.5,-579.5 209.5,-579.5 "/>
<text text-anchor="start" x="58.5" y="-567.5" font-family="Helvetica,sans-Serif" font-size="10.00"># value</text>
<polyline fill="none" stroke="black" points="50.5,-560.5 209.5,-560.5 "/>
<text text-anchor="start" x="58.5" y="-548.5" font-family="Helvetica,sans-Serif" font-size="10.00">+ Enum()</text>
<text text-anchor="start" x="58.5" y="-537.5" font-family="Helvetica,sans-Serif" font-size="10.00">+ Enum()</text>
<text text-anchor="start" x="58.5" y="-526.5" font-family="Helvetica,sans-Serif" font-size="10.00">+ operator const DerivedType &amp;()</text>
<text text-anchor="start" x="58.5" y="-515.5" font-family="Helvetica,sans-Serif" font-size="10.00">+ operator=()</text>
<text text-anchor="start" x="58.5" y="-504.5" font-family="Helvetica,sans-Serif" font-size="10.00">+ operator &#45;&gt;()</text>
<text text-anchor="start" x="58.5" y="-493.5" font-family="Helvetica,sans-Serif" font-size="10.00">+ operator==()</text>
<text text-anchor="start" x="58.5" y="-482.5" font-family="Helvetica,sans-Serif" font-size="10.00">+ operator !=()</text>
<text text-anchor="start" x="58.5" y="-471.5" font-family="Helvetica,sans-Serif" font-size="10.00">+ operator&lt;=()</text>
<text text-anchor="start" x="58.5" y="-460.5" font-family="Helvetica,sans-Serif" font-size="10.00">+ operator&lt;()</text>
<text text-anchor="start" x="58.5" y="-449.5" font-family="Helvetica,sans-Serif" font-size="10.00">+ operator &gt;=()</text>
<text text-anchor="start" x="58.5" y="-438.5" font-family="Helvetica,sans-Serif" font-size="10.00">+ operator &gt;()</text>
<text text-anchor="start" x="58.5" y="-427.5" font-family="Helvetica,sans-Serif" font-size="10.00">+ get()</text>
</a>
</g>
</g>
<!-- Node1 -->
<g id="node2" class="node"><title>Node1</title>
<g id="a_node2"><a xlink:href="classopenage_1_1util_1_1_enum.xhtml" target="_top" xlink:title=" ">
<polygon fill="white" stroke="black" points="0,-172.5 0,-372.5 110,-372.5 110,-172.5 0,-172.5"/>
<text text-anchor="start" x="8" y="-360.5" font-family="Helvetica,sans-Serif" font-size="10.00">openage::util::Enum</text>
<text text-anchor="middle" x="55" y="-349.5" font-family="Helvetica,sans-Serif" font-size="10.00">&lt; level_value &gt;</text>
<polyline fill="none" stroke="black" points="0,-342.5 110,-342.5 "/>
<text text-anchor="start" x="8" y="-330.5" font-family="Helvetica,sans-Serif" font-size="10.00"># value</text>
<polyline fill="none" stroke="black" points="0,-323.5 110,-323.5 "/>
<text text-anchor="start" x="8" y="-311.5" font-family="Helvetica,sans-Serif" font-size="10.00">+ Enum()</text>
<text text-anchor="start" x="8" y="-300.5" font-family="Helvetica,sans-Serif" font-size="10.00">+ Enum()</text>
<text text-anchor="start" x="8" y="-289.5" font-family="Helvetica,sans-Serif" font-size="10.00">+ operator const level</text>
<text text-anchor="start" x="8" y="-278.5" font-family="Helvetica,sans-Serif" font-size="10.00">_value &amp;()</text>
<text text-anchor="start" x="8" y="-267.5" font-family="Helvetica,sans-Serif" font-size="10.00">+ operator=()</text>
<text text-anchor="start" x="8" y="-256.5" font-family="Helvetica,sans-Serif" font-size="10.00">+ operator &#45;&gt;()</text>
<text text-anchor="start" x="8" y="-245.5" font-family="Helvetica,sans-Serif" font-size="10.00">+ operator==()</text>
<text text-anchor="start" x="8" y="-234.5" font-family="Helvetica,sans-Serif" font-size="10.00">+ operator !=()</text>
<text text-anchor="start" x="8" y="-223.5" font-family="Helvetica,sans-Serif" font-size="10.00">+ operator&lt;=()</text>
<text text-anchor="start" x="8" y="-212.5" font-family="Helvetica,sans-Serif" font-size="10.00">+ operator&lt;()</text>
<text text-anchor="start" x="8" y="-201.5" font-family="Helvetica,sans-Serif" font-size="10.00">+ operator &gt;=()</text>
<text text-anchor="start" x="8" y="-190.5" font-family="Helvetica,sans-Serif" font-size="10.00">+ operator &gt;()</text>
<text text-anchor="start" x="8" y="-179.5" font-family="Helvetica,sans-Serif" font-size="10.00">+ get()</text>
</a>
</g>
</g>
<!-- Node0&#45;&gt;Node1 -->
<g id="edge1" class="edge"><title>Node0&#45;&gt;Node1</title>
<path fill="none" stroke="orange" d="M92.8201,-410.827C91.8566,-407.857 90.9145,-404.91 90,-402 87.0194,-392.515 84.0526,-382.591 81.1791,-372.643"/>
<polygon fill="orange" stroke="orange" points="89.5116,-411.971 95.9626,-420.375 96.1607,-409.782 89.5116,-411.971"/>
<text text-anchor="middle" x="123.5" y="-394" font-family="Helvetica,sans-Serif" font-size="10.00"> &lt; level_value &gt;</text>
</g>
<!-- Node3 -->
<g id="node4" class="node"><title>Node3</title>
<g id="a_node4"><a xlink:href="classopenage_1_1util_1_1_enum.xhtml" target="_top" xlink:title=" ">
<polygon fill="white" stroke="black" points="128.5,-172.5 128.5,-372.5 259.5,-372.5 259.5,-172.5 128.5,-172.5"/>
<text text-anchor="start" x="136.5" y="-360.5" font-family="Helvetica,sans-Serif" font-size="10.00">openage::util::Enum</text>
<text text-anchor="middle" x="194" y="-349.5" font-family="Helvetica,sans-Serif" font-size="10.00">&lt; testenum_value &gt;</text>
<polyline fill="none" stroke="black" points="128.5,-342.5 259.5,-342.5 "/>
<text text-anchor="start" x="136.5" y="-330.5" font-family="Helvetica,sans-Serif" font-size="10.00"># value</text>
<polyline fill="none" stroke="black" points="128.5,-323.5 259.5,-323.5 "/>
<text text-anchor="start" x="136.5" y="-311.5" font-family="Helvetica,sans-Serif" font-size="10.00">+ Enum()</text>
<text text-anchor="start" x="136.5" y="-300.5" font-family="Helvetica,sans-Serif" font-size="10.00">+ Enum()</text>
<text text-anchor="start" x="136.5" y="-289.5" font-family="Helvetica,sans-Serif" font-size="10.00">+ operator const testenum</text>
<text text-anchor="start" x="136.5" y="-278.5" font-family="Helvetica,sans-Serif" font-size="10.00">_value &amp;()</text>
<text text-anchor="start" x="136.5" y="-267.5" font-family="Helvetica,sans-Serif" font-size="10.00">+ operator=()</text>
<text text-anchor="start" x="136.5" y="-256.5" font-family="Helvetica,sans-Serif" font-size="10.00">+ operator &#45;&gt;()</text>
<text text-anchor="start" x="136.5" y="-245.5" font-family="Helvetica,sans-Serif" font-size="10.00">+ operator==()</text>
<text text-anchor="start" x="136.5" y="-234.5" font-family="Helvetica,sans-Serif" font-size="10.00">+ operator !=()</text>
<text text-anchor="start" x="136.5" y="-223.5" font-family="Helvetica,sans-Serif" font-size="10.00">+ operator&lt;=()</text>
<text text-anchor="start" x="136.5" y="-212.5" font-family="Helvetica,sans-Serif" font-size="10.00">+ operator&lt;()</text>
<text text-anchor="start" x="136.5" y="-201.5" font-family="Helvetica,sans-Serif" font-size="10.00">+ operator &gt;=()</text>
<text text-anchor="start" x="136.5" y="-190.5" font-family="Helvetica,sans-Serif" font-size="10.00">+ operator &gt;()</text>
<text text-anchor="start" x="136.5" y="-179.5" font-family="Helvetica,sans-Serif" font-size="10.00">+ get()</text>
</a>
</g>
</g>
<!-- Node0&#45;&gt;Node3 -->
<g id="edge3" class="edge"><title>Node0&#45;&gt;Node3</title>
<path fill="none" stroke="orange" d="M157.568,-410.406C160.88,-397.957 164.258,-385.265 167.554,-372.877"/>
<polygon fill="orange" stroke="orange" points="154.117,-409.764 154.927,-420.328 160.881,-411.564 154.117,-409.764"/>
<text text-anchor="middle" x="206.5" y="-394" font-family="Helvetica,sans-Serif" font-size="10.00"> &lt; testenum_value &gt;</text>
</g>
<!-- Node2 -->
<g id="node3" class="node"><title>Node2</title>
<g id="a_node3"><a xlink:href="structopenage_1_1log_1_1level.xhtml" target="_top" xlink:title="Available logging levels.">
<polygon fill="white" stroke="black" points="6.5,-0.5 6.5,-134.5 103.5,-134.5 103.5,-0.5 6.5,-0.5"/>
<text text-anchor="middle" x="55" y="-122.5" font-family="Helvetica,sans-Serif" font-size="10.00">openage::log::level</text>
<polyline fill="none" stroke="black" points="6.5,-115.5 103.5,-115.5 "/>
<text text-anchor="start" x="14.5" y="-103.5" font-family="Helvetica,sans-Serif" font-size="10.00">+ NOOPTIMIZE</text>
<text text-anchor="start" x="14.5" y="-92.5" font-family="Helvetica,sans-Serif" font-size="10.00">+ NOOPTIMIZE</text>
<text text-anchor="start" x="14.5" y="-81.5" font-family="Helvetica,sans-Serif" font-size="10.00">+ NOOPTIMIZE</text>
<text text-anchor="start" x="14.5" y="-70.5" font-family="Helvetica,sans-Serif" font-size="10.00">+ NOOPTIMIZE</text>
<text text-anchor="start" x="14.5" y="-59.5" font-family="Helvetica,sans-Serif" font-size="10.00">+ NOOPTIMIZE</text>
<text text-anchor="start" x="14.5" y="-48.5" font-family="Helvetica,sans-Serif" font-size="10.00">+ NOOPTIMIZE</text>
<text text-anchor="start" x="14.5" y="-37.5" font-family="Helvetica,sans-Serif" font-size="10.00">+ NOOPTIMIZE</text>
<text text-anchor="start" x="14.5" y="-26.5" font-family="Helvetica,sans-Serif" font-size="10.00">+ NOOPTIMIZE</text>
<polyline fill="none" stroke="black" points="6.5,-19.5 103.5,-19.5 "/>
<text text-anchor="start" x="14.5" y="-7.5" font-family="Helvetica,sans-Serif" font-size="10.00">+ level()</text>
</a>
</g>
</g>
<!-- Node1&#45;&gt;Node2 -->
<g id="edge2" class="edge"><title>Node1&#45;&gt;Node2</title>
<path fill="none" stroke="midnightblue" d="M55,-162.198C55,-152.833 55,-143.558 55,-134.693"/>
<polygon fill="none" stroke="midnightblue" points="51.5001,-162.379 55,-172.379 58.5001,-162.379 51.5001,-162.379"/>
</g>
<!-- Node4 -->
<g id="node5" class="node"><title>Node4</title>
<g id="a_node5"><a xlink:href="structopenage_1_1util_1_1tests_1_1testenum.xhtml" target="_top" xlink:title="pxd:">
<polygon fill="white" stroke="black" points="144,-28 144,-107 244,-107 244,-28 144,-28"/>
<text text-anchor="start" x="152" y="-95" font-family="Helvetica,sans-Serif" font-size="10.00">openage::util::tests</text>
<text text-anchor="middle" x="194" y="-84" font-family="Helvetica,sans-Serif" font-size="10.00">::testenum</text>
<polyline fill="none" stroke="black" points="144,-77 244,-77 "/>
<text text-anchor="start" x="152" y="-65" font-family="Helvetica,sans-Serif" font-size="10.00">+ foo</text>
<text text-anchor="start" x="152" y="-54" font-family="Helvetica,sans-Serif" font-size="10.00">+ bar</text>
<polyline fill="none" stroke="black" points="144,-47 244,-47 "/>
<text text-anchor="start" x="152" y="-35" font-family="Helvetica,sans-Serif" font-size="10.00">+ testenum()</text>
</a>
</g>
</g>
<!-- Node3&#45;&gt;Node4 -->
<g id="edge4" class="edge"><title>Node3&#45;&gt;Node4</title>
<path fill="none" stroke="midnightblue" d="M194,-162.346C194,-142.588 194,-123.22 194,-107.258"/>
<polygon fill="none" stroke="midnightblue" points="190.5,-162.379 194,-172.379 197.5,-162.379 190.5,-162.379"/>
</g>
</g>
</svg>
