<?xml version="1.0" encoding="UTF-8" standalone="no"?>
<!DOCTYPE svg PUBLIC "-//W3C//DTD SVG 1.1//EN"
 "http://www.w3.org/Graphics/SVG/1.1/DTD/svg11.dtd">
<!-- Generated by graphviz version 2.38.0 (20140413.2041)
 -->
<!-- Title: openage.cabextract.lzxdstream.LZXDStream.close Pages: 1 -->
<svg width="346pt" height="100pt"
 viewBox="0.00 0.00 346.00 99.50" xmlns="http://www.w3.org/2000/svg" xmlns:xlink="http://www.w3.org/1999/xlink">
<g id="graph0" class="graph" transform="scale(1 1) rotate(0) translate(4 95.5)">
<title>openage.cabextract.lzxdstream.LZXDStream.close</title>
<polygon fill="white" stroke="none" points="-4,4 -4,-95.5 342,-95.5 342,4 -4,4"/>
<!-- Node3 -->
<g id="node1" class="node"><title>Node3</title>
<g id="a_node1"><a xlink:title=" ">
<polygon fill="#bfbfbf" stroke="black" points="182,-33 182,-63 338,-63 338,-33 182,-33"/>
<text text-anchor="start" x="190" y="-51" font-family="Helvetica,sans-Serif" font-size="10.00">openage.cabextract.lzxdstream.</text>
<text text-anchor="middle" x="260" y="-40" font-family="Helvetica,sans-Serif" font-size="10.00">LZXDStream.close</text>
</a>
</g>
</g>
<!-- Node4 -->
<g id="node2" class="node"><title>Node4</title>
<g id="a_node2"><a xlink:href="classopenage_1_1util_1_1filelike_1_1abstract_1_1_file_like_object.xhtml#ac1d75f370298fb63d2a57b60b334fc34" target="_top" xlink:title=" ">
<polygon fill="white" stroke="black" points="3,-61 3,-91 143,-91 143,-61 3,-61"/>
<text text-anchor="start" x="11" y="-79" font-family="Helvetica,sans-Serif" font-size="10.00">openage.util.filelike.abstract.</text>
<text text-anchor="middle" x="73" y="-68" font-family="Helvetica,sans-Serif" font-size="10.00">FileLikeObject.__exit__</text>
</a>
</g>
</g>
<!-- Node3&#45;&gt;Node4 -->
<g id="edge1" class="edge"><title>Node3&#45;&gt;Node4</title>
<path fill="none" stroke="midnightblue" d="M171.85,-61.1902C162.179,-62.654 152.429,-64.1297 143.026,-65.5528"/>
<polygon fill="midnightblue" stroke="midnightblue" points="172.519,-64.6289 181.883,-59.6718 171.472,-57.7077 172.519,-64.6289"/>
</g>
<!-- Node5 -->
<g id="node3" class="node"><title>Node5</title>
<g id="a_node3"><a xlink:href="classopenage_1_1convert_1_1slp__converter__pool_1_1_s_l_p_converter_pool.xhtml#a39703847165efd7f5527553633bd9e91" target="_top" xlink:title=" ">
<polygon fill="white" stroke="black" points="0,-0.5 0,-41.5 146,-41.5 146,-0.5 0,-0.5"/>
<text text-anchor="start" x="8" y="-29.5" font-family="Helvetica,sans-Serif" font-size="10.00">openage.convert.slp</text>
<text text-anchor="start" x="8" y="-18.5" font-family="Helvetica,sans-Serif" font-size="10.00">_converter_pool.SLPConverter</text>
<text text-anchor="middle" x="73" y="-7.5" font-family="Helvetica,sans-Serif" font-size="10.00">Pool.__exit__</text>
</a>
</g>
</g>
<!-- Node3&#45;&gt;Node5 -->
<g id="edge2" class="edge"><title>Node3&#45;&gt;Node5</title>
<path fill="none" stroke="midnightblue" d="M171.864,-35.2829C163.291,-34.0317 154.656,-32.7714 146.255,-31.5453"/>
<polygon fill="midnightblue" stroke="midnightblue" points="171.482,-38.7641 181.883,-36.7451 172.493,-31.8375 171.482,-38.7641"/>
</g>
</g>
</svg>
