<?xml version="1.0" encoding="UTF-8" standalone="no"?>
<!DOCTYPE svg PUBLIC "-//W3C//DTD SVG 1.1//EN"
 "http://www.w3.org/Graphics/SVG/1.1/DTD/svg11.dtd">
<!-- Generated by graphviz version 2.38.0 (20140413.2041)
 -->
<!-- Title: openage::pyinterface::PyObjectRef::getattr Pages: 1 -->
<svg width="262pt" height="39pt"
 viewBox="0.00 0.00 262.00 39.00" xmlns="http://www.w3.org/2000/svg" xmlns:xlink="http://www.w3.org/1999/xlink">
<g id="graph0" class="graph" transform="scale(1 1) rotate(0) translate(4 35)">
<title>openage::pyinterface::PyObjectRef::getattr</title>
<polygon fill="white" stroke="none" points="-4,4 -4,-35 258,-35 258,4 -4,4"/>
<!-- Node95 -->
<g id="node1" class="node"><title>Node95</title>
<g id="a_node1"><a xlink:title="getattr(obj, name)">
<polygon fill="#bfbfbf" stroke="black" points="143,-0.5 143,-30.5 254,-30.5 254,-0.5 143,-0.5"/>
<text text-anchor="start" x="151" y="-18.5" font-family="Helvetica,sans-Serif" font-size="10.00">openage::pyinterface</text>
<text text-anchor="middle" x="198.5" y="-7.5" font-family="Helvetica,sans-Serif" font-size="10.00">::PyObjectRef::getattr</text>
</a>
</g>
</g>
<!-- Node96 -->
<g id="node2" class="node"><title>Node96</title>
<g id="a_node2"><a xlink:href="namespaceopenage_1_1pyinterface_1_1tests.xhtml#ad69d94519ba25682897d8da53beb86df" target="_top" xlink:title=" ">
<polygon fill="white" stroke="black" points="0,-0.5 0,-30.5 107,-30.5 107,-0.5 0,-0.5"/>
<text text-anchor="start" x="8" y="-18.5" font-family="Helvetica,sans-Serif" font-size="10.00">openage::pyinterface</text>
<text text-anchor="middle" x="53.5" y="-7.5" font-family="Helvetica,sans-Serif" font-size="10.00">::tests::pyobject</text>
</a>
</g>
</g>
<!-- Node95&#45;&gt;Node96 -->
<g id="edge1" class="edge"><title>Node95&#45;&gt;Node96</title>
<path fill="none" stroke="midnightblue" d="M132.388,-15.5C123.924,-15.5 115.339,-15.5 107.113,-15.5"/>
<polygon fill="midnightblue" stroke="midnightblue" points="132.621,-19.0001 142.621,-15.5 132.621,-12.0001 132.621,-19.0001"/>
</g>
</g>
</svg>
