<?xml version="1.0" encoding="UTF-8" standalone="no"?>
<!DOCTYPE svg PUBLIC "-//W3C//DTD SVG 1.1//EN"
 "http://www.w3.org/Graphics/SVG/1.1/DTD/svg11.dtd">
<!-- Generated by graphviz version 2.38.0 (20140413.2041)
 -->
<!-- Title: openage.convert.gamedata.unit.MissileUnit Pages: 1 -->
<!--zoomable 1153 -->
<svg id="main" version="1.1" xmlns="http://www.w3.org/2000/svg" xmlns:xlink="http://www.w3.org/1999/xlink" xml:space="preserve" onload="init(evt)">
<style type="text/css"><![CDATA[
.edge:hover path { stroke: red; }
.edge:hover polygon { stroke: red; fill: red; }
]]></style>
<script type="text/javascript"><![CDATA[
var edges = document.getElementsByTagName('g');
if (edges && edges.length) {
  for (var i=0;i<edges.length;i++) {
    if (edges[i].id.substr(0,4)=='edge') {
      edges[i].setAttribute('class','edge');
    }
  }
}
]]></script>
        <defs>
                <circle id="rim" cx="0" cy="0" r="7"/>
                <circle id="rim2" cx="0" cy="0" r="3.5"/>
                <g id="zoomPlus">
                        <use xlink:href="#rim" fill="#404040">
                                <set attributeName="fill" to="#808080" begin="zoomplus.mouseover" end="zoomplus.mouseout"/>
                        </use>
                        <path d="M-4,0h8M0,-4v8" fill="none" stroke="white" stroke-width="1.5" pointer-events="none"/>
                </g>
                <g id="zoomMin">
                        <use xlink:href="#rim" fill="#404040">
                                <set attributeName="fill" to="#808080" begin="zoomminus.mouseover" end="zoomminus.mouseout"/>
                        </use>
                        <path d="M-4,0h8" fill="none" stroke="white" stroke-width="1.5" pointer-events="none"/>
                </g>
                <g id="dirArrow">
                        <path fill="none" stroke="white" stroke-width="1.5" d="M0,-3.0v7 M-2.5,-0.5L0,-3.0L2.5,-0.5"/>
                </g>
               <g id="resetDef">
                       <use xlink:href="#rim2" fill="#404040">
                               <set attributeName="fill" to="#808080" begin="reset.mouseover" end="reset.mouseout"/>
                       </use>
               </g>
        </defs>

<script type="text/javascript">
var viewWidth = 195;
var viewHeight = 1153;
var sectionId = 'dynsection-0';
</script>
<script xlink:href="svgpan.js"/>
<svg id="graph" class="graph">
<g id="viewport">
<title>openage.convert.gamedata.unit.MissileUnit</title>
<polygon fill="white" stroke="none" points="-4,4 -4,-1149 191,-1149 191,4 -4,4"/>
<!-- Node0 -->
<g id="node1" class="node"><title>Node0</title>
<g id="a_node1"><a xlink:title=" ">
<polygon fill="#bfbfbf" stroke="black" points="16,-0.5 16,-101.5 171,-101.5 171,-0.5 16,-0.5"/>
<text text-anchor="start" x="24" y="-89.5" font-family="Helvetica,sans-Serif" font-size="10.00">openage.convert.gamedata.unit.</text>
<text text-anchor="middle" x="93.5" y="-78.5" font-family="Helvetica,sans-Serif" font-size="10.00">MissileUnit</text>
<polyline fill="none" stroke="black" points="16,-71.5 171,-71.5 "/>
<text text-anchor="start" x="24" y="-59.5" font-family="Helvetica,sans-Serif" font-size="10.00">+ name_struct</text>
<text text-anchor="start" x="24" y="-48.5" font-family="Helvetica,sans-Serif" font-size="10.00">+ name_struct_file</text>
<text text-anchor="start" x="24" y="-37.5" font-family="Helvetica,sans-Serif" font-size="10.00">+ struct_description</text>
<text text-anchor="start" x="24" y="-26.5" font-family="Helvetica,sans-Serif" font-size="10.00">+ data_format</text>
<polyline fill="none" stroke="black" points="16,-19.5 171,-19.5 "/>
<text text-anchor="middle" x="93.5" y="-7.5" font-family="Helvetica,sans-Serif" font-size="10.00"> </text>
</a>
</g>
</g>
<!-- Node1 -->
<g id="node2" class="node"><title>Node1</title>
<g id="a_node2"><a xlink:href="classopenage_1_1convert_1_1gamedata_1_1unit_1_1_projectile_unit.xhtml" target="_top" xlink:title=" ">
<polygon fill="white" stroke="black" points="16,-138.5 16,-239.5 171,-239.5 171,-138.5 16,-138.5"/>
<text text-anchor="start" x="24" y="-227.5" font-family="Helvetica,sans-Serif" font-size="10.00">openage.convert.gamedata.unit.</text>
<text text-anchor="middle" x="93.5" y="-216.5" font-family="Helvetica,sans-Serif" font-size="10.00">ProjectileUnit</text>
<polyline fill="none" stroke="black" points="16,-209.5 171,-209.5 "/>
<text text-anchor="start" x="24" y="-197.5" font-family="Helvetica,sans-Serif" font-size="10.00">+ name_struct</text>
<text text-anchor="start" x="24" y="-186.5" font-family="Helvetica,sans-Serif" font-size="10.00">+ name_struct_file</text>
<text text-anchor="start" x="24" y="-175.5" font-family="Helvetica,sans-Serif" font-size="10.00">+ struct_description</text>
<text text-anchor="start" x="24" y="-164.5" font-family="Helvetica,sans-Serif" font-size="10.00">+ data_format</text>
<polyline fill="none" stroke="black" points="16,-157.5 171,-157.5 "/>
<text text-anchor="middle" x="93.5" y="-145.5" font-family="Helvetica,sans-Serif" font-size="10.00"> </text>
</a>
</g>
</g>
<!-- Node1&#45;&gt;Node0 -->
<g id="edge1" class="edge"><title>Node1&#45;&gt;Node0</title>
<path fill="none" stroke="midnightblue" d="M93.5,-128C93.5,-119.271 93.5,-110.363 93.5,-101.863"/>
<polygon fill="none" stroke="midnightblue" points="90.0001,-128.131 93.5,-138.131 97.0001,-128.131 90.0001,-128.131"/>
</g>
<!-- Node2 -->
<g id="node3" class="node"><title>Node2</title>
<g id="a_node3"><a xlink:href="classopenage_1_1convert_1_1gamedata_1_1unit_1_1_action_unit.xhtml" target="_top" xlink:title=" ">
<polygon fill="white" stroke="black" points="16,-276.5 16,-377.5 171,-377.5 171,-276.5 16,-276.5"/>
<text text-anchor="start" x="24" y="-365.5" font-family="Helvetica,sans-Serif" font-size="10.00">openage.convert.gamedata.unit.</text>
<text text-anchor="middle" x="93.5" y="-354.5" font-family="Helvetica,sans-Serif" font-size="10.00">ActionUnit</text>
<polyline fill="none" stroke="black" points="16,-347.5 171,-347.5 "/>
<text text-anchor="start" x="24" y="-335.5" font-family="Helvetica,sans-Serif" font-size="10.00">+ name_struct</text>
<text text-anchor="start" x="24" y="-324.5" font-family="Helvetica,sans-Serif" font-size="10.00">+ name_struct_file</text>
<text text-anchor="start" x="24" y="-313.5" font-family="Helvetica,sans-Serif" font-size="10.00">+ struct_description</text>
<text text-anchor="start" x="24" y="-302.5" font-family="Helvetica,sans-Serif" font-size="10.00">+ data_format</text>
<polyline fill="none" stroke="black" points="16,-295.5 171,-295.5 "/>
<text text-anchor="middle" x="93.5" y="-283.5" font-family="Helvetica,sans-Serif" font-size="10.00"> </text>
</a>
</g>
</g>
<!-- Node2&#45;&gt;Node1 -->
<g id="edge2" class="edge"><title>Node2&#45;&gt;Node1</title>
<path fill="none" stroke="midnightblue" d="M93.5,-266C93.5,-257.271 93.5,-248.363 93.5,-239.863"/>
<polygon fill="none" stroke="midnightblue" points="90.0001,-266.131 93.5,-276.131 97.0001,-266.131 90.0001,-266.131"/>
</g>
<!-- Node3 -->
<g id="node4" class="node"><title>Node3</title>
<g id="a_node4"><a xlink:href="classopenage_1_1convert_1_1gamedata_1_1unit_1_1_moving_unit.xhtml" target="_top" xlink:title=" ">
<polygon fill="white" stroke="black" points="16,-414.5 16,-515.5 171,-515.5 171,-414.5 16,-414.5"/>
<text text-anchor="start" x="24" y="-503.5" font-family="Helvetica,sans-Serif" font-size="10.00">openage.convert.gamedata.unit.</text>
<text text-anchor="middle" x="93.5" y="-492.5" font-family="Helvetica,sans-Serif" font-size="10.00">MovingUnit</text>
<polyline fill="none" stroke="black" points="16,-485.5 171,-485.5 "/>
<text text-anchor="start" x="24" y="-473.5" font-family="Helvetica,sans-Serif" font-size="10.00">+ name_struct</text>
<text text-anchor="start" x="24" y="-462.5" font-family="Helvetica,sans-Serif" font-size="10.00">+ name_struct_file</text>
<text text-anchor="start" x="24" y="-451.5" font-family="Helvetica,sans-Serif" font-size="10.00">+ struct_description</text>
<text text-anchor="start" x="24" y="-440.5" font-family="Helvetica,sans-Serif" font-size="10.00">+ data_format</text>
<polyline fill="none" stroke="black" points="16,-433.5 171,-433.5 "/>
<text text-anchor="middle" x="93.5" y="-421.5" font-family="Helvetica,sans-Serif" font-size="10.00"> </text>
</a>
</g>
</g>
<!-- Node3&#45;&gt;Node2 -->
<g id="edge3" class="edge"><title>Node3&#45;&gt;Node2</title>
<path fill="none" stroke="midnightblue" d="M93.5,-404C93.5,-395.271 93.5,-386.363 93.5,-377.863"/>
<polygon fill="none" stroke="midnightblue" points="90.0001,-404.131 93.5,-414.131 97.0001,-404.131 90.0001,-404.131"/>
</g>
<!-- Node4 -->
<g id="node5" class="node"><title>Node4</title>
<g id="a_node5"><a xlink:href="classopenage_1_1convert_1_1gamedata_1_1unit_1_1_doppelganger_unit.xhtml" target="_top" xlink:title="type_id &gt;= 25">
<polygon fill="white" stroke="black" points="16,-552.5 16,-653.5 171,-653.5 171,-552.5 16,-552.5"/>
<text text-anchor="start" x="24" y="-641.5" font-family="Helvetica,sans-Serif" font-size="10.00">openage.convert.gamedata.unit.</text>
<text text-anchor="middle" x="93.5" y="-630.5" font-family="Helvetica,sans-Serif" font-size="10.00">DoppelgangerUnit</text>
<polyline fill="none" stroke="black" points="16,-623.5 171,-623.5 "/>
<text text-anchor="start" x="24" y="-611.5" font-family="Helvetica,sans-Serif" font-size="10.00">+ name_struct</text>
<text text-anchor="start" x="24" y="-600.5" font-family="Helvetica,sans-Serif" font-size="10.00">+ name_struct_file</text>
<text text-anchor="start" x="24" y="-589.5" font-family="Helvetica,sans-Serif" font-size="10.00">+ struct_description</text>
<text text-anchor="start" x="24" y="-578.5" font-family="Helvetica,sans-Serif" font-size="10.00">+ data_format</text>
<polyline fill="none" stroke="black" points="16,-571.5 171,-571.5 "/>
<text text-anchor="middle" x="93.5" y="-559.5" font-family="Helvetica,sans-Serif" font-size="10.00"> </text>
</a>
</g>
</g>
<!-- Node4&#45;&gt;Node3 -->
<g id="edge4" class="edge"><title>Node4&#45;&gt;Node3</title>
<path fill="none" stroke="midnightblue" d="M93.5,-542C93.5,-533.271 93.5,-524.363 93.5,-515.863"/>
<polygon fill="none" stroke="midnightblue" points="90.0001,-542.131 93.5,-552.131 97.0001,-542.131 90.0001,-542.131"/>
</g>
<!-- Node5 -->
<g id="node6" class="node"><title>Node5</title>
<g id="a_node6"><a xlink:href="classopenage_1_1convert_1_1gamedata_1_1unit_1_1_animated_unit.xhtml" target="_top" xlink:title=" ">
<polygon fill="white" stroke="black" points="16,-690.5 16,-791.5 171,-791.5 171,-690.5 16,-690.5"/>
<text text-anchor="start" x="24" y="-779.5" font-family="Helvetica,sans-Serif" font-size="10.00">openage.convert.gamedata.unit.</text>
<text text-anchor="middle" x="93.5" y="-768.5" font-family="Helvetica,sans-Serif" font-size="10.00">AnimatedUnit</text>
<polyline fill="none" stroke="black" points="16,-761.5 171,-761.5 "/>
<text text-anchor="start" x="24" y="-749.5" font-family="Helvetica,sans-Serif" font-size="10.00">+ name_struct</text>
<text text-anchor="start" x="24" y="-738.5" font-family="Helvetica,sans-Serif" font-size="10.00">+ name_struct_file</text>
<text text-anchor="start" x="24" y="-727.5" font-family="Helvetica,sans-Serif" font-size="10.00">+ struct_description</text>
<text text-anchor="start" x="24" y="-716.5" font-family="Helvetica,sans-Serif" font-size="10.00">+ data_format</text>
<polyline fill="none" stroke="black" points="16,-709.5 171,-709.5 "/>
<text text-anchor="middle" x="93.5" y="-697.5" font-family="Helvetica,sans-Serif" font-size="10.00"> </text>
</a>
</g>
</g>
<!-- Node5&#45;&gt;Node4 -->
<g id="edge5" class="edge"><title>Node5&#45;&gt;Node4</title>
<path fill="none" stroke="midnightblue" d="M93.5,-680C93.5,-671.271 93.5,-662.363 93.5,-653.863"/>
<polygon fill="none" stroke="midnightblue" points="90.0001,-680.131 93.5,-690.131 97.0001,-680.131 90.0001,-680.131"/>
</g>
<!-- Node6 -->
<g id="node7" class="node"><title>Node6</title>
<g id="a_node7"><a xlink:href="classopenage_1_1convert_1_1gamedata_1_1unit_1_1_unit_object.xhtml" target="_top" xlink:title="base properties for every unit entry.">
<polygon fill="white" stroke="black" points="16,-828.5 16,-929.5 171,-929.5 171,-828.5 16,-828.5"/>
<text text-anchor="start" x="24" y="-917.5" font-family="Helvetica,sans-Serif" font-size="10.00">openage.convert.gamedata.unit.</text>
<text text-anchor="middle" x="93.5" y="-906.5" font-family="Helvetica,sans-Serif" font-size="10.00">UnitObject</text>
<polyline fill="none" stroke="black" points="16,-899.5 171,-899.5 "/>
<text text-anchor="start" x="24" y="-887.5" font-family="Helvetica,sans-Serif" font-size="10.00">+ name_struct</text>
<text text-anchor="start" x="24" y="-876.5" font-family="Helvetica,sans-Serif" font-size="10.00">+ name_struct_file</text>
<text text-anchor="start" x="24" y="-865.5" font-family="Helvetica,sans-Serif" font-size="10.00">+ struct_description</text>
<text text-anchor="start" x="24" y="-854.5" font-family="Helvetica,sans-Serif" font-size="10.00">+ data_format</text>
<polyline fill="none" stroke="black" points="16,-847.5 171,-847.5 "/>
<text text-anchor="middle" x="93.5" y="-835.5" font-family="Helvetica,sans-Serif" font-size="10.00"> </text>
</a>
</g>
</g>
<!-- Node6&#45;&gt;Node5 -->
<g id="edge6" class="edge"><title>Node6&#45;&gt;Node5</title>
<path fill="none" stroke="midnightblue" d="M93.5,-818C93.5,-809.271 93.5,-800.363 93.5,-791.863"/>
<polygon fill="none" stroke="midnightblue" points="90.0001,-818.131 93.5,-828.131 97.0001,-818.131 90.0001,-818.131"/>
</g>
<!-- Node7 -->
<g id="node8" class="node"><title>Node7</title>
<g id="a_node8"><a xlink:href="classopenage_1_1convert_1_1dataformat_1_1exportable_1_1_exportable.xhtml" target="_top" xlink:title="superclass for all exportable data members">
<polygon fill="white" stroke="black" points="0,-966.5 0,-1144.5 187,-1144.5 187,-966.5 0,-966.5"/>
<text text-anchor="start" x="8" y="-1132.5" font-family="Helvetica,sans-Serif" font-size="10.00">openage.convert.dataformat.exportable.</text>
<text text-anchor="middle" x="93.5" y="-1121.5" font-family="Helvetica,sans-Serif" font-size="10.00">Exportable</text>
<polyline fill="none" stroke="black" points="0,-1114.5 187,-1114.5 "/>
<text text-anchor="start" x="8" y="-1102.5" font-family="Helvetica,sans-Serif" font-size="10.00">+ name_struct</text>
<text text-anchor="start" x="8" y="-1091.5" font-family="Helvetica,sans-Serif" font-size="10.00">+ name_struct_file</text>
<text text-anchor="start" x="8" y="-1080.5" font-family="Helvetica,sans-Serif" font-size="10.00">+ struct_description</text>
<text text-anchor="start" x="8" y="-1069.5" font-family="Helvetica,sans-Serif" font-size="10.00">+ game_versions</text>
<text text-anchor="start" x="8" y="-1058.5" font-family="Helvetica,sans-Serif" font-size="10.00">+ data_format</text>
<polyline fill="none" stroke="black" points="0,-1051.5 187,-1051.5 "/>
<text text-anchor="start" x="8" y="-1039.5" font-family="Helvetica,sans-Serif" font-size="10.00">+ __init__()</text>
<text text-anchor="start" x="8" y="-1028.5" font-family="Helvetica,sans-Serif" font-size="10.00">+ dump()</text>
<text text-anchor="start" x="8" y="-1017.5" font-family="Helvetica,sans-Serif" font-size="10.00">+ read()</text>
<text text-anchor="start" x="8" y="-1006.5" font-family="Helvetica,sans-Serif" font-size="10.00">+ structs()</text>
<text text-anchor="start" x="8" y="-995.5" font-family="Helvetica,sans-Serif" font-size="10.00">+ format_hash()</text>
<text text-anchor="start" x="8" y="-984.5" font-family="Helvetica,sans-Serif" font-size="10.00">+ get_effective_type()</text>
<text text-anchor="start" x="8" y="-973.5" font-family="Helvetica,sans-Serif" font-size="10.00">+ get_data_format()</text>
</a>
</g>
</g>
<!-- Node7&#45;&gt;Node6 -->
<g id="edge7" class="edge"><title>Node7&#45;&gt;Node6</title>
<path fill="none" stroke="midnightblue" d="M93.5,-956.383C93.5,-947.117 93.5,-938.017 93.5,-929.51"/>
<polygon fill="none" stroke="midnightblue" points="90.0001,-956.483 93.5,-966.483 97.0001,-956.483 90.0001,-956.483"/>
</g>
</g>
</svg>
        <g id="navigator" transform="translate(0 0)" fill="#404254">
                <rect fill="#f2f5e9" fill-opacity="0.5" stroke="#606060" stroke-width=".5" x="0" y="0" width="60" height="60"/>
                <use id="zoomplus" xlink:href="#zoomPlus" x="17" y="9" onmousedown="handleZoom(evt,'in')"/>
                <use id="zoomminus" xlink:href="#zoomMin" x="42" y="9" onmousedown="handleZoom(evt,'out')"/>
                <use id="reset" xlink:href="#resetDef" x="30" y="36" onmousedown="handleReset()"/>
                <g id="arrowUp" xlink:href="#dirArrow" transform="translate(30 24)" onmousedown="handlePan(0,-1)">
                  <use xlink:href="#rim" fill="#404040">
                        <set attributeName="fill" to="#808080" begin="arrowUp.mouseover" end="arrowUp.mouseout"/>
                  </use>
                  <path fill="none" stroke="white" stroke-width="1.5" d="M0,-3.0v7 M-2.5,-0.5L0,-3.0L2.5,-0.5"/>
                </g>
                <g id="arrowRight" xlink:href="#dirArrow" transform="rotate(90) translate(36 -43)" onmousedown="handlePan(1,0)">
                  <use xlink:href="#rim" fill="#404040">
                        <set attributeName="fill" to="#808080" begin="arrowRight.mouseover" end="arrowRight.mouseout"/>
                  </use>
                  <path fill="none" stroke="white" stroke-width="1.5" d="M0,-3.0v7 M-2.5,-0.5L0,-3.0L2.5,-0.5"/>
                </g>
                <g id="arrowDown" xlink:href="#dirArrow" transform="rotate(180) translate(-30 -48)" onmousedown="handlePan(0,1)">
                  <use xlink:href="#rim" fill="#404040">
                        <set attributeName="fill" to="#808080" begin="arrowDown.mouseover" end="arrowDown.mouseout"/>
                  </use>
                  <path fill="none" stroke="white" stroke-width="1.5" d="M0,-3.0v7 M-2.5,-0.5L0,-3.0L2.5,-0.5"/>
                </g>
                <g id="arrowLeft" xlink:href="#dirArrow" transform="rotate(270) translate(-36 17)" onmousedown="handlePan(-1,0)">
                  <use xlink:href="#rim" fill="#404040">
                        <set attributeName="fill" to="#808080" begin="arrowLeft.mouseover" end="arrowLeft.mouseout"/>
                  </use>
                  <path fill="none" stroke="white" stroke-width="1.5" d="M0,-3.0v7 M-2.5,-0.5L0,-3.0L2.5,-0.5"/>
                </g>
        </g>
        <svg viewBox="0 0 15 15" width="100%" height="30px" preserveAspectRatio="xMaxYMin meet">
         <g id="arrow_out" transform="scale(0.3 0.3)">
          <a xlink:href="classopenage_1_1convert_1_1gamedata_1_1unit_1_1_missile_unit__inherit__graph_org.svg" target="_base">
           <rect id="button" ry="5" rx="5" y="6" x="6" height="38" width="38"
                fill="#f2f5e9" fill-opacity="0.5" stroke="#606060" stroke-width="1.0"/>
           <path id="arrow"
             d="M 11.500037,31.436501 C 11.940474,20.09759 22.043105,11.32322 32.158766,21.979434 L 37.068811,17.246167 C 37.068811,17.246167 37.088388,32 37.088388,32 L 22.160133,31.978069 C 22.160133,31.978069 26.997745,27.140456 26.997745,27.140456 C 18.528582,18.264221 13.291696,25.230495 11.500037,31.436501 z"
             style="fill:#404040;"/>
          </a>
         </g>
        </svg>
</svg>
