<?xml version="1.0" encoding="UTF-8" standalone="no"?>
<!DOCTYPE svg PUBLIC "-//W3C//DTD SVG 1.1//EN"
 "http://www.w3.org/Graphics/SVG/1.1/DTD/svg11.dtd">
<!-- Generated by graphviz version 2.38.0 (20140413.2041)
 -->
<!-- Title: openage::curve::KeyframeContainer::KeyframeContainer Pages: 1 -->
<svg width="403pt" height="88pt"
 viewBox="0.00 0.00 403.00 88.00" xmlns="http://www.w3.org/2000/svg" xmlns:xlink="http://www.w3.org/1999/xlink">
<g id="graph0" class="graph" transform="scale(1 1) rotate(0) translate(4 84)">
<title>openage::curve::KeyframeContainer::KeyframeContainer</title>
<polygon fill="white" stroke="none" points="-4,4 -4,-84 399,-84 399,4 -4,4"/>
<!-- Node0 -->
<g id="node1" class="node"><title>Node0</title>
<g id="a_node1"><a xlink:title="need the datamanger for change management">
<polygon fill="#bfbfbf" stroke="black" points="0,-24.5 0,-54.5 146,-54.5 146,-24.5 0,-24.5"/>
<text text-anchor="start" x="8" y="-42.5" font-family="Helvetica,sans-Serif" font-size="10.00">openage::curve::Keyframe</text>
<text text-anchor="middle" x="73" y="-31.5" font-family="Helvetica,sans-Serif" font-size="10.00">Container::KeyframeContainer</text>
</a>
</g>
</g>
<!-- Node1 -->
<g id="node2" class="node"><title>Node1</title>
<g id="a_node2"><a xlink:href="namespacestd.xhtml#a34591a1d8ee5da3f16f56554590d5e16" target="_top" xlink:title=" ">
<polygon fill="white" stroke="black" points="182,-30 182,-49 234,-49 234,-30 182,-30"/>
<text text-anchor="middle" x="208" y="-37" font-family="Helvetica,sans-Serif" font-size="10.00">std::min</text>
</a>
</g>
</g>
<!-- Node0&#45;&gt;Node1 -->
<g id="edge1" class="edge"><title>Node0&#45;&gt;Node1</title>
<path fill="none" stroke="midnightblue" d="M146.338,-39.5C155.134,-39.5 163.793,-39.5 171.693,-39.5"/>
<polygon fill="midnightblue" stroke="midnightblue" points="171.936,-43.0001 181.936,-39.5 171.936,-36.0001 171.936,-43.0001"/>
</g>
<!-- Node2 -->
<g id="node3" class="node"><title>Node2</title>
<g id="a_node3"><a xlink:href="classopenage_1_1util_1_1_fixed_point.xhtml#aa01c403263c2142c0ce9ce40cde89066" target="_top" xlink:title="Factory function to construct a fixed&#45;point number with a given raw value.">
<polygon fill="white" stroke="black" points="270,-49.5 270,-79.5 395,-79.5 395,-49.5 270,-49.5"/>
<text text-anchor="start" x="278" y="-67.5" font-family="Helvetica,sans-Serif" font-size="10.00">openage::util::FixedPoint</text>
<text text-anchor="middle" x="332.5" y="-56.5" font-family="Helvetica,sans-Serif" font-size="10.00">::from_raw_value</text>
</a>
</g>
</g>
<!-- Node1&#45;&gt;Node2 -->
<g id="edge2" class="edge"><title>Node1&#45;&gt;Node2</title>
<path fill="none" stroke="midnightblue" d="M234.085,-44.6195C241.745,-46.1826 250.579,-47.9856 259.737,-49.8546"/>
<polygon fill="midnightblue" stroke="midnightblue" points="259.264,-53.3299 269.761,-51.9003 260.663,-46.4713 259.264,-53.3299"/>
</g>
<!-- Node3 -->
<g id="node4" class="node"><title>Node3</title>
<g id="a_node4"><a xlink:href="classopenage_1_1util_1_1_fixed_point.xhtml#affe7a3ec44c6f7ac96312875af742f87" target="_top" xlink:title="Converter to retrieve the raw value of the fixed&#45;point number.">
<polygon fill="white" stroke="black" points="270,-0.5 270,-30.5 395,-30.5 395,-0.5 270,-0.5"/>
<text text-anchor="start" x="278" y="-18.5" font-family="Helvetica,sans-Serif" font-size="10.00">openage::util::FixedPoint</text>
<text text-anchor="middle" x="332.5" y="-7.5" font-family="Helvetica,sans-Serif" font-size="10.00">::get_raw_value</text>
</a>
</g>
</g>
<!-- Node1&#45;&gt;Node3 -->
<g id="edge3" class="edge"><title>Node1&#45;&gt;Node3</title>
<path fill="none" stroke="midnightblue" d="M234.085,-34.5853C241.745,-33.0847 250.579,-31.3538 259.737,-29.5596"/>
<polygon fill="midnightblue" stroke="midnightblue" points="260.621,-32.9531 269.761,-27.5957 259.275,-26.0837 260.621,-32.9531"/>
</g>
</g>
</svg>
