<?xml version="1.0" encoding="UTF-8" standalone="no"?>
<!DOCTYPE svg PUBLIC "-//W3C//DTD SVG 1.1//EN"
 "http://www.w3.org/Graphics/SVG/1.1/DTD/svg11.dtd">
<!-- Generated by graphviz version 2.38.0 (20140413.2041)
 -->
<!-- Title: openage::input::InputManager::set_bind Pages: 1 -->
<svg width="561pt" height="115pt"
 viewBox="0.00 0.00 561.00 115.00" xmlns="http://www.w3.org/2000/svg" xmlns:xlink="http://www.w3.org/1999/xlink">
<g id="graph0" class="graph" transform="scale(1 1) rotate(0) translate(4 111)">
<title>openage::input::InputManager::set_bind</title>
<polygon fill="white" stroke="none" points="-4,4 -4,-111 557,-111 557,4 -4,4"/>
<!-- Node176 -->
<g id="node1" class="node"><title>Node176</title>
<g id="a_node1"><a xlink:title=" ">
<polygon fill="#bfbfbf" stroke="black" points="0,-55 0,-85 145,-85 145,-55 0,-55"/>
<text text-anchor="start" x="8" y="-73" font-family="Helvetica,sans-Serif" font-size="10.00">openage::input::InputManager</text>
<text text-anchor="middle" x="72.5" y="-62" font-family="Helvetica,sans-Serif" font-size="10.00">::set_bind</text>
</a>
</g>
</g>
<!-- Node177 -->
<g id="node2" class="node"><title>Node177</title>
<g id="a_node2"><a xlink:href="classopenage_1_1input_1_1_action_manager.xhtml#a743f9d44332f84adb3eca195732ed09d" target="_top" xlink:title=" ">
<polygon fill="white" stroke="black" points="382,-87.5 382,-106.5 553,-106.5 553,-87.5 382,-87.5"/>
<text text-anchor="middle" x="467.5" y="-94.5" font-family="Helvetica,sans-Serif" font-size="10.00">openage::input::ActionManager::get</text>
</a>
</g>
</g>
<!-- Node176&#45;&gt;Node177 -->
<g id="edge1" class="edge"><title>Node176&#45;&gt;Node177</title>
<path fill="none" stroke="midnightblue" d="M145.288,-84.1925C157.176,-86.1093 169.404,-87.8193 181,-89 244.39,-95.4548 316.078,-97.4452 371.76,-97.8267"/>
<polygon fill="midnightblue" stroke="midnightblue" points="371.948,-101.328 381.966,-97.8799 371.984,-94.3277 371.948,-101.328"/>
</g>
<!-- Node178 -->
<g id="node3" class="node"><title>Node178</title>
<g id="a_node3"><a xlink:href="classopenage_1_1input_1_1_action_manager.xhtml#a252869fbc85be3b450eb290794352ba4" target="_top" xlink:title=" ">
<polygon fill="white" stroke="black" points="181,-60.5 181,-79.5 346,-79.5 346,-60.5 181,-60.5"/>
<text text-anchor="middle" x="263.5" y="-67.5" font-family="Helvetica,sans-Serif" font-size="10.00">openage::input::ActionManager::is</text>
</a>
</g>
</g>
<!-- Node176&#45;&gt;Node178 -->
<g id="edge2" class="edge"><title>Node176&#45;&gt;Node178</title>
<path fill="none" stroke="midnightblue" d="M145.222,-70C153.554,-70 162.136,-70 170.689,-70"/>
<polygon fill="midnightblue" stroke="midnightblue" points="170.7,-73.5001 180.699,-70 170.699,-66.5001 170.7,-73.5001"/>
</g>
<!-- Node179 -->
<g id="node4" class="node"><title>Node179</title>
<g id="a_node4"><a xlink:href="namespaceopenage_1_1input.xhtml#a910f68a5c426735a2b353eefa6229348" target="_top" xlink:title=" ">
<polygon fill="white" stroke="black" points="212,-11 212,-41 315,-41 315,-11 212,-11"/>
<text text-anchor="start" x="220" y="-29" font-family="Helvetica,sans-Serif" font-size="10.00">openage::input::text</text>
<text text-anchor="middle" x="263.5" y="-18" font-family="Helvetica,sans-Serif" font-size="10.00">_to_event</text>
</a>
</g>
</g>
<!-- Node176&#45;&gt;Node179 -->
<g id="edge4" class="edge"><title>Node176&#45;&gt;Node179</title>
<path fill="none" stroke="midnightblue" d="M138.014,-54.9808C158.784,-50.1456 181.709,-44.8086 202.165,-40.0462"/>
<polygon fill="midnightblue" stroke="midnightblue" points="203.043,-43.4355 211.989,-37.7591 201.456,-36.6178 203.043,-43.4355"/>
</g>
<!-- Node178&#45;&gt;Node177 -->
<g id="edge3" class="edge"><title>Node178&#45;&gt;Node177</title>
<path fill="none" stroke="midnightblue" d="M335.718,-79.5192C351.709,-81.6566 368.794,-83.9402 385.162,-86.1281"/>
<polygon fill="midnightblue" stroke="midnightblue" points="384.869,-89.62 395.245,-87.4758 385.796,-82.6817 384.869,-89.62"/>
</g>
<!-- Node180 -->
<g id="node5" class="node"><title>Node180</title>
<g id="a_node5"><a xlink:href="namespaceopenage_1_1log.xhtml#a325b0901ddb3f2af36f93781b7dd9744" target="_top" xlink:title="error message">
<polygon fill="white" stroke="black" points="426,-38.5 426,-57.5 509,-57.5 509,-38.5 426,-38.5"/>
<text text-anchor="middle" x="467.5" y="-45.5" font-family="Helvetica,sans-Serif" font-size="10.00">openage.log.err</text>
</a>
</g>
</g>
<!-- Node179&#45;&gt;Node180 -->
<g id="edge5" class="edge"><title>Node179&#45;&gt;Node180</title>
<path fill="none" stroke="midnightblue" d="M315.212,-31.5231C345.977,-34.8737 385.099,-39.1345 415.852,-42.4838"/>
<polygon fill="midnightblue" stroke="midnightblue" points="415.616,-45.9788 425.936,-43.5821 416.374,-39.0199 415.616,-45.9788"/>
</g>
<!-- Node181 -->
<g id="node6" class="node"><title>Node181</title>
<g id="a_node6"><a xlink:href="namespaceopenage_1_1util.xhtml#a7e483e123bf554b630319eb3dd012c02" target="_top" xlink:title=" ">
<polygon fill="white" stroke="black" points="419,-0.5 419,-19.5 516,-19.5 516,-0.5 419,-0.5"/>
<text text-anchor="middle" x="467.5" y="-7.5" font-family="Helvetica,sans-Serif" font-size="10.00">openage::util::mod</text>
</a>
</g>
</g>
<!-- Node179&#45;&gt;Node181 -->
<g id="edge6" class="edge"><title>Node179&#45;&gt;Node181</title>
<path fill="none" stroke="midnightblue" d="M315.212,-21.9832C343.648,-19.7309 379.223,-16.913 408.73,-14.5758"/>
<polygon fill="midnightblue" stroke="midnightblue" points="409.2,-18.0497 418.893,-13.7709 408.647,-11.0715 409.2,-18.0497"/>
</g>
</g>
</svg>
