<?xml version="1.0" encoding="UTF-8" standalone="no"?>
<!DOCTYPE svg PUBLIC "-//W3C//DTD SVG 1.1//EN"
 "http://www.w3.org/Graphics/SVG/1.1/DTD/svg11.dtd">
<!-- Generated by graphviz version 2.38.0 (20140413.2041)
 -->
<!-- Title: qtsdl::GameLogicCaller::set_game_logic_callback Pages: 1 -->
<svg width="1166pt" height="88pt"
 viewBox="0.00 0.00 1166.00 88.00" xmlns="http://www.w3.org/2000/svg" xmlns:xlink="http://www.w3.org/1999/xlink">
<g id="graph0" class="graph" transform="scale(1 1) rotate(0) translate(4 84)">
<title>qtsdl::GameLogicCaller::set_game_logic_callback</title>
<polygon fill="white" stroke="none" points="-4,4 -4,-84 1162,-84 1162,4 -4,4"/>
<!-- Node26 -->
<g id="node1" class="node"><title>Node26</title>
<g id="a_node1"><a xlink:title="Set up signal to be able to run code in the game logic thread.">
<polygon fill="#bfbfbf" stroke="black" points="1026,-24.5 1026,-54.5 1158,-54.5 1158,-24.5 1026,-24.5"/>
<text text-anchor="start" x="1034" y="-42.5" font-family="Helvetica,sans-Serif" font-size="10.00">qtsdl::GameLogicCaller</text>
<text text-anchor="middle" x="1092" y="-31.5" font-family="Helvetica,sans-Serif" font-size="10.00">::set_game_logic_callback</text>
</a>
</g>
</g>
<!-- Node27 -->
<g id="node2" class="node"><title>Node27</title>
<g id="a_node2"><a xlink:href="classqtsdl_1_1_gui_item_base.xhtml#a0567d09e763a08648aad1675201b75b8" target="_top" xlink:title="Set up signal to be able to run code in the game logic thread.">
<polygon fill="white" stroke="black" points="858,-24.5 858,-54.5 990,-54.5 990,-24.5 858,-24.5"/>
<text text-anchor="start" x="866" y="-42.5" font-family="Helvetica,sans-Serif" font-size="10.00">qtsdl::GuiItemBase</text>
<text text-anchor="middle" x="924" y="-31.5" font-family="Helvetica,sans-Serif" font-size="10.00">::set_game_logic_callback</text>
</a>
</g>
</g>
<!-- Node26&#45;&gt;Node27 -->
<g id="edge1" class="edge"><title>Node26&#45;&gt;Node27</title>
<path fill="none" stroke="midnightblue" d="M1015.61,-39.5C1007.13,-39.5 998.548,-39.5 990.216,-39.5"/>
<polygon fill="midnightblue" stroke="midnightblue" points="1015.87,-43.0001 1025.87,-39.5 1015.87,-36.0001 1015.87,-43.0001"/>
</g>
<!-- Node28 -->
<g id="node3" class="node"><title>Node28</title>
<g id="a_node3"><a xlink:href="classqtsdl_1_1_gui_subtree_impl.xhtml#a766c2b35a935c60fcbfcc6758d908ecb" target="_top" xlink:title=" ">
<polygon fill="white" stroke="black" points="709,-24.5 709,-54.5 822,-54.5 822,-24.5 709,-24.5"/>
<text text-anchor="start" x="717" y="-42.5" font-family="Helvetica,sans-Serif" font-size="10.00">qtsdl::GuiSubtreeImpl</text>
<text text-anchor="middle" x="765.5" y="-31.5" font-family="Helvetica,sans-Serif" font-size="10.00">::init_persistent_items</text>
</a>
</g>
</g>
<!-- Node27&#45;&gt;Node28 -->
<g id="edge2" class="edge"><title>Node27&#45;&gt;Node28</title>
<path fill="none" stroke="midnightblue" d="M847.853,-39.5C839.176,-39.5 830.449,-39.5 822.098,-39.5"/>
<polygon fill="midnightblue" stroke="midnightblue" points="847.99,-43.0001 857.99,-39.5 847.989,-36.0001 847.99,-43.0001"/>
</g>
<!-- Node29 -->
<g id="node4" class="node"><title>Node29</title>
<g id="a_node4"><a xlink:href="classqtsdl_1_1_gui_subtree_impl.xhtml#aed216357736342148f86afb0d73f3fdd" target="_top" xlink:title=" ">
<polygon fill="white" stroke="black" points="528,-24.5 528,-54.5 673,-54.5 673,-24.5 528,-24.5"/>
<text text-anchor="start" x="536" y="-42.5" font-family="Helvetica,sans-Serif" font-size="10.00">qtsdl::GuiSubtreeImpl</text>
<text text-anchor="middle" x="600.5" y="-31.5" font-family="Helvetica,sans-Serif" font-size="10.00">::component_status_changed</text>
</a>
</g>
</g>
<!-- Node28&#45;&gt;Node29 -->
<g id="edge3" class="edge"><title>Node28&#45;&gt;Node29</title>
<path fill="none" stroke="midnightblue" d="M698.696,-39.5C690.247,-39.5 681.564,-39.5 673.028,-39.5"/>
<polygon fill="midnightblue" stroke="midnightblue" points="698.861,-43.0001 708.861,-39.5 698.861,-36.0001 698.861,-43.0001"/>
</g>
<!-- Node30 -->
<g id="node5" class="node"><title>Node30</title>
<g id="a_node5"><a xlink:href="classqtsdl_1_1_gui_subtree_impl.xhtml#aea9b559c07846786ebcf6c41ef58ff78" target="_top" xlink:title=" ">
<polygon fill="white" stroke="black" points="382,-49.5 382,-79.5 492,-79.5 492,-49.5 382,-49.5"/>
<text text-anchor="start" x="390" y="-67.5" font-family="Helvetica,sans-Serif" font-size="10.00">qtsdl::GuiSubtreeImpl</text>
<text text-anchor="middle" x="437" y="-56.5" font-family="Helvetica,sans-Serif" font-size="10.00">::onEngineReloaded</text>
</a>
</g>
</g>
<!-- Node29&#45;&gt;Node30 -->
<g id="edge4" class="edge"><title>Node29&#45;&gt;Node30</title>
<path fill="none" stroke="midnightblue" d="M517.59,-52.1795C508.946,-53.5177 500.318,-54.8532 492.105,-56.1246"/>
<polygon fill="midnightblue" stroke="midnightblue" points="518.376,-55.5996 527.723,-50.611 517.305,-48.682 518.376,-55.5996"/>
</g>
<!-- Node33 -->
<g id="node8" class="node"><title>Node33</title>
<g id="a_node8"><a xlink:href="classqtsdl_1_1_gui_subtree_impl.xhtml#a903d02ad6f5349af96add80f99ddf345" target="_top" xlink:title=" ">
<polygon fill="white" stroke="black" points="382,-0.5 382,-30.5 492,-30.5 492,-0.5 382,-0.5"/>
<text text-anchor="start" x="390" y="-18.5" font-family="Helvetica,sans-Serif" font-size="10.00">qtsdl::GuiSubtreeImpl</text>
<text text-anchor="middle" x="437" y="-7.5" font-family="Helvetica,sans-Serif" font-size="10.00">::attach_to</text>
</a>
</g>
</g>
<!-- Node29&#45;&gt;Node33 -->
<g id="edge7" class="edge"><title>Node29&#45;&gt;Node33</title>
<path fill="none" stroke="midnightblue" d="M517.59,-27.3277C508.946,-26.043 500.318,-24.7609 492.105,-23.5404"/>
<polygon fill="midnightblue" stroke="midnightblue" points="517.317,-30.8255 527.723,-28.8335 518.346,-23.9015 517.317,-30.8255"/>
</g>
<!-- Node31 -->
<g id="node6" class="node"><title>Node31</title>
<g id="a_node6"><a xlink:href="classqtsdl_1_1_gui_engine_impl_connection.xhtml#ac2ef61bcd0cdb991b399a29eeb5ec74c" target="_top" xlink:title=" ">
<polygon fill="white" stroke="black" points="191,-49.5 191,-79.5 346,-79.5 346,-49.5 191,-49.5"/>
<text text-anchor="start" x="199" y="-67.5" font-family="Helvetica,sans-Serif" font-size="10.00">qtsdl::GuiEngineImplConnection</text>
<text text-anchor="middle" x="268.5" y="-56.5" font-family="Helvetica,sans-Serif" font-size="10.00">::disconnect</text>
</a>
</g>
</g>
<!-- Node30&#45;&gt;Node31 -->
<g id="edge5" class="edge"><title>Node30&#45;&gt;Node31</title>
<path fill="none" stroke="midnightblue" d="M371.876,-64.5C363.492,-64.5 354.835,-64.5 346.27,-64.5"/>
<polygon fill="midnightblue" stroke="midnightblue" points="371.942,-68.0001 381.942,-64.5 371.942,-61.0001 371.942,-68.0001"/>
</g>
<!-- Node32 -->
<g id="node7" class="node"><title>Node32</title>
<g id="a_node7"><a xlink:href="classqtsdl_1_1_gui_engine_impl_connection.xhtml#a838d04049e7a234096ddc630de0fee59" target="_top" xlink:title=" ">
<polygon fill="white" stroke="black" points="0,-49.5 0,-79.5 155,-79.5 155,-49.5 0,-49.5"/>
<text text-anchor="start" x="8" y="-67.5" font-family="Helvetica,sans-Serif" font-size="10.00">qtsdl::GuiEngineImplConnection</text>
<text text-anchor="middle" x="77.5" y="-56.5" font-family="Helvetica,sans-Serif" font-size="10.00">::~GuiEngineImplConnection</text>
</a>
</g>
</g>
<!-- Node31&#45;&gt;Node32 -->
<g id="edge6" class="edge"><title>Node31&#45;&gt;Node32</title>
<path fill="none" stroke="midnightblue" d="M180.896,-64.5C172.326,-64.5 163.67,-64.5 155.21,-64.5"/>
<polygon fill="midnightblue" stroke="midnightblue" points="180.899,-68.0001 190.899,-64.5 180.899,-61.0001 180.899,-68.0001"/>
</g>
</g>
</svg>
