<?xml version="1.0" encoding="UTF-8" standalone="no"?>
<!DOCTYPE svg PUBLIC "-//W3C//DTD SVG 1.1//EN"
 "http://www.w3.org/Graphics/SVG/1.1/DTD/svg11.dtd">
<!-- Generated by graphviz version 2.38.0 (20140413.2041)
 -->
<!-- Title: openage::TerrainObject::move Pages: 1 -->
<svg width="704pt" height="176pt"
 viewBox="0.00 0.00 704.00 176.00" xmlns="http://www.w3.org/2000/svg" xmlns:xlink="http://www.w3.org/1999/xlink">
<g id="graph0" class="graph" transform="scale(1 1) rotate(0) translate(4 172)">
<title>openage::TerrainObject::move</title>
<polygon fill="white" stroke="none" points="-4,4 -4,-172 700,-172 700,4 -4,4"/>
<!-- Node105 -->
<g id="node1" class="node"><title>Node105</title>
<g id="a_node1"><a xlink:title="moves the object – returns false if object cannot be moved here">
<polygon fill="#bfbfbf" stroke="black" points="0,-89.5 0,-119.5 117,-119.5 117,-89.5 0,-89.5"/>
<text text-anchor="start" x="8" y="-107.5" font-family="Helvetica,sans-Serif" font-size="10.00">openage::TerrainObject</text>
<text text-anchor="middle" x="58.5" y="-96.5" font-family="Helvetica,sans-Serif" font-size="10.00">::move</text>
</a>
</g>
</g>
<!-- Node106 -->
<g id="node2" class="node"><title>Node106</title>
<g id="a_node2"><a xlink:href="classopenage_1_1_terrain_object.xhtml#a170289794bdd31d673ffb3aca873bb1d" target="_top" xlink:title=" ">
<polygon fill="white" stroke="black" points="306,-137.5 306,-167.5 423,-167.5 423,-137.5 306,-137.5"/>
<text text-anchor="start" x="314" y="-155.5" font-family="Helvetica,sans-Serif" font-size="10.00">openage::TerrainObject</text>
<text text-anchor="middle" x="364.5" y="-144.5" font-family="Helvetica,sans-Serif" font-size="10.00">::get_terrain</text>
</a>
</g>
</g>
<!-- Node105&#45;&gt;Node106 -->
<g id="edge1" class="edge"><title>Node105&#45;&gt;Node106</title>
<path fill="none" stroke="midnightblue" d="M110.13,-119.544C123.937,-123.233 138.961,-126.872 153,-129.5 200.403,-138.373 254.499,-144.192 295.982,-147.757"/>
<polygon fill="midnightblue" stroke="midnightblue" points="295.717,-151.247 305.975,-148.593 296.301,-144.272 295.717,-151.247"/>
</g>
<!-- Node107 -->
<g id="node3" class="node"><title>Node107</title>
<g id="a_node3"><a xlink:href="classopenage_1_1_terrain_object.xhtml#af781d73de8772dfe4454e75eb96d104c" target="_top" xlink:title="placement function which does not check passibility used only when passibilty is already checked othe...">
<polygon fill="white" stroke="black" points="153,-89.5 153,-119.5 270,-119.5 270,-89.5 153,-89.5"/>
<text text-anchor="start" x="161" y="-107.5" font-family="Helvetica,sans-Serif" font-size="10.00">openage::TerrainObject</text>
<text text-anchor="middle" x="211.5" y="-96.5" font-family="Helvetica,sans-Serif" font-size="10.00">::place_unchecked</text>
</a>
</g>
</g>
<!-- Node105&#45;&gt;Node107 -->
<g id="edge2" class="edge"><title>Node105&#45;&gt;Node107</title>
<path fill="none" stroke="midnightblue" d="M117.017,-104.5C125.464,-104.5 134.229,-104.5 142.856,-104.5"/>
<polygon fill="midnightblue" stroke="midnightblue" points="142.893,-108 152.893,-104.5 142.892,-101 142.893,-108"/>
</g>
<!-- Node113 -->
<g id="node9" class="node"><title>Node113</title>
<g id="a_node9"><a xlink:href="classopenage_1_1_terrain_object.xhtml#af24e842fc429a5dbb73c12abcb9c3378" target="_top" xlink:title="remove this TerrainObject from the terrain chunks.">
<polygon fill="white" stroke="black" points="153,-40.5 153,-70.5 270,-70.5 270,-40.5 153,-40.5"/>
<text text-anchor="start" x="161" y="-58.5" font-family="Helvetica,sans-Serif" font-size="10.00">openage::TerrainObject</text>
<text text-anchor="middle" x="211.5" y="-47.5" font-family="Helvetica,sans-Serif" font-size="10.00">::remove</text>
</a>
</g>
</g>
<!-- Node105&#45;&gt;Node113 -->
<g id="edge9" class="edge"><title>Node105&#45;&gt;Node113</title>
<path fill="none" stroke="midnightblue" d="M106.037,-89.3986C121.322,-84.4385 138.474,-78.8726 154.392,-73.7071"/>
<polygon fill="midnightblue" stroke="midnightblue" points="155.685,-76.9673 164.117,-70.5516 153.525,-70.3091 155.685,-76.9673"/>
</g>
<!-- Node107&#45;&gt;Node106 -->
<g id="edge5" class="edge"><title>Node107&#45;&gt;Node106</title>
<path fill="none" stroke="midnightblue" d="M259.863,-119.556C274.621,-124.247 291.052,-129.47 306.402,-134.35"/>
<polygon fill="midnightblue" stroke="midnightblue" points="305.715,-137.804 316.305,-137.498 307.835,-131.133 305.715,-137.804"/>
</g>
<!-- Node108 -->
<g id="node4" class="node"><title>Node108</title>
<g id="a_node4"><a xlink:href="classopenage_1_1_terrain_object.xhtml#a1fc44d40095260aca43dd9582c61de97" target="_top" xlink:title="returns the range of tiles covered if the object was in the given pos">
<polygon fill="white" stroke="black" points="306,-88.5 306,-118.5 423,-118.5 423,-88.5 306,-88.5"/>
<text text-anchor="start" x="314" y="-106.5" font-family="Helvetica,sans-Serif" font-size="10.00">openage::TerrainObject</text>
<text text-anchor="middle" x="364.5" y="-95.5" font-family="Helvetica,sans-Serif" font-size="10.00">::get_range</text>
</a>
</g>
</g>
<!-- Node107&#45;&gt;Node108 -->
<g id="edge3" class="edge"><title>Node107&#45;&gt;Node108</title>
<path fill="none" stroke="midnightblue" d="M270.017,-104.119C278.464,-104.063 287.229,-104.005 295.856,-103.948"/>
<polygon fill="midnightblue" stroke="midnightblue" points="295.916,-107.448 305.893,-103.882 295.87,-100.448 295.916,-107.448"/>
</g>
<!-- Node109 -->
<g id="node5" class="node"><title>Node109</title>
<g id="a_node5"><a xlink:href="namespaceopenage.xhtml#a3a0d4d7c2bc234c442c13758d306f60c" target="_top" xlink:title="get all tiles in the tile range – useful for iterating returns a flat list of tiles between the recta...">
<polygon fill="white" stroke="black" points="319.5,-50 319.5,-69 409.5,-69 409.5,-50 319.5,-50"/>
<text text-anchor="middle" x="364.5" y="-57" font-family="Helvetica,sans-Serif" font-size="10.00">openage::tile_list</text>
</a>
</g>
</g>
<!-- Node107&#45;&gt;Node109 -->
<g id="edge4" class="edge"><title>Node107&#45;&gt;Node109</title>
<path fill="none" stroke="midnightblue" d="M263.201,-89.3905C282.286,-83.703 303.749,-77.3067 321.908,-71.8949"/>
<polygon fill="midnightblue" stroke="midnightblue" points="323.037,-75.2107 331.621,-69.0004 321.038,-68.5022 323.037,-75.2107"/>
</g>
<!-- Node110 -->
<g id="node6" class="node"><title>Node110</title>
<g id="a_node6"><a xlink:href="classopenage_1_1_terrain_chunk.xhtml#af163db3fba4ae99206de76666f8424df" target="_top" xlink:title="get tile data by absolute coordinates.">
<polygon fill="white" stroke="black" points="306.5,-0.5 306.5,-30.5 422.5,-30.5 422.5,-0.5 306.5,-0.5"/>
<text text-anchor="start" x="314.5" y="-18.5" font-family="Helvetica,sans-Serif" font-size="10.00">openage::TerrainChunk</text>
<text text-anchor="middle" x="364.5" y="-7.5" font-family="Helvetica,sans-Serif" font-size="10.00">::get_data</text>
</a>
</g>
</g>
<!-- Node107&#45;&gt;Node110 -->
<g id="edge6" class="edge"><title>Node107&#45;&gt;Node110</title>
<path fill="none" stroke="midnightblue" d="M252.944,-89.4801C258.888,-86.553 264.765,-83.2199 270,-79.5 289.229,-65.8371 286.771,-54.1629 306,-40.5 308.536,-38.6982 311.222,-36.9871 313.994,-35.369"/>
<polygon fill="midnightblue" stroke="midnightblue" points="315.89,-38.324 323.056,-30.5199 312.587,-32.152 315.89,-38.324"/>
</g>
<!-- Node111 -->
<g id="node7" class="node"><title>Node111</title>
<g id="a_node7"><a xlink:href="structopenage_1_1coord_1_1tile.xhtml#ab4811e492cabe885d33e85df51ceff83" target="_top" xlink:title=" ">
<polygon fill="white" stroke="black" points="459,-0.5 459,-30.5 563,-30.5 563,-0.5 459,-0.5"/>
<text text-anchor="start" x="467" y="-18.5" font-family="Helvetica,sans-Serif" font-size="10.00">openage::coord::tile</text>
<text text-anchor="middle" x="511" y="-7.5" font-family="Helvetica,sans-Serif" font-size="10.00">::get_pos_on_chunk</text>
</a>
</g>
</g>
<!-- Node110&#45;&gt;Node111 -->
<g id="edge7" class="edge"><title>Node110&#45;&gt;Node111</title>
<path fill="none" stroke="midnightblue" d="M422.61,-15.5C431.229,-15.5 440.148,-15.5 448.847,-15.5"/>
<polygon fill="midnightblue" stroke="midnightblue" points="448.928,-19.0001 458.928,-15.5 448.928,-12.0001 448.928,-19.0001"/>
</g>
<!-- Node112 -->
<g id="node8" class="node"><title>Node112</title>
<g id="a_node8"><a xlink:href="namespaceopenage_1_1util.xhtml#a7e483e123bf554b630319eb3dd012c02" target="_top" xlink:title="modulo operation that guarantees to return positive values.">
<polygon fill="white" stroke="black" points="599,-6 599,-25 696,-25 696,-6 599,-6"/>
<text text-anchor="middle" x="647.5" y="-13" font-family="Helvetica,sans-Serif" font-size="10.00">openage::util::mod</text>
</a>
</g>
</g>
<!-- Node111&#45;&gt;Node112 -->
<g id="edge8" class="edge"><title>Node111&#45;&gt;Node112</title>
<path fill="none" stroke="midnightblue" d="M563.232,-15.5C571.571,-15.5 580.259,-15.5 588.741,-15.5"/>
<polygon fill="midnightblue" stroke="midnightblue" points="588.949,-19.0001 598.949,-15.5 588.949,-12.0001 588.949,-19.0001"/>
</g>
<!-- Node113&#45;&gt;Node106 -->
<g id="edge11" class="edge"><title>Node113&#45;&gt;Node106</title>
<path fill="none" stroke="midnightblue" d="M256.017,-70.6172C260.964,-73.2044 265.748,-76.1571 270,-79.5 291.244,-96.2025 284.756,-111.798 306,-128.5 307.594,-129.754 309.264,-130.952 310.989,-132.097"/>
<polygon fill="midnightblue" stroke="midnightblue" points="309.588,-135.334 319.983,-137.383 313.135,-129.299 309.588,-135.334"/>
</g>
<!-- Node113&#45;&gt;Node109 -->
<g id="edge10" class="edge"><title>Node113&#45;&gt;Node109</title>
<path fill="none" stroke="midnightblue" d="M270.017,-57.0236C282.907,-57.3651 296.539,-57.7262 309.29,-58.064"/>
<polygon fill="midnightblue" stroke="midnightblue" points="309.206,-61.5629 319.295,-58.329 309.391,-54.5653 309.206,-61.5629"/>
</g>
<!-- Node113&#45;&gt;Node110 -->
<g id="edge12" class="edge"><title>Node113&#45;&gt;Node110</title>
<path fill="none" stroke="midnightblue" d="M269.156,-40.4917C278.191,-38.0985 287.609,-35.6035 296.849,-33.156"/>
<polygon fill="midnightblue" stroke="midnightblue" points="298.007,-36.47 306.777,-30.5259 296.214,-29.7034 298.007,-36.47"/>
</g>
</g>
</svg>
