<?xml version="1.0" encoding="UTF-8" standalone="no"?>
<!DOCTYPE svg PUBLIC "-//W3C//DTD SVG 1.1//EN"
 "http://www.w3.org/Graphics/SVG/1.1/DTD/svg11.dtd">
<!-- Generated by graphviz version 2.38.0 (20140413.2041)
 -->
<!-- Title: openage.cabextract.cab.CABFile.read_file_headers Pages: 1 -->
<svg width="797pt" height="116pt"
 viewBox="0.00 0.00 797.00 116.00" xmlns="http://www.w3.org/2000/svg" xmlns:xlink="http://www.w3.org/1999/xlink">
<g id="graph0" class="graph" transform="scale(1 1) rotate(0) translate(4 112)">
<title>openage.cabextract.cab.CABFile.read_file_headers</title>
<polygon fill="white" stroke="none" points="-4,4 -4,-112 793,-112 793,4 -4,4"/>
<!-- Node11 -->
<g id="node1" class="node"><title>Node11</title>
<g id="a_node1"><a xlink:title="Called during the constructor run.">
<polygon fill="#bfbfbf" stroke="black" points="0,-39 0,-69 182,-69 182,-39 0,-39"/>
<text text-anchor="start" x="8" y="-57" font-family="Helvetica,sans-Serif" font-size="10.00">openage.cabextract.cab.CABFile.read</text>
<text text-anchor="middle" x="91" y="-46" font-family="Helvetica,sans-Serif" font-size="10.00">_file_headers</text>
</a>
</g>
</g>
<!-- Node12 -->
<g id="node2" class="node"><title>Node12</title>
<g id="a_node2"><a xlink:href="namespaceopenage_1_1log.xhtml#aad3d76b2466dbc4f81552935f2d84faa" target="_top" xlink:title="debug message">
<polygon fill="white" stroke="black" points="230,-88.5 230,-107.5 318,-107.5 318,-88.5 230,-88.5"/>
<text text-anchor="middle" x="274" y="-95.5" font-family="Helvetica,sans-Serif" font-size="10.00">openage.log.dbg</text>
</a>
</g>
</g>
<!-- Node11&#45;&gt;Node12 -->
<g id="edge1" class="edge"><title>Node11&#45;&gt;Node12</title>
<path fill="none" stroke="midnightblue" d="M153.784,-69.0192C176.682,-74.5856 202.316,-80.8171 223.93,-86.0713"/>
<polygon fill="midnightblue" stroke="midnightblue" points="223.326,-89.5263 233.869,-88.4876 224.979,-82.7244 223.326,-89.5263"/>
</g>
<!-- Node13 -->
<g id="node3" class="node"><title>Node13</title>
<g id="a_node3"><a xlink:href="namespaceopenage_1_1util_1_1files.xhtml#a648056f11b83f759c99f551f483e9bef" target="_top" xlink:title="Reads bytes until a null terminator is reached.">
<polygon fill="white" stroke="black" points="218,-39 218,-69 330,-69 330,-39 218,-39"/>
<text text-anchor="start" x="226" y="-57" font-family="Helvetica,sans-Serif" font-size="10.00">openage.util.files.read</text>
<text text-anchor="middle" x="274" y="-46" font-family="Helvetica,sans-Serif" font-size="10.00">_nullterminated_string</text>
</a>
</g>
</g>
<!-- Node11&#45;&gt;Node13 -->
<g id="edge2" class="edge"><title>Node11&#45;&gt;Node13</title>
<path fill="none" stroke="midnightblue" d="M182.235,-54C190.703,-54 199.173,-54 207.351,-54"/>
<polygon fill="midnightblue" stroke="midnightblue" points="207.53,-57.5001 217.529,-54 207.529,-50.5001 207.53,-57.5001"/>
</g>
<!-- Node18 -->
<g id="node8" class="node"><title>Node18</title>
<g id="a_node8"><a xlink:href="namespaceopenage_1_1util.xhtml#a9556b8562574e2c6ad102d8fd87569c6" target="_top" xlink:title="Split a string at a delimiter into a vector.">
<polygon fill="white" stroke="black" points="226,-0.5 226,-19.5 322,-19.5 322,-0.5 226,-0.5"/>
<text text-anchor="middle" x="274" y="-7.5" font-family="Helvetica,sans-Serif" font-size="10.00">openage::util::split</text>
</a>
</g>
</g>
<!-- Node11&#45;&gt;Node18 -->
<g id="edge8" class="edge"><title>Node11&#45;&gt;Node18</title>
<path fill="none" stroke="midnightblue" d="M153.784,-38.9808C176.682,-33.4144 202.316,-27.1829 223.93,-21.9287"/>
<polygon fill="midnightblue" stroke="midnightblue" points="224.979,-25.2756 233.869,-19.5124 223.326,-18.4737 224.979,-25.2756"/>
</g>
<!-- Node14 -->
<g id="node4" class="node"><title>Node14</title>
<g id="a_node4"><a xlink:href="namespaceopenage_1_1util_1_1files.xhtml#aa2ba5a14f2468fd0745e07dc84ff2188" target="_top" xlink:title=" ">
<polygon fill="white" stroke="black" points="366,-61 366,-91 477,-91 477,-61 366,-61"/>
<text text-anchor="start" x="374" y="-79" font-family="Helvetica,sans-Serif" font-size="10.00">openage.util.files.read</text>
<text text-anchor="middle" x="421.5" y="-68" font-family="Helvetica,sans-Serif" font-size="10.00">_guaranteed</text>
</a>
</g>
</g>
<!-- Node13&#45;&gt;Node14 -->
<g id="edge3" class="edge"><title>Node13&#45;&gt;Node14</title>
<path fill="none" stroke="midnightblue" d="M330.007,-62.3173C338.452,-63.5941 347.237,-64.9224 355.867,-66.2273"/>
<polygon fill="midnightblue" stroke="midnightblue" points="355.487,-69.7095 365.898,-67.744 356.533,-62.7882 355.487,-69.7095"/>
</g>
<!-- Node15 -->
<g id="node5" class="node"><title>Node15</title>
<g id="a_node5"><a xlink:href="namespaceopenage_1_1py.xhtml#a5108334e805e942718d59b97160775d1" target="_top" xlink:title="bytes(value)">
<polygon fill="white" stroke="black" points="371.5,-22.5 371.5,-41.5 471.5,-41.5 471.5,-22.5 371.5,-22.5"/>
<text text-anchor="middle" x="421.5" y="-29.5" font-family="Helvetica,sans-Serif" font-size="10.00">openage::py::bytes</text>
</a>
</g>
</g>
<!-- Node13&#45;&gt;Node15 -->
<g id="edge4" class="edge"><title>Node13&#45;&gt;Node15</title>
<path fill="none" stroke="midnightblue" d="M330.007,-45.6827C340.147,-44.1496 350.777,-42.5424 361.041,-40.9904"/>
<polygon fill="midnightblue" stroke="midnightblue" points="361.787,-44.4174 371.152,-39.4616 360.741,-37.4961 361.787,-44.4174"/>
</g>
<!-- Node16 -->
<g id="node6" class="node"><title>Node16</title>
<g id="a_node6"><a xlink:href="namespaceopenage_1_1testing_1_1testing.xhtml#ac25bf81db406af62d08113ef7ae9fd6e" target="_top" xlink:title=" ">
<polygon fill="white" stroke="black" points="513,-22.5 513,-41.5 658,-41.5 658,-22.5 513,-22.5"/>
<text text-anchor="middle" x="585.5" y="-29.5" font-family="Helvetica,sans-Serif" font-size="10.00">openage.testing.testing.result</text>
</a>
</g>
</g>
<!-- Node15&#45;&gt;Node16 -->
<g id="edge5" class="edge"><title>Node15&#45;&gt;Node16</title>
<path fill="none" stroke="midnightblue" d="M471.545,-32C481.425,-32 492.061,-32 502.714,-32"/>
<polygon fill="midnightblue" stroke="midnightblue" points="502.91,-35.5001 512.91,-32 502.91,-28.5001 502.91,-35.5001"/>
</g>
<!-- Node17 -->
<g id="node7" class="node"><title>Node17</title>
<g id="a_node7"><a xlink:href="namespaceopenage_1_1util.xhtml#a7bc4421a5f0f57f3a0aba3f96eb8d19c" target="_top" xlink:title="method that behaves similar to python&#39;s &quot;repr&quot;.">
<polygon fill="white" stroke="black" points="694,-22.5 694,-41.5 789,-41.5 789,-22.5 694,-22.5"/>
<text text-anchor="middle" x="741.5" y="-29.5" font-family="Helvetica,sans-Serif" font-size="10.00">openage::util::repr</text>
</a>
</g>
</g>
<!-- Node16&#45;&gt;Node17 -->
<g id="edge6" class="edge"><title>Node16&#45;&gt;Node17</title>
<path fill="none" stroke="midnightblue" d="M658.09,-25.2648C666.595,-25.2181 675.189,-25.2817 683.453,-25.4556"/>
<polygon fill="midnightblue" stroke="midnightblue" points="683.622,-28.9614 693.713,-25.7348 683.812,-21.964 683.622,-28.9614"/>
</g>
<!-- Node17&#45;&gt;Node16 -->
<g id="edge7" class="edge"><title>Node17&#45;&gt;Node16</title>
<path fill="none" stroke="midnightblue" d="M693.713,-38.2652C685.626,-38.5381 677.01,-38.6958 668.312,-38.7383"/>
<polygon fill="midnightblue" stroke="midnightblue" points="668.091,-35.2383 658.09,-38.7352 668.089,-42.2383 668.091,-35.2383"/>
</g>
</g>
</svg>
