<?xml version="1.0" encoding="UTF-8" standalone="no"?>
<!DOCTYPE svg PUBLIC "-//W3C//DTD SVG 1.1//EN"
 "http://www.w3.org/Graphics/SVG/1.1/DTD/svg11.dtd">
<!-- Generated by graphviz version 2.38.0 (20140413.2041)
 -->
<!-- Title: qtsdl::EventHandlingQuickWindow Pages: 1 -->
<svg width="167pt" height="204pt"
 viewBox="0.00 0.00 167.00 204.00" xmlns="http://www.w3.org/2000/svg" xmlns:xlink="http://www.w3.org/1999/xlink">
<g id="graph0" class="graph" transform="scale(1 1) rotate(0) translate(4 200)">
<title>qtsdl::EventHandlingQuickWindow</title>
<polygon fill="white" stroke="none" points="-4,4 -4,-200 163,-200 163,4 -4,4"/>
<!-- Node2 -->
<g id="node1" class="node"><title>Node2</title>
<g id="a_node1"><a xlink:title=" ">
<polygon fill="#bfbfbf" stroke="black" points="0,-0.5 0,-101.5 159,-101.5 159,-0.5 0,-0.5"/>
<text text-anchor="start" x="8" y="-89.5" font-family="Helvetica,sans-Serif" font-size="10.00">qtsdl::EventHandlingQuick</text>
<text text-anchor="middle" x="79.5" y="-78.5" font-family="Helvetica,sans-Serif" font-size="10.00">Window</text>
<polyline fill="none" stroke="black" points="0,-71.5 159,-71.5 "/>
<text text-anchor="start" x="8" y="-59.5" font-family="Helvetica,sans-Serif" font-size="10.00">&#45; focused_item</text>
<polyline fill="none" stroke="black" points="0,-52.5 159,-52.5 "/>
<text text-anchor="start" x="8" y="-40.5" font-family="Helvetica,sans-Serif" font-size="10.00">+ EventHandlingQuickWindow()</text>
<text text-anchor="start" x="8" y="-29.5" font-family="Helvetica,sans-Serif" font-size="10.00">+ ~EventHandlingQuickWindow()</text>
<text text-anchor="start" x="8" y="-18.5" font-family="Helvetica,sans-Serif" font-size="10.00">+ on_input_event()</text>
<text text-anchor="start" x="8" y="-7.5" font-family="Helvetica,sans-Serif" font-size="10.00">+ on_resized()</text>
</a>
</g>
</g>
<!-- Node3 -->
<g id="node2" class="node"><title>Node3</title>
<g id="a_node2"><a xlink:title=" ">
<polygon fill="white" stroke="#bfbfbf" points="37.5,-138.5 37.5,-195.5 121.5,-195.5 121.5,-138.5 37.5,-138.5"/>
<text text-anchor="middle" x="79.5" y="-183.5" font-family="Helvetica,sans-Serif" font-size="10.00">QQuickWindow</text>
<polyline fill="none" stroke="#bfbfbf" points="37.5,-176.5 121.5,-176.5 "/>
<text text-anchor="middle" x="79.5" y="-164.5" font-family="Helvetica,sans-Serif" font-size="10.00"> </text>
<polyline fill="none" stroke="#bfbfbf" points="37.5,-157.5 121.5,-157.5 "/>
<text text-anchor="middle" x="79.5" y="-145.5" font-family="Helvetica,sans-Serif" font-size="10.00"> </text>
</a>
</g>
</g>
<!-- Node3&#45;&gt;Node2 -->
<g id="edge1" class="edge"><title>Node3&#45;&gt;Node2</title>
<path fill="none" stroke="midnightblue" d="M79.5,-128.354C79.5,-119.796 79.5,-110.578 79.5,-101.608"/>
<polygon fill="none" stroke="midnightblue" points="76.0001,-128.404 79.5,-138.404 83.0001,-128.404 76.0001,-128.404"/>
</g>
</g>
</svg>
