<?xml version="1.0" encoding="UTF-8" standalone="no"?>
<!DOCTYPE svg PUBLIC "-//W3C//DTD SVG 1.1//EN"
 "http://www.w3.org/Graphics/SVG/1.1/DTD/svg11.dtd">
<!-- Generated by graphviz version 2.38.0 (20140413.2041)
 -->
<!-- Title: qtsdl::GuiEngineImplConnection::has_subtree Pages: 1 -->
<svg width="545pt" height="88pt"
 viewBox="0.00 0.00 545.00 88.00" xmlns="http://www.w3.org/2000/svg" xmlns:xlink="http://www.w3.org/1999/xlink">
<g id="graph0" class="graph" transform="scale(1 1) rotate(0) translate(4 84)">
<title>qtsdl::GuiEngineImplConnection::has_subtree</title>
<polygon fill="white" stroke="none" points="-4,4 -4,-84 541,-84 541,4 -4,4"/>
<!-- Node71 -->
<g id="node1" class="node"><title>Node71</title>
<g id="a_node1"><a xlink:title=" ">
<polygon fill="#bfbfbf" stroke="black" points="382,-24.5 382,-54.5 537,-54.5 537,-24.5 382,-24.5"/>
<text text-anchor="start" x="390" y="-42.5" font-family="Helvetica,sans-Serif" font-size="10.00">qtsdl::GuiEngineImplConnection</text>
<text text-anchor="middle" x="459.5" y="-31.5" font-family="Helvetica,sans-Serif" font-size="10.00">::has_subtree</text>
</a>
</g>
</g>
<!-- Node72 -->
<g id="node2" class="node"><title>Node72</title>
<g id="a_node2"><a xlink:href="classqtsdl_1_1_gui_subtree_impl.xhtml#a903d02ad6f5349af96add80f99ddf345" target="_top" xlink:title=" ">
<polygon fill="white" stroke="black" points="213.5,-49.5 213.5,-79.5 323.5,-79.5 323.5,-49.5 213.5,-49.5"/>
<text text-anchor="start" x="221.5" y="-67.5" font-family="Helvetica,sans-Serif" font-size="10.00">qtsdl::GuiSubtreeImpl</text>
<text text-anchor="middle" x="268.5" y="-56.5" font-family="Helvetica,sans-Serif" font-size="10.00">::attach_to</text>
</a>
</g>
</g>
<!-- Node71&#45;&gt;Node72 -->
<g id="edge1" class="edge"><title>Node71&#45;&gt;Node72</title>
<path fill="none" stroke="midnightblue" d="M371.745,-50.9755C355.345,-53.1449 338.63,-55.3558 323.597,-57.3443"/>
<polygon fill="midnightblue" stroke="midnightblue" points="372.444,-54.4136 381.899,-49.6324 371.526,-47.4741 372.444,-54.4136"/>
</g>
<!-- Node73 -->
<g id="node3" class="node"><title>Node73</title>
<g id="a_node3"><a xlink:href="classqtsdl_1_1_gui_engine_impl_connection.xhtml#ac2ef61bcd0cdb991b399a29eeb5ec74c" target="_top" xlink:title=" ">
<polygon fill="white" stroke="black" points="191,-0.5 191,-30.5 346,-30.5 346,-0.5 191,-0.5"/>
<text text-anchor="start" x="199" y="-18.5" font-family="Helvetica,sans-Serif" font-size="10.00">qtsdl::GuiEngineImplConnection</text>
<text text-anchor="middle" x="268.5" y="-7.5" font-family="Helvetica,sans-Serif" font-size="10.00">::disconnect</text>
</a>
</g>
</g>
<!-- Node71&#45;&gt;Node73 -->
<g id="edge2" class="edge"><title>Node71&#45;&gt;Node73</title>
<path fill="none" stroke="midnightblue" d="M371.896,-28.5027C363.326,-27.4145 354.67,-26.3152 346.21,-25.241"/>
<polygon fill="midnightblue" stroke="midnightblue" points="371.538,-31.9852 381.899,-29.7729 372.42,-25.0409 371.538,-31.9852"/>
</g>
<!-- Node74 -->
<g id="node4" class="node"><title>Node74</title>
<g id="a_node4"><a xlink:href="classqtsdl_1_1_gui_engine_impl_connection.xhtml#a838d04049e7a234096ddc630de0fee59" target="_top" xlink:title=" ">
<polygon fill="white" stroke="black" points="0,-0.5 0,-30.5 155,-30.5 155,-0.5 0,-0.5"/>
<text text-anchor="start" x="8" y="-18.5" font-family="Helvetica,sans-Serif" font-size="10.00">qtsdl::GuiEngineImplConnection</text>
<text text-anchor="middle" x="77.5" y="-7.5" font-family="Helvetica,sans-Serif" font-size="10.00">::~GuiEngineImplConnection</text>
</a>
</g>
</g>
<!-- Node73&#45;&gt;Node74 -->
<g id="edge3" class="edge"><title>Node73&#45;&gt;Node74</title>
<path fill="none" stroke="midnightblue" d="M180.896,-15.5C172.326,-15.5 163.67,-15.5 155.21,-15.5"/>
<polygon fill="midnightblue" stroke="midnightblue" points="180.899,-19.0001 190.899,-15.5 180.899,-12.0001 180.899,-19.0001"/>
</g>
</g>
</svg>
