<?xml version="1.0" encoding="UTF-8" standalone="no"?>
<!DOCTYPE svg PUBLIC "-//W3C//DTD SVG 1.1//EN"
 "http://www.w3.org/Graphics/SVG/1.1/DTD/svg11.dtd">
<!-- Generated by graphviz version 2.38.0 (20140413.2041)
 -->
<!-- Title: openage.util.fslike.abstract.ReadOnlyFSLikeObject.read_only_error Pages: 1 -->
<svg width="583pt" height="50pt"
 viewBox="0.00 0.00 583.00 50.00" xmlns="http://www.w3.org/2000/svg" xmlns:xlink="http://www.w3.org/1999/xlink">
<g id="graph0" class="graph" transform="scale(1 1) rotate(0) translate(4 46)">
<title>openage.util.fslike.abstract.ReadOnlyFSLikeObject.read_only_error</title>
<polygon fill="white" stroke="none" points="-4,4 -4,-46 579,-46 579,4 -4,4"/>
<!-- Node12 -->
<g id="node1" class="node"><title>Node12</title>
<g id="a_node1"><a xlink:title="Helper method to be called from all other methods.">
<polygon fill="#bfbfbf" stroke="black" points="0,-0.5 0,-41.5 140,-41.5 140,-0.5 0,-0.5"/>
<text text-anchor="start" x="8" y="-29.5" font-family="Helvetica,sans-Serif" font-size="10.00">openage.util.fslike.abstract.</text>
<text text-anchor="start" x="8" y="-18.5" font-family="Helvetica,sans-Serif" font-size="10.00">ReadOnlyFSLikeObject.read</text>
<text text-anchor="middle" x="70" y="-7.5" font-family="Helvetica,sans-Serif" font-size="10.00">_only_error</text>
</a>
</g>
</g>
<!-- Node13 -->
<g id="node2" class="node"><title>Node13</title>
<g id="a_node2"><a xlink:href="namespaceopenage_1_1py.xhtml#a4d2bbe46a5d10404c658b54f3b199551" target="_top" xlink:title="str(value);">
<polygon fill="white" stroke="black" points="176,-11.5 176,-30.5 263,-30.5 263,-11.5 176,-11.5"/>
<text text-anchor="middle" x="219.5" y="-18.5" font-family="Helvetica,sans-Serif" font-size="10.00">openage::py::str</text>
</a>
</g>
</g>
<!-- Node12&#45;&gt;Node13 -->
<g id="edge1" class="edge"><title>Node12&#45;&gt;Node13</title>
<path fill="none" stroke="midnightblue" d="M140.431,-21C148.942,-21 157.53,-21 165.74,-21"/>
<polygon fill="midnightblue" stroke="midnightblue" points="165.902,-24.5001 175.902,-21 165.902,-17.5001 165.902,-24.5001"/>
</g>
<!-- Node14 -->
<g id="node3" class="node"><title>Node14</title>
<g id="a_node3"><a xlink:href="namespaceopenage_1_1testing_1_1testing.xhtml#ac25bf81db406af62d08113ef7ae9fd6e" target="_top" xlink:title=" ">
<polygon fill="white" stroke="black" points="299,-11.5 299,-30.5 444,-30.5 444,-11.5 299,-11.5"/>
<text text-anchor="middle" x="371.5" y="-18.5" font-family="Helvetica,sans-Serif" font-size="10.00">openage.testing.testing.result</text>
</a>
</g>
</g>
<!-- Node13&#45;&gt;Node14 -->
<g id="edge2" class="edge"><title>Node13&#45;&gt;Node14</title>
<path fill="none" stroke="midnightblue" d="M263.083,-21C271.201,-21 279.946,-21 288.818,-21"/>
<polygon fill="midnightblue" stroke="midnightblue" points="288.86,-24.5001 298.86,-21 288.86,-17.5001 288.86,-24.5001"/>
</g>
<!-- Node15 -->
<g id="node4" class="node"><title>Node15</title>
<g id="a_node4"><a xlink:href="namespaceopenage_1_1util.xhtml#a7bc4421a5f0f57f3a0aba3f96eb8d19c" target="_top" xlink:title="method that behaves similar to python&#39;s &quot;repr&quot;.">
<polygon fill="white" stroke="black" points="480,-11.5 480,-30.5 575,-30.5 575,-11.5 480,-11.5"/>
<text text-anchor="middle" x="527.5" y="-18.5" font-family="Helvetica,sans-Serif" font-size="10.00">openage::util::repr</text>
</a>
</g>
</g>
<!-- Node14&#45;&gt;Node15 -->
<g id="edge3" class="edge"><title>Node14&#45;&gt;Node15</title>
<path fill="none" stroke="midnightblue" d="M444.09,-14.2648C452.595,-14.2181 461.189,-14.2817 469.453,-14.4556"/>
<polygon fill="midnightblue" stroke="midnightblue" points="469.622,-17.9614 479.713,-14.7348 469.812,-10.964 469.622,-17.9614"/>
</g>
<!-- Node15&#45;&gt;Node14 -->
<g id="edge4" class="edge"><title>Node15&#45;&gt;Node14</title>
<path fill="none" stroke="midnightblue" d="M479.713,-27.2652C471.626,-27.5381 463.01,-27.6958 454.312,-27.7383"/>
<polygon fill="midnightblue" stroke="midnightblue" points="454.091,-24.2383 444.09,-27.7352 454.089,-31.2383 454.091,-24.2383"/>
</g>
</g>
</svg>
