<?xml version="1.0" encoding="UTF-8" standalone="no"?>
<!DOCTYPE svg PUBLIC "-//W3C//DTD SVG 1.1//EN"
 "http://www.w3.org/Graphics/SVG/1.1/DTD/svg11.dtd">
<!-- Generated by graphviz version 2.38.0 (20140413.2041)
 -->
<!-- Title: openage::gui::AssetManagerLink Pages: 1 -->
<!--zoomable 623 -->
<svg id="main" version="1.1" xmlns="http://www.w3.org/2000/svg" xmlns:xlink="http://www.w3.org/1999/xlink" xml:space="preserve" onload="init(evt)">
<style type="text/css"><![CDATA[
.edge:hover path { stroke: red; }
.edge:hover polygon { stroke: red; fill: red; }
]]></style>
<script type="text/javascript"><![CDATA[
var edges = document.getElementsByTagName('g');
if (edges && edges.length) {
  for (var i=0;i<edges.length;i++) {
    if (edges[i].id.substr(0,4)=='edge') {
      edges[i].setAttribute('class','edge');
    }
  }
}
]]></script>
        <defs>
                <circle id="rim" cx="0" cy="0" r="7"/>
                <circle id="rim2" cx="0" cy="0" r="3.5"/>
                <g id="zoomPlus">
                        <use xlink:href="#rim" fill="#404040">
                                <set attributeName="fill" to="#808080" begin="zoomplus.mouseover" end="zoomplus.mouseout"/>
                        </use>
                        <path d="M-4,0h8M0,-4v8" fill="none" stroke="white" stroke-width="1.5" pointer-events="none"/>
                </g>
                <g id="zoomMin">
                        <use xlink:href="#rim" fill="#404040">
                                <set attributeName="fill" to="#808080" begin="zoomminus.mouseover" end="zoomminus.mouseout"/>
                        </use>
                        <path d="M-4,0h8" fill="none" stroke="white" stroke-width="1.5" pointer-events="none"/>
                </g>
                <g id="dirArrow">
                        <path fill="none" stroke="white" stroke-width="1.5" d="M0,-3.0v7 M-2.5,-0.5L0,-3.0L2.5,-0.5"/>
                </g>
               <g id="resetDef">
                       <use xlink:href="#rim2" fill="#404040">
                               <set attributeName="fill" to="#808080" begin="reset.mouseover" end="reset.mouseout"/>
                       </use>
               </g>
        </defs>

<script type="text/javascript">
var viewWidth = 630;
var viewHeight = 623;
var sectionId = 'dynsection-0';
</script>
<script xlink:href="svgpan.js"/>
<svg id="graph" class="graph">
<g id="viewport">
<title>openage::gui::AssetManagerLink</title>
<polygon fill="white" stroke="none" points="-4,4 -4,-619 625.5,-619 625.5,4 -4,4"/>
<!-- Node0 -->
<g id="node1" class="node"><title>Node0</title>
<g id="a_node1"><a xlink:title=" ">
<polygon fill="#bfbfbf" stroke="black" points="245,-0.5 245,-145.5 404,-145.5 404,-0.5 245,-0.5"/>
<text text-anchor="middle" x="324.5" y="-133.5" font-family="Helvetica,sans-Serif" font-size="10.00">openage::gui::AssetManagerLink</text>
<polyline fill="none" stroke="black" points="245,-126.5 404,-126.5 "/>
<text text-anchor="start" x="253" y="-114.5" font-family="Helvetica,sans-Serif" font-size="10.00">+ assetDir</text>
<text text-anchor="start" x="253" y="-103.5" font-family="Helvetica,sans-Serif" font-size="10.00">+ engine</text>
<text text-anchor="start" x="253" y="-92.5" font-family="Helvetica,sans-Serif" font-size="10.00">&#45; asset_dir</text>
<text text-anchor="start" x="253" y="-81.5" font-family="Helvetica,sans-Serif" font-size="10.00">&#45; engine</text>
<polyline fill="none" stroke="black" points="245,-74.5 404,-74.5 "/>
<text text-anchor="start" x="253" y="-62.5" font-family="Helvetica,sans-Serif" font-size="10.00">+ AssetManagerLink()</text>
<text text-anchor="start" x="253" y="-51.5" font-family="Helvetica,sans-Serif" font-size="10.00">+ ~AssetManagerLink()</text>
<text text-anchor="start" x="253" y="-40.5" font-family="Helvetica,sans-Serif" font-size="10.00">+ get_asset_dir()</text>
<text text-anchor="start" x="253" y="-29.5" font-family="Helvetica,sans-Serif" font-size="10.00">+ set_asset_dir()</text>
<text text-anchor="start" x="253" y="-18.5" font-family="Helvetica,sans-Serif" font-size="10.00">+ get_engine()</text>
<text text-anchor="start" x="253" y="-7.5" font-family="Helvetica,sans-Serif" font-size="10.00">+ set_engine()</text>
</a>
</g>
</g>
<!-- Node1 -->
<g id="node2" class="node"><title>Node1</title>
<g id="a_node2"><a xlink:href="classqtsdl_1_1_gui_item_q_object.xhtml" target="_top" xlink:title=" ">
<polygon fill="white" stroke="black" points="139,-188 139,-245 252,-245 252,-188 139,-188"/>
<text text-anchor="middle" x="195.5" y="-233" font-family="Helvetica,sans-Serif" font-size="10.00">qtsdl::GuiItemQObject</text>
<polyline fill="none" stroke="black" points="139,-226 252,-226 "/>
<text text-anchor="middle" x="195.5" y="-214" font-family="Helvetica,sans-Serif" font-size="10.00"> </text>
<polyline fill="none" stroke="black" points="139,-207 252,-207 "/>
<text text-anchor="start" x="147" y="-195" font-family="Helvetica,sans-Serif" font-size="10.00">+ GuiItemQObject()</text>
</a>
</g>
</g>
<!-- Node1&#45;&gt;Node0 -->
<g id="edge1" class="edge"><title>Node1&#45;&gt;Node0</title>
<path fill="none" stroke="midnightblue" d="M227.48,-180.421C237.169,-169.794 248.182,-157.713 259.226,-145.599"/>
<polygon fill="none" stroke="midnightblue" points="224.829,-178.133 220.679,-187.881 230.002,-182.85 224.829,-178.133"/>
</g>
<!-- Node2 -->
<g id="node3" class="node"><title>Node2</title>
<g id="a_node3"><a xlink:title=" ">
<polygon fill="white" stroke="#bfbfbf" points="0,-331.5 0,-388.5 53,-388.5 53,-331.5 0,-331.5"/>
<text text-anchor="middle" x="26.5" y="-376.5" font-family="Helvetica,sans-Serif" font-size="10.00">QObject</text>
<polyline fill="none" stroke="#bfbfbf" points="0,-369.5 53,-369.5 "/>
<text text-anchor="middle" x="26.5" y="-357.5" font-family="Helvetica,sans-Serif" font-size="10.00"> </text>
<polyline fill="none" stroke="#bfbfbf" points="0,-350.5 53,-350.5 "/>
<text text-anchor="middle" x="26.5" y="-338.5" font-family="Helvetica,sans-Serif" font-size="10.00"> </text>
</a>
</g>
</g>
<!-- Node2&#45;&gt;Node1 -->
<g id="edge2" class="edge"><title>Node2&#45;&gt;Node1</title>
<path fill="none" stroke="midnightblue" d="M39.7716,-321.683C45.4015,-309.571 52.9178,-296.755 62.5,-287 83.6777,-265.44 112.971,-249.149 138.677,-237.779"/>
<polygon fill="none" stroke="midnightblue" points="36.4235,-320.607 35.6575,-331.174 42.846,-323.391 36.4235,-320.607"/>
</g>
<!-- Node3 -->
<g id="node4" class="node"><title>Node3</title>
<g id="a_node4"><a xlink:href="classqtsdl_1_1_gui_item_base.xhtml" target="_top" xlink:title=" ">
<polygon fill="white" stroke="black" points="71.5,-287.5 71.5,-432.5 209.5,-432.5 209.5,-287.5 71.5,-287.5"/>
<text text-anchor="middle" x="140.5" y="-420.5" font-family="Helvetica,sans-Serif" font-size="10.00">qtsdl::GuiItemBase</text>
<polyline fill="none" stroke="black" points="71.5,-413.5 209.5,-413.5 "/>
<text text-anchor="start" x="79.5" y="-401.5" font-family="Helvetica,sans-Serif" font-size="10.00"># game_logic_caller</text>
<text text-anchor="start" x="79.5" y="-390.5" font-family="Helvetica,sans-Serif" font-size="10.00"># instantiate_core_func</text>
<text text-anchor="start" x="79.5" y="-379.5" font-family="Helvetica,sans-Serif" font-size="10.00"># do_adopt_core_func</text>
<text text-anchor="start" x="79.5" y="-368.5" font-family="Helvetica,sans-Serif" font-size="10.00"># on_core_adopted_func</text>
<polyline fill="none" stroke="black" points="71.5,-361.5 209.5,-361.5 "/>
<text text-anchor="start" x="79.5" y="-349.5" font-family="Helvetica,sans-Serif" font-size="10.00">+ ~GuiItemBase()</text>
<text text-anchor="start" x="79.5" y="-338.5" font-family="Helvetica,sans-Serif" font-size="10.00">&#45; instantiate_core()</text>
<text text-anchor="start" x="79.5" y="-327.5" font-family="Helvetica,sans-Serif" font-size="10.00">&#45; adopt_core()</text>
<text text-anchor="start" x="79.5" y="-316.5" font-family="Helvetica,sans-Serif" font-size="10.00">&#45; do_adopt_core()</text>
<text text-anchor="start" x="79.5" y="-305.5" font-family="Helvetica,sans-Serif" font-size="10.00">&#45; on_core_adopted()</text>
<text text-anchor="start" x="79.5" y="-294.5" font-family="Helvetica,sans-Serif" font-size="10.00">&#45; set_game_logic_callback()</text>
</a>
</g>
</g>
<!-- Node3&#45;&gt;Node1 -->
<g id="edge3" class="edge"><title>Node3&#45;&gt;Node1</title>
<path fill="none" stroke="midnightblue" d="M172.019,-277.91C176.6,-266.124 181.03,-254.728 184.783,-245.071"/>
<polygon fill="none" stroke="midnightblue" points="168.683,-276.832 168.322,-287.421 175.207,-279.368 168.683,-276.832"/>
</g>
<!-- Node4 -->
<g id="node5" class="node"><title>Node4</title>
<g id="a_node5"><a xlink:href="classqtsdl_1_1_deferred_initial_constant_property_values.xhtml" target="_top" xlink:title=" ">
<polygon fill="white" stroke="black" points="60.5,-469.5 60.5,-614.5 220.5,-614.5 220.5,-469.5 60.5,-469.5"/>
<text text-anchor="start" x="68.5" y="-602.5" font-family="Helvetica,sans-Serif" font-size="10.00">qtsdl::DeferredInitialConstant</text>
<text text-anchor="middle" x="140.5" y="-591.5" font-family="Helvetica,sans-Serif" font-size="10.00">PropertyValues</text>
<polyline fill="none" stroke="black" points="60.5,-584.5 220.5,-584.5 "/>
<text text-anchor="start" x="68.5" y="-572.5" font-family="Helvetica,sans-Serif" font-size="10.00"># init_over</text>
<text text-anchor="start" x="68.5" y="-561.5" font-family="Helvetica,sans-Serif" font-size="10.00"># static_properties_assignments</text>
<polyline fill="none" stroke="black" points="60.5,-554.5 220.5,-554.5 "/>
<text text-anchor="start" x="68.5" y="-542.5" font-family="Helvetica,sans-Serif" font-size="10.00">+ DeferredInitialConstantProperty</text>
<text text-anchor="start" x="68.5" y="-531.5" font-family="Helvetica,sans-Serif" font-size="10.00">Values()</text>
<text text-anchor="start" x="68.5" y="-520.5" font-family="Helvetica,sans-Serif" font-size="10.00">+ ~DeferredInitialConstant</text>
<text text-anchor="start" x="68.5" y="-509.5" font-family="Helvetica,sans-Serif" font-size="10.00">PropertyValues()</text>
<text text-anchor="start" x="68.5" y="-498.5" font-family="Helvetica,sans-Serif" font-size="10.00">+ apply_static_properties()</text>
<text text-anchor="start" x="68.5" y="-487.5" font-family="Helvetica,sans-Serif" font-size="10.00">+ clear_static_properties()</text>
<text text-anchor="start" x="68.5" y="-476.5" font-family="Helvetica,sans-Serif" font-size="10.00">+ is_init_over()</text>
</a>
</g>
</g>
<!-- Node4&#45;&gt;Node3 -->
<g id="edge4" class="edge"><title>Node4&#45;&gt;Node3</title>
<path fill="none" stroke="midnightblue" d="M140.5,-459.079C140.5,-450.278 140.5,-441.374 140.5,-432.705"/>
<polygon fill="none" stroke="midnightblue" points="137,-459.342 140.5,-469.342 144,-459.342 137,-459.342"/>
</g>
<!-- Node5 -->
<g id="node6" class="node"><title>Node5</title>
<g id="a_node6"><a xlink:href="classqtsdl_1_1_gui_item_link.xhtml" target="_top" xlink:title=" ">
<polygon fill="white" stroke="black" points="228,-331.5 228,-388.5 323,-388.5 323,-331.5 228,-331.5"/>
<text text-anchor="middle" x="275.5" y="-376.5" font-family="Helvetica,sans-Serif" font-size="10.00">qtsdl::GuiItemLink</text>
<polyline fill="none" stroke="black" points="228,-369.5 323,-369.5 "/>
<text text-anchor="middle" x="275.5" y="-357.5" font-family="Helvetica,sans-Serif" font-size="10.00"> </text>
<polyline fill="none" stroke="black" points="228,-350.5 323,-350.5 "/>
<text text-anchor="start" x="236" y="-338.5" font-family="Helvetica,sans-Serif" font-size="10.00">+ ~GuiItemLink()</text>
</a>
</g>
</g>
<!-- Node5&#45;&gt;Node1 -->
<g id="edge5" class="edge"><title>Node5&#45;&gt;Node1</title>
<path fill="none" stroke="midnightblue" d="M254.862,-322.497C241.199,-298.33 223.564,-267.138 211.075,-245.049"/>
<polygon fill="none" stroke="midnightblue" points="251.917,-324.399 259.885,-331.381 258.01,-320.954 251.917,-324.399"/>
</g>
<!-- Node6 -->
<g id="node7" class="node"><title>Node6</title>
<g id="a_node7"><a xlink:href="classqtsdl_1_1_gui_item.xhtml" target="_top" xlink:title=" ">
<polygon fill="white" stroke="black" points="325,-182.5 325,-250.5 474,-250.5 474,-182.5 325,-182.5"/>
<text text-anchor="start" x="333" y="-238.5" font-family="Helvetica,sans-Serif" font-size="10.00">qtsdl::GuiItem&lt; AssetManager</text>
<text text-anchor="middle" x="399.5" y="-227.5" font-family="Helvetica,sans-Serif" font-size="10.00">Link &gt;</text>
<polyline fill="none" stroke="black" points="325,-220.5 474,-220.5 "/>
<text text-anchor="middle" x="399.5" y="-208.5" font-family="Helvetica,sans-Serif" font-size="10.00"> </text>
<polyline fill="none" stroke="black" points="325,-201.5 474,-201.5 "/>
<text text-anchor="start" x="333" y="-189.5" font-family="Helvetica,sans-Serif" font-size="10.00">+ GuiItem()</text>
</a>
</g>
</g>
<!-- Node6&#45;&gt;Node0 -->
<g id="edge6" class="edge"><title>Node6&#45;&gt;Node0</title>
<path fill="none" stroke="midnightblue" d="M377.229,-173.482C372.587,-164.723 367.569,-155.257 362.539,-145.766"/>
<polygon fill="none" stroke="midnightblue" points="374.14,-175.128 381.916,-182.325 380.325,-171.85 374.14,-175.128"/>
</g>
<!-- Node7 -->
<g id="node8" class="node"><title>Node7</title>
<g id="a_node8"><a xlink:href="classqtsdl_1_1_gui_item_origin.xhtml" target="_top" xlink:title=" ">
<polygon fill="white" stroke="black" points="341.5,-326 341.5,-394 457.5,-394 457.5,-326 341.5,-326"/>
<text text-anchor="start" x="349.5" y="-382" font-family="Helvetica,sans-Serif" font-size="10.00">qtsdl::GuiItemOrigin</text>
<text text-anchor="middle" x="399.5" y="-371" font-family="Helvetica,sans-Serif" font-size="10.00">&lt; AssetManagerLink &gt;</text>
<polyline fill="none" stroke="black" points="341.5,-364 457.5,-364 "/>
<text text-anchor="start" x="349.5" y="-352" font-family="Helvetica,sans-Serif" font-size="10.00">&#45; holder</text>
<polyline fill="none" stroke="black" points="341.5,-345 457.5,-345 "/>
<text text-anchor="middle" x="399.5" y="-333" font-family="Helvetica,sans-Serif" font-size="10.00"> </text>
</a>
</g>
</g>
<!-- Node7&#45;&gt;Node6 -->
<g id="edge7" class="edge"><title>Node7&#45;&gt;Node6</title>
<path fill="none" stroke="midnightblue" d="M399.5,-315.643C399.5,-294.838 399.5,-270.296 399.5,-250.958"/>
<polygon fill="none" stroke="midnightblue" points="396,-315.825 399.5,-325.825 403,-315.825 396,-315.825"/>
</g>
<!-- Node8 -->
<g id="node9" class="node"><title>Node8</title>
<g id="a_node9"><a xlink:href="classqtsdl_1_1_gui_item_core_instantiator.xhtml" target="_top" xlink:title=" ">
<polygon fill="white" stroke="black" points="475.5,-304 475.5,-416 621.5,-416 621.5,-304 475.5,-304"/>
<text text-anchor="start" x="483.5" y="-404" font-family="Helvetica,sans-Serif" font-size="10.00">qtsdl::GuiItemCoreInstantiator</text>
<text text-anchor="middle" x="548.5" y="-393" font-family="Helvetica,sans-Serif" font-size="10.00">&lt; AssetManagerLink &gt;</text>
<polyline fill="none" stroke="black" points="475.5,-386 621.5,-386 "/>
<text text-anchor="middle" x="548.5" y="-374" font-family="Helvetica,sans-Serif" font-size="10.00"> </text>
<polyline fill="none" stroke="black" points="475.5,-367 621.5,-367 "/>
<text text-anchor="start" x="483.5" y="-355" font-family="Helvetica,sans-Serif" font-size="10.00">+ GuiItemCoreInstantiator()</text>
<text text-anchor="start" x="483.5" y="-344" font-family="Helvetica,sans-Serif" font-size="10.00">&#45; GuiItemCoreInstantiator()</text>
<text text-anchor="start" x="483.5" y="-333" font-family="Helvetica,sans-Serif" font-size="10.00">&#45; instantiate_core()</text>
<text text-anchor="start" x="483.5" y="-322" font-family="Helvetica,sans-Serif" font-size="10.00">&#45; do_adopt_core()</text>
<text text-anchor="start" x="483.5" y="-311" font-family="Helvetica,sans-Serif" font-size="10.00">&#45; operator=()</text>
</a>
</g>
</g>
<!-- Node8&#45;&gt;Node6 -->
<g id="edge8" class="edge"><title>Node8&#45;&gt;Node6</title>
<path fill="none" stroke="midnightblue" d="M482.846,-296.651C466.142,-280.787 448.836,-264.353 434.352,-250.597"/>
<polygon fill="none" stroke="midnightblue" points="480.805,-299.539 490.466,-303.887 485.625,-294.463 480.805,-299.539"/>
</g>
<!-- Node9 -->
<g id="node10" class="node"><title>Node9</title>
<g id="a_node10"><a xlink:href="classqtsdl_1_1_gui_item_methods.xhtml" target="_top" xlink:title=" ">
<polygon fill="white" stroke="black" points="481.5,-469.5 481.5,-614.5 615.5,-614.5 615.5,-469.5 481.5,-469.5"/>
<text text-anchor="start" x="489.5" y="-602.5" font-family="Helvetica,sans-Serif" font-size="10.00">qtsdl::GuiItemMethods</text>
<text text-anchor="middle" x="548.5" y="-591.5" font-family="Helvetica,sans-Serif" font-size="10.00">&lt; AssetManagerLink &gt;</text>
<polyline fill="none" stroke="black" points="481.5,-584.5 615.5,-584.5 "/>
<text text-anchor="middle" x="548.5" y="-572.5" font-family="Helvetica,sans-Serif" font-size="10.00"> </text>
<polyline fill="none" stroke="black" points="481.5,-565.5 615.5,-565.5 "/>
<text text-anchor="start" x="489.5" y="-553.5" font-family="Helvetica,sans-Serif" font-size="10.00">+ ~GuiItemMethods()</text>
<text text-anchor="start" x="489.5" y="-542.5" font-family="Helvetica,sans-Serif" font-size="10.00">+ get()</text>
<text text-anchor="start" x="489.5" y="-531.5" font-family="Helvetica,sans-Serif" font-size="10.00">+ get()</text>
<text text-anchor="start" x="489.5" y="-520.5" font-family="Helvetica,sans-Serif" font-size="10.00">+ i()</text>
<text text-anchor="start" x="489.5" y="-509.5" font-family="Helvetica,sans-Serif" font-size="10.00"># s()</text>
<text text-anchor="start" x="489.5" y="-498.5" font-family="Helvetica,sans-Serif" font-size="10.00"># sf()</text>
<text text-anchor="start" x="489.5" y="-487.5" font-family="Helvetica,sans-Serif" font-size="10.00">&#45; assign_while_catching</text>
<text text-anchor="start" x="489.5" y="-476.5" font-family="Helvetica,sans-Serif" font-size="10.00">_constant_properies_inits()</text>
</a>
</g>
</g>
<!-- Node9&#45;&gt;Node8 -->
<g id="edge9" class="edge"><title>Node9&#45;&gt;Node8</title>
<path fill="none" stroke="midnightblue" d="M548.5,-459.275C548.5,-444.638 548.5,-429.706 548.5,-416.046"/>
<polygon fill="none" stroke="midnightblue" points="545,-459.342 548.5,-469.342 552,-459.342 545,-459.342"/>
</g>
</g>
</svg>
        <g id="navigator" transform="translate(0 0)" fill="#404254">
                <rect fill="#f2f5e9" fill-opacity="0.5" stroke="#606060" stroke-width=".5" x="0" y="0" width="60" height="60"/>
                <use id="zoomplus" xlink:href="#zoomPlus" x="17" y="9" onmousedown="handleZoom(evt,'in')"/>
                <use id="zoomminus" xlink:href="#zoomMin" x="42" y="9" onmousedown="handleZoom(evt,'out')"/>
                <use id="reset" xlink:href="#resetDef" x="30" y="36" onmousedown="handleReset()"/>
                <g id="arrowUp" xlink:href="#dirArrow" transform="translate(30 24)" onmousedown="handlePan(0,-1)">
                  <use xlink:href="#rim" fill="#404040">
                        <set attributeName="fill" to="#808080" begin="arrowUp.mouseover" end="arrowUp.mouseout"/>
                  </use>
                  <path fill="none" stroke="white" stroke-width="1.5" d="M0,-3.0v7 M-2.5,-0.5L0,-3.0L2.5,-0.5"/>
                </g>
                <g id="arrowRight" xlink:href="#dirArrow" transform="rotate(90) translate(36 -43)" onmousedown="handlePan(1,0)">
                  <use xlink:href="#rim" fill="#404040">
                        <set attributeName="fill" to="#808080" begin="arrowRight.mouseover" end="arrowRight.mouseout"/>
                  </use>
                  <path fill="none" stroke="white" stroke-width="1.5" d="M0,-3.0v7 M-2.5,-0.5L0,-3.0L2.5,-0.5"/>
                </g>
                <g id="arrowDown" xlink:href="#dirArrow" transform="rotate(180) translate(-30 -48)" onmousedown="handlePan(0,1)">
                  <use xlink:href="#rim" fill="#404040">
                        <set attributeName="fill" to="#808080" begin="arrowDown.mouseover" end="arrowDown.mouseout"/>
                  </use>
                  <path fill="none" stroke="white" stroke-width="1.5" d="M0,-3.0v7 M-2.5,-0.5L0,-3.0L2.5,-0.5"/>
                </g>
                <g id="arrowLeft" xlink:href="#dirArrow" transform="rotate(270) translate(-36 17)" onmousedown="handlePan(-1,0)">
                  <use xlink:href="#rim" fill="#404040">
                        <set attributeName="fill" to="#808080" begin="arrowLeft.mouseover" end="arrowLeft.mouseout"/>
                  </use>
                  <path fill="none" stroke="white" stroke-width="1.5" d="M0,-3.0v7 M-2.5,-0.5L0,-3.0L2.5,-0.5"/>
                </g>
        </g>
        <svg viewBox="0 0 15 15" width="100%" height="30px" preserveAspectRatio="xMaxYMin meet">
         <g id="arrow_out" transform="scale(0.3 0.3)">
          <a xlink:href="classopenage_1_1gui_1_1_asset_manager_link__inherit__graph_org.svg" target="_base">
           <rect id="button" ry="5" rx="5" y="6" x="6" height="38" width="38"
                fill="#f2f5e9" fill-opacity="0.5" stroke="#606060" stroke-width="1.0"/>
           <path id="arrow"
             d="M 11.500037,31.436501 C 11.940474,20.09759 22.043105,11.32322 32.158766,21.979434 L 37.068811,17.246167 C 37.068811,17.246167 37.088388,32 37.088388,32 L 22.160133,31.978069 C 22.160133,31.978069 26.997745,27.140456 26.997745,27.140456 C 18.528582,18.264221 13.291696,25.230495 11.500037,31.436501 z"
             style="fill:#404040;"/>
          </a>
         </g>
        </svg>
</svg>
