<?xml version="1.0" encoding="UTF-8" standalone="no"?>
<!DOCTYPE svg PUBLIC "-//W3C//DTD SVG 1.1//EN"
 "http://www.w3.org/Graphics/SVG/1.1/DTD/svg11.dtd">
<!-- Generated by graphviz version 2.38.0 (20140413.2041)
 -->
<!-- Title: openage::Engine::draw_debug_overlay Pages: 1 -->
<!--zoomable 173 -->
<svg id="main" version="1.1" xmlns="http://www.w3.org/2000/svg" xmlns:xlink="http://www.w3.org/1999/xlink" xml:space="preserve" onload="init(evt)">
<style type="text/css"><![CDATA[
.edge:hover path { stroke: red; }
.edge:hover polygon { stroke: red; fill: red; }
]]></style>
<script type="text/javascript"><![CDATA[
var edges = document.getElementsByTagName('g');
if (edges && edges.length) {
  for (var i=0;i<edges.length;i++) {
    if (edges[i].id.substr(0,4)=='edge') {
      edges[i].setAttribute('class','edge');
    }
  }
}
]]></script>
        <defs>
                <circle id="rim" cx="0" cy="0" r="7"/>
                <circle id="rim2" cx="0" cy="0" r="3.5"/>
                <g id="zoomPlus">
                        <use xlink:href="#rim" fill="#404040">
                                <set attributeName="fill" to="#808080" begin="zoomplus.mouseover" end="zoomplus.mouseout"/>
                        </use>
                        <path d="M-4,0h8M0,-4v8" fill="none" stroke="white" stroke-width="1.5" pointer-events="none"/>
                </g>
                <g id="zoomMin">
                        <use xlink:href="#rim" fill="#404040">
                                <set attributeName="fill" to="#808080" begin="zoomminus.mouseover" end="zoomminus.mouseout"/>
                        </use>
                        <path d="M-4,0h8" fill="none" stroke="white" stroke-width="1.5" pointer-events="none"/>
                </g>
                <g id="dirArrow">
                        <path fill="none" stroke="white" stroke-width="1.5" d="M0,-3.0v7 M-2.5,-0.5L0,-3.0L2.5,-0.5"/>
                </g>
               <g id="resetDef">
                       <use xlink:href="#rim2" fill="#404040">
                               <set attributeName="fill" to="#808080" begin="reset.mouseover" end="reset.mouseout"/>
                       </use>
               </g>
        </defs>

<script type="text/javascript">
var viewWidth = 1077;
var viewHeight = 173;
var sectionId = 'dynsection-4';
</script>
<script xlink:href="svgpan.js"/>
<svg id="graph" class="graph">
<g id="viewport">
<title>openage::Engine::draw_debug_overlay</title>
<polygon fill="white" stroke="none" points="-4,4 -4,-168.5 1073,-168.5 1073,4 -4,4"/>
<!-- Node15 -->
<g id="node1" class="node"><title>Node15</title>
<g id="a_node1"><a xlink:title=" ">
<polygon fill="#bfbfbf" stroke="black" points="0,-74.5 0,-104.5 116,-104.5 116,-74.5 0,-74.5"/>
<text text-anchor="start" x="8" y="-92.5" font-family="Helvetica,sans-Serif" font-size="10.00">openage::Engine::draw</text>
<text text-anchor="middle" x="58" y="-81.5" font-family="Helvetica,sans-Serif" font-size="10.00">_debug_overlay</text>
</a>
</g>
</g>
<!-- Node16 -->
<g id="node2" class="node"><title>Node16</title>
<g id="a_node2"><a xlink:href="classopenage_1_1_engine.xhtml#aa1639975d663d41b17b3fabf59d8e237" target="_top" xlink:title=" ">
<polygon fill="white" stroke="black" points="636,-101 636,-120 780,-120 780,-101 636,-101"/>
<text text-anchor="middle" x="708" y="-108" font-family="Helvetica,sans-Serif" font-size="10.00">openage::Engine::render_text</text>
</a>
</g>
</g>
<!-- Node15&#45;&gt;Node16 -->
<g id="edge1" class="edge"><title>Node15&#45;&gt;Node16</title>
<path fill="none" stroke="midnightblue" d="M108.342,-104.542C122.338,-108.323 137.669,-112.008 152,-114.5 348.449,-148.661 402.234,-163.948 600,-138.5 623.298,-135.502 648.763,-128.976 669.004,-122.977"/>
<polygon fill="midnightblue" stroke="midnightblue" points="670.233,-126.262 678.78,-120.002 668.194,-119.565 670.233,-126.262"/>
</g>
<!-- Node21 -->
<g id="node7" class="node"><title>Node21</title>
<g id="a_node7"><a xlink:href="classopenage_1_1util_1_1_profiler.xhtml#a4d1465e4955c40e6e09aac72f35a9591" target="_top" xlink:title=" ">
<polygon fill="white" stroke="black" points="154.5,-74.5 154.5,-104.5 262.5,-104.5 262.5,-74.5 154.5,-74.5"/>
<text text-anchor="start" x="162.5" y="-92.5" font-family="Helvetica,sans-Serif" font-size="10.00">openage::util::Profiler</text>
<text text-anchor="middle" x="208.5" y="-81.5" font-family="Helvetica,sans-Serif" font-size="10.00">::show</text>
</a>
</g>
</g>
<!-- Node15&#45;&gt;Node21 -->
<g id="edge6" class="edge"><title>Node15&#45;&gt;Node21</title>
<path fill="none" stroke="midnightblue" d="M116.414,-89.5C125.428,-89.5 134.791,-89.5 143.933,-89.5"/>
<polygon fill="midnightblue" stroke="midnightblue" points="144.131,-93.0001 154.131,-89.5 144.131,-86.0001 144.131,-93.0001"/>
</g>
<!-- Node27 -->
<g id="node13" class="node"><title>Node27</title>
<g id="a_node13"><a xlink:href="structopenage_1_1util_1_1col.xhtml#a3d3e73a34b4617c7cb0bf240ce73ce9d" target="_top" xlink:title=" ">
<polygon fill="white" stroke="black" points="152,-36 152,-55 265,-55 265,-36 152,-36"/>
<text text-anchor="middle" x="208.5" y="-43" font-family="Helvetica,sans-Serif" font-size="10.00">openage::util::col::use</text>
</a>
</g>
</g>
<!-- Node15&#45;&gt;Node27 -->
<g id="edge13" class="edge"><title>Node15&#45;&gt;Node27</title>
<path fill="none" stroke="midnightblue" d="M109.69,-74.4808C127.811,-69.1115 148.021,-63.1234 165.345,-57.9905"/>
<polygon fill="midnightblue" stroke="midnightblue" points="166.58,-61.275 175.173,-55.0783 164.591,-54.5634 166.58,-61.275"/>
</g>
<!-- Node17 -->
<g id="node3" class="node"><title>Node17</title>
<g id="a_node3"><a xlink:href="namespaceopenage_1_1log.xhtml#a325b0901ddb3f2af36f93781b7dd9744" target="_top" xlink:title="error message">
<polygon fill="white" stroke="black" points="831.5,-145 831.5,-164 914.5,-164 914.5,-145 831.5,-145"/>
<text text-anchor="middle" x="873" y="-152" font-family="Helvetica,sans-Serif" font-size="10.00">openage.log.err</text>
</a>
</g>
</g>
<!-- Node16&#45;&gt;Node17 -->
<g id="edge2" class="edge"><title>Node16&#45;&gt;Node17</title>
<path fill="none" stroke="midnightblue" d="M744.369,-120.047C768.505,-126.563 800.691,-135.251 826.702,-142.272"/>
<polygon fill="midnightblue" stroke="midnightblue" points="826.134,-145.744 836.7,-144.971 827.958,-138.986 826.134,-145.744"/>
</g>
<!-- Node18 -->
<g id="node4" class="node"><title>Node18</title>
<g id="a_node4"><a xlink:href="namespaceopenage_1_1renderer_1_1tests.xhtml#aa4bbd5ddb9f2591224c8b05fff9d945c" target="_top" xlink:title=" ">
<polygon fill="white" stroke="black" points="822.5,-95.5 822.5,-125.5 923.5,-125.5 923.5,-95.5 822.5,-95.5"/>
<text text-anchor="start" x="830.5" y="-113.5" font-family="Helvetica,sans-Serif" font-size="10.00">openage::renderer::</text>
<text text-anchor="middle" x="873" y="-102.5" font-family="Helvetica,sans-Serif" font-size="10.00">tests::font</text>
</a>
</g>
</g>
<!-- Node16&#45;&gt;Node18 -->
<g id="edge3" class="edge"><title>Node16&#45;&gt;Node18</title>
<path fill="none" stroke="midnightblue" d="M780.02,-110.5C790.701,-110.5 801.626,-110.5 812.045,-110.5"/>
<polygon fill="midnightblue" stroke="midnightblue" points="812.268,-114 822.268,-110.5 812.268,-107 812.268,-114"/>
</g>
<!-- Node20 -->
<g id="node6" class="node"><title>Node20</title>
<g id="a_node6"><a xlink:href="namespaceopenage_1_1util.xhtml#a042594ac67e652c429fba1eeb1bec6fa" target="_top" xlink:title=" ">
<polygon fill="white" stroke="black" points="816,-57 816,-76 930,-76 930,-57 816,-57"/>
<text text-anchor="middle" x="873" y="-64" font-family="Helvetica,sans-Serif" font-size="10.00">openage::util::vsformat</text>
</a>
</g>
</g>
<!-- Node16&#45;&gt;Node20 -->
<g id="edge5" class="edge"><title>Node16&#45;&gt;Node20</title>
<path fill="none" stroke="midnightblue" d="M744.369,-100.953C768.505,-94.4373 800.691,-85.7492 826.702,-78.7278"/>
<polygon fill="midnightblue" stroke="midnightblue" points="827.958,-82.0139 836.7,-76.0287 826.134,-75.2558 827.958,-82.0139"/>
</g>
<!-- Node19 -->
<g id="node5" class="node"><title>Node19</title>
<g id="a_node5"><a xlink:href="namespaceopenage_1_1renderer_1_1tests.xhtml#a4d5611a559a9c63bcb0865c8a0829d4a" target="_top" xlink:title=" ">
<polygon fill="white" stroke="black" points="966,-90 966,-131 1069,-131 1069,-90 966,-90"/>
<text text-anchor="start" x="974" y="-119" font-family="Helvetica,sans-Serif" font-size="10.00">openage::renderer::</text>
<text text-anchor="start" x="974" y="-108" font-family="Helvetica,sans-Serif" font-size="10.00">tests::font_test_font</text>
<text text-anchor="middle" x="1017.5" y="-97" font-family="Helvetica,sans-Serif" font-size="10.00">_description</text>
</a>
</g>
</g>
<!-- Node18&#45;&gt;Node19 -->
<g id="edge4" class="edge"><title>Node18&#45;&gt;Node19</title>
<path fill="none" stroke="midnightblue" d="M923.84,-110.5C934.179,-110.5 945.182,-110.5 955.86,-110.5"/>
<polygon fill="midnightblue" stroke="midnightblue" points="955.965,-114 965.965,-110.5 955.965,-107 955.965,-114"/>
</g>
<!-- Node22 -->
<g id="node8" class="node"><title>Node22</title>
<g id="a_node8"><a xlink:href="classopenage_1_1util_1_1_profiler.xhtml#ad69d504b61ea40f0194c6368edfa6c70" target="_top" xlink:title=" ">
<polygon fill="white" stroke="black" points="301,-61.5 301,-91.5 409,-91.5 409,-61.5 301,-61.5"/>
<text text-anchor="start" x="309" y="-79.5" font-family="Helvetica,sans-Serif" font-size="10.00">openage::util::Profiler</text>
<text text-anchor="middle" x="355" y="-68.5" font-family="Helvetica,sans-Serif" font-size="10.00">::show</text>
</a>
</g>
</g>
<!-- Node21&#45;&gt;Node22 -->
<g id="edge7" class="edge"><title>Node21&#45;&gt;Node22</title>
<path fill="none" stroke="midnightblue" d="M262.896,-84.6962C271.988,-83.8782 281.509,-83.0217 290.825,-82.1836"/>
<polygon fill="midnightblue" stroke="midnightblue" points="291.177,-85.6661 300.824,-81.284 290.55,-78.6942 291.177,-85.6661"/>
</g>
<!-- Node23 -->
<g id="node9" class="node"><title>Node23</title>
<g id="a_node9"><a xlink:href="classopenage_1_1util_1_1_profiler.xhtml#af93273980b931c6d16282cadca5f82f8" target="_top" xlink:title=" ">
<polygon fill="white" stroke="black" points="468.5,-98.5 468.5,-128.5 576.5,-128.5 576.5,-98.5 468.5,-98.5"/>
<text text-anchor="start" x="476.5" y="-116.5" font-family="Helvetica,sans-Serif" font-size="10.00">openage::util::Profiler</text>
<text text-anchor="middle" x="522.5" y="-105.5" font-family="Helvetica,sans-Serif" font-size="10.00">::draw_canvas</text>
</a>
</g>
</g>
<!-- Node22&#45;&gt;Node23 -->
<g id="edge8" class="edge"><title>Node22&#45;&gt;Node23</title>
<path fill="none" stroke="midnightblue" d="M409.276,-88.4107C424.927,-91.9096 442.195,-95.7703 458.397,-99.3925"/>
<polygon fill="midnightblue" stroke="midnightblue" points="457.801,-102.845 468.324,-101.612 459.328,-96.0141 457.801,-102.845"/>
</g>
<!-- Node24 -->
<g id="node10" class="node"><title>Node24</title>
<g id="a_node10"><a xlink:href="classopenage_1_1util_1_1_profiler.xhtml#a888378de2be112d90babd8adced6d0a8" target="_top" xlink:title=" ">
<polygon fill="white" stroke="black" points="468.5,-49.5 468.5,-79.5 576.5,-79.5 576.5,-49.5 468.5,-49.5"/>
<text text-anchor="start" x="476.5" y="-67.5" font-family="Helvetica,sans-Serif" font-size="10.00">openage::util::Profiler</text>
<text text-anchor="middle" x="522.5" y="-56.5" font-family="Helvetica,sans-Serif" font-size="10.00">::draw_legend</text>
</a>
</g>
</g>
<!-- Node22&#45;&gt;Node24 -->
<g id="edge9" class="edge"><title>Node22&#45;&gt;Node24</title>
<path fill="none" stroke="midnightblue" d="M409.276,-72.6371C424.779,-71.513 441.87,-70.2738 457.939,-69.1087"/>
<polygon fill="midnightblue" stroke="midnightblue" points="458.603,-72.5698 468.324,-68.3557 458.097,-65.5881 458.603,-72.5698"/>
</g>
<!-- Node25 -->
<g id="node11" class="node"><title>Node25</title>
<g id="a_node11"><a xlink:href="classopenage_1_1util_1_1_profiler.xhtml#afe6ad0c0a72b3ef9a321aec98a5bb9fe" target="_top" xlink:title=" ">
<polygon fill="white" stroke="black" points="445,-0.5 445,-30.5 600,-30.5 600,-0.5 445,-0.5"/>
<text text-anchor="start" x="453" y="-18.5" font-family="Helvetica,sans-Serif" font-size="10.00">openage::util::Profiler</text>
<text text-anchor="middle" x="522.5" y="-7.5" font-family="Helvetica,sans-Serif" font-size="10.00">::draw_component_performance</text>
</a>
</g>
</g>
<!-- Node22&#45;&gt;Node25 -->
<g id="edge11" class="edge"><title>Node22&#45;&gt;Node25</title>
<path fill="none" stroke="midnightblue" d="M391.726,-61.3978C407.894,-54.7316 427.308,-46.9603 445,-40.5 451.029,-38.2984 457.358,-36.0819 463.684,-33.9268"/>
<polygon fill="midnightblue" stroke="midnightblue" points="465.217,-37.1043 473.581,-30.6016 462.987,-30.4689 465.217,-37.1043"/>
</g>
<!-- Node24&#45;&gt;Node16 -->
<g id="edge10" class="edge"><title>Node24&#45;&gt;Node16</title>
<path fill="none" stroke="midnightblue" d="M576.576,-77.8051C602.647,-84.3406 633.817,-92.1545 659.147,-98.5043"/>
<polygon fill="midnightblue" stroke="midnightblue" points="658.349,-101.912 668.9,-100.949 660.052,-95.1225 658.349,-101.912"/>
</g>
<!-- Node26 -->
<g id="node12" class="node"><title>Node26</title>
<g id="a_node12"><a xlink:href="namespaceopenage_1_1util.xhtml#a7e483e123bf554b630319eb3dd012c02" target="_top" xlink:title=" ">
<polygon fill="white" stroke="black" points="659.5,-6 659.5,-25 756.5,-25 756.5,-6 659.5,-6"/>
<text text-anchor="middle" x="708" y="-13" font-family="Helvetica,sans-Serif" font-size="10.00">openage::util::mod</text>
</a>
</g>
</g>
<!-- Node25&#45;&gt;Node26 -->
<g id="edge12" class="edge"><title>Node25&#45;&gt;Node26</title>
<path fill="none" stroke="midnightblue" d="M600.257,-15.5C616.536,-15.5 633.461,-15.5 648.909,-15.5"/>
<polygon fill="midnightblue" stroke="midnightblue" points="649.341,-19.0001 659.341,-15.5 649.341,-12.0001 649.341,-19.0001"/>
</g>
</g>
</svg>
        <g id="navigator" transform="translate(0 0)" fill="#404254">
                <rect fill="#f2f5e9" fill-opacity="0.5" stroke="#606060" stroke-width=".5" x="0" y="0" width="60" height="60"/>
                <use id="zoomplus" xlink:href="#zoomPlus" x="17" y="9" onmousedown="handleZoom(evt,'in')"/>
                <use id="zoomminus" xlink:href="#zoomMin" x="42" y="9" onmousedown="handleZoom(evt,'out')"/>
                <use id="reset" xlink:href="#resetDef" x="30" y="36" onmousedown="handleReset()"/>
                <g id="arrowUp" xlink:href="#dirArrow" transform="translate(30 24)" onmousedown="handlePan(0,-1)">
                  <use xlink:href="#rim" fill="#404040">
                        <set attributeName="fill" to="#808080" begin="arrowUp.mouseover" end="arrowUp.mouseout"/>
                  </use>
                  <path fill="none" stroke="white" stroke-width="1.5" d="M0,-3.0v7 M-2.5,-0.5L0,-3.0L2.5,-0.5"/>
                </g>
                <g id="arrowRight" xlink:href="#dirArrow" transform="rotate(90) translate(36 -43)" onmousedown="handlePan(1,0)">
                  <use xlink:href="#rim" fill="#404040">
                        <set attributeName="fill" to="#808080" begin="arrowRight.mouseover" end="arrowRight.mouseout"/>
                  </use>
                  <path fill="none" stroke="white" stroke-width="1.5" d="M0,-3.0v7 M-2.5,-0.5L0,-3.0L2.5,-0.5"/>
                </g>
                <g id="arrowDown" xlink:href="#dirArrow" transform="rotate(180) translate(-30 -48)" onmousedown="handlePan(0,1)">
                  <use xlink:href="#rim" fill="#404040">
                        <set attributeName="fill" to="#808080" begin="arrowDown.mouseover" end="arrowDown.mouseout"/>
                  </use>
                  <path fill="none" stroke="white" stroke-width="1.5" d="M0,-3.0v7 M-2.5,-0.5L0,-3.0L2.5,-0.5"/>
                </g>
                <g id="arrowLeft" xlink:href="#dirArrow" transform="rotate(270) translate(-36 17)" onmousedown="handlePan(-1,0)">
                  <use xlink:href="#rim" fill="#404040">
                        <set attributeName="fill" to="#808080" begin="arrowLeft.mouseover" end="arrowLeft.mouseout"/>
                  </use>
                  <path fill="none" stroke="white" stroke-width="1.5" d="M0,-3.0v7 M-2.5,-0.5L0,-3.0L2.5,-0.5"/>
                </g>
        </g>
        <svg viewBox="0 0 15 15" width="100%" height="30px" preserveAspectRatio="xMaxYMin meet">
         <g id="arrow_out" transform="scale(0.3 0.3)">
          <a xlink:href="classopenage_1_1_engine_ae7f43b96e5e097cebfd9c102676cf2c8_cgraph_org.svg" target="_base">
           <rect id="button" ry="5" rx="5" y="6" x="6" height="38" width="38"
                fill="#f2f5e9" fill-opacity="0.5" stroke="#606060" stroke-width="1.0"/>
           <path id="arrow"
             d="M 11.500037,31.436501 C 11.940474,20.09759 22.043105,11.32322 32.158766,21.979434 L 37.068811,17.246167 C 37.068811,17.246167 37.088388,32 37.088388,32 L 22.160133,31.978069 C 22.160133,31.978069 26.997745,27.140456 26.997745,27.140456 C 18.528582,18.264221 13.291696,25.230495 11.500037,31.436501 z"
             style="fill:#404040;"/>
          </a>
         </g>
        </svg>
</svg>
