<?xml version="1.0" encoding="UTF-8" standalone="no"?>
<!DOCTYPE svg PUBLIC "-//W3C//DTD SVG 1.1//EN"
 "http://www.w3.org/Graphics/SVG/1.1/DTD/svg11.dtd">
<!-- Generated by graphviz version 2.38.0 (20140413.2041)
 -->
<!-- Title: openage::renderer::opengl::GlWindow::update Pages: 1 -->
<svg width="629pt" height="132pt"
 viewBox="0.00 0.00 629.00 132.00" xmlns="http://www.w3.org/2000/svg" xmlns:xlink="http://www.w3.org/1999/xlink">
<g id="graph0" class="graph" transform="scale(1 1) rotate(0) translate(4 128)">
<title>openage::renderer::opengl::GlWindow::update</title>
<polygon fill="white" stroke="none" points="-4,4 -4,-128 625,-128 625,4 -4,4"/>
<!-- Node29 -->
<g id="node1" class="node"><title>Node29</title>
<g id="a_node1"><a xlink:title="Polls for window events, calls callbacks for these events, swaps front and back framebuffers to prese...">
<polygon fill="#bfbfbf" stroke="black" points="0,-80 0,-110 131,-110 131,-80 0,-80"/>
<text text-anchor="start" x="8" y="-98" font-family="Helvetica,sans-Serif" font-size="10.00">openage::renderer::</text>
<text text-anchor="middle" x="65.5" y="-87" font-family="Helvetica,sans-Serif" font-size="10.00">opengl::GlWindow::update</text>
</a>
</g>
</g>
<!-- Node30 -->
<g id="node2" class="node"><title>Node30</title>
<g id="a_node2"><a xlink:href="namespaceopenage_1_1log.xhtml#aad3d76b2466dbc4f81552935f2d84faa" target="_top" xlink:title="debug message">
<polygon fill="white" stroke="black" points="168.5,-104.5 168.5,-123.5 256.5,-123.5 256.5,-104.5 168.5,-104.5"/>
<text text-anchor="middle" x="212.5" y="-111.5" font-family="Helvetica,sans-Serif" font-size="10.00">openage.log.dbg</text>
</a>
</g>
</g>
<!-- Node29&#45;&gt;Node30 -->
<g id="edge1" class="edge"><title>Node29&#45;&gt;Node30</title>
<path fill="none" stroke="midnightblue" d="M131.366,-103.5C140.363,-104.679 149.518,-105.878 158.269,-107.025"/>
<polygon fill="midnightblue" stroke="midnightblue" points="157.953,-110.513 168.323,-108.342 158.863,-103.573 157.953,-110.513"/>
</g>
<!-- Node31 -->
<g id="node3" class="node"><title>Node31</title>
<g id="a_node3"><a xlink:href="namespaceopenage_1_1log.xhtml#a0eff614e7d6e818746700ed9d29e583f" target="_top" xlink:title="Convenience method that makes use of the &#39;general&#39; LogSource.">
<polygon fill="white" stroke="black" points="167,-66.5 167,-85.5 258,-85.5 258,-66.5 167,-66.5"/>
<text text-anchor="middle" x="212.5" y="-73.5" font-family="Helvetica,sans-Serif" font-size="10.00">openage::log::log</text>
</a>
</g>
</g>
<!-- Node29&#45;&gt;Node31 -->
<g id="edge2" class="edge"><title>Node29&#45;&gt;Node31</title>
<path fill="none" stroke="midnightblue" d="M131.366,-86.5003C139.743,-85.4026 148.257,-84.287 156.455,-83.2128"/>
<polygon fill="midnightblue" stroke="midnightblue" points="157.175,-86.6484 166.636,-81.8788 156.266,-79.7078 157.175,-86.6484"/>
</g>
<!-- Node32 -->
<g id="node4" class="node"><title>Node32</title>
<g id="a_node4"><a xlink:href="namespaceopenage_1_1log.xhtml#a3fbb0c225d01e222648ec28a43507188" target="_top" xlink:title="Returns a reference to a general named log source, for use by log::log().">
<polygon fill="white" stroke="black" points="310.5,-83 310.5,-113 420.5,-113 420.5,-83 310.5,-83"/>
<text text-anchor="start" x="318.5" y="-101" font-family="Helvetica,sans-Serif" font-size="10.00">openage::log::general</text>
<text text-anchor="middle" x="365.5" y="-90" font-family="Helvetica,sans-Serif" font-size="10.00">_source</text>
</a>
</g>
</g>
<!-- Node31&#45;&gt;Node32 -->
<g id="edge3" class="edge"><title>Node31&#45;&gt;Node32</title>
<path fill="none" stroke="midnightblue" d="M258.396,-82.5412C271.548,-84.4573 286.191,-86.5907 300.296,-88.6457"/>
<polygon fill="midnightblue" stroke="midnightblue" points="300.042,-92.1456 310.442,-90.124 301.051,-85.2188 300.042,-92.1456"/>
</g>
<!-- Node33 -->
<g id="node5" class="node"><title>Node33</title>
<g id="a_node5"><a xlink:href="classopenage_1_1log_1_1_log_source.xhtml#a5640099e20af4cd368c767dbcef3a1df" target="_top" xlink:title="Logs a message (get one via MSG(level)).">
<polygon fill="white" stroke="black" points="294,-44.5 294,-63.5 437,-63.5 437,-44.5 294,-44.5"/>
<text text-anchor="middle" x="365.5" y="-51.5" font-family="Helvetica,sans-Serif" font-size="10.00">openage::log::LogSource::log</text>
</a>
</g>
</g>
<!-- Node31&#45;&gt;Node33 -->
<g id="edge4" class="edge"><title>Node31&#45;&gt;Node33</title>
<path fill="none" stroke="midnightblue" d="M258.396,-69.4588C268.081,-68.0479 278.574,-66.5191 289.065,-64.9905"/>
<polygon fill="midnightblue" stroke="midnightblue" points="289.706,-68.4342 299.097,-63.5289 288.697,-61.5073 289.706,-68.4342"/>
</g>
<!-- Node34 -->
<g id="node6" class="node"><title>Node34</title>
<g id="a_node6"><a xlink:href="namespaceopenage_1_1log.xhtml#a3d2885be9c3a09b9ff7ee8764b2e5f39" target="_top" xlink:title="Returns a reference to the global stdout logsink object; Initializes the object if needed.">
<polygon fill="white" stroke="black" points="495,-88 495,-118 599,-118 599,-88 495,-88"/>
<text text-anchor="start" x="503" y="-106" font-family="Helvetica,sans-Serif" font-size="10.00">openage::log::global</text>
<text text-anchor="middle" x="547" y="-95" font-family="Helvetica,sans-Serif" font-size="10.00">_stdoutsink</text>
</a>
</g>
</g>
<!-- Node33&#45;&gt;Node34 -->
<g id="edge5" class="edge"><title>Node33&#45;&gt;Node34</title>
<path fill="none" stroke="midnightblue" d="M401.536,-63.564C425.265,-70.0416 457.246,-78.7718 485.085,-86.3714"/>
<polygon fill="midnightblue" stroke="midnightblue" points="484.17,-89.7497 494.739,-89.0067 486.014,-82.9968 484.17,-89.7497"/>
</g>
<!-- Node35 -->
<g id="node7" class="node"><title>Node35</title>
<g id="a_node7"><a xlink:href="classopenage_1_1log_1_1_log_sink_list.xhtml#a2d47416fab12651553b4b58c86fd6f84" target="_top" xlink:title=" ">
<polygon fill="white" stroke="black" points="482.5,-39 482.5,-69 611.5,-69 611.5,-39 482.5,-39"/>
<text text-anchor="start" x="490.5" y="-57" font-family="Helvetica,sans-Serif" font-size="10.00">openage::log::LogSinkList</text>
<text text-anchor="middle" x="547" y="-46" font-family="Helvetica,sans-Serif" font-size="10.00">::instance</text>
</a>
</g>
</g>
<!-- Node33&#45;&gt;Node35 -->
<g id="edge6" class="edge"><title>Node33&#45;&gt;Node35</title>
<path fill="none" stroke="midnightblue" d="M437.185,-54C448.719,-54 460.693,-54 472.297,-54"/>
<polygon fill="midnightblue" stroke="midnightblue" points="472.38,-57.5001 482.379,-54 472.379,-50.5001 472.38,-57.5001"/>
</g>
<!-- Node36 -->
<g id="node8" class="node"><title>Node36</title>
<g id="a_node8"><a xlink:href="classopenage_1_1log_1_1_log_sink_list.xhtml#a8456b84ab55e1fe151c51438c5bfebdd" target="_top" xlink:title=" ">
<polygon fill="white" stroke="black" points="473,-0.5 473,-19.5 621,-19.5 621,-0.5 473,-0.5"/>
<text text-anchor="middle" x="547" y="-7.5" font-family="Helvetica,sans-Serif" font-size="10.00">openage::log::LogSinkList::log</text>
</a>
</g>
</g>
<!-- Node33&#45;&gt;Node36 -->
<g id="edge7" class="edge"><title>Node33&#45;&gt;Node36</title>
<path fill="none" stroke="midnightblue" d="M405.449,-44.4527C432.382,-37.8508 468.415,-29.0181 497.253,-21.949"/>
<polygon fill="midnightblue" stroke="midnightblue" points="498.248,-25.3089 507.127,-19.5287 496.581,-18.5102 498.248,-25.3089"/>
</g>
</g>
</svg>
