<?xml version="1.0" encoding="UTF-8" standalone="no"?>
<!DOCTYPE svg PUBLIC "-//W3C//DTD SVG 1.1//EN"
 "http://www.w3.org/Graphics/SVG/1.1/DTD/svg11.dtd">
<!-- Generated by graphviz version 2.38.0 (20140413.2041)
 -->
<!-- Title: openage.util.filelike.abstract.FileLikeObject.seek_helper Pages: 1 -->
<!--zoomable 786 -->
<svg id="main" version="1.1" xmlns="http://www.w3.org/2000/svg" xmlns:xlink="http://www.w3.org/1999/xlink" xml:space="preserve" onload="init(evt)">
<style type="text/css"><![CDATA[
.edge:hover path { stroke: red; }
.edge:hover polygon { stroke: red; fill: red; }
]]></style>
<script type="text/javascript"><![CDATA[
var edges = document.getElementsByTagName('g');
if (edges && edges.length) {
  for (var i=0;i<edges.length;i++) {
    if (edges[i].id.substr(0,4)=='edge') {
      edges[i].setAttribute('class','edge');
    }
  }
}
]]></script>
        <defs>
                <circle id="rim" cx="0" cy="0" r="7"/>
                <circle id="rim2" cx="0" cy="0" r="3.5"/>
                <g id="zoomPlus">
                        <use xlink:href="#rim" fill="#404040">
                                <set attributeName="fill" to="#808080" begin="zoomplus.mouseover" end="zoomplus.mouseout"/>
                        </use>
                        <path d="M-4,0h8M0,-4v8" fill="none" stroke="white" stroke-width="1.5" pointer-events="none"/>
                </g>
                <g id="zoomMin">
                        <use xlink:href="#rim" fill="#404040">
                                <set attributeName="fill" to="#808080" begin="zoomminus.mouseover" end="zoomminus.mouseout"/>
                        </use>
                        <path d="M-4,0h8" fill="none" stroke="white" stroke-width="1.5" pointer-events="none"/>
                </g>
                <g id="dirArrow">
                        <path fill="none" stroke="white" stroke-width="1.5" d="M0,-3.0v7 M-2.5,-0.5L0,-3.0L2.5,-0.5"/>
                </g>
               <g id="resetDef">
                       <use xlink:href="#rim2" fill="#404040">
                               <set attributeName="fill" to="#808080" begin="reset.mouseover" end="reset.mouseout"/>
                       </use>
               </g>
        </defs>

<script type="text/javascript">
var viewWidth = 355;
var viewHeight = 786;
var sectionId = 'dynsection-6';
</script>
<script xlink:href="svgpan.js"/>
<svg id="graph" class="graph">
<g id="viewport">
<title>openage.util.filelike.abstract.FileLikeObject.seek_helper</title>
<polygon fill="white" stroke="none" points="-4,4 -4,-782 351,-782 351,4 -4,4"/>
<!-- Node37 -->
<g id="node1" class="node"><title>Node37</title>
<g id="a_node1"><a xlink:title="Helper function for use by implementations of seek().">
<polygon fill="#bfbfbf" stroke="black" points="0,-367.5 0,-397.5 140,-397.5 140,-367.5 0,-367.5"/>
<text text-anchor="start" x="8" y="-385.5" font-family="Helvetica,sans-Serif" font-size="10.00">openage.util.filelike.abstract.</text>
<text text-anchor="middle" x="70" y="-374.5" font-family="Helvetica,sans-Serif" font-size="10.00">FileLikeObject.seek_helper</text>
</a>
</g>
</g>
<!-- Node38 -->
<g id="node2" class="node"><title>Node38</title>
<g id="a_node2"><a xlink:href="classopenage_1_1renderer_1_1_window.xhtml#a1bf53e4db756c04ed522a975573b36a6" target="_top" xlink:title="Returns the dimensions of this window.">
<polygon fill="white" stroke="black" points="211,-747.5 211,-777.5 312,-777.5 312,-747.5 211,-747.5"/>
<text text-anchor="start" x="219" y="-765.5" font-family="Helvetica,sans-Serif" font-size="10.00">openage::renderer::</text>
<text text-anchor="middle" x="261.5" y="-754.5" font-family="Helvetica,sans-Serif" font-size="10.00">Window::get_size</text>
</a>
</g>
</g>
<!-- Node37&#45;&gt;Node38 -->
<g id="edge1" class="edge"><title>Node37&#45;&gt;Node38</title>
<path fill="none" stroke="midnightblue" d="M70.6521,-397.543C70.2492,-451.869 76.3994,-639.898 176,-738.5 183.072,-745.501 192.028,-750.492 201.449,-754.043"/>
<polygon fill="midnightblue" stroke="midnightblue" points="200.38,-757.376 210.972,-757.136 202.542,-750.718 200.38,-757.376"/>
</g>
<!-- Node39 -->
<g id="node3" class="node"><title>Node39</title>
<g id="a_node3"><a xlink:href="classopenage_1_1renderer_1_1opengl_1_1_gl_buffer.xhtml#a6b6867a9bcc96e5d36923ce98bd7a635" target="_top" xlink:title="The size in bytes of this buffer.">
<polygon fill="white" stroke="black" points="197.5,-698.5 197.5,-728.5 325.5,-728.5 325.5,-698.5 197.5,-698.5"/>
<text text-anchor="start" x="205.5" y="-716.5" font-family="Helvetica,sans-Serif" font-size="10.00">openage::renderer::</text>
<text text-anchor="middle" x="261.5" y="-705.5" font-family="Helvetica,sans-Serif" font-size="10.00">opengl::GlBuffer::get_size</text>
</a>
</g>
</g>
<!-- Node37&#45;&gt;Node39 -->
<g id="edge2" class="edge"><title>Node37&#45;&gt;Node39</title>
<path fill="none" stroke="midnightblue" d="M71.4721,-397.532C73.8614,-447.008 88.3361,-606.348 176,-689.5 179.613,-692.927 183.68,-695.871 188.025,-698.398"/>
<polygon fill="midnightblue" stroke="midnightblue" points="186.77,-701.684 197.28,-703.023 189.899,-695.422 186.77,-701.684"/>
</g>
<!-- Node40 -->
<g id="node4" class="node"><title>Node40</title>
<g id="a_node4"><a xlink:href="classopenage_1_1util_1_1filelike_1_1_native.xhtml#ac4dd2bd1f87b66cc3de59abd1672d606" target="_top" xlink:title=" ">
<polygon fill="white" stroke="black" points="209,-649.5 209,-679.5 314,-679.5 314,-649.5 209,-649.5"/>
<text text-anchor="start" x="217" y="-667.5" font-family="Helvetica,sans-Serif" font-size="10.00">openage::util::filelike</text>
<text text-anchor="middle" x="261.5" y="-656.5" font-family="Helvetica,sans-Serif" font-size="10.00">::Native::get_size</text>
</a>
</g>
</g>
<!-- Node37&#45;&gt;Node40 -->
<g id="edge3" class="edge"><title>Node37&#45;&gt;Node40</title>
<path fill="none" stroke="midnightblue" d="M72.5862,-397.616C78.0554,-441.916 100.179,-572.577 176,-640.5 182.685,-646.489 190.762,-650.992 199.238,-654.377"/>
<polygon fill="midnightblue" stroke="midnightblue" points="198.329,-657.766 208.924,-657.743 200.627,-651.154 198.329,-657.766"/>
</g>
<!-- Node41 -->
<g id="node5" class="node"><title>Node41</title>
<g id="a_node5"><a xlink:href="classopenage_1_1util_1_1filelike_1_1_python.xhtml#aa2723a9836cd17708e0341691d5ca5dd" target="_top" xlink:title=" ">
<polygon fill="white" stroke="black" points="209,-600.5 209,-630.5 314,-630.5 314,-600.5 209,-600.5"/>
<text text-anchor="start" x="217" y="-618.5" font-family="Helvetica,sans-Serif" font-size="10.00">openage::util::filelike</text>
<text text-anchor="middle" x="261.5" y="-607.5" font-family="Helvetica,sans-Serif" font-size="10.00">::Python::get_size</text>
</a>
</g>
</g>
<!-- Node37&#45;&gt;Node41 -->
<g id="edge4" class="edge"><title>Node37&#45;&gt;Node41</title>
<path fill="none" stroke="midnightblue" d="M74.2611,-397.65C83.3019,-435.949 112.334,-537.365 176,-590.5 182.827,-596.198 190.91,-600.597 199.327,-603.994"/>
<polygon fill="midnightblue" stroke="midnightblue" points="198.328,-607.353 208.922,-607.418 200.681,-600.761 198.328,-607.353"/>
</g>
<!-- Node42 -->
<g id="node6" class="node"><title>Node42</title>
<g id="a_node6"><a xlink:href="classopenage_1_1renderer_1_1resources_1_1_texture2d_info.xhtml#a3bd462432c63a67c1b199c3f717bce50" target="_top" xlink:title=" ">
<polygon fill="white" stroke="black" points="200,-540 200,-581 323,-581 323,-540 200,-540"/>
<text text-anchor="start" x="208" y="-569" font-family="Helvetica,sans-Serif" font-size="10.00">openage::renderer::</text>
<text text-anchor="start" x="208" y="-558" font-family="Helvetica,sans-Serif" font-size="10.00">resources::Texture2dInfo</text>
<text text-anchor="middle" x="261.5" y="-547" font-family="Helvetica,sans-Serif" font-size="10.00">::get_size</text>
</a>
</g>
</g>
<!-- Node37&#45;&gt;Node42 -->
<g id="edge5" class="edge"><title>Node37&#45;&gt;Node42</title>
<path fill="none" stroke="midnightblue" d="M77.915,-397.851C92.0877,-427.651 127.251,-493.636 176,-530.5 180.614,-533.989 185.668,-537.097 190.938,-539.861"/>
<polygon fill="midnightblue" stroke="midnightblue" points="189.441,-543.025 199.971,-544.195 192.469,-536.714 189.441,-543.025"/>
</g>
<!-- Node43 -->
<g id="node7" class="node"><title>Node43</title>
<g id="a_node7"><a xlink:href="classopenage_1_1cabextract_1_1lzxdstream_1_1_l_z_x_d_stream.xhtml#ab3cbec4d52b33409ea1569d92496b50b" target="_top" xlink:title=" ">
<polygon fill="white" stroke="black" points="183.5,-490.5 183.5,-520.5 339.5,-520.5 339.5,-490.5 183.5,-490.5"/>
<text text-anchor="start" x="191.5" y="-508.5" font-family="Helvetica,sans-Serif" font-size="10.00">openage.cabextract.lzxdstream.</text>
<text text-anchor="middle" x="261.5" y="-497.5" font-family="Helvetica,sans-Serif" font-size="10.00">LZXDStream.get_size</text>
</a>
</g>
</g>
<!-- Node37&#45;&gt;Node43 -->
<g id="edge6" class="edge"><title>Node37&#45;&gt;Node43</title>
<path fill="none" stroke="midnightblue" d="M82.8985,-397.608C100.804,-419.336 136.782,-459.234 176,-481.5 179.077,-483.247 182.291,-484.875 185.591,-486.39"/>
<polygon fill="midnightblue" stroke="midnightblue" points="184.502,-489.729 195.078,-490.369 187.21,-483.274 184.502,-489.729"/>
</g>
<!-- Node44 -->
<g id="node8" class="node"><title>Node44</title>
<g id="a_node8"><a xlink:href="classopenage_1_1util_1_1filelike_1_1_file_like.xhtml#a212820ce88cf538a4099f14f622e569b" target="_top" xlink:title=" ">
<polygon fill="white" stroke="black" points="209,-441.5 209,-471.5 314,-471.5 314,-441.5 209,-441.5"/>
<text text-anchor="start" x="217" y="-459.5" font-family="Helvetica,sans-Serif" font-size="10.00">openage::util::filelike</text>
<text text-anchor="middle" x="261.5" y="-448.5" font-family="Helvetica,sans-Serif" font-size="10.00">::FileLike::get_size</text>
</a>
</g>
</g>
<!-- Node37&#45;&gt;Node44 -->
<g id="edge7" class="edge"><title>Node37&#45;&gt;Node44</title>
<path fill="none" stroke="midnightblue" d="M99.4031,-397.624C120.215,-408.308 149.362,-422.456 176,-432.5 183.324,-435.262 191.109,-437.881 198.874,-440.303"/>
<polygon fill="midnightblue" stroke="midnightblue" points="198.079,-443.719 208.664,-443.263 200.104,-437.019 198.079,-443.719"/>
</g>
<!-- Node45 -->
<g id="node9" class="node"><title>Node45</title>
<g id="a_node9"><a xlink:href="classopenage_1_1util_1_1filelike_1_1abstract_1_1_file_like_object.xhtml#a402459217e8204b8242829b019ad85a7" target="_top" xlink:title=" ">
<polygon fill="white" stroke="black" points="191.5,-392.5 191.5,-422.5 331.5,-422.5 331.5,-392.5 191.5,-392.5"/>
<text text-anchor="start" x="199.5" y="-410.5" font-family="Helvetica,sans-Serif" font-size="10.00">openage.util.filelike.abstract.</text>
<text text-anchor="middle" x="261.5" y="-399.5" font-family="Helvetica,sans-Serif" font-size="10.00">FileLikeObject.get_size</text>
</a>
</g>
</g>
<!-- Node37&#45;&gt;Node45 -->
<g id="edge8" class="edge"><title>Node37&#45;&gt;Node45</title>
<path fill="none" stroke="midnightblue" d="M140.218,-391.632C153.53,-393.388 167.569,-395.24 181.171,-397.034"/>
<polygon fill="midnightblue" stroke="midnightblue" points="181.097,-400.555 191.469,-398.393 182.013,-393.615 181.097,-400.555"/>
</g>
<!-- Node46 -->
<g id="node10" class="node"><title>Node46</title>
<g id="a_node10"><a xlink:href="classopenage_1_1_terrain_chunk.xhtml#afd204c75d8f3ef28ad07f8ce1ba79894" target="_top" xlink:title=" ">
<polygon fill="white" stroke="black" points="203.5,-343.5 203.5,-373.5 319.5,-373.5 319.5,-343.5 203.5,-343.5"/>
<text text-anchor="start" x="211.5" y="-361.5" font-family="Helvetica,sans-Serif" font-size="10.00">openage::TerrainChunk</text>
<text text-anchor="middle" x="261.5" y="-350.5" font-family="Helvetica,sans-Serif" font-size="10.00">::get_size</text>
</a>
</g>
</g>
<!-- Node37&#45;&gt;Node46 -->
<g id="edge9" class="edge"><title>Node37&#45;&gt;Node46</title>
<path fill="none" stroke="midnightblue" d="M140.218,-373.734C157.541,-371.54 176.095,-369.19 193.317,-367.009"/>
<polygon fill="midnightblue" stroke="midnightblue" points="193.803,-370.475 203.284,-365.746 192.924,-363.531 193.803,-370.475"/>
</g>
<!-- Node47 -->
<g id="node11" class="node"><title>Node47</title>
<g id="a_node11"><a xlink:href="classopenage_1_1cabextract_1_1cab_1_1_c_a_b_folder_stream.xhtml#a22d3c8597d3b8ef507a98145bd623990" target="_top" xlink:title=" ">
<polygon fill="white" stroke="black" points="176,-294.5 176,-324.5 347,-324.5 347,-294.5 176,-294.5"/>
<text text-anchor="start" x="184" y="-312.5" font-family="Helvetica,sans-Serif" font-size="10.00">openage.cabextract.cab.CABFolder</text>
<text text-anchor="middle" x="261.5" y="-301.5" font-family="Helvetica,sans-Serif" font-size="10.00">Stream.get_size</text>
</a>
</g>
</g>
<!-- Node37&#45;&gt;Node47 -->
<g id="edge10" class="edge"><title>Node37&#45;&gt;Node47</title>
<path fill="none" stroke="midnightblue" d="M100.849,-367.488C121.608,-357.388 150.096,-344.198 176,-334.5 182.353,-332.121 189.041,-329.817 195.757,-327.632"/>
<polygon fill="midnightblue" stroke="midnightblue" points="197.103,-330.877 205.58,-324.522 194.99,-324.203 197.103,-330.877"/>
</g>
<!-- Node48 -->
<g id="node12" class="node"><title>Node48</title>
<g id="a_node12"><a xlink:href="classopenage_1_1util_1_1filelike_1_1_native.xhtml#a3cd357c014b8193cfdaaf48eec32ec1b" target="_top" xlink:title=" ">
<polygon fill="white" stroke="black" points="209,-245.5 209,-275.5 314,-275.5 314,-245.5 209,-245.5"/>
<text text-anchor="start" x="217" y="-263.5" font-family="Helvetica,sans-Serif" font-size="10.00">openage::util::filelike</text>
<text text-anchor="middle" x="261.5" y="-252.5" font-family="Helvetica,sans-Serif" font-size="10.00">::Native::tell</text>
</a>
</g>
</g>
<!-- Node37&#45;&gt;Node48 -->
<g id="edge11" class="edge"><title>Node37&#45;&gt;Node48</title>
<path fill="none" stroke="midnightblue" d="M83.3009,-367.409C101.431,-346.126 137.377,-307.447 176,-285.5 183.266,-281.371 191.278,-277.866 199.388,-274.907"/>
<polygon fill="midnightblue" stroke="midnightblue" points="200.566,-278.203 208.913,-271.679 198.319,-271.574 200.566,-278.203"/>
</g>
<!-- Node49 -->
<g id="node13" class="node"><title>Node49</title>
<g id="a_node13"><a xlink:href="classopenage_1_1util_1_1filelike_1_1_python.xhtml#a116cc148489f31270f4f85c8d8ecf1f1" target="_top" xlink:title=" ">
<polygon fill="white" stroke="black" points="209,-196.5 209,-226.5 314,-226.5 314,-196.5 209,-196.5"/>
<text text-anchor="start" x="217" y="-214.5" font-family="Helvetica,sans-Serif" font-size="10.00">openage::util::filelike</text>
<text text-anchor="middle" x="261.5" y="-203.5" font-family="Helvetica,sans-Serif" font-size="10.00">::Python::tell</text>
</a>
</g>
</g>
<!-- Node37&#45;&gt;Node49 -->
<g id="edge12" class="edge"><title>Node37&#45;&gt;Node49</title>
<path fill="none" stroke="midnightblue" d="M77.8031,-367.128C91.7798,-337.331 126.615,-271.569 176,-236.5 182.993,-231.534 190.976,-227.544 199.179,-224.341"/>
<polygon fill="midnightblue" stroke="midnightblue" points="200.595,-227.553 208.865,-220.931 198.27,-220.951 200.595,-227.553"/>
</g>
<!-- Node50 -->
<g id="node14" class="node"><title>Node50</title>
<g id="a_node14"><a xlink:href="classopenage_1_1util_1_1filelike_1_1abstract_1_1_file_like_object.xhtml#a0ad9d642b58e227e95d4c03b49b57d0b" target="_top" xlink:title="Returns the current position in the file.">
<polygon fill="white" stroke="black" points="191.5,-147.5 191.5,-177.5 331.5,-177.5 331.5,-147.5 191.5,-147.5"/>
<text text-anchor="start" x="199.5" y="-165.5" font-family="Helvetica,sans-Serif" font-size="10.00">openage.util.filelike.abstract.</text>
<text text-anchor="middle" x="261.5" y="-154.5" font-family="Helvetica,sans-Serif" font-size="10.00">FileLikeObject.tell</text>
</a>
</g>
</g>
<!-- Node37&#45;&gt;Node50 -->
<g id="edge13" class="edge"><title>Node37&#45;&gt;Node50</title>
<path fill="none" stroke="midnightblue" d="M74.7742,-367.485C84.7413,-330.957 115.269,-236.837 176,-187.5 178.078,-185.812 180.267,-184.238 182.541,-182.77"/>
<polygon fill="midnightblue" stroke="midnightblue" points="184.692,-185.575 191.688,-177.619 181.258,-179.476 184.692,-185.575"/>
</g>
<!-- Node51 -->
<g id="node15" class="node"><title>Node51</title>
<g id="a_node15"><a xlink:href="classopenage_1_1util_1_1filelike_1_1_file_like.xhtml#a30eeb9b647177a0aaf06ca241e347196" target="_top" xlink:title=" ">
<polygon fill="white" stroke="black" points="209,-98.5 209,-128.5 314,-128.5 314,-98.5 209,-98.5"/>
<text text-anchor="start" x="217" y="-116.5" font-family="Helvetica,sans-Serif" font-size="10.00">openage::util::filelike</text>
<text text-anchor="middle" x="261.5" y="-105.5" font-family="Helvetica,sans-Serif" font-size="10.00">::FileLike::tell</text>
</a>
</g>
</g>
<!-- Node37&#45;&gt;Node51 -->
<g id="edge14" class="edge"><title>Node37&#45;&gt;Node51</title>
<path fill="none" stroke="midnightblue" d="M73.0296,-367.317C79.5496,-324.627 103.923,-202.491 176,-138.5 182.65,-132.596 190.636,-128.085 199.009,-124.637"/>
<polygon fill="midnightblue" stroke="midnightblue" points="200.361,-127.87 208.576,-121.18 197.982,-121.287 200.361,-127.87"/>
</g>
<!-- Node52 -->
<g id="node16" class="node"><title>Node52</title>
<g id="a_node16"><a xlink:href="classopenage_1_1cabextract_1_1lzxdstream_1_1_l_z_x_d_stream.xhtml#ad60178631fe4c59543351deb02216676" target="_top" xlink:title="Returns the current position in the file.">
<polygon fill="white" stroke="black" points="183.5,-49.5 183.5,-79.5 339.5,-79.5 339.5,-49.5 183.5,-49.5"/>
<text text-anchor="start" x="191.5" y="-67.5" font-family="Helvetica,sans-Serif" font-size="10.00">openage.cabextract.lzxdstream.</text>
<text text-anchor="middle" x="261.5" y="-56.5" font-family="Helvetica,sans-Serif" font-size="10.00">LZXDStream.tell</text>
</a>
</g>
</g>
<!-- Node37&#45;&gt;Node52 -->
<g id="edge15" class="edge"><title>Node37&#45;&gt;Node52</title>
<path fill="none" stroke="midnightblue" d="M71.8119,-367.169C75.2099,-318.895 92.3503,-168.556 176,-89.5 177.671,-87.9205 179.438,-86.4403 181.282,-85.0531"/>
<polygon fill="midnightblue" stroke="midnightblue" points="183.311,-87.9096 189.817,-79.5481 179.517,-82.0271 183.311,-87.9096"/>
</g>
<!-- Node53 -->
<g id="node17" class="node"><title>Node53</title>
<g id="a_node17"><a xlink:href="classopenage_1_1util_1_1_file.xhtml#a27557ca3420295dbe0a09030ea19bd77" target="_top" xlink:title=" ">
<polygon fill="white" stroke="black" points="214.5,-0.5 214.5,-30.5 308.5,-30.5 308.5,-0.5 214.5,-0.5"/>
<text text-anchor="start" x="222.5" y="-18.5" font-family="Helvetica,sans-Serif" font-size="10.00">openage::util::File</text>
<text text-anchor="middle" x="261.5" y="-7.5" font-family="Helvetica,sans-Serif" font-size="10.00">::tell</text>
</a>
</g>
</g>
<!-- Node37&#45;&gt;Node53 -->
<g id="edge16" class="edge"><title>Node37&#45;&gt;Node53</title>
<path fill="none" stroke="midnightblue" d="M70.9022,-367.342C71.4106,-314.295 80.431,-135.096 176,-40.5 183.825,-32.7545 193.929,-27.3881 204.412,-23.6753"/>
<polygon fill="midnightblue" stroke="midnightblue" points="205.555,-26.9857 214.091,-20.7097 203.504,-20.2929 205.555,-26.9857"/>
</g>
</g>
</svg>
        <g id="navigator" transform="translate(0 0)" fill="#404254">
                <rect fill="#f2f5e9" fill-opacity="0.5" stroke="#606060" stroke-width=".5" x="0" y="0" width="60" height="60"/>
                <use id="zoomplus" xlink:href="#zoomPlus" x="17" y="9" onmousedown="handleZoom(evt,'in')"/>
                <use id="zoomminus" xlink:href="#zoomMin" x="42" y="9" onmousedown="handleZoom(evt,'out')"/>
                <use id="reset" xlink:href="#resetDef" x="30" y="36" onmousedown="handleReset()"/>
                <g id="arrowUp" xlink:href="#dirArrow" transform="translate(30 24)" onmousedown="handlePan(0,-1)">
                  <use xlink:href="#rim" fill="#404040">
                        <set attributeName="fill" to="#808080" begin="arrowUp.mouseover" end="arrowUp.mouseout"/>
                  </use>
                  <path fill="none" stroke="white" stroke-width="1.5" d="M0,-3.0v7 M-2.5,-0.5L0,-3.0L2.5,-0.5"/>
                </g>
                <g id="arrowRight" xlink:href="#dirArrow" transform="rotate(90) translate(36 -43)" onmousedown="handlePan(1,0)">
                  <use xlink:href="#rim" fill="#404040">
                        <set attributeName="fill" to="#808080" begin="arrowRight.mouseover" end="arrowRight.mouseout"/>
                  </use>
                  <path fill="none" stroke="white" stroke-width="1.5" d="M0,-3.0v7 M-2.5,-0.5L0,-3.0L2.5,-0.5"/>
                </g>
                <g id="arrowDown" xlink:href="#dirArrow" transform="rotate(180) translate(-30 -48)" onmousedown="handlePan(0,1)">
                  <use xlink:href="#rim" fill="#404040">
                        <set attributeName="fill" to="#808080" begin="arrowDown.mouseover" end="arrowDown.mouseout"/>
                  </use>
                  <path fill="none" stroke="white" stroke-width="1.5" d="M0,-3.0v7 M-2.5,-0.5L0,-3.0L2.5,-0.5"/>
                </g>
                <g id="arrowLeft" xlink:href="#dirArrow" transform="rotate(270) translate(-36 17)" onmousedown="handlePan(-1,0)">
                  <use xlink:href="#rim" fill="#404040">
                        <set attributeName="fill" to="#808080" begin="arrowLeft.mouseover" end="arrowLeft.mouseout"/>
                  </use>
                  <path fill="none" stroke="white" stroke-width="1.5" d="M0,-3.0v7 M-2.5,-0.5L0,-3.0L2.5,-0.5"/>
                </g>
        </g>
        <svg viewBox="0 0 15 15" width="100%" height="30px" preserveAspectRatio="xMaxYMin meet">
         <g id="arrow_out" transform="scale(0.3 0.3)">
          <a xlink:href="classopenage_1_1util_1_1filelike_1_1abstract_1_1_file_like_object_a248471b44bfea2faad6d97d9dd07eb00_cgraph_org.svg" target="_base">
           <rect id="button" ry="5" rx="5" y="6" x="6" height="38" width="38"
                fill="#f2f5e9" fill-opacity="0.5" stroke="#606060" stroke-width="1.0"/>
           <path id="arrow"
             d="M 11.500037,31.436501 C 11.940474,20.09759 22.043105,11.32322 32.158766,21.979434 L 37.068811,17.246167 C 37.068811,17.246167 37.088388,32 37.088388,32 L 22.160133,31.978069 C 22.160133,31.978069 26.997745,27.140456 26.997745,27.140456 C 18.528582,18.264221 13.291696,25.230495 11.500037,31.436501 z"
             style="fill:#404040;"/>
          </a>
         </g>
        </svg>
</svg>
