<?xml version="1.0" encoding="UTF-8" standalone="no"?>
<!DOCTYPE svg PUBLIC "-//W3C//DTD SVG 1.1//EN"
 "http://www.w3.org/Graphics/SVG/1.1/DTD/svg11.dtd">
<!-- Generated by graphviz version 2.38.0 (20140413.2041)
 -->
<!-- Title: openage::util::Quaternion::equals_rad Pages: 1 -->
<svg width="475pt" height="96pt"
 viewBox="0.00 0.00 475.00 95.50" xmlns="http://www.w3.org/2000/svg" xmlns:xlink="http://www.w3.org/1999/xlink">
<g id="graph0" class="graph" transform="scale(1 1) rotate(0) translate(4 91.5)">
<title>openage::util::Quaternion::equals_rad</title>
<polygon fill="white" stroke="none" points="-4,4 -4,-91.5 471,-91.5 471,4 -4,4"/>
<!-- Node54 -->
<g id="node1" class="node"><title>Node54</title>
<g id="a_node1"><a xlink:title="Test rotation equality with another quaternion with given precision in radians.">
<polygon fill="#bfbfbf" stroke="black" points="0,-14 0,-44 125,-44 125,-14 0,-14"/>
<text text-anchor="start" x="8" y="-32" font-family="Helvetica,sans-Serif" font-size="10.00">openage::util::Quaternion</text>
<text text-anchor="middle" x="62.5" y="-21" font-family="Helvetica,sans-Serif" font-size="10.00">::equals_rad</text>
</a>
</g>
</g>
<!-- Node55 -->
<g id="node2" class="node"><title>Node55</title>
<g id="a_node2"><a xlink:href="namespacestd.xhtml#a6af851cc1249a970adde4dc422ff824a" target="_top" xlink:title=" ">
<polygon fill="white" stroke="black" points="207.5,-38.5 207.5,-57.5 259.5,-57.5 259.5,-38.5 207.5,-38.5"/>
<text text-anchor="middle" x="233.5" y="-45.5" font-family="Helvetica,sans-Serif" font-size="10.00">std::abs</text>
</a>
</g>
</g>
<!-- Node54&#45;&gt;Node55 -->
<g id="edge1" class="edge"><title>Node54&#45;&gt;Node55</title>
<path fill="none" stroke="midnightblue" d="M125.47,-35.967C149.646,-38.6851 176.477,-41.7016 197.228,-44.0345"/>
<polygon fill="midnightblue" stroke="midnightblue" points="196.853,-47.5144 207.182,-45.1536 197.636,-40.5582 196.853,-47.5144"/>
</g>
<!-- Node58 -->
<g id="node5" class="node"><title>Node58</title>
<g id="a_node5"><a xlink:href="classopenage_1_1util_1_1_quaternion.xhtml#a57799e61cbbfbb15b122f77ba76940a8" target="_top" xlink:title="Perform a dot product with another quaternion.">
<polygon fill="white" stroke="black" points="161,-0.5 161,-19.5 306,-19.5 306,-0.5 161,-0.5"/>
<text text-anchor="middle" x="233.5" y="-7.5" font-family="Helvetica,sans-Serif" font-size="10.00">openage::util::Quaternion::dot</text>
</a>
</g>
</g>
<!-- Node54&#45;&gt;Node58 -->
<g id="edge4" class="edge"><title>Node54&#45;&gt;Node58</title>
<path fill="none" stroke="midnightblue" d="M125.47,-22.033C133.73,-21.1043 142.301,-20.1408 150.833,-19.1815"/>
<polygon fill="midnightblue" stroke="midnightblue" points="151.263,-22.6553 160.81,-18.0599 150.481,-15.6991 151.263,-22.6553"/>
</g>
<!-- Node56 -->
<g id="node3" class="node"><title>Node56</title>
<g id="a_node3"><a xlink:href="classopenage_1_1util_1_1_fixed_point.xhtml#aa01c403263c2142c0ce9ce40cde89066" target="_top" xlink:title="Factory function to construct a fixed&#45;point number with a given raw value.">
<polygon fill="white" stroke="black" points="342,-57 342,-87 467,-87 467,-57 342,-57"/>
<text text-anchor="start" x="350" y="-75" font-family="Helvetica,sans-Serif" font-size="10.00">openage::util::FixedPoint</text>
<text text-anchor="middle" x="404.5" y="-64" font-family="Helvetica,sans-Serif" font-size="10.00">::from_raw_value</text>
</a>
</g>
</g>
<!-- Node55&#45;&gt;Node56 -->
<g id="edge2" class="edge"><title>Node55&#45;&gt;Node56</title>
<path fill="none" stroke="midnightblue" d="M259.801,-51.593C278.904,-54.3059 306.119,-58.1708 331.736,-61.8087"/>
<polygon fill="midnightblue" stroke="midnightblue" points="331.438,-65.3013 341.831,-63.2422 332.422,-58.3709 331.438,-65.3013"/>
</g>
<!-- Node57 -->
<g id="node4" class="node"><title>Node57</title>
<g id="a_node4"><a xlink:href="classopenage_1_1util_1_1_fixed_point.xhtml#affe7a3ec44c6f7ac96312875af742f87" target="_top" xlink:title="Converter to retrieve the raw value of the fixed&#45;point number.">
<polygon fill="white" stroke="black" points="342,-8 342,-38 467,-38 467,-8 342,-8"/>
<text text-anchor="start" x="350" y="-26" font-family="Helvetica,sans-Serif" font-size="10.00">openage::util::FixedPoint</text>
<text text-anchor="middle" x="404.5" y="-15" font-family="Helvetica,sans-Serif" font-size="10.00">::get_raw_value</text>
</a>
</g>
</g>
<!-- Node55&#45;&gt;Node57 -->
<g id="edge3" class="edge"><title>Node55&#45;&gt;Node57</title>
<path fill="none" stroke="midnightblue" d="M259.801,-44.2572C278.904,-41.4313 306.119,-37.4054 331.736,-33.6159"/>
<polygon fill="midnightblue" stroke="midnightblue" points="332.45,-37.0485 341.831,-32.1227 331.426,-30.1238 332.45,-37.0485"/>
</g>
</g>
</svg>
