<?xml version="1.0" encoding="UTF-8" standalone="no"?>
<!DOCTYPE svg PUBLIC "-//W3C//DTD SVG 1.1//EN"
 "http://www.w3.org/Graphics/SVG/1.1/DTD/svg11.dtd">
<!-- Generated by graphviz version 2.38.0 (20140413.2041)
 -->
<!-- Title: openage::Engine::get_input_manager Pages: 1 -->
<!--zoomable 565 -->
<svg id="main" version="1.1" xmlns="http://www.w3.org/2000/svg" xmlns:xlink="http://www.w3.org/1999/xlink" xml:space="preserve" onload="init(evt)">
<style type="text/css"><![CDATA[
.edge:hover path { stroke: red; }
.edge:hover polygon { stroke: red; fill: red; }
]]></style>
<script type="text/javascript"><![CDATA[
var edges = document.getElementsByTagName('g');
if (edges && edges.length) {
  for (var i=0;i<edges.length;i++) {
    if (edges[i].id.substr(0,4)=='edge') {
      edges[i].setAttribute('class','edge');
    }
  }
}
]]></script>
        <defs>
                <circle id="rim" cx="0" cy="0" r="7"/>
                <circle id="rim2" cx="0" cy="0" r="3.5"/>
                <g id="zoomPlus">
                        <use xlink:href="#rim" fill="#404040">
                                <set attributeName="fill" to="#808080" begin="zoomplus.mouseover" end="zoomplus.mouseout"/>
                        </use>
                        <path d="M-4,0h8M0,-4v8" fill="none" stroke="white" stroke-width="1.5" pointer-events="none"/>
                </g>
                <g id="zoomMin">
                        <use xlink:href="#rim" fill="#404040">
                                <set attributeName="fill" to="#808080" begin="zoomminus.mouseover" end="zoomminus.mouseout"/>
                        </use>
                        <path d="M-4,0h8" fill="none" stroke="white" stroke-width="1.5" pointer-events="none"/>
                </g>
                <g id="dirArrow">
                        <path fill="none" stroke="white" stroke-width="1.5" d="M0,-3.0v7 M-2.5,-0.5L0,-3.0L2.5,-0.5"/>
                </g>
               <g id="resetDef">
                       <use xlink:href="#rim2" fill="#404040">
                               <set attributeName="fill" to="#808080" begin="reset.mouseover" end="reset.mouseout"/>
                       </use>
               </g>
        </defs>

<script type="text/javascript">
var viewWidth = 638;
var viewHeight = 565;
var sectionId = 'dynsection-11';
</script>
<script xlink:href="svgpan.js"/>
<svg id="graph" class="graph">
<g id="viewport">
<title>openage::Engine::get_input_manager</title>
<polygon fill="white" stroke="none" points="-4,4 -4,-560.684 634,-560.684 634,4 -4,4"/>
<!-- Node102 -->
<g id="node1" class="node"><title>Node102</title>
<g id="a_node1"><a xlink:title="return this engine&#39;s keybind manager.">
<polygon fill="#bfbfbf" stroke="black" points="521,-311.153 521,-341.153 630,-341.153 630,-311.153 521,-311.153"/>
<text text-anchor="start" x="529" y="-329.153" font-family="Helvetica,sans-Serif" font-size="10.00">openage::Engine::get</text>
<text text-anchor="middle" x="575.5" y="-318.153" font-family="Helvetica,sans-Serif" font-size="10.00">_input_manager</text>
</a>
</g>
</g>
<!-- Node103 -->
<g id="node2" class="node"><title>Node103</title>
<g id="a_node2"><a xlink:href="classopenage_1_1_action_mode.xhtml#a30654ed7b85fa4cf0a2728c447dfa652" target="_top" xlink:title="sends to gui the buttons it should use for the action buttons (if changed)">
<polygon fill="white" stroke="black" points="350.5,-487.153 350.5,-517.153 476.5,-517.153 476.5,-487.153 350.5,-487.153"/>
<text text-anchor="start" x="358.5" y="-505.153" font-family="Helvetica,sans-Serif" font-size="10.00">openage::ActionMode</text>
<text text-anchor="middle" x="413.5" y="-494.153" font-family="Helvetica,sans-Serif" font-size="10.00">::announce_buttons_type</text>
</a>
</g>
</g>
<!-- Node102&#45;&gt;Node103 -->
<g id="edge1" class="edge"><title>Node102&#45;&gt;Node103</title>
<path fill="none" stroke="midnightblue" d="M564.929,-351.013C551.493,-382.965 524.212,-438.34 485,-472.153 478.049,-478.146 469.724,-483.089 461.269,-487.111"/>
<polygon fill="midnightblue" stroke="midnightblue" points="568.265,-352.1 568.802,-341.519 561.784,-349.456 568.265,-352.1"/>
</g>
<!-- Node104 -->
<g id="node3" class="node"><title>Node104</title>
<g id="a_node3"><a xlink:href="classopenage_1_1_action_mode.xhtml#a9c7d1f16c862692b1172079402ac0f18" target="_top" xlink:title="Called when the mode is left.">
<polygon fill="white" stroke="black" points="183,-521.153 183,-551.153 294,-551.153 294,-521.153 183,-521.153"/>
<text text-anchor="start" x="191" y="-539.153" font-family="Helvetica,sans-Serif" font-size="10.00">openage::ActionMode</text>
<text text-anchor="middle" x="238.5" y="-528.153" font-family="Helvetica,sans-Serif" font-size="10.00">::on_exit</text>
</a>
</g>
</g>
<!-- Node102&#45;&gt;Node104 -->
<g id="edge9" class="edge"><title>Node102&#45;&gt;Node104</title>
<path fill="none" stroke="midnightblue" d="M571.596,-351.483C565.037,-395.612 544.666,-485.737 485,-526.153 428.757,-564.249 347.487,-558.818 294.091,-549.272"/>
<polygon fill="midnightblue" stroke="midnightblue" points="575.1,-351.693 572.982,-341.312 568.164,-350.748 575.1,-351.693"/>
</g>
<!-- Node105 -->
<g id="node4" class="node"><title>Node105</title>
<g id="a_node4"><a xlink:href="classopenage_1_1_action_mode.xhtml#a43f98279255b857ee8fa9943117271e8" target="_top" xlink:title="Called after GameControl has been set by QML from set_game_control.">
<polygon fill="white" stroke="black" points="180.5,-453.153 180.5,-483.153 296.5,-483.153 296.5,-453.153 180.5,-453.153"/>
<text text-anchor="start" x="188.5" y="-471.153" font-family="Helvetica,sans-Serif" font-size="10.00">openage::ActionMode</text>
<text text-anchor="middle" x="238.5" y="-460.153" font-family="Helvetica,sans-Serif" font-size="10.00">::on_game_control_set</text>
</a>
</g>
</g>
<!-- Node102&#45;&gt;Node105 -->
<g id="edge10" class="edge"><title>Node102&#45;&gt;Node105</title>
<path fill="none" stroke="midnightblue" d="M562.612,-350.22C548.177,-376.629 521.197,-417.949 485,-438.153 426.792,-470.643 348.895,-474.76 296.597,-472.967"/>
<polygon fill="midnightblue" stroke="midnightblue" points="565.784,-351.709 567.357,-341.232 559.593,-348.442 565.784,-351.709"/>
</g>
<!-- Node106 -->
<g id="node5" class="node"><title>Node106</title>
<g id="a_node5"><a xlink:href="classopenage_1_1_engine.xhtml#a0592aec2fe0da923bfc337154341cfa2" target="_top" xlink:title="send keybindings help string to gui.">
<polygon fill="white" stroke="black" points="345,-399.153 345,-429.153 482,-429.153 482,-399.153 345,-399.153"/>
<text text-anchor="start" x="353" y="-417.153" font-family="Helvetica,sans-Serif" font-size="10.00">openage::Engine::announce</text>
<text text-anchor="middle" x="413.5" y="-406.153" font-family="Helvetica,sans-Serif" font-size="10.00">_global_binds</text>
</a>
</g>
</g>
<!-- Node102&#45;&gt;Node106 -->
<g id="edge4" class="edge"><title>Node102&#45;&gt;Node106</title>
<path fill="none" stroke="midnightblue" d="M548.33,-347.455C531.103,-360.732 507.63,-377.456 485,-389.153 477.963,-392.79 470.276,-396.114 462.65,-399.066"/>
<polygon fill="midnightblue" stroke="midnightblue" points="550.538,-350.172 556.254,-341.251 546.222,-344.66 550.538,-350.172"/>
</g>
<!-- Node107 -->
<g id="node6" class="node"><title>Node107</title>
<g id="a_node6"><a xlink:href="classopenage_1_1_engine.xhtml#adc80abfebed9b4f30df3de15984431e8" target="_top" xlink:title="main engine loop function.">
<polygon fill="white" stroke="black" points="357,-360.653 357,-379.653 470,-379.653 470,-360.653 357,-360.653"/>
<text text-anchor="middle" x="413.5" y="-367.653" font-family="Helvetica,sans-Serif" font-size="10.00">openage::Engine::loop</text>
</a>
</g>
</g>
<!-- Node102&#45;&gt;Node107 -->
<g id="edge5" class="edge"><title>Node102&#45;&gt;Node107</title>
<path fill="none" stroke="midnightblue" d="M510.928,-343.635C489.895,-349.419 467.279,-355.639 449.239,-360.599"/>
<polygon fill="midnightblue" stroke="midnightblue" points="512.063,-346.953 520.777,-340.926 510.207,-340.203 512.063,-346.953"/>
</g>
<!-- Node109 -->
<g id="node8" class="node"><title>Node109</title>
<g id="a_node8"><a xlink:href="classopenage_1_1_action_mode_signals.xhtml#a400a4674187d1ce007a206c5074390da" target="_top" xlink:title=" ">
<polygon fill="white" stroke="black" points="342,-311.153 342,-341.153 485,-341.153 485,-311.153 342,-311.153"/>
<text text-anchor="start" x="350" y="-329.153" font-family="Helvetica,sans-Serif" font-size="10.00">openage::ActionModeSignals</text>
<text text-anchor="middle" x="413.5" y="-318.153" font-family="Helvetica,sans-Serif" font-size="10.00">::on_action</text>
</a>
</g>
</g>
<!-- Node102&#45;&gt;Node109 -->
<g id="edge7" class="edge"><title>Node102&#45;&gt;Node109</title>
<path fill="none" stroke="midnightblue" d="M510.682,-326.153C502.283,-326.153 493.635,-326.153 485.131,-326.153"/>
<polygon fill="midnightblue" stroke="midnightblue" points="510.777,-329.653 520.777,-326.153 510.777,-322.653 510.777,-329.653"/>
</g>
<!-- Node111 -->
<g id="node10" class="node"><title>Node111</title>
<g id="a_node10"><a xlink:href="classopenage_1_1_editor_mode.xhtml#a29b4d3a8c32153ccdc566f60fcdacf7f" target="_top" xlink:title="Called after GameControl has been set by QML from set_game_control.">
<polygon fill="white" stroke="black" points="355.5,-262.153 355.5,-292.153 471.5,-292.153 471.5,-262.153 355.5,-262.153"/>
<text text-anchor="start" x="363.5" y="-280.153" font-family="Helvetica,sans-Serif" font-size="10.00">openage::EditorMode</text>
<text text-anchor="middle" x="413.5" y="-269.153" font-family="Helvetica,sans-Serif" font-size="10.00">::on_game_control_set</text>
</a>
</g>
</g>
<!-- Node102&#45;&gt;Node111 -->
<g id="edge11" class="edge"><title>Node102&#45;&gt;Node111</title>
<path fill="none" stroke="midnightblue" d="M515.356,-308.04C498.346,-302.831 479.984,-297.207 463.648,-292.204"/>
<polygon fill="midnightblue" stroke="midnightblue" points="514.603,-311.47 525.189,-311.051 516.652,-304.776 514.603,-311.47"/>
</g>
<!-- Node112 -->
<g id="node11" class="node"><title>Node112</title>
<g id="a_node11"><a xlink:href="classopenage_1_1console_1_1_console.xhtml#ab5e30408417ac212bd3f35e50edd3a82" target="_top" xlink:title="register this console to the engine.">
<polygon fill="white" stroke="black" points="0.5,-27.1527 0.5,-57.1527 134.5,-57.1527 134.5,-27.1527 0.5,-27.1527"/>
<text text-anchor="start" x="8.5" y="-45.1527" font-family="Helvetica,sans-Serif" font-size="10.00">openage::console::Console</text>
<text text-anchor="middle" x="67.5" y="-34.1527" font-family="Helvetica,sans-Serif" font-size="10.00">::register_to_engine</text>
</a>
</g>
</g>
<!-- Node102&#45;&gt;Node112 -->
<g id="edge12" class="edge"><title>Node102&#45;&gt;Node112</title>
<path fill="none" stroke="midnightblue" d="M573.655,-300.717C570.47,-247.898 555.442,-125.869 485,-61.1527 383.19,32.3822 201.452,-3.07807 115.727,-27.1153"/>
<polygon fill="midnightblue" stroke="midnightblue" points="570.168,-301.082 574.17,-310.892 577.159,-300.728 570.168,-301.082"/>
</g>
<!-- Node113 -->
<g id="node12" class="node"><title>Node113</title>
<g id="a_node12"><a xlink:href="classopenage_1_1_game_control.xhtml#ad7c9d48df33f8f56ab5686c36648bfa5" target="_top" xlink:title=" ">
<polygon fill="white" stroke="black" points="180.5,-262.153 180.5,-292.153 296.5,-292.153 296.5,-262.153 180.5,-262.153"/>
<text text-anchor="start" x="188.5" y="-280.153" font-family="Helvetica,sans-Serif" font-size="10.00">openage::GameControl</text>
<text text-anchor="middle" x="238.5" y="-269.153" font-family="Helvetica,sans-Serif" font-size="10.00">::set_engine</text>
</a>
</g>
</g>
<!-- Node102&#45;&gt;Node113 -->
<g id="edge13" class="edge"><title>Node102&#45;&gt;Node113</title>
<path fill="none" stroke="midnightblue" d="M555.241,-303.253C538.703,-285.501 513.131,-262.276 485,-252.153 416.673,-227.564 331.201,-246.496 281.242,-262.097"/>
<polygon fill="midnightblue" stroke="midnightblue" points="552.887,-305.869 562.18,-310.957 558.088,-301.184 552.887,-305.869"/>
</g>
<!-- Node115 -->
<g id="node14" class="node"><title>Node115</title>
<g id="a_node14"><a xlink:href="classopenage_1_1_game_control.xhtml#a1d0f073f844955000861e4c0d08b20e0" target="_top" xlink:title=" ">
<polygon fill="white" stroke="black" points="355.5,-174.153 355.5,-204.153 471.5,-204.153 471.5,-174.153 355.5,-174.153"/>
<text text-anchor="start" x="363.5" y="-192.153" font-family="Helvetica,sans-Serif" font-size="10.00">openage::GameControl</text>
<text text-anchor="middle" x="413.5" y="-181.153" font-family="Helvetica,sans-Serif" font-size="10.00">::set_mode</text>
</a>
</g>
</g>
<!-- Node102&#45;&gt;Node115 -->
<g id="edge15" class="edge"><title>Node102&#45;&gt;Node115</title>
<path fill="none" stroke="midnightblue" d="M559.723,-302.651C543.771,-278.888 516.389,-242.439 485,-219.153 477.095,-213.288 467.869,-208.307 458.746,-204.189"/>
<polygon fill="midnightblue" stroke="midnightblue" points="556.846,-304.646 565.262,-311.083 562.697,-300.803 556.846,-304.646"/>
</g>
<!-- Node121 -->
<g id="node20" class="node"><title>Node121</title>
<g id="a_node20"><a xlink:href="classopenage_1_1console_1_1_console.xhtml#a8a86e7fece57c47da16e37633c624ece" target="_top" xlink:title=" ">
<polygon fill="white" stroke="black" points="346.5,-71.1527 346.5,-101.153 480.5,-101.153 480.5,-71.1527 346.5,-71.1527"/>
<text text-anchor="start" x="354.5" y="-89.1527" font-family="Helvetica,sans-Serif" font-size="10.00">openage::console::Console</text>
<text text-anchor="middle" x="413.5" y="-78.1527" font-family="Helvetica,sans-Serif" font-size="10.00">::set_visible</text>
</a>
</g>
</g>
<!-- Node102&#45;&gt;Node121 -->
<g id="edge22" class="edge"><title>Node102&#45;&gt;Node121</title>
<path fill="none" stroke="midnightblue" d="M563.075,-301.455C547.462,-268.756 517.647,-209.898 485,-164.153 468.247,-140.678 445.318,-116.468 430.219,-101.372"/>
<polygon fill="midnightblue" stroke="midnightblue" points="560.016,-303.173 567.452,-310.72 566.345,-300.183 560.016,-303.173"/>
</g>
<!-- Node103&#45;&gt;Node104 -->
<g id="edge2" class="edge"><title>Node103&#45;&gt;Node104</title>
<path fill="none" stroke="midnightblue" d="M340.053,-516.391C324.684,-519.411 308.708,-522.551 294.134,-525.415"/>
<polygon fill="midnightblue" stroke="midnightblue" points="340.906,-519.79 350.043,-514.428 339.556,-512.922 340.906,-519.79"/>
</g>
<!-- Node103&#45;&gt;Node105 -->
<g id="edge3" class="edge"><title>Node103&#45;&gt;Node105</title>
<path fill="none" stroke="midnightblue" d="M340.115,-487.927C325.62,-485.078 310.581,-482.122 296.686,-479.392"/>
<polygon fill="midnightblue" stroke="midnightblue" points="339.556,-491.384 350.043,-489.878 340.906,-484.515 339.556,-491.384"/>
</g>
<!-- Node108 -->
<g id="node7" class="node"><title>Node108</title>
<g id="a_node7"><a xlink:href="classopenage_1_1_engine.xhtml#a1f1b60bb90c738f6b64a6e19e49cde6d" target="_top" xlink:title="starts the engine loop.">
<polygon fill="white" stroke="black" points="184,-360.653 184,-379.653 293,-379.653 293,-360.653 184,-360.653"/>
<text text-anchor="middle" x="238.5" y="-367.653" font-family="Helvetica,sans-Serif" font-size="10.00">openage::Engine::run</text>
</a>
</g>
</g>
<!-- Node107&#45;&gt;Node108 -->
<g id="edge6" class="edge"><title>Node107&#45;&gt;Node108</title>
<path fill="none" stroke="midnightblue" d="M346.557,-370.153C328.863,-370.153 309.952,-370.153 293.022,-370.153"/>
<polygon fill="midnightblue" stroke="midnightblue" points="346.809,-373.653 356.809,-370.153 346.809,-366.653 346.809,-373.653"/>
</g>
<!-- Node110 -->
<g id="node9" class="node"><title>Node110</title>
<g id="a_node9"><a xlink:href="classopenage_1_1gui_1_1_action_mode_link.xhtml#a7f40baae6dc5feed6abebaa5eae2f2d6" target="_top" xlink:title=" ">
<polygon fill="white" stroke="black" points="173.5,-311.153 173.5,-341.153 303.5,-341.153 303.5,-311.153 173.5,-311.153"/>
<text text-anchor="start" x="181.5" y="-329.153" font-family="Helvetica,sans-Serif" font-size="10.00">openage::gui::ActionMode</text>
<text text-anchor="middle" x="238.5" y="-318.153" font-family="Helvetica,sans-Serif" font-size="10.00">Link::on_core_adopted</text>
</a>
</g>
</g>
<!-- Node109&#45;&gt;Node110 -->
<g id="edge8" class="edge"><title>Node109&#45;&gt;Node110</title>
<path fill="none" stroke="midnightblue" d="M331.521,-326.153C322.149,-326.153 312.69,-326.153 303.588,-326.153"/>
<polygon fill="midnightblue" stroke="midnightblue" points="331.635,-329.653 341.635,-326.153 331.635,-322.653 331.635,-329.653"/>
</g>
<!-- Node114 -->
<g id="node13" class="node"><title>Node114</title>
<g id="a_node13"><a xlink:href="classopenage_1_1gui_1_1_game_control_link.xhtml#a0a4bb8a5d7b2e5637d317fe51f02ad5f" target="_top" xlink:title=" ">
<polygon fill="white" stroke="black" points="0,-262.153 0,-292.153 135,-292.153 135,-262.153 0,-262.153"/>
<text text-anchor="start" x="8" y="-280.153" font-family="Helvetica,sans-Serif" font-size="10.00">openage::gui::GameControl</text>
<text text-anchor="middle" x="67.5" y="-269.153" font-family="Helvetica,sans-Serif" font-size="10.00">Link::set_engine</text>
</a>
</g>
</g>
<!-- Node113&#45;&gt;Node114 -->
<g id="edge14" class="edge"><title>Node113&#45;&gt;Node114</title>
<path fill="none" stroke="midnightblue" d="M169.946,-277.153C158.529,-277.153 146.682,-277.153 135.286,-277.153"/>
<polygon fill="midnightblue" stroke="midnightblue" points="170.284,-280.653 180.284,-277.153 170.284,-273.653 170.284,-280.653"/>
</g>
<!-- Node115&#45;&gt;Node113 -->
<g id="edge16" class="edge"><title>Node115&#45;&gt;Node113</title>
<path fill="none" stroke="midnightblue" d="M361.484,-208.391C354.744,-211.639 348.074,-215.241 342,-219.153 323.751,-230.904 324.495,-240.793 306,-252.153 299.904,-255.897 293.157,-259.227 286.367,-262.14"/>
<polygon fill="midnightblue" stroke="midnightblue" points="363.033,-211.531 370.668,-204.186 360.118,-205.167 363.033,-211.531"/>
</g>
<!-- Node116 -->
<g id="node15" class="node"><title>Node116</title>
<g id="a_node15"><a xlink:href="classopenage_1_1_game_control.xhtml#aa44a60840b738c202e328902943d8162" target="_top" xlink:title=" ">
<polygon fill="white" stroke="black" points="180.5,-115.153 180.5,-145.153 296.5,-145.153 296.5,-115.153 180.5,-115.153"/>
<text text-anchor="start" x="188.5" y="-133.153" font-family="Helvetica,sans-Serif" font-size="10.00">openage::GameControl</text>
<text text-anchor="middle" x="238.5" y="-122.153" font-family="Helvetica,sans-Serif" font-size="10.00">::set_modes</text>
</a>
</g>
</g>
<!-- Node115&#45;&gt;Node116 -->
<g id="edge17" class="edge"><title>Node115&#45;&gt;Node116</title>
<path fill="none" stroke="midnightblue" d="M358.666,-170.793C334.517,-162.557 306.386,-152.964 283.522,-145.166"/>
<polygon fill="midnightblue" stroke="midnightblue" points="357.803,-174.197 368.397,-174.112 360.062,-167.571 357.803,-174.197"/>
</g>
<!-- Node118 -->
<g id="node17" class="node"><title>Node118</title>
<g id="a_node17"><a xlink:href="classopenage_1_1gui_1_1_game_control_link.xhtml#ab9397074dbc2c25f69e718e053572fab" target="_top" xlink:title=" ">
<polygon fill="white" stroke="black" points="171,-164.153 171,-194.153 306,-194.153 306,-164.153 171,-164.153"/>
<text text-anchor="start" x="179" y="-182.153" font-family="Helvetica,sans-Serif" font-size="10.00">openage::gui::GameControl</text>
<text text-anchor="middle" x="238.5" y="-171.153" font-family="Helvetica,sans-Serif" font-size="10.00">Link::set_mode_index</text>
</a>
</g>
</g>
<!-- Node115&#45;&gt;Node118 -->
<g id="edge19" class="edge"><title>Node115&#45;&gt;Node118</title>
<path fill="none" stroke="midnightblue" d="M345.235,-185.265C332.405,-184.523 318.981,-183.747 306.17,-183.006"/>
<polygon fill="midnightblue" stroke="midnightblue" points="345.189,-188.768 355.374,-185.851 345.593,-181.779 345.189,-188.768"/>
</g>
<!-- Node119 -->
<g id="node18" class="node"><title>Node119</title>
<g id="a_node18"><a xlink:href="classopenage_1_1gui_1_1_game_control_link.xhtml#aef267067b8bc03f0df3bfdecce515cd6" target="_top" xlink:title=" ">
<polygon fill="white" stroke="black" points="171,-213.153 171,-243.153 306,-243.153 306,-213.153 171,-213.153"/>
<text text-anchor="start" x="179" y="-231.153" font-family="Helvetica,sans-Serif" font-size="10.00">openage::gui::GameControl</text>
<text text-anchor="middle" x="238.5" y="-220.153" font-family="Helvetica,sans-Serif" font-size="10.00">Link::on_modes_changed</text>
</a>
</g>
</g>
<!-- Node115&#45;&gt;Node119 -->
<g id="edge20" class="edge"><title>Node115&#45;&gt;Node119</title>
<path fill="none" stroke="midnightblue" d="M345.616,-204.231C332.671,-207.149 319.108,-210.206 306.17,-213.123"/>
<polygon fill="midnightblue" stroke="midnightblue" points="346.388,-207.644 355.374,-202.031 344.849,-200.816 346.388,-207.644"/>
</g>
<!-- Node117 -->
<g id="node16" class="node"><title>Node117</title>
<g id="a_node16"><a xlink:href="classopenage_1_1gui_1_1_game_control_link.xhtml#a54ebef9560dd3607b61083b0f8ecb9ba" target="_top" xlink:title=" ">
<polygon fill="white" stroke="black" points="0,-115.153 0,-145.153 135,-145.153 135,-115.153 0,-115.153"/>
<text text-anchor="start" x="8" y="-133.153" font-family="Helvetica,sans-Serif" font-size="10.00">openage::gui::GameControl</text>
<text text-anchor="middle" x="67.5" y="-122.153" font-family="Helvetica,sans-Serif" font-size="10.00">Link::set_modes</text>
</a>
</g>
</g>
<!-- Node116&#45;&gt;Node117 -->
<g id="edge18" class="edge"><title>Node116&#45;&gt;Node117</title>
<path fill="none" stroke="midnightblue" d="M169.946,-130.153C158.529,-130.153 146.682,-130.153 135.286,-130.153"/>
<polygon fill="midnightblue" stroke="midnightblue" points="170.284,-133.653 180.284,-130.153 170.284,-126.653 170.284,-133.653"/>
</g>
<!-- Node120 -->
<g id="node19" class="node"><title>Node120</title>
<g id="a_node19"><a xlink:href="classopenage_1_1gui_1_1_game_control_link.xhtml#ac65023c9d5f785efe775b1dd99111c42" target="_top" xlink:title=" ">
<polygon fill="white" stroke="black" points="0,-213.153 0,-243.153 135,-243.153 135,-213.153 0,-213.153"/>
<text text-anchor="start" x="8" y="-231.153" font-family="Helvetica,sans-Serif" font-size="10.00">openage::gui::GameControl</text>
<text text-anchor="middle" x="67.5" y="-220.153" font-family="Helvetica,sans-Serif" font-size="10.00">Link::on_core_adopted</text>
</a>
</g>
</g>
<!-- Node119&#45;&gt;Node120 -->
<g id="edge21" class="edge"><title>Node119&#45;&gt;Node120</title>
<path fill="none" stroke="midnightblue" d="M160.449,-228.153C151.981,-228.153 143.411,-228.153 135.085,-228.153"/>
<polygon fill="midnightblue" stroke="midnightblue" points="160.707,-231.653 170.707,-228.153 160.707,-224.653 160.707,-231.653"/>
</g>
<!-- Node121&#45;&gt;Node112 -->
<g id="edge23" class="edge"><title>Node121&#45;&gt;Node112</title>
<path fill="none" stroke="midnightblue" d="M336.084,-82.7103C288.406,-79.8499 225.881,-74.802 171,-66.1527 156.286,-63.8338 140.552,-60.559 125.939,-57.1718"/>
<polygon fill="midnightblue" stroke="midnightblue" points="336.145,-86.2196 346.331,-83.3052 336.55,-79.2314 336.145,-86.2196"/>
</g>
<!-- Node122 -->
<g id="node21" class="node"><title>Node122</title>
<g id="a_node21"><a xlink:href="classopenage_1_1console_1_1_console.xhtml#a4e0359f0f3cbbf66da045ba1a33ffa57" target="_top" xlink:title="a temporary console command interpreter">
<polygon fill="white" stroke="black" points="171.5,-27.1527 171.5,-57.1527 305.5,-57.1527 305.5,-27.1527 171.5,-27.1527"/>
<text text-anchor="start" x="179.5" y="-45.1527" font-family="Helvetica,sans-Serif" font-size="10.00">openage::console::Console</text>
<text text-anchor="middle" x="238.5" y="-34.1527" font-family="Helvetica,sans-Serif" font-size="10.00">::interpret</text>
</a>
</g>
</g>
<!-- Node121&#45;&gt;Node122 -->
<g id="edge24" class="edge"><title>Node121&#45;&gt;Node122</title>
<path fill="none" stroke="midnightblue" d="M343.75,-68.6673C328.802,-64.8655 313.115,-60.8757 298.58,-57.1789"/>
<polygon fill="midnightblue" stroke="midnightblue" points="342.893,-72.0605 353.447,-71.1335 344.618,-65.2765 342.893,-72.0605"/>
</g>
<!-- Node122&#45;&gt;Node112 -->
<g id="edge25" class="edge"><title>Node122&#45;&gt;Node112</title>
<path fill="none" stroke="midnightblue" d="M160.949,-42.1527C152.159,-42.1527 143.254,-42.1527 134.617,-42.1527"/>
<polygon fill="midnightblue" stroke="midnightblue" points="161.192,-45.6528 171.192,-42.1527 161.192,-38.6528 161.192,-45.6528"/>
</g>
</g>
</svg>
        <g id="navigator" transform="translate(0 0)" fill="#404254">
                <rect fill="#f2f5e9" fill-opacity="0.5" stroke="#606060" stroke-width=".5" x="0" y="0" width="60" height="60"/>
                <use id="zoomplus" xlink:href="#zoomPlus" x="17" y="9" onmousedown="handleZoom(evt,'in')"/>
                <use id="zoomminus" xlink:href="#zoomMin" x="42" y="9" onmousedown="handleZoom(evt,'out')"/>
                <use id="reset" xlink:href="#resetDef" x="30" y="36" onmousedown="handleReset()"/>
                <g id="arrowUp" xlink:href="#dirArrow" transform="translate(30 24)" onmousedown="handlePan(0,-1)">
                  <use xlink:href="#rim" fill="#404040">
                        <set attributeName="fill" to="#808080" begin="arrowUp.mouseover" end="arrowUp.mouseout"/>
                  </use>
                  <path fill="none" stroke="white" stroke-width="1.5" d="M0,-3.0v7 M-2.5,-0.5L0,-3.0L2.5,-0.5"/>
                </g>
                <g id="arrowRight" xlink:href="#dirArrow" transform="rotate(90) translate(36 -43)" onmousedown="handlePan(1,0)">
                  <use xlink:href="#rim" fill="#404040">
                        <set attributeName="fill" to="#808080" begin="arrowRight.mouseover" end="arrowRight.mouseout"/>
                  </use>
                  <path fill="none" stroke="white" stroke-width="1.5" d="M0,-3.0v7 M-2.5,-0.5L0,-3.0L2.5,-0.5"/>
                </g>
                <g id="arrowDown" xlink:href="#dirArrow" transform="rotate(180) translate(-30 -48)" onmousedown="handlePan(0,1)">
                  <use xlink:href="#rim" fill="#404040">
                        <set attributeName="fill" to="#808080" begin="arrowDown.mouseover" end="arrowDown.mouseout"/>
                  </use>
                  <path fill="none" stroke="white" stroke-width="1.5" d="M0,-3.0v7 M-2.5,-0.5L0,-3.0L2.5,-0.5"/>
                </g>
                <g id="arrowLeft" xlink:href="#dirArrow" transform="rotate(270) translate(-36 17)" onmousedown="handlePan(-1,0)">
                  <use xlink:href="#rim" fill="#404040">
                        <set attributeName="fill" to="#808080" begin="arrowLeft.mouseover" end="arrowLeft.mouseout"/>
                  </use>
                  <path fill="none" stroke="white" stroke-width="1.5" d="M0,-3.0v7 M-2.5,-0.5L0,-3.0L2.5,-0.5"/>
                </g>
        </g>
        <svg viewBox="0 0 15 15" width="100%" height="30px" preserveAspectRatio="xMaxYMin meet">
         <g id="arrow_out" transform="scale(0.3 0.3)">
          <a xlink:href="classopenage_1_1_engine_a248149eac4678d70fe55d6ba5cdc695a_icgraph_org.svg" target="_base">
           <rect id="button" ry="5" rx="5" y="6" x="6" height="38" width="38"
                fill="#f2f5e9" fill-opacity="0.5" stroke="#606060" stroke-width="1.0"/>
           <path id="arrow"
             d="M 11.500037,31.436501 C 11.940474,20.09759 22.043105,11.32322 32.158766,21.979434 L 37.068811,17.246167 C 37.068811,17.246167 37.088388,32 37.088388,32 L 22.160133,31.978069 C 22.160133,31.978069 26.997745,27.140456 26.997745,27.140456 C 18.528582,18.264221 13.291696,25.230495 11.500037,31.436501 z"
             style="fill:#404040;"/>
          </a>
         </g>
        </svg>
</svg>
