<?xml version="1.0" encoding="UTF-8" standalone="no"?>
<!DOCTYPE svg PUBLIC "-//W3C//DTD SVG 1.1//EN"
 "http://www.w3.org/Graphics/SVG/1.1/DTD/svg11.dtd">
<!-- Generated by graphviz version 2.38.0 (20140413.2041)
 -->
<!-- Title: openage::TerrainObject::get_terrain Pages: 1 -->
<!--zoomable 431 -->
<svg id="main" version="1.1" xmlns="http://www.w3.org/2000/svg" xmlns:xlink="http://www.w3.org/1999/xlink" xml:space="preserve" onload="init(evt)">
<style type="text/css"><![CDATA[
.edge:hover path { stroke: red; }
.edge:hover polygon { stroke: red; fill: red; }
]]></style>
<script type="text/javascript"><![CDATA[
var edges = document.getElementsByTagName('g');
if (edges && edges.length) {
  for (var i=0;i<edges.length;i++) {
    if (edges[i].id.substr(0,4)=='edge') {
      edges[i].setAttribute('class','edge');
    }
  }
}
]]></script>
        <defs>
                <circle id="rim" cx="0" cy="0" r="7"/>
                <circle id="rim2" cx="0" cy="0" r="3.5"/>
                <g id="zoomPlus">
                        <use xlink:href="#rim" fill="#404040">
                                <set attributeName="fill" to="#808080" begin="zoomplus.mouseover" end="zoomplus.mouseout"/>
                        </use>
                        <path d="M-4,0h8M0,-4v8" fill="none" stroke="white" stroke-width="1.5" pointer-events="none"/>
                </g>
                <g id="zoomMin">
                        <use xlink:href="#rim" fill="#404040">
                                <set attributeName="fill" to="#808080" begin="zoomminus.mouseover" end="zoomminus.mouseout"/>
                        </use>
                        <path d="M-4,0h8" fill="none" stroke="white" stroke-width="1.5" pointer-events="none"/>
                </g>
                <g id="dirArrow">
                        <path fill="none" stroke="white" stroke-width="1.5" d="M0,-3.0v7 M-2.5,-0.5L0,-3.0L2.5,-0.5"/>
                </g>
               <g id="resetDef">
                       <use xlink:href="#rim2" fill="#404040">
                               <set attributeName="fill" to="#808080" begin="reset.mouseover" end="reset.mouseout"/>
                       </use>
               </g>
        </defs>

<script type="text/javascript">
var viewWidth = 618;
var viewHeight = 431;
var sectionId = 'dynsection-10';
</script>
<script xlink:href="svgpan.js"/>
<svg id="graph" class="graph">
<g id="viewport">
<title>openage::TerrainObject::get_terrain</title>
<polygon fill="white" stroke="none" points="-4,4 -4,-427 614,-427 614,4 -4,4"/>
<!-- Node58 -->
<g id="node1" class="node"><title>Node58</title>
<g id="a_node1"><a xlink:title=" ">
<polygon fill="#bfbfbf" stroke="black" points="493,-171.5 493,-201.5 610,-201.5 610,-171.5 493,-171.5"/>
<text text-anchor="start" x="501" y="-189.5" font-family="Helvetica,sans-Serif" font-size="10.00">openage::TerrainObject</text>
<text text-anchor="middle" x="551.5" y="-178.5" font-family="Helvetica,sans-Serif" font-size="10.00">::get_terrain</text>
</a>
</g>
</g>
<!-- Node59 -->
<g id="node2" class="node"><title>Node59</title>
<g id="a_node2"><a xlink:href="namespaceopenage.xhtml#a8d7d58d26d71e7447de628441782a751" target="_top" xlink:title=" ">
<polygon fill="white" stroke="black" points="338,-368 338,-387 457,-387 457,-368 338,-368"/>
<text text-anchor="middle" x="397.5" y="-375" font-family="Helvetica,sans-Serif" font-size="10.00">openage::find_in_radius</text>
</a>
</g>
</g>
<!-- Node58&#45;&gt;Node59 -->
<g id="edge1" class="edge"><title>Node58&#45;&gt;Node59</title>
<path fill="none" stroke="midnightblue" d="M537.657,-210.376C521.177,-239.855 490.669,-290.72 457,-328.5 443.25,-343.929 424.534,-358.75 412.011,-367.974"/>
<polygon fill="midnightblue" stroke="midnightblue" points="540.732,-212.046 542.501,-201.6 534.604,-208.663 540.732,-212.046"/>
</g>
<!-- Node61 -->
<g id="node4" class="node"><title>Node61</title>
<g id="a_node4"><a xlink:href="namespaceopenage.xhtml#abf30260a65f6b06163a5dad881836523" target="_top" xlink:title=" ">
<polygon fill="white" stroke="black" points="348.5,-300 348.5,-319 446.5,-319 446.5,-300 348.5,-300"/>
<text text-anchor="middle" x="397.5" y="-307" font-family="Helvetica,sans-Serif" font-size="10.00">openage::find_near</text>
</a>
</g>
</g>
<!-- Node58&#45;&gt;Node61 -->
<g id="edge3" class="edge"><title>Node58&#45;&gt;Node61</title>
<path fill="none" stroke="midnightblue" d="M533.023,-209.635C515.681,-231.31 487.364,-263.441 457,-284.5 447.924,-290.794 437.013,-295.986 427.084,-299.976"/>
<polygon fill="midnightblue" stroke="midnightblue" points="535.905,-211.632 539.328,-201.606 530.399,-207.309 535.905,-211.632"/>
</g>
<!-- Node65 -->
<g id="node8" class="node"><title>Node65</title>
<g id="a_node8"><a xlink:href="classopenage_1_1_terrain_object.xhtml#aed04f7dfb2a4836107796fd3598accc3" target="_top" xlink:title=" ">
<polygon fill="white" stroke="black" points="177,-98.5 177,-128.5 294,-128.5 294,-98.5 177,-98.5"/>
<text text-anchor="start" x="185" y="-116.5" font-family="Helvetica,sans-Serif" font-size="10.00">openage::TerrainObject</text>
<text text-anchor="middle" x="235.5" y="-105.5" font-family="Helvetica,sans-Serif" font-size="10.00">::move</text>
</a>
</g>
</g>
<!-- Node58&#45;&gt;Node65 -->
<g id="edge7" class="edge"><title>Node58&#45;&gt;Node65</title>
<path fill="none" stroke="midnightblue" d="M519.038,-166.213C501.476,-155.885 478.797,-144.137 457,-137.5 403.401,-121.18 339.501,-115.659 294.323,-113.933"/>
<polygon fill="midnightblue" stroke="midnightblue" points="517.353,-169.284 527.724,-171.451 520.968,-163.29 517.353,-169.284"/>
</g>
<!-- Node66 -->
<g id="node9" class="node"><title>Node66</title>
<g id="a_node9"><a xlink:href="classopenage_1_1_terrain_object.xhtml#a227f50f827d1ae7791f06e323c581bbd" target="_top" xlink:title=" ">
<polygon fill="white" stroke="black" points="339,-245.5 339,-275.5 456,-275.5 456,-245.5 339,-245.5"/>
<text text-anchor="start" x="347" y="-263.5" font-family="Helvetica,sans-Serif" font-size="10.00">openage::TerrainObject</text>
<text text-anchor="middle" x="397.5" y="-252.5" font-family="Helvetica,sans-Serif" font-size="10.00">::place</text>
</a>
</g>
</g>
<!-- Node58&#45;&gt;Node66 -->
<g id="edge8" class="edge"><title>Node58&#45;&gt;Node66</title>
<path fill="none" stroke="midnightblue" d="M513.867,-206.553C496.75,-215.701 475.997,-226.48 457,-235.5 449.916,-238.863 442.262,-242.284 434.898,-245.472"/>
<polygon fill="midnightblue" stroke="midnightblue" points="515.818,-209.477 522.969,-201.659 512.504,-203.312 515.818,-209.477"/>
</g>
<!-- Node69 -->
<g id="node12" class="node"><title>Node69</title>
<g id="a_node12"><a xlink:href="classopenage_1_1_unit_type.xhtml#a0649efd34fdb53589135167493f66633" target="_top" xlink:title=" ">
<polygon fill="white" stroke="black" points="345.5,-196.5 345.5,-226.5 449.5,-226.5 449.5,-196.5 345.5,-196.5"/>
<text text-anchor="start" x="353.5" y="-214.5" font-family="Helvetica,sans-Serif" font-size="10.00">openage::UnitType::</text>
<text text-anchor="middle" x="397.5" y="-203.5" font-family="Helvetica,sans-Serif" font-size="10.00">place_beside</text>
</a>
</g>
</g>
<!-- Node58&#45;&gt;Node69 -->
<g id="edge11" class="edge"><title>Node58&#45;&gt;Node69</title>
<path fill="none" stroke="midnightblue" d="M482.573,-197.672C471.553,-199.485 460.305,-201.335 449.768,-203.068"/>
<polygon fill="midnightblue" stroke="midnightblue" points="483.302,-201.099 492.602,-196.023 482.166,-194.192 483.302,-201.099"/>
</g>
<!-- Node71 -->
<g id="node14" class="node"><title>Node71</title>
<g id="a_node14"><a xlink:href="classopenage_1_1_terrain_object.xhtml#af781d73de8772dfe4454e75eb96d104c" target="_top" xlink:title=" ">
<polygon fill="white" stroke="black" points="339,-147.5 339,-177.5 456,-177.5 456,-147.5 339,-147.5"/>
<text text-anchor="start" x="347" y="-165.5" font-family="Helvetica,sans-Serif" font-size="10.00">openage::TerrainObject</text>
<text text-anchor="middle" x="397.5" y="-154.5" font-family="Helvetica,sans-Serif" font-size="10.00">::place_unchecked</text>
</a>
</g>
</g>
<!-- Node58&#45;&gt;Node71 -->
<g id="edge13" class="edge"><title>Node58&#45;&gt;Node71</title>
<path fill="none" stroke="midnightblue" d="M482.714,-175.797C473.876,-174.402 464.889,-172.982 456.237,-171.616"/>
<polygon fill="midnightblue" stroke="midnightblue" points="482.178,-179.256 492.602,-177.358 483.27,-172.341 482.178,-179.256"/>
</g>
<!-- Node73 -->
<g id="node16" class="node"><title>Node73</title>
<g id="a_node16"><a xlink:href="classopenage_1_1_terrain_object.xhtml#af24e842fc429a5dbb73c12abcb9c3378" target="_top" xlink:title=" ">
<polygon fill="white" stroke="black" points="339,-59.5 339,-89.5 456,-89.5 456,-59.5 339,-59.5"/>
<text text-anchor="start" x="347" y="-77.5" font-family="Helvetica,sans-Serif" font-size="10.00">openage::TerrainObject</text>
<text text-anchor="middle" x="397.5" y="-66.5" font-family="Helvetica,sans-Serif" font-size="10.00">::remove</text>
</a>
</g>
</g>
<!-- Node58&#45;&gt;Node73 -->
<g id="edge16" class="edge"><title>Node58&#45;&gt;Node73</title>
<path fill="none" stroke="midnightblue" d="M528.359,-164.264C510.183,-146.729 483.25,-122.34 457,-104.5 449.07,-99.1109 440.046,-94.0284 431.499,-89.6316"/>
<polygon fill="midnightblue" stroke="midnightblue" points="525.986,-166.838 535.586,-171.321 530.876,-161.83 525.986,-166.838"/>
</g>
<!-- Node77 -->
<g id="node20" class="node"><title>Node77</title>
<g id="a_node20"><a xlink:href="classopenage_1_1_terrain_object.xhtml#a2ad9a9df0f058487a4ec66b68ee390ed" target="_top" xlink:title=" ">
<polygon fill="white" stroke="black" points="339,-10.5 339,-40.5 456,-40.5 456,-10.5 339,-10.5"/>
<text text-anchor="start" x="347" y="-28.5" font-family="Helvetica,sans-Serif" font-size="10.00">openage::TerrainObject</text>
<text text-anchor="middle" x="397.5" y="-17.5" font-family="Helvetica,sans-Serif" font-size="10.00">::set_ground</text>
</a>
</g>
</g>
<!-- Node58&#45;&gt;Node77 -->
<g id="edge21" class="edge"><title>Node58&#45;&gt;Node77</title>
<path fill="none" stroke="midnightblue" d="M539.236,-161.786C524.334,-131.561 495.404,-80.5953 457,-49.5 452.819,-46.1151 448.096,-43.1467 443.191,-40.5593"/>
<polygon fill="midnightblue" stroke="midnightblue" points="536.263,-163.681 543.745,-171.182 542.574,-160.652 536.263,-163.681"/>
</g>
<!-- Node60 -->
<g id="node3" class="node"><title>Node60</title>
<g id="a_node3"><a xlink:href="classopenage_1_1_build_action.xhtml#a9f64ee829cfb671065dcfc7c876c346e" target="_top" xlink:title=" ">
<polygon fill="white" stroke="black" points="181,-392.5 181,-422.5 290,-422.5 290,-392.5 181,-392.5"/>
<text text-anchor="start" x="189" y="-410.5" font-family="Helvetica,sans-Serif" font-size="10.00">openage::BuildAction</text>
<text text-anchor="middle" x="235.5" y="-399.5" font-family="Helvetica,sans-Serif" font-size="10.00">::on_completion</text>
</a>
</g>
</g>
<!-- Node59&#45;&gt;Node60 -->
<g id="edge2" class="edge"><title>Node59&#45;&gt;Node60</title>
<path fill="none" stroke="midnightblue" d="M335.305,-388.974C320.42,-391.765 304.615,-394.728 290.112,-397.448"/>
<polygon fill="midnightblue" stroke="midnightblue" points="336.251,-392.358 345.435,-387.075 334.961,-385.478 336.251,-392.358"/>
</g>
<!-- Node62 -->
<g id="node5" class="node"><title>Node62</title>
<g id="a_node5"><a xlink:href="classopenage_1_1_gather_action.xhtml#a578fcecec436b05efb5059bbb35837fe" target="_top" xlink:title=" ">
<polygon fill="white" stroke="black" points="177.5,-294.5 177.5,-324.5 293.5,-324.5 293.5,-294.5 177.5,-294.5"/>
<text text-anchor="start" x="185.5" y="-312.5" font-family="Helvetica,sans-Serif" font-size="10.00">openage::GatherAction</text>
<text text-anchor="middle" x="235.5" y="-301.5" font-family="Helvetica,sans-Serif" font-size="10.00">::nearest_dropsite</text>
</a>
</g>
</g>
<!-- Node61&#45;&gt;Node62 -->
<g id="edge4" class="edge"><title>Node61&#45;&gt;Node62</title>
<path fill="none" stroke="midnightblue" d="M338.168,-309.5C323.697,-309.5 308.202,-309.5 293.782,-309.5"/>
<polygon fill="midnightblue" stroke="midnightblue" points="338.495,-313 348.495,-309.5 338.495,-306 338.495,-313"/>
</g>
<!-- Node64 -->
<g id="node7" class="node"><title>Node64</title>
<g id="a_node7"><a xlink:href="classopenage_1_1_gather_action.xhtml#ab76d756df9989badfa91e272f85dee9c" target="_top" xlink:title=" ">
<polygon fill="white" stroke="black" points="171.5,-343.5 171.5,-373.5 299.5,-373.5 299.5,-343.5 171.5,-343.5"/>
<text text-anchor="start" x="179.5" y="-361.5" font-family="Helvetica,sans-Serif" font-size="10.00">openage::GatherAction</text>
<text text-anchor="middle" x="235.5" y="-350.5" font-family="Helvetica,sans-Serif" font-size="10.00">::on_completion_in_range</text>
</a>
</g>
</g>
<!-- Node61&#45;&gt;Node64 -->
<g id="edge6" class="edge"><title>Node61&#45;&gt;Node64</title>
<path fill="none" stroke="midnightblue" d="M355.545,-322.043C334.224,-328.572 308.002,-336.602 285.6,-343.463"/>
<polygon fill="midnightblue" stroke="midnightblue" points="356.734,-325.339 365.271,-319.064 354.684,-318.646 356.734,-325.339"/>
</g>
<!-- Node63 -->
<g id="node6" class="node"><title>Node63</title>
<g id="a_node6"><a xlink:href="classopenage_1_1_gather_action.xhtml#ae49e08d7e107415297f6c58320570858" target="_top" xlink:title=" ">
<polygon fill="white" stroke="black" points="8.5,-294.5 8.5,-324.5 124.5,-324.5 124.5,-294.5 8.5,-294.5"/>
<text text-anchor="start" x="16.5" y="-312.5" font-family="Helvetica,sans-Serif" font-size="10.00">openage::GatherAction</text>
<text text-anchor="middle" x="66.5" y="-301.5" font-family="Helvetica,sans-Serif" font-size="10.00">::update_in_range</text>
</a>
</g>
</g>
<!-- Node62&#45;&gt;Node63 -->
<g id="edge5" class="edge"><title>Node62&#45;&gt;Node63</title>
<path fill="none" stroke="midnightblue" d="M167.309,-309.5C153.129,-309.5 138.295,-309.5 124.531,-309.5"/>
<polygon fill="midnightblue" stroke="midnightblue" points="167.495,-313 177.495,-309.5 167.495,-306 167.495,-313"/>
</g>
<!-- Node67 -->
<g id="node10" class="node"><title>Node67</title>
<g id="a_node10"><a xlink:href="classopenage_1_1_building_producer.xhtml#a4aeeaaaef4924780b6ee886ea8ffe98e" target="_top" xlink:title=" ">
<polygon fill="white" stroke="black" points="169,-245.5 169,-275.5 302,-275.5 302,-245.5 169,-245.5"/>
<text text-anchor="start" x="177" y="-263.5" font-family="Helvetica,sans-Serif" font-size="10.00">openage::BuildingProducer</text>
<text text-anchor="middle" x="235.5" y="-252.5" font-family="Helvetica,sans-Serif" font-size="10.00">::make_annex</text>
</a>
</g>
</g>
<!-- Node66&#45;&gt;Node67 -->
<g id="edge9" class="edge"><title>Node66&#45;&gt;Node67</title>
<path fill="none" stroke="midnightblue" d="M328.548,-260.5C319.77,-260.5 310.793,-260.5 302.054,-260.5"/>
<polygon fill="midnightblue" stroke="midnightblue" points="328.736,-264 338.736,-260.5 328.736,-257 328.736,-264"/>
</g>
<!-- Node68 -->
<g id="node11" class="node"><title>Node68</title>
<g id="a_node11"><a xlink:href="classopenage_1_1_building_producer.xhtml#a4ed90b69cb9398ae0cc40625a1fa36d3" target="_top" xlink:title=" ">
<polygon fill="white" stroke="black" points="0,-245.5 0,-275.5 133,-275.5 133,-245.5 0,-245.5"/>
<text text-anchor="start" x="8" y="-263.5" font-family="Helvetica,sans-Serif" font-size="10.00">openage::BuildingProducer</text>
<text text-anchor="middle" x="66.5" y="-252.5" font-family="Helvetica,sans-Serif" font-size="10.00">::place</text>
</a>
</g>
</g>
<!-- Node67&#45;&gt;Node68 -->
<g id="edge10" class="edge"><title>Node67&#45;&gt;Node68</title>
<path fill="none" stroke="midnightblue" d="M158.934,-260.5C150.315,-260.5 141.583,-260.5 133.109,-260.5"/>
<polygon fill="midnightblue" stroke="midnightblue" points="158.977,-264 168.976,-260.5 158.976,-257 158.977,-264"/>
</g>
<!-- Node70 -->
<g id="node13" class="node"><title>Node70</title>
<g id="a_node13"><a xlink:href="classopenage_1_1_unit_container.xhtml#a0730d85fce9d5bec6b2bc76450b7dfa9" target="_top" xlink:title=" ">
<polygon fill="white" stroke="black" points="176.5,-196.5 176.5,-226.5 294.5,-226.5 294.5,-196.5 176.5,-196.5"/>
<text text-anchor="start" x="184.5" y="-214.5" font-family="Helvetica,sans-Serif" font-size="10.00">openage::UnitContainer</text>
<text text-anchor="middle" x="235.5" y="-203.5" font-family="Helvetica,sans-Serif" font-size="10.00">::new_unit</text>
</a>
</g>
</g>
<!-- Node69&#45;&gt;Node70 -->
<g id="edge12" class="edge"><title>Node69&#45;&gt;Node70</title>
<path fill="none" stroke="midnightblue" d="M335.371,-211.5C321.986,-211.5 307.853,-211.5 294.59,-211.5"/>
<polygon fill="midnightblue" stroke="midnightblue" points="335.435,-215 345.435,-211.5 335.435,-208 335.435,-215"/>
</g>
<!-- Node71&#45;&gt;Node65 -->
<g id="edge15" class="edge"><title>Node71&#45;&gt;Node65</title>
<path fill="none" stroke="midnightblue" d="M337.356,-144.387C320.346,-139.178 301.984,-133.554 285.648,-128.552"/>
<polygon fill="midnightblue" stroke="midnightblue" points="336.603,-147.817 347.189,-147.399 338.652,-141.124 336.603,-147.817"/>
</g>
<!-- Node72 -->
<g id="node15" class="node"><title>Node72</title>
<g id="a_node15"><a xlink:href="classopenage_1_1_terrain_object.xhtml#a90235fcc91847da15129ce77ffcb53a8" target="_top" xlink:title=" ">
<polygon fill="white" stroke="black" points="177,-147.5 177,-177.5 294,-177.5 294,-147.5 177,-147.5"/>
<text text-anchor="start" x="185" y="-165.5" font-family="Helvetica,sans-Serif" font-size="10.00">openage::TerrainObject</text>
<text text-anchor="middle" x="235.5" y="-154.5" font-family="Helvetica,sans-Serif" font-size="10.00">::place</text>
</a>
</g>
</g>
<!-- Node71&#45;&gt;Node72 -->
<g id="edge14" class="edge"><title>Node71&#45;&gt;Node72</title>
<path fill="none" stroke="midnightblue" d="M328.393,-162.5C317,-162.5 305.278,-162.5 294.179,-162.5"/>
<polygon fill="midnightblue" stroke="midnightblue" points="328.736,-166 338.736,-162.5 328.736,-159 328.736,-166"/>
</g>
<!-- Node73&#45;&gt;Node65 -->
<g id="edge20" class="edge"><title>Node73&#45;&gt;Node65</title>
<path fill="none" stroke="midnightblue" d="M328.742,-91.016C317.239,-93.8198 305.391,-96.7078 294.179,-99.4408"/>
<polygon fill="midnightblue" stroke="midnightblue" points="329.85,-94.3486 338.736,-88.5799 328.192,-87.5477 329.85,-94.3486"/>
</g>
<!-- Node74 -->
<g id="node17" class="node"><title>Node74</title>
<g id="a_node17"><a xlink:href="classopenage_1_1_editor_mode.xhtml#a1430647b024d4c9e7021756a6fa9700d" target="_top" xlink:title=" ">
<polygon fill="white" stroke="black" points="181,-0.5 181,-30.5 290,-30.5 290,-0.5 181,-0.5"/>
<text text-anchor="start" x="189" y="-18.5" font-family="Helvetica,sans-Serif" font-size="10.00">openage::EditorMode</text>
<text text-anchor="middle" x="235.5" y="-7.5" font-family="Helvetica,sans-Serif" font-size="10.00">::paint_entity_at</text>
</a>
</g>
</g>
<!-- Node73&#45;&gt;Node74 -->
<g id="edge17" class="edge"><title>Node73&#45;&gt;Node74</title>
<path fill="none" stroke="midnightblue" d="M346.365,-55.8946C332.039,-50.588 316.406,-44.8069 302,-39.5 294.159,-36.6113 285.786,-33.5363 277.738,-30.5852"/>
<polygon fill="midnightblue" stroke="midnightblue" points="345.451,-59.2882 356.044,-59.481 347.883,-52.7243 345.451,-59.2882"/>
</g>
<!-- Node76 -->
<g id="node19" class="node"><title>Node76</title>
<g id="a_node19"><a xlink:href="classopenage_1_1_terrain_object.xhtml#accf1000738bfedfae052b9257509ef97" target="_top" xlink:title=" ">
<polygon fill="white" stroke="black" points="177,-49.5 177,-79.5 294,-79.5 294,-49.5 177,-49.5"/>
<text text-anchor="start" x="185" y="-67.5" font-family="Helvetica,sans-Serif" font-size="10.00">openage::TerrainObject</text>
<text text-anchor="middle" x="235.5" y="-56.5" font-family="Helvetica,sans-Serif" font-size="10.00">::~TerrainObject</text>
</a>
</g>
</g>
<!-- Node73&#45;&gt;Node76 -->
<g id="edge19" class="edge"><title>Node73&#45;&gt;Node76</title>
<path fill="none" stroke="midnightblue" d="M328.742,-70.2651C317.239,-69.5462 305.391,-68.8057 294.179,-68.1049"/>
<polygon fill="midnightblue" stroke="midnightblue" points="328.537,-73.7591 338.736,-70.8898 328.974,-66.7727 328.537,-73.7591"/>
</g>
<!-- Node75 -->
<g id="node18" class="node"><title>Node75</title>
<g id="a_node18"><a xlink:href="classopenage_1_1_editor_mode.xhtml#a29b4d3a8c32153ccdc566f60fcdacf7f" target="_top" xlink:title=" ">
<polygon fill="white" stroke="black" points="8.5,-0.5 8.5,-30.5 124.5,-30.5 124.5,-0.5 8.5,-0.5"/>
<text text-anchor="start" x="16.5" y="-18.5" font-family="Helvetica,sans-Serif" font-size="10.00">openage::EditorMode</text>
<text text-anchor="middle" x="66.5" y="-7.5" font-family="Helvetica,sans-Serif" font-size="10.00">::on_game_control_set</text>
</a>
</g>
</g>
<!-- Node74&#45;&gt;Node75 -->
<g id="edge18" class="edge"><title>Node74&#45;&gt;Node75</title>
<path fill="none" stroke="midnightblue" d="M170.462,-15.5C155.369,-15.5 139.378,-15.5 124.614,-15.5"/>
<polygon fill="midnightblue" stroke="midnightblue" points="170.741,-19.0001 180.741,-15.5 170.741,-12.0001 170.741,-19.0001"/>
</g>
</g>
</svg>
        <g id="navigator" transform="translate(0 0)" fill="#404254">
                <rect fill="#f2f5e9" fill-opacity="0.5" stroke="#606060" stroke-width=".5" x="0" y="0" width="60" height="60"/>
                <use id="zoomplus" xlink:href="#zoomPlus" x="17" y="9" onmousedown="handleZoom(evt,'in')"/>
                <use id="zoomminus" xlink:href="#zoomMin" x="42" y="9" onmousedown="handleZoom(evt,'out')"/>
                <use id="reset" xlink:href="#resetDef" x="30" y="36" onmousedown="handleReset()"/>
                <g id="arrowUp" xlink:href="#dirArrow" transform="translate(30 24)" onmousedown="handlePan(0,-1)">
                  <use xlink:href="#rim" fill="#404040">
                        <set attributeName="fill" to="#808080" begin="arrowUp.mouseover" end="arrowUp.mouseout"/>
                  </use>
                  <path fill="none" stroke="white" stroke-width="1.5" d="M0,-3.0v7 M-2.5,-0.5L0,-3.0L2.5,-0.5"/>
                </g>
                <g id="arrowRight" xlink:href="#dirArrow" transform="rotate(90) translate(36 -43)" onmousedown="handlePan(1,0)">
                  <use xlink:href="#rim" fill="#404040">
                        <set attributeName="fill" to="#808080" begin="arrowRight.mouseover" end="arrowRight.mouseout"/>
                  </use>
                  <path fill="none" stroke="white" stroke-width="1.5" d="M0,-3.0v7 M-2.5,-0.5L0,-3.0L2.5,-0.5"/>
                </g>
                <g id="arrowDown" xlink:href="#dirArrow" transform="rotate(180) translate(-30 -48)" onmousedown="handlePan(0,1)">
                  <use xlink:href="#rim" fill="#404040">
                        <set attributeName="fill" to="#808080" begin="arrowDown.mouseover" end="arrowDown.mouseout"/>
                  </use>
                  <path fill="none" stroke="white" stroke-width="1.5" d="M0,-3.0v7 M-2.5,-0.5L0,-3.0L2.5,-0.5"/>
                </g>
                <g id="arrowLeft" xlink:href="#dirArrow" transform="rotate(270) translate(-36 17)" onmousedown="handlePan(-1,0)">
                  <use xlink:href="#rim" fill="#404040">
                        <set attributeName="fill" to="#808080" begin="arrowLeft.mouseover" end="arrowLeft.mouseout"/>
                  </use>
                  <path fill="none" stroke="white" stroke-width="1.5" d="M0,-3.0v7 M-2.5,-0.5L0,-3.0L2.5,-0.5"/>
                </g>
        </g>
        <svg viewBox="0 0 15 15" width="100%" height="30px" preserveAspectRatio="xMaxYMin meet">
         <g id="arrow_out" transform="scale(0.3 0.3)">
          <a xlink:href="classopenage_1_1_terrain_object_a170289794bdd31d673ffb3aca873bb1d_icgraph_org.svg" target="_base">
           <rect id="button" ry="5" rx="5" y="6" x="6" height="38" width="38"
                fill="#f2f5e9" fill-opacity="0.5" stroke="#606060" stroke-width="1.0"/>
           <path id="arrow"
             d="M 11.500037,31.436501 C 11.940474,20.09759 22.043105,11.32322 32.158766,21.979434 L 37.068811,17.246167 C 37.068811,17.246167 37.088388,32 37.088388,32 L 22.160133,31.978069 C 22.160133,31.978069 26.997745,27.140456 26.997745,27.140456 C 18.528582,18.264221 13.291696,25.230495 11.500037,31.436501 z"
             style="fill:#404040;"/>
          </a>
         </g>
        </svg>
</svg>
