<?xml version="1.0" encoding="UTF-8" standalone="no"?>
<!DOCTYPE svg PUBLIC "-//W3C//DTD SVG 1.1//EN"
 "http://www.w3.org/Graphics/SVG/1.1/DTD/svg11.dtd">
<!-- Generated by graphviz version 2.38.0 (20140413.2041)
 -->
<!-- Title: openage::ActionMode::announce_resources Pages: 1 -->
<svg width="447pt" height="39pt"
 viewBox="0.00 0.00 447.00 39.00" xmlns="http://www.w3.org/2000/svg" xmlns:xlink="http://www.w3.org/1999/xlink">
<g id="graph0" class="graph" transform="scale(1 1) rotate(0) translate(4 35)">
<title>openage::ActionMode::announce_resources</title>
<polygon fill="white" stroke="none" points="-4,4 -4,-35 443,-35 443,4 -4,4"/>
<!-- Node43 -->
<g id="node1" class="node"><title>Node43</title>
<g id="a_node1"><a xlink:title=" ">
<polygon fill="#bfbfbf" stroke="black" points="0,-0.5 0,-30.5 113,-30.5 113,-0.5 0,-0.5"/>
<text text-anchor="start" x="8" y="-18.5" font-family="Helvetica,sans-Serif" font-size="10.00">openage::ActionMode</text>
<text text-anchor="middle" x="56.5" y="-7.5" font-family="Helvetica,sans-Serif" font-size="10.00">::announce_resources</text>
</a>
</g>
</g>
<!-- Node44 -->
<g id="node2" class="node"><title>Node44</title>
<g id="a_node2"><a xlink:href="classopenage_1_1_game_control.xhtml#aa7c61c3caafc810355005e83c8f234e2" target="_top" xlink:title=" ">
<polygon fill="white" stroke="black" points="149,-0.5 149,-30.5 265,-30.5 265,-0.5 149,-0.5"/>
<text text-anchor="start" x="157" y="-18.5" font-family="Helvetica,sans-Serif" font-size="10.00">openage::GameControl</text>
<text text-anchor="middle" x="207" y="-7.5" font-family="Helvetica,sans-Serif" font-size="10.00">::get_current_player</text>
</a>
</g>
</g>
<!-- Node43&#45;&gt;Node44 -->
<g id="edge1" class="edge"><title>Node43&#45;&gt;Node44</title>
<path fill="none" stroke="midnightblue" d="M113.218,-15.5C121.618,-15.5 130.356,-15.5 138.963,-15.5"/>
<polygon fill="midnightblue" stroke="midnightblue" points="138.979,-19.0001 148.979,-15.5 138.979,-12.0001 138.979,-19.0001"/>
</g>
<!-- Node45 -->
<g id="node3" class="node"><title>Node45</title>
<g id="a_node3"><a xlink:href="classopenage_1_1_engine.xhtml#a3e79c3919abbc3cab0716e4807f7c93e" target="_top" xlink:title=" ">
<polygon fill="white" stroke="black" points="301,-6 301,-25 439,-25 439,-6 301,-6"/>
<text text-anchor="middle" x="370" y="-13" font-family="Helvetica,sans-Serif" font-size="10.00">openage::Engine::get_game</text>
</a>
</g>
</g>
<!-- Node44&#45;&gt;Node45 -->
<g id="edge2" class="edge"><title>Node44&#45;&gt;Node45</title>
<path fill="none" stroke="midnightblue" d="M265.216,-15.5C273.531,-15.5 282.209,-15.5 290.851,-15.5"/>
<polygon fill="midnightblue" stroke="midnightblue" points="290.955,-19.0001 300.955,-15.5 290.955,-12.0001 290.955,-19.0001"/>
</g>
</g>
</svg>
