<?xml version="1.0" encoding="UTF-8" standalone="no"?>
<!DOCTYPE svg PUBLIC "-//W3C//DTD SVG 1.1//EN"
 "http://www.w3.org/Graphics/SVG/1.1/DTD/svg11.dtd">
<!-- Generated by graphviz version 2.38.0 (20140413.2041)
 -->
<!-- Title: openage::pyinterface::PyObjectRef::eval Pages: 1 -->
<svg width="427pt" height="39pt"
 viewBox="0.00 0.00 427.00 39.00" xmlns="http://www.w3.org/2000/svg" xmlns:xlink="http://www.w3.org/1999/xlink">
<g id="graph0" class="graph" transform="scale(1 1) rotate(0) translate(4 35)">
<title>openage::pyinterface::PyObjectRef::eval</title>
<polygon fill="white" stroke="none" points="-4,4 -4,-35 423,-35 423,4 -4,4"/>
<!-- Node48 -->
<g id="node1" class="node"><title>Node48</title>
<g id="a_node1"><a xlink:title=" ">
<polygon fill="#bfbfbf" stroke="black" points="0,-0.5 0,-30.5 107,-30.5 107,-0.5 0,-0.5"/>
<text text-anchor="start" x="8" y="-18.5" font-family="Helvetica,sans-Serif" font-size="10.00">openage::pyinterface</text>
<text text-anchor="middle" x="53.5" y="-7.5" font-family="Helvetica,sans-Serif" font-size="10.00">::PyObjectRef::eval</text>
</a>
</g>
</g>
<!-- Node49 -->
<g id="node2" class="node"><title>Node49</title>
<g id="a_node2"><a xlink:href="namespaceopenage_1_1testing_1_1testing.xhtml#ac25bf81db406af62d08113ef7ae9fd6e" target="_top" xlink:title=" ">
<polygon fill="white" stroke="black" points="143,-6 143,-25 288,-25 288,-6 143,-6"/>
<text text-anchor="middle" x="215.5" y="-13" font-family="Helvetica,sans-Serif" font-size="10.00">openage.testing.testing.result</text>
</a>
</g>
</g>
<!-- Node48&#45;&gt;Node49 -->
<g id="edge1" class="edge"><title>Node48&#45;&gt;Node49</title>
<path fill="none" stroke="midnightblue" d="M107.333,-15.5C115.511,-15.5 124.119,-15.5 132.754,-15.5"/>
<polygon fill="midnightblue" stroke="midnightblue" points="132.879,-19.0001 142.879,-15.5 132.879,-12.0001 132.879,-19.0001"/>
</g>
<!-- Node50 -->
<g id="node3" class="node"><title>Node50</title>
<g id="a_node3"><a xlink:href="namespaceopenage_1_1util.xhtml#a7bc4421a5f0f57f3a0aba3f96eb8d19c" target="_top" xlink:title=" ">
<polygon fill="white" stroke="black" points="324,-6 324,-25 419,-25 419,-6 324,-6"/>
<text text-anchor="middle" x="371.5" y="-13" font-family="Helvetica,sans-Serif" font-size="10.00">openage::util::repr</text>
</a>
</g>
</g>
<!-- Node49&#45;&gt;Node50 -->
<g id="edge2" class="edge"><title>Node49&#45;&gt;Node50</title>
<path fill="none" stroke="midnightblue" d="M288.09,-8.76483C296.595,-8.71813 305.189,-8.78172 313.453,-8.9556"/>
<polygon fill="midnightblue" stroke="midnightblue" points="313.622,-12.4614 323.713,-9.23483 313.812,-5.46399 313.622,-12.4614"/>
</g>
<!-- Node50&#45;&gt;Node49 -->
<g id="edge3" class="edge"><title>Node50&#45;&gt;Node49</title>
<path fill="none" stroke="midnightblue" d="M323.713,-21.7652C315.626,-22.0381 307.01,-22.1958 298.312,-22.2383"/>
<polygon fill="midnightblue" stroke="midnightblue" points="298.091,-18.7383 288.09,-22.2352 298.089,-25.7383 298.091,-18.7383"/>
</g>
</g>
</svg>
