<?xml version="1.0" encoding="UTF-8" standalone="no"?>
<!DOCTYPE svg PUBLIC "-//W3C//DTD SVG 1.1//EN"
 "http://www.w3.org/Graphics/SVG/1.1/DTD/svg11.dtd">
<!-- Generated by graphviz version 2.38.0 (20140413.2041)
 -->
<!-- Title: openage::renderer::opengl::GlTexture2d Pages: 1 -->
<svg width="272pt" height="607pt"
 viewBox="0.00 0.00 271.50 607.00" xmlns="http://www.w3.org/2000/svg" xmlns:xlink="http://www.w3.org/1999/xlink">
<g id="graph0" class="graph" transform="scale(1 1) rotate(0) translate(4 603)">
<title>openage::renderer::opengl::GlTexture2d</title>
<polygon fill="white" stroke="none" points="-4,4 -4,-603 267.5,-603 267.5,4 -4,4"/>
<!-- Node3 -->
<g id="node1" class="node"><title>Node3</title>
<g id="a_node1"><a xlink:title="A handle to an OpenGL texture.">
<polygon fill="#bfbfbf" stroke="black" points="120,-0.5 120,-101.5 224,-101.5 224,-0.5 120,-0.5"/>
<text text-anchor="start" x="128" y="-89.5" font-family="Helvetica,sans-Serif" font-size="10.00">openage::renderer::</text>
<text text-anchor="middle" x="172" y="-78.5" font-family="Helvetica,sans-Serif" font-size="10.00">opengl::GlTexture2d</text>
<polyline fill="none" stroke="black" points="120,-71.5 224,-71.5 "/>
<text text-anchor="middle" x="172" y="-59.5" font-family="Helvetica,sans-Serif" font-size="10.00"> </text>
<polyline fill="none" stroke="black" points="120,-52.5 224,-52.5 "/>
<text text-anchor="start" x="128" y="-40.5" font-family="Helvetica,sans-Serif" font-size="10.00">+ GlTexture2d()</text>
<text text-anchor="start" x="128" y="-29.5" font-family="Helvetica,sans-Serif" font-size="10.00">+ GlTexture2d()</text>
<text text-anchor="start" x="128" y="-18.5" font-family="Helvetica,sans-Serif" font-size="10.00">+ into_data()</text>
<text text-anchor="start" x="128" y="-7.5" font-family="Helvetica,sans-Serif" font-size="10.00">+ upload()</text>
</a>
</g>
</g>
<!-- Node4 -->
<g id="node2" class="node"><title>Node4</title>
<g id="a_node2"><a xlink:href="classopenage_1_1renderer_1_1_texture2d.xhtml" target="_top" xlink:title="An abstract base for a handle to a texture buffer allocated in graphics hardware.">
<polygon fill="white" stroke="black" points="25.5,-156 25.5,-268 126.5,-268 126.5,-156 25.5,-156"/>
<text text-anchor="start" x="33.5" y="-256" font-family="Helvetica,sans-Serif" font-size="10.00">openage::renderer::</text>
<text text-anchor="middle" x="76" y="-245" font-family="Helvetica,sans-Serif" font-size="10.00">Texture2d</text>
<polyline fill="none" stroke="black" points="25.5,-238 126.5,-238 "/>
<text text-anchor="middle" x="76" y="-226" font-family="Helvetica,sans-Serif" font-size="10.00"> </text>
<polyline fill="none" stroke="black" points="25.5,-219 126.5,-219 "/>
<text text-anchor="start" x="33.5" y="-207" font-family="Helvetica,sans-Serif" font-size="10.00">+ ~Texture2d()</text>
<text text-anchor="start" x="33.5" y="-196" font-family="Helvetica,sans-Serif" font-size="10.00">+ get_info()</text>
<text text-anchor="start" x="33.5" y="-185" font-family="Helvetica,sans-Serif" font-size="10.00">+ into_data()</text>
<text text-anchor="start" x="33.5" y="-174" font-family="Helvetica,sans-Serif" font-size="10.00">+ upload()</text>
<text text-anchor="start" x="33.5" y="-163" font-family="Helvetica,sans-Serif" font-size="10.00"># Texture2d()</text>
</a>
</g>
</g>
<!-- Node4&#45;&gt;Node3 -->
<g id="edge1" class="edge"><title>Node4&#45;&gt;Node3</title>
<path fill="none" stroke="midnightblue" d="M114.606,-147.059C123.717,-131.969 133.297,-116.102 141.964,-101.746"/>
<polygon fill="none" stroke="midnightblue" points="111.479,-145.466 109.307,-155.836 117.472,-149.084 111.479,-145.466"/>
</g>
<!-- Node5 -->
<g id="node3" class="node"><title>Node5</title>
<g id="a_node3"><a xlink:href="classopenage_1_1renderer_1_1resources_1_1_texture2d_info.xhtml" target="_top" xlink:title="Contains information about a 2D texture surface, without actual texture data.">
<polygon fill="white" stroke="black" points="0,-332.5 0,-598.5 152,-598.5 152,-332.5 0,-332.5"/>
<text text-anchor="start" x="8" y="-586.5" font-family="Helvetica,sans-Serif" font-size="10.00">openage::renderer::</text>
<text text-anchor="middle" x="76" y="-575.5" font-family="Helvetica,sans-Serif" font-size="10.00">resources::Texture2dInfo</text>
<polyline fill="none" stroke="black" points="0,-568.5 152,-568.5 "/>
<text text-anchor="start" x="8" y="-556.5" font-family="Helvetica,sans-Serif" font-size="10.00">&#45; w</text>
<text text-anchor="start" x="8" y="-545.5" font-family="Helvetica,sans-Serif" font-size="10.00">&#45; h</text>
<text text-anchor="start" x="8" y="-534.5" font-family="Helvetica,sans-Serif" font-size="10.00">&#45; format</text>
<text text-anchor="start" x="8" y="-523.5" font-family="Helvetica,sans-Serif" font-size="10.00">&#45; row_alignment</text>
<text text-anchor="start" x="8" y="-512.5" font-family="Helvetica,sans-Serif" font-size="10.00">&#45; subtextures</text>
<polyline fill="none" stroke="black" points="0,-505.5 152,-505.5 "/>
<text text-anchor="start" x="8" y="-493.5" font-family="Helvetica,sans-Serif" font-size="10.00">+ Texture2dInfo()</text>
<text text-anchor="start" x="8" y="-482.5" font-family="Helvetica,sans-Serif" font-size="10.00">+ Texture2dInfo()</text>
<text text-anchor="start" x="8" y="-471.5" font-family="Helvetica,sans-Serif" font-size="10.00">+ Texture2dInfo()</text>
<text text-anchor="start" x="8" y="-460.5" font-family="Helvetica,sans-Serif" font-size="10.00">+ ~Texture2dInfo()</text>
<text text-anchor="start" x="8" y="-449.5" font-family="Helvetica,sans-Serif" font-size="10.00">+ operator==()</text>
<text text-anchor="start" x="8" y="-438.5" font-family="Helvetica,sans-Serif" font-size="10.00">+ operator!=()</text>
<text text-anchor="start" x="8" y="-427.5" font-family="Helvetica,sans-Serif" font-size="10.00">+ get_size()</text>
<text text-anchor="start" x="8" y="-416.5" font-family="Helvetica,sans-Serif" font-size="10.00">+ get_format()</text>
<text text-anchor="start" x="8" y="-405.5" font-family="Helvetica,sans-Serif" font-size="10.00">+ get_row_alignment()</text>
<text text-anchor="start" x="8" y="-394.5" font-family="Helvetica,sans-Serif" font-size="10.00">+ get_row_size()</text>
<text text-anchor="start" x="8" y="-383.5" font-family="Helvetica,sans-Serif" font-size="10.00">+ get_data_size()</text>
<text text-anchor="start" x="8" y="-372.5" font-family="Helvetica,sans-Serif" font-size="10.00">+ get_subtexture_count()</text>
<text text-anchor="start" x="8" y="-361.5" font-family="Helvetica,sans-Serif" font-size="10.00">+ get_subtexture()</text>
<text text-anchor="start" x="8" y="-350.5" font-family="Helvetica,sans-Serif" font-size="10.00">+ get_subtexture_size()</text>
<text text-anchor="start" x="8" y="-339.5" font-family="Helvetica,sans-Serif" font-size="10.00">+ get_subtexture_coordinates()</text>
</a>
</g>
</g>
<!-- Node5&#45;&gt;Node4 -->
<g id="edge2" class="edge"><title>Node5&#45;&gt;Node4</title>
<path fill="none" stroke="#404040" d="M76,-332.489C76,-314.439 76,-296.561 76,-280.348"/>
<polygon fill="none" stroke="#404040" points="76.0001,-280.299 72,-274.299 76,-268.299 80,-274.299 76.0001,-280.299"/>
<text text-anchor="middle" x="88" y="-306" font-family="Helvetica,sans-Serif" font-size="10.00"> #info</text>
</g>
<!-- Node6 -->
<g id="node4" class="node"><title>Node6</title>
<g id="a_node4"><a xlink:href="classopenage_1_1renderer_1_1opengl_1_1_gl_simple_object.xhtml" target="_top" xlink:title="A base class for all classes representing OpenGL Objects to inherit from.">
<polygon fill="white" stroke="black" points="144.5,-139.5 144.5,-284.5 263.5,-284.5 263.5,-139.5 144.5,-139.5"/>
<text text-anchor="start" x="152.5" y="-272.5" font-family="Helvetica,sans-Serif" font-size="10.00">openage::renderer::</text>
<text text-anchor="middle" x="204" y="-261.5" font-family="Helvetica,sans-Serif" font-size="10.00">opengl::GlSimpleObject</text>
<polyline fill="none" stroke="black" points="144.5,-254.5 263.5,-254.5 "/>
<text text-anchor="start" x="152.5" y="-242.5" font-family="Helvetica,sans-Serif" font-size="10.00"># handle</text>
<text text-anchor="start" x="152.5" y="-231.5" font-family="Helvetica,sans-Serif" font-size="10.00"># delete_fun</text>
<polyline fill="none" stroke="black" points="144.5,-224.5 263.5,-224.5 "/>
<text text-anchor="start" x="152.5" y="-212.5" font-family="Helvetica,sans-Serif" font-size="10.00">+ GlSimpleObject()</text>
<text text-anchor="start" x="152.5" y="-201.5" font-family="Helvetica,sans-Serif" font-size="10.00">+ operator=()</text>
<text text-anchor="start" x="152.5" y="-190.5" font-family="Helvetica,sans-Serif" font-size="10.00">+ GlSimpleObject()</text>
<text text-anchor="start" x="152.5" y="-179.5" font-family="Helvetica,sans-Serif" font-size="10.00">+ operator=()</text>
<text text-anchor="start" x="152.5" y="-168.5" font-family="Helvetica,sans-Serif" font-size="10.00">+ ~GlSimpleObject()</text>
<text text-anchor="start" x="152.5" y="-157.5" font-family="Helvetica,sans-Serif" font-size="10.00">+ get_handle()</text>
<text text-anchor="start" x="152.5" y="-146.5" font-family="Helvetica,sans-Serif" font-size="10.00"># GlSimpleObject()</text>
</a>
</g>
</g>
<!-- Node6&#45;&gt;Node3 -->
<g id="edge3" class="edge"><title>Node6&#45;&gt;Node3</title>
<path fill="none" stroke="midnightblue" d="M187.609,-129.558C185.705,-120.097 183.809,-110.674 182.027,-101.823"/>
<polygon fill="none" stroke="midnightblue" points="184.187,-130.294 189.591,-139.407 191.05,-128.913 184.187,-130.294"/>
</g>
</g>
</svg>
