<?xml version="1.0" encoding="UTF-8" standalone="no"?>
<!DOCTYPE svg PUBLIC "-//W3C//DTD SVG 1.1//EN"
 "http://www.w3.org/Graphics/SVG/1.1/DTD/svg11.dtd">
<!-- Generated by graphviz version 2.38.0 (20140413.2041)
 -->
<!-- Title: openage::OutputModeSignals::binds_changed Pages: 1 -->
<!--zoomable 284 -->
<svg id="main" version="1.1" xmlns="http://www.w3.org/2000/svg" xmlns:xlink="http://www.w3.org/1999/xlink" xml:space="preserve" onload="init(evt)">
<style type="text/css"><![CDATA[
.edge:hover path { stroke: red; }
.edge:hover polygon { stroke: red; fill: red; }
]]></style>
<script type="text/javascript"><![CDATA[
var edges = document.getElementsByTagName('g');
if (edges && edges.length) {
  for (var i=0;i<edges.length;i++) {
    if (edges[i].id.substr(0,4)=='edge') {
      edges[i].setAttribute('class','edge');
    }
  }
}
]]></script>
        <defs>
                <circle id="rim" cx="0" cy="0" r="7"/>
                <circle id="rim2" cx="0" cy="0" r="3.5"/>
                <g id="zoomPlus">
                        <use xlink:href="#rim" fill="#404040">
                                <set attributeName="fill" to="#808080" begin="zoomplus.mouseover" end="zoomplus.mouseout"/>
                        </use>
                        <path d="M-4,0h8M0,-4v8" fill="none" stroke="white" stroke-width="1.5" pointer-events="none"/>
                </g>
                <g id="zoomMin">
                        <use xlink:href="#rim" fill="#404040">
                                <set attributeName="fill" to="#808080" begin="zoomminus.mouseover" end="zoomminus.mouseout"/>
                        </use>
                        <path d="M-4,0h8" fill="none" stroke="white" stroke-width="1.5" pointer-events="none"/>
                </g>
                <g id="dirArrow">
                        <path fill="none" stroke="white" stroke-width="1.5" d="M0,-3.0v7 M-2.5,-0.5L0,-3.0L2.5,-0.5"/>
                </g>
               <g id="resetDef">
                       <use xlink:href="#rim2" fill="#404040">
                               <set attributeName="fill" to="#808080" begin="reset.mouseover" end="reset.mouseout"/>
                       </use>
               </g>
        </defs>

<script type="text/javascript">
var viewWidth = 976;
var viewHeight = 284;
var sectionId = 'dynsection-3';
</script>
<script xlink:href="svgpan.js"/>
<svg id="graph" class="graph">
<g id="viewport">
<title>openage::OutputModeSignals::binds_changed</title>
<polygon fill="white" stroke="none" points="-4,4 -4,-280 972,-280 972,4 -4,4"/>
<!-- Node21 -->
<g id="node1" class="node"><title>Node21</title>
<g id="a_node1"><a xlink:title="Signal is triggered when the bindings of the mode change.">
<polygon fill="#bfbfbf" stroke="black" points="823,-97.5 823,-127.5 968,-127.5 968,-97.5 823,-97.5"/>
<text text-anchor="start" x="831" y="-115.5" font-family="Helvetica,sans-Serif" font-size="10.00">openage::OutputModeSignals</text>
<text text-anchor="middle" x="895.5" y="-104.5" font-family="Helvetica,sans-Serif" font-size="10.00">::binds_changed</text>
</a>
</g>
</g>
<!-- Node22 -->
<g id="node2" class="node"><title>Node22</title>
<g id="a_node2"><a xlink:href="classopenage_1_1_output_mode.xhtml#aafb84951c6575c14b5517312c5cfe191" target="_top" xlink:title="Emit the &quot;announced&quot; signal with (name, InputContext::active_binds).">
<polygon fill="white" stroke="black" points="665,-122.5 665,-152.5 778,-152.5 778,-122.5 665,-122.5"/>
<text text-anchor="start" x="673" y="-140.5" font-family="Helvetica,sans-Serif" font-size="10.00">openage::OutputMode</text>
<text text-anchor="middle" x="721.5" y="-129.5" font-family="Helvetica,sans-Serif" font-size="10.00">::announce</text>
</a>
</g>
</g>
<!-- Node21&#45;&gt;Node22 -->
<g id="edge1" class="edge"><title>Node21&#45;&gt;Node22</title>
<path fill="none" stroke="midnightblue" d="M812.413,-124.431C800.821,-126.116 789.135,-127.815 778.199,-129.404"/>
<polygon fill="midnightblue" stroke="midnightblue" points="813.161,-127.859 822.553,-122.957 812.154,-120.932 813.161,-127.859"/>
</g>
<!-- Node39 -->
<g id="node19" class="node"><title>Node39</title>
<g id="a_node19"><a xlink:href="classopenage_1_1gui_1_1_output_mode_link.xhtml#a075e25acd5ad18242e42fb428c3c8b09" target="_top" xlink:title=" ">
<polygon fill="white" stroke="black" points="656,-73.5 656,-103.5 787,-103.5 787,-73.5 656,-73.5"/>
<text text-anchor="start" x="664" y="-91.5" font-family="Helvetica,sans-Serif" font-size="10.00">openage::gui::OutputMode</text>
<text text-anchor="middle" x="721.5" y="-80.5" font-family="Helvetica,sans-Serif" font-size="10.00">Link::on_core_adopted</text>
</a>
</g>
</g>
<!-- Node21&#45;&gt;Node39 -->
<g id="edge18" class="edge"><title>Node21&#45;&gt;Node39</title>
<path fill="none" stroke="midnightblue" d="M812.546,-101.065C803.982,-99.8696 795.366,-98.6673 787.036,-97.505"/>
<polygon fill="midnightblue" stroke="midnightblue" points="812.165,-104.545 822.553,-102.461 813.133,-97.6124 812.165,-104.545"/>
</g>
<!-- Node23 -->
<g id="node3" class="node"><title>Node23</title>
<g id="a_node3"><a xlink:href="classopenage_1_1_action_mode.xhtml#a6288ce1c7b45e988f140ace30845bc69" target="_top" xlink:title="sends to gui the properties that it needs">
<polygon fill="white" stroke="black" points="506.5,-196.5 506.5,-226.5 617.5,-226.5 617.5,-196.5 506.5,-196.5"/>
<text text-anchor="start" x="514.5" y="-214.5" font-family="Helvetica,sans-Serif" font-size="10.00">openage::ActionMode</text>
<text text-anchor="middle" x="562" y="-203.5" font-family="Helvetica,sans-Serif" font-size="10.00">::announce</text>
</a>
</g>
</g>
<!-- Node22&#45;&gt;Node23 -->
<g id="edge2" class="edge"><title>Node22&#45;&gt;Node23</title>
<path fill="none" stroke="midnightblue" d="M682.213,-157.258C663.575,-166.694 640.76,-177.977 620,-187.5 613.461,-190.5 606.441,-193.573 599.639,-196.476"/>
<polygon fill="midnightblue" stroke="midnightblue" points="683.945,-160.304 691.272,-152.651 680.772,-154.065 683.945,-160.304"/>
</g>
<!-- Node27 -->
<g id="node7" class="node"><title>Node27</title>
<g id="a_node7"><a xlink:href="classopenage_1_1_editor_mode.xhtml#aeac3794a1c9c6b6492413573d3670133" target="_top" xlink:title="Emit the &quot;announced&quot; signal with (name, InputContext::active_binds).">
<polygon fill="white" stroke="black" points="507.5,-147.5 507.5,-177.5 616.5,-177.5 616.5,-147.5 507.5,-147.5"/>
<text text-anchor="start" x="515.5" y="-165.5" font-family="Helvetica,sans-Serif" font-size="10.00">openage::EditorMode</text>
<text text-anchor="middle" x="562" y="-154.5" font-family="Helvetica,sans-Serif" font-size="10.00">::announce</text>
</a>
</g>
</g>
<!-- Node22&#45;&gt;Node27 -->
<g id="edge6" class="edge"><title>Node22&#45;&gt;Node27</title>
<path fill="none" stroke="midnightblue" d="M654.898,-147.913C642.178,-149.932 628.988,-152.026 616.704,-153.975"/>
<polygon fill="midnightblue" stroke="midnightblue" points="655.644,-151.339 664.971,-146.314 654.546,-144.425 655.644,-151.339"/>
</g>
<!-- Node28 -->
<g id="node8" class="node"><title>Node28</title>
<g id="a_node8"><a xlink:href="classopenage_1_1_game_control.xhtml#a8c867441262580369ff7c66ba6bd0e4b" target="_top" xlink:title=" ">
<polygon fill="white" stroke="black" points="504,-98.5 504,-128.5 620,-128.5 620,-98.5 504,-98.5"/>
<text text-anchor="start" x="512" y="-116.5" font-family="Helvetica,sans-Serif" font-size="10.00">openage::GameControl</text>
<text text-anchor="middle" x="562" y="-105.5" font-family="Helvetica,sans-Serif" font-size="10.00">::announce_mode</text>
</a>
</g>
</g>
<!-- Node22&#45;&gt;Node28 -->
<g id="edge7" class="edge"><title>Node22&#45;&gt;Node28</title>
<path fill="none" stroke="midnightblue" d="M654.947,-127.511C643.396,-125.751 631.455,-123.931 620.157,-122.21"/>
<polygon fill="midnightblue" stroke="midnightblue" points="654.558,-130.992 664.971,-129.038 655.613,-124.072 654.558,-130.992"/>
</g>
<!-- Node37 -->
<g id="node17" class="node"><title>Node37</title>
<g id="a_node17"><a xlink:href="classopenage_1_1_output_mode.xhtml#a56daba2d7cbace8b99ca51015d2f76df" target="_top" xlink:title="Called when the GameControl is set in QML.">
<polygon fill="white" stroke="black" points="505.5,-49.5 505.5,-79.5 618.5,-79.5 618.5,-49.5 505.5,-49.5"/>
<text text-anchor="start" x="513.5" y="-67.5" font-family="Helvetica,sans-Serif" font-size="10.00">openage::OutputMode</text>
<text text-anchor="middle" x="562" y="-56.5" font-family="Helvetica,sans-Serif" font-size="10.00">::set_game_control</text>
</a>
</g>
</g>
<!-- Node22&#45;&gt;Node37 -->
<g id="edge16" class="edge"><title>Node22&#45;&gt;Node37</title>
<path fill="none" stroke="midnightblue" d="M666.37,-118.426C662.821,-116.849 659.335,-115.203 656,-113.5 638.874,-104.755 636.869,-98.7304 620,-89.5 613.649,-86.0248 606.718,-82.6562 599.945,-79.5765"/>
<polygon fill="midnightblue" stroke="midnightblue" points="665.278,-121.764 675.852,-122.432 668.003,-115.316 665.278,-121.764"/>
</g>
<!-- Node24 -->
<g id="node4" class="node"><title>Node24</title>
<g id="a_node4"><a xlink:href="classopenage_1_1_action_mode.xhtml#a30654ed7b85fa4cf0a2728c447dfa652" target="_top" xlink:title="sends to gui the buttons it should use for the action buttons (if changed)">
<polygon fill="white" stroke="black" points="342,-196.5 342,-226.5 468,-226.5 468,-196.5 342,-196.5"/>
<text text-anchor="start" x="350" y="-214.5" font-family="Helvetica,sans-Serif" font-size="10.00">openage::ActionMode</text>
<text text-anchor="middle" x="405" y="-203.5" font-family="Helvetica,sans-Serif" font-size="10.00">::announce_buttons_type</text>
</a>
</g>
</g>
<!-- Node23&#45;&gt;Node24 -->
<g id="edge3" class="edge"><title>Node23&#45;&gt;Node24</title>
<path fill="none" stroke="midnightblue" d="M496.336,-211.5C486.988,-211.5 477.383,-211.5 468.087,-211.5"/>
<polygon fill="midnightblue" stroke="midnightblue" points="496.353,-215 506.353,-211.5 496.353,-208 496.353,-215"/>
</g>
<!-- Node25 -->
<g id="node5" class="node"><title>Node25</title>
<g id="a_node5"><a xlink:href="classopenage_1_1_action_mode.xhtml#a9c7d1f16c862692b1172079402ac0f18" target="_top" xlink:title="Called when the mode is left.">
<polygon fill="white" stroke="black" points="183,-245.5 183,-275.5 294,-275.5 294,-245.5 183,-245.5"/>
<text text-anchor="start" x="191" y="-263.5" font-family="Helvetica,sans-Serif" font-size="10.00">openage::ActionMode</text>
<text text-anchor="middle" x="238.5" y="-252.5" font-family="Helvetica,sans-Serif" font-size="10.00">::on_exit</text>
</a>
</g>
</g>
<!-- Node24&#45;&gt;Node25 -->
<g id="edge4" class="edge"><title>Node24&#45;&gt;Node25</title>
<path fill="none" stroke="midnightblue" d="M343.682,-229.467C326.057,-234.717 306.982,-240.399 290.03,-245.448"/>
<polygon fill="midnightblue" stroke="midnightblue" points="344.718,-232.811 353.302,-226.601 342.719,-226.102 344.718,-232.811"/>
</g>
<!-- Node26 -->
<g id="node6" class="node"><title>Node26</title>
<g id="a_node6"><a xlink:href="classopenage_1_1_action_mode.xhtml#a43f98279255b857ee8fa9943117271e8" target="_top" xlink:title="Called after GameControl has been set by QML from set_game_control.">
<polygon fill="white" stroke="black" points="180.5,-196.5 180.5,-226.5 296.5,-226.5 296.5,-196.5 180.5,-196.5"/>
<text text-anchor="start" x="188.5" y="-214.5" font-family="Helvetica,sans-Serif" font-size="10.00">openage::ActionMode</text>
<text text-anchor="middle" x="238.5" y="-203.5" font-family="Helvetica,sans-Serif" font-size="10.00">::on_game_control_set</text>
</a>
</g>
</g>
<!-- Node24&#45;&gt;Node26 -->
<g id="edge5" class="edge"><title>Node24&#45;&gt;Node26</title>
<path fill="none" stroke="midnightblue" d="M331.611,-211.5C319.899,-211.5 307.917,-211.5 296.632,-211.5"/>
<polygon fill="midnightblue" stroke="midnightblue" points="331.81,-215 341.81,-211.5 331.81,-208 331.81,-215"/>
</g>
<!-- Node29 -->
<g id="node9" class="node"><title>Node29</title>
<g id="a_node9"><a xlink:href="classopenage_1_1_game_control.xhtml#a1d0f073f844955000861e4c0d08b20e0" target="_top" xlink:title=" ">
<polygon fill="white" stroke="black" points="347,-98.5 347,-128.5 463,-128.5 463,-98.5 347,-98.5"/>
<text text-anchor="start" x="355" y="-116.5" font-family="Helvetica,sans-Serif" font-size="10.00">openage::GameControl</text>
<text text-anchor="middle" x="405" y="-105.5" font-family="Helvetica,sans-Serif" font-size="10.00">::set_mode</text>
</a>
</g>
</g>
<!-- Node28&#45;&gt;Node29 -->
<g id="edge8" class="edge"><title>Node28&#45;&gt;Node29</title>
<path fill="none" stroke="midnightblue" d="M493.631,-113.5C483.431,-113.5 472.993,-113.5 463.04,-113.5"/>
<polygon fill="midnightblue" stroke="midnightblue" points="493.724,-117 503.724,-113.5 493.724,-110 493.724,-117"/>
</g>
<!-- Node30 -->
<g id="node10" class="node"><title>Node30</title>
<g id="a_node10"><a xlink:href="classopenage_1_1gui_1_1_game_control_link.xhtml#aef267067b8bc03f0df3bfdecce515cd6" target="_top" xlink:title=" ">
<polygon fill="white" stroke="black" points="171,-147.5 171,-177.5 306,-177.5 306,-147.5 171,-147.5"/>
<text text-anchor="start" x="179" y="-165.5" font-family="Helvetica,sans-Serif" font-size="10.00">openage::gui::GameControl</text>
<text text-anchor="middle" x="238.5" y="-154.5" font-family="Helvetica,sans-Serif" font-size="10.00">Link::on_modes_changed</text>
</a>
</g>
</g>
<!-- Node29&#45;&gt;Node30 -->
<g id="edge9" class="edge"><title>Node29&#45;&gt;Node30</title>
<path fill="none" stroke="midnightblue" d="M343.682,-131.467C326.057,-136.717 306.982,-142.399 290.03,-147.448"/>
<polygon fill="midnightblue" stroke="midnightblue" points="344.718,-134.811 353.302,-128.601 342.719,-128.102 344.718,-134.811"/>
</g>
<!-- Node32 -->
<g id="node12" class="node"><title>Node32</title>
<g id="a_node12"><a xlink:href="classopenage_1_1_game_control.xhtml#ad7c9d48df33f8f56ab5686c36648bfa5" target="_top" xlink:title=" ">
<polygon fill="white" stroke="black" points="180.5,-98.5 180.5,-128.5 296.5,-128.5 296.5,-98.5 180.5,-98.5"/>
<text text-anchor="start" x="188.5" y="-116.5" font-family="Helvetica,sans-Serif" font-size="10.00">openage::GameControl</text>
<text text-anchor="middle" x="238.5" y="-105.5" font-family="Helvetica,sans-Serif" font-size="10.00">::set_engine</text>
</a>
</g>
</g>
<!-- Node29&#45;&gt;Node32 -->
<g id="edge11" class="edge"><title>Node29&#45;&gt;Node32</title>
<path fill="none" stroke="midnightblue" d="M336.877,-113.5C323.562,-113.5 309.699,-113.5 296.75,-113.5"/>
<polygon fill="midnightblue" stroke="midnightblue" points="336.928,-117 346.928,-113.5 336.928,-110 336.928,-117"/>
</g>
<!-- Node34 -->
<g id="node14" class="node"><title>Node34</title>
<g id="a_node14"><a xlink:href="classopenage_1_1gui_1_1_game_control_link.xhtml#ab9397074dbc2c25f69e718e053572fab" target="_top" xlink:title=" ">
<polygon fill="white" stroke="black" points="171,-49.5 171,-79.5 306,-79.5 306,-49.5 171,-49.5"/>
<text text-anchor="start" x="179" y="-67.5" font-family="Helvetica,sans-Serif" font-size="10.00">openage::gui::GameControl</text>
<text text-anchor="middle" x="238.5" y="-56.5" font-family="Helvetica,sans-Serif" font-size="10.00">Link::set_mode_index</text>
</a>
</g>
</g>
<!-- Node29&#45;&gt;Node34 -->
<g id="edge13" class="edge"><title>Node29&#45;&gt;Node34</title>
<path fill="none" stroke="midnightblue" d="M343.682,-95.533C326.057,-90.283 306.982,-84.6011 290.03,-79.5516"/>
<polygon fill="midnightblue" stroke="midnightblue" points="342.719,-98.8981 353.302,-98.3986 344.718,-92.1894 342.719,-98.8981"/>
</g>
<!-- Node35 -->
<g id="node15" class="node"><title>Node35</title>
<g id="a_node15"><a xlink:href="classopenage_1_1_game_control.xhtml#aa44a60840b738c202e328902943d8162" target="_top" xlink:title=" ">
<polygon fill="white" stroke="black" points="180.5,-0.5 180.5,-30.5 296.5,-30.5 296.5,-0.5 180.5,-0.5"/>
<text text-anchor="start" x="188.5" y="-18.5" font-family="Helvetica,sans-Serif" font-size="10.00">openage::GameControl</text>
<text text-anchor="middle" x="238.5" y="-7.5" font-family="Helvetica,sans-Serif" font-size="10.00">::set_modes</text>
</a>
</g>
</g>
<!-- Node29&#45;&gt;Node35 -->
<g id="edge14" class="edge"><title>Node29&#45;&gt;Node35</title>
<path fill="none" stroke="midnightblue" d="M347.584,-93.4209C345.65,-92.1825 343.781,-90.8765 342,-89.5 320.335,-72.7532 327.856,-55.9968 306,-39.5 301.494,-36.0986 296.459,-33.1446 291.233,-30.5871"/>
<polygon fill="midnightblue" stroke="midnightblue" points="345.978,-96.534 356.403,-98.4253 349.433,-90.4459 345.978,-96.534"/>
</g>
<!-- Node31 -->
<g id="node11" class="node"><title>Node31</title>
<g id="a_node11"><a xlink:href="classopenage_1_1gui_1_1_game_control_link.xhtml#ac65023c9d5f785efe775b1dd99111c42" target="_top" xlink:title=" ">
<polygon fill="white" stroke="black" points="0,-147.5 0,-177.5 135,-177.5 135,-147.5 0,-147.5"/>
<text text-anchor="start" x="8" y="-165.5" font-family="Helvetica,sans-Serif" font-size="10.00">openage::gui::GameControl</text>
<text text-anchor="middle" x="67.5" y="-154.5" font-family="Helvetica,sans-Serif" font-size="10.00">Link::on_core_adopted</text>
</a>
</g>
</g>
<!-- Node30&#45;&gt;Node31 -->
<g id="edge10" class="edge"><title>Node30&#45;&gt;Node31</title>
<path fill="none" stroke="midnightblue" d="M160.449,-162.5C151.981,-162.5 143.411,-162.5 135.085,-162.5"/>
<polygon fill="midnightblue" stroke="midnightblue" points="160.707,-166 170.707,-162.5 160.707,-159 160.707,-166"/>
</g>
<!-- Node33 -->
<g id="node13" class="node"><title>Node33</title>
<g id="a_node13"><a xlink:href="classopenage_1_1gui_1_1_game_control_link.xhtml#a0a4bb8a5d7b2e5637d317fe51f02ad5f" target="_top" xlink:title=" ">
<polygon fill="white" stroke="black" points="0,-98.5 0,-128.5 135,-128.5 135,-98.5 0,-98.5"/>
<text text-anchor="start" x="8" y="-116.5" font-family="Helvetica,sans-Serif" font-size="10.00">openage::gui::GameControl</text>
<text text-anchor="middle" x="67.5" y="-105.5" font-family="Helvetica,sans-Serif" font-size="10.00">Link::set_engine</text>
</a>
</g>
</g>
<!-- Node32&#45;&gt;Node33 -->
<g id="edge12" class="edge"><title>Node32&#45;&gt;Node33</title>
<path fill="none" stroke="midnightblue" d="M169.946,-113.5C158.529,-113.5 146.682,-113.5 135.286,-113.5"/>
<polygon fill="midnightblue" stroke="midnightblue" points="170.284,-117 180.284,-113.5 170.284,-110 170.284,-117"/>
</g>
<!-- Node36 -->
<g id="node16" class="node"><title>Node36</title>
<g id="a_node16"><a xlink:href="classopenage_1_1gui_1_1_game_control_link.xhtml#a54ebef9560dd3607b61083b0f8ecb9ba" target="_top" xlink:title=" ">
<polygon fill="white" stroke="black" points="0,-0.5 0,-30.5 135,-30.5 135,-0.5 0,-0.5"/>
<text text-anchor="start" x="8" y="-18.5" font-family="Helvetica,sans-Serif" font-size="10.00">openage::gui::GameControl</text>
<text text-anchor="middle" x="67.5" y="-7.5" font-family="Helvetica,sans-Serif" font-size="10.00">Link::set_modes</text>
</a>
</g>
</g>
<!-- Node35&#45;&gt;Node36 -->
<g id="edge15" class="edge"><title>Node35&#45;&gt;Node36</title>
<path fill="none" stroke="midnightblue" d="M169.946,-15.5C158.529,-15.5 146.682,-15.5 135.286,-15.5"/>
<polygon fill="midnightblue" stroke="midnightblue" points="170.284,-19.0001 180.284,-15.5 170.284,-12.0001 170.284,-19.0001"/>
</g>
<!-- Node38 -->
<g id="node18" class="node"><title>Node38</title>
<g id="a_node18"><a xlink:href="classopenage_1_1_editor_mode.xhtml#a4c17017408bec2740f3653123bd17660" target="_top" xlink:title="Called when the GameControl is set in QML.">
<polygon fill="white" stroke="black" points="350.5,-49.5 350.5,-79.5 459.5,-79.5 459.5,-49.5 350.5,-49.5"/>
<text text-anchor="start" x="358.5" y="-67.5" font-family="Helvetica,sans-Serif" font-size="10.00">openage::EditorMode</text>
<text text-anchor="middle" x="405" y="-56.5" font-family="Helvetica,sans-Serif" font-size="10.00">::set_game_control</text>
</a>
</g>
</g>
<!-- Node37&#45;&gt;Node38 -->
<g id="edge17" class="edge"><title>Node37&#45;&gt;Node38</title>
<path fill="none" stroke="midnightblue" d="M495.17,-64.5C483.296,-64.5 471.048,-64.5 459.576,-64.5"/>
<polygon fill="midnightblue" stroke="midnightblue" points="495.479,-68.0001 505.479,-64.5 495.479,-61.0001 495.479,-68.0001"/>
</g>
</g>
</svg>
        <g id="navigator" transform="translate(0 0)" fill="#404254">
                <rect fill="#f2f5e9" fill-opacity="0.5" stroke="#606060" stroke-width=".5" x="0" y="0" width="60" height="60"/>
                <use id="zoomplus" xlink:href="#zoomPlus" x="17" y="9" onmousedown="handleZoom(evt,'in')"/>
                <use id="zoomminus" xlink:href="#zoomMin" x="42" y="9" onmousedown="handleZoom(evt,'out')"/>
                <use id="reset" xlink:href="#resetDef" x="30" y="36" onmousedown="handleReset()"/>
                <g id="arrowUp" xlink:href="#dirArrow" transform="translate(30 24)" onmousedown="handlePan(0,-1)">
                  <use xlink:href="#rim" fill="#404040">
                        <set attributeName="fill" to="#808080" begin="arrowUp.mouseover" end="arrowUp.mouseout"/>
                  </use>
                  <path fill="none" stroke="white" stroke-width="1.5" d="M0,-3.0v7 M-2.5,-0.5L0,-3.0L2.5,-0.5"/>
                </g>
                <g id="arrowRight" xlink:href="#dirArrow" transform="rotate(90) translate(36 -43)" onmousedown="handlePan(1,0)">
                  <use xlink:href="#rim" fill="#404040">
                        <set attributeName="fill" to="#808080" begin="arrowRight.mouseover" end="arrowRight.mouseout"/>
                  </use>
                  <path fill="none" stroke="white" stroke-width="1.5" d="M0,-3.0v7 M-2.5,-0.5L0,-3.0L2.5,-0.5"/>
                </g>
                <g id="arrowDown" xlink:href="#dirArrow" transform="rotate(180) translate(-30 -48)" onmousedown="handlePan(0,1)">
                  <use xlink:href="#rim" fill="#404040">
                        <set attributeName="fill" to="#808080" begin="arrowDown.mouseover" end="arrowDown.mouseout"/>
                  </use>
                  <path fill="none" stroke="white" stroke-width="1.5" d="M0,-3.0v7 M-2.5,-0.5L0,-3.0L2.5,-0.5"/>
                </g>
                <g id="arrowLeft" xlink:href="#dirArrow" transform="rotate(270) translate(-36 17)" onmousedown="handlePan(-1,0)">
                  <use xlink:href="#rim" fill="#404040">
                        <set attributeName="fill" to="#808080" begin="arrowLeft.mouseover" end="arrowLeft.mouseout"/>
                  </use>
                  <path fill="none" stroke="white" stroke-width="1.5" d="M0,-3.0v7 M-2.5,-0.5L0,-3.0L2.5,-0.5"/>
                </g>
        </g>
        <svg viewBox="0 0 15 15" width="100%" height="30px" preserveAspectRatio="xMaxYMin meet">
         <g id="arrow_out" transform="scale(0.3 0.3)">
          <a xlink:href="classopenage_1_1_output_mode_signals_a6a7461c5308d407e9e2284efa3c7f90d_icgraph_org.svg" target="_base">
           <rect id="button" ry="5" rx="5" y="6" x="6" height="38" width="38"
                fill="#f2f5e9" fill-opacity="0.5" stroke="#606060" stroke-width="1.0"/>
           <path id="arrow"
             d="M 11.500037,31.436501 C 11.940474,20.09759 22.043105,11.32322 32.158766,21.979434 L 37.068811,17.246167 C 37.068811,17.246167 37.088388,32 37.088388,32 L 22.160133,31.978069 C 22.160133,31.978069 26.997745,27.140456 26.997745,27.140456 C 18.528582,18.264221 13.291696,25.230495 11.500037,31.436501 z"
             style="fill:#404040;"/>
          </a>
         </g>
        </svg>
</svg>
