<?xml version="1.0" encoding="UTF-8" standalone="no"?>
<!DOCTYPE svg PUBLIC "-//W3C//DTD SVG 1.1//EN"
 "http://www.w3.org/Graphics/SVG/1.1/DTD/svg11.dtd">
<!-- Generated by graphviz version 2.38.0 (20140413.2041)
 -->
<!-- Title: openage::Engine::get_text_renderer Pages: 1 -->
<svg width="442pt" height="39pt"
 viewBox="0.00 0.00 442.00 39.00" xmlns="http://www.w3.org/2000/svg" xmlns:xlink="http://www.w3.org/1999/xlink">
<g id="graph0" class="graph" transform="scale(1 1) rotate(0) translate(4 35)">
<title>openage::Engine::get_text_renderer</title>
<polygon fill="white" stroke="none" points="-4,4 -4,-35 438,-35 438,4 -4,4"/>
<!-- Node137 -->
<g id="node1" class="node"><title>Node137</title>
<g id="a_node1"><a xlink:title=" ">
<polygon fill="#bfbfbf" stroke="black" points="325,-0.5 325,-30.5 434,-30.5 434,-0.5 325,-0.5"/>
<text text-anchor="start" x="333" y="-18.5" font-family="Helvetica,sans-Serif" font-size="10.00">openage::Engine::get</text>
<text text-anchor="middle" x="379.5" y="-7.5" font-family="Helvetica,sans-Serif" font-size="10.00">_text_renderer</text>
</a>
</g>
</g>
<!-- Node138 -->
<g id="node2" class="node"><title>Node138</title>
<g id="a_node2"><a xlink:href="namespaceopenage_1_1console_1_1draw.xhtml#ad603edf799bbe6017b89fd25a6ed4512" target="_top" xlink:title=" ">
<polygon fill="white" stroke="black" points="170,-0.5 170,-30.5 289,-30.5 289,-0.5 170,-0.5"/>
<text text-anchor="start" x="178" y="-18.5" font-family="Helvetica,sans-Serif" font-size="10.00">openage::console::draw</text>
<text text-anchor="middle" x="229.5" y="-7.5" font-family="Helvetica,sans-Serif" font-size="10.00">::to_opengl</text>
</a>
</g>
</g>
<!-- Node137&#45;&gt;Node138 -->
<g id="edge1" class="edge"><title>Node137&#45;&gt;Node138</title>
<path fill="none" stroke="midnightblue" d="M314.468,-15.5C306.023,-15.5 297.403,-15.5 289.057,-15.5"/>
<polygon fill="midnightblue" stroke="midnightblue" points="314.65,-19.0001 324.65,-15.5 314.65,-12.0001 314.65,-19.0001"/>
</g>
<!-- Node139 -->
<g id="node3" class="node"><title>Node139</title>
<g id="a_node3"><a xlink:href="classopenage_1_1console_1_1_console.xhtml#a1ce3c30cdc768559e11fc548cbcbddd8" target="_top" xlink:title=" ">
<polygon fill="white" stroke="black" points="0,-0.5 0,-30.5 134,-30.5 134,-0.5 0,-0.5"/>
<text text-anchor="start" x="8" y="-18.5" font-family="Helvetica,sans-Serif" font-size="10.00">openage::console::Console</text>
<text text-anchor="middle" x="67" y="-7.5" font-family="Helvetica,sans-Serif" font-size="10.00">::on_drawhud</text>
</a>
</g>
</g>
<!-- Node138&#45;&gt;Node139 -->
<g id="edge2" class="edge"><title>Node138&#45;&gt;Node139</title>
<path fill="none" stroke="midnightblue" d="M159.505,-15.5C151.1,-15.5 142.528,-15.5 134.166,-15.5"/>
<polygon fill="midnightblue" stroke="midnightblue" points="159.647,-19.0001 169.647,-15.5 159.647,-12.0001 159.647,-19.0001"/>
</g>
</g>
</svg>
