<?xml version="1.0" encoding="UTF-8" standalone="no"?>
<!DOCTYPE svg PUBLIC "-//W3C//DTD SVG 1.1//EN"
 "http://www.w3.org/Graphics/SVG/1.1/DTD/svg11.dtd">
<!-- Generated by graphviz version 2.38.0 (20140413.2041)
 -->
<!-- Title: openage::renderer::GlyphAtlas::update_dirty_area Pages: 1 -->
<svg width="408pt" height="88pt"
 viewBox="0.00 0.00 408.00 88.00" xmlns="http://www.w3.org/2000/svg" xmlns:xlink="http://www.w3.org/1999/xlink">
<g id="graph0" class="graph" transform="scale(1 1) rotate(0) translate(4 84)">
<title>openage::renderer::GlyphAtlas::update_dirty_area</title>
<polygon fill="white" stroke="none" points="-4,4 -4,-84 404,-84 404,4 -4,4"/>
<!-- Node47 -->
<g id="node1" class="node"><title>Node47</title>
<g id="a_node1"><a xlink:title=" ">
<polygon fill="#bfbfbf" stroke="black" points="0,-24.5 0,-54.5 148,-54.5 148,-24.5 0,-24.5"/>
<text text-anchor="start" x="8" y="-42.5" font-family="Helvetica,sans-Serif" font-size="10.00">openage::renderer::</text>
<text text-anchor="middle" x="74" y="-31.5" font-family="Helvetica,sans-Serif" font-size="10.00">GlyphAtlas::update_dirty_area</text>
</a>
</g>
</g>
<!-- Node48 -->
<g id="node2" class="node"><title>Node48</title>
<g id="a_node2"><a xlink:href="namespacestd.xhtml#a1c0bc145caf5f0b2af8d16d29d952180" target="_top" xlink:title=" ">
<polygon fill="white" stroke="black" points="184,-49 184,-68 239,-68 239,-49 184,-49"/>
<text text-anchor="middle" x="211.5" y="-56" font-family="Helvetica,sans-Serif" font-size="10.00">std::max</text>
</a>
</g>
</g>
<!-- Node47&#45;&gt;Node48 -->
<g id="edge1" class="edge"><title>Node47&#45;&gt;Node48</title>
<path fill="none" stroke="midnightblue" d="M148.302,-49.7785C157.147,-51.0188 165.865,-52.2412 173.847,-53.3605"/>
<polygon fill="midnightblue" stroke="midnightblue" points="173.477,-56.8427 183.866,-54.7653 174.449,-49.9105 173.477,-56.8427"/>
</g>
<!-- Node51 -->
<g id="node5" class="node"><title>Node51</title>
<g id="a_node5"><a xlink:href="namespacestd.xhtml#a34591a1d8ee5da3f16f56554590d5e16" target="_top" xlink:title=" ">
<polygon fill="white" stroke="black" points="185.5,-11 185.5,-30 237.5,-30 237.5,-11 185.5,-11"/>
<text text-anchor="middle" x="211.5" y="-18" font-family="Helvetica,sans-Serif" font-size="10.00">std::min</text>
</a>
</g>
</g>
<!-- Node47&#45;&gt;Node51 -->
<g id="edge4" class="edge"><title>Node47&#45;&gt;Node51</title>
<path fill="none" stroke="midnightblue" d="M148.302,-29.2215C157.685,-27.9058 166.925,-26.6102 175.295,-25.4365"/>
<polygon fill="midnightblue" stroke="midnightblue" points="175.961,-28.8774 185.378,-24.0226 174.989,-21.9453 175.961,-28.8774"/>
</g>
<!-- Node49 -->
<g id="node3" class="node"><title>Node49</title>
<g id="a_node3"><a xlink:href="classopenage_1_1util_1_1_fixed_point.xhtml#aa01c403263c2142c0ce9ce40cde89066" target="_top" xlink:title=" ">
<polygon fill="white" stroke="black" points="275,-49.5 275,-79.5 400,-79.5 400,-49.5 275,-49.5"/>
<text text-anchor="start" x="283" y="-67.5" font-family="Helvetica,sans-Serif" font-size="10.00">openage::util::FixedPoint</text>
<text text-anchor="middle" x="337.5" y="-56.5" font-family="Helvetica,sans-Serif" font-size="10.00">::from_raw_value</text>
</a>
</g>
</g>
<!-- Node48&#45;&gt;Node49 -->
<g id="edge2" class="edge"><title>Node48&#45;&gt;Node49</title>
<path fill="none" stroke="midnightblue" d="M239.101,-59.7872C246.753,-60.1574 255.487,-60.58 264.512,-61.0167"/>
<polygon fill="midnightblue" stroke="midnightblue" points="264.623,-64.5261 274.781,-61.5136 264.962,-57.5343 264.623,-64.5261"/>
</g>
<!-- Node50 -->
<g id="node4" class="node"><title>Node50</title>
<g id="a_node4"><a xlink:href="classopenage_1_1util_1_1_fixed_point.xhtml#affe7a3ec44c6f7ac96312875af742f87" target="_top" xlink:title=" ">
<polygon fill="white" stroke="black" points="275,-0.5 275,-30.5 400,-30.5 400,-0.5 275,-0.5"/>
<text text-anchor="start" x="283" y="-18.5" font-family="Helvetica,sans-Serif" font-size="10.00">openage::util::FixedPoint</text>
<text text-anchor="middle" x="337.5" y="-7.5" font-family="Helvetica,sans-Serif" font-size="10.00">::get_raw_value</text>
</a>
</g>
</g>
<!-- Node48&#45;&gt;Node50 -->
<g id="edge3" class="edge"><title>Node48&#45;&gt;Node50</title>
<path fill="none" stroke="midnightblue" d="M239.101,-49.2754C251.944,-44.8219 267.834,-39.3117 283.027,-34.0429"/>
<polygon fill="midnightblue" stroke="midnightblue" points="284.571,-37.2122 292.872,-30.629 282.277,-30.5986 284.571,-37.2122"/>
</g>
<!-- Node51&#45;&gt;Node49 -->
<g id="edge5" class="edge"><title>Node51&#45;&gt;Node49</title>
<path fill="none" stroke="midnightblue" d="M237.593,-29.4041C250.955,-34.1454 267.913,-40.1626 283.997,-45.8699"/>
<polygon fill="midnightblue" stroke="midnightblue" points="283.264,-49.3236 293.859,-49.3692 285.605,-42.7266 283.264,-49.3236"/>
</g>
<!-- Node51&#45;&gt;Node50 -->
<g id="edge6" class="edge"><title>Node51&#45;&gt;Node50</title>
<path fill="none" stroke="midnightblue" d="M237.593,-19.4882C245.629,-19.1641 254.966,-18.7877 264.631,-18.3979"/>
<polygon fill="midnightblue" stroke="midnightblue" points="264.93,-21.8888 274.781,-17.9887 264.648,-14.8945 264.93,-21.8888"/>
</g>
</g>
</svg>
