<?xml version="1.0" encoding="UTF-8" standalone="no"?>
<!DOCTYPE svg PUBLIC "-//W3C//DTD SVG 1.1//EN"
 "http://www.w3.org/Graphics/SVG/1.1/DTD/svg11.dtd">
<!-- Generated by graphviz version 2.38.0 (20140413.2041)
 -->
<!-- Title: qtsdl::GuiSubtreeImpl::attach_to Pages: 1 -->
<svg width="1462pt" height="311pt"
 viewBox="0.00 0.00 1462.00 311.00" xmlns="http://www.w3.org/2000/svg" xmlns:xlink="http://www.w3.org/1999/xlink">
<g id="graph0" class="graph" transform="scale(1 1) rotate(0) translate(4 307)">
<title>qtsdl::GuiSubtreeImpl::attach_to</title>
<polygon fill="white" stroke="none" points="-4,4 -4,-307 1458,-307 1458,4 -4,4"/>
<!-- Node12 -->
<g id="node1" class="node"><title>Node12</title>
<g id="a_node1"><a xlink:title=" ">
<polygon fill="#bfbfbf" stroke="black" points="0,-73.5 0,-103.5 110,-103.5 110,-73.5 0,-73.5"/>
<text text-anchor="start" x="8" y="-91.5" font-family="Helvetica,sans-Serif" font-size="10.00">qtsdl::GuiSubtreeImpl</text>
<text text-anchor="middle" x="55" y="-80.5" font-family="Helvetica,sans-Serif" font-size="10.00">::attach_to</text>
</a>
</g>
</g>
<!-- Node13 -->
<g id="node2" class="node"><title>Node13</title>
<g id="a_node2"><a xlink:href="classqtsdl_1_1_gui_subtree_impl.xhtml#aed216357736342148f86afb0d73f3fdd" target="_top" xlink:title=" ">
<polygon fill="white" stroke="black" points="151,-147.5 151,-177.5 296,-177.5 296,-147.5 151,-147.5"/>
<text text-anchor="start" x="159" y="-165.5" font-family="Helvetica,sans-Serif" font-size="10.00">qtsdl::GuiSubtreeImpl</text>
<text text-anchor="middle" x="223.5" y="-154.5" font-family="Helvetica,sans-Serif" font-size="10.00">::component_status_changed</text>
</a>
</g>
</g>
<!-- Node12&#45;&gt;Node13 -->
<g id="edge1" class="edge"><title>Node12&#45;&gt;Node13</title>
<path fill="none" stroke="midnightblue" d="M80.1481,-103.685C97.8911,-114.399 122.841,-128.557 146,-138.5 150.481,-140.424 155.168,-142.27 159.92,-144.025"/>
<polygon fill="midnightblue" stroke="midnightblue" points="159.129,-147.458 169.723,-147.493 161.463,-140.858 159.129,-147.458"/>
</g>
<!-- Node32 -->
<g id="node21" class="node"><title>Node32</title>
<g id="a_node21"><a xlink:href="classqtsdl_1_1_gui_subtree_impl.xhtml#a85863cc7ed1a8a68ccc89408dcd6313f" target="_top" xlink:title=" ">
<polygon fill="white" stroke="black" points="168.5,-98.5 168.5,-128.5 278.5,-128.5 278.5,-98.5 168.5,-98.5"/>
<text text-anchor="start" x="176.5" y="-116.5" font-family="Helvetica,sans-Serif" font-size="10.00">qtsdl::GuiSubtreeImpl</text>
<text text-anchor="middle" x="223.5" y="-105.5" font-family="Helvetica,sans-Serif" font-size="10.00">::destroy_root</text>
</a>
</g>
</g>
<!-- Node12&#45;&gt;Node32 -->
<g id="edge26" class="edge"><title>Node12&#45;&gt;Node32</title>
<path fill="none" stroke="midnightblue" d="M110.058,-96.6168C125.403,-98.9208 142.263,-101.452 158.153,-103.838"/>
<polygon fill="midnightblue" stroke="midnightblue" points="158.02,-107.357 168.429,-105.381 159.059,-100.435 158.02,-107.357"/>
</g>
<!-- Node33 -->
<g id="node22" class="node"><title>Node33</title>
<g id="a_node22"><a xlink:href="classqtsdl_1_1_gui_engine_impl.xhtml#af1dc911943688d3c296909af70dfc62e" target="_top" xlink:title=" ">
<polygon fill="white" stroke="black" points="170,-49.5 170,-79.5 277,-79.5 277,-49.5 170,-49.5"/>
<text text-anchor="start" x="178" y="-67.5" font-family="Helvetica,sans-Serif" font-size="10.00">qtsdl::GuiEngineImpl</text>
<text text-anchor="middle" x="223.5" y="-56.5" font-family="Helvetica,sans-Serif" font-size="10.00">::get_qml_engine</text>
</a>
</g>
</g>
<!-- Node12&#45;&gt;Node33 -->
<g id="edge27" class="edge"><title>Node12&#45;&gt;Node33</title>
<path fill="none" stroke="midnightblue" d="M110.058,-80.7079C125.942,-78.4183 143.45,-75.8947 159.824,-73.5343"/>
<polygon fill="midnightblue" stroke="midnightblue" points="160.45,-76.9804 169.849,-72.0894 159.452,-70.052 160.45,-76.9804"/>
</g>
<!-- Node34 -->
<g id="node23" class="node"><title>Node34</title>
<g id="a_node23"><a xlink:href="classqtsdl_1_1_gui_engine_impl_connection.xhtml#aeb1d2cd3646f38fa8bc7733e16c99885" target="_top" xlink:title=" ">
<polygon fill="white" stroke="black" points="146,-0.5 146,-30.5 301,-30.5 301,-0.5 146,-0.5"/>
<text text-anchor="start" x="154" y="-18.5" font-family="Helvetica,sans-Serif" font-size="10.00">qtsdl::GuiEngineImplConnection</text>
<text text-anchor="middle" x="223.5" y="-7.5" font-family="Helvetica,sans-Serif" font-size="10.00">::has_subtree</text>
</a>
</g>
</g>
<!-- Node12&#45;&gt;Node34 -->
<g id="edge28" class="edge"><title>Node12&#45;&gt;Node34</title>
<path fill="none" stroke="midnightblue" d="M81.4083,-73.4141C99.1227,-63.2815 123.519,-50.0818 146,-40.5 151.352,-38.2187 156.987,-36.0181 162.672,-33.9323"/>
<polygon fill="midnightblue" stroke="midnightblue" points="163.989,-37.1788 172.243,-30.5365 161.649,-30.5816 163.989,-37.1788"/>
</g>
<!-- Node14 -->
<g id="node3" class="node"><title>Node14</title>
<g id="a_node3"><a xlink:href="classqtsdl_1_1_gui_subtree_impl.xhtml#a766c2b35a935c60fcbfcc6758d908ecb" target="_top" xlink:title=" ">
<polygon fill="white" stroke="black" points="337,-177.5 337,-207.5 450,-207.5 450,-177.5 337,-177.5"/>
<text text-anchor="start" x="345" y="-195.5" font-family="Helvetica,sans-Serif" font-size="10.00">qtsdl::GuiSubtreeImpl</text>
<text text-anchor="middle" x="393.5" y="-184.5" font-family="Helvetica,sans-Serif" font-size="10.00">::init_persistent_items</text>
</a>
</g>
</g>
<!-- Node13&#45;&gt;Node14 -->
<g id="edge2" class="edge"><title>Node13&#45;&gt;Node14</title>
<path fill="none" stroke="midnightblue" d="M296.234,-175.31C306.401,-177.125 316.813,-178.985 326.857,-180.778"/>
<polygon fill="midnightblue" stroke="midnightblue" points="326.296,-184.233 336.755,-182.546 327.526,-177.342 326.296,-184.233"/>
</g>
<!-- Node30 -->
<g id="node19" class="node"><title>Node30</title>
<g id="a_node19"><a xlink:href="classqtsdl_1_1_gui_subtree_impl.xhtml#a810b181409e571b440ab128d2c073703" target="_top" xlink:title=" ">
<polygon fill="white" stroke="black" points="338.5,-116.5 338.5,-146.5 448.5,-146.5 448.5,-116.5 338.5,-116.5"/>
<text text-anchor="start" x="346.5" y="-134.5" font-family="Helvetica,sans-Serif" font-size="10.00">qtsdl::GuiSubtreeImpl</text>
<text text-anchor="middle" x="393.5" y="-123.5" font-family="Helvetica,sans-Serif" font-size="10.00">::reparent_root</text>
</a>
</g>
</g>
<!-- Node13&#45;&gt;Node30 -->
<g id="edge24" class="edge"><title>Node13&#45;&gt;Node30</title>
<path fill="none" stroke="midnightblue" d="M296.234,-149.263C306.913,-147.293 317.861,-145.273 328.37,-143.334"/>
<polygon fill="midnightblue" stroke="midnightblue" points="329.088,-146.76 338.287,-141.504 327.818,-139.876 329.088,-146.76"/>
</g>
<!-- Node15 -->
<g id="node4" class="node"><title>Node15</title>
<g id="a_node4"><a xlink:href="classqtsdl_1_1_gui_live_reloader_attached_property.xhtml#a1e2ea1273c82c7769b0c4a56628112fa" target="_top" xlink:title=" ">
<polygon fill="white" stroke="black" points="486,-239.5 486,-269.5 638,-269.5 638,-239.5 486,-239.5"/>
<text text-anchor="start" x="494" y="-257.5" font-family="Helvetica,sans-Serif" font-size="10.00">qtsdl::GuiLiveReloaderAttached</text>
<text text-anchor="middle" x="562" y="-246.5" font-family="Helvetica,sans-Serif" font-size="10.00">Property::get_attachee</text>
</a>
</g>
</g>
<!-- Node14&#45;&gt;Node15 -->
<g id="edge3" class="edge"><title>Node14&#45;&gt;Node15</title>
<path fill="none" stroke="midnightblue" d="M428.989,-207.627C446.016,-214.889 466.945,-223.508 486,-230.5 491.214,-232.413 496.662,-234.323 502.138,-236.184"/>
<polygon fill="midnightblue" stroke="midnightblue" points="501.388,-239.623 511.982,-239.468 503.603,-232.983 501.388,-239.623"/>
</g>
<!-- Node16 -->
<g id="node5" class="node"><title>Node16</title>
<g id="a_node5"><a xlink:href="classqtsdl_1_1_gui_item_base.xhtml#a0567d09e763a08648aad1675201b75b8" target="_top" xlink:title="Set up signal to be able to run code in the game logic thread.">
<polygon fill="white" stroke="black" points="496,-190.5 496,-220.5 628,-220.5 628,-190.5 496,-190.5"/>
<text text-anchor="start" x="504" y="-208.5" font-family="Helvetica,sans-Serif" font-size="10.00">qtsdl::GuiItemBase</text>
<text text-anchor="middle" x="562" y="-197.5" font-family="Helvetica,sans-Serif" font-size="10.00">::set_game_logic_callback</text>
</a>
</g>
</g>
<!-- Node14&#45;&gt;Node16 -->
<g id="edge4" class="edge"><title>Node14&#45;&gt;Node16</title>
<path fill="none" stroke="midnightblue" d="M450.405,-196.865C461.658,-197.744 473.66,-198.681 485.455,-199.602"/>
<polygon fill="midnightblue" stroke="midnightblue" points="485.5,-203.116 495.742,-200.405 486.045,-196.137 485.5,-203.116"/>
</g>
<!-- Node19 -->
<g id="node8" class="node"><title>Node19</title>
<g id="a_node8"><a xlink:href="classqtsdl_1_1_gui_live_reloader.xhtml#adf7dd5c498505ea59b89d72ff67db8fb" target="_top" xlink:title=" ">
<polygon fill="white" stroke="black" points="505.5,-141.5 505.5,-171.5 618.5,-171.5 618.5,-141.5 505.5,-141.5"/>
<text text-anchor="start" x="513.5" y="-159.5" font-family="Helvetica,sans-Serif" font-size="10.00">qtsdl::GuiLiveReloader</text>
<text text-anchor="middle" x="562" y="-148.5" font-family="Helvetica,sans-Serif" font-size="10.00">::init_persistent_items</text>
</a>
</g>
</g>
<!-- Node14&#45;&gt;Node19 -->
<g id="edge7" class="edge"><title>Node14&#45;&gt;Node19</title>
<path fill="none" stroke="midnightblue" d="M450.405,-180.412C464.759,-177.309 480.333,-173.941 495.139,-170.74"/>
<polygon fill="midnightblue" stroke="midnightblue" points="496.208,-174.09 505.242,-168.556 494.728,-167.248 496.208,-174.09"/>
</g>
<!-- Node17 -->
<g id="node6" class="node"><title>Node17</title>
<g id="a_node6"><a xlink:href="classqtsdl_1_1_game_logic_caller.xhtml#a0101ff39e4fc7bcc9d3f33a6c53ff571" target="_top" xlink:title="Set up signal to be able to run code in the game logic thread.">
<polygon fill="white" stroke="black" points="674,-190.5 674,-220.5 806,-220.5 806,-190.5 674,-190.5"/>
<text text-anchor="start" x="682" y="-208.5" font-family="Helvetica,sans-Serif" font-size="10.00">qtsdl::GameLogicCaller</text>
<text text-anchor="middle" x="740" y="-197.5" font-family="Helvetica,sans-Serif" font-size="10.00">::set_game_logic_callback</text>
</a>
</g>
</g>
<!-- Node16&#45;&gt;Node17 -->
<g id="edge5" class="edge"><title>Node16&#45;&gt;Node17</title>
<path fill="none" stroke="midnightblue" d="M628.036,-205.5C639.623,-205.5 651.782,-205.5 663.629,-205.5"/>
<polygon fill="midnightblue" stroke="midnightblue" points="663.938,-209 673.938,-205.5 663.938,-202 663.938,-209"/>
</g>
<!-- Node18 -->
<g id="node7" class="node"><title>Node18</title>
<g id="a_node7"><a xlink:href="classqtsdl_1_1_gui_callback.xhtml#ab84c2a4152e0ab297025079a4d15746c" target="_top" xlink:title=" ">
<polygon fill="white" stroke="black" points="849,-190.5 849,-220.5 945,-220.5 945,-190.5 849,-190.5"/>
<text text-anchor="start" x="857" y="-208.5" font-family="Helvetica,sans-Serif" font-size="10.00">qtsdl::GuiCallback</text>
<text text-anchor="middle" x="897" y="-197.5" font-family="Helvetica,sans-Serif" font-size="10.00">::process</text>
</a>
</g>
</g>
<!-- Node17&#45;&gt;Node18 -->
<g id="edge6" class="edge"><title>Node17&#45;&gt;Node18</title>
<path fill="none" stroke="midnightblue" d="M806.285,-205.5C816.958,-205.5 827.947,-205.5 838.417,-205.5"/>
<polygon fill="midnightblue" stroke="midnightblue" points="838.682,-209 848.682,-205.5 838.682,-202 838.682,-209"/>
</g>
<!-- Node20 -->
<g id="node9" class="node"><title>Node20</title>
<g id="a_node9"><a xlink:href="namespaceopenage_1_1util.xhtml#ac6f34c002692bc844cd70de03e10bc5d" target="_top" xlink:title="std::for_each except just on containers.">
<polygon fill="white" stroke="black" points="682.5,-147 682.5,-166 797.5,-166 797.5,-147 682.5,-147"/>
<text text-anchor="middle" x="740" y="-154" font-family="Helvetica,sans-Serif" font-size="10.00">openage::util::for_each</text>
</a>
</g>
</g>
<!-- Node19&#45;&gt;Node20 -->
<g id="edge8" class="edge"><title>Node19&#45;&gt;Node20</title>
<path fill="none" stroke="midnightblue" d="M618.688,-156.5C635.693,-156.5 654.568,-156.5 672.23,-156.5"/>
<polygon fill="midnightblue" stroke="midnightblue" points="672.465,-160 682.465,-156.5 672.465,-153 672.465,-160"/>
</g>
<!-- Node21 -->
<g id="node10" class="node"><title>Node21</title>
<g id="a_node10"><a xlink:href="namespaceopenage_1_1curve_1_1tests.xhtml#afc4e799a037edab37e1e35a74da593b7" target="_top" xlink:title=" ">
<polygon fill="white" stroke="black" points="842,-141.5 842,-171.5 952,-171.5 952,-141.5 842,-141.5"/>
<text text-anchor="start" x="850" y="-159.5" font-family="Helvetica,sans-Serif" font-size="10.00">openage::curve::tests</text>
<text text-anchor="middle" x="897" y="-148.5" font-family="Helvetica,sans-Serif" font-size="10.00">::container</text>
</a>
</g>
</g>
<!-- Node20&#45;&gt;Node21 -->
<g id="edge9" class="edge"><title>Node20&#45;&gt;Node21</title>
<path fill="none" stroke="midnightblue" d="M797.836,-156.5C808.817,-156.5 820.395,-156.5 831.597,-156.5"/>
<polygon fill="midnightblue" stroke="midnightblue" points="831.751,-160 841.751,-156.5 831.751,-153 831.751,-160"/>
</g>
<!-- Node22 -->
<g id="node11" class="node"><title>Node22</title>
<g id="a_node11"><a xlink:href="namespaceopenage_1_1curve_1_1tests.xhtml#a994d019a14acd704605a0ccff85558c8" target="_top" xlink:title=" ">
<polygon fill="white" stroke="black" points="988,-272.5 988,-302.5 1098,-302.5 1098,-272.5 988,-272.5"/>
<text text-anchor="start" x="996" y="-290.5" font-family="Helvetica,sans-Serif" font-size="10.00">openage::curve::tests</text>
<text text-anchor="middle" x="1043" y="-279.5" font-family="Helvetica,sans-Serif" font-size="10.00">::test_list</text>
</a>
</g>
</g>
<!-- Node21&#45;&gt;Node22 -->
<g id="edge10" class="edge"><title>Node21&#45;&gt;Node22</title>
<path fill="none" stroke="midnightblue" d="M939.057,-171.516C943.778,-174.354 948.239,-177.664 952,-181.5 979.863,-209.923 959.92,-235.292 988,-263.5 989.063,-264.568 990.182,-265.592 991.347,-266.575"/>
<polygon fill="midnightblue" stroke="midnightblue" points="989.422,-269.501 999.594,-272.463 993.489,-263.804 989.422,-269.501"/>
</g>
<!-- Node23 -->
<g id="node12" class="node"><title>Node23</title>
<g id="a_node12"><a xlink:href="namespaceopenage_1_1curve_1_1tests.xhtml#aafe8d47259322a390c43cae62d308296" target="_top" xlink:title=" ">
<polygon fill="white" stroke="black" points="988,-223.5 988,-253.5 1098,-253.5 1098,-223.5 988,-223.5"/>
<text text-anchor="start" x="996" y="-241.5" font-family="Helvetica,sans-Serif" font-size="10.00">openage::curve::tests</text>
<text text-anchor="middle" x="1043" y="-230.5" font-family="Helvetica,sans-Serif" font-size="10.00">::test_map</text>
</a>
</g>
</g>
<!-- Node21&#45;&gt;Node23 -->
<g id="edge11" class="edge"><title>Node21&#45;&gt;Node23</title>
<path fill="none" stroke="midnightblue" d="M933.41,-171.593C939.722,-174.647 946.147,-178.003 952,-181.5 969.169,-191.758 971.219,-197.618 988,-208.5 993.256,-211.908 998.924,-215.323 1004.54,-218.563"/>
<polygon fill="midnightblue" stroke="midnightblue" points="1002.84,-221.619 1013.27,-223.487 1006.28,-215.523 1002.84,-221.619"/>
</g>
<!-- Node24 -->
<g id="node13" class="node"><title>Node24</title>
<g id="a_node13"><a xlink:href="namespaceopenage_1_1curve_1_1tests.xhtml#ae4b27fadf76c2a10960f6b7e7ff7c724" target="_top" xlink:title=" ">
<polygon fill="white" stroke="black" points="988,-97.5 988,-127.5 1098,-127.5 1098,-97.5 988,-97.5"/>
<text text-anchor="start" x="996" y="-115.5" font-family="Helvetica,sans-Serif" font-size="10.00">openage::curve::tests</text>
<text text-anchor="middle" x="1043" y="-104.5" font-family="Helvetica,sans-Serif" font-size="10.00">::test_queue</text>
</a>
</g>
</g>
<!-- Node21&#45;&gt;Node24 -->
<g id="edge12" class="edge"><title>Node21&#45;&gt;Node24</title>
<path fill="none" stroke="midnightblue" d="M947.154,-141.481C958.611,-137.98 970.93,-134.216 982.772,-130.597"/>
<polygon fill="midnightblue" stroke="midnightblue" points="984.038,-133.87 992.579,-127.601 981.992,-127.176 984.038,-133.87"/>
</g>
<!-- Node25 -->
<g id="node14" class="node"><title>Node25</title>
<g id="a_node14"><a xlink:href="classopenage_1_1curve_1_1_queue.xhtml#acbff846f0aad39b82c1dbffe83f80fba" target="_top" xlink:title=" ">
<polygon fill="white" stroke="black" points="1145,-172.5 1145,-202.5 1261,-202.5 1261,-172.5 1145,-172.5"/>
<text text-anchor="start" x="1153" y="-190.5" font-family="Helvetica,sans-Serif" font-size="10.00">openage::curve::Queue</text>
<text text-anchor="middle" x="1203" y="-179.5" font-family="Helvetica,sans-Serif" font-size="10.00">::begin</text>
</a>
</g>
</g>
<!-- Node24&#45;&gt;Node25 -->
<g id="edge13" class="edge"><title>Node24&#45;&gt;Node25</title>
<path fill="none" stroke="midnightblue" d="M1068.68,-127.573C1086.47,-138.099 1111.25,-152.075 1134,-162.5 1138.67,-164.639 1143.58,-166.732 1148.53,-168.739"/>
<polygon fill="midnightblue" stroke="midnightblue" points="1147.48,-172.084 1158.06,-172.482 1150.03,-165.569 1147.48,-172.084"/>
</g>
<!-- Node27 -->
<g id="node16" class="node"><title>Node27</title>
<g id="a_node16"><a xlink:href="classopenage_1_1curve_1_1_queue.xhtml#a3ba35a56fa550d939d0d16c71c63e56c" target="_top" xlink:title=" ">
<polygon fill="white" stroke="black" points="1145,-28.5 1145,-58.5 1261,-58.5 1261,-28.5 1145,-28.5"/>
<text text-anchor="start" x="1153" y="-46.5" font-family="Helvetica,sans-Serif" font-size="10.00">openage::curve::Queue</text>
<text text-anchor="middle" x="1203" y="-35.5" font-family="Helvetica,sans-Serif" font-size="10.00">::between</text>
</a>
</g>
</g>
<!-- Node24&#45;&gt;Node27 -->
<g id="edge16" class="edge"><title>Node24&#45;&gt;Node27</title>
<path fill="none" stroke="midnightblue" d="M1078.67,-97.3577C1102.03,-87.1565 1133.04,-73.6167 1158.11,-62.6652"/>
<polygon fill="midnightblue" stroke="midnightblue" points="1159.64,-65.8167 1167.41,-58.607 1156.84,-59.4017 1159.64,-65.8167"/>
</g>
<!-- Node28 -->
<g id="node17" class="node"><title>Node28</title>
<g id="a_node17"><a xlink:href="classopenage_1_1curve_1_1_queue.xhtml#a3a60297cec80ae6d759ea3567922db8e" target="_top" xlink:title=" ">
<polygon fill="white" stroke="black" points="1134,-134 1134,-153 1272,-153 1272,-134 1134,-134"/>
<text text-anchor="middle" x="1203" y="-141" font-family="Helvetica,sans-Serif" font-size="10.00">openage::curve::Queue::end</text>
</a>
</g>
</g>
<!-- Node24&#45;&gt;Node28 -->
<g id="edge18" class="edge"><title>Node24&#45;&gt;Node28</title>
<path fill="none" stroke="midnightblue" d="M1098.37,-123.168C1112.88,-126.014 1128.62,-129.102 1143.34,-131.991"/>
<polygon fill="midnightblue" stroke="midnightblue" points="1142.86,-135.463 1153.35,-133.954 1144.21,-128.594 1142.86,-135.463"/>
</g>
<!-- Node29 -->
<g id="node18" class="node"><title>Node29</title>
<g id="a_node18"><a xlink:href="classopenage_1_1curve_1_1_queue.xhtml#ae7d94b0875221550e5af663a64ea2aec" target="_top" xlink:title=" ">
<polygon fill="white" stroke="black" points="1145,-84.5 1145,-114.5 1261,-114.5 1261,-84.5 1145,-84.5"/>
<text text-anchor="start" x="1153" y="-102.5" font-family="Helvetica,sans-Serif" font-size="10.00">openage::curve::Queue</text>
<text text-anchor="middle" x="1203" y="-91.5" font-family="Helvetica,sans-Serif" font-size="10.00">::insert</text>
</a>
</g>
</g>
<!-- Node24&#45;&gt;Node29 -->
<g id="edge21" class="edge"><title>Node24&#45;&gt;Node29</title>
<path fill="none" stroke="midnightblue" d="M1098.37,-108.026C1110.09,-107.062 1122.61,-106.032 1134.75,-105.033"/>
<polygon fill="midnightblue" stroke="midnightblue" points="1135.15,-108.512 1144.83,-104.204 1134.58,-101.536 1135.15,-108.512"/>
</g>
<!-- Node25&#45;&gt;Node21 -->
<g id="edge14" class="edge"><title>Node25&#45;&gt;Node21</title>
<path fill="none" stroke="midnightblue" d="M1144.77,-181.664C1092.89,-176.374 1016.52,-168.586 962.502,-163.078"/>
<polygon fill="midnightblue" stroke="midnightblue" points="962.653,-159.575 952.349,-162.042 961.942,-166.539 962.653,-159.575"/>
</g>
<!-- Node26 -->
<g id="node15" class="node"><title>Node26</title>
<g id="a_node15"><a xlink:href="namespaceopenage_1_1console_1_1tests.xhtml#a46ebd3333dc9196558ac9aced828d117" target="_top" xlink:title=" ">
<polygon fill="white" stroke="black" points="1308,-134 1308,-153 1454,-153 1454,-134 1308,-134"/>
<text text-anchor="middle" x="1381" y="-141" font-family="Helvetica,sans-Serif" font-size="10.00">openage::console::tests::max</text>
</a>
</g>
</g>
<!-- Node25&#45;&gt;Node26 -->
<g id="edge15" class="edge"><title>Node25&#45;&gt;Node26</title>
<path fill="none" stroke="midnightblue" d="M1261.14,-173.214C1284.03,-167.491 1310.12,-160.971 1332,-155.499"/>
<polygon fill="midnightblue" stroke="midnightblue" points="1332.89,-158.886 1341.74,-153.065 1331.19,-152.095 1332.89,-158.886"/>
</g>
<!-- Node27&#45;&gt;Node21 -->
<g id="edge17" class="edge"><title>Node27&#45;&gt;Node21</title>
<path fill="none" stroke="midnightblue" d="M1144.82,-41.9702C1100.11,-42.9113 1037.46,-49.0454 988,-72.5 958.429,-86.5232 932.033,-113.824 915.595,-133.501"/>
<polygon fill="midnightblue" stroke="midnightblue" points="912.763,-131.436 909.179,-141.407 918.198,-135.847 912.763,-131.436"/>
</g>
<!-- Node28&#45;&gt;Node21 -->
<g id="edge19" class="edge"><title>Node28&#45;&gt;Node21</title>
<path fill="none" stroke="midnightblue" d="M1133.74,-146.419C1082.48,-148.611 1012.77,-151.592 962.458,-153.744"/>
<polygon fill="midnightblue" stroke="midnightblue" points="962.19,-150.252 952.349,-154.176 962.49,-157.245 962.19,-150.252"/>
</g>
<!-- Node28&#45;&gt;Node26 -->
<g id="edge20" class="edge"><title>Node28&#45;&gt;Node26</title>
<path fill="none" stroke="midnightblue" d="M1272.05,-143.5C1280.46,-143.5 1289.13,-143.5 1297.72,-143.5"/>
<polygon fill="midnightblue" stroke="midnightblue" points="1297.76,-147 1307.76,-143.5 1297.76,-140 1297.76,-147"/>
</g>
<!-- Node29&#45;&gt;Node21 -->
<g id="edge22" class="edge"><title>Node29&#45;&gt;Node21</title>
<path fill="none" stroke="midnightblue" d="M1144.58,-85.3318C1100.58,-77.1179 1038.97,-71.4103 988,-88.5 961.111,-97.5162 935.842,-118.093 918.966,-134.265"/>
<polygon fill="midnightblue" stroke="midnightblue" points="916.474,-131.807 911.827,-141.328 921.397,-136.783 916.474,-131.807"/>
</g>
<!-- Node29&#45;&gt;Node26 -->
<g id="edge23" class="edge"><title>Node29&#45;&gt;Node26</title>
<path fill="none" stroke="midnightblue" d="M1261.14,-113.786C1284.03,-119.509 1310.12,-126.029 1332,-131.501"/>
<polygon fill="midnightblue" stroke="midnightblue" points="1331.19,-134.905 1341.74,-133.935 1332.89,-128.114 1331.19,-134.905"/>
</g>
<!-- Node31 -->
<g id="node20" class="node"><title>Node31</title>
<g id="a_node20"><a xlink:href="classqtsdl_1_1_gui_renderer_impl.xhtml#a6c76b7a4a79a481cf8962e268ae56bb4" target="_top" xlink:title=" ">
<polygon fill="white" stroke="black" points="504,-92.5 504,-122.5 620,-122.5 620,-92.5 504,-92.5"/>
<text text-anchor="start" x="512" y="-110.5" font-family="Helvetica,sans-Serif" font-size="10.00">qtsdl::GuiRendererImpl</text>
<text text-anchor="middle" x="562" y="-99.5" font-family="Helvetica,sans-Serif" font-size="10.00">::get_window</text>
</a>
</g>
</g>
<!-- Node30&#45;&gt;Node31 -->
<g id="edge25" class="edge"><title>Node30&#45;&gt;Node31</title>
<path fill="none" stroke="midnightblue" d="M448.558,-123.708C462.908,-121.639 478.583,-119.38 493.551,-117.222"/>
<polygon fill="midnightblue" stroke="midnightblue" points="494.376,-120.64 503.775,-115.749 493.378,-113.711 494.376,-120.64"/>
</g>
</g>
</svg>
