<?xml version="1.0" encoding="UTF-8" standalone="no"?>
<!DOCTYPE svg PUBLIC "-//W3C//DTD SVG 1.1//EN"
 "http://www.w3.org/Graphics/SVG/1.1/DTD/svg11.dtd">
<!-- Generated by graphviz version 2.38.0 (20140413.2041)
 -->
<!-- Title: openage::cvar::CVarManager::load_all Pages: 1 -->
<svg width="691pt" height="144pt"
 viewBox="0.00 0.00 691.00 143.50" xmlns="http://www.w3.org/2000/svg" xmlns:xlink="http://www.w3.org/1999/xlink">
<g id="graph0" class="graph" transform="scale(1 1) rotate(0) translate(4 139.5)">
<title>openage::cvar::CVarManager::load_all</title>
<polygon fill="white" stroke="none" points="-4,4 -4,-139.5 687,-139.5 687,4 -4,4"/>
<!-- Node9 -->
<g id="node1" class="node"><title>Node9</title>
<g id="a_node1"><a xlink:title="Perform the load of the default config files.">
<polygon fill="#bfbfbf" stroke="black" points="0,-83 0,-113 142,-113 142,-83 0,-83"/>
<text text-anchor="start" x="8" y="-101" font-family="Helvetica,sans-Serif" font-size="10.00">openage::cvar::CVarManager</text>
<text text-anchor="middle" x="71" y="-90" font-family="Helvetica,sans-Serif" font-size="10.00">::load_all</text>
</a>
</g>
</g>
<!-- Node10 -->
<g id="node2" class="node"><title>Node10</title>
<g id="a_node2"><a xlink:href="classopenage_1_1cvar_1_1_c_var_manager.xhtml#af7fcfc7c5b2700e1ed0feba06fc57a63" target="_top" xlink:title="Performs the loading of a configuration file via the Python implementation.">
<polygon fill="white" stroke="black" points="178,-105 178,-135 320,-135 320,-105 178,-105"/>
<text text-anchor="start" x="186" y="-123" font-family="Helvetica,sans-Serif" font-size="10.00">openage::cvar::CVarManager</text>
<text text-anchor="middle" x="249" y="-112" font-family="Helvetica,sans-Serif" font-size="10.00">::load_config</text>
</a>
</g>
</g>
<!-- Node9&#45;&gt;Node10 -->
<g id="edge1" class="edge"><title>Node9&#45;&gt;Node10</title>
<path fill="none" stroke="midnightblue" d="M142.066,-106.758C150.54,-107.818 159.247,-108.906 167.852,-109.982"/>
<polygon fill="midnightblue" stroke="midnightblue" points="167.531,-113.469 177.888,-111.236 168.399,-106.523 167.531,-113.469"/>
</g>
<!-- Node11 -->
<g id="node3" class="node"><title>Node11</title>
<g id="a_node3"><a xlink:href="namespaceopenage_1_1log.xhtml#a0eff614e7d6e818746700ed9d29e583f" target="_top" xlink:title="Convenience method that makes use of the &#39;general&#39; LogSource.">
<polygon fill="white" stroke="black" points="203.5,-66.5 203.5,-85.5 294.5,-85.5 294.5,-66.5 203.5,-66.5"/>
<text text-anchor="middle" x="249" y="-73.5" font-family="Helvetica,sans-Serif" font-size="10.00">openage::log::log</text>
</a>
</g>
</g>
<!-- Node9&#45;&gt;Node11 -->
<g id="edge2" class="edge"><title>Node9&#45;&gt;Node11</title>
<path fill="none" stroke="midnightblue" d="M142.066,-89.2418C159.051,-87.1186 176.967,-84.8791 193.136,-82.858"/>
<polygon fill="midnightblue" stroke="midnightblue" points="193.993,-86.2783 203.481,-81.5649 193.124,-79.3323 193.993,-86.2783"/>
</g>
<!-- Node12 -->
<g id="node4" class="node"><title>Node12</title>
<g id="a_node4"><a xlink:href="namespaceopenage_1_1log.xhtml#a3fbb0c225d01e222648ec28a43507188" target="_top" xlink:title="Returns a reference to a general named log source, for use by log::log().">
<polygon fill="white" stroke="black" points="372.5,-83 372.5,-113 482.5,-113 482.5,-83 372.5,-83"/>
<text text-anchor="start" x="380.5" y="-101" font-family="Helvetica,sans-Serif" font-size="10.00">openage::log::general</text>
<text text-anchor="middle" x="427.5" y="-90" font-family="Helvetica,sans-Serif" font-size="10.00">_source</text>
</a>
</g>
</g>
<!-- Node11&#45;&gt;Node12 -->
<g id="edge3" class="edge"><title>Node11&#45;&gt;Node12</title>
<path fill="none" stroke="midnightblue" d="M294.538,-81.5515C314.996,-84.1014 339.645,-87.1739 362.075,-89.9697"/>
<polygon fill="midnightblue" stroke="midnightblue" points="361.846,-93.4681 372.202,-91.232 362.712,-86.5219 361.846,-93.4681"/>
</g>
<!-- Node13 -->
<g id="node5" class="node"><title>Node13</title>
<g id="a_node5"><a xlink:href="classopenage_1_1log_1_1_log_source.xhtml#a5640099e20af4cd368c767dbcef3a1df" target="_top" xlink:title="Logs a message (get one via MSG(level)).">
<polygon fill="white" stroke="black" points="356,-44.5 356,-63.5 499,-63.5 499,-44.5 356,-44.5"/>
<text text-anchor="middle" x="427.5" y="-51.5" font-family="Helvetica,sans-Serif" font-size="10.00">openage::log::LogSource::log</text>
</a>
</g>
</g>
<!-- Node11&#45;&gt;Node13 -->
<g id="edge4" class="edge"><title>Node11&#45;&gt;Node13</title>
<path fill="none" stroke="midnightblue" d="M294.538,-70.4485C310.075,-68.5119 328.031,-66.2738 345.595,-64.0845"/>
<polygon fill="midnightblue" stroke="midnightblue" points="346.38,-67.5138 355.871,-62.8037 345.514,-60.5675 346.38,-67.5138"/>
</g>
<!-- Node14 -->
<g id="node6" class="node"><title>Node14</title>
<g id="a_node6"><a xlink:href="namespaceopenage_1_1log.xhtml#a3d2885be9c3a09b9ff7ee8764b2e5f39" target="_top" xlink:title="Returns a reference to the global stdout logsink object; Initializes the object if needed.">
<polygon fill="white" stroke="black" points="557,-88 557,-118 661,-118 661,-88 557,-88"/>
<text text-anchor="start" x="565" y="-106" font-family="Helvetica,sans-Serif" font-size="10.00">openage::log::global</text>
<text text-anchor="middle" x="609" y="-95" font-family="Helvetica,sans-Serif" font-size="10.00">_stdoutsink</text>
</a>
</g>
</g>
<!-- Node13&#45;&gt;Node14 -->
<g id="edge5" class="edge"><title>Node13&#45;&gt;Node14</title>
<path fill="none" stroke="midnightblue" d="M463.536,-63.564C487.265,-70.0416 519.246,-78.7718 547.085,-86.3714"/>
<polygon fill="midnightblue" stroke="midnightblue" points="546.17,-89.7497 556.739,-89.0067 548.014,-82.9968 546.17,-89.7497"/>
</g>
<!-- Node15 -->
<g id="node7" class="node"><title>Node15</title>
<g id="a_node7"><a xlink:href="classopenage_1_1log_1_1_log_sink_list.xhtml#a2d47416fab12651553b4b58c86fd6f84" target="_top" xlink:title=" ">
<polygon fill="white" stroke="black" points="544.5,-39 544.5,-69 673.5,-69 673.5,-39 544.5,-39"/>
<text text-anchor="start" x="552.5" y="-57" font-family="Helvetica,sans-Serif" font-size="10.00">openage::log::LogSinkList</text>
<text text-anchor="middle" x="609" y="-46" font-family="Helvetica,sans-Serif" font-size="10.00">::instance</text>
</a>
</g>
</g>
<!-- Node13&#45;&gt;Node15 -->
<g id="edge6" class="edge"><title>Node13&#45;&gt;Node15</title>
<path fill="none" stroke="midnightblue" d="M499.185,-54C510.719,-54 522.693,-54 534.297,-54"/>
<polygon fill="midnightblue" stroke="midnightblue" points="534.38,-57.5001 544.379,-54 534.379,-50.5001 534.38,-57.5001"/>
</g>
<!-- Node16 -->
<g id="node8" class="node"><title>Node16</title>
<g id="a_node8"><a xlink:href="classopenage_1_1log_1_1_log_sink_list.xhtml#a8456b84ab55e1fe151c51438c5bfebdd" target="_top" xlink:title=" ">
<polygon fill="white" stroke="black" points="535,-0.5 535,-19.5 683,-19.5 683,-0.5 535,-0.5"/>
<text text-anchor="middle" x="609" y="-7.5" font-family="Helvetica,sans-Serif" font-size="10.00">openage::log::LogSinkList::log</text>
</a>
</g>
</g>
<!-- Node13&#45;&gt;Node16 -->
<g id="edge7" class="edge"><title>Node13&#45;&gt;Node16</title>
<path fill="none" stroke="midnightblue" d="M467.449,-44.4527C494.382,-37.8508 530.415,-29.0181 559.253,-21.949"/>
<polygon fill="midnightblue" stroke="midnightblue" points="560.248,-25.3089 569.127,-19.5287 558.581,-18.5102 560.248,-25.3089"/>
</g>
</g>
</svg>
