<?xml version="1.0" encoding="UTF-8" standalone="no"?>
<!DOCTYPE svg PUBLIC "-//W3C//DTD SVG 1.1//EN"
 "http://www.w3.org/Graphics/SVG/1.1/DTD/svg11.dtd">
<!-- Generated by graphviz version 2.38.0 (20140413.2041)
 -->
<!-- Title: openage::util::compress::LZXDStream::decode_symbol_from_verbatim_block Pages: 1 -->
<svg width="528pt" height="50pt"
 viewBox="0.00 0.00 528.00 50.00" xmlns="http://www.w3.org/2000/svg" xmlns:xlink="http://www.w3.org/1999/xlink">
<g id="graph0" class="graph" transform="scale(1 1) rotate(0) translate(4 46)">
<title>openage::util::compress::LZXDStream::decode_symbol_from_verbatim_block</title>
<polygon fill="white" stroke="none" points="-4,4 -4,-46 524,-46 524,4 -4,4"/>
<!-- Node19 -->
<g id="node1" class="node"><title>Node19</title>
<g id="a_node1"><a xlink:title="Decodes one symbol from the current verbatim block.">
<polygon fill="#bfbfbf" stroke="black" points="369,-0.5 369,-41.5 520,-41.5 520,-0.5 369,-0.5"/>
<text text-anchor="start" x="377" y="-29.5" font-family="Helvetica,sans-Serif" font-size="10.00">openage::util::compress</text>
<text text-anchor="start" x="377" y="-18.5" font-family="Helvetica,sans-Serif" font-size="10.00">::LZXDStream::decode_symbol</text>
<text text-anchor="middle" x="444.5" y="-7.5" font-family="Helvetica,sans-Serif" font-size="10.00">_from_verbatim_block</text>
</a>
</g>
</g>
<!-- Node20 -->
<g id="node2" class="node"><title>Node20</title>
<g id="a_node2"><a xlink:href="classopenage_1_1util_1_1compress_1_1_l_z_x_d_stream.xhtml#a12047565515e79d8fa7ae56c1459a724" target="_top" xlink:title="See the doc for LZXDecompressor::decompress_next_frame in lzxd.h.">
<polygon fill="white" stroke="black" points="197,-0.5 197,-41.5 333,-41.5 333,-0.5 197,-0.5"/>
<text text-anchor="start" x="205" y="-29.5" font-family="Helvetica,sans-Serif" font-size="10.00">openage::util::compress</text>
<text text-anchor="start" x="205" y="-18.5" font-family="Helvetica,sans-Serif" font-size="10.00">::LZXDStream::decompress</text>
<text text-anchor="middle" x="265" y="-7.5" font-family="Helvetica,sans-Serif" font-size="10.00">_next_frame</text>
</a>
</g>
</g>
<!-- Node19&#45;&gt;Node20 -->
<g id="edge1" class="edge"><title>Node19&#45;&gt;Node20</title>
<path fill="none" stroke="midnightblue" d="M358.926,-21C350.312,-21 341.644,-21 333.25,-21"/>
<polygon fill="midnightblue" stroke="midnightblue" points="358.996,-24.5001 368.996,-21 358.995,-17.5001 358.996,-24.5001"/>
</g>
<!-- Node21 -->
<g id="node3" class="node"><title>Node21</title>
<g id="a_node3"><a xlink:href="classopenage_1_1util_1_1compress_1_1_l_z_x_decompressor.xhtml#ad03ce7fd20c3abe824f61dd382bab43c" target="_top" xlink:title="Decompresses a single 32&#45;KiB frame.">
<polygon fill="white" stroke="black" points="0,-0.5 0,-41.5 161,-41.5 161,-0.5 0,-0.5"/>
<text text-anchor="start" x="8" y="-29.5" font-family="Helvetica,sans-Serif" font-size="10.00">openage::util::compress</text>
<text text-anchor="start" x="8" y="-18.5" font-family="Helvetica,sans-Serif" font-size="10.00">::LZXDecompressor::decompress</text>
<text text-anchor="middle" x="80.5" y="-7.5" font-family="Helvetica,sans-Serif" font-size="10.00">_next_frame</text>
</a>
</g>
</g>
<!-- Node20&#45;&gt;Node21 -->
<g id="edge2" class="edge"><title>Node20&#45;&gt;Node21</title>
<path fill="none" stroke="midnightblue" d="M186.654,-21C178.236,-21 169.657,-21 161.212,-21"/>
<polygon fill="midnightblue" stroke="midnightblue" points="186.821,-24.5001 196.821,-21 186.821,-17.5001 186.821,-24.5001"/>
</g>
</g>
</svg>
