<?xml version="1.0" encoding="UTF-8" standalone="no"?>
<!DOCTYPE svg PUBLIC "-//W3C//DTD SVG 1.1//EN"
 "http://www.w3.org/Graphics/SVG/1.1/DTD/svg11.dtd">
<!-- Generated by graphviz version 2.38.0 (20140413.2041)
 -->
<!-- Title: openage::FoundationAction::on_completion Pages: 1 -->
<!--zoomable 154 -->
<svg id="main" version="1.1" xmlns="http://www.w3.org/2000/svg" xmlns:xlink="http://www.w3.org/1999/xlink" xml:space="preserve" onload="init(evt)">
<style type="text/css"><![CDATA[
.edge:hover path { stroke: red; }
.edge:hover polygon { stroke: red; fill: red; }
]]></style>
<script type="text/javascript"><![CDATA[
var edges = document.getElementsByTagName('g');
if (edges && edges.length) {
  for (var i=0;i<edges.length;i++) {
    if (edges[i].id.substr(0,4)=='edge') {
      edges[i].setAttribute('class','edge');
    }
  }
}
]]></script>
        <defs>
                <circle id="rim" cx="0" cy="0" r="7"/>
                <circle id="rim2" cx="0" cy="0" r="3.5"/>
                <g id="zoomPlus">
                        <use xlink:href="#rim" fill="#404040">
                                <set attributeName="fill" to="#808080" begin="zoomplus.mouseover" end="zoomplus.mouseout"/>
                        </use>
                        <path d="M-4,0h8M0,-4v8" fill="none" stroke="white" stroke-width="1.5" pointer-events="none"/>
                </g>
                <g id="zoomMin">
                        <use xlink:href="#rim" fill="#404040">
                                <set attributeName="fill" to="#808080" begin="zoomminus.mouseover" end="zoomminus.mouseout"/>
                        </use>
                        <path d="M-4,0h8" fill="none" stroke="white" stroke-width="1.5" pointer-events="none"/>
                </g>
                <g id="dirArrow">
                        <path fill="none" stroke="white" stroke-width="1.5" d="M0,-3.0v7 M-2.5,-0.5L0,-3.0L2.5,-0.5"/>
                </g>
               <g id="resetDef">
                       <use xlink:href="#rim2" fill="#404040">
                               <set attributeName="fill" to="#808080" begin="reset.mouseover" end="reset.mouseout"/>
                       </use>
               </g>
        </defs>

<script type="text/javascript">
var viewWidth = 695;
var viewHeight = 154;
var sectionId = 'dynsection-4';
</script>
<script xlink:href="svgpan.js"/>
<svg id="graph" class="graph">
<g id="viewport">
<title>openage::FoundationAction::on_completion</title>
<polygon fill="white" stroke="none" points="-4,4 -4,-149.5 691,-149.5 691,4 -4,4"/>
<!-- Node20 -->
<g id="node1" class="node"><title>Node20</title>
<g id="a_node1"><a xlink:title="action to perform when popped from a units action stack">
<polygon fill="#bfbfbf" stroke="black" points="0,-66 0,-96 135,-96 135,-66 0,-66"/>
<text text-anchor="start" x="8" y="-84" font-family="Helvetica,sans-Serif" font-size="10.00">openage::FoundationAction</text>
<text text-anchor="middle" x="67.5" y="-73" font-family="Helvetica,sans-Serif" font-size="10.00">::on_completion</text>
</a>
</g>
</g>
<!-- Node21 -->
<g id="node2" class="node"><title>Node21</title>
<g id="a_node2"><a xlink:href="classopenage_1_1_unit.xhtml#a3e12324401051119f44e212dae1a87ce" target="_top" xlink:title="returns attribute based on templated value">
<polygon fill="white" stroke="black" points="175,-115 175,-145 271,-145 271,-115 175,-115"/>
<text text-anchor="start" x="183" y="-133" font-family="Helvetica,sans-Serif" font-size="10.00">openage::Unit::get</text>
<text text-anchor="middle" x="223" y="-122" font-family="Helvetica,sans-Serif" font-size="10.00">_attribute</text>
</a>
</g>
</g>
<!-- Node20&#45;&gt;Node21 -->
<g id="edge1" class="edge"><title>Node20&#45;&gt;Node21</title>
<path fill="none" stroke="midnightblue" d="M115.808,-96.1014C131.346,-101.062 148.782,-106.627 164.963,-111.793"/>
<polygon fill="midnightblue" stroke="midnightblue" points="164.258,-115.242 174.849,-114.948 166.387,-108.573 164.258,-115.242"/>
</g>
<!-- Node23 -->
<g id="node4" class="node"><title>Node23</title>
<g id="a_node4"><a xlink:href="classopenage_1_1_unit.xhtml#a6c56a8b7e9856a8e0535cacbe831bae7" target="_top" xlink:title="returns whether attribute is available">
<polygon fill="white" stroke="black" points="174,-66 174,-96 272,-96 272,-66 174,-66"/>
<text text-anchor="start" x="182" y="-84" font-family="Helvetica,sans-Serif" font-size="10.00">openage::Unit::has</text>
<text text-anchor="middle" x="223" y="-73" font-family="Helvetica,sans-Serif" font-size="10.00">_attribute</text>
</a>
</g>
</g>
<!-- Node20&#45;&gt;Node23 -->
<g id="edge3" class="edge"><title>Node20&#45;&gt;Node23</title>
<path fill="none" stroke="midnightblue" d="M135.381,-81C144.773,-81 154.365,-81 163.583,-81"/>
<polygon fill="midnightblue" stroke="midnightblue" points="163.8,-84.5001 173.8,-81 163.8,-77.5001 163.8,-84.5001"/>
</g>
<!-- Node25 -->
<g id="node6" class="node"><title>Node25</title>
<g id="a_node6"><a xlink:href="classopenage_1_1_unit.xhtml#aecd686fafc67487f4df4d3637f2621f4" target="_top" xlink:title="adds a new action on top of the action stack will be performed immediately">
<polygon fill="white" stroke="black" points="171,-17 171,-47 275,-47 275,-17 171,-17"/>
<text text-anchor="start" x="179" y="-35" font-family="Helvetica,sans-Serif" font-size="10.00">openage::Unit::push</text>
<text text-anchor="middle" x="223" y="-24" font-family="Helvetica,sans-Serif" font-size="10.00">_action</text>
</a>
</g>
</g>
<!-- Node20&#45;&gt;Node25 -->
<g id="edge5" class="edge"><title>Node20&#45;&gt;Node25</title>
<path fill="none" stroke="midnightblue" d="M115.808,-65.8986C131.346,-60.9385 148.782,-55.3726 164.963,-50.2071"/>
<polygon fill="midnightblue" stroke="midnightblue" points="166.387,-53.4269 174.849,-47.0516 164.258,-46.7584 166.387,-53.4269"/>
</g>
<!-- Node22 -->
<g id="node3" class="node"><title>Node22</title>
<g id="a_node3"><a xlink:href="classopenage_1_1_attributes.xhtml#a08f927be3be6911e7cf77604f9ead10f" target="_top" xlink:title="Get the attribute based on the type.">
<polygon fill="white" stroke="black" points="312,-120.5 312,-139.5 433,-139.5 433,-120.5 312,-120.5"/>
<text text-anchor="middle" x="372.5" y="-127.5" font-family="Helvetica,sans-Serif" font-size="10.00">openage::Attributes::get</text>
</a>
</g>
</g>
<!-- Node21&#45;&gt;Node22 -->
<g id="edge2" class="edge"><title>Node21&#45;&gt;Node22</title>
<path fill="none" stroke="midnightblue" d="M271.075,-130C280.813,-130 291.268,-130 301.621,-130"/>
<polygon fill="midnightblue" stroke="midnightblue" points="301.91,-133.5 311.91,-130 301.91,-126.5 301.91,-133.5"/>
</g>
<!-- Node24 -->
<g id="node5" class="node"><title>Node24</title>
<g id="a_node5"><a xlink:href="classopenage_1_1_attributes.xhtml#aee38f453ac85b68821958ad74cdd8df5" target="_top" xlink:title="Check if the attribute of the given type exists.">
<polygon fill="white" stroke="black" points="311,-71.5 311,-90.5 434,-90.5 434,-71.5 311,-71.5"/>
<text text-anchor="middle" x="372.5" y="-78.5" font-family="Helvetica,sans-Serif" font-size="10.00">openage::Attributes::has</text>
</a>
</g>
</g>
<!-- Node23&#45;&gt;Node24 -->
<g id="edge4" class="edge"><title>Node23&#45;&gt;Node24</title>
<path fill="none" stroke="midnightblue" d="M272.297,-81C281.464,-81 291.228,-81 300.919,-81"/>
<polygon fill="midnightblue" stroke="midnightblue" points="300.964,-84.5001 310.964,-81 300.964,-77.5001 300.964,-84.5001"/>
</g>
<!-- Node26 -->
<g id="node7" class="node"><title>Node26</title>
<g id="a_node7"><a xlink:href="classopenage_1_1_unit.xhtml#a21542f7813db482fd36799cf12971979" target="_top" xlink:title="true when the unit is alive and able to add new actions">
<polygon fill="white" stroke="black" points="316.5,-17 316.5,-47 428.5,-47 428.5,-17 316.5,-17"/>
<text text-anchor="start" x="324.5" y="-35" font-family="Helvetica,sans-Serif" font-size="10.00">openage::Unit::accept</text>
<text text-anchor="middle" x="372.5" y="-24" font-family="Helvetica,sans-Serif" font-size="10.00">_commands</text>
</a>
</g>
</g>
<!-- Node25&#45;&gt;Node26 -->
<g id="edge6" class="edge"><title>Node25&#45;&gt;Node26</title>
<path fill="none" stroke="midnightblue" d="M275.174,-32C285.159,-32 295.755,-32 306.127,-32"/>
<polygon fill="midnightblue" stroke="midnightblue" points="306.393,-35.5001 316.393,-32 306.393,-28.5001 306.393,-35.5001"/>
</g>
<!-- Node27 -->
<g id="node8" class="node"><title>Node27</title>
<g id="a_node8"><a xlink:href="classopenage_1_1_unit.xhtml#a257ef8a7aeceb306d372ef745b40ef90" target="_top" xlink:title="checks the entity has an action, if it has no action it should be removed from the game">
<polygon fill="white" stroke="black" points="470,-39 470,-69 568,-69 568,-39 470,-39"/>
<text text-anchor="start" x="478" y="-57" font-family="Helvetica,sans-Serif" font-size="10.00">openage::Unit::has</text>
<text text-anchor="middle" x="519" y="-46" font-family="Helvetica,sans-Serif" font-size="10.00">_action</text>
</a>
</g>
</g>
<!-- Node26&#45;&gt;Node27 -->
<g id="edge7" class="edge"><title>Node26&#45;&gt;Node27</title>
<path fill="none" stroke="midnightblue" d="M428.541,-40.38C438.71,-41.9282 449.362,-43.55 459.626,-45.1126"/>
<polygon fill="midnightblue" stroke="midnightblue" points="459.315,-48.6056 469.728,-46.6507 460.369,-41.6853 459.315,-48.6056"/>
</g>
<!-- Node28 -->
<g id="node9" class="node"><title>Node28</title>
<g id="a_node9"><a xlink:href="classopenage_1_1_unit.xhtml#a86a49987e082055274e98a142baffad8" target="_top" xlink:title="returns the current action on top of the stack">
<polygon fill="white" stroke="black" points="471,-0.5 471,-19.5 567,-19.5 567,-0.5 471,-0.5"/>
<text text-anchor="middle" x="519" y="-7.5" font-family="Helvetica,sans-Serif" font-size="10.00">openage::Unit::top</text>
</a>
</g>
</g>
<!-- Node26&#45;&gt;Node28 -->
<g id="edge8" class="edge"><title>Node26&#45;&gt;Node28</title>
<path fill="none" stroke="midnightblue" d="M428.541,-23.62C439.058,-22.0188 450.091,-20.339 460.678,-18.7273"/>
<polygon fill="midnightblue" stroke="midnightblue" points="461.299,-22.173 470.659,-17.2077 460.246,-15.2528 461.299,-22.173"/>
</g>
<!-- Node29 -->
<g id="node10" class="node"><title>Node29</title>
<g id="a_node10"><a xlink:href="namespaceopenage_1_1log.xhtml#a325b0901ddb3f2af36f93781b7dd9744" target="_top" xlink:title="error message">
<polygon fill="white" stroke="black" points="604,-0.5 604,-19.5 687,-19.5 687,-0.5 604,-0.5"/>
<text text-anchor="middle" x="645.5" y="-7.5" font-family="Helvetica,sans-Serif" font-size="10.00">openage.log.err</text>
</a>
</g>
</g>
<!-- Node28&#45;&gt;Node29 -->
<g id="edge9" class="edge"><title>Node28&#45;&gt;Node29</title>
<path fill="none" stroke="midnightblue" d="M567.068,-10C575.779,-10 584.912,-10 593.727,-10"/>
<polygon fill="midnightblue" stroke="midnightblue" points="593.885,-13.5001 603.885,-10 593.885,-6.5001 593.885,-13.5001"/>
</g>
</g>
</svg>
        <g id="navigator" transform="translate(0 0)" fill="#404254">
                <rect fill="#f2f5e9" fill-opacity="0.5" stroke="#606060" stroke-width=".5" x="0" y="0" width="60" height="60"/>
                <use id="zoomplus" xlink:href="#zoomPlus" x="17" y="9" onmousedown="handleZoom(evt,'in')"/>
                <use id="zoomminus" xlink:href="#zoomMin" x="42" y="9" onmousedown="handleZoom(evt,'out')"/>
                <use id="reset" xlink:href="#resetDef" x="30" y="36" onmousedown="handleReset()"/>
                <g id="arrowUp" xlink:href="#dirArrow" transform="translate(30 24)" onmousedown="handlePan(0,-1)">
                  <use xlink:href="#rim" fill="#404040">
                        <set attributeName="fill" to="#808080" begin="arrowUp.mouseover" end="arrowUp.mouseout"/>
                  </use>
                  <path fill="none" stroke="white" stroke-width="1.5" d="M0,-3.0v7 M-2.5,-0.5L0,-3.0L2.5,-0.5"/>
                </g>
                <g id="arrowRight" xlink:href="#dirArrow" transform="rotate(90) translate(36 -43)" onmousedown="handlePan(1,0)">
                  <use xlink:href="#rim" fill="#404040">
                        <set attributeName="fill" to="#808080" begin="arrowRight.mouseover" end="arrowRight.mouseout"/>
                  </use>
                  <path fill="none" stroke="white" stroke-width="1.5" d="M0,-3.0v7 M-2.5,-0.5L0,-3.0L2.5,-0.5"/>
                </g>
                <g id="arrowDown" xlink:href="#dirArrow" transform="rotate(180) translate(-30 -48)" onmousedown="handlePan(0,1)">
                  <use xlink:href="#rim" fill="#404040">
                        <set attributeName="fill" to="#808080" begin="arrowDown.mouseover" end="arrowDown.mouseout"/>
                  </use>
                  <path fill="none" stroke="white" stroke-width="1.5" d="M0,-3.0v7 M-2.5,-0.5L0,-3.0L2.5,-0.5"/>
                </g>
                <g id="arrowLeft" xlink:href="#dirArrow" transform="rotate(270) translate(-36 17)" onmousedown="handlePan(-1,0)">
                  <use xlink:href="#rim" fill="#404040">
                        <set attributeName="fill" to="#808080" begin="arrowLeft.mouseover" end="arrowLeft.mouseout"/>
                  </use>
                  <path fill="none" stroke="white" stroke-width="1.5" d="M0,-3.0v7 M-2.5,-0.5L0,-3.0L2.5,-0.5"/>
                </g>
        </g>
        <svg viewBox="0 0 15 15" width="100%" height="30px" preserveAspectRatio="xMaxYMin meet">
         <g id="arrow_out" transform="scale(0.3 0.3)">
          <a xlink:href="classopenage_1_1_foundation_action_a5415b3f1ad67e64d171c5762cec97479_cgraph_org.svg" target="_base">
           <rect id="button" ry="5" rx="5" y="6" x="6" height="38" width="38"
                fill="#f2f5e9" fill-opacity="0.5" stroke="#606060" stroke-width="1.0"/>
           <path id="arrow"
             d="M 11.500037,31.436501 C 11.940474,20.09759 22.043105,11.32322 32.158766,21.979434 L 37.068811,17.246167 C 37.068811,17.246167 37.088388,32 37.088388,32 L 22.160133,31.978069 C 22.160133,31.978069 26.997745,27.140456 26.997745,27.140456 C 18.528582,18.264221 13.291696,25.230495 11.500037,31.436501 z"
             style="fill:#404040;"/>
          </a>
         </g>
        </svg>
</svg>
