<?xml version="1.0" encoding="UTF-8" standalone="no"?>
<!DOCTYPE svg PUBLIC "-//W3C//DTD SVG 1.1//EN"
 "http://www.w3.org/Graphics/SVG/1.1/DTD/svg11.dtd">
<!-- Generated by graphviz version 2.38.0 (20140413.2041)
 -->
<!-- Title: openage::renderer::resources::Texture2dInfo::get_row_size Pages: 1 -->
<svg width="276pt" height="50pt"
 viewBox="0.00 0.00 276.00 50.00" xmlns="http://www.w3.org/2000/svg" xmlns:xlink="http://www.w3.org/1999/xlink">
<g id="graph0" class="graph" transform="scale(1 1) rotate(0) translate(4 46)">
<title>openage::renderer::resources::Texture2dInfo::get_row_size</title>
<polygon fill="white" stroke="none" points="-4,4 -4,-46 272,-46 272,4 -4,4"/>
<!-- Node30 -->
<g id="node1" class="node"><title>Node30</title>
<g id="a_node1"><a xlink:title=" ">
<polygon fill="#bfbfbf" stroke="black" points="0,-0.5 0,-41.5 123,-41.5 123,-0.5 0,-0.5"/>
<text text-anchor="start" x="8" y="-29.5" font-family="Helvetica,sans-Serif" font-size="10.00">openage::renderer::</text>
<text text-anchor="start" x="8" y="-18.5" font-family="Helvetica,sans-Serif" font-size="10.00">resources::Texture2dInfo</text>
<text text-anchor="middle" x="61.5" y="-7.5" font-family="Helvetica,sans-Serif" font-size="10.00">::get_row_size</text>
</a>
</g>
</g>
<!-- Node31 -->
<g id="node2" class="node"><title>Node31</title>
<g id="a_node2"><a xlink:href="namespaceopenage_1_1renderer_1_1resources.xhtml#aa8bc42c345504717eba7d38b39d278c2" target="_top" xlink:title="Returns the size in bytes of a single pixel of the specified format.">
<polygon fill="white" stroke="black" points="159,-6 159,-36 268,-36 268,-6 159,-6"/>
<text text-anchor="start" x="167" y="-24" font-family="Helvetica,sans-Serif" font-size="10.00">openage::renderer::</text>
<text text-anchor="middle" x="213.5" y="-13" font-family="Helvetica,sans-Serif" font-size="10.00">resources::pixel_size</text>
</a>
</g>
</g>
<!-- Node30&#45;&gt;Node31 -->
<g id="edge1" class="edge"><title>Node30&#45;&gt;Node31</title>
<path fill="none" stroke="midnightblue" d="M123.078,-21C131.518,-21 140.211,-21 148.707,-21"/>
<polygon fill="midnightblue" stroke="midnightblue" points="148.944,-24.5001 158.944,-21 148.944,-17.5001 148.944,-24.5001"/>
</g>
</g>
</svg>
