<?xml version="1.0" encoding="UTF-8" standalone="no"?>
<!DOCTYPE svg PUBLIC "-//W3C//DTD SVG 1.1//EN"
 "http://www.w3.org/Graphics/SVG/1.1/DTD/svg11.dtd">
<!-- Generated by graphviz version 2.38.0 (20140413.2041)
 -->
<!-- Title: openage::util::FixedPoint::to_int Pages: 1 -->
<svg width="304pt" height="88pt"
 viewBox="0.00 0.00 304.00 88.00" xmlns="http://www.w3.org/2000/svg" xmlns:xlink="http://www.w3.org/1999/xlink">
<g id="graph0" class="graph" transform="scale(1 1) rotate(0) translate(4 84)">
<title>openage::util::FixedPoint::to_int</title>
<polygon fill="white" stroke="none" points="-4,4 -4,-84 300,-84 300,4 -4,4"/>
<!-- Node318 -->
<g id="node1" class="node"><title>Node318</title>
<g id="a_node1"><a xlink:title="Converter to retrieve the int (pre&#45;decimal) part of the number.">
<polygon fill="#bfbfbf" stroke="black" points="171,-24.5 171,-54.5 296,-54.5 296,-24.5 171,-24.5"/>
<text text-anchor="start" x="179" y="-42.5" font-family="Helvetica,sans-Serif" font-size="10.00">openage::util::FixedPoint</text>
<text text-anchor="middle" x="233.5" y="-31.5" font-family="Helvetica,sans-Serif" font-size="10.00">::to_int</text>
</a>
</g>
</g>
<!-- Node319 -->
<g id="node2" class="node"><title>Node319</title>
<g id="a_node2"><a xlink:href="namespaceopenage_1_1util_1_1tests.xhtml#a66cf54ea365e3f8f1357577ddaa1adfb" target="_top" xlink:title=" ">
<polygon fill="white" stroke="black" points="17.5,-49.5 17.5,-79.5 117.5,-79.5 117.5,-49.5 17.5,-49.5"/>
<text text-anchor="start" x="25.5" y="-67.5" font-family="Helvetica,sans-Serif" font-size="10.00">openage::util::tests</text>
<text text-anchor="middle" x="67.5" y="-56.5" font-family="Helvetica,sans-Serif" font-size="10.00">::fixed_point</text>
</a>
</g>
</g>
<!-- Node318&#45;&gt;Node319 -->
<g id="edge1" class="edge"><title>Node318&#45;&gt;Node319</title>
<path fill="none" stroke="midnightblue" d="M160.929,-50.4103C146.293,-52.6414 131.206,-54.9411 117.575,-57.019"/>
<polygon fill="midnightblue" stroke="midnightblue" points="161.608,-53.8473 170.966,-48.8802 160.553,-46.9272 161.608,-53.8473"/>
</g>
<!-- Node320 -->
<g id="node3" class="node"><title>Node320</title>
<g id="a_node3"><a xlink:href="classopenage_1_1util_1_1_fixed_point.xhtml#a8adbb099a4f7a0db820f923e8ffc1a02" target="_top" xlink:title=" ">
<polygon fill="white" stroke="black" points="0,-0.5 0,-30.5 135,-30.5 135,-0.5 0,-0.5"/>
<text text-anchor="start" x="8" y="-18.5" font-family="Helvetica,sans-Serif" font-size="10.00">openage::util::FixedPoint</text>
<text text-anchor="middle" x="67.5" y="-7.5" font-family="Helvetica,sans-Serif" font-size="10.00">&lt; int64_t, 16 &gt;::operator int</text>
</a>
</g>
</g>
<!-- Node318&#45;&gt;Node320 -->
<g id="edge2" class="edge"><title>Node318&#45;&gt;Node320</title>
<path fill="none" stroke="midnightblue" d="M160.955,-29.03C152.346,-27.7701 143.581,-26.4874 135.047,-25.2386"/>
<polygon fill="midnightblue" stroke="midnightblue" points="160.564,-32.51 170.966,-30.495 161.578,-25.5838 160.564,-32.51"/>
</g>
</g>
</svg>
