<?xml version="1.0" encoding="UTF-8" standalone="no"?>
<!DOCTYPE svg PUBLIC "-//W3C//DTD SVG 1.1//EN"
 "http://www.w3.org/Graphics/SVG/1.1/DTD/svg11.dtd">
<!-- Generated by graphviz version 2.38.0 (20140413.2041)
 -->
<!-- Title: openage::ResourceBundle::get Pages: 1 -->
<!--zoomable 594 -->
<svg id="main" version="1.1" xmlns="http://www.w3.org/2000/svg" xmlns:xlink="http://www.w3.org/1999/xlink" xml:space="preserve" onload="init(evt)">
<style type="text/css"><![CDATA[
.edge:hover path { stroke: red; }
.edge:hover polygon { stroke: red; fill: red; }
]]></style>
<script type="text/javascript"><![CDATA[
var edges = document.getElementsByTagName('g');
if (edges && edges.length) {
  for (var i=0;i<edges.length;i++) {
    if (edges[i].id.substr(0,4)=='edge') {
      edges[i].setAttribute('class','edge');
    }
  }
}
]]></script>
        <defs>
                <circle id="rim" cx="0" cy="0" r="7"/>
                <circle id="rim2" cx="0" cy="0" r="3.5"/>
                <g id="zoomPlus">
                        <use xlink:href="#rim" fill="#404040">
                                <set attributeName="fill" to="#808080" begin="zoomplus.mouseover" end="zoomplus.mouseout"/>
                        </use>
                        <path d="M-4,0h8M0,-4v8" fill="none" stroke="white" stroke-width="1.5" pointer-events="none"/>
                </g>
                <g id="zoomMin">
                        <use xlink:href="#rim" fill="#404040">
                                <set attributeName="fill" to="#808080" begin="zoomminus.mouseover" end="zoomminus.mouseout"/>
                        </use>
                        <path d="M-4,0h8" fill="none" stroke="white" stroke-width="1.5" pointer-events="none"/>
                </g>
                <g id="dirArrow">
                        <path fill="none" stroke="white" stroke-width="1.5" d="M0,-3.0v7 M-2.5,-0.5L0,-3.0L2.5,-0.5"/>
                </g>
               <g id="resetDef">
                       <use xlink:href="#rim2" fill="#404040">
                               <set attributeName="fill" to="#808080" begin="reset.mouseover" end="reset.mouseout"/>
                       </use>
               </g>
        </defs>

<script type="text/javascript">
var viewWidth = 971;
var viewHeight = 594;
var sectionId = 'dynsection-8';
</script>
<script xlink:href="svgpan.js"/>
<svg id="graph" class="graph">
<g id="viewport">
<title>openage::ResourceBundle::get</title>
<polygon fill="white" stroke="none" points="-4,4 -4,-589.861 967,-589.861 967,4 -4,4"/>
<!-- Node44 -->
<g id="node1" class="node"><title>Node44</title>
<g id="a_node1"><a xlink:title=" ">
<polygon fill="#bfbfbf" stroke="black" points="813,-308.169 813,-327.169 963,-327.169 963,-308.169 813,-308.169"/>
<text text-anchor="middle" x="888" y="-315.169" font-family="Helvetica,sans-Serif" font-size="10.00">openage::ResourceBundle::get</text>
</a>
</g>
</g>
<!-- Node45 -->
<g id="node2" class="node"><title>Node45</title>
<g id="a_node2"><a xlink:href="classopenage_1_1_player.xhtml#ac7283a82ddfcc4a556ca4aa4f9277bbc" target="_top" xlink:title="current stockpile amount">
<polygon fill="white" stroke="black" points="637,-482.169 637,-501.169 762,-501.169 762,-482.169 637,-482.169"/>
<text text-anchor="middle" x="699.5" y="-489.169" font-family="Helvetica,sans-Serif" font-size="10.00">openage::Player::amount</text>
</a>
</g>
</g>
<!-- Node44&#45;&gt;Node45 -->
<g id="edge1" class="edge"><title>Node44&#45;&gt;Node45</title>
<path fill="none" stroke="midnightblue" d="M878.212,-336.478C862.434,-368.22 826.294,-432.401 777,-467.669 768.17,-473.986 757.619,-478.682 747.215,-482.158"/>
<polygon fill="midnightblue" stroke="midnightblue" points="881.405,-337.916 882.61,-327.389 875.104,-334.866 881.405,-337.916"/>
</g>
<!-- Node46 -->
<g id="node3" class="node"><title>Node46</title>
<g id="a_node3"><a xlink:href="classopenage_1_1_player.xhtml#ab4df4918bf1f83664f7fd5e0bd0b5ff4" target="_top" xlink:title=" ">
<polygon fill="white" stroke="black" points="461.5,-518.669 461.5,-548.669 570.5,-548.669 570.5,-518.669 461.5,-518.669"/>
<text text-anchor="start" x="469.5" y="-536.669" font-family="Helvetica,sans-Serif" font-size="10.00">openage::Player::can</text>
<text text-anchor="middle" x="516" y="-525.669" font-family="Helvetica,sans-Serif" font-size="10.00">_deduct</text>
</a>
</g>
</g>
<!-- Node44&#45;&gt;Node46 -->
<g id="edge9" class="edge"><title>Node44&#45;&gt;Node46</title>
<path fill="none" stroke="midnightblue" d="M882.345,-337.194C871.597,-377.518 840.926,-469.649 777,-510.669 714.929,-550.498 626.697,-548.981 570.654,-542.591"/>
<polygon fill="midnightblue" stroke="midnightblue" points="885.741,-338.043 884.809,-327.489 878.956,-336.32 885.741,-338.043"/>
</g>
<!-- Node47 -->
<g id="node4" class="node"><title>Node47</title>
<g id="a_node4"><a xlink:href="classopenage_1_1_player.xhtml#a086e4dcf2bccd69fa8d48541c54c1768" target="_top" xlink:title=" ">
<polygon fill="white" stroke="black" points="461.5,-392.669 461.5,-422.669 570.5,-422.669 570.5,-392.669 461.5,-392.669"/>
<text text-anchor="start" x="469.5" y="-410.669" font-family="Helvetica,sans-Serif" font-size="10.00">openage::Player::can</text>
<text text-anchor="middle" x="516" y="-399.669" font-family="Helvetica,sans-Serif" font-size="10.00">_receive</text>
</a>
</g>
</g>
<!-- Node44&#45;&gt;Node47 -->
<g id="edge10" class="edge"><title>Node44&#45;&gt;Node47</title>
<path fill="none" stroke="midnightblue" d="M874.319,-335.514C856.023,-359.537 819.692,-401.164 777,-417.669 709.482,-443.772 624.613,-433.277 570.573,-421.774"/>
<polygon fill="midnightblue" stroke="midnightblue" points="877.292,-337.38 880.423,-327.259 871.664,-333.218 877.292,-337.38"/>
</g>
<!-- Node50 -->
<g id="node7" class="node"><title>Node50</title>
<g id="a_node7"><a xlink:href="classopenage_1_1_market.xhtml#a2d93c032e00528978844815b3f139260" target="_top" xlink:title="The given player buys the given resource with gold.">
<polygon fill="white" stroke="black" points="0,-215.169 0,-234.169 111,-234.169 111,-215.169 0,-215.169"/>
<text text-anchor="middle" x="55.5" y="-222.169" font-family="Helvetica,sans-Serif" font-size="10.00">openage::Market::buy</text>
</a>
</g>
</g>
<!-- Node44&#45;&gt;Node50 -->
<g id="edge8" class="edge"><title>Node44&#45;&gt;Node50</title>
<path fill="none" stroke="midnightblue" d="M883.76,-337.303C875.259,-382.027 847.867,-491.545 777,-542.669 682.44,-610.885 633.598,-577.669 517,-577.669 517,-577.669 517,-577.669 357,-577.669 171.486,-577.669 76.4259,-291.491 59.3287,-234.479"/>
<polygon fill="midnightblue" stroke="midnightblue" points="887.216,-337.864 885.53,-327.404 880.325,-336.632 887.216,-337.864"/>
</g>
<!-- Node51 -->
<g id="node8" class="node"><title>Node51</title>
<g id="a_node8"><a xlink:href="classopenage_1_1_market.xhtml#a7980df34ceedf0e878373284d61093ae" target="_top" xlink:title="The given player sells the given resource for gold.">
<polygon fill="white" stroke="black" points="0.5,-177.169 0.5,-196.169 110.5,-196.169 110.5,-177.169 0.5,-177.169"/>
<text text-anchor="middle" x="55.5" y="-184.169" font-family="Helvetica,sans-Serif" font-size="10.00">openage::Market::sell</text>
</a>
</g>
</g>
<!-- Node44&#45;&gt;Node51 -->
<g id="edge25" class="edge"><title>Node44&#45;&gt;Node51</title>
<path fill="none" stroke="midnightblue" d="M886.062,-298.02C882.386,-245.433 864.409,-101.114 777,-36.6689 683.743,32.0878 632.864,-17.6689 517,-17.6689 517,-17.6689 517,-17.6689 357,-17.6689 260.954,-17.6689 227.476,-16.2431 147,-68.6689 103.303,-97.1351 72.2182,-154.147 61.0487,-176.933"/>
<polygon fill="midnightblue" stroke="midnightblue" points="882.571,-298.273 886.662,-308.046 889.558,-297.855 882.571,-298.273"/>
</g>
<!-- Node52 -->
<g id="node9" class="node"><title>Node52</title>
<g id="a_node9"><a xlink:href="classopenage_1_1_resource_bundle.xhtml#a03b246717e5e1cdda55af218b77b9266" target="_top" xlink:title=" ">
<polygon fill="white" stroke="black" points="623.5,-368.169 623.5,-387.169 775.5,-387.169 775.5,-368.169 623.5,-368.169"/>
<text text-anchor="middle" x="699.5" y="-375.169" font-family="Helvetica,sans-Serif" font-size="10.00">openage::ResourceBundle::has</text>
</a>
</g>
</g>
<!-- Node44&#45;&gt;Node52 -->
<g id="edge11" class="edge"><title>Node44&#45;&gt;Node52</title>
<path fill="none" stroke="midnightblue" d="M854.259,-330.984C832.558,-339.533 803.339,-350.518 777,-358.669 765.888,-362.108 753.721,-365.357 742.425,-368.165"/>
<polygon fill="midnightblue" stroke="midnightblue" points="855.662,-334.193 863.663,-327.247 853.077,-327.688 855.662,-334.193"/>
</g>
<!-- Node53 -->
<g id="node10" class="node"><title>Node53</title>
<g id="a_node10"><a xlink:href="classopenage_1_1_resource_bundle.xhtml#aa3e1dfb21fe065f769a21a13f667984b" target="_top" xlink:title=" ">
<polygon fill="white" stroke="black" points="450.5,-343.669 450.5,-373.669 581.5,-373.669 581.5,-343.669 450.5,-343.669"/>
<text text-anchor="start" x="458.5" y="-361.669" font-family="Helvetica,sans-Serif" font-size="10.00">openage::ResourceBundle</text>
<text text-anchor="middle" x="516" y="-350.669" font-family="Helvetica,sans-Serif" font-size="10.00">::limit</text>
</a>
</g>
</g>
<!-- Node44&#45;&gt;Node53 -->
<g id="edge12" class="edge"><title>Node44&#45;&gt;Node53</title>
<path fill="none" stroke="midnightblue" d="M870.539,-334.707C850.541,-354.055 814.768,-384.512 777,-396.669 711.425,-417.777 689.708,-409.371 622,-396.669 605.127,-393.504 602.11,-388.601 586,-382.669 578.026,-379.733 569.499,-376.689 561.256,-373.796"/>
<polygon fill="midnightblue" stroke="midnightblue" points="873.245,-336.951 877.87,-327.419 868.31,-331.987 873.245,-336.951"/>
</g>
<!-- Node58 -->
<g id="node15" class="node"><title>Node58</title>
<g id="a_node15"><a xlink:href="classopenage_1_1_resource_bundle.xhtml#ab24e1b8ab616d226477816e87867b31c" target="_top" xlink:title=" ">
<polygon fill="white" stroke="black" points="634,-280.669 634,-310.669 765,-310.669 765,-280.669 634,-280.669"/>
<text text-anchor="start" x="642" y="-298.669" font-family="Helvetica,sans-Serif" font-size="10.00">openage::ResourceBundle</text>
<text text-anchor="middle" x="699.5" y="-287.669" font-family="Helvetica,sans-Serif" font-size="10.00">::operator+=</text>
</a>
</g>
</g>
<!-- Node44&#45;&gt;Node58 -->
<g id="edge20" class="edge"><title>Node44&#45;&gt;Node58</title>
<path fill="none" stroke="midnightblue" d="M802.708,-307.726C790.1,-306.238 777.271,-304.725 765.155,-303.296"/>
<polygon fill="midnightblue" stroke="midnightblue" points="802.413,-311.215 812.754,-308.911 803.233,-304.263 802.413,-311.215"/>
</g>
<!-- Node59 -->
<g id="node16" class="node"><title>Node59</title>
<g id="a_node16"><a xlink:href="classopenage_1_1_resource_bundle.xhtml#a51a3b5d9d8aa585e4cfa608b210b3bb7" target="_top" xlink:title=" ">
<polygon fill="white" stroke="black" points="634,-231.669 634,-261.669 765,-261.669 765,-231.669 634,-231.669"/>
<text text-anchor="start" x="642" y="-249.669" font-family="Helvetica,sans-Serif" font-size="10.00">openage::ResourceBundle</text>
<text text-anchor="middle" x="699.5" y="-238.669" font-family="Helvetica,sans-Serif" font-size="10.00">::operator&#45;=</text>
</a>
</g>
</g>
<!-- Node44&#45;&gt;Node59 -->
<g id="edge21" class="edge"><title>Node44&#45;&gt;Node59</title>
<path fill="none" stroke="midnightblue" d="M857.033,-303.905C835.098,-294.066 804.49,-280.825 777,-270.669 768.644,-267.582 759.684,-264.538 750.945,-261.709"/>
<polygon fill="midnightblue" stroke="midnightblue" points="855.609,-307.102 866.163,-308.028 858.49,-300.722 855.609,-307.102"/>
</g>
<!-- Node60 -->
<g id="node17" class="node"><title>Node60</title>
<g id="a_node17"><a xlink:href="classopenage_1_1_resource_bundle.xhtml#ac99801ab1a730da1a79d8a5af724883d" target="_top" xlink:title=" ">
<polygon fill="white" stroke="black" points="634,-182.669 634,-212.669 765,-212.669 765,-182.669 634,-182.669"/>
<text text-anchor="start" x="642" y="-200.669" font-family="Helvetica,sans-Serif" font-size="10.00">openage::ResourceBundle</text>
<text text-anchor="middle" x="699.5" y="-189.669" font-family="Helvetica,sans-Serif" font-size="10.00">::operator&gt;</text>
</a>
</g>
</g>
<!-- Node44&#45;&gt;Node60 -->
<g id="edge22" class="edge"><title>Node44&#45;&gt;Node60</title>
<path fill="none" stroke="midnightblue" d="M871.578,-300.383C851.678,-279.053 815.066,-243 777,-221.669 770.929,-218.267 764.31,-215.278 757.591,-212.671"/>
<polygon fill="midnightblue" stroke="midnightblue" points="869.248,-303.021 878.584,-308.03 874.41,-298.292 869.248,-303.021"/>
</g>
<!-- Node61 -->
<g id="node18" class="node"><title>Node61</title>
<g id="a_node18"><a xlink:href="classopenage_1_1_resource_bundle.xhtml#a3e0e5c5058ae2c4c849046e742f4dbfc" target="_top" xlink:title=" ">
<polygon fill="white" stroke="black" points="634,-133.669 634,-163.669 765,-163.669 765,-133.669 634,-133.669"/>
<text text-anchor="start" x="642" y="-151.669" font-family="Helvetica,sans-Serif" font-size="10.00">openage::ResourceBundle</text>
<text text-anchor="middle" x="699.5" y="-140.669" font-family="Helvetica,sans-Serif" font-size="10.00">::operator&gt;=</text>
</a>
</g>
</g>
<!-- Node44&#45;&gt;Node61 -->
<g id="edge23" class="edge"><title>Node44&#45;&gt;Node61</title>
<path fill="none" stroke="midnightblue" d="M877.601,-298.645C861.35,-267.687 825.068,-206.473 777,-172.669 772.104,-169.226 766.695,-166.262 761.082,-163.714"/>
<polygon fill="midnightblue" stroke="midnightblue" points="874.665,-300.59 882.333,-307.901 880.898,-297.404 874.665,-300.59"/>
</g>
<!-- Node62 -->
<g id="node19" class="node"><title>Node62</title>
<g id="a_node19"><a xlink:href="classopenage_1_1_resource_bundle.xhtml#af55bef2ec5af88dfb6c15c3986f1713d" target="_top" xlink:title="Round each value to the nearest integer.">
<polygon fill="white" stroke="black" points="634,-84.6689 634,-114.669 765,-114.669 765,-84.6689 634,-84.6689"/>
<text text-anchor="start" x="642" y="-102.669" font-family="Helvetica,sans-Serif" font-size="10.00">openage::ResourceBundle</text>
<text text-anchor="middle" x="699.5" y="-91.6689" font-family="Helvetica,sans-Serif" font-size="10.00">::round</text>
</a>
</g>
</g>
<!-- Node44&#45;&gt;Node62 -->
<g id="edge24" class="edge"><title>Node44&#45;&gt;Node62</title>
<path fill="none" stroke="midnightblue" d="M881.359,-298.32C869.019,-259.39 835.914,-171.261 777,-123.669 772.777,-120.258 768.065,-117.329 763.112,-114.814"/>
<polygon fill="midnightblue" stroke="midnightblue" points="878.024,-299.381 884.294,-307.921 884.718,-297.335 878.024,-299.381"/>
</g>
<!-- Node63 -->
<g id="node20" class="node"><title>Node63</title>
<g id="a_node20"><a xlink:href="classopenage_1_1_resource_bundle.xhtml#abcf791052fb02e45b61749da6346f03d" target="_top" xlink:title=" ">
<polygon fill="white" stroke="black" points="624.5,-330.169 624.5,-349.169 774.5,-349.169 774.5,-330.169 624.5,-330.169"/>
<text text-anchor="middle" x="699.5" y="-337.169" font-family="Helvetica,sans-Serif" font-size="10.00">openage::ResourceBundle::set</text>
</a>
</g>
</g>
<!-- Node44&#45;&gt;Node63 -->
<g id="edge26" class="edge"><title>Node44&#45;&gt;Node63</title>
<path fill="none" stroke="midnightblue" d="M802.715,-327.611C793.403,-328.71 783.971,-329.822 774.795,-330.905"/>
<polygon fill="midnightblue" stroke="midnightblue" points="803.233,-331.075 812.754,-326.427 802.413,-324.123 803.233,-331.075"/>
</g>
<!-- Node65 -->
<g id="node22" class="node"><title>Node65</title>
<g id="a_node22"><a xlink:href="classopenage_1_1_resource_bundle.xhtml#a76ff3bbdb074f255cd4b2a80d82e2a00" target="_top" xlink:title="Returns the sum of all the resources.">
<polygon fill="white" stroke="black" points="622,-46.1689 622,-65.1689 777,-65.1689 777,-46.1689 622,-46.1689"/>
<text text-anchor="middle" x="699.5" y="-53.1689" font-family="Helvetica,sans-Serif" font-size="10.00">openage::ResourceBundle::sum</text>
</a>
</g>
</g>
<!-- Node44&#45;&gt;Node65 -->
<g id="edge28" class="edge"><title>Node44&#45;&gt;Node65</title>
<path fill="none" stroke="midnightblue" d="M884.014,-298.006C875.894,-251.593 848.985,-134.637 777,-74.6689 772.374,-70.8149 767.078,-67.7244 761.479,-65.2489"/>
<polygon fill="midnightblue" stroke="midnightblue" points="880.577,-298.677 885.654,-307.976 887.484,-297.54 880.577,-298.677"/>
</g>
<!-- Node45&#45;&gt;Node46 -->
<g id="edge2" class="edge"><title>Node45&#45;&gt;Node46</title>
<path fill="none" stroke="midnightblue" d="M647.375,-503.5C623.469,-509.031 594.999,-515.62 570.771,-521.226"/>
<polygon fill="midnightblue" stroke="midnightblue" points="648.361,-506.864 657.315,-501.199 646.783,-500.044 648.361,-506.864"/>
</g>
<!-- Node45&#45;&gt;Node47 -->
<g id="edge3" class="edge"><title>Node45&#45;&gt;Node47</title>
<path fill="none" stroke="midnightblue" d="M647.998,-478.915C639.082,-475.805 630.076,-472.074 622,-467.669 603.716,-457.695 603.729,-448.598 586,-437.669 576.993,-432.117 566.778,-427.075 557.021,-422.776"/>
<polygon fill="midnightblue" stroke="midnightblue" points="646.997,-482.27 657.59,-482.049 649.172,-475.617 646.997,-482.27"/>
</g>
<!-- Node48 -->
<g id="node5" class="node"><title>Node48</title>
<g id="a_node5"><a xlink:href="classopenage_1_1_player.xhtml#ae9e08a13015f842a55b37413c179dc4e" target="_top" xlink:title=" ">
<polygon fill="white" stroke="black" points="455,-480.169 455,-499.169 577,-499.169 577,-480.169 455,-480.169"/>
<text text-anchor="middle" x="516" y="-487.169" font-family="Helvetica,sans-Serif" font-size="10.00">openage::Player::deduct</text>
</a>
</g>
</g>
<!-- Node45&#45;&gt;Node48 -->
<g id="edge4" class="edge"><title>Node45&#45;&gt;Node48</title>
<path fill="none" stroke="midnightblue" d="M626.738,-490.878C610.368,-490.698 593.135,-490.508 577.3,-490.333"/>
<polygon fill="midnightblue" stroke="midnightblue" points="626.761,-494.379 636.799,-490.989 626.838,-487.379 626.761,-494.379"/>
</g>
<!-- Node49 -->
<g id="node6" class="node"><title>Node49</title>
<g id="a_node6"><a xlink:href="classopenage_1_1_player.xhtml#a728983ff63d9e16ecc874a942c61fa22" target="_top" xlink:title="add to stockpile">
<polygon fill="white" stroke="black" points="147,-215.169 147,-234.169 270,-234.169 270,-215.169 147,-215.169"/>
<text text-anchor="middle" x="208.5" y="-222.169" font-family="Helvetica,sans-Serif" font-size="10.00">openage::Player::receive</text>
</a>
</g>
</g>
<!-- Node45&#45;&gt;Node49 -->
<g id="edge5" class="edge"><title>Node45&#45;&gt;Node49</title>
<path fill="none" stroke="midnightblue" d="M635.419,-480.284C571.84,-468.172 478.595,-448.479 446,-431.669 341.249,-377.647 244.898,-267.421 217.345,-234.294"/>
<polygon fill="midnightblue" stroke="midnightblue" points="634.878,-483.744 645.354,-482.161 636.178,-476.866 634.878,-483.744"/>
</g>
<!-- Node49&#45;&gt;Node50 -->
<g id="edge6" class="edge"><title>Node49&#45;&gt;Node50</title>
<path fill="none" stroke="midnightblue" d="M136.89,-224.669C128.261,-224.669 119.547,-224.669 111.201,-224.669"/>
<polygon fill="midnightblue" stroke="midnightblue" points="136.953,-228.169 146.953,-224.669 136.953,-221.169 136.953,-228.169"/>
</g>
<!-- Node49&#45;&gt;Node51 -->
<g id="edge7" class="edge"><title>Node49&#45;&gt;Node51</title>
<path fill="none" stroke="midnightblue" d="M159.657,-212.629C138.561,-207.32 114.123,-201.17 94.3297,-196.189"/>
<polygon fill="midnightblue" stroke="midnightblue" points="158.844,-216.034 169.396,-215.08 160.553,-209.245 158.844,-216.034"/>
</g>
<!-- Node54 -->
<g id="node11" class="node"><title>Node54</title>
<g id="a_node11"><a xlink:href="classopenage_1_1_player.xhtml#a2a7b7334922d4cdf68236f8684cbfe38" target="_top" xlink:title="Called when the resources amounts change.">
<polygon fill="white" stroke="black" points="306,-166.669 306,-196.669 410,-196.669 410,-166.669 306,-166.669"/>
<text text-anchor="start" x="314" y="-184.669" font-family="Helvetica,sans-Serif" font-size="10.00">openage::Player::on</text>
<text text-anchor="middle" x="358" y="-173.669" font-family="Helvetica,sans-Serif" font-size="10.00">_resources_change</text>
</a>
</g>
</g>
<!-- Node53&#45;&gt;Node54 -->
<g id="edge13" class="edge"><title>Node53&#45;&gt;Node54</title>
<path fill="none" stroke="midnightblue" d="M452.352,-338.406C450.133,-336.932 448.005,-335.355 446,-333.669 400.624,-295.505 373.897,-227.289 363.736,-196.946"/>
<polygon fill="midnightblue" stroke="midnightblue" points="450.882,-341.6 461.287,-343.595 454.397,-335.546 450.882,-341.6"/>
</g>
<!-- Node54&#45;&gt;Node49 -->
<g id="edge19" class="edge"><title>Node54&#45;&gt;Node49</title>
<path fill="none" stroke="midnightblue" d="M296.004,-199.451C277.538,-204.834 257.972,-210.538 242.128,-215.157"/>
<polygon fill="midnightblue" stroke="midnightblue" points="297.205,-202.746 305.826,-196.588 295.246,-196.026 297.205,-202.746"/>
</g>
<!-- Node55 -->
<g id="node12" class="node"><title>Node55</title>
<g id="a_node12"><a xlink:href="classopenage_1_1_player.xhtml#a69c98ddc434aed6aceec5dbb4931f064" target="_top" xlink:title="Called when a unit is created and active.">
<polygon fill="white" stroke="black" points="149.5,-127.669 149.5,-157.669 267.5,-157.669 267.5,-127.669 149.5,-127.669"/>
<text text-anchor="start" x="157.5" y="-145.669" font-family="Helvetica,sans-Serif" font-size="10.00">openage::Player::active</text>
<text text-anchor="middle" x="208.5" y="-134.669" font-family="Helvetica,sans-Serif" font-size="10.00">_unit_added</text>
</a>
</g>
</g>
<!-- Node54&#45;&gt;Node55 -->
<g id="edge14" class="edge"><title>Node54&#45;&gt;Node55</title>
<path fill="none" stroke="midnightblue" d="M296.119,-165.571C286.279,-162.97 276.125,-160.285 266.385,-157.71"/>
<polygon fill="midnightblue" stroke="midnightblue" points="295.263,-168.965 305.826,-168.138 297.053,-162.198 295.263,-168.965"/>
</g>
<!-- Node56 -->
<g id="node13" class="node"><title>Node56</title>
<g id="a_node13"><a xlink:href="classopenage_1_1_player.xhtml#ad3f9e5b486a9d6b07402596e3eabca82" target="_top" xlink:title="Called when a unit is destroyed.">
<polygon fill="white" stroke="black" points="149.5,-78.6689 149.5,-108.669 267.5,-108.669 267.5,-78.6689 149.5,-78.6689"/>
<text text-anchor="start" x="157.5" y="-96.6689" font-family="Helvetica,sans-Serif" font-size="10.00">openage::Player::active</text>
<text text-anchor="middle" x="208.5" y="-85.6689" font-family="Helvetica,sans-Serif" font-size="10.00">_unit_removed</text>
</a>
</g>
</g>
<!-- Node54&#45;&gt;Node56 -->
<g id="edge15" class="edge"><title>Node54&#45;&gt;Node56</title>
<path fill="none" stroke="midnightblue" d="M331.096,-159.866C314.391,-146.518 291.789,-129.741 270,-117.669 264.168,-114.438 257.811,-111.421 251.481,-108.692"/>
<polygon fill="midnightblue" stroke="midnightblue" points="329.288,-162.907 339.258,-166.491 333.699,-157.471 329.288,-162.907"/>
</g>
<!-- Node57 -->
<g id="node14" class="node"><title>Node57</title>
<g id="a_node14"><a xlink:href="classopenage_1_1_player.xhtml#a3ff378e505d9036c74204730b53d9fba" target="_top" xlink:title="remove from stockpile if available">
<polygon fill="white" stroke="black" points="147.5,-177.169 147.5,-196.169 269.5,-196.169 269.5,-177.169 147.5,-177.169"/>
<text text-anchor="middle" x="208.5" y="-184.169" font-family="Helvetica,sans-Serif" font-size="10.00">openage::Player::deduct</text>
</a>
</g>
</g>
<!-- Node54&#45;&gt;Node57 -->
<g id="edge16" class="edge"><title>Node54&#45;&gt;Node57</title>
<path fill="none" stroke="midnightblue" d="M295.829,-183.742C287.196,-184.035 278.325,-184.336 269.71,-184.628"/>
<polygon fill="midnightblue" stroke="midnightblue" points="295.95,-187.241 305.826,-183.404 295.713,-180.245 295.95,-187.241"/>
</g>
<!-- Node57&#45;&gt;Node50 -->
<g id="edge17" class="edge"><title>Node57&#45;&gt;Node50</title>
<path fill="none" stroke="midnightblue" d="M159.657,-198.709C138.561,-204.018 114.123,-210.168 94.3297,-215.149"/>
<polygon fill="midnightblue" stroke="midnightblue" points="160.553,-202.093 169.396,-196.258 158.844,-195.304 160.553,-202.093"/>
</g>
<!-- Node57&#45;&gt;Node51 -->
<g id="edge18" class="edge"><title>Node57&#45;&gt;Node51</title>
<path fill="none" stroke="midnightblue" d="M137.304,-186.669C128.312,-186.669 119.219,-186.669 110.538,-186.669"/>
<polygon fill="midnightblue" stroke="midnightblue" points="137.387,-190.169 147.387,-186.669 137.387,-183.169 137.387,-190.169"/>
</g>
<!-- Node64 -->
<g id="node21" class="node"><title>Node64</title>
<g id="a_node21"><a xlink:href="classopenage_1_1_resource_cost.xhtml#a3eefe52413dfb71d8a1bef9a5705f78e" target="_top" xlink:title=" ">
<polygon fill="white" stroke="black" points="446,-305.169 446,-324.169 586,-324.169 586,-305.169 446,-305.169"/>
<text text-anchor="middle" x="516" y="-312.169" font-family="Helvetica,sans-Serif" font-size="10.00">openage::ResourceCost::set</text>
</a>
</g>
</g>
<!-- Node63&#45;&gt;Node64 -->
<g id="edge27" class="edge"><title>Node63&#45;&gt;Node64</title>
<path fill="none" stroke="midnightblue" d="M619.33,-328.764C608.311,-327.246 597.061,-325.697 586.243,-324.207"/>
<polygon fill="midnightblue" stroke="midnightblue" points="618.981,-332.249 629.365,-330.146 619.936,-325.314 618.981,-332.249"/>
</g>
<!-- Node65&#45;&gt;Node55 -->
<g id="edge29" class="edge"><title>Node65&#45;&gt;Node55</title>
<path fill="none" stroke="midnightblue" d="M641.867,-67.9397C635.087,-69.9333 628.33,-72.1751 622,-74.6689 604.97,-81.3775 603.392,-88.9643 586,-94.6689 477.369,-130.301 343.049,-139.682 267.757,-142.029"/>
<polygon fill="midnightblue" stroke="midnightblue" points="643.065,-71.2395 651.767,-65.196 641.196,-64.4937 643.065,-71.2395"/>
</g>
<!-- Node65&#45;&gt;Node56 -->
<g id="edge30" class="edge"><title>Node65&#45;&gt;Node56</title>
<path fill="none" stroke="midnightblue" d="M639.726,-66.9283C622.473,-69.8717 603.53,-72.7529 586,-74.6689 473.771,-86.9353 341.84,-91.2977 267.716,-92.8384"/>
<polygon fill="midnightblue" stroke="midnightblue" points="640.416,-70.3609 649.666,-65.1949 639.213,-63.465 640.416,-70.3609"/>
</g>
<!-- Node66 -->
<g id="node23" class="node"><title>Node66</title>
<g id="a_node23"><a xlink:href="classopenage_1_1_player.xhtml#a2d3f269dc4b0acd1972e4d0a32f97c2f" target="_top" xlink:title="Called when a unit is killed by this player.">
<polygon fill="white" stroke="black" points="447.5,-46.1689 447.5,-65.1689 584.5,-65.1689 584.5,-46.1689 447.5,-46.1689"/>
<text text-anchor="middle" x="516" y="-53.1689" font-family="Helvetica,sans-Serif" font-size="10.00">openage::Player::killed_unit</text>
</a>
</g>
</g>
<!-- Node65&#45;&gt;Node66 -->
<g id="edge31" class="edge"><title>Node65&#45;&gt;Node66</title>
<path fill="none" stroke="midnightblue" d="M611.571,-55.6689C602.483,-55.6689 593.344,-55.6689 584.519,-55.6689"/>
<polygon fill="midnightblue" stroke="midnightblue" points="611.791,-59.169 621.791,-55.6689 611.791,-52.169 611.791,-59.169"/>
</g>
<!-- Node67 -->
<g id="node24" class="node"><title>Node67</title>
<g id="a_node24"><a xlink:href="classopenage_1_1_score.xhtml#a692b0ccf6ec945e3cb5e8540b6b9abc6" target="_top" xlink:title="Updates resource based sub&#45;scores.">
<polygon fill="white" stroke="black" points="456,-165.669 456,-195.669 576,-195.669 576,-165.669 456,-165.669"/>
<text text-anchor="start" x="464" y="-183.669" font-family="Helvetica,sans-Serif" font-size="10.00">openage::Score::update</text>
<text text-anchor="middle" x="516" y="-172.669" font-family="Helvetica,sans-Serif" font-size="10.00">_resources</text>
</a>
</g>
</g>
<!-- Node65&#45;&gt;Node67 -->
<g id="edge32" class="edge"><title>Node65&#45;&gt;Node67</title>
<path fill="none" stroke="midnightblue" d="M628.64,-70.0146C626.318,-71.4261 624.094,-72.9733 622,-74.6689 593.578,-97.6873 612.1,-123.048 586,-148.669 579.027,-155.514 570.32,-161.076 561.463,-165.524"/>
<polygon fill="midnightblue" stroke="midnightblue" points="630.707,-72.8882 638.013,-65.2154 627.517,-66.6574 630.707,-72.8882"/>
</g>
<!-- Node67&#45;&gt;Node54 -->
<g id="edge33" class="edge"><title>Node67&#45;&gt;Node54</title>
<path fill="none" stroke="midnightblue" d="M445.273,-181.116C433.44,-181.192 421.35,-181.269 410.109,-181.341"/>
<polygon fill="midnightblue" stroke="midnightblue" points="445.601,-184.614 455.578,-181.05 445.556,-177.614 445.601,-184.614"/>
</g>
</g>
</svg>
        <g id="navigator" transform="translate(0 0)" fill="#404254">
                <rect fill="#f2f5e9" fill-opacity="0.5" stroke="#606060" stroke-width=".5" x="0" y="0" width="60" height="60"/>
                <use id="zoomplus" xlink:href="#zoomPlus" x="17" y="9" onmousedown="handleZoom(evt,'in')"/>
                <use id="zoomminus" xlink:href="#zoomMin" x="42" y="9" onmousedown="handleZoom(evt,'out')"/>
                <use id="reset" xlink:href="#resetDef" x="30" y="36" onmousedown="handleReset()"/>
                <g id="arrowUp" xlink:href="#dirArrow" transform="translate(30 24)" onmousedown="handlePan(0,-1)">
                  <use xlink:href="#rim" fill="#404040">
                        <set attributeName="fill" to="#808080" begin="arrowUp.mouseover" end="arrowUp.mouseout"/>
                  </use>
                  <path fill="none" stroke="white" stroke-width="1.5" d="M0,-3.0v7 M-2.5,-0.5L0,-3.0L2.5,-0.5"/>
                </g>
                <g id="arrowRight" xlink:href="#dirArrow" transform="rotate(90) translate(36 -43)" onmousedown="handlePan(1,0)">
                  <use xlink:href="#rim" fill="#404040">
                        <set attributeName="fill" to="#808080" begin="arrowRight.mouseover" end="arrowRight.mouseout"/>
                  </use>
                  <path fill="none" stroke="white" stroke-width="1.5" d="M0,-3.0v7 M-2.5,-0.5L0,-3.0L2.5,-0.5"/>
                </g>
                <g id="arrowDown" xlink:href="#dirArrow" transform="rotate(180) translate(-30 -48)" onmousedown="handlePan(0,1)">
                  <use xlink:href="#rim" fill="#404040">
                        <set attributeName="fill" to="#808080" begin="arrowDown.mouseover" end="arrowDown.mouseout"/>
                  </use>
                  <path fill="none" stroke="white" stroke-width="1.5" d="M0,-3.0v7 M-2.5,-0.5L0,-3.0L2.5,-0.5"/>
                </g>
                <g id="arrowLeft" xlink:href="#dirArrow" transform="rotate(270) translate(-36 17)" onmousedown="handlePan(-1,0)">
                  <use xlink:href="#rim" fill="#404040">
                        <set attributeName="fill" to="#808080" begin="arrowLeft.mouseover" end="arrowLeft.mouseout"/>
                  </use>
                  <path fill="none" stroke="white" stroke-width="1.5" d="M0,-3.0v7 M-2.5,-0.5L0,-3.0L2.5,-0.5"/>
                </g>
        </g>
        <svg viewBox="0 0 15 15" width="100%" height="30px" preserveAspectRatio="xMaxYMin meet">
         <g id="arrow_out" transform="scale(0.3 0.3)">
          <a xlink:href="classopenage_1_1_resource_bundle_a85c59861409e505a3c5fb020a73ef1c2_icgraph_org.svg" target="_base">
           <rect id="button" ry="5" rx="5" y="6" x="6" height="38" width="38"
                fill="#f2f5e9" fill-opacity="0.5" stroke="#606060" stroke-width="1.0"/>
           <path id="arrow"
             d="M 11.500037,31.436501 C 11.940474,20.09759 22.043105,11.32322 32.158766,21.979434 L 37.068811,17.246167 C 37.068811,17.246167 37.088388,32 37.088388,32 L 22.160133,31.978069 C 22.160133,31.978069 26.997745,27.140456 26.997745,27.140456 C 18.528582,18.264221 13.291696,25.230495 11.500037,31.436501 z"
             style="fill:#404040;"/>
          </a>
         </g>
        </svg>
</svg>
