<?xml version="1.0" encoding="UTF-8" standalone="no"?>
<!DOCTYPE svg PUBLIC "-//W3C//DTD SVG 1.1//EN"
 "http://www.w3.org/Graphics/SVG/1.1/DTD/svg11.dtd">
<!-- Generated by graphviz version 2.38.0 (20140413.2041)
 -->
<!-- Title: openage::pyinterface::PyObjectRef::eval Pages: 1 -->
<svg width="267pt" height="88pt"
 viewBox="0.00 0.00 267.00 88.00" xmlns="http://www.w3.org/2000/svg" xmlns:xlink="http://www.w3.org/1999/xlink">
<g id="graph0" class="graph" transform="scale(1 1) rotate(0) translate(4 84)">
<title>openage::pyinterface::PyObjectRef::eval</title>
<polygon fill="white" stroke="none" points="-4,4 -4,-84 263,-84 263,4 -4,4"/>
<!-- Node51 -->
<g id="node1" class="node"><title>Node51</title>
<g id="a_node1"><a xlink:title="eval(expression, obj)">
<polygon fill="#bfbfbf" stroke="black" points="152,-24.5 152,-54.5 259,-54.5 259,-24.5 152,-24.5"/>
<text text-anchor="start" x="160" y="-42.5" font-family="Helvetica,sans-Serif" font-size="10.00">openage::pyinterface</text>
<text text-anchor="middle" x="205.5" y="-31.5" font-family="Helvetica,sans-Serif" font-size="10.00">::PyObjectRef::eval</text>
</a>
</g>
</g>
<!-- Node52 -->
<g id="node2" class="node"><title>Node52</title>
<g id="a_node2"><a xlink:href="namespaceopenage_1_1pyinterface_1_1tests.xhtml#ad69d94519ba25682897d8da53beb86df" target="_top" xlink:title=" ">
<polygon fill="white" stroke="black" points="4.5,-49.5 4.5,-79.5 111.5,-79.5 111.5,-49.5 4.5,-49.5"/>
<text text-anchor="start" x="12.5" y="-67.5" font-family="Helvetica,sans-Serif" font-size="10.00">openage::pyinterface</text>
<text text-anchor="middle" x="58" y="-56.5" font-family="Helvetica,sans-Serif" font-size="10.00">::tests::pyobject</text>
</a>
</g>
</g>
<!-- Node51&#45;&gt;Node52 -->
<g id="edge1" class="edge"><title>Node51&#45;&gt;Node52</title>
<path fill="none" stroke="midnightblue" d="M142.056,-50.2292C132.023,-51.9531 121.723,-53.7228 111.94,-55.4037"/>
<polygon fill="midnightblue" stroke="midnightblue" points="142.708,-53.6685 151.971,-48.5256 141.523,-46.7696 142.708,-53.6685"/>
</g>
<!-- Node53 -->
<g id="node3" class="node"><title>Node53</title>
<g id="a_node3"><a xlink:href="namespaceopenage_1_1pyinterface_1_1tests.xhtml#a0f930d1710b53aa90f3e05e85aa5d544" target="_top" xlink:title=" ">
<polygon fill="white" stroke="black" points="0,-0.5 0,-30.5 116,-30.5 116,-0.5 0,-0.5"/>
<text text-anchor="start" x="8" y="-18.5" font-family="Helvetica,sans-Serif" font-size="10.00">openage::pyinterface</text>
<text text-anchor="middle" x="58" y="-7.5" font-family="Helvetica,sans-Serif" font-size="10.00">::tests::pyobject_demo</text>
</a>
</g>
</g>
<!-- Node51&#45;&gt;Node53 -->
<g id="edge2" class="edge"><title>Node51&#45;&gt;Node53</title>
<path fill="none" stroke="midnightblue" d="M142.072,-29.2026C133.539,-27.795 124.812,-26.3556 116.375,-24.9639"/>
<polygon fill="midnightblue" stroke="midnightblue" points="141.535,-32.6612 151.971,-30.8354 142.674,-25.7545 141.535,-32.6612"/>
</g>
</g>
</svg>
