<?xml version="1.0" encoding="UTF-8" standalone="no"?>
<!DOCTYPE svg PUBLIC "-//W3C//DTD SVG 1.1//EN"
 "http://www.w3.org/Graphics/SVG/1.1/DTD/svg11.dtd">
<!-- Generated by graphviz version 2.38.0 (20140413.2041)
 -->
<!-- Title: openage::event::demo::PongBall::child_changes Pages: 1 -->
<svg width="476pt" height="66pt"
 viewBox="0.00 0.00 476.00 66.00" xmlns="http://www.w3.org/2000/svg" xmlns:xlink="http://www.w3.org/1999/xlink">
<g id="graph0" class="graph" transform="scale(1 1) rotate(0) translate(4 62)">
<title>openage::event::demo::PongBall::child_changes</title>
<polygon fill="white" stroke="none" points="-4,4 -4,-62 472,-62 472,4 -4,4"/>
<!-- Node2 -->
<g id="node1" class="node"><title>Node2</title>
<g id="a_node1"><a xlink:title=" ">
<polygon fill="#bfbfbf" stroke="black" points="0,-14 0,-44 130,-44 130,-14 0,-14"/>
<text text-anchor="start" x="8" y="-32" font-family="Helvetica,sans-Serif" font-size="10.00">openage::event::demo</text>
<text text-anchor="middle" x="65" y="-21" font-family="Helvetica,sans-Serif" font-size="10.00">::PongBall::child_changes</text>
</a>
</g>
</g>
<!-- Node3 -->
<g id="node2" class="node"><title>Node3</title>
<g id="a_node2"><a xlink:href="namespaceopenage_1_1convert_1_1changelog.xhtml#aacfbef73c68f07a70b75e8a01b4d0f99" target="_top" xlink:title="return all changed components since the passed version number.">
<polygon fill="white" stroke="black" points="166,-19.5 166,-38.5 340,-38.5 340,-19.5 166,-19.5"/>
<text text-anchor="middle" x="253" y="-26.5" font-family="Helvetica,sans-Serif" font-size="10.00">openage.convert.changelog.changes</text>
</a>
</g>
</g>
<!-- Node2&#45;&gt;Node3 -->
<g id="edge1" class="edge"><title>Node2&#45;&gt;Node3</title>
<path fill="none" stroke="midnightblue" d="M130.011,-29C138.319,-29 146.97,-29 155.66,-29"/>
<polygon fill="midnightblue" stroke="midnightblue" points="155.861,-32.5001 165.861,-29 155.861,-25.5001 155.861,-32.5001"/>
</g>
<!-- Node4 -->
<g id="node3" class="node"><title>Node4</title>
<g id="a_node3"><a xlink:href="namespaceopenage_1_1log.xhtml#a3f1815b698faf5786fc5e20bcac7704b" target="_top" xlink:title="info message">
<polygon fill="white" stroke="black" points="378.5,-38.5 378.5,-57.5 465.5,-57.5 465.5,-38.5 378.5,-38.5"/>
<text text-anchor="middle" x="422" y="-45.5" font-family="Helvetica,sans-Serif" font-size="10.00">openage.log.info</text>
</a>
</g>
</g>
<!-- Node3&#45;&gt;Node4 -->
<g id="edge2" class="edge"><title>Node3&#45;&gt;Node4</title>
<path fill="none" stroke="midnightblue" d="M337.989,-38.5557C348.249,-39.7229 358.498,-40.889 368.119,-41.9836"/>
<polygon fill="midnightblue" stroke="midnightblue" points="367.95,-45.4868 378.281,-43.1398 368.741,-38.5317 367.95,-45.4868"/>
</g>
<!-- Node5 -->
<g id="node4" class="node"><title>Node5</title>
<g id="a_node4"><a xlink:href="namespaceopenage_1_1log.xhtml#a7ca418e1b1fcf210ff91cd25dc8e6a36" target="_top" xlink:title="warning message">
<polygon fill="white" stroke="black" points="376,-0.5 376,-19.5 468,-19.5 468,-0.5 376,-0.5"/>
<text text-anchor="middle" x="422" y="-7.5" font-family="Helvetica,sans-Serif" font-size="10.00">openage.log.warn</text>
</a>
</g>
</g>
<!-- Node3&#45;&gt;Node5 -->
<g id="edge3" class="edge"><title>Node3&#45;&gt;Node5</title>
<path fill="none" stroke="midnightblue" d="M337.989,-19.4443C347.33,-18.3816 356.662,-17.3198 365.519,-16.3122"/>
<polygon fill="midnightblue" stroke="midnightblue" points="366.13,-19.7654 375.67,-15.1573 365.338,-12.8103 366.13,-19.7654"/>
</g>
</g>
</svg>
