<?xml version="1.0" encoding="UTF-8" standalone="no"?>
<!DOCTYPE svg PUBLIC "-//W3C//DTD SVG 1.1//EN"
 "http://www.w3.org/Graphics/SVG/1.1/DTD/svg11.dtd">
<!-- Generated by graphviz version 2.38.0 (20140413.2041)
 -->
<!-- Title: openage.convert.dataformat.members.EnumMember.get_parsers Pages: 1 -->
<svg width="787pt" height="78pt"
 viewBox="0.00 0.00 787.00 77.50" xmlns="http://www.w3.org/2000/svg" xmlns:xlink="http://www.w3.org/1999/xlink">
<g id="graph0" class="graph" transform="scale(1 1) rotate(0) translate(4 73.5)">
<title>openage.convert.dataformat.members.EnumMember.get_parsers</title>
<polygon fill="white" stroke="none" points="-4,4 -4,-73.5 783,-73.5 783,4 -4,4"/>
<!-- Node10 -->
<g id="node1" class="node"><title>Node10</title>
<g id="a_node1"><a xlink:title=" ">
<polygon fill="#bfbfbf" stroke="black" points="0,-17 0,-47 182,-47 182,-17 0,-17"/>
<text text-anchor="start" x="8" y="-35" font-family="Helvetica,sans-Serif" font-size="10.00">openage.convert.dataformat.members.</text>
<text text-anchor="middle" x="91" y="-24" font-family="Helvetica,sans-Serif" font-size="10.00">EnumMember.get_parsers</text>
</a>
</g>
</g>
<!-- Node11 -->
<g id="node2" class="node"><title>Node11</title>
<g id="a_node2"><a xlink:href="namespaceopenage_1_1convert_1_1dataformat_1_1util.xhtml#a5e3a7c5e8aeddbd762f9a158f9bc5aab" target="_top" xlink:title=" ">
<polygon fill="white" stroke="black" points="218,-39 218,-69 415,-69 415,-39 218,-39"/>
<text text-anchor="start" x="226" y="-57" font-family="Helvetica,sans-Serif" font-size="10.00">openage.convert.dataformat.util.determine</text>
<text text-anchor="middle" x="316.5" y="-46" font-family="Helvetica,sans-Serif" font-size="10.00">_headers</text>
</a>
</g>
</g>
<!-- Node10&#45;&gt;Node11 -->
<g id="edge1" class="edge"><title>Node10&#45;&gt;Node11</title>
<path fill="none" stroke="midnightblue" d="M182.262,-40.8848C190.708,-41.7163 199.325,-42.5644 207.909,-43.4094"/>
<polygon fill="midnightblue" stroke="midnightblue" points="207.664,-46.9021 217.959,-44.3986 208.35,-39.9357 207.664,-46.9021"/>
</g>
<!-- Node13 -->
<g id="node4" class="node"><title>Node13</title>
<g id="a_node4"><a xlink:href="namespaceopenage_1_1py.xhtml#a58cbca251b8e2118e0a6b9b0b78a7b32" target="_top" xlink:title=" ">
<polygon fill="white" stroke="black" points="272,-0.5 272,-19.5 361,-19.5 361,-0.5 272,-0.5"/>
<text text-anchor="middle" x="316.5" y="-7.5" font-family="Helvetica,sans-Serif" font-size="10.00">openage::py::list</text>
</a>
</g>
</g>
<!-- Node10&#45;&gt;Node13 -->
<g id="edge3" class="edge"><title>Node10&#45;&gt;Node13</title>
<path fill="none" stroke="midnightblue" d="M182.262,-23.1152C209.173,-20.4662 237.812,-17.6471 261.614,-15.3042"/>
<polygon fill="midnightblue" stroke="midnightblue" points="262.233,-18.7603 271.842,-14.2974 261.547,-11.7939 262.233,-18.7603"/>
</g>
<!-- Node12 -->
<g id="node3" class="node"><title>Node12</title>
<g id="a_node3"><a xlink:href="namespaceopenage_1_1convert_1_1dataformat_1_1util.xhtml#abe9d9997e55017fa14737a7603afadba" target="_top" xlink:title="returns the includable headers for using the given C type.">
<polygon fill="white" stroke="black" points="451,-39 451,-69 648,-69 648,-39 451,-39"/>
<text text-anchor="start" x="459" y="-57" font-family="Helvetica,sans-Serif" font-size="10.00">openage.convert.dataformat.util.determine</text>
<text text-anchor="middle" x="549.5" y="-46" font-family="Helvetica,sans-Serif" font-size="10.00">_header</text>
</a>
</g>
</g>
<!-- Node11&#45;&gt;Node12 -->
<g id="edge2" class="edge"><title>Node11&#45;&gt;Node12</title>
<path fill="none" stroke="midnightblue" d="M415.13,-54C423.626,-54 432.255,-54 440.826,-54"/>
<polygon fill="midnightblue" stroke="midnightblue" points="440.849,-57.5001 450.849,-54 440.849,-50.5001 440.849,-57.5001"/>
</g>
<!-- Node14 -->
<g id="node5" class="node"><title>Node14</title>
<g id="a_node5"><a xlink:href="namespaceopenage_1_1testing_1_1testing.xhtml#ac25bf81db406af62d08113ef7ae9fd6e" target="_top" xlink:title=" ">
<polygon fill="white" stroke="black" points="477,-0.5 477,-19.5 622,-19.5 622,-0.5 477,-0.5"/>
<text text-anchor="middle" x="549.5" y="-7.5" font-family="Helvetica,sans-Serif" font-size="10.00">openage.testing.testing.result</text>
</a>
</g>
</g>
<!-- Node13&#45;&gt;Node14 -->
<g id="edge4" class="edge"><title>Node13&#45;&gt;Node14</title>
<path fill="none" stroke="midnightblue" d="M361.221,-10C390.864,-10 430.958,-10 466.442,-10"/>
<polygon fill="midnightblue" stroke="midnightblue" points="466.802,-13.5001 476.802,-10 466.802,-6.5001 466.802,-13.5001"/>
</g>
<!-- Node15 -->
<g id="node6" class="node"><title>Node15</title>
<g id="a_node6"><a xlink:href="namespaceopenage_1_1util.xhtml#a7bc4421a5f0f57f3a0aba3f96eb8d19c" target="_top" xlink:title=" ">
<polygon fill="white" stroke="black" points="684,-0.5 684,-19.5 779,-19.5 779,-0.5 684,-0.5"/>
<text text-anchor="middle" x="731.5" y="-7.5" font-family="Helvetica,sans-Serif" font-size="10.00">openage::util::repr</text>
</a>
</g>
</g>
<!-- Node14&#45;&gt;Node15 -->
<g id="edge5" class="edge"><title>Node14&#45;&gt;Node15</title>
<path fill="none" stroke="midnightblue" d="M622.158,-3.37617C639.208,-3.13863 657.174,-3.2365 673.468,-3.66978"/>
<polygon fill="midnightblue" stroke="midnightblue" points="673.801,-7.18209 683.908,-4.00279 674.024,-0.18565 673.801,-7.18209"/>
</g>
<!-- Node15&#45;&gt;Node14 -->
<g id="edge6" class="edge"><title>Node15&#45;&gt;Node14</title>
<path fill="none" stroke="midnightblue" d="M683.908,-15.9972C668.177,-16.5885 650.12,-16.8314 632.477,-16.7261"/>
<polygon fill="midnightblue" stroke="midnightblue" points="632.192,-13.2232 622.158,-16.6238 632.123,-20.2229 632.192,-13.2232"/>
</g>
</g>
</svg>
