<?xml version="1.0" encoding="UTF-8" standalone="no"?>
<!DOCTYPE svg PUBLIC "-//W3C//DTD SVG 1.1//EN"
 "http://www.w3.org/Graphics/SVG/1.1/DTD/svg11.dtd">
<!-- Generated by graphviz version 2.38.0 (20140413.2041)
 -->
<!-- Title: openage::gui::GuiImageProviderLink Pages: 1 -->
<!--zoomable 701 -->
<svg id="main" version="1.1" xmlns="http://www.w3.org/2000/svg" xmlns:xlink="http://www.w3.org/1999/xlink" xml:space="preserve" onload="init(evt)">
<style type="text/css"><![CDATA[
.edge:hover path { stroke: red; }
.edge:hover polygon { stroke: red; fill: red; }
]]></style>
<script type="text/javascript"><![CDATA[
var edges = document.getElementsByTagName('g');
if (edges && edges.length) {
  for (var i=0;i<edges.length;i++) {
    if (edges[i].id.substr(0,4)=='edge') {
      edges[i].setAttribute('class','edge');
    }
  }
}
]]></script>
        <defs>
                <circle id="rim" cx="0" cy="0" r="7"/>
                <circle id="rim2" cx="0" cy="0" r="3.5"/>
                <g id="zoomPlus">
                        <use xlink:href="#rim" fill="#404040">
                                <set attributeName="fill" to="#808080" begin="zoomplus.mouseover" end="zoomplus.mouseout"/>
                        </use>
                        <path d="M-4,0h8M0,-4v8" fill="none" stroke="white" stroke-width="1.5" pointer-events="none"/>
                </g>
                <g id="zoomMin">
                        <use xlink:href="#rim" fill="#404040">
                                <set attributeName="fill" to="#808080" begin="zoomminus.mouseover" end="zoomminus.mouseout"/>
                        </use>
                        <path d="M-4,0h8" fill="none" stroke="white" stroke-width="1.5" pointer-events="none"/>
                </g>
                <g id="dirArrow">
                        <path fill="none" stroke="white" stroke-width="1.5" d="M0,-3.0v7 M-2.5,-0.5L0,-3.0L2.5,-0.5"/>
                </g>
               <g id="resetDef">
                       <use xlink:href="#rim2" fill="#404040">
                               <set attributeName="fill" to="#808080" begin="reset.mouseover" end="reset.mouseout"/>
                       </use>
               </g>
        </defs>

<script type="text/javascript">
var viewWidth = 337;
var viewHeight = 701;
var sectionId = 'dynsection-1';
</script>
<script xlink:href="svgpan.js"/>
<svg id="graph" class="graph">
<g id="viewport">
<title>openage::gui::GuiImageProviderLink</title>
<polygon fill="white" stroke="none" points="-4,4 -4,-697 332.5,-697 332.5,4 -4,4"/>
<!-- Node2 -->
<g id="node1" class="node"><title>Node2</title>
<g id="a_node1"><a xlink:title=" ">
<polygon fill="#bfbfbf" stroke="black" points="0,-0.5 0,-156.5 172,-156.5 172,-0.5 0,-0.5"/>
<text text-anchor="middle" x="86" y="-144.5" font-family="Helvetica,sans-Serif" font-size="10.00">openage::gui::GuiImageProviderLink</text>
<polyline fill="none" stroke="black" points="0,-137.5 172,-137.5 "/>
<text text-anchor="start" x="8" y="-125.5" font-family="Helvetica,sans-Serif" font-size="10.00">+ gameSpec</text>
<text text-anchor="start" x="8" y="-114.5" font-family="Helvetica,sans-Serif" font-size="10.00">&#45; game_spec</text>
<polyline fill="none" stroke="black" points="0,-107.5 172,-107.5 "/>
<text text-anchor="start" x="8" y="-95.5" font-family="Helvetica,sans-Serif" font-size="10.00">+ GuiImageProviderLink()</text>
<text text-anchor="start" x="8" y="-84.5" font-family="Helvetica,sans-Serif" font-size="10.00">+ ~GuiImageProviderLink()</text>
<text text-anchor="start" x="8" y="-73.5" font-family="Helvetica,sans-Serif" font-size="10.00">+ get_game_spec()</text>
<text text-anchor="start" x="8" y="-62.5" font-family="Helvetica,sans-Serif" font-size="10.00">+ set_game_spec()</text>
<text text-anchor="start" x="8" y="-51.5" font-family="Helvetica,sans-Serif" font-size="10.00">+ provider()</text>
<text text-anchor="start" x="8" y="-40.5" font-family="Helvetica,sans-Serif" font-size="10.00">+ provider_by_filename()</text>
<text text-anchor="start" x="8" y="-29.5" font-family="Helvetica,sans-Serif" font-size="10.00">+ provider_by_graphic_id()</text>
<text text-anchor="start" x="8" y="-18.5" font-family="Helvetica,sans-Serif" font-size="10.00">+ provider_by_terrain_id()</text>
<text text-anchor="start" x="8" y="-7.5" font-family="Helvetica,sans-Serif" font-size="10.00">&#45; on_game_spec_loaded()</text>
</a>
</g>
</g>
<!-- Node3 -->
<g id="node2" class="node"><title>Node3</title>
<g id="a_node2"><a xlink:title=" ">
<polygon fill="white" stroke="#bfbfbf" points="48.5,-635.5 48.5,-692.5 101.5,-692.5 101.5,-635.5 48.5,-635.5"/>
<text text-anchor="middle" x="75" y="-680.5" font-family="Helvetica,sans-Serif" font-size="10.00">QObject</text>
<polyline fill="none" stroke="#bfbfbf" points="48.5,-673.5 101.5,-673.5 "/>
<text text-anchor="middle" x="75" y="-661.5" font-family="Helvetica,sans-Serif" font-size="10.00"> </text>
<polyline fill="none" stroke="#bfbfbf" points="48.5,-654.5 101.5,-654.5 "/>
<text text-anchor="middle" x="75" y="-642.5" font-family="Helvetica,sans-Serif" font-size="10.00"> </text>
</a>
</g>
</g>
<!-- Node3&#45;&gt;Node2 -->
<g id="edge1" class="edge"><title>Node3&#45;&gt;Node2</title>
<path fill="none" stroke="midnightblue" d="M70.2285,-625.119C69.3019,-616.236 68.4724,-606.798 68,-598 58.6116,-423.141 55.4393,-378.66 68,-204 69.1044,-188.643 70.9656,-172.302 73.0831,-156.684"/>
<polygon fill="none" stroke="midnightblue" points="66.7673,-625.663 71.3453,-635.218 73.7249,-624.894 66.7673,-625.663"/>
</g>
<!-- Node7 -->
<g id="node6" class="node"><title>Node7</title>
<g id="a_node6"><a xlink:href="classqtsdl_1_1_gui_callback.xhtml" target="_top" xlink:title=" ">
<polygon fill="white" stroke="black" points="77,-502 77,-581 173,-581 173,-502 77,-502"/>
<text text-anchor="middle" x="125" y="-569" font-family="Helvetica,sans-Serif" font-size="10.00">qtsdl::GuiCallback</text>
<polyline fill="none" stroke="black" points="77,-562 173,-562 "/>
<text text-anchor="middle" x="125" y="-550" font-family="Helvetica,sans-Serif" font-size="10.00"> </text>
<polyline fill="none" stroke="black" points="77,-543 173,-543 "/>
<text text-anchor="start" x="85" y="-531" font-family="Helvetica,sans-Serif" font-size="10.00">+ GuiCallback()</text>
<text text-anchor="start" x="85" y="-520" font-family="Helvetica,sans-Serif" font-size="10.00">+ ~GuiCallback()</text>
<text text-anchor="start" x="85" y="-509" font-family="Helvetica,sans-Serif" font-size="10.00">+ process()</text>
</a>
</g>
</g>
<!-- Node3&#45;&gt;Node7 -->
<g id="edge6" class="edge"><title>Node3&#45;&gt;Node7</title>
<path fill="none" stroke="midnightblue" d="M90.3732,-625.951C96.2299,-611.836 102.919,-595.716 108.846,-581.432"/>
<polygon fill="none" stroke="midnightblue" points="87.0709,-624.777 86.471,-635.355 93.5364,-627.46 87.0709,-624.777"/>
</g>
<!-- Node4 -->
<g id="node3" class="node"><title>Node4</title>
<g id="a_node3"><a xlink:href="classopenage_1_1gui_1_1_gui_game_spec_image_provider_impl.xhtml" target="_top" xlink:title="Exposes game textures to the Qt.">
<polygon fill="white" stroke="black" points="77,-204.5 77,-437.5 257,-437.5 257,-204.5 77,-204.5"/>
<text text-anchor="start" x="85" y="-425.5" font-family="Helvetica,sans-Serif" font-size="10.00">openage::gui::GuiGameSpec</text>
<text text-anchor="middle" x="167" y="-414.5" font-family="Helvetica,sans-Serif" font-size="10.00">ImageProviderImpl</text>
<polyline fill="none" stroke="black" points="77,-407.5 257,-407.5 "/>
<text text-anchor="start" x="85" y="-395.5" font-family="Helvetica,sans-Serif" font-size="10.00"># loaded_game_spec</text>
<text text-anchor="start" x="85" y="-384.5" font-family="Helvetica,sans-Serif" font-size="10.00"># invalidated</text>
<text text-anchor="start" x="85" y="-373.5" font-family="Helvetica,sans-Serif" font-size="10.00">&#45; filled_handles</text>
<text text-anchor="start" x="85" y="-362.5" font-family="Helvetica,sans-Serif" font-size="10.00">&#45; loaded_game_spec_mutex</text>
<text text-anchor="start" x="85" y="-351.5" font-family="Helvetica,sans-Serif" font-size="10.00">&#45; loaded_game_spec_cond</text>
<text text-anchor="start" x="85" y="-340.5" font-family="Helvetica,sans-Serif" font-size="10.00">&#45; ended</text>
<polyline fill="none" stroke="black" points="77,-333.5 257,-333.5 "/>
<text text-anchor="start" x="85" y="-321.5" font-family="Helvetica,sans-Serif" font-size="10.00">+ GuiGameSpecImageProviderImpl()</text>
<text text-anchor="start" x="85" y="-310.5" font-family="Helvetica,sans-Serif" font-size="10.00">+ ~GuiGameSpecImageProviderImpl()</text>
<text text-anchor="start" x="85" y="-299.5" font-family="Helvetica,sans-Serif" font-size="10.00">+ on_game_spec_loaded()</text>
<text text-anchor="start" x="85" y="-288.5" font-family="Helvetica,sans-Serif" font-size="10.00">+ on_game_spec_invalidated()</text>
<text text-anchor="start" x="85" y="-277.5" font-family="Helvetica,sans-Serif" font-size="10.00">+ fill_texture_handle()</text>
<text text-anchor="start" x="85" y="-266.5" font-family="Helvetica,sans-Serif" font-size="10.00"># get_missing_texture()</text>
<text text-anchor="start" x="85" y="-255.5" font-family="Helvetica,sans-Serif" font-size="10.00">&#45; get_texture_handle()</text>
<text text-anchor="start" x="85" y="-244.5" font-family="Helvetica,sans-Serif" font-size="10.00">&#45; requestTexture()</text>
<text text-anchor="start" x="85" y="-233.5" font-family="Helvetica,sans-Serif" font-size="10.00">&#45; give_up()</text>
<text text-anchor="start" x="85" y="-222.5" font-family="Helvetica,sans-Serif" font-size="10.00">&#45; migrate_to_new_game_spec()</text>
<text text-anchor="start" x="85" y="-211.5" font-family="Helvetica,sans-Serif" font-size="10.00">&#45; overwrite_texture_handle()</text>
</a>
</g>
</g>
<!-- Node4&#45;&gt;Node2 -->
<g id="edge2" class="edge"><title>Node4&#45;&gt;Node2</title>
<path fill="none" stroke="#404040" d="M128.042,-204.329C123.969,-192.235 119.875,-180.08 115.925,-168.352"/>
<polygon fill="none" stroke="#404040" points="115.86,-168.158 110.154,-163.749 112.03,-156.786 117.736,-161.196 115.86,-168.158"/>
<text text-anchor="middle" x="157.5" y="-178" font-family="Helvetica,sans-Serif" font-size="10.00"> &#45;image_provider</text>
</g>
<!-- Node5 -->
<g id="node4" class="node"><title>Node5</title>
<g id="a_node4"><a xlink:href="classqtsdl_1_1_gui_image_provider_impl.xhtml" target="_top" xlink:title=" ">
<polygon fill="white" stroke="black" points="191.5,-485.5 191.5,-597.5 328.5,-597.5 328.5,-485.5 191.5,-485.5"/>
<text text-anchor="middle" x="260" y="-585.5" font-family="Helvetica,sans-Serif" font-size="10.00">qtsdl::GuiImageProviderImpl</text>
<polyline fill="none" stroke="black" points="191.5,-578.5 328.5,-578.5 "/>
<text text-anchor="middle" x="260" y="-566.5" font-family="Helvetica,sans-Serif" font-size="10.00"> </text>
<polyline fill="none" stroke="black" points="191.5,-559.5 328.5,-559.5 "/>
<text text-anchor="start" x="199.5" y="-547.5" font-family="Helvetica,sans-Serif" font-size="10.00">+ GuiImageProviderImpl()</text>
<text text-anchor="start" x="199.5" y="-536.5" font-family="Helvetica,sans-Serif" font-size="10.00">+ ~GuiImageProviderImpl()</text>
<text text-anchor="start" x="199.5" y="-525.5" font-family="Helvetica,sans-Serif" font-size="10.00">+ get_id()</text>
<text text-anchor="start" x="199.5" y="-514.5" font-family="Helvetica,sans-Serif" font-size="10.00">+ give_up()</text>
<text text-anchor="start" x="199.5" y="-503.5" font-family="Helvetica,sans-Serif" font-size="10.00">+ take_ownership()</text>
<text text-anchor="start" x="199.5" y="-492.5" font-family="Helvetica,sans-Serif" font-size="10.00">+ take_ownership()</text>
</a>
</g>
</g>
<!-- Node5&#45;&gt;Node4 -->
<g id="edge3" class="edge"><title>Node5&#45;&gt;Node4</title>
<path fill="none" stroke="midnightblue" d="M248.239,-475.493C246.415,-468.828 244.344,-462.225 242,-456 239.699,-449.887 237.151,-443.717 234.425,-437.557"/>
<polygon fill="none" stroke="midnightblue" points="244.869,-476.442 250.736,-485.264 251.651,-474.708 244.869,-476.442"/>
</g>
<!-- Node6 -->
<g id="node5" class="node"><title>Node6</title>
<g id="a_node5"><a xlink:title=" ">
<polygon fill="white" stroke="#bfbfbf" points="205,-635.5 205,-692.5 315,-692.5 315,-635.5 205,-635.5"/>
<text text-anchor="middle" x="260" y="-680.5" font-family="Helvetica,sans-Serif" font-size="10.00">QQuickImageProvider</text>
<polyline fill="none" stroke="#bfbfbf" points="205,-673.5 315,-673.5 "/>
<text text-anchor="middle" x="260" y="-661.5" font-family="Helvetica,sans-Serif" font-size="10.00"> </text>
<polyline fill="none" stroke="#bfbfbf" points="205,-654.5 315,-654.5 "/>
<text text-anchor="middle" x="260" y="-642.5" font-family="Helvetica,sans-Serif" font-size="10.00"> </text>
</a>
</g>
</g>
<!-- Node6&#45;&gt;Node5 -->
<g id="edge4" class="edge"><title>Node6&#45;&gt;Node5</title>
<path fill="none" stroke="midnightblue" d="M260,-625.109C260,-616.362 260,-606.883 260,-597.569"/>
<polygon fill="none" stroke="midnightblue" points="256.5,-625.355 260,-635.355 263.5,-625.355 256.5,-625.355"/>
</g>
<!-- Node7&#45;&gt;Node4 -->
<g id="edge5" class="edge"><title>Node7&#45;&gt;Node4</title>
<path fill="none" stroke="#404040" d="M128.637,-501.659C130.236,-487.263 132.36,-470.835 135,-456 135.384,-453.842 135.782,-451.667 136.191,-449.478"/>
<polygon fill="none" stroke="#404040" points="136.196,-449.451 133.416,-442.798 138.488,-437.672 141.269,-444.325 136.196,-449.451"/>
<text text-anchor="middle" x="188.5" y="-459" font-family="Helvetica,sans-Serif" font-size="10.00"> &#45;render_thread_callback</text>
</g>
</g>
</svg>
        <g id="navigator" transform="translate(0 0)" fill="#404254">
                <rect fill="#f2f5e9" fill-opacity="0.5" stroke="#606060" stroke-width=".5" x="0" y="0" width="60" height="60"/>
                <use id="zoomplus" xlink:href="#zoomPlus" x="17" y="9" onmousedown="handleZoom(evt,'in')"/>
                <use id="zoomminus" xlink:href="#zoomMin" x="42" y="9" onmousedown="handleZoom(evt,'out')"/>
                <use id="reset" xlink:href="#resetDef" x="30" y="36" onmousedown="handleReset()"/>
                <g id="arrowUp" xlink:href="#dirArrow" transform="translate(30 24)" onmousedown="handlePan(0,-1)">
                  <use xlink:href="#rim" fill="#404040">
                        <set attributeName="fill" to="#808080" begin="arrowUp.mouseover" end="arrowUp.mouseout"/>
                  </use>
                  <path fill="none" stroke="white" stroke-width="1.5" d="M0,-3.0v7 M-2.5,-0.5L0,-3.0L2.5,-0.5"/>
                </g>
                <g id="arrowRight" xlink:href="#dirArrow" transform="rotate(90) translate(36 -43)" onmousedown="handlePan(1,0)">
                  <use xlink:href="#rim" fill="#404040">
                        <set attributeName="fill" to="#808080" begin="arrowRight.mouseover" end="arrowRight.mouseout"/>
                  </use>
                  <path fill="none" stroke="white" stroke-width="1.5" d="M0,-3.0v7 M-2.5,-0.5L0,-3.0L2.5,-0.5"/>
                </g>
                <g id="arrowDown" xlink:href="#dirArrow" transform="rotate(180) translate(-30 -48)" onmousedown="handlePan(0,1)">
                  <use xlink:href="#rim" fill="#404040">
                        <set attributeName="fill" to="#808080" begin="arrowDown.mouseover" end="arrowDown.mouseout"/>
                  </use>
                  <path fill="none" stroke="white" stroke-width="1.5" d="M0,-3.0v7 M-2.5,-0.5L0,-3.0L2.5,-0.5"/>
                </g>
                <g id="arrowLeft" xlink:href="#dirArrow" transform="rotate(270) translate(-36 17)" onmousedown="handlePan(-1,0)">
                  <use xlink:href="#rim" fill="#404040">
                        <set attributeName="fill" to="#808080" begin="arrowLeft.mouseover" end="arrowLeft.mouseout"/>
                  </use>
                  <path fill="none" stroke="white" stroke-width="1.5" d="M0,-3.0v7 M-2.5,-0.5L0,-3.0L2.5,-0.5"/>
                </g>
        </g>
        <svg viewBox="0 0 15 15" width="100%" height="30px" preserveAspectRatio="xMaxYMin meet">
         <g id="arrow_out" transform="scale(0.3 0.3)">
          <a xlink:href="classopenage_1_1gui_1_1_gui_image_provider_link__coll__graph_org.svg" target="_base">
           <rect id="button" ry="5" rx="5" y="6" x="6" height="38" width="38"
                fill="#f2f5e9" fill-opacity="0.5" stroke="#606060" stroke-width="1.0"/>
           <path id="arrow"
             d="M 11.500037,31.436501 C 11.940474,20.09759 22.043105,11.32322 32.158766,21.979434 L 37.068811,17.246167 C 37.068811,17.246167 37.088388,32 37.088388,32 L 22.160133,31.978069 C 22.160133,31.978069 26.997745,27.140456 26.997745,27.140456 C 18.528582,18.264221 13.291696,25.230495 11.500037,31.436501 z"
             style="fill:#404040;"/>
          </a>
         </g>
        </svg>
</svg>
