<?xml version="1.0" encoding="UTF-8" standalone="no"?>
<!DOCTYPE svg PUBLIC "-//W3C//DTD SVG 1.1//EN"
 "http://www.w3.org/Graphics/SVG/1.1/DTD/svg11.dtd">
<!-- Generated by graphviz version 2.38.0 (20140413.2041)
 -->
<!-- Title: openage::TargetAction::get_target Pages: 1 -->
<svg width="267pt" height="39pt"
 viewBox="0.00 0.00 267.00 39.00" xmlns="http://www.w3.org/2000/svg" xmlns:xlink="http://www.w3.org/1999/xlink">
<g id="graph0" class="graph" transform="scale(1 1) rotate(0) translate(4 35)">
<title>openage::TargetAction::get_target</title>
<polygon fill="white" stroke="none" points="-4,4 -4,-35 263,-35 263,4 -4,4"/>
<!-- Node28 -->
<g id="node1" class="node"><title>Node28</title>
<g id="a_node1"><a xlink:title=" ">
<polygon fill="#bfbfbf" stroke="black" points="145,-0.5 145,-30.5 259,-30.5 259,-0.5 145,-0.5"/>
<text text-anchor="start" x="153" y="-18.5" font-family="Helvetica,sans-Serif" font-size="10.00">openage::TargetAction</text>
<text text-anchor="middle" x="202" y="-7.5" font-family="Helvetica,sans-Serif" font-size="10.00">::get_target</text>
</a>
</g>
</g>
<!-- Node29 -->
<g id="node2" class="node"><title>Node29</title>
<g id="a_node2"><a xlink:href="classopenage_1_1_build_action.xhtml#a9f64ee829cfb671065dcfc7c876c346e" target="_top" xlink:title=" ">
<polygon fill="white" stroke="black" points="0,-0.5 0,-30.5 109,-30.5 109,-0.5 0,-0.5"/>
<text text-anchor="start" x="8" y="-18.5" font-family="Helvetica,sans-Serif" font-size="10.00">openage::BuildAction</text>
<text text-anchor="middle" x="54.5" y="-7.5" font-family="Helvetica,sans-Serif" font-size="10.00">::on_completion</text>
</a>
</g>
</g>
<!-- Node28&#45;&gt;Node29 -->
<g id="edge1" class="edge"><title>Node28&#45;&gt;Node29</title>
<path fill="none" stroke="midnightblue" d="M134.502,-15.5C126.033,-15.5 117.449,-15.5 109.215,-15.5"/>
<polygon fill="midnightblue" stroke="midnightblue" points="134.746,-19.0001 144.746,-15.5 134.746,-12.0001 134.746,-19.0001"/>
</g>
</g>
</svg>
