<?xml version="1.0" encoding="UTF-8" standalone="no"?>
<!DOCTYPE svg PUBLIC "-//W3C//DTD SVG 1.1//EN"
 "http://www.w3.org/Graphics/SVG/1.1/DTD/svg11.dtd">
<!-- Generated by graphviz version 2.38.0 (20140413.2041)
 -->
<!-- Title: openage::gui::ActionsListModel::on_buttons_type_changed Pages: 1 -->
<svg width="827pt" height="242pt"
 viewBox="0.00 0.00 827.00 241.50" xmlns="http://www.w3.org/2000/svg" xmlns:xlink="http://www.w3.org/1999/xlink">
<g id="graph0" class="graph" transform="scale(1 1) rotate(0) translate(4 237.5)">
<title>openage::gui::ActionsListModel::on_buttons_type_changed</title>
<polygon fill="white" stroke="none" points="-4,4 -4,-237.5 823,-237.5 823,4 -4,4"/>
<!-- Node30 -->
<g id="node1" class="node"><title>Node30</title>
<g id="a_node1"><a xlink:title=" ">
<polygon fill="#bfbfbf" stroke="black" points="0,-99.5 0,-140.5 127,-140.5 127,-99.5 0,-99.5"/>
<text text-anchor="start" x="8" y="-128.5" font-family="Helvetica,sans-Serif" font-size="10.00">openage::gui::ActionsList</text>
<text text-anchor="start" x="8" y="-117.5" font-family="Helvetica,sans-Serif" font-size="10.00">Model::on_buttons_type</text>
<text text-anchor="middle" x="63.5" y="-106.5" font-family="Helvetica,sans-Serif" font-size="10.00">_changed</text>
</a>
</g>
</g>
<!-- Node31 -->
<g id="node2" class="node"><title>Node31</title>
<g id="a_node2"><a xlink:href="classopenage_1_1gui_1_1_actions_list_model.xhtml#a916eb7b63f0daf57e3d90eedf0690200" target="_top" xlink:title=" ">
<polygon fill="white" stroke="black" points="163,-105 163,-135 293,-135 293,-105 163,-105"/>
<text text-anchor="start" x="171" y="-123" font-family="Helvetica,sans-Serif" font-size="10.00">openage::gui::ActionsList</text>
<text text-anchor="middle" x="228" y="-112" font-family="Helvetica,sans-Serif" font-size="10.00">Model::set_active_buttons</text>
</a>
</g>
</g>
<!-- Node30&#45;&gt;Node31 -->
<g id="edge1" class="edge"><title>Node30&#45;&gt;Node31</title>
<path fill="none" stroke="midnightblue" d="M127.327,-120C135.645,-120 144.234,-120 152.722,-120"/>
<polygon fill="midnightblue" stroke="midnightblue" points="152.999,-123.5 162.999,-120 152.999,-116.5 152.999,-123.5"/>
</g>
<!-- Node32 -->
<g id="node3" class="node"><title>Node32</title>
<g id="a_node3"><a xlink:href="classopenage_1_1gui_1_1_actions_list_model.xhtml#a6b430f1462ad2aeb117adca82132267a" target="_top" xlink:title="Clears all buttons.">
<polygon fill="white" stroke="black" points="329,-203 329,-233 456,-233 456,-203 329,-203"/>
<text text-anchor="start" x="337" y="-221" font-family="Helvetica,sans-Serif" font-size="10.00">openage::gui::ActionsList</text>
<text text-anchor="middle" x="392.5" y="-210" font-family="Helvetica,sans-Serif" font-size="10.00">Model::clear_buttons</text>
</a>
</g>
</g>
<!-- Node31&#45;&gt;Node32 -->
<g id="edge2" class="edge"><title>Node31&#45;&gt;Node32</title>
<path fill="none" stroke="midnightblue" d="M246.431,-135.2C265.641,-151.384 297.947,-176.961 329,-194 332.047,-195.672 335.236,-197.281 338.491,-198.819"/>
<polygon fill="midnightblue" stroke="midnightblue" points="337.219,-202.084 347.777,-202.958 340.068,-195.69 337.219,-202.084"/>
</g>
<!-- Node33 -->
<g id="node4" class="node"><title>Node33</title>
<g id="a_node4"><a xlink:href="classopenage_1_1gui_1_1_actions_list_model.xhtml#a2cc5ee006c91a7441dad5b1cabd7dea0" target="_top" xlink:title=" ">
<polygon fill="white" stroke="black" points="329,-154 329,-184 456,-184 456,-154 329,-154"/>
<text text-anchor="start" x="337" y="-172" font-family="Helvetica,sans-Serif" font-size="10.00">openage::gui::ActionsList</text>
<text text-anchor="middle" x="392.5" y="-161" font-family="Helvetica,sans-Serif" font-size="10.00">Model::set_icons_source</text>
</a>
</g>
</g>
<!-- Node31&#45;&gt;Node33 -->
<g id="edge3" class="edge"><title>Node31&#45;&gt;Node33</title>
<path fill="none" stroke="midnightblue" d="M279.081,-135.101C295.686,-140.108 314.337,-145.732 331.604,-150.939"/>
<polygon fill="midnightblue" stroke="midnightblue" points="330.999,-154.412 341.584,-153.948 333.02,-147.71 330.999,-154.412"/>
</g>
<!-- Node34 -->
<g id="node5" class="node"><title>Node34</title>
<g id="a_node5"><a xlink:href="classopenage_1_1gui_1_1_actions_list_model.xhtml#afb65037ff7b6122307177e96d27637ab" target="_top" xlink:title="Shortcut to creating a QMap for a button.">
<polygon fill="white" stroke="black" points="329,-105 329,-135 456,-135 456,-105 329,-105"/>
<text text-anchor="start" x="337" y="-123" font-family="Helvetica,sans-Serif" font-size="10.00">openage::gui::ActionsList</text>
<text text-anchor="middle" x="392.5" y="-112" font-family="Helvetica,sans-Serif" font-size="10.00">Model::add_button</text>
</a>
</g>
</g>
<!-- Node31&#45;&gt;Node34 -->
<g id="edge4" class="edge"><title>Node31&#45;&gt;Node34</title>
<path fill="none" stroke="midnightblue" d="M293.224,-120C301.55,-120 310.124,-120 318.578,-120"/>
<polygon fill="midnightblue" stroke="midnightblue" points="318.804,-123.5 328.804,-120 318.804,-116.5 318.804,-123.5"/>
</g>
<!-- Node35 -->
<g id="node6" class="node"><title>Node35</title>
<g id="a_node6"><a xlink:href="namespaceopenage_1_1log.xhtml#a0eff614e7d6e818746700ed9d29e583f" target="_top" xlink:title="Convenience method that makes use of the &#39;general&#39; LogSource.">
<polygon fill="white" stroke="black" points="347,-66.5 347,-85.5 438,-85.5 438,-66.5 347,-66.5"/>
<text text-anchor="middle" x="392.5" y="-73.5" font-family="Helvetica,sans-Serif" font-size="10.00">openage::log::log</text>
</a>
</g>
</g>
<!-- Node31&#45;&gt;Node35 -->
<g id="edge5" class="edge"><title>Node31&#45;&gt;Node35</title>
<path fill="none" stroke="midnightblue" d="M284.469,-104.981C304.669,-99.5112 327.241,-93.3993 346.43,-88.2036"/>
<polygon fill="midnightblue" stroke="midnightblue" points="347.388,-91.5703 356.126,-85.5783 345.558,-84.8136 347.388,-91.5703"/>
</g>
<!-- Node41 -->
<g id="node12" class="node"><title>Node41</title>
<g id="a_node12"><a xlink:href="namespaceopenage_1_1log.xhtml#a7ca418e1b1fcf210ff91cd25dc8e6a36" target="_top" xlink:title="warning message">
<polygon fill="white" stroke="black" points="346.5,-28.5 346.5,-47.5 438.5,-47.5 438.5,-28.5 346.5,-28.5"/>
<text text-anchor="middle" x="392.5" y="-35.5" font-family="Helvetica,sans-Serif" font-size="10.00">openage.log.warn</text>
</a>
</g>
</g>
<!-- Node31&#45;&gt;Node41 -->
<g id="edge11" class="edge"><title>Node31&#45;&gt;Node41</title>
<path fill="none" stroke="midnightblue" d="M249.528,-104.762C269.121,-90.7887 299.886,-70.3048 329,-57 333.964,-54.7315 339.27,-52.6444 344.615,-50.7507"/>
<polygon fill="midnightblue" stroke="midnightblue" points="345.83,-54.0351 354.211,-47.5536 343.617,-47.394 345.83,-54.0351"/>
</g>
<!-- Node36 -->
<g id="node7" class="node"><title>Node36</title>
<g id="a_node7"><a xlink:href="namespaceopenage_1_1log.xhtml#a3fbb0c225d01e222648ec28a43507188" target="_top" xlink:title="Returns a reference to a general named log source, for use by log::log().">
<polygon fill="white" stroke="black" points="508.5,-83 508.5,-113 618.5,-113 618.5,-83 508.5,-83"/>
<text text-anchor="start" x="516.5" y="-101" font-family="Helvetica,sans-Serif" font-size="10.00">openage::log::general</text>
<text text-anchor="middle" x="563.5" y="-90" font-family="Helvetica,sans-Serif" font-size="10.00">_source</text>
</a>
</g>
</g>
<!-- Node35&#45;&gt;Node36 -->
<g id="edge6" class="edge"><title>Node35&#45;&gt;Node36</title>
<path fill="none" stroke="midnightblue" d="M438.345,-81.8378C456.749,-84.2336 478.399,-87.0519 498.421,-89.6583"/>
<polygon fill="midnightblue" stroke="midnightblue" points="498.038,-93.138 508.406,-90.9582 498.942,-86.1965 498.038,-93.138"/>
</g>
<!-- Node37 -->
<g id="node8" class="node"><title>Node37</title>
<g id="a_node8"><a xlink:href="classopenage_1_1log_1_1_log_source.xhtml#a5640099e20af4cd368c767dbcef3a1df" target="_top" xlink:title="Logs a message (get one via MSG(level)).">
<polygon fill="white" stroke="black" points="492,-44.5 492,-63.5 635,-63.5 635,-44.5 492,-44.5"/>
<text text-anchor="middle" x="563.5" y="-51.5" font-family="Helvetica,sans-Serif" font-size="10.00">openage::log::LogSource::log</text>
</a>
</g>
</g>
<!-- Node35&#45;&gt;Node37 -->
<g id="edge7" class="edge"><title>Node35&#45;&gt;Node37</title>
<path fill="none" stroke="midnightblue" d="M438.345,-70.1622C451.693,-68.4246 466.748,-66.4647 481.652,-64.5246"/>
<polygon fill="midnightblue" stroke="midnightblue" points="482.458,-67.9493 491.923,-63.1876 481.554,-61.0078 482.458,-67.9493"/>
</g>
<!-- Node38 -->
<g id="node9" class="node"><title>Node38</title>
<g id="a_node9"><a xlink:href="namespaceopenage_1_1log.xhtml#a3d2885be9c3a09b9ff7ee8764b2e5f39" target="_top" xlink:title="Returns a reference to the global stdout logsink object; Initializes the object if needed.">
<polygon fill="white" stroke="black" points="693,-88 693,-118 797,-118 797,-88 693,-88"/>
<text text-anchor="start" x="701" y="-106" font-family="Helvetica,sans-Serif" font-size="10.00">openage::log::global</text>
<text text-anchor="middle" x="745" y="-95" font-family="Helvetica,sans-Serif" font-size="10.00">_stdoutsink</text>
</a>
</g>
</g>
<!-- Node37&#45;&gt;Node38 -->
<g id="edge8" class="edge"><title>Node37&#45;&gt;Node38</title>
<path fill="none" stroke="midnightblue" d="M599.536,-63.564C623.265,-70.0416 655.246,-78.7718 683.085,-86.3714"/>
<polygon fill="midnightblue" stroke="midnightblue" points="682.17,-89.7497 692.739,-89.0067 684.014,-82.9968 682.17,-89.7497"/>
</g>
<!-- Node39 -->
<g id="node10" class="node"><title>Node39</title>
<g id="a_node10"><a xlink:href="classopenage_1_1log_1_1_log_sink_list.xhtml#a2d47416fab12651553b4b58c86fd6f84" target="_top" xlink:title=" ">
<polygon fill="white" stroke="black" points="680.5,-39 680.5,-69 809.5,-69 809.5,-39 680.5,-39"/>
<text text-anchor="start" x="688.5" y="-57" font-family="Helvetica,sans-Serif" font-size="10.00">openage::log::LogSinkList</text>
<text text-anchor="middle" x="745" y="-46" font-family="Helvetica,sans-Serif" font-size="10.00">::instance</text>
</a>
</g>
</g>
<!-- Node37&#45;&gt;Node39 -->
<g id="edge9" class="edge"><title>Node37&#45;&gt;Node39</title>
<path fill="none" stroke="midnightblue" d="M635.185,-54C646.719,-54 658.693,-54 670.297,-54"/>
<polygon fill="midnightblue" stroke="midnightblue" points="670.38,-57.5001 680.379,-54 670.379,-50.5001 670.38,-57.5001"/>
</g>
<!-- Node40 -->
<g id="node11" class="node"><title>Node40</title>
<g id="a_node11"><a xlink:href="classopenage_1_1log_1_1_log_sink_list.xhtml#a8456b84ab55e1fe151c51438c5bfebdd" target="_top" xlink:title=" ">
<polygon fill="white" stroke="black" points="671,-0.5 671,-19.5 819,-19.5 819,-0.5 671,-0.5"/>
<text text-anchor="middle" x="745" y="-7.5" font-family="Helvetica,sans-Serif" font-size="10.00">openage::log::LogSinkList::log</text>
</a>
</g>
</g>
<!-- Node37&#45;&gt;Node40 -->
<g id="edge10" class="edge"><title>Node37&#45;&gt;Node40</title>
<path fill="none" stroke="midnightblue" d="M603.449,-44.4527C630.382,-37.8508 666.415,-29.0181 695.253,-21.949"/>
<polygon fill="midnightblue" stroke="midnightblue" points="696.248,-25.3089 705.127,-19.5287 694.581,-18.5102 696.248,-25.3089"/>
</g>
</g>
</svg>
