<?xml version="1.0" encoding="UTF-8" standalone="no"?>
<!DOCTYPE svg PUBLIC "-//W3C//DTD SVG 1.1//EN"
 "http://www.w3.org/Graphics/SVG/1.1/DTD/svg11.dtd">
<!-- Generated by graphviz version 2.38.0 (20140413.2041)
 -->
<!-- Title: openage::pyinterface::PyObjectRef::get Pages: 1 -->
<svg width="427pt" height="78pt"
 viewBox="0.00 0.00 427.00 77.50" xmlns="http://www.w3.org/2000/svg" xmlns:xlink="http://www.w3.org/1999/xlink">
<g id="graph0" class="graph" transform="scale(1 1) rotate(0) translate(4 73.5)">
<title>openage::pyinterface::PyObjectRef::get</title>
<polygon fill="white" stroke="none" points="-4,4 -4,-73.5 423,-73.5 423,4 -4,4"/>
<!-- Node58 -->
<g id="node1" class="node"><title>Node58</title>
<g id="a_node1"><a xlink:title=" ">
<polygon fill="#bfbfbf" stroke="black" points="0,-17 0,-47 107,-47 107,-17 0,-17"/>
<text text-anchor="start" x="8" y="-35" font-family="Helvetica,sans-Serif" font-size="10.00">openage::pyinterface</text>
<text text-anchor="middle" x="53.5" y="-24" font-family="Helvetica,sans-Serif" font-size="10.00">::PyObjectRef::get</text>
</a>
</g>
</g>
<!-- Node59 -->
<g id="node2" class="node"><title>Node59</title>
<g id="a_node2"><a xlink:href="classopenage_1_1pyinterface_1_1_py_object_ref.xhtml#ac75d8f60c25c4a7570dcdf83b601d639" target="_top" xlink:title=" ">
<polygon fill="white" stroke="black" points="159,-39 159,-69 272,-69 272,-39 159,-39"/>
<text text-anchor="start" x="167" y="-57" font-family="Helvetica,sans-Serif" font-size="10.00">openage::pyinterface</text>
<text text-anchor="middle" x="215.5" y="-46" font-family="Helvetica,sans-Serif" font-size="10.00">::PyObjectRef::get_ref</text>
</a>
</g>
</g>
<!-- Node58&#45;&gt;Node59 -->
<g id="edge1" class="edge"><title>Node58&#45;&gt;Node59</title>
<path fill="none" stroke="midnightblue" d="M107.333,-39.2646C120.664,-41.0976 135.137,-43.0876 149.008,-44.9948"/>
<polygon fill="midnightblue" stroke="midnightblue" points="148.593,-48.4706 158.977,-46.3655 149.547,-41.5359 148.593,-48.4706"/>
</g>
<!-- Node60 -->
<g id="node3" class="node"><title>Node60</title>
<g id="a_node3"><a xlink:href="namespaceopenage_1_1testing_1_1testing.xhtml#ac25bf81db406af62d08113ef7ae9fd6e" target="_top" xlink:title=" ">
<polygon fill="white" stroke="black" points="143,-0.5 143,-19.5 288,-19.5 288,-0.5 143,-0.5"/>
<text text-anchor="middle" x="215.5" y="-7.5" font-family="Helvetica,sans-Serif" font-size="10.00">openage.testing.testing.result</text>
</a>
</g>
</g>
<!-- Node58&#45;&gt;Node60 -->
<g id="edge2" class="edge"><title>Node58&#45;&gt;Node60</title>
<path fill="none" stroke="midnightblue" d="M107.333,-24.7354C116.224,-23.513 125.622,-22.2207 135.011,-20.9297"/>
<polygon fill="midnightblue" stroke="midnightblue" points="135.741,-24.3623 145.171,-19.5327 134.788,-17.4276 135.741,-24.3623"/>
</g>
<!-- Node61 -->
<g id="node4" class="node"><title>Node61</title>
<g id="a_node4"><a xlink:href="namespaceopenage_1_1util.xhtml#a7bc4421a5f0f57f3a0aba3f96eb8d19c" target="_top" xlink:title=" ">
<polygon fill="white" stroke="black" points="324,-0.5 324,-19.5 419,-19.5 419,-0.5 324,-0.5"/>
<text text-anchor="middle" x="371.5" y="-7.5" font-family="Helvetica,sans-Serif" font-size="10.00">openage::util::repr</text>
</a>
</g>
</g>
<!-- Node60&#45;&gt;Node61 -->
<g id="edge3" class="edge"><title>Node60&#45;&gt;Node61</title>
<path fill="none" stroke="midnightblue" d="M288.09,-3.26483C296.595,-3.21813 305.189,-3.28172 313.453,-3.4556"/>
<polygon fill="midnightblue" stroke="midnightblue" points="313.622,-6.9614 323.713,-3.73483 313.812,0.0360109 313.622,-6.9614"/>
</g>
<!-- Node61&#45;&gt;Node60 -->
<g id="edge4" class="edge"><title>Node61&#45;&gt;Node60</title>
<path fill="none" stroke="midnightblue" d="M323.713,-16.2652C315.626,-16.5381 307.01,-16.6958 298.312,-16.7383"/>
<polygon fill="midnightblue" stroke="midnightblue" points="298.091,-13.2383 288.09,-16.7352 298.089,-20.2383 298.091,-13.2383"/>
</g>
</g>
</svg>
