<?xml version="1.0" encoding="UTF-8" standalone="no"?>
<!DOCTYPE svg PUBLIC "-//W3C//DTD SVG 1.1//EN"
 "http://www.w3.org/Graphics/SVG/1.1/DTD/svg11.dtd">
<!-- Generated by graphviz version 2.38.0 (20140413.2041)
 -->
<!-- Title: openage::event::EventQueue::enqueue_change Pages: 1 -->
<svg width="471pt" height="137pt"
 viewBox="0.00 0.00 471.00 137.00" xmlns="http://www.w3.org/2000/svg" xmlns:xlink="http://www.w3.org/1999/xlink">
<g id="graph0" class="graph" transform="scale(1 1) rotate(0) translate(4 133)">
<title>openage::event::EventQueue::enqueue_change</title>
<polygon fill="white" stroke="none" points="-4,4 -4,-133 467,-133 467,4 -4,4"/>
<!-- Node34 -->
<g id="node1" class="node"><title>Node34</title>
<g id="a_node1"><a xlink:title="An update to existing events has to be applied.">
<polygon fill="#bfbfbf" stroke="black" points="0,-49.5 0,-79.5 140,-79.5 140,-49.5 0,-49.5"/>
<text text-anchor="start" x="8" y="-67.5" font-family="Helvetica,sans-Serif" font-size="10.00">openage::event::EventQueue</text>
<text text-anchor="middle" x="70" y="-56.5" font-family="Helvetica,sans-Serif" font-size="10.00">::enqueue_change</text>
</a>
</g>
</g>
<!-- Node35 -->
<g id="node2" class="node"><title>Node35</title>
<g id="a_node2"><a xlink:href="classopenage_1_1event_1_1_event_store.xhtml#a4be75c01219e59abd20b9f906c8b7154" target="_top" xlink:title=" ">
<polygon fill="white" stroke="black" points="176,-98.5 176,-128.5 311,-128.5 311,-98.5 176,-98.5"/>
<text text-anchor="start" x="184" y="-116.5" font-family="Helvetica,sans-Serif" font-size="10.00">openage::event::EventStore</text>
<text text-anchor="middle" x="243.5" y="-105.5" font-family="Helvetica,sans-Serif" font-size="10.00">::contains</text>
</a>
</g>
</g>
<!-- Node34&#45;&gt;Node35 -->
<g id="edge1" class="edge"><title>Node34&#45;&gt;Node35</title>
<path fill="none" stroke="midnightblue" d="M123.855,-79.6014C141.625,-84.6785 161.616,-90.3902 180.052,-95.6577"/>
<polygon fill="midnightblue" stroke="midnightblue" points="179.243,-99.0665 189.819,-98.4484 181.166,-92.3358 179.243,-99.0665"/>
</g>
<!-- Node36 -->
<g id="node3" class="node"><title>Node36</title>
<g id="a_node3"><a xlink:href="classopenage_1_1event_1_1_event_store.xhtml#ae17679f5da2da238bc0f423befda3850" target="_top" xlink:title=" ">
<polygon fill="white" stroke="black" points="176,-49.5 176,-79.5 311,-79.5 311,-49.5 176,-49.5"/>
<text text-anchor="start" x="184" y="-67.5" font-family="Helvetica,sans-Serif" font-size="10.00">openage::event::EventStore</text>
<text text-anchor="middle" x="243.5" y="-56.5" font-family="Helvetica,sans-Serif" font-size="10.00">::push</text>
</a>
</g>
</g>
<!-- Node34&#45;&gt;Node36 -->
<g id="edge2" class="edge"><title>Node34&#45;&gt;Node36</title>
<path fill="none" stroke="midnightblue" d="M140.261,-64.5C148.589,-64.5 157.132,-64.5 165.56,-64.5"/>
<polygon fill="midnightblue" stroke="midnightblue" points="165.762,-68.0001 175.762,-64.5 165.762,-61.0001 165.762,-68.0001"/>
</g>
<!-- Node39 -->
<g id="node6" class="node"><title>Node39</title>
<g id="a_node6"><a xlink:href="classopenage_1_1event_1_1_event_store.xhtml#ae8a67463b44b369d9402186cf332e247" target="_top" xlink:title=" ">
<polygon fill="white" stroke="black" points="176,-0.5 176,-30.5 311,-30.5 311,-0.5 176,-0.5"/>
<text text-anchor="start" x="184" y="-18.5" font-family="Helvetica,sans-Serif" font-size="10.00">openage::event::EventStore</text>
<text text-anchor="middle" x="243.5" y="-7.5" font-family="Helvetica,sans-Serif" font-size="10.00">::update</text>
</a>
</g>
</g>
<!-- Node34&#45;&gt;Node39 -->
<g id="edge5" class="edge"><title>Node34&#45;&gt;Node39</title>
<path fill="none" stroke="midnightblue" d="M123.855,-49.3986C141.625,-44.3215 161.616,-38.6098 180.052,-33.3423"/>
<polygon fill="midnightblue" stroke="midnightblue" points="181.166,-36.6642 189.819,-30.5516 179.243,-29.9335 181.166,-36.6642"/>
</g>
<!-- Node37 -->
<g id="node4" class="node"><title>Node37</title>
<g id="a_node4"><a xlink:href="classopenage_1_1datastructure_1_1_pairing_heap.xhtml#a75e9e7602b59aeee47a2fd84a10c8f74" target="_top" xlink:title="adds the given item to the heap.">
<polygon fill="white" stroke="black" points="347,-98.5 347,-128.5 463,-128.5 463,-98.5 347,-98.5"/>
<text text-anchor="start" x="355" y="-116.5" font-family="Helvetica,sans-Serif" font-size="10.00">openage::datastructure</text>
<text text-anchor="middle" x="405" y="-105.5" font-family="Helvetica,sans-Serif" font-size="10.00">::PairingHeap::push</text>
</a>
</g>
</g>
<!-- Node36&#45;&gt;Node37 -->
<g id="edge3" class="edge"><title>Node36&#45;&gt;Node37</title>
<path fill="none" stroke="midnightblue" d="M293.657,-79.6014C309.955,-84.6083 328.262,-90.2324 345.21,-95.439"/>
<polygon fill="midnightblue" stroke="midnightblue" points="344.419,-98.8574 355.006,-98.4484 346.474,-92.166 344.419,-98.8574"/>
</g>
<!-- Node38 -->
<g id="node5" class="node"><title>Node38</title>
<g id="a_node5"><a xlink:href="classopenage_1_1datastructure_1_1_pairing_heap.xhtml#a45599db3b89b27ad5c53ca900a67df85" target="_top" xlink:title=" ">
<polygon fill="white" stroke="black" points="347,-49.5 347,-79.5 463,-79.5 463,-49.5 347,-49.5"/>
<text text-anchor="start" x="355" y="-67.5" font-family="Helvetica,sans-Serif" font-size="10.00">openage::datastructure</text>
<text text-anchor="middle" x="405" y="-56.5" font-family="Helvetica,sans-Serif" font-size="10.00">::PairingHeap::size</text>
</a>
</g>
</g>
<!-- Node36&#45;&gt;Node38 -->
<g id="edge4" class="edge"><title>Node36&#45;&gt;Node38</title>
<path fill="none" stroke="midnightblue" d="M311.218,-64.5C319.593,-64.5 328.166,-64.5 336.552,-64.5"/>
<polygon fill="midnightblue" stroke="midnightblue" points="336.663,-68.0001 346.663,-64.5 336.663,-61.0001 336.663,-68.0001"/>
</g>
<!-- Node40 -->
<g id="node7" class="node"><title>Node40</title>
<g id="a_node7"><a xlink:href="classopenage_1_1datastructure_1_1_pairing_heap.xhtml#aab81daeebac3d236ced4a85117483d76" target="_top" xlink:title="After a change, call this to reorganize the given node.">
<polygon fill="white" stroke="black" points="347,-0.5 347,-30.5 463,-30.5 463,-0.5 347,-0.5"/>
<text text-anchor="start" x="355" y="-18.5" font-family="Helvetica,sans-Serif" font-size="10.00">openage::datastructure</text>
<text text-anchor="middle" x="405" y="-7.5" font-family="Helvetica,sans-Serif" font-size="10.00">::PairingHeap::update</text>
</a>
</g>
</g>
<!-- Node39&#45;&gt;Node40 -->
<g id="edge6" class="edge"><title>Node39&#45;&gt;Node40</title>
<path fill="none" stroke="midnightblue" d="M311.218,-15.5C319.593,-15.5 328.166,-15.5 336.552,-15.5"/>
<polygon fill="midnightblue" stroke="midnightblue" points="336.663,-19.0001 346.663,-15.5 336.663,-12.0001 336.663,-19.0001"/>
</g>
</g>
</svg>
