<?xml version="1.0" encoding="UTF-8" standalone="no"?>
<!DOCTYPE svg PUBLIC "-//W3C//DTD SVG 1.1//EN"
 "http://www.w3.org/Graphics/SVG/1.1/DTD/svg11.dtd">
<!-- Generated by graphviz version 2.38.0 (20140413.2041)
 -->
<!-- Title: openage::util::FixedPoint::to_double Pages: 1 -->
<!--zoomable 629 -->
<svg id="main" version="1.1" xmlns="http://www.w3.org/2000/svg" xmlns:xlink="http://www.w3.org/1999/xlink" xml:space="preserve" onload="init(evt)">
<style type="text/css"><![CDATA[
.edge:hover path { stroke: red; }
.edge:hover polygon { stroke: red; fill: red; }
]]></style>
<script type="text/javascript"><![CDATA[
var edges = document.getElementsByTagName('g');
if (edges && edges.length) {
  for (var i=0;i<edges.length;i++) {
    if (edges[i].id.substr(0,4)=='edge') {
      edges[i].setAttribute('class','edge');
    }
  }
}
]]></script>
        <defs>
                <circle id="rim" cx="0" cy="0" r="7"/>
                <circle id="rim2" cx="0" cy="0" r="3.5"/>
                <g id="zoomPlus">
                        <use xlink:href="#rim" fill="#404040">
                                <set attributeName="fill" to="#808080" begin="zoomplus.mouseover" end="zoomplus.mouseout"/>
                        </use>
                        <path d="M-4,0h8M0,-4v8" fill="none" stroke="white" stroke-width="1.5" pointer-events="none"/>
                </g>
                <g id="zoomMin">
                        <use xlink:href="#rim" fill="#404040">
                                <set attributeName="fill" to="#808080" begin="zoomminus.mouseover" end="zoomminus.mouseout"/>
                        </use>
                        <path d="M-4,0h8" fill="none" stroke="white" stroke-width="1.5" pointer-events="none"/>
                </g>
                <g id="dirArrow">
                        <path fill="none" stroke="white" stroke-width="1.5" d="M0,-3.0v7 M-2.5,-0.5L0,-3.0L2.5,-0.5"/>
                </g>
               <g id="resetDef">
                       <use xlink:href="#rim2" fill="#404040">
                               <set attributeName="fill" to="#808080" begin="reset.mouseover" end="reset.mouseout"/>
                       </use>
               </g>
        </defs>

<script type="text/javascript">
var viewWidth = 932;
var viewHeight = 629;
var sectionId = 'dynsection-14';
</script>
<script xlink:href="svgpan.js"/>
<svg id="graph" class="graph">
<g id="viewport">
<title>openage::util::FixedPoint::to_double</title>
<polygon fill="white" stroke="none" points="-4,4 -4,-625 928,-625 928,4 -4,4"/>
<!-- Node284 -->
<g id="node1" class="node"><title>Node284</title>
<g id="a_node1"><a xlink:title="Converter to retrieve the number as double.">
<polygon fill="#bfbfbf" stroke="black" points="799,-306.5 799,-336.5 924,-336.5 924,-306.5 799,-306.5"/>
<text text-anchor="start" x="807" y="-324.5" font-family="Helvetica,sans-Serif" font-size="10.00">openage::util::FixedPoint</text>
<text text-anchor="middle" x="861.5" y="-313.5" font-family="Helvetica,sans-Serif" font-size="10.00">::to_double</text>
</a>
</g>
</g>
<!-- Node285 -->
<g id="node2" class="node"><title>Node285</title>
<g id="a_node2"><a xlink:href="classopenage_1_1_radial_object.xhtml#a8df3ce8c1bc15cc827e7de59f2a39f5a" target="_top" xlink:title="does this space contain a given point">
<polygon fill="white" stroke="black" points="627.5,-590.5 627.5,-620.5 742.5,-620.5 742.5,-590.5 627.5,-590.5"/>
<text text-anchor="start" x="635.5" y="-608.5" font-family="Helvetica,sans-Serif" font-size="10.00">openage::RadialObject</text>
<text text-anchor="middle" x="685" y="-597.5" font-family="Helvetica,sans-Serif" font-size="10.00">::contains</text>
</a>
</g>
</g>
<!-- Node284&#45;&gt;Node285 -->
<g id="edge1" class="edge"><title>Node284&#45;&gt;Node285</title>
<path fill="none" stroke="midnightblue" d="M858.271,-346.87C852.369,-398.54 831.717,-516.568 763,-581.5 757.199,-586.982 750.164,-591.212 742.732,-594.477"/>
<polygon fill="midnightblue" stroke="midnightblue" points="861.784,-346.925 859.345,-336.615 854.822,-346.196 861.784,-346.925"/>
</g>
<!-- Node286 -->
<g id="node3" class="node"><title>Node286</title>
<g id="a_node3"><a xlink:href="namespaceopenage_1_1util_1_1tests.xhtml#a66cf54ea365e3f8f1357577ddaa1adfb" target="_top" xlink:title=" ">
<polygon fill="white" stroke="black" points="635,-541.5 635,-571.5 735,-571.5 735,-541.5 635,-541.5"/>
<text text-anchor="start" x="643" y="-559.5" font-family="Helvetica,sans-Serif" font-size="10.00">openage::util::tests</text>
<text text-anchor="middle" x="685" y="-548.5" font-family="Helvetica,sans-Serif" font-size="10.00">::fixed_point</text>
</a>
</g>
</g>
<!-- Node284&#45;&gt;Node286 -->
<g id="edge2" class="edge"><title>Node284&#45;&gt;Node286</title>
<path fill="none" stroke="midnightblue" d="M855.704,-346.503C846.013,-390.298 819.978,-481.017 763,-531.5 755.11,-538.491 745.234,-543.531 735.213,-547.164"/>
<polygon fill="midnightblue" stroke="midnightblue" points="859.138,-347.183 857.776,-336.676 852.289,-345.739 859.138,-347.183"/>
</g>
<!-- Node287 -->
<g id="node4" class="node"><title>Node287</title>
<g id="a_node4"><a xlink:href="classopenage_1_1curve_1_1_continuous.xhtml#a2af59e706890b3ed70d0059ba1ae766e" target="_top" xlink:title="will interpolate between the keyframes linearly based on the time.">
<polygon fill="white" stroke="black" points="607,-503 607,-522 763,-522 763,-503 607,-503"/>
<text text-anchor="middle" x="685" y="-510" font-family="Helvetica,sans-Serif" font-size="10.00">openage::curve::Continuous::get</text>
</a>
</g>
</g>
<!-- Node284&#45;&gt;Node287 -->
<g id="edge3" class="edge"><title>Node284&#45;&gt;Node287</title>
<path fill="none" stroke="midnightblue" d="M853.412,-346.343C841.316,-384.117 813.011,-455.599 763,-493.5 757.952,-497.326 752.232,-500.39 746.245,-502.843"/>
<polygon fill="midnightblue" stroke="midnightblue" points="856.803,-347.225 856.399,-336.638 850.112,-345.166 856.803,-347.225"/>
</g>
<!-- Node289 -->
<g id="node6" class="node"><title>Node289</title>
<g id="a_node6"><a xlink:href="classopenage_1_1util_1_1_fixed_point.xhtml#aa0eb736578910b123ea19652c670daab" target="_top" xlink:title=" ">
<polygon fill="white" stroke="black" points="622.5,-453.5 622.5,-483.5 747.5,-483.5 747.5,-453.5 622.5,-453.5"/>
<text text-anchor="start" x="630.5" y="-471.5" font-family="Helvetica,sans-Serif" font-size="10.00">openage::util::FixedPoint</text>
<text text-anchor="middle" x="685" y="-460.5" font-family="Helvetica,sans-Serif" font-size="10.00">&lt; int64_t, 16 &gt;::hypot</text>
</a>
</g>
</g>
<!-- Node284&#45;&gt;Node289 -->
<g id="edge5" class="edge"><title>Node284&#45;&gt;Node289</title>
<path fill="none" stroke="midnightblue" d="M847.502,-345.481C831.267,-373.238 800.952,-418.461 763,-444.5 758.035,-447.906 752.566,-450.846 746.901,-453.378"/>
<polygon fill="midnightblue" stroke="midnightblue" points="850.544,-347.211 852.458,-336.79 844.464,-343.743 850.544,-347.211"/>
</g>
<!-- Node290 -->
<g id="node7" class="node"><title>Node290</title>
<g id="a_node7"><a xlink:href="classopenage_1_1event_1_1demo_1_1_ball_reflect_wall.xhtml#a215ab77e1d0c301cf5ee7c79da4ffd4a" target="_top" xlink:title="This method implements the effects of the event.">
<polygon fill="white" stroke="black" points="624,-404.5 624,-434.5 746,-434.5 746,-404.5 624,-404.5"/>
<text text-anchor="start" x="632" y="-422.5" font-family="Helvetica,sans-Serif" font-size="10.00">openage::event::demo</text>
<text text-anchor="middle" x="685" y="-411.5" font-family="Helvetica,sans-Serif" font-size="10.00">::BallReflectWall::invoke</text>
</a>
</g>
</g>
<!-- Node284&#45;&gt;Node290 -->
<g id="edge6" class="edge"><title>Node284&#45;&gt;Node290</title>
<path fill="none" stroke="midnightblue" d="M836.699,-343.348C817.882,-359.643 790.317,-381.428 763,-395.5 756.527,-398.834 749.507,-401.804 742.429,-404.421"/>
<polygon fill="midnightblue" stroke="midnightblue" points="839.261,-345.755 844.449,-336.518 834.633,-340.504 839.261,-345.755"/>
</g>
<!-- Node291 -->
<g id="node8" class="node"><title>Node291</title>
<g id="a_node8"><a xlink:href="classopenage_1_1event_1_1demo_1_1_ball_reflect_panel.xhtml#aa56d9723c3d16a001d71bca91fd08c70" target="_top" xlink:title="This method implements the effects of the event.">
<polygon fill="white" stroke="black" points="621.5,-355.5 621.5,-385.5 748.5,-385.5 748.5,-355.5 621.5,-355.5"/>
<text text-anchor="start" x="629.5" y="-373.5" font-family="Helvetica,sans-Serif" font-size="10.00">openage::event::demo</text>
<text text-anchor="middle" x="685" y="-362.5" font-family="Helvetica,sans-Serif" font-size="10.00">::BallReflectPanel::invoke</text>
</a>
</g>
</g>
<!-- Node284&#45;&gt;Node291 -->
<g id="edge7" class="edge"><title>Node284&#45;&gt;Node291</title>
<path fill="none" stroke="midnightblue" d="M797.035,-339.321C778.194,-344.612 757.751,-350.352 739.602,-355.448"/>
<polygon fill="midnightblue" stroke="midnightblue" points="798.039,-342.675 806.72,-336.601 796.147,-335.935 798.039,-342.675"/>
</g>
<!-- Node292 -->
<g id="node9" class="node"><title>Node292</title>
<g id="a_node9"><a xlink:href="classopenage_1_1event_1_1demo_1_1_reset_game.xhtml#a0fa6b84fb64f30f1edd75d465876a2b3" target="_top" xlink:title="This method implements the effects of the event.">
<polygon fill="white" stroke="black" points="629,-306.5 629,-336.5 741,-336.5 741,-306.5 629,-306.5"/>
<text text-anchor="start" x="637" y="-324.5" font-family="Helvetica,sans-Serif" font-size="10.00">openage::event::demo</text>
<text text-anchor="middle" x="685" y="-313.5" font-family="Helvetica,sans-Serif" font-size="10.00">::ResetGame::invoke</text>
</a>
</g>
</g>
<!-- Node284&#45;&gt;Node292 -->
<g id="edge8" class="edge"><title>Node284&#45;&gt;Node292</title>
<path fill="none" stroke="midnightblue" d="M788.675,-321.5C772.807,-321.5 756.237,-321.5 741.153,-321.5"/>
<polygon fill="midnightblue" stroke="midnightblue" points="788.978,-325 798.978,-321.5 788.978,-318 788.978,-325"/>
</g>
<!-- Node293 -->
<g id="node10" class="node"><title>Node293</title>
<g id="a_node10"><a xlink:href="classopenage_1_1util_1_1_fixed_point.xhtml#a0c4cacca4318bbc4f50a568b1fc1789c" target="_top" xlink:title=" ">
<polygon fill="white" stroke="black" points="608.5,-257.5 608.5,-287.5 761.5,-287.5 761.5,-257.5 608.5,-257.5"/>
<text text-anchor="start" x="616.5" y="-275.5" font-family="Helvetica,sans-Serif" font-size="10.00">openage::util::FixedPoint</text>
<text text-anchor="middle" x="685" y="-264.5" font-family="Helvetica,sans-Serif" font-size="10.00">&lt; int64_t, 16 &gt;::operator double</text>
</a>
</g>
</g>
<!-- Node284&#45;&gt;Node293 -->
<g id="edge9" class="edge"><title>Node284&#45;&gt;Node293</title>
<path fill="none" stroke="midnightblue" d="M797.035,-303.679C778.194,-298.388 757.751,-292.648 739.602,-287.552"/>
<polygon fill="midnightblue" stroke="midnightblue" points="796.147,-307.065 806.72,-306.399 798.039,-300.325 796.147,-307.065"/>
</g>
<!-- Node294 -->
<g id="node11" class="node"><title>Node294</title>
<g id="a_node11"><a xlink:href="namespaceopenage_1_1path.xhtml#a4fb2450790038eed534dfe29ad57d350" target="_top" xlink:title=" ">
<polygon fill="white" stroke="black" points="613.5,-219 613.5,-238 756.5,-238 756.5,-219 613.5,-219"/>
<text text-anchor="middle" x="685" y="-226" font-family="Helvetica,sans-Serif" font-size="10.00">openage::path::passable_line</text>
</a>
</g>
</g>
<!-- Node284&#45;&gt;Node294 -->
<g id="edge10" class="edge"><title>Node284&#45;&gt;Node294</title>
<path fill="none" stroke="midnightblue" d="M836.834,-299.592C818.088,-283.328 790.554,-261.756 763,-248.5 754.163,-244.249 744.305,-240.817 734.672,-238.078"/>
<polygon fill="midnightblue" stroke="midnightblue" points="834.741,-302.414 844.55,-306.419 839.38,-297.171 834.741,-302.414"/>
</g>
<!-- Node305 -->
<g id="node22" class="node"><title>Node305</title>
<g id="a_node22"><a xlink:href="classopenage_1_1event_1_1demo_1_1_ball_reflect_wall.xhtml#a3e60c155c12ea17e0c149b3eca114f70" target="_top" xlink:title="Is called to calculate the execution time for an event of this eventclass.">
<polygon fill="white" stroke="black" points="623,-159 623,-200 747,-200 747,-159 623,-159"/>
<text text-anchor="start" x="631" y="-188" font-family="Helvetica,sans-Serif" font-size="10.00">openage::event::demo</text>
<text text-anchor="start" x="631" y="-177" font-family="Helvetica,sans-Serif" font-size="10.00">::BallReflectWall::predict</text>
<text text-anchor="middle" x="685" y="-166" font-family="Helvetica,sans-Serif" font-size="10.00">_invoke_time</text>
</a>
</g>
</g>
<!-- Node284&#45;&gt;Node305 -->
<g id="edge22" class="edge"><title>Node284&#45;&gt;Node305</title>
<path fill="none" stroke="midnightblue" d="M845.133,-297.87C827.823,-272.889 797.555,-233.806 763,-209.5 758.071,-206.033 752.688,-202.897 747.13,-200.075"/>
<polygon fill="midnightblue" stroke="midnightblue" points="842.397,-300.071 850.908,-306.382 848.19,-296.141 842.397,-300.071"/>
</g>
<!-- Node306 -->
<g id="node23" class="node"><title>Node306</title>
<g id="a_node23"><a xlink:href="classopenage_1_1event_1_1demo_1_1_ball_reflect_panel.xhtml#a81a50b0cb9bf2c5148a355f02829c992" target="_top" xlink:title="Is called to calculate the execution time for an event of this eventclass.">
<polygon fill="white" stroke="black" points="620.5,-99 620.5,-140 749.5,-140 749.5,-99 620.5,-99"/>
<text text-anchor="start" x="628.5" y="-128" font-family="Helvetica,sans-Serif" font-size="10.00">openage::event::demo</text>
<text text-anchor="start" x="628.5" y="-117" font-family="Helvetica,sans-Serif" font-size="10.00">::BallReflectPanel::predict</text>
<text text-anchor="middle" x="685" y="-106" font-family="Helvetica,sans-Serif" font-size="10.00">_invoke_time</text>
</a>
</g>
</g>
<!-- Node284&#45;&gt;Node306 -->
<g id="edge23" class="edge"><title>Node284&#45;&gt;Node306</title>
<path fill="none" stroke="midnightblue" d="M852.59,-296.878C839.558,-259.989 810.215,-190.355 763,-149.5 758.986,-146.027 754.524,-142.93 749.827,-140.175"/>
<polygon fill="midnightblue" stroke="midnightblue" points="849.286,-298.034 855.834,-306.364 855.909,-295.769 849.286,-298.034"/>
</g>
<!-- Node307 -->
<g id="node24" class="node"><title>Node307</title>
<g id="a_node24"><a xlink:href="classopenage_1_1util_1_1_fixed_point.xhtml#ae963a0d669b00ec8a65da1bf0041172a" target="_top" xlink:title=" ">
<polygon fill="white" stroke="black" points="622.5,-49.5 622.5,-79.5 747.5,-79.5 747.5,-49.5 622.5,-49.5"/>
<text text-anchor="start" x="630.5" y="-67.5" font-family="Helvetica,sans-Serif" font-size="10.00">openage::util::FixedPoint</text>
<text text-anchor="middle" x="685" y="-56.5" font-family="Helvetica,sans-Serif" font-size="10.00">&lt; int64_t, 16 &gt;::sqrt</text>
</a>
</g>
</g>
<!-- Node284&#45;&gt;Node307 -->
<g id="edge24" class="edge"><title>Node284&#45;&gt;Node307</title>
<path fill="none" stroke="midnightblue" d="M856.908,-296.269C848.845,-248.925 824.914,-146.425 763,-89.5 758.448,-85.3144 753.185,-81.829 747.592,-78.9269"/>
<polygon fill="midnightblue" stroke="midnightblue" points="853.474,-296.961 858.513,-306.281 860.386,-295.853 853.474,-296.961"/>
</g>
<!-- Node308 -->
<g id="node25" class="node"><title>Node308</title>
<g id="a_node25"><a xlink:href="classopenage_1_1util_1_1_fixed_point.xhtml#aff707b86b379bbb8491212631d1df769" target="_top" xlink:title="Show a string representation.">
<polygon fill="white" stroke="black" points="622.5,-0.5 622.5,-30.5 747.5,-30.5 747.5,-0.5 622.5,-0.5"/>
<text text-anchor="start" x="630.5" y="-18.5" font-family="Helvetica,sans-Serif" font-size="10.00">openage::util::FixedPoint</text>
<text text-anchor="middle" x="685" y="-7.5" font-family="Helvetica,sans-Serif" font-size="10.00">&lt; int64_t, 16 &gt;::str</text>
</a>
</g>
</g>
<!-- Node284&#45;&gt;Node308 -->
<g id="edge25" class="edge"><title>Node284&#45;&gt;Node308</title>
<path fill="none" stroke="midnightblue" d="M859.021,-296.063C854.473,-241.463 836.141,-112.19 763,-40.5 758.584,-36.1711 753.411,-32.5918 747.872,-29.6322"/>
<polygon fill="midnightblue" stroke="midnightblue" points="855.546,-296.529 859.778,-306.242 862.526,-296.009 855.546,-296.529"/>
</g>
<!-- Node288 -->
<g id="node5" class="node"><title>Node288</title>
<g id="a_node5"><a xlink:href="namespaceopenage_1_1curve_1_1tests.xhtml#aa6290e10c0af22b4a5bcbcf4ad20eb88" target="_top" xlink:title=" ">
<polygon fill="white" stroke="black" points="456.5,-497.5 456.5,-527.5 566.5,-527.5 566.5,-497.5 456.5,-497.5"/>
<text text-anchor="start" x="464.5" y="-515.5" font-family="Helvetica,sans-Serif" font-size="10.00">openage::curve::tests</text>
<text text-anchor="middle" x="511.5" y="-504.5" font-family="Helvetica,sans-Serif" font-size="10.00">::curve_types</text>
</a>
</g>
</g>
<!-- Node287&#45;&gt;Node288 -->
<g id="edge4" class="edge"><title>Node287&#45;&gt;Node288</title>
<path fill="none" stroke="midnightblue" d="M596.611,-512.5C586.433,-512.5 576.285,-512.5 566.742,-512.5"/>
<polygon fill="midnightblue" stroke="midnightblue" points="596.779,-516 606.779,-512.5 596.779,-509 596.779,-516"/>
</g>
<!-- Node295 -->
<g id="node12" class="node"><title>Node295</title>
<g id="a_node12"><a xlink:href="namespaceopenage_1_1path.xhtml#acafe3c2e0b6cef7750a14663eab6c883" target="_top" xlink:title="finds a path between two endpoints">
<polygon fill="white" stroke="black" points="456,-245 456,-264 567,-264 567,-245 456,-245"/>
<text text-anchor="middle" x="511.5" y="-252" font-family="Helvetica,sans-Serif" font-size="10.00">openage::path::a_star</text>
</a>
</g>
</g>
<!-- Node294&#45;&gt;Node295 -->
<g id="edge11" class="edge"><title>Node294&#45;&gt;Node295</title>
<path fill="none" stroke="midnightblue" d="M611.04,-239.561C596.339,-241.79 581.124,-244.096 567.178,-246.211"/>
<polygon fill="midnightblue" stroke="midnightblue" points="611.751,-242.993 621.114,-238.034 610.702,-236.072 611.751,-242.993"/>
</g>
<!-- Node303 -->
<g id="node20" class="node"><title>Node303</title>
<g id="a_node20"><a xlink:href="namespaceopenage_1_1path_1_1tests.xhtml#a22de95f3450a22cac036677b4e01ad63" target="_top" xlink:title="This function tests passable_line.">
<polygon fill="white" stroke="black" points="452,-186.5 452,-216.5 571,-216.5 571,-186.5 452,-186.5"/>
<text text-anchor="start" x="460" y="-204.5" font-family="Helvetica,sans-Serif" font-size="10.00">openage::path::tests</text>
<text text-anchor="middle" x="511.5" y="-193.5" font-family="Helvetica,sans-Serif" font-size="10.00">::node_passable_line_0</text>
</a>
</g>
</g>
<!-- Node294&#45;&gt;Node303 -->
<g id="edge20" class="edge"><title>Node294&#45;&gt;Node303</title>
<path fill="none" stroke="midnightblue" d="M613.447,-217.392C599.425,-215.185 584.843,-212.889 571.266,-210.752"/>
<polygon fill="midnightblue" stroke="midnightblue" points="613.113,-220.883 623.536,-218.981 614.202,-213.968 613.113,-220.883"/>
</g>
<!-- Node296 -->
<g id="node13" class="node"><title>Node296</title>
<g id="a_node13"><a xlink:href="namespaceopenage_1_1path.xhtml#a4382f59f9523f9dd89a6689336cc353a" target="_top" xlink:title="path to nearest object with lambda">
<polygon fill="white" stroke="black" points="304.5,-293.5 304.5,-323.5 403.5,-323.5 403.5,-293.5 304.5,-293.5"/>
<text text-anchor="start" x="312.5" y="-311.5" font-family="Helvetica,sans-Serif" font-size="10.00">openage::path::find</text>
<text text-anchor="middle" x="354" y="-300.5" font-family="Helvetica,sans-Serif" font-size="10.00">_nearest</text>
</a>
</g>
</g>
<!-- Node295&#45;&gt;Node296 -->
<g id="edge12" class="edge"><title>Node295&#45;&gt;Node296</title>
<path fill="none" stroke="midnightblue" d="M473.492,-267.352C450.914,-275.192 421.948,-285.251 398.307,-293.461"/>
<polygon fill="midnightblue" stroke="midnightblue" points="474.759,-270.617 483.058,-264.03 472.463,-264.004 474.759,-270.617"/>
</g>
<!-- Node297 -->
<g id="node14" class="node"><title>Node297</title>
<g id="a_node14"><a xlink:href="namespaceopenage_1_1path.xhtml#a047e97b9a81a866f064ad6d6f8dddfd6" target="_top" xlink:title="path between 2 objects, with how close to come to end point">
<polygon fill="white" stroke="black" points="292,-217 292,-236 416,-236 416,-217 292,-217"/>
<text text-anchor="middle" x="354" y="-224" font-family="Helvetica,sans-Serif" font-size="10.00">openage::path::to_object</text>
</a>
</g>
</g>
<!-- Node295&#45;&gt;Node297 -->
<g id="edge13" class="edge"><title>Node295&#45;&gt;Node297</title>
<path fill="none" stroke="midnightblue" d="M447.496,-243.155C434.335,-240.785 420.588,-238.31 407.84,-236.015"/>
<polygon fill="midnightblue" stroke="midnightblue" points="446.959,-246.615 457.421,-244.942 448.199,-239.725 446.959,-246.615"/>
</g>
<!-- Node302 -->
<g id="node19" class="node"><title>Node302</title>
<g id="a_node19"><a xlink:href="namespaceopenage_1_1path.xhtml#a4699fb2dbfd8178b2234b9fbb935179f" target="_top" xlink:title="path between two static points">
<polygon fill="white" stroke="black" points="294.5,-255 294.5,-274 413.5,-274 413.5,-255 294.5,-255"/>
<text text-anchor="middle" x="354" y="-262" font-family="Helvetica,sans-Serif" font-size="10.00">openage::path::to_point</text>
</a>
</g>
</g>
<!-- Node295&#45;&gt;Node302 -->
<g id="edge18" class="edge"><title>Node295&#45;&gt;Node302</title>
<path fill="none" stroke="midnightblue" d="M445.611,-258.673C434.978,-259.357 424.016,-260.062 413.549,-260.735"/>
<polygon fill="midnightblue" stroke="midnightblue" points="445.922,-262.16 455.677,-258.026 445.472,-255.175 445.922,-262.16"/>
</g>
<!-- Node298 -->
<g id="node15" class="node"><title>Node298</title>
<g id="a_node15"><a xlink:href="classopenage_1_1_move_action.xhtml#a4e56fc82672dfaf3c62f846afbd6df69" target="_top" xlink:title="use a star to find a path to target">
<polygon fill="white" stroke="black" points="146,-249.5 146,-279.5 256,-279.5 256,-249.5 146,-249.5"/>
<text text-anchor="start" x="154" y="-267.5" font-family="Helvetica,sans-Serif" font-size="10.00">openage::MoveAction</text>
<text text-anchor="middle" x="201" y="-256.5" font-family="Helvetica,sans-Serif" font-size="10.00">::set_path</text>
</a>
</g>
</g>
<!-- Node297&#45;&gt;Node298 -->
<g id="edge14" class="edge"><title>Node297&#45;&gt;Node298</title>
<path fill="none" stroke="midnightblue" d="M304.962,-238.589C289.398,-242.506 272.032,-246.876 256.061,-250.895"/>
<polygon fill="midnightblue" stroke="midnightblue" points="306.053,-241.924 314.896,-236.089 304.344,-235.135 306.053,-241.924"/>
</g>
<!-- Node301 -->
<g id="node18" class="node"><title>Node301</title>
<g id="a_node18"><a xlink:href="classopenage_1_1_idle_action.xhtml#a90d182b9575459830744488f776a2f4e" target="_top" xlink:title="each action has its own update functionality which gets called when this is the active action">
<polygon fill="white" stroke="black" points="150,-200.5 150,-230.5 252,-230.5 252,-200.5 150,-200.5"/>
<text text-anchor="start" x="158" y="-218.5" font-family="Helvetica,sans-Serif" font-size="10.00">openage::IdleAction</text>
<text text-anchor="middle" x="201" y="-207.5" font-family="Helvetica,sans-Serif" font-size="10.00">::update</text>
</a>
</g>
</g>
<!-- Node297&#45;&gt;Node301 -->
<g id="edge17" class="edge"><title>Node297&#45;&gt;Node301</title>
<path fill="none" stroke="midnightblue" d="M281.39,-221.283C271.552,-220.567 261.625,-219.844 252.281,-219.163"/>
<polygon fill="midnightblue" stroke="midnightblue" points="281.355,-224.79 291.583,-222.026 281.863,-217.808 281.355,-224.79"/>
</g>
<!-- Node299 -->
<g id="node16" class="node"><title>Node299</title>
<g id="a_node16"><a xlink:href="classopenage_1_1_move_action.xhtml#a1b34ceffe821a5ef2afd3c3fc08ae3d1" target="_top" xlink:title=" ">
<polygon fill="white" stroke="black" points="0,-274.5 0,-304.5 110,-304.5 110,-274.5 0,-274.5"/>
<text text-anchor="start" x="8" y="-292.5" font-family="Helvetica,sans-Serif" font-size="10.00">openage::MoveAction</text>
<text text-anchor="middle" x="55" y="-281.5" font-family="Helvetica,sans-Serif" font-size="10.00">::initialise</text>
</a>
</g>
</g>
<!-- Node298&#45;&gt;Node299 -->
<g id="edge15" class="edge"><title>Node298&#45;&gt;Node299</title>
<path fill="none" stroke="midnightblue" d="M136.009,-275.609C127.439,-277.097 118.716,-278.612 110.333,-280.067"/>
<polygon fill="midnightblue" stroke="midnightblue" points="136.716,-279.039 145.97,-273.88 135.519,-272.142 136.716,-279.039"/>
</g>
<!-- Node300 -->
<g id="node17" class="node"><title>Node300</title>
<g id="a_node17"><a xlink:href="classopenage_1_1_move_action.xhtml#afa4e4983c00b0207af76c7b717e81a05" target="_top" xlink:title="each action has its own update functionality which gets called when this is the active action">
<polygon fill="white" stroke="black" points="0,-225.5 0,-255.5 110,-255.5 110,-225.5 0,-225.5"/>
<text text-anchor="start" x="8" y="-243.5" font-family="Helvetica,sans-Serif" font-size="10.00">openage::MoveAction</text>
<text text-anchor="middle" x="55" y="-232.5" font-family="Helvetica,sans-Serif" font-size="10.00">::update</text>
</a>
</g>
</g>
<!-- Node298&#45;&gt;Node300 -->
<g id="edge16" class="edge"><title>Node298&#45;&gt;Node300</title>
<path fill="none" stroke="midnightblue" d="M136.009,-253.835C127.439,-252.407 118.716,-250.953 110.333,-249.555"/>
<polygon fill="midnightblue" stroke="midnightblue" points="135.531,-257.303 145.97,-255.495 136.682,-250.399 135.531,-257.303"/>
</g>
<!-- Node302&#45;&gt;Node298 -->
<g id="edge19" class="edge"><title>Node302&#45;&gt;Node298</title>
<path fill="none" stroke="midnightblue" d="M284.181,-264.5C274.887,-264.5 265.456,-264.5 256.458,-264.5"/>
<polygon fill="midnightblue" stroke="midnightblue" points="284.187,-268 294.187,-264.5 284.187,-261 284.187,-268"/>
</g>
<!-- Node304 -->
<g id="node21" class="node"><title>Node304</title>
<g id="a_node21"><a xlink:href="namespaceopenage_1_1path_1_1tests.xhtml#a5d1515cb353ed8a23c4d644dc3642e73" target="_top" xlink:title="Top level node test.">
<polygon fill="white" stroke="black" points="301,-167.5 301,-197.5 407,-197.5 407,-167.5 301,-167.5"/>
<text text-anchor="start" x="309" y="-185.5" font-family="Helvetica,sans-Serif" font-size="10.00">openage::path::tests</text>
<text text-anchor="middle" x="354" y="-174.5" font-family="Helvetica,sans-Serif" font-size="10.00">::path_node</text>
</a>
</g>
</g>
<!-- Node303&#45;&gt;Node304 -->
<g id="edge21" class="edge"><title>Node303&#45;&gt;Node304</title>
<path fill="none" stroke="midnightblue" d="M441.654,-193.088C430.101,-191.676 418.282,-190.232 407.236,-188.882"/>
<polygon fill="midnightblue" stroke="midnightblue" points="441.361,-196.578 451.712,-194.317 442.21,-189.63 441.361,-196.578"/>
</g>
</g>
</svg>
        <g id="navigator" transform="translate(0 0)" fill="#404254">
                <rect fill="#f2f5e9" fill-opacity="0.5" stroke="#606060" stroke-width=".5" x="0" y="0" width="60" height="60"/>
                <use id="zoomplus" xlink:href="#zoomPlus" x="17" y="9" onmousedown="handleZoom(evt,'in')"/>
                <use id="zoomminus" xlink:href="#zoomMin" x="42" y="9" onmousedown="handleZoom(evt,'out')"/>
                <use id="reset" xlink:href="#resetDef" x="30" y="36" onmousedown="handleReset()"/>
                <g id="arrowUp" xlink:href="#dirArrow" transform="translate(30 24)" onmousedown="handlePan(0,-1)">
                  <use xlink:href="#rim" fill="#404040">
                        <set attributeName="fill" to="#808080" begin="arrowUp.mouseover" end="arrowUp.mouseout"/>
                  </use>
                  <path fill="none" stroke="white" stroke-width="1.5" d="M0,-3.0v7 M-2.5,-0.5L0,-3.0L2.5,-0.5"/>
                </g>
                <g id="arrowRight" xlink:href="#dirArrow" transform="rotate(90) translate(36 -43)" onmousedown="handlePan(1,0)">
                  <use xlink:href="#rim" fill="#404040">
                        <set attributeName="fill" to="#808080" begin="arrowRight.mouseover" end="arrowRight.mouseout"/>
                  </use>
                  <path fill="none" stroke="white" stroke-width="1.5" d="M0,-3.0v7 M-2.5,-0.5L0,-3.0L2.5,-0.5"/>
                </g>
                <g id="arrowDown" xlink:href="#dirArrow" transform="rotate(180) translate(-30 -48)" onmousedown="handlePan(0,1)">
                  <use xlink:href="#rim" fill="#404040">
                        <set attributeName="fill" to="#808080" begin="arrowDown.mouseover" end="arrowDown.mouseout"/>
                  </use>
                  <path fill="none" stroke="white" stroke-width="1.5" d="M0,-3.0v7 M-2.5,-0.5L0,-3.0L2.5,-0.5"/>
                </g>
                <g id="arrowLeft" xlink:href="#dirArrow" transform="rotate(270) translate(-36 17)" onmousedown="handlePan(-1,0)">
                  <use xlink:href="#rim" fill="#404040">
                        <set attributeName="fill" to="#808080" begin="arrowLeft.mouseover" end="arrowLeft.mouseout"/>
                  </use>
                  <path fill="none" stroke="white" stroke-width="1.5" d="M0,-3.0v7 M-2.5,-0.5L0,-3.0L2.5,-0.5"/>
                </g>
        </g>
        <svg viewBox="0 0 15 15" width="100%" height="30px" preserveAspectRatio="xMaxYMin meet">
         <g id="arrow_out" transform="scale(0.3 0.3)">
          <a xlink:href="classopenage_1_1util_1_1_fixed_point_a3d55d1b8ecdb0fd4ff8e7e3da2598554_icgraph_org.svg" target="_base">
           <rect id="button" ry="5" rx="5" y="6" x="6" height="38" width="38"
                fill="#f2f5e9" fill-opacity="0.5" stroke="#606060" stroke-width="1.0"/>
           <path id="arrow"
             d="M 11.500037,31.436501 C 11.940474,20.09759 22.043105,11.32322 32.158766,21.979434 L 37.068811,17.246167 C 37.068811,17.246167 37.088388,32 37.088388,32 L 22.160133,31.978069 C 22.160133,31.978069 26.997745,27.140456 26.997745,27.140456 C 18.528582,18.264221 13.291696,25.230495 11.500037,31.436501 z"
             style="fill:#404040;"/>
          </a>
         </g>
        </svg>
</svg>
