<?xml version="1.0" encoding="UTF-8" standalone="no"?>
<!DOCTYPE svg PUBLIC "-//W3C//DTD SVG 1.1//EN"
 "http://www.w3.org/Graphics/SVG/1.1/DTD/svg11.dtd">
<!-- Generated by graphviz version 2.38.0 (20140413.2041)
 -->
<!-- Title: openage::gui::GuiGameSpecImageProviderImpl::get_texture_handle Pages: 1 -->
<svg width="1064pt" height="110pt"
 viewBox="0.00 0.00 1064.00 110.00" xmlns="http://www.w3.org/2000/svg" xmlns:xlink="http://www.w3.org/1999/xlink">
<g id="graph0" class="graph" transform="scale(1 1) rotate(0) translate(4 106)">
<title>openage::gui::GuiGameSpecImageProviderImpl::get_texture_handle</title>
<polygon fill="white" stroke="none" points="-4,4 -4,-106 1060,-106 1060,4 -4,4"/>
<!-- Node21 -->
<g id="node1" class="node"><title>Node21</title>
<g id="a_node1"><a xlink:title=" ">
<polygon fill="#bfbfbf" stroke="black" points="914,-30.5 914,-71.5 1056,-71.5 1056,-30.5 914,-30.5"/>
<text text-anchor="start" x="922" y="-59.5" font-family="Helvetica,sans-Serif" font-size="10.00">openage::gui::GuiGameSpec</text>
<text text-anchor="start" x="922" y="-48.5" font-family="Helvetica,sans-Serif" font-size="10.00">ImageProviderImpl::get</text>
<text text-anchor="middle" x="985" y="-37.5" font-family="Helvetica,sans-Serif" font-size="10.00">_texture_handle</text>
</a>
</g>
</g>
<!-- Node22 -->
<g id="node2" class="node"><title>Node22</title>
<g id="a_node2"><a xlink:href="classopenage_1_1gui_1_1_gui_game_spec_image_provider_impl.xhtml#ac4c74475a47396d2e1824d2625e9d666" target="_top" xlink:title=" ">
<polygon fill="white" stroke="black" points="736,-30.5 736,-71.5 878,-71.5 878,-30.5 736,-30.5"/>
<text text-anchor="start" x="744" y="-59.5" font-family="Helvetica,sans-Serif" font-size="10.00">openage::gui::GuiGameSpec</text>
<text text-anchor="start" x="744" y="-48.5" font-family="Helvetica,sans-Serif" font-size="10.00">ImageProviderImpl::overwrite</text>
<text text-anchor="middle" x="807" y="-37.5" font-family="Helvetica,sans-Serif" font-size="10.00">_texture_handle</text>
</a>
</g>
</g>
<!-- Node21&#45;&gt;Node22 -->
<g id="edge1" class="edge"><title>Node21&#45;&gt;Node22</title>
<path fill="none" stroke="midnightblue" d="M903.899,-51C895.294,-51 886.588,-51 878.112,-51"/>
<polygon fill="midnightblue" stroke="midnightblue" points="903.934,-54.5001 913.934,-51 903.934,-47.5001 903.934,-54.5001"/>
</g>
<!-- Node23 -->
<g id="node3" class="node"><title>Node23</title>
<g id="a_node3"><a xlink:href="classopenage_1_1gui_1_1_gui_game_spec_image_provider_impl.xhtml#ab296b31a83e17fbd14f7106ce4c2a54a" target="_top" xlink:title="Change the already produced texture handles to use new source.">
<polygon fill="white" stroke="black" points="558,-60.5 558,-101.5 700,-101.5 700,-60.5 558,-60.5"/>
<text text-anchor="start" x="566" y="-89.5" font-family="Helvetica,sans-Serif" font-size="10.00">openage::gui::GuiGameSpec</text>
<text text-anchor="start" x="566" y="-78.5" font-family="Helvetica,sans-Serif" font-size="10.00">ImageProviderImpl::migrate</text>
<text text-anchor="middle" x="629" y="-67.5" font-family="Helvetica,sans-Serif" font-size="10.00">_to_new_game_spec</text>
</a>
</g>
</g>
<!-- Node22&#45;&gt;Node23 -->
<g id="edge2" class="edge"><title>Node22&#45;&gt;Node23</title>
<path fill="none" stroke="midnightblue" d="M725.899,-64.6535C717.294,-66.1203 708.588,-67.6044 700.112,-69.0491"/>
<polygon fill="midnightblue" stroke="midnightblue" points="726.665,-68.0736 735.934,-62.943 725.488,-61.1731 726.665,-68.0736"/>
</g>
<!-- Node27 -->
<g id="node7" class="node"><title>Node27</title>
<g id="a_node7"><a xlink:href="classopenage_1_1gui_1_1_gui_game_spec_image_provider_impl.xhtml#a183dbf9c55bb6ce603654585a92db3b1" target="_top" xlink:title="Fills in the provided handle object.">
<polygon fill="white" stroke="black" points="558,-0.5 558,-41.5 700,-41.5 700,-0.5 558,-0.5"/>
<text text-anchor="start" x="566" y="-29.5" font-family="Helvetica,sans-Serif" font-size="10.00">openage::gui::GuiGameSpec</text>
<text text-anchor="start" x="566" y="-18.5" font-family="Helvetica,sans-Serif" font-size="10.00">ImageProviderImpl::fill</text>
<text text-anchor="middle" x="629" y="-7.5" font-family="Helvetica,sans-Serif" font-size="10.00">_texture_handle</text>
</a>
</g>
</g>
<!-- Node22&#45;&gt;Node27 -->
<g id="edge7" class="edge"><title>Node22&#45;&gt;Node27</title>
<path fill="none" stroke="midnightblue" d="M725.899,-37.3465C717.294,-35.8797 708.588,-34.3956 700.112,-32.9509"/>
<polygon fill="midnightblue" stroke="midnightblue" points="725.488,-40.8269 735.934,-39.057 726.665,-33.9264 725.488,-40.8269"/>
</g>
<!-- Node24 -->
<g id="node4" class="node"><title>Node24</title>
<g id="a_node4"><a xlink:href="classopenage_1_1gui_1_1_gui_game_spec_image_provider_impl.xhtml#a96f49e5b70c5848778479d8ae36431b9" target="_top" xlink:title="Unblocks the provider.">
<polygon fill="white" stroke="black" points="380,-60.5 380,-101.5 522,-101.5 522,-60.5 380,-60.5"/>
<text text-anchor="start" x="388" y="-89.5" font-family="Helvetica,sans-Serif" font-size="10.00">openage::gui::GuiGameSpec</text>
<text text-anchor="start" x="388" y="-78.5" font-family="Helvetica,sans-Serif" font-size="10.00">ImageProviderImpl::on_game</text>
<text text-anchor="middle" x="451" y="-67.5" font-family="Helvetica,sans-Serif" font-size="10.00">_spec_loaded</text>
</a>
</g>
</g>
<!-- Node23&#45;&gt;Node24 -->
<g id="edge3" class="edge"><title>Node23&#45;&gt;Node24</title>
<path fill="none" stroke="midnightblue" d="M547.899,-81C539.294,-81 530.588,-81 522.112,-81"/>
<polygon fill="midnightblue" stroke="midnightblue" points="547.934,-84.5001 557.934,-81 547.934,-77.5001 547.934,-84.5001"/>
</g>
<!-- Node25 -->
<g id="node5" class="node"><title>Node25</title>
<g id="a_node5"><a xlink:href="classopenage_1_1gui_1_1_gui_image_provider_link.xhtml#a545162ca0fa8e596f4a2afafda0e2b0f" target="_top" xlink:title="Sets the game spec to load textures from.">
<polygon fill="white" stroke="black" points="0,-66 0,-96 154,-96 154,-66 0,-66"/>
<text text-anchor="start" x="8" y="-84" font-family="Helvetica,sans-Serif" font-size="10.00">openage::gui::GuiImageProvider</text>
<text text-anchor="middle" x="77" y="-73" font-family="Helvetica,sans-Serif" font-size="10.00">Link::set_game_spec</text>
</a>
</g>
</g>
<!-- Node24&#45;&gt;Node25 -->
<g id="edge4" class="edge"><title>Node24&#45;&gt;Node25</title>
<path fill="none" stroke="midnightblue" d="M369.719,-83.5119C361.039,-83.712 352.336,-83.8821 344,-84 275.562,-84.9683 258.438,-84.9164 190,-84 178.427,-83.845 166.184,-83.6 154.207,-83.3153"/>
<polygon fill="midnightblue" stroke="midnightblue" points="369.962,-87.0071 379.874,-83.2646 369.792,-80.0092 369.962,-87.0071"/>
</g>
<!-- Node26 -->
<g id="node6" class="node"><title>Node26</title>
<g id="a_node6"><a xlink:href="classopenage_1_1gui_1_1_gui_image_provider_link.xhtml#a4448d1bf9cbb8e7f8842989fd414c66b" target="_top" xlink:title="Pass loaded assets to the image provider.">
<polygon fill="white" stroke="black" points="190,-44 190,-74 344,-74 344,-44 190,-44"/>
<text text-anchor="start" x="198" y="-62" font-family="Helvetica,sans-Serif" font-size="10.00">openage::gui::GuiImageProvider</text>
<text text-anchor="middle" x="267" y="-51" font-family="Helvetica,sans-Serif" font-size="10.00">Link::on_game_spec_loaded</text>
</a>
</g>
</g>
<!-- Node24&#45;&gt;Node26 -->
<g id="edge5" class="edge"><title>Node24&#45;&gt;Node26</title>
<path fill="none" stroke="midnightblue" d="M369.912,-71.319C361.341,-70.2829 352.639,-69.2311 344.116,-68.2008"/>
<polygon fill="midnightblue" stroke="midnightblue" points="369.547,-74.8003 379.894,-72.5257 370.387,-67.8508 369.547,-74.8003"/>
</g>
<!-- Node26&#45;&gt;Node25 -->
<g id="edge6" class="edge"><title>Node26&#45;&gt;Node25</title>
<path fill="none" stroke="midnightblue" d="M179.854,-69.0809C171.33,-70.0784 162.719,-71.0861 154.304,-72.0708"/>
<polygon fill="midnightblue" stroke="midnightblue" points="180.279,-72.5552 189.804,-67.9165 179.465,-65.6026 180.279,-72.5552"/>
</g>
<!-- Node28 -->
<g id="node8" class="node"><title>Node28</title>
<g id="a_node8"><a xlink:href="classopenage_1_1gui_1_1_gui_texture_factory.xhtml#af51021a1b0298e9c467ae7b50f2a8180" target="_top" xlink:title=" ">
<polygon fill="white" stroke="black" points="383,-6 383,-36 519,-36 519,-6 383,-6"/>
<text text-anchor="start" x="391" y="-24" font-family="Helvetica,sans-Serif" font-size="10.00">openage::gui::GuiTexture</text>
<text text-anchor="middle" x="451" y="-13" font-family="Helvetica,sans-Serif" font-size="10.00">Factory::GuiTextureFactory</text>
</a>
</g>
</g>
<!-- Node27&#45;&gt;Node28 -->
<g id="edge8" class="edge"><title>Node27&#45;&gt;Node28</title>
<path fill="none" stroke="midnightblue" d="M547.685,-21C538.176,-21 528.547,-21 519.245,-21"/>
<polygon fill="midnightblue" stroke="midnightblue" points="547.934,-24.5001 557.934,-21 547.934,-17.5001 547.934,-24.5001"/>
</g>
</g>
</svg>
