<?xml version="1.0" encoding="UTF-8" standalone="no"?>
<!DOCTYPE svg PUBLIC "-//W3C//DTD SVG 1.1//EN"
 "http://www.w3.org/Graphics/SVG/1.1/DTD/svg11.dtd">
<!-- Generated by graphviz version 2.38.0 (20140413.2041)
 -->
<!-- Title: qtsdl::GuiInputImpl::process Pages: 1 -->
<svg width="405pt" height="88pt"
 viewBox="0.00 0.00 405.00 88.00" xmlns="http://www.w3.org/2000/svg" xmlns:xlink="http://www.w3.org/1999/xlink">
<g id="graph0" class="graph" transform="scale(1 1) rotate(0) translate(4 84)">
<title>qtsdl::GuiInputImpl::process</title>
<polygon fill="white" stroke="none" points="-4,4 -4,-84 401,-84 401,4 -4,4"/>
<!-- Node8 -->
<g id="node1" class="node"><title>Node8</title>
<g id="a_node1"><a xlink:title="Returns true if the event was accepted.">
<polygon fill="#bfbfbf" stroke="black" points="0,-24.5 0,-54.5 98,-54.5 98,-24.5 0,-24.5"/>
<text text-anchor="start" x="8" y="-42.5" font-family="Helvetica,sans-Serif" font-size="10.00">qtsdl::GuiInputImpl</text>
<text text-anchor="middle" x="49" y="-31.5" font-family="Helvetica,sans-Serif" font-size="10.00">::process</text>
</a>
</g>
</g>
<!-- Node9 -->
<g id="node2" class="node"><title>Node9</title>
<g id="a_node2"><a xlink:href="classqtsdl_1_1_gui_input_impl.xhtml#abd1c5fe1c24e2b0bdd09d5b63229be13" target="_top" xlink:title=" ">
<polygon fill="white" stroke="black" points="134,-24.5 134,-54.5 232,-54.5 232,-24.5 134,-24.5"/>
<text text-anchor="start" x="142" y="-42.5" font-family="Helvetica,sans-Serif" font-size="10.00">qtsdl::GuiInputImpl</text>
<text text-anchor="middle" x="183" y="-31.5" font-family="Helvetica,sans-Serif" font-size="10.00">::relay_input_event</text>
</a>
</g>
</g>
<!-- Node8&#45;&gt;Node9 -->
<g id="edge1" class="edge"><title>Node8&#45;&gt;Node9</title>
<path fill="none" stroke="midnightblue" d="M98.0284,-39.5C106.309,-39.5 114.997,-39.5 123.517,-39.5"/>
<polygon fill="midnightblue" stroke="midnightblue" points="123.786,-43.0001 133.786,-39.5 123.786,-36.0001 123.786,-43.0001"/>
</g>
<!-- Node10 -->
<g id="node3" class="node"><title>Node10</title>
<g id="a_node3"><a xlink:href="classqtsdl_1_1_gui_event_queue_impl.xhtml#ad445b8604c39eddf25837572c4dda508" target="_top" xlink:title=" ">
<polygon fill="white" stroke="black" points="268,-49.5 268,-79.5 397,-79.5 397,-49.5 268,-49.5"/>
<text text-anchor="start" x="276" y="-67.5" font-family="Helvetica,sans-Serif" font-size="10.00">qtsdl::GuiEventQueueImpl</text>
<text text-anchor="middle" x="332.5" y="-56.5" font-family="Helvetica,sans-Serif" font-size="10.00">::get_thread</text>
</a>
</g>
</g>
<!-- Node9&#45;&gt;Node10 -->
<g id="edge2" class="edge"><title>Node9&#45;&gt;Node10</title>
<path fill="none" stroke="midnightblue" d="M232.297,-47.6859C240.449,-49.0677 249.075,-50.5296 257.701,-51.9917"/>
<polygon fill="midnightblue" stroke="midnightblue" points="257.355,-55.4829 267.8,-53.7033 258.525,-48.5814 257.355,-55.4829"/>
</g>
<!-- Node11 -->
<g id="node4" class="node"><title>Node11</title>
<g id="a_node4"><a xlink:href="classqtsdl_1_1_gui_event_queue_impl.xhtml#a44943ac7ab0b6cbefb4390201020ddd6" target="_top" xlink:title=" ">
<polygon fill="white" stroke="black" points="268,-0.5 268,-30.5 397,-30.5 397,-0.5 268,-0.5"/>
<text text-anchor="start" x="276" y="-18.5" font-family="Helvetica,sans-Serif" font-size="10.00">qtsdl::GuiEventQueueImpl</text>
<text text-anchor="middle" x="332.5" y="-7.5" font-family="Helvetica,sans-Serif" font-size="10.00">::process_callbacks</text>
</a>
</g>
</g>
<!-- Node9&#45;&gt;Node11 -->
<g id="edge3" class="edge"><title>Node9&#45;&gt;Node11</title>
<path fill="none" stroke="midnightblue" d="M232.297,-31.6415C240.449,-30.315 249.075,-28.9116 257.701,-27.508"/>
<polygon fill="midnightblue" stroke="midnightblue" points="258.491,-30.9255 267.8,-25.8648 257.367,-24.0163 258.491,-30.9255"/>
</g>
</g>
</svg>
