<?xml version="1.0" encoding="UTF-8" standalone="no"?>
<!DOCTYPE svg PUBLIC "-//W3C//DTD SVG 1.1//EN"
 "http://www.w3.org/Graphics/SVG/1.1/DTD/svg11.dtd">
<!-- Generated by graphviz version 2.38.0 (20140413.2041)
 -->
<!-- Title: openage::TerrainObject::place_unchecked Pages: 1 -->
<svg width="551pt" height="176pt"
 viewBox="0.00 0.00 551.00 175.50" xmlns="http://www.w3.org/2000/svg" xmlns:xlink="http://www.w3.org/1999/xlink">
<g id="graph0" class="graph" transform="scale(1 1) rotate(0) translate(4 171.5)">
<title>openage::TerrainObject::place_unchecked</title>
<polygon fill="white" stroke="none" points="-4,4 -4,-171.5 547,-171.5 547,4 -4,4"/>
<!-- Node139 -->
<g id="node1" class="node"><title>Node139</title>
<g id="a_node1"><a xlink:title="placement function which does not check passibility used only when passibilty is already checked othe...">
<polygon fill="#bfbfbf" stroke="black" points="0,-63 0,-93 117,-93 117,-63 0,-63"/>
<text text-anchor="start" x="8" y="-81" font-family="Helvetica,sans-Serif" font-size="10.00">openage::TerrainObject</text>
<text text-anchor="middle" x="58.5" y="-70" font-family="Helvetica,sans-Serif" font-size="10.00">::place_unchecked</text>
</a>
</g>
</g>
<!-- Node140 -->
<g id="node2" class="node"><title>Node140</title>
<g id="a_node2"><a xlink:href="classopenage_1_1_terrain_chunk.xhtml#af163db3fba4ae99206de76666f8424df" target="_top" xlink:title="get tile data by absolute coordinates.">
<polygon fill="white" stroke="black" points="153.5,-137 153.5,-167 269.5,-167 269.5,-137 153.5,-137"/>
<text text-anchor="start" x="161.5" y="-155" font-family="Helvetica,sans-Serif" font-size="10.00">openage::TerrainChunk</text>
<text text-anchor="middle" x="211.5" y="-144" font-family="Helvetica,sans-Serif" font-size="10.00">::get_data</text>
</a>
</g>
</g>
<!-- Node139&#45;&gt;Node140 -->
<g id="edge1" class="edge"><title>Node139&#45;&gt;Node140</title>
<path fill="none" stroke="midnightblue" d="M86.1557,-93.1323C104.675,-103.427 130.052,-117.106 153,-128 156.374,-129.602 159.885,-131.208 163.433,-132.789"/>
<polygon fill="midnightblue" stroke="midnightblue" points="162.28,-136.105 172.846,-136.892 165.077,-129.688 162.28,-136.105"/>
</g>
<!-- Node143 -->
<g id="node5" class="node"><title>Node143</title>
<g id="a_node5"><a xlink:href="classopenage_1_1_terrain_object.xhtml#a1fc44d40095260aca43dd9582c61de97" target="_top" xlink:title="returns the range of tiles covered if the object was in the given pos">
<polygon fill="white" stroke="black" points="153,-88 153,-118 270,-118 270,-88 153,-88"/>
<text text-anchor="start" x="161" y="-106" font-family="Helvetica,sans-Serif" font-size="10.00">openage::TerrainObject</text>
<text text-anchor="middle" x="211.5" y="-95" font-family="Helvetica,sans-Serif" font-size="10.00">::get_range</text>
</a>
</g>
</g>
<!-- Node139&#45;&gt;Node143 -->
<g id="edge4" class="edge"><title>Node139&#45;&gt;Node143</title>
<path fill="none" stroke="midnightblue" d="M117.017,-87.5227C125.464,-88.9212 134.229,-90.3724 142.856,-91.8007"/>
<polygon fill="midnightblue" stroke="midnightblue" points="142.455,-95.2819 152.893,-93.4623 143.599,-88.3759 142.455,-95.2819"/>
</g>
<!-- Node144 -->
<g id="node6" class="node"><title>Node144</title>
<g id="a_node6"><a xlink:href="classopenage_1_1_terrain_object.xhtml#a170289794bdd31d673ffb3aca873bb1d" target="_top" xlink:title=" ">
<polygon fill="white" stroke="black" points="153,-39 153,-69 270,-69 270,-39 153,-39"/>
<text text-anchor="start" x="161" y="-57" font-family="Helvetica,sans-Serif" font-size="10.00">openage::TerrainObject</text>
<text text-anchor="middle" x="211.5" y="-46" font-family="Helvetica,sans-Serif" font-size="10.00">::get_terrain</text>
</a>
</g>
</g>
<!-- Node139&#45;&gt;Node144 -->
<g id="edge5" class="edge"><title>Node139&#45;&gt;Node144</title>
<path fill="none" stroke="midnightblue" d="M117.017,-68.8582C125.464,-67.5157 134.229,-66.1225 142.856,-64.7513"/>
<polygon fill="midnightblue" stroke="midnightblue" points="143.566,-68.1826 152.893,-63.1562 142.467,-61.2693 143.566,-68.1826"/>
</g>
<!-- Node145 -->
<g id="node7" class="node"><title>Node145</title>
<g id="a_node7"><a xlink:href="namespaceopenage.xhtml#a3a0d4d7c2bc234c442c13758d306f60c" target="_top" xlink:title="get all tiles in the tile range – useful for iterating returns a flat list of tiles between the recta...">
<polygon fill="white" stroke="black" points="166.5,-0.5 166.5,-19.5 256.5,-19.5 256.5,-0.5 166.5,-0.5"/>
<text text-anchor="middle" x="211.5" y="-7.5" font-family="Helvetica,sans-Serif" font-size="10.00">openage::tile_list</text>
</a>
</g>
</g>
<!-- Node139&#45;&gt;Node145 -->
<g id="edge6" class="edge"><title>Node139&#45;&gt;Node145</title>
<path fill="none" stroke="midnightblue" d="M86.4306,-62.9047C104.858,-52.8935 130.019,-39.8385 153,-30 158.602,-27.6016 164.597,-25.2691 170.525,-23.0944"/>
<polygon fill="midnightblue" stroke="midnightblue" points="172.104,-26.2475 180.354,-19.5999 169.759,-19.652 172.104,-26.2475"/>
</g>
<!-- Node141 -->
<g id="node3" class="node"><title>Node141</title>
<g id="a_node3"><a xlink:href="structopenage_1_1coord_1_1tile.xhtml#ab4811e492cabe885d33e85df51ceff83" target="_top" xlink:title=" ">
<polygon fill="white" stroke="black" points="306,-137 306,-167 410,-167 410,-137 306,-137"/>
<text text-anchor="start" x="314" y="-155" font-family="Helvetica,sans-Serif" font-size="10.00">openage::coord::tile</text>
<text text-anchor="middle" x="358" y="-144" font-family="Helvetica,sans-Serif" font-size="10.00">::get_pos_on_chunk</text>
</a>
</g>
</g>
<!-- Node140&#45;&gt;Node141 -->
<g id="edge2" class="edge"><title>Node140&#45;&gt;Node141</title>
<path fill="none" stroke="midnightblue" d="M269.61,-152C278.229,-152 287.148,-152 295.847,-152"/>
<polygon fill="midnightblue" stroke="midnightblue" points="295.928,-155.5 305.928,-152 295.928,-148.5 295.928,-155.5"/>
</g>
<!-- Node142 -->
<g id="node4" class="node"><title>Node142</title>
<g id="a_node4"><a xlink:href="namespaceopenage_1_1util.xhtml#a7e483e123bf554b630319eb3dd012c02" target="_top" xlink:title="modulo operation that guarantees to return positive values.">
<polygon fill="white" stroke="black" points="446,-142.5 446,-161.5 543,-161.5 543,-142.5 446,-142.5"/>
<text text-anchor="middle" x="494.5" y="-149.5" font-family="Helvetica,sans-Serif" font-size="10.00">openage::util::mod</text>
</a>
</g>
</g>
<!-- Node141&#45;&gt;Node142 -->
<g id="edge3" class="edge"><title>Node141&#45;&gt;Node142</title>
<path fill="none" stroke="midnightblue" d="M410.232,-152C418.571,-152 427.259,-152 435.741,-152"/>
<polygon fill="midnightblue" stroke="midnightblue" points="435.949,-155.5 445.949,-152 435.949,-148.5 435.949,-155.5"/>
</g>
</g>
</svg>
