<?xml version="1.0" encoding="UTF-8" standalone="no"?>
<!DOCTYPE svg PUBLIC "-//W3C//DTD SVG 1.1//EN"
 "http://www.w3.org/Graphics/SVG/1.1/DTD/svg11.dtd">
<!-- Generated by graphviz version 2.38.0 (20140413.2041)
 -->
<!-- Title: openage::MoveAbility::invoke Pages: 1 -->
<svg width="1001pt" height="664pt"
 viewBox="0.00 0.00 1001.00 663.50" xmlns="http://www.w3.org/2000/svg" xmlns:xlink="http://www.w3.org/1999/xlink">
<g id="graph0" class="graph" transform="scale(1 1) rotate(0) translate(4 659.5)">
<title>openage::MoveAbility::invoke</title>
<polygon fill="white" stroke="none" points="-4,4 -4,-659.5 997,-659.5 997,4 -4,4"/>
<!-- Node7 -->
<g id="node1" class="node"><title>Node7</title>
<g id="a_node1"><a xlink:title=" ">
<polygon fill="#bfbfbf" stroke="black" points="0,-388.5 0,-418.5 109,-418.5 109,-388.5 0,-388.5"/>
<text text-anchor="start" x="8" y="-406.5" font-family="Helvetica,sans-Serif" font-size="10.00">openage::MoveAbility</text>
<text text-anchor="middle" x="54.5" y="-395.5" font-family="Helvetica,sans-Serif" font-size="10.00">::invoke</text>
</a>
</g>
</g>
<!-- Node8 -->
<g id="node2" class="node"><title>Node8</title>
<g id="a_node2"><a xlink:href="namespaceopenage_1_1log.xhtml#aad3d76b2466dbc4f81552935f2d84faa" target="_top" xlink:title="debug message">
<polygon fill="white" stroke="black" points="174,-636 174,-655 262,-655 262,-636 174,-636"/>
<text text-anchor="middle" x="218" y="-643" font-family="Helvetica,sans-Serif" font-size="10.00">openage.log.dbg</text>
</a>
</g>
</g>
<!-- Node7&#45;&gt;Node8 -->
<g id="edge1" class="edge"><title>Node7&#45;&gt;Node8</title>
<path fill="none" stroke="midnightblue" d="M56.9685,-418.598C61.7079,-458.811 80.2821,-569.328 145,-626.5 150.529,-631.384 157.17,-635.035 164.153,-637.759"/>
<polygon fill="midnightblue" stroke="midnightblue" points="163.222,-641.138 173.815,-640.929 165.405,-634.486 163.222,-641.138"/>
</g>
<!-- Node9 -->
<g id="node3" class="node"><title>Node9</title>
<g id="a_node3"><a xlink:href="classopenage_1_1_unit.xhtml#a3e12324401051119f44e212dae1a87ce" target="_top" xlink:title=" ">
<polygon fill="white" stroke="black" points="170,-586.5 170,-616.5 266,-616.5 266,-586.5 170,-586.5"/>
<text text-anchor="start" x="178" y="-604.5" font-family="Helvetica,sans-Serif" font-size="10.00">openage::Unit::get</text>
<text text-anchor="middle" x="218" y="-593.5" font-family="Helvetica,sans-Serif" font-size="10.00">_attribute</text>
</a>
</g>
</g>
<!-- Node7&#45;&gt;Node9 -->
<g id="edge2" class="edge"><title>Node7&#45;&gt;Node9</title>
<path fill="none" stroke="midnightblue" d="M59.2025,-418.607C68.1371,-451.94 94.0056,-532.332 145,-576.5 149.549,-580.44 154.755,-583.77 160.24,-586.581"/>
<polygon fill="midnightblue" stroke="midnightblue" points="159.114,-589.913 169.668,-590.839 161.995,-583.533 159.114,-589.913"/>
</g>
<!-- Node11 -->
<g id="node5" class="node"><title>Node11</title>
<g id="a_node5"><a xlink:href="classopenage_1_1_unit.xhtml#adfea298b04684ab09dd8f499dabb8715" target="_top" xlink:title=" ">
<polygon fill="white" stroke="black" points="162,-548 162,-567 274,-567 274,-548 162,-548"/>
<text text-anchor="middle" x="218" y="-555" font-family="Helvetica,sans-Serif" font-size="10.00">openage::Unit::get_ref</text>
</a>
</g>
</g>
<!-- Node7&#45;&gt;Node11 -->
<g id="edge4" class="edge"><title>Node7&#45;&gt;Node11</title>
<path fill="none" stroke="midnightblue" d="M61.3254,-418.533C72.8991,-446.38 101.486,-506.01 145,-537.5 148.276,-539.871 151.822,-541.961 155.523,-543.803"/>
<polygon fill="midnightblue" stroke="midnightblue" points="154.411,-547.135 164.979,-547.892 157.189,-540.71 154.411,-547.135"/>
</g>
<!-- Node12 -->
<g id="node6" class="node"><title>Node12</title>
<g id="a_node6"><a xlink:href="classopenage_1_1_unit.xhtml#a6c56a8b7e9856a8e0535cacbe831bae7" target="_top" xlink:title=" ">
<polygon fill="white" stroke="black" points="169,-498.5 169,-528.5 267,-528.5 267,-498.5 169,-498.5"/>
<text text-anchor="start" x="177" y="-516.5" font-family="Helvetica,sans-Serif" font-size="10.00">openage::Unit::has</text>
<text text-anchor="middle" x="218" y="-505.5" font-family="Helvetica,sans-Serif" font-size="10.00">_attribute</text>
</a>
</g>
</g>
<!-- Node7&#45;&gt;Node12 -->
<g id="edge5" class="edge"><title>Node7&#45;&gt;Node12</title>
<path fill="none" stroke="midnightblue" d="M67.9161,-418.758C83.9384,-437.551 113.518,-469.332 145,-488.5 149.477,-491.226 154.292,-493.706 159.233,-495.953"/>
<polygon fill="midnightblue" stroke="midnightblue" points="158.261,-499.34 168.836,-499.986 160.972,-492.887 158.261,-499.34"/>
</g>
<!-- Node14 -->
<g id="node8" class="node"><title>Node14</title>
<g id="a_node8"><a xlink:href="classopenage_1_1_command.xhtml#acbb97472983c470bf9ba48fa9297c970" target="_top" xlink:title=" ">
<polygon fill="white" stroke="black" points="145,-460 145,-479 291,-479 291,-460 145,-460"/>
<text text-anchor="middle" x="218" y="-467" font-family="Helvetica,sans-Serif" font-size="10.00">openage::Command::has_flag</text>
</a>
</g>
</g>
<!-- Node7&#45;&gt;Node14 -->
<g id="edge7" class="edge"><title>Node7&#45;&gt;Node14</title>
<path fill="none" stroke="midnightblue" d="M81.4743,-418.641C98.9965,-428.403 122.873,-440.845 145,-449.5 152.057,-452.26 159.641,-454.802 167.145,-457.081"/>
<polygon fill="midnightblue" stroke="midnightblue" points="166.333,-460.49 176.913,-459.923 168.288,-453.769 166.333,-460.49"/>
</g>
<!-- Node15 -->
<g id="node9" class="node"><title>Node15</title>
<g id="a_node9"><a xlink:href="classopenage_1_1_command.xhtml#a26adf9105a1e53a39212e11914466353" target="_top" xlink:title=" ">
<polygon fill="white" stroke="black" points="155.5,-410.5 155.5,-440.5 280.5,-440.5 280.5,-410.5 155.5,-410.5"/>
<text text-anchor="start" x="163.5" y="-428.5" font-family="Helvetica,sans-Serif" font-size="10.00">openage::Command::has</text>
<text text-anchor="middle" x="218" y="-417.5" font-family="Helvetica,sans-Serif" font-size="10.00">_position</text>
</a>
</g>
</g>
<!-- Node7&#45;&gt;Node15 -->
<g id="edge8" class="edge"><title>Node7&#45;&gt;Node15</title>
<path fill="none" stroke="midnightblue" d="M109.277,-410.826C120.819,-412.398 133.191,-414.083 145.289,-415.731"/>
<polygon fill="midnightblue" stroke="midnightblue" points="144.981,-419.222 155.362,-417.104 145.926,-412.286 144.981,-419.222"/>
</g>
<!-- Node16 -->
<g id="node10" class="node"><title>Node16</title>
<g id="a_node10"><a xlink:href="classopenage_1_1_command.xhtml#a89702d889840a84d4f1cadd017b4e8c2" target="_top" xlink:title=" ">
<polygon fill="white" stroke="black" points="145,-372 145,-391 291,-391 291,-372 145,-372"/>
<text text-anchor="middle" x="218" y="-379" font-family="Helvetica,sans-Serif" font-size="10.00">openage::Command::has_unit</text>
</a>
</g>
</g>
<!-- Node7&#45;&gt;Node16 -->
<g id="edge9" class="edge"><title>Node7&#45;&gt;Node16</title>
<path fill="none" stroke="midnightblue" d="M109.277,-396.174C118.172,-394.963 127.56,-393.684 136.936,-392.407"/>
<polygon fill="midnightblue" stroke="midnightblue" points="137.645,-395.842 147.081,-391.025 136.7,-388.906 137.645,-395.842"/>
</g>
<!-- Node17 -->
<g id="node11" class="node"><title>Node17</title>
<g id="a_node11"><a xlink:href="classopenage_1_1log_1_1_log_source.xhtml#a5640099e20af4cd368c767dbcef3a1df" target="_top" xlink:title=" ">
<polygon fill="white" stroke="black" points="518,-55 518,-74 661,-74 661,-55 518,-55"/>
<text text-anchor="middle" x="589.5" y="-62" font-family="Helvetica,sans-Serif" font-size="10.00">openage::log::LogSource::log</text>
</a>
</g>
</g>
<!-- Node7&#45;&gt;Node17 -->
<g id="edge10" class="edge"><title>Node7&#45;&gt;Node17</title>
<path fill="none" stroke="midnightblue" d="M61.4372,-388.056C73.8052,-357.129 104.574,-286.301 145,-236.5 211.6,-154.455 229.093,-123.264 327,-83.5 384.35,-60.2079 454.559,-56.2999 507.783,-57.7548"/>
<polygon fill="midnightblue" stroke="midnightblue" points="507.74,-61.2553 517.854,-58.0992 507.98,-54.2594 507.74,-61.2553"/>
</g>
<!-- Node21 -->
<g id="node15" class="node"><title>Node21</title>
<g id="a_node15"><a xlink:href="classopenage_1_1_sound.xhtml#a526acd600cd69f6f421a253fc169398b" target="_top" xlink:title=" ">
<polygon fill="white" stroke="black" points="162.5,-284 162.5,-303 273.5,-303 273.5,-284 162.5,-284"/>
<text text-anchor="middle" x="218" y="-291" font-family="Helvetica,sans-Serif" font-size="10.00">openage::Sound::play</text>
</a>
</g>
</g>
<!-- Node7&#45;&gt;Node21 -->
<g id="edge14" class="edge"><title>Node7&#45;&gt;Node21</title>
<path fill="none" stroke="midnightblue" d="M66.1175,-388.475C81.2785,-368.153 111.077,-332.188 145,-312.5 148.879,-310.249 153.028,-308.259 157.303,-306.501"/>
<polygon fill="midnightblue" stroke="midnightblue" points="158.628,-309.743 166.809,-303.011 156.215,-303.172 158.628,-309.743"/>
</g>
<!-- Node37 -->
<g id="node31" class="node"><title>Node37</title>
<g id="a_node31"><a xlink:href="classopenage_1_1_command.xhtml#add4c17e9b3367bccb83b83d09469cc86" target="_top" xlink:title=" ">
<polygon fill="white" stroke="black" points="146.5,-246 146.5,-265 289.5,-265 289.5,-246 146.5,-246"/>
<text text-anchor="middle" x="218" y="-253" font-family="Helvetica,sans-Serif" font-size="10.00">openage::Command::position</text>
</a>
</g>
</g>
<!-- Node7&#45;&gt;Node37 -->
<g id="edge31" class="edge"><title>Node7&#45;&gt;Node37</title>
<path fill="none" stroke="midnightblue" d="M61.8212,-388.124C73.8286,-360.881 102.583,-304.217 145,-274.5 147.839,-272.511 150.873,-270.73 154.03,-269.136"/>
<polygon fill="midnightblue" stroke="midnightblue" points="155.441,-272.339 163.194,-265.118 152.63,-265.928 155.441,-272.339"/>
</g>
<!-- Node38 -->
<g id="node32" class="node"><title>Node38</title>
<g id="a_node32"><a xlink:href="classopenage_1_1_unit.xhtml#aecd686fafc67487f4df4d3637f2621f4" target="_top" xlink:title=" ">
<polygon fill="white" stroke="black" points="166,-322.5 166,-352.5 270,-352.5 270,-322.5 166,-322.5"/>
<text text-anchor="start" x="174" y="-340.5" font-family="Helvetica,sans-Serif" font-size="10.00">openage::Unit::push</text>
<text text-anchor="middle" x="218" y="-329.5" font-family="Helvetica,sans-Serif" font-size="10.00">_action</text>
</a>
</g>
</g>
<!-- Node7&#45;&gt;Node38 -->
<g id="edge32" class="edge"><title>Node7&#45;&gt;Node38</title>
<path fill="none" stroke="midnightblue" d="M86.6611,-388.339C103.721,-380.264 125.334,-370.398 145,-362.5 150.428,-360.32 156.128,-358.148 161.844,-356.045"/>
<polygon fill="midnightblue" stroke="midnightblue" points="163.217,-359.271 171.434,-352.584 160.84,-352.687 163.217,-359.271"/>
</g>
<!-- Node42 -->
<g id="node36" class="node"><title>Node42</title>
<g id="a_node36"><a xlink:href="classopenage_1_1_command.xhtml#aac8f87a8abd4c2ed97832d42c4954514" target="_top" xlink:title=" ">
<polygon fill="white" stroke="black" points="155.5,-17 155.5,-36 280.5,-36 280.5,-17 155.5,-17"/>
<text text-anchor="middle" x="218" y="-24" font-family="Helvetica,sans-Serif" font-size="10.00">openage::Command::unit</text>
</a>
</g>
</g>
<!-- Node7&#45;&gt;Node42 -->
<g id="edge37" class="edge"><title>Node7&#45;&gt;Node42</title>
<path fill="none" stroke="midnightblue" d="M57.3948,-388.379C65.2969,-327.569 97.4468,-101.68 145,-50.5 148.607,-46.6178 152.858,-43.3631 157.461,-40.6344"/>
<polygon fill="midnightblue" stroke="midnightblue" points="159.306,-43.6247 166.671,-36.009 156.164,-37.3693 159.306,-43.6247"/>
</g>
<!-- Node10 -->
<g id="node4" class="node"><title>Node10</title>
<g id="a_node4"><a xlink:href="classopenage_1_1_attributes.xhtml#a08f927be3be6911e7cf77604f9ead10f" target="_top" xlink:title=" ">
<polygon fill="white" stroke="black" points="342,-592 342,-611 463,-611 463,-592 342,-592"/>
<text text-anchor="middle" x="402.5" y="-599" font-family="Helvetica,sans-Serif" font-size="10.00">openage::Attributes::get</text>
</a>
</g>
</g>
<!-- Node9&#45;&gt;Node10 -->
<g id="edge3" class="edge"><title>Node9&#45;&gt;Node10</title>
<path fill="none" stroke="midnightblue" d="M266.473,-601.5C286.349,-601.5 309.857,-601.5 331.641,-601.5"/>
<polygon fill="midnightblue" stroke="midnightblue" points="331.839,-605 341.839,-601.5 331.839,-598 331.839,-605"/>
</g>
<!-- Node13 -->
<g id="node7" class="node"><title>Node13</title>
<g id="a_node7"><a xlink:href="classopenage_1_1_attributes.xhtml#aee38f453ac85b68821958ad74cdd8df5" target="_top" xlink:title=" ">
<polygon fill="white" stroke="black" points="341,-552 341,-571 464,-571 464,-552 341,-552"/>
<text text-anchor="middle" x="402.5" y="-559" font-family="Helvetica,sans-Serif" font-size="10.00">openage::Attributes::has</text>
</a>
</g>
</g>
<!-- Node12&#45;&gt;Node13 -->
<g id="edge6" class="edge"><title>Node12&#45;&gt;Node13</title>
<path fill="none" stroke="midnightblue" d="M267.428,-526.237C294.676,-533.404 328.512,-542.303 355.376,-549.369"/>
<polygon fill="midnightblue" stroke="midnightblue" points="354.74,-552.821 365.302,-551.979 356.521,-546.051 354.74,-552.821"/>
</g>
<!-- Node18 -->
<g id="node12" class="node"><title>Node18</title>
<g id="a_node12"><a xlink:href="namespaceopenage_1_1log.xhtml#a3d2885be9c3a09b9ff7ee8764b2e5f39" target="_top" xlink:title=" ">
<polygon fill="white" stroke="black" points="723,-49.5 723,-79.5 827,-79.5 827,-49.5 723,-49.5"/>
<text text-anchor="start" x="731" y="-67.5" font-family="Helvetica,sans-Serif" font-size="10.00">openage::log::global</text>
<text text-anchor="middle" x="775" y="-56.5" font-family="Helvetica,sans-Serif" font-size="10.00">_stdoutsink</text>
</a>
</g>
</g>
<!-- Node17&#45;&gt;Node18 -->
<g id="edge11" class="edge"><title>Node17&#45;&gt;Node18</title>
<path fill="none" stroke="midnightblue" d="M661.183,-64.5C678.156,-64.5 696.146,-64.5 712.654,-64.5"/>
<polygon fill="midnightblue" stroke="midnightblue" points="712.72,-68.0001 722.72,-64.5 712.72,-61.0001 712.72,-68.0001"/>
</g>
<!-- Node19 -->
<g id="node13" class="node"><title>Node19</title>
<g id="a_node13"><a xlink:href="classopenage_1_1log_1_1_log_sink_list.xhtml#a2d47416fab12651553b4b58c86fd6f84" target="_top" xlink:title=" ">
<polygon fill="white" stroke="black" points="710.5,-0.5 710.5,-30.5 839.5,-30.5 839.5,-0.5 710.5,-0.5"/>
<text text-anchor="start" x="718.5" y="-18.5" font-family="Helvetica,sans-Serif" font-size="10.00">openage::log::LogSinkList</text>
<text text-anchor="middle" x="775" y="-7.5" font-family="Helvetica,sans-Serif" font-size="10.00">::instance</text>
</a>
</g>
</g>
<!-- Node17&#45;&gt;Node19 -->
<g id="edge12" class="edge"><title>Node17&#45;&gt;Node19</title>
<path fill="none" stroke="midnightblue" d="M626.316,-54.936C649.447,-48.7595 680.246,-40.5351 707.732,-33.1955"/>
<polygon fill="midnightblue" stroke="midnightblue" points="708.93,-36.4985 717.688,-30.537 707.124,-29.7354 708.93,-36.4985"/>
</g>
<!-- Node20 -->
<g id="node14" class="node"><title>Node20</title>
<g id="a_node14"><a xlink:href="classopenage_1_1log_1_1_log_sink_list.xhtml#a8456b84ab55e1fe151c51438c5bfebdd" target="_top" xlink:title=" ">
<polygon fill="white" stroke="black" points="701,-99 701,-118 849,-118 849,-99 701,-99"/>
<text text-anchor="middle" x="775" y="-106" font-family="Helvetica,sans-Serif" font-size="10.00">openage::log::LogSinkList::log</text>
</a>
</g>
</g>
<!-- Node17&#45;&gt;Node20 -->
<g id="edge13" class="edge"><title>Node17&#45;&gt;Node20</title>
<path fill="none" stroke="midnightblue" d="M630.317,-74.0473C657.85,-80.6492 694.686,-89.4819 724.167,-96.551"/>
<polygon fill="midnightblue" stroke="midnightblue" points="723.72,-100.043 734.261,-98.9713 725.353,-93.236 723.72,-100.043"/>
</g>
<!-- Node22 -->
<g id="node16" class="node"><title>Node22</title>
<g id="a_node16"><a xlink:href="namespaceopenage_1_1rng.xhtml#a398e36f7942536cd461ca212dfee6cb5" target="_top" xlink:title=" ">
<polygon fill="white" stroke="black" points="347,-453.5 347,-483.5 458,-483.5 458,-453.5 347,-453.5"/>
<text text-anchor="start" x="355" y="-471.5" font-family="Helvetica,sans-Serif" font-size="10.00">openage::rng::random</text>
<text text-anchor="middle" x="402.5" y="-460.5" font-family="Helvetica,sans-Serif" font-size="10.00">_range</text>
</a>
</g>
</g>
<!-- Node21&#45;&gt;Node22 -->
<g id="edge15" class="edge"><title>Node21&#45;&gt;Node22</title>
<path fill="none" stroke="midnightblue" d="M273.834,-301.301C280.191,-304.041 286.13,-307.68 291,-312.5 333.912,-354.978 285.507,-399.635 327,-443.5 330.198,-446.881 333.866,-449.804 337.823,-452.333"/>
<polygon fill="midnightblue" stroke="midnightblue" points="336.418,-455.553 346.874,-457.26 339.765,-449.405 336.418,-455.553"/>
</g>
<!-- Node26 -->
<g id="node20" class="node"><title>Node26</title>
<g id="a_node20"><a xlink:href="classopenage_1_1_game_spec.xhtml#a3a21c92c49ec4d0add95e8aacd83ebe0" target="_top" xlink:title=" ">
<polygon fill="white" stroke="black" points="345.5,-278.5 345.5,-308.5 459.5,-308.5 459.5,-278.5 345.5,-278.5"/>
<text text-anchor="start" x="353.5" y="-296.5" font-family="Helvetica,sans-Serif" font-size="10.00">openage::GameSpec::</text>
<text text-anchor="middle" x="402.5" y="-285.5" font-family="Helvetica,sans-Serif" font-size="10.00">get_asset_manager</text>
</a>
</g>
</g>
<!-- Node21&#45;&gt;Node26 -->
<g id="edge19" class="edge"><title>Node21&#45;&gt;Node26</title>
<path fill="none" stroke="midnightblue" d="M273.756,-293.5C293.067,-293.5 314.989,-293.5 335.153,-293.5"/>
<polygon fill="midnightblue" stroke="midnightblue" points="335.202,-297 345.202,-293.5 335.202,-290 335.202,-297"/>
</g>
<!-- Node27 -->
<g id="node21" class="node"><title>Node27</title>
<g id="a_node21"><a xlink:href="classopenage_1_1_asset_manager.xhtml#a50069b4b3cd4b5fcf8fb5f4b480c721d" target="_top" xlink:title=" ">
<polygon fill="white" stroke="black" points="341.5,-229.5 341.5,-259.5 463.5,-259.5 463.5,-229.5 341.5,-229.5"/>
<text text-anchor="start" x="349.5" y="-247.5" font-family="Helvetica,sans-Serif" font-size="10.00">openage::AssetManager</text>
<text text-anchor="middle" x="402.5" y="-236.5" font-family="Helvetica,sans-Serif" font-size="10.00">::get_engine</text>
</a>
</g>
</g>
<!-- Node21&#45;&gt;Node27 -->
<g id="edge20" class="edge"><title>Node21&#45;&gt;Node27</title>
<path fill="none" stroke="midnightblue" d="M255.272,-283.982C266.708,-280.967 279.386,-277.609 291,-274.5 305.807,-270.536 321.719,-266.239 336.727,-262.168"/>
<polygon fill="midnightblue" stroke="midnightblue" points="337.705,-265.529 346.439,-259.531 335.871,-258.774 337.705,-265.529"/>
</g>
<!-- Node28 -->
<g id="node22" class="node"><title>Node28</title>
<g id="a_node22"><a xlink:href="classopenage_1_1_engine.xhtml#ad925a7a6258d1382edd274ee4ceafdbd" target="_top" xlink:title=" ">
<polygon fill="white" stroke="black" points="348,-180.5 348,-210.5 457,-210.5 457,-180.5 348,-180.5"/>
<text text-anchor="start" x="356" y="-198.5" font-family="Helvetica,sans-Serif" font-size="10.00">openage::Engine::get</text>
<text text-anchor="middle" x="402.5" y="-187.5" font-family="Helvetica,sans-Serif" font-size="10.00">_audio_manager</text>
</a>
</g>
</g>
<!-- Node21&#45;&gt;Node28 -->
<g id="edge21" class="edge"><title>Node21&#45;&gt;Node28</title>
<path fill="none" stroke="midnightblue" d="M273.277,-283.879C279.577,-281.429 285.652,-278.356 291,-274.5 314.699,-257.415 303.768,-237.214 327,-219.5 330.623,-216.737 334.576,-214.287 338.708,-212.113"/>
<polygon fill="midnightblue" stroke="midnightblue" points="340.403,-215.185 347.987,-207.786 337.445,-208.841 340.403,-215.185"/>
</g>
<!-- Node29 -->
<g id="node23" class="node"><title>Node29</title>
<g id="a_node23"><a xlink:href="classopenage_1_1audio_1_1_audio_manager.xhtml#a6df7195e7f02f6959a9a241037e48657" target="_top" xlink:title=" ">
<polygon fill="white" stroke="black" points="327,-131.5 327,-161.5 478,-161.5 478,-131.5 327,-131.5"/>
<text text-anchor="start" x="335" y="-149.5" font-family="Helvetica,sans-Serif" font-size="10.00">openage::audio::AudioManager</text>
<text text-anchor="middle" x="402.5" y="-138.5" font-family="Helvetica,sans-Serif" font-size="10.00">::is_available</text>
</a>
</g>
</g>
<!-- Node21&#45;&gt;Node29 -->
<g id="edge22" class="edge"><title>Node21&#45;&gt;Node29</title>
<path fill="none" stroke="midnightblue" d="M273.543,-285.395C279.947,-282.704 285.976,-279.159 291,-274.5 326.863,-241.238 292.042,-204.711 327,-170.5 328.093,-169.431 329.233,-168.409 330.415,-167.433"/>
<polygon fill="midnightblue" stroke="midnightblue" points="332.545,-170.215 338.752,-161.629 328.545,-164.47 332.545,-170.215"/>
</g>
<!-- Node30 -->
<g id="node24" class="node"><title>Node30</title>
<g id="a_node24"><a xlink:href="classopenage_1_1audio_1_1_audio_manager.xhtml#a4fcd0ea2e63f5035df72bdceb0ac22f2" target="_top" xlink:title=" ">
<polygon fill="white" stroke="black" points="514,-338.5 514,-368.5 665,-368.5 665,-338.5 514,-338.5"/>
<text text-anchor="start" x="522" y="-356.5" font-family="Helvetica,sans-Serif" font-size="10.00">openage::audio::AudioManager</text>
<text text-anchor="middle" x="589.5" y="-345.5" font-family="Helvetica,sans-Serif" font-size="10.00">::get_sound</text>
</a>
</g>
</g>
<!-- Node21&#45;&gt;Node30 -->
<g id="edge23" class="edge"><title>Node21&#45;&gt;Node30</title>
<path fill="none" stroke="midnightblue" d="M258.341,-303.055C278.747,-307.805 304.125,-313.391 327,-317.5 385.778,-328.059 452.475,-337.196 503.798,-343.623"/>
<polygon fill="midnightblue" stroke="midnightblue" points="503.496,-347.112 513.851,-344.872 504.359,-340.166 503.496,-347.112"/>
</g>
<!-- Node32 -->
<g id="node26" class="node"><title>Node32</title>
<g id="a_node26"><a xlink:href="classopenage_1_1audio_1_1_sound.xhtml#a7e4854e55386f2498a332eed36e374d4" target="_top" xlink:title=" ">
<polygon fill="white" stroke="black" points="344.5,-404.5 344.5,-434.5 460.5,-434.5 460.5,-404.5 344.5,-404.5"/>
<text text-anchor="start" x="352.5" y="-422.5" font-family="Helvetica,sans-Serif" font-size="10.00">openage::audio::Sound</text>
<text text-anchor="middle" x="402.5" y="-411.5" font-family="Helvetica,sans-Serif" font-size="10.00">::play</text>
</a>
</g>
</g>
<!-- Node21&#45;&gt;Node32 -->
<g id="edge25" class="edge"><title>Node21&#45;&gt;Node32</title>
<path fill="none" stroke="midnightblue" d="M273.562,-302.143C279.887,-304.752 285.891,-308.131 291,-312.5 321.248,-338.37 297.619,-367.649 327,-394.5 329.596,-396.873 332.425,-399.021 335.414,-400.966"/>
<polygon fill="midnightblue" stroke="midnightblue" points="333.769,-404.057 344.197,-405.928 337.212,-397.962 333.769,-404.057"/>
</g>
<!-- Node34 -->
<g id="node28" class="node"><title>Node34</title>
<g id="a_node28"><a xlink:href="namespaceopenage_1_1log.xhtml#a0eff614e7d6e818746700ed9d29e583f" target="_top" xlink:title=" ">
<polygon fill="white" stroke="black" points="357,-93 357,-112 448,-112 448,-93 357,-93"/>
<text text-anchor="middle" x="402.5" y="-100" font-family="Helvetica,sans-Serif" font-size="10.00">openage::log::log</text>
</a>
</g>
</g>
<!-- Node21&#45;&gt;Node34 -->
<g id="edge27" class="edge"><title>Node21&#45;&gt;Node34</title>
<path fill="none" stroke="midnightblue" d="M273.645,-286.023C280.112,-283.24 286.131,-279.502 291,-274.5 339.727,-224.443 278.066,-171.354 327,-121.5 332.588,-115.807 339.628,-111.736 347.136,-108.841"/>
<polygon fill="midnightblue" stroke="midnightblue" points="348.35,-112.128 356.824,-105.769 346.234,-105.456 348.35,-112.128"/>
</g>
<!-- Node36 -->
<g id="node30" class="node"><title>Node36</title>
<g id="a_node30"><a xlink:href="namespaceopenage_1_1log.xhtml#a7ca418e1b1fcf210ff91cd25dc8e6a36" target="_top" xlink:title="warning message">
<polygon fill="white" stroke="black" points="356.5,-366 356.5,-385 448.5,-385 448.5,-366 356.5,-366"/>
<text text-anchor="middle" x="402.5" y="-373" font-family="Helvetica,sans-Serif" font-size="10.00">openage.log.warn</text>
</a>
</g>
</g>
<!-- Node21&#45;&gt;Node36 -->
<g id="edge30" class="edge"><title>Node21&#45;&gt;Node36</title>
<path fill="none" stroke="midnightblue" d="M270.057,-303.078C277.366,-305.545 284.575,-308.634 291,-312.5 311.212,-324.662 307.121,-338.8 327,-351.5 333.838,-355.869 341.541,-359.506 349.331,-362.514"/>
<polygon fill="midnightblue" stroke="midnightblue" points="348.231,-365.837 358.826,-365.878 350.569,-359.239 348.231,-365.837"/>
</g>
<!-- Node23 -->
<g id="node17" class="node"><title>Node23</title>
<g id="a_node17"><a xlink:href="classopenage_1_1rng_1_1_r_n_g.xhtml#ad7b2ba8c495b7ee100b7708b633bc060" target="_top" xlink:title=" ">
<polygon fill="white" stroke="black" points="536.5,-453.5 536.5,-483.5 642.5,-483.5 642.5,-453.5 536.5,-453.5"/>
<text text-anchor="start" x="544.5" y="-471.5" font-family="Helvetica,sans-Serif" font-size="10.00">openage::rng::RNG::</text>
<text text-anchor="middle" x="589.5" y="-460.5" font-family="Helvetica,sans-Serif" font-size="10.00">random_range</text>
</a>
</g>
</g>
<!-- Node22&#45;&gt;Node23 -->
<g id="edge16" class="edge"><title>Node22&#45;&gt;Node23</title>
<path fill="none" stroke="midnightblue" d="M458.006,-468.5C479.352,-468.5 503.966,-468.5 526.025,-468.5"/>
<polygon fill="midnightblue" stroke="midnightblue" points="526.29,-472 536.29,-468.5 526.29,-465 526.29,-472"/>
</g>
<!-- Node24 -->
<g id="node18" class="node"><title>Node24</title>
<g id="a_node18"><a xlink:href="classopenage_1_1rng_1_1_r_n_g.xhtml#a95f8c2c7e00ab2531e0e6c33ae70e154" target="_top" xlink:title=" ">
<polygon fill="white" stroke="black" points="722,-453.5 722,-483.5 828,-483.5 828,-453.5 722,-453.5"/>
<text text-anchor="start" x="730" y="-471.5" font-family="Helvetica,sans-Serif" font-size="10.00">openage::rng::RNG::</text>
<text text-anchor="middle" x="775" y="-460.5" font-family="Helvetica,sans-Serif" font-size="10.00">random</text>
</a>
</g>
</g>
<!-- Node23&#45;&gt;Node24 -->
<g id="edge17" class="edge"><title>Node23&#45;&gt;Node24</title>
<path fill="none" stroke="midnightblue" d="M642.593,-468.5C664.094,-468.5 689.193,-468.5 711.661,-468.5"/>
<polygon fill="midnightblue" stroke="midnightblue" points="711.777,-472 721.777,-468.5 711.777,-465 711.777,-472"/>
</g>
<!-- Node25 -->
<g id="node19" class="node"><title>Node25</title>
<g id="a_node19"><a xlink:href="namespaceopenage_1_1rng.xhtml#af7d90437e58aaa4fe1d816ad7b62dc07" target="_top" xlink:title=" ">
<polygon fill="white" stroke="black" points="885,-459 885,-478 993,-478 993,-459 885,-459"/>
<text text-anchor="middle" x="939" y="-466" font-family="Helvetica,sans-Serif" font-size="10.00">openage::rng::do_rng</text>
</a>
</g>
</g>
<!-- Node24&#45;&gt;Node25 -->
<g id="edge18" class="edge"><title>Node24&#45;&gt;Node25</title>
<path fill="none" stroke="midnightblue" d="M828.15,-468.5C842.879,-468.5 859.074,-468.5 874.396,-468.5"/>
<polygon fill="midnightblue" stroke="midnightblue" points="874.836,-472 884.836,-468.5 874.836,-465 874.836,-472"/>
</g>
<!-- Node31 -->
<g id="node25" class="node"><title>Node31</title>
<g id="a_node25"><a xlink:href="namespaceopenage_1_1log.xhtml#a325b0901ddb3f2af36f93781b7dd9744" target="_top" xlink:title="error message">
<polygon fill="white" stroke="black" points="733.5,-503 733.5,-522 816.5,-522 816.5,-503 733.5,-503"/>
<text text-anchor="middle" x="775" y="-510" font-family="Helvetica,sans-Serif" font-size="10.00">openage.log.err</text>
</a>
</g>
</g>
<!-- Node30&#45;&gt;Node31 -->
<g id="edge24" class="edge"><title>Node30&#45;&gt;Node31</title>
<path fill="none" stroke="midnightblue" d="M629.83,-368.535C642.443,-374.947 655.571,-383.527 665,-394.5 695.241,-429.693 666.831,-461.107 701,-492.5 707.399,-498.379 715.362,-502.555 723.655,-505.516"/>
<polygon fill="midnightblue" stroke="midnightblue" points="722.884,-508.939 733.468,-508.463 724.898,-502.234 722.884,-508.939"/>
</g>
<!-- Node33 -->
<g id="node27" class="node"><title>Node33</title>
<g id="a_node27"><a xlink:href="classopenage_1_1audio_1_1_audio_manager.xhtml#a558810ebb9233d8f80da70d48b0bf282" target="_top" xlink:title=" ">
<polygon fill="white" stroke="black" points="514,-404.5 514,-434.5 665,-434.5 665,-404.5 514,-404.5"/>
<text text-anchor="start" x="522" y="-422.5" font-family="Helvetica,sans-Serif" font-size="10.00">openage::audio::AudioManager</text>
<text text-anchor="middle" x="589.5" y="-411.5" font-family="Helvetica,sans-Serif" font-size="10.00">::add_sound</text>
</a>
</g>
</g>
<!-- Node32&#45;&gt;Node33 -->
<g id="edge26" class="edge"><title>Node32&#45;&gt;Node33</title>
<path fill="none" stroke="midnightblue" d="M460.516,-419.5C474.231,-419.5 489.173,-419.5 503.85,-419.5"/>
<polygon fill="midnightblue" stroke="midnightblue" points="503.95,-423 513.95,-419.5 503.95,-416 503.95,-423"/>
</g>
<!-- Node34&#45;&gt;Node17 -->
<g id="edge29" class="edge"><title>Node34&#45;&gt;Node17</title>
<path fill="none" stroke="midnightblue" d="M448.283,-93.3013C473.506,-88.1204 505.247,-81.6006 532.148,-76.075"/>
<polygon fill="midnightblue" stroke="midnightblue" points="533.106,-79.4514 542.197,-74.0109 531.697,-72.5946 533.106,-79.4514"/>
</g>
<!-- Node35 -->
<g id="node29" class="node"><title>Node35</title>
<g id="a_node29"><a xlink:href="namespaceopenage_1_1log.xhtml#a3fbb0c225d01e222648ec28a43507188" target="_top" xlink:title=" ">
<polygon fill="white" stroke="black" points="534.5,-93.5 534.5,-123.5 644.5,-123.5 644.5,-93.5 534.5,-93.5"/>
<text text-anchor="start" x="542.5" y="-111.5" font-family="Helvetica,sans-Serif" font-size="10.00">openage::log::general</text>
<text text-anchor="middle" x="589.5" y="-100.5" font-family="Helvetica,sans-Serif" font-size="10.00">_source</text>
</a>
</g>
</g>
<!-- Node34&#45;&gt;Node35 -->
<g id="edge28" class="edge"><title>Node34&#45;&gt;Node35</title>
<path fill="none" stroke="midnightblue" d="M448.283,-103.952C471.028,-104.69 499.073,-105.6 524.09,-106.411"/>
<polygon fill="midnightblue" stroke="midnightblue" points="524.128,-109.914 534.236,-106.74 524.355,-102.918 524.128,-109.914"/>
</g>
<!-- Node39 -->
<g id="node33" class="node"><title>Node39</title>
<g id="a_node33"><a xlink:href="classopenage_1_1_unit.xhtml#a21542f7813db482fd36799cf12971979" target="_top" xlink:title=" ">
<polygon fill="white" stroke="black" points="346.5,-502.5 346.5,-532.5 458.5,-532.5 458.5,-502.5 346.5,-502.5"/>
<text text-anchor="start" x="354.5" y="-520.5" font-family="Helvetica,sans-Serif" font-size="10.00">openage::Unit::accept</text>
<text text-anchor="middle" x="402.5" y="-509.5" font-family="Helvetica,sans-Serif" font-size="10.00">_commands</text>
</a>
</g>
</g>
<!-- Node38&#45;&gt;Node39 -->
<g id="edge33" class="edge"><title>Node38&#45;&gt;Node39</title>
<path fill="none" stroke="midnightblue" d="M270.341,-348.335C278.041,-351.818 285.297,-356.42 291,-362.5 332.014,-406.228 285.759,-448.986 327,-492.5 330.009,-495.675 333.433,-498.447 337.121,-500.866"/>
<polygon fill="midnightblue" stroke="midnightblue" points="335.695,-504.079 346.133,-505.898 339.108,-497.967 335.695,-504.079"/>
</g>
<!-- Node40 -->
<g id="node34" class="node"><title>Node40</title>
<g id="a_node34"><a xlink:href="classopenage_1_1_unit.xhtml#a257ef8a7aeceb306d372ef745b40ef90" target="_top" xlink:title=" ">
<polygon fill="white" stroke="black" points="540.5,-541.5 540.5,-571.5 638.5,-571.5 638.5,-541.5 540.5,-541.5"/>
<text text-anchor="start" x="548.5" y="-559.5" font-family="Helvetica,sans-Serif" font-size="10.00">openage::Unit::has</text>
<text text-anchor="middle" x="589.5" y="-548.5" font-family="Helvetica,sans-Serif" font-size="10.00">_action</text>
</a>
</g>
</g>
<!-- Node39&#45;&gt;Node40 -->
<g id="edge34" class="edge"><title>Node39&#45;&gt;Node40</title>
<path fill="none" stroke="midnightblue" d="M458.505,-529.096C481.144,-533.868 507.389,-539.401 530.344,-544.24"/>
<polygon fill="midnightblue" stroke="midnightblue" points="529.79,-547.7 540.297,-546.338 531.234,-540.851 529.79,-547.7"/>
</g>
<!-- Node41 -->
<g id="node35" class="node"><title>Node41</title>
<g id="a_node35"><a xlink:href="classopenage_1_1_unit.xhtml#a86a49987e082055274e98a142baffad8" target="_top" xlink:title=" ">
<polygon fill="white" stroke="black" points="541.5,-503 541.5,-522 637.5,-522 637.5,-503 541.5,-503"/>
<text text-anchor="middle" x="589.5" y="-510" font-family="Helvetica,sans-Serif" font-size="10.00">openage::Unit::top</text>
</a>
</g>
</g>
<!-- Node39&#45;&gt;Node41 -->
<g id="edge35" class="edge"><title>Node39&#45;&gt;Node41</title>
<path fill="none" stroke="midnightblue" d="M458.505,-516.013C481.422,-515.394 508.034,-514.675 531.19,-514.049"/>
<polygon fill="midnightblue" stroke="midnightblue" points="531.317,-517.547 541.219,-513.778 531.128,-510.549 531.317,-517.547"/>
</g>
<!-- Node41&#45;&gt;Node31 -->
<g id="edge36" class="edge"><title>Node41&#45;&gt;Node31</title>
<path fill="none" stroke="midnightblue" d="M637.756,-512.5C663.911,-512.5 696.432,-512.5 723.14,-512.5"/>
<polygon fill="midnightblue" stroke="midnightblue" points="723.441,-516 733.441,-512.5 723.441,-509 723.441,-516"/>
</g>
</g>
</svg>
