<?xml version="1.0" encoding="UTF-8" standalone="no"?>
<!DOCTYPE svg PUBLIC "-//W3C//DTD SVG 1.1//EN"
 "http://www.w3.org/Graphics/SVG/1.1/DTD/svg11.dtd">
<!-- Generated by graphviz version 2.38.0 (20140413.2041)
 -->
<!-- Title: openage::pyinterface::PyObjectRef::call_impl Pages: 1 -->
<svg width="442pt" height="78pt"
 viewBox="0.00 0.00 442.00 77.50" xmlns="http://www.w3.org/2000/svg" xmlns:xlink="http://www.w3.org/1999/xlink">
<g id="graph0" class="graph" transform="scale(1 1) rotate(0) translate(4 73.5)">
<title>openage::pyinterface::PyObjectRef::call_impl</title>
<polygon fill="white" stroke="none" points="-4,4 -4,-73.5 438,-73.5 438,4 -4,4"/>
<!-- Node26 -->
<g id="node1" class="node"><title>Node26</title>
<g id="a_node1"><a xlink:title=" ">
<polygon fill="#bfbfbf" stroke="black" points="0,-17 0,-47 122,-47 122,-17 0,-17"/>
<text text-anchor="start" x="8" y="-35" font-family="Helvetica,sans-Serif" font-size="10.00">openage::pyinterface</text>
<text text-anchor="middle" x="61" y="-24" font-family="Helvetica,sans-Serif" font-size="10.00">::PyObjectRef::call_impl</text>
</a>
</g>
</g>
<!-- Node27 -->
<g id="node2" class="node"><title>Node27</title>
<g id="a_node2"><a xlink:href="classopenage_1_1pyinterface_1_1_py_object_ref.xhtml#ac75d8f60c25c4a7570dcdf83b601d639" target="_top" xlink:title=" ">
<polygon fill="white" stroke="black" points="174,-39 174,-69 287,-69 287,-39 174,-39"/>
<text text-anchor="start" x="182" y="-57" font-family="Helvetica,sans-Serif" font-size="10.00">openage::pyinterface</text>
<text text-anchor="middle" x="230.5" y="-46" font-family="Helvetica,sans-Serif" font-size="10.00">::PyObjectRef::get_ref</text>
</a>
</g>
</g>
<!-- Node26&#45;&gt;Node27 -->
<g id="edge1" class="edge"><title>Node26&#45;&gt;Node27</title>
<path fill="none" stroke="midnightblue" d="M122.471,-39.9425C135.838,-41.6981 150.064,-43.5666 163.633,-45.3488"/>
<polygon fill="midnightblue" stroke="midnightblue" points="163.485,-48.8594 173.856,-46.6915 164.397,-41.919 163.485,-48.8594"/>
</g>
<!-- Node28 -->
<g id="node3" class="node"><title>Node28</title>
<g id="a_node3"><a xlink:href="namespaceopenage_1_1testing_1_1testing.xhtml#ac25bf81db406af62d08113ef7ae9fd6e" target="_top" xlink:title=" ">
<polygon fill="white" stroke="black" points="158,-0.5 158,-19.5 303,-19.5 303,-0.5 158,-0.5"/>
<text text-anchor="middle" x="230.5" y="-7.5" font-family="Helvetica,sans-Serif" font-size="10.00">openage.testing.testing.result</text>
</a>
</g>
</g>
<!-- Node26&#45;&gt;Node28 -->
<g id="edge2" class="edge"><title>Node26&#45;&gt;Node28</title>
<path fill="none" stroke="midnightblue" d="M122.471,-24.0575C130.756,-22.9694 139.37,-21.838 147.954,-20.7106"/>
<polygon fill="midnightblue" stroke="midnightblue" points="148.535,-24.1643 157.994,-19.3918 147.624,-17.2239 148.535,-24.1643"/>
</g>
<!-- Node29 -->
<g id="node4" class="node"><title>Node29</title>
<g id="a_node4"><a xlink:href="namespaceopenage_1_1util.xhtml#a7bc4421a5f0f57f3a0aba3f96eb8d19c" target="_top" xlink:title=" ">
<polygon fill="white" stroke="black" points="339,-0.5 339,-19.5 434,-19.5 434,-0.5 339,-0.5"/>
<text text-anchor="middle" x="386.5" y="-7.5" font-family="Helvetica,sans-Serif" font-size="10.00">openage::util::repr</text>
</a>
</g>
</g>
<!-- Node28&#45;&gt;Node29 -->
<g id="edge3" class="edge"><title>Node28&#45;&gt;Node29</title>
<path fill="none" stroke="midnightblue" d="M303.09,-3.26483C311.595,-3.21813 320.189,-3.28172 328.453,-3.4556"/>
<polygon fill="midnightblue" stroke="midnightblue" points="328.622,-6.9614 338.713,-3.73483 328.812,0.0360109 328.622,-6.9614"/>
</g>
<!-- Node29&#45;&gt;Node28 -->
<g id="edge4" class="edge"><title>Node29&#45;&gt;Node28</title>
<path fill="none" stroke="midnightblue" d="M338.713,-16.2652C330.626,-16.5381 322.01,-16.6958 313.312,-16.7383"/>
<polygon fill="midnightblue" stroke="midnightblue" points="313.091,-13.2383 303.09,-16.7352 313.089,-20.2383 313.091,-13.2383"/>
</g>
</g>
</svg>
