<?xml version="1.0" encoding="UTF-8" standalone="no"?>
<!DOCTYPE svg PUBLIC "-//W3C//DTD SVG 1.1//EN"
 "http://www.w3.org/Graphics/SVG/1.1/DTD/svg11.dtd">
<!-- Generated by graphviz version 2.38.0 (20140413.2041)
 -->
<!-- Title: openage::curve::ValueContainer::next_frame Pages: 1 -->
<svg width="810pt" height="283pt"
 viewBox="0.00 0.00 810.00 283.00" xmlns="http://www.w3.org/2000/svg" xmlns:xlink="http://www.w3.org/1999/xlink">
<g id="graph0" class="graph" transform="scale(1 1) rotate(0) translate(4 279)">
<title>openage::curve::ValueContainer::next_frame</title>
<polygon fill="white" stroke="none" points="-4,4 -4,-279 806,-279 806,4 -4,4"/>
<!-- Node20 -->
<g id="node1" class="node"><title>Node20</title>
<g id="a_node1"><a xlink:title=" ">
<polygon fill="#bfbfbf" stroke="black" points="0,-113.5 0,-143.5 154,-143.5 154,-113.5 0,-113.5"/>
<text text-anchor="start" x="8" y="-131.5" font-family="Helvetica,sans-Serif" font-size="10.00">openage::curve::ValueContainer</text>
<text text-anchor="middle" x="77" y="-120.5" font-family="Helvetica,sans-Serif" font-size="10.00">::next_frame</text>
</a>
</g>
</g>
<!-- Node21 -->
<g id="node2" class="node"><title>Node21</title>
<g id="a_node2"><a xlink:href="namespaceopenage_1_1curve_1_1tests.xhtml#afc4e799a037edab37e1e35a74da593b7" target="_top" xlink:title=" ">
<polygon fill="white" stroke="black" points="190,-113.5 190,-143.5 300,-143.5 300,-113.5 190,-113.5"/>
<text text-anchor="start" x="198" y="-131.5" font-family="Helvetica,sans-Serif" font-size="10.00">openage::curve::tests</text>
<text text-anchor="middle" x="245" y="-120.5" font-family="Helvetica,sans-Serif" font-size="10.00">::container</text>
</a>
</g>
</g>
<!-- Node20&#45;&gt;Node21 -->
<g id="edge1" class="edge"><title>Node20&#45;&gt;Node21</title>
<path fill="none" stroke="midnightblue" d="M154.198,-128.5C162.588,-128.5 171.072,-128.5 179.302,-128.5"/>
<polygon fill="midnightblue" stroke="midnightblue" points="179.566,-132 189.566,-128.5 179.566,-125 179.566,-132"/>
</g>
<!-- Node22 -->
<g id="node3" class="node"><title>Node22</title>
<g id="a_node3"><a xlink:href="namespaceopenage_1_1curve_1_1tests.xhtml#aafe8d47259322a390c43cae62d308296" target="_top" xlink:title=" ">
<polygon fill="white" stroke="black" points="336,-244.5 336,-274.5 446,-274.5 446,-244.5 336,-244.5"/>
<text text-anchor="start" x="344" y="-262.5" font-family="Helvetica,sans-Serif" font-size="10.00">openage::curve::tests</text>
<text text-anchor="middle" x="391" y="-251.5" font-family="Helvetica,sans-Serif" font-size="10.00">::test_map</text>
</a>
</g>
</g>
<!-- Node21&#45;&gt;Node22 -->
<g id="edge2" class="edge"><title>Node21&#45;&gt;Node22</title>
<path fill="none" stroke="midnightblue" d="M255.607,-143.87C270.436,-166.537 300.887,-209.091 336,-235.5 337.799,-236.853 339.686,-238.15 341.632,-239.391"/>
<polygon fill="midnightblue" stroke="midnightblue" points="340.051,-242.519 350.464,-244.473 343.542,-236.452 340.051,-242.519"/>
</g>
<!-- Node23 -->
<g id="node4" class="node"><title>Node23</title>
<g id="a_node4"><a xlink:href="namespaceopenage_1_1curve_1_1tests.xhtml#a994d019a14acd704605a0ccff85558c8" target="_top" xlink:title=" ">
<polygon fill="white" stroke="black" points="336,-195.5 336,-225.5 446,-225.5 446,-195.5 336,-195.5"/>
<text text-anchor="start" x="344" y="-213.5" font-family="Helvetica,sans-Serif" font-size="10.00">openage::curve::tests</text>
<text text-anchor="middle" x="391" y="-202.5" font-family="Helvetica,sans-Serif" font-size="10.00">::test_list</text>
</a>
</g>
</g>
<!-- Node21&#45;&gt;Node23 -->
<g id="edge3" class="edge"><title>Node21&#45;&gt;Node23</title>
<path fill="none" stroke="midnightblue" d="M271.927,-143.634C289.873,-154.072 314.333,-168.223 336,-180.5 341.695,-183.727 347.743,-187.12 353.653,-190.417"/>
<polygon fill="midnightblue" stroke="midnightblue" points="352.316,-193.678 362.756,-195.481 355.719,-187.561 352.316,-193.678"/>
</g>
<!-- Node24 -->
<g id="node5" class="node"><title>Node24</title>
<g id="a_node5"><a xlink:href="namespaceopenage_1_1curve_1_1tests.xhtml#ae4b27fadf76c2a10960f6b7e7ff7c724" target="_top" xlink:title=" ">
<polygon fill="white" stroke="black" points="336,-69.5 336,-99.5 446,-99.5 446,-69.5 336,-69.5"/>
<text text-anchor="start" x="344" y="-87.5" font-family="Helvetica,sans-Serif" font-size="10.00">openage::curve::tests</text>
<text text-anchor="middle" x="391" y="-76.5" font-family="Helvetica,sans-Serif" font-size="10.00">::test_queue</text>
</a>
</g>
</g>
<!-- Node21&#45;&gt;Node24 -->
<g id="edge4" class="edge"><title>Node21&#45;&gt;Node24</title>
<path fill="none" stroke="midnightblue" d="M295.154,-113.481C306.611,-109.98 318.93,-106.216 330.772,-102.597"/>
<polygon fill="midnightblue" stroke="midnightblue" points="332.038,-105.87 340.579,-99.6009 329.992,-99.176 332.038,-105.87"/>
</g>
<!-- Node25 -->
<g id="node6" class="node"><title>Node25</title>
<g id="a_node6"><a xlink:href="classopenage_1_1curve_1_1_queue.xhtml#ae7d94b0875221550e5af663a64ea2aec" target="_top" xlink:title=" ">
<polygon fill="white" stroke="black" points="493,-144.5 493,-174.5 609,-174.5 609,-144.5 493,-144.5"/>
<text text-anchor="start" x="501" y="-162.5" font-family="Helvetica,sans-Serif" font-size="10.00">openage::curve::Queue</text>
<text text-anchor="middle" x="551" y="-151.5" font-family="Helvetica,sans-Serif" font-size="10.00">::insert</text>
</a>
</g>
</g>
<!-- Node24&#45;&gt;Node25 -->
<g id="edge5" class="edge"><title>Node24&#45;&gt;Node25</title>
<path fill="none" stroke="midnightblue" d="M416.678,-99.5732C434.467,-110.099 459.251,-124.075 482,-134.5 486.669,-136.639 491.578,-138.732 496.532,-140.739"/>
<polygon fill="midnightblue" stroke="midnightblue" points="495.475,-144.084 506.063,-144.482 498.034,-137.569 495.475,-144.084"/>
</g>
<!-- Node27 -->
<g id="node8" class="node"><title>Node27</title>
<g id="a_node8"><a xlink:href="classopenage_1_1curve_1_1_queue.xhtml#acbff846f0aad39b82c1dbffe83f80fba" target="_top" xlink:title=" ">
<polygon fill="white" stroke="black" points="493,-95.5 493,-125.5 609,-125.5 609,-95.5 493,-95.5"/>
<text text-anchor="start" x="501" y="-113.5" font-family="Helvetica,sans-Serif" font-size="10.00">openage::curve::Queue</text>
<text text-anchor="middle" x="551" y="-102.5" font-family="Helvetica,sans-Serif" font-size="10.00">::begin</text>
</a>
</g>
</g>
<!-- Node24&#45;&gt;Node27 -->
<g id="edge8" class="edge"><title>Node24&#45;&gt;Node27</title>
<path fill="none" stroke="midnightblue" d="M446.375,-93.4477C458.091,-95.3757 470.61,-97.4358 482.75,-99.4335"/>
<polygon fill="midnightblue" stroke="midnightblue" points="482.397,-102.922 492.833,-101.093 483.534,-96.0154 482.397,-102.922"/>
</g>
<!-- Node28 -->
<g id="node9" class="node"><title>Node28</title>
<g id="a_node9"><a xlink:href="classopenage_1_1curve_1_1_queue.xhtml#a3ba35a56fa550d939d0d16c71c63e56c" target="_top" xlink:title=" ">
<polygon fill="white" stroke="black" points="493,-0.5 493,-30.5 609,-30.5 609,-0.5 493,-0.5"/>
<text text-anchor="start" x="501" y="-18.5" font-family="Helvetica,sans-Serif" font-size="10.00">openage::curve::Queue</text>
<text text-anchor="middle" x="551" y="-7.5" font-family="Helvetica,sans-Serif" font-size="10.00">::between</text>
</a>
</g>
</g>
<!-- Node24&#45;&gt;Node28 -->
<g id="edge11" class="edge"><title>Node24&#45;&gt;Node28</title>
<path fill="none" stroke="midnightblue" d="M426.674,-69.3577C450.033,-59.1565 481.037,-45.6167 506.114,-34.6652"/>
<polygon fill="midnightblue" stroke="midnightblue" points="507.644,-37.8167 515.407,-30.607 504.842,-31.4017 507.644,-37.8167"/>
</g>
<!-- Node29 -->
<g id="node10" class="node"><title>Node29</title>
<g id="a_node10"><a xlink:href="classopenage_1_1curve_1_1_queue.xhtml#a3a60297cec80ae6d759ea3567922db8e" target="_top" xlink:title=" ">
<polygon fill="white" stroke="black" points="482,-57 482,-76 620,-76 620,-57 482,-57"/>
<text text-anchor="middle" x="551" y="-64" font-family="Helvetica,sans-Serif" font-size="10.00">openage::curve::Queue::end</text>
</a>
</g>
</g>
<!-- Node24&#45;&gt;Node29 -->
<g id="edge13" class="edge"><title>Node24&#45;&gt;Node29</title>
<path fill="none" stroke="midnightblue" d="M446.375,-78.3054C454.587,-77.3698 463.194,-76.3893 471.788,-75.4102"/>
<polygon fill="midnightblue" stroke="midnightblue" points="472.308,-78.8737 481.847,-74.2642 471.515,-71.9187 472.308,-78.8737"/>
</g>
<!-- Node25&#45;&gt;Node21 -->
<g id="edge6" class="edge"><title>Node25&#45;&gt;Node21</title>
<path fill="none" stroke="midnightblue" d="M492.766,-153.664C440.892,-148.374 364.519,-140.586 310.502,-135.078"/>
<polygon fill="midnightblue" stroke="midnightblue" points="310.653,-131.575 300.349,-134.042 309.942,-138.539 310.653,-131.575"/>
</g>
<!-- Node26 -->
<g id="node7" class="node"><title>Node26</title>
<g id="a_node7"><a xlink:href="namespaceopenage_1_1console_1_1tests.xhtml#a46ebd3333dc9196558ac9aced828d117" target="_top" xlink:title=" ">
<polygon fill="white" stroke="black" points="656,-101 656,-120 802,-120 802,-101 656,-101"/>
<text text-anchor="middle" x="729" y="-108" font-family="Helvetica,sans-Serif" font-size="10.00">openage::console::tests::max</text>
</a>
</g>
</g>
<!-- Node25&#45;&gt;Node26 -->
<g id="edge7" class="edge"><title>Node25&#45;&gt;Node26</title>
<path fill="none" stroke="midnightblue" d="M606.242,-144.399C631.253,-137.435 660.551,-129.278 684.14,-122.711"/>
<polygon fill="midnightblue" stroke="midnightblue" points="685.176,-126.056 693.871,-120.002 683.298,-119.312 685.176,-126.056"/>
</g>
<!-- Node27&#45;&gt;Node21 -->
<g id="edge9" class="edge"><title>Node27&#45;&gt;Node21</title>
<path fill="none" stroke="midnightblue" d="M492.766,-113.889C440.892,-116.96 364.519,-121.482 310.502,-124.681"/>
<polygon fill="midnightblue" stroke="midnightblue" points="310.125,-121.197 300.349,-125.282 310.539,-128.185 310.125,-121.197"/>
</g>
<!-- Node27&#45;&gt;Node26 -->
<g id="edge10" class="edge"><title>Node27&#45;&gt;Node26</title>
<path fill="none" stroke="midnightblue" d="M609.142,-110.5C620.748,-110.5 633.173,-110.5 645.456,-110.5"/>
<polygon fill="midnightblue" stroke="midnightblue" points="645.72,-114 655.72,-110.5 645.72,-107 645.72,-114"/>
</g>
<!-- Node28&#45;&gt;Node21 -->
<g id="edge12" class="edge"><title>Node28&#45;&gt;Node21</title>
<path fill="none" stroke="midnightblue" d="M492.817,-13.9702C448.109,-14.9113 385.459,-21.0454 336,-44.5 306.429,-58.5232 280.033,-85.8239 263.595,-105.501"/>
<polygon fill="midnightblue" stroke="midnightblue" points="260.763,-103.436 257.179,-113.407 266.198,-107.847 260.763,-103.436"/>
</g>
<!-- Node29&#45;&gt;Node21 -->
<g id="edge14" class="edge"><title>Node29&#45;&gt;Node21</title>
<path fill="none" stroke="midnightblue" d="M509.72,-56.928C465.757,-48.3482 393.908,-39.8563 336,-59.5 308.836,-68.7145 283.442,-89.7879 266.601,-106.238"/>
<polygon fill="midnightblue" stroke="midnightblue" points="264.044,-103.846 259.489,-113.412 269.015,-108.775 264.044,-103.846"/>
</g>
<!-- Node29&#45;&gt;Node26 -->
<g id="edge15" class="edge"><title>Node29&#45;&gt;Node26</title>
<path fill="none" stroke="midnightblue" d="M590.189,-76.0473C616.482,-82.6204 651.619,-91.4048 679.833,-98.4583"/>
<polygon fill="midnightblue" stroke="midnightblue" points="679.335,-101.941 689.885,-100.971 681.033,-95.1504 679.335,-101.941"/>
</g>
</g>
</svg>
