<?xml version="1.0" encoding="UTF-8" standalone="no"?>
<!DOCTYPE svg PUBLIC "-//W3C//DTD SVG 1.1//EN"
 "http://www.w3.org/Graphics/SVG/1.1/DTD/svg11.dtd">
<!-- Generated by graphviz version 2.38.0 (20140413.2041)
 -->
<!-- Title: openage::ObjectProducer::initialise Pages: 1 -->
<!--zoomable 340 -->
<svg id="main" version="1.1" xmlns="http://www.w3.org/2000/svg" xmlns:xlink="http://www.w3.org/1999/xlink" xml:space="preserve" onload="init(evt)">
<style type="text/css"><![CDATA[
.edge:hover path { stroke: red; }
.edge:hover polygon { stroke: red; fill: red; }
]]></style>
<script type="text/javascript"><![CDATA[
var edges = document.getElementsByTagName('g');
if (edges && edges.length) {
  for (var i=0;i<edges.length;i++) {
    if (edges[i].id.substr(0,4)=='edge') {
      edges[i].setAttribute('class','edge');
    }
  }
}
]]></script>
        <defs>
                <circle id="rim" cx="0" cy="0" r="7"/>
                <circle id="rim2" cx="0" cy="0" r="3.5"/>
                <g id="zoomPlus">
                        <use xlink:href="#rim" fill="#404040">
                                <set attributeName="fill" to="#808080" begin="zoomplus.mouseover" end="zoomplus.mouseout"/>
                        </use>
                        <path d="M-4,0h8M0,-4v8" fill="none" stroke="white" stroke-width="1.5" pointer-events="none"/>
                </g>
                <g id="zoomMin">
                        <use xlink:href="#rim" fill="#404040">
                                <set attributeName="fill" to="#808080" begin="zoomminus.mouseover" end="zoomminus.mouseout"/>
                        </use>
                        <path d="M-4,0h8" fill="none" stroke="white" stroke-width="1.5" pointer-events="none"/>
                </g>
                <g id="dirArrow">
                        <path fill="none" stroke="white" stroke-width="1.5" d="M0,-3.0v7 M-2.5,-0.5L0,-3.0L2.5,-0.5"/>
                </g>
               <g id="resetDef">
                       <use xlink:href="#rim2" fill="#404040">
                               <set attributeName="fill" to="#808080" begin="reset.mouseover" end="reset.mouseout"/>
                       </use>
               </g>
        </defs>

<script type="text/javascript">
var viewWidth = 824;
var viewHeight = 340;
var sectionId = 'dynsection-2';
</script>
<script xlink:href="svgpan.js"/>
<svg id="graph" class="graph">
<g id="viewport">
<title>openage::ObjectProducer::initialise</title>
<polygon fill="white" stroke="none" points="-4,4 -4,-335.5 820,-335.5 820,4 -4,4"/>
<!-- Node6 -->
<g id="node1" class="node"><title>Node6</title>
<g id="a_node1"><a xlink:title=" ">
<polygon fill="#bfbfbf" stroke="black" points="0,-159 0,-189 127,-189 127,-159 0,-159"/>
<text text-anchor="start" x="8" y="-177" font-family="Helvetica,sans-Serif" font-size="10.00">openage::ObjectProducer</text>
<text text-anchor="middle" x="63.5" y="-166" font-family="Helvetica,sans-Serif" font-size="10.00">::initialise</text>
</a>
</g>
</g>
<!-- Node7 -->
<g id="node2" class="node"><title>Node7</title>
<g id="a_node2"><a xlink:href="classopenage_1_1_unit.xhtml#ab74b08bb7725863fc63839d798f6aedb" target="_top" xlink:title=" ">
<polygon fill="white" stroke="black" points="179.5,-301 179.5,-331 277.5,-331 277.5,-301 179.5,-301"/>
<text text-anchor="start" x="187.5" y="-319" font-family="Helvetica,sans-Serif" font-size="10.00">openage::Unit::add</text>
<text text-anchor="middle" x="228.5" y="-308" font-family="Helvetica,sans-Serif" font-size="10.00">_attribute</text>
</a>
</g>
</g>
<!-- Node6&#45;&gt;Node7 -->
<g id="edge1" class="edge"><title>Node6&#45;&gt;Node7</title>
<path fill="none" stroke="midnightblue" d="M73.553,-189.019C89.027,-213.535 122.816,-262.288 163,-291 165.638,-292.885 168.438,-294.651 171.335,-296.301"/>
<polygon fill="midnightblue" stroke="midnightblue" points="169.764,-299.429 180.255,-300.91 172.977,-293.21 169.764,-299.429"/>
</g>
<!-- Node9 -->
<g id="node4" class="node"><title>Node9</title>
<g id="a_node4"><a xlink:href="namespaceopenage_1_1log.xhtml#aad3d76b2466dbc4f81552935f2d84faa" target="_top" xlink:title="debug message">
<polygon fill="white" stroke="black" points="184.5,-262.5 184.5,-281.5 272.5,-281.5 272.5,-262.5 184.5,-262.5"/>
<text text-anchor="middle" x="228.5" y="-269.5" font-family="Helvetica,sans-Serif" font-size="10.00">openage.log.dbg</text>
</a>
</g>
</g>
<!-- Node6&#45;&gt;Node9 -->
<g id="edge3" class="edge"><title>Node6&#45;&gt;Node9</title>
<path fill="none" stroke="midnightblue" d="M79.5179,-189.229C97.7525,-206.916 130.161,-235.852 163,-253 167.301,-255.246 171.905,-257.263 176.601,-259.067"/>
<polygon fill="midnightblue" stroke="midnightblue" points="175.707,-262.462 186.302,-262.475 178.027,-255.858 175.707,-262.462"/>
</g>
<!-- Node10 -->
<g id="node5" class="node"><title>Node10</title>
<g id="a_node5"><a xlink:href="classopenage_1_1_player.xhtml#a67c7f6853d4be5c38d2456169af3d5a1" target="_top" xlink:title=" ">
<polygon fill="white" stroke="black" points="163,-224.5 163,-243.5 294,-243.5 294,-224.5 163,-224.5"/>
<text text-anchor="middle" x="228.5" y="-231.5" font-family="Helvetica,sans-Serif" font-size="10.00">openage::Player::get_type</text>
</a>
</g>
</g>
<!-- Node6&#45;&gt;Node10 -->
<g id="edge4" class="edge"><title>Node6&#45;&gt;Node10</title>
<path fill="none" stroke="midnightblue" d="M105.632,-189.141C132.275,-198.948 166.618,-211.589 192.053,-220.952"/>
<polygon fill="midnightblue" stroke="midnightblue" points="191.079,-224.323 201.672,-224.493 193.497,-217.754 191.079,-224.323"/>
</g>
<!-- Node13 -->
<g id="node8" class="node"><title>Node13</title>
<g id="a_node8"><a xlink:href="classopenage_1_1log_1_1_log_source.xhtml#a5640099e20af4cd368c767dbcef3a1df" target="_top" xlink:title=" ">
<polygon fill="white" stroke="black" points="489,-202.5 489,-221.5 632,-221.5 632,-202.5 489,-202.5"/>
<text text-anchor="middle" x="560.5" y="-209.5" font-family="Helvetica,sans-Serif" font-size="10.00">openage::log::LogSource::log</text>
</a>
</g>
</g>
<!-- Node6&#45;&gt;Node13 -->
<g id="edge14" class="edge"><title>Node6&#45;&gt;Node13</title>
<path fill="none" stroke="midnightblue" d="M127.192,-178.813C216.515,-185.67 380.45,-198.255 478.758,-205.802"/>
<polygon fill="midnightblue" stroke="midnightblue" points="478.704,-209.308 488.942,-206.583 479.239,-202.328 478.704,-209.308"/>
</g>
<!-- Node18 -->
<g id="node13" class="node"><title>Node18</title>
<g id="a_node13"><a xlink:href="classopenage_1_1_unit.xhtml#a37f35cd78b09fea32514ed2b2dd87b64" target="_top" xlink:title=" ">
<polygon fill="white" stroke="black" points="179,-137 179,-167 278,-167 278,-137 179,-137"/>
<text text-anchor="start" x="187" y="-155" font-family="Helvetica,sans-Serif" font-size="10.00">openage::Unit::give</text>
<text text-anchor="middle" x="228.5" y="-144" font-family="Helvetica,sans-Serif" font-size="10.00">_ability</text>
</a>
</g>
</g>
<!-- Node6&#45;&gt;Node18 -->
<g id="edge12" class="edge"><title>Node6&#45;&gt;Node18</title>
<path fill="none" stroke="midnightblue" d="M127.054,-165.557C140.719,-163.713 155.135,-161.767 168.65,-159.943"/>
<polygon fill="midnightblue" stroke="midnightblue" points="169.339,-163.382 178.781,-158.576 168.403,-156.445 169.339,-163.382"/>
</g>
<!-- Node19 -->
<g id="node14" class="node"><title>Node19</title>
<g id="a_node14"><a xlink:href="classopenage_1_1_unit_type.xhtml#a810c763e421cd95a9c64ab4c3e351140" target="_top" xlink:title=" ">
<polygon fill="white" stroke="black" points="176.5,-88 176.5,-118 280.5,-118 280.5,-88 176.5,-88"/>
<text text-anchor="start" x="184.5" y="-106" font-family="Helvetica,sans-Serif" font-size="10.00">openage::UnitType::</text>
<text text-anchor="middle" x="228.5" y="-95" font-family="Helvetica,sans-Serif" font-size="10.00">initialise</text>
</a>
</g>
</g>
<!-- Node6&#45;&gt;Node19 -->
<g id="edge13" class="edge"><title>Node6&#45;&gt;Node19</title>
<path fill="none" stroke="midnightblue" d="M95.314,-158.96C114.614,-149.703 140.086,-137.778 163,-128 167.779,-125.961 172.785,-123.896 177.805,-121.874"/>
<polygon fill="midnightblue" stroke="midnightblue" points="179.418,-125 187.419,-118.054 176.833,-118.494 179.418,-125"/>
</g>
<!-- Node20 -->
<g id="node15" class="node"><title>Node20</title>
<g id="a_node15"><a xlink:href="classopenage_1_1_unit.xhtml#aecd686fafc67487f4df4d3637f2621f4" target="_top" xlink:title=" ">
<polygon fill="white" stroke="black" points="176.5,-39 176.5,-69 280.5,-69 280.5,-39 176.5,-39"/>
<text text-anchor="start" x="184.5" y="-57" font-family="Helvetica,sans-Serif" font-size="10.00">openage::Unit::push</text>
<text text-anchor="middle" x="228.5" y="-46" font-family="Helvetica,sans-Serif" font-size="10.00">_action</text>
</a>
</g>
</g>
<!-- Node6&#45;&gt;Node20 -->
<g id="edge15" class="edge"><title>Node6&#45;&gt;Node20</title>
<path fill="none" stroke="midnightblue" d="M76.7272,-158.911C94.0417,-138.388 127.563,-101.641 163,-79 166.118,-77.0077 169.42,-75.1327 172.817,-73.3759"/>
<polygon fill="midnightblue" stroke="midnightblue" points="174.454,-76.4726 181.966,-69.0014 171.435,-70.1572 174.454,-76.4726"/>
</g>
<!-- Node25 -->
<g id="node20" class="node"><title>Node25</title>
<g id="a_node20"><a xlink:href="classopenage_1_1_unit.xhtml#a24ad46b827d50be1c5af4eccc5111929" target="_top" xlink:title=" ">
<polygon fill="white" stroke="black" points="176.5,-0.5 176.5,-19.5 280.5,-19.5 280.5,-0.5 176.5,-0.5"/>
<text text-anchor="middle" x="228.5" y="-7.5" font-family="Helvetica,sans-Serif" font-size="10.00">openage::Unit::reset</text>
</a>
</g>
</g>
<!-- Node6&#45;&gt;Node25 -->
<g id="edge20" class="edge"><title>Node6&#45;&gt;Node25</title>
<path fill="none" stroke="midnightblue" d="M70.7144,-158.892C83.5323,-129.597 115.72,-64.8923 163,-30 166.198,-27.6396 169.681,-25.5536 173.317,-23.7107"/>
<polygon fill="midnightblue" stroke="midnightblue" points="174.86,-26.8551 182.593,-19.6128 172.032,-20.452 174.86,-26.8551"/>
</g>
<!-- Node8 -->
<g id="node3" class="node"><title>Node8</title>
<g id="a_node3"><a xlink:href="classopenage_1_1_attributes.xhtml#a9ffc8cfe4d75fbea84e7846cc6a8196f" target="_top" xlink:title=" ">
<polygon fill="white" stroke="black" points="330,-306.5 330,-325.5 453,-325.5 453,-306.5 330,-306.5"/>
<text text-anchor="middle" x="391.5" y="-313.5" font-family="Helvetica,sans-Serif" font-size="10.00">openage::Attributes::add</text>
</a>
</g>
</g>
<!-- Node7&#45;&gt;Node8 -->
<g id="edge2" class="edge"><title>Node7&#45;&gt;Node8</title>
<path fill="none" stroke="midnightblue" d="M277.805,-316C290.998,-316 305.571,-316 319.737,-316"/>
<polygon fill="midnightblue" stroke="midnightblue" points="319.954,-319.5 329.954,-316 319.954,-312.5 319.954,-319.5"/>
</g>
<!-- Node11 -->
<g id="node6" class="node"><title>Node11</title>
<g id="a_node6"><a xlink:href="namespaceopenage_1_1log.xhtml#a0eff614e7d6e818746700ed9d29e583f" target="_top" xlink:title=" ">
<polygon fill="white" stroke="black" points="346,-262.5 346,-281.5 437,-281.5 437,-262.5 346,-262.5"/>
<text text-anchor="middle" x="391.5" y="-269.5" font-family="Helvetica,sans-Serif" font-size="10.00">openage::log::log</text>
</a>
</g>
</g>
<!-- Node10&#45;&gt;Node11 -->
<g id="edge5" class="edge"><title>Node10&#45;&gt;Node11</title>
<path fill="none" stroke="midnightblue" d="M270.127,-243.589C291.468,-248.626 317.812,-254.844 340.408,-260.177"/>
<polygon fill="midnightblue" stroke="midnightblue" points="339.628,-263.589 350.165,-262.48 341.236,-256.776 339.628,-263.589"/>
</g>
<!-- Node17 -->
<g id="node12" class="node"><title>Node17</title>
<g id="a_node12"><a xlink:href="namespaceopenage_1_1log.xhtml#a3f1815b698faf5786fc5e20bcac7704b" target="_top" xlink:title="info message">
<polygon fill="white" stroke="black" points="348,-224.5 348,-243.5 435,-243.5 435,-224.5 348,-224.5"/>
<text text-anchor="middle" x="391.5" y="-231.5" font-family="Helvetica,sans-Serif" font-size="10.00">openage.log.info</text>
</a>
</g>
</g>
<!-- Node10&#45;&gt;Node17 -->
<g id="edge11" class="edge"><title>Node10&#45;&gt;Node17</title>
<path fill="none" stroke="midnightblue" d="M294.057,-234C308.418,-234 323.484,-234 337.327,-234"/>
<polygon fill="midnightblue" stroke="midnightblue" points="337.642,-237.5 347.642,-234 337.642,-230.5 337.642,-237.5"/>
</g>
<!-- Node12 -->
<g id="node7" class="node"><title>Node12</title>
<g id="a_node7"><a xlink:href="namespaceopenage_1_1log.xhtml#a3fbb0c225d01e222648ec28a43507188" target="_top" xlink:title=" ">
<polygon fill="white" stroke="black" points="505.5,-257 505.5,-287 615.5,-287 615.5,-257 505.5,-257"/>
<text text-anchor="start" x="513.5" y="-275" font-family="Helvetica,sans-Serif" font-size="10.00">openage::log::general</text>
<text text-anchor="middle" x="560.5" y="-264" font-family="Helvetica,sans-Serif" font-size="10.00">_source</text>
</a>
</g>
</g>
<!-- Node11&#45;&gt;Node12 -->
<g id="edge6" class="edge"><title>Node11&#45;&gt;Node12</title>
<path fill="none" stroke="midnightblue" d="M437.253,-272C455.025,-272 475.805,-272 495.139,-272"/>
<polygon fill="midnightblue" stroke="midnightblue" points="495.397,-275.5 505.397,-272 495.397,-268.5 495.397,-275.5"/>
</g>
<!-- Node11&#45;&gt;Node13 -->
<g id="edge7" class="edge"><title>Node11&#45;&gt;Node13</title>
<path fill="none" stroke="midnightblue" d="M424.337,-262.416C433.618,-259.51 443.749,-256.23 453,-253 477.868,-244.318 505.629,-233.596 526.572,-225.295"/>
<polygon fill="midnightblue" stroke="midnightblue" points="527.976,-228.503 535.971,-221.55 525.385,-222 527.976,-228.503"/>
</g>
<!-- Node14 -->
<g id="node9" class="node"><title>Node14</title>
<g id="a_node9"><a xlink:href="namespaceopenage_1_1log.xhtml#a3d2885be9c3a09b9ff7ee8764b2e5f39" target="_top" xlink:title=" ">
<polygon fill="white" stroke="black" points="690,-246 690,-276 794,-276 794,-246 690,-246"/>
<text text-anchor="start" x="698" y="-264" font-family="Helvetica,sans-Serif" font-size="10.00">openage::log::global</text>
<text text-anchor="middle" x="742" y="-253" font-family="Helvetica,sans-Serif" font-size="10.00">_stdoutsink</text>
</a>
</g>
</g>
<!-- Node13&#45;&gt;Node14 -->
<g id="edge8" class="edge"><title>Node13&#45;&gt;Node14</title>
<path fill="none" stroke="midnightblue" d="M596.536,-221.564C620.265,-228.042 652.246,-236.772 680.085,-244.371"/>
<polygon fill="midnightblue" stroke="midnightblue" points="679.17,-247.75 689.739,-247.007 681.014,-240.997 679.17,-247.75"/>
</g>
<!-- Node15 -->
<g id="node10" class="node"><title>Node15</title>
<g id="a_node10"><a xlink:href="classopenage_1_1log_1_1_log_sink_list.xhtml#a2d47416fab12651553b4b58c86fd6f84" target="_top" xlink:title=" ">
<polygon fill="white" stroke="black" points="677.5,-197 677.5,-227 806.5,-227 806.5,-197 677.5,-197"/>
<text text-anchor="start" x="685.5" y="-215" font-family="Helvetica,sans-Serif" font-size="10.00">openage::log::LogSinkList</text>
<text text-anchor="middle" x="742" y="-204" font-family="Helvetica,sans-Serif" font-size="10.00">::instance</text>
</a>
</g>
</g>
<!-- Node13&#45;&gt;Node15 -->
<g id="edge9" class="edge"><title>Node13&#45;&gt;Node15</title>
<path fill="none" stroke="midnightblue" d="M632.185,-212C643.719,-212 655.693,-212 667.297,-212"/>
<polygon fill="midnightblue" stroke="midnightblue" points="667.38,-215.5 677.379,-212 667.379,-208.5 667.38,-215.5"/>
</g>
<!-- Node16 -->
<g id="node11" class="node"><title>Node16</title>
<g id="a_node11"><a xlink:href="classopenage_1_1log_1_1_log_sink_list.xhtml#a8456b84ab55e1fe151c51438c5bfebdd" target="_top" xlink:title=" ">
<polygon fill="white" stroke="black" points="668,-158.5 668,-177.5 816,-177.5 816,-158.5 668,-158.5"/>
<text text-anchor="middle" x="742" y="-165.5" font-family="Helvetica,sans-Serif" font-size="10.00">openage::log::LogSinkList::log</text>
</a>
</g>
</g>
<!-- Node13&#45;&gt;Node16 -->
<g id="edge10" class="edge"><title>Node13&#45;&gt;Node16</title>
<path fill="none" stroke="midnightblue" d="M600.449,-202.453C627.382,-195.851 663.415,-187.018 692.253,-179.949"/>
<polygon fill="midnightblue" stroke="midnightblue" points="693.248,-183.309 702.127,-177.529 691.581,-176.51 693.248,-183.309"/>
</g>
<!-- Node21 -->
<g id="node16" class="node"><title>Node21</title>
<g id="a_node16"><a xlink:href="classopenage_1_1_unit.xhtml#a21542f7813db482fd36799cf12971979" target="_top" xlink:title=" ">
<polygon fill="white" stroke="black" points="335.5,-39 335.5,-69 447.5,-69 447.5,-39 335.5,-39"/>
<text text-anchor="start" x="343.5" y="-57" font-family="Helvetica,sans-Serif" font-size="10.00">openage::Unit::accept</text>
<text text-anchor="middle" x="391.5" y="-46" font-family="Helvetica,sans-Serif" font-size="10.00">_commands</text>
</a>
</g>
</g>
<!-- Node20&#45;&gt;Node21 -->
<g id="edge16" class="edge"><title>Node20&#45;&gt;Node21</title>
<path fill="none" stroke="midnightblue" d="M280.884,-54C295.016,-54 310.531,-54 325.329,-54"/>
<polygon fill="midnightblue" stroke="midnightblue" points="325.433,-57.5001 335.433,-54 325.433,-50.5001 325.433,-57.5001"/>
</g>
<!-- Node22 -->
<g id="node17" class="node"><title>Node22</title>
<g id="a_node17"><a xlink:href="classopenage_1_1_unit.xhtml#a257ef8a7aeceb306d372ef745b40ef90" target="_top" xlink:title=" ">
<polygon fill="white" stroke="black" points="511.5,-61 511.5,-91 609.5,-91 609.5,-61 511.5,-61"/>
<text text-anchor="start" x="519.5" y="-79" font-family="Helvetica,sans-Serif" font-size="10.00">openage::Unit::has</text>
<text text-anchor="middle" x="560.5" y="-68" font-family="Helvetica,sans-Serif" font-size="10.00">_action</text>
</a>
</g>
</g>
<!-- Node21&#45;&gt;Node22 -->
<g id="edge17" class="edge"><title>Node21&#45;&gt;Node22</title>
<path fill="none" stroke="midnightblue" d="M447.645,-61.2646C464.879,-63.5349 483.942,-66.0462 501.374,-68.3427"/>
<polygon fill="midnightblue" stroke="midnightblue" points="501.052,-71.8304 511.423,-69.6665 501.966,-64.8904 501.052,-71.8304"/>
</g>
<!-- Node23 -->
<g id="node18" class="node"><title>Node23</title>
<g id="a_node18"><a xlink:href="classopenage_1_1_unit.xhtml#a86a49987e082055274e98a142baffad8" target="_top" xlink:title=" ">
<polygon fill="white" stroke="black" points="512.5,-22.5 512.5,-41.5 608.5,-41.5 608.5,-22.5 512.5,-22.5"/>
<text text-anchor="middle" x="560.5" y="-29.5" font-family="Helvetica,sans-Serif" font-size="10.00">openage::Unit::top</text>
</a>
</g>
</g>
<!-- Node21&#45;&gt;Node23 -->
<g id="edge18" class="edge"><title>Node21&#45;&gt;Node23</title>
<path fill="none" stroke="midnightblue" d="M447.645,-46.7354C465.117,-44.4337 484.469,-41.8843 502.096,-39.5622"/>
<polygon fill="midnightblue" stroke="midnightblue" points="502.791,-43.001 512.248,-38.2248 501.876,-36.061 502.791,-43.001"/>
</g>
<!-- Node24 -->
<g id="node19" class="node"><title>Node24</title>
<g id="a_node19"><a xlink:href="namespaceopenage_1_1log.xhtml#a325b0901ddb3f2af36f93781b7dd9744" target="_top" xlink:title="error message">
<polygon fill="white" stroke="black" points="700.5,-22.5 700.5,-41.5 783.5,-41.5 783.5,-22.5 700.5,-22.5"/>
<text text-anchor="middle" x="742" y="-29.5" font-family="Helvetica,sans-Serif" font-size="10.00">openage.log.err</text>
</a>
</g>
</g>
<!-- Node23&#45;&gt;Node24 -->
<g id="edge19" class="edge"><title>Node23&#45;&gt;Node24</title>
<path fill="none" stroke="midnightblue" d="M608.662,-32C633.676,-32 664.437,-32 690.004,-32"/>
<polygon fill="midnightblue" stroke="midnightblue" points="690.248,-35.5001 700.248,-32 690.248,-28.5001 690.248,-35.5001"/>
</g>
</g>
</svg>
        <g id="navigator" transform="translate(0 0)" fill="#404254">
                <rect fill="#f2f5e9" fill-opacity="0.5" stroke="#606060" stroke-width=".5" x="0" y="0" width="60" height="60"/>
                <use id="zoomplus" xlink:href="#zoomPlus" x="17" y="9" onmousedown="handleZoom(evt,'in')"/>
                <use id="zoomminus" xlink:href="#zoomMin" x="42" y="9" onmousedown="handleZoom(evt,'out')"/>
                <use id="reset" xlink:href="#resetDef" x="30" y="36" onmousedown="handleReset()"/>
                <g id="arrowUp" xlink:href="#dirArrow" transform="translate(30 24)" onmousedown="handlePan(0,-1)">
                  <use xlink:href="#rim" fill="#404040">
                        <set attributeName="fill" to="#808080" begin="arrowUp.mouseover" end="arrowUp.mouseout"/>
                  </use>
                  <path fill="none" stroke="white" stroke-width="1.5" d="M0,-3.0v7 M-2.5,-0.5L0,-3.0L2.5,-0.5"/>
                </g>
                <g id="arrowRight" xlink:href="#dirArrow" transform="rotate(90) translate(36 -43)" onmousedown="handlePan(1,0)">
                  <use xlink:href="#rim" fill="#404040">
                        <set attributeName="fill" to="#808080" begin="arrowRight.mouseover" end="arrowRight.mouseout"/>
                  </use>
                  <path fill="none" stroke="white" stroke-width="1.5" d="M0,-3.0v7 M-2.5,-0.5L0,-3.0L2.5,-0.5"/>
                </g>
                <g id="arrowDown" xlink:href="#dirArrow" transform="rotate(180) translate(-30 -48)" onmousedown="handlePan(0,1)">
                  <use xlink:href="#rim" fill="#404040">
                        <set attributeName="fill" to="#808080" begin="arrowDown.mouseover" end="arrowDown.mouseout"/>
                  </use>
                  <path fill="none" stroke="white" stroke-width="1.5" d="M0,-3.0v7 M-2.5,-0.5L0,-3.0L2.5,-0.5"/>
                </g>
                <g id="arrowLeft" xlink:href="#dirArrow" transform="rotate(270) translate(-36 17)" onmousedown="handlePan(-1,0)">
                  <use xlink:href="#rim" fill="#404040">
                        <set attributeName="fill" to="#808080" begin="arrowLeft.mouseover" end="arrowLeft.mouseout"/>
                  </use>
                  <path fill="none" stroke="white" stroke-width="1.5" d="M0,-3.0v7 M-2.5,-0.5L0,-3.0L2.5,-0.5"/>
                </g>
        </g>
        <svg viewBox="0 0 15 15" width="100%" height="30px" preserveAspectRatio="xMaxYMin meet">
         <g id="arrow_out" transform="scale(0.3 0.3)">
          <a xlink:href="classopenage_1_1_object_producer_aee34f7883059625ffd3fb4bd5a43371f_cgraph_org.svg" target="_base">
           <rect id="button" ry="5" rx="5" y="6" x="6" height="38" width="38"
                fill="#f2f5e9" fill-opacity="0.5" stroke="#606060" stroke-width="1.0"/>
           <path id="arrow"
             d="M 11.500037,31.436501 C 11.940474,20.09759 22.043105,11.32322 32.158766,21.979434 L 37.068811,17.246167 C 37.068811,17.246167 37.088388,32 37.088388,32 L 22.160133,31.978069 C 22.160133,31.978069 26.997745,27.140456 26.997745,27.140456 C 18.528582,18.264221 13.291696,25.230495 11.500037,31.436501 z"
             style="fill:#404040;"/>
          </a>
         </g>
        </svg>
</svg>
