<?xml version="1.0" encoding="UTF-8" standalone="no"?>
<!DOCTYPE svg PUBLIC "-//W3C//DTD SVG 1.1//EN"
 "http://www.w3.org/Graphics/SVG/1.1/DTD/svg11.dtd">
<!-- Generated by graphviz version 2.38.0 (20140413.2041)
 -->
<!-- Title: openage::rng::RNG::real_range Pages: 1 -->
<svg width="577pt" height="78pt"
 viewBox="0.00 0.00 577.00 77.50" xmlns="http://www.w3.org/2000/svg" xmlns:xlink="http://www.w3.org/1999/xlink">
<g id="graph0" class="graph" transform="scale(1 1) rotate(0) translate(4 73.5)">
<title>openage::rng::RNG::real_range</title>
<polygon fill="white" stroke="none" points="-4,4 -4,-73.5 573,-73.5 573,4 -4,4"/>
<!-- Node142 -->
<g id="node1" class="node"><title>Node142</title>
<g id="a_node1"><a xlink:title="Returns a double in the range [min, max)">
<polygon fill="#bfbfbf" stroke="black" points="0,-22.5 0,-52.5 106,-52.5 106,-22.5 0,-22.5"/>
<text text-anchor="start" x="8" y="-40.5" font-family="Helvetica,sans-Serif" font-size="10.00">openage::rng::RNG::</text>
<text text-anchor="middle" x="53" y="-29.5" font-family="Helvetica,sans-Serif" font-size="10.00">real_range</text>
</a>
</g>
</g>
<!-- Node143 -->
<g id="node2" class="node"><title>Node143</title>
<g id="a_node2"><a xlink:href="classopenage_1_1rng_1_1_r_n_g.xhtml#a2d906c2de63a31a89589a34bac2a3dd8" target="_top" xlink:title="Retrieves a double in [0, 1)">
<polygon fill="white" stroke="black" points="142,-28 142,-47 264,-47 264,-28 142,-28"/>
<text text-anchor="middle" x="203" y="-35" font-family="Helvetica,sans-Serif" font-size="10.00">openage::rng::RNG::real</text>
</a>
</g>
</g>
<!-- Node142&#45;&gt;Node143 -->
<g id="edge1" class="edge"><title>Node142&#45;&gt;Node143</title>
<path fill="none" stroke="midnightblue" d="M106.179,-37.5C114.494,-37.5 123.212,-37.5 131.859,-37.5"/>
<polygon fill="midnightblue" stroke="midnightblue" points="131.95,-41.0001 141.95,-37.5 131.95,-34.0001 131.95,-41.0001"/>
</g>
<!-- Node144 -->
<g id="node3" class="node"><title>Node144</title>
<g id="a_node3"><a xlink:href="classopenage_1_1rng_1_1_r_n_g.xhtml#accd55f47ffd4049900e96f032f0a9375" target="_top" xlink:title=" ">
<polygon fill="white" stroke="black" points="300,-50 300,-69 425,-69 425,-50 300,-50"/>
<text text-anchor="middle" x="362.5" y="-57" font-family="Helvetica,sans-Serif" font-size="10.00">openage::rng::RNG::max</text>
</a>
</g>
</g>
<!-- Node143&#45;&gt;Node144 -->
<g id="edge2" class="edge"><title>Node143&#45;&gt;Node144</title>
<path fill="none" stroke="midnightblue" d="M264.443,-45.9429C272.798,-47.1099 281.444,-48.3176 289.976,-49.5094"/>
<polygon fill="midnightblue" stroke="midnightblue" points="289.528,-52.9806 299.916,-50.8977 290.496,-46.0479 289.528,-52.9806"/>
</g>
<!-- Node145 -->
<g id="node4" class="node"><title>Node145</title>
<g id="a_node4"><a xlink:href="classopenage_1_1rng_1_1_r_n_g.xhtml#a95f8c2c7e00ab2531e0e6c33ae70e154" target="_top" xlink:title="Retrieves a random value from the generator.">
<polygon fill="white" stroke="black" points="309.5,-0.5 309.5,-30.5 415.5,-30.5 415.5,-0.5 309.5,-0.5"/>
<text text-anchor="start" x="317.5" y="-18.5" font-family="Helvetica,sans-Serif" font-size="10.00">openage::rng::RNG::</text>
<text text-anchor="middle" x="362.5" y="-7.5" font-family="Helvetica,sans-Serif" font-size="10.00">random</text>
</a>
</g>
</g>
<!-- Node143&#45;&gt;Node145 -->
<g id="edge3" class="edge"><title>Node143&#45;&gt;Node145</title>
<path fill="none" stroke="midnightblue" d="M264.443,-29.0571C275.916,-27.4545 287.939,-25.7752 299.461,-24.1658"/>
<polygon fill="midnightblue" stroke="midnightblue" points="300.011,-27.623 309.431,-22.7732 299.043,-20.6903 300.011,-27.623"/>
</g>
<!-- Node146 -->
<g id="node5" class="node"><title>Node146</title>
<g id="a_node5"><a xlink:href="namespaceopenage_1_1rng.xhtml#af7d90437e58aaa4fe1d816ad7b62dc07" target="_top" xlink:title=" ">
<polygon fill="white" stroke="black" points="461,-6 461,-25 569,-25 569,-6 461,-6"/>
<text text-anchor="middle" x="515" y="-13" font-family="Helvetica,sans-Serif" font-size="10.00">openage::rng::do_rng</text>
</a>
</g>
</g>
<!-- Node145&#45;&gt;Node146 -->
<g id="edge4" class="edge"><title>Node145&#45;&gt;Node146</title>
<path fill="none" stroke="midnightblue" d="M415.715,-15.5C427.009,-15.5 439.07,-15.5 450.736,-15.5"/>
<polygon fill="midnightblue" stroke="midnightblue" points="450.857,-19.0001 460.857,-15.5 450.857,-12.0001 450.857,-19.0001"/>
</g>
</g>
</svg>
