<?xml version="1.0" encoding="UTF-8" standalone="no"?>
<!DOCTYPE svg PUBLIC "-//W3C//DTD SVG 1.1//EN"
 "http://www.w3.org/Graphics/SVG/1.1/DTD/svg11.dtd">
<!-- Generated by graphviz version 2.38.0 (20140413.2041)
 -->
<!-- Title: openage::util::Quaternion::conjugated Pages: 1 -->
<svg width="591pt" height="39pt"
 viewBox="0.00 0.00 591.00 39.00" xmlns="http://www.w3.org/2000/svg" xmlns:xlink="http://www.w3.org/1999/xlink">
<g id="graph0" class="graph" transform="scale(1 1) rotate(0) translate(4 35)">
<title>openage::util::Quaternion::conjugated</title>
<polygon fill="white" stroke="none" points="-4,4 -4,-35 587,-35 587,4 -4,4"/>
<!-- Node23 -->
<g id="node1" class="node"><title>Node23</title>
<g id="a_node1"><a xlink:title=" ">
<polygon fill="#bfbfbf" stroke="black" points="458,-0.5 458,-30.5 583,-30.5 583,-0.5 458,-0.5"/>
<text text-anchor="start" x="466" y="-18.5" font-family="Helvetica,sans-Serif" font-size="10.00">openage::util::Quaternion</text>
<text text-anchor="middle" x="520.5" y="-7.5" font-family="Helvetica,sans-Serif" font-size="10.00">::conjugated</text>
</a>
</g>
</g>
<!-- Node24 -->
<g id="node2" class="node"><title>Node24</title>
<g id="a_node2"><a xlink:href="classopenage_1_1util_1_1_quaternion.xhtml#a61731d4de80ddb267346159ea173511b" target="_top" xlink:title=" ">
<polygon fill="white" stroke="black" points="297,-0.5 297,-30.5 422,-30.5 422,-0.5 297,-0.5"/>
<text text-anchor="start" x="305" y="-18.5" font-family="Helvetica,sans-Serif" font-size="10.00">openage::util::Quaternion</text>
<text text-anchor="middle" x="359.5" y="-7.5" font-family="Helvetica,sans-Serif" font-size="10.00">::inverse</text>
</a>
</g>
</g>
<!-- Node23&#45;&gt;Node24 -->
<g id="edge1" class="edge"><title>Node23&#45;&gt;Node24</title>
<path fill="none" stroke="midnightblue" d="M447.408,-15.5C439.01,-15.5 430.501,-15.5 422.26,-15.5"/>
<polygon fill="midnightblue" stroke="midnightblue" points="447.571,-19.0001 457.571,-15.5 447.571,-12.0001 447.571,-19.0001"/>
</g>
<!-- Node25 -->
<g id="node3" class="node"><title>Node25</title>
<g id="a_node3"><a xlink:href="classopenage_1_1util_1_1_quaternion.xhtml#ab7cebbaf133b69d0122980f73416ddf6" target="_top" xlink:title=" ">
<polygon fill="white" stroke="black" points="136,-0.5 136,-30.5 261,-30.5 261,-0.5 136,-0.5"/>
<text text-anchor="start" x="144" y="-18.5" font-family="Helvetica,sans-Serif" font-size="10.00">openage::util::Quaternion</text>
<text text-anchor="middle" x="198.5" y="-7.5" font-family="Helvetica,sans-Serif" font-size="10.00">::inversed</text>
</a>
</g>
</g>
<!-- Node24&#45;&gt;Node25 -->
<g id="edge2" class="edge"><title>Node24&#45;&gt;Node25</title>
<path fill="none" stroke="midnightblue" d="M286.408,-15.5C278.01,-15.5 269.501,-15.5 261.26,-15.5"/>
<polygon fill="midnightblue" stroke="midnightblue" points="286.571,-19.0001 296.571,-15.5 286.571,-12.0001 286.571,-19.0001"/>
</g>
<!-- Node26 -->
<g id="node4" class="node"><title>Node26</title>
<g id="a_node4"><a xlink:href="namespaceopenage_1_1util_1_1tests.xhtml#ab3f1d081c603b383598beeee8e4429df" target="_top" xlink:title=" ">
<polygon fill="white" stroke="black" points="0,-0.5 0,-30.5 100,-30.5 100,-0.5 0,-0.5"/>
<text text-anchor="start" x="8" y="-18.5" font-family="Helvetica,sans-Serif" font-size="10.00">openage::util::tests</text>
<text text-anchor="middle" x="50" y="-7.5" font-family="Helvetica,sans-Serif" font-size="10.00">::quaternion</text>
</a>
</g>
</g>
<!-- Node25&#45;&gt;Node26 -->
<g id="edge3" class="edge"><title>Node25&#45;&gt;Node26</title>
<path fill="none" stroke="midnightblue" d="M125.697,-15.5C117.059,-15.5 108.394,-15.5 100.184,-15.5"/>
<polygon fill="midnightblue" stroke="midnightblue" points="125.795,-19.0001 135.795,-15.5 125.795,-12.0001 125.795,-19.0001"/>
</g>
</g>
</svg>
