<?xml version="1.0" encoding="UTF-8" standalone="no"?>
<!DOCTYPE svg PUBLIC "-//W3C//DTD SVG 1.1//EN"
 "http://www.w3.org/Graphics/SVG/1.1/DTD/svg11.dtd">
<!-- Generated by graphviz version 2.38.0 (20140413.2041)
 -->
<!-- Title: openage::renderer::vulkan::VlkLoader::init Pages: 1 -->
<svg width="309pt" height="39pt"
 viewBox="0.00 0.00 309.00 39.00" xmlns="http://www.w3.org/2000/svg" xmlns:xlink="http://www.w3.org/1999/xlink">
<g id="graph0" class="graph" transform="scale(1 1) rotate(0) translate(4 35)">
<title>openage::renderer::vulkan::VlkLoader::init</title>
<polygon fill="white" stroke="none" points="-4,4 -4,-35 305,-35 305,4 -4,4"/>
<!-- Node3 -->
<g id="node1" class="node"><title>Node3</title>
<g id="a_node1"><a xlink:title="Initialize this loader for the given Vulkan instance.">
<polygon fill="#bfbfbf" stroke="black" points="189,-0.5 189,-30.5 301,-30.5 301,-0.5 189,-0.5"/>
<text text-anchor="start" x="197" y="-18.5" font-family="Helvetica,sans-Serif" font-size="10.00">openage::renderer::</text>
<text text-anchor="middle" x="245" y="-7.5" font-family="Helvetica,sans-Serif" font-size="10.00">vulkan::VlkLoader::init</text>
</a>
</g>
</g>
<!-- Node4 -->
<g id="node2" class="node"><title>Node4</title>
<g id="a_node2"><a xlink:href="classopenage_1_1renderer_1_1vulkan_1_1_vlk_window.xhtml#a21953253160e4583181b0bbb21a56601" target="_top" xlink:title=" ">
<polygon fill="white" stroke="black" points="0,-0.5 0,-30.5 153,-30.5 153,-0.5 0,-0.5"/>
<text text-anchor="start" x="8" y="-18.5" font-family="Helvetica,sans-Serif" font-size="10.00">openage::renderer::</text>
<text text-anchor="middle" x="76.5" y="-7.5" font-family="Helvetica,sans-Serif" font-size="10.00">vulkan::VlkWindow::VlkWindow</text>
</a>
</g>
</g>
<!-- Node3&#45;&gt;Node4 -->
<g id="edge1" class="edge"><title>Node3&#45;&gt;Node4</title>
<path fill="none" stroke="midnightblue" d="M178.542,-15.5C170.21,-15.5 161.629,-15.5 153.153,-15.5"/>
<polygon fill="midnightblue" stroke="midnightblue" points="178.558,-19.0001 188.558,-15.5 178.558,-12.0001 178.558,-19.0001"/>
</g>
</g>
</svg>
