<?xml version="1.0" encoding="UTF-8" standalone="no"?>
<!DOCTYPE svg PUBLIC "-//W3C//DTD SVG 1.1//EN"
 "http://www.w3.org/Graphics/SVG/1.1/DTD/svg11.dtd">
<!-- Generated by graphviz version 2.38.0 (20140413.2041)
 -->
<!-- Title: openage::datastructure::PairingHeap::update Pages: 1 -->
<svg width="761pt" height="39pt"
 viewBox="0.00 0.00 761.00 39.00" xmlns="http://www.w3.org/2000/svg" xmlns:xlink="http://www.w3.org/1999/xlink">
<g id="graph0" class="graph" transform="scale(1 1) rotate(0) translate(4 35)">
<title>openage::datastructure::PairingHeap::update</title>
<polygon fill="white" stroke="none" points="-4,4 -4,-35 757,-35 757,4 -4,4"/>
<!-- Node116 -->
<g id="node1" class="node"><title>Node116</title>
<g id="a_node1"><a xlink:title="After a change, call this to reorganize the given node.">
<polygon fill="#bfbfbf" stroke="black" points="637,-0.5 637,-30.5 753,-30.5 753,-0.5 637,-0.5"/>
<text text-anchor="start" x="645" y="-18.5" font-family="Helvetica,sans-Serif" font-size="10.00">openage::datastructure</text>
<text text-anchor="middle" x="695" y="-7.5" font-family="Helvetica,sans-Serif" font-size="10.00">::PairingHeap::update</text>
</a>
</g>
</g>
<!-- Node117 -->
<g id="node2" class="node"><title>Node117</title>
<g id="a_node2"><a xlink:href="classopenage_1_1event_1_1_event_store.xhtml#ae8a67463b44b369d9402186cf332e247" target="_top" xlink:title=" ">
<polygon fill="white" stroke="black" points="466,-0.5 466,-30.5 601,-30.5 601,-0.5 466,-0.5"/>
<text text-anchor="start" x="474" y="-18.5" font-family="Helvetica,sans-Serif" font-size="10.00">openage::event::EventStore</text>
<text text-anchor="middle" x="533.5" y="-7.5" font-family="Helvetica,sans-Serif" font-size="10.00">::update</text>
</a>
</g>
</g>
<!-- Node116&#45;&gt;Node117 -->
<g id="edge1" class="edge"><title>Node116&#45;&gt;Node117</title>
<path fill="none" stroke="midnightblue" d="M626.642,-15.5C618.159,-15.5 609.484,-15.5 601.014,-15.5"/>
<polygon fill="midnightblue" stroke="midnightblue" points="626.867,-19.0001 636.867,-15.5 626.867,-12.0001 626.867,-19.0001"/>
</g>
<!-- Node118 -->
<g id="node3" class="node"><title>Node118</title>
<g id="a_node3"><a xlink:href="classopenage_1_1event_1_1_event_queue.xhtml#a8f45163ce661267cf80d811a776c8733" target="_top" xlink:title="An update to existing events has to be applied.">
<polygon fill="white" stroke="black" points="290,-0.5 290,-30.5 430,-30.5 430,-0.5 290,-0.5"/>
<text text-anchor="start" x="298" y="-18.5" font-family="Helvetica,sans-Serif" font-size="10.00">openage::event::EventQueue</text>
<text text-anchor="middle" x="360" y="-7.5" font-family="Helvetica,sans-Serif" font-size="10.00">::enqueue_change</text>
</a>
</g>
</g>
<!-- Node117&#45;&gt;Node118 -->
<g id="edge2" class="edge"><title>Node117&#45;&gt;Node118</title>
<path fill="none" stroke="midnightblue" d="M455.488,-15.5C447.049,-15.5 438.496,-15.5 430.161,-15.5"/>
<polygon fill="midnightblue" stroke="midnightblue" points="455.703,-19.0001 465.703,-15.5 455.703,-12.0001 455.703,-19.0001"/>
</g>
<!-- Node119 -->
<g id="node4" class="node"><title>Node119</title>
<g id="a_node4"><a xlink:href="classopenage_1_1event_1_1_loop.xhtml#a3cb0ae638435b575fe689c550b27a823" target="_top" xlink:title="Call all the time change functions.">
<polygon fill="white" stroke="black" points="145,-0.5 145,-30.5 254,-30.5 254,-0.5 145,-0.5"/>
<text text-anchor="start" x="153" y="-18.5" font-family="Helvetica,sans-Serif" font-size="10.00">openage::event::Loop</text>
<text text-anchor="middle" x="199.5" y="-7.5" font-family="Helvetica,sans-Serif" font-size="10.00">::update_changes</text>
</a>
</g>
</g>
<!-- Node118&#45;&gt;Node119 -->
<g id="edge3" class="edge"><title>Node118&#45;&gt;Node119</title>
<path fill="none" stroke="midnightblue" d="M279.755,-15.5C271.056,-15.5 262.357,-15.5 254.078,-15.5"/>
<polygon fill="midnightblue" stroke="midnightblue" points="279.941,-19.0001 289.941,-15.5 279.941,-12.0001 279.941,-19.0001"/>
</g>
<!-- Node120 -->
<g id="node5" class="node"><title>Node120</title>
<g id="a_node5"><a xlink:href="classopenage_1_1event_1_1_loop.xhtml#aeba9e515057a87d7fbfddb8585095de6" target="_top" xlink:title="Execute all events that are registered until a certain point in time.">
<polygon fill="white" stroke="black" points="0,-0.5 0,-30.5 109,-30.5 109,-0.5 0,-0.5"/>
<text text-anchor="start" x="8" y="-18.5" font-family="Helvetica,sans-Serif" font-size="10.00">openage::event::Loop</text>
<text text-anchor="middle" x="54.5" y="-7.5" font-family="Helvetica,sans-Serif" font-size="10.00">::reach_time</text>
</a>
</g>
</g>
<!-- Node119&#45;&gt;Node120 -->
<g id="edge4" class="edge"><title>Node119&#45;&gt;Node120</title>
<path fill="none" stroke="midnightblue" d="M134.676,-15.5C126.255,-15.5 117.69,-15.5 109.455,-15.5"/>
<polygon fill="midnightblue" stroke="midnightblue" points="134.845,-19.0001 144.845,-15.5 134.845,-12.0001 134.845,-19.0001"/>
</g>
</g>
</svg>
