<?xml version="1.0" encoding="UTF-8" standalone="no"?>
<!DOCTYPE svg PUBLIC "-//W3C//DTD SVG 1.1//EN"
 "http://www.w3.org/Graphics/SVG/1.1/DTD/svg11.dtd">
<!-- Generated by graphviz version 2.38.0 (20140413.2041)
 -->
<!-- Title: openage::renderer::vulkan::VlkGraphicsDevice::find_device_surface_support Pages: 1 -->
<svg width="291pt" height="50pt"
 viewBox="0.00 0.00 291.00 50.00" xmlns="http://www.w3.org/2000/svg" xmlns:xlink="http://www.w3.org/1999/xlink">
<g id="graph0" class="graph" transform="scale(1 1) rotate(0) translate(4 46)">
<title>openage::renderer::vulkan::VlkGraphicsDevice::find_device_surface_support</title>
<polygon fill="white" stroke="none" points="-4,4 -4,-46 287,-46 287,4 -4,4"/>
<!-- Node15 -->
<g id="node1" class="node"><title>Node15</title>
<g id="a_node1"><a xlink:title="Given a physical device and a surface, checks whether the device is capable of presenting to the surf...">
<polygon fill="#bfbfbf" stroke="black" points="139,-0.5 139,-41.5 283,-41.5 283,-0.5 139,-0.5"/>
<text text-anchor="start" x="147" y="-29.5" font-family="Helvetica,sans-Serif" font-size="10.00">openage::renderer::</text>
<text text-anchor="start" x="147" y="-18.5" font-family="Helvetica,sans-Serif" font-size="10.00">vulkan::VlkGraphicsDevice</text>
<text text-anchor="middle" x="211" y="-7.5" font-family="Helvetica,sans-Serif" font-size="10.00">::find_device_surface_support</text>
</a>
</g>
</g>
<!-- Node16 -->
<g id="node2" class="node"><title>Node16</title>
<g id="a_node2"><a xlink:href="classopenage_1_1renderer_1_1vulkan_1_1_vlk_renderer.xhtml#a15177acc1d4eb10a786e021ea8eb0207" target="_top" xlink:title="Testing function that draws a triangle. Not part of the final renderer implementation.">
<polygon fill="white" stroke="black" points="0,-0.5 0,-41.5 103,-41.5 103,-0.5 0,-0.5"/>
<text text-anchor="start" x="8" y="-29.5" font-family="Helvetica,sans-Serif" font-size="10.00">openage::renderer::</text>
<text text-anchor="start" x="8" y="-18.5" font-family="Helvetica,sans-Serif" font-size="10.00">vulkan::VlkRenderer</text>
<text text-anchor="middle" x="51.5" y="-7.5" font-family="Helvetica,sans-Serif" font-size="10.00">::do_the_thing</text>
</a>
</g>
</g>
<!-- Node15&#45;&gt;Node16 -->
<g id="edge1" class="edge"><title>Node15&#45;&gt;Node16</title>
<path fill="none" stroke="midnightblue" d="M128.568,-21C119.997,-21 111.47,-21 103.391,-21"/>
<polygon fill="midnightblue" stroke="midnightblue" points="128.623,-24.5001 138.623,-21 128.623,-17.5001 128.623,-24.5001"/>
</g>
</g>
</svg>
