<?xml version="1.0" encoding="UTF-8" standalone="no"?>
<!DOCTYPE svg PUBLIC "-//W3C//DTD SVG 1.1//EN"
 "http://www.w3.org/Graphics/SVG/1.1/DTD/svg11.dtd">
<!-- Generated by graphviz version 2.38.0 (20140413.2041)
 -->
<!-- Title: qtsdl::RecursiveDirectoryWatcherWorker::restart_watching Pages: 1 -->
<svg width="529pt" height="50pt"
 viewBox="0.00 0.00 529.00 50.00" xmlns="http://www.w3.org/2000/svg" xmlns:xlink="http://www.w3.org/1999/xlink">
<g id="graph0" class="graph" transform="scale(1 1) rotate(0) translate(4 46)">
<title>qtsdl::RecursiveDirectoryWatcherWorker::restart_watching</title>
<polygon fill="white" stroke="none" points="-4,4 -4,-46 525,-46 525,4 -4,4"/>
<!-- Node16 -->
<g id="node1" class="node"><title>Node16</title>
<g id="a_node1"><a xlink:title=" ">
<polygon fill="#bfbfbf" stroke="black" points="396,-0.5 396,-41.5 521,-41.5 521,-0.5 396,-0.5"/>
<text text-anchor="start" x="404" y="-29.5" font-family="Helvetica,sans-Serif" font-size="10.00">qtsdl::RecursiveDirectory</text>
<text text-anchor="start" x="404" y="-18.5" font-family="Helvetica,sans-Serif" font-size="10.00">WatcherWorker::restart</text>
<text text-anchor="middle" x="458.5" y="-7.5" font-family="Helvetica,sans-Serif" font-size="10.00">_watching</text>
</a>
</g>
</g>
<!-- Node17 -->
<g id="node2" class="node"><title>Node17</title>
<g id="a_node2"><a xlink:href="classqtsdl_1_1_recursive_directory_watcher_worker.xhtml#a91bfaa86b49409e691361ef093d77211" target="_top" xlink:title=" ">
<polygon fill="white" stroke="black" points="200,-6 200,-36 360,-36 360,-6 200,-6"/>
<text text-anchor="start" x="208" y="-24" font-family="Helvetica,sans-Serif" font-size="10.00">qtsdl::RecursiveDirectory</text>
<text text-anchor="middle" x="280" y="-13" font-family="Helvetica,sans-Serif" font-size="10.00">WatcherWorker::restartWatching</text>
</a>
</g>
</g>
<!-- Node16&#45;&gt;Node17 -->
<g id="edge1" class="edge"><title>Node16&#45;&gt;Node17</title>
<path fill="none" stroke="midnightblue" d="M385.624,-21C377.205,-21 368.58,-21 360.07,-21"/>
<polygon fill="midnightblue" stroke="midnightblue" points="385.769,-24.5001 395.769,-21 385.769,-17.5001 385.769,-24.5001"/>
</g>
<!-- Node18 -->
<g id="node3" class="node"><title>Node18</title>
<g id="a_node3"><a xlink:href="classqtsdl_1_1_recursive_directory_watcher_worker.xhtml#a9722ee9e0a60a9f437b86c7902641767" target="_top" xlink:title=" ">
<polygon fill="white" stroke="black" points="0,-0.5 0,-41.5 164,-41.5 164,-0.5 0,-0.5"/>
<text text-anchor="start" x="8" y="-29.5" font-family="Helvetica,sans-Serif" font-size="10.00">qtsdl::RecursiveDirectory</text>
<text text-anchor="start" x="8" y="-18.5" font-family="Helvetica,sans-Serif" font-size="10.00">WatcherWorker::onRootDirsPaths</text>
<text text-anchor="middle" x="82" y="-7.5" font-family="Helvetica,sans-Serif" font-size="10.00">Changed</text>
</a>
</g>
</g>
<!-- Node17&#45;&gt;Node18 -->
<g id="edge2" class="edge"><title>Node17&#45;&gt;Node18</title>
<path fill="none" stroke="midnightblue" d="M189.82,-21C181.232,-21 172.552,-21 164.048,-21"/>
<polygon fill="midnightblue" stroke="midnightblue" points="189.844,-24.5001 199.844,-21 189.844,-17.5001 189.844,-24.5001"/>
</g>
</g>
</svg>
