<?xml version="1.0" encoding="UTF-8" standalone="no"?>
<!DOCTYPE svg PUBLIC "-//W3C//DTD SVG 1.1//EN"
 "http://www.w3.org/Graphics/SVG/1.1/DTD/svg11.dtd">
<!-- Generated by graphviz version 2.38.0 (20140413.2041)
 -->
<!-- Title: qtsdl::GuiItemListModel&lt; T &gt; Pages: 1 -->
<!--zoomable 643 -->
<svg id="main" version="1.1" xmlns="http://www.w3.org/2000/svg" xmlns:xlink="http://www.w3.org/1999/xlink" xml:space="preserve" onload="init(evt)">
<style type="text/css"><![CDATA[
.edge:hover path { stroke: red; }
.edge:hover polygon { stroke: red; fill: red; }
]]></style>
<script type="text/javascript"><![CDATA[
var edges = document.getElementsByTagName('g');
if (edges && edges.length) {
  for (var i=0;i<edges.length;i++) {
    if (edges[i].id.substr(0,4)=='edge') {
      edges[i].setAttribute('class','edge');
    }
  }
}
]]></script>
        <defs>
                <circle id="rim" cx="0" cy="0" r="7"/>
                <circle id="rim2" cx="0" cy="0" r="3.5"/>
                <g id="zoomPlus">
                        <use xlink:href="#rim" fill="#404040">
                                <set attributeName="fill" to="#808080" begin="zoomplus.mouseover" end="zoomplus.mouseout"/>
                        </use>
                        <path d="M-4,0h8M0,-4v8" fill="none" stroke="white" stroke-width="1.5" pointer-events="none"/>
                </g>
                <g id="zoomMin">
                        <use xlink:href="#rim" fill="#404040">
                                <set attributeName="fill" to="#808080" begin="zoomminus.mouseover" end="zoomminus.mouseout"/>
                        </use>
                        <path d="M-4,0h8" fill="none" stroke="white" stroke-width="1.5" pointer-events="none"/>
                </g>
                <g id="dirArrow">
                        <path fill="none" stroke="white" stroke-width="1.5" d="M0,-3.0v7 M-2.5,-0.5L0,-3.0L2.5,-0.5"/>
                </g>
               <g id="resetDef">
                       <use xlink:href="#rim2" fill="#404040">
                               <set attributeName="fill" to="#808080" begin="reset.mouseover" end="reset.mouseout"/>
                       </use>
               </g>
        </defs>

<script type="text/javascript">
var viewWidth = 338;
var viewHeight = 643;
var sectionId = 'dynsection-1';
</script>
<script xlink:href="svgpan.js"/>
<svg id="graph" class="graph">
<g id="viewport">
<title>qtsdl::GuiItemListModel&lt; T &gt;</title>
<polygon fill="white" stroke="none" points="-4,4 -4,-639 333.5,-639 333.5,4 -4,4"/>
<!-- Node5 -->
<g id="node1" class="node"><title>Node5</title>
<g id="a_node1"><a xlink:title=" ">
<polygon fill="#bfbfbf" stroke="black" points="101.5,-0.5 101.5,-112.5 256.5,-112.5 256.5,-0.5 101.5,-0.5"/>
<text text-anchor="middle" x="179" y="-100.5" font-family="Helvetica,sans-Serif" font-size="10.00">qtsdl::GuiItemListModel&lt; T &gt;</text>
<polyline fill="none" stroke="black" points="101.5,-93.5 256.5,-93.5 "/>
<text text-anchor="middle" x="179" y="-81.5" font-family="Helvetica,sans-Serif" font-size="10.00"> </text>
<polyline fill="none" stroke="black" points="101.5,-74.5 256.5,-74.5 "/>
<text text-anchor="start" x="109.5" y="-62.5" font-family="Helvetica,sans-Serif" font-size="10.00">+ GuiItemListModel()</text>
<text text-anchor="start" x="109.5" y="-51.5" font-family="Helvetica,sans-Serif" font-size="10.00">&#45; on_core_adopted()</text>
<text text-anchor="start" x="109.5" y="-40.5" font-family="Helvetica,sans-Serif" font-size="10.00">&#45; establish_from_gui</text>
<text text-anchor="start" x="109.5" y="-29.5" font-family="Helvetica,sans-Serif" font-size="10.00">_propagation()</text>
<text text-anchor="start" x="109.5" y="-18.5" font-family="Helvetica,sans-Serif" font-size="10.00">&#45; establish_to_gui_propagation()</text>
<text text-anchor="start" x="109.5" y="-7.5" font-family="Helvetica,sans-Serif" font-size="10.00">&#45; do_initial_to_gui_propagation()</text>
</a>
</g>
</g>
<!-- Node6 -->
<g id="node2" class="node"><title>Node6</title>
<g id="a_node2"><a xlink:href="classqtsdl_1_1_gui_item.xhtml" target="_top" xlink:title=" ">
<polygon fill="white" stroke="black" points="128.5,-150.5 128.5,-207.5 229.5,-207.5 229.5,-150.5 128.5,-150.5"/>
<text text-anchor="middle" x="179" y="-195.5" font-family="Helvetica,sans-Serif" font-size="10.00">qtsdl::GuiItem&lt; T &gt;</text>
<polyline fill="none" stroke="black" points="128.5,-188.5 229.5,-188.5 "/>
<text text-anchor="middle" x="179" y="-176.5" font-family="Helvetica,sans-Serif" font-size="10.00"> </text>
<polyline fill="none" stroke="black" points="128.5,-169.5 229.5,-169.5 "/>
<text text-anchor="start" x="136.5" y="-157.5" font-family="Helvetica,sans-Serif" font-size="10.00">+ GuiItem()</text>
</a>
</g>
</g>
<!-- Node6&#45;&gt;Node5 -->
<g id="edge1" class="edge"><title>Node6&#45;&gt;Node5</title>
<path fill="none" stroke="midnightblue" d="M179,-140.109C179,-131.362 179,-121.883 179,-112.569"/>
<polygon fill="none" stroke="midnightblue" points="175.5,-140.355 179,-150.355 182.5,-140.355 175.5,-140.355"/>
</g>
<!-- Node7 -->
<g id="node3" class="node"><title>Node7</title>
<g id="a_node3"><a xlink:href="classqtsdl_1_1_gui_item_origin.xhtml" target="_top" xlink:title=" ">
<polygon fill="white" stroke="black" points="16,-267.5 16,-324.5 142,-324.5 142,-267.5 16,-267.5"/>
<text text-anchor="middle" x="79" y="-312.5" font-family="Helvetica,sans-Serif" font-size="10.00">qtsdl::GuiItemOrigin&lt; T &gt;</text>
<polyline fill="none" stroke="black" points="16,-305.5 142,-305.5 "/>
<text text-anchor="middle" x="79" y="-293.5" font-family="Helvetica,sans-Serif" font-size="10.00"> </text>
<polyline fill="none" stroke="black" points="16,-286.5 142,-286.5 "/>
<text text-anchor="middle" x="79" y="-274.5" font-family="Helvetica,sans-Serif" font-size="10.00"> </text>
</a>
</g>
</g>
<!-- Node7&#45;&gt;Node6 -->
<g id="edge2" class="edge"><title>Node7&#45;&gt;Node6</title>
<path fill="none" stroke="midnightblue" d="M109.839,-259.535C124.336,-242.864 141.364,-223.282 154.896,-207.719"/>
<polygon fill="none" stroke="midnightblue" points="106.873,-257.612 102.952,-267.455 112.155,-262.205 106.873,-257.612"/>
</g>
<!-- Node8 -->
<g id="node4" class="node"><title>Node8</title>
<g id="a_node4"><a xlink:href="classqtsdl_1_1_persistent_core_holder.xhtml" target="_top" xlink:title=" ">
<polygon fill="white" stroke="black" points="11,-411 11,-512 147,-512 147,-411 11,-411"/>
<text text-anchor="start" x="19" y="-500" font-family="Helvetica,sans-Serif" font-size="10.00">qtsdl::PersistentCoreHolder</text>
<text text-anchor="start" x="19" y="-489" font-family="Helvetica,sans-Serif" font-size="10.00">&lt; typename qtsdl::Unwrap</text>
<text text-anchor="middle" x="79" y="-478" font-family="Helvetica,sans-Serif" font-size="10.00">&lt; T &gt;::Type &gt;</text>
<polyline fill="none" stroke="black" points="11,-471 147,-471 "/>
<text text-anchor="start" x="19" y="-459" font-family="Helvetica,sans-Serif" font-size="10.00">+ core</text>
<polyline fill="none" stroke="black" points="11,-452 147,-452 "/>
<text text-anchor="start" x="19" y="-440" font-family="Helvetica,sans-Serif" font-size="10.00">+ PersistentCoreHolder()</text>
<text text-anchor="start" x="19" y="-429" font-family="Helvetica,sans-Serif" font-size="10.00">+ PersistentCoreHolder()</text>
<text text-anchor="start" x="19" y="-418" font-family="Helvetica,sans-Serif" font-size="10.00">+ adopt_shell()</text>
</a>
</g>
</g>
<!-- Node8&#45;&gt;Node7 -->
<g id="edge3" class="edge"><title>Node8&#45;&gt;Node7</title>
<path fill="none" stroke="#404040" d="M79,-410.556C79,-386.895 79,-359.022 79,-336.813"/>
<polygon fill="none" stroke="#404040" points="79.0001,-336.793 75,-330.793 79,-324.793 83,-330.793 79.0001,-336.793"/>
<text text-anchor="middle" x="95.5" y="-368" font-family="Helvetica,sans-Serif" font-size="10.00"> &#45;holder</text>
</g>
<!-- Node9 -->
<g id="node5" class="node"><title>Node9</title>
<g id="a_node5"><a xlink:href="classqtsdl_1_1_persistent_core_holder_base.xhtml" target="_top" xlink:title=" ">
<polygon fill="white" stroke="black" points="0,-566.5 0,-634.5 158,-634.5 158,-566.5 0,-566.5"/>
<text text-anchor="middle" x="79" y="-622.5" font-family="Helvetica,sans-Serif" font-size="10.00">qtsdl::PersistentCoreHolderBase</text>
<polyline fill="none" stroke="black" points="0,-615.5 158,-615.5 "/>
<text text-anchor="middle" x="79" y="-603.5" font-family="Helvetica,sans-Serif" font-size="10.00"> </text>
<polyline fill="none" stroke="black" points="0,-596.5 158,-596.5 "/>
<text text-anchor="start" x="8" y="-584.5" font-family="Helvetica,sans-Serif" font-size="10.00">+ ~PersistentCoreHolderBase()</text>
<text text-anchor="start" x="8" y="-573.5" font-family="Helvetica,sans-Serif" font-size="10.00">+ adopt_shell()</text>
</a>
</g>
</g>
<!-- Node9&#45;&gt;Node8 -->
<g id="edge4" class="edge"><title>Node9&#45;&gt;Node8</title>
<path fill="none" stroke="midnightblue" d="M79,-556.038C79,-542.103 79,-526.565 79,-512.217"/>
<polygon fill="none" stroke="midnightblue" points="75.5001,-556.336 79,-566.336 82.5001,-556.336 75.5001,-556.336"/>
</g>
<!-- Node10 -->
<g id="node6" class="node"><title>Node10</title>
<g id="a_node6"><a xlink:href="classqtsdl_1_1_gui_item_core_instantiator.xhtml" target="_top" xlink:title=" ">
<polygon fill="white" stroke="black" points="160.5,-245.5 160.5,-346.5 329.5,-346.5 329.5,-245.5 160.5,-245.5"/>
<text text-anchor="middle" x="245" y="-334.5" font-family="Helvetica,sans-Serif" font-size="10.00">qtsdl::GuiItemCoreInstantiator&lt; T &gt;</text>
<polyline fill="none" stroke="black" points="160.5,-327.5 329.5,-327.5 "/>
<text text-anchor="middle" x="245" y="-315.5" font-family="Helvetica,sans-Serif" font-size="10.00"> </text>
<polyline fill="none" stroke="black" points="160.5,-308.5 329.5,-308.5 "/>
<text text-anchor="start" x="168.5" y="-296.5" font-family="Helvetica,sans-Serif" font-size="10.00">+ GuiItemCoreInstantiator()</text>
<text text-anchor="start" x="168.5" y="-285.5" font-family="Helvetica,sans-Serif" font-size="10.00">&#45; instantiate_core()</text>
<text text-anchor="start" x="168.5" y="-274.5" font-family="Helvetica,sans-Serif" font-size="10.00">&#45; do_adopt_core()</text>
<text text-anchor="start" x="168.5" y="-263.5" font-family="Helvetica,sans-Serif" font-size="10.00">&#45; GuiItemCoreInstantiator()</text>
<text text-anchor="start" x="168.5" y="-252.5" font-family="Helvetica,sans-Serif" font-size="10.00">&#45; operator=()</text>
</a>
</g>
</g>
<!-- Node10&#45;&gt;Node6 -->
<g id="edge5" class="edge"><title>Node10&#45;&gt;Node6</title>
<path fill="none" stroke="midnightblue" d="M211.386,-236.431C205.628,-226.398 199.895,-216.409 194.889,-207.685"/>
<polygon fill="none" stroke="midnightblue" points="208.422,-238.297 216.435,-245.228 214.493,-234.813 208.422,-238.297"/>
</g>
<!-- Node11 -->
<g id="node7" class="node"><title>Node11</title>
<g id="a_node7"><a xlink:href="classqtsdl_1_1_gui_item_methods.xhtml" target="_top" xlink:title=" ">
<polygon fill="white" stroke="black" points="176,-394.5 176,-528.5 314,-528.5 314,-394.5 176,-394.5"/>
<text text-anchor="middle" x="245" y="-516.5" font-family="Helvetica,sans-Serif" font-size="10.00">qtsdl::GuiItemMethods&lt; T &gt;</text>
<polyline fill="none" stroke="black" points="176,-509.5 314,-509.5 "/>
<text text-anchor="middle" x="245" y="-497.5" font-family="Helvetica,sans-Serif" font-size="10.00"> </text>
<polyline fill="none" stroke="black" points="176,-490.5 314,-490.5 "/>
<text text-anchor="start" x="184" y="-478.5" font-family="Helvetica,sans-Serif" font-size="10.00">+ ~GuiItemMethods()</text>
<text text-anchor="start" x="184" y="-467.5" font-family="Helvetica,sans-Serif" font-size="10.00">+ get()</text>
<text text-anchor="start" x="184" y="-456.5" font-family="Helvetica,sans-Serif" font-size="10.00">+ get()</text>
<text text-anchor="start" x="184" y="-445.5" font-family="Helvetica,sans-Serif" font-size="10.00">+ i()</text>
<text text-anchor="start" x="184" y="-434.5" font-family="Helvetica,sans-Serif" font-size="10.00"># s()</text>
<text text-anchor="start" x="184" y="-423.5" font-family="Helvetica,sans-Serif" font-size="10.00"># sf()</text>
<text text-anchor="start" x="184" y="-412.5" font-family="Helvetica,sans-Serif" font-size="10.00">&#45; assign_while_catching</text>
<text text-anchor="start" x="184" y="-401.5" font-family="Helvetica,sans-Serif" font-size="10.00">_constant_properies_inits()</text>
</a>
</g>
</g>
<!-- Node11&#45;&gt;Node10 -->
<g id="edge6" class="edge"><title>Node11&#45;&gt;Node10</title>
<path fill="none" stroke="midnightblue" d="M245,-384.288C245,-371.513 245,-358.558 245,-346.676"/>
<polygon fill="none" stroke="midnightblue" points="241.5,-384.47 245,-394.47 248.5,-384.47 241.5,-384.47"/>
</g>
</g>
</svg>
        <g id="navigator" transform="translate(0 0)" fill="#404254">
                <rect fill="#f2f5e9" fill-opacity="0.5" stroke="#606060" stroke-width=".5" x="0" y="0" width="60" height="60"/>
                <use id="zoomplus" xlink:href="#zoomPlus" x="17" y="9" onmousedown="handleZoom(evt,'in')"/>
                <use id="zoomminus" xlink:href="#zoomMin" x="42" y="9" onmousedown="handleZoom(evt,'out')"/>
                <use id="reset" xlink:href="#resetDef" x="30" y="36" onmousedown="handleReset()"/>
                <g id="arrowUp" xlink:href="#dirArrow" transform="translate(30 24)" onmousedown="handlePan(0,-1)">
                  <use xlink:href="#rim" fill="#404040">
                        <set attributeName="fill" to="#808080" begin="arrowUp.mouseover" end="arrowUp.mouseout"/>
                  </use>
                  <path fill="none" stroke="white" stroke-width="1.5" d="M0,-3.0v7 M-2.5,-0.5L0,-3.0L2.5,-0.5"/>
                </g>
                <g id="arrowRight" xlink:href="#dirArrow" transform="rotate(90) translate(36 -43)" onmousedown="handlePan(1,0)">
                  <use xlink:href="#rim" fill="#404040">
                        <set attributeName="fill" to="#808080" begin="arrowRight.mouseover" end="arrowRight.mouseout"/>
                  </use>
                  <path fill="none" stroke="white" stroke-width="1.5" d="M0,-3.0v7 M-2.5,-0.5L0,-3.0L2.5,-0.5"/>
                </g>
                <g id="arrowDown" xlink:href="#dirArrow" transform="rotate(180) translate(-30 -48)" onmousedown="handlePan(0,1)">
                  <use xlink:href="#rim" fill="#404040">
                        <set attributeName="fill" to="#808080" begin="arrowDown.mouseover" end="arrowDown.mouseout"/>
                  </use>
                  <path fill="none" stroke="white" stroke-width="1.5" d="M0,-3.0v7 M-2.5,-0.5L0,-3.0L2.5,-0.5"/>
                </g>
                <g id="arrowLeft" xlink:href="#dirArrow" transform="rotate(270) translate(-36 17)" onmousedown="handlePan(-1,0)">
                  <use xlink:href="#rim" fill="#404040">
                        <set attributeName="fill" to="#808080" begin="arrowLeft.mouseover" end="arrowLeft.mouseout"/>
                  </use>
                  <path fill="none" stroke="white" stroke-width="1.5" d="M0,-3.0v7 M-2.5,-0.5L0,-3.0L2.5,-0.5"/>
                </g>
        </g>
        <svg viewBox="0 0 15 15" width="100%" height="30px" preserveAspectRatio="xMaxYMin meet">
         <g id="arrow_out" transform="scale(0.3 0.3)">
          <a xlink:href="classqtsdl_1_1_gui_item_list_model__coll__graph_org.svg" target="_base">
           <rect id="button" ry="5" rx="5" y="6" x="6" height="38" width="38"
                fill="#f2f5e9" fill-opacity="0.5" stroke="#606060" stroke-width="1.0"/>
           <path id="arrow"
             d="M 11.500037,31.436501 C 11.940474,20.09759 22.043105,11.32322 32.158766,21.979434 L 37.068811,17.246167 C 37.068811,17.246167 37.088388,32 37.088388,32 L 22.160133,31.978069 C 22.160133,31.978069 26.997745,27.140456 26.997745,27.140456 C 18.528582,18.264221 13.291696,25.230495 11.500037,31.436501 z"
             style="fill:#404040;"/>
          </a>
         </g>
        </svg>
</svg>
