<?xml version="1.0" encoding="UTF-8" standalone="no"?>
<!DOCTYPE svg PUBLIC "-//W3C//DTD SVG 1.1//EN"
 "http://www.w3.org/Graphics/SVG/1.1/DTD/svg11.dtd">
<!-- Generated by graphviz version 2.38.0 (20140413.2041)
 -->
<!-- Title: openage::gui::GuiImageProviderLink::set_game_spec Pages: 1 -->
<svg width="1549pt" height="227pt"
 viewBox="0.00 0.00 1549.00 226.50" xmlns="http://www.w3.org/2000/svg" xmlns:xlink="http://www.w3.org/1999/xlink">
<g id="graph0" class="graph" transform="scale(1 1) rotate(0) translate(4 222.5)">
<title>openage::gui::GuiImageProviderLink::set_game_spec</title>
<polygon fill="white" stroke="none" points="-4,4 -4,-222.5 1545,-222.5 1545,4 -4,4"/>
<!-- Node44 -->
<g id="node1" class="node"><title>Node44</title>
<g id="a_node1"><a xlink:title=" ">
<polygon fill="#bfbfbf" stroke="black" points="0,-108 0,-138 154,-138 154,-108 0,-108"/>
<text text-anchor="start" x="8" y="-126" font-family="Helvetica,sans-Serif" font-size="10.00">openage::gui::GuiImageProvider</text>
<text text-anchor="middle" x="77" y="-115" font-family="Helvetica,sans-Serif" font-size="10.00">Link::set_game_spec</text>
</a>
</g>
</g>
<!-- Node45 -->
<g id="node2" class="node"><title>Node45</title>
<g id="a_node2"><a xlink:href="classopenage_1_1gui_1_1_game_spec_link.xhtml#a8d5474bb237c12a8f65d078b463734e1" target="_top" xlink:title=" ">
<polygon fill="white" stroke="black" points="194.5,-188 194.5,-218 339.5,-218 339.5,-188 194.5,-188"/>
<text text-anchor="start" x="202.5" y="-206" font-family="Helvetica,sans-Serif" font-size="10.00">openage::gui::GameSpecLink</text>
<text text-anchor="middle" x="267" y="-195" font-family="Helvetica,sans-Serif" font-size="10.00">::get_loaded_spec</text>
</a>
</g>
</g>
<!-- Node44&#45;&gt;Node45 -->
<g id="edge1" class="edge"><title>Node44&#45;&gt;Node45</title>
<path fill="none" stroke="midnightblue" d="M106.044,-138.124C128.403,-149.849 160.713,-166.059 190,-178 195.521,-180.251 201.326,-182.45 207.167,-184.551"/>
<polygon fill="midnightblue" stroke="midnightblue" points="206.389,-187.987 216.984,-187.986 208.701,-181.379 206.389,-187.987"/>
</g>
<!-- Node46 -->
<g id="node3" class="node"><title>Node46</title>
<g id="a_node3"><a xlink:href="classopenage_1_1gui_1_1_gui_game_spec_image_provider_impl.xhtml#a42ec51b02960edb6ef405251a640bd5f" target="_top" xlink:title=" ">
<polygon fill="white" stroke="black" points="196,-127.5 196,-168.5 338,-168.5 338,-127.5 196,-127.5"/>
<text text-anchor="start" x="204" y="-156.5" font-family="Helvetica,sans-Serif" font-size="10.00">openage::gui::GuiGameSpec</text>
<text text-anchor="start" x="204" y="-145.5" font-family="Helvetica,sans-Serif" font-size="10.00">ImageProviderImpl::on_game</text>
<text text-anchor="middle" x="267" y="-134.5" font-family="Helvetica,sans-Serif" font-size="10.00">_spec_invalidated</text>
</a>
</g>
</g>
<!-- Node44&#45;&gt;Node46 -->
<g id="edge2" class="edge"><title>Node44&#45;&gt;Node46</title>
<path fill="none" stroke="midnightblue" d="M154.196,-133.132C164.609,-134.517 175.324,-135.942 185.806,-137.336"/>
<polygon fill="midnightblue" stroke="midnightblue" points="185.391,-140.811 195.765,-138.66 186.314,-133.873 185.391,-140.811"/>
</g>
<!-- Node48 -->
<g id="node5" class="node"><title>Node48</title>
<g id="a_node5"><a xlink:href="classopenage_1_1gui_1_1_gui_game_spec_image_provider_impl.xhtml#a96f49e5b70c5848778479d8ae36431b9" target="_top" xlink:title=" ">
<polygon fill="white" stroke="black" points="380,-51.5 380,-92.5 522,-92.5 522,-51.5 380,-51.5"/>
<text text-anchor="start" x="388" y="-80.5" font-family="Helvetica,sans-Serif" font-size="10.00">openage::gui::GuiGameSpec</text>
<text text-anchor="start" x="388" y="-69.5" font-family="Helvetica,sans-Serif" font-size="10.00">ImageProviderImpl::on_game</text>
<text text-anchor="middle" x="451" y="-58.5" font-family="Helvetica,sans-Serif" font-size="10.00">_spec_loaded</text>
</a>
</g>
</g>
<!-- Node44&#45;&gt;Node48 -->
<g id="edge4" class="edge"><title>Node44&#45;&gt;Node48</title>
<path fill="none" stroke="midnightblue" d="M154.177,-112.556C217.029,-103.94 305.946,-91.7493 369.862,-82.9867"/>
<polygon fill="midnightblue" stroke="midnightblue" points="370.465,-86.4368 379.897,-81.6108 369.515,-79.5016 370.465,-86.4368"/>
</g>
<!-- Node58 -->
<g id="node15" class="node"><title>Node58</title>
<g id="a_node15"><a xlink:href="classopenage_1_1gui_1_1_gui_image_provider_link.xhtml#a4448d1bf9cbb8e7f8842989fd414c66b" target="_top" xlink:title=" ">
<polygon fill="white" stroke="black" points="190,-40 190,-70 344,-70 344,-40 190,-40"/>
<text text-anchor="start" x="198" y="-58" font-family="Helvetica,sans-Serif" font-size="10.00">openage::gui::GuiImageProvider</text>
<text text-anchor="middle" x="267" y="-47" font-family="Helvetica,sans-Serif" font-size="10.00">Link::on_game_spec_loaded</text>
</a>
</g>
</g>
<!-- Node44&#45;&gt;Node58 -->
<g id="edge14" class="edge"><title>Node44&#45;&gt;Node58</title>
<path fill="none" stroke="midnightblue" d="M119.723,-107.909C147.836,-97.7403 185.095,-84.2636 214.973,-73.4566"/>
<polygon fill="midnightblue" stroke="midnightblue" points="216.18,-76.742 224.393,-70.0492 213.799,-70.1593 216.18,-76.742"/>
</g>
<!-- Node47 -->
<g id="node4" class="node"><title>Node47</title>
<g id="a_node4"><a xlink:href="classopenage_1_1gui_1_1_gui_game_spec_image_provider_impl.xhtml#a99c5f3aa01010aafd71bec94f1fd017d" target="_top" xlink:title=" ">
<polygon fill="white" stroke="black" points="380,-127.5 380,-168.5 522,-168.5 522,-127.5 380,-127.5"/>
<text text-anchor="start" x="388" y="-156.5" font-family="Helvetica,sans-Serif" font-size="10.00">openage::gui::GuiGameSpec</text>
<text text-anchor="start" x="388" y="-145.5" font-family="Helvetica,sans-Serif" font-size="10.00">ImageProviderImpl::get</text>
<text text-anchor="middle" x="451" y="-134.5" font-family="Helvetica,sans-Serif" font-size="10.00">_missing_texture</text>
</a>
</g>
</g>
<!-- Node46&#45;&gt;Node47 -->
<g id="edge3" class="edge"><title>Node46&#45;&gt;Node47</title>
<path fill="none" stroke="midnightblue" d="M338.106,-148C348.502,-148 359.283,-148 369.865,-148"/>
<polygon fill="midnightblue" stroke="midnightblue" points="369.931,-151.5 379.93,-148 369.93,-144.5 369.931,-151.5"/>
</g>
<!-- Node49 -->
<g id="node6" class="node"><title>Node49</title>
<g id="a_node6"><a xlink:href="classopenage_1_1gui_1_1_gui_game_spec_image_provider_impl.xhtml#ab296b31a83e17fbd14f7106ce4c2a54a" target="_top" xlink:title=" ">
<polygon fill="white" stroke="black" points="558,-51.5 558,-92.5 700,-92.5 700,-51.5 558,-51.5"/>
<text text-anchor="start" x="566" y="-80.5" font-family="Helvetica,sans-Serif" font-size="10.00">openage::gui::GuiGameSpec</text>
<text text-anchor="start" x="566" y="-69.5" font-family="Helvetica,sans-Serif" font-size="10.00">ImageProviderImpl::migrate</text>
<text text-anchor="middle" x="629" y="-58.5" font-family="Helvetica,sans-Serif" font-size="10.00">_to_new_game_spec</text>
</a>
</g>
</g>
<!-- Node48&#45;&gt;Node49 -->
<g id="edge5" class="edge"><title>Node48&#45;&gt;Node49</title>
<path fill="none" stroke="midnightblue" d="M522.066,-72C530.54,-72 539.247,-72 547.852,-72"/>
<polygon fill="midnightblue" stroke="midnightblue" points="547.888,-75.5001 557.888,-72 547.888,-68.5001 547.888,-75.5001"/>
</g>
<!-- Node50 -->
<g id="node7" class="node"><title>Node50</title>
<g id="a_node7"><a xlink:href="namespaceopenage_1_1renderer.xhtml#a00b1f2873c9bbd71a19b3a26bd11d03e" target="_top" xlink:title="Make this vertex array object the current one.">
<polygon fill="white" stroke="black" points="747.5,-87.5 747.5,-106.5 866.5,-106.5 866.5,-87.5 747.5,-87.5"/>
<text text-anchor="middle" x="807" y="-94.5" font-family="Helvetica,sans-Serif" font-size="10.00">openage::renderer::bind</text>
</a>
</g>
</g>
<!-- Node49&#45;&gt;Node50 -->
<g id="edge6" class="edge"><title>Node49&#45;&gt;Node50</title>
<path fill="none" stroke="midnightblue" d="M700.066,-81.9525C712.348,-83.6971 725.117,-85.5109 737.36,-87.2499"/>
<polygon fill="midnightblue" stroke="midnightblue" points="737.105,-90.7488 747.498,-88.69 738.089,-83.8184 737.105,-90.7488"/>
</g>
<!-- Node51 -->
<g id="node8" class="node"><title>Node51</title>
<g id="a_node8"><a xlink:href="classopenage_1_1gui_1_1_gui_game_spec_image_provider_impl.xhtml#ac4c74475a47396d2e1824d2625e9d666" target="_top" xlink:title=" ">
<polygon fill="white" stroke="black" points="736,-27.5 736,-68.5 878,-68.5 878,-27.5 736,-27.5"/>
<text text-anchor="start" x="744" y="-56.5" font-family="Helvetica,sans-Serif" font-size="10.00">openage::gui::GuiGameSpec</text>
<text text-anchor="start" x="744" y="-45.5" font-family="Helvetica,sans-Serif" font-size="10.00">ImageProviderImpl::overwrite</text>
<text text-anchor="middle" x="807" y="-34.5" font-family="Helvetica,sans-Serif" font-size="10.00">_texture_handle</text>
</a>
</g>
</g>
<!-- Node49&#45;&gt;Node51 -->
<g id="edge7" class="edge"><title>Node49&#45;&gt;Node51</title>
<path fill="none" stroke="midnightblue" d="M700.066,-62.4456C708.54,-61.29 717.247,-60.1027 725.852,-58.9292"/>
<polygon fill="midnightblue" stroke="midnightblue" points="726.453,-62.3799 735.888,-57.5607 725.507,-55.444 726.453,-62.3799"/>
</g>
<!-- Node52 -->
<g id="node9" class="node"><title>Node52</title>
<g id="a_node9"><a xlink:href="namespaceopenage_1_1gui.xhtml#a1ed7c99cf0d2a47548927d8d688b0c42" target="_top" xlink:title=" ">
<polygon fill="white" stroke="black" points="931.5,-61 931.5,-91 1038.5,-91 1038.5,-61 931.5,-61"/>
<text text-anchor="start" x="939.5" y="-79" font-family="Helvetica,sans-Serif" font-size="10.00">openage::gui::aspect</text>
<text text-anchor="middle" x="985" y="-68" font-family="Helvetica,sans-Serif" font-size="10.00">_fit_size</text>
</a>
</g>
</g>
<!-- Node51&#45;&gt;Node52 -->
<g id="edge8" class="edge"><title>Node51&#45;&gt;Node52</title>
<path fill="none" stroke="midnightblue" d="M878.066,-59.1468C892.336,-61.4171 907.264,-63.792 921.26,-66.0186"/>
<polygon fill="midnightblue" stroke="midnightblue" points="920.838,-69.4955 931.264,-67.6102 921.938,-62.5824 920.838,-69.4955"/>
</g>
<!-- Node57 -->
<g id="node14" class="node"><title>Node57</title>
<g id="a_node14"><a xlink:href="classopenage_1_1gui_1_1_gui_game_spec_image_provider_impl.xhtml#a28738ee06bd6ef675a723b0db02433c2" target="_top" xlink:title=" ">
<polygon fill="white" stroke="black" points="914,-0.5 914,-41.5 1056,-41.5 1056,-0.5 914,-0.5"/>
<text text-anchor="start" x="922" y="-29.5" font-family="Helvetica,sans-Serif" font-size="10.00">openage::gui::GuiGameSpec</text>
<text text-anchor="start" x="922" y="-18.5" font-family="Helvetica,sans-Serif" font-size="10.00">ImageProviderImpl::get</text>
<text text-anchor="middle" x="985" y="-7.5" font-family="Helvetica,sans-Serif" font-size="10.00">_texture_handle</text>
</a>
</g>
</g>
<!-- Node51&#45;&gt;Node57 -->
<g id="edge13" class="edge"><title>Node51&#45;&gt;Node57</title>
<path fill="none" stroke="midnightblue" d="M878.066,-37.2513C886.54,-35.9512 895.247,-34.6156 903.852,-33.2954"/>
<polygon fill="midnightblue" stroke="midnightblue" points="904.534,-36.7318 913.888,-31.7558 903.473,-29.8127 904.534,-36.7318"/>
</g>
<!-- Node53 -->
<g id="node10" class="node"><title>Node53</title>
<g id="a_node10"><a xlink:href="namespaceopenage_1_1gui.xhtml#a4f415900a4d4e55b09b0be3c2ba60d54" target="_top" xlink:title=" ">
<polygon fill="white" stroke="black" points="1092,-66.5 1092,-85.5 1218,-85.5 1218,-66.5 1092,-66.5"/>
<text text-anchor="middle" x="1155" y="-73.5" font-family="Helvetica,sans-Serif" font-size="10.00">openage::gui::native_size</text>
</a>
</g>
</g>
<!-- Node52&#45;&gt;Node53 -->
<g id="edge9" class="edge"><title>Node52&#45;&gt;Node53</title>
<path fill="none" stroke="midnightblue" d="M1038.7,-76C1052.25,-76 1067.07,-76 1081.43,-76"/>
<polygon fill="midnightblue" stroke="midnightblue" points="1081.79,-79.5001 1091.79,-76 1081.79,-72.5001 1081.79,-79.5001"/>
</g>
<!-- Node54 -->
<g id="node11" class="node"><title>Node54</title>
<g id="a_node11"><a xlink:href="classopenage_1_1_texture.xhtml#aa2ba756d0a2a61a5dada563790e3ceec" target="_top" xlink:title=" ">
<polygon fill="white" stroke="black" points="1268.5,-83 1268.5,-113 1379.5,-113 1379.5,-83 1268.5,-83"/>
<text text-anchor="start" x="1276.5" y="-101" font-family="Helvetica,sans-Serif" font-size="10.00">openage::Texture::get</text>
<text text-anchor="middle" x="1324" y="-90" font-family="Helvetica,sans-Serif" font-size="10.00">_subtexture</text>
</a>
</g>
</g>
<!-- Node53&#45;&gt;Node54 -->
<g id="edge10" class="edge"><title>Node53&#45;&gt;Node54</title>
<path fill="none" stroke="midnightblue" d="M1218.18,-84.192C1231.34,-85.9248 1245.25,-87.7573 1258.49,-89.5012"/>
<polygon fill="midnightblue" stroke="midnightblue" points="1258.08,-92.9783 1268.46,-90.8145 1259,-86.0383 1258.08,-92.9783"/>
</g>
<!-- Node55 -->
<g id="node12" class="node"><title>Node55</title>
<g id="a_node12"><a xlink:href="namespaceopenage_1_1gui.xhtml#af717f0e1527d227ea7c4a8e9f34e87b8" target="_top" xlink:title=" ">
<polygon fill="white" stroke="black" points="1254,-44.5 1254,-63.5 1394,-63.5 1394,-44.5 1254,-44.5"/>
<text text-anchor="middle" x="1324" y="-51.5" font-family="Helvetica,sans-Serif" font-size="10.00">openage::gui::isAtlasTexture</text>
</a>
</g>
</g>
<!-- Node53&#45;&gt;Node55 -->
<g id="edge11" class="edge"><title>Node53&#45;&gt;Node55</title>
<path fill="none" stroke="midnightblue" d="M1218.18,-67.808C1226.52,-66.7104 1235.15,-65.5729 1243.73,-64.4432"/>
<polygon fill="midnightblue" stroke="midnightblue" points="1244.29,-67.8996 1253.74,-63.1234 1243.37,-60.9596 1244.29,-67.8996"/>
</g>
<!-- Node56 -->
<g id="node13" class="node"><title>Node56</title>
<g id="a_node13"><a xlink:href="classopenage_1_1_texture.xhtml#a4548b2bc3eb5310a97deee94ab536035" target="_top" xlink:title=" ">
<polygon fill="white" stroke="black" points="1430,-39 1430,-69 1541,-69 1541,-39 1430,-39"/>
<text text-anchor="start" x="1438" y="-57" font-family="Helvetica,sans-Serif" font-size="10.00">openage::Texture::get</text>
<text text-anchor="middle" x="1485.5" y="-46" font-family="Helvetica,sans-Serif" font-size="10.00">_subtexture_count</text>
</a>
</g>
</g>
<!-- Node55&#45;&gt;Node56 -->
<g id="edge12" class="edge"><title>Node55&#45;&gt;Node56</title>
<path fill="none" stroke="midnightblue" d="M1394.03,-54C1402.53,-54 1411.2,-54 1419.63,-54"/>
<polygon fill="midnightblue" stroke="midnightblue" points="1419.78,-57.5001 1429.78,-54 1419.78,-50.5001 1419.78,-57.5001"/>
</g>
<!-- Node58&#45;&gt;Node48 -->
<g id="edge15" class="edge"><title>Node58&#45;&gt;Node48</title>
<path fill="none" stroke="midnightblue" d="M344.13,-62.111C352.671,-62.9089 361.392,-63.7235 369.981,-64.5257"/>
<polygon fill="midnightblue" stroke="midnightblue" points="369.702,-68.0148 379.984,-65.46 370.353,-61.0451 369.702,-68.0148"/>
</g>
</g>
</svg>
