<?xml version="1.0" encoding="UTF-8" standalone="no"?>
<!DOCTYPE svg PUBLIC "-//W3C//DTD SVG 1.1//EN"
 "http://www.w3.org/Graphics/SVG/1.1/DTD/svg11.dtd">
<!-- Generated by graphviz version 2.38.0 (20140413.2041)
 -->
<!-- Title: openage::event::demo::Physics::process_input Pages: 1 -->
<svg width="1163pt" height="279pt"
 viewBox="0.00 0.00 1163.00 279.00" xmlns="http://www.w3.org/2000/svg" xmlns:xlink="http://www.w3.org/1999/xlink">
<g id="graph0" class="graph" transform="scale(1 1) rotate(0) translate(4 275)">
<title>openage::event::demo::Physics::process_input</title>
<polygon fill="white" stroke="none" points="-4,4 -4,-275 1159,-275 1159,4 -4,4"/>
<!-- Node8 -->
<g id="node1" class="node"><title>Node8</title>
<g id="a_node1"><a xlink:title=" ">
<polygon fill="#bfbfbf" stroke="black" points="0,-124.5 0,-154.5 125,-154.5 125,-124.5 0,-124.5"/>
<text text-anchor="start" x="8" y="-142.5" font-family="Helvetica,sans-Serif" font-size="10.00">openage::event::demo</text>
<text text-anchor="middle" x="62.5" y="-131.5" font-family="Helvetica,sans-Serif" font-size="10.00">::Physics::process_input</text>
</a>
</g>
</g>
<!-- Node9 -->
<g id="node2" class="node"><title>Node9</title>
<g id="a_node2"><a xlink:href="classopenage_1_1util_1_1_fixed_point.xhtml#a483c36345c5b597c1626162bc96dc52c" target="_top" xlink:title="Factory function to get a fixed&#45;point number from a double.">
<polygon fill="white" stroke="black" points="161,-149.5 161,-179.5 300,-179.5 300,-149.5 161,-149.5"/>
<text text-anchor="start" x="169" y="-167.5" font-family="Helvetica,sans-Serif" font-size="10.00">openage::util::FixedPoint</text>
<text text-anchor="middle" x="230.5" y="-156.5" font-family="Helvetica,sans-Serif" font-size="10.00">&lt; int64_t, 16 &gt;::from_double</text>
</a>
</g>
</g>
<!-- Node8&#45;&gt;Node9 -->
<g id="edge1" class="edge"><title>Node8&#45;&gt;Node9</title>
<path fill="none" stroke="midnightblue" d="M125.312,-148.809C133.66,-150.066 142.315,-151.37 150.906,-152.664"/>
<polygon fill="midnightblue" stroke="midnightblue" points="150.531,-156.146 160.941,-154.175 151.573,-149.225 150.531,-156.146"/>
</g>
<!-- Node10 -->
<g id="node3" class="node"><title>Node10</title>
<g id="a_node3"><a xlink:href="classopenage_1_1event_1_1demo_1_1_physics.xhtml#aaaafd5ac8b7a69517a6f26f9fa220984" target="_top" xlink:title=" ">
<polygon fill="white" stroke="black" points="174.5,-100.5 174.5,-130.5 286.5,-130.5 286.5,-100.5 174.5,-100.5"/>
<text text-anchor="start" x="182.5" y="-118.5" font-family="Helvetica,sans-Serif" font-size="10.00">openage::event::demo</text>
<text text-anchor="middle" x="230.5" y="-107.5" font-family="Helvetica,sans-Serif" font-size="10.00">::Physics::reset</text>
</a>
</g>
</g>
<!-- Node8&#45;&gt;Node10 -->
<g id="edge2" class="edge"><title>Node8&#45;&gt;Node10</title>
<path fill="none" stroke="midnightblue" d="M125.312,-130.563C138.041,-128.723 151.482,-126.78 164.326,-124.923"/>
<polygon fill="midnightblue" stroke="midnightblue" points="165.077,-128.351 174.473,-123.456 164.075,-121.423 165.077,-128.351"/>
</g>
<!-- Node11 -->
<g id="node4" class="node"><title>Node11</title>
<g id="a_node4"><a xlink:href="classopenage_1_1event_1_1_loop.xhtml#a345332e87684e73eeef16da46255882f" target="_top" xlink:title="Add a new Event to the queue.">
<polygon fill="white" stroke="black" points="336,-100.5 336,-130.5 445,-130.5 445,-100.5 336,-100.5"/>
<text text-anchor="start" x="344" y="-118.5" font-family="Helvetica,sans-Serif" font-size="10.00">openage::event::Loop</text>
<text text-anchor="middle" x="390.5" y="-107.5" font-family="Helvetica,sans-Serif" font-size="10.00">::create_event</text>
</a>
</g>
</g>
<!-- Node10&#45;&gt;Node11 -->
<g id="edge3" class="edge"><title>Node10&#45;&gt;Node11</title>
<path fill="none" stroke="midnightblue" d="M286.761,-115.5C299.33,-115.5 312.783,-115.5 325.675,-115.5"/>
<polygon fill="midnightblue" stroke="midnightblue" points="325.867,-119 335.867,-115.5 325.867,-112 325.867,-119"/>
</g>
<!-- Node12 -->
<g id="node5" class="node"><title>Node12</title>
<g id="a_node5"><a xlink:href="classopenage_1_1event_1_1_event_queue.xhtml#ac5abd71bf0167e4b7d36f19a29f4a611" target="_top" xlink:title="Add an event for a specified target.">
<polygon fill="white" stroke="black" points="481,-122.5 481,-152.5 621,-152.5 621,-122.5 481,-122.5"/>
<text text-anchor="start" x="489" y="-140.5" font-family="Helvetica,sans-Serif" font-size="10.00">openage::event::EventQueue</text>
<text text-anchor="middle" x="551" y="-129.5" font-family="Helvetica,sans-Serif" font-size="10.00">::create_event</text>
</a>
</g>
</g>
<!-- Node11&#45;&gt;Node12 -->
<g id="edge4" class="edge"><title>Node11&#45;&gt;Node12</title>
<path fill="none" stroke="midnightblue" d="M445.161,-122.948C453.423,-124.095 462.101,-125.3 470.779,-126.504"/>
<polygon fill="midnightblue" stroke="midnightblue" points="470.554,-130.006 480.941,-127.914 471.517,-123.073 470.554,-130.006"/>
</g>
<!-- Node25 -->
<g id="node18" class="node"><title>Node25</title>
<g id="a_node18"><a xlink:href="namespaceopenage_1_1log.xhtml#a325b0901ddb3f2af36f93781b7dd9744" target="_top" xlink:title="error message">
<polygon fill="white" stroke="black" points="509.5,-84 509.5,-103 592.5,-103 592.5,-84 509.5,-84"/>
<text text-anchor="middle" x="551" y="-91" font-family="Helvetica,sans-Serif" font-size="10.00">openage.log.err</text>
</a>
</g>
</g>
<!-- Node11&#45;&gt;Node25 -->
<g id="edge17" class="edge"><title>Node11&#45;&gt;Node25</title>
<path fill="none" stroke="midnightblue" d="M445.161,-108.052C462.728,-105.613 482.175,-102.914 499.501,-100.509"/>
<polygon fill="midnightblue" stroke="midnightblue" points="500.003,-103.973 509.427,-99.1316 499.04,-97.0398 500.003,-103.973"/>
</g>
<!-- Node13 -->
<g id="node6" class="node"><title>Node13</title>
<g id="a_node6"><a xlink:href="namespaceopenage_1_1log.xhtml#a0eff614e7d6e818746700ed9d29e583f" target="_top" xlink:title="Convenience method that makes use of the &#39;general&#39; LogSource.">
<polygon fill="white" stroke="black" points="679,-197 679,-216 770,-216 770,-197 679,-197"/>
<text text-anchor="middle" x="724.5" y="-204" font-family="Helvetica,sans-Serif" font-size="10.00">openage::log::log</text>
</a>
</g>
</g>
<!-- Node12&#45;&gt;Node13 -->
<g id="edge5" class="edge"><title>Node12&#45;&gt;Node13</title>
<path fill="none" stroke="midnightblue" d="M589.636,-152.642C619.625,-164.708 661.222,-181.443 690.053,-193.043"/>
<polygon fill="midnightblue" stroke="midnightblue" points="689.095,-196.43 699.679,-196.916 691.708,-189.936 689.095,-196.43"/>
</g>
<!-- Node19 -->
<g id="node12" class="node"><title>Node19</title>
<g id="a_node12"><a xlink:href="namespacestd.xhtml#a34591a1d8ee5da3f16f56554590d5e16" target="_top" xlink:title=" ">
<polygon fill="white" stroke="black" points="698.5,-128 698.5,-147 750.5,-147 750.5,-128 698.5,-128"/>
<text text-anchor="middle" x="724.5" y="-135" font-family="Helvetica,sans-Serif" font-size="10.00">std::min</text>
</a>
</g>
</g>
<!-- Node12&#45;&gt;Node19 -->
<g id="edge11" class="edge"><title>Node12&#45;&gt;Node19</title>
<path fill="none" stroke="midnightblue" d="M621.261,-137.5C644.165,-137.5 668.7,-137.5 687.993,-137.5"/>
<polygon fill="midnightblue" stroke="midnightblue" points="688.128,-141 698.128,-137.5 688.128,-134 688.128,-141"/>
</g>
<!-- Node22 -->
<g id="node15" class="node"><title>Node22</title>
<g id="a_node15"><a xlink:href="classopenage_1_1event_1_1_event_store.xhtml#ae17679f5da2da238bc0f423befda3850" target="_top" xlink:title=" ">
<polygon fill="white" stroke="black" points="657,-49.5 657,-79.5 792,-79.5 792,-49.5 657,-49.5"/>
<text text-anchor="start" x="665" y="-67.5" font-family="Helvetica,sans-Serif" font-size="10.00">openage::event::EventStore</text>
<text text-anchor="middle" x="724.5" y="-56.5" font-family="Helvetica,sans-Serif" font-size="10.00">::push</text>
</a>
</g>
</g>
<!-- Node12&#45;&gt;Node22 -->
<g id="edge14" class="edge"><title>Node12&#45;&gt;Node22</title>
<path fill="none" stroke="midnightblue" d="M595.295,-122.492C603.868,-119.33 612.76,-115.914 621,-112.5 642.12,-103.75 665.214,-93.0388 684.125,-83.9568"/>
<polygon fill="midnightblue" stroke="midnightblue" points="685.843,-87.014 693.323,-79.5103 682.796,-80.7118 685.843,-87.014"/>
</g>
<!-- Node14 -->
<g id="node7" class="node"><title>Node14</title>
<g id="a_node7"><a xlink:href="namespaceopenage_1_1log.xhtml#a3fbb0c225d01e222648ec28a43507188" target="_top" xlink:title="Returns a reference to a general named log source, for use by log::log().">
<polygon fill="white" stroke="black" points="844.5,-235.5 844.5,-265.5 954.5,-265.5 954.5,-235.5 844.5,-235.5"/>
<text text-anchor="start" x="852.5" y="-253.5" font-family="Helvetica,sans-Serif" font-size="10.00">openage::log::general</text>
<text text-anchor="middle" x="899.5" y="-242.5" font-family="Helvetica,sans-Serif" font-size="10.00">_source</text>
</a>
</g>
</g>
<!-- Node13&#45;&gt;Node14 -->
<g id="edge6" class="edge"><title>Node13&#45;&gt;Node14</title>
<path fill="none" stroke="midnightblue" d="M763.038,-216.047C783.913,-221.357 810.461,-228.108 834.512,-234.226"/>
<polygon fill="midnightblue" stroke="midnightblue" points="833.736,-237.64 844.29,-236.713 835.461,-230.856 833.736,-237.64"/>
</g>
<!-- Node15 -->
<g id="node8" class="node"><title>Node15</title>
<g id="a_node8"><a xlink:href="classopenage_1_1log_1_1_log_source.xhtml#a5640099e20af4cd368c767dbcef3a1df" target="_top" xlink:title="Logs a message (get one via MSG(level)).">
<polygon fill="white" stroke="black" points="828,-197 828,-216 971,-216 971,-197 828,-197"/>
<text text-anchor="middle" x="899.5" y="-204" font-family="Helvetica,sans-Serif" font-size="10.00">openage::log::LogSource::log</text>
</a>
</g>
</g>
<!-- Node13&#45;&gt;Node15 -->
<g id="edge7" class="edge"><title>Node13&#45;&gt;Node15</title>
<path fill="none" stroke="midnightblue" d="M770.052,-206.5C784.644,-206.5 801.337,-206.5 817.752,-206.5"/>
<polygon fill="midnightblue" stroke="midnightblue" points="817.916,-210 827.916,-206.5 817.916,-203 817.916,-210"/>
</g>
<!-- Node16 -->
<g id="node9" class="node"><title>Node16</title>
<g id="a_node9"><a xlink:href="namespaceopenage_1_1log.xhtml#a3d2885be9c3a09b9ff7ee8764b2e5f39" target="_top" xlink:title="Returns a reference to the global stdout logsink object; Initializes the object if needed.">
<polygon fill="white" stroke="black" points="1029,-240.5 1029,-270.5 1133,-270.5 1133,-240.5 1029,-240.5"/>
<text text-anchor="start" x="1037" y="-258.5" font-family="Helvetica,sans-Serif" font-size="10.00">openage::log::global</text>
<text text-anchor="middle" x="1081" y="-247.5" font-family="Helvetica,sans-Serif" font-size="10.00">_stdoutsink</text>
</a>
</g>
</g>
<!-- Node15&#45;&gt;Node16 -->
<g id="edge8" class="edge"><title>Node15&#45;&gt;Node16</title>
<path fill="none" stroke="midnightblue" d="M935.536,-216.064C959.265,-222.542 991.246,-231.272 1019.08,-238.871"/>
<polygon fill="midnightblue" stroke="midnightblue" points="1018.17,-242.25 1028.74,-241.507 1020.01,-235.497 1018.17,-242.25"/>
</g>
<!-- Node17 -->
<g id="node10" class="node"><title>Node17</title>
<g id="a_node10"><a xlink:href="classopenage_1_1log_1_1_log_sink_list.xhtml#a2d47416fab12651553b4b58c86fd6f84" target="_top" xlink:title=" ">
<polygon fill="white" stroke="black" points="1016.5,-191.5 1016.5,-221.5 1145.5,-221.5 1145.5,-191.5 1016.5,-191.5"/>
<text text-anchor="start" x="1024.5" y="-209.5" font-family="Helvetica,sans-Serif" font-size="10.00">openage::log::LogSinkList</text>
<text text-anchor="middle" x="1081" y="-198.5" font-family="Helvetica,sans-Serif" font-size="10.00">::instance</text>
</a>
</g>
</g>
<!-- Node15&#45;&gt;Node17 -->
<g id="edge9" class="edge"><title>Node15&#45;&gt;Node17</title>
<path fill="none" stroke="midnightblue" d="M971.185,-206.5C982.719,-206.5 994.693,-206.5 1006.3,-206.5"/>
<polygon fill="midnightblue" stroke="midnightblue" points="1006.38,-210 1016.38,-206.5 1006.38,-203 1006.38,-210"/>
</g>
<!-- Node18 -->
<g id="node11" class="node"><title>Node18</title>
<g id="a_node11"><a xlink:href="classopenage_1_1log_1_1_log_sink_list.xhtml#a8456b84ab55e1fe151c51438c5bfebdd" target="_top" xlink:title=" ">
<polygon fill="white" stroke="black" points="1007,-153 1007,-172 1155,-172 1155,-153 1007,-153"/>
<text text-anchor="middle" x="1081" y="-160" font-family="Helvetica,sans-Serif" font-size="10.00">openage::log::LogSinkList::log</text>
</a>
</g>
</g>
<!-- Node15&#45;&gt;Node18 -->
<g id="edge10" class="edge"><title>Node15&#45;&gt;Node18</title>
<path fill="none" stroke="midnightblue" d="M939.449,-196.953C966.382,-190.351 1002.41,-181.518 1031.25,-174.449"/>
<polygon fill="midnightblue" stroke="midnightblue" points="1032.25,-177.809 1041.13,-172.029 1030.58,-171.01 1032.25,-177.809"/>
</g>
<!-- Node20 -->
<g id="node13" class="node"><title>Node20</title>
<g id="a_node13"><a xlink:href="classopenage_1_1util_1_1_fixed_point.xhtml#aa01c403263c2142c0ce9ce40cde89066" target="_top" xlink:title="Factory function to construct a fixed&#45;point number with a given raw value.">
<polygon fill="white" stroke="black" points="837,-147.5 837,-177.5 962,-177.5 962,-147.5 837,-147.5"/>
<text text-anchor="start" x="845" y="-165.5" font-family="Helvetica,sans-Serif" font-size="10.00">openage::util::FixedPoint</text>
<text text-anchor="middle" x="899.5" y="-154.5" font-family="Helvetica,sans-Serif" font-size="10.00">::from_raw_value</text>
</a>
</g>
</g>
<!-- Node19&#45;&gt;Node20 -->
<g id="edge12" class="edge"><title>Node19&#45;&gt;Node20</title>
<path fill="none" stroke="midnightblue" d="M750.656,-141.135C770.599,-144.017 799.506,-148.194 826.479,-152.092"/>
<polygon fill="midnightblue" stroke="midnightblue" points="826.302,-155.603 836.699,-153.569 827.303,-148.675 826.302,-155.603"/>
</g>
<!-- Node21 -->
<g id="node14" class="node"><title>Node21</title>
<g id="a_node14"><a xlink:href="classopenage_1_1util_1_1_fixed_point.xhtml#affe7a3ec44c6f7ac96312875af742f87" target="_top" xlink:title="Converter to retrieve the raw value of the fixed&#45;point number.">
<polygon fill="white" stroke="black" points="837,-98.5 837,-128.5 962,-128.5 962,-98.5 837,-98.5"/>
<text text-anchor="start" x="845" y="-116.5" font-family="Helvetica,sans-Serif" font-size="10.00">openage::util::FixedPoint</text>
<text text-anchor="middle" x="899.5" y="-105.5" font-family="Helvetica,sans-Serif" font-size="10.00">::get_raw_value</text>
</a>
</g>
</g>
<!-- Node19&#45;&gt;Node21 -->
<g id="edge13" class="edge"><title>Node19&#45;&gt;Node21</title>
<path fill="none" stroke="midnightblue" d="M750.656,-134.01C770.599,-131.243 799.506,-127.233 826.479,-123.491"/>
<polygon fill="midnightblue" stroke="midnightblue" points="827.275,-126.914 836.699,-122.073 826.313,-119.981 827.275,-126.914"/>
</g>
<!-- Node23 -->
<g id="node16" class="node"><title>Node23</title>
<g id="a_node16"><a xlink:href="classopenage_1_1datastructure_1_1_pairing_heap.xhtml#a75e9e7602b59aeee47a2fd84a10c8f74" target="_top" xlink:title="adds the given item to the heap.">
<polygon fill="white" stroke="black" points="841.5,-49.5 841.5,-79.5 957.5,-79.5 957.5,-49.5 841.5,-49.5"/>
<text text-anchor="start" x="849.5" y="-67.5" font-family="Helvetica,sans-Serif" font-size="10.00">openage::datastructure</text>
<text text-anchor="middle" x="899.5" y="-56.5" font-family="Helvetica,sans-Serif" font-size="10.00">::PairingHeap::push</text>
</a>
</g>
</g>
<!-- Node22&#45;&gt;Node23 -->
<g id="edge15" class="edge"><title>Node22&#45;&gt;Node23</title>
<path fill="none" stroke="midnightblue" d="M792.386,-64.5C805.141,-64.5 818.496,-64.5 831.261,-64.5"/>
<polygon fill="midnightblue" stroke="midnightblue" points="831.35,-68.0001 841.35,-64.5 831.349,-61.0001 831.35,-68.0001"/>
</g>
<!-- Node24 -->
<g id="node17" class="node"><title>Node24</title>
<g id="a_node17"><a xlink:href="classopenage_1_1datastructure_1_1_pairing_heap.xhtml#a45599db3b89b27ad5c53ca900a67df85" target="_top" xlink:title=" ">
<polygon fill="white" stroke="black" points="841.5,-0.5 841.5,-30.5 957.5,-30.5 957.5,-0.5 841.5,-0.5"/>
<text text-anchor="start" x="849.5" y="-18.5" font-family="Helvetica,sans-Serif" font-size="10.00">openage::datastructure</text>
<text text-anchor="middle" x="899.5" y="-7.5" font-family="Helvetica,sans-Serif" font-size="10.00">::PairingHeap::size</text>
</a>
</g>
</g>
<!-- Node22&#45;&gt;Node24 -->
<g id="edge16" class="edge"><title>Node22&#45;&gt;Node24</title>
<path fill="none" stroke="midnightblue" d="M778.817,-49.3986C796.742,-44.3215 816.908,-38.6098 835.506,-33.3423"/>
<polygon fill="midnightblue" stroke="midnightblue" points="836.691,-36.6443 845.359,-30.5516 834.783,-29.9093 836.691,-36.6443"/>
</g>
</g>
</svg>
