<?xml version="1.0" encoding="UTF-8" standalone="no"?>
<!DOCTYPE svg PUBLIC "-//W3C//DTD SVG 1.1//EN"
 "http://www.w3.org/Graphics/SVG/1.1/DTD/svg11.dtd">
<!-- Generated by graphviz version 2.38.0 (20140413.2041)
 -->
<!-- Title: openage::gui::GuiGameSpecImageProviderImpl Pages: 1 -->
<!--zoomable 497 -->
<svg id="main" version="1.1" xmlns="http://www.w3.org/2000/svg" xmlns:xlink="http://www.w3.org/1999/xlink" xml:space="preserve" onload="init(evt)">
<style type="text/css"><![CDATA[
.edge:hover path { stroke: red; }
.edge:hover polygon { stroke: red; fill: red; }
]]></style>
<script type="text/javascript"><![CDATA[
var edges = document.getElementsByTagName('g');
if (edges && edges.length) {
  for (var i=0;i<edges.length;i++) {
    if (edges[i].id.substr(0,4)=='edge') {
      edges[i].setAttribute('class','edge');
    }
  }
}
]]></script>
        <defs>
                <circle id="rim" cx="0" cy="0" r="7"/>
                <circle id="rim2" cx="0" cy="0" r="3.5"/>
                <g id="zoomPlus">
                        <use xlink:href="#rim" fill="#404040">
                                <set attributeName="fill" to="#808080" begin="zoomplus.mouseover" end="zoomplus.mouseout"/>
                        </use>
                        <path d="M-4,0h8M0,-4v8" fill="none" stroke="white" stroke-width="1.5" pointer-events="none"/>
                </g>
                <g id="zoomMin">
                        <use xlink:href="#rim" fill="#404040">
                                <set attributeName="fill" to="#808080" begin="zoomminus.mouseover" end="zoomminus.mouseout"/>
                        </use>
                        <path d="M-4,0h8" fill="none" stroke="white" stroke-width="1.5" pointer-events="none"/>
                </g>
                <g id="dirArrow">
                        <path fill="none" stroke="white" stroke-width="1.5" d="M0,-3.0v7 M-2.5,-0.5L0,-3.0L2.5,-0.5"/>
                </g>
               <g id="resetDef">
                       <use xlink:href="#rim2" fill="#404040">
                               <set attributeName="fill" to="#808080" begin="reset.mouseover" end="reset.mouseout"/>
                       </use>
               </g>
        </defs>

<script type="text/javascript">
var viewWidth = 300;
var viewHeight = 497;
var sectionId = 'dynsection-1';
</script>
<script xlink:href="svgpan.js"/>
<svg id="graph" class="graph">
<g id="viewport">
<title>openage::gui::GuiGameSpecImageProviderImpl</title>
<polygon fill="white" stroke="none" points="-4,4 -4,-493 295.5,-493 295.5,4 -4,4"/>
<!-- Node7 -->
<g id="node1" class="node"><title>Node7</title>
<g id="a_node1"><a xlink:title=" ">
<polygon fill="#bfbfbf" stroke="black" points="58.5,-0.5 58.5,-233.5 238.5,-233.5 238.5,-0.5 58.5,-0.5"/>
<text text-anchor="start" x="66.5" y="-221.5" font-family="Helvetica,sans-Serif" font-size="10.00">openage::gui::GuiGameSpec</text>
<text text-anchor="middle" x="148.5" y="-210.5" font-family="Helvetica,sans-Serif" font-size="10.00">ImageProviderImpl</text>
<polyline fill="none" stroke="black" points="58.5,-203.5 238.5,-203.5 "/>
<text text-anchor="start" x="66.5" y="-191.5" font-family="Helvetica,sans-Serif" font-size="10.00"># loaded_game_spec</text>
<text text-anchor="start" x="66.5" y="-180.5" font-family="Helvetica,sans-Serif" font-size="10.00"># invalidated</text>
<text text-anchor="start" x="66.5" y="-169.5" font-family="Helvetica,sans-Serif" font-size="10.00">&#45; filled_handles</text>
<text text-anchor="start" x="66.5" y="-158.5" font-family="Helvetica,sans-Serif" font-size="10.00">&#45; loaded_game_spec_mutex</text>
<text text-anchor="start" x="66.5" y="-147.5" font-family="Helvetica,sans-Serif" font-size="10.00">&#45; loaded_game_spec_cond</text>
<text text-anchor="start" x="66.5" y="-136.5" font-family="Helvetica,sans-Serif" font-size="10.00">&#45; ended</text>
<polyline fill="none" stroke="black" points="58.5,-129.5 238.5,-129.5 "/>
<text text-anchor="start" x="66.5" y="-117.5" font-family="Helvetica,sans-Serif" font-size="10.00">+ GuiGameSpecImageProviderImpl()</text>
<text text-anchor="start" x="66.5" y="-106.5" font-family="Helvetica,sans-Serif" font-size="10.00">+ ~GuiGameSpecImageProviderImpl()</text>
<text text-anchor="start" x="66.5" y="-95.5" font-family="Helvetica,sans-Serif" font-size="10.00">+ on_game_spec_loaded()</text>
<text text-anchor="start" x="66.5" y="-84.5" font-family="Helvetica,sans-Serif" font-size="10.00">+ on_game_spec_invalidated()</text>
<text text-anchor="start" x="66.5" y="-73.5" font-family="Helvetica,sans-Serif" font-size="10.00">+ fill_texture_handle()</text>
<text text-anchor="start" x="66.5" y="-62.5" font-family="Helvetica,sans-Serif" font-size="10.00"># get_missing_texture()</text>
<text text-anchor="start" x="66.5" y="-51.5" font-family="Helvetica,sans-Serif" font-size="10.00">&#45; get_texture_handle()</text>
<text text-anchor="start" x="66.5" y="-40.5" font-family="Helvetica,sans-Serif" font-size="10.00">&#45; requestTexture()</text>
<text text-anchor="start" x="66.5" y="-29.5" font-family="Helvetica,sans-Serif" font-size="10.00">&#45; give_up()</text>
<text text-anchor="start" x="66.5" y="-18.5" font-family="Helvetica,sans-Serif" font-size="10.00">&#45; migrate_to_new_game_spec()</text>
<text text-anchor="start" x="66.5" y="-7.5" font-family="Helvetica,sans-Serif" font-size="10.00">&#45; overwrite_texture_handle()</text>
</a>
</g>
</g>
<!-- Node8 -->
<g id="node2" class="node"><title>Node8</title>
<g id="a_node2"><a xlink:href="classqtsdl_1_1_gui_image_provider_impl.xhtml" target="_top" xlink:title=" ">
<polygon fill="white" stroke="black" points="0,-281.5 0,-393.5 137,-393.5 137,-281.5 0,-281.5"/>
<text text-anchor="middle" x="68.5" y="-381.5" font-family="Helvetica,sans-Serif" font-size="10.00">qtsdl::GuiImageProviderImpl</text>
<polyline fill="none" stroke="black" points="0,-374.5 137,-374.5 "/>
<text text-anchor="middle" x="68.5" y="-362.5" font-family="Helvetica,sans-Serif" font-size="10.00"> </text>
<polyline fill="none" stroke="black" points="0,-355.5 137,-355.5 "/>
<text text-anchor="start" x="8" y="-343.5" font-family="Helvetica,sans-Serif" font-size="10.00">+ GuiImageProviderImpl()</text>
<text text-anchor="start" x="8" y="-332.5" font-family="Helvetica,sans-Serif" font-size="10.00">+ ~GuiImageProviderImpl()</text>
<text text-anchor="start" x="8" y="-321.5" font-family="Helvetica,sans-Serif" font-size="10.00">+ get_id()</text>
<text text-anchor="start" x="8" y="-310.5" font-family="Helvetica,sans-Serif" font-size="10.00">+ give_up()</text>
<text text-anchor="start" x="8" y="-299.5" font-family="Helvetica,sans-Serif" font-size="10.00">+ take_ownership()</text>
<text text-anchor="start" x="8" y="-288.5" font-family="Helvetica,sans-Serif" font-size="10.00">+ take_ownership()</text>
</a>
</g>
</g>
<!-- Node8&#45;&gt;Node7 -->
<g id="edge1" class="edge"><title>Node8&#45;&gt;Node7</title>
<path fill="none" stroke="midnightblue" d="M92.165,-271.865C96.594,-259.768 101.346,-246.79 106.143,-233.688"/>
<polygon fill="none" stroke="midnightblue" points="88.8389,-270.769 88.6874,-281.363 95.4122,-273.176 88.8389,-270.769"/>
</g>
<!-- Node9 -->
<g id="node3" class="node"><title>Node9</title>
<g id="a_node3"><a xlink:title=" ">
<polygon fill="white" stroke="#bfbfbf" points="13.5,-431.5 13.5,-488.5 123.5,-488.5 123.5,-431.5 13.5,-431.5"/>
<text text-anchor="middle" x="68.5" y="-476.5" font-family="Helvetica,sans-Serif" font-size="10.00">QQuickImageProvider</text>
<polyline fill="none" stroke="#bfbfbf" points="13.5,-469.5 123.5,-469.5 "/>
<text text-anchor="middle" x="68.5" y="-457.5" font-family="Helvetica,sans-Serif" font-size="10.00"> </text>
<polyline fill="none" stroke="#bfbfbf" points="13.5,-450.5 123.5,-450.5 "/>
<text text-anchor="middle" x="68.5" y="-438.5" font-family="Helvetica,sans-Serif" font-size="10.00"> </text>
</a>
</g>
</g>
<!-- Node9&#45;&gt;Node8 -->
<g id="edge2" class="edge"><title>Node9&#45;&gt;Node8</title>
<path fill="none" stroke="midnightblue" d="M68.5,-421.109C68.5,-412.362 68.5,-402.883 68.5,-393.569"/>
<polygon fill="none" stroke="midnightblue" points="65.0001,-421.355 68.5,-431.355 72.0001,-421.355 65.0001,-421.355"/>
</g>
<!-- Node10 -->
<g id="node4" class="node"><title>Node10</title>
<g id="a_node4"><a xlink:href="classqtsdl_1_1_gui_callback.xhtml" target="_top" xlink:title=" ">
<polygon fill="white" stroke="black" points="155.5,-298 155.5,-377 251.5,-377 251.5,-298 155.5,-298"/>
<text text-anchor="middle" x="203.5" y="-365" font-family="Helvetica,sans-Serif" font-size="10.00">qtsdl::GuiCallback</text>
<polyline fill="none" stroke="black" points="155.5,-358 251.5,-358 "/>
<text text-anchor="middle" x="203.5" y="-346" font-family="Helvetica,sans-Serif" font-size="10.00"> </text>
<polyline fill="none" stroke="black" points="155.5,-339 251.5,-339 "/>
<text text-anchor="start" x="163.5" y="-327" font-family="Helvetica,sans-Serif" font-size="10.00">+ GuiCallback()</text>
<text text-anchor="start" x="163.5" y="-316" font-family="Helvetica,sans-Serif" font-size="10.00">+ ~GuiCallback()</text>
<text text-anchor="start" x="163.5" y="-305" font-family="Helvetica,sans-Serif" font-size="10.00">+ process()</text>
</a>
</g>
</g>
<!-- Node10&#45;&gt;Node7 -->
<g id="edge3" class="edge"><title>Node10&#45;&gt;Node7</title>
<path fill="none" stroke="#404040" d="M193.794,-297.94C189.971,-282.751 185.343,-264.368 180.526,-245.229"/>
<polygon fill="none" stroke="#404040" points="180.519,-245.201 175.175,-240.359 177.589,-233.564 182.933,-238.407 180.519,-245.201"/>
<text text-anchor="middle" x="238" y="-255" font-family="Helvetica,sans-Serif" font-size="10.00"> &#45;render_thread_callback</text>
</g>
<!-- Node11 -->
<g id="node5" class="node"><title>Node11</title>
<g id="a_node5"><a xlink:title=" ">
<polygon fill="white" stroke="#bfbfbf" points="177,-431.5 177,-488.5 230,-488.5 230,-431.5 177,-431.5"/>
<text text-anchor="middle" x="203.5" y="-476.5" font-family="Helvetica,sans-Serif" font-size="10.00">QObject</text>
<polyline fill="none" stroke="#bfbfbf" points="177,-469.5 230,-469.5 "/>
<text text-anchor="middle" x="203.5" y="-457.5" font-family="Helvetica,sans-Serif" font-size="10.00"> </text>
<polyline fill="none" stroke="#bfbfbf" points="177,-450.5 230,-450.5 "/>
<text text-anchor="middle" x="203.5" y="-438.5" font-family="Helvetica,sans-Serif" font-size="10.00"> </text>
</a>
</g>
</g>
<!-- Node11&#45;&gt;Node10 -->
<g id="edge4" class="edge"><title>Node11&#45;&gt;Node10</title>
<path fill="none" stroke="midnightblue" d="M203.5,-421.134C203.5,-407.217 203.5,-391.442 203.5,-377.432"/>
<polygon fill="none" stroke="midnightblue" points="200,-421.355 203.5,-431.355 207,-421.355 200,-421.355"/>
</g>
</g>
</svg>
        <g id="navigator" transform="translate(0 0)" fill="#404254">
                <rect fill="#f2f5e9" fill-opacity="0.5" stroke="#606060" stroke-width=".5" x="0" y="0" width="60" height="60"/>
                <use id="zoomplus" xlink:href="#zoomPlus" x="17" y="9" onmousedown="handleZoom(evt,'in')"/>
                <use id="zoomminus" xlink:href="#zoomMin" x="42" y="9" onmousedown="handleZoom(evt,'out')"/>
                <use id="reset" xlink:href="#resetDef" x="30" y="36" onmousedown="handleReset()"/>
                <g id="arrowUp" xlink:href="#dirArrow" transform="translate(30 24)" onmousedown="handlePan(0,-1)">
                  <use xlink:href="#rim" fill="#404040">
                        <set attributeName="fill" to="#808080" begin="arrowUp.mouseover" end="arrowUp.mouseout"/>
                  </use>
                  <path fill="none" stroke="white" stroke-width="1.5" d="M0,-3.0v7 M-2.5,-0.5L0,-3.0L2.5,-0.5"/>
                </g>
                <g id="arrowRight" xlink:href="#dirArrow" transform="rotate(90) translate(36 -43)" onmousedown="handlePan(1,0)">
                  <use xlink:href="#rim" fill="#404040">
                        <set attributeName="fill" to="#808080" begin="arrowRight.mouseover" end="arrowRight.mouseout"/>
                  </use>
                  <path fill="none" stroke="white" stroke-width="1.5" d="M0,-3.0v7 M-2.5,-0.5L0,-3.0L2.5,-0.5"/>
                </g>
                <g id="arrowDown" xlink:href="#dirArrow" transform="rotate(180) translate(-30 -48)" onmousedown="handlePan(0,1)">
                  <use xlink:href="#rim" fill="#404040">
                        <set attributeName="fill" to="#808080" begin="arrowDown.mouseover" end="arrowDown.mouseout"/>
                  </use>
                  <path fill="none" stroke="white" stroke-width="1.5" d="M0,-3.0v7 M-2.5,-0.5L0,-3.0L2.5,-0.5"/>
                </g>
                <g id="arrowLeft" xlink:href="#dirArrow" transform="rotate(270) translate(-36 17)" onmousedown="handlePan(-1,0)">
                  <use xlink:href="#rim" fill="#404040">
                        <set attributeName="fill" to="#808080" begin="arrowLeft.mouseover" end="arrowLeft.mouseout"/>
                  </use>
                  <path fill="none" stroke="white" stroke-width="1.5" d="M0,-3.0v7 M-2.5,-0.5L0,-3.0L2.5,-0.5"/>
                </g>
        </g>
        <svg viewBox="0 0 15 15" width="100%" height="30px" preserveAspectRatio="xMaxYMin meet">
         <g id="arrow_out" transform="scale(0.3 0.3)">
          <a xlink:href="classopenage_1_1gui_1_1_gui_game_spec_image_provider_impl__coll__graph_org.svg" target="_base">
           <rect id="button" ry="5" rx="5" y="6" x="6" height="38" width="38"
                fill="#f2f5e9" fill-opacity="0.5" stroke="#606060" stroke-width="1.0"/>
           <path id="arrow"
             d="M 11.500037,31.436501 C 11.940474,20.09759 22.043105,11.32322 32.158766,21.979434 L 37.068811,17.246167 C 37.068811,17.246167 37.088388,32 37.088388,32 L 22.160133,31.978069 C 22.160133,31.978069 26.997745,27.140456 26.997745,27.140456 C 18.528582,18.264221 13.291696,25.230495 11.500037,31.436501 z"
             style="fill:#404040;"/>
          </a>
         </g>
        </svg>
</svg>
