<?xml version="1.0" encoding="UTF-8" standalone="no"?>
<!DOCTYPE svg PUBLIC "-//W3C//DTD SVG 1.1//EN"
 "http://www.w3.org/Graphics/SVG/1.1/DTD/svg11.dtd">
<!-- Generated by graphviz version 2.38.0 (20140413.2041)
 -->
<!-- Title: openage::UnitAbility::is_same_player Pages: 1 -->
<svg width="256pt" height="39pt"
 viewBox="0.00 0.00 256.00 39.00" xmlns="http://www.w3.org/2000/svg" xmlns:xlink="http://www.w3.org/1999/xlink">
<g id="graph0" class="graph" transform="scale(1 1) rotate(0) translate(4 35)">
<title>openage::UnitAbility::is_same_player</title>
<polygon fill="white" stroke="none" points="-4,4 -4,-35 252,-35 252,4 -4,4"/>
<!-- Node51 -->
<g id="node1" class="node"><title>Node51</title>
<g id="a_node1"><a xlink:title=" ">
<polygon fill="#bfbfbf" stroke="black" points="144,-0.5 144,-30.5 248,-30.5 248,-0.5 144,-0.5"/>
<text text-anchor="start" x="152" y="-18.5" font-family="Helvetica,sans-Serif" font-size="10.00">openage::UnitAbility</text>
<text text-anchor="middle" x="196" y="-7.5" font-family="Helvetica,sans-Serif" font-size="10.00">::is_same_player</text>
</a>
</g>
</g>
<!-- Node52 -->
<g id="node2" class="node"><title>Node52</title>
<g id="a_node2"><a xlink:href="classopenage_1_1_build_ability.xhtml#abe9ac45166f48d9a53467f17d0c4efdc" target="_top" xlink:title=" ">
<polygon fill="white" stroke="black" points="0,-0.5 0,-30.5 108,-30.5 108,-0.5 0,-0.5"/>
<text text-anchor="start" x="8" y="-18.5" font-family="Helvetica,sans-Serif" font-size="10.00">openage::BuildAbility</text>
<text text-anchor="middle" x="54" y="-7.5" font-family="Helvetica,sans-Serif" font-size="10.00">::can_invoke</text>
</a>
</g>
</g>
<!-- Node51&#45;&gt;Node52 -->
<g id="edge1" class="edge"><title>Node51&#45;&gt;Node52</title>
<path fill="none" stroke="midnightblue" d="M133.499,-15.5C125.069,-15.5 116.473,-15.5 108.209,-15.5"/>
<polygon fill="midnightblue" stroke="midnightblue" points="133.664,-19.0001 143.664,-15.5 133.664,-12.0001 133.664,-19.0001"/>
</g>
</g>
</svg>
