<?xml version="1.0" encoding="UTF-8" standalone="no"?>
<!DOCTYPE svg PUBLIC "-//W3C//DTD SVG 1.1//EN"
 "http://www.w3.org/Graphics/SVG/1.1/DTD/svg11.dtd">
<!-- Generated by graphviz version 2.38.0 (20140413.2041)
 -->
<!-- Title: openage.convert.dataformat.data_formatter.DataFormatter.export Pages: 1 -->
<svg width="606pt" height="66pt"
 viewBox="0.00 0.00 606.00 66.00" xmlns="http://www.w3.org/2000/svg" xmlns:xlink="http://www.w3.org/1999/xlink">
<g id="graph0" class="graph" transform="scale(1 1) rotate(0) translate(4 62)">
<title>openage.convert.dataformat.data_formatter.DataFormatter.export</title>
<polygon fill="white" stroke="none" points="-4,4 -4,-62 602,-62 602,4 -4,4"/>
<!-- Node4 -->
<g id="node1" class="node"><title>Node4</title>
<g id="a_node1"><a xlink:title="Generates files in the requested formats to projectdir.">
<polygon fill="#bfbfbf" stroke="black" points="0,-14 0,-44 158,-44 158,-14 0,-14"/>
<text text-anchor="start" x="8" y="-32" font-family="Helvetica,sans-Serif" font-size="10.00">openage.convert.dataformat.data</text>
<text text-anchor="middle" x="79" y="-21" font-family="Helvetica,sans-Serif" font-size="10.00">_formatter.DataFormatter.export</text>
</a>
</g>
</g>
<!-- Node5 -->
<g id="node2" class="node"><title>Node5</title>
<g id="a_node2"><a xlink:href="namespaceopenage_1_1py.xhtml#a5ba80af3e9224d2de11179ce232f75d9" target="_top" xlink:title=" ">
<polygon fill="white" stroke="black" points="194,-38.5 194,-57.5 286,-57.5 286,-38.5 194,-38.5"/>
<text text-anchor="middle" x="240" y="-45.5" font-family="Helvetica,sans-Serif" font-size="10.00">openage::py::dict</text>
</a>
</g>
</g>
<!-- Node4&#45;&gt;Node5 -->
<g id="edge1" class="edge"><title>Node4&#45;&gt;Node5</title>
<path fill="none" stroke="midnightblue" d="M158.103,-38.333C166.813,-39.3738 175.545,-40.4173 183.882,-41.4135"/>
<polygon fill="midnightblue" stroke="midnightblue" points="183.481,-44.8905 193.826,-42.6018 184.312,-37.9399 183.481,-44.8905"/>
</g>
<!-- Node8 -->
<g id="node5" class="node"><title>Node8</title>
<g id="a_node5"><a xlink:href="namespaceopenage_1_1py.xhtml#a58cbca251b8e2118e0a6b9b0b78a7b32" target="_top" xlink:title=" ">
<polygon fill="white" stroke="black" points="195.5,-0.5 195.5,-19.5 284.5,-19.5 284.5,-0.5 195.5,-0.5"/>
<text text-anchor="middle" x="240" y="-7.5" font-family="Helvetica,sans-Serif" font-size="10.00">openage::py::list</text>
</a>
</g>
</g>
<!-- Node4&#45;&gt;Node8 -->
<g id="edge5" class="edge"><title>Node4&#45;&gt;Node8</title>
<path fill="none" stroke="midnightblue" d="M158.103,-19.667C167.247,-18.5742 176.416,-17.4786 185.126,-16.4378"/>
<polygon fill="midnightblue" stroke="midnightblue" points="185.596,-19.9066 195.11,-15.2447 184.766,-12.956 185.596,-19.9066"/>
</g>
<!-- Node6 -->
<g id="node3" class="node"><title>Node6</title>
<g id="a_node3"><a xlink:href="namespaceopenage_1_1testing_1_1testing.xhtml#ac25bf81db406af62d08113ef7ae9fd6e" target="_top" xlink:title=" ">
<polygon fill="white" stroke="black" points="322,-19.5 322,-38.5 467,-38.5 467,-19.5 322,-19.5"/>
<text text-anchor="middle" x="394.5" y="-26.5" font-family="Helvetica,sans-Serif" font-size="10.00">openage.testing.testing.result</text>
</a>
</g>
</g>
<!-- Node5&#45;&gt;Node6 -->
<g id="edge2" class="edge"><title>Node5&#45;&gt;Node6</title>
<path fill="none" stroke="midnightblue" d="M286.342,-42.3508C294.356,-41.3523 302.919,-40.2855 311.58,-39.2064"/>
<polygon fill="midnightblue" stroke="midnightblue" points="312.275,-42.647 321.765,-37.9375 311.409,-35.7007 312.275,-42.647"/>
</g>
<!-- Node7 -->
<g id="node4" class="node"><title>Node7</title>
<g id="a_node4"><a xlink:href="namespaceopenage_1_1util.xhtml#a7bc4421a5f0f57f3a0aba3f96eb8d19c" target="_top" xlink:title=" ">
<polygon fill="white" stroke="black" points="503,-19.5 503,-38.5 598,-38.5 598,-19.5 503,-19.5"/>
<text text-anchor="middle" x="550.5" y="-26.5" font-family="Helvetica,sans-Serif" font-size="10.00">openage::util::repr</text>
</a>
</g>
</g>
<!-- Node6&#45;&gt;Node7 -->
<g id="edge3" class="edge"><title>Node6&#45;&gt;Node7</title>
<path fill="none" stroke="midnightblue" d="M467.09,-22.2648C475.595,-22.2181 484.189,-22.2817 492.453,-22.4556"/>
<polygon fill="midnightblue" stroke="midnightblue" points="492.622,-25.9614 502.713,-22.7348 492.812,-18.964 492.622,-25.9614"/>
</g>
<!-- Node7&#45;&gt;Node6 -->
<g id="edge4" class="edge"><title>Node7&#45;&gt;Node6</title>
<path fill="none" stroke="midnightblue" d="M502.713,-35.2652C494.626,-35.5381 486.01,-35.6958 477.312,-35.7383"/>
<polygon fill="midnightblue" stroke="midnightblue" points="477.091,-32.2383 467.09,-35.7352 477.089,-39.2383 477.091,-32.2383"/>
</g>
<!-- Node8&#45;&gt;Node6 -->
<g id="edge6" class="edge"><title>Node8&#45;&gt;Node6</title>
<path fill="none" stroke="midnightblue" d="M284.7,-15.4446C293.232,-16.5076 302.434,-17.654 311.745,-18.8141"/>
<polygon fill="midnightblue" stroke="midnightblue" points="311.509,-22.3117 321.865,-20.075 312.375,-15.3655 311.509,-22.3117"/>
</g>
</g>
</svg>
