<?xml version="1.0" encoding="UTF-8" standalone="no"?>
<!DOCTYPE svg PUBLIC "-//W3C//DTD SVG 1.1//EN"
 "http://www.w3.org/Graphics/SVG/1.1/DTD/svg11.dtd">
<!-- Generated by graphviz version 2.38.0 (20140413.2041)
 -->
<!-- Title: openage::Terrain::blendmode Pages: 1 -->
<svg width="464pt" height="39pt"
 viewBox="0.00 0.00 464.00 39.00" xmlns="http://www.w3.org/2000/svg" xmlns:xlink="http://www.w3.org/1999/xlink">
<g id="graph0" class="graph" transform="scale(1 1) rotate(0) translate(4 35)">
<title>openage::Terrain::blendmode</title>
<polygon fill="white" stroke="none" points="-4,4 -4,-35 460,-35 460,4 -4,4"/>
<!-- Node37 -->
<g id="node1" class="node"><title>Node37</title>
<g id="a_node1"><a xlink:title=" ">
<polygon fill="#bfbfbf" stroke="black" points="314,-6 314,-25 456,-25 456,-6 314,-6"/>
<text text-anchor="middle" x="385" y="-13" font-family="Helvetica,sans-Serif" font-size="10.00">openage::Terrain::blendmode</text>
</a>
</g>
</g>
<!-- Node38 -->
<g id="node2" class="node"><title>Node38</title>
<g id="a_node2"><a xlink:href="classopenage_1_1_terrain.xhtml#aac2534a0373a7bbd8efdcf659977a881" target="_top" xlink:title=" ">
<polygon fill="white" stroke="black" points="170,-0.5 170,-30.5 278,-30.5 278,-0.5 170,-0.5"/>
<text text-anchor="start" x="178" y="-18.5" font-family="Helvetica,sans-Serif" font-size="10.00">openage::Terrain::get</text>
<text text-anchor="middle" x="224" y="-7.5" font-family="Helvetica,sans-Serif" font-size="10.00">_blending_mode</text>
</a>
</g>
</g>
<!-- Node37&#45;&gt;Node38 -->
<g id="edge1" class="edge"><title>Node37&#45;&gt;Node38</title>
<path fill="none" stroke="midnightblue" d="M303.647,-15.5C294.984,-15.5 286.335,-15.5 278.11,-15.5"/>
<polygon fill="midnightblue" stroke="midnightblue" points="303.797,-19.0001 313.797,-15.5 303.797,-12.0001 303.797,-19.0001"/>
</g>
<!-- Node39 -->
<g id="node3" class="node"><title>Node39</title>
<g id="a_node3"><a xlink:href="classopenage_1_1_terrain.xhtml#a72f81eb7623d4ade8272f8163bfcb4d9" target="_top" xlink:title=" ">
<polygon fill="white" stroke="black" points="0,-0.5 0,-30.5 134,-30.5 134,-0.5 0,-0.5"/>
<text text-anchor="start" x="8" y="-18.5" font-family="Helvetica,sans-Serif" font-size="10.00">openage::Terrain::calculate</text>
<text text-anchor="middle" x="67" y="-7.5" font-family="Helvetica,sans-Serif" font-size="10.00">_masks</text>
</a>
</g>
</g>
<!-- Node38&#45;&gt;Node39 -->
<g id="edge2" class="edge"><title>Node38&#45;&gt;Node39</title>
<path fill="none" stroke="midnightblue" d="M159.541,-15.5C151.131,-15.5 142.493,-15.5 134.041,-15.5"/>
<polygon fill="midnightblue" stroke="midnightblue" points="159.658,-19.0001 169.658,-15.5 159.658,-12.0001 159.658,-19.0001"/>
</g>
</g>
</svg>
