<?xml version="1.0" encoding="UTF-8" standalone="no"?>
<!DOCTYPE svg PUBLIC "-//W3C//DTD SVG 1.1//EN"
 "http://www.w3.org/Graphics/SVG/1.1/DTD/svg11.dtd">
<!-- Generated by graphviz version 2.38.0 (20140413.2041)
 -->
<!-- Title: openage::util::fslike::Directory::writable Pages: 1 -->
<svg width="695pt" height="132pt"
 viewBox="0.00 0.00 695.00 132.00" xmlns="http://www.w3.org/2000/svg" xmlns:xlink="http://www.w3.org/1999/xlink">
<g id="graph0" class="graph" transform="scale(1 1) rotate(0) translate(4 128)">
<title>openage::util::fslike::Directory::writable</title>
<polygon fill="white" stroke="none" points="-4,4 -4,-128 691,-128 691,4 -4,4"/>
<!-- Node141 -->
<g id="node1" class="node"><title>Node141</title>
<g id="a_node1"><a xlink:title=" ">
<polygon fill="#bfbfbf" stroke="black" points="0,-44.5 0,-74.5 101,-74.5 101,-44.5 0,-44.5"/>
<text text-anchor="start" x="8" y="-62.5" font-family="Helvetica,sans-Serif" font-size="10.00">openage::util::fslike</text>
<text text-anchor="middle" x="50.5" y="-51.5" font-family="Helvetica,sans-Serif" font-size="10.00">::Directory::writable</text>
</a>
</g>
</g>
<!-- Node142 -->
<g id="node2" class="node"><title>Node142</title>
<g id="a_node2"><a xlink:href="classopenage_1_1util_1_1fslike_1_1_directory.xhtml#ac5dced8dddac80ad98b3804a64a36af0" target="_top" xlink:title=" ">
<polygon fill="white" stroke="black" points="137,-93.5 137,-123.5 238,-123.5 238,-93.5 137,-93.5"/>
<text text-anchor="start" x="145" y="-111.5" font-family="Helvetica,sans-Serif" font-size="10.00">openage::util::fslike</text>
<text text-anchor="middle" x="187.5" y="-100.5" font-family="Helvetica,sans-Serif" font-size="10.00">::Directory::is_dir</text>
</a>
</g>
</g>
<!-- Node141&#45;&gt;Node142 -->
<g id="edge1" class="edge"><title>Node141&#45;&gt;Node142</title>
<path fill="none" stroke="midnightblue" d="M93.106,-74.6014C106.451,-79.4451 121.387,-84.8664 135.334,-89.9285"/>
<polygon fill="midnightblue" stroke="midnightblue" points="134.205,-93.2422 144.799,-93.3641 136.593,-86.6622 134.205,-93.2422"/>
</g>
<!-- Node144 -->
<g id="node4" class="node"><title>Node144</title>
<g id="a_node4"><a xlink:href="classopenage_1_1util_1_1fslike_1_1_directory.xhtml#a7dab02972c0d0fa8ef5b3fd387966855" target="_top" xlink:title=" ">
<polygon fill="white" stroke="black" points="433,-0.5 433,-30.5 534,-30.5 534,-0.5 433,-0.5"/>
<text text-anchor="start" x="441" y="-18.5" font-family="Helvetica,sans-Serif" font-size="10.00">openage::util::fslike</text>
<text text-anchor="middle" x="483.5" y="-7.5" font-family="Helvetica,sans-Serif" font-size="10.00">::Directory::resolve</text>
</a>
</g>
</g>
<!-- Node141&#45;&gt;Node144 -->
<g id="edge9" class="edge"><title>Node141&#45;&gt;Node144</title>
<path fill="none" stroke="midnightblue" d="M95.8639,-44.4316C108.966,-40.5545 123.434,-36.8246 137,-34.5 236.122,-17.5154 353.351,-14.6194 422.618,-14.6492"/>
<polygon fill="midnightblue" stroke="midnightblue" points="422.888,-18.1498 432.897,-14.6753 422.906,-11.1498 422.888,-18.1498"/>
</g>
<!-- Node147 -->
<g id="node7" class="node"><title>Node147</title>
<g id="a_node7"><a xlink:href="classopenage_1_1util_1_1fslike_1_1_directory.xhtml#a36e4b63f3b31b1de2370ebe081484159" target="_top" xlink:title=" ">
<polygon fill="white" stroke="black" points="137,-44.5 137,-74.5 238,-74.5 238,-44.5 137,-44.5"/>
<text text-anchor="start" x="145" y="-62.5" font-family="Helvetica,sans-Serif" font-size="10.00">openage::util::fslike</text>
<text text-anchor="middle" x="187.5" y="-51.5" font-family="Helvetica,sans-Serif" font-size="10.00">::Directory::is_file</text>
</a>
</g>
</g>
<!-- Node141&#45;&gt;Node147 -->
<g id="edge7" class="edge"><title>Node141&#45;&gt;Node147</title>
<path fill="none" stroke="midnightblue" d="M101.002,-59.5C109.241,-59.5 117.866,-59.5 126.335,-59.5"/>
<polygon fill="midnightblue" stroke="midnightblue" points="126.552,-63.0001 136.552,-59.5 126.552,-56.0001 126.552,-63.0001"/>
</g>
<!-- Node143 -->
<g id="node3" class="node"><title>Node143</title>
<g id="a_node3"><a xlink:href="classopenage_1_1util_1_1fslike_1_1_directory.xhtml#a2c5d51674da6c9c62ae8753f3a8a6cd0" target="_top" xlink:title=" ">
<polygon fill="white" stroke="black" points="274,-44.5 274,-74.5 375,-74.5 375,-44.5 274,-44.5"/>
<text text-anchor="start" x="282" y="-62.5" font-family="Helvetica,sans-Serif" font-size="10.00">openage::util::fslike</text>
<text text-anchor="middle" x="324.5" y="-51.5" font-family="Helvetica,sans-Serif" font-size="10.00">::Directory::do_stat</text>
</a>
</g>
</g>
<!-- Node142&#45;&gt;Node143 -->
<g id="edge2" class="edge"><title>Node142&#45;&gt;Node143</title>
<path fill="none" stroke="midnightblue" d="M230.106,-93.3986C243.451,-88.5549 258.387,-83.1336 272.334,-78.0715"/>
<polygon fill="midnightblue" stroke="midnightblue" points="273.593,-81.3378 281.799,-74.6359 271.205,-74.7578 273.593,-81.3378"/>
</g>
<!-- Node143&#45;&gt;Node144 -->
<g id="edge3" class="edge"><title>Node143&#45;&gt;Node144</title>
<path fill="none" stroke="midnightblue" d="M375.176,-45.5781C390.427,-41.3039 407.364,-36.5573 423.191,-32.1215"/>
<polygon fill="midnightblue" stroke="midnightblue" points="424.194,-35.4756 432.878,-29.4068 422.305,-28.7353 424.194,-35.4756"/>
</g>
<!-- Node145 -->
<g id="node5" class="node"><title>Node145</title>
<g id="a_node5"><a xlink:href="namespaceopenage_1_1testing_1_1testing.xhtml#ac25bf81db406af62d08113ef7ae9fd6e" target="_top" xlink:title=" ">
<polygon fill="white" stroke="black" points="411,-50 411,-69 556,-69 556,-50 411,-50"/>
<text text-anchor="middle" x="483.5" y="-57" font-family="Helvetica,sans-Serif" font-size="10.00">openage.testing.testing.result</text>
</a>
</g>
</g>
<!-- Node143&#45;&gt;Node145 -->
<g id="edge4" class="edge"><title>Node143&#45;&gt;Node145</title>
<path fill="none" stroke="midnightblue" d="M375.176,-59.5C383.312,-59.5 391.927,-59.5 400.598,-59.5"/>
<polygon fill="midnightblue" stroke="midnightblue" points="400.777,-63.0001 410.777,-59.5 400.777,-56.0001 400.777,-63.0001"/>
</g>
<!-- Node146 -->
<g id="node6" class="node"><title>Node146</title>
<g id="a_node6"><a xlink:href="namespaceopenage_1_1util.xhtml#a7bc4421a5f0f57f3a0aba3f96eb8d19c" target="_top" xlink:title=" ">
<polygon fill="white" stroke="black" points="592,-50 592,-69 687,-69 687,-50 592,-50"/>
<text text-anchor="middle" x="639.5" y="-57" font-family="Helvetica,sans-Serif" font-size="10.00">openage::util::repr</text>
</a>
</g>
</g>
<!-- Node145&#45;&gt;Node146 -->
<g id="edge5" class="edge"><title>Node145&#45;&gt;Node146</title>
<path fill="none" stroke="midnightblue" d="M556.09,-52.7648C564.595,-52.7181 573.189,-52.7817 581.453,-52.9556"/>
<polygon fill="midnightblue" stroke="midnightblue" points="581.622,-56.4614 591.713,-53.2348 581.812,-49.464 581.622,-56.4614"/>
</g>
<!-- Node146&#45;&gt;Node145 -->
<g id="edge6" class="edge"><title>Node146&#45;&gt;Node145</title>
<path fill="none" stroke="midnightblue" d="M591.713,-65.7652C583.626,-66.0381 575.01,-66.1958 566.312,-66.2383"/>
<polygon fill="midnightblue" stroke="midnightblue" points="566.091,-62.7383 556.09,-66.2352 566.089,-69.7383 566.091,-62.7383"/>
</g>
<!-- Node147&#45;&gt;Node143 -->
<g id="edge8" class="edge"><title>Node147&#45;&gt;Node143</title>
<path fill="none" stroke="midnightblue" d="M238.002,-59.5C246.241,-59.5 254.866,-59.5 263.335,-59.5"/>
<polygon fill="midnightblue" stroke="midnightblue" points="263.552,-63.0001 273.552,-59.5 263.552,-56.0001 263.552,-63.0001"/>
</g>
</g>
</svg>
