<?xml version="1.0" encoding="UTF-8" standalone="no"?>
<!DOCTYPE svg PUBLIC "-//W3C//DTD SVG 1.1//EN"
 "http://www.w3.org/Graphics/SVG/1.1/DTD/svg11.dtd">
<!-- Generated by graphviz version 2.38.0 (20140413.2041)
 -->
<!-- Title: openage.util.fslike.wrapper.Wrapper Pages: 1 -->
<!--zoomable 678 -->
<svg id="main" version="1.1" xmlns="http://www.w3.org/2000/svg" xmlns:xlink="http://www.w3.org/1999/xlink" xml:space="preserve" onload="init(evt)">
<style type="text/css"><![CDATA[
.edge:hover path { stroke: red; }
.edge:hover polygon { stroke: red; fill: red; }
]]></style>
<script type="text/javascript"><![CDATA[
var edges = document.getElementsByTagName('g');
if (edges && edges.length) {
  for (var i=0;i<edges.length;i++) {
    if (edges[i].id.substr(0,4)=='edge') {
      edges[i].setAttribute('class','edge');
    }
  }
}
]]></script>
        <defs>
                <circle id="rim" cx="0" cy="0" r="7"/>
                <circle id="rim2" cx="0" cy="0" r="3.5"/>
                <g id="zoomPlus">
                        <use xlink:href="#rim" fill="#404040">
                                <set attributeName="fill" to="#808080" begin="zoomplus.mouseover" end="zoomplus.mouseout"/>
                        </use>
                        <path d="M-4,0h8M0,-4v8" fill="none" stroke="white" stroke-width="1.5" pointer-events="none"/>
                </g>
                <g id="zoomMin">
                        <use xlink:href="#rim" fill="#404040">
                                <set attributeName="fill" to="#808080" begin="zoomminus.mouseover" end="zoomminus.mouseout"/>
                        </use>
                        <path d="M-4,0h8" fill="none" stroke="white" stroke-width="1.5" pointer-events="none"/>
                </g>
                <g id="dirArrow">
                        <path fill="none" stroke="white" stroke-width="1.5" d="M0,-3.0v7 M-2.5,-0.5L0,-3.0L2.5,-0.5"/>
                </g>
               <g id="resetDef">
                       <use xlink:href="#rim2" fill="#404040">
                               <set attributeName="fill" to="#808080" begin="reset.mouseover" end="reset.mouseout"/>
                       </use>
               </g>
        </defs>

<script type="text/javascript">
var viewWidth = 600;
var viewHeight = 678;
var sectionId = 'dynsection-0';
</script>
<script xlink:href="svgpan.js"/>
<svg id="graph" class="graph">
<g id="viewport">
<title>openage.util.fslike.wrapper.Wrapper</title>
<polygon fill="white" stroke="none" points="-4,4 -4,-674 596,-674 596,4 -4,4"/>
<!-- Node0 -->
<g id="node1" class="node"><title>Node0</title>
<g id="a_node1"><a xlink:title="Wraps a Path, implementing all methods as pass&#45;through.">
<polygon fill="#bfbfbf" stroke="black" points="230,-171.5 230,-360.5 364,-360.5 364,-171.5 230,-171.5"/>
<text text-anchor="start" x="238" y="-348.5" font-family="Helvetica,sans-Serif" font-size="10.00">openage.util.fslike.wrapper.</text>
<text text-anchor="middle" x="297" y="-337.5" font-family="Helvetica,sans-Serif" font-size="10.00">Wrapper</text>
<polyline fill="none" stroke="black" points="230,-330.5 364,-330.5 "/>
<text text-anchor="start" x="238" y="-318.5" font-family="Helvetica,sans-Serif" font-size="10.00">+ obj</text>
<text text-anchor="start" x="238" y="-307.5" font-family="Helvetica,sans-Serif" font-size="10.00">+ contextguard</text>
<polyline fill="none" stroke="black" points="230,-300.5 364,-300.5 "/>
<text text-anchor="start" x="238" y="-288.5" font-family="Helvetica,sans-Serif" font-size="10.00">+ __init__()</text>
<text text-anchor="start" x="238" y="-277.5" font-family="Helvetica,sans-Serif" font-size="10.00">+ __repr__()</text>
<text text-anchor="start" x="238" y="-266.5" font-family="Helvetica,sans-Serif" font-size="10.00">+ open_r()</text>
<text text-anchor="start" x="238" y="-255.5" font-family="Helvetica,sans-Serif" font-size="10.00">+ open_w()</text>
<text text-anchor="start" x="238" y="-244.5" font-family="Helvetica,sans-Serif" font-size="10.00">+ resolve_r()</text>
<text text-anchor="start" x="238" y="-233.5" font-family="Helvetica,sans-Serif" font-size="10.00">+ resolve_w()</text>
<text text-anchor="start" x="238" y="-222.5" font-family="Helvetica,sans-Serif" font-size="10.00">+ list()</text>
<text text-anchor="start" x="238" y="-211.5" font-family="Helvetica,sans-Serif" font-size="10.00">+ filesize()</text>
<text text-anchor="start" x="238" y="-200.5" font-family="Helvetica,sans-Serif" font-size="10.00">+ mtime()</text>
<text text-anchor="start" x="238" y="-189.5" font-family="Helvetica,sans-Serif" font-size="10.00">+ mkdirs()</text>
<text text-anchor="start" x="238" y="-178.5" font-family="Helvetica,sans-Serif" font-size="10.00">and 9 more...</text>
</a>
</g>
</g>
<!-- Node3 -->
<g id="node4" class="node"><title>Node3</title>
<g id="a_node4"><a xlink:href="classopenage_1_1codegen_1_1codegen_1_1_codegen_dir_wrapper.xhtml" target="_top" xlink:title="Only allows pure&#45;read and pure&#45;write operations;.">
<polygon fill="white" stroke="black" points="0,-0.5 0,-134.5 136,-134.5 136,-0.5 0,-0.5"/>
<text text-anchor="start" x="8" y="-122.5" font-family="Helvetica,sans-Serif" font-size="10.00">openage.codegen.codegen.</text>
<text text-anchor="middle" x="68" y="-111.5" font-family="Helvetica,sans-Serif" font-size="10.00">CodegenDirWrapper</text>
<polyline fill="none" stroke="black" points="0,-104.5 136,-104.5 "/>
<text text-anchor="start" x="8" y="-92.5" font-family="Helvetica,sans-Serif" font-size="10.00">+ writes</text>
<text text-anchor="start" x="8" y="-81.5" font-family="Helvetica,sans-Serif" font-size="10.00">+ reads</text>
<polyline fill="none" stroke="black" points="0,-74.5 136,-74.5 "/>
<text text-anchor="start" x="8" y="-62.5" font-family="Helvetica,sans-Serif" font-size="10.00">+ __init__()</text>
<text text-anchor="start" x="8" y="-51.5" font-family="Helvetica,sans-Serif" font-size="10.00">+ open_r()</text>
<text text-anchor="start" x="8" y="-40.5" font-family="Helvetica,sans-Serif" font-size="10.00">+ open_w()</text>
<text text-anchor="start" x="8" y="-29.5" font-family="Helvetica,sans-Serif" font-size="10.00">+ get_reads()</text>
<text text-anchor="start" x="8" y="-18.5" font-family="Helvetica,sans-Serif" font-size="10.00">+ get_writes()</text>
<text text-anchor="start" x="8" y="-7.5" font-family="Helvetica,sans-Serif" font-size="10.00">+ __repr__()</text>
</a>
</g>
</g>
<!-- Node0&#45;&gt;Node3 -->
<g id="edge3" class="edge"><title>Node0&#45;&gt;Node3</title>
<path fill="none" stroke="midnightblue" d="M222.099,-201.064C197.513,-180.044 170.07,-156.546 145,-135 142.053,-132.467 139.044,-129.879 136.005,-127.262"/>
<polygon fill="none" stroke="midnightblue" points="220.098,-203.958 229.974,-207.795 224.647,-198.637 220.098,-203.958"/>
</g>
<!-- Node4 -->
<g id="node5" class="node"><title>Node4</title>
<g id="a_node5"><a xlink:href="classopenage_1_1util_1_1fslike_1_1wrapper_1_1_directory_creator.xhtml" target="_top" xlink:title=" ">
<polygon fill="white" stroke="black" points="154,-28 154,-107 288,-107 288,-28 154,-28"/>
<text text-anchor="start" x="162" y="-95" font-family="Helvetica,sans-Serif" font-size="10.00">openage.util.fslike.wrapper.</text>
<text text-anchor="middle" x="221" y="-84" font-family="Helvetica,sans-Serif" font-size="10.00">DirectoryCreator</text>
<polyline fill="none" stroke="black" points="154,-77 288,-77 "/>
<text text-anchor="middle" x="221" y="-65" font-family="Helvetica,sans-Serif" font-size="10.00"> </text>
<polyline fill="none" stroke="black" points="154,-58 288,-58 "/>
<text text-anchor="start" x="162" y="-46" font-family="Helvetica,sans-Serif" font-size="10.00">+ open_w()</text>
<text text-anchor="start" x="162" y="-35" font-family="Helvetica,sans-Serif" font-size="10.00">+ __repr__()</text>
</a>
</g>
</g>
<!-- Node0&#45;&gt;Node4 -->
<g id="edge4" class="edge"><title>Node0&#45;&gt;Node4</title>
<path fill="none" stroke="midnightblue" d="M257.172,-162.023C249.581,-142.397 242.088,-123.023 235.907,-107.044"/>
<polygon fill="none" stroke="midnightblue" points="253.909,-163.29 260.781,-171.354 260.438,-160.765 253.909,-163.29"/>
</g>
<!-- Node5 -->
<g id="node6" class="node"><title>Node5</title>
<g id="a_node6"><a xlink:href="classopenage_1_1util_1_1fslike_1_1wrapper_1_1_synchronizer.xhtml" target="_top" xlink:title="Wraps a FSLikeObject, securing all wrapped calls with a mutex.">
<polygon fill="white" stroke="black" points="306,-28 306,-107 440,-107 440,-28 306,-28"/>
<text text-anchor="start" x="314" y="-95" font-family="Helvetica,sans-Serif" font-size="10.00">openage.util.fslike.wrapper.</text>
<text text-anchor="middle" x="373" y="-84" font-family="Helvetica,sans-Serif" font-size="10.00">Synchronizer</text>
<polyline fill="none" stroke="black" points="306,-77 440,-77 "/>
<text text-anchor="start" x="314" y="-65" font-family="Helvetica,sans-Serif" font-size="10.00">+ lock</text>
<polyline fill="none" stroke="black" points="306,-58 440,-58 "/>
<text text-anchor="start" x="314" y="-46" font-family="Helvetica,sans-Serif" font-size="10.00">+ __init__()</text>
<text text-anchor="start" x="314" y="-35" font-family="Helvetica,sans-Serif" font-size="10.00">+ __repr__()</text>
</a>
</g>
</g>
<!-- Node0&#45;&gt;Node5 -->
<g id="edge5" class="edge"><title>Node0&#45;&gt;Node5</title>
<path fill="none" stroke="midnightblue" d="M336.828,-162.023C344.419,-142.397 351.912,-123.023 358.093,-107.044"/>
<polygon fill="none" stroke="midnightblue" points="333.562,-160.765 333.219,-171.354 340.091,-163.29 333.562,-160.765"/>
</g>
<!-- Node6 -->
<g id="node7" class="node"><title>Node6</title>
<g id="a_node7"><a xlink:href="classopenage_1_1util_1_1fslike_1_1wrapper_1_1_write_blocker.xhtml" target="_top" xlink:title="Wraps a FSLikeObject, transparently passing through all read&#45;only calls.">
<polygon fill="white" stroke="black" points="458,-33.5 458,-101.5 592,-101.5 592,-33.5 458,-33.5"/>
<text text-anchor="start" x="466" y="-89.5" font-family="Helvetica,sans-Serif" font-size="10.00">openage.util.fslike.wrapper.</text>
<text text-anchor="middle" x="525" y="-78.5" font-family="Helvetica,sans-Serif" font-size="10.00">WriteBlocker</text>
<polyline fill="none" stroke="black" points="458,-71.5 592,-71.5 "/>
<text text-anchor="middle" x="525" y="-59.5" font-family="Helvetica,sans-Serif" font-size="10.00"> </text>
<polyline fill="none" stroke="black" points="458,-52.5 592,-52.5 "/>
<text text-anchor="start" x="466" y="-40.5" font-family="Helvetica,sans-Serif" font-size="10.00">+ __repr__()</text>
</a>
</g>
</g>
<!-- Node0&#45;&gt;Node6 -->
<g id="edge6" class="edge"><title>Node0&#45;&gt;Node6</title>
<path fill="none" stroke="midnightblue" d="M371.984,-201.16C396.574,-180.146 424,-156.627 449,-135 461.464,-124.218 475.021,-112.388 487.189,-101.733"/>
<polygon fill="none" stroke="midnightblue" points="369.437,-198.732 364.106,-207.888 373.983,-204.055 369.437,-198.732"/>
</g>
<!-- Node1 -->
<g id="node2" class="node"><title>Node1</title>
<g id="a_node2"><a xlink:href="classopenage_1_1util_1_1fslike_1_1abstract_1_1_f_s_like_object.xhtml" target="_top" xlink:title=" ">
<polygon fill="white" stroke="black" points="229,-397.5 229,-575.5 365,-575.5 365,-397.5 229,-397.5"/>
<text text-anchor="start" x="237" y="-563.5" font-family="Helvetica,sans-Serif" font-size="10.00">openage.util.fslike.abstract.</text>
<text text-anchor="middle" x="297" y="-552.5" font-family="Helvetica,sans-Serif" font-size="10.00">FSLikeObject</text>
<polyline fill="none" stroke="black" points="229,-545.5 365,-545.5 "/>
<text text-anchor="middle" x="297" y="-533.5" font-family="Helvetica,sans-Serif" font-size="10.00"> </text>
<polyline fill="none" stroke="black" points="229,-526.5 365,-526.5 "/>
<text text-anchor="start" x="237" y="-514.5" font-family="Helvetica,sans-Serif" font-size="10.00">+ root()</text>
<text text-anchor="start" x="237" y="-503.5" font-family="Helvetica,sans-Serif" font-size="10.00">+ pretty()</text>
<text text-anchor="start" x="237" y="-492.5" font-family="Helvetica,sans-Serif" font-size="10.00">+ open_r()</text>
<text text-anchor="start" x="237" y="-481.5" font-family="Helvetica,sans-Serif" font-size="10.00">+ open_w()</text>
<text text-anchor="start" x="237" y="-470.5" font-family="Helvetica,sans-Serif" font-size="10.00">+ open_rw()</text>
<text text-anchor="start" x="237" y="-459.5" font-family="Helvetica,sans-Serif" font-size="10.00">+ open_a()</text>
<text text-anchor="start" x="237" y="-448.5" font-family="Helvetica,sans-Serif" font-size="10.00">+ open_ar()</text>
<text text-anchor="start" x="237" y="-437.5" font-family="Helvetica,sans-Serif" font-size="10.00">+ exists()</text>
<text text-anchor="start" x="237" y="-426.5" font-family="Helvetica,sans-Serif" font-size="10.00">+ resolve_r()</text>
<text text-anchor="start" x="237" y="-415.5" font-family="Helvetica,sans-Serif" font-size="10.00">+ resolve_w()</text>
<text text-anchor="start" x="237" y="-404.5" font-family="Helvetica,sans-Serif" font-size="10.00">and 14 more...</text>
</a>
</g>
</g>
<!-- Node1&#45;&gt;Node0 -->
<g id="edge1" class="edge"><title>Node1&#45;&gt;Node0</title>
<path fill="none" stroke="midnightblue" d="M297,-386.993C297,-378.202 297,-369.316 297,-360.567"/>
<polygon fill="none" stroke="midnightblue" points="293.5,-387.257 297,-397.258 300.5,-387.258 293.5,-387.257"/>
</g>
<!-- Node2 -->
<g id="node3" class="node"><title>Node2</title>
<g id="a_node3"><a xlink:title=" ">
<polygon fill="white" stroke="#bfbfbf" points="278.5,-612.5 278.5,-669.5 315.5,-669.5 315.5,-612.5 278.5,-612.5"/>
<text text-anchor="middle" x="297" y="-657.5" font-family="Helvetica,sans-Serif" font-size="10.00">ABC</text>
<polyline fill="none" stroke="#bfbfbf" points="278.5,-650.5 315.5,-650.5 "/>
<text text-anchor="middle" x="297" y="-638.5" font-family="Helvetica,sans-Serif" font-size="10.00"> </text>
<polyline fill="none" stroke="#bfbfbf" points="278.5,-631.5 315.5,-631.5 "/>
<text text-anchor="middle" x="297" y="-619.5" font-family="Helvetica,sans-Serif" font-size="10.00"> </text>
</a>
</g>
</g>
<!-- Node2&#45;&gt;Node1 -->
<g id="edge2" class="edge"><title>Node2&#45;&gt;Node1</title>
<path fill="none" stroke="midnightblue" d="M297,-602.374C297,-594.089 297,-584.977 297,-575.62"/>
<polygon fill="none" stroke="midnightblue" points="293.5,-602.383 297,-612.383 300.5,-602.383 293.5,-602.383"/>
</g>
</g>
</svg>
        <g id="navigator" transform="translate(0 0)" fill="#404254">
                <rect fill="#f2f5e9" fill-opacity="0.5" stroke="#606060" stroke-width=".5" x="0" y="0" width="60" height="60"/>
                <use id="zoomplus" xlink:href="#zoomPlus" x="17" y="9" onmousedown="handleZoom(evt,'in')"/>
                <use id="zoomminus" xlink:href="#zoomMin" x="42" y="9" onmousedown="handleZoom(evt,'out')"/>
                <use id="reset" xlink:href="#resetDef" x="30" y="36" onmousedown="handleReset()"/>
                <g id="arrowUp" xlink:href="#dirArrow" transform="translate(30 24)" onmousedown="handlePan(0,-1)">
                  <use xlink:href="#rim" fill="#404040">
                        <set attributeName="fill" to="#808080" begin="arrowUp.mouseover" end="arrowUp.mouseout"/>
                  </use>
                  <path fill="none" stroke="white" stroke-width="1.5" d="M0,-3.0v7 M-2.5,-0.5L0,-3.0L2.5,-0.5"/>
                </g>
                <g id="arrowRight" xlink:href="#dirArrow" transform="rotate(90) translate(36 -43)" onmousedown="handlePan(1,0)">
                  <use xlink:href="#rim" fill="#404040">
                        <set attributeName="fill" to="#808080" begin="arrowRight.mouseover" end="arrowRight.mouseout"/>
                  </use>
                  <path fill="none" stroke="white" stroke-width="1.5" d="M0,-3.0v7 M-2.5,-0.5L0,-3.0L2.5,-0.5"/>
                </g>
                <g id="arrowDown" xlink:href="#dirArrow" transform="rotate(180) translate(-30 -48)" onmousedown="handlePan(0,1)">
                  <use xlink:href="#rim" fill="#404040">
                        <set attributeName="fill" to="#808080" begin="arrowDown.mouseover" end="arrowDown.mouseout"/>
                  </use>
                  <path fill="none" stroke="white" stroke-width="1.5" d="M0,-3.0v7 M-2.5,-0.5L0,-3.0L2.5,-0.5"/>
                </g>
                <g id="arrowLeft" xlink:href="#dirArrow" transform="rotate(270) translate(-36 17)" onmousedown="handlePan(-1,0)">
                  <use xlink:href="#rim" fill="#404040">
                        <set attributeName="fill" to="#808080" begin="arrowLeft.mouseover" end="arrowLeft.mouseout"/>
                  </use>
                  <path fill="none" stroke="white" stroke-width="1.5" d="M0,-3.0v7 M-2.5,-0.5L0,-3.0L2.5,-0.5"/>
                </g>
        </g>
        <svg viewBox="0 0 15 15" width="100%" height="30px" preserveAspectRatio="xMaxYMin meet">
         <g id="arrow_out" transform="scale(0.3 0.3)">
          <a xlink:href="classopenage_1_1util_1_1fslike_1_1wrapper_1_1_wrapper__inherit__graph_org.svg" target="_base">
           <rect id="button" ry="5" rx="5" y="6" x="6" height="38" width="38"
                fill="#f2f5e9" fill-opacity="0.5" stroke="#606060" stroke-width="1.0"/>
           <path id="arrow"
             d="M 11.500037,31.436501 C 11.940474,20.09759 22.043105,11.32322 32.158766,21.979434 L 37.068811,17.246167 C 37.068811,17.246167 37.088388,32 37.088388,32 L 22.160133,31.978069 C 22.160133,31.978069 26.997745,27.140456 26.997745,27.140456 C 18.528582,18.264221 13.291696,25.230495 11.500037,31.436501 z"
             style="fill:#404040;"/>
          </a>
         </g>
        </svg>
</svg>
