<?xml version="1.0" encoding="UTF-8" standalone="no"?>
<!DOCTYPE svg PUBLIC "-//W3C//DTD SVG 1.1//EN"
 "http://www.w3.org/Graphics/SVG/1.1/DTD/svg11.dtd">
<!-- Generated by graphviz version 2.38.0 (20140413.2041)
 -->
<!-- Title: openage::TerrainChunk::set_terrain Pages: 1 -->
<svg width="742pt" height="181pt"
 viewBox="0.00 0.00 742.00 181.00" xmlns="http://www.w3.org/2000/svg" xmlns:xlink="http://www.w3.org/1999/xlink">
<g id="graph0" class="graph" transform="scale(1 1) rotate(0) translate(4 177)">
<title>openage::TerrainChunk::set_terrain</title>
<polygon fill="white" stroke="none" points="-4,4 -4,-177 738,-177 738,4 -4,4"/>
<!-- Node76 -->
<g id="node1" class="node"><title>Node76</title>
<g id="a_node1"><a xlink:title=" ">
<polygon fill="#bfbfbf" stroke="black" points="618,-73.5 618,-103.5 734,-103.5 734,-73.5 618,-73.5"/>
<text text-anchor="start" x="626" y="-91.5" font-family="Helvetica,sans-Serif" font-size="10.00">openage::TerrainChunk</text>
<text text-anchor="middle" x="676" y="-80.5" font-family="Helvetica,sans-Serif" font-size="10.00">::set_terrain</text>
</a>
</g>
</g>
<!-- Node77 -->
<g id="node2" class="node"><title>Node77</title>
<g id="a_node2"><a xlink:href="classopenage_1_1_terrain.xhtml#af40a0b5e61397331f4efc9543f7fdd44" target="_top" xlink:title="Attach a chunk to the terrain, to a given position.">
<polygon fill="white" stroke="black" points="460,-73.5 460,-103.5 582,-103.5 582,-73.5 460,-73.5"/>
<text text-anchor="start" x="468" y="-91.5" font-family="Helvetica,sans-Serif" font-size="10.00">openage::Terrain::attach</text>
<text text-anchor="middle" x="521" y="-80.5" font-family="Helvetica,sans-Serif" font-size="10.00">_chunk</text>
</a>
</g>
</g>
<!-- Node76&#45;&gt;Node77 -->
<g id="edge1" class="edge"><title>Node76&#45;&gt;Node77</title>
<path fill="none" stroke="midnightblue" d="M607.39,-88.5C598.943,-88.5 590.349,-88.5 582.028,-88.5"/>
<polygon fill="midnightblue" stroke="midnightblue" points="607.593,-92.0001 617.593,-88.5 607.593,-85.0001 607.593,-92.0001"/>
</g>
<!-- Node78 -->
<g id="node3" class="node"><title>Node78</title>
<g id="a_node3"><a xlink:href="classopenage_1_1_terrain.xhtml#a7837ff925b6c466824b2388e55c198f4" target="_top" xlink:title="get or create a terrain chunk for a given chunk position.">
<polygon fill="white" stroke="black" points="316,-73.5 316,-103.5 424,-103.5 424,-73.5 316,-73.5"/>
<text text-anchor="start" x="324" y="-91.5" font-family="Helvetica,sans-Serif" font-size="10.00">openage::Terrain::get</text>
<text text-anchor="middle" x="370" y="-80.5" font-family="Helvetica,sans-Serif" font-size="10.00">_create_chunk</text>
</a>
</g>
</g>
<!-- Node77&#45;&gt;Node78 -->
<g id="edge2" class="edge"><title>Node77&#45;&gt;Node78</title>
<path fill="none" stroke="midnightblue" d="M449.785,-88.5C441.179,-88.5 432.497,-88.5 424.199,-88.5"/>
<polygon fill="midnightblue" stroke="midnightblue" points="449.826,-92.0001 459.825,-88.5 449.825,-85.0001 449.826,-92.0001"/>
</g>
<!-- Node79 -->
<g id="node4" class="node"><title>Node79</title>
<g id="a_node4"><a xlink:href="classopenage_1_1_terrain.xhtml#ac5f73cac07115849392bb22598ae8fba" target="_top" xlink:title="fill the terrain with given terrain_id values.">
<polygon fill="white" stroke="black" points="173.5,-148 173.5,-167 277.5,-167 277.5,-148 173.5,-148"/>
<text text-anchor="middle" x="225.5" y="-155" font-family="Helvetica,sans-Serif" font-size="10.00">openage::Terrain::fill</text>
</a>
</g>
</g>
<!-- Node78&#45;&gt;Node79 -->
<g id="edge3" class="edge"><title>Node78&#45;&gt;Node79</title>
<path fill="none" stroke="midnightblue" d="M335.946,-108.85C319.479,-118.525 299.059,-129.838 280,-138.5 272.462,-141.926 264.111,-145.149 256.292,-147.933"/>
<polygon fill="midnightblue" stroke="midnightblue" points="337.848,-111.791 344.653,-103.671 334.269,-105.775 337.848,-111.791"/>
</g>
<!-- Node81 -->
<g id="node6" class="node"><title>Node81</title>
<g id="a_node6"><a xlink:href="classopenage_1_1_terrain.xhtml#a9fc8a00464422b06cd5ea0dbda4c7d2f" target="_top" xlink:title="get or create a terrain chunk for a given tile position.">
<polygon fill="white" stroke="black" points="171.5,-98.5 171.5,-128.5 279.5,-128.5 279.5,-98.5 171.5,-98.5"/>
<text text-anchor="start" x="179.5" y="-116.5" font-family="Helvetica,sans-Serif" font-size="10.00">openage::Terrain::get</text>
<text text-anchor="middle" x="225.5" y="-105.5" font-family="Helvetica,sans-Serif" font-size="10.00">_create_chunk</text>
</a>
</g>
</g>
<!-- Node78&#45;&gt;Node81 -->
<g id="edge5" class="edge"><title>Node78&#45;&gt;Node81</title>
<path fill="none" stroke="midnightblue" d="M306.069,-99.5405C297.237,-101.09 288.231,-102.67 279.606,-104.183"/>
<polygon fill="midnightblue" stroke="midnightblue" points="306.694,-102.985 315.938,-97.8091 305.484,-96.0898 306.694,-102.985"/>
</g>
<!-- Node82 -->
<g id="node7" class="node"><title>Node82</title>
<g id="a_node7"><a xlink:href="classopenage_1_1_editor_mode.xhtml#a1430647b024d4c9e7021756a6fa9700d" target="_top" xlink:title=" ">
<polygon fill="white" stroke="black" points="171,-49.5 171,-79.5 280,-79.5 280,-49.5 171,-49.5"/>
<text text-anchor="start" x="179" y="-67.5" font-family="Helvetica,sans-Serif" font-size="10.00">openage::EditorMode</text>
<text text-anchor="middle" x="225.5" y="-56.5" font-family="Helvetica,sans-Serif" font-size="10.00">::paint_entity_at</text>
</a>
</g>
</g>
<!-- Node78&#45;&gt;Node82 -->
<g id="edge6" class="edge"><title>Node78&#45;&gt;Node82</title>
<path fill="none" stroke="midnightblue" d="M305.921,-77.8762C297.298,-76.4239 288.513,-74.9444 280.081,-73.5242"/>
<polygon fill="midnightblue" stroke="midnightblue" points="305.496,-81.3538 315.938,-79.5633 306.658,-74.451 305.496,-81.3538"/>
</g>
<!-- Node84 -->
<g id="node9" class="node"><title>Node84</title>
<g id="a_node9"><a xlink:href="classopenage_1_1_editor_mode.xhtml#a1f47d053e9c09aaf9bc6ec3a85f4a49e" target="_top" xlink:title=" ">
<polygon fill="white" stroke="black" points="171,-0.5 171,-30.5 280,-30.5 280,-0.5 171,-0.5"/>
<text text-anchor="start" x="179" y="-18.5" font-family="Helvetica,sans-Serif" font-size="10.00">openage::EditorMode</text>
<text text-anchor="middle" x="225.5" y="-7.5" font-family="Helvetica,sans-Serif" font-size="10.00">::paint_terrain_at</text>
</a>
</g>
</g>
<!-- Node78&#45;&gt;Node84 -->
<g id="edge8" class="edge"><title>Node78&#45;&gt;Node84</title>
<path fill="none" stroke="midnightblue" d="M333.705,-68.2026C317.505,-59.111 297.946,-48.4469 280,-39.5 273.987,-36.5023 267.519,-33.4551 261.229,-30.5831"/>
<polygon fill="midnightblue" stroke="midnightblue" points="332.389,-71.479 342.818,-73.349 335.832,-65.3838 332.389,-71.479"/>
</g>
<!-- Node80 -->
<g id="node5" class="node"><title>Node80</title>
<g id="a_node5"><a xlink:href="classopenage_1_1convert_1_1colortable_1_1_color_table.xhtml#a5223d2c9c8019307e1c81e31b9b5124e" target="_top" xlink:title=" ">
<polygon fill="white" stroke="black" points="0,-142.5 0,-172.5 135,-172.5 135,-142.5 0,-142.5"/>
<text text-anchor="start" x="8" y="-160.5" font-family="Helvetica,sans-Serif" font-size="10.00">openage.convert.colortable.</text>
<text text-anchor="middle" x="67.5" y="-149.5" font-family="Helvetica,sans-Serif" font-size="10.00">ColorTable.__init__</text>
</a>
</g>
</g>
<!-- Node79&#45;&gt;Node80 -->
<g id="edge4" class="edge"><title>Node79&#45;&gt;Node80</title>
<path fill="none" stroke="midnightblue" d="M163.163,-157.5C153.929,-157.5 144.369,-157.5 135.033,-157.5"/>
<polygon fill="midnightblue" stroke="midnightblue" points="163.42,-161 173.42,-157.5 163.42,-154 163.42,-161"/>
</g>
<!-- Node83 -->
<g id="node8" class="node"><title>Node83</title>
<g id="a_node8"><a xlink:href="classopenage_1_1_editor_mode.xhtml#a29b4d3a8c32153ccdc566f60fcdacf7f" target="_top" xlink:title="Called after GameControl has been set by QML from set_game_control.">
<polygon fill="white" stroke="black" points="9.5,-25.5 9.5,-55.5 125.5,-55.5 125.5,-25.5 9.5,-25.5"/>
<text text-anchor="start" x="17.5" y="-43.5" font-family="Helvetica,sans-Serif" font-size="10.00">openage::EditorMode</text>
<text text-anchor="middle" x="67.5" y="-32.5" font-family="Helvetica,sans-Serif" font-size="10.00">::on_game_control_set</text>
</a>
</g>
</g>
<!-- Node82&#45;&gt;Node83 -->
<g id="edge7" class="edge"><title>Node82&#45;&gt;Node83</title>
<path fill="none" stroke="midnightblue" d="M160.763,-54.6944C149.169,-52.9106 137.139,-51.0598 125.746,-49.3071"/>
<polygon fill="midnightblue" stroke="midnightblue" points="160.398,-58.1792 170.814,-56.2406 161.462,-51.2606 160.398,-58.1792"/>
</g>
<!-- Node84&#45;&gt;Node83 -->
<g id="edge9" class="edge"><title>Node84&#45;&gt;Node83</title>
<path fill="none" stroke="midnightblue" d="M160.763,-25.7142C149.169,-27.5723 137.139,-29.5002 125.746,-31.326"/>
<polygon fill="midnightblue" stroke="midnightblue" points="161.493,-29.1419 170.814,-24.1036 160.386,-22.2301 161.493,-29.1419"/>
</g>
</g>
</svg>
