<?xml version="1.0" encoding="UTF-8" standalone="no"?>
<!DOCTYPE svg PUBLIC "-//W3C//DTD SVG 1.1//EN"
 "http://www.w3.org/Graphics/SVG/1.1/DTD/svg11.dtd">
<!-- Generated by graphviz version 2.38.0 (20140413.2041)
 -->
<!-- Title: openage::util::Profiler::registered_components Pages: 1 -->
<!--zoomable 126 -->
<svg id="main" version="1.1" xmlns="http://www.w3.org/2000/svg" xmlns:xlink="http://www.w3.org/1999/xlink" xml:space="preserve" onload="init(evt)">
<style type="text/css"><![CDATA[
.edge:hover path { stroke: red; }
.edge:hover polygon { stroke: red; fill: red; }
]]></style>
<script type="text/javascript"><![CDATA[
var edges = document.getElementsByTagName('g');
if (edges && edges.length) {
  for (var i=0;i<edges.length;i++) {
    if (edges[i].id.substr(0,4)=='edge') {
      edges[i].setAttribute('class','edge');
    }
  }
}
]]></script>
        <defs>
                <circle id="rim" cx="0" cy="0" r="7"/>
                <circle id="rim2" cx="0" cy="0" r="3.5"/>
                <g id="zoomPlus">
                        <use xlink:href="#rim" fill="#404040">
                                <set attributeName="fill" to="#808080" begin="zoomplus.mouseover" end="zoomplus.mouseout"/>
                        </use>
                        <path d="M-4,0h8M0,-4v8" fill="none" stroke="white" stroke-width="1.5" pointer-events="none"/>
                </g>
                <g id="zoomMin">
                        <use xlink:href="#rim" fill="#404040">
                                <set attributeName="fill" to="#808080" begin="zoomminus.mouseover" end="zoomminus.mouseout"/>
                        </use>
                        <path d="M-4,0h8" fill="none" stroke="white" stroke-width="1.5" pointer-events="none"/>
                </g>
                <g id="dirArrow">
                        <path fill="none" stroke="white" stroke-width="1.5" d="M0,-3.0v7 M-2.5,-0.5L0,-3.0L2.5,-0.5"/>
                </g>
               <g id="resetDef">
                       <use xlink:href="#rim2" fill="#404040">
                               <set attributeName="fill" to="#808080" begin="reset.mouseover" end="reset.mouseout"/>
                       </use>
               </g>
        </defs>

<script type="text/javascript">
var viewWidth = 590;
var viewHeight = 126;
var sectionId = 'dynsection-17';
</script>
<script xlink:href="svgpan.js"/>
<svg id="graph" class="graph">
<g id="viewport">
<title>openage::util::Profiler::registered_components</title>
<polygon fill="white" stroke="none" points="-4,4 -4,-122 586,-122 586,4 -4,4"/>
<!-- Node85 -->
<g id="node1" class="node"><title>Node85</title>
<g id="a_node1"><a xlink:title=" ">
<polygon fill="#bfbfbf" stroke="black" points="458,-62.5 458,-92.5 582,-92.5 582,-62.5 458,-62.5"/>
<text text-anchor="start" x="466" y="-80.5" font-family="Helvetica,sans-Serif" font-size="10.00">openage::util::Profiler</text>
<text text-anchor="middle" x="520" y="-69.5" font-family="Helvetica,sans-Serif" font-size="10.00">::registered_components</text>
</a>
</g>
</g>
<!-- Node86 -->
<g id="node2" class="node"><title>Node86</title>
<g id="a_node2"><a xlink:href="classopenage_1_1util_1_1_profiler.xhtml#aaf65afbb05a6aa408a7aff89e74e93dd" target="_top" xlink:title=" ">
<polygon fill="white" stroke="black" points="312,-87.5 312,-117.5 422,-117.5 422,-87.5 312,-87.5"/>
<text text-anchor="start" x="320" y="-105.5" font-family="Helvetica,sans-Serif" font-size="10.00">openage::util::Profiler</text>
<text text-anchor="middle" x="367" y="-94.5" font-family="Helvetica,sans-Serif" font-size="10.00">::end_frame_measure</text>
</a>
</g>
</g>
<!-- Node85&#45;&gt;Node86 -->
<g id="edge1" class="edge"><title>Node85&#45;&gt;Node86</title>
<path fill="none" stroke="midnightblue" d="M447.576,-89.3251C439.003,-90.7446 430.358,-92.1758 422.088,-93.545"/>
<polygon fill="midnightblue" stroke="midnightblue" points="448.289,-92.7549 457.583,-87.6685 447.145,-85.8489 448.289,-92.7549"/>
</g>
<!-- Node89 -->
<g id="node5" class="node"><title>Node89</title>
<g id="a_node5"><a xlink:href="classopenage_1_1util_1_1_profiler.xhtml#a68f01b02f0824fe2e41e508a75946793" target="_top" xlink:title=" ">
<polygon fill="white" stroke="black" points="313,-38.5 313,-68.5 421,-68.5 421,-38.5 313,-38.5"/>
<text text-anchor="start" x="321" y="-56.5" font-family="Helvetica,sans-Serif" font-size="10.00">openage::util::Profiler</text>
<text text-anchor="middle" x="367" y="-45.5" font-family="Helvetica,sans-Serif" font-size="10.00">::unregister_all</text>
</a>
</g>
</g>
<!-- Node85&#45;&gt;Node89 -->
<g id="edge4" class="edge"><title>Node85&#45;&gt;Node89</title>
<path fill="none" stroke="midnightblue" d="M447.584,-66.1491C438.676,-64.7333 429.693,-63.3055 421.131,-61.9446"/>
<polygon fill="midnightblue" stroke="midnightblue" points="447.157,-69.6251 457.583,-67.7383 448.256,-62.7119 447.157,-69.6251"/>
</g>
<!-- Node87 -->
<g id="node3" class="node"><title>Node87</title>
<g id="a_node3"><a xlink:href="classopenage_1_1_engine.xhtml#adc80abfebed9b4f30df3de15984431e8" target="_top" xlink:title=" ">
<polygon fill="white" stroke="black" points="154,-93 154,-112 267,-112 267,-93 154,-93"/>
<text text-anchor="middle" x="210.5" y="-100" font-family="Helvetica,sans-Serif" font-size="10.00">openage::Engine::loop</text>
</a>
</g>
</g>
<!-- Node86&#45;&gt;Node87 -->
<g id="edge2" class="edge"><title>Node86&#45;&gt;Node87</title>
<path fill="none" stroke="midnightblue" d="M301.927,-102.5C290.357,-102.5 278.38,-102.5 267.077,-102.5"/>
<polygon fill="midnightblue" stroke="midnightblue" points="301.963,-106 311.963,-102.5 301.963,-99.0001 301.963,-106"/>
</g>
<!-- Node88 -->
<g id="node4" class="node"><title>Node88</title>
<g id="a_node4"><a xlink:href="classopenage_1_1_engine.xhtml#a1f1b60bb90c738f6b64a6e19e49cde6d" target="_top" xlink:title=" ">
<polygon fill="white" stroke="black" points="0,-93 0,-112 109,-112 109,-93 0,-93"/>
<text text-anchor="middle" x="54.5" y="-100" font-family="Helvetica,sans-Serif" font-size="10.00">openage::Engine::run</text>
</a>
</g>
</g>
<!-- Node87&#45;&gt;Node88 -->
<g id="edge3" class="edge"><title>Node87&#45;&gt;Node88</title>
<path fill="none" stroke="midnightblue" d="M143.862,-102.5C132.304,-102.5 120.397,-102.5 109.213,-102.5"/>
<polygon fill="midnightblue" stroke="midnightblue" points="143.903,-106 153.902,-102.5 143.902,-99.0001 143.903,-106"/>
</g>
<!-- Node90 -->
<g id="node6" class="node"><title>Node90</title>
<g id="a_node6"><a xlink:href="classopenage_1_1_engine.xhtml#a659dbbf399baf90582f4d8c5b497babc" target="_top" xlink:title=" ">
<polygon fill="white" stroke="black" points="145,-50 145,-69 276,-69 276,-50 145,-50"/>
<text text-anchor="middle" x="210.5" y="-57" font-family="Helvetica,sans-Serif" font-size="10.00">openage::Engine::~Engine</text>
</a>
</g>
</g>
<!-- Node89&#45;&gt;Node90 -->
<g id="edge5" class="edge"><title>Node89&#45;&gt;Node90</title>
<path fill="none" stroke="midnightblue" d="M302.718,-55.9575C293.984,-56.2967 285.004,-56.6455 276.244,-56.9857"/>
<polygon fill="midnightblue" stroke="midnightblue" points="302.973,-59.4504 312.83,-55.5649 302.702,-52.4556 302.973,-59.4504"/>
</g>
<!-- Node91 -->
<g id="node7" class="node"><title>Node91</title>
<g id="a_node7"><a xlink:href="classopenage_1_1util_1_1_profiler.xhtml#a1b4a2302000a4c497762567ce5d63379" target="_top" xlink:title=" ">
<polygon fill="white" stroke="black" points="156.5,-0.5 156.5,-30.5 264.5,-30.5 264.5,-0.5 156.5,-0.5"/>
<text text-anchor="start" x="164.5" y="-18.5" font-family="Helvetica,sans-Serif" font-size="10.00">openage::util::Profiler</text>
<text text-anchor="middle" x="210.5" y="-7.5" font-family="Helvetica,sans-Serif" font-size="10.00">::~Profiler</text>
</a>
</g>
</g>
<!-- Node89&#45;&gt;Node91 -->
<g id="edge6" class="edge"><title>Node89&#45;&gt;Node91</title>
<path fill="none" stroke="midnightblue" d="M302.775,-37.9495C290.063,-34.823 276.827,-31.5675 264.506,-28.5372"/>
<polygon fill="midnightblue" stroke="midnightblue" points="302.283,-41.4328 312.83,-40.4226 303.955,-34.6354 302.283,-41.4328"/>
</g>
</g>
</svg>
        <g id="navigator" transform="translate(0 0)" fill="#404254">
                <rect fill="#f2f5e9" fill-opacity="0.5" stroke="#606060" stroke-width=".5" x="0" y="0" width="60" height="60"/>
                <use id="zoomplus" xlink:href="#zoomPlus" x="17" y="9" onmousedown="handleZoom(evt,'in')"/>
                <use id="zoomminus" xlink:href="#zoomMin" x="42" y="9" onmousedown="handleZoom(evt,'out')"/>
                <use id="reset" xlink:href="#resetDef" x="30" y="36" onmousedown="handleReset()"/>
                <g id="arrowUp" xlink:href="#dirArrow" transform="translate(30 24)" onmousedown="handlePan(0,-1)">
                  <use xlink:href="#rim" fill="#404040">
                        <set attributeName="fill" to="#808080" begin="arrowUp.mouseover" end="arrowUp.mouseout"/>
                  </use>
                  <path fill="none" stroke="white" stroke-width="1.5" d="M0,-3.0v7 M-2.5,-0.5L0,-3.0L2.5,-0.5"/>
                </g>
                <g id="arrowRight" xlink:href="#dirArrow" transform="rotate(90) translate(36 -43)" onmousedown="handlePan(1,0)">
                  <use xlink:href="#rim" fill="#404040">
                        <set attributeName="fill" to="#808080" begin="arrowRight.mouseover" end="arrowRight.mouseout"/>
                  </use>
                  <path fill="none" stroke="white" stroke-width="1.5" d="M0,-3.0v7 M-2.5,-0.5L0,-3.0L2.5,-0.5"/>
                </g>
                <g id="arrowDown" xlink:href="#dirArrow" transform="rotate(180) translate(-30 -48)" onmousedown="handlePan(0,1)">
                  <use xlink:href="#rim" fill="#404040">
                        <set attributeName="fill" to="#808080" begin="arrowDown.mouseover" end="arrowDown.mouseout"/>
                  </use>
                  <path fill="none" stroke="white" stroke-width="1.5" d="M0,-3.0v7 M-2.5,-0.5L0,-3.0L2.5,-0.5"/>
                </g>
                <g id="arrowLeft" xlink:href="#dirArrow" transform="rotate(270) translate(-36 17)" onmousedown="handlePan(-1,0)">
                  <use xlink:href="#rim" fill="#404040">
                        <set attributeName="fill" to="#808080" begin="arrowLeft.mouseover" end="arrowLeft.mouseout"/>
                  </use>
                  <path fill="none" stroke="white" stroke-width="1.5" d="M0,-3.0v7 M-2.5,-0.5L0,-3.0L2.5,-0.5"/>
                </g>
        </g>
        <svg viewBox="0 0 15 15" width="100%" height="30px" preserveAspectRatio="xMaxYMin meet">
         <g id="arrow_out" transform="scale(0.3 0.3)">
          <a xlink:href="classopenage_1_1util_1_1_profiler_a93cf3b3b79fc2f3be34a2e1b095198a6_icgraph_org.svg" target="_base">
           <rect id="button" ry="5" rx="5" y="6" x="6" height="38" width="38"
                fill="#f2f5e9" fill-opacity="0.5" stroke="#606060" stroke-width="1.0"/>
           <path id="arrow"
             d="M 11.500037,31.436501 C 11.940474,20.09759 22.043105,11.32322 32.158766,21.979434 L 37.068811,17.246167 C 37.068811,17.246167 37.088388,32 37.088388,32 L 22.160133,31.978069 C 22.160133,31.978069 26.997745,27.140456 26.997745,27.140456 C 18.528582,18.264221 13.291696,25.230495 11.500037,31.436501 z"
             style="fill:#404040;"/>
          </a>
         </g>
        </svg>
</svg>
