<?xml version="1.0" encoding="UTF-8" standalone="no"?>
<!DOCTYPE svg PUBLIC "-//W3C//DTD SVG 1.1//EN"
 "http://www.w3.org/Graphics/SVG/1.1/DTD/svg11.dtd">
<!-- Generated by graphviz version 2.38.0 (20140413.2041)
 -->
<!-- Title: openage::IntervalTimer::finished Pages: 1 -->
<svg width="265pt" height="39pt"
 viewBox="0.00 0.00 265.00 39.00" xmlns="http://www.w3.org/2000/svg" xmlns:xlink="http://www.w3.org/1999/xlink">
<g id="graph0" class="graph" transform="scale(1 1) rotate(0) translate(4 35)">
<title>openage::IntervalTimer::finished</title>
<polygon fill="white" stroke="none" points="-4,4 -4,-35 261,-35 261,4 -4,4"/>
<!-- Node5 -->
<g id="node1" class="node"><title>Node5</title>
<g id="a_node1"><a xlink:title="Returns true if the interval passed have reached the max.">
<polygon fill="#bfbfbf" stroke="black" points="144,-0.5 144,-30.5 257,-30.5 257,-0.5 144,-0.5"/>
<text text-anchor="start" x="152" y="-18.5" font-family="Helvetica,sans-Serif" font-size="10.00">openage::IntervalTimer</text>
<text text-anchor="middle" x="200.5" y="-7.5" font-family="Helvetica,sans-Serif" font-size="10.00">::finished</text>
</a>
</g>
</g>
<!-- Node6 -->
<g id="node2" class="node"><title>Node6</title>
<g id="a_node2"><a xlink:href="classopenage_1_1_train_action.xhtml#af5515a9c445b00f4dd69348e7177c94c" target="_top" xlink:title="each action has its own update functionality which gets called when this is the active action">
<polygon fill="white" stroke="black" points="0,-0.5 0,-30.5 108,-30.5 108,-0.5 0,-0.5"/>
<text text-anchor="start" x="8" y="-18.5" font-family="Helvetica,sans-Serif" font-size="10.00">openage::TrainAction</text>
<text text-anchor="middle" x="54" y="-7.5" font-family="Helvetica,sans-Serif" font-size="10.00">::update</text>
</a>
</g>
</g>
<!-- Node5&#45;&gt;Node6 -->
<g id="edge1" class="edge"><title>Node5&#45;&gt;Node6</title>
<path fill="none" stroke="midnightblue" d="M133.459,-15.5C125.048,-15.5 116.523,-15.5 108.346,-15.5"/>
<polygon fill="midnightblue" stroke="midnightblue" points="133.633,-19.0001 143.633,-15.5 133.632,-12.0001 133.633,-19.0001"/>
</g>
</g>
</svg>
