<?xml version="1.0" encoding="UTF-8" standalone="no"?>
<!DOCTYPE svg PUBLIC "-//W3C//DTD SVG 1.1//EN"
 "http://www.w3.org/Graphics/SVG/1.1/DTD/svg11.dtd">
<!-- Generated by graphviz version 2.38.0 (20140413.2041)
 -->
<!-- Title: openage::curve::Queue::clear Pages: 1 -->
<!--zoomable 283 -->
<svg id="main" version="1.1" xmlns="http://www.w3.org/2000/svg" xmlns:xlink="http://www.w3.org/1999/xlink" xml:space="preserve" onload="init(evt)">
<style type="text/css"><![CDATA[
.edge:hover path { stroke: red; }
.edge:hover polygon { stroke: red; fill: red; }
]]></style>
<script type="text/javascript"><![CDATA[
var edges = document.getElementsByTagName('g');
if (edges && edges.length) {
  for (var i=0;i<edges.length;i++) {
    if (edges[i].id.substr(0,4)=='edge') {
      edges[i].setAttribute('class','edge');
    }
  }
}
]]></script>
        <defs>
                <circle id="rim" cx="0" cy="0" r="7"/>
                <circle id="rim2" cx="0" cy="0" r="3.5"/>
                <g id="zoomPlus">
                        <use xlink:href="#rim" fill="#404040">
                                <set attributeName="fill" to="#808080" begin="zoomplus.mouseover" end="zoomplus.mouseout"/>
                        </use>
                        <path d="M-4,0h8M0,-4v8" fill="none" stroke="white" stroke-width="1.5" pointer-events="none"/>
                </g>
                <g id="zoomMin">
                        <use xlink:href="#rim" fill="#404040">
                                <set attributeName="fill" to="#808080" begin="zoomminus.mouseover" end="zoomminus.mouseout"/>
                        </use>
                        <path d="M-4,0h8" fill="none" stroke="white" stroke-width="1.5" pointer-events="none"/>
                </g>
                <g id="dirArrow">
                        <path fill="none" stroke="white" stroke-width="1.5" d="M0,-3.0v7 M-2.5,-0.5L0,-3.0L2.5,-0.5"/>
                </g>
               <g id="resetDef">
                       <use xlink:href="#rim2" fill="#404040">
                               <set attributeName="fill" to="#808080" begin="reset.mouseover" end="reset.mouseout"/>
                       </use>
               </g>
        </defs>

<script type="text/javascript">
var viewWidth = 772;
var viewHeight = 283;
var sectionId = 'dynsection-6';
</script>
<script xlink:href="svgpan.js"/>
<svg id="graph" class="graph">
<g id="viewport">
<title>openage::curve::Queue::clear</title>
<polygon fill="white" stroke="none" points="-4,4 -4,-279 768,-279 768,4 -4,4"/>
<!-- Node123 -->
<g id="node1" class="node"><title>Node123</title>
<g id="a_node1"><a xlink:title=" ">
<polygon fill="#bfbfbf" stroke="black" points="0,-113.5 0,-143.5 116,-143.5 116,-113.5 0,-113.5"/>
<text text-anchor="start" x="8" y="-131.5" font-family="Helvetica,sans-Serif" font-size="10.00">openage::curve::Queue</text>
<text text-anchor="middle" x="58" y="-120.5" font-family="Helvetica,sans-Serif" font-size="10.00">::clear</text>
</a>
</g>
</g>
<!-- Node124 -->
<g id="node2" class="node"><title>Node124</title>
<g id="a_node2"><a xlink:href="namespaceopenage_1_1curve_1_1tests.xhtml#afc4e799a037edab37e1e35a74da593b7" target="_top" xlink:title=" ">
<polygon fill="white" stroke="black" points="152,-113.5 152,-143.5 262,-143.5 262,-113.5 152,-113.5"/>
<text text-anchor="start" x="160" y="-131.5" font-family="Helvetica,sans-Serif" font-size="10.00">openage::curve::tests</text>
<text text-anchor="middle" x="207" y="-120.5" font-family="Helvetica,sans-Serif" font-size="10.00">::container</text>
</a>
</g>
</g>
<!-- Node123&#45;&gt;Node124 -->
<g id="edge1" class="edge"><title>Node123&#45;&gt;Node124</title>
<path fill="none" stroke="midnightblue" d="M116.255,-128.5C124.508,-128.5 133.049,-128.5 141.432,-128.5"/>
<polygon fill="midnightblue" stroke="midnightblue" points="141.55,-132 151.55,-128.5 141.55,-125 141.55,-132"/>
</g>
<!-- Node125 -->
<g id="node3" class="node"><title>Node125</title>
<g id="a_node3"><a xlink:href="namespaceopenage_1_1curve_1_1tests.xhtml#aafe8d47259322a390c43cae62d308296" target="_top" xlink:title=" ">
<polygon fill="white" stroke="black" points="298,-244.5 298,-274.5 408,-274.5 408,-244.5 298,-244.5"/>
<text text-anchor="start" x="306" y="-262.5" font-family="Helvetica,sans-Serif" font-size="10.00">openage::curve::tests</text>
<text text-anchor="middle" x="353" y="-251.5" font-family="Helvetica,sans-Serif" font-size="10.00">::test_map</text>
</a>
</g>
</g>
<!-- Node124&#45;&gt;Node125 -->
<g id="edge2" class="edge"><title>Node124&#45;&gt;Node125</title>
<path fill="none" stroke="midnightblue" d="M217.607,-143.87C232.436,-166.537 262.887,-209.091 298,-235.5 299.799,-236.853 301.686,-238.15 303.632,-239.391"/>
<polygon fill="midnightblue" stroke="midnightblue" points="302.051,-242.519 312.464,-244.473 305.542,-236.452 302.051,-242.519"/>
</g>
<!-- Node126 -->
<g id="node4" class="node"><title>Node126</title>
<g id="a_node4"><a xlink:href="namespaceopenage_1_1curve_1_1tests.xhtml#a994d019a14acd704605a0ccff85558c8" target="_top" xlink:title=" ">
<polygon fill="white" stroke="black" points="298,-195.5 298,-225.5 408,-225.5 408,-195.5 298,-195.5"/>
<text text-anchor="start" x="306" y="-213.5" font-family="Helvetica,sans-Serif" font-size="10.00">openage::curve::tests</text>
<text text-anchor="middle" x="353" y="-202.5" font-family="Helvetica,sans-Serif" font-size="10.00">::test_list</text>
</a>
</g>
</g>
<!-- Node124&#45;&gt;Node126 -->
<g id="edge3" class="edge"><title>Node124&#45;&gt;Node126</title>
<path fill="none" stroke="midnightblue" d="M233.927,-143.634C251.873,-154.072 276.333,-168.223 298,-180.5 303.695,-183.727 309.743,-187.12 315.653,-190.417"/>
<polygon fill="midnightblue" stroke="midnightblue" points="314.316,-193.678 324.756,-195.481 317.719,-187.561 314.316,-193.678"/>
</g>
<!-- Node127 -->
<g id="node5" class="node"><title>Node127</title>
<g id="a_node5"><a xlink:href="namespaceopenage_1_1curve_1_1tests.xhtml#ae4b27fadf76c2a10960f6b7e7ff7c724" target="_top" xlink:title=" ">
<polygon fill="white" stroke="black" points="298,-69.5 298,-99.5 408,-99.5 408,-69.5 298,-69.5"/>
<text text-anchor="start" x="306" y="-87.5" font-family="Helvetica,sans-Serif" font-size="10.00">openage::curve::tests</text>
<text text-anchor="middle" x="353" y="-76.5" font-family="Helvetica,sans-Serif" font-size="10.00">::test_queue</text>
</a>
</g>
</g>
<!-- Node124&#45;&gt;Node127 -->
<g id="edge4" class="edge"><title>Node124&#45;&gt;Node127</title>
<path fill="none" stroke="midnightblue" d="M257.154,-113.481C268.611,-109.98 280.93,-106.216 292.772,-102.597"/>
<polygon fill="midnightblue" stroke="midnightblue" points="294.038,-105.87 302.579,-99.6009 291.992,-99.176 294.038,-105.87"/>
</g>
<!-- Node128 -->
<g id="node6" class="node"><title>Node128</title>
<g id="a_node6"><a xlink:href="classopenage_1_1curve_1_1_queue.xhtml#ae7d94b0875221550e5af663a64ea2aec" target="_top" xlink:title=" ">
<polygon fill="white" stroke="black" points="455,-144.5 455,-174.5 571,-174.5 571,-144.5 455,-144.5"/>
<text text-anchor="start" x="463" y="-162.5" font-family="Helvetica,sans-Serif" font-size="10.00">openage::curve::Queue</text>
<text text-anchor="middle" x="513" y="-151.5" font-family="Helvetica,sans-Serif" font-size="10.00">::insert</text>
</a>
</g>
</g>
<!-- Node127&#45;&gt;Node128 -->
<g id="edge5" class="edge"><title>Node127&#45;&gt;Node128</title>
<path fill="none" stroke="midnightblue" d="M378.678,-99.5732C396.467,-110.099 421.251,-124.075 444,-134.5 448.669,-136.639 453.578,-138.732 458.532,-140.739"/>
<polygon fill="midnightblue" stroke="midnightblue" points="457.475,-144.084 468.063,-144.482 460.034,-137.569 457.475,-144.084"/>
</g>
<!-- Node130 -->
<g id="node8" class="node"><title>Node130</title>
<g id="a_node8"><a xlink:href="classopenage_1_1curve_1_1_queue.xhtml#acbff846f0aad39b82c1dbffe83f80fba" target="_top" xlink:title=" ">
<polygon fill="white" stroke="black" points="455,-95.5 455,-125.5 571,-125.5 571,-95.5 455,-95.5"/>
<text text-anchor="start" x="463" y="-113.5" font-family="Helvetica,sans-Serif" font-size="10.00">openage::curve::Queue</text>
<text text-anchor="middle" x="513" y="-102.5" font-family="Helvetica,sans-Serif" font-size="10.00">::begin</text>
</a>
</g>
</g>
<!-- Node127&#45;&gt;Node130 -->
<g id="edge8" class="edge"><title>Node127&#45;&gt;Node130</title>
<path fill="none" stroke="midnightblue" d="M408.375,-93.4477C420.091,-95.3757 432.61,-97.4358 444.75,-99.4335"/>
<polygon fill="midnightblue" stroke="midnightblue" points="444.397,-102.922 454.833,-101.093 445.534,-96.0154 444.397,-102.922"/>
</g>
<!-- Node131 -->
<g id="node9" class="node"><title>Node131</title>
<g id="a_node9"><a xlink:href="classopenage_1_1curve_1_1_queue.xhtml#a3ba35a56fa550d939d0d16c71c63e56c" target="_top" xlink:title=" ">
<polygon fill="white" stroke="black" points="455,-0.5 455,-30.5 571,-30.5 571,-0.5 455,-0.5"/>
<text text-anchor="start" x="463" y="-18.5" font-family="Helvetica,sans-Serif" font-size="10.00">openage::curve::Queue</text>
<text text-anchor="middle" x="513" y="-7.5" font-family="Helvetica,sans-Serif" font-size="10.00">::between</text>
</a>
</g>
</g>
<!-- Node127&#45;&gt;Node131 -->
<g id="edge11" class="edge"><title>Node127&#45;&gt;Node131</title>
<path fill="none" stroke="midnightblue" d="M388.674,-69.3577C412.033,-59.1565 443.037,-45.6167 468.114,-34.6652"/>
<polygon fill="midnightblue" stroke="midnightblue" points="469.644,-37.8167 477.407,-30.607 466.842,-31.4017 469.644,-37.8167"/>
</g>
<!-- Node132 -->
<g id="node10" class="node"><title>Node132</title>
<g id="a_node10"><a xlink:href="classopenage_1_1curve_1_1_queue.xhtml#a3a60297cec80ae6d759ea3567922db8e" target="_top" xlink:title=" ">
<polygon fill="white" stroke="black" points="444,-57 444,-76 582,-76 582,-57 444,-57"/>
<text text-anchor="middle" x="513" y="-64" font-family="Helvetica,sans-Serif" font-size="10.00">openage::curve::Queue::end</text>
</a>
</g>
</g>
<!-- Node127&#45;&gt;Node132 -->
<g id="edge13" class="edge"><title>Node127&#45;&gt;Node132</title>
<path fill="none" stroke="midnightblue" d="M408.375,-78.3054C416.587,-77.3698 425.194,-76.3893 433.788,-75.4102"/>
<polygon fill="midnightblue" stroke="midnightblue" points="434.308,-78.8737 443.847,-74.2642 433.515,-71.9187 434.308,-78.8737"/>
</g>
<!-- Node128&#45;&gt;Node124 -->
<g id="edge6" class="edge"><title>Node128&#45;&gt;Node124</title>
<path fill="none" stroke="midnightblue" d="M454.766,-153.664C402.892,-148.374 326.519,-140.586 272.502,-135.078"/>
<polygon fill="midnightblue" stroke="midnightblue" points="272.653,-131.575 262.349,-134.042 271.942,-138.539 272.653,-131.575"/>
</g>
<!-- Node129 -->
<g id="node7" class="node"><title>Node129</title>
<g id="a_node7"><a xlink:href="namespaceopenage_1_1console_1_1tests.xhtml#a46ebd3333dc9196558ac9aced828d117" target="_top" xlink:title=" ">
<polygon fill="white" stroke="black" points="618,-101 618,-120 764,-120 764,-101 618,-101"/>
<text text-anchor="middle" x="691" y="-108" font-family="Helvetica,sans-Serif" font-size="10.00">openage::console::tests::max</text>
</a>
</g>
</g>
<!-- Node128&#45;&gt;Node129 -->
<g id="edge7" class="edge"><title>Node128&#45;&gt;Node129</title>
<path fill="none" stroke="midnightblue" d="M568.242,-144.399C593.253,-137.435 622.551,-129.278 646.14,-122.711"/>
<polygon fill="midnightblue" stroke="midnightblue" points="647.176,-126.056 655.871,-120.002 645.298,-119.312 647.176,-126.056"/>
</g>
<!-- Node130&#45;&gt;Node124 -->
<g id="edge9" class="edge"><title>Node130&#45;&gt;Node124</title>
<path fill="none" stroke="midnightblue" d="M454.766,-113.889C402.892,-116.96 326.519,-121.482 272.502,-124.681"/>
<polygon fill="midnightblue" stroke="midnightblue" points="272.125,-121.197 262.349,-125.282 272.539,-128.185 272.125,-121.197"/>
</g>
<!-- Node130&#45;&gt;Node129 -->
<g id="edge10" class="edge"><title>Node130&#45;&gt;Node129</title>
<path fill="none" stroke="midnightblue" d="M571.142,-110.5C582.748,-110.5 595.173,-110.5 607.456,-110.5"/>
<polygon fill="midnightblue" stroke="midnightblue" points="607.72,-114 617.72,-110.5 607.72,-107 607.72,-114"/>
</g>
<!-- Node131&#45;&gt;Node124 -->
<g id="edge12" class="edge"><title>Node131&#45;&gt;Node124</title>
<path fill="none" stroke="midnightblue" d="M454.817,-13.9702C410.109,-14.9113 347.459,-21.0454 298,-44.5 268.429,-58.5232 242.033,-85.8239 225.595,-105.501"/>
<polygon fill="midnightblue" stroke="midnightblue" points="222.763,-103.436 219.179,-113.407 228.198,-107.847 222.763,-103.436"/>
</g>
<!-- Node132&#45;&gt;Node124 -->
<g id="edge14" class="edge"><title>Node132&#45;&gt;Node124</title>
<path fill="none" stroke="midnightblue" d="M471.72,-56.928C427.757,-48.3482 355.908,-39.8563 298,-59.5 270.836,-68.7145 245.442,-89.7879 228.601,-106.238"/>
<polygon fill="midnightblue" stroke="midnightblue" points="226.044,-103.846 221.489,-113.412 231.015,-108.775 226.044,-103.846"/>
</g>
<!-- Node132&#45;&gt;Node129 -->
<g id="edge15" class="edge"><title>Node132&#45;&gt;Node129</title>
<path fill="none" stroke="midnightblue" d="M552.189,-76.0473C578.482,-82.6204 613.619,-91.4048 641.833,-98.4583"/>
<polygon fill="midnightblue" stroke="midnightblue" points="641.335,-101.941 651.885,-100.971 643.033,-95.1504 641.335,-101.941"/>
</g>
</g>
</svg>
        <g id="navigator" transform="translate(0 0)" fill="#404254">
                <rect fill="#f2f5e9" fill-opacity="0.5" stroke="#606060" stroke-width=".5" x="0" y="0" width="60" height="60"/>
                <use id="zoomplus" xlink:href="#zoomPlus" x="17" y="9" onmousedown="handleZoom(evt,'in')"/>
                <use id="zoomminus" xlink:href="#zoomMin" x="42" y="9" onmousedown="handleZoom(evt,'out')"/>
                <use id="reset" xlink:href="#resetDef" x="30" y="36" onmousedown="handleReset()"/>
                <g id="arrowUp" xlink:href="#dirArrow" transform="translate(30 24)" onmousedown="handlePan(0,-1)">
                  <use xlink:href="#rim" fill="#404040">
                        <set attributeName="fill" to="#808080" begin="arrowUp.mouseover" end="arrowUp.mouseout"/>
                  </use>
                  <path fill="none" stroke="white" stroke-width="1.5" d="M0,-3.0v7 M-2.5,-0.5L0,-3.0L2.5,-0.5"/>
                </g>
                <g id="arrowRight" xlink:href="#dirArrow" transform="rotate(90) translate(36 -43)" onmousedown="handlePan(1,0)">
                  <use xlink:href="#rim" fill="#404040">
                        <set attributeName="fill" to="#808080" begin="arrowRight.mouseover" end="arrowRight.mouseout"/>
                  </use>
                  <path fill="none" stroke="white" stroke-width="1.5" d="M0,-3.0v7 M-2.5,-0.5L0,-3.0L2.5,-0.5"/>
                </g>
                <g id="arrowDown" xlink:href="#dirArrow" transform="rotate(180) translate(-30 -48)" onmousedown="handlePan(0,1)">
                  <use xlink:href="#rim" fill="#404040">
                        <set attributeName="fill" to="#808080" begin="arrowDown.mouseover" end="arrowDown.mouseout"/>
                  </use>
                  <path fill="none" stroke="white" stroke-width="1.5" d="M0,-3.0v7 M-2.5,-0.5L0,-3.0L2.5,-0.5"/>
                </g>
                <g id="arrowLeft" xlink:href="#dirArrow" transform="rotate(270) translate(-36 17)" onmousedown="handlePan(-1,0)">
                  <use xlink:href="#rim" fill="#404040">
                        <set attributeName="fill" to="#808080" begin="arrowLeft.mouseover" end="arrowLeft.mouseout"/>
                  </use>
                  <path fill="none" stroke="white" stroke-width="1.5" d="M0,-3.0v7 M-2.5,-0.5L0,-3.0L2.5,-0.5"/>
                </g>
        </g>
        <svg viewBox="0 0 15 15" width="100%" height="30px" preserveAspectRatio="xMaxYMin meet">
         <g id="arrow_out" transform="scale(0.3 0.3)">
          <a xlink:href="classopenage_1_1curve_1_1_queue_a5ee4f2514bc1ea089a5aa32567ec0195_cgraph_org.svg" target="_base">
           <rect id="button" ry="5" rx="5" y="6" x="6" height="38" width="38"
                fill="#f2f5e9" fill-opacity="0.5" stroke="#606060" stroke-width="1.0"/>
           <path id="arrow"
             d="M 11.500037,31.436501 C 11.940474,20.09759 22.043105,11.32322 32.158766,21.979434 L 37.068811,17.246167 C 37.068811,17.246167 37.088388,32 37.088388,32 L 22.160133,31.978069 C 22.160133,31.978069 26.997745,27.140456 26.997745,27.140456 C 18.528582,18.264221 13.291696,25.230495 11.500037,31.436501 z"
             style="fill:#404040;"/>
          </a>
         </g>
        </svg>
</svg>
