<?xml version="1.0" encoding="UTF-8" standalone="no"?>
<!DOCTYPE svg PUBLIC "-//W3C//DTD SVG 1.1//EN"
 "http://www.w3.org/Graphics/SVG/1.1/DTD/svg11.dtd">
<!-- Generated by graphviz version 2.38.0 (20140413.2041)
 -->
<!-- Title: openage::renderer::resources::Texture2dData::read_pixel Pages: 1 -->
<svg width="599pt" height="284pt"
 viewBox="0.00 0.00 599.00 284.00" xmlns="http://www.w3.org/2000/svg" xmlns:xlink="http://www.w3.org/1999/xlink">
<g id="graph0" class="graph" transform="scale(1 1) rotate(0) translate(4 280)">
<title>openage::renderer::resources::Texture2dData::read_pixel</title>
<polygon fill="white" stroke="none" points="-4,4 -4,-280 595,-280 595,4 -4,4"/>
<!-- Node51 -->
<g id="node1" class="node"><title>Node51</title>
<g id="a_node1"><a xlink:title="Reads the pixel at the given position and casts it to the given type.">
<polygon fill="#bfbfbf" stroke="black" points="0,-128.5 0,-169.5 128,-169.5 128,-128.5 0,-128.5"/>
<text text-anchor="start" x="8" y="-157.5" font-family="Helvetica,sans-Serif" font-size="10.00">openage::renderer::</text>
<text text-anchor="start" x="8" y="-146.5" font-family="Helvetica,sans-Serif" font-size="10.00">resources::Texture2dData</text>
<text text-anchor="middle" x="64" y="-135.5" font-family="Helvetica,sans-Serif" font-size="10.00">::read_pixel</text>
</a>
</g>
</g>
<!-- Node52 -->
<g id="node2" class="node"><title>Node52</title>
<g id="a_node2"><a xlink:href="namespaceopenage_1_1log.xhtml#a325b0901ddb3f2af36f93781b7dd9744" target="_top" xlink:title="error message">
<polygon fill="white" stroke="black" points="184,-256.5 184,-275.5 267,-275.5 267,-256.5 184,-256.5"/>
<text text-anchor="middle" x="225.5" y="-263.5" font-family="Helvetica,sans-Serif" font-size="10.00">openage.log.err</text>
</a>
</g>
</g>
<!-- Node51&#45;&gt;Node52 -->
<g id="edge1" class="edge"><title>Node51&#45;&gt;Node52</title>
<path fill="none" stroke="midnightblue" d="M80.6786,-169.539C98.5745,-191.647 129.821,-226.405 164,-247 167.455,-249.082 171.16,-250.957 174.974,-252.642"/>
<polygon fill="midnightblue" stroke="midnightblue" points="174.007,-256.024 184.594,-256.448 176.583,-249.515 174.007,-256.024"/>
</g>
<!-- Node53 -->
<g id="node3" class="node"><title>Node53</title>
<g id="a_node3"><a xlink:href="classopenage_1_1renderer_1_1resources_1_1_texture2d_info.xhtml#a09329202a589131b1c723fbffb1f806b" target="_top" xlink:title="Returns the size in bytes of the raw pixel data.">
<polygon fill="white" stroke="black" points="164,-196.5 164,-237.5 287,-237.5 287,-196.5 164,-196.5"/>
<text text-anchor="start" x="172" y="-225.5" font-family="Helvetica,sans-Serif" font-size="10.00">openage::renderer::</text>
<text text-anchor="start" x="172" y="-214.5" font-family="Helvetica,sans-Serif" font-size="10.00">resources::Texture2dInfo</text>
<text text-anchor="middle" x="225.5" y="-203.5" font-family="Helvetica,sans-Serif" font-size="10.00">::get_data_size</text>
</a>
</g>
</g>
<!-- Node51&#45;&gt;Node53 -->
<g id="edge2" class="edge"><title>Node51&#45;&gt;Node53</title>
<path fill="none" stroke="midnightblue" d="M113.288,-169.587C130.153,-176.777 149.254,-184.92 166.807,-192.404"/>
<polygon fill="midnightblue" stroke="midnightblue" points="165.804,-195.781 176.376,-196.483 168.55,-189.342 165.804,-195.781"/>
</g>
<!-- Node54 -->
<g id="node4" class="node"><title>Node54</title>
<g id="a_node4"><a xlink:href="classopenage_1_1renderer_1_1resources_1_1_texture2d_info.xhtml#a2d87c131a3e1f175ce29d3ec146c2790" target="_top" xlink:title="Returns the size in bytes of a single row, including possible padding at its end.">
<polygon fill="white" stroke="black" points="323,-158.5 323,-199.5 446,-199.5 446,-158.5 323,-158.5"/>
<text text-anchor="start" x="331" y="-187.5" font-family="Helvetica,sans-Serif" font-size="10.00">openage::renderer::</text>
<text text-anchor="start" x="331" y="-176.5" font-family="Helvetica,sans-Serif" font-size="10.00">resources::Texture2dInfo</text>
<text text-anchor="middle" x="384.5" y="-165.5" font-family="Helvetica,sans-Serif" font-size="10.00">::get_row_size</text>
</a>
</g>
</g>
<!-- Node51&#45;&gt;Node54 -->
<g id="edge6" class="edge"><title>Node51&#45;&gt;Node54</title>
<path fill="none" stroke="midnightblue" d="M128.306,-154.963C181.506,-159.974 257.48,-167.13 312.688,-172.33"/>
<polygon fill="midnightblue" stroke="midnightblue" points="312.461,-175.824 322.745,-173.277 313.117,-168.855 312.461,-175.824"/>
</g>
<!-- Node55 -->
<g id="node5" class="node"><title>Node55</title>
<g id="a_node5"><a xlink:href="namespaceopenage_1_1renderer_1_1resources.xhtml#aa8bc42c345504717eba7d38b39d278c2" target="_top" xlink:title="Returns the size in bytes of a single pixel of the specified format.">
<polygon fill="white" stroke="black" points="482,-139 482,-169 591,-169 591,-139 482,-139"/>
<text text-anchor="start" x="490" y="-157" font-family="Helvetica,sans-Serif" font-size="10.00">openage::renderer::</text>
<text text-anchor="middle" x="536.5" y="-146" font-family="Helvetica,sans-Serif" font-size="10.00">resources::pixel_size</text>
</a>
</g>
</g>
<!-- Node51&#45;&gt;Node55 -->
<g id="edge8" class="edge"><title>Node51&#45;&gt;Node55</title>
<path fill="none" stroke="midnightblue" d="M128.049,-147.924C203.622,-146.883 334.092,-145.877 446,-149 454.274,-149.231 462.973,-149.582 471.564,-149.993"/>
<polygon fill="midnightblue" stroke="midnightblue" points="471.403,-153.489 481.567,-150.499 471.757,-146.498 471.403,-153.489"/>
</g>
<!-- Node56 -->
<g id="node6" class="node"><title>Node56</title>
<g id="a_node6"><a xlink:href="classopenage_1_1renderer_1_1resources_1_1_texture2d_info.xhtml#a57830eb6623cc7171953bc0214c6ee2c" target="_top" xlink:title=" ">
<polygon fill="white" stroke="black" points="164,-60.5 164,-101.5 287,-101.5 287,-60.5 164,-60.5"/>
<text text-anchor="start" x="172" y="-89.5" font-family="Helvetica,sans-Serif" font-size="10.00">openage::renderer::</text>
<text text-anchor="start" x="172" y="-78.5" font-family="Helvetica,sans-Serif" font-size="10.00">resources::Texture2dInfo</text>
<text text-anchor="middle" x="225.5" y="-67.5" font-family="Helvetica,sans-Serif" font-size="10.00">::get_format</text>
</a>
</g>
</g>
<!-- Node51&#45;&gt;Node56 -->
<g id="edge5" class="edge"><title>Node51&#45;&gt;Node56</title>
<path fill="none" stroke="midnightblue" d="M113.288,-128.413C130.153,-121.223 149.254,-113.08 166.807,-105.596"/>
<polygon fill="midnightblue" stroke="midnightblue" points="168.55,-108.658 176.376,-101.517 165.804,-102.219 168.55,-108.658"/>
</g>
<!-- Node57 -->
<g id="node7" class="node"><title>Node57</title>
<g id="a_node7"><a xlink:href="classopenage_1_1renderer_1_1resources_1_1_texture2d_info.xhtml#a3bd462432c63a67c1b199c3f717bce50" target="_top" xlink:title="Returns the dimensions of the whole texture bitmap.">
<polygon fill="white" stroke="black" points="164,-0.5 164,-41.5 287,-41.5 287,-0.5 164,-0.5"/>
<text text-anchor="start" x="172" y="-29.5" font-family="Helvetica,sans-Serif" font-size="10.00">openage::renderer::</text>
<text text-anchor="start" x="172" y="-18.5" font-family="Helvetica,sans-Serif" font-size="10.00">resources::Texture2dInfo</text>
<text text-anchor="middle" x="225.5" y="-7.5" font-family="Helvetica,sans-Serif" font-size="10.00">::get_size</text>
</a>
</g>
</g>
<!-- Node51&#45;&gt;Node57 -->
<g id="edge7" class="edge"><title>Node51&#45;&gt;Node57</title>
<path fill="none" stroke="midnightblue" d="M82.3467,-128.276C100.944,-106.969 132.121,-73.7747 164,-51 166.045,-49.539 168.172,-48.1123 170.352,-46.7245"/>
<polygon fill="midnightblue" stroke="midnightblue" points="172.182,-49.7084 178.97,-41.5733 168.59,-43.7 172.182,-49.7084"/>
</g>
<!-- Node53&#45;&gt;Node54 -->
<g id="edge3" class="edge"><title>Node53&#45;&gt;Node54</title>
<path fill="none" stroke="midnightblue" d="M287.2,-202.308C295.727,-200.244 304.549,-198.109 313.235,-196.007"/>
<polygon fill="midnightblue" stroke="midnightblue" points="314.065,-199.407 322.961,-193.653 312.418,-192.603 314.065,-199.407"/>
</g>
<!-- Node54&#45;&gt;Node55 -->
<g id="edge4" class="edge"><title>Node54&#45;&gt;Node55</title>
<path fill="none" stroke="midnightblue" d="M446.078,-168.904C454.611,-167.482 463.402,-166.016 471.988,-164.585"/>
<polygon fill="midnightblue" stroke="midnightblue" points="472.655,-168.022 481.944,-162.926 471.504,-161.118 472.655,-168.022"/>
</g>
</g>
</svg>
