<?xml version="1.0" encoding="UTF-8" standalone="no"?>
<!DOCTYPE svg PUBLIC "-//W3C//DTD SVG 1.1//EN"
 "http://www.w3.org/Graphics/SVG/1.1/DTD/svg11.dtd">
<!-- Generated by graphviz version 2.38.0 (20140413.2041)
 -->
<!-- Title: openage::Civilisation::get_building_data Pages: 1 -->
<svg width="603pt" height="132pt"
 viewBox="0.00 0.00 603.00 132.00" xmlns="http://www.w3.org/2000/svg" xmlns:xlink="http://www.w3.org/1999/xlink">
<g id="graph0" class="graph" transform="scale(1 1) rotate(0) translate(4 128)">
<title>openage::Civilisation::get_building_data</title>
<polygon fill="white" stroke="none" points="-4,4 -4,-128 599,-128 599,4 -4,4"/>
<!-- Node5 -->
<g id="node1" class="node"><title>Node5</title>
<g id="a_node1"><a xlink:title="gamedata for a building">
<polygon fill="#bfbfbf" stroke="black" points="0,-80 0,-110 105,-110 105,-80 0,-80"/>
<text text-anchor="start" x="8" y="-98" font-family="Helvetica,sans-Serif" font-size="10.00">openage::Civilisation</text>
<text text-anchor="middle" x="52.5" y="-87" font-family="Helvetica,sans-Serif" font-size="10.00">::get_building_data</text>
</a>
</g>
</g>
<!-- Node6 -->
<g id="node2" class="node"><title>Node6</title>
<g id="a_node2"><a xlink:href="namespaceopenage_1_1log.xhtml#a3f1815b698faf5786fc5e20bcac7704b" target="_top" xlink:title="info message">
<polygon fill="white" stroke="black" points="143,-104.5 143,-123.5 230,-123.5 230,-104.5 143,-104.5"/>
<text text-anchor="middle" x="186.5" y="-111.5" font-family="Helvetica,sans-Serif" font-size="10.00">openage.log.info</text>
</a>
</g>
</g>
<!-- Node5&#45;&gt;Node6 -->
<g id="edge1" class="edge"><title>Node5&#45;&gt;Node6</title>
<path fill="none" stroke="midnightblue" d="M105.291,-102.455C114.317,-103.754 123.716,-105.107 132.767,-106.41"/>
<polygon fill="midnightblue" stroke="midnightblue" points="132.403,-109.893 142.8,-107.854 133.401,-102.965 132.403,-109.893"/>
</g>
<!-- Node7 -->
<g id="node3" class="node"><title>Node7</title>
<g id="a_node3"><a xlink:href="namespaceopenage_1_1log.xhtml#a0eff614e7d6e818746700ed9d29e583f" target="_top" xlink:title="Convenience method that makes use of the &#39;general&#39; LogSource.">
<polygon fill="white" stroke="black" points="141,-66.5 141,-85.5 232,-85.5 232,-66.5 141,-66.5"/>
<text text-anchor="middle" x="186.5" y="-73.5" font-family="Helvetica,sans-Serif" font-size="10.00">openage::log::log</text>
</a>
</g>
</g>
<!-- Node5&#45;&gt;Node7 -->
<g id="edge2" class="edge"><title>Node5&#45;&gt;Node7</title>
<path fill="none" stroke="midnightblue" d="M105.291,-87.5452C113.61,-86.3479 122.244,-85.105 130.632,-83.8977"/>
<polygon fill="midnightblue" stroke="midnightblue" points="131.304,-87.3372 140.703,-82.4481 130.306,-80.4086 131.304,-87.3372"/>
</g>
<!-- Node8 -->
<g id="node4" class="node"><title>Node8</title>
<g id="a_node4"><a xlink:href="namespaceopenage_1_1log.xhtml#a3fbb0c225d01e222648ec28a43507188" target="_top" xlink:title="Returns a reference to a general named log source, for use by log::log().">
<polygon fill="white" stroke="black" points="284.5,-83 284.5,-113 394.5,-113 394.5,-83 284.5,-83"/>
<text text-anchor="start" x="292.5" y="-101" font-family="Helvetica,sans-Serif" font-size="10.00">openage::log::general</text>
<text text-anchor="middle" x="339.5" y="-90" font-family="Helvetica,sans-Serif" font-size="10.00">_source</text>
</a>
</g>
</g>
<!-- Node7&#45;&gt;Node8 -->
<g id="edge3" class="edge"><title>Node7&#45;&gt;Node8</title>
<path fill="none" stroke="midnightblue" d="M232.396,-82.5412C245.548,-84.4573 260.191,-86.5907 274.296,-88.6457"/>
<polygon fill="midnightblue" stroke="midnightblue" points="274.042,-92.1456 284.442,-90.124 275.051,-85.2188 274.042,-92.1456"/>
</g>
<!-- Node9 -->
<g id="node5" class="node"><title>Node9</title>
<g id="a_node5"><a xlink:href="classopenage_1_1log_1_1_log_source.xhtml#a5640099e20af4cd368c767dbcef3a1df" target="_top" xlink:title="Logs a message (get one via MSG(level)).">
<polygon fill="white" stroke="black" points="268,-44.5 268,-63.5 411,-63.5 411,-44.5 268,-44.5"/>
<text text-anchor="middle" x="339.5" y="-51.5" font-family="Helvetica,sans-Serif" font-size="10.00">openage::log::LogSource::log</text>
</a>
</g>
</g>
<!-- Node7&#45;&gt;Node9 -->
<g id="edge4" class="edge"><title>Node7&#45;&gt;Node9</title>
<path fill="none" stroke="midnightblue" d="M232.396,-69.4588C242.081,-68.0479 252.574,-66.5191 263.065,-64.9905"/>
<polygon fill="midnightblue" stroke="midnightblue" points="263.706,-68.4342 273.097,-63.5289 262.697,-61.5073 263.706,-68.4342"/>
</g>
<!-- Node10 -->
<g id="node6" class="node"><title>Node10</title>
<g id="a_node6"><a xlink:href="namespaceopenage_1_1log.xhtml#a3d2885be9c3a09b9ff7ee8764b2e5f39" target="_top" xlink:title="Returns a reference to the global stdout logsink object; Initializes the object if needed.">
<polygon fill="white" stroke="black" points="469,-88 469,-118 573,-118 573,-88 469,-88"/>
<text text-anchor="start" x="477" y="-106" font-family="Helvetica,sans-Serif" font-size="10.00">openage::log::global</text>
<text text-anchor="middle" x="521" y="-95" font-family="Helvetica,sans-Serif" font-size="10.00">_stdoutsink</text>
</a>
</g>
</g>
<!-- Node9&#45;&gt;Node10 -->
<g id="edge5" class="edge"><title>Node9&#45;&gt;Node10</title>
<path fill="none" stroke="midnightblue" d="M375.536,-63.564C399.265,-70.0416 431.246,-78.7718 459.085,-86.3714"/>
<polygon fill="midnightblue" stroke="midnightblue" points="458.17,-89.7497 468.739,-89.0067 460.014,-82.9968 458.17,-89.7497"/>
</g>
<!-- Node11 -->
<g id="node7" class="node"><title>Node11</title>
<g id="a_node7"><a xlink:href="classopenage_1_1log_1_1_log_sink_list.xhtml#a2d47416fab12651553b4b58c86fd6f84" target="_top" xlink:title=" ">
<polygon fill="white" stroke="black" points="456.5,-39 456.5,-69 585.5,-69 585.5,-39 456.5,-39"/>
<text text-anchor="start" x="464.5" y="-57" font-family="Helvetica,sans-Serif" font-size="10.00">openage::log::LogSinkList</text>
<text text-anchor="middle" x="521" y="-46" font-family="Helvetica,sans-Serif" font-size="10.00">::instance</text>
</a>
</g>
</g>
<!-- Node9&#45;&gt;Node11 -->
<g id="edge6" class="edge"><title>Node9&#45;&gt;Node11</title>
<path fill="none" stroke="midnightblue" d="M411.185,-54C422.719,-54 434.693,-54 446.297,-54"/>
<polygon fill="midnightblue" stroke="midnightblue" points="446.38,-57.5001 456.379,-54 446.379,-50.5001 446.38,-57.5001"/>
</g>
<!-- Node12 -->
<g id="node8" class="node"><title>Node12</title>
<g id="a_node8"><a xlink:href="classopenage_1_1log_1_1_log_sink_list.xhtml#a8456b84ab55e1fe151c51438c5bfebdd" target="_top" xlink:title=" ">
<polygon fill="white" stroke="black" points="447,-0.5 447,-19.5 595,-19.5 595,-0.5 447,-0.5"/>
<text text-anchor="middle" x="521" y="-7.5" font-family="Helvetica,sans-Serif" font-size="10.00">openage::log::LogSinkList::log</text>
</a>
</g>
</g>
<!-- Node9&#45;&gt;Node12 -->
<g id="edge7" class="edge"><title>Node9&#45;&gt;Node12</title>
<path fill="none" stroke="midnightblue" d="M379.449,-44.4527C406.382,-37.8508 442.415,-29.0181 471.253,-21.949"/>
<polygon fill="midnightblue" stroke="midnightblue" points="472.248,-25.3089 481.127,-19.5287 470.581,-18.5102 472.248,-25.3089"/>
</g>
</g>
</svg>
