<?xml version="1.0" encoding="UTF-8" standalone="no"?>
<!DOCTYPE svg PUBLIC "-//W3C//DTD SVG 1.1//EN"
 "http://www.w3.org/Graphics/SVG/1.1/DTD/svg11.dtd">
<!-- Generated by graphviz version 2.38.0 (20140413.2041)
 -->
<!-- Title: openage::RadialObject::get_range Pages: 1 -->
<svg width="435pt" height="127pt"
 viewBox="0.00 0.00 435.00 126.50" xmlns="http://www.w3.org/2000/svg" xmlns:xlink="http://www.w3.org/1999/xlink">
<g id="graph0" class="graph" transform="scale(1 1) rotate(0) translate(4 122.5)">
<title>openage::RadialObject::get_range</title>
<polygon fill="white" stroke="none" points="-4,4 -4,-122.5 431,-122.5 431,4 -4,4"/>
<!-- Node18 -->
<g id="node1" class="node"><title>Node18</title>
<g id="a_node1"><a xlink:title=" ">
<polygon fill="#bfbfbf" stroke="black" points="0,-49.5 0,-79.5 115,-79.5 115,-49.5 0,-49.5"/>
<text text-anchor="start" x="8" y="-67.5" font-family="Helvetica,sans-Serif" font-size="10.00">openage::RadialObject</text>
<text text-anchor="middle" x="57.5" y="-56.5" font-family="Helvetica,sans-Serif" font-size="10.00">::get_range</text>
</a>
</g>
</g>
<!-- Node19 -->
<g id="node2" class="node"><title>Node19</title>
<g id="a_node2"><a xlink:href="namespaceopenage_1_1testing_1_1testing.xhtml#ac25bf81db406af62d08113ef7ae9fd6e" target="_top" xlink:title=" ">
<polygon fill="white" stroke="black" points="151,-99 151,-118 296,-118 296,-99 151,-99"/>
<text text-anchor="middle" x="223.5" y="-106" font-family="Helvetica,sans-Serif" font-size="10.00">openage.testing.testing.result</text>
</a>
</g>
</g>
<!-- Node18&#45;&gt;Node19 -->
<g id="edge1" class="edge"><title>Node18&#45;&gt;Node19</title>
<path fill="none" stroke="midnightblue" d="M114.252,-79.609C126.364,-82.8801 139.11,-86.3133 151,-89.5 159.293,-91.7225 168.13,-94.0797 176.661,-96.3498"/>
<polygon fill="midnightblue" stroke="midnightblue" points="175.921,-99.7747 186.485,-98.9614 177.72,-93.0096 175.921,-99.7747"/>
</g>
<!-- Node21 -->
<g id="node4" class="node"><title>Node21</title>
<g id="a_node4"><a xlink:href="structopenage_1_1coord_1_1tile3.xhtml#af828e2ee284deb35ce13d30b57b14ad0" target="_top" xlink:title=" ">
<polygon fill="white" stroke="black" points="170,-49.5 170,-79.5 277,-79.5 277,-49.5 170,-49.5"/>
<text text-anchor="start" x="178" y="-67.5" font-family="Helvetica,sans-Serif" font-size="10.00">openage::coord::tile3</text>
<text text-anchor="middle" x="223.5" y="-56.5" font-family="Helvetica,sans-Serif" font-size="10.00">::to_tile</text>
</a>
</g>
</g>
<!-- Node18&#45;&gt;Node21 -->
<g id="edge4" class="edge"><title>Node18&#45;&gt;Node21</title>
<path fill="none" stroke="midnightblue" d="M115.399,-64.5C129.618,-64.5 144.951,-64.5 159.449,-64.5"/>
<polygon fill="midnightblue" stroke="midnightblue" points="159.829,-68.0001 169.829,-64.5 159.829,-61.0001 159.829,-68.0001"/>
</g>
<!-- Node22 -->
<g id="node5" class="node"><title>Node22</title>
<g id="a_node5"><a xlink:href="structopenage_1_1coord_1_1phys3.xhtml#a8ed61fb85a083922af8fbbabd087ae31" target="_top" xlink:title=" ">
<polygon fill="white" stroke="black" points="165.5,-0.5 165.5,-30.5 281.5,-30.5 281.5,-0.5 165.5,-0.5"/>
<text text-anchor="start" x="173.5" y="-18.5" font-family="Helvetica,sans-Serif" font-size="10.00">openage::coord::phys3</text>
<text text-anchor="middle" x="223.5" y="-7.5" font-family="Helvetica,sans-Serif" font-size="10.00">::to_tile3</text>
</a>
</g>
</g>
<!-- Node18&#45;&gt;Node22 -->
<g id="edge5" class="edge"><title>Node18&#45;&gt;Node22</title>
<path fill="none" stroke="midnightblue" d="M109.044,-49.3986C125.958,-44.3449 144.977,-38.6624 162.539,-33.4152"/>
<polygon fill="midnightblue" stroke="midnightblue" points="163.544,-36.7679 172.123,-30.5516 161.54,-30.0609 163.544,-36.7679"/>
</g>
<!-- Node20 -->
<g id="node3" class="node"><title>Node20</title>
<g id="a_node3"><a xlink:href="namespaceopenage_1_1util.xhtml#a7bc4421a5f0f57f3a0aba3f96eb8d19c" target="_top" xlink:title=" ">
<polygon fill="white" stroke="black" points="332,-99 332,-118 427,-118 427,-99 332,-99"/>
<text text-anchor="middle" x="379.5" y="-106" font-family="Helvetica,sans-Serif" font-size="10.00">openage::util::repr</text>
</a>
</g>
</g>
<!-- Node19&#45;&gt;Node20 -->
<g id="edge2" class="edge"><title>Node19&#45;&gt;Node20</title>
<path fill="none" stroke="midnightblue" d="M296.09,-101.765C304.595,-101.718 313.189,-101.782 321.453,-101.956"/>
<polygon fill="midnightblue" stroke="midnightblue" points="321.622,-105.461 331.713,-102.235 321.812,-98.464 321.622,-105.461"/>
</g>
<!-- Node20&#45;&gt;Node19 -->
<g id="edge3" class="edge"><title>Node20&#45;&gt;Node19</title>
<path fill="none" stroke="midnightblue" d="M331.713,-114.765C323.626,-115.038 315.01,-115.196 306.312,-115.238"/>
<polygon fill="midnightblue" stroke="midnightblue" points="306.091,-111.738 296.09,-115.235 306.089,-118.738 306.091,-111.738"/>
</g>
</g>
</svg>
