<?xml version="1.0" encoding="UTF-8" standalone="no"?>
<!DOCTYPE svg PUBLIC "-//W3C//DTD SVG 1.1//EN"
 "http://www.w3.org/Graphics/SVG/1.1/DTD/svg11.dtd">
<!-- Generated by graphviz version 2.38.0 (20140413.2041)
 -->
<!-- Title: C:/Users/Jameson/Documents/git&#45;projects/openage/libopenage/util/constinit_vector.h Pages: 1 -->
<svg width="290pt" height="162pt"
 viewBox="0.00 0.00 290.00 162.45" xmlns="http://www.w3.org/2000/svg" xmlns:xlink="http://www.w3.org/1999/xlink">
<g id="graph0" class="graph" transform="scale(1 1) rotate(0) translate(4 158.452)">
<title>C:/Users/Jameson/Documents/git&#45;projects/openage/libopenage/util/constinit_vector.h</title>
<polygon fill="white" stroke="none" points="-4,4 -4,-158.452 286,-158.452 286,4 -4,4"/>
<!-- Node0 -->
<g id="node1" class="node"><title>Node0</title>
<g id="a_node1"><a xlink:title=" ">
<polygon fill="#bfbfbf" stroke="black" points="21.5,-112.952 21.5,-153.952 178.5,-153.952 178.5,-112.952 21.5,-112.952"/>
<text text-anchor="start" x="29.5" y="-141.952" font-family="Helvetica,sans-Serif" font-size="10.00">C:/Users/Jameson/Documents</text>
<text text-anchor="start" x="29.5" y="-130.952" font-family="Helvetica,sans-Serif" font-size="10.00">/git&#45;projects/openage/libopenage</text>
<text text-anchor="middle" x="100" y="-119.952" font-family="Helvetica,sans-Serif" font-size="10.00">/util/constinit_vector.h</text>
</a>
</g>
</g>
<!-- Node1 -->
<g id="node2" class="node"><title>Node1</title>
<g id="a_node2"><a xlink:title=" ">
<polygon fill="white" stroke="#bfbfbf" points="0,-56.9516 0,-75.9516 56,-75.9516 56,-56.9516 0,-56.9516"/>
<text text-anchor="middle" x="28" y="-63.9516" font-family="Helvetica,sans-Serif" font-size="10.00">algorithm</text>
</a>
</g>
</g>
<!-- Node0&#45;&gt;Node1 -->
<g id="edge1" class="edge"><title>Node0&#45;&gt;Node1</title>
<path fill="none" stroke="midnightblue" d="M78.3976,-112.949C67.7832,-103.367 55.1696,-91.9797 45.2167,-82.9944"/>
<polygon fill="midnightblue" stroke="midnightblue" points="47.3524,-80.2072 37.5843,-76.1041 42.6616,-85.4031 47.3524,-80.2072"/>
</g>
<!-- Node2 -->
<g id="node3" class="node"><title>Node2</title>
<g id="a_node3"><a xlink:title=" ">
<polygon fill="white" stroke="#bfbfbf" points="74,-56.9516 74,-75.9516 126,-75.9516 126,-56.9516 74,-56.9516"/>
<text text-anchor="middle" x="100" y="-63.9516" font-family="Helvetica,sans-Serif" font-size="10.00">memory</text>
</a>
</g>
</g>
<!-- Node0&#45;&gt;Node2 -->
<g id="edge2" class="edge"><title>Node0&#45;&gt;Node2</title>
<path fill="none" stroke="midnightblue" d="M100,-112.949C100,-104.517 100,-94.6867 100,-86.3256"/>
<polygon fill="midnightblue" stroke="midnightblue" points="103.5,-86.1041 100,-76.1041 96.5001,-86.1042 103.5,-86.1041"/>
</g>
<!-- Node3 -->
<g id="node4" class="node"><title>Node3</title>
<g id="a_node4"><a xlink:href="compiler_8h.xhtml" target="_top" xlink:title=" ">
<polygon fill="white" stroke="black" points="144,-56.9516 144,-75.9516 206,-75.9516 206,-56.9516 144,-56.9516"/>
<text text-anchor="middle" x="175" y="-63.9516" font-family="Helvetica,sans-Serif" font-size="10.00">compiler.h</text>
</a>
</g>
</g>
<!-- Node0&#45;&gt;Node3 -->
<g id="edge3" class="edge"><title>Node0&#45;&gt;Node3</title>
<path fill="none" stroke="midnightblue" d="M122.502,-112.949C133.67,-103.271 146.961,-91.7518 157.376,-82.7256"/>
<polygon fill="midnightblue" stroke="midnightblue" points="159.752,-85.2984 165.016,-76.1041 155.167,-80.0085 159.752,-85.2984"/>
</g>
<!-- Node4 -->
<g id="node5" class="node"><title>Node4</title>
<g id="a_node5"><a xlink:title=" ">
<polygon fill="white" stroke="#bfbfbf" points="86,-0.951632 86,-19.9516 136,-19.9516 136,-0.951632 86,-0.951632"/>
<text text-anchor="middle" x="111" y="-7.95163" font-family="Helvetica,sans-Serif" font-size="10.00">ciso646</text>
</a>
</g>
</g>
<!-- Node3&#45;&gt;Node4 -->
<g id="edge4" class="edge"><title>Node3&#45;&gt;Node4</title>
<path fill="none" stroke="midnightblue" d="M164.717,-56.7756C155.164,-48.7148 140.72,-36.5281 129.216,-26.8211"/>
<polygon fill="midnightblue" stroke="midnightblue" points="131.37,-24.0592 121.47,-20.2855 126.856,-29.4093 131.37,-24.0592"/>
</g>
<!-- Node5 -->
<g id="node6" class="node"><title>Node5</title>
<g id="a_node6"><a xlink:title=" ">
<polygon fill="white" stroke="#bfbfbf" points="154.5,-0.951632 154.5,-19.9516 195.5,-19.9516 195.5,-0.951632 154.5,-0.951632"/>
<text text-anchor="middle" x="175" y="-7.95163" font-family="Helvetica,sans-Serif" font-size="10.00">string</text>
</a>
</g>
</g>
<!-- Node3&#45;&gt;Node5 -->
<g id="edge5" class="edge"><title>Node3&#45;&gt;Node5</title>
<path fill="none" stroke="midnightblue" d="M175,-56.5346C175,-49.4575 175,-39.3127 175,-30.4381"/>
<polygon fill="midnightblue" stroke="midnightblue" points="178.5,-30.2027 175,-20.2027 171.5,-30.2027 178.5,-30.2027"/>
</g>
<!-- Node6 -->
<g id="node7" class="node"><title>Node6</title>
<g id="a_node7"><a xlink:href="signal_8h.xhtml" target="_top" xlink:title=" ">
<polygon fill="white" stroke="black" points="214,-0.951632 214,-19.9516 264,-19.9516 264,-0.951632 214,-0.951632"/>
<text text-anchor="middle" x="239" y="-7.95163" font-family="Helvetica,sans-Serif" font-size="10.00">signal.h</text>
</a>
</g>
</g>
<!-- Node3&#45;&gt;Node6 -->
<g id="edge6" class="edge"><title>Node3&#45;&gt;Node6</title>
<path fill="none" stroke="midnightblue" d="M185.283,-56.7756C194.836,-48.7148 209.28,-36.5281 220.784,-26.8211"/>
<polygon fill="midnightblue" stroke="midnightblue" points="223.144,-29.4093 228.53,-20.2855 218.63,-24.0592 223.144,-29.4093"/>
</g>
<!-- Node6&#45;&gt;Node6 -->
<g id="edge7" class="edge"><title>Node6&#45;&gt;Node6</title>
<path fill="none" stroke="midnightblue" d="M257.563,-20.0262C269.946,-22.7213 282,-19.5298 282,-10.4516 282,-3.92673 275.773,-0.442852 267.673,-0"/>
<polygon fill="midnightblue" stroke="midnightblue" points="267.223,3.47427 257.563,-0.877047 267.829,-3.49953 267.223,3.47427"/>
</g>
</g>
</svg>
