<?xml version="1.0" encoding="UTF-8" standalone="no"?>
<!DOCTYPE svg PUBLIC "-//W3C//DTD SVG 1.1//EN"
 "http://www.w3.org/Graphics/SVG/1.1/DTD/svg11.dtd">
<!-- Generated by graphviz version 2.38.0 (20140413.2041)
 -->
<!-- Title: libopenage/gui/guisys/private/platforms/context_extraction_cocoa.mm Pages: 1 -->
<svg width="542pt" height="173pt"
 viewBox="0.00 0.00 542.00 173.00" xmlns="http://www.w3.org/2000/svg" xmlns:xlink="http://www.w3.org/1999/xlink">
<g id="graph0" class="graph" transform="scale(1 1) rotate(0) translate(4 169)">
<title>libopenage/gui/guisys/private/platforms/context_extraction_cocoa.mm</title>
<polygon fill="white" stroke="none" points="-4,4 -4,-169 538,-169 538,4 -4,4"/>
<!-- Node0 -->
<g id="node1" class="node"><title>Node0</title>
<g id="a_node1"><a xlink:title=" ">
<polygon fill="#bfbfbf" stroke="black" points="200.5,-123.5 200.5,-164.5 325.5,-164.5 325.5,-123.5 200.5,-123.5"/>
<text text-anchor="start" x="208.5" y="-152.5" font-family="Helvetica,sans-Serif" font-size="10.00">libopenage/gui/guisys</text>
<text text-anchor="start" x="208.5" y="-141.5" font-family="Helvetica,sans-Serif" font-size="10.00">/private/platforms/context</text>
<text text-anchor="middle" x="263" y="-130.5" font-family="Helvetica,sans-Serif" font-size="10.00">_extraction_cocoa.mm</text>
</a>
</g>
</g>
<!-- Node1 -->
<g id="node2" class="node"><title>Node1</title>
<g id="a_node2"><a xlink:title=" ">
<polygon fill="white" stroke="#bfbfbf" points="4.5,-62 4.5,-81 53.5,-81 53.5,-62 4.5,-62"/>
<text text-anchor="middle" x="29" y="-69" font-family="Helvetica,sans-Serif" font-size="10.00">cassert</text>
</a>
</g>
</g>
<!-- Node0&#45;&gt;Node1 -->
<g id="edge1" class="edge"><title>Node0&#45;&gt;Node1</title>
<path fill="none" stroke="midnightblue" d="M200.189,-127.655C160.458,-117.399 108.242,-102.905 63,-87 61.1384,-86.3455 59.2335,-85.6391 57.3225,-84.9026"/>
<polygon fill="midnightblue" stroke="midnightblue" points="58.4715,-81.5917 47.8895,-81.0712 55.8373,-88.0771 58.4715,-81.5917"/>
</g>
<!-- Node2 -->
<g id="node3" class="node"><title>Node2</title>
<g id="a_node3"><a xlink:href="context__extraction_8h.xhtml" target="_top" xlink:title=" ">
<polygon fill="white" stroke="black" points="71.5,-62 71.5,-81 176.5,-81 176.5,-62 71.5,-62"/>
<text text-anchor="middle" x="124" y="-69" font-family="Helvetica,sans-Serif" font-size="10.00">context_extraction.h</text>
</a>
</g>
</g>
<!-- Node0&#45;&gt;Node2 -->
<g id="edge2" class="edge"><title>Node0&#45;&gt;Node2</title>
<path fill="none" stroke="midnightblue" d="M224.281,-123.362C200.596,-111.349 170.934,-96.3048 150.034,-85.7043"/>
<polygon fill="midnightblue" stroke="midnightblue" points="151.602,-82.5754 141.101,-81.1734 148.436,-88.8183 151.602,-82.5754"/>
</g>
<!-- Node7 -->
<g id="node8" class="node"><title>Node7</title>
<g id="a_node8"><a xlink:title=" ">
<polygon fill="white" stroke="#bfbfbf" points="194.5,-56.5 194.5,-86.5 331.5,-86.5 331.5,-56.5 194.5,-56.5"/>
<text text-anchor="start" x="202.5" y="-74.5" font-family="Helvetica,sans-Serif" font-size="10.00">QtPlatformHeaders/QCocoa</text>
<text text-anchor="middle" x="263" y="-63.5" font-family="Helvetica,sans-Serif" font-size="10.00">NativeContext</text>
</a>
</g>
</g>
<!-- Node0&#45;&gt;Node7 -->
<g id="edge7" class="edge"><title>Node0&#45;&gt;Node7</title>
<path fill="none" stroke="midnightblue" d="M263,-123.362C263,-115.226 263,-105.7 263,-97.105"/>
<polygon fill="midnightblue" stroke="midnightblue" points="266.5,-96.8916 263,-86.8916 259.5,-96.8916 266.5,-96.8916"/>
</g>
<!-- Node8 -->
<g id="node9" class="node"><title>Node8</title>
<g id="a_node9"><a xlink:title=" ">
<polygon fill="white" stroke="#bfbfbf" points="350,-62 350,-81 430,-81 430,-62 350,-62"/>
<text text-anchor="middle" x="390" y="-69" font-family="Helvetica,sans-Serif" font-size="10.00">SDL_syswm.h</text>
</a>
</g>
</g>
<!-- Node0&#45;&gt;Node8 -->
<g id="edge8" class="edge"><title>Node0&#45;&gt;Node8</title>
<path fill="none" stroke="midnightblue" d="M298.377,-123.362C319.724,-111.511 346.386,-96.7109 365.435,-86.1365"/>
<polygon fill="midnightblue" stroke="midnightblue" points="367.331,-89.0871 374.376,-81.1734 363.934,-82.9668 367.331,-89.0871"/>
</g>
<!-- Node9 -->
<g id="node10" class="node"><title>Node9</title>
<g id="a_node10"><a xlink:title=" ">
<polygon fill="white" stroke="#bfbfbf" points="448,-62 448,-81 534,-81 534,-62 448,-62"/>
<text text-anchor="middle" x="491" y="-69" font-family="Helvetica,sans-Serif" font-size="10.00">AppKit/AppKit.h</text>
</a>
</g>
</g>
<!-- Node0&#45;&gt;Node9 -->
<g id="edge9" class="edge"><title>Node0&#45;&gt;Node9</title>
<path fill="none" stroke="midnightblue" d="M325.604,-123.642C366.639,-110.954 418.911,-94.7907 453.59,-84.0676"/>
<polygon fill="midnightblue" stroke="midnightblue" points="454.798,-87.3576 463.318,-81.0596 452.73,-80.67 454.798,-87.3576"/>
</g>
<!-- Node3 -->
<g id="node4" class="node"><title>Node3</title>
<g id="a_node4"><a xlink:title=" ">
<polygon fill="white" stroke="#bfbfbf" points="0,-0.5 0,-19.5 38,-19.5 38,-0.5 0,-0.5"/>
<text text-anchor="middle" x="19" y="-7.5" font-family="Helvetica,sans-Serif" font-size="10.00">tuple</text>
</a>
</g>
</g>
<!-- Node2&#45;&gt;Node3 -->
<g id="edge3" class="edge"><title>Node2&#45;&gt;Node3</title>
<path fill="none" stroke="midnightblue" d="M108.956,-61.9751C91.7245,-52.2106 63.2601,-36.0807 42.9661,-24.5808"/>
<polygon fill="midnightblue" stroke="midnightblue" points="44.4418,-21.3942 34.016,-19.5091 40.9907,-27.4843 44.4418,-21.3942"/>
</g>
<!-- Node4 -->
<g id="node5" class="node"><title>Node4</title>
<g id="a_node5"><a xlink:title=" ">
<polygon fill="white" stroke="#bfbfbf" points="56,-0.5 56,-19.5 114,-19.5 114,-0.5 56,-0.5"/>
<text text-anchor="middle" x="85" y="-7.5" font-family="Helvetica,sans-Serif" font-size="10.00">functional</text>
</a>
</g>
</g>
<!-- Node2&#45;&gt;Node4 -->
<g id="edge4" class="edge"><title>Node2&#45;&gt;Node4</title>
<path fill="none" stroke="midnightblue" d="M118.412,-61.9751C112.62,-53.1384 103.411,-39.0886 96.1265,-27.975"/>
<polygon fill="midnightblue" stroke="midnightblue" points="98.9866,-25.9539 90.5774,-19.5091 93.1322,-29.7913 98.9866,-25.9539"/>
</g>
<!-- Node5 -->
<g id="node6" class="node"><title>Node5</title>
<g id="a_node6"><a xlink:title=" ">
<polygon fill="white" stroke="#bfbfbf" points="132.5,-0.5 132.5,-19.5 191.5,-19.5 191.5,-0.5 132.5,-0.5"/>
<text text-anchor="middle" x="162" y="-7.5" font-family="Helvetica,sans-Serif" font-size="10.00">QWindow</text>
</a>
</g>
</g>
<!-- Node2&#45;&gt;Node5 -->
<g id="edge5" class="edge"><title>Node2&#45;&gt;Node5</title>
<path fill="none" stroke="midnightblue" d="M129.444,-61.9751C135.088,-53.1384 144.061,-39.0886 151.159,-27.975"/>
<polygon fill="midnightblue" stroke="midnightblue" points="154.133,-29.8208 156.566,-19.5091 148.233,-26.0531 154.133,-29.8208"/>
</g>
<!-- Node6 -->
<g id="node7" class="node"><title>Node6</title>
<g id="a_node7"><a xlink:title=" ">
<polygon fill="white" stroke="#bfbfbf" points="209.5,-0.5 209.5,-19.5 264.5,-19.5 264.5,-0.5 209.5,-0.5"/>
<text text-anchor="middle" x="237" y="-7.5" font-family="Helvetica,sans-Serif" font-size="10.00">QVariant</text>
</a>
</g>
</g>
<!-- Node2&#45;&gt;Node6 -->
<g id="edge6" class="edge"><title>Node2&#45;&gt;Node6</title>
<path fill="none" stroke="midnightblue" d="M140.19,-61.9751C158.902,-52.1222 189.923,-35.7883 211.799,-24.2697"/>
<polygon fill="midnightblue" stroke="midnightblue" points="213.622,-27.2651 220.84,-19.5091 210.361,-21.0713 213.622,-27.2651"/>
</g>
</g>
</svg>
