<?xml version="1.0" encoding="UTF-8" standalone="no"?>
<!DOCTYPE svg PUBLIC "-//W3C//DTD SVG 1.1//EN"
 "http://www.w3.org/Graphics/SVG/1.1/DTD/svg11.dtd">
<!-- Generated by graphviz version 2.38.0 (20140413.2041)
 -->
<!-- Title: libopenage/renderer/opengl/context.h Pages: 1 -->
<svg width="470pt" height="240pt"
 viewBox="0.00 0.00 469.93 240.00" xmlns="http://www.w3.org/2000/svg" xmlns:xlink="http://www.w3.org/1999/xlink">
<g id="graph0" class="graph" transform="scale(1 1) rotate(0) translate(4 236)">
<title>libopenage/renderer/opengl/context.h</title>
<polygon fill="white" stroke="none" points="-4,4 -4,-236 465.934,-236 465.934,4 -4,4"/>
<!-- Node2 -->
<g id="node1" class="node"><title>Node2</title>
<g id="a_node1"><a xlink:title=" ">
<polygon fill="#bfbfbf" stroke="black" points="180.5,-201.5 180.5,-231.5 281.5,-231.5 281.5,-201.5 180.5,-201.5"/>
<text text-anchor="start" x="188.5" y="-219.5" font-family="Helvetica,sans-Serif" font-size="10.00">libopenage/renderer</text>
<text text-anchor="middle" x="231" y="-208.5" font-family="Helvetica,sans-Serif" font-size="10.00">/opengl/context.h</text>
</a>
</g>
</g>
<!-- Node3 -->
<g id="node2" class="node"><title>Node3</title>
<g id="a_node2"><a xlink:href="context_8cpp.xhtml" target="_top" xlink:title=" ">
<polygon fill="white" stroke="black" points="0,-134.5 0,-164.5 102,-164.5 102,-134.5 0,-134.5"/>
<text text-anchor="start" x="8" y="-152.5" font-family="Helvetica,sans-Serif" font-size="10.00">libopenage/renderer</text>
<text text-anchor="middle" x="51" y="-141.5" font-family="Helvetica,sans-Serif" font-size="10.00">/opengl/context.cpp</text>
</a>
</g>
</g>
<!-- Node2&#45;&gt;Node3 -->
<g id="edge1" class="edge"><title>Node2&#45;&gt;Node3</title>
<path fill="none" stroke="midnightblue" d="M182.415,-197.955C153.419,-187.485 117.089,-174.366 89.9811,-164.577"/>
<polygon fill="midnightblue" stroke="midnightblue" points="181.348,-201.291 191.943,-201.396 183.726,-194.708 181.348,-201.291"/>
</g>
<!-- Node4 -->
<g id="node3" class="node"><title>Node4</title>
<g id="a_node3"><a xlink:href="opengl_2renderer_8h.xhtml" target="_top" xlink:title=" ">
<polygon fill="white" stroke="black" points="227.5,-67.5 227.5,-97.5 328.5,-97.5 328.5,-67.5 227.5,-67.5"/>
<text text-anchor="start" x="235.5" y="-85.5" font-family="Helvetica,sans-Serif" font-size="10.00">libopenage/renderer</text>
<text text-anchor="middle" x="278" y="-74.5" font-family="Helvetica,sans-Serif" font-size="10.00">/opengl/renderer.h</text>
</a>
</g>
</g>
<!-- Node2&#45;&gt;Node4 -->
<g id="edge2" class="edge"><title>Node2&#45;&gt;Node4</title>
<path fill="none" stroke="midnightblue" d="M245.468,-192.586C250.309,-184.159 255.387,-174.38 259,-165 267.773,-142.223 273.214,-114.242 275.918,-97.6959"/>
<polygon fill="midnightblue" stroke="midnightblue" points="242.309,-191.05 240.193,-201.432 248.321,-194.635 242.309,-191.05"/>
</g>
<!-- Node7 -->
<g id="node6" class="node"><title>Node7</title>
<g id="a_node6"><a xlink:href="opengl_2shader__program_8h.xhtml" target="_top" xlink:title=" ">
<polygon fill="white" stroke="black" points="120.5,-134.5 120.5,-164.5 249.5,-164.5 249.5,-134.5 120.5,-134.5"/>
<text text-anchor="start" x="128.5" y="-152.5" font-family="Helvetica,sans-Serif" font-size="10.00">libopenage/renderer</text>
<text text-anchor="middle" x="185" y="-141.5" font-family="Helvetica,sans-Serif" font-size="10.00">/opengl/shader_program.h</text>
</a>
</g>
</g>
<!-- Node2&#45;&gt;Node7 -->
<g id="edge5" class="edge"><title>Node2&#45;&gt;Node7</title>
<path fill="none" stroke="midnightblue" d="M215.188,-193.157C208.48,-183.679 200.865,-172.919 194.962,-164.577"/>
<polygon fill="midnightblue" stroke="midnightblue" points="212.385,-195.255 221.019,-201.396 218.099,-191.211 212.385,-195.255"/>
</g>
<!-- Node9 -->
<g id="node8" class="node"><title>Node9</title>
<g id="a_node8"><a xlink:href="opengl_2window_8h.xhtml" target="_top" xlink:title=" ">
<polygon fill="white" stroke="black" points="346.5,-134.5 346.5,-164.5 447.5,-164.5 447.5,-134.5 346.5,-134.5"/>
<text text-anchor="start" x="354.5" y="-152.5" font-family="Helvetica,sans-Serif" font-size="10.00">libopenage/renderer</text>
<text text-anchor="middle" x="397" y="-141.5" font-family="Helvetica,sans-Serif" font-size="10.00">/opengl/window.h</text>
</a>
</g>
</g>
<!-- Node2&#45;&gt;Node9 -->
<g id="edge9" class="edge"><title>Node2&#45;&gt;Node9</title>
<path fill="none" stroke="midnightblue" d="M276.506,-197.682C303.129,-187.257 336.268,-174.281 361.051,-164.577"/>
<polygon fill="midnightblue" stroke="midnightblue" points="275.055,-194.491 267.02,-201.396 277.607,-201.009 275.055,-194.491"/>
</g>
<!-- Node5 -->
<g id="node4" class="node"><title>Node5</title>
<g id="a_node4"><a xlink:href="opengl_2renderer_8cpp.xhtml" target="_top" xlink:title=" ">
<polygon fill="white" stroke="black" points="135.5,-0.5 135.5,-30.5 240.5,-30.5 240.5,-0.5 135.5,-0.5"/>
<text text-anchor="start" x="143.5" y="-18.5" font-family="Helvetica,sans-Serif" font-size="10.00">libopenage/renderer</text>
<text text-anchor="middle" x="188" y="-7.5" font-family="Helvetica,sans-Serif" font-size="10.00">/opengl/renderer.cpp</text>
</a>
</g>
</g>
<!-- Node4&#45;&gt;Node5 -->
<g id="edge3" class="edge"><title>Node4&#45;&gt;Node5</title>
<path fill="none" stroke="midnightblue" d="M250.24,-61.4511C236.395,-51.4517 219.984,-39.5995 207.491,-30.5765"/>
<polygon fill="midnightblue" stroke="midnightblue" points="248.315,-64.3784 258.471,-67.396 252.414,-58.7036 248.315,-64.3784"/>
</g>
<!-- Node6 -->
<g id="node5" class="node"><title>Node6</title>
<g id="a_node5"><a xlink:href="opengl_2window_8cpp.xhtml" target="_top" xlink:title=" ">
<polygon fill="white" stroke="black" points="316.5,-0.5 316.5,-30.5 417.5,-30.5 417.5,-0.5 316.5,-0.5"/>
<text text-anchor="start" x="324.5" y="-18.5" font-family="Helvetica,sans-Serif" font-size="10.00">libopenage/renderer</text>
<text text-anchor="middle" x="367" y="-7.5" font-family="Helvetica,sans-Serif" font-size="10.00">/opengl/window.cpp</text>
</a>
</g>
</g>
<!-- Node4&#45;&gt;Node6 -->
<g id="edge4" class="edge"><title>Node4&#45;&gt;Node6</title>
<path fill="none" stroke="midnightblue" d="M305.452,-61.4511C319.143,-51.4517 335.371,-39.5995 347.726,-30.5765"/>
<polygon fill="midnightblue" stroke="midnightblue" points="303.323,-58.6716 297.312,-67.396 307.452,-64.3245 303.323,-58.6716"/>
</g>
<!-- Node7&#45;&gt;Node4 -->
<g id="edge6" class="edge"><title>Node7&#45;&gt;Node4</title>
<path fill="none" stroke="midnightblue" d="M213.685,-128.451C227.992,-118.452 244.95,-106.6 257.86,-97.5765"/>
<polygon fill="midnightblue" stroke="midnightblue" points="211.371,-125.798 205.18,-134.396 215.381,-131.536 211.371,-125.798"/>
</g>
<!-- Node7&#45;&gt;Node5 -->
<g id="edge7" class="edge"><title>Node7&#45;&gt;Node5</title>
<path fill="none" stroke="midnightblue" d="M116.444,-131.168C77.4313,-117.732 39.9804,-96.4197 60,-67 76.8668,-42.2135 107.958,-29.5928 135.274,-23.1665"/>
<polygon fill="midnightblue" stroke="midnightblue" points="115.769,-134.629 126.362,-134.414 117.946,-127.977 115.769,-134.629"/>
</g>
<!-- Node8 -->
<g id="node7" class="node"><title>Node8</title>
<g id="a_node7"><a xlink:href="shader__program_8cpp.xhtml" target="_top" xlink:title=" ">
<polygon fill="white" stroke="black" points="69,-67.5 69,-97.5 209,-97.5 209,-67.5 69,-67.5"/>
<text text-anchor="start" x="77" y="-85.5" font-family="Helvetica,sans-Serif" font-size="10.00">libopenage/renderer</text>
<text text-anchor="middle" x="139" y="-74.5" font-family="Helvetica,sans-Serif" font-size="10.00">/opengl/shader_program.cpp</text>
</a>
</g>
</g>
<!-- Node7&#45;&gt;Node8 -->
<g id="edge8" class="edge"><title>Node7&#45;&gt;Node8</title>
<path fill="none" stroke="midnightblue" d="M169.188,-126.157C162.48,-116.679 154.865,-105.919 148.962,-97.5765"/>
<polygon fill="midnightblue" stroke="midnightblue" points="166.385,-128.255 175.019,-134.396 172.099,-124.211 166.385,-128.255"/>
</g>
<!-- Node9&#45;&gt;Node6 -->
<g id="edge10" class="edge"><title>Node9&#45;&gt;Node6</title>
<path fill="none" stroke="midnightblue" d="M430.72,-128.515C441.127,-120.465 451.334,-110.175 457,-98 462.813,-85.5087 463.962,-78.8894 457,-67 447.132,-50.1474 429.351,-38.4908 412.185,-30.6605"/>
<polygon fill="midnightblue" stroke="midnightblue" points="428.492,-125.806 422.413,-134.484 432.577,-131.49 428.492,-125.806"/>
</g>
<!-- Node10 -->
<g id="node9" class="node"><title>Node10</title>
<g id="a_node9"><a xlink:href="renderer_2tests_8cpp.xhtml" target="_top" xlink:title=" ">
<polygon fill="white" stroke="black" points="346.5,-67.5 346.5,-97.5 447.5,-97.5 447.5,-67.5 346.5,-67.5"/>
<text text-anchor="start" x="354.5" y="-85.5" font-family="Helvetica,sans-Serif" font-size="10.00">libopenage/renderer</text>
<text text-anchor="middle" x="397" y="-74.5" font-family="Helvetica,sans-Serif" font-size="10.00">/tests.cpp</text>
</a>
</g>
</g>
<!-- Node9&#45;&gt;Node10 -->
<g id="edge11" class="edge"><title>Node9&#45;&gt;Node10</title>
<path fill="none" stroke="midnightblue" d="M397,-124.108C397,-115.154 397,-105.323 397,-97.5765"/>
<polygon fill="midnightblue" stroke="midnightblue" points="393.5,-124.396 397,-134.396 400.5,-124.396 393.5,-124.396"/>
</g>
</g>
</svg>
