<?xml version="1.0" encoding="UTF-8" standalone="no"?>
<!DOCTYPE svg PUBLIC "-//W3C//DTD SVG 1.1//EN"
 "http://www.w3.org/Graphics/SVG/1.1/DTD/svg11.dtd">
<!-- Generated by graphviz version 2.38.0 (20140413.2041)
 -->
<!-- Title: libopenage/gui/guisys/private/platforms/context_extraction.h Pages: 1 -->
<svg width="568pt" height="128pt"
 viewBox="0.00 0.00 567.50 128.00" xmlns="http://www.w3.org/2000/svg" xmlns:xlink="http://www.w3.org/1999/xlink">
<g id="graph0" class="graph" transform="scale(1 1) rotate(0) translate(4 124)">
<title>libopenage/gui/guisys/private/platforms/context_extraction.h</title>
<polygon fill="white" stroke="none" points="-4,4 -4,-124 563.5,-124 563.5,4 -4,4"/>
<!-- Node5 -->
<g id="node1" class="node"><title>Node5</title>
<g id="a_node1"><a xlink:title=" ">
<polygon fill="#bfbfbf" stroke="black" points="219.5,-78.5 219.5,-119.5 344.5,-119.5 344.5,-78.5 219.5,-78.5"/>
<text text-anchor="start" x="227.5" y="-107.5" font-family="Helvetica,sans-Serif" font-size="10.00">libopenage/gui/guisys</text>
<text text-anchor="start" x="227.5" y="-96.5" font-family="Helvetica,sans-Serif" font-size="10.00">/private/platforms/context</text>
<text text-anchor="middle" x="282" y="-85.5" font-family="Helvetica,sans-Serif" font-size="10.00">_extraction.h</text>
</a>
</g>
</g>
<!-- Node6 -->
<g id="node2" class="node"><title>Node6</title>
<g id="a_node2"><a xlink:href="gui__ctx__setup_8cpp.xhtml" target="_top" xlink:title=" ">
<polygon fill="white" stroke="black" points="0,-6 0,-36 130,-36 130,-6 0,-6"/>
<text text-anchor="start" x="8" y="-24" font-family="Helvetica,sans-Serif" font-size="10.00">libopenage/gui/guisys</text>
<text text-anchor="middle" x="65" y="-13" font-family="Helvetica,sans-Serif" font-size="10.00">/private/gui_ctx_setup.cpp</text>
</a>
</g>
</g>
<!-- Node5&#45;&gt;Node6 -->
<g id="edge1" class="edge"><title>Node5&#45;&gt;Node6</title>
<path fill="none" stroke="midnightblue" d="M216.603,-75.0959C180.374,-62.4074 136.489,-47.0376 105.278,-36.1065"/>
<polygon fill="midnightblue" stroke="midnightblue" points="215.522,-78.4259 226.117,-78.4281 217.836,-71.8193 215.522,-78.4259"/>
</g>
<!-- Node7 -->
<g id="node3" class="node"><title>Node7</title>
<g id="a_node3"><a xlink:href="context__extraction__cocoa_8mm.xhtml" target="_top" xlink:title=" ">
<polygon fill="white" stroke="black" points="148.5,-0.5 148.5,-41.5 273.5,-41.5 273.5,-0.5 148.5,-0.5"/>
<text text-anchor="start" x="156.5" y="-29.5" font-family="Helvetica,sans-Serif" font-size="10.00">libopenage/gui/guisys</text>
<text text-anchor="start" x="156.5" y="-18.5" font-family="Helvetica,sans-Serif" font-size="10.00">/private/platforms/context</text>
<text text-anchor="middle" x="211" y="-7.5" font-family="Helvetica,sans-Serif" font-size="10.00">_extraction_cocoa.mm</text>
</a>
</g>
</g>
<!-- Node5&#45;&gt;Node7 -->
<g id="edge2" class="edge"><title>Node5&#45;&gt;Node7</title>
<path fill="none" stroke="midnightblue" d="M256.698,-70.9158C247.624,-61.2029 237.578,-50.4502 229.222,-41.5056"/>
<polygon fill="midnightblue" stroke="midnightblue" points="254.332,-73.5101 263.716,-78.4281 259.447,-68.7314 254.332,-73.5101"/>
</g>
<!-- Node8 -->
<g id="node4" class="node"><title>Node8</title>
<g id="a_node4"><a xlink:href="context__extraction__win32_8cpp.xhtml" target="_top" xlink:title=" ">
<polygon fill="white" stroke="black" points="291.5,-0.5 291.5,-41.5 416.5,-41.5 416.5,-0.5 291.5,-0.5"/>
<text text-anchor="start" x="299.5" y="-29.5" font-family="Helvetica,sans-Serif" font-size="10.00">libopenage/gui/guisys</text>
<text text-anchor="start" x="299.5" y="-18.5" font-family="Helvetica,sans-Serif" font-size="10.00">/private/platforms/context</text>
<text text-anchor="middle" x="354" y="-7.5" font-family="Helvetica,sans-Serif" font-size="10.00">_extraction_win32.cpp</text>
</a>
</g>
</g>
<!-- Node5&#45;&gt;Node8 -->
<g id="edge3" class="edge"><title>Node5&#45;&gt;Node8</title>
<path fill="none" stroke="midnightblue" d="M307.659,-70.9158C316.86,-61.2029 327.047,-50.4502 335.521,-41.5056"/>
<polygon fill="midnightblue" stroke="midnightblue" points="304.878,-68.7614 300.542,-78.4281 309.96,-73.5757 304.878,-68.7614"/>
</g>
<!-- Node9 -->
<g id="node5" class="node"><title>Node9</title>
<g id="a_node5"><a xlink:href="context__extraction__x11_8cpp.xhtml" target="_top" xlink:title=" ">
<polygon fill="white" stroke="black" points="434.5,-0.5 434.5,-41.5 559.5,-41.5 559.5,-0.5 434.5,-0.5"/>
<text text-anchor="start" x="442.5" y="-29.5" font-family="Helvetica,sans-Serif" font-size="10.00">libopenage/gui/guisys</text>
<text text-anchor="start" x="442.5" y="-18.5" font-family="Helvetica,sans-Serif" font-size="10.00">/private/platforms/context</text>
<text text-anchor="middle" x="497" y="-7.5" font-family="Helvetica,sans-Serif" font-size="10.00">_extraction_x11.cpp</text>
</a>
</g>
</g>
<!-- Node5&#45;&gt;Node9 -->
<g id="edge4" class="edge"><title>Node5&#45;&gt;Node9</title>
<path fill="none" stroke="midnightblue" d="M346.991,-75.0264C377.258,-64.3275 412.883,-51.7343 441.82,-41.5056"/>
<polygon fill="midnightblue" stroke="midnightblue" points="345.63,-71.7954 337.368,-78.4281 347.963,-78.3952 345.63,-71.7954"/>
</g>
</g>
</svg>
