<?xml version="1.0" encoding="UTF-8" standalone="no"?>
<!DOCTYPE svg PUBLIC "-//W3C//DTD SVG 1.1//EN"
 "http://www.w3.org/Graphics/SVG/1.1/DTD/svg11.dtd">
<!-- Generated by graphviz version 2.38.0 (20140413.2041)
 -->
<!-- Title: C:/Users/Jameson/Documents/git&#45;projects/openage/libopenage/cvar/cvar.cpp Pages: 1 -->
<svg width="1311pt" height="778pt"
 viewBox="0.00 0.00 1310.81 778.45" xmlns="http://www.w3.org/2000/svg" xmlns:xlink="http://www.w3.org/1999/xlink">
<g id="graph0" class="graph" transform="scale(1 1) rotate(0) translate(4 774.452)">
<title>C:/Users/Jameson/Documents/git&#45;projects/openage/libopenage/cvar/cvar.cpp</title>
<polygon fill="white" stroke="none" points="-4,4 -4,-774.452 1306.81,-774.452 1306.81,4 -4,4"/>
<!-- Node0 -->
<g id="node1" class="node"><title>Node0</title>
<g id="a_node1"><a xlink:title=" ">
<polygon fill="#bfbfbf" stroke="black" points="466.5,-728.952 466.5,-769.952 623.5,-769.952 623.5,-728.952 466.5,-728.952"/>
<text text-anchor="start" x="474.5" y="-757.952" font-family="Helvetica,sans-Serif" font-size="10.00">C:/Users/Jameson/Documents</text>
<text text-anchor="start" x="474.5" y="-746.952" font-family="Helvetica,sans-Serif" font-size="10.00">/git&#45;projects/openage/libopenage</text>
<text text-anchor="middle" x="545" y="-735.952" font-family="Helvetica,sans-Serif" font-size="10.00">/cvar/cvar.cpp</text>
</a>
</g>
</g>
<!-- Node1 -->
<g id="node2" class="node"><title>Node1</title>
<g id="a_node2"><a xlink:href="cvar_8h.xhtml" target="_top" xlink:title=" ">
<polygon fill="white" stroke="black" points="1031,-672.952 1031,-691.952 1073,-691.952 1073,-672.952 1031,-672.952"/>
<text text-anchor="middle" x="1052" y="-679.952" font-family="Helvetica,sans-Serif" font-size="10.00">cvar.h</text>
</a>
</g>
</g>
<!-- Node0&#45;&gt;Node1 -->
<g id="edge1" class="edge"><title>Node0&#45;&gt;Node1</title>
<path fill="none" stroke="midnightblue" d="M623.662,-738.367C737.358,-723.79 942.539,-697.485 1020.65,-687.471"/>
<polygon fill="midnightblue" stroke="midnightblue" points="1021.33,-690.912 1030.81,-686.169 1020.44,-683.969 1021.33,-690.912"/>
</g>
<!-- Node44 -->
<g id="node45" class="node"><title>Node44</title>
<g id="a_node45"><a xlink:href="log_8h.xhtml" target="_top" xlink:title=" ">
<polygon fill="white" stroke="black" points="385,-336.952 385,-355.952 447,-355.952 447,-336.952 385,-336.952"/>
<text text-anchor="middle" x="416" y="-343.952" font-family="Helvetica,sans-Serif" font-size="10.00">../log/log.h</text>
</a>
</g>
</g>
<!-- Node0&#45;&gt;Node44 -->
<g id="edge76" class="edge"><title>Node0&#45;&gt;Node44</title>
<path fill="none" stroke="midnightblue" d="M466.338,-745.861C323.931,-739.015 38,-714.438 38,-627.452 38,-627.452 38,-627.452 38,-457.452 38,-387.963 276.485,-359.464 374.598,-350.679"/>
<polygon fill="midnightblue" stroke="midnightblue" points="375.086,-354.15 384.745,-349.796 374.479,-347.176 375.086,-354.15"/>
</g>
<!-- Node2 -->
<g id="node3" class="node"><title>Node2</title>
<g id="a_node3"><a xlink:title=" ">
<polygon fill="white" stroke="#bfbfbf" points="104,-112.952 104,-131.952 162,-131.952 162,-112.952 104,-112.952"/>
<text text-anchor="middle" x="133" y="-119.952" font-family="Helvetica,sans-Serif" font-size="10.00">functional</text>
</a>
</g>
</g>
<!-- Node1&#45;&gt;Node2 -->
<g id="edge2" class="edge"><title>Node1&#45;&gt;Node2</title>
<path fill="none" stroke="midnightblue" d="M1030.71,-681.359C887.977,-680.463 76,-670.991 76,-571.452 76,-571.452 76,-571.452 76,-457.452 76,-328.914 4.15594,-281.677 65,-168.452 72.6225,-154.267 86.8966,-143.803 100.406,-136.554"/>
<polygon fill="midnightblue" stroke="midnightblue" points="102.128,-139.608 109.546,-132.043 99.0296,-133.331 102.128,-139.608"/>
</g>
<!-- Node3 -->
<g id="node4" class="node"><title>Node3</title>
<g id="a_node4"><a xlink:title=" ">
<polygon fill="white" stroke="#bfbfbf" points="1066,-616.952 1066,-635.952 1114,-635.952 1114,-616.952 1066,-616.952"/>
<text text-anchor="middle" x="1090" y="-623.952" font-family="Helvetica,sans-Serif" font-size="10.00">stdlib.h</text>
</a>
</g>
</g>
<!-- Node1&#45;&gt;Node3 -->
<g id="edge3" class="edge"><title>Node1&#45;&gt;Node3</title>
<path fill="none" stroke="midnightblue" d="M1058.27,-672.535C1063.64,-664.907 1071.52,-653.716 1078.08,-644.392"/>
<polygon fill="midnightblue" stroke="midnightblue" points="1080.95,-646.395 1083.84,-636.203 1075.22,-642.367 1080.95,-646.395"/>
</g>
<!-- Node4 -->
<g id="node5" class="node"><title>Node4</title>
<g id="a_node5"><a xlink:title=" ">
<polygon fill="white" stroke="#bfbfbf" points="970.5,-0.951632 970.5,-19.9516 1011.5,-19.9516 1011.5,-0.951632 970.5,-0.951632"/>
<text text-anchor="middle" x="991" y="-7.95163" font-family="Helvetica,sans-Serif" font-size="10.00">string</text>
</a>
</g>
</g>
<!-- Node1&#45;&gt;Node4 -->
<g id="edge4" class="edge"><title>Node1&#45;&gt;Node4</title>
<path fill="none" stroke="midnightblue" d="M1073.29,-680.085C1124.43,-676.377 1252.28,-664.466 1283,-636.452 1305.24,-616.17 1302,-601.549 1302,-571.452 1302,-571.452 1302,-571.452 1302,-121.452 1302,-82.7339 1277.81,-75.3235 1244,-56.4516 1171.78,-16.1364 1071.47,-10.6129 1021.64,-10.6326"/>
<polygon fill="midnightblue" stroke="midnightblue" points="1021.48,-7.13368 1011.51,-10.715 1021.54,-14.1334 1021.48,-7.13368"/>
</g>
<!-- Node5 -->
<g id="node6" class="node"><title>Node5</title>
<g id="a_node6"><a xlink:title=" ">
<polygon fill="white" stroke="#bfbfbf" points="1132.5,-616.952 1132.5,-635.952 1215.5,-635.952 1215.5,-616.952 1132.5,-616.952"/>
<text text-anchor="middle" x="1174" y="-623.952" font-family="Helvetica,sans-Serif" font-size="10.00">unordered_map</text>
</a>
</g>
</g>
<!-- Node1&#45;&gt;Node5 -->
<g id="edge5" class="edge"><title>Node1&#45;&gt;Node5</title>
<path fill="none" stroke="midnightblue" d="M1071.33,-672.895C1091.32,-664.048 1122.74,-650.139 1145.56,-640.038"/>
<polygon fill="midnightblue" stroke="midnightblue" points="1147.03,-643.216 1154.76,-635.968 1144.2,-636.815 1147.03,-643.216"/>
</g>
<!-- Node6 -->
<g id="node7" class="node"><title>Node6</title>
<g id="a_node7"><a xlink:title=" ">
<polygon fill="white" stroke="#bfbfbf" points="1234,-616.952 1234,-635.952 1274,-635.952 1274,-616.952 1234,-616.952"/>
<text text-anchor="middle" x="1254" y="-623.952" font-family="Helvetica,sans-Serif" font-size="10.00">utility</text>
</a>
</g>
</g>
<!-- Node1&#45;&gt;Node6 -->
<g id="edge6" class="edge"><title>Node1&#45;&gt;Node6</title>
<path fill="none" stroke="midnightblue" d="M1073.25,-676.151C1105.8,-667.974 1169.91,-651.634 1224,-636.452 1224.1,-636.424 1224.2,-636.396 1224.29,-636.369"/>
<polygon fill="midnightblue" stroke="midnightblue" points="1225.06,-639.791 1233.7,-633.65 1223.12,-633.066 1225.06,-639.791"/>
</g>
<!-- Node7 -->
<g id="node8" class="node"><title>Node7</title>
<g id="a_node8"><a xlink:href="functional_8h.xhtml" target="_top" xlink:title=" ">
<polygon fill="white" stroke="black" points="631.5,-448.952 631.5,-467.952 756.5,-467.952 756.5,-448.952 631.5,-448.952"/>
<text text-anchor="middle" x="694" y="-455.952" font-family="Helvetica,sans-Serif" font-size="10.00">../pyinterface/functional.h</text>
</a>
</g>
</g>
<!-- Node1&#45;&gt;Node7 -->
<g id="edge7" class="edge"><title>Node1&#45;&gt;Node7</title>
<path fill="none" stroke="midnightblue" d="M1036,-672.942C1019.55,-664.098 993.243,-649.72 971,-636.452 874.02,-578.603 761.474,-504.438 715.361,-473.738"/>
<polygon fill="midnightblue" stroke="midnightblue" points="717.065,-470.668 706.803,-468.032 713.181,-476.492 717.065,-470.668"/>
</g>
<!-- Node38 -->
<g id="node39" class="node"><title>Node38</title>
<g id="a_node39"><a xlink:href="util_2path_8h.xhtml" target="_top" xlink:title=" ">
<polygon fill="white" stroke="black" points="980,-616.952 980,-635.952 1048,-635.952 1048,-616.952 980,-616.952"/>
<text text-anchor="middle" x="1014" y="-623.952" font-family="Helvetica,sans-Serif" font-size="10.00">../util/path.h</text>
</a>
</g>
</g>
<!-- Node1&#45;&gt;Node38 -->
<g id="edge57" class="edge"><title>Node1&#45;&gt;Node38</title>
<path fill="none" stroke="midnightblue" d="M1045.73,-672.535C1040.36,-664.907 1032.48,-653.716 1025.92,-644.392"/>
<polygon fill="midnightblue" stroke="midnightblue" points="1028.78,-642.367 1020.16,-636.203 1023.05,-646.395 1028.78,-642.367"/>
</g>
<!-- Node7&#45;&gt;Node2 -->
<g id="edge8" class="edge"><title>Node7&#45;&gt;Node2</title>
<path fill="none" stroke="midnightblue" d="M631.296,-457.774C488.625,-456.821 152,-444.307 152,-347.452 152,-347.452 152,-347.452 152,-233.452 152,-200.94 143.841,-163.802 138.216,-142.062"/>
<polygon fill="midnightblue" stroke="midnightblue" points="141.541,-140.95 135.562,-132.203 134.782,-142.769 141.541,-140.95"/>
</g>
<!-- Node8 -->
<g id="node9" class="node"><title>Node8</title>
<g id="a_node9"><a xlink:title=" ">
<polygon fill="white" stroke="#bfbfbf" points="722,-168.952 722,-187.952 766,-187.952 766,-168.952 722,-168.952"/>
<text text-anchor="middle" x="744" y="-175.952" font-family="Helvetica,sans-Serif" font-size="10.00">mutex</text>
</a>
</g>
</g>
<!-- Node7&#45;&gt;Node8 -->
<g id="edge9" class="edge"><title>Node7&#45;&gt;Node8</title>
<path fill="none" stroke="midnightblue" d="M697.714,-448.645C701.353,-439.687 706.805,-425.328 710,-412.452 729.447,-334.09 739.125,-237.956 742.532,-198.114"/>
<polygon fill="midnightblue" stroke="midnightblue" points="746.029,-198.285 743.361,-188.032 739.053,-197.712 746.029,-198.285"/>
</g>
<!-- Node9 -->
<g id="node10" class="node"><title>Node9</title>
<g id="a_node10"><a xlink:href="compiler_8h.xhtml" target="_top" xlink:title=" ">
<polygon fill="white" stroke="black" points="368,-56.9516 368,-75.9516 454,-75.9516 454,-56.9516 368,-56.9516"/>
<text text-anchor="middle" x="411" y="-63.9516" font-family="Helvetica,sans-Serif" font-size="10.00">../util/compiler.h</text>
</a>
</g>
</g>
<!-- Node7&#45;&gt;Node9 -->
<g id="edge10" class="edge"><title>Node7&#45;&gt;Node9</title>
<path fill="none" stroke="midnightblue" d="M631.284,-455.93C502.369,-452.252 211.768,-440.986 117,-412.452 60.0401,-395.301 0,-406.937 0,-347.452 0,-347.452 0,-347.452 0,-177.452 0,-130.246 40.4781,-130.733 84,-112.452 132.225,-92.1951 277.955,-77.9454 357.605,-71.4363"/>
<polygon fill="midnightblue" stroke="midnightblue" points="358.232,-74.8972 367.919,-70.6065 357.671,-67.9198 358.232,-74.8972"/>
</g>
<!-- Node12 -->
<g id="node13" class="node"><title>Node12</title>
<g id="a_node13"><a xlink:href="language_8h.xhtml" target="_top" xlink:title=" ">
<polygon fill="white" stroke="black" points="612.5,-392.952 612.5,-411.952 701.5,-411.952 701.5,-392.952 612.5,-392.952"/>
<text text-anchor="middle" x="657" y="-399.952" font-family="Helvetica,sans-Serif" font-size="10.00">../util/language.h</text>
</a>
</g>
</g>
<!-- Node7&#45;&gt;Node12 -->
<g id="edge15" class="edge"><title>Node7&#45;&gt;Node12</title>
<path fill="none" stroke="midnightblue" d="M687.89,-448.535C682.718,-440.986 675.154,-429.946 668.806,-420.681"/>
<polygon fill="midnightblue" stroke="midnightblue" points="671.536,-418.474 662.996,-412.203 665.761,-422.43 671.536,-418.474"/>
</g>
<!-- Node13 -->
<g id="node14" class="node"><title>Node13</title>
<g id="a_node14"><a xlink:href="exctranslate_8h.xhtml" target="_top" xlink:title=" ">
<polygon fill="white" stroke="black" points="758,-392.952 758,-411.952 836,-411.952 836,-392.952 758,-392.952"/>
<text text-anchor="middle" x="797" y="-399.952" font-family="Helvetica,sans-Serif" font-size="10.00">exctranslate.h</text>
</a>
</g>
</g>
<!-- Node7&#45;&gt;Node13 -->
<g id="edge16" class="edge"><title>Node7&#45;&gt;Node13</title>
<path fill="none" stroke="midnightblue" d="M710.549,-448.776C726.992,-440.155 752.435,-426.816 771.468,-416.837"/>
<polygon fill="midnightblue" stroke="midnightblue" points="773.261,-419.849 780.492,-412.106 770.011,-413.65 773.261,-419.849"/>
</g>
<!-- Node37 -->
<g id="node38" class="node"><title>Node37</title>
<g id="a_node38"><a xlink:href="setup_8h.xhtml" target="_top" xlink:title=" ">
<polygon fill="white" stroke="black" points="74.5,-168.952 74.5,-187.952 123.5,-187.952 123.5,-168.952 74.5,-168.952"/>
<text text-anchor="middle" x="99" y="-175.952" font-family="Helvetica,sans-Serif" font-size="10.00">setup.h</text>
</a>
</g>
</g>
<!-- Node7&#45;&gt;Node37 -->
<g id="edge54" class="edge"><title>Node7&#45;&gt;Node37</title>
<path fill="none" stroke="midnightblue" d="M631.362,-456.135C494.234,-452.72 176.579,-441.714 138,-412.452 113.464,-393.841 114,-378.247 114,-347.452 114,-347.452 114,-347.452 114,-289.452 114,-256.954 107.493,-219.547 103.051,-197.795"/>
<polygon fill="midnightblue" stroke="midnightblue" points="106.462,-197.01 100.961,-187.956 99.6148,-198.464 106.462,-197.01"/>
</g>
<!-- Node9&#45;&gt;Node4 -->
<g id="edge12" class="edge"><title>Node9&#45;&gt;Node4</title>
<path fill="none" stroke="midnightblue" d="M454.215,-58.2991C458.862,-57.6284 463.525,-56.9968 468,-56.4516 654.143,-33.7769 878.93,-18.481 959.987,-13.3508"/>
<polygon fill="midnightblue" stroke="midnightblue" points="960.258,-16.8408 970.019,-12.7215 959.819,-9.85449 960.258,-16.8408"/>
</g>
<!-- Node10 -->
<g id="node11" class="node"><title>Node10</title>
<g id="a_node11"><a xlink:title=" ">
<polygon fill="white" stroke="#bfbfbf" points="429,-0.951632 429,-19.9516 479,-19.9516 479,-0.951632 429,-0.951632"/>
<text text-anchor="middle" x="454" y="-7.95163" font-family="Helvetica,sans-Serif" font-size="10.00">ciso646</text>
</a>
</g>
</g>
<!-- Node9&#45;&gt;Node10 -->
<g id="edge11" class="edge"><title>Node9&#45;&gt;Node10</title>
<path fill="none" stroke="midnightblue" d="M418.101,-56.5346C424.237,-48.8284 433.27,-37.485 440.739,-28.1047"/>
<polygon fill="midnightblue" stroke="midnightblue" points="443.54,-30.2058 447.032,-20.2027 438.064,-25.8453 443.54,-30.2058"/>
</g>
<!-- Node11 -->
<g id="node12" class="node"><title>Node11</title>
<g id="a_node12"><a xlink:href="signal_8h.xhtml" target="_top" xlink:title=" ">
<polygon fill="white" stroke="black" points="343,-0.951632 343,-19.9516 393,-19.9516 393,-0.951632 343,-0.951632"/>
<text text-anchor="middle" x="368" y="-7.95163" font-family="Helvetica,sans-Serif" font-size="10.00">signal.h</text>
</a>
</g>
</g>
<!-- Node9&#45;&gt;Node11 -->
<g id="edge13" class="edge"><title>Node9&#45;&gt;Node11</title>
<path fill="none" stroke="midnightblue" d="M403.899,-56.5346C397.763,-48.8284 388.73,-37.485 381.261,-28.1047"/>
<polygon fill="midnightblue" stroke="midnightblue" points="383.936,-25.8453 374.968,-20.2027 378.46,-30.2058 383.936,-25.8453"/>
</g>
<!-- Node11&#45;&gt;Node11 -->
<g id="edge14" class="edge"><title>Node11&#45;&gt;Node11</title>
<path fill="none" stroke="midnightblue" d="M386.563,-20.0262C398.946,-22.7213 411,-19.5298 411,-10.4516 411,-3.92673 404.773,-0.442852 396.673,-0"/>
<polygon fill="midnightblue" stroke="midnightblue" points="396.223,3.47427 386.563,-0.877047 396.829,-3.49953 396.223,3.47427"/>
</g>
<!-- Node14 -->
<g id="node15" class="node"><title>Node14</title>
<g id="a_node15"><a xlink:href="error_2error_8h.xhtml" target="_top" xlink:title=" ">
<polygon fill="white" stroke="black" points="759,-336.952 759,-355.952 835,-355.952 835,-336.952 759,-336.952"/>
<text text-anchor="middle" x="797" y="-343.952" font-family="Helvetica,sans-Serif" font-size="10.00">../error/error.h</text>
</a>
</g>
</g>
<!-- Node13&#45;&gt;Node14 -->
<g id="edge17" class="edge"><title>Node13&#45;&gt;Node14</title>
<path fill="none" stroke="midnightblue" d="M797,-392.535C797,-385.458 797,-375.313 797,-366.438"/>
<polygon fill="midnightblue" stroke="midnightblue" points="800.5,-366.203 797,-356.203 793.5,-366.203 800.5,-366.203"/>
</g>
<!-- Node14&#45;&gt;Node4 -->
<g id="edge21" class="edge"><title>Node14&#45;&gt;Node4</title>
<path fill="none" stroke="midnightblue" d="M822.765,-336.866C841.564,-329.563 866.681,-317.522 884,-300.452 963.273,-222.317 975.289,-185.814 996,-76.4516 998.899,-61.142 997.234,-43.5003 995.076,-30.4624"/>
<polygon fill="midnightblue" stroke="midnightblue" points="998.462,-29.5337 993.154,-20.3645 991.585,-30.8425 998.462,-29.5337"/>
</g>
<!-- Node14&#45;&gt;Node9 -->
<g id="edge22" class="edge"><title>Node14&#45;&gt;Node9</title>
<path fill="none" stroke="midnightblue" d="M758.852,-340.928C673.541,-329.911 471.913,-298.55 435,-244.452 401.198,-194.913 487.931,-166.996 463,-112.452 457.223,-99.8118 445.948,-89.3626 435.369,-81.7253"/>
<polygon fill="midnightblue" stroke="midnightblue" points="437.042,-78.6333 426.783,-75.9849 433.151,-84.4525 437.042,-78.6333"/>
</g>
<!-- Node15 -->
<g id="node16" class="node"><title>Node15</title>
<g id="a_node16"><a xlink:title=" ">
<polygon fill="white" stroke="#bfbfbf" points="784,-56.9516 784,-75.9516 838,-75.9516 838,-56.9516 784,-56.9516"/>
<text text-anchor="middle" x="811" y="-63.9516" font-family="Helvetica,sans-Serif" font-size="10.00">iostream</text>
</a>
</g>
</g>
<!-- Node14&#45;&gt;Node15 -->
<g id="edge18" class="edge"><title>Node14&#45;&gt;Node15</title>
<path fill="none" stroke="midnightblue" d="M816.432,-336.93C831.475,-329.389 851.748,-317.009 864,-300.452 879.472,-279.543 877.181,-270.18 881,-244.452 882.305,-235.659 882.85,-233.146 881,-224.452 869.552,-170.663 838.315,-112.963 821.71,-84.8521"/>
<polygon fill="midnightblue" stroke="midnightblue" points="824.658,-82.9622 816.503,-76.198 818.66,-86.571 824.658,-82.9622"/>
</g>
<!-- Node16 -->
<g id="node17" class="node"><title>Node16</title>
<g id="a_node17"><a xlink:title=" ">
<polygon fill="white" stroke="#bfbfbf" points="754,-112.952 754,-131.952 806,-131.952 806,-112.952 754,-112.952"/>
<text text-anchor="middle" x="780" y="-119.952" font-family="Helvetica,sans-Serif" font-size="10.00">memory</text>
</a>
</g>
</g>
<!-- Node14&#45;&gt;Node16 -->
<g id="edge19" class="edge"><title>Node14&#45;&gt;Node16</title>
<path fill="none" stroke="midnightblue" d="M792.169,-336.686C785.58,-323.424 775.801,-297.955 787,-280.452 807.578,-248.291 844.422,-276.613 865,-244.452 869.791,-236.964 868.046,-232.802 865,-224.452 851.884,-188.498 819.711,-156.474 798.924,-138.551"/>
<polygon fill="midnightblue" stroke="midnightblue" points="800.976,-135.705 791.06,-131.973 796.485,-141.074 800.976,-135.705"/>
</g>
<!-- Node17 -->
<g id="node18" class="node"><title>Node17</title>
<g id="a_node18"><a xlink:title=" ">
<polygon fill="white" stroke="#bfbfbf" points="796.5,-280.952 796.5,-299.952 855.5,-299.952 855.5,-280.952 796.5,-280.952"/>
<text text-anchor="middle" x="826" y="-287.952" font-family="Helvetica,sans-Serif" font-size="10.00">stdexcept</text>
</a>
</g>
</g>
<!-- Node14&#45;&gt;Node17 -->
<g id="edge20" class="edge"><title>Node14&#45;&gt;Node17</title>
<path fill="none" stroke="midnightblue" d="M801.789,-336.535C805.758,-329.143 811.525,-318.405 816.435,-309.263"/>
<polygon fill="midnightblue" stroke="midnightblue" points="819.653,-310.669 821.3,-300.203 813.486,-307.357 819.653,-310.669"/>
</g>
<!-- Node18 -->
<g id="node19" class="node"><title>Node18</title>
<g id="a_node19"><a xlink:href="message_8h.xhtml" target="_top" xlink:title=" ">
<polygon fill="white" stroke="black" points="587.5,-280.952 587.5,-299.952 676.5,-299.952 676.5,-280.952 587.5,-280.952"/>
<text text-anchor="middle" x="632" y="-287.952" font-family="Helvetica,sans-Serif" font-size="10.00">../log/message.h</text>
</a>
</g>
</g>
<!-- Node14&#45;&gt;Node18 -->
<g id="edge23" class="edge"><title>Node14&#45;&gt;Node18</title>
<path fill="none" stroke="midnightblue" d="M770.855,-336.895C742.977,-327.771 698.652,-313.265 667.6,-303.103"/>
<polygon fill="midnightblue" stroke="midnightblue" points="668.615,-299.752 658.022,-299.968 666.438,-306.405 668.615,-299.752"/>
</g>
<!-- Node18&#45;&gt;Node4 -->
<g id="edge25" class="edge"><title>Node18&#45;&gt;Node4</title>
<path fill="none" stroke="midnightblue" d="M655.259,-280.854C721.749,-255.863 910.577,-181.883 953,-132.452 978.482,-102.759 986.898,-55.9855 989.662,-30.1516"/>
<polygon fill="midnightblue" stroke="midnightblue" points="993.148,-30.4539 990.554,-20.1816 986.176,-29.8296 993.148,-30.4539"/>
</g>
<!-- Node19 -->
<g id="node20" class="node"><title>Node19</title>
<g id="a_node20"><a xlink:title=" ">
<polygon fill="white" stroke="#bfbfbf" points="810,-224.952 810,-243.952 856,-243.952 856,-224.952 810,-224.952"/>
<text text-anchor="middle" x="833" y="-231.952" font-family="Helvetica,sans-Serif" font-size="10.00">cstdint</text>
</a>
</g>
</g>
<!-- Node18&#45;&gt;Node19 -->
<g id="edge24" class="edge"><title>Node18&#45;&gt;Node19</title>
<path fill="none" stroke="midnightblue" d="M663.849,-280.895C700.983,-270.919 762.071,-254.507 799.782,-244.376"/>
<polygon fill="midnightblue" stroke="midnightblue" points="801.01,-247.67 809.759,-241.695 799.194,-240.91 801.01,-247.67"/>
</g>
<!-- Node20 -->
<g id="node21" class="node"><title>Node20</title>
<g id="a_node21"><a xlink:title=" ">
<polygon fill="white" stroke="#bfbfbf" points="444,-224.952 444,-243.952 494,-243.952 494,-224.952 444,-224.952"/>
<text text-anchor="middle" x="469" y="-231.952" font-family="Helvetica,sans-Serif" font-size="10.00">config.h</text>
</a>
</g>
</g>
<!-- Node18&#45;&gt;Node20 -->
<g id="edge26" class="edge"><title>Node18&#45;&gt;Node20</title>
<path fill="none" stroke="midnightblue" d="M606.172,-280.895C578.589,-271.757 534.71,-257.221 504.028,-247.056"/>
<polygon fill="midnightblue" stroke="midnightblue" points="504.765,-243.613 494.171,-243.791 502.563,-250.258 504.765,-243.613"/>
</g>
<!-- Node21 -->
<g id="node22" class="node"><title>Node21</title>
<g id="a_node22"><a xlink:href="constexpr_8h.xhtml" target="_top" xlink:title=" ">
<polygon fill="white" stroke="black" points="512,-224.952 512,-243.952 604,-243.952 604,-224.952 512,-224.952"/>
<text text-anchor="middle" x="558" y="-231.952" font-family="Helvetica,sans-Serif" font-size="10.00">../util/constexpr.h</text>
</a>
</g>
</g>
<!-- Node18&#45;&gt;Node21 -->
<g id="edge27" class="edge"><title>Node18&#45;&gt;Node21</title>
<path fill="none" stroke="midnightblue" d="M620.111,-280.776C608.85,-272.558 591.713,-260.053 578.291,-250.258"/>
<polygon fill="midnightblue" stroke="midnightblue" points="580.247,-247.353 570.106,-244.286 576.12,-253.008 580.247,-247.353"/>
</g>
<!-- Node23 -->
<g id="node24" class="node"><title>Node23</title>
<g id="a_node24"><a xlink:href="stringformatter_8h.xhtml" target="_top" xlink:title=" ">
<polygon fill="white" stroke="black" points="238,-224.952 238,-243.952 350,-243.952 350,-224.952 238,-224.952"/>
<text text-anchor="middle" x="294" y="-231.952" font-family="Helvetica,sans-Serif" font-size="10.00">../util/stringformatter.h</text>
</a>
</g>
</g>
<!-- Node18&#45;&gt;Node23 -->
<g id="edge29" class="edge"><title>Node18&#45;&gt;Node23</title>
<path fill="none" stroke="midnightblue" d="M587.465,-282.337C528.554,-272.925 424.367,-256.279 357.295,-245.564"/>
<polygon fill="midnightblue" stroke="midnightblue" points="357.697,-242.084 347.27,-243.962 356.592,-248.996 357.697,-242.084"/>
</g>
<!-- Node32 -->
<g id="node33" class="node"><title>Node32</title>
<g id="a_node33"><a xlink:href="logsink_8h.xhtml" target="_top" xlink:title=" ">
<polygon fill="white" stroke="black" points="660,-224.952 660,-243.952 716,-243.952 716,-224.952 660,-224.952"/>
<text text-anchor="middle" x="688" y="-231.952" font-family="Helvetica,sans-Serif" font-size="10.00">logsink.h</text>
</a>
</g>
</g>
<!-- Node18&#45;&gt;Node32 -->
<g id="edge45" class="edge"><title>Node18&#45;&gt;Node32</title>
<path fill="none" stroke="midnightblue" d="M640.997,-280.776C649.194,-272.871 661.506,-261 671.472,-251.389"/>
<polygon fill="midnightblue" stroke="midnightblue" points="674.07,-253.746 678.839,-244.286 669.211,-248.707 674.07,-253.746"/>
</g>
<!-- Node34 -->
<g id="node35" class="node"><title>Node34</title>
<g id="a_node35"><a xlink:href="level_8h.xhtml" target="_top" xlink:title=" ">
<polygon fill="white" stroke="black" points="612,-168.952 612,-187.952 656,-187.952 656,-168.952 612,-168.952"/>
<text text-anchor="middle" x="634" y="-175.952" font-family="Helvetica,sans-Serif" font-size="10.00">level.h</text>
</a>
</g>
</g>
<!-- Node18&#45;&gt;Node34 -->
<g id="edge53" class="edge"><title>Node18&#45;&gt;Node34</title>
<path fill="none" stroke="midnightblue" d="M632.157,-280.82C632.48,-263.069 633.224,-222.118 633.662,-198.049"/>
<polygon fill="midnightblue" stroke="midnightblue" points="637.161,-198.105 633.844,-188.043 630.162,-197.978 637.161,-198.105"/>
</g>
<!-- Node22 -->
<g id="node23" class="node"><title>Node22</title>
<g id="a_node23"><a xlink:title=" ">
<polygon fill="white" stroke="#bfbfbf" points="548.5,-168.952 548.5,-187.952 593.5,-187.952 593.5,-168.952 548.5,-168.952"/>
<text text-anchor="middle" x="571" y="-175.952" font-family="Helvetica,sans-Serif" font-size="10.00">cstdlib</text>
</a>
</g>
</g>
<!-- Node21&#45;&gt;Node22 -->
<g id="edge28" class="edge"><title>Node21&#45;&gt;Node22</title>
<path fill="none" stroke="midnightblue" d="M560.147,-224.535C561.869,-217.379 564.347,-207.087 566.5,-198.143"/>
<polygon fill="midnightblue" stroke="midnightblue" points="569.955,-198.744 568.893,-188.203 563.15,-197.106 569.955,-198.744"/>
</g>
<!-- Node23&#45;&gt;Node9 -->
<g id="edge33" class="edge"><title>Node23&#45;&gt;Node9</title>
<path fill="none" stroke="midnightblue" d="M260.201,-224.84C241.607,-218.187 220.11,-206.905 209,-188.452 204.415,-180.836 205.916,-176.788 209,-168.452 230.935,-109.155 305.381,-84.4859 357.484,-74.3482"/>
<polygon fill="midnightblue" stroke="midnightblue" points="358.373,-77.7439 367.584,-72.5085 357.119,-70.8572 358.373,-77.7439"/>
</g>
<!-- Node23&#45;&gt;Node16 -->
<g id="edge31" class="edge"><title>Node23&#45;&gt;Node16</title>
<path fill="none" stroke="midnightblue" d="M325.534,-224.924C386.862,-208.363 518.048,-173.062 539,-168.452 626.256,-149.252 651.786,-151.496 743.692,-132.368"/>
<polygon fill="midnightblue" stroke="midnightblue" points="744.642,-135.745 753.704,-130.255 743.197,-128.895 744.642,-135.745"/>
</g>
<!-- Node24 -->
<g id="node25" class="node"><title>Node24</title>
<g id="a_node25"><a xlink:title=" ">
<polygon fill="white" stroke="#bfbfbf" points="218,-168.952 218,-187.952 264,-187.952 264,-168.952 218,-168.952"/>
<text text-anchor="middle" x="241" y="-175.952" font-family="Helvetica,sans-Serif" font-size="10.00">atomic</text>
</a>
</g>
</g>
<!-- Node23&#45;&gt;Node24 -->
<g id="edge30" class="edge"><title>Node23&#45;&gt;Node24</title>
<path fill="none" stroke="midnightblue" d="M285.248,-224.535C277.53,-216.671 266.095,-205.02 256.783,-195.533"/>
<polygon fill="midnightblue" stroke="midnightblue" points="259.092,-192.888 249.589,-188.203 254.096,-197.791 259.092,-192.888"/>
</g>
<!-- Node25 -->
<g id="node26" class="node"><title>Node25</title>
<g id="a_node26"><a xlink:title=" ">
<polygon fill="white" stroke="#bfbfbf" points="282,-168.952 282,-187.952 344,-187.952 344,-168.952 282,-168.952"/>
<text text-anchor="middle" x="313" y="-175.952" font-family="Helvetica,sans-Serif" font-size="10.00">type_traits</text>
</a>
</g>
</g>
<!-- Node23&#45;&gt;Node25 -->
<g id="edge32" class="edge"><title>Node23&#45;&gt;Node25</title>
<path fill="none" stroke="midnightblue" d="M297.137,-224.535C299.683,-217.3 303.356,-206.86 306.527,-197.848"/>
<polygon fill="midnightblue" stroke="midnightblue" points="309.903,-198.798 309.921,-188.203 303.3,-196.474 309.903,-198.798"/>
</g>
<!-- Node26 -->
<g id="node27" class="node"><title>Node26</title>
<g id="a_node27"><a xlink:href="externalsstream_8h.xhtml" target="_top" xlink:title=" ">
<polygon fill="white" stroke="black" points="640.5,-112.952 640.5,-131.952 735.5,-131.952 735.5,-112.952 640.5,-112.952"/>
<text text-anchor="middle" x="688" y="-119.952" font-family="Helvetica,sans-Serif" font-size="10.00">externalsstream.h</text>
</a>
</g>
</g>
<!-- Node23&#45;&gt;Node26 -->
<g id="edge34" class="edge"><title>Node23&#45;&gt;Node26</title>
<path fill="none" stroke="midnightblue" d="M321.655,-224.88C348.382,-216.38 389.871,-202.61 425,-188.452 444.549,-180.573 447.983,-175.053 468,-168.452 497.539,-158.71 575.728,-143.629 630.443,-133.65"/>
<polygon fill="midnightblue" stroke="midnightblue" points="631.155,-137.078 640.369,-131.848 629.905,-130.19 631.155,-137.078"/>
</g>
<!-- Node27 -->
<g id="node28" class="node"><title>Node27</title>
<g id="a_node28"><a xlink:href="strings_8h.xhtml" target="_top" xlink:title=" ">
<polygon fill="white" stroke="black" points="362,-168.952 362,-187.952 416,-187.952 416,-168.952 362,-168.952"/>
<text text-anchor="middle" x="389" y="-175.952" font-family="Helvetica,sans-Serif" font-size="10.00">strings.h</text>
</a>
</g>
</g>
<!-- Node23&#45;&gt;Node27 -->
<g id="edge37" class="edge"><title>Node23&#45;&gt;Node27</title>
<path fill="none" stroke="midnightblue" d="M309.263,-224.776C324.221,-216.273 347.255,-203.18 364.727,-193.249"/>
<polygon fill="midnightblue" stroke="midnightblue" points="366.81,-196.091 373.774,-188.106 363.351,-190.005 366.81,-196.091"/>
</g>
<!-- Node26&#45;&gt;Node4 -->
<g id="edge36" class="edge"><title>Node26&#45;&gt;Node4</title>
<path fill="none" stroke="midnightblue" d="M696.786,-112.762C711.59,-98.6465 743.03,-70.8642 775,-56.4516 837.132,-28.4421 917.235,-17.6296 960.317,-13.6397"/>
<polygon fill="midnightblue" stroke="midnightblue" points="960.777,-17.1131 970.439,-12.7659 960.175,-10.139 960.777,-17.1131"/>
</g>
<!-- Node26&#45;&gt;Node15 -->
<g id="edge35" class="edge"><title>Node26&#45;&gt;Node15</title>
<path fill="none" stroke="midnightblue" d="M707.49,-112.895C727.642,-104.048 759.323,-90.1391 782.331,-80.0381"/>
<polygon fill="midnightblue" stroke="midnightblue" points="783.852,-83.1928 791.601,-75.9681 781.038,-76.7833 783.852,-83.1928"/>
</g>
<!-- Node27&#45;&gt;Node2 -->
<g id="edge39" class="edge"><title>Node27&#45;&gt;Node2</title>
<path fill="none" stroke="midnightblue" d="M361.903,-170.544C358.904,-169.819 355.89,-169.108 353,-168.452 290.001,-154.141 216.377,-139.501 172.282,-130.955"/>
<polygon fill="midnightblue" stroke="midnightblue" points="172.75,-127.481 162.267,-129.02 171.422,-134.354 172.75,-127.481"/>
</g>
<!-- Node27&#45;&gt;Node4 -->
<g id="edge43" class="edge"><title>Node27&#45;&gt;Node4</title>
<path fill="none" stroke="midnightblue" d="M404.787,-168.865C420.108,-160.3 443.795,-146.436 463,-132.452 504.777,-102.033 503.546,-76.9152 551,-56.4516 624.949,-24.5626 873.1,-14.7202 960.348,-12.2047"/>
<polygon fill="midnightblue" stroke="midnightblue" points="960.501,-15.7019 970.401,-11.9271 960.308,-8.70456 960.501,-15.7019"/>
</g>
<!-- Node27&#45;&gt;Node16 -->
<g id="edge41" class="edge"><title>Node27&#45;&gt;Node16</title>
<path fill="none" stroke="midnightblue" d="M416.162,-174.198C488.605,-165.495 684.383,-141.804 743.538,-132.181"/>
<polygon fill="midnightblue" stroke="midnightblue" points="744.484,-135.568 753.733,-130.401 743.281,-128.673 744.484,-135.568"/>
</g>
<!-- Node28 -->
<g id="node29" class="node"><title>Node28</title>
<g id="a_node29"><a xlink:title=" ">
<polygon fill="white" stroke="#bfbfbf" points="266.5,-112.952 266.5,-131.952 315.5,-131.952 315.5,-112.952 266.5,-112.952"/>
<text text-anchor="middle" x="291" y="-119.952" font-family="Helvetica,sans-Serif" font-size="10.00">cstdarg</text>
</a>
</g>
</g>
<!-- Node27&#45;&gt;Node28 -->
<g id="edge38" class="edge"><title>Node27&#45;&gt;Node28</title>
<path fill="none" stroke="midnightblue" d="M373.255,-168.776C357.681,-160.194 333.623,-146.938 315.541,-136.974"/>
<polygon fill="midnightblue" stroke="midnightblue" points="317.154,-133.867 306.706,-132.106 313.776,-139.998 317.154,-133.867"/>
</g>
<!-- Node29 -->
<g id="node30" class="node"><title>Node29</title>
<g id="a_node30"><a xlink:title=" ">
<polygon fill="white" stroke="#bfbfbf" points="334,-112.952 334,-131.952 384,-131.952 384,-112.952 334,-112.952"/>
<text text-anchor="middle" x="359" y="-119.952" font-family="Helvetica,sans-Serif" font-size="10.00">iomanip</text>
</a>
</g>
</g>
<!-- Node27&#45;&gt;Node29 -->
<g id="edge40" class="edge"><title>Node27&#45;&gt;Node29</title>
<path fill="none" stroke="midnightblue" d="M384.046,-168.535C379.896,-161.064 373.847,-150.176 368.733,-140.971"/>
<polygon fill="midnightblue" stroke="midnightblue" points="371.778,-139.245 363.862,-132.203 365.659,-142.644 371.778,-139.245"/>
</g>
<!-- Node30 -->
<g id="node31" class="node"><title>Node30</title>
<g id="a_node31"><a xlink:title=" ">
<polygon fill="white" stroke="#bfbfbf" points="402,-112.952 402,-131.952 454,-131.952 454,-112.952 402,-112.952"/>
<text text-anchor="middle" x="428" y="-119.952" font-family="Helvetica,sans-Serif" font-size="10.00">sstream</text>
</a>
</g>
</g>
<!-- Node27&#45;&gt;Node30 -->
<g id="edge42" class="edge"><title>Node27&#45;&gt;Node30</title>
<path fill="none" stroke="midnightblue" d="M395.44,-168.535C400.949,-160.907 409.031,-149.716 415.765,-140.392"/>
<polygon fill="midnightblue" stroke="midnightblue" points="418.662,-142.359 421.68,-132.203 412.987,-138.26 418.662,-142.359"/>
</g>
<!-- Node31 -->
<g id="node32" class="node"><title>Node31</title>
<g id="a_node32"><a xlink:title=" ">
<polygon fill="white" stroke="#bfbfbf" points="1116,-112.952 1116,-131.952 1158,-131.952 1158,-112.952 1116,-112.952"/>
<text text-anchor="middle" x="1137" y="-119.952" font-family="Helvetica,sans-Serif" font-size="10.00">vector</text>
</a>
</g>
</g>
<!-- Node27&#45;&gt;Node31 -->
<g id="edge44" class="edge"><title>Node27&#45;&gt;Node31</title>
<path fill="none" stroke="midnightblue" d="M416.064,-175.498C531.49,-167.165 982.335,-134.617 1105.67,-125.714"/>
<polygon fill="midnightblue" stroke="midnightblue" points="1106.2,-129.185 1115.92,-124.974 1105.69,-122.203 1106.2,-129.185"/>
</g>
<!-- Node32&#45;&gt;Node8 -->
<g id="edge47" class="edge"><title>Node32&#45;&gt;Node8</title>
<path fill="none" stroke="midnightblue" d="M696.997,-224.776C705.194,-216.871 717.506,-205 727.472,-195.389"/>
<polygon fill="midnightblue" stroke="midnightblue" points="730.07,-197.746 734.839,-188.286 725.211,-192.707 730.07,-197.746"/>
</g>
<!-- Node33 -->
<g id="node34" class="node"><title>Node33</title>
<g id="a_node34"><a xlink:title=" ">
<polygon fill="white" stroke="#bfbfbf" points="674.5,-168.952 674.5,-187.952 703.5,-187.952 703.5,-168.952 674.5,-168.952"/>
<text text-anchor="middle" x="689" y="-175.952" font-family="Helvetica,sans-Serif" font-size="10.00">list</text>
</a>
</g>
</g>
<!-- Node32&#45;&gt;Node33 -->
<g id="edge46" class="edge"><title>Node32&#45;&gt;Node33</title>
<path fill="none" stroke="midnightblue" d="M688.165,-224.535C688.296,-217.458 688.484,-207.313 688.648,-198.438"/>
<polygon fill="midnightblue" stroke="midnightblue" points="692.152,-198.266 688.838,-188.203 685.153,-198.136 692.152,-198.266"/>
</g>
<!-- Node32&#45;&gt;Node34 -->
<g id="edge48" class="edge"><title>Node32&#45;&gt;Node34</title>
<path fill="none" stroke="midnightblue" d="M679.083,-224.535C671.22,-216.671 659.569,-205.02 650.081,-195.533"/>
<polygon fill="midnightblue" stroke="midnightblue" points="652.297,-192.799 642.751,-188.203 647.347,-197.749 652.297,-192.799"/>
</g>
<!-- Node35 -->
<g id="node36" class="node"><title>Node35</title>
<g id="a_node36"><a xlink:href="enum_8h.xhtml" target="_top" xlink:title=" ">
<polygon fill="white" stroke="black" points="548,-112.952 548,-131.952 622,-131.952 622,-112.952 548,-112.952"/>
<text text-anchor="middle" x="585" y="-119.952" font-family="Helvetica,sans-Serif" font-size="10.00">../util/enum.h</text>
</a>
</g>
</g>
<!-- Node34&#45;&gt;Node35 -->
<g id="edge49" class="edge"><title>Node34&#45;&gt;Node35</title>
<path fill="none" stroke="midnightblue" d="M625.909,-168.535C618.845,-160.75 608.412,-149.253 599.851,-139.818"/>
<polygon fill="midnightblue" stroke="midnightblue" points="602.253,-137.256 592.941,-132.203 597.069,-141.96 602.253,-137.256"/>
</g>
<!-- Node35&#45;&gt;Node9 -->
<g id="edge52" class="edge"><title>Node35&#45;&gt;Node9</title>
<path fill="none" stroke="midnightblue" d="M557.429,-112.895C527.903,-103.732 480.882,-89.1392 448.117,-78.9708"/>
<polygon fill="midnightblue" stroke="midnightblue" points="449.03,-75.5894 438.442,-75.9681 446.955,-82.2748 449.03,-75.5894"/>
</g>
<!-- Node35&#45;&gt;Node15 -->
<g id="edge50" class="edge"><title>Node35&#45;&gt;Node15</title>
<path fill="none" stroke="midnightblue" d="M620.81,-112.895C662.665,-102.895 731.582,-86.4277 773.958,-76.3023"/>
<polygon fill="midnightblue" stroke="midnightblue" points="774.956,-79.6625 783.869,-73.9343 773.329,-72.8541 774.956,-79.6625"/>
</g>
<!-- Node36 -->
<g id="node37" class="node"><title>Node36</title>
<g id="a_node37"><a xlink:title=" ">
<polygon fill="white" stroke="#bfbfbf" points="560,-56.9516 560,-75.9516 610,-75.9516 610,-56.9516 560,-56.9516"/>
<text text-anchor="middle" x="585" y="-63.9516" font-family="Helvetica,sans-Serif" font-size="10.00">typeinfo</text>
</a>
</g>
</g>
<!-- Node35&#45;&gt;Node36 -->
<g id="edge51" class="edge"><title>Node35&#45;&gt;Node36</title>
<path fill="none" stroke="midnightblue" d="M585,-112.535C585,-105.458 585,-95.3127 585,-86.4381"/>
<polygon fill="midnightblue" stroke="midnightblue" points="588.5,-86.2027 585,-76.2027 581.5,-86.2027 588.5,-86.2027"/>
</g>
<!-- Node37&#45;&gt;Node2 -->
<g id="edge55" class="edge"><title>Node37&#45;&gt;Node2</title>
<path fill="none" stroke="midnightblue" d="M104.614,-168.535C109.367,-160.986 116.318,-149.946 122.152,-140.681"/>
<polygon fill="midnightblue" stroke="midnightblue" points="125.124,-142.53 127.49,-132.203 119.2,-138.8 125.124,-142.53"/>
</g>
<!-- Node37&#45;&gt;Node9 -->
<g id="edge56" class="edge"><title>Node37&#45;&gt;Node9</title>
<path fill="none" stroke="midnightblue" d="M94.9934,-168.648C89.3974,-154.869 81.3662,-128.164 95,-112.452 128.391,-73.9689 276.855,-67.5525 357.849,-66.9913"/>
<polygon fill="midnightblue" stroke="midnightblue" points="357.872,-70.4913 367.857,-66.9494 357.842,-63.4914 357.872,-70.4913"/>
</g>
<!-- Node38&#45;&gt;Node4 -->
<g id="edge58" class="edge"><title>Node38&#45;&gt;Node4</title>
<path fill="none" stroke="midnightblue" d="M1048.24,-617.937C1116.71,-601.917 1264,-562.04 1264,-515.452 1264,-515.452 1264,-515.452 1264,-121.452 1264,-85.2737 1245.62,-75.7162 1215,-56.4516 1154.23,-18.2231 1067.43,-11.5564 1021.77,-10.9317"/>
<polygon fill="midnightblue" stroke="midnightblue" points="1021.64,-7.43111 1011.62,-10.8848 1021.6,-14.431 1021.64,-7.43111"/>
</g>
<!-- Node38&#45;&gt;Node31 -->
<g id="edge59" class="edge"><title>Node38&#45;&gt;Node31</title>
<path fill="none" stroke="midnightblue" d="M1048.2,-618.412C1071.78,-612.015 1102.45,-600.429 1123,-580.452 1149.64,-554.556 1188,-425.064 1188,-403.452 1188,-403.452 1188,-403.452 1188,-233.452 1188,-197.696 1165.55,-160.96 1150.44,-140.287"/>
<polygon fill="midnightblue" stroke="midnightblue" points="1153.14,-138.065 1144.31,-132.22 1147.57,-142.3 1153.14,-138.065"/>
</g>
<!-- Node39 -->
<g id="node40" class="node"><title>Node39</title>
<g id="a_node40"><a xlink:href="pyobject_8h.xhtml" target="_top" xlink:title=" ">
<polygon fill="white" stroke="black" points="890.5,-504.952 890.5,-523.952 1011.5,-523.952 1011.5,-504.952 890.5,-504.952"/>
<text text-anchor="middle" x="951" y="-511.952" font-family="Helvetica,sans-Serif" font-size="10.00">../pyinterface/pyobject.h</text>
</a>
</g>
</g>
<!-- Node38&#45;&gt;Node39 -->
<g id="edge60" class="edge"><title>Node38&#45;&gt;Node39</title>
<path fill="none" stroke="midnightblue" d="M1002.66,-616.63C992.693,-608.31 978.496,-594.976 970,-580.452 961.56,-566.022 956.634,-547.569 953.922,-534.014"/>
<polygon fill="midnightblue" stroke="midnightblue" points="957.334,-533.208 952.137,-523.975 950.442,-534.434 957.334,-533.208"/>
</g>
<!-- Node41 -->
<g id="node42" class="node"><title>Node41</title>
<g id="a_node42"><a xlink:href="file_8h.xhtml" target="_top" xlink:title=" ">
<polygon fill="white" stroke="black" points="1077.5,-560.952 1077.5,-579.952 1114.5,-579.952 1114.5,-560.952 1077.5,-560.952"/>
<text text-anchor="middle" x="1096" y="-567.952" font-family="Helvetica,sans-Serif" font-size="10.00">file.h</text>
</a>
</g>
</g>
<!-- Node38&#45;&gt;Node41 -->
<g id="edge66" class="edge"><title>Node38&#45;&gt;Node41</title>
<path fill="none" stroke="midnightblue" d="M1027.17,-616.776C1039.85,-608.431 1059.23,-595.664 1074.21,-585.804"/>
<polygon fill="midnightblue" stroke="midnightblue" points="1076.43,-588.529 1082.86,-580.106 1072.58,-582.683 1076.43,-588.529"/>
</g>
<!-- Node43 -->
<g id="node44" class="node"><title>Node43</title>
<g id="a_node44"><a xlink:href="fslike_2native_8h.xhtml" target="_top" xlink:title=" ">
<polygon fill="white" stroke="black" points="979.5,-560.952 979.5,-579.952 1054.5,-579.952 1054.5,-560.952 979.5,-560.952"/>
<text text-anchor="middle" x="1017" y="-567.952" font-family="Helvetica,sans-Serif" font-size="10.00">fslike/native.h</text>
</a>
</g>
</g>
<!-- Node38&#45;&gt;Node43 -->
<g id="edge75" class="edge"><title>Node38&#45;&gt;Node43</title>
<path fill="none" stroke="midnightblue" d="M1014.5,-616.535C1014.89,-609.458 1015.45,-599.313 1015.95,-590.438"/>
<polygon fill="midnightblue" stroke="midnightblue" points="1019.45,-590.381 1016.51,-580.203 1012.46,-589.993 1019.45,-590.381"/>
</g>
<!-- Node39&#45;&gt;Node4 -->
<g id="edge62" class="edge"><title>Node39&#45;&gt;Node4</title>
<path fill="none" stroke="midnightblue" d="M958.326,-504.499C984.805,-471.202 1074,-350.505 1074,-235.452 1074,-235.452 1074,-235.452 1074,-121.452 1074,-80.3627 1036.64,-44.8952 1012.05,-26.0007"/>
<polygon fill="midnightblue" stroke="midnightblue" points="1014.09,-23.1557 1003.97,-20.0266 1009.93,-28.7851 1014.09,-23.1557"/>
</g>
<!-- Node39&#45;&gt;Node7 -->
<g id="edge65" class="edge"><title>Node39&#45;&gt;Node7</title>
<path fill="none" stroke="midnightblue" d="M910.278,-504.895C865.351,-495.455 793.002,-480.254 744.501,-470.063"/>
<polygon fill="midnightblue" stroke="midnightblue" points="745.038,-466.599 734.532,-467.968 743.598,-473.45 745.038,-466.599"/>
</g>
<!-- Node39&#45;&gt;Node19 -->
<g id="edge61" class="edge"><title>Node39&#45;&gt;Node19</title>
<path fill="none" stroke="midnightblue" d="M938.598,-504.851C927.709,-496.679 912.21,-483.439 903,-468.452 887.242,-442.809 884,-433.549 884,-403.452 884,-403.452 884,-403.452 884,-345.452 884,-309.696 861.546,-272.96 846.436,-252.287"/>
<polygon fill="midnightblue" stroke="midnightblue" points="849.144,-250.065 840.307,-244.22 843.57,-254.3 849.144,-250.065"/>
</g>
<!-- Node39&#45;&gt;Node31 -->
<g id="edge63" class="edge"><title>Node39&#45;&gt;Node31</title>
<path fill="none" stroke="midnightblue" d="M970.101,-504.932C1012.75,-484.46 1112,-428.149 1112,-347.452 1112,-347.452 1112,-347.452 1112,-233.452 1112,-200.447 1122.83,-163.226 1130.24,-141.643"/>
<polygon fill="midnightblue" stroke="midnightblue" points="1133.57,-142.734 1133.63,-132.139 1126.97,-140.382 1133.57,-142.734"/>
</g>
<!-- Node40 -->
<g id="node41" class="node"><title>Node40</title>
<g id="a_node41"><a xlink:href="defs_8h.xhtml" target="_top" xlink:title=" ">
<polygon fill="white" stroke="black" points="912.5,-448.952 912.5,-467.952 955.5,-467.952 955.5,-448.952 912.5,-448.952"/>
<text text-anchor="middle" x="934" y="-455.952" font-family="Helvetica,sans-Serif" font-size="10.00">defs.h</text>
</a>
</g>
</g>
<!-- Node39&#45;&gt;Node40 -->
<g id="edge64" class="edge"><title>Node39&#45;&gt;Node40</title>
<path fill="none" stroke="midnightblue" d="M948.193,-504.535C945.915,-497.3 942.629,-486.86 939.792,-477.848"/>
<polygon fill="midnightblue" stroke="midnightblue" points="943.096,-476.69 936.755,-468.203 936.419,-478.792 943.096,-476.69"/>
</g>
<!-- Node41&#45;&gt;Node4 -->
<g id="edge68" class="edge"><title>Node41&#45;&gt;Node4</title>
<path fill="none" stroke="midnightblue" d="M1109.91,-560.93C1143.45,-539.2 1226,-478.126 1226,-403.452 1226,-403.452 1226,-403.452 1226,-121.452 1226,-32.4522 1086.03,-15.3077 1022.14,-12.1178"/>
<polygon fill="midnightblue" stroke="midnightblue" points="1021.99,-8.60886 1011.85,-11.6931 1021.7,-15.6029 1021.99,-8.60886"/>
</g>
<!-- Node41&#45;&gt;Node16 -->
<g id="edge67" class="edge"><title>Node41&#45;&gt;Node16</title>
<path fill="none" stroke="midnightblue" d="M1092.57,-560.853C1074.11,-515.442 982.595,-300.619 852,-168.452 839.167,-155.464 821.896,-144.509 807.486,-136.661"/>
<polygon fill="midnightblue" stroke="midnightblue" points="808.989,-133.497 798.506,-131.962 805.743,-139.699 808.989,-133.497"/>
</g>
<!-- Node41&#45;&gt;Node31 -->
<g id="edge69" class="edge"><title>Node41&#45;&gt;Node31</title>
<path fill="none" stroke="midnightblue" d="M1103.74,-560.758C1118.67,-543.045 1150,-500.936 1150,-459.452 1150,-459.452 1150,-459.452 1150,-233.452 1150,-201.028 1144.36,-163.597 1140.51,-141.82"/>
<polygon fill="midnightblue" stroke="midnightblue" points="1143.95,-141.171 1138.7,-131.969 1137.07,-142.437 1143.95,-141.171"/>
</g>
<!-- Node41&#45;&gt;Node39 -->
<g id="edge74" class="edge"><title>Node41&#45;&gt;Node39</title>
<path fill="none" stroke="midnightblue" d="M1077.34,-562.503C1053.67,-553.686 1012.45,-538.335 983.545,-527.572"/>
<polygon fill="midnightblue" stroke="midnightblue" points="984.477,-524.184 973.884,-523.974 982.034,-530.744 984.477,-524.184"/>
</g>
<!-- Node42 -->
<g id="node43" class="node"><title>Node42</title>
<g id="a_node43"><a xlink:href="filelike_8h.xhtml" target="_top" xlink:title=" ">
<polygon fill="white" stroke="black" points="862,-112.952 862,-131.952 944,-131.952 944,-112.952 862,-112.952"/>
<text text-anchor="middle" x="903" y="-119.952" font-family="Helvetica,sans-Serif" font-size="10.00">filelike/filelike.h</text>
</a>
</g>
</g>
<!-- Node41&#45;&gt;Node42 -->
<g id="edge70" class="edge"><title>Node41&#45;&gt;Node42</title>
<path fill="none" stroke="midnightblue" d="M1094.96,-560.829C1092.42,-540.833 1085.31,-489.851 1074,-448.452 1053.02,-371.676 1048.39,-351.234 1012,-280.452 984.495,-226.952 970.682,-217.604 936,-168.452 929.355,-159.034 921.759,-148.651 915.532,-140.234"/>
<polygon fill="midnightblue" stroke="midnightblue" points="918.194,-137.949 909.42,-132.011 912.576,-142.125 918.194,-137.949"/>
</g>
<!-- Node42&#45;&gt;Node4 -->
<g id="edge72" class="edge"><title>Node42&#45;&gt;Node4</title>
<path fill="none" stroke="midnightblue" d="M909.905,-112.82C924.492,-94.5867 958.659,-51.8773 977.66,-28.1268"/>
<polygon fill="midnightblue" stroke="midnightblue" points="980.613,-30.0382 984.127,-20.0431 975.147,-25.6653 980.613,-30.0382"/>
</g>
<!-- Node42&#45;&gt;Node9 -->
<g id="edge73" class="edge"><title>Node42&#45;&gt;Node9</title>
<path fill="none" stroke="midnightblue" d="M861.899,-116.941C773.01,-107.184 562.966,-84.1309 464.145,-73.2847"/>
<polygon fill="midnightblue" stroke="midnightblue" points="464.404,-69.7921 454.082,-72.1801 463.64,-76.7503 464.404,-69.7921"/>
</g>
<!-- Node42&#45;&gt;Node15 -->
<g id="edge71" class="edge"><title>Node42&#45;&gt;Node15</title>
<path fill="none" stroke="midnightblue" d="M888.219,-112.776C873.733,-104.273 851.427,-91.1805 834.507,-81.2491"/>
<polygon fill="midnightblue" stroke="midnightblue" points="836.141,-78.1497 825.745,-76.1061 832.597,-84.1866 836.141,-78.1497"/>
</g>
<!-- Node44&#45;&gt;Node18 -->
<g id="edge78" class="edge"><title>Node44&#45;&gt;Node18</title>
<path fill="none" stroke="midnightblue" d="M447.408,-337.6C484.376,-328.358 546.011,-312.949 587.793,-302.503"/>
<polygon fill="midnightblue" stroke="midnightblue" points="588.845,-305.848 597.698,-300.027 587.147,-299.057 588.845,-305.848"/>
</g>
<!-- Node44&#45;&gt;Node34 -->
<g id="edge77" class="edge"><title>Node44&#45;&gt;Node34</title>
<path fill="none" stroke="midnightblue" d="M414.397,-336.731C410.887,-314.667 405.06,-256.135 435,-224.452 485.01,-171.53 524.913,-203.821 601.619,-188.2"/>
<polygon fill="midnightblue" stroke="midnightblue" points="602.688,-191.547 611.667,-185.923 601.141,-184.72 602.688,-191.547"/>
</g>
</g>
</svg>
