<?xml version="1.0" encoding="UTF-8" standalone="no"?>
<!DOCTYPE svg PUBLIC "-//W3C//DTD SVG 1.1//EN"
 "http://www.w3.org/Graphics/SVG/1.1/DTD/svg11.dtd">
<!-- Generated by graphviz version 2.38.0 (20140413.2041)
 -->
<!-- Title: C:/Users/Jameson/Documents/git&#45;projects/openage/libopenage/shader Pages: 1 -->
<svg width="133pt" height="295pt"
 viewBox="0.00 0.00 133.00 295.00" xmlns="http://www.w3.org/2000/svg" xmlns:xlink="http://www.w3.org/1999/xlink">
<g id="graph0" class="graph" transform="scale(1 1) rotate(0) translate(4 291)">
<title>C:/Users/Jameson/Documents/git&#45;projects/openage/libopenage/shader</title>
<polygon fill="white" stroke="none" points="-4,4 -4,-291 129,-291 129,4 -4,4"/>
<g id="clust1" class="cluster"><title>clusterdir_7a1433c2fe60c22d0d75c56b51397e23</title>
<g id="a_clust1"><a xlink:href="dir_7a1433c2fe60c22d0d75c56b51397e23.xhtml" target="_top" xlink:title="libopenage">
<polygon fill="#ddddee" stroke="black" points="47,-208 47,-279 117,-279 117,-208 47,-208"/>
<text text-anchor="middle" x="82" y="-267" font-family="Helvetica,sans-Serif" font-size="10.00">libopenage</text>
</a>
</g>
</g>
<!-- dir_b8357664411f749eff500667caa9fc6b -->
<g id="node1" class="node"><title>dir_b8357664411f749eff500667caa9fc6b</title>
<g id="a_node1"><a xlink:href="dir_b8357664411f749eff500667caa9fc6b.xhtml" target="_top" xlink:title="shader">
<polygon fill="#eeeeff" stroke="black" points="109,-252 55,-252 55,-216 109,-216 109,-252"/>
<text text-anchor="middle" x="82" y="-231.5" font-family="Helvetica,sans-Serif" font-size="10.00">shader</text>
</a>
</g>
</g>
<!-- dir_d4038e006ae681f38d9f19ed63c3b2e6 -->
<g id="node2" class="node"><title>dir_d4038e006ae681f38d9f19ed63c3b2e6</title>
<g id="a_node2"><a xlink:href="dir_d4038e006ae681f38d9f19ed63c3b2e6.xhtml" target="_top" xlink:title="log">
<polygon fill="none" stroke="black" points="54,-180 0,-180 0,-144 54,-144 54,-180"/>
<text text-anchor="middle" x="27" y="-159.5" font-family="Helvetica,sans-Serif" font-size="10.00">log</text>
</a>
</g>
</g>
<!-- dir_b8357664411f749eff500667caa9fc6b&#45;&gt;dir_d4038e006ae681f38d9f19ed63c3b2e6 -->
<g id="edge1" class="edge"><title>dir_b8357664411f749eff500667caa9fc6b&#45;&gt;dir_d4038e006ae681f38d9f19ed63c3b2e6</title>
<path fill="none" stroke="black" d="M68.4045,-215.697C61.8773,-207.389 53.932,-197.277 46.7534,-188.141"/>
<polygon fill="black" stroke="black" points="49.3695,-185.805 40.4391,-180.104 43.8653,-190.13 49.3695,-185.805"/>
<g id="a_edge1&#45;headlabel"><a xlink:href="dir_000034_000030.xhtml" target="_top" xlink:title="2">
<text text-anchor="middle" x="53.8229" y="-184.377" font-family="Helvetica,sans-Serif" font-size="10.00">2</text>
</a>
</g>
</g>
<!-- dir_3c7a1d16eeb7847b36e40c66a45c0cab -->
<g id="node3" class="node"><title>dir_3c7a1d16eeb7847b36e40c66a45c0cab</title>
<g id="a_node3"><a xlink:href="dir_3c7a1d16eeb7847b36e40c66a45c0cab.xhtml" target="_top" xlink:title="error">
<polygon fill="none" stroke="black" points="92,-36 38,-36 38,-0 92,-0 92,-36"/>
<text text-anchor="middle" x="65" y="-15.5" font-family="Helvetica,sans-Serif" font-size="10.00">error</text>
</a>
</g>
</g>
<!-- dir_b8357664411f749eff500667caa9fc6b&#45;&gt;dir_3c7a1d16eeb7847b36e40c66a45c0cab -->
<g id="edge2" class="edge"><title>dir_b8357664411f749eff500667caa9fc6b&#45;&gt;dir_3c7a1d16eeb7847b36e40c66a45c0cab</title>
<path fill="none" stroke="black" d="M88.6015,-215.661C99.0154,-185.697 116.553,-122.576 101,-72 97.9911,-62.2153 92.493,-52.6161 86.6843,-44.3336"/>
<polygon fill="black" stroke="black" points="89.4072,-42.1306 80.6099,-36.2264 83.8052,-46.3279 89.4072,-42.1306"/>
<g id="a_edge2&#45;headlabel"><a xlink:href="dir_000034_000002.xhtml" target="_top" xlink:title="2">
<text text-anchor="middle" x="93.8348" y="-40.8048" font-family="Helvetica,sans-Serif" font-size="10.00">2</text>
</a>
</g>
</g>
<!-- dir_a25237b91464ed624c167f154229e196 -->
<g id="node4" class="node"><title>dir_a25237b91464ed624c167f154229e196</title>
<g id="a_node4"><a xlink:href="dir_a25237b91464ed624c167f154229e196.xhtml" target="_top" xlink:title="util">
<polygon fill="white" stroke="red" points="92,-108 38,-108 38,-72 92,-72 92,-108"/>
<text text-anchor="middle" x="65" y="-87.5" font-family="Helvetica,sans-Serif" font-size="10.00">util</text>
</a>
</g>
</g>
<!-- dir_b8357664411f749eff500667caa9fc6b&#45;&gt;dir_a25237b91464ed624c167f154229e196 -->
<g id="edge3" class="edge"><title>dir_b8357664411f749eff500667caa9fc6b&#45;&gt;dir_a25237b91464ed624c167f154229e196</title>
<path fill="none" stroke="black" d="M79.9494,-215.871C77.0521,-191.67 71.7295,-147.211 68.2795,-118.393"/>
<polygon fill="black" stroke="black" points="71.7218,-117.702 67.0579,-108.189 64.7715,-118.534 71.7218,-117.702"/>
<g id="a_edge3&#45;headlabel"><a xlink:href="dir_000034_000018.xhtml" target="_top" xlink:title="5">
<text text-anchor="middle" x="74.9682" y="-118.434" font-family="Helvetica,sans-Serif" font-size="10.00">5</text>
</a>
</g>
</g>
<!-- dir_d4038e006ae681f38d9f19ed63c3b2e6&#45;&gt;dir_a25237b91464ed624c167f154229e196 -->
<g id="edge4" class="edge"><title>dir_d4038e006ae681f38d9f19ed63c3b2e6&#45;&gt;dir_a25237b91464ed624c167f154229e196</title>
<path fill="none" stroke="black" d="M30.4775,-143.697C34.0558,-135.559 39.2077,-125.689 44.5142,-116.701"/>
<polygon fill="black" stroke="black" points="47.5464,-118.452 49.8198,-108.104 41.5894,-114.776 47.5464,-118.452"/>
<g id="a_edge4&#45;headlabel"><a xlink:href="dir_000030_000018.xhtml" target="_top" xlink:title="9">
<text text-anchor="middle" x="48.0748" y="-120.502" font-family="Helvetica,sans-Serif" font-size="10.00">9</text>
</a>
</g>
</g>
<!-- dir_3c7a1d16eeb7847b36e40c66a45c0cab&#45;&gt;dir_d4038e006ae681f38d9f19ed63c3b2e6 -->
<g id="edge5" class="edge"><title>dir_3c7a1d16eeb7847b36e40c66a45c0cab&#45;&gt;dir_d4038e006ae681f38d9f19ed63c3b2e6</title>
<path fill="none" stroke="black" d="M49.508,-36.2634C41.7795,-46.0174 33.2019,-58.8627 29,-72 22.6145,-91.9643 22.4334,-115.754 23.675,-133.713"/>
<polygon fill="black" stroke="black" points="20.1991,-134.142 24.5615,-143.797 27.1722,-133.529 20.1991,-134.142"/>
<g id="a_edge5&#45;headlabel"><a xlink:href="dir_000002_000030.xhtml" target="_top" xlink:title="3">
<text text-anchor="middle" x="17.056" y="-128.31" font-family="Helvetica,sans-Serif" font-size="10.00">3</text>
</a>
</g>
</g>
<!-- dir_3c7a1d16eeb7847b36e40c66a45c0cab&#45;&gt;dir_a25237b91464ed624c167f154229e196 -->
<g id="edge6" class="edge"><title>dir_3c7a1d16eeb7847b36e40c66a45c0cab&#45;&gt;dir_a25237b91464ed624c167f154229e196</title>
<path fill="none" stroke="black" d="M70.895,-36.1043C71.7005,-43.7913 71.9369,-53.0537 71.604,-61.6651"/>
<polygon fill="black" stroke="black" points="68.1085,-61.4805 70.9157,-71.6966 75.0921,-61.9597 68.1085,-61.4805"/>
<g id="a_edge6&#45;headlabel"><a xlink:href="dir_000002_000018.xhtml" target="_top" xlink:title="8">
<text text-anchor="middle" x="65.5219" y="-55.2" font-family="Helvetica,sans-Serif" font-size="10.00">8</text>
</a>
</g>
</g>
<!-- dir_a25237b91464ed624c167f154229e196&#45;&gt;dir_d4038e006ae681f38d9f19ed63c3b2e6 -->
<g id="edge7" class="edge"><title>dir_a25237b91464ed624c167f154229e196&#45;&gt;dir_d4038e006ae681f38d9f19ed63c3b2e6</title>
<path fill="none" stroke="black" d="M61.6098,-108.104C58.0574,-116.214 52.9197,-126.076 47.6158,-135.078"/>
<polygon fill="black" stroke="black" points="44.572,-133.346 42.309,-143.697 50.5326,-137.017 44.572,-133.346"/>
<g id="a_edge7&#45;headlabel"><a xlink:href="dir_000018_000030.xhtml" target="_top" xlink:title="9">
<text text-anchor="middle" x="44.039" y="-126.297" font-family="Helvetica,sans-Serif" font-size="10.00">9</text>
</a>
</g>
</g>
<!-- dir_a25237b91464ed624c167f154229e196&#45;&gt;dir_3c7a1d16eeb7847b36e40c66a45c0cab -->
<g id="edge8" class="edge"><title>dir_a25237b91464ed624c167f154229e196&#45;&gt;dir_3c7a1d16eeb7847b36e40c66a45c0cab</title>
<path fill="none" stroke="black" d="M59.0843,-71.6966C58.2886,-63.9827 58.0621,-54.7125 58.4047,-46.1124"/>
<polygon fill="black" stroke="black" points="61.8984,-46.3243 59.105,-36.1043 54.9154,-45.8356 61.8984,-46.3243"/>
<g id="a_edge8&#45;headlabel"><a xlink:href="dir_000018_000002.xhtml" target="_top" xlink:title="14">
<text text-anchor="middle" x="64.4799" y="-47.6083" font-family="Helvetica,sans-Serif" font-size="10.00">14</text>
</a>
</g>
</g>
</g>
</svg>
