<?xml version="1.0" encoding="UTF-8" standalone="no"?>
<!DOCTYPE svg PUBLIC "-//W3C//DTD SVG 1.1//EN"
 "http://www.w3.org/Graphics/SVG/1.1/DTD/svg11.dtd">
<!-- Generated by graphviz version 2.38.0 (20140413.2041)
 -->
<!-- Title: C:/Users/Jameson/Documents/git&#45;projects/openage/libopenage/console Pages: 1 -->
<svg width="247pt" height="367pt"
 viewBox="0.00 0.00 247.26 367.00" xmlns="http://www.w3.org/2000/svg" xmlns:xlink="http://www.w3.org/1999/xlink">
<g id="graph0" class="graph" transform="scale(1 1) rotate(0) translate(4 363)">
<title>C:/Users/Jameson/Documents/git&#45;projects/openage/libopenage/console</title>
<polygon fill="white" stroke="none" points="-4,4 -4,-363 243.256,-363 243.256,4 -4,4"/>
<g id="clust1" class="cluster"><title>clusterdir_7a1433c2fe60c22d0d75c56b51397e23</title>
<g id="a_clust1"><a xlink:href="dir_7a1433c2fe60c22d0d75c56b51397e23.xhtml" target="_top" xlink:title="libopenage">
<polygon fill="#ddddee" stroke="black" points="89.8162,-280 89.8162,-351 159.816,-351 159.816,-280 89.8162,-280"/>
<text text-anchor="middle" x="124.816" y="-339" font-family="Helvetica,sans-Serif" font-size="10.00">libopenage</text>
</a>
</g>
</g>
<!-- dir_a7cece960099fe4958b3f040f3f89471 -->
<g id="node1" class="node"><title>dir_a7cece960099fe4958b3f040f3f89471</title>
<g id="a_node1"><a xlink:href="dir_a7cece960099fe4958b3f040f3f89471.xhtml" target="_top" xlink:title="console">
<polygon fill="#eeeeff" stroke="black" points="151.816,-324 97.8162,-324 97.8162,-288 151.816,-288 151.816,-324"/>
<text text-anchor="middle" x="124.816" y="-303.5" font-family="Helvetica,sans-Serif" font-size="10.00">console</text>
</a>
</g>
</g>
<!-- dir_b257ac1eb047fdaa3ba231cb3d9ec411 -->
<g id="node2" class="node"><title>dir_b257ac1eb047fdaa3ba231cb3d9ec411</title>
<g id="a_node2"><a xlink:href="dir_b257ac1eb047fdaa3ba231cb3d9ec411.xhtml" target="_top" xlink:title="input">
<polygon fill="none" stroke="black" points="77.8162,-252 23.8162,-252 23.8162,-216 77.8162,-216 77.8162,-252"/>
<text text-anchor="middle" x="50.8162" y="-231.5" font-family="Helvetica,sans-Serif" font-size="10.00">input</text>
</a>
</g>
</g>
<!-- dir_a7cece960099fe4958b3f040f3f89471&#45;&gt;dir_b257ac1eb047fdaa3ba231cb3d9ec411 -->
<g id="edge13" class="edge"><title>dir_a7cece960099fe4958b3f040f3f89471&#45;&gt;dir_b257ac1eb047fdaa3ba231cb3d9ec411</title>
<path fill="none" stroke="black" d="M106.524,-287.697C97.3836,-279.05 86.1761,-268.449 76.2162,-259.027"/>
<polygon fill="black" stroke="black" points="78.5678,-256.434 68.8979,-252.104 73.7574,-261.519 78.5678,-256.434"/>
<g id="a_edge13&#45;headlabel"><a xlink:href="dir_000005_000017.xhtml" target="_top" xlink:title="1">
<text text-anchor="middle" x="83.1303" y="-254.341" font-family="Helvetica,sans-Serif" font-size="10.00">1</text>
</a>
</g>
</g>
<!-- dir_d4038e006ae681f38d9f19ed63c3b2e6 -->
<g id="node3" class="node"><title>dir_d4038e006ae681f38d9f19ed63c3b2e6</title>
<g id="a_node3"><a xlink:href="dir_d4038e006ae681f38d9f19ed63c3b2e6.xhtml" target="_top" xlink:title="log">
<polygon fill="none" stroke="black" points="115.816,-180 61.8162,-180 61.8162,-144 115.816,-144 115.816,-180"/>
<text text-anchor="middle" x="88.8162" y="-159.5" font-family="Helvetica,sans-Serif" font-size="10.00">log</text>
</a>
</g>
</g>
<!-- dir_a7cece960099fe4958b3f040f3f89471&#45;&gt;dir_d4038e006ae681f38d9f19ed63c3b2e6 -->
<g id="edge14" class="edge"><title>dir_a7cece960099fe4958b3f040f3f89471&#45;&gt;dir_d4038e006ae681f38d9f19ed63c3b2e6</title>
<path fill="none" stroke="black" d="M120.474,-287.871C114.311,-263.564 102.967,-218.819 95.6646,-190.013"/>
<polygon fill="black" stroke="black" points="99.0242,-189.022 93.174,-180.189 92.2389,-190.743 99.0242,-189.022"/>
<g id="a_edge14&#45;headlabel"><a xlink:href="dir_000005_000030.xhtml" target="_top" xlink:title="2">
<text text-anchor="middle" x="102.66" y="-189.309" font-family="Helvetica,sans-Serif" font-size="10.00">2</text>
</a>
</g>
</g>
<!-- dir_4a01dee474130c13b802372087a79ed7 -->
<g id="node4" class="node"><title>dir_4a01dee474130c13b802372087a79ed7</title>
<g id="a_node4"><a xlink:href="dir_4a01dee474130c13b802372087a79ed7.xhtml" target="_top" xlink:title="renderer">
<polygon fill="white" stroke="red" points="225.816,-252 171.816,-252 171.816,-216 225.816,-216 225.816,-252"/>
<text text-anchor="middle" x="198.816" y="-231.5" font-family="Helvetica,sans-Serif" font-size="10.00">renderer</text>
</a>
</g>
</g>
<!-- dir_a7cece960099fe4958b3f040f3f89471&#45;&gt;dir_4a01dee474130c13b802372087a79ed7 -->
<g id="edge15" class="edge"><title>dir_a7cece960099fe4958b3f040f3f89471&#45;&gt;dir_4a01dee474130c13b802372087a79ed7</title>
<path fill="none" stroke="black" d="M143.108,-287.697C152.249,-279.05 163.456,-268.449 173.416,-259.027"/>
<polygon fill="black" stroke="black" points="175.875,-261.519 180.734,-252.104 171.065,-256.434 175.875,-261.519"/>
<g id="a_edge15&#45;headlabel"><a xlink:href="dir_000005_000009.xhtml" target="_top" xlink:title="2">
<text text-anchor="middle" x="175.215" y="-263.552" font-family="Helvetica,sans-Serif" font-size="10.00">2</text>
</a>
</g>
</g>
<!-- dir_3c7a1d16eeb7847b36e40c66a45c0cab -->
<g id="node5" class="node"><title>dir_3c7a1d16eeb7847b36e40c66a45c0cab</title>
<g id="a_node5"><a xlink:href="dir_3c7a1d16eeb7847b36e40c66a45c0cab.xhtml" target="_top" xlink:title="error">
<polygon fill="none" stroke="black" points="114.816,-36 60.8162,-36 60.8162,-0 114.816,-0 114.816,-36"/>
<text text-anchor="middle" x="87.8162" y="-15.5" font-family="Helvetica,sans-Serif" font-size="10.00">error</text>
</a>
</g>
</g>
<!-- dir_a7cece960099fe4958b3f040f3f89471&#45;&gt;dir_3c7a1d16eeb7847b36e40c66a45c0cab -->
<g id="edge16" class="edge"><title>dir_a7cece960099fe4958b3f040f3f89471&#45;&gt;dir_3c7a1d16eeb7847b36e40c66a45c0cab</title>
<path fill="none" stroke="black" d="M97.6231,-300.347C71.3166,-294.243 32.8585,-280.72 14.8162,-252 -27.9758,-183.882 32.7885,-88.719 67.0937,-44.0384"/>
<polygon fill="black" stroke="black" points="69.9427,-46.0773 73.362,-36.0494 64.4355,-41.7563 69.9427,-46.0773"/>
<g id="a_edge16&#45;headlabel"><a xlink:href="dir_000005_000002.xhtml" target="_top" xlink:title="2">
<text text-anchor="middle" x="69.9576" y="-48.158" font-family="Helvetica,sans-Serif" font-size="10.00">2</text>
</a>
</g>
</g>
<!-- dir_7f22ae691c2f00df38feb17398996147 -->
<g id="node6" class="node"><title>dir_7f22ae691c2f00df38feb17398996147</title>
<g id="a_node6"><a xlink:href="dir_7f22ae691c2f00df38feb17398996147.xhtml" target="_top" xlink:title="coord">
<polygon fill="none" stroke="black" points="187.816,-180 133.816,-180 133.816,-144 187.816,-144 187.816,-180"/>
<text text-anchor="middle" x="160.816" y="-159.5" font-family="Helvetica,sans-Serif" font-size="10.00">coord</text>
</a>
</g>
</g>
<!-- dir_a7cece960099fe4958b3f040f3f89471&#45;&gt;dir_7f22ae691c2f00df38feb17398996147 -->
<g id="edge17" class="edge"><title>dir_a7cece960099fe4958b3f040f3f89471&#45;&gt;dir_7f22ae691c2f00df38feb17398996147</title>
<path fill="none" stroke="black" d="M129.159,-287.871C135.321,-263.564 146.665,-218.819 153.968,-190.013"/>
<polygon fill="black" stroke="black" points="157.393,-190.743 156.458,-180.189 150.608,-189.022 157.393,-190.743"/>
<g id="a_edge17&#45;headlabel"><a xlink:href="dir_000005_000011.xhtml" target="_top" xlink:title="2">
<text text-anchor="middle" x="159.262" y="-192.425" font-family="Helvetica,sans-Serif" font-size="10.00">2</text>
</a>
</g>
</g>
<!-- dir_a25237b91464ed624c167f154229e196 -->
<g id="node7" class="node"><title>dir_a25237b91464ed624c167f154229e196</title>
<g id="a_node7"><a xlink:href="dir_a25237b91464ed624c167f154229e196.xhtml" target="_top" xlink:title="util">
<polygon fill="white" stroke="red" points="142.816,-108 88.8162,-108 88.8162,-72 142.816,-72 142.816,-108"/>
<text text-anchor="middle" x="115.816" y="-87.5" font-family="Helvetica,sans-Serif" font-size="10.00">util</text>
</a>
</g>
</g>
<!-- dir_a7cece960099fe4958b3f040f3f89471&#45;&gt;dir_a25237b91464ed624c167f154229e196 -->
<g id="edge18" class="edge"><title>dir_a7cece960099fe4958b3f040f3f89471&#45;&gt;dir_a25237b91464ed624c167f154229e196</title>
<path fill="none" stroke="black" d="M152.009,-300.347C178.316,-294.243 216.774,-280.72 234.816,-252 243.327,-238.452 236.875,-231.867 234.816,-216 230.559,-183.18 236.387,-169.926 215.816,-144 199.824,-123.845 174.028,-110.441 152.642,-102.157"/>
<polygon fill="black" stroke="black" points="153.772,-98.8429 143.178,-98.7042 151.373,-105.419 153.772,-98.8429"/>
<g id="a_edge18&#45;headlabel"><a xlink:href="dir_000005_000018.xhtml" target="_top" xlink:title="10">
<text text-anchor="middle" x="158.121" y="-94.9073" font-family="Helvetica,sans-Serif" font-size="10.00">10</text>
</a>
</g>
</g>
<!-- dir_b257ac1eb047fdaa3ba231cb3d9ec411&#45;&gt;dir_d4038e006ae681f38d9f19ed63c3b2e6 -->
<g id="edge1" class="edge"><title>dir_b257ac1eb047fdaa3ba231cb3d9ec411&#45;&gt;dir_d4038e006ae681f38d9f19ed63c3b2e6</title>
<path fill="none" stroke="black" d="M60.2094,-215.697C64.5811,-207.644 69.8735,-197.894 74.7114,-188.982"/>
<polygon fill="black" stroke="black" points="77.836,-190.563 79.531,-180.104 71.684,-187.223 77.836,-190.563"/>
<g id="a_edge1&#45;headlabel"><a xlink:href="dir_000017_000030.xhtml" target="_top" xlink:title="4">
<text text-anchor="middle" x="78.6164" y="-192.576" font-family="Helvetica,sans-Serif" font-size="10.00">4</text>
</a>
</g>
</g>
<!-- dir_b257ac1eb047fdaa3ba231cb3d9ec411&#45;&gt;dir_3c7a1d16eeb7847b36e40c66a45c0cab -->
<g id="edge2" class="edge"><title>dir_b257ac1eb047fdaa3ba231cb3d9ec411&#45;&gt;dir_3c7a1d16eeb7847b36e40c66a45c0cab</title>
<path fill="none" stroke="black" d="M47.1624,-215.908C45.1404,-205.569 42.8354,-192.09 41.8162,-180 40.4721,-164.057 39.0098,-159.752 41.8162,-144 48.1181,-108.628 63.7153,-70.1467 75.0031,-45.3605"/>
<polygon fill="black" stroke="black" points="78.1952,-46.7965 79.2386,-36.2531 71.848,-43.8446 78.1952,-46.7965"/>
<g id="a_edge2&#45;headlabel"><a xlink:href="dir_000017_000002.xhtml" target="_top" xlink:title="1">
<text text-anchor="middle" x="79.2539" y="-48.7531" font-family="Helvetica,sans-Serif" font-size="10.00">1</text>
</a>
</g>
</g>
<!-- dir_b257ac1eb047fdaa3ba231cb3d9ec411&#45;&gt;dir_7f22ae691c2f00df38feb17398996147 -->
<g id="edge3" class="edge"><title>dir_b257ac1eb047fdaa3ba231cb3d9ec411&#45;&gt;dir_7f22ae691c2f00df38feb17398996147</title>
<path fill="none" stroke="black" d="M77.7252,-215.876C91.9745,-206.808 109.663,-195.552 125.052,-185.759"/>
<polygon fill="black" stroke="black" points="127.246,-188.511 133.804,-180.19 123.488,-182.606 127.246,-188.511"/>
<g id="a_edge3&#45;headlabel"><a xlink:href="dir_000017_000011.xhtml" target="_top" xlink:title="1">
<text text-anchor="middle" x="125.738" y="-190.337" font-family="Helvetica,sans-Serif" font-size="10.00">1</text>
</a>
</g>
</g>
<!-- dir_b257ac1eb047fdaa3ba231cb3d9ec411&#45;&gt;dir_a25237b91464ed624c167f154229e196 -->
<g id="edge4" class="edge"><title>dir_b257ac1eb047fdaa3ba231cb3d9ec411&#45;&gt;dir_a25237b91464ed624c167f154229e196</title>
<path fill="none" stroke="black" d="M47.2167,-215.975C44.1497,-197.321 41.7946,-166.996 52.8162,-144 58.8711,-131.367 69.5248,-120.638 80.3681,-112.207"/>
<polygon fill="black" stroke="black" points="82.5872,-114.921 88.6241,-106.215 78.4752,-109.256 82.5872,-114.921"/>
<g id="a_edge4&#45;headlabel"><a xlink:href="dir_000017_000018.xhtml" target="_top" xlink:title="1">
<text text-anchor="middle" x="81.3459" y="-116.83" font-family="Helvetica,sans-Serif" font-size="10.00">1</text>
</a>
</g>
</g>
<!-- dir_d4038e006ae681f38d9f19ed63c3b2e6&#45;&gt;dir_a25237b91464ed624c167f154229e196 -->
<g id="edge5" class="edge"><title>dir_d4038e006ae681f38d9f19ed63c3b2e6&#45;&gt;dir_a25237b91464ed624c167f154229e196</title>
<path fill="none" stroke="black" d="M89.5746,-143.697C91.8261,-135.728 95.3255,-126.1 99.1262,-117.264"/>
<polygon fill="black" stroke="black" points="102.34,-118.653 103.324,-108.104 95.9759,-115.737 102.34,-118.653"/>
<g id="a_edge5&#45;headlabel"><a xlink:href="dir_000030_000018.xhtml" target="_top" xlink:title="9">
<text text-anchor="middle" x="103.423" y="-120.604" font-family="Helvetica,sans-Serif" font-size="10.00">9</text>
</a>
</g>
</g>
<!-- dir_4a01dee474130c13b802372087a79ed7&#45;&gt;dir_d4038e006ae681f38d9f19ed63c3b2e6 -->
<g id="edge6" class="edge"><title>dir_4a01dee474130c13b802372087a79ed7&#45;&gt;dir_d4038e006ae681f38d9f19ed63c3b2e6</title>
<path fill="none" stroke="black" d="M171.907,-215.876C157.658,-206.808 139.97,-195.552 124.581,-185.759"/>
<polygon fill="black" stroke="black" points="126.144,-182.606 115.829,-180.19 122.386,-188.511 126.144,-182.606"/>
<g id="a_edge6&#45;headlabel"><a xlink:href="dir_000009_000030.xhtml" target="_top" xlink:title="13">
<text text-anchor="middle" x="130.701" y="-179.64" font-family="Helvetica,sans-Serif" font-size="10.00">13</text>
</a>
</g>
</g>
<!-- dir_4a01dee474130c13b802372087a79ed7&#45;&gt;dir_3c7a1d16eeb7847b36e40c66a45c0cab -->
<g id="edge7" class="edge"><title>dir_4a01dee474130c13b802372087a79ed7&#45;&gt;dir_3c7a1d16eeb7847b36e40c66a45c0cab</title>
<path fill="none" stroke="black" d="M207.525,-215.786C215.545,-197.495 224.929,-167.967 215.816,-144 198.664,-98.885 155.173,-62.4838 123.639,-40.8403"/>
<polygon fill="black" stroke="black" points="125.353,-37.7762 115.093,-35.132 121.465,-43.5971 125.353,-37.7762"/>
<g id="a_edge7&#45;headlabel"><a xlink:href="dir_000009_000002.xhtml" target="_top" xlink:title="24">
<text text-anchor="middle" x="129.919" y="-34.9119" font-family="Helvetica,sans-Serif" font-size="10.00">24</text>
</a>
</g>
</g>
<!-- dir_4a01dee474130c13b802372087a79ed7&#45;&gt;dir_7f22ae691c2f00df38feb17398996147 -->
<g id="edge8" class="edge"><title>dir_4a01dee474130c13b802372087a79ed7&#45;&gt;dir_7f22ae691c2f00df38feb17398996147</title>
<path fill="none" stroke="black" d="M189.423,-215.697C185.051,-207.644 179.759,-197.894 174.921,-188.982"/>
<polygon fill="black" stroke="black" points="177.948,-187.223 170.101,-180.104 171.796,-190.563 177.948,-187.223"/>
<g id="a_edge8&#45;headlabel"><a xlink:href="dir_000009_000011.xhtml" target="_top" xlink:title="1">
<text text-anchor="middle" x="182.159" y="-186.528" font-family="Helvetica,sans-Serif" font-size="10.00">1</text>
</a>
</g>
</g>
<!-- dir_4a01dee474130c13b802372087a79ed7&#45;&gt;dir_a25237b91464ed624c167f154229e196 -->
<g id="edge9" class="edge"><title>dir_4a01dee474130c13b802372087a79ed7&#45;&gt;dir_a25237b91464ed624c167f154229e196</title>
<path fill="none" stroke="black" d="M202.931,-215.709C206.449,-196.822 209.197,-166.294 196.816,-144 187.11,-126.521 168.932,-113.842 152.252,-105.276"/>
<polygon fill="black" stroke="black" points="153.733,-102.105 143.203,-100.936 150.706,-108.416 153.733,-102.105"/>
<g id="a_edge9&#45;headlabel"><a xlink:href="dir_000009_000018.xhtml" target="_top" xlink:title="14">
<text text-anchor="middle" x="158.202" y="-98.5989" font-family="Helvetica,sans-Serif" font-size="10.00">14</text>
</a>
</g>
</g>
<!-- dir_3c7a1d16eeb7847b36e40c66a45c0cab&#45;&gt;dir_d4038e006ae681f38d9f19ed63c3b2e6 -->
<g id="edge10" class="edge"><title>dir_3c7a1d16eeb7847b36e40c66a45c0cab&#45;&gt;dir_d4038e006ae681f38d9f19ed63c3b2e6</title>
<path fill="none" stroke="black" d="M84.5679,-36.1119C82.7703,-46.4578 80.7215,-59.9366 79.8162,-72 78.6188,-87.9551 78.4721,-92.0566 79.8162,-108 80.5328,-116.501 81.8851,-125.688 83.3277,-133.988"/>
<polygon fill="black" stroke="black" points="79.902,-134.711 85.1624,-143.908 86.7853,-133.438 79.902,-134.711"/>
<g id="a_edge10&#45;headlabel"><a xlink:href="dir_000002_000030.xhtml" target="_top" xlink:title="3">
<text text-anchor="middle" x="76.4565" y="-129.192" font-family="Helvetica,sans-Serif" font-size="10.00">3</text>
</a>
</g>
</g>
<!-- dir_3c7a1d16eeb7847b36e40c66a45c0cab&#45;&gt;dir_a25237b91464ed624c167f154229e196 -->
<g id="edge11" class="edge"><title>dir_3c7a1d16eeb7847b36e40c66a45c0cab&#45;&gt;dir_a25237b91464ed624c167f154229e196</title>
<path fill="none" stroke="black" d="M100.553,-36.1043C104.476,-43.8757 108.461,-53.2575 111.589,-61.9488"/>
<polygon fill="black" stroke="black" points="108.349,-63.3003 114.811,-71.6966 114.995,-61.1034 108.349,-63.3003"/>
<g id="a_edge11&#45;headlabel"><a xlink:href="dir_000002_000018.xhtml" target="_top" xlink:title="8">
<text text-anchor="middle" x="104.525" y="-58.2784" font-family="Helvetica,sans-Serif" font-size="10.00">8</text>
</a>
</g>
</g>
<!-- dir_7f22ae691c2f00df38feb17398996147&#45;&gt;dir_a25237b91464ed624c167f154229e196 -->
<g id="edge12" class="edge"><title>dir_7f22ae691c2f00df38feb17398996147&#45;&gt;dir_a25237b91464ed624c167f154229e196</title>
<path fill="none" stroke="black" d="M149.693,-143.697C144.461,-135.559 138.116,-125.689 132.338,-116.701"/>
<polygon fill="black" stroke="black" points="135.164,-114.623 126.812,-108.104 129.275,-118.409 135.164,-114.623"/>
<g id="a_edge12&#45;headlabel"><a xlink:href="dir_000011_000018.xhtml" target="_top" xlink:title="5">
<text text-anchor="middle" x="139.496" y="-113.612" font-family="Helvetica,sans-Serif" font-size="10.00">5</text>
</a>
</g>
</g>
<!-- dir_a25237b91464ed624c167f154229e196&#45;&gt;dir_d4038e006ae681f38d9f19ed63c3b2e6 -->
<g id="edge19" class="edge"><title>dir_a25237b91464ed624c167f154229e196&#45;&gt;dir_d4038e006ae681f38d9f19ed63c3b2e6</title>
<path fill="none" stroke="black" d="M115.114,-108.104C112.883,-116.045 109.397,-125.666 105.601,-134.515"/>
<polygon fill="black" stroke="black" points="102.378,-133.146 101.406,-143.697 108.745,-136.056 102.378,-133.146"/>
<g id="a_edge19&#45;headlabel"><a xlink:href="dir_000018_000030.xhtml" target="_top" xlink:title="9">
<text text-anchor="middle" x="101.29" y="-126.197" font-family="Helvetica,sans-Serif" font-size="10.00">9</text>
</a>
</g>
</g>
<!-- dir_a25237b91464ed624c167f154229e196&#45;&gt;dir_3c7a1d16eeb7847b36e40c66a45c0cab -->
<g id="edge20" class="edge"><title>dir_a25237b91464ed624c167f154229e196&#45;&gt;dir_3c7a1d16eeb7847b36e40c66a45c0cab</title>
<path fill="none" stroke="black" d="M102.979,-71.6966C99.0552,-63.8979 95.0767,-54.5085 91.9641,-45.8292"/>
<polygon fill="black" stroke="black" points="95.2142,-44.5086 88.7629,-36.1043 88.5652,-46.6973 95.2142,-44.5086"/>
<g id="a_edge20&#45;headlabel"><a xlink:href="dir_000018_000002.xhtml" target="_top" xlink:title="14">
<text text-anchor="middle" x="99.035" y="-44.5352" font-family="Helvetica,sans-Serif" font-size="10.00">14</text>
</a>
</g>
</g>
</g>
</svg>
