<?xml version="1.0" encoding="UTF-8" standalone="no"?>
<!DOCTYPE svg PUBLIC "-//W3C//DTD SVG 1.1//EN"
 "http://www.w3.org/Graphics/SVG/1.1/DTD/svg11.dtd">
<!-- Generated by graphviz version 2.38.0 (20140413.2041)
 -->
<!-- Title: C:/Users/Jameson/Documents/git&#45;projects/openage/libopenage/gui/guisys/private Pages: 1 -->
<svg width="240pt" height="219pt"
 viewBox="0.00 0.00 240.00 219.00" xmlns="http://www.w3.org/2000/svg" xmlns:xlink="http://www.w3.org/1999/xlink">
<g id="graph0" class="graph" transform="scale(1 1) rotate(0) translate(4 215)">
<title>C:/Users/Jameson/Documents/git&#45;projects/openage/libopenage/gui/guisys/private</title>
<polygon fill="white" stroke="none" points="-4,4 -4,-215 236,-215 236,4 -4,4"/>
<g id="clust1" class="cluster"><title>clusterdir_acb330e0bd97d2656bfb843bf4718018</title>
<g id="a_clust1"><a xlink:href="dir_acb330e0bd97d2656bfb843bf4718018.xhtml" target="_top" xlink:title="guisys">
<polygon fill="#ddddee" stroke="black" points="8,-8 8,-167 170,-167 170,-8 8,-8"/>
<text text-anchor="middle" x="89" y="-155" font-family="Helvetica,sans-Serif" font-size="10.00">guisys</text>
</a>
</g>
</g>
<g id="clust2" class="cluster"><title>clusterdir_78b5e0a243888fb9785f340b050804d7</title>
<g id="a_clust2"><a xlink:href="dir_78b5e0a243888fb9785f340b050804d7.xhtml" target="_top">
<polygon fill="#eeeeff" stroke="black" points="16,-16 16,-140 162,-140 162,-16 16,-16"/>
</a>
</g>
</g>
<!-- dir_78b5e0a243888fb9785f340b050804d7 -->
<g id="node1" class="node"><title>dir_78b5e0a243888fb9785f340b050804d7</title>
<text text-anchor="middle" x="126" y="-111.5" font-family="Helvetica,sans-Serif" font-size="10.00">private</text>
</g>
<!-- dir_9a525e6df3ce662347fd0125e10bcda2 -->
<g id="node2" class="node"><title>dir_9a525e6df3ce662347fd0125e10bcda2</title>
<g id="a_node2"><a xlink:href="dir_9a525e6df3ce662347fd0125e10bcda2.xhtml" target="_top" xlink:title="livereload">
<polygon fill="white" stroke="black" points="154,-60 98,-60 98,-24 154,-24 154,-60"/>
<text text-anchor="middle" x="126" y="-39.5" font-family="Helvetica,sans-Serif" font-size="10.00">livereload</text>
</a>
</g>
</g>
<!-- dir_78b5e0a243888fb9785f340b050804d7&#45;&gt;dir_9a525e6df3ce662347fd0125e10bcda2 -->
<g id="edge4" class="edge"><title>dir_78b5e0a243888fb9785f340b050804d7&#45;&gt;dir_9a525e6df3ce662347fd0125e10bcda2</title>
<path fill="none" stroke="black" d="M126,-95.6966C126,-87.9827 126,-78.7125 126,-70.1124"/>
<polygon fill="black" stroke="black" points="129.5,-70.1043 126,-60.1043 122.5,-70.1044 129.5,-70.1043"/>
<g id="a_edge4&#45;headlabel"><a xlink:href="dir_000022_000023.xhtml" target="_top" xlink:title="2">
<text text-anchor="middle" x="132.339" y="-71.199" font-family="Helvetica,sans-Serif" font-size="10.00">2</text>
</a>
</g>
</g>
<!-- dir_87ca0b16c40389b37efbe69b92f7a47c -->
<g id="node3" class="node"><title>dir_87ca0b16c40389b37efbe69b92f7a47c</title>
<g id="a_node3"><a xlink:href="dir_87ca0b16c40389b37efbe69b92f7a47c.xhtml" target="_top" xlink:title="platforms">
<polygon fill="white" stroke="black" points="80,-60 24,-60 24,-24 80,-24 80,-60"/>
<text text-anchor="middle" x="52" y="-39.5" font-family="Helvetica,sans-Serif" font-size="10.00">platforms</text>
</a>
</g>
</g>
<!-- dir_78b5e0a243888fb9785f340b050804d7&#45;&gt;dir_87ca0b16c40389b37efbe69b92f7a47c -->
<g id="edge5" class="edge"><title>dir_78b5e0a243888fb9785f340b050804d7&#45;&gt;dir_87ca0b16c40389b37efbe69b92f7a47c</title>
<path fill="none" stroke="black" d="M107.708,-95.6966C98.5674,-87.0503 87.3599,-76.4486 77.4,-67.027"/>
<polygon fill="black" stroke="black" points="79.7516,-64.4337 70.0817,-60.1043 74.9412,-69.519 79.7516,-64.4337"/>
<g id="a_edge5&#45;headlabel"><a xlink:href="dir_000022_000024.xhtml" target="_top" xlink:title="1">
<text text-anchor="middle" x="84.3141" y="-62.3413" font-family="Helvetica,sans-Serif" font-size="10.00">1</text>
</a>
</g>
</g>
<!-- dir_ee52762a54ed24851c9ca23cf72f1a00 -->
<g id="node5" class="node"><title>dir_ee52762a54ed24851c9ca23cf72f1a00</title>
<g id="a_node5"><a xlink:href="dir_ee52762a54ed24851c9ca23cf72f1a00.xhtml" target="_top" xlink:title="public">
<polygon fill="none" stroke="black" points="192,-211 138,-211 138,-175 192,-175 192,-211"/>
<text text-anchor="middle" x="165" y="-190.5" font-family="Helvetica,sans-Serif" font-size="10.00">public</text>
</a>
</g>
</g>
<!-- dir_78b5e0a243888fb9785f340b050804d7&#45;&gt;dir_ee52762a54ed24851c9ca23cf72f1a00 -->
<g id="edge6" class="edge"><title>dir_78b5e0a243888fb9785f340b050804d7&#45;&gt;dir_ee52762a54ed24851c9ca23cf72f1a00</title>
<path fill="none" stroke="black" d="M128.916,-132.041C132.884,-142.001 139.118,-154.776 145.393,-165.973"/>
<polygon fill="black" stroke="black" points="142.552,-168.049 150.625,-174.911 148.594,-164.513 142.552,-168.049"/>
<g id="a_edge6&#45;headlabel"><a xlink:href="dir_000022_000025.xhtml" target="_top" xlink:title="7">
<text text-anchor="middle" x="138.286" y="-163.881" font-family="Helvetica,sans-Serif" font-size="10.00">7</text>
</a>
</g>
</g>
<!-- dir_33953da122726b9905cb02c38c71bd0c -->
<g id="node4" class="node"><title>dir_33953da122726b9905cb02c38c71bd0c</title>
<g id="a_node4"><a xlink:href="dir_33953da122726b9905cb02c38c71bd0c.xhtml" target="_top" xlink:title="link">
<polygon fill="none" stroke="black" points="232,-132 178,-132 178,-96 232,-96 232,-132"/>
<text text-anchor="middle" x="205" y="-111.5" font-family="Helvetica,sans-Serif" font-size="10.00">link</text>
</a>
</g>
</g>
<!-- dir_9a525e6df3ce662347fd0125e10bcda2&#45;&gt;dir_33953da122726b9905cb02c38c71bd0c -->
<g id="edge3" class="edge"><title>dir_9a525e6df3ce662347fd0125e10bcda2&#45;&gt;dir_33953da122726b9905cb02c38c71bd0c</title>
<path fill="none" stroke="black" d="M139.408,-60.1043C148.402,-68.8894 160.462,-79.7323 171.837,-89.3094"/>
<polygon fill="black" stroke="black" points="169.62,-92.0181 179.556,-95.6966 174.083,-86.625 169.62,-92.0181"/>
<g id="a_edge3&#45;headlabel"><a xlink:href="dir_000023_000021.xhtml" target="_top" xlink:title="1">
<text text-anchor="middle" x="165.041" y="-89.4141" font-family="Helvetica,sans-Serif" font-size="10.00">1</text>
</a>
</g>
</g>
<!-- dir_33953da122726b9905cb02c38c71bd0c&#45;&gt;dir_78b5e0a243888fb9785f340b050804d7 -->
<g id="edge2" class="edge"><title>dir_33953da122726b9905cb02c38c71bd0c&#45;&gt;dir_78b5e0a243888fb9785f340b050804d7</title>
<path fill="none" stroke="black" d="M177.863,-114C172.973,-114 168.083,-114 163.193,-114"/>
<polygon fill="black" stroke="black" points="163.156,-110.5 153.156,-114 163.156,-117.5 163.156,-110.5"/>
<g id="a_edge2&#45;headlabel"><a xlink:href="dir_000021_000022.xhtml" target="_top" xlink:title="3">
<text text-anchor="middle" x="166.751" y="-105.161" font-family="Helvetica,sans-Serif" font-size="10.00">3</text>
</a>
</g>
</g>
<!-- dir_33953da122726b9905cb02c38c71bd0c&#45;&gt;dir_9a525e6df3ce662347fd0125e10bcda2 -->
<g id="edge1" class="edge"><title>dir_33953da122726b9905cb02c38c71bd0c&#45;&gt;dir_9a525e6df3ce662347fd0125e10bcda2</title>
<path fill="none" stroke="black" d="M191.388,-95.6966C182.435,-86.9655 170.502,-76.2405 159.234,-66.7503"/>
<polygon fill="black" stroke="black" points="161.135,-63.7807 151.198,-60.1043 156.674,-69.1748 161.135,-63.7807"/>
<g id="a_edge1&#45;headlabel"><a xlink:href="dir_000021_000023.xhtml" target="_top" xlink:title="1">
<text text-anchor="middle" x="165.715" y="-61.3837" font-family="Helvetica,sans-Serif" font-size="10.00">1</text>
</a>
</g>
</g>
<!-- dir_ee52762a54ed24851c9ca23cf72f1a00&#45;&gt;dir_78b5e0a243888fb9785f340b050804d7 -->
<g id="edge8" class="edge"><title>dir_ee52762a54ed24851c9ca23cf72f1a00&#45;&gt;dir_78b5e0a243888fb9785f340b050804d7</title>
<path fill="none" stroke="black" d="M162.065,-174.911C158.09,-164.942 151.852,-152.165 145.577,-140.973"/>
<polygon fill="black" stroke="black" points="148.42,-138.901 140.346,-132.041 142.379,-142.439 148.42,-138.901"/>
<g id="a_edge8&#45;headlabel"><a xlink:href="dir_000025_000022.xhtml" target="_top" xlink:title="7">
<text text-anchor="middle" x="152.686" y="-138.068" font-family="Helvetica,sans-Serif" font-size="10.00">7</text>
</a>
</g>
</g>
<!-- dir_ee52762a54ed24851c9ca23cf72f1a00&#45;&gt;dir_33953da122726b9905cb02c38c71bd0c -->
<g id="edge7" class="edge"><title>dir_ee52762a54ed24851c9ca23cf72f1a00&#45;&gt;dir_33953da122726b9905cb02c38c71bd0c</title>
<path fill="none" stroke="black" d="M173.877,-174.911C179.056,-164.942 185.693,-152.165 191.507,-140.973"/>
<polygon fill="black" stroke="black" points="194.643,-142.529 196.148,-132.041 188.432,-139.302 194.643,-142.529"/>
<g id="a_edge7&#45;headlabel"><a xlink:href="dir_000025_000021.xhtml" target="_top" xlink:title="1">
<text text-anchor="middle" x="195.506" y="-144.527" font-family="Helvetica,sans-Serif" font-size="10.00">1</text>
</a>
</g>
</g>
</g>
</svg>
