<?xml version="1.0" encoding="UTF-8" standalone="no"?>
<!DOCTYPE svg PUBLIC "-//W3C//DTD SVG 1.1//EN"
 "http://www.w3.org/Graphics/SVG/1.1/DTD/svg11.dtd">
<!-- Generated by graphviz version 2.38.0 (20140413.2041)
 -->
<!-- Title: C:/Users/Jameson/Documents/git&#45;projects/openage/libopenage/event/eventfilter.h Pages: 1 -->
<svg width="1224pt" height="596pt"
 viewBox="0.00 0.00 1224.00 596.00" xmlns="http://www.w3.org/2000/svg" xmlns:xlink="http://www.w3.org/1999/xlink">
<g id="graph0" class="graph" transform="scale(1 1) rotate(0) translate(4 592)">
<title>C:/Users/Jameson/Documents/git&#45;projects/openage/libopenage/event/eventfilter.h</title>
<polygon fill="white" stroke="none" points="-4,4 -4,-592 1220,-592 1220,4 -4,4"/>
<!-- Node41 -->
<g id="node1" class="node"><title>Node41</title>
<g id="a_node1"><a xlink:title=" ">
<polygon fill="#bfbfbf" stroke="black" points="742,-546.5 742,-587.5 899,-587.5 899,-546.5 742,-546.5"/>
<text text-anchor="start" x="750" y="-575.5" font-family="Helvetica,sans-Serif" font-size="10.00">C:/Users/Jameson/Documents</text>
<text text-anchor="start" x="750" y="-564.5" font-family="Helvetica,sans-Serif" font-size="10.00">/git&#45;projects/openage/libopenage</text>
<text text-anchor="middle" x="820.5" y="-553.5" font-family="Helvetica,sans-Serif" font-size="10.00">/event/eventfilter.h</text>
</a>
</g>
</g>
<!-- Node42 -->
<g id="node2" class="node"><title>Node42</title>
<g id="a_node2"><a xlink:href="event_2loop_8h.xhtml" target="_top" xlink:title=" ">
<polygon fill="white" stroke="black" points="655,-468.5 655,-509.5 812,-509.5 812,-468.5 655,-468.5"/>
<text text-anchor="start" x="663" y="-497.5" font-family="Helvetica,sans-Serif" font-size="10.00">C:/Users/Jameson/Documents</text>
<text text-anchor="start" x="663" y="-486.5" font-family="Helvetica,sans-Serif" font-size="10.00">/git&#45;projects/openage/libopenage</text>
<text text-anchor="middle" x="733.5" y="-475.5" font-family="Helvetica,sans-Serif" font-size="10.00">/event/loop.h</text>
</a>
</g>
</g>
<!-- Node41&#45;&gt;Node42 -->
<g id="edge1" class="edge"><title>Node41&#45;&gt;Node42</title>
<path fill="none" stroke="midnightblue" d="M790.483,-539.779C779.11,-529.843 766.372,-518.716 755.829,-509.506"/>
<polygon fill="midnightblue" stroke="midnightblue" points="788.262,-542.485 798.095,-546.428 792.867,-537.213 788.262,-542.485"/>
</g>
<!-- Node63 -->
<g id="node23" class="node"><title>Node63</title>
<g id="a_node23"><a xlink:href="eventfilter_8cpp.xhtml" target="_top" xlink:title=" ">
<polygon fill="white" stroke="black" points="830,-468.5 830,-509.5 987,-509.5 987,-468.5 830,-468.5"/>
<text text-anchor="start" x="838" y="-497.5" font-family="Helvetica,sans-Serif" font-size="10.00">C:/Users/Jameson/Documents</text>
<text text-anchor="start" x="838" y="-486.5" font-family="Helvetica,sans-Serif" font-size="10.00">/git&#45;projects/openage/libopenage</text>
<text text-anchor="middle" x="908.5" y="-475.5" font-family="Helvetica,sans-Serif" font-size="10.00">/event/eventfilter.cpp</text>
</a>
</g>
</g>
<!-- Node41&#45;&gt;Node63 -->
<g id="edge30" class="edge"><title>Node41&#45;&gt;Node63</title>
<path fill="none" stroke="midnightblue" d="M850.862,-539.779C862.366,-529.843 875.25,-518.716 885.915,-509.506"/>
<polygon fill="midnightblue" stroke="midnightblue" points="848.443,-537.243 843.162,-546.428 853.018,-542.541 848.443,-537.243"/>
</g>
<!-- Node43 -->
<g id="node3" class="node"><title>Node43</title>
<g id="a_node3"><a xlink:href="keyframe__container_8h.xhtml" target="_top" xlink:title=" ">
<polygon fill="white" stroke="black" points="407,-390.5 407,-431.5 564,-431.5 564,-390.5 407,-390.5"/>
<text text-anchor="start" x="415" y="-419.5" font-family="Helvetica,sans-Serif" font-size="10.00">C:/Users/Jameson/Documents</text>
<text text-anchor="start" x="415" y="-408.5" font-family="Helvetica,sans-Serif" font-size="10.00">/git&#45;projects/openage/libopenage</text>
<text text-anchor="middle" x="485.5" y="-397.5" font-family="Helvetica,sans-Serif" font-size="10.00">/curve/keyframe_container.h</text>
</a>
</g>
</g>
<!-- Node42&#45;&gt;Node43 -->
<g id="edge2" class="edge"><title>Node42&#45;&gt;Node43</title>
<path fill="none" stroke="midnightblue" d="M659.891,-465.442C624.69,-454.655 582.961,-441.867 549.15,-431.506"/>
<polygon fill="midnightblue" stroke="midnightblue" points="659.047,-468.844 669.634,-468.428 661.098,-462.152 659.047,-468.844"/>
</g>
<!-- Node48 -->
<g id="node8" class="node"><title>Node48</title>
<g id="a_node8"><a xlink:href="curve__types_8cpp.xhtml" target="_top" xlink:title=" ">
<polygon fill="white" stroke="black" points="0,-156.5 0,-197.5 157,-197.5 157,-156.5 0,-156.5"/>
<text text-anchor="start" x="8" y="-185.5" font-family="Helvetica,sans-Serif" font-size="10.00">C:/Users/Jameson/Documents</text>
<text text-anchor="start" x="8" y="-174.5" font-family="Helvetica,sans-Serif" font-size="10.00">/git&#45;projects/openage/libopenage</text>
<text text-anchor="middle" x="78.5" y="-163.5" font-family="Helvetica,sans-Serif" font-size="10.00">/curve/tests/curve_types.cpp</text>
</a>
</g>
</g>
<!-- Node42&#45;&gt;Node48 -->
<g id="edge25" class="edge"><title>Node42&#45;&gt;Node48</title>
<path fill="none" stroke="midnightblue" d="M644.529,-482.796C530.418,-472.596 329.917,-442.508 184.5,-354 140.702,-327.342 124.963,-320.503 99.5,-276 85.4146,-251.383 80.7525,-218.384 79.224,-197.657"/>
<polygon fill="midnightblue" stroke="midnightblue" points="644.357,-486.294 654.621,-483.667 644.959,-479.32 644.357,-486.294"/>
</g>
<!-- Node49 -->
<g id="node9" class="node"><title>Node49</title>
<g id="a_node9"><a xlink:href="gamestate_8h.xhtml" target="_top" xlink:title=" ">
<polygon fill="white" stroke="black" points="525,-156.5 525,-197.5 682,-197.5 682,-156.5 525,-156.5"/>
<text text-anchor="start" x="533" y="-185.5" font-family="Helvetica,sans-Serif" font-size="10.00">C:/Users/Jameson/Documents</text>
<text text-anchor="start" x="533" y="-174.5" font-family="Helvetica,sans-Serif" font-size="10.00">/git&#45;projects/openage/libopenage</text>
<text text-anchor="middle" x="603.5" y="-163.5" font-family="Helvetica,sans-Serif" font-size="10.00">/event/demo/gamestate.h</text>
</a>
</g>
</g>
<!-- Node42&#45;&gt;Node49 -->
<g id="edge26" class="edge"><title>Node42&#45;&gt;Node49</title>
<path fill="none" stroke="midnightblue" d="M713.788,-459.88C708.481,-451.256 703.194,-441.523 699.5,-432 667.061,-348.381 703.056,-312.952 660.5,-234 652.996,-220.079 640.872,-207.451 629.731,-197.726"/>
<polygon fill="midnightblue" stroke="midnightblue" points="710.914,-461.882 719.259,-468.41 716.806,-458.103 710.914,-461.882"/>
</g>
<!-- Node60 -->
<g id="node20" class="node"><title>Node60</title>
<g id="a_node20"><a xlink:href="eventtarget_8cpp.xhtml" target="_top" xlink:title=" ">
<polygon fill="white" stroke="black" points="709,-390.5 709,-431.5 866,-431.5 866,-390.5 709,-390.5"/>
<text text-anchor="start" x="717" y="-419.5" font-family="Helvetica,sans-Serif" font-size="10.00">C:/Users/Jameson/Documents</text>
<text text-anchor="start" x="717" y="-408.5" font-family="Helvetica,sans-Serif" font-size="10.00">/git&#45;projects/openage/libopenage</text>
<text text-anchor="middle" x="787.5" y="-397.5" font-family="Helvetica,sans-Serif" font-size="10.00">/event/eventtarget.cpp</text>
</a>
</g>
</g>
<!-- Node42&#45;&gt;Node60 -->
<g id="edge27" class="edge"><title>Node42&#45;&gt;Node60</title>
<path fill="none" stroke="midnightblue" d="M753.361,-460.048C760.098,-450.566 767.474,-440.185 773.641,-431.506"/>
<polygon fill="midnightblue" stroke="midnightblue" points="750.345,-458.249 747.406,-468.428 756.052,-462.304 750.345,-458.249"/>
</g>
<!-- Node61 -->
<g id="node21" class="node"><title>Node61</title>
<g id="a_node21"><a xlink:href="loop_8cpp.xhtml" target="_top" xlink:title=" ">
<polygon fill="white" stroke="black" points="884,-390.5 884,-431.5 1041,-431.5 1041,-390.5 884,-390.5"/>
<text text-anchor="start" x="892" y="-419.5" font-family="Helvetica,sans-Serif" font-size="10.00">C:/Users/Jameson/Documents</text>
<text text-anchor="start" x="892" y="-408.5" font-family="Helvetica,sans-Serif" font-size="10.00">/git&#45;projects/openage/libopenage</text>
<text text-anchor="middle" x="962.5" y="-397.5" font-family="Helvetica,sans-Serif" font-size="10.00">/event/loop.cpp</text>
</a>
</g>
</g>
<!-- Node42&#45;&gt;Node61 -->
<g id="edge28" class="edge"><title>Node42&#45;&gt;Node61</title>
<path fill="none" stroke="midnightblue" d="M802.305,-465.165C834.632,-454.437 872.772,-441.779 903.727,-431.506"/>
<polygon fill="midnightblue" stroke="midnightblue" points="800.862,-461.956 792.473,-468.428 803.067,-468.6 800.862,-461.956"/>
</g>
<!-- Node62 -->
<g id="node22" class="node"><title>Node62</title>
<g id="a_node22"><a xlink:href="event_2tests_8cpp.xhtml" target="_top" xlink:title=" ">
<polygon fill="white" stroke="black" points="1059,-390.5 1059,-431.5 1216,-431.5 1216,-390.5 1059,-390.5"/>
<text text-anchor="start" x="1067" y="-419.5" font-family="Helvetica,sans-Serif" font-size="10.00">C:/Users/Jameson/Documents</text>
<text text-anchor="start" x="1067" y="-408.5" font-family="Helvetica,sans-Serif" font-size="10.00">/git&#45;projects/openage/libopenage</text>
<text text-anchor="middle" x="1137.5" y="-397.5" font-family="Helvetica,sans-Serif" font-size="10.00">/event/tests.cpp</text>
</a>
</g>
</g>
<!-- Node42&#45;&gt;Node62 -->
<g id="edge29" class="edge"><title>Node42&#45;&gt;Node62</title>
<path fill="none" stroke="midnightblue" d="M822.234,-467.731C923.842,-448.575 952.082,-450.99 1050.5,-432 1053.24,-431.471 1056.02,-430.918 1058.83,-430.347"/>
<polygon fill="midnightblue" stroke="midnightblue" points="821.334,-464.339 812.168,-469.653 822.647,-471.215 821.334,-464.339"/>
</g>
<!-- Node44 -->
<g id="node4" class="node"><title>Node44</title>
<g id="a_node4"><a xlink:href="value__container_8h.xhtml" target="_top" xlink:title=" ">
<polygon fill="white" stroke="black" points="320,-312.5 320,-353.5 477,-353.5 477,-312.5 320,-312.5"/>
<text text-anchor="start" x="328" y="-341.5" font-family="Helvetica,sans-Serif" font-size="10.00">C:/Users/Jameson/Documents</text>
<text text-anchor="start" x="328" y="-330.5" font-family="Helvetica,sans-Serif" font-size="10.00">/git&#45;projects/openage/libopenage</text>
<text text-anchor="middle" x="398.5" y="-319.5" font-family="Helvetica,sans-Serif" font-size="10.00">/curve/value_container.h</text>
</a>
</g>
</g>
<!-- Node43&#45;&gt;Node44 -->
<g id="edge3" class="edge"><title>Node43&#45;&gt;Node44</title>
<path fill="none" stroke="midnightblue" d="M455.483,-383.779C444.11,-373.843 431.372,-362.716 420.829,-353.506"/>
<polygon fill="midnightblue" stroke="midnightblue" points="453.262,-386.485 463.095,-390.428 457.867,-381.213 453.262,-386.485"/>
</g>
<!-- Node43&#45;&gt;Node48 -->
<g id="edge24" class="edge"><title>Node43&#45;&gt;Node48</title>
<path fill="none" stroke="midnightblue" d="M396.556,-394.558C319.612,-377.221 209.402,-342.354 135.5,-276 111.189,-254.172 94.4393,-219.446 85.6671,-197.727"/>
<polygon fill="midnightblue" stroke="midnightblue" points="396.195,-398.062 406.713,-396.789 397.696,-391.225 396.195,-398.062"/>
</g>
<!-- Node59 -->
<g id="node19" class="node"><title>Node59</title>
<g id="a_node19"><a xlink:href="keyframe__container_8cpp.xhtml" target="_top" xlink:title=" ">
<polygon fill="white" stroke="black" points="495,-312.5 495,-353.5 652,-353.5 652,-312.5 495,-312.5"/>
<text text-anchor="start" x="503" y="-341.5" font-family="Helvetica,sans-Serif" font-size="10.00">C:/Users/Jameson/Documents</text>
<text text-anchor="start" x="503" y="-330.5" font-family="Helvetica,sans-Serif" font-size="10.00">/git&#45;projects/openage/libopenage</text>
<text text-anchor="middle" x="573.5" y="-319.5" font-family="Helvetica,sans-Serif" font-size="10.00">/curve/keyframe_container.cpp</text>
</a>
</g>
</g>
<!-- Node43&#45;&gt;Node59 -->
<g id="edge23" class="edge"><title>Node43&#45;&gt;Node59</title>
<path fill="none" stroke="midnightblue" d="M515.862,-383.779C527.366,-373.843 540.25,-362.716 550.915,-353.506"/>
<polygon fill="midnightblue" stroke="midnightblue" points="513.443,-381.243 508.162,-390.428 518.018,-386.541 513.443,-381.243"/>
</g>
<!-- Node45 -->
<g id="node5" class="node"><title>Node45</title>
<g id="a_node5"><a xlink:href="continuous_8h.xhtml" target="_top" xlink:title=" ">
<polygon fill="white" stroke="black" points="145,-234.5 145,-275.5 302,-275.5 302,-234.5 145,-234.5"/>
<text text-anchor="start" x="153" y="-263.5" font-family="Helvetica,sans-Serif" font-size="10.00">C:/Users/Jameson/Documents</text>
<text text-anchor="start" x="153" y="-252.5" font-family="Helvetica,sans-Serif" font-size="10.00">/git&#45;projects/openage/libopenage</text>
<text text-anchor="middle" x="223.5" y="-241.5" font-family="Helvetica,sans-Serif" font-size="10.00">/curve/continuous.h</text>
</a>
</g>
</g>
<!-- Node44&#45;&gt;Node45 -->
<g id="edge4" class="edge"><title>Node44&#45;&gt;Node45</title>
<path fill="none" stroke="midnightblue" d="M343.995,-308.329C319.712,-297.783 291.457,-285.513 268.414,-275.506"/>
<polygon fill="midnightblue" stroke="midnightblue" points="342.867,-311.655 353.433,-312.428 345.655,-305.234 342.867,-311.655"/>
</g>
<!-- Node56 -->
<g id="node16" class="node"><title>Node56</title>
<g id="a_node16"><a xlink:href="discrete_8h.xhtml" target="_top" xlink:title=" ">
<polygon fill="white" stroke="black" points="495,-234.5 495,-275.5 652,-275.5 652,-234.5 495,-234.5"/>
<text text-anchor="start" x="503" y="-263.5" font-family="Helvetica,sans-Serif" font-size="10.00">C:/Users/Jameson/Documents</text>
<text text-anchor="start" x="503" y="-252.5" font-family="Helvetica,sans-Serif" font-size="10.00">/git&#45;projects/openage/libopenage</text>
<text text-anchor="middle" x="573.5" y="-241.5" font-family="Helvetica,sans-Serif" font-size="10.00">/curve/discrete.h</text>
</a>
</g>
</g>
<!-- Node44&#45;&gt;Node56 -->
<g id="edge17" class="edge"><title>Node44&#45;&gt;Node56</title>
<path fill="none" stroke="midnightblue" d="M453.005,-308.329C477.288,-297.783 505.543,-285.513 528.586,-275.506"/>
<polygon fill="midnightblue" stroke="midnightblue" points="451.345,-305.234 443.567,-312.428 454.133,-311.655 451.345,-305.234"/>
</g>
<!-- Node58 -->
<g id="node18" class="node"><title>Node58</title>
<g id="a_node18"><a xlink:href="value__container_8cpp.xhtml" target="_top" xlink:title=" ">
<polygon fill="white" stroke="black" points="320,-234.5 320,-275.5 477,-275.5 477,-234.5 320,-234.5"/>
<text text-anchor="start" x="328" y="-263.5" font-family="Helvetica,sans-Serif" font-size="10.00">C:/Users/Jameson/Documents</text>
<text text-anchor="start" x="328" y="-252.5" font-family="Helvetica,sans-Serif" font-size="10.00">/git&#45;projects/openage/libopenage</text>
<text text-anchor="middle" x="398.5" y="-241.5" font-family="Helvetica,sans-Serif" font-size="10.00">/curve/value_container.cpp</text>
</a>
</g>
</g>
<!-- Node44&#45;&gt;Node58 -->
<g id="edge22" class="edge"><title>Node44&#45;&gt;Node58</title>
<path fill="none" stroke="midnightblue" d="M398.5,-302.297C398.5,-293.301 398.5,-283.653 398.5,-275.506"/>
<polygon fill="midnightblue" stroke="midnightblue" points="395,-302.428 398.5,-312.428 402,-302.428 395,-302.428"/>
</g>
<!-- Node46 -->
<g id="node6" class="node"><title>Node46</title>
<g id="a_node6"><a xlink:href="continuous_8cpp.xhtml" target="_top" xlink:title=" ">
<polygon fill="white" stroke="black" points="175,-156.5 175,-197.5 332,-197.5 332,-156.5 175,-156.5"/>
<text text-anchor="start" x="183" y="-185.5" font-family="Helvetica,sans-Serif" font-size="10.00">C:/Users/Jameson/Documents</text>
<text text-anchor="start" x="183" y="-174.5" font-family="Helvetica,sans-Serif" font-size="10.00">/git&#45;projects/openage/libopenage</text>
<text text-anchor="middle" x="253.5" y="-163.5" font-family="Helvetica,sans-Serif" font-size="10.00">/curve/continuous.cpp</text>
</a>
</g>
</g>
<!-- Node45&#45;&gt;Node46 -->
<g id="edge5" class="edge"><title>Node45&#45;&gt;Node46</title>
<path fill="none" stroke="midnightblue" d="M234.994,-224.882C238.61,-215.721 242.514,-205.83 245.8,-197.506"/>
<polygon fill="midnightblue" stroke="midnightblue" points="231.642,-223.841 231.226,-234.428 238.153,-226.412 231.642,-223.841"/>
</g>
<!-- Node47 -->
<g id="node7" class="node"><title>Node47</title>
<g id="a_node7"><a xlink:href="container_8cpp.xhtml" target="_top" xlink:title=" ">
<polygon fill="white" stroke="black" points="350,-156.5 350,-197.5 507,-197.5 507,-156.5 350,-156.5"/>
<text text-anchor="start" x="358" y="-185.5" font-family="Helvetica,sans-Serif" font-size="10.00">C:/Users/Jameson/Documents</text>
<text text-anchor="start" x="358" y="-174.5" font-family="Helvetica,sans-Serif" font-size="10.00">/git&#45;projects/openage/libopenage</text>
<text text-anchor="middle" x="428.5" y="-163.5" font-family="Helvetica,sans-Serif" font-size="10.00">/curve/tests/container.cpp</text>
</a>
</g>
</g>
<!-- Node45&#45;&gt;Node47 -->
<g id="edge6" class="edge"><title>Node45&#45;&gt;Node47</title>
<path fill="none" stroke="midnightblue" d="M285.843,-230.887C314.621,-220.219 348.415,-207.69 375.886,-197.506"/>
<polygon fill="midnightblue" stroke="midnightblue" points="284.452,-227.67 276.293,-234.428 286.886,-234.234 284.452,-227.67"/>
</g>
<!-- Node45&#45;&gt;Node48 -->
<g id="edge7" class="edge"><title>Node45&#45;&gt;Node48</title>
<path fill="none" stroke="midnightblue" d="M177.267,-229.768C157.391,-219.35 134.47,-207.336 115.715,-197.506"/>
<polygon fill="midnightblue" stroke="midnightblue" points="175.677,-232.886 186.159,-234.428 178.927,-226.686 175.677,-232.886"/>
</g>
<!-- Node45&#45;&gt;Node49 -->
<g id="edge8" class="edge"><title>Node45&#45;&gt;Node49</title>
<path fill="none" stroke="midnightblue" d="M312.072,-233.73C402.858,-215.652 427.914,-215.632 515.5,-198 518.572,-197.382 521.701,-196.738 524.859,-196.076"/>
<polygon fill="midnightblue" stroke="midnightblue" points="311.295,-230.316 302.181,-235.719 312.674,-237.179 311.295,-230.316"/>
</g>
<!-- Node50 -->
<g id="node10" class="node"><title>Node50</title>
<g id="a_node10"><a xlink:href="aicontroller_8h.xhtml" target="_top" xlink:title=" ">
<polygon fill="white" stroke="black" points="364,-78.5 364,-119.5 521,-119.5 521,-78.5 364,-78.5"/>
<text text-anchor="start" x="372" y="-107.5" font-family="Helvetica,sans-Serif" font-size="10.00">C:/Users/Jameson/Documents</text>
<text text-anchor="start" x="372" y="-96.5" font-family="Helvetica,sans-Serif" font-size="10.00">/git&#45;projects/openage/libopenage</text>
<text text-anchor="middle" x="442.5" y="-85.5" font-family="Helvetica,sans-Serif" font-size="10.00">/event/demo/aicontroller.h</text>
</a>
</g>
</g>
<!-- Node49&#45;&gt;Node50 -->
<g id="edge9" class="edge"><title>Node49&#45;&gt;Node50</title>
<path fill="none" stroke="midnightblue" d="M552.761,-152.049C530.555,-141.566 504.833,-129.424 483.821,-119.506"/>
<polygon fill="midnightblue" stroke="midnightblue" points="551.501,-155.324 562.038,-156.428 554.489,-148.994 551.501,-155.324"/>
</g>
<!-- Node52 -->
<g id="node12" class="node"><title>Node52</title>
<g id="a_node12"><a xlink:href="event_2demo_2main_8cpp.xhtml" target="_top" xlink:title=" ">
<polygon fill="white" stroke="black" points="471,-0.5 471,-41.5 628,-41.5 628,-0.5 471,-0.5"/>
<text text-anchor="start" x="479" y="-29.5" font-family="Helvetica,sans-Serif" font-size="10.00">C:/Users/Jameson/Documents</text>
<text text-anchor="start" x="479" y="-18.5" font-family="Helvetica,sans-Serif" font-size="10.00">/git&#45;projects/openage/libopenage</text>
<text text-anchor="middle" x="549.5" y="-7.5" font-family="Helvetica,sans-Serif" font-size="10.00">/event/demo/main.cpp</text>
</a>
</g>
</g>
<!-- Node49&#45;&gt;Node52 -->
<g id="edge13" class="edge"><title>Node49&#45;&gt;Node52</title>
<path fill="none" stroke="midnightblue" d="M583.168,-147.952C577.704,-139.33 572.272,-129.58 568.5,-120 558.279,-94.0371 553.399,-61.9694 551.185,-41.7445"/>
<polygon fill="midnightblue" stroke="midnightblue" points="580.369,-150.065 588.805,-156.474 586.208,-146.203 580.369,-150.065"/>
</g>
<!-- Node53 -->
<g id="node13" class="node"><title>Node53</title>
<g id="a_node13"><a xlink:href="gamestate_8cpp.xhtml" target="_top" xlink:title=" ">
<polygon fill="white" stroke="black" points="753,-78.5 753,-119.5 910,-119.5 910,-78.5 753,-78.5"/>
<text text-anchor="start" x="761" y="-107.5" font-family="Helvetica,sans-Serif" font-size="10.00">C:/Users/Jameson/Documents</text>
<text text-anchor="start" x="761" y="-96.5" font-family="Helvetica,sans-Serif" font-size="10.00">/git&#45;projects/openage/libopenage</text>
<text text-anchor="middle" x="831.5" y="-85.5" font-family="Helvetica,sans-Serif" font-size="10.00">/event/demo/gamestate.cpp</text>
</a>
</g>
</g>
<!-- Node49&#45;&gt;Node53 -->
<g id="edge12" class="edge"><title>Node49&#45;&gt;Node53</title>
<path fill="none" stroke="midnightblue" d="M672.004,-153.165C704.19,-142.437 742.164,-129.779 772.983,-119.506"/>
<polygon fill="midnightblue" stroke="midnightblue" points="670.596,-149.945 662.216,-156.428 672.809,-156.586 670.596,-149.945"/>
</g>
<!-- Node54 -->
<g id="node14" class="node"><title>Node54</title>
<g id="a_node14"><a xlink:href="physics_8h.xhtml" target="_top" xlink:title=" ">
<polygon fill="white" stroke="black" points="578,-78.5 578,-119.5 735,-119.5 735,-78.5 578,-78.5"/>
<text text-anchor="start" x="586" y="-107.5" font-family="Helvetica,sans-Serif" font-size="10.00">C:/Users/Jameson/Documents</text>
<text text-anchor="start" x="586" y="-96.5" font-family="Helvetica,sans-Serif" font-size="10.00">/git&#45;projects/openage/libopenage</text>
<text text-anchor="middle" x="656.5" y="-85.5" font-family="Helvetica,sans-Serif" font-size="10.00">/event/demo/physics.h</text>
</a>
</g>
</g>
<!-- Node49&#45;&gt;Node54 -->
<g id="edge14" class="edge"><title>Node49&#45;&gt;Node54</title>
<path fill="none" stroke="midnightblue" d="M622.993,-148.048C629.606,-138.566 636.845,-128.185 642.897,-119.506"/>
<polygon fill="midnightblue" stroke="midnightblue" points="619.998,-146.224 617.149,-156.428 625.74,-150.228 619.998,-146.224"/>
</g>
<!-- Node51 -->
<g id="node11" class="node"><title>Node51</title>
<g id="a_node11"><a xlink:href="aicontroller_8cpp.xhtml" target="_top" xlink:title=" ">
<polygon fill="white" stroke="black" points="296,-0.5 296,-41.5 453,-41.5 453,-0.5 296,-0.5"/>
<text text-anchor="start" x="304" y="-29.5" font-family="Helvetica,sans-Serif" font-size="10.00">C:/Users/Jameson/Documents</text>
<text text-anchor="start" x="304" y="-18.5" font-family="Helvetica,sans-Serif" font-size="10.00">/git&#45;projects/openage/libopenage</text>
<text text-anchor="middle" x="374.5" y="-7.5" font-family="Helvetica,sans-Serif" font-size="10.00">/event/demo/aicontroller.cpp</text>
</a>
</g>
</g>
<!-- Node50&#45;&gt;Node51 -->
<g id="edge10" class="edge"><title>Node50&#45;&gt;Node51</title>
<path fill="none" stroke="midnightblue" d="M418.267,-70.9158C409.576,-61.2029 399.955,-50.4502 391.952,-41.5056"/>
<polygon fill="midnightblue" stroke="midnightblue" points="415.712,-73.3095 424.988,-78.4281 420.929,-68.6419 415.712,-73.3095"/>
</g>
<!-- Node50&#45;&gt;Node52 -->
<g id="edge11" class="edge"><title>Node50&#45;&gt;Node52</title>
<path fill="none" stroke="midnightblue" d="M478.211,-72.6352C492.499,-62.4868 508.697,-50.9816 522.038,-41.5056"/>
<polygon fill="midnightblue" stroke="midnightblue" points="476.181,-69.7839 470.055,-78.4281 480.235,-75.4908 476.181,-69.7839"/>
</g>
<!-- Node54&#45;&gt;Node52 -->
<g id="edge15" class="edge"><title>Node54&#45;&gt;Node52</title>
<path fill="none" stroke="midnightblue" d="M620.789,-72.6352C606.501,-62.4868 590.303,-50.9816 576.962,-41.5056"/>
<polygon fill="midnightblue" stroke="midnightblue" points="618.765,-75.4908 628.945,-78.4281 622.819,-69.7839 618.765,-75.4908"/>
</g>
<!-- Node55 -->
<g id="node15" class="node"><title>Node55</title>
<g id="a_node15"><a xlink:href="physics_8cpp.xhtml" target="_top" xlink:title=" ">
<polygon fill="white" stroke="black" points="646,-0.5 646,-41.5 803,-41.5 803,-0.5 646,-0.5"/>
<text text-anchor="start" x="654" y="-29.5" font-family="Helvetica,sans-Serif" font-size="10.00">C:/Users/Jameson/Documents</text>
<text text-anchor="start" x="654" y="-18.5" font-family="Helvetica,sans-Serif" font-size="10.00">/git&#45;projects/openage/libopenage</text>
<text text-anchor="middle" x="724.5" y="-7.5" font-family="Helvetica,sans-Serif" font-size="10.00">/event/demo/physics.cpp</text>
</a>
</g>
</g>
<!-- Node54&#45;&gt;Node55 -->
<g id="edge16" class="edge"><title>Node54&#45;&gt;Node55</title>
<path fill="none" stroke="midnightblue" d="M680.733,-70.9158C689.424,-61.2029 699.045,-50.4502 707.048,-41.5056"/>
<polygon fill="midnightblue" stroke="midnightblue" points="678.071,-68.6419 674.012,-78.4281 683.288,-73.3095 678.071,-68.6419"/>
</g>
<!-- Node56&#45;&gt;Node47 -->
<g id="edge19" class="edge"><title>Node56&#45;&gt;Node47</title>
<path fill="none" stroke="midnightblue" d="M527.267,-229.768C507.391,-219.35 484.47,-207.336 465.715,-197.506"/>
<polygon fill="midnightblue" stroke="midnightblue" points="525.677,-232.886 536.159,-234.428 528.927,-226.686 525.677,-232.886"/>
</g>
<!-- Node56&#45;&gt;Node48 -->
<g id="edge20" class="edge"><title>Node56&#45;&gt;Node48</title>
<path fill="none" stroke="midnightblue" d="M484.93,-234.014C342.639,-210.623 303.412,-221.531 165.5,-198 162.75,-197.531 159.957,-197.029 157.14,-196.501"/>
<polygon fill="midnightblue" stroke="midnightblue" points="484.464,-237.484 494.904,-235.681 485.618,-230.58 484.464,-237.484"/>
</g>
<!-- Node56&#45;&gt;Node49 -->
<g id="edge21" class="edge"><title>Node56&#45;&gt;Node49</title>
<path fill="none" stroke="midnightblue" d="M584.994,-224.882C588.61,-215.721 592.514,-205.83 595.8,-197.506"/>
<polygon fill="midnightblue" stroke="midnightblue" points="581.642,-223.841 581.226,-234.428 588.153,-226.412 581.642,-223.841"/>
</g>
<!-- Node57 -->
<g id="node17" class="node"><title>Node57</title>
<g id="a_node17"><a xlink:href="discrete_8cpp.xhtml" target="_top" xlink:title=" ">
<polygon fill="white" stroke="black" points="700,-156.5 700,-197.5 857,-197.5 857,-156.5 700,-156.5"/>
<text text-anchor="start" x="708" y="-185.5" font-family="Helvetica,sans-Serif" font-size="10.00">C:/Users/Jameson/Documents</text>
<text text-anchor="start" x="708" y="-174.5" font-family="Helvetica,sans-Serif" font-size="10.00">/git&#45;projects/openage/libopenage</text>
<text text-anchor="middle" x="778.5" y="-163.5" font-family="Helvetica,sans-Serif" font-size="10.00">/curve/discrete.cpp</text>
</a>
</g>
</g>
<!-- Node56&#45;&gt;Node57 -->
<g id="edge18" class="edge"><title>Node56&#45;&gt;Node57</title>
<path fill="none" stroke="midnightblue" d="M635.843,-230.887C664.621,-220.219 698.415,-207.69 725.886,-197.506"/>
<polygon fill="midnightblue" stroke="midnightblue" points="634.452,-227.67 626.293,-234.428 636.886,-234.234 634.452,-227.67"/>
</g>
</g>
</svg>
