<?xml version="1.0" encoding="UTF-8" standalone="no"?>
<!DOCTYPE svg PUBLIC "-//W3C//DTD SVG 1.1//EN"
 "http://www.w3.org/Graphics/SVG/1.1/DTD/svg11.dtd">
<!-- Generated by graphviz version 2.38.0 (20140413.2041)
 -->
<!-- Title: libopenage/event/eventstore.h Pages: 1 -->
<!--zoomable 542 -->
<svg id="main" version="1.1" xmlns="http://www.w3.org/2000/svg" xmlns:xlink="http://www.w3.org/1999/xlink" xml:space="preserve" onload="init(evt)">
<style type="text/css"><![CDATA[
.edge:hover path { stroke: red; }
.edge:hover polygon { stroke: red; fill: red; }
]]></style>
<script type="text/javascript"><![CDATA[
var edges = document.getElementsByTagName('g');
if (edges && edges.length) {
  for (var i=0;i<edges.length;i++) {
    if (edges[i].id.substr(0,4)=='edge') {
      edges[i].setAttribute('class','edge');
    }
  }
}
]]></script>
        <defs>
                <circle id="rim" cx="0" cy="0" r="7"/>
                <circle id="rim2" cx="0" cy="0" r="3.5"/>
                <g id="zoomPlus">
                        <use xlink:href="#rim" fill="#404040">
                                <set attributeName="fill" to="#808080" begin="zoomplus.mouseover" end="zoomplus.mouseout"/>
                        </use>
                        <path d="M-4,0h8M0,-4v8" fill="none" stroke="white" stroke-width="1.5" pointer-events="none"/>
                </g>
                <g id="zoomMin">
                        <use xlink:href="#rim" fill="#404040">
                                <set attributeName="fill" to="#808080" begin="zoomminus.mouseover" end="zoomminus.mouseout"/>
                        </use>
                        <path d="M-4,0h8" fill="none" stroke="white" stroke-width="1.5" pointer-events="none"/>
                </g>
                <g id="dirArrow">
                        <path fill="none" stroke="white" stroke-width="1.5" d="M0,-3.0v7 M-2.5,-0.5L0,-3.0L2.5,-0.5"/>
                </g>
               <g id="resetDef">
                       <use xlink:href="#rim2" fill="#404040">
                               <set attributeName="fill" to="#808080" begin="reset.mouseover" end="reset.mouseout"/>
                       </use>
               </g>
        </defs>

<script type="text/javascript">
var viewWidth = 874;
var viewHeight = 542;
var sectionId = 'dynsection-1';
</script>
<script xlink:href="svgpan.js"/>
<svg id="graph" class="graph">
<g id="viewport">
<title>libopenage/event/eventstore.h</title>
<polygon fill="white" stroke="none" points="-4,4 -4,-538 870,-538 870,4 -4,4"/>
<!-- Node38 -->
<g id="node1" class="node"><title>Node38</title>
<g id="a_node1"><a xlink:title=" ">
<polygon fill="#bfbfbf" stroke="black" points="631.5,-514.5 631.5,-533.5 775.5,-533.5 775.5,-514.5 631.5,-514.5"/>
<text text-anchor="middle" x="703.5" y="-521.5" font-family="Helvetica,sans-Serif" font-size="10.00">libopenage/event/eventstore.h</text>
</a>
</g>
</g>
<!-- Node39 -->
<g id="node2" class="node"><title>Node39</title>
<g id="a_node2"><a xlink:href="eventqueue_8h.xhtml" target="_top" xlink:title=" ">
<polygon fill="white" stroke="black" points="544,-458.5 544,-477.5 693,-477.5 693,-458.5 544,-458.5"/>
<text text-anchor="middle" x="618.5" y="-465.5" font-family="Helvetica,sans-Serif" font-size="10.00">libopenage/event/eventqueue.h</text>
</a>
</g>
</g>
<!-- Node38&#45;&gt;Node39 -->
<g id="edge1" class="edge"><title>Node38&#45;&gt;Node39</title>
<path fill="none" stroke="midnightblue" d="M681.306,-508.901C665.72,-498.999 645.37,-486.071 632.123,-477.655"/>
<polygon fill="midnightblue" stroke="midnightblue" points="679.526,-511.916 689.843,-514.324 683.279,-506.007 679.526,-511.916"/>
</g>
<!-- Node62 -->
<g id="node25" class="node"><title>Node62</title>
<g id="a_node25"><a xlink:href="eventstore_8cpp.xhtml" target="_top" xlink:title=" ">
<polygon fill="white" stroke="black" points="711,-458.5 711,-477.5 866,-477.5 866,-458.5 711,-458.5"/>
<text text-anchor="middle" x="788.5" y="-465.5" font-family="Helvetica,sans-Serif" font-size="10.00">libopenage/event/eventstore.cpp</text>
</a>
</g>
</g>
<!-- Node38&#45;&gt;Node62 -->
<g id="edge33" class="edge"><title>Node38&#45;&gt;Node62</title>
<path fill="none" stroke="midnightblue" d="M725.694,-508.901C741.28,-498.999 761.63,-486.071 774.877,-477.655"/>
<polygon fill="midnightblue" stroke="midnightblue" points="723.721,-506.007 717.157,-514.324 727.474,-511.916 723.721,-506.007"/>
</g>
<!-- Node40 -->
<g id="node3" class="node"><title>Node40</title>
<g id="a_node3"><a xlink:href="event_2loop_8h.xhtml" target="_top" xlink:title=" ">
<polygon fill="white" stroke="black" points="419.5,-402.5 419.5,-421.5 537.5,-421.5 537.5,-402.5 419.5,-402.5"/>
<text text-anchor="middle" x="478.5" y="-409.5" font-family="Helvetica,sans-Serif" font-size="10.00">libopenage/event/loop.h</text>
</a>
</g>
</g>
<!-- Node39&#45;&gt;Node40 -->
<g id="edge2" class="edge"><title>Node39&#45;&gt;Node40</title>
<path fill="none" stroke="midnightblue" d="M586.798,-454.772C560.5,-444.629 523.784,-430.467 500.58,-421.516"/>
<polygon fill="midnightblue" stroke="midnightblue" points="585.727,-458.11 596.317,-458.444 588.246,-451.579 585.727,-458.11"/>
</g>
<!-- Node59 -->
<g id="node22" class="node"><title>Node59</title>
<g id="a_node22"><a xlink:href="loop_8cpp.xhtml" target="_top" xlink:title=" ">
<polygon fill="white" stroke="black" points="609.5,-341 609.5,-360 737.5,-360 737.5,-341 609.5,-341"/>
<text text-anchor="middle" x="673.5" y="-348" font-family="Helvetica,sans-Serif" font-size="10.00">libopenage/event/loop.cpp</text>
</a>
</g>
</g>
<!-- Node39&#45;&gt;Node59 -->
<g id="edge32" class="edge"><title>Node39&#45;&gt;Node59</title>
<path fill="none" stroke="midnightblue" d="M622.2,-448.356C625.26,-435.021 630.281,-416.874 637.5,-402 645.21,-386.114 657.816,-369.857 665.881,-360.224"/>
<polygon fill="midnightblue" stroke="midnightblue" points="618.753,-447.738 620.086,-458.249 625.599,-449.201 618.753,-447.738"/>
</g>
<!-- Node61 -->
<g id="node24" class="node"><title>Node61</title>
<g id="a_node24"><a xlink:href="eventqueue_8cpp.xhtml" target="_top" xlink:title=" ">
<polygon fill="white" stroke="black" points="647,-402.5 647,-421.5 806,-421.5 806,-402.5 647,-402.5"/>
<text text-anchor="middle" x="726.5" y="-409.5" font-family="Helvetica,sans-Serif" font-size="10.00">libopenage/event/eventqueue.cpp</text>
</a>
</g>
</g>
<!-- Node39&#45;&gt;Node61 -->
<g id="edge31" class="edge"><title>Node39&#45;&gt;Node61</title>
<path fill="none" stroke="midnightblue" d="M645.048,-453.726C665.046,-443.727 691.887,-430.307 709.191,-421.655"/>
<polygon fill="midnightblue" stroke="midnightblue" points="643.231,-450.721 635.852,-458.324 646.362,-456.982 643.231,-450.721"/>
</g>
<!-- Node41 -->
<g id="node4" class="node"><title>Node41</title>
<g id="a_node4"><a xlink:href="keyframe__container_8h.xhtml" target="_top" xlink:title=" ">
<polygon fill="white" stroke="black" points="413,-335.5 413,-365.5 544,-365.5 544,-335.5 413,-335.5"/>
<text text-anchor="start" x="421" y="-353.5" font-family="Helvetica,sans-Serif" font-size="10.00">libopenage/curve/keyframe</text>
<text text-anchor="middle" x="478.5" y="-342.5" font-family="Helvetica,sans-Serif" font-size="10.00">_container.h</text>
</a>
</g>
</g>
<!-- Node40&#45;&gt;Node41 -->
<g id="edge3" class="edge"><title>Node40&#45;&gt;Node41</title>
<path fill="none" stroke="midnightblue" d="M478.5,-392.235C478.5,-383.586 478.5,-373.497 478.5,-365.523"/>
<polygon fill="midnightblue" stroke="midnightblue" points="475,-392.475 478.5,-402.475 482,-392.475 475,-392.475"/>
</g>
<!-- Node46 -->
<g id="node9" class="node"><title>Node46</title>
<g id="a_node9"><a xlink:href="curve__types_8cpp.xhtml" target="_top" xlink:title=" ">
<polygon fill="white" stroke="black" points="0,-134.5 0,-164.5 113,-164.5 113,-134.5 0,-134.5"/>
<text text-anchor="start" x="8" y="-152.5" font-family="Helvetica,sans-Serif" font-size="10.00">libopenage/curve/tests</text>
<text text-anchor="middle" x="56.5" y="-141.5" font-family="Helvetica,sans-Serif" font-size="10.00">/curve_types.cpp</text>
</a>
</g>
</g>
<!-- Node40&#45;&gt;Node46 -->
<g id="edge26" class="edge"><title>Node40&#45;&gt;Node46</title>
<path fill="none" stroke="midnightblue" d="M409.231,-407.907C300.642,-402.375 100.306,-389.142 77.5,-366 22.6181,-310.31 43.056,-202.853 52.6497,-164.514"/>
<polygon fill="midnightblue" stroke="midnightblue" points="409.281,-411.414 419.444,-408.419 409.631,-404.423 409.281,-411.414"/>
</g>
<!-- Node47 -->
<g id="node10" class="node"><title>Node47</title>
<g id="a_node10"><a xlink:href="gamestate_8h.xhtml" target="_top" xlink:title=" ">
<polygon fill="white" stroke="black" points="425.5,-134.5 425.5,-164.5 541.5,-164.5 541.5,-134.5 425.5,-134.5"/>
<text text-anchor="start" x="433.5" y="-152.5" font-family="Helvetica,sans-Serif" font-size="10.00">libopenage/event/demo</text>
<text text-anchor="middle" x="483.5" y="-141.5" font-family="Helvetica,sans-Serif" font-size="10.00">/gamestate.h</text>
</a>
</g>
</g>
<!-- Node40&#45;&gt;Node47 -->
<g id="edge27" class="edge"><title>Node40&#45;&gt;Node47</title>
<path fill="none" stroke="midnightblue" d="M513.64,-398.196C528.174,-391.03 543.665,-380.549 552.5,-366 583.483,-314.981 559.499,-291.656 561.5,-232 561.962,-218.23 568.083,-213.104 561.5,-201 552.559,-184.561 535.706,-172.651 519.947,-164.541"/>
<polygon fill="midnightblue" stroke="midnightblue" points="511.965,-395.113 504.308,-402.436 514.86,-401.486 511.965,-395.113"/>
</g>
<!-- Node58 -->
<g id="node21" class="node"><title>Node58</title>
<g id="a_node21"><a xlink:href="eventtarget_8cpp.xhtml" target="_top" xlink:title=" ">
<polygon fill="white" stroke="black" points="86.5,-341 86.5,-360 244.5,-360 244.5,-341 86.5,-341"/>
<text text-anchor="middle" x="165.5" y="-348" font-family="Helvetica,sans-Serif" font-size="10.00">libopenage/event/eventtarget.cpp</text>
</a>
</g>
</g>
<!-- Node40&#45;&gt;Node58 -->
<g id="edge28" class="edge"><title>Node40&#45;&gt;Node58</title>
<path fill="none" stroke="midnightblue" d="M423.504,-400.546C362.866,-389.018 266.47,-370.694 210.262,-360.009"/>
<polygon fill="midnightblue" stroke="midnightblue" points="423.177,-404.046 433.655,-402.475 424.484,-397.169 423.177,-404.046"/>
</g>
<!-- Node40&#45;&gt;Node59 -->
<g id="edge29" class="edge"><title>Node40&#45;&gt;Node59</title>
<path fill="none" stroke="midnightblue" d="M516.095,-399.529C553.994,-387.965 611.608,-370.385 645.613,-360.009"/>
<polygon fill="midnightblue" stroke="midnightblue" points="514.982,-396.209 506.439,-402.475 517.025,-402.904 514.982,-396.209"/>
</g>
<!-- Node60 -->
<g id="node23" class="node"><title>Node60</title>
<g id="a_node23"><a xlink:href="event_2tests_8cpp.xhtml" target="_top" xlink:title=" ">
<polygon fill="white" stroke="black" points="262.5,-341 262.5,-360 394.5,-360 394.5,-341 262.5,-341"/>
<text text-anchor="middle" x="328.5" y="-348" font-family="Helvetica,sans-Serif" font-size="10.00">libopenage/event/tests.cpp</text>
</a>
</g>
</g>
<!-- Node40&#45;&gt;Node60 -->
<g id="edge30" class="edge"><title>Node40&#45;&gt;Node60</title>
<path fill="none" stroke="midnightblue" d="M447.699,-398.782C418.55,-387.22 375.552,-370.164 349.951,-360.009"/>
<polygon fill="midnightblue" stroke="midnightblue" points="446.423,-402.041 457.009,-402.475 449.004,-395.534 446.423,-402.041"/>
</g>
<!-- Node42 -->
<g id="node5" class="node"><title>Node42</title>
<g id="a_node5"><a xlink:href="value__container_8h.xhtml" target="_top" xlink:title=" ">
<polygon fill="white" stroke="black" points="422,-268.5 422,-298.5 535,-298.5 535,-268.5 422,-268.5"/>
<text text-anchor="start" x="430" y="-286.5" font-family="Helvetica,sans-Serif" font-size="10.00">libopenage/curve/value</text>
<text text-anchor="middle" x="478.5" y="-275.5" font-family="Helvetica,sans-Serif" font-size="10.00">_container.h</text>
</a>
</g>
</g>
<!-- Node41&#45;&gt;Node42 -->
<g id="edge4" class="edge"><title>Node41&#45;&gt;Node42</title>
<path fill="none" stroke="midnightblue" d="M478.5,-325.108C478.5,-316.154 478.5,-306.323 478.5,-298.577"/>
<polygon fill="midnightblue" stroke="midnightblue" points="475,-325.396 478.5,-335.396 482,-325.396 475,-325.396"/>
</g>
<!-- Node41&#45;&gt;Node46 -->
<g id="edge25" class="edge"><title>Node41&#45;&gt;Node46</title>
<path fill="none" stroke="midnightblue" d="M402.928,-333.337C351.817,-322.103 289.13,-307.647 263.5,-299 194.317,-275.659 169.799,-278.492 113.5,-232 90.4675,-212.98 72.5341,-182.447 63.3265,-164.648"/>
<polygon fill="midnightblue" stroke="midnightblue" points="402.465,-336.819 412.982,-335.539 403.962,-329.981 402.465,-336.819"/>
</g>
<!-- Node57 -->
<g id="node20" class="node"><title>Node57</title>
<g id="a_node20"><a xlink:href="keyframe__container_8cpp.xhtml" target="_top" xlink:title=" ">
<polygon fill="white" stroke="black" points="273,-268.5 273,-298.5 404,-298.5 404,-268.5 273,-268.5"/>
<text text-anchor="start" x="281" y="-286.5" font-family="Helvetica,sans-Serif" font-size="10.00">libopenage/curve/keyframe</text>
<text text-anchor="middle" x="338.5" y="-275.5" font-family="Helvetica,sans-Serif" font-size="10.00">_container.cpp</text>
</a>
</g>
</g>
<!-- Node41&#45;&gt;Node57 -->
<g id="edge24" class="edge"><title>Node41&#45;&gt;Node57</title>
<path fill="none" stroke="midnightblue" d="M438.935,-331.131C416.69,-320.802 389.353,-308.11 368.819,-298.577"/>
<polygon fill="midnightblue" stroke="midnightblue" points="437.578,-334.359 448.122,-335.396 440.526,-328.01 437.578,-334.359"/>
</g>
<!-- Node43 -->
<g id="node6" class="node"><title>Node43</title>
<g id="a_node6"><a xlink:href="continuous_8h.xhtml" target="_top" xlink:title=" ">
<polygon fill="white" stroke="black" points="406,-207 406,-226 553,-226 553,-207 406,-207"/>
<text text-anchor="middle" x="479.5" y="-214" font-family="Helvetica,sans-Serif" font-size="10.00">libopenage/curve/continuous.h</text>
</a>
</g>
</g>
<!-- Node42&#45;&gt;Node43 -->
<g id="edge5" class="edge"><title>Node42&#45;&gt;Node43</title>
<path fill="none" stroke="midnightblue" d="M478.873,-258.25C479.046,-247.017 479.24,-234.377 479.366,-226.195"/>
<polygon fill="midnightblue" stroke="midnightblue" points="475.371,-258.343 478.717,-268.396 482.37,-258.451 475.371,-258.343"/>
</g>
<!-- Node54 -->
<g id="node17" class="node"><title>Node54</title>
<g id="a_node17"><a xlink:href="discrete_8h.xhtml" target="_top" xlink:title=" ">
<polygon fill="white" stroke="black" points="122.5,-207 122.5,-226 256.5,-226 256.5,-207 122.5,-207"/>
<text text-anchor="middle" x="189.5" y="-214" font-family="Helvetica,sans-Serif" font-size="10.00">libopenage/curve/discrete.h</text>
</a>
</g>
</g>
<!-- Node42&#45;&gt;Node54 -->
<g id="edge18" class="edge"><title>Node42&#45;&gt;Node54</title>
<path fill="none" stroke="midnightblue" d="M411.726,-267.482C354.635,-254.641 274.498,-236.617 227.685,-226.088"/>
<polygon fill="midnightblue" stroke="midnightblue" points="411.223,-270.956 421.748,-269.736 412.759,-264.127 411.223,-270.956"/>
</g>
<!-- Node56 -->
<g id="node19" class="node"><title>Node56</title>
<g id="a_node19"><a xlink:href="value__container_8cpp.xhtml" target="_top" xlink:title=" ">
<polygon fill="white" stroke="black" points="275,-201.5 275,-231.5 388,-231.5 388,-201.5 275,-201.5"/>
<text text-anchor="start" x="283" y="-219.5" font-family="Helvetica,sans-Serif" font-size="10.00">libopenage/curve/value</text>
<text text-anchor="middle" x="331.5" y="-208.5" font-family="Helvetica,sans-Serif" font-size="10.00">_container.cpp</text>
</a>
</g>
</g>
<!-- Node42&#45;&gt;Node56 -->
<g id="edge23" class="edge"><title>Node42&#45;&gt;Node56</title>
<path fill="none" stroke="midnightblue" d="M437.269,-264.269C413.856,-253.916 384.992,-241.153 363.335,-231.577"/>
<polygon fill="midnightblue" stroke="midnightblue" points="436.042,-267.553 446.603,-268.396 438.873,-261.151 436.042,-267.553"/>
</g>
<!-- Node44 -->
<g id="node7" class="node"><title>Node44</title>
<g id="a_node7"><a xlink:href="continuous_8cpp.xhtml" target="_top" xlink:title=" ">
<polygon fill="white" stroke="black" points="559.5,-140 559.5,-159 717.5,-159 717.5,-140 559.5,-140"/>
<text text-anchor="middle" x="638.5" y="-147" font-family="Helvetica,sans-Serif" font-size="10.00">libopenage/curve/continuous.cpp</text>
</a>
</g>
</g>
<!-- Node43&#45;&gt;Node44 -->
<g id="edge6" class="edge"><title>Node43&#45;&gt;Node44</title>
<path fill="none" stroke="midnightblue" d="M510.231,-202.937C541.81,-190.027 590.118,-170.279 617.552,-159.064"/>
<polygon fill="midnightblue" stroke="midnightblue" points="508.546,-199.845 500.614,-206.869 511.195,-206.324 508.546,-199.845"/>
</g>
<!-- Node45 -->
<g id="node8" class="node"><title>Node45</title>
<g id="a_node8"><a xlink:href="container_8cpp.xhtml" target="_top" xlink:title=" ">
<polygon fill="white" stroke="black" points="294,-134.5 294,-164.5 407,-164.5 407,-134.5 294,-134.5"/>
<text text-anchor="start" x="302" y="-152.5" font-family="Helvetica,sans-Serif" font-size="10.00">libopenage/curve/tests</text>
<text text-anchor="middle" x="350.5" y="-141.5" font-family="Helvetica,sans-Serif" font-size="10.00">/container.cpp</text>
</a>
</g>
</g>
<!-- Node43&#45;&gt;Node45 -->
<g id="edge7" class="edge"><title>Node43&#45;&gt;Node45</title>
<path fill="none" stroke="midnightblue" d="M453.386,-202.342C431.671,-191.4 400.831,-175.86 378.586,-164.652"/>
<polygon fill="midnightblue" stroke="midnightblue" points="451.864,-205.494 462.37,-206.869 455.014,-199.243 451.864,-205.494"/>
</g>
<!-- Node43&#45;&gt;Node46 -->
<g id="edge8" class="edge"><title>Node43&#45;&gt;Node46</title>
<path fill="none" stroke="midnightblue" d="M422.5,-205.211C413.801,-203.737 404.919,-202.286 396.5,-201 274.648,-182.389 242.886,-186.44 121.5,-165 118.767,-164.517 115.976,-163.998 113.16,-163.452"/>
<polygon fill="midnightblue" stroke="midnightblue" points="422.142,-208.701 432.59,-206.944 423.327,-201.802 422.142,-208.701"/>
</g>
<!-- Node43&#45;&gt;Node47 -->
<g id="edge9" class="edge"><title>Node43&#45;&gt;Node47</title>
<path fill="none" stroke="midnightblue" d="M480.655,-196.739C481.285,-186.487 482.054,-174.001 482.633,-164.589"/>
<polygon fill="midnightblue" stroke="midnightblue" points="477.16,-196.538 480.039,-206.734 484.147,-196.968 477.16,-196.538"/>
</g>
<!-- Node48 -->
<g id="node11" class="node"><title>Node48</title>
<g id="a_node11"><a xlink:href="aicontroller_8h.xhtml" target="_top" xlink:title=" ">
<polygon fill="white" stroke="black" points="296.5,-67.5 296.5,-97.5 412.5,-97.5 412.5,-67.5 296.5,-67.5"/>
<text text-anchor="start" x="304.5" y="-85.5" font-family="Helvetica,sans-Serif" font-size="10.00">libopenage/event/demo</text>
<text text-anchor="middle" x="354.5" y="-74.5" font-family="Helvetica,sans-Serif" font-size="10.00">/aicontroller.h</text>
</a>
</g>
</g>
<!-- Node47&#45;&gt;Node48 -->
<g id="edge10" class="edge"><title>Node47&#45;&gt;Node48</title>
<path fill="none" stroke="midnightblue" d="M446.493,-129.853C426.097,-119.576 401.188,-107.025 382.436,-97.5765"/>
<polygon fill="midnightblue" stroke="midnightblue" points="445.004,-133.022 455.509,-134.396 448.153,-126.77 445.004,-133.022"/>
</g>
<!-- Node50 -->
<g id="node13" class="node"><title>Node50</title>
<g id="a_node13"><a xlink:href="event_2demo_2main_8cpp.xhtml" target="_top" xlink:title=" ">
<polygon fill="white" stroke="black" points="382.5,-0.5 382.5,-30.5 498.5,-30.5 498.5,-0.5 382.5,-0.5"/>
<text text-anchor="start" x="390.5" y="-18.5" font-family="Helvetica,sans-Serif" font-size="10.00">libopenage/event/demo</text>
<text text-anchor="middle" x="440.5" y="-7.5" font-family="Helvetica,sans-Serif" font-size="10.00">/main.cpp</text>
</a>
</g>
</g>
<!-- Node47&#45;&gt;Node50 -->
<g id="edge14" class="edge"><title>Node47&#45;&gt;Node50</title>
<path fill="none" stroke="midnightblue" d="M471.094,-125.099C466.996,-116.716 462.678,-107.089 459.5,-98 451.444,-74.9594 445.779,-47.0605 442.836,-30.6025"/>
<polygon fill="midnightblue" stroke="midnightblue" points="468.089,-126.914 475.721,-134.263 474.338,-123.759 468.089,-126.914"/>
</g>
<!-- Node51 -->
<g id="node14" class="node"><title>Node51</title>
<g id="a_node14"><a xlink:href="gamestate_8cpp.xhtml" target="_top" xlink:title=" ">
<polygon fill="white" stroke="black" points="602.5,-67.5 602.5,-97.5 718.5,-97.5 718.5,-67.5 602.5,-67.5"/>
<text text-anchor="start" x="610.5" y="-85.5" font-family="Helvetica,sans-Serif" font-size="10.00">libopenage/event/demo</text>
<text text-anchor="middle" x="660.5" y="-74.5" font-family="Helvetica,sans-Serif" font-size="10.00">/gamestate.cpp</text>
</a>
</g>
</g>
<!-- Node47&#45;&gt;Node51 -->
<g id="edge13" class="edge"><title>Node47&#45;&gt;Node51</title>
<path fill="none" stroke="midnightblue" d="M531.648,-130.819C560.098,-120.371 595.628,-107.323 622.169,-97.5765"/>
<polygon fill="midnightblue" stroke="midnightblue" points="530.087,-127.663 521.906,-134.396 532.5,-134.234 530.087,-127.663"/>
</g>
<!-- Node52 -->
<g id="node15" class="node"><title>Node52</title>
<g id="a_node15"><a xlink:href="physics_8h.xhtml" target="_top" xlink:title=" ">
<polygon fill="white" stroke="black" points="468.5,-67.5 468.5,-97.5 584.5,-97.5 584.5,-67.5 468.5,-67.5"/>
<text text-anchor="start" x="476.5" y="-85.5" font-family="Helvetica,sans-Serif" font-size="10.00">libopenage/event/demo</text>
<text text-anchor="middle" x="526.5" y="-74.5" font-family="Helvetica,sans-Serif" font-size="10.00">/physics.h</text>
</a>
</g>
</g>
<!-- Node47&#45;&gt;Node52 -->
<g id="edge15" class="edge"><title>Node47&#45;&gt;Node52</title>
<path fill="none" stroke="midnightblue" d="M498.473,-125.867C504.696,-116.459 511.726,-105.833 517.188,-97.5765"/>
<polygon fill="midnightblue" stroke="midnightblue" points="495.429,-124.125 492.83,-134.396 501.267,-127.987 495.429,-124.125"/>
</g>
<!-- Node49 -->
<g id="node12" class="node"><title>Node49</title>
<g id="a_node12"><a xlink:href="aicontroller_8cpp.xhtml" target="_top" xlink:title=" ">
<polygon fill="white" stroke="black" points="248.5,-0.5 248.5,-30.5 364.5,-30.5 364.5,-0.5 248.5,-0.5"/>
<text text-anchor="start" x="256.5" y="-18.5" font-family="Helvetica,sans-Serif" font-size="10.00">libopenage/event/demo</text>
<text text-anchor="middle" x="306.5" y="-7.5" font-family="Helvetica,sans-Serif" font-size="10.00">/aicontroller.cpp</text>
</a>
</g>
</g>
<!-- Node48&#45;&gt;Node49 -->
<g id="edge11" class="edge"><title>Node48&#45;&gt;Node49</title>
<path fill="none" stroke="midnightblue" d="M338.001,-59.1575C331.001,-49.6788 323.055,-38.9186 316.895,-30.5765"/>
<polygon fill="midnightblue" stroke="midnightblue" points="335.329,-61.4308 344.085,-67.396 340.96,-57.2725 335.329,-61.4308"/>
</g>
<!-- Node48&#45;&gt;Node50 -->
<g id="edge12" class="edge"><title>Node48&#45;&gt;Node50</title>
<path fill="none" stroke="midnightblue" d="M381.401,-61.1677C394.552,-51.2283 410.05,-39.5144 421.876,-30.5765"/>
<polygon fill="midnightblue" stroke="midnightblue" points="379.028,-58.5741 373.161,-67.396 383.249,-64.1585 379.028,-58.5741"/>
</g>
<!-- Node52&#45;&gt;Node50 -->
<g id="edge16" class="edge"><title>Node52&#45;&gt;Node50</title>
<path fill="none" stroke="midnightblue" d="M499.599,-61.1677C486.448,-51.2283 470.95,-39.5144 459.124,-30.5765"/>
<polygon fill="midnightblue" stroke="midnightblue" points="497.751,-64.1585 507.839,-67.396 501.972,-58.5741 497.751,-64.1585"/>
</g>
<!-- Node53 -->
<g id="node16" class="node"><title>Node53</title>
<g id="a_node16"><a xlink:href="physics_8cpp.xhtml" target="_top" xlink:title=" ">
<polygon fill="white" stroke="black" points="516.5,-0.5 516.5,-30.5 632.5,-30.5 632.5,-0.5 516.5,-0.5"/>
<text text-anchor="start" x="524.5" y="-18.5" font-family="Helvetica,sans-Serif" font-size="10.00">libopenage/event/demo</text>
<text text-anchor="middle" x="574.5" y="-7.5" font-family="Helvetica,sans-Serif" font-size="10.00">/physics.cpp</text>
</a>
</g>
</g>
<!-- Node52&#45;&gt;Node53 -->
<g id="edge17" class="edge"><title>Node52&#45;&gt;Node53</title>
<path fill="none" stroke="midnightblue" d="M542.999,-59.1575C549.999,-49.6788 557.945,-38.9186 564.105,-30.5765"/>
<polygon fill="midnightblue" stroke="midnightblue" points="540.04,-57.2725 536.915,-67.396 545.671,-61.4308 540.04,-57.2725"/>
</g>
<!-- Node54&#45;&gt;Node45 -->
<g id="edge20" class="edge"><title>Node54&#45;&gt;Node45</title>
<path fill="none" stroke="midnightblue" d="M220.318,-203.058C247.591,-192.047 287.358,-175.992 315.754,-164.528"/>
<polygon fill="midnightblue" stroke="midnightblue" points="218.842,-199.879 210.88,-206.869 221.463,-206.37 218.842,-199.879"/>
</g>
<!-- Node54&#45;&gt;Node46 -->
<g id="edge21" class="edge"><title>Node54&#45;&gt;Node46</title>
<path fill="none" stroke="midnightblue" d="M162.846,-202.474C140.362,-191.485 108.249,-175.791 85.2036,-164.528"/>
<polygon fill="midnightblue" stroke="midnightblue" points="161.317,-205.622 171.839,-206.869 164.391,-199.333 161.317,-205.622"/>
</g>
<!-- Node54&#45;&gt;Node47 -->
<g id="edge22" class="edge"><title>Node54&#45;&gt;Node47</title>
<path fill="none" stroke="midnightblue" d="M238.11,-204.753C289.535,-193.383 370.661,-175.447 425.418,-163.341"/>
<polygon fill="midnightblue" stroke="midnightblue" points="237.246,-201.359 228.238,-206.936 238.757,-208.194 237.246,-201.359"/>
</g>
<!-- Node55 -->
<g id="node18" class="node"><title>Node55</title>
<g id="a_node18"><a xlink:href="discrete_8cpp.xhtml" target="_top" xlink:title=" ">
<polygon fill="white" stroke="black" points="131,-140 131,-159 276,-159 276,-140 131,-140"/>
<text text-anchor="middle" x="203.5" y="-147" font-family="Helvetica,sans-Serif" font-size="10.00">libopenage/curve/discrete.cpp</text>
</a>
</g>
</g>
<!-- Node54&#45;&gt;Node55 -->
<g id="edge19" class="edge"><title>Node54&#45;&gt;Node55</title>
<path fill="none" stroke="midnightblue" d="M193.503,-196.915C196.179,-184.488 199.576,-168.717 201.642,-159.127"/>
<polygon fill="midnightblue" stroke="midnightblue" points="190.072,-196.221 191.388,-206.734 196.915,-197.695 190.072,-196.221"/>
</g>
</g>
</svg>
        <g id="navigator" transform="translate(0 0)" fill="#404254">
                <rect fill="#f2f5e9" fill-opacity="0.5" stroke="#606060" stroke-width=".5" x="0" y="0" width="60" height="60"/>
                <use id="zoomplus" xlink:href="#zoomPlus" x="17" y="9" onmousedown="handleZoom(evt,'in')"/>
                <use id="zoomminus" xlink:href="#zoomMin" x="42" y="9" onmousedown="handleZoom(evt,'out')"/>
                <use id="reset" xlink:href="#resetDef" x="30" y="36" onmousedown="handleReset()"/>
                <g id="arrowUp" xlink:href="#dirArrow" transform="translate(30 24)" onmousedown="handlePan(0,-1)">
                  <use xlink:href="#rim" fill="#404040">
                        <set attributeName="fill" to="#808080" begin="arrowUp.mouseover" end="arrowUp.mouseout"/>
                  </use>
                  <path fill="none" stroke="white" stroke-width="1.5" d="M0,-3.0v7 M-2.5,-0.5L0,-3.0L2.5,-0.5"/>
                </g>
                <g id="arrowRight" xlink:href="#dirArrow" transform="rotate(90) translate(36 -43)" onmousedown="handlePan(1,0)">
                  <use xlink:href="#rim" fill="#404040">
                        <set attributeName="fill" to="#808080" begin="arrowRight.mouseover" end="arrowRight.mouseout"/>
                  </use>
                  <path fill="none" stroke="white" stroke-width="1.5" d="M0,-3.0v7 M-2.5,-0.5L0,-3.0L2.5,-0.5"/>
                </g>
                <g id="arrowDown" xlink:href="#dirArrow" transform="rotate(180) translate(-30 -48)" onmousedown="handlePan(0,1)">
                  <use xlink:href="#rim" fill="#404040">
                        <set attributeName="fill" to="#808080" begin="arrowDown.mouseover" end="arrowDown.mouseout"/>
                  </use>
                  <path fill="none" stroke="white" stroke-width="1.5" d="M0,-3.0v7 M-2.5,-0.5L0,-3.0L2.5,-0.5"/>
                </g>
                <g id="arrowLeft" xlink:href="#dirArrow" transform="rotate(270) translate(-36 17)" onmousedown="handlePan(-1,0)">
                  <use xlink:href="#rim" fill="#404040">
                        <set attributeName="fill" to="#808080" begin="arrowLeft.mouseover" end="arrowLeft.mouseout"/>
                  </use>
                  <path fill="none" stroke="white" stroke-width="1.5" d="M0,-3.0v7 M-2.5,-0.5L0,-3.0L2.5,-0.5"/>
                </g>
        </g>
        <svg viewBox="0 0 15 15" width="100%" height="30px" preserveAspectRatio="xMaxYMin meet">
         <g id="arrow_out" transform="scale(0.3 0.3)">
          <a xlink:href="eventstore_8h__dep__incl_org.svg" target="_base">
           <rect id="button" ry="5" rx="5" y="6" x="6" height="38" width="38"
                fill="#f2f5e9" fill-opacity="0.5" stroke="#606060" stroke-width="1.0"/>
           <path id="arrow"
             d="M 11.500037,31.436501 C 11.940474,20.09759 22.043105,11.32322 32.158766,21.979434 L 37.068811,17.246167 C 37.068811,17.246167 37.088388,32 37.088388,32 L 22.160133,31.978069 C 22.160133,31.978069 26.997745,27.140456 26.997745,27.140456 C 18.528582,18.264221 13.291696,25.230495 11.500037,31.436501 z"
             style="fill:#404040;"/>
          </a>
         </g>
        </svg>
</svg>
