<?xml version="1.0" encoding="UTF-8" standalone="no"?>
<!DOCTYPE svg PUBLIC "-//W3C//DTD SVG 1.1//EN"
 "http://www.w3.org/Graphics/SVG/1.1/DTD/svg11.dtd">
<!-- Generated by graphviz version 2.38.0 (20140413.2041)
 -->
<!-- Title: C:/Users/Jameson/Documents/git&#45;projects/openage/libopenage/util/filelike/native.h Pages: 1 -->
<svg width="423pt" height="218pt"
 viewBox="0.00 0.00 422.50 218.45" xmlns="http://www.w3.org/2000/svg" xmlns:xlink="http://www.w3.org/1999/xlink">
<g id="graph0" class="graph" transform="scale(1 1) rotate(0) translate(4 214.452)">
<title>C:/Users/Jameson/Documents/git&#45;projects/openage/libopenage/util/filelike/native.h</title>
<polygon fill="white" stroke="none" points="-4,4 -4,-214.452 418.5,-214.452 418.5,4 -4,4"/>
<!-- Node0 -->
<g id="node1" class="node"><title>Node0</title>
<g id="a_node1"><a xlink:title=" ">
<polygon fill="#bfbfbf" stroke="black" points="53,-168.952 53,-209.952 210,-209.952 210,-168.952 53,-168.952"/>
<text text-anchor="start" x="61" y="-197.952" font-family="Helvetica,sans-Serif" font-size="10.00">C:/Users/Jameson/Documents</text>
<text text-anchor="start" x="61" y="-186.952" font-family="Helvetica,sans-Serif" font-size="10.00">/git&#45;projects/openage/libopenage</text>
<text text-anchor="middle" x="131.5" y="-175.952" font-family="Helvetica,sans-Serif" font-size="10.00">/util/filelike/native.h</text>
</a>
</g>
</g>
<!-- Node1 -->
<g id="node2" class="node"><title>Node1</title>
<g id="a_node2"><a xlink:title=" ">
<polygon fill="white" stroke="#bfbfbf" points="0,-112.952 0,-131.952 49,-131.952 49,-112.952 0,-112.952"/>
<text text-anchor="middle" x="24.5" y="-119.952" font-family="Helvetica,sans-Serif" font-size="10.00">fstream</text>
</a>
</g>
</g>
<!-- Node0&#45;&gt;Node1 -->
<g id="edge1" class="edge"><title>Node0&#45;&gt;Node1</title>
<path fill="none" stroke="midnightblue" d="M99.3965,-168.949C82.6759,-158.792 62.6169,-146.607 47.4677,-137.404"/>
<polygon fill="midnightblue" stroke="midnightblue" points="49.1071,-134.305 38.7433,-132.104 45.4728,-140.287 49.1071,-134.305"/>
</g>
<!-- Node2 -->
<g id="node3" class="node"><title>Node2</title>
<g id="a_node3"><a xlink:title=" ">
<polygon fill="white" stroke="#bfbfbf" points="157.5,-56.9516 157.5,-75.9516 211.5,-75.9516 211.5,-56.9516 157.5,-56.9516"/>
<text text-anchor="middle" x="184.5" y="-63.9516" font-family="Helvetica,sans-Serif" font-size="10.00">iostream</text>
</a>
</g>
</g>
<!-- Node0&#45;&gt;Node2 -->
<g id="edge2" class="edge"><title>Node0&#45;&gt;Node2</title>
<path fill="none" stroke="midnightblue" d="M145.774,-168.751C152.79,-158.355 160.915,-145.15 166.5,-132.452 173.13,-117.379 177.907,-99.2519 180.867,-85.9743"/>
<polygon fill="midnightblue" stroke="midnightblue" points="184.303,-86.6402 182.926,-76.1353 177.452,-85.2061 184.303,-86.6402"/>
</g>
<!-- Node3 -->
<g id="node4" class="node"><title>Node3</title>
<g id="a_node4"><a xlink:title=" ">
<polygon fill="white" stroke="#bfbfbf" points="105.5,-112.952 105.5,-131.952 157.5,-131.952 157.5,-112.952 105.5,-112.952"/>
<text text-anchor="middle" x="131.5" y="-119.952" font-family="Helvetica,sans-Serif" font-size="10.00">memory</text>
</a>
</g>
</g>
<!-- Node0&#45;&gt;Node3 -->
<g id="edge3" class="edge"><title>Node0&#45;&gt;Node3</title>
<path fill="none" stroke="midnightblue" d="M131.5,-168.949C131.5,-160.517 131.5,-150.687 131.5,-142.326"/>
<polygon fill="midnightblue" stroke="midnightblue" points="135,-142.104 131.5,-132.104 128,-142.104 135,-142.104"/>
</g>
<!-- Node4 -->
<g id="node5" class="node"><title>Node4</title>
<g id="a_node5"><a xlink:title=" ">
<polygon fill="white" stroke="#bfbfbf" points="219,-0.951632 219,-19.9516 260,-19.9516 260,-0.951632 219,-0.951632"/>
<text text-anchor="middle" x="239.5" y="-7.95163" font-family="Helvetica,sans-Serif" font-size="10.00">string</text>
</a>
</g>
</g>
<!-- Node0&#45;&gt;Node4 -->
<g id="edge4" class="edge"><title>Node0&#45;&gt;Node4</title>
<path fill="none" stroke="midnightblue" d="M112.874,-168.72C100.884,-153.535 88.8541,-131.922 96.5,-112.452 115.541,-63.9643 173.18,-35.131 209.201,-21.368"/>
<polygon fill="midnightblue" stroke="midnightblue" points="210.547,-24.6025 218.738,-17.8819 208.144,-18.028 210.547,-24.6025"/>
</g>
<!-- Node5 -->
<g id="node6" class="node"><title>Node5</title>
<g id="a_node6"><a xlink:href="filelike_8h.xhtml" target="_top" xlink:title=" ">
<polygon fill="white" stroke="black" points="213.5,-112.952 213.5,-131.952 265.5,-131.952 265.5,-112.952 213.5,-112.952"/>
<text text-anchor="middle" x="239.5" y="-119.952" font-family="Helvetica,sans-Serif" font-size="10.00">filelike.h</text>
</a>
</g>
</g>
<!-- Node0&#45;&gt;Node5 -->
<g id="edge5" class="edge"><title>Node0&#45;&gt;Node5</title>
<path fill="none" stroke="midnightblue" d="M163.904,-168.949C180.78,-158.792 201.027,-146.607 216.318,-137.404"/>
<polygon fill="midnightblue" stroke="midnightblue" points="218.36,-140.26 225.124,-132.104 214.751,-134.262 218.36,-140.26"/>
</g>
<!-- Node5&#45;&gt;Node2 -->
<g id="edge6" class="edge"><title>Node5&#45;&gt;Node2</title>
<path fill="none" stroke="midnightblue" d="M230.418,-112.535C222.329,-104.593 210.305,-92.7871 200.59,-83.2489"/>
<polygon fill="midnightblue" stroke="midnightblue" points="203.001,-80.7112 193.413,-76.2027 198.097,-85.7061 203.001,-80.7112"/>
</g>
<!-- Node5&#45;&gt;Node4 -->
<g id="edge7" class="edge"><title>Node5&#45;&gt;Node4</title>
<path fill="none" stroke="midnightblue" d="M239.5,-112.82C239.5,-95.0686 239.5,-54.118 239.5,-30.0491"/>
<polygon fill="midnightblue" stroke="midnightblue" points="243,-30.043 239.5,-20.0431 236,-30.0431 243,-30.043"/>
</g>
<!-- Node6 -->
<g id="node7" class="node"><title>Node6</title>
<g id="a_node7"><a xlink:href="compiler_8h.xhtml" target="_top" xlink:title=" ">
<polygon fill="white" stroke="black" points="268,-56.9516 268,-75.9516 339,-75.9516 339,-56.9516 268,-56.9516"/>
<text text-anchor="middle" x="303.5" y="-63.9516" font-family="Helvetica,sans-Serif" font-size="10.00">../compiler.h</text>
</a>
</g>
</g>
<!-- Node5&#45;&gt;Node6 -->
<g id="edge8" class="edge"><title>Node5&#45;&gt;Node6</title>
<path fill="none" stroke="midnightblue" d="M249.783,-112.776C259.336,-104.715 273.78,-92.5281 285.284,-82.8211"/>
<polygon fill="midnightblue" stroke="midnightblue" points="287.644,-85.4093 293.03,-76.2855 283.13,-80.0592 287.644,-85.4093"/>
</g>
<!-- Node6&#45;&gt;Node4 -->
<g id="edge10" class="edge"><title>Node6&#45;&gt;Node4</title>
<path fill="none" stroke="midnightblue" d="M293.217,-56.7756C283.664,-48.7148 269.22,-36.5281 257.716,-26.8211"/>
<polygon fill="midnightblue" stroke="midnightblue" points="259.87,-24.0592 249.97,-20.2855 255.356,-29.4093 259.87,-24.0592"/>
</g>
<!-- Node7 -->
<g id="node8" class="node"><title>Node7</title>
<g id="a_node8"><a xlink:title=" ">
<polygon fill="white" stroke="#bfbfbf" points="364.5,-0.951632 364.5,-19.9516 414.5,-19.9516 414.5,-0.951632 364.5,-0.951632"/>
<text text-anchor="middle" x="389.5" y="-7.95163" font-family="Helvetica,sans-Serif" font-size="10.00">ciso646</text>
</a>
</g>
</g>
<!-- Node6&#45;&gt;Node7 -->
<g id="edge9" class="edge"><title>Node6&#45;&gt;Node7</title>
<path fill="none" stroke="midnightblue" d="M317.317,-56.7756C330.733,-48.3519 351.324,-35.4225 367.086,-25.5258"/>
<polygon fill="midnightblue" stroke="midnightblue" points="369.109,-28.388 375.717,-20.1061 365.387,-22.4597 369.109,-28.388"/>
</g>
<!-- Node8 -->
<g id="node9" class="node"><title>Node8</title>
<g id="a_node9"><a xlink:href="signal_8h.xhtml" target="_top" xlink:title=" ">
<polygon fill="white" stroke="black" points="278.5,-0.951632 278.5,-19.9516 328.5,-19.9516 328.5,-0.951632 278.5,-0.951632"/>
<text text-anchor="middle" x="303.5" y="-7.95163" font-family="Helvetica,sans-Serif" font-size="10.00">signal.h</text>
</a>
</g>
</g>
<!-- Node6&#45;&gt;Node8 -->
<g id="edge11" class="edge"><title>Node6&#45;&gt;Node8</title>
<path fill="none" stroke="midnightblue" d="M303.5,-56.5346C303.5,-49.4575 303.5,-39.3127 303.5,-30.4381"/>
<polygon fill="midnightblue" stroke="midnightblue" points="307,-30.2027 303.5,-20.2027 300,-30.2027 307,-30.2027"/>
</g>
<!-- Node8&#45;&gt;Node8 -->
<g id="edge12" class="edge"><title>Node8&#45;&gt;Node8</title>
<path fill="none" stroke="midnightblue" d="M322.063,-20.0262C334.446,-22.7213 346.5,-19.5298 346.5,-10.4516 346.5,-3.92673 340.273,-0.442852 332.173,-0"/>
<polygon fill="midnightblue" stroke="midnightblue" points="331.723,3.47427 322.063,-0.877047 332.329,-3.49953 331.723,3.47427"/>
</g>
</g>
</svg>
