<?xml version="1.0" encoding="UTF-8" standalone="no"?>
<!DOCTYPE svg PUBLIC "-//W3C//DTD SVG 1.1//EN"
 "http://www.w3.org/Graphics/SVG/1.1/DTD/svg11.dtd">
<!-- Generated by graphviz version 2.38.0 (20140413.2041)
 -->
<!-- Title: libopenage/util/filelike/native.cpp Pages: 1 -->
<!--zoomable 431 -->
<svg id="main" version="1.1" xmlns="http://www.w3.org/2000/svg" xmlns:xlink="http://www.w3.org/1999/xlink" xml:space="preserve" onload="init(evt)">
<style type="text/css"><![CDATA[
.edge:hover path { stroke: red; }
.edge:hover polygon { stroke: red; fill: red; }
]]></style>
<script type="text/javascript"><![CDATA[
var edges = document.getElementsByTagName('g');
if (edges && edges.length) {
  for (var i=0;i<edges.length;i++) {
    if (edges[i].id.substr(0,4)=='edge') {
      edges[i].setAttribute('class','edge');
    }
  }
}
]]></script>
        <defs>
                <circle id="rim" cx="0" cy="0" r="7"/>
                <circle id="rim2" cx="0" cy="0" r="3.5"/>
                <g id="zoomPlus">
                        <use xlink:href="#rim" fill="#404040">
                                <set attributeName="fill" to="#808080" begin="zoomplus.mouseover" end="zoomplus.mouseout"/>
                        </use>
                        <path d="M-4,0h8M0,-4v8" fill="none" stroke="white" stroke-width="1.5" pointer-events="none"/>
                </g>
                <g id="zoomMin">
                        <use xlink:href="#rim" fill="#404040">
                                <set attributeName="fill" to="#808080" begin="zoomminus.mouseover" end="zoomminus.mouseout"/>
                        </use>
                        <path d="M-4,0h8" fill="none" stroke="white" stroke-width="1.5" pointer-events="none"/>
                </g>
                <g id="dirArrow">
                        <path fill="none" stroke="white" stroke-width="1.5" d="M0,-3.0v7 M-2.5,-0.5L0,-3.0L2.5,-0.5"/>
                </g>
               <g id="resetDef">
                       <use xlink:href="#rim2" fill="#404040">
                               <set attributeName="fill" to="#808080" begin="reset.mouseover" end="reset.mouseout"/>
                       </use>
               </g>
        </defs>

<script type="text/javascript">
var viewWidth = 1068;
var viewHeight = 431;
var sectionId = 'dynsection-0';
</script>
<script xlink:href="svgpan.js"/>
<svg id="graph" class="graph">
<g id="viewport">
<title>libopenage/util/filelike/native.cpp</title>
<polygon fill="white" stroke="none" points="-4,4 -4,-427.452 1064,-427.452 1064,4 -4,4"/>
<!-- Node0 -->
<g id="node1" class="node"><title>Node0</title>
<g id="a_node1"><a xlink:title=" ">
<polygon fill="#bfbfbf" stroke="black" points="734.5,-392.952 734.5,-422.952 843.5,-422.952 843.5,-392.952 734.5,-392.952"/>
<text text-anchor="start" x="742.5" y="-410.952" font-family="Helvetica,sans-Serif" font-size="10.00">libopenage/util/filelike</text>
<text text-anchor="middle" x="789" y="-399.952" font-family="Helvetica,sans-Serif" font-size="10.00">/native.cpp</text>
</a>
</g>
</g>
<!-- Node1 -->
<g id="node2" class="node"><title>Node1</title>
<g id="a_node2"><a xlink:href="filelike_2native_8h.xhtml" target="_top" xlink:title=" ">
<polygon fill="white" stroke="black" points="909,-168.952 909,-187.952 959,-187.952 959,-168.952 909,-168.952"/>
<text text-anchor="middle" x="934" y="-175.952" font-family="Helvetica,sans-Serif" font-size="10.00">native.h</text>
</a>
</g>
</g>
<!-- Node0&#45;&gt;Node1 -->
<g id="edge1" class="edge"><title>Node0&#45;&gt;Node1</title>
<path fill="none" stroke="midnightblue" d="M810.79,-392.777C836.978,-374.578 880.34,-340.52 904,-300.452 923.285,-267.792 930.225,-223.144 932.685,-198.227"/>
<polygon fill="midnightblue" stroke="midnightblue" points="936.194,-198.257 933.547,-187.998 929.219,-197.669 936.194,-198.257"/>
</g>
<!-- Node10 -->
<g id="node11" class="node"><title>Node10</title>
<g id="a_node11"><a xlink:title=" ">
<polygon fill="white" stroke="#bfbfbf" points="196,-112.952 196,-131.952 248,-131.952 248,-112.952 196,-112.952"/>
<text text-anchor="middle" x="222" y="-119.952" font-family="Helvetica,sans-Serif" font-size="10.00">sstream</text>
</a>
</g>
</g>
<!-- Node0&#45;&gt;Node10 -->
<g id="edge14" class="edge"><title>Node0&#45;&gt;Node10</title>
<path fill="none" stroke="midnightblue" d="M734.458,-404.725C555.864,-396.717 0,-365.819 0,-291.452 0,-291.452 0,-291.452 0,-233.452 0,-190.341 34.4363,-189.607 72,-168.452 108.076,-148.134 154.311,-136.065 185.852,-129.621"/>
<polygon fill="midnightblue" stroke="midnightblue" points="186.807,-133.001 195.95,-127.647 185.464,-126.131 186.807,-133.001"/>
</g>
<!-- Node11 -->
<g id="node12" class="node"><title>Node11</title>
<g id="a_node12"><a xlink:href="error_2error_8h.xhtml" target="_top" xlink:title=" ">
<polygon fill="white" stroke="black" points="746.5,-336.952 746.5,-355.952 831.5,-355.952 831.5,-336.952 746.5,-336.952"/>
<text text-anchor="middle" x="789" y="-343.952" font-family="Helvetica,sans-Serif" font-size="10.00">../../error/error.h</text>
</a>
</g>
</g>
<!-- Node0&#45;&gt;Node11 -->
<g id="edge15" class="edge"><title>Node0&#45;&gt;Node11</title>
<path fill="none" stroke="midnightblue" d="M789,-392.851C789,-384.918 789,-374.91 789,-366.31"/>
<polygon fill="midnightblue" stroke="midnightblue" points="792.5,-366.109 789,-356.109 785.5,-366.109 792.5,-366.109"/>
</g>
<!-- Node2 -->
<g id="node3" class="node"><title>Node2</title>
<g id="a_node3"><a xlink:title=" ">
<polygon fill="white" stroke="#bfbfbf" points="874.5,-112.952 874.5,-131.952 923.5,-131.952 923.5,-112.952 874.5,-112.952"/>
<text text-anchor="middle" x="899" y="-119.952" font-family="Helvetica,sans-Serif" font-size="10.00">fstream</text>
</a>
</g>
</g>
<!-- Node1&#45;&gt;Node2 -->
<g id="edge2" class="edge"><title>Node1&#45;&gt;Node2</title>
<path fill="none" stroke="midnightblue" d="M928.22,-168.535C923.328,-160.986 916.173,-149.946 910.167,-140.681"/>
<polygon fill="midnightblue" stroke="midnightblue" points="913.048,-138.691 904.672,-132.203 907.174,-142.498 913.048,-138.691"/>
</g>
<!-- Node3 -->
<g id="node4" class="node"><title>Node3</title>
<g id="a_node4"><a xlink:title=" ">
<polygon fill="white" stroke="#bfbfbf" points="781,-56.9516 781,-75.9516 835,-75.9516 835,-56.9516 781,-56.9516"/>
<text text-anchor="middle" x="808" y="-63.9516" font-family="Helvetica,sans-Serif" font-size="10.00">iostream</text>
</a>
</g>
</g>
<!-- Node1&#45;&gt;Node3 -->
<g id="edge3" class="edge"><title>Node1&#45;&gt;Node3</title>
<path fill="none" stroke="midnightblue" d="M918.356,-168.908C903.791,-160.581 881.855,-147.068 865,-132.452 848.071,-117.771 831.501,-98.1062 820.63,-84.2639"/>
<polygon fill="midnightblue" stroke="midnightblue" points="823.234,-81.9095 814.362,-76.1192 817.687,-86.1787 823.234,-81.9095"/>
</g>
<!-- Node4 -->
<g id="node5" class="node"><title>Node4</title>
<g id="a_node5"><a xlink:title=" ">
<polygon fill="white" stroke="#bfbfbf" points="728,-112.952 728,-131.952 780,-131.952 780,-112.952 728,-112.952"/>
<text text-anchor="middle" x="754" y="-119.952" font-family="Helvetica,sans-Serif" font-size="10.00">memory</text>
</a>
</g>
</g>
<!-- Node1&#45;&gt;Node4 -->
<g id="edge4" class="edge"><title>Node1&#45;&gt;Node4</title>
<path fill="none" stroke="midnightblue" d="M908.972,-169.943C878.112,-160.685 825.429,-144.88 790.17,-134.303"/>
<polygon fill="midnightblue" stroke="midnightblue" points="790.86,-130.856 780.276,-131.334 788.848,-137.56 790.86,-130.856"/>
</g>
<!-- Node5 -->
<g id="node6" class="node"><title>Node5</title>
<g id="a_node6"><a xlink:title=" ">
<polygon fill="white" stroke="#bfbfbf" points="679.5,-0.951632 679.5,-19.9516 720.5,-19.9516 720.5,-0.951632 679.5,-0.951632"/>
<text text-anchor="middle" x="700" y="-7.95163" font-family="Helvetica,sans-Serif" font-size="10.00">string</text>
</a>
</g>
</g>
<!-- Node1&#45;&gt;Node5 -->
<g id="edge5" class="edge"><title>Node1&#45;&gt;Node5</title>
<path fill="none" stroke="midnightblue" d="M955.926,-168.927C981.503,-157.646 1018.44,-136.371 1003,-112.452 972.604,-65.3728 801.321,-29.674 730.573,-16.7334"/>
<polygon fill="midnightblue" stroke="midnightblue" points="730.967,-13.2481 720.505,-14.9219 729.727,-20.1375 730.967,-13.2481"/>
</g>
<!-- Node6 -->
<g id="node7" class="node"><title>Node6</title>
<g id="a_node7"><a xlink:href="filelike_8h.xhtml" target="_top" xlink:title=" ">
<polygon fill="white" stroke="black" points="942,-112.952 942,-131.952 994,-131.952 994,-112.952 942,-112.952"/>
<text text-anchor="middle" x="968" y="-119.952" font-family="Helvetica,sans-Serif" font-size="10.00">filelike.h</text>
</a>
</g>
</g>
<!-- Node1&#45;&gt;Node6 -->
<g id="edge6" class="edge"><title>Node1&#45;&gt;Node6</title>
<path fill="none" stroke="midnightblue" d="M939.614,-168.535C944.367,-160.986 951.318,-149.946 957.152,-140.681"/>
<polygon fill="midnightblue" stroke="midnightblue" points="960.124,-142.53 962.49,-132.203 954.2,-138.8 960.124,-142.53"/>
</g>
<!-- Node6&#45;&gt;Node3 -->
<g id="edge7" class="edge"><title>Node6&#45;&gt;Node3</title>
<path fill="none" stroke="midnightblue" d="M942.648,-112.895C915.731,-103.811 873.004,-89.3904 842.913,-79.2348"/>
<polygon fill="midnightblue" stroke="midnightblue" points="843.828,-75.8497 833.234,-75.9681 841.59,-82.4821 843.828,-75.8497"/>
</g>
<!-- Node6&#45;&gt;Node5 -->
<g id="edge8" class="edge"><title>Node6&#45;&gt;Node5</title>
<path fill="none" stroke="midnightblue" d="M953.526,-112.764C930.799,-99.3781 885.092,-73.4797 844,-56.4516 805.905,-40.6654 760.203,-27.2763 730.659,-19.3065"/>
<polygon fill="midnightblue" stroke="midnightblue" points="731.485,-15.9047 720.922,-16.7185 729.687,-22.6698 731.485,-15.9047"/>
</g>
<!-- Node7 -->
<g id="node8" class="node"><title>Node7</title>
<g id="a_node8"><a xlink:href="compiler_8h.xhtml" target="_top" xlink:title=" ">
<polygon fill="white" stroke="black" points="139.5,-56.9516 139.5,-75.9516 210.5,-75.9516 210.5,-56.9516 139.5,-56.9516"/>
<text text-anchor="middle" x="175" y="-63.9516" font-family="Helvetica,sans-Serif" font-size="10.00">../compiler.h</text>
</a>
</g>
</g>
<!-- Node6&#45;&gt;Node7 -->
<g id="edge9" class="edge"><title>Node6&#45;&gt;Node7</title>
<path fill="none" stroke="midnightblue" d="M941.768,-114.296C938.497,-113.581 935.184,-112.94 932,-112.452 664.83,-71.4777 339.317,-67.2815 220.871,-67.2263"/>
<polygon fill="midnightblue" stroke="midnightblue" points="220.717,-63.7263 210.719,-67.2318 220.721,-70.7263 220.717,-63.7263"/>
</g>
<!-- Node7&#45;&gt;Node5 -->
<g id="edge11" class="edge"><title>Node7&#45;&gt;Node5</title>
<path fill="none" stroke="midnightblue" d="M210.556,-61.7678C226.316,-60.1364 245.083,-58.1957 262,-56.4516 414.97,-40.6814 598.001,-21.9077 669.384,-14.5897"/>
<polygon fill="midnightblue" stroke="midnightblue" points="669.884,-18.0568 679.475,-13.5552 669.171,-11.0933 669.884,-18.0568"/>
</g>
<!-- Node8 -->
<g id="node9" class="node"><title>Node8</title>
<g id="a_node9"><a xlink:title=" ">
<polygon fill="white" stroke="#bfbfbf" points="193,-0.951632 193,-19.9516 243,-19.9516 243,-0.951632 193,-0.951632"/>
<text text-anchor="middle" x="218" y="-7.95163" font-family="Helvetica,sans-Serif" font-size="10.00">ciso646</text>
</a>
</g>
</g>
<!-- Node7&#45;&gt;Node8 -->
<g id="edge10" class="edge"><title>Node7&#45;&gt;Node8</title>
<path fill="none" stroke="midnightblue" d="M182.101,-56.5346C188.237,-48.8284 197.27,-37.485 204.739,-28.1047"/>
<polygon fill="midnightblue" stroke="midnightblue" points="207.54,-30.2058 211.032,-20.2027 202.064,-25.8453 207.54,-30.2058"/>
</g>
<!-- Node9 -->
<g id="node10" class="node"><title>Node9</title>
<g id="a_node10"><a xlink:href="signal_8h.xhtml" target="_top" xlink:title=" ">
<polygon fill="white" stroke="black" points="107,-0.951632 107,-19.9516 157,-19.9516 157,-0.951632 107,-0.951632"/>
<text text-anchor="middle" x="132" y="-7.95163" font-family="Helvetica,sans-Serif" font-size="10.00">signal.h</text>
</a>
</g>
</g>
<!-- Node7&#45;&gt;Node9 -->
<g id="edge12" class="edge"><title>Node7&#45;&gt;Node9</title>
<path fill="none" stroke="midnightblue" d="M167.899,-56.5346C161.763,-48.8284 152.73,-37.485 145.261,-28.1047"/>
<polygon fill="midnightblue" stroke="midnightblue" points="147.936,-25.8453 138.968,-20.2027 142.46,-30.2058 147.936,-25.8453"/>
</g>
<!-- Node9&#45;&gt;Node9 -->
<g id="edge13" class="edge"><title>Node9&#45;&gt;Node9</title>
<path fill="none" stroke="midnightblue" d="M150.563,-20.0262C162.946,-22.7213 175,-19.5298 175,-10.4516 175,-3.92673 168.773,-0.442852 160.673,-0"/>
<polygon fill="midnightblue" stroke="midnightblue" points="160.223,3.47427 150.563,-0.877047 160.829,-3.49953 160.223,3.47427"/>
</g>
<!-- Node11&#45;&gt;Node3 -->
<g id="edge16" class="edge"><title>Node11&#45;&gt;Node3</title>
<path fill="none" stroke="midnightblue" d="M791.562,-336.7C796.749,-318.189 808,-273.63 808,-235.452 808,-235.452 808,-235.452 808,-177.452 808,-145.4 808,-108.094 808,-86.2005"/>
<polygon fill="midnightblue" stroke="midnightblue" points="811.5,-86.0094 808,-76.0094 804.5,-86.0094 811.5,-86.0094"/>
</g>
<!-- Node11&#45;&gt;Node4 -->
<g id="edge17" class="edge"><title>Node11&#45;&gt;Node4</title>
<path fill="none" stroke="midnightblue" d="M787.628,-336.749C782.478,-304.084 764.227,-188.318 756.989,-142.409"/>
<polygon fill="midnightblue" stroke="midnightblue" points="760.415,-141.668 755.401,-132.335 753.501,-142.758 760.415,-141.668"/>
</g>
<!-- Node11&#45;&gt;Node5 -->
<g id="edge19" class="edge"><title>Node11&#45;&gt;Node5</title>
<path fill="none" stroke="midnightblue" d="M831.642,-339.323C907.959,-325.688 1060,-285.247 1060,-179.452 1060,-179.452 1060,-179.452 1060,-121.452 1060,-52.8343 817.771,-22.7733 730.704,-14.1845"/>
<polygon fill="midnightblue" stroke="midnightblue" points="730.937,-10.6908 720.648,-13.2206 730.269,-17.6589 730.937,-10.6908"/>
</g>
<!-- Node11&#45;&gt;Node7 -->
<g id="edge20" class="edge"><title>Node11&#45;&gt;Node7</title>
<path fill="none" stroke="midnightblue" d="M746.471,-343.744C587.602,-336.807 38,-307.597 38,-235.452 38,-235.452 38,-235.452 38,-177.452 38,-147.354 36.5852,-134.567 57,-112.452 67.7891,-100.764 104.255,-87.8686 133.826,-78.8897"/>
<polygon fill="midnightblue" stroke="midnightblue" points="134.954,-82.2058 143.542,-76.0021 132.96,-75.4958 134.954,-82.2058"/>
</g>
<!-- Node12 -->
<g id="node13" class="node"><title>Node12</title>
<g id="a_node13"><a xlink:title=" ">
<polygon fill="white" stroke="#bfbfbf" points="836.5,-280.952 836.5,-299.952 895.5,-299.952 895.5,-280.952 836.5,-280.952"/>
<text text-anchor="middle" x="866" y="-287.952" font-family="Helvetica,sans-Serif" font-size="10.00">stdexcept</text>
</a>
</g>
</g>
<!-- Node11&#45;&gt;Node12 -->
<g id="edge18" class="edge"><title>Node11&#45;&gt;Node12</title>
<path fill="none" stroke="midnightblue" d="M801.371,-336.776C813.158,-328.509 831.132,-315.904 845.136,-306.084"/>
<polygon fill="midnightblue" stroke="midnightblue" points="847.482,-308.714 853.659,-300.106 843.462,-302.982 847.482,-308.714"/>
</g>
<!-- Node13 -->
<g id="node14" class="node"><title>Node13</title>
<g id="a_node14"><a xlink:href="message_8h.xhtml" target="_top" xlink:title=" ">
<polygon fill="white" stroke="black" points="364.5,-280.952 364.5,-299.952 453.5,-299.952 453.5,-280.952 364.5,-280.952"/>
<text text-anchor="middle" x="409" y="-287.952" font-family="Helvetica,sans-Serif" font-size="10.00">../log/message.h</text>
</a>
</g>
</g>
<!-- Node11&#45;&gt;Node13 -->
<g id="edge21" class="edge"><title>Node11&#45;&gt;Node13</title>
<path fill="none" stroke="midnightblue" d="M746.148,-339.362C676.908,-329.523 540.491,-310.137 464.115,-299.284"/>
<polygon fill="midnightblue" stroke="midnightblue" points="464.143,-295.753 453.75,-297.811 463.158,-302.683 464.143,-295.753"/>
</g>
<!-- Node13&#45;&gt;Node5 -->
<g id="edge23" class="edge"><title>Node13&#45;&gt;Node5</title>
<path fill="none" stroke="midnightblue" d="M453.707,-287.472C494.35,-283.772 554.45,-273.377 598,-244.452 649.39,-210.319 656.095,-189.325 680,-132.452 694.387,-98.2226 698.454,-54.4808 699.585,-30.0687"/>
<polygon fill="midnightblue" stroke="midnightblue" points="703.084,-30.1539 699.93,-20.0393 696.088,-29.9127 703.084,-30.1539"/>
</g>
<!-- Node14 -->
<g id="node15" class="node"><title>Node14</title>
<g id="a_node15"><a xlink:title=" ">
<polygon fill="white" stroke="#bfbfbf" points="543,-224.952 543,-243.952 589,-243.952 589,-224.952 543,-224.952"/>
<text text-anchor="middle" x="566" y="-231.952" font-family="Helvetica,sans-Serif" font-size="10.00">cstdint</text>
</a>
</g>
</g>
<!-- Node13&#45;&gt;Node14 -->
<g id="edge22" class="edge"><title>Node13&#45;&gt;Node14</title>
<path fill="none" stroke="midnightblue" d="M433.877,-280.895C460.755,-271.65 503.7,-256.88 533.293,-246.701"/>
<polygon fill="midnightblue" stroke="midnightblue" points="534.457,-250.002 542.775,-243.44 532.18,-243.383 534.457,-250.002"/>
</g>
<!-- Node15 -->
<g id="node16" class="node"><title>Node15</title>
<g id="a_node16"><a xlink:title=" ">
<polygon fill="white" stroke="#bfbfbf" points="235,-224.952 235,-243.952 285,-243.952 285,-224.952 235,-224.952"/>
<text text-anchor="middle" x="260" y="-231.952" font-family="Helvetica,sans-Serif" font-size="10.00">config.h</text>
</a>
</g>
</g>
<!-- Node13&#45;&gt;Node15 -->
<g id="edge24" class="edge"><title>Node13&#45;&gt;Node15</title>
<path fill="none" stroke="midnightblue" d="M385.391,-280.895C360.542,-271.89 321.226,-257.641 293.246,-247.501"/>
<polygon fill="midnightblue" stroke="midnightblue" points="294.093,-244.085 283.499,-243.968 291.708,-250.666 294.093,-244.085"/>
</g>
<!-- Node16 -->
<g id="node17" class="node"><title>Node16</title>
<g id="a_node17"><a xlink:href="constexpr_8h.xhtml" target="_top" xlink:title=" ">
<polygon fill="white" stroke="black" points="303,-224.952 303,-243.952 395,-243.952 395,-224.952 303,-224.952"/>
<text text-anchor="middle" x="349" y="-231.952" font-family="Helvetica,sans-Serif" font-size="10.00">../util/constexpr.h</text>
</a>
</g>
</g>
<!-- Node13&#45;&gt;Node16 -->
<g id="edge25" class="edge"><title>Node13&#45;&gt;Node16</title>
<path fill="none" stroke="midnightblue" d="M399.36,-280.776C390.49,-272.793 377.125,-260.764 366.392,-251.105"/>
<polygon fill="midnightblue" stroke="midnightblue" points="368.59,-248.374 358.815,-244.286 363.907,-253.577 368.59,-248.374"/>
</g>
<!-- Node18 -->
<g id="node19" class="node"><title>Node18</title>
<g id="a_node19"><a xlink:href="stringformatter_8h.xhtml" target="_top" xlink:title=" ">
<polygon fill="white" stroke="black" points="413,-224.952 413,-243.952 525,-243.952 525,-224.952 413,-224.952"/>
<text text-anchor="middle" x="469" y="-231.952" font-family="Helvetica,sans-Serif" font-size="10.00">../util/stringformatter.h</text>
</a>
</g>
</g>
<!-- Node13&#45;&gt;Node18 -->
<g id="edge27" class="edge"><title>Node13&#45;&gt;Node18</title>
<path fill="none" stroke="midnightblue" d="M418.64,-280.776C427.51,-272.793 440.875,-260.764 451.608,-251.105"/>
<polygon fill="midnightblue" stroke="midnightblue" points="454.093,-253.577 459.185,-244.286 449.41,-248.374 454.093,-253.577"/>
</g>
<!-- Node27 -->
<g id="node28" class="node"><title>Node27</title>
<g id="a_node28"><a xlink:href="logsink_8h.xhtml" target="_top" xlink:title=" ">
<polygon fill="white" stroke="black" points="149,-224.952 149,-243.952 205,-243.952 205,-224.952 149,-224.952"/>
<text text-anchor="middle" x="177" y="-231.952" font-family="Helvetica,sans-Serif" font-size="10.00">logsink.h</text>
</a>
</g>
</g>
<!-- Node13&#45;&gt;Node27 -->
<g id="edge43" class="edge"><title>Node13&#45;&gt;Node27</title>
<path fill="none" stroke="midnightblue" d="M372.239,-280.895C329.301,-270.901 258.617,-254.449 215.109,-244.322"/>
<polygon fill="midnightblue" stroke="midnightblue" points="215.73,-240.873 205.197,-242.015 214.143,-247.691 215.73,-240.873"/>
</g>
<!-- Node30 -->
<g id="node31" class="node"><title>Node30</title>
<g id="a_node31"><a xlink:href="level_8h.xhtml" target="_top" xlink:title=" ">
<polygon fill="white" stroke="black" points="81,-168.952 81,-187.952 125,-187.952 125,-168.952 81,-168.952"/>
<text text-anchor="middle" x="103" y="-175.952" font-family="Helvetica,sans-Serif" font-size="10.00">level.h</text>
</a>
</g>
</g>
<!-- Node13&#45;&gt;Node30 -->
<g id="edge51" class="edge"><title>Node13&#45;&gt;Node30</title>
<path fill="none" stroke="midnightblue" d="M364.246,-286.591C297.385,-281.558 175.475,-269.221 140,-244.452 124.065,-233.326 114.116,-212.991 108.6,-198.018"/>
<polygon fill="midnightblue" stroke="midnightblue" points="111.832,-196.648 105.345,-188.272 105.193,-198.866 111.832,-196.648"/>
</g>
<!-- Node17 -->
<g id="node18" class="node"><title>Node17</title>
<g id="a_node18"><a xlink:title=" ">
<polygon fill="white" stroke="#bfbfbf" points="252.5,-168.952 252.5,-187.952 297.5,-187.952 297.5,-168.952 252.5,-168.952"/>
<text text-anchor="middle" x="275" y="-175.952" font-family="Helvetica,sans-Serif" font-size="10.00">cstdlib</text>
</a>
</g>
</g>
<!-- Node16&#45;&gt;Node17 -->
<g id="edge26" class="edge"><title>Node16&#45;&gt;Node17</title>
<path fill="none" stroke="midnightblue" d="M337.111,-224.776C325.85,-216.558 308.713,-204.053 295.291,-194.258"/>
<polygon fill="midnightblue" stroke="midnightblue" points="297.247,-191.353 287.106,-188.286 293.12,-197.008 297.247,-191.353"/>
</g>
<!-- Node18&#45;&gt;Node4 -->
<g id="edge29" class="edge"><title>Node18&#45;&gt;Node4</title>
<path fill="none" stroke="midnightblue" d="M502.872,-224.925C533.612,-216.804 579.965,-203.596 619,-188.452 658.526,-173.117 702.443,-150.961 729.139,-136.886"/>
<polygon fill="midnightblue" stroke="midnightblue" points="730.967,-139.878 738.155,-132.093 727.682,-133.697 730.967,-139.878"/>
</g>
<!-- Node18&#45;&gt;Node7 -->
<g id="edge31" class="edge"><title>Node18&#45;&gt;Node7</title>
<path fill="none" stroke="midnightblue" d="M449.134,-224.889C418.642,-211.892 358.336,-186.765 306,-168.452 253.845,-150.201 223.84,-173.635 187,-132.452 175.892,-120.034 173.524,-100.794 173.555,-86.465"/>
<polygon fill="midnightblue" stroke="midnightblue" points="177.061,-86.3846 173.973,-76.2498 170.067,-86.0982 177.061,-86.3846"/>
</g>
<!-- Node19 -->
<g id="node20" class="node"><title>Node19</title>
<g id="a_node20"><a xlink:title=" ">
<polygon fill="white" stroke="#bfbfbf" points="446,-168.952 446,-187.952 492,-187.952 492,-168.952 446,-168.952"/>
<text text-anchor="middle" x="469" y="-175.952" font-family="Helvetica,sans-Serif" font-size="10.00">atomic</text>
</a>
</g>
</g>
<!-- Node18&#45;&gt;Node19 -->
<g id="edge28" class="edge"><title>Node18&#45;&gt;Node19</title>
<path fill="none" stroke="midnightblue" d="M469,-224.535C469,-217.458 469,-207.313 469,-198.438"/>
<polygon fill="midnightblue" stroke="midnightblue" points="472.5,-198.203 469,-188.203 465.5,-198.203 472.5,-198.203"/>
</g>
<!-- Node20 -->
<g id="node21" class="node"><title>Node20</title>
<g id="a_node21"><a xlink:title=" ">
<polygon fill="white" stroke="#bfbfbf" points="548,-168.952 548,-187.952 610,-187.952 610,-168.952 548,-168.952"/>
<text text-anchor="middle" x="579" y="-175.952" font-family="Helvetica,sans-Serif" font-size="10.00">type_traits</text>
</a>
</g>
</g>
<!-- Node18&#45;&gt;Node20 -->
<g id="edge30" class="edge"><title>Node18&#45;&gt;Node20</title>
<path fill="none" stroke="midnightblue" d="M486.673,-224.776C504.394,-216.076 531.903,-202.572 552.288,-192.565"/>
<polygon fill="midnightblue" stroke="midnightblue" points="553.936,-195.655 561.37,-188.106 550.851,-189.371 553.936,-195.655"/>
</g>
<!-- Node21 -->
<g id="node22" class="node"><title>Node21</title>
<g id="a_node22"><a xlink:href="externalsstream_8h.xhtml" target="_top" xlink:title=" ">
<polygon fill="white" stroke="black" points="576.5,-112.952 576.5,-131.952 671.5,-131.952 671.5,-112.952 576.5,-112.952"/>
<text text-anchor="middle" x="624" y="-119.952" font-family="Helvetica,sans-Serif" font-size="10.00">externalsstream.h</text>
</a>
</g>
</g>
<!-- Node18&#45;&gt;Node21 -->
<g id="edge32" class="edge"><title>Node18&#45;&gt;Node21</title>
<path fill="none" stroke="midnightblue" d="M476.997,-224.68C489.394,-211.41 514.393,-185.931 539,-168.452 556.524,-156.003 577.918,-144.695 594.858,-136.529"/>
<polygon fill="midnightblue" stroke="midnightblue" points="596.703,-139.529 604.255,-132.098 593.717,-133.197 596.703,-139.529"/>
</g>
<!-- Node22 -->
<g id="node23" class="node"><title>Node22</title>
<g id="a_node23"><a xlink:href="strings_8h.xhtml" target="_top" xlink:title=" ">
<polygon fill="white" stroke="black" points="374,-168.952 374,-187.952 428,-187.952 428,-168.952 374,-168.952"/>
<text text-anchor="middle" x="401" y="-175.952" font-family="Helvetica,sans-Serif" font-size="10.00">strings.h</text>
</a>
</g>
</g>
<!-- Node18&#45;&gt;Node22 -->
<g id="edge35" class="edge"><title>Node18&#45;&gt;Node22</title>
<path fill="none" stroke="midnightblue" d="M458.075,-224.776C447.825,-216.636 432.279,-204.291 419.999,-194.539"/>
<polygon fill="midnightblue" stroke="midnightblue" points="422.132,-191.763 412.124,-188.286 417.779,-197.245 422.132,-191.763"/>
</g>
<!-- Node21&#45;&gt;Node3 -->
<g id="edge33" class="edge"><title>Node21&#45;&gt;Node3</title>
<path fill="none" stroke="midnightblue" d="M653.155,-112.895C685.067,-103.53 736.302,-88.4935 771.017,-78.3052"/>
<polygon fill="midnightblue" stroke="midnightblue" points="772.171,-81.6144 780.781,-75.4399 770.2,-74.8977 772.171,-81.6144"/>
</g>
<!-- Node21&#45;&gt;Node5 -->
<g id="edge34" class="edge"><title>Node21&#45;&gt;Node5</title>
<path fill="none" stroke="midnightblue" d="M629.964,-112.82C642.506,-94.667 671.81,-52.2532 688.261,-28.4418"/>
<polygon fill="midnightblue" stroke="midnightblue" points="691.259,-30.2599 694.064,-20.0431 685.5,-26.2808 691.259,-30.2599"/>
</g>
<!-- Node22&#45;&gt;Node4 -->
<g id="edge39" class="edge"><title>Node22&#45;&gt;Node4</title>
<path fill="none" stroke="midnightblue" d="M428.059,-170.366C431.066,-169.675 434.092,-169.02 437,-168.452 490.188,-158.057 646.261,-137.39 717.631,-128.13"/>
<polygon fill="midnightblue" stroke="midnightblue" points="718.459,-131.552 727.927,-126.797 717.561,-124.61 718.459,-131.552"/>
</g>
<!-- Node22&#45;&gt;Node5 -->
<g id="edge41" class="edge"><title>Node22&#45;&gt;Node5</title>
<path fill="none" stroke="midnightblue" d="M373.806,-172.132C334.943,-163.312 270.746,-143.497 295,-112.452 341.687,-52.6916 582.746,-23.137 669.144,-14.3427"/>
<polygon fill="midnightblue" stroke="midnightblue" points="669.749,-17.7998 679.353,-13.3274 669.056,-10.8342 669.749,-17.7998"/>
</g>
<!-- Node22&#45;&gt;Node10 -->
<g id="edge40" class="edge"><title>Node22&#45;&gt;Node10</title>
<path fill="none" stroke="midnightblue" d="M373.814,-169.25C342.836,-159.905 292.088,-144.595 257.884,-134.277"/>
<polygon fill="midnightblue" stroke="midnightblue" points="258.859,-130.915 248.274,-131.378 256.837,-137.617 258.859,-130.915"/>
</g>
<!-- Node23 -->
<g id="node24" class="node"><title>Node23</title>
<g id="a_node24"><a xlink:title=" ">
<polygon fill="white" stroke="#bfbfbf" points="304.5,-112.952 304.5,-131.952 353.5,-131.952 353.5,-112.952 304.5,-112.952"/>
<text text-anchor="middle" x="329" y="-119.952" font-family="Helvetica,sans-Serif" font-size="10.00">cstdarg</text>
</a>
</g>
</g>
<!-- Node22&#45;&gt;Node23 -->
<g id="edge36" class="edge"><title>Node22&#45;&gt;Node23</title>
<path fill="none" stroke="midnightblue" d="M389.432,-168.776C378.58,-160.636 362.119,-148.291 349.117,-138.539"/>
<polygon fill="midnightblue" stroke="midnightblue" points="350.879,-135.486 340.779,-132.286 346.679,-141.086 350.879,-135.486"/>
</g>
<!-- Node24 -->
<g id="node25" class="node"><title>Node24</title>
<g id="a_node25"><a xlink:title=" ">
<polygon fill="white" stroke="#bfbfbf" points="372,-112.952 372,-131.952 430,-131.952 430,-112.952 372,-112.952"/>
<text text-anchor="middle" x="401" y="-119.952" font-family="Helvetica,sans-Serif" font-size="10.00">functional</text>
</a>
</g>
</g>
<!-- Node22&#45;&gt;Node24 -->
<g id="edge37" class="edge"><title>Node22&#45;&gt;Node24</title>
<path fill="none" stroke="midnightblue" d="M401,-168.535C401,-161.458 401,-151.313 401,-142.438"/>
<polygon fill="midnightblue" stroke="midnightblue" points="404.5,-142.203 401,-132.203 397.5,-142.203 404.5,-142.203"/>
</g>
<!-- Node25 -->
<g id="node26" class="node"><title>Node25</title>
<g id="a_node26"><a xlink:title=" ">
<polygon fill="white" stroke="#bfbfbf" points="448,-112.952 448,-131.952 498,-131.952 498,-112.952 448,-112.952"/>
<text text-anchor="middle" x="473" y="-119.952" font-family="Helvetica,sans-Serif" font-size="10.00">iomanip</text>
</a>
</g>
</g>
<!-- Node22&#45;&gt;Node25 -->
<g id="edge38" class="edge"><title>Node22&#45;&gt;Node25</title>
<path fill="none" stroke="midnightblue" d="M412.568,-168.776C423.42,-160.636 439.881,-148.291 452.883,-138.539"/>
<polygon fill="midnightblue" stroke="midnightblue" points="455.321,-141.086 461.221,-132.286 451.121,-135.486 455.321,-141.086"/>
</g>
<!-- Node26 -->
<g id="node27" class="node"><title>Node26</title>
<g id="a_node27"><a xlink:title=" ">
<polygon fill="white" stroke="#bfbfbf" points="516,-112.952 516,-131.952 558,-131.952 558,-112.952 516,-112.952"/>
<text text-anchor="middle" x="537" y="-119.952" font-family="Helvetica,sans-Serif" font-size="10.00">vector</text>
</a>
</g>
</g>
<!-- Node22&#45;&gt;Node26 -->
<g id="edge42" class="edge"><title>Node22&#45;&gt;Node26</title>
<path fill="none" stroke="midnightblue" d="M422.55,-168.895C445.163,-159.916 480.905,-145.725 506.429,-135.59"/>
<polygon fill="midnightblue" stroke="midnightblue" points="507.996,-138.734 515.998,-131.791 505.412,-132.228 507.996,-138.734"/>
</g>
<!-- Node28 -->
<g id="node29" class="node"><title>Node28</title>
<g id="a_node29"><a xlink:title=" ">
<polygon fill="white" stroke="#bfbfbf" points="205.5,-168.952 205.5,-187.952 234.5,-187.952 234.5,-168.952 205.5,-168.952"/>
<text text-anchor="middle" x="220" y="-175.952" font-family="Helvetica,sans-Serif" font-size="10.00">list</text>
</a>
</g>
</g>
<!-- Node27&#45;&gt;Node28 -->
<g id="edge44" class="edge"><title>Node27&#45;&gt;Node28</title>
<path fill="none" stroke="midnightblue" d="M184.101,-224.535C190.237,-216.828 199.27,-205.485 206.739,-196.105"/>
<polygon fill="midnightblue" stroke="midnightblue" points="209.54,-198.206 213.032,-188.203 204.064,-193.845 209.54,-198.206"/>
</g>
<!-- Node29 -->
<g id="node30" class="node"><title>Node29</title>
<g id="a_node30"><a xlink:title=" ">
<polygon fill="white" stroke="#bfbfbf" points="143,-168.952 143,-187.952 187,-187.952 187,-168.952 143,-168.952"/>
<text text-anchor="middle" x="165" y="-175.952" font-family="Helvetica,sans-Serif" font-size="10.00">mutex</text>
</a>
</g>
</g>
<!-- Node27&#45;&gt;Node29 -->
<g id="edge45" class="edge"><title>Node27&#45;&gt;Node29</title>
<path fill="none" stroke="midnightblue" d="M175.018,-224.535C173.428,-217.379 171.141,-207.087 169.154,-198.143"/>
<polygon fill="midnightblue" stroke="midnightblue" points="172.531,-197.205 166.945,-188.203 165.697,-198.724 172.531,-197.205"/>
</g>
<!-- Node27&#45;&gt;Node30 -->
<g id="edge46" class="edge"><title>Node27&#45;&gt;Node30</title>
<path fill="none" stroke="midnightblue" d="M165.111,-224.776C153.85,-216.558 136.713,-204.053 123.291,-194.258"/>
<polygon fill="midnightblue" stroke="midnightblue" points="125.247,-191.353 115.106,-188.286 121.12,-197.008 125.247,-191.353"/>
</g>
<!-- Node31 -->
<g id="node32" class="node"><title>Node31</title>
<g id="a_node32"><a xlink:href="enum_8h.xhtml" target="_top" xlink:title=" ">
<polygon fill="white" stroke="black" points="66,-112.952 66,-131.952 140,-131.952 140,-112.952 66,-112.952"/>
<text text-anchor="middle" x="103" y="-119.952" font-family="Helvetica,sans-Serif" font-size="10.00">../util/enum.h</text>
</a>
</g>
</g>
<!-- Node30&#45;&gt;Node31 -->
<g id="edge47" class="edge"><title>Node30&#45;&gt;Node31</title>
<path fill="none" stroke="midnightblue" d="M103,-168.535C103,-161.458 103,-151.313 103,-142.438"/>
<polygon fill="midnightblue" stroke="midnightblue" points="106.5,-142.203 103,-132.203 99.5001,-142.203 106.5,-142.203"/>
</g>
<!-- Node31&#45;&gt;Node3 -->
<g id="edge48" class="edge"><title>Node31&#45;&gt;Node3</title>
<path fill="none" stroke="midnightblue" d="M140.189,-117.189C154.774,-115.59 171.662,-113.829 187,-112.452 408.034,-92.6079 673.941,-75.6504 770.589,-69.7123"/>
<polygon fill="midnightblue" stroke="midnightblue" points="770.966,-73.1959 780.734,-69.0914 770.539,-66.209 770.966,-73.1959"/>
</g>
<!-- Node31&#45;&gt;Node7 -->
<g id="edge50" class="edge"><title>Node31&#45;&gt;Node7</title>
<path fill="none" stroke="midnightblue" d="M114.568,-112.776C125.42,-104.636 141.881,-92.2911 154.883,-82.5391"/>
<polygon fill="midnightblue" stroke="midnightblue" points="157.321,-85.0856 163.221,-76.2855 153.121,-79.4856 157.321,-85.0856"/>
</g>
<!-- Node32 -->
<g id="node33" class="node"><title>Node32</title>
<g id="a_node33"><a xlink:title=" ">
<polygon fill="white" stroke="#bfbfbf" points="71,-56.9516 71,-75.9516 121,-75.9516 121,-56.9516 71,-56.9516"/>
<text text-anchor="middle" x="96" y="-63.9516" font-family="Helvetica,sans-Serif" font-size="10.00">typeinfo</text>
</a>
</g>
</g>
<!-- Node31&#45;&gt;Node32 -->
<g id="edge49" class="edge"><title>Node31&#45;&gt;Node32</title>
<path fill="none" stroke="midnightblue" d="M101.844,-112.535C100.916,-105.379 99.5824,-95.0869 98.4229,-86.1428"/>
<polygon fill="midnightblue" stroke="midnightblue" points="101.891,-85.6698 97.1344,-76.2027 94.9491,-86.5697 101.891,-85.6698"/>
</g>
</g>
</svg>
        <g id="navigator" transform="translate(0 0)" fill="#404254">
                <rect fill="#f2f5e9" fill-opacity="0.5" stroke="#606060" stroke-width=".5" x="0" y="0" width="60" height="60"/>
                <use id="zoomplus" xlink:href="#zoomPlus" x="17" y="9" onmousedown="handleZoom(evt,'in')"/>
                <use id="zoomminus" xlink:href="#zoomMin" x="42" y="9" onmousedown="handleZoom(evt,'out')"/>
                <use id="reset" xlink:href="#resetDef" x="30" y="36" onmousedown="handleReset()"/>
                <g id="arrowUp" xlink:href="#dirArrow" transform="translate(30 24)" onmousedown="handlePan(0,-1)">
                  <use xlink:href="#rim" fill="#404040">
                        <set attributeName="fill" to="#808080" begin="arrowUp.mouseover" end="arrowUp.mouseout"/>
                  </use>
                  <path fill="none" stroke="white" stroke-width="1.5" d="M0,-3.0v7 M-2.5,-0.5L0,-3.0L2.5,-0.5"/>
                </g>
                <g id="arrowRight" xlink:href="#dirArrow" transform="rotate(90) translate(36 -43)" onmousedown="handlePan(1,0)">
                  <use xlink:href="#rim" fill="#404040">
                        <set attributeName="fill" to="#808080" begin="arrowRight.mouseover" end="arrowRight.mouseout"/>
                  </use>
                  <path fill="none" stroke="white" stroke-width="1.5" d="M0,-3.0v7 M-2.5,-0.5L0,-3.0L2.5,-0.5"/>
                </g>
                <g id="arrowDown" xlink:href="#dirArrow" transform="rotate(180) translate(-30 -48)" onmousedown="handlePan(0,1)">
                  <use xlink:href="#rim" fill="#404040">
                        <set attributeName="fill" to="#808080" begin="arrowDown.mouseover" end="arrowDown.mouseout"/>
                  </use>
                  <path fill="none" stroke="white" stroke-width="1.5" d="M0,-3.0v7 M-2.5,-0.5L0,-3.0L2.5,-0.5"/>
                </g>
                <g id="arrowLeft" xlink:href="#dirArrow" transform="rotate(270) translate(-36 17)" onmousedown="handlePan(-1,0)">
                  <use xlink:href="#rim" fill="#404040">
                        <set attributeName="fill" to="#808080" begin="arrowLeft.mouseover" end="arrowLeft.mouseout"/>
                  </use>
                  <path fill="none" stroke="white" stroke-width="1.5" d="M0,-3.0v7 M-2.5,-0.5L0,-3.0L2.5,-0.5"/>
                </g>
        </g>
        <svg viewBox="0 0 15 15" width="100%" height="30px" preserveAspectRatio="xMaxYMin meet">
         <g id="arrow_out" transform="scale(0.3 0.3)">
          <a xlink:href="filelike_2native_8cpp__incl_org.svg" target="_base">
           <rect id="button" ry="5" rx="5" y="6" x="6" height="38" width="38"
                fill="#f2f5e9" fill-opacity="0.5" stroke="#606060" stroke-width="1.0"/>
           <path id="arrow"
             d="M 11.500037,31.436501 C 11.940474,20.09759 22.043105,11.32322 32.158766,21.979434 L 37.068811,17.246167 C 37.068811,17.246167 37.088388,32 37.088388,32 L 22.160133,31.978069 C 22.160133,31.978069 26.997745,27.140456 26.997745,27.140456 C 18.528582,18.264221 13.291696,25.230495 11.500037,31.436501 z"
             style="fill:#404040;"/>
          </a>
         </g>
        </svg>
</svg>
