<?xml version="1.0" encoding="UTF-8" standalone="no"?>
<!DOCTYPE svg PUBLIC "-//W3C//DTD SVG 1.1//EN"
 "http://www.w3.org/Graphics/SVG/1.1/DTD/svg11.dtd">
<!-- Generated by graphviz version 2.38.0 (20140413.2041)
 -->
<!-- Title: C:/Users/Jameson/Documents/git&#45;projects/openage/libopenage/renderer/font/font_manager.h Pages: 1 -->
<svg width="1215pt" height="362pt"
 viewBox="0.00 0.00 1215.00 362.00" xmlns="http://www.w3.org/2000/svg" xmlns:xlink="http://www.w3.org/1999/xlink">
<g id="graph0" class="graph" transform="scale(1 1) rotate(0) translate(4 358)">
<title>C:/Users/Jameson/Documents/git&#45;projects/openage/libopenage/renderer/font/font_manager.h</title>
<polygon fill="white" stroke="none" points="-4,4 -4,-358 1211,-358 1211,4 -4,4"/>
<!-- Node32 -->
<g id="node1" class="node"><title>Node32</title>
<g id="a_node1"><a xlink:title=" ">
<polygon fill="#bfbfbf" stroke="black" points="461,-312.5 461,-353.5 618,-353.5 618,-312.5 461,-312.5"/>
<text text-anchor="start" x="469" y="-341.5" font-family="Helvetica,sans-Serif" font-size="10.00">C:/Users/Jameson/Documents</text>
<text text-anchor="start" x="469" y="-330.5" font-family="Helvetica,sans-Serif" font-size="10.00">/git&#45;projects/openage/libopenage</text>
<text text-anchor="middle" x="539.5" y="-319.5" font-family="Helvetica,sans-Serif" font-size="10.00">/renderer/font/font_manager.h</text>
</a>
</g>
</g>
<!-- Node33 -->
<g id="node2" class="node"><title>Node33</title>
<g id="a_node2"><a xlink:href="font_8h.xhtml" target="_top" xlink:title=" ">
<polygon fill="white" stroke="black" points="381,-234.5 381,-275.5 538,-275.5 538,-234.5 381,-234.5"/>
<text text-anchor="start" x="389" y="-263.5" font-family="Helvetica,sans-Serif" font-size="10.00">C:/Users/Jameson/Documents</text>
<text text-anchor="start" x="389" y="-252.5" font-family="Helvetica,sans-Serif" font-size="10.00">/git&#45;projects/openage/libopenage</text>
<text text-anchor="middle" x="459.5" y="-241.5" font-family="Helvetica,sans-Serif" font-size="10.00">/renderer/font/font.h</text>
</a>
</g>
</g>
<!-- Node32&#45;&gt;Node33 -->
<g id="edge1" class="edge"><title>Node32&#45;&gt;Node33</title>
<path fill="none" stroke="midnightblue" d="M511.596,-305.492C501.215,-295.629 489.634,-284.627 480.032,-275.506"/>
<polygon fill="midnightblue" stroke="midnightblue" points="509.237,-308.078 518.898,-312.428 514.059,-303.003 509.237,-308.078"/>
</g>
<!-- Node42 -->
<g id="node11" class="node"><title>Node42</title>
<g id="a_node11"><a xlink:href="engine_8cpp.xhtml" target="_top" xlink:title=" ">
<polygon fill="white" stroke="black" points="0,-0.5 0,-41.5 157,-41.5 157,-0.5 0,-0.5"/>
<text text-anchor="start" x="8" y="-29.5" font-family="Helvetica,sans-Serif" font-size="10.00">C:/Users/Jameson/Documents</text>
<text text-anchor="start" x="8" y="-18.5" font-family="Helvetica,sans-Serif" font-size="10.00">/git&#45;projects/openage/libopenage</text>
<text text-anchor="middle" x="78.5" y="-7.5" font-family="Helvetica,sans-Serif" font-size="10.00">/engine.cpp</text>
</a>
</g>
</g>
<!-- Node32&#45;&gt;Node42 -->
<g id="edge20" class="edge"><title>Node32&#45;&gt;Node42</title>
<path fill="none" stroke="midnightblue" d="M450.817,-326.767C356.066,-316.533 207.286,-286.415 116.5,-198 73.5027,-156.126 73.6264,-78.0628 76.3755,-41.6486"/>
<polygon fill="midnightblue" stroke="midnightblue" points="450.648,-330.268 460.953,-327.808 451.363,-323.304 450.648,-330.268"/>
</g>
<!-- Node46 -->
<g id="node15" class="node"><title>Node46</title>
<g id="a_node15"><a xlink:href="font__manager_8cpp.xhtml" target="_top" xlink:title=" ">
<polygon fill="white" stroke="black" points="568,-156.5 568,-197.5 725,-197.5 725,-156.5 568,-156.5"/>
<text text-anchor="start" x="576" y="-185.5" font-family="Helvetica,sans-Serif" font-size="10.00">C:/Users/Jameson/Documents</text>
<text text-anchor="start" x="576" y="-174.5" font-family="Helvetica,sans-Serif" font-size="10.00">/git&#45;projects/openage/libopenage</text>
<text text-anchor="middle" x="646.5" y="-163.5" font-family="Helvetica,sans-Serif" font-size="10.00">/renderer/font/font_manager.cpp</text>
</a>
</g>
</g>
<!-- Node32&#45;&gt;Node46 -->
<g id="edge21" class="edge"><title>Node32&#45;&gt;Node46</title>
<path fill="none" stroke="midnightblue" d="M558.982,-303.961C580.311,-273.263 613.968,-224.821 632.72,-197.832"/>
<polygon fill="midnightblue" stroke="midnightblue" points="555.883,-302.286 553.052,-312.496 561.632,-306.281 555.883,-302.286"/>
</g>
<!-- Node47 -->
<g id="node16" class="node"><title>Node47</title>
<g id="a_node16"><a xlink:href="renderer_2font_2tests_8cpp.xhtml" target="_top" xlink:title=" ">
<polygon fill="white" stroke="black" points="743,-156.5 743,-197.5 900,-197.5 900,-156.5 743,-156.5"/>
<text text-anchor="start" x="751" y="-185.5" font-family="Helvetica,sans-Serif" font-size="10.00">C:/Users/Jameson/Documents</text>
<text text-anchor="start" x="751" y="-174.5" font-family="Helvetica,sans-Serif" font-size="10.00">/git&#45;projects/openage/libopenage</text>
<text text-anchor="middle" x="821.5" y="-163.5" font-family="Helvetica,sans-Serif" font-size="10.00">/renderer/font/tests.cpp</text>
</a>
</g>
</g>
<!-- Node32&#45;&gt;Node47 -->
<g id="edge22" class="edge"><title>Node32&#45;&gt;Node47</title>
<path fill="none" stroke="midnightblue" d="M584.16,-307.611C639.95,-277.145 734.301,-225.619 785.63,-197.588"/>
<polygon fill="midnightblue" stroke="midnightblue" points="582.315,-304.631 575.215,-312.496 585.67,-310.775 582.315,-304.631"/>
</g>
<!-- Node34 -->
<g id="node3" class="node"><title>Node34</title>
<g id="a_node3"><a xlink:href="console_8h.xhtml" target="_top" xlink:title=" ">
<polygon fill="white" stroke="black" points="612,-78.5 612,-119.5 769,-119.5 769,-78.5 612,-78.5"/>
<text text-anchor="start" x="620" y="-107.5" font-family="Helvetica,sans-Serif" font-size="10.00">C:/Users/Jameson/Documents</text>
<text text-anchor="start" x="620" y="-96.5" font-family="Helvetica,sans-Serif" font-size="10.00">/git&#45;projects/openage/libopenage</text>
<text text-anchor="middle" x="690.5" y="-85.5" font-family="Helvetica,sans-Serif" font-size="10.00">/console/console.h</text>
</a>
</g>
</g>
<!-- Node33&#45;&gt;Node34 -->
<g id="edge2" class="edge"><title>Node33&#45;&gt;Node34</title>
<path fill="none" stroke="midnightblue" d="M488.873,-227.367C498.749,-218.207 509.734,-207.791 519.5,-198 537.489,-179.965 537.648,-170.631 558.5,-156 580.101,-140.844 606.444,-128.638 629.9,-119.538"/>
<polygon fill="midnightblue" stroke="midnightblue" points="486.215,-225.057 481.235,-234.408 490.96,-230.204 486.215,-225.057"/>
</g>
<!-- Node40 -->
<g id="node9" class="node"><title>Node40</title>
<g id="a_node9"><a xlink:href="glyph__atlas_8h.xhtml" target="_top" xlink:title=" ">
<polygon fill="white" stroke="black" points="179,-156.5 179,-197.5 336,-197.5 336,-156.5 179,-156.5"/>
<text text-anchor="start" x="187" y="-185.5" font-family="Helvetica,sans-Serif" font-size="10.00">C:/Users/Jameson/Documents</text>
<text text-anchor="start" x="187" y="-174.5" font-family="Helvetica,sans-Serif" font-size="10.00">/git&#45;projects/openage/libopenage</text>
<text text-anchor="middle" x="257.5" y="-163.5" font-family="Helvetica,sans-Serif" font-size="10.00">/renderer/font/glyph_atlas.h</text>
</a>
</g>
</g>
<!-- Node33&#45;&gt;Node40 -->
<g id="edge8" class="edge"><title>Node33&#45;&gt;Node40</title>
<path fill="none" stroke="midnightblue" d="M398.069,-230.887C369.712,-220.219 336.413,-207.69 309.344,-197.506"/>
<polygon fill="midnightblue" stroke="midnightblue" points="396.888,-234.182 407.48,-234.428 399.353,-227.631 396.888,-234.182"/>
</g>
<!-- Node33&#45;&gt;Node42 -->
<g id="edge15" class="edge"><title>Node33&#45;&gt;Node42</title>
<path fill="none" stroke="midnightblue" d="M370.438,-247.936C289.625,-240.729 178.127,-225.98 144.5,-198 119.603,-177.284 93.6345,-82.8775 83.2251,-41.5133"/>
<polygon fill="midnightblue" stroke="midnightblue" points="370.365,-251.443 380.63,-248.82 370.97,-244.469 370.365,-251.443"/>
</g>
<!-- Node43 -->
<g id="node12" class="node"><title>Node43</title>
<g id="a_node12"><a xlink:href="text_8cpp.xhtml" target="_top" xlink:title=" ">
<polygon fill="white" stroke="black" points="175,-0.5 175,-41.5 332,-41.5 332,-0.5 175,-0.5"/>
<text text-anchor="start" x="183" y="-29.5" font-family="Helvetica,sans-Serif" font-size="10.00">C:/Users/Jameson/Documents</text>
<text text-anchor="start" x="183" y="-18.5" font-family="Helvetica,sans-Serif" font-size="10.00">/git&#45;projects/openage/libopenage</text>
<text text-anchor="middle" x="253.5" y="-7.5" font-family="Helvetica,sans-Serif" font-size="10.00">/renderer/text.cpp</text>
</a>
</g>
</g>
<!-- Node33&#45;&gt;Node43 -->
<g id="edge19" class="edge"><title>Node33&#45;&gt;Node43</title>
<path fill="none" stroke="midnightblue" d="M370.866,-248.986C295.2,-242.633 194.725,-228.562 169.5,-198 135.551,-156.868 144.334,-125.023 169.5,-78 177.853,-62.3924 192.69,-50.3835 207.594,-41.5631"/>
<polygon fill="midnightblue" stroke="midnightblue" points="370.65,-252.48 380.899,-249.796 371.213,-245.502 370.65,-252.48"/>
</g>
<!-- Node45 -->
<g id="node14" class="node"><title>Node45</title>
<g id="a_node14"><a xlink:href="font_8cpp.xhtml" target="_top" xlink:title=" ">
<polygon fill="white" stroke="black" points="354,-156.5 354,-197.5 511,-197.5 511,-156.5 354,-156.5"/>
<text text-anchor="start" x="362" y="-185.5" font-family="Helvetica,sans-Serif" font-size="10.00">C:/Users/Jameson/Documents</text>
<text text-anchor="start" x="362" y="-174.5" font-family="Helvetica,sans-Serif" font-size="10.00">/git&#45;projects/openage/libopenage</text>
<text text-anchor="middle" x="432.5" y="-163.5" font-family="Helvetica,sans-Serif" font-size="10.00">/renderer/font/font.cpp</text>
</a>
</g>
</g>
<!-- Node33&#45;&gt;Node45 -->
<g id="edge16" class="edge"><title>Node33&#45;&gt;Node45</title>
<path fill="none" stroke="midnightblue" d="M449.156,-224.882C445.901,-215.721 442.387,-205.83 439.43,-197.506"/>
<polygon fill="midnightblue" stroke="midnightblue" points="445.901,-226.177 452.547,-234.428 452.497,-223.833 445.901,-226.177"/>
</g>
<!-- Node33&#45;&gt;Node46 -->
<g id="edge17" class="edge"><title>Node33&#45;&gt;Node46</title>
<path fill="none" stroke="midnightblue" d="M517.055,-230.609C543.156,-220.001 573.665,-207.602 598.506,-197.506"/>
<polygon fill="midnightblue" stroke="midnightblue" points="515.603,-227.421 507.657,-234.428 518.239,-233.905 515.603,-227.421"/>
</g>
<!-- Node33&#45;&gt;Node47 -->
<g id="edge18" class="edge"><title>Node33&#45;&gt;Node47</title>
<path fill="none" stroke="midnightblue" d="M547.974,-236.428C601.696,-225.632 671.619,-211.354 733.5,-198 736.563,-197.339 739.684,-196.659 742.837,-195.968"/>
<polygon fill="midnightblue" stroke="midnightblue" points="547.253,-233.003 538.137,-238.403 548.631,-239.866 547.253,-233.003"/>
</g>
<!-- Node35 -->
<g id="node4" class="node"><title>Node35</title>
<g id="a_node4"><a xlink:href="console_8cpp.xhtml" target="_top" xlink:title=" ">
<polygon fill="white" stroke="black" points="700,-0.5 700,-41.5 857,-41.5 857,-0.5 700,-0.5"/>
<text text-anchor="start" x="708" y="-29.5" font-family="Helvetica,sans-Serif" font-size="10.00">C:/Users/Jameson/Documents</text>
<text text-anchor="start" x="708" y="-18.5" font-family="Helvetica,sans-Serif" font-size="10.00">/git&#45;projects/openage/libopenage</text>
<text text-anchor="middle" x="778.5" y="-7.5" font-family="Helvetica,sans-Serif" font-size="10.00">/console/console.cpp</text>
</a>
</g>
</g>
<!-- Node34&#45;&gt;Node35 -->
<g id="edge3" class="edge"><title>Node34&#45;&gt;Node35</title>
<path fill="none" stroke="midnightblue" d="M720.862,-71.7785C732.366,-61.8432 745.25,-50.7159 755.915,-41.5056"/>
<polygon fill="midnightblue" stroke="midnightblue" points="718.443,-69.243 713.162,-78.4281 723.018,-74.5408 718.443,-69.243"/>
</g>
<!-- Node36 -->
<g id="node5" class="node"><title>Node36</title>
<g id="a_node5"><a xlink:href="draw_8cpp.xhtml" target="_top" xlink:title=" ">
<polygon fill="white" stroke="black" points="525,-0.5 525,-41.5 682,-41.5 682,-0.5 525,-0.5"/>
<text text-anchor="start" x="533" y="-29.5" font-family="Helvetica,sans-Serif" font-size="10.00">C:/Users/Jameson/Documents</text>
<text text-anchor="start" x="533" y="-18.5" font-family="Helvetica,sans-Serif" font-size="10.00">/git&#45;projects/openage/libopenage</text>
<text text-anchor="middle" x="603.5" y="-7.5" font-family="Helvetica,sans-Serif" font-size="10.00">/console/draw.cpp</text>
</a>
</g>
</g>
<!-- Node34&#45;&gt;Node36 -->
<g id="edge4" class="edge"><title>Node34&#45;&gt;Node36</title>
<path fill="none" stroke="midnightblue" d="M660.483,-71.7785C649.11,-61.8432 636.372,-50.7159 625.829,-41.5056"/>
<polygon fill="midnightblue" stroke="midnightblue" points="658.262,-74.4851 668.095,-78.4281 662.867,-69.2133 658.262,-74.4851"/>
</g>
<!-- Node37 -->
<g id="node6" class="node"><title>Node37</title>
<g id="a_node6"><a xlink:href="console_2tests_8cpp.xhtml" target="_top" xlink:title=" ">
<polygon fill="white" stroke="black" points="875,-0.5 875,-41.5 1032,-41.5 1032,-0.5 875,-0.5"/>
<text text-anchor="start" x="883" y="-29.5" font-family="Helvetica,sans-Serif" font-size="10.00">C:/Users/Jameson/Documents</text>
<text text-anchor="start" x="883" y="-18.5" font-family="Helvetica,sans-Serif" font-size="10.00">/git&#45;projects/openage/libopenage</text>
<text text-anchor="middle" x="953.5" y="-7.5" font-family="Helvetica,sans-Serif" font-size="10.00">/console/tests.cpp</text>
</a>
</g>
</g>
<!-- Node34&#45;&gt;Node37 -->
<g id="edge5" class="edge"><title>Node34&#45;&gt;Node37</title>
<path fill="none" stroke="midnightblue" d="M768.083,-75.5805C805.513,-64.7644 849.991,-51.9115 886,-41.5056"/>
<polygon fill="midnightblue" stroke="midnightblue" points="766.864,-72.2895 758.229,-78.4281 768.808,-79.0143 766.864,-72.2895"/>
</g>
<!-- Node38 -->
<g id="node7" class="node"><title>Node38</title>
<g id="a_node7"><a xlink:href="game__renderer_8cpp.xhtml" target="_top" xlink:title=" ">
<polygon fill="white" stroke="black" points="350,-0.5 350,-41.5 507,-41.5 507,-0.5 350,-0.5"/>
<text text-anchor="start" x="358" y="-29.5" font-family="Helvetica,sans-Serif" font-size="10.00">C:/Users/Jameson/Documents</text>
<text text-anchor="start" x="358" y="-18.5" font-family="Helvetica,sans-Serif" font-size="10.00">/git&#45;projects/openage/libopenage</text>
<text text-anchor="middle" x="428.5" y="-7.5" font-family="Helvetica,sans-Serif" font-size="10.00">/game_renderer.cpp</text>
</a>
</g>
</g>
<!-- Node34&#45;&gt;Node38 -->
<g id="edge6" class="edge"><title>Node34&#45;&gt;Node38</title>
<path fill="none" stroke="midnightblue" d="M613.212,-75.5805C575.925,-64.7644 531.616,-51.9115 495.743,-41.5056"/>
<polygon fill="midnightblue" stroke="midnightblue" points="612.449,-79.0036 623.028,-78.4281 614.399,-72.2807 612.449,-79.0036"/>
</g>
<!-- Node39 -->
<g id="node8" class="node"><title>Node39</title>
<g id="a_node8"><a xlink:href="main_8cpp.xhtml" target="_top" xlink:title=" ">
<polygon fill="white" stroke="black" points="1050,-0.5 1050,-41.5 1207,-41.5 1207,-0.5 1050,-0.5"/>
<text text-anchor="start" x="1058" y="-29.5" font-family="Helvetica,sans-Serif" font-size="10.00">C:/Users/Jameson/Documents</text>
<text text-anchor="start" x="1058" y="-18.5" font-family="Helvetica,sans-Serif" font-size="10.00">/git&#45;projects/openage/libopenage</text>
<text text-anchor="middle" x="1128.5" y="-7.5" font-family="Helvetica,sans-Serif" font-size="10.00">/main.cpp</text>
</a>
</g>
</g>
<!-- Node34&#45;&gt;Node39 -->
<g id="edge7" class="edge"><title>Node34&#45;&gt;Node39</title>
<path fill="none" stroke="midnightblue" d="M779.528,-85.383C850.432,-74.9429 952.107,-59.0974 1040.5,-42 1043.58,-41.4049 1046.71,-40.7808 1049.87,-40.1357"/>
<polygon fill="midnightblue" stroke="midnightblue" points="778.681,-81.9697 769.295,-86.8837 779.697,-88.8956 778.681,-81.9697"/>
</g>
<!-- Node41 -->
<g id="node10" class="node"><title>Node41</title>
<g id="a_node10"><a xlink:href="text_8h.xhtml" target="_top" xlink:title=" ">
<polygon fill="white" stroke="black" points="354,-78.5 354,-119.5 511,-119.5 511,-78.5 354,-78.5"/>
<text text-anchor="start" x="362" y="-107.5" font-family="Helvetica,sans-Serif" font-size="10.00">C:/Users/Jameson/Documents</text>
<text text-anchor="start" x="362" y="-96.5" font-family="Helvetica,sans-Serif" font-size="10.00">/git&#45;projects/openage/libopenage</text>
<text text-anchor="middle" x="432.5" y="-85.5" font-family="Helvetica,sans-Serif" font-size="10.00">/renderer/text.h</text>
</a>
</g>
</g>
<!-- Node40&#45;&gt;Node41 -->
<g id="edge9" class="edge"><title>Node40&#45;&gt;Node41</title>
<path fill="none" stroke="midnightblue" d="M312.005,-152.329C336.288,-141.783 364.543,-129.513 387.586,-119.506"/>
<polygon fill="midnightblue" stroke="midnightblue" points="310.345,-149.234 302.567,-156.428 313.133,-155.655 310.345,-149.234"/>
</g>
<!-- Node44 -->
<g id="node13" class="node"><title>Node44</title>
<g id="a_node13"><a xlink:href="glyph__atlas_8cpp.xhtml" target="_top" xlink:title=" ">
<polygon fill="white" stroke="black" points="179,-78.5 179,-119.5 336,-119.5 336,-78.5 179,-78.5"/>
<text text-anchor="start" x="187" y="-107.5" font-family="Helvetica,sans-Serif" font-size="10.00">C:/Users/Jameson/Documents</text>
<text text-anchor="start" x="187" y="-96.5" font-family="Helvetica,sans-Serif" font-size="10.00">/git&#45;projects/openage/libopenage</text>
<text text-anchor="middle" x="257.5" y="-85.5" font-family="Helvetica,sans-Serif" font-size="10.00">/renderer/font/glyph_atlas.cpp</text>
</a>
</g>
</g>
<!-- Node40&#45;&gt;Node44 -->
<g id="edge14" class="edge"><title>Node40&#45;&gt;Node44</title>
<path fill="none" stroke="midnightblue" d="M257.5,-146.297C257.5,-137.301 257.5,-127.653 257.5,-119.506"/>
<polygon fill="midnightblue" stroke="midnightblue" points="254,-146.428 257.5,-156.428 261,-146.428 254,-146.428"/>
</g>
<!-- Node41&#45;&gt;Node36 -->
<g id="edge10" class="edge"><title>Node41&#45;&gt;Node36</title>
<path fill="none" stroke="midnightblue" d="M485.76,-74.3291C509.487,-63.7835 537.096,-51.5129 559.612,-41.5056"/>
<polygon fill="midnightblue" stroke="midnightblue" points="484.253,-71.1683 476.537,-78.4281 487.096,-77.565 484.253,-71.1683"/>
</g>
<!-- Node41&#45;&gt;Node38 -->
<g id="edge12" class="edge"><title>Node41&#45;&gt;Node38</title>
<path fill="none" stroke="midnightblue" d="M430.937,-68.2965C430.463,-59.3009 429.955,-49.6532 429.527,-41.5056"/>
<polygon fill="midnightblue" stroke="midnightblue" points="427.449,-68.6259 431.47,-78.4281 434.439,-68.2579 427.449,-68.6259"/>
</g>
<!-- Node41&#45;&gt;Node42 -->
<g id="edge11" class="edge"><title>Node41&#45;&gt;Node42</title>
<path fill="none" stroke="midnightblue" d="M343.751,-77.8683C263.473,-60.8338 241.729,-58.4243 165.5,-42 162.773,-41.4124 159.999,-40.8086 157.199,-40.1937"/>
<polygon fill="midnightblue" stroke="midnightblue" points="343.329,-81.3569 353.839,-80.0201 344.789,-74.5109 343.329,-81.3569"/>
</g>
<!-- Node41&#45;&gt;Node43 -->
<g id="edge13" class="edge"><title>Node41&#45;&gt;Node43</title>
<path fill="none" stroke="midnightblue" d="M377.078,-74.4689C352.167,-63.8921 323.115,-51.5572 299.441,-41.5056"/>
<polygon fill="midnightblue" stroke="midnightblue" points="375.83,-77.7416 386.403,-78.4281 378.566,-71.2983 375.83,-77.7416"/>
</g>
</g>
</svg>
