<?xml version="1.0" encoding="UTF-8" standalone="no"?>
<!DOCTYPE svg PUBLIC "-//W3C//DTD SVG 1.1//EN"
 "http://www.w3.org/Graphics/SVG/1.1/DTD/svg11.dtd">
<!-- Generated by graphviz version 2.38.0 (20140413.2041)
 -->
<!-- Title: libopenage/util/fslike/fslike.h Pages: 1 -->
<svg width="494pt" height="173pt"
 viewBox="0.00 0.00 494.00 173.00" xmlns="http://www.w3.org/2000/svg" xmlns:xlink="http://www.w3.org/1999/xlink">
<g id="graph0" class="graph" transform="scale(1 1) rotate(0) translate(4 169)">
<title>libopenage/util/fslike/fslike.h</title>
<polygon fill="white" stroke="none" points="-4,4 -4,-169 490,-169 490,4 -4,4"/>
<!-- Node41 -->
<g id="node1" class="node"><title>Node41</title>
<g id="a_node1"><a xlink:title=" ">
<polygon fill="#bfbfbf" stroke="black" points="244,-134.5 244,-164.5 348,-164.5 348,-134.5 244,-134.5"/>
<text text-anchor="start" x="252" y="-152.5" font-family="Helvetica,sans-Serif" font-size="10.00">libopenage/util/fslike</text>
<text text-anchor="middle" x="296" y="-141.5" font-family="Helvetica,sans-Serif" font-size="10.00">/fslike.h</text>
</a>
</g>
</g>
<!-- Node42 -->
<g id="node2" class="node"><title>Node42</title>
<g id="a_node2"><a xlink:href="directory_8h.xhtml" target="_top" xlink:title=" ">
<polygon fill="white" stroke="black" points="122,-67.5 122,-97.5 226,-97.5 226,-67.5 122,-67.5"/>
<text text-anchor="start" x="130" y="-85.5" font-family="Helvetica,sans-Serif" font-size="10.00">libopenage/util/fslike</text>
<text text-anchor="middle" x="174" y="-74.5" font-family="Helvetica,sans-Serif" font-size="10.00">/directory.h</text>
</a>
</g>
</g>
<!-- Node41&#45;&gt;Node42 -->
<g id="edge1" class="edge"><title>Node41&#45;&gt;Node42</title>
<path fill="none" stroke="midnightblue" d="M260.479,-129.575C241.288,-119.35 217.995,-106.94 200.421,-97.5765"/>
<polygon fill="midnightblue" stroke="midnightblue" points="259.057,-132.783 269.528,-134.396 262.348,-126.605 259.057,-132.783"/>
</g>
<!-- Node46 -->
<g id="node6" class="node"><title>Node46</title>
<g id="a_node6"><a xlink:href="fslike_8cpp.xhtml" target="_top" xlink:title=" ">
<polygon fill="white" stroke="black" points="244,-67.5 244,-97.5 348,-97.5 348,-67.5 244,-67.5"/>
<text text-anchor="start" x="252" y="-85.5" font-family="Helvetica,sans-Serif" font-size="10.00">libopenage/util/fslike</text>
<text text-anchor="middle" x="296" y="-74.5" font-family="Helvetica,sans-Serif" font-size="10.00">/fslike.cpp</text>
</a>
</g>
</g>
<!-- Node41&#45;&gt;Node46 -->
<g id="edge5" class="edge"><title>Node41&#45;&gt;Node46</title>
<path fill="none" stroke="midnightblue" d="M296,-124.108C296,-115.154 296,-105.323 296,-97.5765"/>
<polygon fill="midnightblue" stroke="midnightblue" points="292.5,-124.396 296,-134.396 299.5,-124.396 292.5,-124.396"/>
</g>
<!-- Node47 -->
<g id="node7" class="node"><title>Node47</title>
<g id="a_node7"><a xlink:href="fslike_2python_8h.xhtml" target="_top" xlink:title=" ">
<polygon fill="white" stroke="black" points="366,-67.5 366,-97.5 470,-97.5 470,-67.5 366,-67.5"/>
<text text-anchor="start" x="374" y="-85.5" font-family="Helvetica,sans-Serif" font-size="10.00">libopenage/util/fslike</text>
<text text-anchor="middle" x="418" y="-74.5" font-family="Helvetica,sans-Serif" font-size="10.00">/python.h</text>
</a>
</g>
</g>
<!-- Node41&#45;&gt;Node47 -->
<g id="edge6" class="edge"><title>Node41&#45;&gt;Node47</title>
<path fill="none" stroke="midnightblue" d="M331.521,-129.575C350.712,-119.35 374.005,-106.94 391.579,-97.5765"/>
<polygon fill="midnightblue" stroke="midnightblue" points="329.652,-126.605 322.472,-134.396 332.943,-132.783 329.652,-126.605"/>
</g>
<!-- Node43 -->
<g id="node3" class="node"><title>Node43</title>
<g id="a_node3"><a xlink:href="vulkan_2renderer_8cpp.xhtml" target="_top" xlink:title=" ">
<polygon fill="white" stroke="black" points="0,-0.5 0,-30.5 104,-30.5 104,-0.5 0,-0.5"/>
<text text-anchor="start" x="8" y="-18.5" font-family="Helvetica,sans-Serif" font-size="10.00">libopenage/renderer</text>
<text text-anchor="middle" x="52" y="-7.5" font-family="Helvetica,sans-Serif" font-size="10.00">/vulkan/renderer.cpp</text>
</a>
</g>
</g>
<!-- Node42&#45;&gt;Node43 -->
<g id="edge2" class="edge"><title>Node42&#45;&gt;Node43</title>
<path fill="none" stroke="midnightblue" d="M138.479,-62.575C119.288,-52.3502 95.9951,-39.94 78.4205,-30.5765"/>
<polygon fill="midnightblue" stroke="midnightblue" points="137.057,-65.7827 147.528,-67.396 140.348,-59.6048 137.057,-65.7827"/>
</g>
<!-- Node44 -->
<g id="node4" class="node"><title>Node44</title>
<g id="a_node4"><a xlink:href="directory_8cpp.xhtml" target="_top" xlink:title=" ">
<polygon fill="white" stroke="black" points="122,-0.5 122,-30.5 226,-30.5 226,-0.5 122,-0.5"/>
<text text-anchor="start" x="130" y="-18.5" font-family="Helvetica,sans-Serif" font-size="10.00">libopenage/util/fslike</text>
<text text-anchor="middle" x="174" y="-7.5" font-family="Helvetica,sans-Serif" font-size="10.00">/directory.cpp</text>
</a>
</g>
</g>
<!-- Node42&#45;&gt;Node44 -->
<g id="edge3" class="edge"><title>Node42&#45;&gt;Node44</title>
<path fill="none" stroke="midnightblue" d="M174,-57.1081C174,-48.1539 174,-38.3227 174,-30.5765"/>
<polygon fill="midnightblue" stroke="midnightblue" points="170.5,-57.3959 174,-67.396 177.5,-57.396 170.5,-57.3959"/>
</g>
<!-- Node45 -->
<g id="node5" class="node"><title>Node45</title>
<g id="a_node5"><a xlink:href="util_2path_8cpp.xhtml" target="_top" xlink:title=" ">
<polygon fill="white" stroke="black" points="244.5,-6 244.5,-25 363.5,-25 363.5,-6 244.5,-6"/>
<text text-anchor="middle" x="304" y="-13" font-family="Helvetica,sans-Serif" font-size="10.00">libopenage/util/path.cpp</text>
</a>
</g>
</g>
<!-- Node42&#45;&gt;Node45 -->
<g id="edge4" class="edge"><title>Node42&#45;&gt;Node45</title>
<path fill="none" stroke="midnightblue" d="M211.394,-62.8029C236.316,-50.3418 267.888,-34.5558 286.986,-25.007"/>
<polygon fill="midnightblue" stroke="midnightblue" points="209.587,-59.7933 202.208,-67.396 212.718,-66.0543 209.587,-59.7933"/>
</g>
<!-- Node47&#45;&gt;Node45 -->
<g id="edge8" class="edge"><title>Node47&#45;&gt;Node45</title>
<path fill="none" stroke="midnightblue" d="M384.339,-62.3071C362.623,-49.9256 335.446,-34.4296 318.92,-25.007"/>
<polygon fill="midnightblue" stroke="midnightblue" points="382.843,-65.4832 393.264,-67.396 386.31,-59.4022 382.843,-65.4832"/>
</g>
<!-- Node48 -->
<g id="node8" class="node"><title>Node48</title>
<g id="a_node8"><a xlink:href="fslike_2python_8cpp.xhtml" target="_top" xlink:title=" ">
<polygon fill="white" stroke="black" points="382,-0.5 382,-30.5 486,-30.5 486,-0.5 382,-0.5"/>
<text text-anchor="start" x="390" y="-18.5" font-family="Helvetica,sans-Serif" font-size="10.00">libopenage/util/fslike</text>
<text text-anchor="middle" x="434" y="-7.5" font-family="Helvetica,sans-Serif" font-size="10.00">/python.cpp</text>
</a>
</g>
</g>
<!-- Node47&#45;&gt;Node48 -->
<g id="edge7" class="edge"><title>Node47&#45;&gt;Node48</title>
<path fill="none" stroke="midnightblue" d="M423.932,-57.4029C426.155,-48.3703 428.607,-38.4078 430.535,-30.5765"/>
<polygon fill="midnightblue" stroke="midnightblue" points="420.463,-56.8492 421.472,-67.396 427.261,-58.5224 420.463,-56.8492"/>
</g>
</g>
</svg>
