<?xml version="1.0" encoding="UTF-8" standalone="no"?>
<!DOCTYPE svg PUBLIC "-//W3C//DTD SVG 1.1//EN"
 "http://www.w3.org/Graphics/SVG/1.1/DTD/svg11.dtd">
<!-- Generated by graphviz version 2.38.0 (20140413.2041)
 -->
<!-- Title: libopenage/gamestate/resource.cpp Pages: 1 -->
<svg width="166pt" height="151pt"
 viewBox="0.00 0.00 166.00 151.00" xmlns="http://www.w3.org/2000/svg" xmlns:xlink="http://www.w3.org/1999/xlink">
<g id="graph0" class="graph" transform="scale(1 1) rotate(0) translate(4 147)">
<title>libopenage/gamestate/resource.cpp</title>
<polygon fill="white" stroke="none" points="-4,4 -4,-147 162,-147 162,4 -4,4"/>
<!-- Node0 -->
<g id="node1" class="node"><title>Node0</title>
<g id="a_node1"><a xlink:title=" ">
<polygon fill="#bfbfbf" stroke="black" points="0,-112.5 0,-142.5 112,-142.5 112,-112.5 0,-112.5"/>
<text text-anchor="start" x="8" y="-130.5" font-family="Helvetica,sans-Serif" font-size="10.00">libopenage/gamestate</text>
<text text-anchor="middle" x="56" y="-119.5" font-family="Helvetica,sans-Serif" font-size="10.00">/resource.cpp</text>
</a>
</g>
</g>
<!-- Node1 -->
<g id="node2" class="node"><title>Node1</title>
<g id="a_node2"><a xlink:title=" ">
<polygon fill="white" stroke="#bfbfbf" points="11.5,-0.5 11.5,-19.5 52.5,-19.5 52.5,-0.5 11.5,-0.5"/>
<text text-anchor="middle" x="32" y="-7.5" font-family="Helvetica,sans-Serif" font-size="10.00">string</text>
</a>
</g>
</g>
<!-- Node0&#45;&gt;Node1 -->
<g id="edge1" class="edge"><title>Node0&#45;&gt;Node1</title>
<path fill="none" stroke="midnightblue" d="M44.458,-112.489C37.3142,-102.875 28.8029,-89.4642 25,-76 20.6616,-60.64 23.2018,-42.5414 26.3726,-29.3477"/>
<polygon fill="midnightblue" stroke="midnightblue" points="29.7801,-30.1559 29.0472,-19.5864 23.0289,-28.306 29.7801,-30.1559"/>
</g>
<!-- Node2 -->
<g id="node3" class="node"><title>Node2</title>
<g id="a_node3"><a xlink:title=" ">
<polygon fill="white" stroke="#bfbfbf" points="34,-56.5 34,-75.5 78,-75.5 78,-56.5 34,-56.5"/>
<text text-anchor="middle" x="56" y="-63.5" font-family="Helvetica,sans-Serif" font-size="10.00">cmath</text>
</a>
</g>
</g>
<!-- Node0&#45;&gt;Node2 -->
<g id="edge2" class="edge"><title>Node0&#45;&gt;Node2</title>
<path fill="none" stroke="midnightblue" d="M56,-112.399C56,-104.466 56,-94.458 56,-85.8583"/>
<polygon fill="midnightblue" stroke="midnightblue" points="59.5001,-85.6577 56,-75.6578 52.5001,-85.6578 59.5001,-85.6577"/>
</g>
<!-- Node3 -->
<g id="node4" class="node"><title>Node3</title>
<g id="a_node4"><a xlink:href="gamestate_2resource_8h.xhtml" target="_top" xlink:title=" ">
<polygon fill="white" stroke="black" points="96,-56.5 96,-75.5 158,-75.5 158,-56.5 96,-56.5"/>
<text text-anchor="middle" x="127" y="-63.5" font-family="Helvetica,sans-Serif" font-size="10.00">resource.h</text>
</a>
</g>
</g>
<!-- Node0&#45;&gt;Node3 -->
<g id="edge3" class="edge"><title>Node0&#45;&gt;Node3</title>
<path fill="none" stroke="midnightblue" d="M72.826,-112.399C83.675,-103.308 97.7767,-91.4899 108.873,-82.1909"/>
<polygon fill="midnightblue" stroke="midnightblue" points="111.252,-84.7634 116.669,-75.6578 106.756,-79.3983 111.252,-84.7634"/>
</g>
<!-- Node3&#45;&gt;Node1 -->
<g id="edge5" class="edge"><title>Node3&#45;&gt;Node1</title>
<path fill="none" stroke="midnightblue" d="M111.737,-56.324C96.7786,-47.8215 73.7452,-34.7288 56.2733,-24.7975"/>
<polygon fill="midnightblue" stroke="midnightblue" points="57.6488,-21.5534 47.2255,-19.6545 54.1896,-27.639 57.6488,-21.5534"/>
</g>
<!-- Node4 -->
<g id="node5" class="node"><title>Node4</title>
<g id="a_node5"><a xlink:title=" ">
<polygon fill="white" stroke="#bfbfbf" points="98,-0.5 98,-19.5 156,-19.5 156,-0.5 98,-0.5"/>
<text text-anchor="middle" x="127" y="-7.5" font-family="Helvetica,sans-Serif" font-size="10.00">functional</text>
</a>
</g>
</g>
<!-- Node3&#45;&gt;Node4 -->
<g id="edge4" class="edge"><title>Node3&#45;&gt;Node4</title>
<path fill="none" stroke="midnightblue" d="M127,-56.083C127,-49.0059 127,-38.8611 127,-29.9865"/>
<polygon fill="midnightblue" stroke="midnightblue" points="130.5,-29.751 127,-19.7511 123.5,-29.7511 130.5,-29.751"/>
</g>
</g>
</svg>
