<?xml version="1.0" encoding="UTF-8" standalone="no"?>
<!DOCTYPE svg PUBLIC "-//W3C//DTD SVG 1.1//EN"
 "http://www.w3.org/Graphics/SVG/1.1/DTD/svg11.dtd">
<!-- Generated by graphviz version 2.38.0 (20140413.2041)
 -->
<!-- Title: libopenage/rng/global_rng.h Pages: 1 -->
<svg width="380pt" height="106pt"
 viewBox="0.00 0.00 380.00 106.00" xmlns="http://www.w3.org/2000/svg" xmlns:xlink="http://www.w3.org/1999/xlink">
<g id="graph0" class="graph" transform="scale(1 1) rotate(0) translate(4 102)">
<title>libopenage/rng/global_rng.h</title>
<polygon fill="white" stroke="none" points="-4,4 -4,-102 376,-102 376,4 -4,4"/>
<!-- Node1 -->
<g id="node1" class="node"><title>Node1</title>
<g id="a_node1"><a xlink:title=" ">
<polygon fill="#bfbfbf" stroke="black" points="136,-67.5 136,-97.5 244,-97.5 244,-67.5 136,-67.5"/>
<text text-anchor="start" x="144" y="-85.5" font-family="Helvetica,sans-Serif" font-size="10.00">libopenage/rng/global</text>
<text text-anchor="middle" x="190" y="-74.5" font-family="Helvetica,sans-Serif" font-size="10.00">_rng.h</text>
</a>
</g>
</g>
<!-- Node2 -->
<g id="node2" class="node"><title>Node2</title>
<g id="a_node2"><a xlink:href="physics_8cpp.xhtml" target="_top" xlink:title=" ">
<polygon fill="white" stroke="black" points="0,-0.5 0,-30.5 116,-30.5 116,-0.5 0,-0.5"/>
<text text-anchor="start" x="8" y="-18.5" font-family="Helvetica,sans-Serif" font-size="10.00">libopenage/event/demo</text>
<text text-anchor="middle" x="58" y="-7.5" font-family="Helvetica,sans-Serif" font-size="10.00">/physics.cpp</text>
</a>
</g>
</g>
<!-- Node1&#45;&gt;Node2 -->
<g id="edge1" class="edge"><title>Node1&#45;&gt;Node2</title>
<path fill="none" stroke="midnightblue" d="M152.133,-62.8533C131.262,-52.5761 105.774,-40.0252 86.5861,-30.5765"/>
<polygon fill="midnightblue" stroke="midnightblue" points="150.84,-66.1182 161.358,-67.396 153.933,-59.8383 150.84,-66.1182"/>
</g>
<!-- Node3 -->
<g id="node3" class="node"><title>Node3</title>
<g id="a_node3"><a xlink:href="game__spec_8cpp.xhtml" target="_top" xlink:title=" ">
<polygon fill="white" stroke="black" points="134,-0.5 134,-30.5 246,-30.5 246,-0.5 134,-0.5"/>
<text text-anchor="start" x="142" y="-18.5" font-family="Helvetica,sans-Serif" font-size="10.00">libopenage/gamestate</text>
<text text-anchor="middle" x="190" y="-7.5" font-family="Helvetica,sans-Serif" font-size="10.00">/game_spec.cpp</text>
</a>
</g>
</g>
<!-- Node1&#45;&gt;Node3 -->
<g id="edge2" class="edge"><title>Node1&#45;&gt;Node3</title>
<path fill="none" stroke="midnightblue" d="M190,-57.1081C190,-48.1539 190,-38.3227 190,-30.5765"/>
<polygon fill="midnightblue" stroke="midnightblue" points="186.5,-57.3959 190,-67.396 193.5,-57.396 186.5,-57.3959"/>
</g>
<!-- Node4 -->
<g id="node4" class="node"><title>Node4</title>
<g id="a_node4"><a xlink:href="global__rng_8cpp.xhtml" target="_top" xlink:title=" ">
<polygon fill="white" stroke="black" points="264,-0.5 264,-30.5 372,-30.5 372,-0.5 264,-0.5"/>
<text text-anchor="start" x="272" y="-18.5" font-family="Helvetica,sans-Serif" font-size="10.00">libopenage/rng/global</text>
<text text-anchor="middle" x="318" y="-7.5" font-family="Helvetica,sans-Serif" font-size="10.00">_rng.cpp</text>
</a>
</g>
</g>
<!-- Node1&#45;&gt;Node4 -->
<g id="edge3" class="edge"><title>Node1&#45;&gt;Node4</title>
<path fill="none" stroke="midnightblue" d="M226.72,-62.8533C246.958,-52.5761 271.674,-40.0252 290.28,-30.5765"/>
<polygon fill="midnightblue" stroke="midnightblue" points="225.106,-59.7475 217.774,-67.396 228.275,-65.9888 225.106,-59.7475"/>
</g>
</g>
</svg>
