<?xml version="1.0" encoding="UTF-8" standalone="no"?>
<!DOCTYPE svg PUBLIC "-//W3C//DTD SVG 1.1//EN"
 "http://www.w3.org/Graphics/SVG/1.1/DTD/svg11.dtd">
<!-- Generated by graphviz version 2.38.0 (20140413.2041)
 -->
<!-- Title: C:/Users/Jameson/Documents/git&#45;projects/openage/libopenage/rng/global_rng.cpp Pages: 1 -->
<svg width="237pt" height="162pt"
 viewBox="0.00 0.00 237.00 162.00" xmlns="http://www.w3.org/2000/svg" xmlns:xlink="http://www.w3.org/1999/xlink">
<g id="graph0" class="graph" transform="scale(1 1) rotate(0) translate(4 158)">
<title>C:/Users/Jameson/Documents/git&#45;projects/openage/libopenage/rng/global_rng.cpp</title>
<polygon fill="white" stroke="none" points="-4,4 -4,-158 233,-158 233,4 -4,4"/>
<!-- Node0 -->
<g id="node1" class="node"><title>Node0</title>
<g id="a_node1"><a xlink:title=" ">
<polygon fill="#bfbfbf" stroke="black" points="53.5,-112.5 53.5,-153.5 210.5,-153.5 210.5,-112.5 53.5,-112.5"/>
<text text-anchor="start" x="61.5" y="-141.5" font-family="Helvetica,sans-Serif" font-size="10.00">C:/Users/Jameson/Documents</text>
<text text-anchor="start" x="61.5" y="-130.5" font-family="Helvetica,sans-Serif" font-size="10.00">/git&#45;projects/openage/libopenage</text>
<text text-anchor="middle" x="132" y="-119.5" font-family="Helvetica,sans-Serif" font-size="10.00">/rng/global_rng.cpp</text>
</a>
</g>
</g>
<!-- Node1 -->
<g id="node2" class="node"><title>Node1</title>
<g id="a_node2"><a xlink:href="rng_8h.xhtml" target="_top" xlink:title=" ">
<polygon fill="white" stroke="black" points="41,-56.5 41,-75.5 79,-75.5 79,-56.5 41,-56.5"/>
<text text-anchor="middle" x="60" y="-63.5" font-family="Helvetica,sans-Serif" font-size="10.00">rng.h</text>
</a>
</g>
</g>
<!-- Node0&#45;&gt;Node1 -->
<g id="edge1" class="edge"><title>Node0&#45;&gt;Node1</title>
<path fill="none" stroke="midnightblue" d="M110.398,-112.498C99.7832,-102.915 87.1696,-91.5281 77.2167,-82.5428"/>
<polygon fill="midnightblue" stroke="midnightblue" points="79.3524,-79.7556 69.5843,-75.6525 74.6616,-84.9515 79.3524,-79.7556"/>
</g>
<!-- Node4 -->
<g id="node5" class="node"><title>Node4</title>
<g id="a_node5"><a xlink:href="global__rng_8h.xhtml" target="_top" xlink:title=" ">
<polygon fill="white" stroke="black" points="97.5,-56.5 97.5,-75.5 166.5,-75.5 166.5,-56.5 97.5,-56.5"/>
<text text-anchor="middle" x="132" y="-63.5" font-family="Helvetica,sans-Serif" font-size="10.00">global_rng.h</text>
</a>
</g>
</g>
<!-- Node0&#45;&gt;Node4 -->
<g id="edge4" class="edge"><title>Node0&#45;&gt;Node4</title>
<path fill="none" stroke="midnightblue" d="M132,-112.498C132,-104.065 132,-94.2351 132,-85.874"/>
<polygon fill="midnightblue" stroke="midnightblue" points="135.5,-85.6525 132,-75.6525 128.5,-85.6525 135.5,-85.6525"/>
</g>
<!-- Node5 -->
<g id="node6" class="node"><title>Node5</title>
<g id="a_node6"><a xlink:title=" ">
<polygon fill="white" stroke="#bfbfbf" points="185,-56.5 185,-75.5 229,-75.5 229,-56.5 185,-56.5"/>
<text text-anchor="middle" x="207" y="-63.5" font-family="Helvetica,sans-Serif" font-size="10.00">mutex</text>
</a>
</g>
</g>
<!-- Node0&#45;&gt;Node5 -->
<g id="edge5" class="edge"><title>Node0&#45;&gt;Node5</title>
<path fill="none" stroke="midnightblue" d="M154.502,-112.498C165.67,-102.82 178.961,-91.3002 189.376,-82.274"/>
<polygon fill="midnightblue" stroke="midnightblue" points="191.752,-84.8468 197.016,-75.6525 187.167,-79.5569 191.752,-84.8468"/>
</g>
<!-- Node2 -->
<g id="node3" class="node"><title>Node2</title>
<g id="a_node3"><a xlink:title=" ">
<polygon fill="white" stroke="#bfbfbf" points="0,-0.5 0,-19.5 54,-19.5 54,-0.5 0,-0.5"/>
<text text-anchor="middle" x="27" y="-7.5" font-family="Helvetica,sans-Serif" font-size="10.00">iostream</text>
</a>
</g>
</g>
<!-- Node1&#45;&gt;Node2 -->
<g id="edge2" class="edge"><title>Node1&#45;&gt;Node2</title>
<path fill="none" stroke="midnightblue" d="M54.5507,-56.083C49.9855,-48.6127 43.3316,-37.7244 37.7066,-28.5199"/>
<polygon fill="midnightblue" stroke="midnightblue" points="40.5489,-26.4588 32.3479,-19.7511 34.5759,-30.109 40.5489,-26.4588"/>
</g>
<!-- Node3 -->
<g id="node4" class="node"><title>Node3</title>
<g id="a_node4"><a xlink:title=" ">
<polygon fill="white" stroke="#bfbfbf" points="72.5,-0.5 72.5,-19.5 113.5,-19.5 113.5,-0.5 72.5,-0.5"/>
<text text-anchor="middle" x="93" y="-7.5" font-family="Helvetica,sans-Serif" font-size="10.00">string</text>
</a>
</g>
</g>
<!-- Node1&#45;&gt;Node3 -->
<g id="edge3" class="edge"><title>Node1&#45;&gt;Node3</title>
<path fill="none" stroke="midnightblue" d="M65.4493,-56.083C70.0145,-48.6127 76.6684,-37.7244 82.2934,-28.5199"/>
<polygon fill="midnightblue" stroke="midnightblue" points="85.4241,-30.109 87.6521,-19.7511 79.4511,-26.4588 85.4241,-30.109"/>
</g>
</g>
</svg>
