<?xml version="1.0" encoding="UTF-8" standalone="no"?>
<!DOCTYPE svg PUBLIC "-//W3C//DTD SVG 1.1//EN"
 "http://www.w3.org/Graphics/SVG/1.1/DTD/svg11.dtd">
<!-- Generated by graphviz version 2.38.0 (20140413.2041)
 -->
<!-- Title: libopenage/gui/guisys/link/gui_item_link.h Pages: 1 -->
<svg width="1682pt" height="396pt"
 viewBox="0.00 0.00 1682.39 396.00" xmlns="http://www.w3.org/2000/svg" xmlns:xlink="http://www.w3.org/1999/xlink">
<g id="graph0" class="graph" transform="scale(1 1) rotate(0) translate(4 392)">
<title>libopenage/gui/guisys/link/gui_item_link.h</title>
<polygon fill="white" stroke="none" points="-4,4 -4,-392 1678.39,-392 1678.39,4 -4,4"/>
<!-- Node4 -->
<g id="node1" class="node"><title>Node4</title>
<g id="a_node1"><a xlink:title=" ">
<polygon fill="#bfbfbf" stroke="black" points="717.891,-357.5 717.891,-387.5 827.891,-387.5 827.891,-357.5 717.891,-357.5"/>
<text text-anchor="start" x="725.891" y="-375.5" font-family="Helvetica,sans-Serif" font-size="10.00">libopenage/gui/guisys</text>
<text text-anchor="middle" x="772.891" y="-364.5" font-family="Helvetica,sans-Serif" font-size="10.00">/link/gui_item_link.h</text>
</a>
</g>
</g>
<!-- Node5 -->
<g id="node2" class="node"><title>Node5</title>
<g id="a_node2"><a xlink:href="gui__item_8h.xhtml" target="_top" xlink:title=" ">
<polygon fill="white" stroke="black" points="939.891,-290.5 939.891,-320.5 1049.89,-320.5 1049.89,-290.5 939.891,-290.5"/>
<text text-anchor="start" x="947.891" y="-308.5" font-family="Helvetica,sans-Serif" font-size="10.00">libopenage/gui/guisys</text>
<text text-anchor="middle" x="994.891" y="-297.5" font-family="Helvetica,sans-Serif" font-size="10.00">/link/gui_item.h</text>
</a>
</g>
</g>
<!-- Node4&#45;&gt;Node5 -->
<g id="edge1" class="edge"><title>Node4&#45;&gt;Node5</title>
<path fill="none" stroke="midnightblue" d="M830.68,-354.58C866.737,-344.022 912.607,-330.592 946.696,-320.611"/>
<polygon fill="midnightblue" stroke="midnightblue" points="829.402,-351.307 820.788,-357.476 831.369,-358.025 829.402,-351.307"/>
</g>
<!-- Node29 -->
<g id="node26" class="node"><title>Node29</title>
<g id="a_node26"><a xlink:href="gui__singleton__item_8h.xhtml" target="_top" xlink:title=" ">
<polygon fill="white" stroke="black" points="487.391,-290.5 487.391,-320.5 614.391,-320.5 614.391,-290.5 487.391,-290.5"/>
<text text-anchor="start" x="495.391" y="-308.5" font-family="Helvetica,sans-Serif" font-size="10.00">libopenage/gui/guisys</text>
<text text-anchor="middle" x="550.891" y="-297.5" font-family="Helvetica,sans-Serif" font-size="10.00">/link/gui_singleton_item.h</text>
</a>
</g>
</g>
<!-- Node4&#45;&gt;Node29 -->
<g id="edge33" class="edge"><title>Node4&#45;&gt;Node29</title>
<path fill="none" stroke="midnightblue" d="M715.102,-354.58C679.044,-344.022 633.175,-330.592 599.085,-320.611"/>
<polygon fill="midnightblue" stroke="midnightblue" points="714.413,-358.025 724.993,-357.476 716.38,-351.307 714.413,-358.025"/>
</g>
<!-- Node6 -->
<g id="node3" class="node"><title>Node6</title>
<g id="a_node3"><a xlink:href="game__control__link_8h.xhtml" target="_top" xlink:title=" ">
<polygon fill="white" stroke="black" points="310.891,-218 310.891,-248 416.891,-248 416.891,-218 310.891,-218"/>
<text text-anchor="start" x="318.891" y="-236" font-family="Helvetica,sans-Serif" font-size="10.00">libopenage/gui/game</text>
<text text-anchor="middle" x="363.891" y="-225" font-family="Helvetica,sans-Serif" font-size="10.00">_control_link.h</text>
</a>
</g>
</g>
<!-- Node5&#45;&gt;Node6 -->
<g id="edge2" class="edge"><title>Node5&#45;&gt;Node6</title>
<path fill="none" stroke="midnightblue" d="M929.668,-299.321C832.844,-291.337 645.448,-274.752 486.891,-254 463.937,-250.996 438.684,-247.009 417.063,-243.386"/>
<polygon fill="midnightblue" stroke="midnightblue" points="929.633,-302.83 939.886,-300.159 930.206,-295.853 929.633,-302.83"/>
</g>
<!-- Node12 -->
<g id="node9" class="node"><title>Node12</title>
<g id="a_node9"><a xlink:href="assetmanager__link_8h.xhtml" target="_top" xlink:title=" ">
<polygon fill="white" stroke="black" points="1132.39,-218 1132.39,-248 1275.39,-248 1275.39,-218 1132.39,-218"/>
<text text-anchor="start" x="1140.39" y="-236" font-family="Helvetica,sans-Serif" font-size="10.00">libopenage/gui/assetmanager</text>
<text text-anchor="middle" x="1203.89" y="-225" font-family="Helvetica,sans-Serif" font-size="10.00">_link.h</text>
</a>
</g>
</g>
<!-- Node5&#45;&gt;Node12 -->
<g id="edge9" class="edge"><title>Node5&#45;&gt;Node12</title>
<path fill="none" stroke="midnightblue" d="M1046.16,-287.205C1081.8,-275.184 1128.7,-259.364 1162.07,-248.107"/>
<polygon fill="midnightblue" stroke="midnightblue" points="1044.79,-283.974 1036.43,-290.487 1047.03,-290.607 1044.79,-283.974"/>
</g>
<!-- Node15 -->
<g id="node12" class="node"><title>Node15</title>
<g id="a_node12"><a xlink:href="game__main__link_8h.xhtml" target="_top" xlink:title=" ">
<polygon fill="white" stroke="black" points="623.891,-218 623.891,-248 729.891,-248 729.891,-218 623.891,-218"/>
<text text-anchor="start" x="631.891" y="-236" font-family="Helvetica,sans-Serif" font-size="10.00">libopenage/gui/game</text>
<text text-anchor="middle" x="676.891" y="-225" font-family="Helvetica,sans-Serif" font-size="10.00">_main_link.h</text>
</a>
</g>
</g>
<!-- Node5&#45;&gt;Node15 -->
<g id="edge12" class="edge"><title>Node5&#45;&gt;Node15</title>
<path fill="none" stroke="midnightblue" d="M929.444,-293.772C877.434,-284.723 803.028,-270.61 738.891,-254 732.102,-252.242 724.966,-250.162 718.047,-248.02"/>
<polygon fill="midnightblue" stroke="midnightblue" points="929.088,-297.262 939.538,-295.513 930.278,-290.364 929.088,-297.262"/>
</g>
<!-- Node19 -->
<g id="node16" class="node"><title>Node19</title>
<g id="a_node16"><a xlink:href="game__spec__link_8h.xhtml" target="_top" xlink:title=" ">
<polygon fill="white" stroke="black" points="1459.89,-218 1459.89,-248 1565.89,-248 1565.89,-218 1459.89,-218"/>
<text text-anchor="start" x="1467.89" y="-236" font-family="Helvetica,sans-Serif" font-size="10.00">libopenage/gui/game</text>
<text text-anchor="middle" x="1512.89" y="-225" font-family="Helvetica,sans-Serif" font-size="10.00">_spec_link.h</text>
</a>
</g>
</g>
<!-- Node5&#45;&gt;Node19 -->
<g id="edge17" class="edge"><title>Node5&#45;&gt;Node19</title>
<path fill="none" stroke="midnightblue" d="M1060.45,-301.398C1149.63,-296.238 1313.8,-283.388 1450.89,-254 1458.3,-252.412 1466.08,-250.285 1473.52,-248.01"/>
<polygon fill="midnightblue" stroke="midnightblue" points="1060,-297.918 1050.21,-301.976 1060.4,-304.907 1060,-297.918"/>
</g>
<!-- Node21 -->
<g id="node18" class="node"><title>Node21</title>
<g id="a_node18"><a xlink:href="gui__list__model_8h.xhtml" target="_top" xlink:title=" ">
<polygon fill="white" stroke="black" points="1331.89,-218 1331.89,-248 1441.89,-248 1441.89,-218 1331.89,-218"/>
<text text-anchor="start" x="1339.89" y="-236" font-family="Helvetica,sans-Serif" font-size="10.00">libopenage/gui/guisys</text>
<text text-anchor="middle" x="1386.89" y="-225" font-family="Helvetica,sans-Serif" font-size="10.00">/link/gui_list_model.h</text>
</a>
</g>
</g>
<!-- Node5&#45;&gt;Node21 -->
<g id="edge21" class="edge"><title>Node5&#45;&gt;Node21</title>
<path fill="none" stroke="midnightblue" d="M1060.34,-296.747C1125.92,-288.399 1229.53,-273.629 1317.89,-254 1325.56,-252.296 1333.64,-250.219 1341.45,-248.057"/>
<polygon fill="midnightblue" stroke="midnightblue" points="1059.64,-293.308 1050.15,-298.031 1060.51,-300.253 1059.64,-293.308"/>
</g>
<!-- Node24 -->
<g id="node21" class="node"><title>Node24</title>
<g id="a_node21"><a xlink:href="gui__item__list__model_8h.xhtml" target="_top" xlink:title=" ">
<polygon fill="white" stroke="black" points="1052.89,-140 1052.89,-170 1184.89,-170 1184.89,-140 1052.89,-140"/>
<text text-anchor="start" x="1060.89" y="-158" font-family="Helvetica,sans-Serif" font-size="10.00">libopenage/gui/guisys</text>
<text text-anchor="middle" x="1118.89" y="-147" font-family="Helvetica,sans-Serif" font-size="10.00">/link/gui_item_list_model.h</text>
</a>
</g>
</g>
<!-- Node5&#45;&gt;Node24 -->
<g id="edge29" class="edge"><title>Node5&#45;&gt;Node24</title>
<path fill="none" stroke="midnightblue" d="M1060.18,-302.56C1136.73,-298.749 1256.76,-287.456 1284.89,-254 1296.9,-239.713 1295.78,-227.163 1284.89,-212 1277.88,-202.241 1216.29,-183.197 1170.16,-170.046"/>
<polygon fill="midnightblue" stroke="midnightblue" points="1059.97,-299.066 1050.14,-303.03 1060.3,-306.058 1059.97,-299.066"/>
</g>
<!-- Node26 -->
<g id="node23" class="node"><title>Node26</title>
<g id="a_node23"><a xlink:href="gui__item_8cpp.xhtml" target="_top" xlink:title=" ">
<polygon fill="white" stroke="black" points="747.891,-218 747.891,-248 857.891,-248 857.891,-218 747.891,-218"/>
<text text-anchor="start" x="755.891" y="-236" font-family="Helvetica,sans-Serif" font-size="10.00">libopenage/gui/guisys</text>
<text text-anchor="middle" x="802.891" y="-225" font-family="Helvetica,sans-Serif" font-size="10.00">/link/gui_item.cpp</text>
</a>
</g>
</g>
<!-- Node5&#45;&gt;Node26 -->
<g id="edge30" class="edge"><title>Node5&#45;&gt;Node26</title>
<path fill="none" stroke="midnightblue" d="M946.713,-286.81C914.08,-274.827 871.547,-259.21 841.217,-248.073"/>
<polygon fill="midnightblue" stroke="midnightblue" points="945.904,-290.241 956.498,-290.403 948.317,-283.67 945.904,-290.241"/>
</g>
<!-- Node27 -->
<g id="node24" class="node"><title>Node27</title>
<g id="a_node24"><a xlink:href="gui__subtree__impl_8cpp.xhtml" target="_top" xlink:title=" ">
<polygon fill="white" stroke="black" points="875.891,-212.5 875.891,-253.5 985.891,-253.5 985.891,-212.5 875.891,-212.5"/>
<text text-anchor="start" x="883.891" y="-241.5" font-family="Helvetica,sans-Serif" font-size="10.00">libopenage/gui/guisys</text>
<text text-anchor="start" x="883.891" y="-230.5" font-family="Helvetica,sans-Serif" font-size="10.00">/private/gui_subtree</text>
<text text-anchor="middle" x="930.891" y="-219.5" font-family="Helvetica,sans-Serif" font-size="10.00">_impl.cpp</text>
</a>
</g>
</g>
<!-- Node5&#45;&gt;Node27 -->
<g id="edge31" class="edge"><title>Node5&#45;&gt;Node27</title>
<path fill="none" stroke="midnightblue" d="M975.211,-282.821C966.744,-273.494 956.918,-262.671 948.673,-253.588"/>
<polygon fill="midnightblue" stroke="midnightblue" points="972.626,-285.182 981.939,-290.233 977.809,-280.477 972.626,-285.182"/>
</g>
<!-- Node28 -->
<g id="node25" class="node"><title>Node28</title>
<g id="a_node25"><a xlink:href="gui__live__reloader_8cpp.xhtml" target="_top" xlink:title=" ">
<polygon fill="white" stroke="black" points="1003.89,-212.5 1003.89,-253.5 1113.89,-253.5 1113.89,-212.5 1003.89,-212.5"/>
<text text-anchor="start" x="1011.89" y="-241.5" font-family="Helvetica,sans-Serif" font-size="10.00">libopenage/gui/guisys</text>
<text text-anchor="start" x="1011.89" y="-230.5" font-family="Helvetica,sans-Serif" font-size="10.00">/private/livereload/gui</text>
<text text-anchor="middle" x="1058.89" y="-219.5" font-family="Helvetica,sans-Serif" font-size="10.00">_live_reloader.cpp</text>
</a>
</g>
</g>
<!-- Node5&#45;&gt;Node28 -->
<g id="edge32" class="edge"><title>Node5&#45;&gt;Node28</title>
<path fill="none" stroke="midnightblue" d="M1014.57,-282.821C1023.04,-273.494 1032.86,-262.671 1041.11,-253.588"/>
<polygon fill="midnightblue" stroke="midnightblue" points="1011.97,-280.477 1007.84,-290.233 1017.16,-285.182 1011.97,-280.477"/>
</g>
<!-- Node7 -->
<g id="node4" class="node"><title>Node7</title>
<g id="a_node4"><a xlink:href="actions__list__model_8h.xhtml" target="_top" xlink:title=" ">
<polygon fill="white" stroke="black" points="307.391,-140 307.391,-170 420.391,-170 420.391,-140 307.391,-140"/>
<text text-anchor="start" x="315.391" y="-158" font-family="Helvetica,sans-Serif" font-size="10.00">libopenage/gui/actions</text>
<text text-anchor="middle" x="363.891" y="-147" font-family="Helvetica,sans-Serif" font-size="10.00">_list_model.h</text>
</a>
</g>
</g>
<!-- Node6&#45;&gt;Node7 -->
<g id="edge3" class="edge"><title>Node6&#45;&gt;Node7</title>
<path fill="none" stroke="midnightblue" d="M363.891,-207.59C363.891,-195.257 363.891,-180.724 363.891,-170.231"/>
<polygon fill="midnightblue" stroke="midnightblue" points="360.391,-207.705 363.891,-217.705 367.391,-207.705 360.391,-207.705"/>
</g>
<!-- Node8 -->
<g id="node5" class="node"><title>Node8</title>
<g id="a_node5"><a xlink:href="actions__list__model_8cpp.xhtml" target="_top" xlink:title=" ">
<polygon fill="white" stroke="black" points="120.391,-67.5 120.391,-97.5 233.391,-97.5 233.391,-67.5 120.391,-67.5"/>
<text text-anchor="start" x="128.391" y="-85.5" font-family="Helvetica,sans-Serif" font-size="10.00">libopenage/gui/actions</text>
<text text-anchor="middle" x="176.891" y="-74.5" font-family="Helvetica,sans-Serif" font-size="10.00">_list_model.cpp</text>
</a>
</g>
</g>
<!-- Node6&#45;&gt;Node8 -->
<g id="edge5" class="edge"><title>Node6&#45;&gt;Node8</title>
<path fill="none" stroke="midnightblue" d="M313.609,-215.133C309.333,-213.975 305.053,-212.909 300.891,-212 237.016,-198.049 52.2008,-224.978 8.8907,-176 -3.47474,-162.016 -2.24792,-148.979 8.8907,-134 34.3334,-99.7847 82.1923,-87.8892 120.34,-84.1341"/>
<polygon fill="midnightblue" stroke="midnightblue" points="312.944,-218.584 323.521,-217.973 314.872,-211.854 312.944,-218.584"/>
</g>
<!-- Node9 -->
<g id="node6" class="node"><title>Node9</title>
<g id="a_node6"><a xlink:href="category__contents__list__model_8cpp.xhtml" target="_top" xlink:title=" ">
<polygon fill="white" stroke="black" points="17.8907,-140 17.8907,-170 145.891,-170 145.891,-140 17.8907,-140"/>
<text text-anchor="start" x="25.8907" y="-158" font-family="Helvetica,sans-Serif" font-size="10.00">libopenage/gui/category</text>
<text text-anchor="middle" x="81.8907" y="-147" font-family="Helvetica,sans-Serif" font-size="10.00">_contents_list_model.cpp</text>
</a>
</g>
</g>
<!-- Node6&#45;&gt;Node9 -->
<g id="edge6" class="edge"><title>Node6&#45;&gt;Node9</title>
<path fill="none" stroke="midnightblue" d="M311.176,-214.985C307.702,-213.951 304.251,-212.947 300.891,-212 236.562,-193.879 219.569,-192.831 154.891,-176 147.642,-174.114 140.002,-172.076 132.505,-170.047"/>
<polygon fill="midnightblue" stroke="midnightblue" points="310.379,-218.401 320.965,-217.959 312.414,-211.703 310.379,-218.401"/>
</g>
<!-- Node10 -->
<g id="node7" class="node"><title>Node10</title>
<g id="a_node7"><a xlink:href="game__control__link_8cpp.xhtml" target="_top" xlink:title=" ">
<polygon fill="white" stroke="black" points="438.891,-140 438.891,-170 544.891,-170 544.891,-140 438.891,-140"/>
<text text-anchor="start" x="446.891" y="-158" font-family="Helvetica,sans-Serif" font-size="10.00">libopenage/gui/game</text>
<text text-anchor="middle" x="491.891" y="-147" font-family="Helvetica,sans-Serif" font-size="10.00">_control_link.cpp</text>
</a>
</g>
</g>
<!-- Node6&#45;&gt;Node10 -->
<g id="edge7" class="edge"><title>Node6&#45;&gt;Node10</title>
<path fill="none" stroke="midnightblue" d="M396.49,-212.644C418.875,-199.353 448.073,-182.017 468.242,-170.041"/>
<polygon fill="midnightblue" stroke="midnightblue" points="394.478,-209.768 387.667,-217.883 398.052,-215.787 394.478,-209.768"/>
</g>
<!-- Node11 -->
<g id="node8" class="node"><title>Node11</title>
<g id="a_node8"><a xlink:href="resources__list__model_8cpp.xhtml" target="_top" xlink:title=" ">
<polygon fill="white" stroke="black" points="164.391,-140 164.391,-170 289.391,-170 289.391,-140 164.391,-140"/>
<text text-anchor="start" x="172.391" y="-158" font-family="Helvetica,sans-Serif" font-size="10.00">libopenage/gui/resources</text>
<text text-anchor="middle" x="226.891" y="-147" font-family="Helvetica,sans-Serif" font-size="10.00">_list_model.cpp</text>
</a>
</g>
</g>
<!-- Node6&#45;&gt;Node11 -->
<g id="edge8" class="edge"><title>Node6&#45;&gt;Node11</title>
<path fill="none" stroke="midnightblue" d="M329.637,-212.998C305.597,-199.662 273.981,-182.123 252.202,-170.041"/>
<polygon fill="midnightblue" stroke="midnightblue" points="328.001,-216.093 338.443,-217.883 331.396,-209.971 328.001,-216.093"/>
</g>
<!-- Node7&#45;&gt;Node8 -->
<g id="edge4" class="edge"><title>Node7&#45;&gt;Node8</title>
<path fill="none" stroke="midnightblue" d="M316.968,-136.31C285.185,-124.327 243.759,-108.71 214.219,-97.5729"/>
<polygon fill="midnightblue" stroke="midnightblue" points="315.906,-139.65 326.498,-139.903 318.375,-133.1 315.906,-139.65"/>
</g>
<!-- Node13 -->
<g id="node10" class="node"><title>Node13</title>
<g id="a_node10"><a xlink:href="assetmanager__link_8cpp.xhtml" target="_top" xlink:title=" ">
<polygon fill="white" stroke="black" points="815.391,-140 815.391,-170 958.391,-170 958.391,-140 815.391,-140"/>
<text text-anchor="start" x="823.391" y="-158" font-family="Helvetica,sans-Serif" font-size="10.00">libopenage/gui/assetmanager</text>
<text text-anchor="middle" x="886.891" y="-147" font-family="Helvetica,sans-Serif" font-size="10.00">_link.cpp</text>
</a>
</g>
</g>
<!-- Node12&#45;&gt;Node13 -->
<g id="edge10" class="edge"><title>Node12&#45;&gt;Node13</title>
<path fill="none" stroke="midnightblue" d="M1137.27,-215.498C1132.4,-214.31 1127.57,-213.133 1122.89,-212 1062.93,-197.484 994.311,-181.243 946.577,-170.005"/>
<polygon fill="midnightblue" stroke="midnightblue" points="1136.71,-218.966 1147.26,-217.947 1138.38,-212.167 1136.71,-218.966"/>
</g>
<!-- Node14 -->
<g id="node11" class="node"><title>Node14</title>
<g id="a_node11"><a xlink:href="game__spec__link_8cpp.xhtml" target="_top" xlink:title=" ">
<polygon fill="white" stroke="black" points="1240.89,-140 1240.89,-170 1346.89,-170 1346.89,-140 1240.89,-140"/>
<text text-anchor="start" x="1248.89" y="-158" font-family="Helvetica,sans-Serif" font-size="10.00">libopenage/gui/game</text>
<text text-anchor="middle" x="1293.89" y="-147" font-family="Helvetica,sans-Serif" font-size="10.00">_spec_link.cpp</text>
</a>
</g>
</g>
<!-- Node12&#45;&gt;Node14 -->
<g id="edge11" class="edge"><title>Node12&#45;&gt;Node14</title>
<path fill="none" stroke="midnightblue" d="M1228.88,-210.894C1244.23,-197.932 1263.48,-181.678 1277.04,-170.231"/>
<polygon fill="midnightblue" stroke="midnightblue" points="1226.2,-208.579 1220.82,-217.705 1230.72,-213.927 1226.2,-208.579"/>
</g>
<!-- Node15&#45;&gt;Node10 -->
<g id="edge13" class="edge"><title>Node15&#45;&gt;Node10</title>
<path fill="none" stroke="midnightblue" d="M633.188,-214.046C600.439,-200.593 556.257,-182.442 526.07,-170.041"/>
<polygon fill="midnightblue" stroke="midnightblue" points="631.947,-217.321 642.527,-217.883 634.607,-210.846 631.947,-217.321"/>
</g>
<!-- Node16 -->
<g id="node13" class="node"><title>Node16</title>
<g id="a_node13"><a xlink:href="game__creator_8cpp.xhtml" target="_top" xlink:title=" ">
<polygon fill="white" stroke="black" points="1197.89,-0.5 1197.89,-30.5 1303.89,-30.5 1303.89,-0.5 1197.89,-0.5"/>
<text text-anchor="start" x="1205.89" y="-18.5" font-family="Helvetica,sans-Serif" font-size="10.00">libopenage/gui/game</text>
<text text-anchor="middle" x="1250.89" y="-7.5" font-family="Helvetica,sans-Serif" font-size="10.00">_creator.cpp</text>
</a>
</g>
</g>
<!-- Node15&#45;&gt;Node16 -->
<g id="edge14" class="edge"><title>Node15&#45;&gt;Node16</title>
<path fill="none" stroke="midnightblue" d="M726.576,-215.156C730.718,-214.001 734.861,-212.929 738.891,-212 849.562,-186.473 899.134,-241.544 991.891,-176 1036.54,-144.452 1005.94,-100.819 1048.89,-67 1051.89,-64.638 1138.96,-43.3864 1197.8,-29.2147"/>
<polygon fill="midnightblue" stroke="midnightblue" points="725.578,-211.801 716.967,-217.973 727.547,-218.519 725.578,-211.801"/>
</g>
<!-- Node17 -->
<g id="node14" class="node"><title>Node17</title>
<g id="a_node14"><a xlink:href="game__main__link_8cpp.xhtml" target="_top" xlink:title=" ">
<polygon fill="white" stroke="black" points="690.891,-140 690.891,-170 796.891,-170 796.891,-140 690.891,-140"/>
<text text-anchor="start" x="698.891" y="-158" font-family="Helvetica,sans-Serif" font-size="10.00">libopenage/gui/game</text>
<text text-anchor="middle" x="743.891" y="-147" font-family="Helvetica,sans-Serif" font-size="10.00">_main_link.cpp</text>
</a>
</g>
</g>
<!-- Node15&#45;&gt;Node17 -->
<g id="edge15" class="edge"><title>Node15&#45;&gt;Node17</title>
<path fill="none" stroke="midnightblue" d="M696.135,-210.171C707.453,-197.332 721.441,-181.466 731.345,-170.231"/>
<polygon fill="midnightblue" stroke="midnightblue" points="693.48,-207.889 689.493,-217.705 698.731,-212.518 693.48,-207.889"/>
</g>
<!-- Node18 -->
<g id="node15" class="node"><title>Node18</title>
<g id="a_node15"><a xlink:href="game__saver_8cpp.xhtml" target="_top" xlink:title=" ">
<polygon fill="white" stroke="black" points="933.891,-0.5 933.891,-30.5 1039.89,-30.5 1039.89,-0.5 933.891,-0.5"/>
<text text-anchor="start" x="941.891" y="-18.5" font-family="Helvetica,sans-Serif" font-size="10.00">libopenage/gui/game</text>
<text text-anchor="middle" x="986.891" y="-7.5" font-family="Helvetica,sans-Serif" font-size="10.00">_saver.cpp</text>
</a>
</g>
</g>
<!-- Node15&#45;&gt;Node18 -->
<g id="edge16" class="edge"><title>Node15&#45;&gt;Node18</title>
<path fill="none" stroke="midnightblue" d="M727.122,-215.071C731.083,-213.958 735.04,-212.918 738.891,-212 789.001,-200.056 932.152,-213.1 967.891,-176 1006.39,-136.033 996.517,-61.8223 990.21,-30.7566"/>
<polygon fill="midnightblue" stroke="midnightblue" points="725.925,-211.775 717.321,-217.957 727.903,-218.49 725.925,-211.775"/>
</g>
<!-- Node19&#45;&gt;Node14 -->
<g id="edge19" class="edge"><title>Node19&#45;&gt;Node14</title>
<path fill="none" stroke="midnightblue" d="M1462.91,-214.654C1424.01,-201.156 1370.72,-182.663 1334.45,-170.075"/>
<polygon fill="midnightblue" stroke="midnightblue" points="1461.87,-218 1472.47,-217.972 1464.17,-211.387 1461.87,-218"/>
</g>
<!-- Node19&#45;&gt;Node16 -->
<g id="edge18" class="edge"><title>Node19&#45;&gt;Node16</title>
<path fill="none" stroke="midnightblue" d="M1513.99,-207.496C1513.7,-186.027 1510.09,-155.052 1493.89,-134 1446.95,-73.005 1360.21,-41.9098 1304.07,-27.4556"/>
<polygon fill="midnightblue" stroke="midnightblue" points="1510.49,-207.719 1513.89,-217.753 1517.49,-207.789 1510.49,-207.719"/>
</g>
<!-- Node20 -->
<g id="node17" class="node"><title>Node20</title>
<g id="a_node17"><a xlink:href="gui__image__provider__link_8cpp.xhtml" target="_top" xlink:title=" ">
<polygon fill="white" stroke="black" points="1541.39,-134.5 1541.39,-175.5 1674.39,-175.5 1674.39,-134.5 1541.39,-134.5"/>
<text text-anchor="start" x="1549.39" y="-163.5" font-family="Helvetica,sans-Serif" font-size="10.00">libopenage/gui/integration</text>
<text text-anchor="start" x="1549.39" y="-152.5" font-family="Helvetica,sans-Serif" font-size="10.00">/private/gui_image_provider</text>
<text text-anchor="middle" x="1607.89" y="-141.5" font-family="Helvetica,sans-Serif" font-size="10.00">_link.cpp</text>
</a>
</g>
</g>
<!-- Node19&#45;&gt;Node20 -->
<g id="edge20" class="edge"><title>Node19&#45;&gt;Node20</title>
<path fill="none" stroke="midnightblue" d="M1538.92,-211.176C1552.76,-200.106 1569.67,-186.573 1583.29,-175.68"/>
<polygon fill="midnightblue" stroke="midnightblue" points="1536.38,-208.725 1530.76,-217.705 1540.75,-214.191 1536.38,-208.725"/>
</g>
<!-- Node22 -->
<g id="node19" class="node"><title>Node22</title>
<g id="a_node19"><a xlink:href="generator__link_8h.xhtml" target="_top" xlink:title=" ">
<polygon fill="white" stroke="black" points="1057.89,-67.5 1057.89,-97.5 1179.89,-97.5 1179.89,-67.5 1057.89,-67.5"/>
<text text-anchor="start" x="1065.89" y="-85.5" font-family="Helvetica,sans-Serif" font-size="10.00">libopenage/gui/generator</text>
<text text-anchor="middle" x="1118.89" y="-74.5" font-family="Helvetica,sans-Serif" font-size="10.00">_link.h</text>
</a>
</g>
</g>
<!-- Node21&#45;&gt;Node22 -->
<g id="edge22" class="edge"><title>Node21&#45;&gt;Node22</title>
<path fill="none" stroke="midnightblue" d="M1322.15,-216.33C1293,-207.394 1259.11,-194.263 1231.89,-176 1210.99,-161.973 1212.92,-150.484 1193.89,-134 1177.99,-120.226 1158.19,-107.035 1142.92,-97.5909"/>
<polygon fill="midnightblue" stroke="midnightblue" points="1321.25,-219.715 1331.83,-219.201 1323.24,-213.003 1321.25,-219.715"/>
</g>
<!-- Node21&#45;&gt;Node24 -->
<g id="edge26" class="edge"><title>Node21&#45;&gt;Node24</title>
<path fill="none" stroke="midnightblue" d="M1328.83,-215.135C1325.13,-214.071 1321.46,-213.019 1317.89,-212 1267.33,-197.559 1209.47,-181.307 1169.22,-170.046"/>
<polygon fill="midnightblue" stroke="midnightblue" points="1328.07,-218.559 1338.65,-217.965 1330.01,-211.833 1328.07,-218.559"/>
</g>
<!-- Node25 -->
<g id="node22" class="node"><title>Node25</title>
<g id="a_node22"><a xlink:href="gui__list__model_8cpp.xhtml" target="_top" xlink:title=" ">
<polygon fill="white" stroke="black" points="1365.39,-140 1365.39,-170 1484.39,-170 1484.39,-140 1365.39,-140"/>
<text text-anchor="start" x="1373.39" y="-158" font-family="Helvetica,sans-Serif" font-size="10.00">libopenage/gui/guisys</text>
<text text-anchor="middle" x="1424.89" y="-147" font-family="Helvetica,sans-Serif" font-size="10.00">/link/gui_list_model.cpp</text>
</a>
</g>
</g>
<!-- Node21&#45;&gt;Node25 -->
<g id="edge28" class="edge"><title>Node21&#45;&gt;Node25</title>
<path fill="none" stroke="midnightblue" d="M1398.54,-208.705C1404.82,-196.141 1412.37,-181.042 1417.78,-170.231"/>
<polygon fill="midnightblue" stroke="midnightblue" points="1395.38,-207.195 1394.04,-217.705 1401.64,-210.326 1395.38,-207.195"/>
</g>
<!-- Node22&#45;&gt;Node16 -->
<g id="edge23" class="edge"><title>Node22&#45;&gt;Node16</title>
<path fill="none" stroke="midnightblue" d="M1156.76,-62.8533C1177.63,-52.5761 1203.12,-40.0252 1222.3,-30.5765"/>
<polygon fill="midnightblue" stroke="midnightblue" points="1154.96,-59.8383 1147.53,-67.396 1158.05,-66.1182 1154.96,-59.8383"/>
</g>
<!-- Node22&#45;&gt;Node18 -->
<g id="edge24" class="edge"><title>Node22&#45;&gt;Node18</title>
<path fill="none" stroke="midnightblue" d="M1081.02,-62.8533C1060.15,-52.5761 1034.66,-40.0252 1015.48,-30.5765"/>
<polygon fill="midnightblue" stroke="midnightblue" points="1079.73,-66.1182 1090.25,-67.396 1082.82,-59.8383 1079.73,-66.1182"/>
</g>
<!-- Node23 -->
<g id="node20" class="node"><title>Node23</title>
<g id="a_node20"><a xlink:href="generator__link_8cpp.xhtml" target="_top" xlink:title=" ">
<polygon fill="white" stroke="black" points="1057.89,-0.5 1057.89,-30.5 1179.89,-30.5 1179.89,-0.5 1057.89,-0.5"/>
<text text-anchor="start" x="1065.89" y="-18.5" font-family="Helvetica,sans-Serif" font-size="10.00">libopenage/gui/generator</text>
<text text-anchor="middle" x="1118.89" y="-7.5" font-family="Helvetica,sans-Serif" font-size="10.00">_link.cpp</text>
</a>
</g>
</g>
<!-- Node22&#45;&gt;Node23 -->
<g id="edge25" class="edge"><title>Node22&#45;&gt;Node23</title>
<path fill="none" stroke="midnightblue" d="M1118.89,-57.1081C1118.89,-48.1539 1118.89,-38.3227 1118.89,-30.5765"/>
<polygon fill="midnightblue" stroke="midnightblue" points="1115.39,-57.3959 1118.89,-67.396 1122.39,-57.396 1115.39,-57.3959"/>
</g>
<!-- Node24&#45;&gt;Node22 -->
<g id="edge27" class="edge"><title>Node24&#45;&gt;Node22</title>
<path fill="none" stroke="midnightblue" d="M1118.89,-129.732C1118.89,-119.068 1118.89,-106.914 1118.89,-97.7455"/>
<polygon fill="midnightblue" stroke="midnightblue" points="1115.39,-129.733 1118.89,-139.733 1122.39,-129.733 1115.39,-129.733"/>
</g>
<!-- Node30 -->
<g id="node27" class="node"><title>Node30</title>
<g id="a_node27"><a xlink:href="engine__link_8h.xhtml" target="_top" xlink:title=" ">
<polygon fill="white" stroke="black" points="495.891,-218 495.891,-248 605.891,-248 605.891,-218 495.891,-218"/>
<text text-anchor="start" x="503.891" y="-236" font-family="Helvetica,sans-Serif" font-size="10.00">libopenage/gui/engine</text>
<text text-anchor="middle" x="550.891" y="-225" font-family="Helvetica,sans-Serif" font-size="10.00">_link.h</text>
</a>
</g>
</g>
<!-- Node29&#45;&gt;Node30 -->
<g id="edge34" class="edge"><title>Node29&#45;&gt;Node30</title>
<path fill="none" stroke="midnightblue" d="M550.891,-280.232C550.891,-269.568 550.891,-257.414 550.891,-248.246"/>
<polygon fill="midnightblue" stroke="midnightblue" points="547.391,-280.233 550.891,-290.233 554.391,-280.233 547.391,-280.233"/>
</g>
<!-- Node32 -->
<g id="node29" class="node"><title>Node32</title>
<g id="a_node29"><a xlink:href="gui__singleton__item_8cpp.xhtml" target="_top" xlink:title=" ">
<polygon fill="white" stroke="black" points="155.391,-218 155.391,-248 292.391,-248 292.391,-218 155.391,-218"/>
<text text-anchor="start" x="163.391" y="-236" font-family="Helvetica,sans-Serif" font-size="10.00">libopenage/gui/guisys</text>
<text text-anchor="middle" x="223.891" y="-225" font-family="Helvetica,sans-Serif" font-size="10.00">/link/gui_singleton_item.cpp</text>
</a>
</g>
</g>
<!-- Node29&#45;&gt;Node32 -->
<g id="edge39" class="edge"><title>Node29&#45;&gt;Node32</title>
<path fill="none" stroke="midnightblue" d="M477.234,-290.583C427.558,-280.946 360.613,-267.474 301.891,-254 293.852,-252.155 285.375,-250.099 277.089,-248.026"/>
<polygon fill="midnightblue" stroke="midnightblue" points="476.764,-294.057 487.246,-292.519 478.093,-287.184 476.764,-294.057"/>
</g>
<!-- Node30&#45;&gt;Node10 -->
<g id="edge37" class="edge"><title>Node30&#45;&gt;Node10</title>
<path fill="none" stroke="midnightblue" d="M533.378,-209.441C523.514,-196.735 511.495,-181.254 502.938,-170.231"/>
<polygon fill="midnightblue" stroke="midnightblue" points="530.896,-211.952 539.793,-217.705 536.426,-207.66 530.896,-211.952"/>
</g>
<!-- Node30&#45;&gt;Node13 -->
<g id="edge35" class="edge"><title>Node30&#45;&gt;Node13</title>
<path fill="none" stroke="midnightblue" d="M603.173,-215.118C607.123,-214.009 611.061,-212.956 614.891,-212 698.703,-191.081 721.481,-194.361 805.891,-176 814.241,-174.184 823.045,-172.142 831.65,-170.076"/>
<polygon fill="midnightblue" stroke="midnightblue" points="602.009,-211.811 593.383,-217.962 603.962,-218.533 602.009,-211.811"/>
</g>
<!-- Node30&#45;&gt;Node17 -->
<g id="edge38" class="edge"><title>Node30&#45;&gt;Node17</title>
<path fill="none" stroke="midnightblue" d="M596.483,-214.046C630.648,-200.593 676.741,-182.442 708.233,-170.041"/>
<polygon fill="midnightblue" stroke="midnightblue" points="594.762,-210.962 586.74,-217.883 597.327,-217.476 594.762,-210.962"/>
</g>
<!-- Node31 -->
<g id="node28" class="node"><title>Node31</title>
<g id="a_node28"><a xlink:href="engine__link_8cpp.xhtml" target="_top" xlink:title=" ">
<polygon fill="white" stroke="black" points="562.891,-140 562.891,-170 672.891,-170 672.891,-140 562.891,-140"/>
<text text-anchor="start" x="570.891" y="-158" font-family="Helvetica,sans-Serif" font-size="10.00">libopenage/gui/engine</text>
<text text-anchor="middle" x="617.891" y="-147" font-family="Helvetica,sans-Serif" font-size="10.00">_link.cpp</text>
</a>
</g>
</g>
<!-- Node30&#45;&gt;Node31 -->
<g id="edge36" class="edge"><title>Node30&#45;&gt;Node31</title>
<path fill="none" stroke="midnightblue" d="M570.135,-210.171C581.453,-197.332 595.441,-181.466 605.345,-170.231"/>
<polygon fill="midnightblue" stroke="midnightblue" points="567.48,-207.889 563.493,-217.705 572.731,-212.518 567.48,-207.889"/>
</g>
</g>
</svg>
