<?xml version="1.0" encoding="UTF-8" standalone="no"?>
<!DOCTYPE svg PUBLIC "-//W3C//DTD SVG 1.1//EN"
 "http://www.w3.org/Graphics/SVG/1.1/DTD/svg11.dtd">
<!-- Generated by graphviz version 2.38.0 (20140413.2041)
 -->
<!-- Title: libopenage/gui/integration/private/gui_log.h Pages: 1 -->
<svg width="280pt" height="117pt"
 viewBox="0.00 0.00 280.00 117.00" xmlns="http://www.w3.org/2000/svg" xmlns:xlink="http://www.w3.org/1999/xlink">
<g id="graph0" class="graph" transform="scale(1 1) rotate(0) translate(4 113)">
<title>libopenage/gui/integration/private/gui_log.h</title>
<polygon fill="white" stroke="none" points="-4,4 -4,-113 276,-113 276,4 -4,4"/>
<!-- Node2 -->
<g id="node1" class="node"><title>Node2</title>
<g id="a_node1"><a xlink:title=" ">
<polygon fill="#bfbfbf" stroke="black" points="72,-78.5 72,-108.5 199,-108.5 199,-78.5 72,-78.5"/>
<text text-anchor="start" x="80" y="-96.5" font-family="Helvetica,sans-Serif" font-size="10.00">libopenage/gui/integration</text>
<text text-anchor="middle" x="135.5" y="-85.5" font-family="Helvetica,sans-Serif" font-size="10.00">/private/gui_log.h</text>
</a>
</g>
</g>
<!-- Node3 -->
<g id="node2" class="node"><title>Node3</title>
<g id="a_node2"><a xlink:href="gui__log_8cpp.xhtml" target="_top" xlink:title=" ">
<polygon fill="white" stroke="black" points="0,-6 0,-36 127,-36 127,-6 0,-6"/>
<text text-anchor="start" x="8" y="-24" font-family="Helvetica,sans-Serif" font-size="10.00">libopenage/gui/integration</text>
<text text-anchor="middle" x="63.5" y="-13" font-family="Helvetica,sans-Serif" font-size="10.00">/private/gui_log.cpp</text>
</a>
</g>
</g>
<!-- Node2&#45;&gt;Node3 -->
<g id="edge1" class="edge"><title>Node2&#45;&gt;Node3</title>
<path fill="none" stroke="midnightblue" d="M113.735,-71.188C102.179,-59.8729 88.2905,-46.2741 78.0486,-36.2455"/>
<polygon fill="midnightblue" stroke="midnightblue" points="111.336,-73.7378 120.93,-78.2333 116.233,-68.7362 111.336,-73.7378"/>
</g>
<!-- Node4 -->
<g id="node3" class="node"><title>Node4</title>
<g id="a_node3"><a xlink:href="gui__application__with__logger_8cpp.xhtml" target="_top" xlink:title=" ">
<polygon fill="white" stroke="black" points="145,-0.5 145,-41.5 272,-41.5 272,-0.5 145,-0.5"/>
<text text-anchor="start" x="153" y="-29.5" font-family="Helvetica,sans-Serif" font-size="10.00">libopenage/gui/integration</text>
<text text-anchor="start" x="153" y="-18.5" font-family="Helvetica,sans-Serif" font-size="10.00">/public/gui_application</text>
<text text-anchor="middle" x="208.5" y="-7.5" font-family="Helvetica,sans-Serif" font-size="10.00">_with_logger.cpp</text>
</a>
</g>
</g>
<!-- Node2&#45;&gt;Node4 -->
<g id="edge2" class="edge"><title>Node2&#45;&gt;Node4</title>
<path fill="none" stroke="midnightblue" d="M157.658,-71.1007C167.381,-61.7107 178.719,-50.7615 188.217,-41.5884"/>
<polygon fill="midnightblue" stroke="midnightblue" points="155.034,-68.7688 150.273,-78.2333 159.897,-73.804 155.034,-68.7688"/>
</g>
</g>
</svg>
