<?xml version="1.0" encoding="UTF-8" standalone="no"?>
<!DOCTYPE svg PUBLIC "-//W3C//DTD SVG 1.1//EN"
 "http://www.w3.org/Graphics/SVG/1.1/DTD/svg11.dtd">
<!-- Generated by graphviz version 2.38.0 (20140413.2041)
 -->
<!-- Title: libopenage/gui/guisys/link/gui_item.cpp Pages: 1 -->
<svg width="1029pt" height="296pt"
 viewBox="0.00 0.00 1029.00 296.00" xmlns="http://www.w3.org/2000/svg" xmlns:xlink="http://www.w3.org/1999/xlink">
<g id="graph0" class="graph" transform="scale(1 1) rotate(0) translate(4 292)">
<title>libopenage/gui/guisys/link/gui_item.cpp</title>
<polygon fill="white" stroke="none" points="-4,4 -4,-292 1025,-292 1025,4 -4,4"/>
<!-- Node0 -->
<g id="node1" class="node"><title>Node0</title>
<g id="a_node1"><a xlink:title=" ">
<polygon fill="#bfbfbf" stroke="black" points="428,-257.5 428,-287.5 538,-287.5 538,-257.5 428,-257.5"/>
<text text-anchor="start" x="436" y="-275.5" font-family="Helvetica,sans-Serif" font-size="10.00">libopenage/gui/guisys</text>
<text text-anchor="middle" x="483" y="-264.5" font-family="Helvetica,sans-Serif" font-size="10.00">/link/gui_item.cpp</text>
</a>
</g>
</g>
<!-- Node1 -->
<g id="node2" class="node"><title>Node1</title>
<g id="a_node2"><a xlink:href="gui__item_8h.xhtml" target="_top" xlink:title=" ">
<polygon fill="white" stroke="black" points="452,-201.5 452,-220.5 514,-220.5 514,-201.5 452,-201.5"/>
<text text-anchor="middle" x="483" y="-208.5" font-family="Helvetica,sans-Serif" font-size="10.00">gui_item.h</text>
</a>
</g>
</g>
<!-- Node0&#45;&gt;Node1 -->
<g id="edge1" class="edge"><title>Node0&#45;&gt;Node1</title>
<path fill="none" stroke="midnightblue" d="M483,-257.399C483,-249.466 483,-239.458 483,-230.858"/>
<polygon fill="midnightblue" stroke="midnightblue" points="486.5,-230.658 483,-220.658 479.5,-230.658 486.5,-230.658"/>
</g>
<!-- Node2 -->
<g id="node3" class="node"><title>Node2</title>
<g id="a_node3"><a xlink:title=" ">
<polygon fill="white" stroke="#bfbfbf" points="0,-134.5 0,-153.5 52,-153.5 52,-134.5 0,-134.5"/>
<text text-anchor="middle" x="26" y="-141.5" font-family="Helvetica,sans-Serif" font-size="10.00">memory</text>
</a>
</g>
</g>
<!-- Node1&#45;&gt;Node2 -->
<g id="edge2" class="edge"><title>Node1&#45;&gt;Node2</title>
<path fill="none" stroke="midnightblue" d="M451.927,-210.372C381.65,-210.415 205.734,-206.026 66,-165 60.3196,-163.332 54.4744,-160.884 49.0666,-158.267"/>
<polygon fill="midnightblue" stroke="midnightblue" points="50.4204,-155.026 39.9347,-153.509 47.1858,-161.234 50.4204,-155.026"/>
</g>
<!-- Node3 -->
<g id="node4" class="node"><title>Node3</title>
<g id="a_node4"><a xlink:title=" ">
<polygon fill="white" stroke="#bfbfbf" points="96.5,-0.5 96.5,-19.5 145.5,-19.5 145.5,-0.5 96.5,-0.5"/>
<text text-anchor="middle" x="121" y="-7.5" font-family="Helvetica,sans-Serif" font-size="10.00">cassert</text>
</a>
</g>
</g>
<!-- Node1&#45;&gt;Node3 -->
<g id="edge3" class="edge"><title>Node1&#45;&gt;Node3</title>
<path fill="none" stroke="midnightblue" d="M451.951,-209.969C375.343,-209.292 179.918,-203.714 130,-165 90.2007,-134.134 87.6473,-105.069 99,-56 101.23,-46.3627 105.821,-36.4052 110.236,-28.3149"/>
<polygon fill="midnightblue" stroke="midnightblue" points="113.351,-29.9216 115.362,-19.5194 107.303,-26.3968 113.351,-29.9216"/>
</g>
<!-- Node4 -->
<g id="node5" class="node"><title>Node4</title>
<g id="a_node5"><a xlink:title=" ">
<polygon fill="white" stroke="#bfbfbf" points="414,-62 414,-81 472,-81 472,-62 414,-62"/>
<text text-anchor="middle" x="443" y="-69" font-family="Helvetica,sans-Serif" font-size="10.00">functional</text>
</a>
</g>
</g>
<!-- Node1&#45;&gt;Node4 -->
<g id="edge4" class="edge"><title>Node1&#45;&gt;Node4</title>
<path fill="none" stroke="midnightblue" d="M478.184,-201.286C473.454,-192.4 466.334,-178.096 462,-165 453.728,-140.007 448.358,-109.973 445.504,-91.0557"/>
<polygon fill="midnightblue" stroke="midnightblue" points="448.959,-90.4953 444.079,-81.0911 442.03,-91.4858 448.959,-90.4953"/>
</g>
<!-- Node5 -->
<g id="node6" class="node"><title>Node5</title>
<g id="a_node6"><a xlink:title=" ">
<polygon fill="white" stroke="#bfbfbf" points="236,-62 236,-81 298,-81 298,-62 236,-62"/>
<text text-anchor="middle" x="267" y="-69" font-family="Helvetica,sans-Serif" font-size="10.00">type_traits</text>
</a>
</g>
</g>
<!-- Node1&#45;&gt;Node5 -->
<g id="edge5" class="edge"><title>Node1&#45;&gt;Node5</title>
<path fill="none" stroke="midnightblue" d="M451.701,-207.357C400.668,-202.372 302.911,-189.785 280,-165 261.702,-145.206 261.685,-112.12 263.924,-91.3476"/>
<polygon fill="midnightblue" stroke="midnightblue" points="267.419,-91.617 265.298,-81.2368 260.483,-90.6744 267.419,-91.617"/>
</g>
<!-- Node6 -->
<g id="node7" class="node"><title>Node6</title>
<g id="a_node7"><a xlink:title=" ">
<polygon fill="white" stroke="#bfbfbf" points="633,-134.5 633,-153.5 683,-153.5 683,-134.5 633,-134.5"/>
<text text-anchor="middle" x="658" y="-141.5" font-family="Helvetica,sans-Serif" font-size="10.00">typeinfo</text>
</a>
</g>
</g>
<!-- Node1&#45;&gt;Node6 -->
<g id="edge6" class="edge"><title>Node1&#45;&gt;Node6</title>
<path fill="none" stroke="midnightblue" d="M513.201,-201.469C541.088,-193.249 583.445,-179.894 619,-165 623.751,-163.01 628.715,-160.674 633.449,-158.314"/>
<polygon fill="midnightblue" stroke="midnightblue" points="635.418,-161.237 642.699,-153.54 632.207,-155.017 635.418,-161.237"/>
</g>
<!-- Node7 -->
<g id="node8" class="node"><title>Node7</title>
<g id="a_node8"><a xlink:title=" ">
<polygon fill="white" stroke="#bfbfbf" points="701,-134.5 701,-153.5 741,-153.5 741,-134.5 701,-134.5"/>
<text text-anchor="middle" x="721" y="-141.5" font-family="Helvetica,sans-Serif" font-size="10.00">utility</text>
</a>
</g>
</g>
<!-- Node1&#45;&gt;Node7 -->
<g id="edge7" class="edge"><title>Node1&#45;&gt;Node7</title>
<path fill="none" stroke="midnightblue" d="M514.264,-207.115C556.17,-202.4 632.206,-190.84 692,-165 695.416,-163.524 698.846,-161.62 702.091,-159.574"/>
<polygon fill="midnightblue" stroke="midnightblue" points="704.366,-162.255 710.579,-153.674 700.371,-156.508 704.366,-162.255"/>
</g>
<!-- Node8 -->
<g id="node9" class="node"><title>Node8</title>
<g id="a_node9"><a xlink:title=" ">
<polygon fill="white" stroke="#bfbfbf" points="537.5,-62 537.5,-81 590.5,-81 590.5,-62 537.5,-62"/>
<text text-anchor="middle" x="564" y="-69" font-family="Helvetica,sans-Serif" font-size="10.00">QObject</text>
</a>
</g>
</g>
<!-- Node1&#45;&gt;Node8 -->
<g id="edge8" class="edge"><title>Node1&#45;&gt;Node8</title>
<path fill="none" stroke="midnightblue" d="M514.084,-205.634C538.231,-200.431 570.186,-189.166 586,-165 601.147,-141.853 587.036,-109.374 575.482,-89.6984"/>
<polygon fill="midnightblue" stroke="midnightblue" points="578.419,-87.7942 570.154,-81.1652 572.481,-91.5013 578.419,-87.7942"/>
</g>
<!-- Node9 -->
<g id="node10" class="node"><title>Node9</title>
<g id="a_node10"><a xlink:title=" ">
<polygon fill="white" stroke="#bfbfbf" points="759.5,-134.5 759.5,-153.5 826.5,-153.5 826.5,-134.5 759.5,-134.5"/>
<text text-anchor="middle" x="793" y="-141.5" font-family="Helvetica,sans-Serif" font-size="10.00">QMetaType</text>
</a>
</g>
</g>
<!-- Node1&#45;&gt;Node9 -->
<g id="edge9" class="edge"><title>Node1&#45;&gt;Node9</title>
<path fill="none" stroke="midnightblue" d="M514.056,-207.489C564.497,-202.809 666.949,-190.796 750,-165 755.944,-163.154 762.127,-160.654 767.889,-158.048"/>
<polygon fill="midnightblue" stroke="midnightblue" points="769.561,-161.128 777.074,-153.657 766.542,-154.812 769.561,-161.128"/>
</g>
<!-- Node10 -->
<g id="node11" class="node"><title>Node10</title>
<g id="a_node11"><a xlink:title=" ">
<polygon fill="white" stroke="#bfbfbf" points="845,-134.5 845,-153.5 951,-153.5 951,-134.5 845,-134.5"/>
<text text-anchor="middle" x="898" y="-141.5" font-family="Helvetica,sans-Serif" font-size="10.00">QRegularExpression</text>
</a>
</g>
</g>
<!-- Node1&#45;&gt;Node10 -->
<g id="edge10" class="edge"><title>Node1&#45;&gt;Node10</title>
<path fill="none" stroke="midnightblue" d="M514.023,-207.985C575.882,-203.543 718.718,-191.155 836,-165 845.647,-162.849 855.933,-159.835 865.297,-156.8"/>
<polygon fill="midnightblue" stroke="midnightblue" points="866.655,-160.036 875.022,-153.536 864.428,-153.399 866.655,-160.036"/>
</g>
<!-- Node11 -->
<g id="node12" class="node"><title>Node11</title>
<g id="a_node12"><a xlink:title=" ">
<polygon fill="white" stroke="#bfbfbf" points="969,-134.5 969,-153.5 1021,-153.5 1021,-134.5 969,-134.5"/>
<text text-anchor="middle" x="995" y="-141.5" font-family="Helvetica,sans-Serif" font-size="10.00">QDebug</text>
</a>
</g>
</g>
<!-- Node1&#45;&gt;Node11 -->
<g id="edge11" class="edge"><title>Node1&#45;&gt;Node11</title>
<path fill="none" stroke="midnightblue" d="M514.28,-208.773C606.544,-204.882 876.337,-191.486 960,-165 964.833,-163.47 969.733,-161.204 974.276,-158.742"/>
<polygon fill="midnightblue" stroke="midnightblue" points="976.15,-161.7 982.961,-153.584 972.576,-155.681 976.15,-161.7"/>
</g>
<!-- Node12 -->
<g id="node13" class="node"><title>Node12</title>
<g id="a_node13"><a xlink:href="game__logic__caller_8h.xhtml" target="_top" xlink:title=" ">
<polygon fill="white" stroke="black" points="471,-129 471,-159 577,-159 577,-129 471,-129"/>
<text text-anchor="start" x="479" y="-147" font-family="Helvetica,sans-Serif" font-size="10.00">../private/game_logic</text>
<text text-anchor="middle" x="524" y="-136" font-family="Helvetica,sans-Serif" font-size="10.00">_caller.h</text>
</a>
</g>
</g>
<!-- Node1&#45;&gt;Node12 -->
<g id="edge12" class="edge"><title>Node1&#45;&gt;Node12</title>
<path fill="none" stroke="midnightblue" d="M488.529,-201.234C493.911,-192.703 502.318,-179.374 509.597,-167.834"/>
<polygon fill="midnightblue" stroke="midnightblue" points="512.738,-169.414 515.113,-159.089 506.818,-165.68 512.738,-169.414"/>
</g>
<!-- Node13 -->
<g id="node14" class="node"><title>Node13</title>
<g id="a_node14"><a xlink:href="deferred__initial__constant__property__values_8h.xhtml" target="_top" xlink:title=" ">
<polygon fill="white" stroke="black" points="289.5,-123.5 289.5,-164.5 414.5,-164.5 414.5,-123.5 289.5,-123.5"/>
<text text-anchor="start" x="297.5" y="-152.5" font-family="Helvetica,sans-Serif" font-size="10.00">../private/livereload</text>
<text text-anchor="start" x="297.5" y="-141.5" font-family="Helvetica,sans-Serif" font-size="10.00">/deferred_initial_constant</text>
<text text-anchor="middle" x="352" y="-130.5" font-family="Helvetica,sans-Serif" font-size="10.00">_property_values.h</text>
</a>
</g>
</g>
<!-- Node1&#45;&gt;Node13 -->
<g id="edge15" class="edge"><title>Node1&#45;&gt;Node13</title>
<path fill="none" stroke="midnightblue" d="M465.604,-201.369C449.088,-193.173 423.478,-180.466 400.751,-169.189"/>
<polygon fill="midnightblue" stroke="midnightblue" points="402.066,-165.935 391.553,-164.625 398.955,-172.206 402.066,-165.935"/>
</g>
<!-- Node15 -->
<g id="node16" class="node"><title>Node15</title>
<g id="a_node16"><a xlink:href="qtsdl__checked__static__cast_8h.xhtml" target="_top" xlink:title=" ">
<polygon fill="white" stroke="black" points="108.5,-56.5 108.5,-86.5 217.5,-86.5 217.5,-56.5 108.5,-56.5"/>
<text text-anchor="start" x="116.5" y="-74.5" font-family="Helvetica,sans-Serif" font-size="10.00">qtsdl_checked_static</text>
<text text-anchor="middle" x="163" y="-63.5" font-family="Helvetica,sans-Serif" font-size="10.00">_cast.h</text>
</a>
</g>
</g>
<!-- Node1&#45;&gt;Node15 -->
<g id="edge18" class="edge"><title>Node1&#45;&gt;Node15</title>
<path fill="none" stroke="midnightblue" d="M451.962,-208.203C371.737,-203.244 162.323,-188.181 142,-165 125.149,-145.779 136.454,-115.858 147.966,-95.2805"/>
<polygon fill="midnightblue" stroke="midnightblue" points="151.053,-96.9367 153.169,-86.5553 145.041,-93.3513 151.053,-96.9367"/>
</g>
<!-- Node16 -->
<g id="node17" class="node"><title>Node16</title>
<g id="a_node17"><a xlink:href="gui__item__link_8h.xhtml" target="_top" xlink:title=" ">
<polygon fill="white" stroke="black" points="151,-134.5 151,-153.5 233,-153.5 233,-134.5 151,-134.5"/>
<text text-anchor="middle" x="192" y="-141.5" font-family="Helvetica,sans-Serif" font-size="10.00">gui_item_link.h</text>
</a>
</g>
</g>
<!-- Node1&#45;&gt;Node16 -->
<g id="edge20" class="edge"><title>Node1&#45;&gt;Node16</title>
<path fill="none" stroke="midnightblue" d="M451.71,-205.669C406.17,-198.999 319.186,-184.869 247,-165 239.01,-162.801 230.528,-159.973 222.679,-157.14"/>
<polygon fill="midnightblue" stroke="midnightblue" points="223.753,-153.805 213.16,-153.596 221.311,-160.365 223.753,-153.805"/>
</g>
<!-- Node12&#45;&gt;Node4 -->
<g id="edge13" class="edge"><title>Node12&#45;&gt;Node4</title>
<path fill="none" stroke="midnightblue" d="M507.608,-128.733C494.133,-117.005 475.059,-100.404 461.13,-88.2797"/>
<polygon fill="midnightblue" stroke="midnightblue" points="463.059,-85.3184 453.218,-81.3932 458.463,-90.5985 463.059,-85.3184"/>
</g>
<!-- Node12&#45;&gt;Node8 -->
<g id="edge14" class="edge"><title>Node12&#45;&gt;Node8</title>
<path fill="none" stroke="midnightblue" d="M532.095,-128.733C538.372,-117.669 547.111,-102.267 553.855,-90.3798"/>
<polygon fill="midnightblue" stroke="midnightblue" points="557.064,-91.8179 558.954,-81.3932 550.975,-88.3635 557.064,-91.8179"/>
</g>
<!-- Node13&#45;&gt;Node4 -->
<g id="edge17" class="edge"><title>Node13&#45;&gt;Node4</title>
<path fill="none" stroke="midnightblue" d="M377.349,-123.362C392.016,-111.998 410.185,-97.9224 423.688,-87.4611"/>
<polygon fill="midnightblue" stroke="midnightblue" points="426.043,-90.0646 431.805,-81.1734 421.756,-84.531 426.043,-90.0646"/>
</g>
<!-- Node14 -->
<g id="node15" class="node"><title>Node14</title>
<g id="a_node15"><a xlink:title=" ">
<polygon fill="white" stroke="#bfbfbf" points="331,-62 331,-81 373,-81 373,-62 331,-62"/>
<text text-anchor="middle" x="352" y="-69" font-family="Helvetica,sans-Serif" font-size="10.00">vector</text>
</a>
</g>
</g>
<!-- Node13&#45;&gt;Node14 -->
<g id="edge16" class="edge"><title>Node13&#45;&gt;Node14</title>
<path fill="none" stroke="midnightblue" d="M352,-123.362C352,-113.297 352,-101.104 352,-91.18"/>
<polygon fill="midnightblue" stroke="midnightblue" points="355.5,-91.1733 352,-81.1734 348.5,-91.1734 355.5,-91.1733"/>
</g>
<!-- Node15&#45;&gt;Node3 -->
<g id="edge19" class="edge"><title>Node15&#45;&gt;Node3</title>
<path fill="none" stroke="midnightblue" d="M153.047,-56.3993C147.006,-47.8424 139.262,-36.8708 132.899,-27.857"/>
<polygon fill="midnightblue" stroke="midnightblue" points="135.738,-25.8091 127.111,-19.6578 130.019,-29.8459 135.738,-25.8091"/>
</g>
<!-- Node16&#45;&gt;Node5 -->
<g id="edge21" class="edge"><title>Node16&#45;&gt;Node5</title>
<path fill="none" stroke="midnightblue" d="M201.196,-134.355C213.342,-122.939 234.957,-102.62 250.09,-88.3957"/>
<polygon fill="midnightblue" stroke="midnightblue" points="252.839,-90.6147 257.728,-81.2154 248.045,-85.5143 252.839,-90.6147"/>
</g>
<!-- Node16&#45;&gt;Node15 -->
<g id="edge22" class="edge"><title>Node16&#45;&gt;Node15</title>
<path fill="none" stroke="midnightblue" d="M188.444,-134.355C184.539,-124.862 178.102,-109.214 172.68,-96.0325"/>
<polygon fill="midnightblue" stroke="midnightblue" points="175.831,-94.4928 168.79,-86.5762 169.358,-97.1558 175.831,-94.4928"/>
</g>
</g>
</svg>
