<?xml version="1.0" encoding="UTF-8" standalone="no"?>
<!DOCTYPE svg PUBLIC "-//W3C//DTD SVG 1.1//EN"
 "http://www.w3.org/Graphics/SVG/1.1/DTD/svg11.dtd">
<!-- Generated by graphviz version 2.38.0 (20140413.2041)
 -->
<!-- Title: libopenage/gui/guisys/private/gui_event_queue_impl.h Pages: 1 -->
<svg width="734pt" height="128pt"
 viewBox="0.00 0.00 734.00 128.00" xmlns="http://www.w3.org/2000/svg" xmlns:xlink="http://www.w3.org/1999/xlink">
<g id="graph0" class="graph" transform="scale(1 1) rotate(0) translate(4 124)">
<title>libopenage/gui/guisys/private/gui_event_queue_impl.h</title>
<polygon fill="white" stroke="none" points="-4,4 -4,-124 730,-124 730,4 -4,4"/>
<!-- Node3 -->
<g id="node1" class="node"><title>Node3</title>
<g id="a_node1"><a xlink:title=" ">
<polygon fill="#bfbfbf" stroke="black" points="284,-78.5 284,-119.5 406,-119.5 406,-78.5 284,-78.5"/>
<text text-anchor="start" x="292" y="-107.5" font-family="Helvetica,sans-Serif" font-size="10.00">libopenage/gui/guisys</text>
<text text-anchor="start" x="292" y="-96.5" font-family="Helvetica,sans-Serif" font-size="10.00">/private/gui_event_queue</text>
<text text-anchor="middle" x="345" y="-85.5" font-family="Helvetica,sans-Serif" font-size="10.00">_impl.h</text>
</a>
</g>
</g>
<!-- Node4 -->
<g id="node2" class="node"><title>Node4</title>
<g id="a_node2"><a xlink:href="gui__event__queue__impl_8cpp.xhtml" target="_top" xlink:title=" ">
<polygon fill="white" stroke="black" points="0,-0.5 0,-41.5 122,-41.5 122,-0.5 0,-0.5"/>
<text text-anchor="start" x="8" y="-29.5" font-family="Helvetica,sans-Serif" font-size="10.00">libopenage/gui/guisys</text>
<text text-anchor="start" x="8" y="-18.5" font-family="Helvetica,sans-Serif" font-size="10.00">/private/gui_event_queue</text>
<text text-anchor="middle" x="61" y="-7.5" font-family="Helvetica,sans-Serif" font-size="10.00">_impl.cpp</text>
</a>
</g>
</g>
<!-- Node3&#45;&gt;Node4 -->
<g id="edge1" class="edge"><title>Node3&#45;&gt;Node4</title>
<path fill="none" stroke="midnightblue" d="M273.775,-79.787C232.098,-69.0235 178.495,-54.9976 131,-42 128.074,-41.1993 125.082,-40.373 122.061,-39.5328"/>
<polygon fill="midnightblue" stroke="midnightblue" points="273.003,-83.2022 283.56,-82.3106 274.751,-76.424 273.003,-83.2022"/>
</g>
<!-- Node5 -->
<g id="node3" class="node"><title>Node5</title>
<g id="a_node3"><a xlink:href="gui__input__impl_8cpp.xhtml" target="_top" xlink:title=" ">
<polygon fill="white" stroke="black" points="140.5,-6 140.5,-36 271.5,-36 271.5,-6 140.5,-6"/>
<text text-anchor="start" x="148.5" y="-24" font-family="Helvetica,sans-Serif" font-size="10.00">libopenage/gui/guisys</text>
<text text-anchor="middle" x="206" y="-13" font-family="Helvetica,sans-Serif" font-size="10.00">/private/gui_input_impl.cpp</text>
</a>
</g>
</g>
<!-- Node3&#45;&gt;Node5 -->
<g id="edge2" class="edge"><title>Node3&#45;&gt;Node5</title>
<path fill="none" stroke="midnightblue" d="M300.152,-73.479C277.635,-61.1674 251.151,-46.6871 232.017,-36.2254"/>
<polygon fill="midnightblue" stroke="midnightblue" points="298.751,-76.7016 309.204,-78.4281 302.109,-70.5597 298.751,-76.7016"/>
</g>
<!-- Node6 -->
<g id="node4" class="node"><title>Node6</title>
<g id="a_node4"><a xlink:href="gui__subtree__impl_8cpp.xhtml" target="_top" xlink:title=" ">
<polygon fill="white" stroke="black" points="290,-0.5 290,-41.5 400,-41.5 400,-0.5 290,-0.5"/>
<text text-anchor="start" x="298" y="-29.5" font-family="Helvetica,sans-Serif" font-size="10.00">libopenage/gui/guisys</text>
<text text-anchor="start" x="298" y="-18.5" font-family="Helvetica,sans-Serif" font-size="10.00">/private/gui_subtree</text>
<text text-anchor="middle" x="345" y="-7.5" font-family="Helvetica,sans-Serif" font-size="10.00">_impl.cpp</text>
</a>
</g>
</g>
<!-- Node3&#45;&gt;Node6 -->
<g id="edge3" class="edge"><title>Node3&#45;&gt;Node6</title>
<path fill="none" stroke="midnightblue" d="M345,-68.2965C345,-59.3009 345,-49.6532 345,-41.5056"/>
<polygon fill="midnightblue" stroke="midnightblue" points="341.5,-68.4281 345,-78.4281 348.5,-68.4281 341.5,-68.4281"/>
</g>
<!-- Node7 -->
<g id="node5" class="node"><title>Node7</title>
<g id="a_node5"><a xlink:href="gui__event__queue_8cpp.xhtml" target="_top" xlink:title=" ">
<polygon fill="white" stroke="black" points="418.5,-6 418.5,-36 557.5,-36 557.5,-6 418.5,-6"/>
<text text-anchor="start" x="426.5" y="-24" font-family="Helvetica,sans-Serif" font-size="10.00">libopenage/gui/guisys</text>
<text text-anchor="middle" x="488" y="-13" font-family="Helvetica,sans-Serif" font-size="10.00">/public/gui_event_queue.cpp</text>
</a>
</g>
</g>
<!-- Node3&#45;&gt;Node7 -->
<g id="edge4" class="edge"><title>Node3&#45;&gt;Node7</title>
<path fill="none" stroke="midnightblue" d="M390.83,-73.643C414.061,-61.2962 441.462,-46.7336 461.234,-36.2254"/>
<polygon fill="midnightblue" stroke="midnightblue" points="389.014,-70.6444 381.826,-78.4281 392.299,-76.8256 389.014,-70.6444"/>
</g>
<!-- Node8 -->
<g id="node6" class="node"><title>Node8</title>
<g id="a_node6"><a xlink:href="gui__game__spec__image__provider__impl_8cpp.xhtml" target="_top" xlink:title=" ">
<polygon fill="white" stroke="black" points="576,-0.5 576,-41.5 726,-41.5 726,-0.5 576,-0.5"/>
<text text-anchor="start" x="584" y="-29.5" font-family="Helvetica,sans-Serif" font-size="10.00">libopenage/gui/integration</text>
<text text-anchor="start" x="584" y="-18.5" font-family="Helvetica,sans-Serif" font-size="10.00">/private/gui_game_spec_image</text>
<text text-anchor="middle" x="651" y="-7.5" font-family="Helvetica,sans-Serif" font-size="10.00">_provider_impl.cpp</text>
</a>
</g>
</g>
<!-- Node3&#45;&gt;Node8 -->
<g id="edge5" class="edge"><title>Node3&#45;&gt;Node8</title>
<path fill="none" stroke="midnightblue" d="M416.168,-80.3242C464.067,-68.4279 527.126,-52.766 575.838,-40.6677"/>
<polygon fill="midnightblue" stroke="midnightblue" points="415.05,-76.9956 406.188,-82.8029 416.737,-83.7892 415.05,-76.9956"/>
</g>
</g>
</svg>
