<?xml version="1.0" encoding="UTF-8" standalone="no"?>
<!DOCTYPE svg PUBLIC "-//W3C//DTD SVG 1.1//EN"
 "http://www.w3.org/Graphics/SVG/1.1/DTD/svg11.dtd">
<!-- Generated by graphviz version 2.38.0 (20140413.2041)
 -->
<!-- Title: C:/Users/Jameson/Documents/git&#45;projects/openage/libopenage/gui/integration/private/gui_filled_texture_handles.h Pages: 1 -->
<svg width="388pt" height="117pt"
 viewBox="0.00 0.00 388.00 117.00" xmlns="http://www.w3.org/2000/svg" xmlns:xlink="http://www.w3.org/1999/xlink">
<g id="graph0" class="graph" transform="scale(1 1) rotate(0) translate(4 113)">
<title>C:/Users/Jameson/Documents/git&#45;projects/openage/libopenage/gui/integration/private/gui_filled_texture_handles.h</title>
<polygon fill="white" stroke="none" points="-4,4 -4,-113 384,-113 384,4 -4,4"/>
<!-- Node0 -->
<g id="node1" class="node"><title>Node0</title>
<g id="a_node1"><a xlink:title=" ">
<polygon fill="#bfbfbf" stroke="black" points="105.5,-56.5 105.5,-108.5 262.5,-108.5 262.5,-56.5 105.5,-56.5"/>
<text text-anchor="start" x="113.5" y="-96.5" font-family="Helvetica,sans-Serif" font-size="10.00">C:/Users/Jameson/Documents</text>
<text text-anchor="start" x="113.5" y="-85.5" font-family="Helvetica,sans-Serif" font-size="10.00">/git&#45;projects/openage/libopenage</text>
<text text-anchor="start" x="113.5" y="-74.5" font-family="Helvetica,sans-Serif" font-size="10.00">/gui/integration/private/gui</text>
<text text-anchor="middle" x="184" y="-63.5" font-family="Helvetica,sans-Serif" font-size="10.00">_filled_texture_handles.h</text>
</a>
</g>
</g>
<!-- Node1 -->
<g id="node2" class="node"><title>Node1</title>
<g id="a_node2"><a xlink:title=" ">
<polygon fill="white" stroke="#bfbfbf" points="0,-0.5 0,-19.5 42,-19.5 42,-0.5 0,-0.5"/>
<text text-anchor="middle" x="21" y="-7.5" font-family="Helvetica,sans-Serif" font-size="10.00">vector</text>
</a>
</g>
</g>
<!-- Node0&#45;&gt;Node1 -->
<g id="edge1" class="edge"><title>Node0&#45;&gt;Node1</title>
<path fill="none" stroke="midnightblue" d="M126.073,-56.4458C100.321,-45.3075 71.1328,-32.6832 50.0666,-23.5718"/>
<polygon fill="midnightblue" stroke="midnightblue" points="51.2826,-20.2844 40.7148,-19.527 48.5037,-26.7092 51.2826,-20.2844"/>
</g>
<!-- Node2 -->
<g id="node3" class="node"><title>Node2</title>
<g id="a_node3"><a xlink:title=" ">
<polygon fill="white" stroke="#bfbfbf" points="60,-0.5 60,-19.5 104,-19.5 104,-0.5 60,-0.5"/>
<text text-anchor="middle" x="82" y="-7.5" font-family="Helvetica,sans-Serif" font-size="10.00">mutex</text>
</a>
</g>
</g>
<!-- Node0&#45;&gt;Node2 -->
<g id="edge2" class="edge"><title>Node0&#45;&gt;Node2</title>
<path fill="none" stroke="midnightblue" d="M147.751,-56.4458C132.822,-46.1272 116.048,-34.5333 103.179,-25.6384"/>
<polygon fill="midnightblue" stroke="midnightblue" points="104.797,-22.5021 94.5807,-19.6955 100.817,-28.2605 104.797,-22.5021"/>
</g>
<!-- Node3 -->
<g id="node4" class="node"><title>Node3</title>
<g id="a_node4"><a xlink:title=" ">
<polygon fill="white" stroke="#bfbfbf" points="122,-0.5 122,-19.5 174,-19.5 174,-0.5 122,-0.5"/>
<text text-anchor="middle" x="148" y="-7.5" font-family="Helvetica,sans-Serif" font-size="10.00">memory</text>
</a>
</g>
</g>
<!-- Node0&#45;&gt;Node3 -->
<g id="edge3" class="edge"><title>Node0&#45;&gt;Node3</title>
<path fill="none" stroke="midnightblue" d="M171.206,-56.4458C166.551,-47.3294 161.388,-37.2174 157.115,-28.8509"/>
<polygon fill="midnightblue" stroke="midnightblue" points="160.105,-27.0098 152.44,-19.6955 153.871,-30.1933 160.105,-27.0098"/>
</g>
<!-- Node4 -->
<g id="node5" class="node"><title>Node4</title>
<g id="a_node5"><a xlink:title=" ">
<polygon fill="white" stroke="#bfbfbf" points="192,-0.5 192,-19.5 250,-19.5 250,-0.5 192,-0.5"/>
<text text-anchor="middle" x="221" y="-7.5" font-family="Helvetica,sans-Serif" font-size="10.00">functional</text>
</a>
</g>
</g>
<!-- Node0&#45;&gt;Node4 -->
<g id="edge4" class="edge"><title>Node0&#45;&gt;Node4</title>
<path fill="none" stroke="midnightblue" d="M197.149,-56.4458C201.986,-47.2292 207.357,-36.9951 211.776,-28.5757"/>
<polygon fill="midnightblue" stroke="midnightblue" points="214.888,-30.1766 216.436,-19.6955 208.69,-26.9236 214.888,-30.1766"/>
</g>
<!-- Node5 -->
<g id="node6" class="node"><title>Node5</title>
<g id="a_node6"><a xlink:title=" ">
<polygon fill="white" stroke="#bfbfbf" points="268,-0.5 268,-19.5 318,-19.5 318,-0.5 268,-0.5"/>
<text text-anchor="middle" x="293" y="-7.5" font-family="Helvetica,sans-Serif" font-size="10.00">QString</text>
</a>
</g>
</g>
<!-- Node0&#45;&gt;Node5 -->
<g id="edge5" class="edge"><title>Node0&#45;&gt;Node5</title>
<path fill="none" stroke="midnightblue" d="M222.736,-56.4458C238.944,-45.9627 257.187,-34.1633 271.022,-25.2151"/>
<polygon fill="midnightblue" stroke="midnightblue" points="273.321,-27.8968 279.816,-19.527 269.519,-22.0191 273.321,-27.8968"/>
</g>
<!-- Node6 -->
<g id="node7" class="node"><title>Node6</title>
<g id="a_node7"><a xlink:title=" ">
<polygon fill="white" stroke="#bfbfbf" points="336,-0.5 336,-19.5 380,-19.5 380,-0.5 336,-0.5"/>
<text text-anchor="middle" x="358" y="-7.5" font-family="Helvetica,sans-Serif" font-size="10.00">QSize</text>
</a>
</g>
</g>
<!-- Node0&#45;&gt;Node6 -->
<g id="edge6" class="edge"><title>Node0&#45;&gt;Node6</title>
<path fill="none" stroke="midnightblue" d="M245.836,-56.4458C273.575,-45.2067 305.048,-32.4546 327.58,-23.3253"/>
<polygon fill="midnightblue" stroke="midnightblue" points="329.001,-26.5261 336.955,-19.527 326.372,-20.0384 329.001,-26.5261"/>
</g>
</g>
</svg>
