<?xml version="1.0" encoding="UTF-8" standalone="no"?>
<!DOCTYPE svg PUBLIC "-//W3C//DTD SVG 1.1//EN"
 "http://www.w3.org/Graphics/SVG/1.1/DTD/svg11.dtd">
<!-- Generated by graphviz version 2.38.0 (20140413.2041)
 -->
<!-- Title: C:/Users/Jameson/Documents/git&#45;projects/openage/libopenage/gui/guisys/private/gui_engine_impl.cpp Pages: 1 -->
<svg width="1415pt" height="307pt"
 viewBox="0.00 0.00 1414.60 307.00" xmlns="http://www.w3.org/2000/svg" xmlns:xlink="http://www.w3.org/1999/xlink">
<g id="graph0" class="graph" transform="scale(1 1) rotate(0) translate(4 303)">
<title>C:/Users/Jameson/Documents/git&#45;projects/openage/libopenage/gui/guisys/private/gui_engine_impl.cpp</title>
<polygon fill="white" stroke="none" points="-4,4 -4,-303 1410.6,-303 1410.6,4 -4,4"/>
<!-- Node0 -->
<g id="node1" class="node"><title>Node0</title>
<g id="a_node1"><a xlink:title=" ">
<polygon fill="#bfbfbf" stroke="black" points="577.605,-257.5 577.605,-298.5 763.605,-298.5 763.605,-257.5 577.605,-257.5"/>
<text text-anchor="start" x="585.605" y="-286.5" font-family="Helvetica,sans-Serif" font-size="10.00">C:/Users/Jameson/Documents</text>
<text text-anchor="start" x="585.605" y="-275.5" font-family="Helvetica,sans-Serif" font-size="10.00">/git&#45;projects/openage/libopenage</text>
<text text-anchor="middle" x="670.605" y="-264.5" font-family="Helvetica,sans-Serif" font-size="10.00">/gui/guisys/private/gui_engine_impl.cpp</text>
</a>
</g>
</g>
<!-- Node1 -->
<g id="node2" class="node"><title>Node1</title>
<g id="a_node2"><a xlink:href="gui__engine__impl_8h.xhtml" target="_top" xlink:title=" ">
<polygon fill="white" stroke="black" points="446.105,-201.5 446.105,-220.5 541.105,-220.5 541.105,-201.5 446.105,-201.5"/>
<text text-anchor="middle" x="493.605" y="-208.5" font-family="Helvetica,sans-Serif" font-size="10.00">gui_engine_impl.h</text>
</a>
</g>
</g>
<!-- Node0&#45;&gt;Node1 -->
<g id="edge1" class="edge"><title>Node0&#45;&gt;Node1</title>
<path fill="none" stroke="midnightblue" d="M617.499,-257.498C588.013,-246.67 552.251,-233.537 526.744,-224.17"/>
<polygon fill="midnightblue" stroke="midnightblue" points="527.76,-220.814 517.166,-220.652 525.347,-227.385 527.76,-220.814"/>
</g>
<!-- Node6 -->
<g id="node7" class="node"><title>Node6</title>
<g id="a_node7"><a xlink:href="gui__image__provider__impl_8h.xhtml" target="_top" xlink:title=" ">
<polygon fill="white" stroke="black" points="142.105,-56.5 142.105,-86.5 243.105,-86.5 243.105,-56.5 142.105,-56.5"/>
<text text-anchor="start" x="150.105" y="-74.5" font-family="Helvetica,sans-Serif" font-size="10.00">../private/gui_image</text>
<text text-anchor="middle" x="192.605" y="-63.5" font-family="Helvetica,sans-Serif" font-size="10.00">_provider_impl.h</text>
</a>
</g>
</g>
<!-- Node0&#45;&gt;Node6 -->
<g id="edge22" class="edge"><title>Node0&#45;&gt;Node6</title>
<path fill="none" stroke="midnightblue" d="M577.319,-267.191C492.426,-254.614 366.677,-226.535 274.605,-165 246.659,-146.323 222.214,-115.875 207.447,-95.0509"/>
<polygon fill="midnightblue" stroke="midnightblue" points="210.294,-93.014 201.729,-86.7778 204.536,-96.9941 210.294,-93.014"/>
</g>
<!-- Node12 -->
<g id="node13" class="node"><title>Node12</title>
<g id="a_node13"><a xlink:title=" ">
<polygon fill="white" stroke="#bfbfbf" points="718.105,-201.5 718.105,-220.5 767.105,-220.5 767.105,-201.5 718.105,-201.5"/>
<text text-anchor="middle" x="742.605" y="-208.5" font-family="Helvetica,sans-Serif" font-size="10.00">cassert</text>
</a>
</g>
</g>
<!-- Node0&#45;&gt;Node12 -->
<g id="edge15" class="edge"><title>Node0&#45;&gt;Node12</title>
<path fill="none" stroke="midnightblue" d="M692.207,-257.498C702.822,-247.915 715.435,-236.528 725.388,-227.543"/>
<polygon fill="midnightblue" stroke="midnightblue" points="727.943,-229.952 733.021,-220.652 723.252,-224.756 727.943,-229.952"/>
</g>
<!-- Node13 -->
<g id="node14" class="node"><title>Node13</title>
<g id="a_node14"><a xlink:title=" ">
<polygon fill="white" stroke="#bfbfbf" points="785.605,-201.5 785.605,-220.5 877.605,-220.5 877.605,-201.5 785.605,-201.5"/>
<text text-anchor="middle" x="831.605" y="-208.5" font-family="Helvetica,sans-Serif" font-size="10.00">QCoreApplication</text>
</a>
</g>
</g>
<!-- Node0&#45;&gt;Node13 -->
<g id="edge16" class="edge"><title>Node0&#45;&gt;Node13</title>
<path fill="none" stroke="midnightblue" d="M718.91,-257.498C745.493,-246.766 777.684,-233.769 800.844,-224.419"/>
<polygon fill="midnightblue" stroke="midnightblue" points="802.211,-227.642 810.173,-220.652 799.59,-221.151 802.211,-227.642"/>
</g>
<!-- Node14 -->
<g id="node15" class="node"><title>Node14</title>
<g id="a_node15"><a xlink:title=" ">
<polygon fill="white" stroke="#bfbfbf" points="641.605,-62 641.605,-81 725.605,-81 725.605,-62 641.605,-62"/>
<text text-anchor="middle" x="683.605" y="-69" font-family="Helvetica,sans-Serif" font-size="10.00">QQuickWindow</text>
</a>
</g>
</g>
<!-- Node0&#45;&gt;Node14 -->
<g id="edge17" class="edge"><title>Node0&#45;&gt;Node14</title>
<path fill="none" stroke="midnightblue" d="M671.851,-257.392C674.351,-218.072 679.946,-130.055 682.406,-91.3614"/>
<polygon fill="midnightblue" stroke="midnightblue" points="685.92,-91.2469 683.062,-81.0449 678.934,-90.8027 685.92,-91.2469"/>
</g>
<!-- Node15 -->
<g id="node16" class="node"><title>Node15</title>
<g id="a_node16"><a xlink:title=" ">
<polygon fill="white" stroke="#bfbfbf" points="895.605,-201.5 895.605,-220.5 947.605,-220.5 947.605,-201.5 895.605,-201.5"/>
<text text-anchor="middle" x="921.605" y="-208.5" font-family="Helvetica,sans-Serif" font-size="10.00">QDebug</text>
</a>
</g>
</g>
<!-- Node0&#45;&gt;Node15 -->
<g id="edge18" class="edge"><title>Node0&#45;&gt;Node15</title>
<path fill="none" stroke="midnightblue" d="M745.913,-257.498C792.044,-245.552 849.008,-230.8 885.327,-221.395"/>
<polygon fill="midnightblue" stroke="midnightblue" points="886.645,-224.669 895.448,-218.774 884.89,-217.892 886.645,-224.669"/>
</g>
<!-- Node16 -->
<g id="node17" class="node"><title>Node16</title>
<g id="a_node17"><a xlink:href="gui__engine_8h.xhtml" target="_top" xlink:title=" ">
<polygon fill="white" stroke="black" points="15.1048,-62 15.1048,-81 124.105,-81 124.105,-62 15.1048,-62"/>
<text text-anchor="middle" x="69.6048" y="-69" font-family="Helvetica,sans-Serif" font-size="10.00">../public/gui_engine.h</text>
</a>
</g>
</g>
<!-- Node0&#45;&gt;Node16 -->
<g id="edge19" class="edge"><title>Node0&#45;&gt;Node16</title>
<path fill="none" stroke="midnightblue" d="M577.501,-268.452C510.439,-260.558 418.438,-246.134 340.605,-221 286.886,-203.653 276.292,-191.791 226.605,-165 177.859,-138.716 122.367,-105.126 92.1476,-86.5122"/>
<polygon fill="midnightblue" stroke="midnightblue" points="93.6116,-83.3026 83.2649,-81.0232 89.9319,-89.2574 93.6116,-83.3026"/>
</g>
<!-- Node17 -->
<g id="node18" class="node"><title>Node17</title>
<g id="a_node18"><a xlink:href="gui__renderer__impl_8h.xhtml" target="_top" xlink:title=" ">
<polygon fill="white" stroke="black" points="922.105,-134.5 922.105,-153.5 1023.1,-153.5 1023.1,-134.5 922.105,-134.5"/>
<text text-anchor="middle" x="972.605" y="-141.5" font-family="Helvetica,sans-Serif" font-size="10.00">gui_renderer_impl.h</text>
</a>
</g>
</g>
<!-- Node0&#45;&gt;Node17 -->
<g id="edge23" class="edge"><title>Node0&#45;&gt;Node17</title>
<path fill="none" stroke="midnightblue" d="M675.235,-257.375C680.4,-239.896 690.515,-214.985 708.605,-201 739.809,-176.878 844.15,-160.264 911.936,-151.715"/>
<polygon fill="midnightblue" stroke="midnightblue" points="912.576,-155.162 922.071,-150.462 911.718,-148.215 912.576,-155.162"/>
</g>
<!-- Node2 -->
<g id="node3" class="node"><title>Node2</title>
<g id="a_node3"><a xlink:title=" ">
<polygon fill="white" stroke="#bfbfbf" points="461.605,-0.5 461.605,-19.5 513.605,-19.5 513.605,-0.5 461.605,-0.5"/>
<text text-anchor="middle" x="487.605" y="-7.5" font-family="Helvetica,sans-Serif" font-size="10.00">memory</text>
</a>
</g>
</g>
<!-- Node1&#45;&gt;Node2 -->
<g id="edge2" class="edge"><title>Node1&#45;&gt;Node2</title>
<path fill="none" stroke="midnightblue" d="M509.554,-201.422C523.189,-193.447 542.61,-180.486 555.605,-165 588.583,-125.699 621.92,-98.7823 593.605,-56 578.157,-32.6597 547.904,-21.3896 523.658,-15.9683"/>
<polygon fill="midnightblue" stroke="midnightblue" points="524.187,-12.505 513.696,-13.9849 522.82,-19.3702 524.187,-12.505"/>
</g>
<!-- Node3 -->
<g id="node4" class="node"><title>Node3</title>
<g id="a_node4"><a xlink:title=" ">
<polygon fill="white" stroke="#bfbfbf" points="48.6048,-0.5 48.6048,-19.5 90.6048,-19.5 90.6048,-0.5 48.6048,-0.5"/>
<text text-anchor="middle" x="69.6048" y="-7.5" font-family="Helvetica,sans-Serif" font-size="10.00">vector</text>
</a>
</g>
</g>
<!-- Node1&#45;&gt;Node3 -->
<g id="edge3" class="edge"><title>Node1&#45;&gt;Node3</title>
<path fill="none" stroke="midnightblue" d="M445.951,-205.441C333.835,-193.613 58.8044,-157.817 5.6048,-87 -2.67052,-75.9843 -0.745117,-68.2273 5.6048,-56 12.8083,-42.1292 26.4667,-31.6361 39.3218,-24.2866"/>
<polygon fill="midnightblue" stroke="midnightblue" points="41.2189,-27.2434 48.4366,-19.4874 37.9575,-21.0495 41.2189,-27.2434"/>
</g>
<!-- Node4 -->
<g id="node5" class="node"><title>Node4</title>
<g id="a_node5"><a xlink:href="qml__engine__with__singleton__items__info_8h.xhtml" target="_top" xlink:title=" ">
<polygon fill="white" stroke="black" points="284.105,-123.5 284.105,-164.5 397.105,-164.5 397.105,-123.5 284.105,-123.5"/>
<text text-anchor="start" x="292.105" y="-152.5" font-family="Helvetica,sans-Serif" font-size="10.00">../link/qml_engine</text>
<text text-anchor="start" x="292.105" y="-141.5" font-family="Helvetica,sans-Serif" font-size="10.00">_with_singleton_items</text>
<text text-anchor="middle" x="340.605" y="-130.5" font-family="Helvetica,sans-Serif" font-size="10.00">_info.h</text>
</a>
</g>
</g>
<!-- Node1&#45;&gt;Node4 -->
<g id="edge4" class="edge"><title>Node1&#45;&gt;Node4</title>
<path fill="none" stroke="midnightblue" d="M473.288,-201.369C453.655,-193.028 423.019,-180.013 396.131,-168.589"/>
<polygon fill="midnightblue" stroke="midnightblue" points="397.372,-165.314 386.8,-164.625 394.635,-171.757 397.372,-165.314"/>
</g>
<!-- Node8 -->
<g id="node9" class="node"><title>Node8</title>
<g id="a_node9"><a xlink:href="recursive__directory__watcher_8h.xhtml" target="_top" xlink:title=" ">
<polygon fill="white" stroke="black" points="440.105,-129 440.105,-159 547.105,-159 547.105,-129 440.105,-129"/>
<text text-anchor="start" x="448.105" y="-147" font-family="Helvetica,sans-Serif" font-size="10.00">livereload/recursive</text>
<text text-anchor="middle" x="493.605" y="-136" font-family="Helvetica,sans-Serif" font-size="10.00">_directory_watcher.h</text>
</a>
</g>
</g>
<!-- Node1&#45;&gt;Node8 -->
<g id="edge11" class="edge"><title>Node1&#45;&gt;Node8</title>
<path fill="none" stroke="midnightblue" d="M493.605,-201.234C493.605,-193.041 493.605,-180.423 493.605,-169.214"/>
<polygon fill="midnightblue" stroke="midnightblue" points="497.105,-169.089 493.605,-159.089 490.105,-169.089 497.105,-169.089"/>
</g>
<!-- Node4&#45;&gt;Node2 -->
<g id="edge5" class="edge"><title>Node4&#45;&gt;Node2</title>
<path fill="none" stroke="midnightblue" d="M345.197,-123.276C350.644,-103.857 361.49,-74.4966 380.605,-56 400.158,-37.0784 428.85,-25.5984 451.602,-18.9736"/>
<polygon fill="midnightblue" stroke="midnightblue" points="452.534,-22.3474 461.263,-16.3432 450.695,-15.5932 452.534,-22.3474"/>
</g>
<!-- Node5 -->
<g id="node6" class="node"><title>Node5</title>
<g id="a_node6"><a xlink:title=" ">
<polygon fill="white" stroke="#bfbfbf" points="261.605,-62 261.605,-81 333.605,-81 333.605,-62 261.605,-62"/>
<text text-anchor="middle" x="297.605" y="-69" font-family="Helvetica,sans-Serif" font-size="10.00">QQmlEngine</text>
</a>
</g>
</g>
<!-- Node4&#45;&gt;Node5 -->
<g id="edge6" class="edge"><title>Node4&#45;&gt;Node5</title>
<path fill="none" stroke="midnightblue" d="M328.627,-123.362C322.224,-112.864 314.409,-100.052 308.225,-89.9124"/>
<polygon fill="midnightblue" stroke="midnightblue" points="311.09,-87.8882 302.895,-81.1734 305.114,-91.5332 311.09,-87.8882"/>
</g>
<!-- Node4&#45;&gt;Node6 -->
<g id="edge7" class="edge"><title>Node4&#45;&gt;Node6</title>
<path fill="none" stroke="midnightblue" d="M299.379,-123.362C278.165,-113.257 252.45,-101.007 231.571,-91.0615"/>
<polygon fill="midnightblue" stroke="midnightblue" points="232.885,-87.8108 222.352,-86.67 229.875,-94.1304 232.885,-87.8108"/>
</g>
<!-- Node6&#45;&gt;Node2 -->
<g id="edge8" class="edge"><title>Node6&#45;&gt;Node2</title>
<path fill="none" stroke="midnightblue" d="M243.305,-58.0669C246.448,-57.352 249.567,-56.6575 252.605,-56 322.663,-40.836 405.048,-25.6689 451.31,-17.3927"/>
<polygon fill="midnightblue" stroke="midnightblue" points="452.21,-20.7876 461.441,-15.5874 450.982,-13.8962 452.21,-20.7876"/>
</g>
<!-- Node6&#45;&gt;Node3 -->
<g id="edge9" class="edge"><title>Node6&#45;&gt;Node3</title>
<path fill="none" stroke="midnightblue" d="M163.456,-56.3993C143.187,-46.5945 116.364,-33.6194 96.5862,-24.052"/>
<polygon fill="midnightblue" stroke="midnightblue" points="98.0286,-20.8618 87.5024,-19.6578 94.9803,-27.1632 98.0286,-20.8618"/>
</g>
<!-- Node7 -->
<g id="node8" class="node"><title>Node7</title>
<g id="a_node8"><a xlink:title=" ">
<polygon fill="white" stroke="#bfbfbf" points="137.605,-0.5 137.605,-19.5 247.605,-19.5 247.605,-0.5 137.605,-0.5"/>
<text text-anchor="middle" x="192.605" y="-7.5" font-family="Helvetica,sans-Serif" font-size="10.00">QQuickImageProvider</text>
</a>
</g>
</g>
<!-- Node6&#45;&gt;Node7 -->
<g id="edge10" class="edge"><title>Node6&#45;&gt;Node7</title>
<path fill="none" stroke="midnightblue" d="M192.605,-56.3993C192.605,-48.4664 192.605,-38.458 192.605,-29.8583"/>
<polygon fill="midnightblue" stroke="midnightblue" points="196.105,-29.6577 192.605,-19.6578 189.105,-29.6578 196.105,-29.6577"/>
</g>
<!-- Node9 -->
<g id="node10" class="node"><title>Node9</title>
<g id="a_node10"><a xlink:title=" ">
<polygon fill="white" stroke="#bfbfbf" points="473.105,-62 473.105,-81 514.105,-81 514.105,-62 473.105,-62"/>
<text text-anchor="middle" x="493.605" y="-69" font-family="Helvetica,sans-Serif" font-size="10.00">future</text>
</a>
</g>
</g>
<!-- Node8&#45;&gt;Node9 -->
<g id="edge12" class="edge"><title>Node8&#45;&gt;Node9</title>
<path fill="none" stroke="midnightblue" d="M493.605,-128.733C493.605,-118.001 493.605,-103.187 493.605,-91.459"/>
<polygon fill="midnightblue" stroke="midnightblue" points="497.105,-91.3931 493.605,-81.3932 490.105,-91.3932 497.105,-91.3931"/>
</g>
<!-- Node10 -->
<g id="node11" class="node"><title>Node10</title>
<g id="a_node11"><a xlink:title=" ">
<polygon fill="white" stroke="#bfbfbf" points="532.105,-62 532.105,-81 585.105,-81 585.105,-62 532.105,-62"/>
<text text-anchor="middle" x="558.605" y="-69" font-family="Helvetica,sans-Serif" font-size="10.00">QObject</text>
</a>
</g>
</g>
<!-- Node8&#45;&gt;Node10 -->
<g id="edge13" class="edge"><title>Node8&#45;&gt;Node10</title>
<path fill="none" stroke="midnightblue" d="M506.759,-128.733C517.368,-117.226 532.302,-101.028 543.419,-88.9707"/>
<polygon fill="midnightblue" stroke="midnightblue" points="546.2,-91.1177 550.405,-81.3932 541.054,-86.3727 546.2,-91.1177"/>
</g>
<!-- Node11 -->
<g id="node12" class="node"><title>Node11</title>
<g id="a_node12"><a xlink:title=" ">
<polygon fill="white" stroke="#bfbfbf" points="390.105,-62 390.105,-81 455.105,-81 455.105,-62 390.105,-62"/>
<text text-anchor="middle" x="422.605" y="-69" font-family="Helvetica,sans-Serif" font-size="10.00">QStringList</text>
</a>
</g>
</g>
<!-- Node8&#45;&gt;Node11 -->
<g id="edge14" class="edge"><title>Node8&#45;&gt;Node11</title>
<path fill="none" stroke="midnightblue" d="M479.237,-128.733C467.537,-117.115 451.021,-100.716 438.843,-88.6241"/>
<polygon fill="midnightblue" stroke="midnightblue" points="441.123,-85.9556 431.561,-81.3932 436.191,-90.9228 441.123,-85.9556"/>
</g>
<!-- Node16&#45;&gt;Node2 -->
<g id="edge20" class="edge"><title>Node16&#45;&gt;Node2</title>
<path fill="none" stroke="midnightblue" d="M103.809,-61.9719C113.112,-59.832 123.212,-57.6718 132.605,-56 248.192,-35.4257 386.58,-20.705 451.117,-14.4074"/>
<polygon fill="midnightblue" stroke="midnightblue" points="451.575,-17.8796 461.193,-13.4344 450.902,-10.912 451.575,-17.8796"/>
</g>
<!-- Node16&#45;&gt;Node3 -->
<g id="edge21" class="edge"><title>Node16&#45;&gt;Node3</title>
<path fill="none" stroke="midnightblue" d="M69.6048,-61.9751C69.6048,-53.5803 69.6048,-40.4806 69.6048,-29.6631"/>
<polygon fill="midnightblue" stroke="midnightblue" points="73.1049,-29.5091 69.6048,-19.5091 66.1049,-29.5091 73.1049,-29.5091"/>
</g>
<!-- Node17&#45;&gt;Node2 -->
<g id="edge24" class="edge"><title>Node17&#45;&gt;Node2</title>
<path fill="none" stroke="midnightblue" d="M1023.16,-136.541C1090.45,-126.03 1196.28,-101.656 1153.6,-56 1110.41,-9.78745 656.444,-9.66922 523.804,-10.6347"/>
<polygon fill="midnightblue" stroke="midnightblue" points="523.721,-7.13512 513.749,-10.7146 523.777,-14.1349 523.721,-7.13512"/>
</g>
<!-- Node17&#45;&gt;Node10 -->
<g id="edge29" class="edge"><title>Node17&#45;&gt;Node10</title>
<path fill="none" stroke="midnightblue" d="M921.832,-135.129C855.302,-124.702 735.045,-105.468 632.605,-87 620.448,-84.8083 607.199,-82.2623 595.315,-79.921"/>
<polygon fill="midnightblue" stroke="midnightblue" points="595.775,-76.444 585.285,-77.9302 594.412,-83.3101 595.775,-76.444"/>
</g>
<!-- Node17&#45;&gt;Node14 -->
<g id="edge30" class="edge"><title>Node17&#45;&gt;Node14</title>
<path fill="none" stroke="midnightblue" d="M933.72,-134.427C886.485,-123.88 804.45,-105.136 734.605,-87 730.707,-85.9879 726.652,-84.8982 722.607,-83.787"/>
<polygon fill="midnightblue" stroke="midnightblue" points="723.242,-80.3306 712.669,-81.0126 721.36,-87.0728 723.242,-80.3306"/>
</g>
<!-- Node18 -->
<g id="node19" class="node"><title>Node18</title>
<g id="a_node19"><a xlink:title=" ">
<polygon fill="white" stroke="#bfbfbf" points="1360.6,-62 1360.6,-81 1406.6,-81 1406.6,-62 1360.6,-62"/>
<text text-anchor="middle" x="1383.6" y="-69" font-family="Helvetica,sans-Serif" font-size="10.00">atomic</text>
</a>
</g>
</g>
<!-- Node17&#45;&gt;Node18 -->
<g id="edge25" class="edge"><title>Node17&#45;&gt;Node18</title>
<path fill="none" stroke="midnightblue" d="M1023.25,-139.054C1095.84,-132.583 1233.22,-117.291 1346.6,-87 1349.26,-86.2899 1351.99,-85.4493 1354.7,-84.5359"/>
<polygon fill="midnightblue" stroke="midnightblue" points="1356.11,-87.746 1364.29,-81.0132 1353.7,-81.1751 1356.11,-87.746"/>
</g>
<!-- Node19 -->
<g id="node20" class="node"><title>Node19</title>
<g id="a_node20"><a xlink:title=" ">
<polygon fill="white" stroke="#bfbfbf" points="743.605,-62 743.605,-81 787.605,-81 787.605,-62 743.605,-62"/>
<text text-anchor="middle" x="765.605" y="-69" font-family="Helvetica,sans-Serif" font-size="10.00">mutex</text>
</a>
</g>
</g>
<!-- Node17&#45;&gt;Node19 -->
<g id="edge26" class="edge"><title>Node17&#45;&gt;Node19</title>
<path fill="none" stroke="midnightblue" d="M941.662,-134.472C906.178,-124.391 846.476,-106.503 796.605,-87 795.187,-86.4455 793.742,-85.8567 792.29,-85.2461"/>
<polygon fill="midnightblue" stroke="midnightblue" points="793.371,-81.8964 782.812,-81.0307 790.527,-88.2924 793.371,-81.8964"/>
</g>
<!-- Node20 -->
<g id="node21" class="node"><title>Node20</title>
<g id="a_node21"><a xlink:title=" ">
<polygon fill="white" stroke="#bfbfbf" points="806.105,-62 806.105,-81 899.105,-81 899.105,-62 806.105,-62"/>
<text text-anchor="middle" x="852.605" y="-69" font-family="Helvetica,sans-Serif" font-size="10.00">condition_variable</text>
</a>
</g>
</g>
<!-- Node17&#45;&gt;Node20 -->
<g id="edge27" class="edge"><title>Node17&#45;&gt;Node20</title>
<path fill="none" stroke="midnightblue" d="M957.89,-134.355C937.558,-122.41 900.639,-100.72 876.368,-86.4608"/>
<polygon fill="midnightblue" stroke="midnightblue" points="877.835,-83.2632 867.44,-81.2154 874.289,-89.2987 877.835,-83.2632"/>
</g>
<!-- Node21 -->
<g id="node22" class="node"><title>Node21</title>
<g id="a_node22"><a xlink:title=" ">
<polygon fill="white" stroke="#bfbfbf" points="1265.1,-0.5 1265.1,-19.5 1320.1,-19.5 1320.1,-0.5 1265.1,-0.5"/>
<text text-anchor="middle" x="1292.6" y="-7.5" font-family="Helvetica,sans-Serif" font-size="10.00">QtGlobal</text>
</a>
</g>
</g>
<!-- Node17&#45;&gt;Node21 -->
<g id="edge28" class="edge"><title>Node17&#45;&gt;Node21</title>
<path fill="none" stroke="midnightblue" d="M1023.25,-142.372C1108.98,-140.118 1276.96,-130.158 1313.6,-87 1327.81,-70.2724 1315.99,-44.6916 1305.17,-27.9054"/>
<polygon fill="midnightblue" stroke="midnightblue" points="1307.99,-25.8366 1299.43,-19.5967 1302.23,-29.8142 1307.99,-25.8366"/>
</g>
<!-- Node22 -->
<g id="node23" class="node"><title>Node22</title>
<g id="a_node23"><a xlink:title=" ">
<polygon fill="white" stroke="#bfbfbf" points="917.105,-62 917.105,-81 1028.1,-81 1028.1,-62 917.105,-62"/>
<text text-anchor="middle" x="972.605" y="-69" font-family="Helvetica,sans-Serif" font-size="10.00">QQuickRenderControl</text>
</a>
</g>
</g>
<!-- Node17&#45;&gt;Node22 -->
<g id="edge31" class="edge"><title>Node17&#45;&gt;Node22</title>
<path fill="none" stroke="midnightblue" d="M972.605,-134.355C972.605,-123.679 972.605,-105.217 972.605,-91.2343"/>
<polygon fill="midnightblue" stroke="midnightblue" points="976.105,-91.2154 972.605,-81.2154 969.105,-91.2154 976.105,-91.2154"/>
</g>
<!-- Node23 -->
<g id="node24" class="node"><title>Node23</title>
<g id="a_node24"><a xlink:title=" ">
<polygon fill="white" stroke="#bfbfbf" points="1046.6,-62 1046.6,-81 1144.6,-81 1144.6,-62 1046.6,-62"/>
<text text-anchor="middle" x="1095.6" y="-69" font-family="Helvetica,sans-Serif" font-size="10.00">QOffscreenSurface</text>
</a>
</g>
</g>
<!-- Node17&#45;&gt;Node23 -->
<g id="edge32" class="edge"><title>Node17&#45;&gt;Node23</title>
<path fill="none" stroke="midnightblue" d="M987.687,-134.355C1008.62,-122.357 1046.71,-100.528 1071.58,-86.2719"/>
<polygon fill="midnightblue" stroke="midnightblue" points="1073.46,-89.2248 1080.4,-81.2154 1069.98,-83.1516 1073.46,-89.2248"/>
</g>
<!-- Node24 -->
<g id="node25" class="node"><title>Node24</title>
<g id="a_node25"><a xlink:href="gui__rendering__setup__routines_8h.xhtml" target="_top" xlink:title=" ">
<polygon fill="white" stroke="black" points="1200.6,-56.5 1200.6,-86.5 1304.6,-86.5 1304.6,-56.5 1200.6,-56.5"/>
<text text-anchor="start" x="1208.6" y="-74.5" font-family="Helvetica,sans-Serif" font-size="10.00">gui_rendering_setup</text>
<text text-anchor="middle" x="1252.6" y="-63.5" font-family="Helvetica,sans-Serif" font-size="10.00">_routines.h</text>
</a>
</g>
</g>
<!-- Node17&#45;&gt;Node24 -->
<g id="edge33" class="edge"><title>Node17&#45;&gt;Node24</title>
<path fill="none" stroke="midnightblue" d="M1006.38,-134.496C1051.87,-123.043 1133.64,-102.453 1190.41,-88.1592"/>
<polygon fill="midnightblue" stroke="midnightblue" points="1191.51,-91.4918 1200.35,-85.656 1189.8,-84.7037 1191.51,-91.4918"/>
</g>
<!-- Node24&#45;&gt;Node2 -->
<g id="edge34" class="edge"><title>Node24&#45;&gt;Node2</title>
<path fill="none" stroke="midnightblue" d="M1200.5,-58.286C1195.82,-57.421 1191.14,-56.6397 1186.6,-56 934.825,-20.4481 628.008,-12.9515 524.039,-11.3979"/>
<polygon fill="midnightblue" stroke="midnightblue" points="523.823,-7.89465 513.775,-11.2543 523.725,-14.894 523.823,-7.89465"/>
</g>
<!-- Node24&#45;&gt;Node21 -->
<g id="edge35" class="edge"><title>Node24&#45;&gt;Node21</title>
<path fill="none" stroke="midnightblue" d="M1262.08,-56.3993C1267.78,-47.9315 1275.06,-37.0991 1281.08,-28.1393"/>
<polygon fill="midnightblue" stroke="midnightblue" points="1284.11,-29.9095 1286.78,-19.6578 1278.3,-26.0041 1284.11,-29.9095"/>
</g>
</g>
</svg>
