<?xml version="1.0" encoding="UTF-8" standalone="no"?>
<!DOCTYPE svg PUBLIC "-//W3C//DTD SVG 1.1//EN"
 "http://www.w3.org/Graphics/SVG/1.1/DTD/svg11.dtd">
<!-- Generated by graphviz version 2.38.0 (20140413.2041)
 -->
<!-- Title: libopenage/gui/guisys/link/gui_list_model.h Pages: 1 -->
<svg width="436pt" height="240pt"
 viewBox="0.00 0.00 435.50 240.00" xmlns="http://www.w3.org/2000/svg" xmlns:xlink="http://www.w3.org/1999/xlink">
<g id="graph0" class="graph" transform="scale(1 1) rotate(0) translate(4 236)">
<title>libopenage/gui/guisys/link/gui_list_model.h</title>
<polygon fill="white" stroke="none" points="-4,4 -4,-236 431.5,-236 431.5,4 -4,4"/>
<!-- Node19 -->
<g id="node1" class="node"><title>Node19</title>
<g id="a_node1"><a xlink:title=" ">
<polygon fill="#bfbfbf" stroke="black" points="169,-201.5 169,-231.5 279,-231.5 279,-201.5 169,-201.5"/>
<text text-anchor="start" x="177" y="-219.5" font-family="Helvetica,sans-Serif" font-size="10.00">libopenage/gui/guisys</text>
<text text-anchor="middle" x="224" y="-208.5" font-family="Helvetica,sans-Serif" font-size="10.00">/link/gui_list_model.h</text>
</a>
</g>
</g>
<!-- Node20 -->
<g id="node2" class="node"><title>Node20</title>
<g id="a_node2"><a xlink:href="generator__link_8h.xhtml" target="_top" xlink:title=" ">
<polygon fill="white" stroke="black" points="116,-67.5 116,-97.5 238,-97.5 238,-67.5 116,-67.5"/>
<text text-anchor="start" x="124" y="-85.5" font-family="Helvetica,sans-Serif" font-size="10.00">libopenage/gui/generator</text>
<text text-anchor="middle" x="177" y="-74.5" font-family="Helvetica,sans-Serif" font-size="10.00">_link.h</text>
</a>
</g>
</g>
<!-- Node19&#45;&gt;Node20 -->
<g id="edge1" class="edge"><title>Node19&#45;&gt;Node20</title>
<path fill="none" stroke="midnightblue" d="M180.297,-196.111C167.924,-188.327 155.944,-178.046 149,-165 137.121,-142.68 153.128,-114.311 165.381,-97.6071"/>
<polygon fill="midnightblue" stroke="midnightblue" points="178.904,-199.35 189.31,-201.342 182.418,-193.295 178.904,-199.35"/>
</g>
<!-- Node24 -->
<g id="node6" class="node"><title>Node24</title>
<g id="a_node6"><a xlink:href="gui__item__list__model_8h.xhtml" target="_top" xlink:title=" ">
<polygon fill="white" stroke="black" points="158,-134.5 158,-164.5 290,-164.5 290,-134.5 158,-134.5"/>
<text text-anchor="start" x="166" y="-152.5" font-family="Helvetica,sans-Serif" font-size="10.00">libopenage/gui/guisys</text>
<text text-anchor="middle" x="224" y="-141.5" font-family="Helvetica,sans-Serif" font-size="10.00">/link/gui_item_list_model.h</text>
</a>
</g>
</g>
<!-- Node19&#45;&gt;Node24 -->
<g id="edge5" class="edge"><title>Node19&#45;&gt;Node24</title>
<path fill="none" stroke="midnightblue" d="M224,-191.108C224,-182.154 224,-172.323 224,-164.577"/>
<polygon fill="midnightblue" stroke="midnightblue" points="220.5,-191.396 224,-201.396 227.5,-191.396 220.5,-191.396"/>
</g>
<!-- Node25 -->
<g id="node7" class="node"><title>Node25</title>
<g id="a_node7"><a xlink:href="gui__list__model_8cpp.xhtml" target="_top" xlink:title=" ">
<polygon fill="white" stroke="black" points="308.5,-134.5 308.5,-164.5 427.5,-164.5 427.5,-134.5 308.5,-134.5"/>
<text text-anchor="start" x="316.5" y="-152.5" font-family="Helvetica,sans-Serif" font-size="10.00">libopenage/gui/guisys</text>
<text text-anchor="middle" x="368" y="-141.5" font-family="Helvetica,sans-Serif" font-size="10.00">/link/gui_list_model.cpp</text>
</a>
</g>
</g>
<!-- Node19&#45;&gt;Node25 -->
<g id="edge7" class="edge"><title>Node19&#45;&gt;Node25</title>
<path fill="none" stroke="midnightblue" d="M264.389,-197.269C287.325,-186.916 315.6,-174.153 336.815,-164.577"/>
<polygon fill="midnightblue" stroke="midnightblue" points="262.92,-194.092 255.246,-201.396 265.8,-200.472 262.92,-194.092"/>
</g>
<!-- Node21 -->
<g id="node3" class="node"><title>Node21</title>
<g id="a_node3"><a xlink:href="game__creator_8cpp.xhtml" target="_top" xlink:title=" ">
<polygon fill="white" stroke="black" points="0,-0.5 0,-30.5 106,-30.5 106,-0.5 0,-0.5"/>
<text text-anchor="start" x="8" y="-18.5" font-family="Helvetica,sans-Serif" font-size="10.00">libopenage/gui/game</text>
<text text-anchor="middle" x="53" y="-7.5" font-family="Helvetica,sans-Serif" font-size="10.00">_creator.cpp</text>
</a>
</g>
</g>
<!-- Node20&#45;&gt;Node21 -->
<g id="edge2" class="edge"><title>Node20&#45;&gt;Node21</title>
<path fill="none" stroke="midnightblue" d="M141.163,-62.7143C121.606,-52.4631 97.7976,-39.9826 79.8536,-30.5765"/>
<polygon fill="midnightblue" stroke="midnightblue" points="139.612,-65.8531 150.094,-67.396 142.862,-59.6533 139.612,-65.8531"/>
</g>
<!-- Node22 -->
<g id="node4" class="node"><title>Node22</title>
<g id="a_node4"><a xlink:href="game__saver_8cpp.xhtml" target="_top" xlink:title=" ">
<polygon fill="white" stroke="black" points="124,-0.5 124,-30.5 230,-30.5 230,-0.5 124,-0.5"/>
<text text-anchor="start" x="132" y="-18.5" font-family="Helvetica,sans-Serif" font-size="10.00">libopenage/gui/game</text>
<text text-anchor="middle" x="177" y="-7.5" font-family="Helvetica,sans-Serif" font-size="10.00">_saver.cpp</text>
</a>
</g>
</g>
<!-- Node20&#45;&gt;Node22 -->
<g id="edge3" class="edge"><title>Node20&#45;&gt;Node22</title>
<path fill="none" stroke="midnightblue" d="M177,-57.1081C177,-48.1539 177,-38.3227 177,-30.5765"/>
<polygon fill="midnightblue" stroke="midnightblue" points="173.5,-57.3959 177,-67.396 180.5,-57.396 173.5,-57.3959"/>
</g>
<!-- Node23 -->
<g id="node5" class="node"><title>Node23</title>
<g id="a_node5"><a xlink:href="generator__link_8cpp.xhtml" target="_top" xlink:title=" ">
<polygon fill="white" stroke="black" points="248,-0.5 248,-30.5 370,-30.5 370,-0.5 248,-0.5"/>
<text text-anchor="start" x="256" y="-18.5" font-family="Helvetica,sans-Serif" font-size="10.00">libopenage/gui/generator</text>
<text text-anchor="middle" x="309" y="-7.5" font-family="Helvetica,sans-Serif" font-size="10.00">_link.cpp</text>
</a>
</g>
</g>
<!-- Node20&#45;&gt;Node23 -->
<g id="edge4" class="edge"><title>Node20&#45;&gt;Node23</title>
<path fill="none" stroke="midnightblue" d="M214.867,-62.8533C235.738,-52.5761 261.226,-40.0252 280.414,-30.5765"/>
<polygon fill="midnightblue" stroke="midnightblue" points="213.067,-59.8383 205.642,-67.396 216.16,-66.1182 213.067,-59.8383"/>
</g>
<!-- Node24&#45;&gt;Node20 -->
<g id="edge6" class="edge"><title>Node24&#45;&gt;Node20</title>
<path fill="none" stroke="midnightblue" d="M207.845,-126.157C200.991,-116.679 193.21,-105.919 187.178,-97.5765"/>
<polygon fill="midnightblue" stroke="midnightblue" points="205.106,-128.343 213.802,-134.396 210.778,-124.242 205.106,-128.343"/>
</g>
</g>
</svg>
