<?xml version="1.0" encoding="UTF-8" standalone="no"?>
<!DOCTYPE svg PUBLIC "-//W3C//DTD SVG 1.1//EN"
 "http://www.w3.org/Graphics/SVG/1.1/DTD/svg11.dtd">
<!-- Generated by graphviz version 2.38.0 (20140413.2041)
 -->
<!-- Title: C:/Users/Jameson/Documents/git&#45;projects/openage/libopenage/gui/guisys/private/gui_image_provider_impl.h Pages: 1 -->
<svg width="248pt" height="117pt"
 viewBox="0.00 0.00 248.00 117.00" xmlns="http://www.w3.org/2000/svg" xmlns:xlink="http://www.w3.org/1999/xlink">
<g id="graph0" class="graph" transform="scale(1 1) rotate(0) translate(4 113)">
<title>C:/Users/Jameson/Documents/git&#45;projects/openage/libopenage/gui/guisys/private/gui_image_provider_impl.h</title>
<polygon fill="white" stroke="none" points="-4,4 -4,-113 244,-113 244,4 -4,4"/>
<!-- Node0 -->
<g id="node1" class="node"><title>Node0</title>
<g id="a_node1"><a xlink:title=" ">
<polygon fill="#bfbfbf" stroke="black" points="12.5,-56.5 12.5,-108.5 169.5,-108.5 169.5,-56.5 12.5,-56.5"/>
<text text-anchor="start" x="20.5" y="-96.5" font-family="Helvetica,sans-Serif" font-size="10.00">C:/Users/Jameson/Documents</text>
<text text-anchor="start" x="20.5" y="-85.5" font-family="Helvetica,sans-Serif" font-size="10.00">/git&#45;projects/openage/libopenage</text>
<text text-anchor="start" x="20.5" y="-74.5" font-family="Helvetica,sans-Serif" font-size="10.00">/gui/guisys/private/gui_image</text>
<text text-anchor="middle" x="91" y="-63.5" font-family="Helvetica,sans-Serif" font-size="10.00">_provider_impl.h</text>
</a>
</g>
</g>
<!-- Node1 -->
<g id="node2" class="node"><title>Node1</title>
<g id="a_node2"><a xlink:title=" ">
<polygon fill="white" stroke="#bfbfbf" points="0,-0.5 0,-19.5 52,-19.5 52,-0.5 0,-0.5"/>
<text text-anchor="middle" x="26" y="-7.5" font-family="Helvetica,sans-Serif" font-size="10.00">memory</text>
</a>
</g>
</g>
<!-- Node0&#45;&gt;Node1 -->
<g id="edge1" class="edge"><title>Node0&#45;&gt;Node1</title>
<path fill="none" stroke="midnightblue" d="M67.9004,-56.4458C58.941,-46.7283 48.9387,-35.8797 40.9542,-27.2196"/>
<polygon fill="midnightblue" stroke="midnightblue" points="43.3688,-24.6751 34.0171,-19.6955 38.2224,-29.42 43.3688,-24.6751"/>
</g>
<!-- Node2 -->
<g id="node3" class="node"><title>Node2</title>
<g id="a_node3"><a xlink:title=" ">
<polygon fill="white" stroke="#bfbfbf" points="70,-0.5 70,-19.5 112,-19.5 112,-0.5 70,-0.5"/>
<text text-anchor="middle" x="91" y="-7.5" font-family="Helvetica,sans-Serif" font-size="10.00">vector</text>
</a>
</g>
</g>
<!-- Node0&#45;&gt;Node2 -->
<g id="edge2" class="edge"><title>Node0&#45;&gt;Node2</title>
<path fill="none" stroke="midnightblue" d="M91,-56.4458C91,-47.7301 91,-38.1045 91,-29.9641"/>
<polygon fill="midnightblue" stroke="midnightblue" points="94.5001,-29.6954 91,-19.6955 87.5001,-29.6955 94.5001,-29.6954"/>
</g>
<!-- Node3 -->
<g id="node4" class="node"><title>Node3</title>
<g id="a_node4"><a xlink:title=" ">
<polygon fill="white" stroke="#bfbfbf" points="130,-0.5 130,-19.5 240,-19.5 240,-0.5 130,-0.5"/>
<text text-anchor="middle" x="185" y="-7.5" font-family="Helvetica,sans-Serif" font-size="10.00">QQuickImageProvider</text>
</a>
</g>
</g>
<!-- Node0&#45;&gt;Node3 -->
<g id="edge3" class="edge"><title>Node0&#45;&gt;Node3</title>
<path fill="none" stroke="midnightblue" d="M124.406,-56.4458C138.03,-46.2274 153.322,-34.7583 165.136,-25.8983"/>
<polygon fill="midnightblue" stroke="midnightblue" points="167.506,-28.4955 173.406,-19.6955 163.306,-22.8955 167.506,-28.4955"/>
</g>
</g>
</svg>
