<?xml version="1.0" encoding="UTF-8" standalone="no"?>
<!DOCTYPE svg PUBLIC "-//W3C//DTD SVG 1.1//EN"
 "http://www.w3.org/Graphics/SVG/1.1/DTD/svg11.dtd">
<!-- Generated by graphviz version 2.38.0 (20140413.2041)
 -->
<!-- Title: libopenage/gui/guisys/public/gui_event_queue.cpp Pages: 1 -->
<svg width="263pt" height="162pt"
 viewBox="0.00 0.00 263.00 162.00" xmlns="http://www.w3.org/2000/svg" xmlns:xlink="http://www.w3.org/1999/xlink">
<g id="graph0" class="graph" transform="scale(1 1) rotate(0) translate(4 158)">
<title>libopenage/gui/guisys/public/gui_event_queue.cpp</title>
<polygon fill="white" stroke="none" points="-4,4 -4,-158 259,-158 259,4 -4,4"/>
<!-- Node0 -->
<g id="node1" class="node"><title>Node0</title>
<g id="a_node1"><a xlink:title=" ">
<polygon fill="#bfbfbf" stroke="black" points="35,-123.5 35,-153.5 174,-153.5 174,-123.5 35,-123.5"/>
<text text-anchor="start" x="43" y="-141.5" font-family="Helvetica,sans-Serif" font-size="10.00">libopenage/gui/guisys</text>
<text text-anchor="middle" x="104.5" y="-130.5" font-family="Helvetica,sans-Serif" font-size="10.00">/public/gui_event_queue.cpp</text>
</a>
</g>
</g>
<!-- Node1 -->
<g id="node2" class="node"><title>Node1</title>
<g id="a_node2"><a xlink:href="gui__event__queue_8h.xhtml" target="_top" xlink:title=" ">
<polygon fill="white" stroke="black" points="0,-56.5 0,-86.5 95,-86.5 95,-56.5 0,-56.5"/>
<text text-anchor="start" x="8" y="-74.5" font-family="Helvetica,sans-Serif" font-size="10.00">../public/gui_event</text>
<text text-anchor="middle" x="47.5" y="-63.5" font-family="Helvetica,sans-Serif" font-size="10.00">_queue.h</text>
</a>
</g>
</g>
<!-- Node0&#45;&gt;Node1 -->
<g id="edge1" class="edge"><title>Node0&#45;&gt;Node1</title>
<path fill="none" stroke="midnightblue" d="M92.1318,-123.396C84.6625,-114.878 74.9888,-103.847 66.558,-94.2328"/>
<polygon fill="midnightblue" stroke="midnightblue" points="69.0688,-91.7875 59.844,-86.5765 63.8058,-96.4028 69.0688,-91.7875"/>
</g>
<!-- Node3 -->
<g id="node4" class="node"><title>Node3</title>
<g id="a_node4"><a xlink:href="gui__event__queue__impl_8h.xhtml" target="_top" xlink:title=" ">
<polygon fill="white" stroke="black" points="113,-56.5 113,-86.5 210,-86.5 210,-56.5 113,-56.5"/>
<text text-anchor="start" x="121" y="-74.5" font-family="Helvetica,sans-Serif" font-size="10.00">../private/gui_event</text>
<text text-anchor="middle" x="161.5" y="-63.5" font-family="Helvetica,sans-Serif" font-size="10.00">_queue_impl.h</text>
</a>
</g>
</g>
<!-- Node0&#45;&gt;Node3 -->
<g id="edge3" class="edge"><title>Node0&#45;&gt;Node3</title>
<path fill="none" stroke="midnightblue" d="M116.868,-123.396C124.338,-114.878 134.011,-103.847 142.442,-94.2328"/>
<polygon fill="midnightblue" stroke="midnightblue" points="145.194,-96.4028 149.156,-86.5765 139.931,-91.7875 145.194,-96.4028"/>
</g>
<!-- Node2 -->
<g id="node3" class="node"><title>Node2</title>
<g id="a_node3"><a xlink:title=" ">
<polygon fill="white" stroke="#bfbfbf" points="21.5,-0.5 21.5,-19.5 73.5,-19.5 73.5,-0.5 21.5,-0.5"/>
<text text-anchor="middle" x="47.5" y="-7.5" font-family="Helvetica,sans-Serif" font-size="10.00">memory</text>
</a>
</g>
</g>
<!-- Node1&#45;&gt;Node2 -->
<g id="edge2" class="edge"><title>Node1&#45;&gt;Node2</title>
<path fill="none" stroke="midnightblue" d="M47.5,-56.3993C47.5,-48.4664 47.5,-38.458 47.5,-29.8583"/>
<polygon fill="midnightblue" stroke="midnightblue" points="51.0001,-29.6577 47.5,-19.6578 44.0001,-29.6578 51.0001,-29.6577"/>
</g>
<!-- Node4 -->
<g id="node5" class="node"><title>Node4</title>
<g id="a_node5"><a xlink:title=" ">
<polygon fill="white" stroke="#bfbfbf" points="113,-0.5 113,-19.5 168,-19.5 168,-0.5 113,-0.5"/>
<text text-anchor="middle" x="140.5" y="-7.5" font-family="Helvetica,sans-Serif" font-size="10.00">QtGlobal</text>
</a>
</g>
</g>
<!-- Node3&#45;&gt;Node4 -->
<g id="edge4" class="edge"><title>Node3&#45;&gt;Node4</title>
<path fill="none" stroke="midnightblue" d="M156.523,-56.3993C153.66,-48.2881 150.032,-38.0071 146.952,-29.2807"/>
<polygon fill="midnightblue" stroke="midnightblue" points="150.184,-27.9228 143.556,-19.6578 143.583,-30.2526 150.184,-27.9228"/>
</g>
<!-- Node5 -->
<g id="node6" class="node"><title>Node5</title>
<g id="a_node6"><a xlink:title=" ">
<polygon fill="white" stroke="#bfbfbf" points="186,-0.5 186,-19.5 255,-19.5 255,-0.5 186,-0.5"/>
<text text-anchor="middle" x="220.5" y="-7.5" font-family="Helvetica,sans-Serif" font-size="10.00">QEventLoop</text>
</a>
</g>
</g>
<!-- Node3&#45;&gt;Node5 -->
<g id="edge5" class="edge"><title>Node3&#45;&gt;Node5</title>
<path fill="none" stroke="midnightblue" d="M175.482,-56.3993C184.232,-47.575 195.529,-36.1827 204.617,-27.0178"/>
<polygon fill="midnightblue" stroke="midnightblue" points="207.359,-29.2231 211.915,-19.6578 202.388,-24.2942 207.359,-29.2231"/>
</g>
</g>
</svg>
