<?xml version="1.0" encoding="UTF-8" standalone="no"?>
<!DOCTYPE svg PUBLIC "-//W3C//DTD SVG 1.1//EN"
 "http://www.w3.org/Graphics/SVG/1.1/DTD/svg11.dtd">
<!-- Generated by graphviz version 2.38.0 (20140413.2041)
 -->
<!-- Title: C:/Users/Jameson/Documents/git&#45;projects/openage/libopenage/gui/integration/private/gui_image_provider_link.h Pages: 1 -->
<svg width="205pt" height="117pt"
 viewBox="0.00 0.00 204.50 117.00" xmlns="http://www.w3.org/2000/svg" xmlns:xlink="http://www.w3.org/1999/xlink">
<g id="graph0" class="graph" transform="scale(1 1) rotate(0) translate(4 113)">
<title>C:/Users/Jameson/Documents/git&#45;projects/openage/libopenage/gui/integration/private/gui_image_provider_link.h</title>
<polygon fill="white" stroke="none" points="-4,4 -4,-113 200.5,-113 200.5,4 -4,4"/>
<!-- Node0 -->
<g id="node1" class="node"><title>Node0</title>
<g id="a_node1"><a xlink:title=" ">
<polygon fill="#bfbfbf" stroke="black" points="18.5,-56.5 18.5,-108.5 175.5,-108.5 175.5,-56.5 18.5,-56.5"/>
<text text-anchor="start" x="26.5" y="-96.5" font-family="Helvetica,sans-Serif" font-size="10.00">C:/Users/Jameson/Documents</text>
<text text-anchor="start" x="26.5" y="-85.5" font-family="Helvetica,sans-Serif" font-size="10.00">/git&#45;projects/openage/libopenage</text>
<text text-anchor="start" x="26.5" y="-74.5" font-family="Helvetica,sans-Serif" font-size="10.00">/gui/integration/private/gui</text>
<text text-anchor="middle" x="97" y="-63.5" font-family="Helvetica,sans-Serif" font-size="10.00">_image_provider_link.h</text>
</a>
</g>
</g>
<!-- Node1 -->
<g id="node2" class="node"><title>Node1</title>
<g id="a_node2"><a xlink:title=" ">
<polygon fill="white" stroke="#bfbfbf" points="0,-0.5 0,-19.5 52,-19.5 52,-0.5 0,-0.5"/>
<text text-anchor="middle" x="26" y="-7.5" font-family="Helvetica,sans-Serif" font-size="10.00">memory</text>
</a>
</g>
</g>
<!-- Node0&#45;&gt;Node1 -->
<g id="edge1" class="edge"><title>Node0&#45;&gt;Node1</title>
<path fill="none" stroke="midnightblue" d="M71.7681,-56.4458C61.8808,-46.6281 50.8307,-35.6559 42.0656,-26.9524"/>
<polygon fill="midnightblue" stroke="midnightblue" points="44.3193,-24.2579 34.7572,-19.6955 39.3871,-29.2252 44.3193,-24.2579"/>
</g>
<!-- Node2 -->
<g id="node3" class="node"><title>Node2</title>
<g id="a_node3"><a xlink:title=" ">
<polygon fill="white" stroke="#bfbfbf" points="70.5,-0.5 70.5,-19.5 123.5,-19.5 123.5,-0.5 70.5,-0.5"/>
<text text-anchor="middle" x="97" y="-7.5" font-family="Helvetica,sans-Serif" font-size="10.00">QObject</text>
</a>
</g>
</g>
<!-- Node0&#45;&gt;Node2 -->
<g id="edge2" class="edge"><title>Node0&#45;&gt;Node2</title>
<path fill="none" stroke="midnightblue" d="M97,-56.4458C97,-47.7301 97,-38.1045 97,-29.9641"/>
<polygon fill="midnightblue" stroke="midnightblue" points="100.5,-29.6954 97,-19.6955 93.5001,-29.6955 100.5,-29.6954"/>
</g>
<!-- Node3 -->
<g id="node4" class="node"><title>Node3</title>
<g id="a_node4"><a xlink:title=" ">
<polygon fill="white" stroke="#bfbfbf" points="141.5,-0.5 141.5,-19.5 196.5,-19.5 196.5,-0.5 141.5,-0.5"/>
<text text-anchor="middle" x="169" y="-7.5" font-family="Helvetica,sans-Serif" font-size="10.00">QPointer</text>
</a>
</g>
</g>
<!-- Node0&#45;&gt;Node3 -->
<g id="edge3" class="edge"><title>Node0&#45;&gt;Node3</title>
<path fill="none" stroke="midnightblue" d="M122.587,-56.4458C132.614,-46.6281 143.82,-35.6559 152.708,-26.9524"/>
<polygon fill="midnightblue" stroke="midnightblue" points="155.423,-29.1926 160.12,-19.6955 150.526,-24.191 155.423,-29.1926"/>
</g>
</g>
</svg>
