<?xml version="1.0" encoding="UTF-8" standalone="no"?>
<!DOCTYPE svg PUBLIC "-//W3C//DTD SVG 1.1//EN"
 "http://www.w3.org/Graphics/SVG/1.1/DTD/svg11.dtd">
<!-- Generated by graphviz version 2.38.0 (20140413.2041)
 -->
<!-- Title: C:/Users/Jameson/Documents/git&#45;projects/openage/libopenage/gui/guisys/public/gui_event_queue.cpp Pages: 1 -->
<svg width="263pt" height="184pt"
 viewBox="0.00 0.00 263.00 184.00" xmlns="http://www.w3.org/2000/svg" xmlns:xlink="http://www.w3.org/1999/xlink">
<g id="graph0" class="graph" transform="scale(1 1) rotate(0) translate(4 180)">
<title>C:/Users/Jameson/Documents/git&#45;projects/openage/libopenage/gui/guisys/public/gui_event_queue.cpp</title>
<polygon fill="white" stroke="none" points="-4,4 -4,-180 259,-180 259,4 -4,4"/>
<!-- Node0 -->
<g id="node1" class="node"><title>Node0</title>
<g id="a_node1"><a xlink:title=" ">
<polygon fill="#bfbfbf" stroke="black" points="26,-123.5 26,-175.5 183,-175.5 183,-123.5 26,-123.5"/>
<text text-anchor="start" x="34" y="-163.5" font-family="Helvetica,sans-Serif" font-size="10.00">C:/Users/Jameson/Documents</text>
<text text-anchor="start" x="34" y="-152.5" font-family="Helvetica,sans-Serif" font-size="10.00">/git&#45;projects/openage/libopenage</text>
<text text-anchor="start" x="34" y="-141.5" font-family="Helvetica,sans-Serif" font-size="10.00">/gui/guisys/public/gui_event</text>
<text text-anchor="middle" x="104.5" y="-130.5" font-family="Helvetica,sans-Serif" font-size="10.00">_queue.cpp</text>
</a>
</g>
</g>
<!-- Node1 -->
<g id="node2" class="node"><title>Node1</title>
<g id="a_node2"><a xlink:href="gui__event__queue_8h.xhtml" target="_top" xlink:title=" ">
<polygon fill="white" stroke="black" points="0,-56.5 0,-86.5 95,-86.5 95,-56.5 0,-56.5"/>
<text text-anchor="start" x="8" y="-74.5" font-family="Helvetica,sans-Serif" font-size="10.00">../public/gui_event</text>
<text text-anchor="middle" x="47.5" y="-63.5" font-family="Helvetica,sans-Serif" font-size="10.00">_queue.h</text>
</a>
</g>
</g>
<!-- Node0&#45;&gt;Node1 -->
<g id="edge1" class="edge"><title>Node0&#45;&gt;Node1</title>
<path fill="none" stroke="midnightblue" d="M85.5198,-123.193C78.648,-114.031 70.942,-103.756 64.2735,-94.8647"/>
<polygon fill="midnightblue" stroke="midnightblue" points="67.059,-92.7453 58.2589,-86.8453 61.459,-96.9453 67.059,-92.7453"/>
</g>
<!-- Node3 -->
<g id="node4" class="node"><title>Node3</title>
<g id="a_node4"><a xlink:href="gui__event__queue__impl_8h.xhtml" target="_top" xlink:title=" ">
<polygon fill="white" stroke="black" points="113,-56.5 113,-86.5 210,-86.5 210,-56.5 113,-56.5"/>
<text text-anchor="start" x="121" y="-74.5" font-family="Helvetica,sans-Serif" font-size="10.00">../private/gui_event</text>
<text text-anchor="middle" x="161.5" y="-63.5" font-family="Helvetica,sans-Serif" font-size="10.00">_queue_impl.h</text>
</a>
</g>
</g>
<!-- Node0&#45;&gt;Node3 -->
<g id="edge3" class="edge"><title>Node0&#45;&gt;Node3</title>
<path fill="none" stroke="midnightblue" d="M123.48,-123.193C130.352,-114.031 138.058,-103.756 144.726,-94.8647"/>
<polygon fill="midnightblue" stroke="midnightblue" points="147.541,-96.9453 150.741,-86.8453 141.941,-92.7453 147.541,-96.9453"/>
</g>
<!-- Node2 -->
<g id="node3" class="node"><title>Node2</title>
<g id="a_node3"><a xlink:title=" ">
<polygon fill="white" stroke="#bfbfbf" points="21.5,-0.5 21.5,-19.5 73.5,-19.5 73.5,-0.5 21.5,-0.5"/>
<text text-anchor="middle" x="47.5" y="-7.5" font-family="Helvetica,sans-Serif" font-size="10.00">memory</text>
</a>
</g>
</g>
<!-- Node1&#45;&gt;Node2 -->
<g id="edge2" class="edge"><title>Node1&#45;&gt;Node2</title>
<path fill="none" stroke="midnightblue" d="M47.5,-56.3993C47.5,-48.4664 47.5,-38.458 47.5,-29.8583"/>
<polygon fill="midnightblue" stroke="midnightblue" points="51.0001,-29.6577 47.5,-19.6578 44.0001,-29.6578 51.0001,-29.6577"/>
</g>
<!-- Node4 -->
<g id="node5" class="node"><title>Node4</title>
<g id="a_node5"><a xlink:title=" ">
<polygon fill="white" stroke="#bfbfbf" points="113,-0.5 113,-19.5 168,-19.5 168,-0.5 113,-0.5"/>
<text text-anchor="middle" x="140.5" y="-7.5" font-family="Helvetica,sans-Serif" font-size="10.00">QtGlobal</text>
</a>
</g>
</g>
<!-- Node3&#45;&gt;Node4 -->
<g id="edge4" class="edge"><title>Node3&#45;&gt;Node4</title>
<path fill="none" stroke="midnightblue" d="M156.523,-56.3993C153.66,-48.2881 150.032,-38.0071 146.952,-29.2807"/>
<polygon fill="midnightblue" stroke="midnightblue" points="150.184,-27.9228 143.556,-19.6578 143.583,-30.2526 150.184,-27.9228"/>
</g>
<!-- Node5 -->
<g id="node6" class="node"><title>Node5</title>
<g id="a_node6"><a xlink:title=" ">
<polygon fill="white" stroke="#bfbfbf" points="186,-0.5 186,-19.5 255,-19.5 255,-0.5 186,-0.5"/>
<text text-anchor="middle" x="220.5" y="-7.5" font-family="Helvetica,sans-Serif" font-size="10.00">QEventLoop</text>
</a>
</g>
</g>
<!-- Node3&#45;&gt;Node5 -->
<g id="edge5" class="edge"><title>Node3&#45;&gt;Node5</title>
<path fill="none" stroke="midnightblue" d="M175.482,-56.3993C184.232,-47.575 195.529,-36.1827 204.617,-27.0178"/>
<polygon fill="midnightblue" stroke="midnightblue" points="207.359,-29.2231 211.915,-19.6578 202.388,-24.2942 207.359,-29.2231"/>
</g>
</g>
</svg>
