<?xml version="1.0" encoding="UTF-8" standalone="no"?>
<!DOCTYPE svg PUBLIC "-//W3C//DTD SVG 1.1//EN"
 "http://www.w3.org/Graphics/SVG/1.1/DTD/svg11.dtd">
<!-- Generated by graphviz version 2.38.0 (20140413.2041)
 -->
<!-- Title: C:/Users/Jameson/Documents/git&#45;projects/openage/libopenage/gui/guisys/private/gui_input_impl.h Pages: 1 -->
<svg width="248pt" height="106pt"
 viewBox="0.00 0.00 248.00 106.00" xmlns="http://www.w3.org/2000/svg" xmlns:xlink="http://www.w3.org/1999/xlink">
<g id="graph0" class="graph" transform="scale(1 1) rotate(0) translate(4 102)">
<title>C:/Users/Jameson/Documents/git&#45;projects/openage/libopenage/gui/guisys/private/gui_input_impl.h</title>
<polygon fill="white" stroke="none" points="-4,4 -4,-102 244,-102 244,4 -4,4"/>
<!-- Node0 -->
<g id="node1" class="node"><title>Node0</title>
<g id="a_node1"><a xlink:title=" ">
<polygon fill="#bfbfbf" stroke="black" points="7,-56.5 7,-97.5 175,-97.5 175,-56.5 7,-56.5"/>
<text text-anchor="start" x="15" y="-85.5" font-family="Helvetica,sans-Serif" font-size="10.00">C:/Users/Jameson/Documents</text>
<text text-anchor="start" x="15" y="-74.5" font-family="Helvetica,sans-Serif" font-size="10.00">/git&#45;projects/openage/libopenage</text>
<text text-anchor="middle" x="91" y="-63.5" font-family="Helvetica,sans-Serif" font-size="10.00">/gui/guisys/private/gui_input_impl.h</text>
</a>
</g>
</g>
<!-- Node1 -->
<g id="node2" class="node"><title>Node1</title>
<g id="a_node2"><a xlink:title=" ">
<polygon fill="white" stroke="#bfbfbf" points="0,-0.5 0,-19.5 46,-19.5 46,-0.5 0,-0.5"/>
<text text-anchor="middle" x="23" y="-7.5" font-family="Helvetica,sans-Serif" font-size="10.00">atomic</text>
</a>
</g>
</g>
<!-- Node0&#45;&gt;Node1 -->
<g id="edge1" class="edge"><title>Node0&#45;&gt;Node1</title>
<path fill="none" stroke="midnightblue" d="M70.5978,-56.4979C60.6733,-47.0113 48.8982,-35.7557 39.5429,-26.8131"/>
<polygon fill="midnightblue" stroke="midnightblue" points="41.699,-24.0323 32.0518,-19.6525 36.8621,-29.0924 41.699,-24.0323"/>
</g>
<!-- Node2 -->
<g id="node3" class="node"><title>Node2</title>
<g id="a_node3"><a xlink:title=" ">
<polygon fill="white" stroke="#bfbfbf" points="64.5,-0.5 64.5,-19.5 117.5,-19.5 117.5,-0.5 64.5,-0.5"/>
<text text-anchor="middle" x="91" y="-7.5" font-family="Helvetica,sans-Serif" font-size="10.00">QObject</text>
</a>
</g>
</g>
<!-- Node0&#45;&gt;Node2 -->
<g id="edge2" class="edge"><title>Node0&#45;&gt;Node2</title>
<path fill="none" stroke="midnightblue" d="M91,-56.4979C91,-48.0653 91,-38.2351 91,-29.874"/>
<polygon fill="midnightblue" stroke="midnightblue" points="94.5001,-29.6525 91,-19.6525 87.5001,-29.6525 94.5001,-29.6525"/>
</g>
<!-- Node3 -->
<g id="node4" class="node"><title>Node3</title>
<g id="a_node4"><a xlink:title=" ">
<polygon fill="white" stroke="#bfbfbf" points="136,-0.5 136,-19.5 240,-19.5 240,-0.5 136,-0.5"/>
<text text-anchor="middle" x="188" y="-7.5" font-family="Helvetica,sans-Serif" font-size="10.00">SDL2/SDL_events.h</text>
</a>
</g>
</g>
<!-- Node0&#45;&gt;Node3 -->
<g id="edge3" class="edge"><title>Node0&#45;&gt;Node3</title>
<path fill="none" stroke="midnightblue" d="M120.103,-56.4979C134.975,-46.5321 152.76,-34.6142 166.397,-25.4764"/>
<polygon fill="midnightblue" stroke="midnightblue" points="168.729,-28.1268 175.088,-19.6525 164.832,-22.3117 168.729,-28.1268"/>
</g>
</g>
</svg>
