<?xml version="1.0" encoding="UTF-8" standalone="no"?>
<!DOCTYPE svg PUBLIC "-//W3C//DTD SVG 1.1//EN"
 "http://www.w3.org/Graphics/SVG/1.1/DTD/svg11.dtd">
<!-- Generated by graphviz version 2.38.0 (20140413.2041)
 -->
<!-- Title: C:/Users/Jameson/Documents/git&#45;projects/openage/libopenage/gui/guisys/private/gui_dedicated_thread.cpp Pages: 1 -->
<svg width="475pt" height="173pt"
 viewBox="0.00 0.00 474.50 173.00" xmlns="http://www.w3.org/2000/svg" xmlns:xlink="http://www.w3.org/1999/xlink">
<g id="graph0" class="graph" transform="scale(1 1) rotate(0) translate(4 169)">
<title>C:/Users/Jameson/Documents/git&#45;projects/openage/libopenage/gui/guisys/private/gui_dedicated_thread.cpp</title>
<polygon fill="white" stroke="none" points="-4,4 -4,-169 470.5,-169 470.5,4 -4,4"/>
<!-- Node0 -->
<g id="node1" class="node"><title>Node0</title>
<g id="a_node1"><a xlink:title=" ">
<polygon fill="#bfbfbf" stroke="black" points="229.5,-112.5 229.5,-164.5 387.5,-164.5 387.5,-112.5 229.5,-112.5"/>
<text text-anchor="start" x="237.5" y="-152.5" font-family="Helvetica,sans-Serif" font-size="10.00">C:/Users/Jameson/Documents</text>
<text text-anchor="start" x="237.5" y="-141.5" font-family="Helvetica,sans-Serif" font-size="10.00">/git&#45;projects/openage/libopenage</text>
<text text-anchor="start" x="237.5" y="-130.5" font-family="Helvetica,sans-Serif" font-size="10.00">/gui/guisys/private/gui_dedicated</text>
<text text-anchor="middle" x="308.5" y="-119.5" font-family="Helvetica,sans-Serif" font-size="10.00">_thread.cpp</text>
</a>
</g>
</g>
<!-- Node1 -->
<g id="node2" class="node"><title>Node1</title>
<g id="a_node2"><a xlink:href="gui__dedicated__thread_8h.xhtml" target="_top" xlink:title=" ">
<polygon fill="white" stroke="black" points="163,-56.5 163,-75.5 280,-75.5 280,-56.5 163,-56.5"/>
<text text-anchor="middle" x="221.5" y="-63.5" font-family="Helvetica,sans-Serif" font-size="10.00">gui_dedicated_thread.h</text>
</a>
</g>
</g>
<!-- Node0&#45;&gt;Node1 -->
<g id="edge1" class="edge"><title>Node0&#45;&gt;Node1</title>
<path fill="none" stroke="midnightblue" d="M277.582,-112.446C265.096,-102.328 251.096,-90.983 240.208,-82.1596"/>
<polygon fill="midnightblue" stroke="midnightblue" points="242.204,-79.2721 232.231,-75.6955 237.796,-84.7106 242.204,-79.2721"/>
</g>
<!-- Node3 -->
<g id="node4" class="node"><title>Node3</title>
<g id="a_node4"><a xlink:title=" ">
<polygon fill="white" stroke="#bfbfbf" points="237.5,-0.5 237.5,-19.5 281.5,-19.5 281.5,-0.5 237.5,-0.5"/>
<text text-anchor="middle" x="259.5" y="-7.5" font-family="Helvetica,sans-Serif" font-size="10.00">mutex</text>
</a>
</g>
</g>
<!-- Node0&#45;&gt;Node3 -->
<g id="edge6" class="edge"><title>Node0&#45;&gt;Node3</title>
<path fill="none" stroke="midnightblue" d="M304.532,-112.197C301.414,-95.7417 296.278,-74.0651 288.5,-56 284.281,-46.2001 278.014,-36.1404 272.385,-28.0246"/>
<polygon fill="midnightblue" stroke="midnightblue" points="275.138,-25.8586 266.443,-19.8049 269.465,-29.9596 275.138,-25.8586"/>
</g>
<!-- Node5 -->
<g id="node6" class="node"><title>Node5</title>
<g id="a_node6"><a xlink:title=" ">
<polygon fill="white" stroke="#bfbfbf" points="300,-0.5 300,-19.5 393,-19.5 393,-0.5 300,-0.5"/>
<text text-anchor="middle" x="346.5" y="-7.5" font-family="Helvetica,sans-Serif" font-size="10.00">condition_variable</text>
</a>
</g>
</g>
<!-- Node0&#45;&gt;Node5 -->
<g id="edge7" class="edge"><title>Node0&#45;&gt;Node5</title>
<path fill="none" stroke="midnightblue" d="M316.099,-112.205C323.473,-87.656 334.483,-51.0024 341.033,-29.1991"/>
<polygon fill="midnightblue" stroke="midnightblue" points="344.407,-30.1339 343.932,-19.5497 337.703,-28.12 344.407,-30.1339"/>
</g>
<!-- Node6 -->
<g id="node7" class="node"><title>Node6</title>
<g id="a_node7"><a xlink:title=" ">
<polygon fill="white" stroke="#bfbfbf" points="374.5,-56.5 374.5,-75.5 466.5,-75.5 466.5,-56.5 374.5,-56.5"/>
<text text-anchor="middle" x="420.5" y="-63.5" font-family="Helvetica,sans-Serif" font-size="10.00">QCoreApplication</text>
</a>
</g>
</g>
<!-- Node0&#45;&gt;Node6 -->
<g id="edge8" class="edge"><title>Node0&#45;&gt;Node6</title>
<path fill="none" stroke="midnightblue" d="M348.302,-112.446C365.117,-101.862 384.062,-89.9362 398.326,-80.9578"/>
<polygon fill="midnightblue" stroke="midnightblue" points="400.355,-83.8162 406.954,-75.527 396.626,-77.8921 400.355,-83.8162"/>
</g>
<!-- Node7 -->
<g id="node8" class="node"><title>Node7</title>
<g id="a_node8"><a xlink:href="gui__application__impl_8h.xhtml" target="_top" xlink:title=" ">
<polygon fill="white" stroke="black" points="32,-56.5 32,-75.5 145,-75.5 145,-56.5 32,-56.5"/>
<text text-anchor="middle" x="88.5" y="-63.5" font-family="Helvetica,sans-Serif" font-size="10.00">gui_application_impl.h</text>
</a>
</g>
</g>
<!-- Node0&#45;&gt;Node7 -->
<g id="edge9" class="edge"><title>Node0&#45;&gt;Node7</title>
<path fill="none" stroke="midnightblue" d="M230.317,-112.446C194.301,-100.904 153.306,-87.7673 124.687,-78.5963"/>
<polygon fill="midnightblue" stroke="midnightblue" points="125.7,-75.2457 115.109,-75.527 123.564,-81.9118 125.7,-75.2457"/>
</g>
<!-- Node2 -->
<g id="node3" class="node"><title>Node2</title>
<g id="a_node3"><a xlink:title=" ">
<polygon fill="white" stroke="#bfbfbf" points="175.5,-0.5 175.5,-19.5 219.5,-19.5 219.5,-0.5 175.5,-0.5"/>
<text text-anchor="middle" x="197.5" y="-7.5" font-family="Helvetica,sans-Serif" font-size="10.00">thread</text>
</a>
</g>
</g>
<!-- Node1&#45;&gt;Node2 -->
<g id="edge2" class="edge"><title>Node1&#45;&gt;Node2</title>
<path fill="none" stroke="midnightblue" d="M217.537,-56.083C214.287,-48.77 209.581,-38.1814 205.546,-29.1034"/>
<polygon fill="midnightblue" stroke="midnightblue" points="208.649,-27.4677 201.389,-19.7511 202.252,-30.3107 208.649,-27.4677"/>
</g>
<!-- Node1&#45;&gt;Node3 -->
<g id="edge3" class="edge"><title>Node1&#45;&gt;Node3</title>
<path fill="none" stroke="midnightblue" d="M227.775,-56.083C233.142,-48.4554 241.018,-37.2645 247.579,-27.9408"/>
<polygon fill="midnightblue" stroke="midnightblue" points="250.449,-29.9434 253.342,-19.7511 244.725,-25.9149 250.449,-29.9434"/>
</g>
<!-- Node4 -->
<g id="node5" class="node"><title>Node4</title>
<g id="a_node5"><a xlink:title=" ">
<polygon fill="white" stroke="#bfbfbf" points="105.5,-0.5 105.5,-19.5 157.5,-19.5 157.5,-0.5 105.5,-0.5"/>
<text text-anchor="middle" x="131.5" y="-7.5" font-family="Helvetica,sans-Serif" font-size="10.00">memory</text>
</a>
</g>
</g>
<!-- Node1&#45;&gt;Node4 -->
<g id="edge4" class="edge"><title>Node1&#45;&gt;Node4</title>
<path fill="none" stroke="midnightblue" d="M207.04,-56.324C193,-47.9002 171.452,-34.9709 154.957,-25.0741"/>
<polygon fill="midnightblue" stroke="midnightblue" points="156.3,-21.7983 145.924,-19.6545 152.698,-27.8007 156.3,-21.7983"/>
</g>
<!-- Node1&#45;&gt;Node5 -->
<g id="edge5" class="edge"><title>Node1&#45;&gt;Node5</title>
<path fill="none" stroke="midnightblue" d="M241.307,-56.4435C261.787,-47.5961 293.983,-33.6875 317.365,-23.5865"/>
<polygon fill="midnightblue" stroke="midnightblue" points="318.994,-26.6953 326.786,-19.5164 316.218,-20.2692 318.994,-26.6953"/>
</g>
<!-- Node7&#45;&gt;Node2 -->
<g id="edge10" class="edge"><title>Node7&#45;&gt;Node2</title>
<path fill="none" stroke="midnightblue" d="M106.013,-56.324C123.572,-47.6247 150.831,-34.1202 171.031,-24.113"/>
<polygon fill="midnightblue" stroke="midnightblue" points="172.624,-27.23 180.031,-19.6545 169.516,-20.9575 172.624,-27.23"/>
</g>
<!-- Node7&#45;&gt;Node4 -->
<g id="edge11" class="edge"><title>Node7&#45;&gt;Node4</title>
<path fill="none" stroke="midnightblue" d="M95.6006,-56.083C101.737,-48.3768 110.77,-37.0333 118.239,-27.6531"/>
<polygon fill="midnightblue" stroke="midnightblue" points="121.04,-29.7542 124.532,-19.7511 115.564,-25.3936 121.04,-29.7542"/>
</g>
<!-- Node8 -->
<g id="node9" class="node"><title>Node8</title>
<g id="a_node9"><a xlink:title=" ">
<polygon fill="white" stroke="#bfbfbf" points="0,-0.5 0,-19.5 87,-19.5 87,-0.5 0,-0.5"/>
<text text-anchor="middle" x="43.5" y="-7.5" font-family="Helvetica,sans-Serif" font-size="10.00">QGuiApplication</text>
</a>
</g>
</g>
<!-- Node7&#45;&gt;Node8 -->
<g id="edge12" class="edge"><title>Node7&#45;&gt;Node8</title>
<path fill="none" stroke="midnightblue" d="M81.0692,-56.083C74.6473,-48.3768 65.1944,-37.0333 57.3775,-27.6531"/>
<polygon fill="midnightblue" stroke="midnightblue" points="59.8832,-25.1927 50.7926,-19.7511 54.5057,-29.674 59.8832,-25.1927"/>
</g>
</g>
</svg>
