<?xml version="1.0" encoding="UTF-8" standalone="no"?>
<!DOCTYPE svg PUBLIC "-//W3C//DTD SVG 1.1//EN"
 "http://www.w3.org/Graphics/SVG/1.1/DTD/svg11.dtd">
<!-- Generated by graphviz version 2.38.0 (20140413.2041)
 -->
<!-- Title: C:/Users/Jameson/Documents/git&#45;projects/openage/libopenage/gui/guisys/private/livereload/gui_live_reloader.h Pages: 1 -->
<svg width="465pt" height="228pt"
 viewBox="0.00 0.00 464.50 228.00" xmlns="http://www.w3.org/2000/svg" xmlns:xlink="http://www.w3.org/1999/xlink">
<g id="graph0" class="graph" transform="scale(1 1) rotate(0) translate(4 224)">
<title>C:/Users/Jameson/Documents/git&#45;projects/openage/libopenage/gui/guisys/private/livereload/gui_live_reloader.h</title>
<polygon fill="white" stroke="none" points="-4,4 -4,-224 460.5,-224 460.5,4 -4,4"/>
<!-- Node8 -->
<g id="node1" class="node"><title>Node8</title>
<g id="a_node1"><a xlink:title=" ">
<polygon fill="#bfbfbf" stroke="black" points="206.5,-167.5 206.5,-219.5 363.5,-219.5 363.5,-167.5 206.5,-167.5"/>
<text text-anchor="start" x="214.5" y="-207.5" font-family="Helvetica,sans-Serif" font-size="10.00">C:/Users/Jameson/Documents</text>
<text text-anchor="start" x="214.5" y="-196.5" font-family="Helvetica,sans-Serif" font-size="10.00">/git&#45;projects/openage/libopenage</text>
<text text-anchor="start" x="214.5" y="-185.5" font-family="Helvetica,sans-Serif" font-size="10.00">/gui/guisys/private/livereload</text>
<text text-anchor="middle" x="285" y="-174.5" font-family="Helvetica,sans-Serif" font-size="10.00">/gui_live_reloader.h</text>
</a>
</g>
</g>
<!-- Node9 -->
<g id="node2" class="node"><title>Node9</title>
<g id="a_node2"><a xlink:href="gui__subtree__impl_8h.xhtml" target="_top" xlink:title=" ">
<polygon fill="white" stroke="black" points="102.5,-84 102.5,-125 281.5,-125 281.5,-84 102.5,-84"/>
<text text-anchor="start" x="110.5" y="-113" font-family="Helvetica,sans-Serif" font-size="10.00">C:/Users/Jameson/Documents</text>
<text text-anchor="start" x="110.5" y="-102" font-family="Helvetica,sans-Serif" font-size="10.00">/git&#45;projects/openage/libopenage</text>
<text text-anchor="middle" x="192" y="-91" font-family="Helvetica,sans-Serif" font-size="10.00">/gui/guisys/private/gui_subtree_impl.h</text>
</a>
</g>
</g>
<!-- Node8&#45;&gt;Node9 -->
<g id="edge1" class="edge"><title>Node8&#45;&gt;Node9</title>
<path fill="none" stroke="midnightblue" d="M250.453,-160.181C237.85,-148.392 223.992,-135.428 212.933,-125.082"/>
<polygon fill="midnightblue" stroke="midnightblue" points="248.407,-163.06 258.101,-167.336 253.189,-157.948 248.407,-163.06"/>
</g>
<!-- Node12 -->
<g id="node5" class="node"><title>Node12</title>
<g id="a_node5"><a xlink:href="gui__live__reloader_8cpp.xhtml" target="_top" xlink:title=" ">
<polygon fill="white" stroke="black" points="299.5,-78.5 299.5,-130.5 456.5,-130.5 456.5,-78.5 299.5,-78.5"/>
<text text-anchor="start" x="307.5" y="-118.5" font-family="Helvetica,sans-Serif" font-size="10.00">C:/Users/Jameson/Documents</text>
<text text-anchor="start" x="307.5" y="-107.5" font-family="Helvetica,sans-Serif" font-size="10.00">/git&#45;projects/openage/libopenage</text>
<text text-anchor="start" x="307.5" y="-96.5" font-family="Helvetica,sans-Serif" font-size="10.00">/gui/guisys/private/livereload</text>
<text text-anchor="middle" x="378" y="-85.5" font-family="Helvetica,sans-Serif" font-size="10.00">/gui_live_reloader.cpp</text>
</a>
</g>
</g>
<!-- Node8&#45;&gt;Node12 -->
<g id="edge4" class="edge"><title>Node8&#45;&gt;Node12</title>
<path fill="none" stroke="midnightblue" d="M319.353,-160.363C329.852,-150.542 341.238,-139.89 351.161,-130.607"/>
<polygon fill="midnightblue" stroke="midnightblue" points="316.811,-157.948 311.899,-167.336 321.593,-163.06 316.811,-157.948"/>
</g>
<!-- Node10 -->
<g id="node3" class="node"><title>Node10</title>
<g id="a_node3"><a xlink:href="gui__subtree__impl_8cpp.xhtml" target="_top" xlink:title=" ">
<polygon fill="white" stroke="black" points="0,-0.5 0,-41.5 190,-41.5 190,-0.5 0,-0.5"/>
<text text-anchor="start" x="8" y="-29.5" font-family="Helvetica,sans-Serif" font-size="10.00">C:/Users/Jameson/Documents</text>
<text text-anchor="start" x="8" y="-18.5" font-family="Helvetica,sans-Serif" font-size="10.00">/git&#45;projects/openage/libopenage</text>
<text text-anchor="middle" x="95" y="-7.5" font-family="Helvetica,sans-Serif" font-size="10.00">/gui/guisys/private/gui_subtree_impl.cpp</text>
</a>
</g>
</g>
<!-- Node9&#45;&gt;Node10 -->
<g id="edge2" class="edge"><title>Node9&#45;&gt;Node10</title>
<path fill="none" stroke="midnightblue" d="M160.686,-77.1898C146.896,-65.6035 130.977,-52.2284 118.265,-41.5472"/>
<polygon fill="midnightblue" stroke="midnightblue" points="158.611,-80.0179 168.519,-83.7711 163.114,-74.6585 158.611,-80.0179"/>
</g>
<!-- Node11 -->
<g id="node4" class="node"><title>Node11</title>
<g id="a_node4"><a xlink:href="gui__subtree_8cpp.xhtml" target="_top" xlink:title=" ">
<polygon fill="white" stroke="black" points="208,-0.5 208,-41.5 372,-41.5 372,-0.5 208,-0.5"/>
<text text-anchor="start" x="216" y="-29.5" font-family="Helvetica,sans-Serif" font-size="10.00">C:/Users/Jameson/Documents</text>
<text text-anchor="start" x="216" y="-18.5" font-family="Helvetica,sans-Serif" font-size="10.00">/git&#45;projects/openage/libopenage</text>
<text text-anchor="middle" x="290" y="-7.5" font-family="Helvetica,sans-Serif" font-size="10.00">/gui/guisys/public/gui_subtree.cpp</text>
</a>
</g>
</g>
<!-- Node9&#45;&gt;Node11 -->
<g id="edge3" class="edge"><title>Node9&#45;&gt;Node11</title>
<path fill="none" stroke="midnightblue" d="M223.637,-77.1898C237.569,-65.6035 253.652,-52.2284 266.495,-41.5472"/>
<polygon fill="midnightblue" stroke="midnightblue" points="221.174,-74.6859 215.723,-83.7711 225.65,-80.068 221.174,-74.6859"/>
</g>
</g>
</svg>
