<?xml version="1.0" encoding="UTF-8" standalone="no"?>
<!DOCTYPE svg PUBLIC "-//W3C//DTD SVG 1.1//EN"
 "http://www.w3.org/Graphics/SVG/1.1/DTD/svg11.dtd">
<!-- Generated by graphviz version 2.38.0 (20140413.2041)
 -->
<!-- Title: libopenage/gui/guisys/link/gui_property_map_impl.h Pages: 1 -->
<svg width="584pt" height="262pt"
 viewBox="0.00 0.00 584.00 262.00" xmlns="http://www.w3.org/2000/svg" xmlns:xlink="http://www.w3.org/1999/xlink">
<g id="graph0" class="graph" transform="scale(1 1) rotate(0) translate(4 258)">
<title>libopenage/gui/guisys/link/gui_property_map_impl.h</title>
<polygon fill="white" stroke="none" points="-4,4 -4,-258 580,-258 580,4 -4,4"/>
<!-- Node2 -->
<g id="node1" class="node"><title>Node2</title>
<g id="a_node1"><a xlink:title=" ">
<polygon fill="#bfbfbf" stroke="black" points="289.5,-212.5 289.5,-253.5 404.5,-253.5 404.5,-212.5 289.5,-212.5"/>
<text text-anchor="start" x="297.5" y="-241.5" font-family="Helvetica,sans-Serif" font-size="10.00">libopenage/gui/guisys</text>
<text text-anchor="start" x="297.5" y="-230.5" font-family="Helvetica,sans-Serif" font-size="10.00">/link/gui_property_map</text>
<text text-anchor="middle" x="347" y="-219.5" font-family="Helvetica,sans-Serif" font-size="10.00">_impl.h</text>
</a>
</g>
</g>
<!-- Node3 -->
<g id="node2" class="node"><title>Node3</title>
<g id="a_node2"><a xlink:href="gui__item__list__model_8h.xhtml" target="_top" xlink:title=" ">
<polygon fill="white" stroke="black" points="135,-140 135,-170 267,-170 267,-140 135,-140"/>
<text text-anchor="start" x="143" y="-158" font-family="Helvetica,sans-Serif" font-size="10.00">libopenage/gui/guisys</text>
<text text-anchor="middle" x="201" y="-147" font-family="Helvetica,sans-Serif" font-size="10.00">/link/gui_item_list_model.h</text>
</a>
</g>
</g>
<!-- Node2&#45;&gt;Node3 -->
<g id="edge1" class="edge"><title>Node2&#45;&gt;Node3</title>
<path fill="none" stroke="midnightblue" d="M300.524,-207.807C276.738,-195.425 248.604,-180.78 228.328,-170.225"/>
<polygon fill="midnightblue" stroke="midnightblue" points="298.915,-210.915 309.401,-212.428 302.147,-204.706 298.915,-210.915"/>
</g>
<!-- Node7 -->
<g id="node6" class="node"><title>Node7</title>
<g id="a_node6"><a xlink:href="generator__link_8cpp.xhtml" target="_top" xlink:title=" ">
<polygon fill="white" stroke="black" points="248,-0.5 248,-30.5 370,-30.5 370,-0.5 248,-0.5"/>
<text text-anchor="start" x="256" y="-18.5" font-family="Helvetica,sans-Serif" font-size="10.00">libopenage/gui/generator</text>
<text text-anchor="middle" x="309" y="-7.5" font-family="Helvetica,sans-Serif" font-size="10.00">_link.cpp</text>
</a>
</g>
</g>
<!-- Node2&#45;&gt;Node7 -->
<g id="edge6" class="edge"><title>Node2&#45;&gt;Node7</title>
<path fill="none" stroke="midnightblue" d="M333.222,-203.09C329.674,-194.541 326.23,-185.045 324,-176 311.083,-123.611 309.129,-59.0266 308.94,-30.8162"/>
<polygon fill="midnightblue" stroke="midnightblue" points="330.016,-204.493 337.215,-212.266 336.434,-201.7 330.016,-204.493"/>
</g>
<!-- Node8 -->
<g id="node7" class="node"><title>Node8</title>
<g id="a_node7"><a xlink:href="gui__property__map__impl_8cpp.xhtml" target="_top" xlink:title=" ">
<polygon fill="white" stroke="black" points="332.5,-134.5 332.5,-175.5 447.5,-175.5 447.5,-134.5 332.5,-134.5"/>
<text text-anchor="start" x="340.5" y="-163.5" font-family="Helvetica,sans-Serif" font-size="10.00">libopenage/gui/guisys</text>
<text text-anchor="start" x="340.5" y="-152.5" font-family="Helvetica,sans-Serif" font-size="10.00">/link/gui_property_map</text>
<text text-anchor="middle" x="390" y="-141.5" font-family="Helvetica,sans-Serif" font-size="10.00">_impl.cpp</text>
</a>
</g>
</g>
<!-- Node2&#45;&gt;Node8 -->
<g id="edge7" class="edge"><title>Node2&#45;&gt;Node8</title>
<path fill="none" stroke="midnightblue" d="M363.144,-203.466C368.419,-194.143 374.154,-184.007 378.964,-175.506"/>
<polygon fill="midnightblue" stroke="midnightblue" points="359.952,-202.001 358.074,-212.428 366.044,-205.448 359.952,-202.001"/>
</g>
<!-- Node9 -->
<g id="node8" class="node"><title>Node9</title>
<g id="a_node8"><a xlink:href="gui__property__map_8cpp.xhtml" target="_top" xlink:title=" ">
<polygon fill="white" stroke="black" points="466,-134.5 466,-175.5 576,-175.5 576,-134.5 466,-134.5"/>
<text text-anchor="start" x="474" y="-163.5" font-family="Helvetica,sans-Serif" font-size="10.00">libopenage/gui/guisys</text>
<text text-anchor="start" x="474" y="-152.5" font-family="Helvetica,sans-Serif" font-size="10.00">/public/gui_property</text>
<text text-anchor="middle" x="521" y="-141.5" font-family="Helvetica,sans-Serif" font-size="10.00">_map.cpp</text>
</a>
</g>
</g>
<!-- Node2&#45;&gt;Node9 -->
<g id="edge8" class="edge"><title>Node2&#45;&gt;Node9</title>
<path fill="none" stroke="midnightblue" d="M401.194,-208.329C425.338,-197.783 453.431,-185.513 476.343,-175.506"/>
<polygon fill="midnightblue" stroke="midnightblue" points="399.572,-205.218 391.809,-212.428 402.374,-211.633 399.572,-205.218"/>
</g>
<!-- Node4 -->
<g id="node3" class="node"><title>Node4</title>
<g id="a_node3"><a xlink:href="generator__link_8h.xhtml" target="_top" xlink:title=" ">
<polygon fill="white" stroke="black" points="121,-67.5 121,-97.5 243,-97.5 243,-67.5 121,-67.5"/>
<text text-anchor="start" x="129" y="-85.5" font-family="Helvetica,sans-Serif" font-size="10.00">libopenage/gui/generator</text>
<text text-anchor="middle" x="182" y="-74.5" font-family="Helvetica,sans-Serif" font-size="10.00">_link.h</text>
</a>
</g>
</g>
<!-- Node3&#45;&gt;Node4 -->
<g id="edge2" class="edge"><title>Node3&#45;&gt;Node4</title>
<path fill="none" stroke="midnightblue" d="M194.549,-130.064C191.654,-119.321 188.336,-107.01 185.839,-97.7455"/>
<polygon fill="midnightblue" stroke="midnightblue" points="191.173,-130.989 197.155,-139.733 197.932,-129.167 191.173,-130.989"/>
</g>
<!-- Node5 -->
<g id="node4" class="node"><title>Node5</title>
<g id="a_node4"><a xlink:href="game__creator_8cpp.xhtml" target="_top" xlink:title=" ">
<polygon fill="white" stroke="black" points="0,-0.5 0,-30.5 106,-30.5 106,-0.5 0,-0.5"/>
<text text-anchor="start" x="8" y="-18.5" font-family="Helvetica,sans-Serif" font-size="10.00">libopenage/gui/game</text>
<text text-anchor="middle" x="53" y="-7.5" font-family="Helvetica,sans-Serif" font-size="10.00">_creator.cpp</text>
</a>
</g>
</g>
<!-- Node4&#45;&gt;Node5 -->
<g id="edge3" class="edge"><title>Node4&#45;&gt;Node5</title>
<path fill="none" stroke="midnightblue" d="M144.993,-62.8533C124.597,-52.5761 99.6884,-40.0252 80.9365,-30.5765"/>
<polygon fill="midnightblue" stroke="midnightblue" points="143.504,-66.0217 154.009,-67.396 146.653,-59.7705 143.504,-66.0217"/>
</g>
<!-- Node6 -->
<g id="node5" class="node"><title>Node6</title>
<g id="a_node5"><a xlink:href="game__saver_8cpp.xhtml" target="_top" xlink:title=" ">
<polygon fill="white" stroke="black" points="124,-0.5 124,-30.5 230,-30.5 230,-0.5 124,-0.5"/>
<text text-anchor="start" x="132" y="-18.5" font-family="Helvetica,sans-Serif" font-size="10.00">libopenage/gui/game</text>
<text text-anchor="middle" x="177" y="-7.5" font-family="Helvetica,sans-Serif" font-size="10.00">_saver.cpp</text>
</a>
</g>
</g>
<!-- Node4&#45;&gt;Node6 -->
<g id="edge4" class="edge"><title>Node4&#45;&gt;Node6</title>
<path fill="none" stroke="midnightblue" d="M180.146,-57.4029C179.452,-48.3703 178.685,-38.4078 178.083,-30.5765"/>
<polygon fill="midnightblue" stroke="midnightblue" points="176.658,-57.6939 180.915,-67.396 183.638,-57.157 176.658,-57.6939"/>
</g>
<!-- Node4&#45;&gt;Node7 -->
<g id="edge5" class="edge"><title>Node4&#45;&gt;Node7</title>
<path fill="none" stroke="midnightblue" d="M218.704,-62.7143C238.734,-52.4631 263.119,-39.9826 281.497,-30.5765"/>
<polygon fill="midnightblue" stroke="midnightblue" points="216.864,-59.7242 209.557,-67.396 220.054,-65.9555 216.864,-59.7242"/>
</g>
</g>
</svg>
