<?xml version="1.0" encoding="UTF-8" standalone="no"?>
<!DOCTYPE svg PUBLIC "-//W3C//DTD SVG 1.1//EN"
 "http://www.w3.org/Graphics/SVG/1.1/DTD/svg11.dtd">
<!-- Generated by graphviz version 2.38.0 (20140413.2041)
 -->
<!-- Title: libopenage/gui/guisys/link/gui_item.h Pages: 1 -->
<!--zoomable 240 -->
<svg id="main" version="1.1" xmlns="http://www.w3.org/2000/svg" xmlns:xlink="http://www.w3.org/1999/xlink" xml:space="preserve" onload="init(evt)">
<style type="text/css"><![CDATA[
.edge:hover path { stroke: red; }
.edge:hover polygon { stroke: red; fill: red; }
]]></style>
<script type="text/javascript"><![CDATA[
var edges = document.getElementsByTagName('g');
if (edges && edges.length) {
  for (var i=0;i<edges.length;i++) {
    if (edges[i].id.substr(0,4)=='edge') {
      edges[i].setAttribute('class','edge');
    }
  }
}
]]></script>
        <defs>
                <circle id="rim" cx="0" cy="0" r="7"/>
                <circle id="rim2" cx="0" cy="0" r="3.5"/>
                <g id="zoomPlus">
                        <use xlink:href="#rim" fill="#404040">
                                <set attributeName="fill" to="#808080" begin="zoomplus.mouseover" end="zoomplus.mouseout"/>
                        </use>
                        <path d="M-4,0h8M0,-4v8" fill="none" stroke="white" stroke-width="1.5" pointer-events="none"/>
                </g>
                <g id="zoomMin">
                        <use xlink:href="#rim" fill="#404040">
                                <set attributeName="fill" to="#808080" begin="zoomminus.mouseover" end="zoomminus.mouseout"/>
                        </use>
                        <path d="M-4,0h8" fill="none" stroke="white" stroke-width="1.5" pointer-events="none"/>
                </g>
                <g id="dirArrow">
                        <path fill="none" stroke="white" stroke-width="1.5" d="M0,-3.0v7 M-2.5,-0.5L0,-3.0L2.5,-0.5"/>
                </g>
               <g id="resetDef">
                       <use xlink:href="#rim2" fill="#404040">
                               <set attributeName="fill" to="#808080" begin="reset.mouseover" end="reset.mouseout"/>
                       </use>
               </g>
        </defs>

<script type="text/javascript">
var viewWidth = 1029;
var viewHeight = 240;
var sectionId = 'dynsection-0';
</script>
<script xlink:href="svgpan.js"/>
<svg id="graph" class="graph">
<g id="viewport">
<title>libopenage/gui/guisys/link/gui_item.h</title>
<polygon fill="white" stroke="none" points="-4,4 -4,-236 1025,-236 1025,4 -4,4"/>
<!-- Node0 -->
<g id="node1" class="node"><title>Node0</title>
<g id="a_node1"><a xlink:title=" ">
<polygon fill="#bfbfbf" stroke="black" points="428,-201.5 428,-231.5 538,-231.5 538,-201.5 428,-201.5"/>
<text text-anchor="start" x="436" y="-219.5" font-family="Helvetica,sans-Serif" font-size="10.00">libopenage/gui/guisys</text>
<text text-anchor="middle" x="483" y="-208.5" font-family="Helvetica,sans-Serif" font-size="10.00">/link/gui_item.h</text>
</a>
</g>
</g>
<!-- Node1 -->
<g id="node2" class="node"><title>Node1</title>
<g id="a_node2"><a xlink:title=" ">
<polygon fill="white" stroke="#bfbfbf" points="0,-134.5 0,-153.5 52,-153.5 52,-134.5 0,-134.5"/>
<text text-anchor="middle" x="26" y="-141.5" font-family="Helvetica,sans-Serif" font-size="10.00">memory</text>
</a>
</g>
</g>
<!-- Node0&#45;&gt;Node1 -->
<g id="edge1" class="edge"><title>Node0&#45;&gt;Node1</title>
<path fill="none" stroke="midnightblue" d="M427.802,-214.784C346.796,-212.409 191.705,-202.797 66,-165 60.4235,-163.323 54.6813,-160.912 49.3491,-158.341"/>
<polygon fill="midnightblue" stroke="midnightblue" points="50.8077,-155.155 40.3182,-153.665 47.5887,-161.371 50.8077,-155.155"/>
</g>
<!-- Node2 -->
<g id="node3" class="node"><title>Node2</title>
<g id="a_node3"><a xlink:title=" ">
<polygon fill="white" stroke="#bfbfbf" points="96.5,-0.5 96.5,-19.5 145.5,-19.5 145.5,-0.5 96.5,-0.5"/>
<text text-anchor="middle" x="121" y="-7.5" font-family="Helvetica,sans-Serif" font-size="10.00">cassert</text>
</a>
</g>
</g>
<!-- Node0&#45;&gt;Node2 -->
<g id="edge2" class="edge"><title>Node0&#45;&gt;Node2</title>
<path fill="none" stroke="midnightblue" d="M427.693,-214.205C340.188,-211.088 175.103,-200.535 130,-165 90.438,-133.83 87.6473,-105.069 99,-56 101.23,-46.3627 105.821,-36.4052 110.236,-28.3149"/>
<polygon fill="midnightblue" stroke="midnightblue" points="113.351,-29.9216 115.362,-19.5194 107.303,-26.3968 113.351,-29.9216"/>
</g>
<!-- Node3 -->
<g id="node4" class="node"><title>Node3</title>
<g id="a_node4"><a xlink:title=" ">
<polygon fill="white" stroke="#bfbfbf" points="414,-62 414,-81 472,-81 472,-62 414,-62"/>
<text text-anchor="middle" x="443" y="-69" font-family="Helvetica,sans-Serif" font-size="10.00">functional</text>
</a>
</g>
</g>
<!-- Node0&#45;&gt;Node3 -->
<g id="edge3" class="edge"><title>Node0&#45;&gt;Node3</title>
<path fill="none" stroke="midnightblue" d="M476.183,-201.186C471.653,-191.221 465.851,-177.525 462,-165 454.302,-139.967 448.813,-110.156 445.773,-91.2788"/>
<polygon fill="midnightblue" stroke="midnightblue" points="449.219,-90.6605 444.234,-81.3119 442.301,-91.729 449.219,-90.6605"/>
</g>
<!-- Node4 -->
<g id="node5" class="node"><title>Node4</title>
<g id="a_node5"><a xlink:title=" ">
<polygon fill="white" stroke="#bfbfbf" points="236,-62 236,-81 298,-81 298,-62 236,-62"/>
<text text-anchor="middle" x="267" y="-69" font-family="Helvetica,sans-Serif" font-size="10.00">type_traits</text>
</a>
</g>
</g>
<!-- Node0&#45;&gt;Node4 -->
<g id="edge4" class="edge"><title>Node0&#45;&gt;Node4</title>
<path fill="none" stroke="midnightblue" d="M427.966,-208.772C374.814,-201.095 299.568,-186.721 280,-165 261.958,-144.973 261.865,-111.957 264.018,-91.2616"/>
<polygon fill="midnightblue" stroke="midnightblue" points="267.508,-91.5645 265.346,-81.1927 260.568,-90.6492 267.508,-91.5645"/>
</g>
<!-- Node5 -->
<g id="node6" class="node"><title>Node5</title>
<g id="a_node6"><a xlink:title=" ">
<polygon fill="white" stroke="#bfbfbf" points="633,-134.5 633,-153.5 683,-153.5 683,-134.5 633,-134.5"/>
<text text-anchor="middle" x="658" y="-141.5" font-family="Helvetica,sans-Serif" font-size="10.00">typeinfo</text>
</a>
</g>
</g>
<!-- Node0&#45;&gt;Node5 -->
<g id="edge5" class="edge"><title>Node0&#45;&gt;Node5</title>
<path fill="none" stroke="midnightblue" d="M524.873,-201.395C552.029,-191.896 587.996,-178.649 619,-165 623.631,-162.961 628.488,-160.632 633.141,-158.301"/>
<polygon fill="midnightblue" stroke="midnightblue" points="634.976,-161.293 642.267,-153.606 631.773,-155.069 634.976,-161.293"/>
</g>
<!-- Node6 -->
<g id="node7" class="node"><title>Node6</title>
<g id="a_node7"><a xlink:title=" ">
<polygon fill="white" stroke="#bfbfbf" points="701,-134.5 701,-153.5 741,-153.5 741,-134.5 701,-134.5"/>
<text text-anchor="middle" x="721" y="-141.5" font-family="Helvetica,sans-Serif" font-size="10.00">utility</text>
</a>
</g>
</g>
<!-- Node0&#45;&gt;Node6 -->
<g id="edge6" class="edge"><title>Node0&#45;&gt;Node6</title>
<path fill="none" stroke="midnightblue" d="M538.044,-207.862C581.264,-200.541 642.246,-187.244 692,-165 695.397,-163.481 698.818,-161.555 702.058,-159.5"/>
<polygon fill="midnightblue" stroke="midnightblue" points="704.332,-162.182 710.548,-153.602 700.338,-156.433 704.332,-162.182"/>
</g>
<!-- Node7 -->
<g id="node8" class="node"><title>Node7</title>
<g id="a_node8"><a xlink:title=" ">
<polygon fill="white" stroke="#bfbfbf" points="537.5,-62 537.5,-81 590.5,-81 590.5,-62 537.5,-62"/>
<text text-anchor="middle" x="564" y="-69" font-family="Helvetica,sans-Serif" font-size="10.00">QObject</text>
</a>
</g>
</g>
<!-- Node0&#45;&gt;Node7 -->
<g id="edge7" class="edge"><title>Node0&#45;&gt;Node7</title>
<path fill="none" stroke="midnightblue" d="M538.038,-201.489C556.537,-193.87 575.2,-182.323 586,-165 600.568,-141.633 586.809,-109.442 575.454,-89.8489"/>
<polygon fill="midnightblue" stroke="midnightblue" points="578.284,-87.7708 570.053,-81.1003 572.328,-91.448 578.284,-87.7708"/>
</g>
<!-- Node8 -->
<g id="node9" class="node"><title>Node8</title>
<g id="a_node9"><a xlink:title=" ">
<polygon fill="white" stroke="#bfbfbf" points="759.5,-134.5 759.5,-153.5 826.5,-153.5 826.5,-134.5 759.5,-134.5"/>
<text text-anchor="middle" x="793" y="-141.5" font-family="Helvetica,sans-Serif" font-size="10.00">QMetaType</text>
</a>
</g>
</g>
<!-- Node0&#45;&gt;Node8 -->
<g id="edge8" class="edge"><title>Node0&#45;&gt;Node8</title>
<path fill="none" stroke="midnightblue" d="M538.194,-209.134C592.889,-201.883 678.592,-187.964 750,-165 755.925,-163.095 762.1,-160.571 767.861,-157.959"/>
<polygon fill="midnightblue" stroke="midnightblue" points="769.53,-161.041 777.048,-153.577 766.516,-154.723 769.53,-161.041"/>
</g>
<!-- Node9 -->
<g id="node10" class="node"><title>Node9</title>
<g id="a_node10"><a xlink:title=" ">
<polygon fill="white" stroke="#bfbfbf" points="845,-134.5 845,-153.5 951,-153.5 951,-134.5 845,-134.5"/>
<text text-anchor="middle" x="898" y="-141.5" font-family="Helvetica,sans-Serif" font-size="10.00">QRegularExpression</text>
</a>
</g>
</g>
<!-- Node0&#45;&gt;Node9 -->
<g id="edge9" class="edge"><title>Node0&#45;&gt;Node9</title>
<path fill="none" stroke="midnightblue" d="M538.261,-210.53C608.205,-203.57 732.1,-189.007 836,-165 845.549,-162.794 855.738,-159.789 865.039,-156.78"/>
<polygon fill="midnightblue" stroke="midnightblue" points="866.334,-160.038 874.71,-153.55 864.117,-153.398 866.334,-160.038"/>
</g>
<!-- Node10 -->
<g id="node11" class="node"><title>Node10</title>
<g id="a_node11"><a xlink:title=" ">
<polygon fill="white" stroke="#bfbfbf" points="969,-134.5 969,-153.5 1021,-153.5 1021,-134.5 969,-134.5"/>
<text text-anchor="middle" x="995" y="-141.5" font-family="Helvetica,sans-Serif" font-size="10.00">QDebug</text>
</a>
</g>
</g>
<!-- Node0&#45;&gt;Node10 -->
<g id="edge10" class="edge"><title>Node0&#45;&gt;Node10</title>
<path fill="none" stroke="midnightblue" d="M538.181,-212.514C646.415,-206.19 882.734,-189.947 960,-165 964.824,-163.442 969.721,-161.165 974.262,-158.7"/>
<polygon fill="midnightblue" stroke="midnightblue" points="976.134,-161.659 982.949,-153.546 972.563,-155.638 976.134,-161.659"/>
</g>
<!-- Node11 -->
<g id="node12" class="node"><title>Node11</title>
<g id="a_node12"><a xlink:href="game__logic__caller_8h.xhtml" target="_top" xlink:title=" ">
<polygon fill="white" stroke="black" points="471,-129 471,-159 577,-159 577,-129 471,-129"/>
<text text-anchor="start" x="479" y="-147" font-family="Helvetica,sans-Serif" font-size="10.00">../private/game_logic</text>
<text text-anchor="middle" x="524" y="-136" font-family="Helvetica,sans-Serif" font-size="10.00">_caller.h</text>
</a>
</g>
</g>
<!-- Node0&#45;&gt;Node11 -->
<g id="edge11" class="edge"><title>Node0&#45;&gt;Node11</title>
<path fill="none" stroke="midnightblue" d="M491.297,-201.233C496.854,-191.677 504.293,-178.887 510.671,-167.919"/>
<polygon fill="midnightblue" stroke="midnightblue" points="513.714,-169.65 515.715,-159.246 507.662,-166.13 513.714,-169.65"/>
</g>
<!-- Node12 -->
<g id="node13" class="node"><title>Node12</title>
<g id="a_node13"><a xlink:href="deferred__initial__constant__property__values_8h.xhtml" target="_top" xlink:title=" ">
<polygon fill="white" stroke="black" points="289.5,-123.5 289.5,-164.5 414.5,-164.5 414.5,-123.5 289.5,-123.5"/>
<text text-anchor="start" x="297.5" y="-152.5" font-family="Helvetica,sans-Serif" font-size="10.00">../private/livereload</text>
<text text-anchor="start" x="297.5" y="-141.5" font-family="Helvetica,sans-Serif" font-size="10.00">/deferred_initial_constant</text>
<text text-anchor="middle" x="352" y="-130.5" font-family="Helvetica,sans-Serif" font-size="10.00">_property_values.h</text>
</a>
</g>
</g>
<!-- Node0&#45;&gt;Node12 -->
<g id="edge14" class="edge"><title>Node0&#45;&gt;Node12</title>
<path fill="none" stroke="midnightblue" d="M456.805,-201.403C439.841,-192.273 417.294,-180.139 397.46,-169.465"/>
<polygon fill="midnightblue" stroke="midnightblue" points="399.033,-166.337 388.568,-164.68 395.715,-172.501 399.033,-166.337"/>
</g>
<!-- Node14 -->
<g id="node15" class="node"><title>Node14</title>
<g id="a_node15"><a xlink:href="qtsdl__checked__static__cast_8h.xhtml" target="_top" xlink:title=" ">
<polygon fill="white" stroke="black" points="108.5,-56.5 108.5,-86.5 217.5,-86.5 217.5,-56.5 108.5,-56.5"/>
<text text-anchor="start" x="116.5" y="-74.5" font-family="Helvetica,sans-Serif" font-size="10.00">qtsdl_checked_static</text>
<text text-anchor="middle" x="163" y="-63.5" font-family="Helvetica,sans-Serif" font-size="10.00">_cast.h</text>
</a>
</g>
</g>
<!-- Node0&#45;&gt;Node14 -->
<g id="edge17" class="edge"><title>Node0&#45;&gt;Node14</title>
<path fill="none" stroke="midnightblue" d="M427.91,-215.682C341.017,-214.663 178.261,-207.027 142,-165 125.301,-145.646 136.574,-115.754 148.037,-95.2189"/>
<polygon fill="midnightblue" stroke="midnightblue" points="151.111,-96.8972 153.217,-86.5138 145.095,-93.3175 151.111,-96.8972"/>
</g>
<!-- Node15 -->
<g id="node16" class="node"><title>Node15</title>
<g id="a_node16"><a xlink:href="gui__item__link_8h.xhtml" target="_top" xlink:title=" ">
<polygon fill="white" stroke="black" points="151,-134.5 151,-153.5 233,-153.5 233,-134.5 151,-134.5"/>
<text text-anchor="middle" x="192" y="-141.5" font-family="Helvetica,sans-Serif" font-size="10.00">gui_item_link.h</text>
</a>
</g>
</g>
<!-- Node0&#45;&gt;Node15 -->
<g id="edge19" class="edge"><title>Node0&#45;&gt;Node15</title>
<path fill="none" stroke="midnightblue" d="M427.629,-205.888C379.461,-196.998 308.01,-182.53 247,-165 239.104,-162.731 230.709,-159.9 222.918,-157.089"/>
<polygon fill="midnightblue" stroke="midnightblue" points="224.048,-153.775 213.455,-153.582 221.615,-160.339 224.048,-153.775"/>
</g>
<!-- Node11&#45;&gt;Node3 -->
<g id="edge12" class="edge"><title>Node11&#45;&gt;Node3</title>
<path fill="none" stroke="midnightblue" d="M507.608,-128.733C494.133,-117.005 475.059,-100.404 461.13,-88.2797"/>
<polygon fill="midnightblue" stroke="midnightblue" points="463.059,-85.3184 453.218,-81.3932 458.463,-90.5985 463.059,-85.3184"/>
</g>
<!-- Node11&#45;&gt;Node7 -->
<g id="edge13" class="edge"><title>Node11&#45;&gt;Node7</title>
<path fill="none" stroke="midnightblue" d="M532.095,-128.733C538.372,-117.669 547.111,-102.267 553.855,-90.3798"/>
<polygon fill="midnightblue" stroke="midnightblue" points="557.064,-91.8179 558.954,-81.3932 550.975,-88.3635 557.064,-91.8179"/>
</g>
<!-- Node12&#45;&gt;Node3 -->
<g id="edge16" class="edge"><title>Node12&#45;&gt;Node3</title>
<path fill="none" stroke="midnightblue" d="M377.349,-123.362C392.016,-111.998 410.185,-97.9224 423.688,-87.4611"/>
<polygon fill="midnightblue" stroke="midnightblue" points="426.043,-90.0646 431.805,-81.1734 421.756,-84.531 426.043,-90.0646"/>
</g>
<!-- Node13 -->
<g id="node14" class="node"><title>Node13</title>
<g id="a_node14"><a xlink:title=" ">
<polygon fill="white" stroke="#bfbfbf" points="331,-62 331,-81 373,-81 373,-62 331,-62"/>
<text text-anchor="middle" x="352" y="-69" font-family="Helvetica,sans-Serif" font-size="10.00">vector</text>
</a>
</g>
</g>
<!-- Node12&#45;&gt;Node13 -->
<g id="edge15" class="edge"><title>Node12&#45;&gt;Node13</title>
<path fill="none" stroke="midnightblue" d="M352,-123.362C352,-113.297 352,-101.104 352,-91.18"/>
<polygon fill="midnightblue" stroke="midnightblue" points="355.5,-91.1733 352,-81.1734 348.5,-91.1734 355.5,-91.1733"/>
</g>
<!-- Node14&#45;&gt;Node2 -->
<g id="edge18" class="edge"><title>Node14&#45;&gt;Node2</title>
<path fill="none" stroke="midnightblue" d="M153.047,-56.3993C147.006,-47.8424 139.262,-36.8708 132.899,-27.857"/>
<polygon fill="midnightblue" stroke="midnightblue" points="135.738,-25.8091 127.111,-19.6578 130.019,-29.8459 135.738,-25.8091"/>
</g>
<!-- Node15&#45;&gt;Node4 -->
<g id="edge20" class="edge"><title>Node15&#45;&gt;Node4</title>
<path fill="none" stroke="midnightblue" d="M201.196,-134.355C213.342,-122.939 234.957,-102.62 250.09,-88.3957"/>
<polygon fill="midnightblue" stroke="midnightblue" points="252.839,-90.6147 257.728,-81.2154 248.045,-85.5143 252.839,-90.6147"/>
</g>
<!-- Node15&#45;&gt;Node14 -->
<g id="edge21" class="edge"><title>Node15&#45;&gt;Node14</title>
<path fill="none" stroke="midnightblue" d="M188.444,-134.355C184.539,-124.862 178.102,-109.214 172.68,-96.0325"/>
<polygon fill="midnightblue" stroke="midnightblue" points="175.831,-94.4928 168.79,-86.5762 169.358,-97.1558 175.831,-94.4928"/>
</g>
</g>
</svg>
        <g id="navigator" transform="translate(0 0)" fill="#404254">
                <rect fill="#f2f5e9" fill-opacity="0.5" stroke="#606060" stroke-width=".5" x="0" y="0" width="60" height="60"/>
                <use id="zoomplus" xlink:href="#zoomPlus" x="17" y="9" onmousedown="handleZoom(evt,'in')"/>
                <use id="zoomminus" xlink:href="#zoomMin" x="42" y="9" onmousedown="handleZoom(evt,'out')"/>
                <use id="reset" xlink:href="#resetDef" x="30" y="36" onmousedown="handleReset()"/>
                <g id="arrowUp" xlink:href="#dirArrow" transform="translate(30 24)" onmousedown="handlePan(0,-1)">
                  <use xlink:href="#rim" fill="#404040">
                        <set attributeName="fill" to="#808080" begin="arrowUp.mouseover" end="arrowUp.mouseout"/>
                  </use>
                  <path fill="none" stroke="white" stroke-width="1.5" d="M0,-3.0v7 M-2.5,-0.5L0,-3.0L2.5,-0.5"/>
                </g>
                <g id="arrowRight" xlink:href="#dirArrow" transform="rotate(90) translate(36 -43)" onmousedown="handlePan(1,0)">
                  <use xlink:href="#rim" fill="#404040">
                        <set attributeName="fill" to="#808080" begin="arrowRight.mouseover" end="arrowRight.mouseout"/>
                  </use>
                  <path fill="none" stroke="white" stroke-width="1.5" d="M0,-3.0v7 M-2.5,-0.5L0,-3.0L2.5,-0.5"/>
                </g>
                <g id="arrowDown" xlink:href="#dirArrow" transform="rotate(180) translate(-30 -48)" onmousedown="handlePan(0,1)">
                  <use xlink:href="#rim" fill="#404040">
                        <set attributeName="fill" to="#808080" begin="arrowDown.mouseover" end="arrowDown.mouseout"/>
                  </use>
                  <path fill="none" stroke="white" stroke-width="1.5" d="M0,-3.0v7 M-2.5,-0.5L0,-3.0L2.5,-0.5"/>
                </g>
                <g id="arrowLeft" xlink:href="#dirArrow" transform="rotate(270) translate(-36 17)" onmousedown="handlePan(-1,0)">
                  <use xlink:href="#rim" fill="#404040">
                        <set attributeName="fill" to="#808080" begin="arrowLeft.mouseover" end="arrowLeft.mouseout"/>
                  </use>
                  <path fill="none" stroke="white" stroke-width="1.5" d="M0,-3.0v7 M-2.5,-0.5L0,-3.0L2.5,-0.5"/>
                </g>
        </g>
        <svg viewBox="0 0 15 15" width="100%" height="30px" preserveAspectRatio="xMaxYMin meet">
         <g id="arrow_out" transform="scale(0.3 0.3)">
          <a xlink:href="gui__item_8h__incl_org.svg" target="_base">
           <rect id="button" ry="5" rx="5" y="6" x="6" height="38" width="38"
                fill="#f2f5e9" fill-opacity="0.5" stroke="#606060" stroke-width="1.0"/>
           <path id="arrow"
             d="M 11.500037,31.436501 C 11.940474,20.09759 22.043105,11.32322 32.158766,21.979434 L 37.068811,17.246167 C 37.068811,17.246167 37.088388,32 37.088388,32 L 22.160133,31.978069 C 22.160133,31.978069 26.997745,27.140456 26.997745,27.140456 C 18.528582,18.264221 13.291696,25.230495 11.500037,31.436501 z"
             style="fill:#404040;"/>
          </a>
         </g>
        </svg>
</svg>
