<?xml version="1.0" encoding="UTF-8" standalone="no"?>
<!DOCTYPE svg PUBLIC "-//W3C//DTD SVG 1.1//EN"
 "http://www.w3.org/Graphics/SVG/1.1/DTD/svg11.dtd">
<!-- Generated by graphviz version 2.38.0 (20140413.2041)
 -->
<!-- Title: libopenage/gui/guisys/private/gui_rendering_setup_routines.cpp Pages: 1 -->
<svg width="561pt" height="173pt"
 viewBox="0.00 0.00 561.00 173.00" xmlns="http://www.w3.org/2000/svg" xmlns:xlink="http://www.w3.org/1999/xlink">
<g id="graph0" class="graph" transform="scale(1 1) rotate(0) translate(4 169)">
<title>libopenage/gui/guisys/private/gui_rendering_setup_routines.cpp</title>
<polygon fill="white" stroke="none" points="-4,4 -4,-169 557,-169 557,4 -4,4"/>
<!-- Node0 -->
<g id="node1" class="node"><title>Node0</title>
<g id="a_node1"><a xlink:title=" ">
<polygon fill="#bfbfbf" stroke="black" points="126,-123.5 126,-164.5 236,-164.5 236,-123.5 126,-123.5"/>
<text text-anchor="start" x="134" y="-152.5" font-family="Helvetica,sans-Serif" font-size="10.00">libopenage/gui/guisys</text>
<text text-anchor="start" x="134" y="-141.5" font-family="Helvetica,sans-Serif" font-size="10.00">/private/gui_rendering</text>
<text text-anchor="middle" x="181" y="-130.5" font-family="Helvetica,sans-Serif" font-size="10.00">_setup_routines.cpp</text>
</a>
</g>
</g>
<!-- Node1 -->
<g id="node2" class="node"><title>Node1</title>
<g id="a_node2"><a xlink:href="gui__rendering__setup__routines_8h.xhtml" target="_top" xlink:title=" ">
<polygon fill="white" stroke="black" points="0,-56.5 0,-86.5 104,-86.5 104,-56.5 0,-56.5"/>
<text text-anchor="start" x="8" y="-74.5" font-family="Helvetica,sans-Serif" font-size="10.00">gui_rendering_setup</text>
<text text-anchor="middle" x="52" y="-63.5" font-family="Helvetica,sans-Serif" font-size="10.00">_routines.h</text>
</a>
</g>
</g>
<!-- Node0&#45;&gt;Node1 -->
<g id="edge1" class="edge"><title>Node0&#45;&gt;Node1</title>
<path fill="none" stroke="midnightblue" d="M145.066,-123.362C126.91,-113.439 104.968,-101.448 86.9513,-91.6013"/>
<polygon fill="midnightblue" stroke="midnightblue" points="88.3817,-88.3945 77.9281,-86.67 85.0247,-94.537 88.3817,-88.3945"/>
</g>
<!-- Node4 -->
<g id="node5" class="node"><title>Node4</title>
<g id="a_node5"><a xlink:title=" ">
<polygon fill="white" stroke="#bfbfbf" points="122.5,-62 122.5,-81 171.5,-81 171.5,-62 122.5,-62"/>
<text text-anchor="middle" x="147" y="-69" font-family="Helvetica,sans-Serif" font-size="10.00">cassert</text>
</a>
</g>
</g>
<!-- Node0&#45;&gt;Node4 -->
<g id="edge4" class="edge"><title>Node0&#45;&gt;Node4</title>
<path fill="none" stroke="midnightblue" d="M171.529,-123.362C166.519,-112.972 160.415,-100.315 155.549,-90.2268"/>
<polygon fill="midnightblue" stroke="midnightblue" points="158.679,-88.6602 151.183,-81.1734 152.374,-91.701 158.679,-88.6602"/>
</g>
<!-- Node5 -->
<g id="node6" class="node"><title>Node5</title>
<g id="a_node6"><a xlink:title=" ">
<polygon fill="white" stroke="#bfbfbf" points="190,-62 190,-81 242,-81 242,-62 190,-62"/>
<text text-anchor="middle" x="216" y="-69" font-family="Helvetica,sans-Serif" font-size="10.00">QDebug</text>
</a>
</g>
</g>
<!-- Node0&#45;&gt;Node5 -->
<g id="edge5" class="edge"><title>Node0&#45;&gt;Node5</title>
<path fill="none" stroke="midnightblue" d="M190.749,-123.362C195.907,-112.972 202.191,-100.315 207.199,-90.2268"/>
<polygon fill="midnightblue" stroke="midnightblue" points="210.382,-91.6867 211.694,-81.1734 204.112,-88.574 210.382,-91.6867"/>
</g>
<!-- Node6 -->
<g id="node7" class="node"><title>Node6</title>
<g id="a_node7"><a xlink:href="gui__ctx__setup_8h.xhtml" target="_top" xlink:title=" ">
<polygon fill="white" stroke="black" points="260,-62 260,-81 346,-81 346,-62 260,-62"/>
<text text-anchor="middle" x="303" y="-69" font-family="Helvetica,sans-Serif" font-size="10.00">gui_ctx_setup.h</text>
</a>
</g>
</g>
<!-- Node0&#45;&gt;Node6 -->
<g id="edge6" class="edge"><title>Node0&#45;&gt;Node6</title>
<path fill="none" stroke="midnightblue" d="M214.984,-123.362C235.397,-111.565 260.869,-96.846 279.151,-86.2816"/>
<polygon fill="midnightblue" stroke="midnightblue" points="281.084,-89.2072 287.991,-81.1734 277.581,-83.1464 281.084,-89.2072"/>
</g>
<!-- Node2 -->
<g id="node3" class="node"><title>Node2</title>
<g id="a_node3"><a xlink:title=" ">
<polygon fill="white" stroke="#bfbfbf" points="112,-0.5 112,-19.5 164,-19.5 164,-0.5 112,-0.5"/>
<text text-anchor="middle" x="138" y="-7.5" font-family="Helvetica,sans-Serif" font-size="10.00">memory</text>
</a>
</g>
</g>
<!-- Node1&#45;&gt;Node2 -->
<g id="edge2" class="edge"><title>Node1&#45;&gt;Node2</title>
<path fill="none" stroke="midnightblue" d="M72.3808,-56.3993C85.9083,-47.0402 103.611,-34.7924 117.22,-25.3771"/>
<polygon fill="midnightblue" stroke="midnightblue" points="119.254,-28.2257 125.486,-19.6578 115.271,-22.4692 119.254,-28.2257"/>
</g>
<!-- Node3 -->
<g id="node4" class="node"><title>Node3</title>
<g id="a_node4"><a xlink:title=" ">
<polygon fill="white" stroke="#bfbfbf" points="24.5,-0.5 24.5,-19.5 79.5,-19.5 79.5,-0.5 24.5,-0.5"/>
<text text-anchor="middle" x="52" y="-7.5" font-family="Helvetica,sans-Serif" font-size="10.00">QtGlobal</text>
</a>
</g>
</g>
<!-- Node1&#45;&gt;Node3 -->
<g id="edge3" class="edge"><title>Node1&#45;&gt;Node3</title>
<path fill="none" stroke="midnightblue" d="M52,-56.3993C52,-48.4664 52,-38.458 52,-29.8583"/>
<polygon fill="midnightblue" stroke="midnightblue" points="55.5001,-29.6577 52,-19.6578 48.5001,-29.6578 55.5001,-29.6577"/>
</g>
<!-- Node6&#45;&gt;Node2 -->
<g id="edge8" class="edge"><title>Node6&#45;&gt;Node2</title>
<path fill="none" stroke="midnightblue" d="M279.36,-61.9751C251.056,-51.7687 203.467,-34.608 171.414,-23.0492"/>
<polygon fill="midnightblue" stroke="midnightblue" points="172.191,-19.6089 161.597,-19.5091 169.816,-26.1939 172.191,-19.6089"/>
</g>
<!-- Node7 -->
<g id="node8" class="node"><title>Node7</title>
<g id="a_node8"><a xlink:title=" ">
<polygon fill="white" stroke="#bfbfbf" points="189.5,-0.5 189.5,-19.5 248.5,-19.5 248.5,-0.5 189.5,-0.5"/>
<text text-anchor="middle" x="219" y="-7.5" font-family="Helvetica,sans-Serif" font-size="10.00">stdexcept</text>
</a>
</g>
</g>
<!-- Node6&#45;&gt;Node7 -->
<g id="edge7" class="edge"><title>Node6&#45;&gt;Node7</title>
<path fill="none" stroke="midnightblue" d="M290.965,-61.9751C277.492,-52.4315 255.434,-36.8073 239.285,-25.3683"/>
<polygon fill="midnightblue" stroke="midnightblue" points="241.196,-22.4332 231.013,-19.5091 237.15,-28.1454 241.196,-22.4332"/>
</g>
<!-- Node8 -->
<g id="node9" class="node"><title>Node8</title>
<g id="a_node9"><a xlink:title=" ">
<polygon fill="white" stroke="#bfbfbf" points="267,-0.5 267,-19.5 325,-19.5 325,-0.5 267,-0.5"/>
<text text-anchor="middle" x="296" y="-7.5" font-family="Helvetica,sans-Serif" font-size="10.00">functional</text>
</a>
</g>
</g>
<!-- Node6&#45;&gt;Node8 -->
<g id="edge9" class="edge"><title>Node6&#45;&gt;Node8</title>
<path fill="none" stroke="midnightblue" d="M301.997,-61.9751C301.009,-53.5803 299.468,-40.4806 298.196,-29.6631"/>
<polygon fill="midnightblue" stroke="midnightblue" points="301.646,-29.0316 297.001,-19.5091 294.694,-29.8496 301.646,-29.0316"/>
</g>
<!-- Node9 -->
<g id="node10" class="node"><title>Node9</title>
<g id="a_node10"><a xlink:title=" ">
<polygon fill="white" stroke="#bfbfbf" points="343,-0.5 343,-19.5 437,-19.5 437,-0.5 343,-0.5"/>
<text text-anchor="middle" x="390" y="-7.5" font-family="Helvetica,sans-Serif" font-size="10.00">QOpenGLContext</text>
</a>
</g>
</g>
<!-- Node6&#45;&gt;Node9 -->
<g id="edge10" class="edge"><title>Node6&#45;&gt;Node9</title>
<path fill="none" stroke="midnightblue" d="M315.465,-61.9751C329.419,-52.4315 352.265,-36.8073 368.991,-25.3683"/>
<polygon fill="midnightblue" stroke="midnightblue" points="371.28,-28.0433 377.558,-19.5091 367.328,-22.2653 371.28,-28.0433"/>
</g>
<!-- Node10 -->
<g id="node11" class="node"><title>Node10</title>
<g id="a_node11"><a xlink:title=" ">
<polygon fill="white" stroke="#bfbfbf" points="455,-0.5 455,-19.5 553,-19.5 553,-0.5 455,-0.5"/>
<text text-anchor="middle" x="504" y="-7.5" font-family="Helvetica,sans-Serif" font-size="10.00">QOffscreenSurface</text>
</a>
</g>
</g>
<!-- Node6&#45;&gt;Node10 -->
<g id="edge11" class="edge"><title>Node6&#45;&gt;Node10</title>
<path fill="none" stroke="midnightblue" d="M331.798,-61.9751C366.874,-51.592 426.263,-34.0116 465.307,-22.4538"/>
<polygon fill="midnightblue" stroke="midnightblue" points="466.66,-25.7036 475.255,-19.5091 464.673,-18.9916 466.66,-25.7036"/>
</g>
</g>
</svg>
