<?xml version="1.0" encoding="UTF-8" standalone="no"?>
<!DOCTYPE svg PUBLIC "-//W3C//DTD SVG 1.1//EN"
 "http://www.w3.org/Graphics/SVG/1.1/DTD/svg11.dtd">
<!-- Generated by graphviz version 2.38.0 (20140413.2041)
 -->
<!-- Title: libopenage/gui/guisys/public/gui_input.h Pages: 1 -->
<svg width="310pt" height="162pt"
 viewBox="0.00 0.00 309.50 162.00" xmlns="http://www.w3.org/2000/svg" xmlns:xlink="http://www.w3.org/1999/xlink">
<g id="graph0" class="graph" transform="scale(1 1) rotate(0) translate(4 158)">
<title>libopenage/gui/guisys/public/gui_input.h</title>
<polygon fill="white" stroke="none" points="-4,4 -4,-158 305.5,-158 305.5,4 -4,4"/>
<!-- Node3 -->
<g id="node1" class="node"><title>Node3</title>
<g id="a_node1"><a xlink:title=" ">
<polygon fill="#bfbfbf" stroke="black" points="128.5,-123.5 128.5,-153.5 238.5,-153.5 238.5,-123.5 128.5,-123.5"/>
<text text-anchor="start" x="136.5" y="-141.5" font-family="Helvetica,sans-Serif" font-size="10.00">libopenage/gui/guisys</text>
<text text-anchor="middle" x="183.5" y="-130.5" font-family="Helvetica,sans-Serif" font-size="10.00">/public/gui_input.h</text>
</a>
</g>
</g>
<!-- Node4 -->
<g id="node2" class="node"><title>Node4</title>
<g id="a_node2"><a xlink:href="gui_2gui_8h.xhtml" target="_top" xlink:title=" ">
<polygon fill="white" stroke="black" points="70,-62 70,-81 173,-81 173,-62 70,-62"/>
<text text-anchor="middle" x="121.5" y="-69" font-family="Helvetica,sans-Serif" font-size="10.00">libopenage/gui/gui.h</text>
</a>
</g>
</g>
<!-- Node3&#45;&gt;Node4 -->
<g id="edge1" class="edge"><title>Node3&#45;&gt;Node4</title>
<path fill="none" stroke="midnightblue" d="M162.989,-115.997C151.672,-104.132 138.241,-90.0516 129.793,-81.1945"/>
<polygon fill="midnightblue" stroke="midnightblue" points="160.612,-118.576 170.047,-123.396 165.677,-113.744 160.612,-118.576"/>
</g>
<!-- Node7 -->
<g id="node5" class="node"><title>Node7</title>
<g id="a_node5"><a xlink:href="gui__input_8cpp.xhtml" target="_top" xlink:title=" ">
<polygon fill="white" stroke="black" points="191.5,-56.5 191.5,-86.5 301.5,-86.5 301.5,-56.5 191.5,-56.5"/>
<text text-anchor="start" x="199.5" y="-74.5" font-family="Helvetica,sans-Serif" font-size="10.00">libopenage/gui/guisys</text>
<text text-anchor="middle" x="246.5" y="-63.5" font-family="Helvetica,sans-Serif" font-size="10.00">/public/gui_input.cpp</text>
</a>
</g>
</g>
<!-- Node3&#45;&gt;Node7 -->
<g id="edge4" class="edge"><title>Node3&#45;&gt;Node7</title>
<path fill="none" stroke="midnightblue" d="M204.315,-116.024C213.701,-106.34 224.524,-95.1739 232.857,-86.5765"/>
<polygon fill="midnightblue" stroke="midnightblue" points="201.617,-113.779 197.17,-123.396 206.643,-118.651 201.617,-113.779"/>
</g>
<!-- Node5 -->
<g id="node3" class="node"><title>Node5</title>
<g id="a_node3"><a xlink:href="engine_8cpp.xhtml" target="_top" xlink:title=" ">
<polygon fill="white" stroke="black" points="0,-0.5 0,-19.5 113,-19.5 113,-0.5 0,-0.5"/>
<text text-anchor="middle" x="56.5" y="-7.5" font-family="Helvetica,sans-Serif" font-size="10.00">libopenage/engine.cpp</text>
</a>
</g>
</g>
<!-- Node4&#45;&gt;Node5 -->
<g id="edge2" class="edge"><title>Node4&#45;&gt;Node5</title>
<path fill="none" stroke="midnightblue" d="M104.731,-55.1496C92.3383,-43.8058 75.9247,-28.7811 65.7956,-19.5091"/>
<polygon fill="midnightblue" stroke="midnightblue" points="102.448,-57.8047 112.187,-61.9751 107.174,-52.6413 102.448,-57.8047"/>
</g>
<!-- Node6 -->
<g id="node4" class="node"><title>Node6</title>
<g id="a_node4"><a xlink:href="gui_2gui_8cpp.xhtml" target="_top" xlink:title=" ">
<polygon fill="white" stroke="black" points="131,-0.5 131,-19.5 244,-19.5 244,-0.5 131,-0.5"/>
<text text-anchor="middle" x="187.5" y="-7.5" font-family="Helvetica,sans-Serif" font-size="10.00">libopenage/gui/gui.cpp</text>
</a>
</g>
</g>
<!-- Node4&#45;&gt;Node6 -->
<g id="edge3" class="edge"><title>Node4&#45;&gt;Node6</title>
<path fill="none" stroke="midnightblue" d="M138.527,-55.1496C151.11,-43.8058 167.776,-28.7811 178.061,-19.5091"/>
<polygon fill="midnightblue" stroke="midnightblue" points="136.04,-52.6796 130.956,-61.9751 140.727,-57.8788 136.04,-52.6796"/>
</g>
</g>
</svg>
