<?xml version="1.0" encoding="UTF-8" standalone="no"?>
<!DOCTYPE svg PUBLIC "-//W3C//DTD SVG 1.1//EN"
 "http://www.w3.org/Graphics/SVG/1.1/DTD/svg11.dtd">
<!-- Generated by graphviz version 2.38.0 (20140413.2041)
 -->
<!-- Title: C:/Users/Jameson/Documents/git&#45;projects/openage/libopenage/gui/integration/private/gui_texture_handle.cpp Pages: 1 -->
<svg width="1492pt" height="565pt"
 viewBox="0.00 0.00 1492.00 565.45" xmlns="http://www.w3.org/2000/svg" xmlns:xlink="http://www.w3.org/1999/xlink">
<g id="graph0" class="graph" transform="scale(1 1) rotate(0) translate(4 561.452)">
<title>C:/Users/Jameson/Documents/git&#45;projects/openage/libopenage/gui/integration/private/gui_texture_handle.cpp</title>
<polygon fill="white" stroke="none" points="-4,4 -4,-561.452 1488,-561.452 1488,4 -4,4"/>
<!-- Node0 -->
<g id="node1" class="node"><title>Node0</title>
<g id="a_node1"><a xlink:title=" ">
<polygon fill="#bfbfbf" stroke="black" points="216.5,-504.952 216.5,-556.952 373.5,-556.952 373.5,-504.952 216.5,-504.952"/>
<text text-anchor="start" x="224.5" y="-544.952" font-family="Helvetica,sans-Serif" font-size="10.00">C:/Users/Jameson/Documents</text>
<text text-anchor="start" x="224.5" y="-533.952" font-family="Helvetica,sans-Serif" font-size="10.00">/git&#45;projects/openage/libopenage</text>
<text text-anchor="start" x="224.5" y="-522.952" font-family="Helvetica,sans-Serif" font-size="10.00">/gui/integration/private/gui</text>
<text text-anchor="middle" x="295" y="-511.952" font-family="Helvetica,sans-Serif" font-size="10.00">_texture_handle.cpp</text>
</a>
</g>
</g>
<!-- Node1 -->
<g id="node2" class="node"><title>Node1</title>
<g id="a_node2"><a xlink:href="gui__texture__handle_8h.xhtml" target="_top" xlink:title=" ">
<polygon fill="white" stroke="black" points="62.5,-448.952 62.5,-467.952 169.5,-467.952 169.5,-448.952 62.5,-448.952"/>
<text text-anchor="middle" x="116" y="-455.952" font-family="Helvetica,sans-Serif" font-size="10.00">gui_texture_handle.h</text>
</a>
</g>
</g>
<!-- Node0&#45;&gt;Node1 -->
<g id="edge1" class="edge"><title>Node0&#45;&gt;Node1</title>
<path fill="none" stroke="midnightblue" d="M231.387,-504.897C202.723,-493.608 170.183,-480.792 146.983,-471.654"/>
<polygon fill="midnightblue" stroke="midnightblue" points="148.237,-468.387 137.65,-467.979 145.672,-474.9 148.237,-468.387"/>
</g>
<!-- Node3 -->
<g id="node4" class="node"><title>Node3</title>
<g id="a_node4"><a xlink:title=" ">
<polygon fill="white" stroke="#bfbfbf" points="269.5,-448.952 269.5,-467.952 320.5,-467.952 320.5,-448.952 269.5,-448.952"/>
<text text-anchor="middle" x="295" y="-455.952" font-family="Helvetica,sans-Serif" font-size="10.00">numeric</text>
</a>
</g>
</g>
<!-- Node0&#45;&gt;Node3 -->
<g id="edge3" class="edge"><title>Node0&#45;&gt;Node3</title>
<path fill="none" stroke="midnightblue" d="M295,-504.897C295,-496.182 295,-486.556 295,-478.416"/>
<polygon fill="midnightblue" stroke="midnightblue" points="298.5,-478.147 295,-468.147 291.5,-478.147 298.5,-478.147"/>
</g>
<!-- Node4 -->
<g id="node5" class="node"><title>Node4</title>
<g id="a_node5"><a xlink:href="texture_8h.xhtml" target="_top" xlink:title=" ">
<polygon fill="white" stroke="black" points="380,-448.952 380,-467.952 462,-467.952 462,-448.952 380,-448.952"/>
<text text-anchor="middle" x="421" y="-455.952" font-family="Helvetica,sans-Serif" font-size="10.00">../../../texture.h</text>
</a>
</g>
</g>
<!-- Node0&#45;&gt;Node4 -->
<g id="edge4" class="edge"><title>Node0&#45;&gt;Node4</title>
<path fill="none" stroke="midnightblue" d="M339.778,-504.897C359.054,-494.112 380.82,-481.933 396.965,-472.9"/>
<polygon fill="midnightblue" stroke="midnightblue" points="398.742,-475.916 405.76,-467.979 395.324,-469.807 398.742,-475.916"/>
</g>
<!-- Node2 -->
<g id="node3" class="node"><title>Node2</title>
<g id="a_node3"><a xlink:title=" ">
<polygon fill="white" stroke="#bfbfbf" points="0,-392.952 0,-411.952 44,-411.952 44,-392.952 0,-392.952"/>
<text text-anchor="middle" x="22" y="-399.952" font-family="Helvetica,sans-Serif" font-size="10.00">QSize</text>
</a>
</g>
</g>
<!-- Node1&#45;&gt;Node2 -->
<g id="edge2" class="edge"><title>Node1&#45;&gt;Node2</title>
<path fill="none" stroke="midnightblue" d="M100.897,-448.776C86.0967,-440.273 63.3058,-427.18 46.0178,-417.249"/>
<polygon fill="midnightblue" stroke="midnightblue" points="47.4798,-414.053 37.0652,-412.106 43.9929,-420.122 47.4798,-414.053"/>
</g>
<!-- Node5 -->
<g id="node6" class="node"><title>Node5</title>
<g id="a_node6"><a xlink:title=" ">
<polygon fill="white" stroke="#bfbfbf" points="58,-336.952 58,-355.952 120,-355.952 120,-336.952 58,-336.952"/>
<text text-anchor="middle" x="89" y="-343.952" font-family="Helvetica,sans-Serif" font-size="10.00">epoxy/gl.h</text>
</a>
</g>
</g>
<!-- Node4&#45;&gt;Node5 -->
<g id="edge5" class="edge"><title>Node4&#45;&gt;Node5</title>
<path fill="none" stroke="midnightblue" d="M379.745,-453.061C334.682,-447.345 260.933,-435.272 201,-412.452 191.718,-408.917 141.88,-379.288 111.901,-361.276"/>
<polygon fill="midnightblue" stroke="midnightblue" points="113.675,-358.258 103.302,-356.1 110.065,-364.256 113.675,-358.258"/>
</g>
<!-- Node6 -->
<g id="node7" class="node"><title>Node6</title>
<g id="a_node7"><a xlink:title=" ">
<polygon fill="white" stroke="#bfbfbf" points="776,-168.952 776,-187.952 818,-187.952 818,-168.952 776,-168.952"/>
<text text-anchor="middle" x="797" y="-175.952" font-family="Helvetica,sans-Serif" font-size="10.00">vector</text>
</a>
</g>
</g>
<!-- Node4&#45;&gt;Node6 -->
<g id="edge6" class="edge"><title>Node4&#45;&gt;Node6</title>
<path fill="none" stroke="midnightblue" d="M462.101,-456.75C536.228,-454.642 688.218,-446.207 727,-412.452 749.703,-392.691 746,-377.549 746,-347.452 746,-347.452 746,-347.452 746,-289.452 746,-253.696 768.454,-216.96 783.564,-196.287"/>
<polygon fill="midnightblue" stroke="midnightblue" points="786.43,-198.3 789.693,-188.22 780.856,-194.065 786.43,-198.3"/>
</g>
<!-- Node7 -->
<g id="node8" class="node"><title>Node7</title>
<g id="a_node8"><a xlink:title=" ">
<polygon fill="white" stroke="#bfbfbf" points="643,-56.9516 643,-75.9516 695,-75.9516 695,-56.9516 643,-56.9516"/>
<text text-anchor="middle" x="669" y="-63.9516" font-family="Helvetica,sans-Serif" font-size="10.00">memory</text>
</a>
</g>
</g>
<!-- Node4&#45;&gt;Node7 -->
<g id="edge7" class="edge"><title>Node4&#45;&gt;Node7</title>
<path fill="none" stroke="midnightblue" d="M443.097,-448.83C503.239,-425.314 665.619,-361.479 669,-356.452 726.926,-270.316 691.227,-134.655 675.397,-85.7714"/>
<polygon fill="midnightblue" stroke="midnightblue" points="678.614,-84.3575 672.113,-75.9919 671.978,-86.5859 678.614,-84.3575"/>
</g>
<!-- Node8 -->
<g id="node9" class="node"><title>Node8</title>
<g id="a_node9"><a xlink:title=" ">
<polygon fill="white" stroke="#bfbfbf" points="598.5,-392.952 598.5,-411.952 717.5,-411.952 717.5,-392.952 598.5,-392.952"/>
<text text-anchor="middle" x="658" y="-399.952" font-family="Helvetica,sans-Serif" font-size="10.00">gamedata/texture.gen.h</text>
</a>
</g>
</g>
<!-- Node4&#45;&gt;Node8 -->
<g id="edge8" class="edge"><title>Node4&#45;&gt;Node8</title>
<path fill="none" stroke="midnightblue" d="M458.553,-448.895C499.811,-439.495 566.144,-424.381 610.866,-414.191"/>
<polygon fill="midnightblue" stroke="midnightblue" points="611.65,-417.602 620.622,-411.968 610.095,-410.777 611.65,-417.602"/>
</g>
<!-- Node9 -->
<g id="node10" class="node"><title>Node9</title>
<g id="a_node10"><a xlink:href="pixel_8h.xhtml" target="_top" xlink:title=" ">
<polygon fill="white" stroke="black" points="333,-392.952 333,-411.952 405,-411.952 405,-392.952 333,-392.952"/>
<text text-anchor="middle" x="369" y="-399.952" font-family="Helvetica,sans-Serif" font-size="10.00">coord/pixel.h</text>
</a>
</g>
</g>
<!-- Node4&#45;&gt;Node9 -->
<g id="edge9" class="edge"><title>Node4&#45;&gt;Node9</title>
<path fill="none" stroke="midnightblue" d="M412.413,-448.535C404.841,-440.671 393.622,-429.02 384.486,-419.533"/>
<polygon fill="midnightblue" stroke="midnightblue" points="386.885,-416.978 377.427,-412.203 381.842,-421.834 386.885,-416.978"/>
</g>
<!-- Node48 -->
<g id="node33" class="node"><title>Node48</title>
<g id="a_node33"><a xlink:href="tile_8h.xhtml" target="_top" xlink:title=" ">
<polygon fill="white" stroke="black" points="440.5,-392.952 440.5,-411.952 505.5,-411.952 505.5,-392.952 440.5,-392.952"/>
<text text-anchor="middle" x="473" y="-399.952" font-family="Helvetica,sans-Serif" font-size="10.00">coord/tile.h</text>
</a>
</g>
</g>
<!-- Node4&#45;&gt;Node48 -->
<g id="edge43" class="edge"><title>Node4&#45;&gt;Node48</title>
<path fill="none" stroke="midnightblue" d="M429.587,-448.535C437.159,-440.671 448.378,-429.02 457.514,-419.533"/>
<polygon fill="midnightblue" stroke="midnightblue" points="460.158,-421.834 464.573,-412.203 455.115,-416.978 460.158,-421.834"/>
</g>
<!-- Node51 -->
<g id="node36" class="node"><title>Node51</title>
<g id="a_node36"><a xlink:href="program_8h.xhtml" target="_top" xlink:title=" ">
<polygon fill="white" stroke="black" points="62,-392.952 62,-411.952 154,-411.952 154,-392.952 62,-392.952"/>
<text text-anchor="middle" x="108" y="-399.952" font-family="Helvetica,sans-Serif" font-size="10.00">shader/program.h</text>
</a>
</g>
</g>
<!-- Node4&#45;&gt;Node51 -->
<g id="edge48" class="edge"><title>Node4&#45;&gt;Node51</title>
<path fill="none" stroke="midnightblue" d="M379.759,-450.337C324.486,-440.801 226.172,-423.839 164.174,-413.143"/>
<polygon fill="midnightblue" stroke="midnightblue" points="164.62,-409.668 154.171,-411.417 163.43,-416.566 164.62,-409.668"/>
</g>
<!-- Node52 -->
<g id="node37" class="node"><title>Node52</title>
<g id="a_node37"><a xlink:href="shader_2shader_8h.xhtml" target="_top" xlink:title=" ">
<polygon fill="white" stroke="black" points="210,-392.952 210,-411.952 296,-411.952 296,-392.952 210,-392.952"/>
<text text-anchor="middle" x="253" y="-399.952" font-family="Helvetica,sans-Serif" font-size="10.00">shader/shader.h</text>
</a>
</g>
</g>
<!-- Node4&#45;&gt;Node52 -->
<g id="edge50" class="edge"><title>Node4&#45;&gt;Node52</title>
<path fill="none" stroke="midnightblue" d="M394.38,-448.895C365.994,-439.771 320.863,-425.265 289.247,-415.103"/>
<polygon fill="midnightblue" stroke="midnightblue" points="290.087,-411.696 279.496,-411.968 287.945,-418.36 290.087,-411.696"/>
</g>
<!-- Node54 -->
<g id="node39" class="node"><title>Node54</title>
<g id="a_node39"><a xlink:href="util_2path_8h.xhtml" target="_top" xlink:title=" ">
<polygon fill="white" stroke="black" points="869.5,-392.952 869.5,-411.952 928.5,-411.952 928.5,-392.952 869.5,-392.952"/>
<text text-anchor="middle" x="899" y="-399.952" font-family="Helvetica,sans-Serif" font-size="10.00">util/path.h</text>
</a>
</g>
</g>
<!-- Node4&#45;&gt;Node54 -->
<g id="edge53" class="edge"><title>Node4&#45;&gt;Node54</title>
<path fill="none" stroke="midnightblue" d="M462.168,-452.801C553.003,-442.539 769.626,-418.067 859.191,-407.949"/>
<polygon fill="midnightblue" stroke="midnightblue" points="859.673,-411.417 869.217,-406.816 858.887,-404.461 859.673,-411.417"/>
</g>
<!-- Node10 -->
<g id="node11" class="node"><title>Node10</title>
<g id="a_node11"><a xlink:title=" ">
<polygon fill="white" stroke="#bfbfbf" points="229.5,-336.952 229.5,-355.952 312.5,-355.952 312.5,-336.952 229.5,-336.952"/>
<text text-anchor="middle" x="271" y="-343.952" font-family="Helvetica,sans-Serif" font-size="10.00">coord_xy.gen.h</text>
</a>
</g>
</g>
<!-- Node9&#45;&gt;Node10 -->
<g id="edge10" class="edge"><title>Node9&#45;&gt;Node10</title>
<path fill="none" stroke="midnightblue" d="M353.255,-392.776C337.681,-384.194 313.623,-370.938 295.541,-360.974"/>
<polygon fill="midnightblue" stroke="midnightblue" points="297.154,-357.867 286.706,-356.106 293.776,-363.998 297.154,-357.867"/>
</g>
<!-- Node11 -->
<g id="node12" class="node"><title>Node11</title>
<g id="a_node12"><a xlink:href="declarations_8h.xhtml" target="_top" xlink:title=" ">
<polygon fill="white" stroke="black" points="330.5,-336.952 330.5,-355.952 407.5,-355.952 407.5,-336.952 330.5,-336.952"/>
<text text-anchor="middle" x="369" y="-343.952" font-family="Helvetica,sans-Serif" font-size="10.00">declarations.h</text>
</a>
</g>
</g>
<!-- Node9&#45;&gt;Node11 -->
<g id="edge11" class="edge"><title>Node9&#45;&gt;Node11</title>
<path fill="none" stroke="midnightblue" d="M369,-392.535C369,-385.458 369,-375.313 369,-366.438"/>
<polygon fill="midnightblue" stroke="midnightblue" points="372.5,-366.203 369,-356.203 365.5,-366.203 372.5,-366.203"/>
</g>
<!-- Node12 -->
<g id="node13" class="node"><title>Node12</title>
<g id="a_node13"><a xlink:title=" ">
<polygon fill="white" stroke="#bfbfbf" points="735,-0.951632 735,-19.9516 781,-19.9516 781,-0.951632 735,-0.951632"/>
<text text-anchor="middle" x="758" y="-7.95163" font-family="Helvetica,sans-Serif" font-size="10.00">cstdint</text>
</a>
</g>
</g>
<!-- Node11&#45;&gt;Node12 -->
<g id="edge12" class="edge"><title>Node11&#45;&gt;Node12</title>
<path fill="none" stroke="midnightblue" d="M377.453,-336.889C393.767,-319.414 428,-277.71 428,-235.452 428,-235.452 428,-235.452 428,-121.452 428,-59.3391 641.065,-26.0228 724.789,-15.3288"/>
<polygon fill="midnightblue" stroke="midnightblue" points="725.305,-18.7916 734.795,-14.0803 724.439,-11.8455 725.305,-18.7916"/>
</g>
<!-- Node13 -->
<g id="node14" class="node"><title>Node13</title>
<g id="a_node14"><a xlink:href="fixed__point_8h.xhtml" target="_top" xlink:title=" ">
<polygon fill="white" stroke="black" points="208,-280.952 208,-299.952 304,-299.952 304,-280.952 208,-280.952"/>
<text text-anchor="middle" x="256" y="-287.952" font-family="Helvetica,sans-Serif" font-size="10.00">../util/fixed_point.h</text>
</a>
</g>
</g>
<!-- Node11&#45;&gt;Node13 -->
<g id="edge13" class="edge"><title>Node11&#45;&gt;Node13</title>
<path fill="none" stroke="midnightblue" d="M351.095,-336.895C332.746,-328.127 303.995,-314.387 282.906,-304.31"/>
<polygon fill="midnightblue" stroke="midnightblue" points="284.353,-301.122 273.821,-299.968 281.335,-307.438 284.353,-301.122"/>
</g>
<!-- Node14 -->
<g id="node15" class="node"><title>Node14</title>
<g id="a_node15"><a xlink:title=" ">
<polygon fill="white" stroke="#bfbfbf" points="165,-168.952 165,-187.952 221,-187.952 221,-168.952 165,-168.952"/>
<text text-anchor="middle" x="193" y="-175.952" font-family="Helvetica,sans-Serif" font-size="10.00">algorithm</text>
</a>
</g>
</g>
<!-- Node13&#45;&gt;Node14 -->
<g id="edge14" class="edge"><title>Node13&#45;&gt;Node14</title>
<path fill="none" stroke="midnightblue" d="M207.757,-282.472C165.476,-275.25 108.684,-262.485 95,-244.452 74.9767,-218.064 119.697,-199.016 155.139,-188.603"/>
<polygon fill="midnightblue" stroke="midnightblue" points="156.138,-191.957 164.828,-185.896 154.255,-185.216 156.138,-191.957"/>
</g>
<!-- Node15 -->
<g id="node16" class="node"><title>Node15</title>
<g id="a_node16"><a xlink:title=" ">
<polygon fill="white" stroke="#bfbfbf" points="2.5,-224.952 2.5,-243.952 47.5,-243.952 47.5,-224.952 2.5,-224.952"/>
<text text-anchor="middle" x="25" y="-231.952" font-family="Helvetica,sans-Serif" font-size="10.00">climits</text>
</a>
</g>
</g>
<!-- Node13&#45;&gt;Node15 -->
<g id="edge15" class="edge"><title>Node13&#45;&gt;Node15</title>
<path fill="none" stroke="midnightblue" d="M218.781,-280.943C179.707,-271.98 116.494,-257.399 62,-244.452 60.5528,-244.108 59.0742,-243.755 57.5809,-243.397"/>
<polygon fill="midnightblue" stroke="midnightblue" points="58.2309,-239.954 47.689,-241.011 56.5895,-246.758 58.2309,-239.954"/>
</g>
<!-- Node16 -->
<g id="node17" class="node"><title>Node16</title>
<g id="a_node17"><a xlink:title=" ">
<polygon fill="white" stroke="#bfbfbf" points="356,-168.952 356,-187.952 400,-187.952 400,-168.952 356,-168.952"/>
<text text-anchor="middle" x="378" y="-175.952" font-family="Helvetica,sans-Serif" font-size="10.00">cmath</text>
</a>
</g>
</g>
<!-- Node13&#45;&gt;Node16 -->
<g id="edge16" class="edge"><title>Node13&#45;&gt;Node16</title>
<path fill="none" stroke="midnightblue" d="M304.193,-282.527C328.035,-276.519 355.053,-265.319 371,-244.452 381.006,-231.359 381.914,-212.21 380.825,-198.085"/>
<polygon fill="midnightblue" stroke="midnightblue" points="384.29,-197.576 379.66,-188.047 377.336,-198.384 384.29,-197.576"/>
</g>
<!-- Node17 -->
<g id="node18" class="node"><title>Node17</title>
<g id="a_node18"><a xlink:title=" ">
<polygon fill="white" stroke="#bfbfbf" points="104,-224.952 104,-243.952 154,-243.952 154,-224.952 104,-224.952"/>
<text text-anchor="middle" x="129" y="-231.952" font-family="Helvetica,sans-Serif" font-size="10.00">iomanip</text>
</a>
</g>
</g>
<!-- Node13&#45;&gt;Node17 -->
<g id="edge17" class="edge"><title>Node13&#45;&gt;Node17</title>
<path fill="none" stroke="midnightblue" d="M235.876,-280.895C214.976,-272.008 182.065,-258.015 158.284,-247.903"/>
<polygon fill="midnightblue" stroke="midnightblue" points="159.602,-244.66 149.029,-243.968 156.862,-251.102 159.602,-244.66"/>
</g>
<!-- Node18 -->
<g id="node19" class="node"><title>Node18</title>
<g id="a_node19"><a xlink:title=" ">
<polygon fill="white" stroke="#bfbfbf" points="172,-224.952 172,-243.952 212,-243.952 212,-224.952 172,-224.952"/>
<text text-anchor="middle" x="192" y="-231.952" font-family="Helvetica,sans-Serif" font-size="10.00">limits</text>
</a>
</g>
</g>
<!-- Node13&#45;&gt;Node18 -->
<g id="edge18" class="edge"><title>Node13&#45;&gt;Node18</title>
<path fill="none" stroke="midnightblue" d="M245.717,-280.776C236.164,-272.715 221.72,-260.528 210.216,-250.821"/>
<polygon fill="midnightblue" stroke="midnightblue" points="212.37,-248.059 202.47,-244.286 207.856,-253.409 212.37,-248.059"/>
</g>
<!-- Node19 -->
<g id="node20" class="node"><title>Node19</title>
<g id="a_node20"><a xlink:title=" ">
<polygon fill="white" stroke="#bfbfbf" points="230,-224.952 230,-243.952 282,-243.952 282,-224.952 230,-224.952"/>
<text text-anchor="middle" x="256" y="-231.952" font-family="Helvetica,sans-Serif" font-size="10.00">ostream</text>
</a>
</g>
</g>
<!-- Node13&#45;&gt;Node19 -->
<g id="edge19" class="edge"><title>Node13&#45;&gt;Node19</title>
<path fill="none" stroke="midnightblue" d="M256,-280.535C256,-273.458 256,-263.313 256,-254.438"/>
<polygon fill="midnightblue" stroke="midnightblue" points="259.5,-254.203 256,-244.203 252.5,-254.203 259.5,-254.203"/>
</g>
<!-- Node20 -->
<g id="node21" class="node"><title>Node20</title>
<g id="a_node21"><a xlink:title=" ">
<polygon fill="white" stroke="#bfbfbf" points="300,-224.952 300,-243.952 362,-243.952 362,-224.952 300,-224.952"/>
<text text-anchor="middle" x="331" y="-231.952" font-family="Helvetica,sans-Serif" font-size="10.00">type_traits</text>
</a>
</g>
</g>
<!-- Node13&#45;&gt;Node20 -->
<g id="edge20" class="edge"><title>Node13&#45;&gt;Node20</title>
<path fill="none" stroke="midnightblue" d="M268.05,-280.776C279.463,-272.558 296.831,-260.053 310.435,-250.258"/>
<polygon fill="midnightblue" stroke="midnightblue" points="312.66,-252.969 318.731,-244.286 308.57,-247.288 312.66,-252.969"/>
</g>
<!-- Node21 -->
<g id="node22" class="node"><title>Node21</title>
<g id="a_node22"><a xlink:href="misc_8h.xhtml" target="_top" xlink:title=" ">
<polygon fill="white" stroke="black" points="573,-224.952 573,-243.952 619,-243.952 619,-224.952 573,-224.952"/>
<text text-anchor="middle" x="596" y="-231.952" font-family="Helvetica,sans-Serif" font-size="10.00">misc.h</text>
</a>
</g>
</g>
<!-- Node13&#45;&gt;Node21 -->
<g id="edge21" class="edge"><title>Node13&#45;&gt;Node21</title>
<path fill="none" stroke="midnightblue" d="M304.353,-281.772C374.398,-270.647 502.305,-250.333 562.716,-240.738"/>
<polygon fill="midnightblue" stroke="midnightblue" points="563.513,-244.155 572.84,-239.13 562.415,-237.242 563.513,-244.155"/>
</g>
<!-- Node21&#45;&gt;Node6 -->
<g id="edge27" class="edge"><title>Node21&#45;&gt;Node6</title>
<path fill="none" stroke="midnightblue" d="M619.057,-227.257C655.199,-217.547 725.245,-198.729 765.84,-187.823"/>
<polygon fill="midnightblue" stroke="midnightblue" points="766.981,-191.141 775.73,-185.166 765.165,-184.38 766.981,-191.141"/>
</g>
<!-- Node21&#45;&gt;Node7 -->
<g id="edge28" class="edge"><title>Node21&#45;&gt;Node7</title>
<path fill="none" stroke="midnightblue" d="M599.925,-224.527C611.465,-198.284 645.453,-120.997 661.033,-85.5682"/>
<polygon fill="midnightblue" stroke="midnightblue" points="664.41,-86.5827 665.232,-76.0197 658.003,-83.7648 664.41,-86.5827"/>
</g>
<!-- Node21&#45;&gt;Node14 -->
<g id="edge22" class="edge"><title>Node21&#45;&gt;Node14</title>
<path fill="none" stroke="midnightblue" d="M572.886,-230.354C506.323,-221.435 313.713,-195.627 231.226,-184.574"/>
<polygon fill="midnightblue" stroke="midnightblue" points="231.641,-181.098 221.265,-183.239 230.711,-188.036 231.641,-181.098"/>
</g>
<!-- Node21&#45;&gt;Node16 -->
<g id="edge24" class="edge"><title>Node21&#45;&gt;Node16</title>
<path fill="none" stroke="midnightblue" d="M572.67,-227.673C533.52,-217.975 454.538,-198.411 410.154,-187.416"/>
<polygon fill="midnightblue" stroke="midnightblue" points="410.733,-183.954 400.185,-184.947 409.05,-190.749 410.733,-183.954"/>
</g>
<!-- Node22 -->
<g id="node23" class="node"><title>Node22</title>
<g id="a_node23"><a xlink:title=" ">
<polygon fill="white" stroke="#bfbfbf" points="456,-168.952 456,-187.952 504,-187.952 504,-168.952 456,-168.952"/>
<text text-anchor="middle" x="480" y="-175.952" font-family="Helvetica,sans-Serif" font-size="10.00">limits.h</text>
</a>
</g>
</g>
<!-- Node21&#45;&gt;Node22 -->
<g id="edge23" class="edge"><title>Node21&#45;&gt;Node22</title>
<path fill="none" stroke="midnightblue" d="M577.619,-224.895C558.784,-216.127 529.269,-202.387 507.621,-192.31"/>
<polygon fill="midnightblue" stroke="midnightblue" points="508.838,-189.015 498.295,-187.968 505.883,-195.361 508.838,-189.015"/>
</g>
<!-- Node23 -->
<g id="node24" class="node"><title>Node23</title>
<g id="a_node24"><a xlink:title=" ">
<polygon fill="white" stroke="#bfbfbf" points="522,-168.952 522,-187.952 568,-187.952 568,-168.952 522,-168.952"/>
<text text-anchor="middle" x="545" y="-175.952" font-family="Helvetica,sans-Serif" font-size="10.00">cstring</text>
</a>
</g>
</g>
<!-- Node21&#45;&gt;Node23 -->
<g id="edge25" class="edge"><title>Node21&#45;&gt;Node23</title>
<path fill="none" stroke="midnightblue" d="M587.578,-224.535C580.152,-216.671 569.148,-205.02 560.188,-195.533"/>
<polygon fill="midnightblue" stroke="midnightblue" points="562.676,-193.07 553.265,-188.203 557.587,-197.876 562.676,-193.07"/>
</g>
<!-- Node24 -->
<g id="node25" class="node"><title>Node24</title>
<g id="a_node25"><a xlink:title=" ">
<polygon fill="white" stroke="#bfbfbf" points="1054.5,-0.951632 1054.5,-19.9516 1095.5,-19.9516 1095.5,-0.951632 1054.5,-0.951632"/>
<text text-anchor="middle" x="1075" y="-7.95163" font-family="Helvetica,sans-Serif" font-size="10.00">string</text>
</a>
</g>
</g>
<!-- Node21&#45;&gt;Node24 -->
<g id="edge26" class="edge"><title>Node21&#45;&gt;Node24</title>
<path fill="none" stroke="midnightblue" d="M594.739,-224.755C591.075,-195.739 583.669,-101.539 634,-56.4516 664.496,-29.133 949.01,-16.1377 1044.17,-12.5297"/>
<polygon fill="midnightblue" stroke="midnightblue" points="1044.44,-16.0222 1054.3,-12.1541 1044.18,-9.02702 1044.44,-16.0222"/>
</g>
<!-- Node25 -->
<g id="node26" class="node"><title>Node25</title>
<g id="a_node26"><a xlink:href="error_2error_8h.xhtml" target="_top" xlink:title=" ">
<polygon fill="white" stroke="black" points="814,-112.952 814,-131.952 890,-131.952 890,-112.952 814,-112.952"/>
<text text-anchor="middle" x="852" y="-119.952" font-family="Helvetica,sans-Serif" font-size="10.00">../error/error.h</text>
</a>
</g>
</g>
<!-- Node21&#45;&gt;Node25 -->
<g id="edge29" class="edge"><title>Node21&#45;&gt;Node25</title>
<path fill="none" stroke="midnightblue" d="M606.769,-224.899C624.451,-211.228 661.158,-184.372 696,-168.452 730.701,-152.595 772.317,-140.927 803.835,-133.45"/>
<polygon fill="midnightblue" stroke="midnightblue" points="804.738,-136.834 813.691,-131.17 803.16,-130.014 804.738,-136.834"/>
</g>
<!-- Node28 -->
<g id="node29" class="node"><title>Node28</title>
<g id="a_node29"><a xlink:href="compiler_8h.xhtml" target="_top" xlink:title=" ">
<polygon fill="white" stroke="black" points="1160,-56.9516 1160,-75.9516 1246,-75.9516 1246,-56.9516 1160,-56.9516"/>
<text text-anchor="middle" x="1203" y="-63.9516" font-family="Helvetica,sans-Serif" font-size="10.00">../util/compiler.h</text>
</a>
</g>
</g>
<!-- Node21&#45;&gt;Node28 -->
<g id="edge42" class="edge"><title>Node21&#45;&gt;Node28</title>
<path fill="none" stroke="midnightblue" d="M614.554,-224.918C645.499,-211.026 709.891,-183.558 767,-168.452 867.876,-141.768 897.431,-156.362 999,-132.452 1060.71,-117.925 1130.74,-93.9053 1170.61,-79.4883"/>
<polygon fill="midnightblue" stroke="midnightblue" points="1171.88,-82.7521 1180.08,-76.0414 1169.48,-76.1747 1171.88,-82.7521"/>
</g>
<!-- Node25&#45;&gt;Node7 -->
<g id="edge31" class="edge"><title>Node25&#45;&gt;Node7</title>
<path fill="none" stroke="midnightblue" d="M823.003,-112.895C790.99,-103.449 739.424,-88.2323 704.887,-78.0413"/>
<polygon fill="midnightblue" stroke="midnightblue" points="705.775,-74.654 695.193,-75.1807 703.793,-81.3678 705.775,-74.654"/>
</g>
<!-- Node25&#45;&gt;Node24 -->
<g id="edge33" class="edge"><title>Node25&#45;&gt;Node24</title>
<path fill="none" stroke="midnightblue" d="M859.875,-112.556C872.644,-98.6529 899.248,-71.78 927,-56.4516 964.642,-35.6608 1013.1,-23.2735 1044.11,-16.911"/>
<polygon fill="midnightblue" stroke="midnightblue" points="1045.17,-20.2699 1054.31,-14.9079 1043.82,-13.4012 1045.17,-20.2699"/>
</g>
<!-- Node26 -->
<g id="node27" class="node"><title>Node26</title>
<g id="a_node27"><a xlink:title=" ">
<polygon fill="white" stroke="#bfbfbf" points="936,-56.9516 936,-75.9516 990,-75.9516 990,-56.9516 936,-56.9516"/>
<text text-anchor="middle" x="963" y="-63.9516" font-family="Helvetica,sans-Serif" font-size="10.00">iostream</text>
</a>
</g>
</g>
<!-- Node25&#45;&gt;Node26 -->
<g id="edge30" class="edge"><title>Node25&#45;&gt;Node26</title>
<path fill="none" stroke="midnightblue" d="M869.834,-112.776C887.716,-104.076 915.475,-90.5719 936.046,-80.5646"/>
<polygon fill="midnightblue" stroke="midnightblue" points="937.749,-83.6282 945.21,-76.1061 934.687,-77.3335 937.749,-83.6282"/>
</g>
<!-- Node27 -->
<g id="node28" class="node"><title>Node27</title>
<g id="a_node28"><a xlink:title=" ">
<polygon fill="white" stroke="#bfbfbf" points="820.5,-56.9516 820.5,-75.9516 879.5,-75.9516 879.5,-56.9516 820.5,-56.9516"/>
<text text-anchor="middle" x="850" y="-63.9516" font-family="Helvetica,sans-Serif" font-size="10.00">stdexcept</text>
</a>
</g>
</g>
<!-- Node25&#45;&gt;Node27 -->
<g id="edge32" class="edge"><title>Node25&#45;&gt;Node27</title>
<path fill="none" stroke="midnightblue" d="M851.67,-112.535C851.408,-105.458 851.032,-95.3127 850.703,-86.4381"/>
<polygon fill="midnightblue" stroke="midnightblue" points="854.192,-86.0663 850.324,-76.2027 847.197,-86.3254 854.192,-86.0663"/>
</g>
<!-- Node25&#45;&gt;Node28 -->
<g id="edge34" class="edge"><title>Node25&#45;&gt;Node28</title>
<path fill="none" stroke="midnightblue" d="M890.195,-113.998C893.172,-113.46 896.133,-112.938 899,-112.452 986.515,-97.6021 1088.68,-83.0473 1149.49,-74.6761"/>
<polygon fill="midnightblue" stroke="midnightblue" points="1150.18,-78.1135 1159.61,-73.2865 1149.23,-71.1785 1150.18,-78.1135"/>
</g>
<!-- Node31 -->
<g id="node32" class="node"><title>Node31</title>
<g id="a_node32"><a xlink:href="message_8h.xhtml" target="_top" xlink:title=" ">
<polygon fill="white" stroke="red" points="713.5,-56.9516 713.5,-75.9516 802.5,-75.9516 802.5,-56.9516 713.5,-56.9516"/>
<text text-anchor="middle" x="758" y="-63.9516" font-family="Helvetica,sans-Serif" font-size="10.00">../log/message.h</text>
</a>
</g>
</g>
<!-- Node25&#45;&gt;Node31 -->
<g id="edge39" class="edge"><title>Node25&#45;&gt;Node31</title>
<path fill="none" stroke="midnightblue" d="M836.897,-112.776C822.097,-104.273 799.306,-91.1805 782.018,-81.2491"/>
<polygon fill="midnightblue" stroke="midnightblue" points="783.48,-78.0526 773.065,-76.1061 779.993,-84.1223 783.48,-78.0526"/>
</g>
<!-- Node28&#45;&gt;Node24 -->
<g id="edge36" class="edge"><title>Node28&#45;&gt;Node24</title>
<path fill="none" stroke="midnightblue" d="M1182.72,-56.8952C1161.65,-48.0082 1128.48,-34.0148 1104.51,-23.903"/>
<polygon fill="midnightblue" stroke="midnightblue" points="1105.76,-20.6303 1095.19,-19.9681 1103.04,-27.0799 1105.76,-20.6303"/>
</g>
<!-- Node29 -->
<g id="node30" class="node"><title>Node29</title>
<g id="a_node30"><a xlink:title=" ">
<polygon fill="white" stroke="#bfbfbf" points="1144,-0.951632 1144,-19.9516 1194,-19.9516 1194,-0.951632 1144,-0.951632"/>
<text text-anchor="middle" x="1169" y="-7.95163" font-family="Helvetica,sans-Serif" font-size="10.00">ciso646</text>
</a>
</g>
</g>
<!-- Node28&#45;&gt;Node29 -->
<g id="edge35" class="edge"><title>Node28&#45;&gt;Node29</title>
<path fill="none" stroke="midnightblue" d="M1197.39,-56.5346C1192.63,-48.9857 1185.68,-37.9465 1179.85,-28.6814"/>
<polygon fill="midnightblue" stroke="midnightblue" points="1182.8,-26.8002 1174.51,-20.2027 1176.88,-30.5299 1182.8,-26.8002"/>
</g>
<!-- Node30 -->
<g id="node31" class="node"><title>Node30</title>
<g id="a_node31"><a xlink:href="signal_8h.xhtml" target="_top" xlink:title=" ">
<polygon fill="white" stroke="black" points="1212,-0.951632 1212,-19.9516 1262,-19.9516 1262,-0.951632 1212,-0.951632"/>
<text text-anchor="middle" x="1237" y="-7.95163" font-family="Helvetica,sans-Serif" font-size="10.00">signal.h</text>
</a>
</g>
</g>
<!-- Node28&#45;&gt;Node30 -->
<g id="edge37" class="edge"><title>Node28&#45;&gt;Node30</title>
<path fill="none" stroke="midnightblue" d="M1208.61,-56.5346C1213.37,-48.9857 1220.32,-37.9465 1226.15,-28.6814"/>
<polygon fill="midnightblue" stroke="midnightblue" points="1229.12,-30.5299 1231.49,-20.2027 1223.2,-26.8002 1229.12,-30.5299"/>
</g>
<!-- Node30&#45;&gt;Node30 -->
<g id="edge38" class="edge"><title>Node30&#45;&gt;Node30</title>
<path fill="none" stroke="midnightblue" d="M1255.56,-20.0262C1267.95,-22.7213 1280,-19.5298 1280,-10.4516 1280,-3.92673 1273.77,-0.442852 1265.67,-0"/>
<polygon fill="midnightblue" stroke="midnightblue" points="1265.22,3.47427 1255.56,-0.877047 1265.83,-3.49953 1265.22,3.47427"/>
</g>
<!-- Node31&#45;&gt;Node12 -->
<g id="edge40" class="edge"><title>Node31&#45;&gt;Node12</title>
<path fill="none" stroke="midnightblue" d="M758,-56.5346C758,-49.4575 758,-39.3127 758,-30.4381"/>
<polygon fill="midnightblue" stroke="midnightblue" points="761.5,-30.2027 758,-20.2027 754.5,-30.2027 761.5,-30.2027"/>
</g>
<!-- Node31&#45;&gt;Node24 -->
<g id="edge41" class="edge"><title>Node31&#45;&gt;Node24</title>
<path fill="none" stroke="midnightblue" d="M802.746,-57.8293C868.162,-46.6859 988.216,-26.235 1044.44,-16.6575"/>
<polygon fill="midnightblue" stroke="midnightblue" points="1045.21,-20.0763 1054.48,-14.9466 1044.04,-13.1757 1045.21,-20.0763"/>
</g>
<!-- Node48&#45;&gt;Node11 -->
<g id="edge44" class="edge"><title>Node48&#45;&gt;Node11</title>
<path fill="none" stroke="midnightblue" d="M456.291,-392.776C439.688,-384.155 413.998,-370.816 394.78,-360.837"/>
<polygon fill="midnightblue" stroke="midnightblue" points="396.156,-357.608 385.668,-356.106 392.93,-363.821 396.156,-357.608"/>
</g>
<!-- Node48&#45;&gt;Node21 -->
<g id="edge47" class="edge"><title>Node48&#45;&gt;Node21</title>
<path fill="none" stroke="midnightblue" d="M505.703,-397.941C552.085,-392.211 633.326,-379.149 651,-356.452 676.968,-323.101 637.615,-275.527 613.124,-251.159"/>
<polygon fill="midnightblue" stroke="midnightblue" points="615.43,-248.521 605.797,-244.111 610.577,-253.566 615.43,-248.521"/>
</g>
<!-- Node49 -->
<g id="node34" class="node"><title>Node49</title>
<g id="a_node34"><a xlink:title=" ">
<polygon fill="white" stroke="#bfbfbf" points="426,-336.952 426,-355.952 520,-355.952 520,-336.952 426,-336.952"/>
<text text-anchor="middle" x="473" y="-343.952" font-family="Helvetica,sans-Serif" font-size="10.00">coord_nese.gen.h</text>
</a>
</g>
</g>
<!-- Node48&#45;&gt;Node49 -->
<g id="edge45" class="edge"><title>Node48&#45;&gt;Node49</title>
<path fill="none" stroke="midnightblue" d="M473,-392.535C473,-385.458 473,-375.313 473,-366.438"/>
<polygon fill="midnightblue" stroke="midnightblue" points="476.5,-366.203 473,-356.203 469.5,-366.203 476.5,-366.203"/>
</g>
<!-- Node50 -->
<g id="node35" class="node"><title>Node50</title>
<g id="a_node35"><a xlink:title=" ">
<polygon fill="white" stroke="#bfbfbf" points="538,-336.952 538,-355.952 642,-355.952 642,-336.952 538,-336.952"/>
<text text-anchor="middle" x="590" y="-343.952" font-family="Helvetica,sans-Serif" font-size="10.00">coord_neseup.gen.h</text>
</a>
</g>
</g>
<!-- Node48&#45;&gt;Node50 -->
<g id="edge46" class="edge"><title>Node48&#45;&gt;Node50</title>
<path fill="none" stroke="midnightblue" d="M491.539,-392.895C510.623,-384.087 540.575,-370.263 562.436,-360.174"/>
<polygon fill="midnightblue" stroke="midnightblue" points="563.935,-363.337 571.548,-355.968 561.001,-356.981 563.935,-363.337"/>
</g>
<!-- Node51&#45;&gt;Node5 -->
<g id="edge49" class="edge"><title>Node51&#45;&gt;Node5</title>
<path fill="none" stroke="midnightblue" d="M104.863,-392.535C102.317,-385.3 98.6438,-374.86 95.4729,-365.848"/>
<polygon fill="midnightblue" stroke="midnightblue" points="98.6998,-364.474 92.0791,-356.203 92.0966,-366.798 98.6998,-364.474"/>
</g>
<!-- Node52&#45;&gt;Node5 -->
<g id="edge52" class="edge"><title>Node52&#45;&gt;Node5</title>
<path fill="none" stroke="midnightblue" d="M227.014,-392.895C199.304,-383.771 155.248,-369.265 124.384,-359.103"/>
<polygon fill="midnightblue" stroke="midnightblue" points="125.458,-355.771 114.865,-355.968 123.268,-362.42 125.458,-355.771"/>
</g>
<!-- Node53 -->
<g id="node38" class="node"><title>Node53</title>
<g id="a_node38"><a xlink:title=" ">
<polygon fill="white" stroke="#bfbfbf" points="138.5,-336.952 138.5,-355.952 211.5,-355.952 211.5,-336.952 138.5,-336.952"/>
<text text-anchor="middle" x="175" y="-343.952" font-family="Helvetica,sans-Serif" font-size="10.00">initializer_list</text>
</a>
</g>
</g>
<!-- Node52&#45;&gt;Node53 -->
<g id="edge51" class="edge"><title>Node52&#45;&gt;Node53</title>
<path fill="none" stroke="midnightblue" d="M240.468,-392.776C228.414,-384.431 209.973,-371.664 195.731,-361.804"/>
<polygon fill="midnightblue" stroke="midnightblue" points="197.715,-358.921 187.501,-356.106 193.731,-364.676 197.715,-358.921"/>
</g>
<!-- Node54&#45;&gt;Node6 -->
<g id="edge55" class="edge"><title>Node54&#45;&gt;Node6</title>
<path fill="none" stroke="midnightblue" d="M869.211,-393.079C850.802,-386.292 828.399,-374.78 816,-356.452 782.861,-307.465 788.649,-232.809 793.685,-198.234"/>
<polygon fill="midnightblue" stroke="midnightblue" points="797.176,-198.569 795.306,-188.14 790.264,-197.459 797.176,-198.569"/>
</g>
<!-- Node54&#45;&gt;Node24 -->
<g id="edge54" class="edge"><title>Node54&#45;&gt;Node24</title>
<path fill="none" stroke="midnightblue" d="M928.814,-399.047C1048.03,-389.042 1484,-348.548 1484,-291.452 1484,-291.452 1484,-291.452 1484,-121.452 1484,-82.2895 1200.75,-32.1291 1105.69,-16.3967"/>
<polygon fill="midnightblue" stroke="midnightblue" points="1106,-12.9006 1095.56,-14.7337 1104.86,-19.8081 1106,-12.9006"/>
</g>
<!-- Node55 -->
<g id="node40" class="node"><title>Node55</title>
<g id="a_node40"><a xlink:href="pyobject_8h.xhtml" target="_top" xlink:title=" ">
<polygon fill="white" stroke="black" points="1046.5,-280.952 1046.5,-299.952 1167.5,-299.952 1167.5,-280.952 1046.5,-280.952"/>
<text text-anchor="middle" x="1107" y="-287.952" font-family="Helvetica,sans-Serif" font-size="10.00">../pyinterface/pyobject.h</text>
</a>
</g>
</g>
<!-- Node54&#45;&gt;Node55 -->
<g id="edge56" class="edge"><title>Node54&#45;&gt;Node55</title>
<path fill="none" stroke="midnightblue" d="M915.321,-392.82C951.47,-373.703 1038.49,-327.681 1081.74,-304.813"/>
<polygon fill="midnightblue" stroke="midnightblue" points="1083.55,-307.812 1090.75,-300.043 1080.28,-301.624 1083.55,-307.812"/>
</g>
<!-- Node61 -->
<g id="node48" class="node"><title>Node61</title>
<g id="a_node48"><a xlink:href="file_8h.xhtml" target="_top" xlink:title=" ">
<polygon fill="white" stroke="black" points="917.5,-336.952 917.5,-355.952 954.5,-355.952 954.5,-336.952 917.5,-336.952"/>
<text text-anchor="middle" x="936" y="-343.952" font-family="Helvetica,sans-Serif" font-size="10.00">file.h</text>
</a>
</g>
</g>
<!-- Node54&#45;&gt;Node61 -->
<g id="edge71" class="edge"><title>Node54&#45;&gt;Node61</title>
<path fill="none" stroke="midnightblue" d="M905.11,-392.535C910.282,-384.986 917.846,-373.946 924.194,-364.681"/>
<polygon fill="midnightblue" stroke="midnightblue" points="927.239,-366.43 930.004,-356.203 921.464,-362.474 927.239,-366.43"/>
</g>
<!-- Node63 -->
<g id="node50" class="node"><title>Node63</title>
<g id="a_node50"><a xlink:href="fslike_2native_8h.xhtml" target="_top" xlink:title=" ">
<polygon fill="white" stroke="black" points="824.5,-336.952 824.5,-355.952 899.5,-355.952 899.5,-336.952 824.5,-336.952"/>
<text text-anchor="middle" x="862" y="-343.952" font-family="Helvetica,sans-Serif" font-size="10.00">fslike/native.h</text>
</a>
</g>
</g>
<!-- Node54&#45;&gt;Node63 -->
<g id="edge80" class="edge"><title>Node54&#45;&gt;Node63</title>
<path fill="none" stroke="midnightblue" d="M892.89,-392.535C887.718,-384.986 880.154,-373.946 873.806,-364.681"/>
<polygon fill="midnightblue" stroke="midnightblue" points="876.536,-362.474 867.996,-356.203 870.761,-366.43 876.536,-362.474"/>
</g>
<!-- Node55&#45;&gt;Node6 -->
<g id="edge59" class="edge"><title>Node55&#45;&gt;Node6</title>
<path fill="none" stroke="midnightblue" d="M1082.93,-280.912C1027.28,-261.163 889.733,-212.357 827.936,-190.429"/>
<polygon fill="midnightblue" stroke="midnightblue" points="828.942,-187.072 818.347,-187.026 826.601,-193.669 828.942,-187.072"/>
</g>
<!-- Node55&#45;&gt;Node12 -->
<g id="edge57" class="edge"><title>Node55&#45;&gt;Node12</title>
<path fill="none" stroke="midnightblue" d="M1100.24,-280.845C1093.53,-272.042 1083.22,-257.802 1076,-244.452 1033.03,-165.039 1069.02,-113.46 999,-56.4516 967.616,-30.8996 849.876,-18.4784 791.392,-13.7796"/>
<polygon fill="midnightblue" stroke="midnightblue" points="791.436,-10.2726 781.196,-12.9906 790.896,-17.2517 791.436,-10.2726"/>
</g>
<!-- Node55&#45;&gt;Node24 -->
<g id="edge58" class="edge"><title>Node55&#45;&gt;Node24</title>
<path fill="none" stroke="midnightblue" d="M1115.21,-280.634C1122.54,-272.114 1132.76,-258.471 1137,-244.452 1139.58,-235.944 1137.76,-233.308 1137,-224.452 1130.53,-148.957 1137.64,-126.187 1108,-56.4516 1103.6,-46.1059 1096.41,-35.894 1089.86,-27.82"/>
<polygon fill="midnightblue" stroke="midnightblue" points="1092.33,-25.3197 1083.17,-19.9928 1087.01,-29.8682 1092.33,-25.3197"/>
</g>
<!-- Node56 -->
<g id="node41" class="node"><title>Node56</title>
<g id="a_node41"><a xlink:href="defs_8h.xhtml" target="_top" xlink:title=" ">
<polygon fill="white" stroke="black" points="1084.5,-224.952 1084.5,-243.952 1127.5,-243.952 1127.5,-224.952 1084.5,-224.952"/>
<text text-anchor="middle" x="1106" y="-231.952" font-family="Helvetica,sans-Serif" font-size="10.00">defs.h</text>
</a>
</g>
</g>
<!-- Node55&#45;&gt;Node56 -->
<g id="edge60" class="edge"><title>Node55&#45;&gt;Node56</title>
<path fill="none" stroke="midnightblue" d="M1106.83,-280.535C1106.7,-273.458 1106.52,-263.313 1106.35,-254.438"/>
<polygon fill="midnightblue" stroke="midnightblue" points="1109.85,-254.136 1106.16,-244.203 1102.85,-254.266 1109.85,-254.136"/>
</g>
<!-- Node57 -->
<g id="node42" class="node"><title>Node57</title>
<g id="a_node42"><a xlink:href="functional_8h.xhtml" target="_top" xlink:title=" ">
<polygon fill="white" stroke="black" points="1245,-224.952 1245,-243.952 1311,-243.952 1311,-224.952 1245,-224.952"/>
<text text-anchor="middle" x="1278" y="-231.952" font-family="Helvetica,sans-Serif" font-size="10.00">functional.h</text>
</a>
</g>
</g>
<!-- Node55&#45;&gt;Node57 -->
<g id="edge61" class="edge"><title>Node55&#45;&gt;Node57</title>
<path fill="none" stroke="midnightblue" d="M1134.1,-280.895C1162.99,-271.771 1208.92,-257.265 1241.11,-247.103"/>
<polygon fill="midnightblue" stroke="midnightblue" points="1242.55,-250.317 1251.03,-243.968 1240.44,-243.642 1242.55,-250.317"/>
</g>
<!-- Node57&#45;&gt;Node28 -->
<g id="edge64" class="edge"><title>Node57&#45;&gt;Node28</title>
<path fill="none" stroke="midnightblue" d="M1311.32,-232.049C1361.91,-228.413 1449.94,-215.354 1427,-168.452 1396.12,-105.319 1312.22,-81.6143 1256.33,-72.7369"/>
<polygon fill="midnightblue" stroke="midnightblue" points="1256.64,-69.2452 1246.23,-71.2457 1255.61,-76.17 1256.64,-69.2452"/>
</g>
<!-- Node40 -->
<g id="node43" class="node"><title>Node40</title>
<g id="a_node43"><a xlink:title=" ">
<polygon fill="white" stroke="#bfbfbf" points="1263,-112.952 1263,-131.952 1321,-131.952 1321,-112.952 1263,-112.952"/>
<text text-anchor="middle" x="1292" y="-119.952" font-family="Helvetica,sans-Serif" font-size="10.00">functional</text>
</a>
</g>
</g>
<!-- Node57&#45;&gt;Node40 -->
<g id="edge62" class="edge"><title>Node57&#45;&gt;Node40</title>
<path fill="none" stroke="midnightblue" d="M1279.1,-224.82C1281.36,-207.069 1286.57,-166.118 1289.63,-142.049"/>
<polygon fill="midnightblue" stroke="midnightblue" points="1293.12,-142.405 1290.91,-132.043 1286.17,-141.521 1293.12,-142.405"/>
</g>
<!-- Node44 -->
<g id="node44" class="node"><title>Node44</title>
<g id="a_node44"><a xlink:title=" ">
<polygon fill="white" stroke="#bfbfbf" points="1306,-168.952 1306,-187.952 1350,-187.952 1350,-168.952 1306,-168.952"/>
<text text-anchor="middle" x="1328" y="-175.952" font-family="Helvetica,sans-Serif" font-size="10.00">mutex</text>
</a>
</g>
</g>
<!-- Node57&#45;&gt;Node44 -->
<g id="edge63" class="edge"><title>Node57&#45;&gt;Node44</title>
<path fill="none" stroke="midnightblue" d="M1286.26,-224.535C1293.46,-216.75 1304.11,-205.253 1312.85,-195.818"/>
<polygon fill="midnightblue" stroke="midnightblue" points="1315.67,-197.918 1319.9,-188.203 1310.53,-193.162 1315.67,-197.918"/>
</g>
<!-- Node58 -->
<g id="node45" class="node"><title>Node58</title>
<g id="a_node45"><a xlink:href="language_8h.xhtml" target="_top" xlink:title=" ">
<polygon fill="white" stroke="black" points="1160.5,-168.952 1160.5,-187.952 1249.5,-187.952 1249.5,-168.952 1160.5,-168.952"/>
<text text-anchor="middle" x="1205" y="-175.952" font-family="Helvetica,sans-Serif" font-size="10.00">../util/language.h</text>
</a>
</g>
</g>
<!-- Node57&#45;&gt;Node58 -->
<g id="edge65" class="edge"><title>Node57&#45;&gt;Node58</title>
<path fill="none" stroke="midnightblue" d="M1266.27,-224.776C1255.16,-216.558 1238.26,-204.053 1225.02,-194.258"/>
<polygon fill="midnightblue" stroke="midnightblue" points="1227.06,-191.419 1216.94,-188.286 1222.9,-197.046 1227.06,-191.419"/>
</g>
<!-- Node59 -->
<g id="node46" class="node"><title>Node59</title>
<g id="a_node46"><a xlink:href="exctranslate_8h.xhtml" target="_top" xlink:title=" ">
<polygon fill="white" stroke="black" points="912,-168.952 912,-187.952 990,-187.952 990,-168.952 912,-168.952"/>
<text text-anchor="middle" x="951" y="-175.952" font-family="Helvetica,sans-Serif" font-size="10.00">exctranslate.h</text>
</a>
</g>
</g>
<!-- Node57&#45;&gt;Node59 -->
<g id="edge66" class="edge"><title>Node57&#45;&gt;Node59</title>
<path fill="none" stroke="midnightblue" d="M1244.85,-227.977C1187.01,-218.425 1067.42,-198.676 999.994,-187.542"/>
<polygon fill="midnightblue" stroke="midnightblue" points="1000.48,-184.075 990.039,-185.898 999.335,-190.981 1000.48,-184.075"/>
</g>
<!-- Node60 -->
<g id="node47" class="node"><title>Node60</title>
<g id="a_node47"><a xlink:href="setup_8h.xhtml" target="_top" xlink:title=" ">
<polygon fill="white" stroke="black" points="1368.5,-168.952 1368.5,-187.952 1417.5,-187.952 1417.5,-168.952 1368.5,-168.952"/>
<text text-anchor="middle" x="1393" y="-175.952" font-family="Helvetica,sans-Serif" font-size="10.00">setup.h</text>
</a>
</g>
</g>
<!-- Node57&#45;&gt;Node60 -->
<g id="edge68" class="edge"><title>Node57&#45;&gt;Node60</title>
<path fill="none" stroke="midnightblue" d="M1296.22,-224.895C1314.9,-216.127 1344.16,-202.387 1365.62,-192.31"/>
<polygon fill="midnightblue" stroke="midnightblue" points="1367.3,-195.387 1374.86,-187.968 1364.32,-189.05 1367.3,-195.387"/>
</g>
<!-- Node59&#45;&gt;Node25 -->
<g id="edge67" class="edge"><title>Node59&#45;&gt;Node25</title>
<path fill="none" stroke="midnightblue" d="M935.094,-168.776C919.362,-160.194 895.058,-146.938 876.791,-136.974"/>
<polygon fill="midnightblue" stroke="midnightblue" points="878.322,-133.822 867.867,-132.106 874.97,-139.967 878.322,-133.822"/>
</g>
<!-- Node60&#45;&gt;Node28 -->
<g id="edge70" class="edge"><title>Node60&#45;&gt;Node28</title>
<path fill="none" stroke="midnightblue" d="M1386.63,-168.626C1376.23,-154.819 1354.33,-128.075 1330,-112.452 1305.87,-96.9562 1275.72,-85.9814 1250.85,-78.7513"/>
<polygon fill="midnightblue" stroke="midnightblue" points="1251.48,-75.2921 1240.91,-75.9741 1249.6,-82.0343 1251.48,-75.2921"/>
</g>
<!-- Node60&#45;&gt;Node40 -->
<g id="edge69" class="edge"><title>Node60&#45;&gt;Node40</title>
<path fill="none" stroke="midnightblue" d="M1376.77,-168.776C1360.65,-160.155 1335.7,-146.816 1317.04,-136.837"/>
<polygon fill="midnightblue" stroke="midnightblue" points="1318.66,-133.735 1308.19,-132.106 1315.36,-139.908 1318.66,-133.735"/>
</g>
<!-- Node61&#45;&gt;Node6 -->
<g id="edge74" class="edge"><title>Node61&#45;&gt;Node6</title>
<path fill="none" stroke="midnightblue" d="M917.388,-337.994C894.186,-328.391 856.315,-311.614 846,-300.452 818.666,-270.872 805.67,-224.055 800.276,-198.183"/>
<polygon fill="midnightblue" stroke="midnightblue" points="803.682,-197.359 798.36,-188.198 796.808,-198.678 803.682,-197.359"/>
</g>
<!-- Node61&#45;&gt;Node7 -->
<g id="edge72" class="edge"><title>Node61&#45;&gt;Node7</title>
<path fill="none" stroke="midnightblue" d="M929.129,-336.692C922.238,-327.77 911.463,-313.438 903,-300.452 866.038,-243.737 870.144,-220.618 827,-168.452 802.698,-139.068 793.877,-133.378 762,-112.452 742.336,-99.543 718.414,-88.0509 699.756,-79.9115"/>
<polygon fill="midnightblue" stroke="midnightblue" points="701.101,-76.68 690.529,-75.971 698.351,-83.1174 701.101,-76.68"/>
</g>
<!-- Node61&#45;&gt;Node24 -->
<g id="edge73" class="edge"><title>Node61&#45;&gt;Node24</title>
<path fill="none" stroke="midnightblue" d="M939.576,-336.86C957.935,-292.744 1041.75,-91.3581 1067.47,-29.5467"/>
<polygon fill="midnightblue" stroke="midnightblue" points="1070.84,-30.5639 1071.45,-19.9867 1064.37,-27.8743 1070.84,-30.5639"/>
</g>
<!-- Node61&#45;&gt;Node55 -->
<g id="edge79" class="edge"><title>Node61&#45;&gt;Node55</title>
<path fill="none" stroke="midnightblue" d="M954.626,-339.57C982.318,-330.825 1034.9,-314.221 1070.45,-302.995"/>
<polygon fill="midnightblue" stroke="midnightblue" points="1071.51,-306.33 1079.99,-299.982 1069.4,-299.655 1071.51,-306.33"/>
</g>
<!-- Node62 -->
<g id="node49" class="node"><title>Node62</title>
<g id="a_node49"><a xlink:href="filelike_8h.xhtml" target="_top" xlink:title=" ">
<polygon fill="white" stroke="black" points="908,-112.952 908,-131.952 990,-131.952 990,-112.952 908,-112.952"/>
<text text-anchor="middle" x="949" y="-119.952" font-family="Helvetica,sans-Serif" font-size="10.00">filelike/filelike.h</text>
</a>
</g>
</g>
<!-- Node61&#45;&gt;Node62 -->
<g id="edge75" class="edge"><title>Node61&#45;&gt;Node62</title>
<path fill="none" stroke="midnightblue" d="M930.929,-336.603C916.427,-310.068 877.425,-229.247 903,-168.452 908.026,-156.504 917.944,-146.144 927.287,-138.386"/>
<polygon fill="midnightblue" stroke="midnightblue" points="929.439,-141.146 935.213,-132.263 925.16,-135.606 929.439,-141.146"/>
</g>
<!-- Node62&#45;&gt;Node24 -->
<g id="edge77" class="edge"><title>Node62&#45;&gt;Node24</title>
<path fill="none" stroke="midnightblue" d="M958.887,-112.82C980.141,-94.2654 1030.43,-50.3646 1057.32,-26.8892"/>
<polygon fill="midnightblue" stroke="midnightblue" points="1059.93,-29.2563 1065.16,-20.0431 1055.32,-23.983 1059.93,-29.2563"/>
</g>
<!-- Node62&#45;&gt;Node26 -->
<g id="edge76" class="edge"><title>Node62&#45;&gt;Node26</title>
<path fill="none" stroke="midnightblue" d="M951.312,-112.535C953.167,-105.379 955.835,-95.0869 958.154,-86.1428"/>
<polygon fill="midnightblue" stroke="midnightblue" points="961.609,-86.7611 960.731,-76.2027 954.834,-85.0043 961.609,-86.7611"/>
</g>
<!-- Node62&#45;&gt;Node28 -->
<g id="edge78" class="edge"><title>Node62&#45;&gt;Node28</title>
<path fill="none" stroke="midnightblue" d="M989.247,-112.895C1033.65,-103.455 1105.15,-88.2537 1153.09,-78.0628"/>
<polygon fill="midnightblue" stroke="midnightblue" points="1153.89,-81.4711 1162.94,-75.9681 1152.43,-74.6242 1153.89,-81.4711"/>
</g>
</g>
</svg>
