<?xml version="1.0" encoding="UTF-8" standalone="no"?>
<!DOCTYPE svg PUBLIC "-//W3C//DTD SVG 1.1//EN"
 "http://www.w3.org/Graphics/SVG/1.1/DTD/svg11.dtd">
<!-- Generated by graphviz version 2.38.0 (20140413.2041)
 -->
<!-- Title: Graphical Class Hierarchy Pages: 1 -->
<svg width="488pt" height="78pt"
 viewBox="0.00 0.00 488.00 77.50" xmlns="http://www.w3.org/2000/svg" xmlns:xlink="http://www.w3.org/1999/xlink">
<g id="graph0" class="graph" transform="scale(1 1) rotate(0) translate(4 73.5)">
<title>Graphical Class Hierarchy</title>
<polygon fill="white" stroke="none" points="-4,4 -4,-73.5 484,-73.5 484,4 -4,4"/>
<!-- Node0 -->
<g id="node1" class="node"><title>Node0</title>
<g id="a_node1"><a xlink:href="classopenage_1_1util_1_1_variable_base.xhtml" target="_top" xlink:title=" ">
<polygon fill="white" stroke="black" points="0,-28 0,-47 136,-47 136,-28 0,-28"/>
<text text-anchor="middle" x="68" y="-35" font-family="Helvetica,sans-Serif" font-size="10.00">openage::util::VariableBase</text>
</a>
</g>
</g>
<!-- Node1 -->
<g id="node2" class="node"><title>Node1</title>
<g id="a_node2"><a xlink:href="classopenage_1_1util_1_1_variable.xhtml" target="_top" xlink:title=" ">
<polygon fill="white" stroke="black" points="172,-50 172,-69 309,-69 309,-50 172,-50"/>
<text text-anchor="middle" x="240.5" y="-57" font-family="Helvetica,sans-Serif" font-size="10.00">openage::util::Variable&lt; T &gt;</text>
</a>
</g>
</g>
<!-- Node0&#45;&gt;Node1 -->
<g id="edge1" class="edge"><title>Node0&#45;&gt;Node1</title>
<path fill="none" stroke="midnightblue" d="M146.57,-47.5091C154.979,-48.594 163.487,-49.6919 171.766,-50.7601"/>
<polygon fill="midnightblue" stroke="midnightblue" points="146.752,-44.0036 136.386,-46.195 145.856,-50.946 146.752,-44.0036"/>
</g>
<!-- Node3 -->
<g id="node4" class="node"><title>Node3</title>
<g id="a_node4"><a xlink:href="classopenage_1_1util_1_1_variable.xhtml" target="_top" xlink:title=" ">
<polygon fill="white" stroke="black" points="184,-0.5 184,-30.5 297,-30.5 297,-0.5 184,-0.5"/>
<text text-anchor="start" x="192" y="-18.5" font-family="Helvetica,sans-Serif" font-size="10.00">openage::util::Variable</text>
<text text-anchor="middle" x="240.5" y="-7.5" font-family="Helvetica,sans-Serif" font-size="10.00">&lt; bool &gt;</text>
</a>
</g>
</g>
<!-- Node0&#45;&gt;Node3 -->
<g id="edge3" class="edge"><title>Node0&#45;&gt;Node3</title>
<path fill="none" stroke="midnightblue" d="M146.433,-27.5087C159.048,-25.8809 171.894,-24.2233 183.853,-22.6803"/>
<polygon fill="midnightblue" stroke="midnightblue" points="145.856,-24.054 136.386,-28.805 146.752,-30.9964 145.856,-24.054"/>
</g>
<!-- Node2 -->
<g id="node3" class="node"><title>Node2</title>
<g id="a_node3"><a xlink:href="classopenage_1_1options_1_1_var.xhtml" target="_top" xlink:title=" ">
<polygon fill="white" stroke="black" points="345,-50 345,-69 480,-69 480,-50 345,-50"/>
<text text-anchor="middle" x="412.5" y="-57" font-family="Helvetica,sans-Serif" font-size="10.00">openage::options::Var&lt; T &gt;</text>
</a>
</g>
</g>
<!-- Node1&#45;&gt;Node2 -->
<g id="edge2" class="edge"><title>Node1&#45;&gt;Node2</title>
<path fill="none" stroke="midnightblue" d="M319.187,-59.5C327.772,-59.5 336.457,-59.5 344.888,-59.5"/>
<polygon fill="midnightblue" stroke="midnightblue" points="319.177,-56.0001 309.177,-59.5 319.177,-63.0001 319.177,-56.0001"/>
</g>
<!-- Node4 -->
<g id="node5" class="node"><title>Node4</title>
<g id="a_node5"><a xlink:href="classopenage_1_1options_1_1_var.xhtml" target="_top" xlink:title=" ">
<polygon fill="white" stroke="black" points="356.5,-0.5 356.5,-30.5 468.5,-30.5 468.5,-0.5 356.5,-0.5"/>
<text text-anchor="start" x="364.5" y="-18.5" font-family="Helvetica,sans-Serif" font-size="10.00">openage::options::Var</text>
<text text-anchor="middle" x="412.5" y="-7.5" font-family="Helvetica,sans-Serif" font-size="10.00">&lt; bool &gt;</text>
</a>
</g>
</g>
<!-- Node3&#45;&gt;Node4 -->
<g id="edge4" class="edge"><title>Node3&#45;&gt;Node4</title>
<path fill="none" stroke="midnightblue" d="M307.585,-15.5C323.691,-15.5 340.752,-15.5 356.291,-15.5"/>
<polygon fill="midnightblue" stroke="midnightblue" points="307.164,-12.0001 297.164,-15.5 307.164,-19.0001 307.164,-12.0001"/>
</g>
</g>
</svg>
