<?xml version="1.0" encoding="UTF-8" standalone="no"?>
<!DOCTYPE svg PUBLIC "-//W3C//DTD SVG 1.1//EN"
 "http://www.w3.org/Graphics/SVG/1.1/DTD/svg11.dtd">
<!-- Generated by graphviz version 2.38.0 (20140413.2041)
 -->
<!-- Title: Graphical Class Hierarchy Pages: 1 -->
<svg width="262pt" height="88pt"
 viewBox="0.00 0.00 262.00 88.00" xmlns="http://www.w3.org/2000/svg" xmlns:xlink="http://www.w3.org/1999/xlink">
<g id="graph0" class="graph" transform="scale(1 1) rotate(0) translate(4 84)">
<title>Graphical Class Hierarchy</title>
<polygon fill="white" stroke="none" points="-4,4 -4,-84 258,-84 258,4 -4,4"/>
<!-- Node692 -->
<g id="node1" class="node"><title>Node692</title>
<g id="a_node1"><a xlink:title=" ">
<polygon fill="white" stroke="#bfbfbf" points="0,-30 0,-49 63,-49 63,-30 0,-30"/>
<text text-anchor="middle" x="31.5" y="-37" font-family="Helvetica,sans-Serif" font-size="10.00">Exportable</text>
</a>
</g>
</g>
<!-- Node0 -->
<g id="node2" class="node"><title>Node0</title>
<g id="a_node2"><a xlink:href="classopenage_1_1convert_1_1stringresource_1_1_string_resource.xhtml" target="_top" xlink:title=" ">
<polygon fill="white" stroke="black" points="99,-49.5 99,-79.5 254,-79.5 254,-49.5 99,-49.5"/>
<text text-anchor="start" x="107" y="-67.5" font-family="Helvetica,sans-Serif" font-size="10.00">openage.convert.stringresource.</text>
<text text-anchor="middle" x="176.5" y="-56.5" font-family="Helvetica,sans-Serif" font-size="10.00">StringResource</text>
</a>
</g>
</g>
<!-- Node692&#45;&gt;Node0 -->
<g id="edge1" class="edge"><title>Node692&#45;&gt;Node0</title>
<path fill="none" stroke="midnightblue" d="M73.0393,-46.5873C81.1349,-48.0026 89.8869,-49.5327 98.7469,-51.0816"/>
<polygon fill="midnightblue" stroke="midnightblue" points="73.6305,-43.1376 63.1771,-44.8631 72.4249,-50.0331 73.6305,-43.1376"/>
</g>
<!-- Node694 -->
<g id="node3" class="node"><title>Node694</title>
<g id="a_node3"><a xlink:href="classopenage_1_1convert_1_1texture_1_1_texture.xhtml" target="_top" xlink:title=" ">
<polygon fill="white" stroke="black" points="115,-0.5 115,-30.5 238,-30.5 238,-0.5 115,-0.5"/>
<text text-anchor="start" x="123" y="-18.5" font-family="Helvetica,sans-Serif" font-size="10.00">openage.convert.texture.</text>
<text text-anchor="middle" x="176.5" y="-7.5" font-family="Helvetica,sans-Serif" font-size="10.00">Texture</text>
</a>
</g>
</g>
<!-- Node692&#45;&gt;Node694 -->
<g id="edge2" class="edge"><title>Node692&#45;&gt;Node694</title>
<path fill="none" stroke="midnightblue" d="M73.1774,-32.673C86.1479,-30.4962 100.792,-28.0384 114.862,-25.6771"/>
<polygon fill="midnightblue" stroke="midnightblue" points="72.4598,-29.2444 63.1771,-34.3514 73.6185,-36.1479 72.4598,-29.2444"/>
</g>
</g>
</svg>
