<?xml version="1.0" encoding="UTF-8" standalone="no"?>
<!DOCTYPE svg PUBLIC "-//W3C//DTD SVG 1.1//EN"
 "http://www.w3.org/Graphics/SVG/1.1/DTD/svg11.dtd">
<!-- Generated by graphviz version 2.38.0 (20140413.2041)
 -->
<!-- Title: Graphical Class Hierarchy Pages: 1 -->
<svg width="337pt" height="50pt"
 viewBox="0.00 0.00 337.00 50.00" xmlns="http://www.w3.org/2000/svg" xmlns:xlink="http://www.w3.org/1999/xlink">
<g id="graph0" class="graph" transform="scale(1 1) rotate(0) translate(4 46)">
<title>Graphical Class Hierarchy</title>
<polygon fill="white" stroke="none" points="-4,4 -4,-46 333,-46 333,4 -4,4"/>
<!-- Node0 -->
<g id="node1" class="node"><title>Node0</title>
<g id="a_node1"><a xlink:href="classopenage_1_1pyinterface_1_1_func.xhtml" target="_top" xlink:title=" ">
<polygon fill="white" stroke="black" points="0,-6 0,-36 171,-36 171,-6 0,-6"/>
<text text-anchor="start" x="8" y="-24" font-family="Helvetica,sans-Serif" font-size="10.00">openage::pyinterface</text>
<text text-anchor="middle" x="85.5" y="-13" font-family="Helvetica,sans-Serif" font-size="10.00">::Func&lt; ReturnType, ArgTypes ... &gt;</text>
</a>
</g>
</g>
<!-- Node1 -->
<g id="node2" class="node"><title>Node1</title>
<g id="a_node2"><a xlink:href="classopenage_1_1pyinterface_1_1_py_if_func.xhtml" target="_top" xlink:title="For usage by &quot;Py Interface Functions&quot;, i.e.">
<polygon fill="white" stroke="black" points="207,-0.5 207,-41.5 329,-41.5 329,-0.5 207,-0.5"/>
<text text-anchor="start" x="215" y="-29.5" font-family="Helvetica,sans-Serif" font-size="10.00">openage::pyinterface</text>
<text text-anchor="start" x="215" y="-18.5" font-family="Helvetica,sans-Serif" font-size="10.00">::PyIfFunc&lt; ReturnType,</text>
<text text-anchor="middle" x="268" y="-7.5" font-family="Helvetica,sans-Serif" font-size="10.00"> ArgTypes &gt;</text>
</a>
</g>
</g>
<!-- Node0&#45;&gt;Node1 -->
<g id="edge1" class="edge"><title>Node0&#45;&gt;Node1</title>
<path fill="none" stroke="midnightblue" d="M181.414,-21C190.109,-21 198.745,-21 207,-21"/>
<polygon fill="midnightblue" stroke="midnightblue" points="181.201,-17.5001 171.201,-21 181.201,-24.5001 181.201,-17.5001"/>
</g>
</g>
</svg>
