<?xml version="1.0" encoding="UTF-8" standalone="no"?>
<!DOCTYPE svg PUBLIC "-//W3C//DTD SVG 1.1//EN"
 "http://www.w3.org/Graphics/SVG/1.1/DTD/svg11.dtd">
<!-- Generated by graphviz version 2.38.0 (20140413.2041)
 -->
<!-- Title: libopenage/input/action.h Pages: 1 -->
<!--zoomable 644 -->
<svg id="main" version="1.1" xmlns="http://www.w3.org/2000/svg" xmlns:xlink="http://www.w3.org/1999/xlink" xml:space="preserve" onload="init(evt)">
<style type="text/css"><![CDATA[
.edge:hover path { stroke: red; }
.edge:hover polygon { stroke: red; fill: red; }
]]></style>
<script type="text/javascript"><![CDATA[
var edges = document.getElementsByTagName('g');
if (edges && edges.length) {
  for (var i=0;i<edges.length;i++) {
    if (edges[i].id.substr(0,4)=='edge') {
      edges[i].setAttribute('class','edge');
    }
  }
}
]]></script>
        <defs>
                <circle id="rim" cx="0" cy="0" r="7"/>
                <circle id="rim2" cx="0" cy="0" r="3.5"/>
                <g id="zoomPlus">
                        <use xlink:href="#rim" fill="#404040">
                                <set attributeName="fill" to="#808080" begin="zoomplus.mouseover" end="zoomplus.mouseout"/>
                        </use>
                        <path d="M-4,0h8M0,-4v8" fill="none" stroke="white" stroke-width="1.5" pointer-events="none"/>
                </g>
                <g id="zoomMin">
                        <use xlink:href="#rim" fill="#404040">
                                <set attributeName="fill" to="#808080" begin="zoomminus.mouseover" end="zoomminus.mouseout"/>
                        </use>
                        <path d="M-4,0h8" fill="none" stroke="white" stroke-width="1.5" pointer-events="none"/>
                </g>
                <g id="dirArrow">
                        <path fill="none" stroke="white" stroke-width="1.5" d="M0,-3.0v7 M-2.5,-0.5L0,-3.0L2.5,-0.5"/>
                </g>
               <g id="resetDef">
                       <use xlink:href="#rim2" fill="#404040">
                               <set attributeName="fill" to="#808080" begin="reset.mouseover" end="reset.mouseout"/>
                       </use>
               </g>
        </defs>

<script type="text/javascript">
var viewWidth = 1267;
var viewHeight = 644;
var sectionId = 'dynsection-0';
</script>
<script xlink:href="svgpan.js"/>
<svg id="graph" class="graph">
<g id="viewport">
<title>libopenage/input/action.h</title>
<polygon fill="white" stroke="none" points="-4,4 -4,-640.452 1263.03,-640.452 1263.03,4 -4,4"/>
<!-- Node0 -->
<g id="node1" class="node"><title>Node0</title>
<g id="a_node1"><a xlink:title=" ">
<polygon fill="#bfbfbf" stroke="black" points="976.5,-616.952 976.5,-635.952 1101.5,-635.952 1101.5,-616.952 976.5,-616.952"/>
<text text-anchor="middle" x="1039" y="-623.952" font-family="Helvetica,sans-Serif" font-size="10.00">libopenage/input/action.h</text>
</a>
</g>
</g>
<!-- Node1 -->
<g id="node2" class="node"><title>Node1</title>
<g id="a_node2"><a xlink:title=" ">
<polygon fill="white" stroke="#bfbfbf" points="130,-112.952 130,-131.952 188,-131.952 188,-112.952 130,-112.952"/>
<text text-anchor="middle" x="159" y="-119.952" font-family="Helvetica,sans-Serif" font-size="10.00">functional</text>
</a>
</g>
</g>
<!-- Node0&#45;&gt;Node1 -->
<g id="edge1" class="edge"><title>Node0&#45;&gt;Node1</title>
<path fill="none" stroke="midnightblue" d="M976.346,-625.432C751.713,-624.544 0,-614.196 0,-515.452 0,-515.452 0,-515.452 0,-345.452 0,-251.426 95.4377,-169.84 138.432,-137.857"/>
<polygon fill="midnightblue" stroke="midnightblue" points="140.5,-140.681 146.524,-131.965 136.379,-135.022 140.5,-140.681"/>
</g>
<!-- Node2 -->
<g id="node3" class="node"><title>Node2</title>
<g id="a_node3"><a xlink:title=" ">
<polygon fill="white" stroke="#bfbfbf" points="1163.5,-504.952 1163.5,-523.952 1246.5,-523.952 1246.5,-504.952 1163.5,-504.952"/>
<text text-anchor="middle" x="1205" y="-511.952" font-family="Helvetica,sans-Serif" font-size="10.00">unordered_map</text>
</a>
</g>
</g>
<!-- Node0&#45;&gt;Node2 -->
<g id="edge2" class="edge"><title>Node0&#45;&gt;Node2</title>
<path fill="none" stroke="midnightblue" d="M1052.03,-616.82C1080.51,-597.944 1148.58,-552.837 1183.52,-529.688"/>
<polygon fill="midnightblue" stroke="midnightblue" points="1185.63,-532.484 1192.03,-524.043 1181.77,-526.649 1185.63,-532.484"/>
</g>
<!-- Node3 -->
<g id="node4" class="node"><title>Node3</title>
<g id="a_node4"><a xlink:title=" ">
<polygon fill="white" stroke="#bfbfbf" points="1004,-112.952 1004,-131.952 1046,-131.952 1046,-112.952 1004,-112.952"/>
<text text-anchor="middle" x="1025" y="-119.952" font-family="Helvetica,sans-Serif" font-size="10.00">vector</text>
</a>
</g>
</g>
<!-- Node0&#45;&gt;Node3 -->
<g id="edge3" class="edge"><title>Node0&#45;&gt;Node3</title>
<path fill="none" stroke="midnightblue" d="M1101.76,-617.732C1172.66,-605.525 1275.82,-575.386 1256,-504.452 1211.91,-346.7 1082.71,-189.246 1039.37,-139.527"/>
<polygon fill="midnightblue" stroke="midnightblue" points="1041.98,-137.192 1032.74,-132 1036.72,-141.818 1041.98,-137.192"/>
</g>
<!-- Node4 -->
<g id="node5" class="node"><title>Node4</title>
<g id="a_node5"><a xlink:href="pixel_8h.xhtml" target="_top" xlink:title=" ">
<polygon fill="white" stroke="black" points="803.5,-560.952 803.5,-579.952 884.5,-579.952 884.5,-560.952 803.5,-560.952"/>
<text text-anchor="middle" x="844" y="-567.952" font-family="Helvetica,sans-Serif" font-size="10.00">../coord/pixel.h</text>
</a>
</g>
</g>
<!-- Node0&#45;&gt;Node4 -->
<g id="edge4" class="edge"><title>Node0&#45;&gt;Node4</title>
<path fill="none" stroke="midnightblue" d="M1008.1,-616.895C974.726,-607.653 921.406,-592.887 884.651,-582.709"/>
<polygon fill="midnightblue" stroke="midnightblue" points="885.325,-579.264 874.754,-579.968 883.457,-586.01 885.325,-579.264"/>
</g>
<!-- Node43 -->
<g id="node44" class="node"><title>Node43</title>
<g id="a_node44"><a xlink:href="input_2event_8h.xhtml" target="_top" xlink:title=" ">
<polygon fill="white" stroke="black" points="1015.5,-560.952 1015.5,-579.952 1062.5,-579.952 1062.5,-560.952 1015.5,-560.952"/>
<text text-anchor="middle" x="1039" y="-567.952" font-family="Helvetica,sans-Serif" font-size="10.00">event.h</text>
</a>
</g>
</g>
<!-- Node0&#45;&gt;Node43 -->
<g id="edge66" class="edge"><title>Node0&#45;&gt;Node43</title>
<path fill="none" stroke="midnightblue" d="M1039,-616.535C1039,-609.458 1039,-599.313 1039,-590.438"/>
<polygon fill="midnightblue" stroke="midnightblue" points="1042.5,-590.203 1039,-580.203 1035.5,-590.203 1042.5,-590.203"/>
</g>
<!-- Node5 -->
<g id="node6" class="node"><title>Node5</title>
<g id="a_node6"><a xlink:title=" ">
<polygon fill="white" stroke="#bfbfbf" points="704.5,-504.952 704.5,-523.952 787.5,-523.952 787.5,-504.952 704.5,-504.952"/>
<text text-anchor="middle" x="746" y="-511.952" font-family="Helvetica,sans-Serif" font-size="10.00">coord_xy.gen.h</text>
</a>
</g>
</g>
<!-- Node4&#45;&gt;Node5 -->
<g id="edge5" class="edge"><title>Node4&#45;&gt;Node5</title>
<path fill="none" stroke="midnightblue" d="M828.255,-560.776C812.681,-552.194 788.623,-538.938 770.541,-528.974"/>
<polygon fill="midnightblue" stroke="midnightblue" points="772.154,-525.867 761.706,-524.106 768.776,-531.998 772.154,-525.867"/>
</g>
<!-- Node6 -->
<g id="node7" class="node"><title>Node6</title>
<g id="a_node7"><a xlink:href="declarations_8h.xhtml" target="_top" xlink:title=" ">
<polygon fill="white" stroke="black" points="805.5,-504.952 805.5,-523.952 882.5,-523.952 882.5,-504.952 805.5,-504.952"/>
<text text-anchor="middle" x="844" y="-511.952" font-family="Helvetica,sans-Serif" font-size="10.00">declarations.h</text>
</a>
</g>
</g>
<!-- Node4&#45;&gt;Node6 -->
<g id="edge6" class="edge"><title>Node4&#45;&gt;Node6</title>
<path fill="none" stroke="midnightblue" d="M844,-560.535C844,-553.458 844,-543.313 844,-534.438"/>
<polygon fill="midnightblue" stroke="midnightblue" points="847.5,-534.203 844,-524.203 840.5,-534.203 847.5,-534.203"/>
</g>
<!-- Node7 -->
<g id="node8" class="node"><title>Node7</title>
<g id="a_node8"><a xlink:title=" ">
<polygon fill="white" stroke="#bfbfbf" points="813,-224.952 813,-243.952 859,-243.952 859,-224.952 813,-224.952"/>
<text text-anchor="middle" x="836" y="-231.952" font-family="Helvetica,sans-Serif" font-size="10.00">cstdint</text>
</a>
</g>
</g>
<!-- Node6&#45;&gt;Node7 -->
<g id="edge7" class="edge"><title>Node6&#45;&gt;Node7</title>
<path fill="none" stroke="midnightblue" d="M856.656,-504.802C879.438,-488.094 925,-448.987 925,-403.452 925,-403.452 925,-403.452 925,-345.452 925,-303.297 885.01,-268.231 858.642,-249.691"/>
<polygon fill="midnightblue" stroke="midnightblue" points="860.544,-246.752 850.299,-244.051 856.623,-252.551 860.544,-246.752"/>
</g>
<!-- Node8 -->
<g id="node9" class="node"><title>Node8</title>
<g id="a_node9"><a xlink:href="fixed__point_8h.xhtml" target="_top" xlink:title=" ">
<polygon fill="white" stroke="black" points="200,-448.952 200,-467.952 296,-467.952 296,-448.952 200,-448.952"/>
<text text-anchor="middle" x="248" y="-455.952" font-family="Helvetica,sans-Serif" font-size="10.00">../util/fixed_point.h</text>
</a>
</g>
</g>
<!-- Node6&#45;&gt;Node8 -->
<g id="edge8" class="edge"><title>Node6&#45;&gt;Node8</title>
<path fill="none" stroke="midnightblue" d="M805.283,-505.837C802.149,-505.329 799.025,-504.858 796,-504.452 618.505,-480.589 406.849,-467.534 306.43,-462.261"/>
<polygon fill="midnightblue" stroke="midnightblue" points="306.361,-458.753 296.193,-461.731 305.998,-465.744 306.361,-458.753"/>
</g>
<!-- Node9 -->
<g id="node10" class="node"><title>Node9</title>
<g id="a_node10"><a xlink:title=" ">
<polygon fill="white" stroke="#bfbfbf" points="128,-336.952 128,-355.952 184,-355.952 184,-336.952 128,-336.952"/>
<text text-anchor="middle" x="156" y="-343.952" font-family="Helvetica,sans-Serif" font-size="10.00">algorithm</text>
</a>
</g>
</g>
<!-- Node8&#45;&gt;Node9 -->
<g id="edge9" class="edge"><title>Node8&#45;&gt;Node9</title>
<path fill="none" stroke="midnightblue" d="M247.407,-448.563C246.103,-435.142 241.973,-409.468 229,-392.452 218.338,-378.466 201.972,-367.806 187.437,-360.38"/>
<polygon fill="midnightblue" stroke="midnightblue" points="188.759,-357.132 178.228,-355.965 185.732,-363.444 188.759,-357.132"/>
</g>
<!-- Node10 -->
<g id="node11" class="node"><title>Node10</title>
<g id="a_node11"><a xlink:title=" ">
<polygon fill="white" stroke="#bfbfbf" points="578.5,-392.952 578.5,-411.952 623.5,-411.952 623.5,-392.952 578.5,-392.952"/>
<text text-anchor="middle" x="601" y="-399.952" font-family="Helvetica,sans-Serif" font-size="10.00">climits</text>
</a>
</g>
</g>
<!-- Node8&#45;&gt;Node10 -->
<g id="edge10" class="edge"><title>Node8&#45;&gt;Node10</title>
<path fill="none" stroke="midnightblue" d="M296.155,-452.07C358.323,-444.785 469.722,-430.586 564,-412.452 565.461,-412.171 566.95,-411.87 568.453,-411.554"/>
<polygon fill="midnightblue" stroke="midnightblue" points="569.389,-414.931 578.378,-409.323 567.854,-408.101 569.389,-414.931"/>
</g>
<!-- Node11 -->
<g id="node12" class="node"><title>Node11</title>
<g id="a_node12"><a xlink:title=" ">
<polygon fill="white" stroke="#bfbfbf" points="66,-336.952 66,-355.952 110,-355.952 110,-336.952 66,-336.952"/>
<text text-anchor="middle" x="88" y="-343.952" font-family="Helvetica,sans-Serif" font-size="10.00">cmath</text>
</a>
</g>
</g>
<!-- Node8&#45;&gt;Node11 -->
<g id="edge11" class="edge"><title>Node8&#45;&gt;Node11</title>
<path fill="none" stroke="midnightblue" d="M227.319,-448.933C208.687,-440.816 180.935,-427.611 159,-412.452 138.083,-397.996 116.952,-377.765 103.248,-363.729"/>
<polygon fill="midnightblue" stroke="midnightblue" points="105.543,-361.066 96.0957,-356.271 100.491,-365.911 105.543,-361.066"/>
</g>
<!-- Node12 -->
<g id="node13" class="node"><title>Node12</title>
<g id="a_node13"><a xlink:title=" ">
<polygon fill="white" stroke="#bfbfbf" points="224,-112.952 224,-131.952 274,-131.952 274,-112.952 224,-112.952"/>
<text text-anchor="middle" x="249" y="-119.952" font-family="Helvetica,sans-Serif" font-size="10.00">iomanip</text>
</a>
</g>
</g>
<!-- Node8&#45;&gt;Node12 -->
<g id="edge12" class="edge"><title>Node8&#45;&gt;Node12</title>
<path fill="none" stroke="midnightblue" d="M201.907,-448.93C154.644,-437.334 84.3091,-411.365 57,-356.452 32.5141,-307.215 177.143,-182.169 230.12,-138.656"/>
<polygon fill="midnightblue" stroke="midnightblue" points="232.531,-141.206 238.07,-132.174 228.108,-135.78 232.531,-141.206"/>
</g>
<!-- Node13 -->
<g id="node14" class="node"><title>Node13</title>
<g id="a_node14"><a xlink:title=" ">
<polygon fill="white" stroke="#bfbfbf" points="28,-392.952 28,-411.952 68,-411.952 68,-392.952 28,-392.952"/>
<text text-anchor="middle" x="48" y="-399.952" font-family="Helvetica,sans-Serif" font-size="10.00">limits</text>
</a>
</g>
</g>
<!-- Node8&#45;&gt;Node13 -->
<g id="edge13" class="edge"><title>Node8&#45;&gt;Node13</title>
<path fill="none" stroke="midnightblue" d="M216.309,-448.895C178.353,-438.647 115.246,-421.608 78.038,-411.562"/>
<polygon fill="midnightblue" stroke="midnightblue" points="78.8393,-408.153 68.2726,-408.925 77.0146,-414.911 78.8393,-408.153"/>
</g>
<!-- Node14 -->
<g id="node15" class="node"><title>Node14</title>
<g id="a_node15"><a xlink:title=" ">
<polygon fill="white" stroke="#bfbfbf" points="168,-392.952 168,-411.952 220,-411.952 220,-392.952 168,-392.952"/>
<text text-anchor="middle" x="194" y="-399.952" font-family="Helvetica,sans-Serif" font-size="10.00">ostream</text>
</a>
</g>
</g>
<!-- Node8&#45;&gt;Node14 -->
<g id="edge14" class="edge"><title>Node8&#45;&gt;Node14</title>
<path fill="none" stroke="midnightblue" d="M239.083,-448.535C231.22,-440.671 219.569,-429.02 210.081,-419.533"/>
<polygon fill="midnightblue" stroke="midnightblue" points="212.297,-416.799 202.751,-412.203 207.347,-421.749 212.297,-416.799"/>
</g>
<!-- Node15 -->
<g id="node16" class="node"><title>Node15</title>
<g id="a_node16"><a xlink:title=" ">
<polygon fill="white" stroke="#bfbfbf" points="337,-168.952 337,-187.952 399,-187.952 399,-168.952 337,-168.952"/>
<text text-anchor="middle" x="368" y="-175.952" font-family="Helvetica,sans-Serif" font-size="10.00">type_traits</text>
</a>
</g>
</g>
<!-- Node8&#45;&gt;Node15 -->
<g id="edge15" class="edge"><title>Node8&#45;&gt;Node15</title>
<path fill="none" stroke="midnightblue" d="M296.112,-453.135C354.07,-445.065 449.109,-422.02 493,-356.452 497.945,-349.065 497.307,-344.228 493,-336.452 455.658,-269.028 383.342,-311.875 346,-244.452 337.558,-229.21 345.942,-210.169 354.682,-196.644"/>
<polygon fill="midnightblue" stroke="midnightblue" points="357.681,-198.465 360.587,-188.276 351.962,-194.429 357.681,-198.465"/>
</g>
<!-- Node16 -->
<g id="node17" class="node"><title>Node16</title>
<g id="a_node17"><a xlink:href="misc_8h.xhtml" target="_top" xlink:title=" ">
<polygon fill="white" stroke="black" points="277,-392.952 277,-411.952 323,-411.952 323,-392.952 277,-392.952"/>
<text text-anchor="middle" x="300" y="-399.952" font-family="Helvetica,sans-Serif" font-size="10.00">misc.h</text>
</a>
</g>
</g>
<!-- Node8&#45;&gt;Node16 -->
<g id="edge16" class="edge"><title>Node8&#45;&gt;Node16</title>
<path fill="none" stroke="midnightblue" d="M256.587,-448.535C264.159,-440.671 275.378,-429.02 284.514,-419.533"/>
<polygon fill="midnightblue" stroke="midnightblue" points="287.158,-421.834 291.573,-412.203 282.115,-416.978 287.158,-421.834"/>
</g>
<!-- Node16&#45;&gt;Node3 -->
<g id="edge22" class="edge"><title>Node16&#45;&gt;Node3</title>
<path fill="none" stroke="midnightblue" d="M323.341,-401.272C430.836,-399.968 877.225,-389.211 977,-300.452 1000.81,-279.271 1016.73,-182.988 1022.54,-142.007"/>
<polygon fill="midnightblue" stroke="midnightblue" points="1026.02,-142.406 1023.91,-132.023 1019.09,-141.455 1026.02,-142.406"/>
</g>
<!-- Node16&#45;&gt;Node9 -->
<g id="edge17" class="edge"><title>Node16&#45;&gt;Node9</title>
<path fill="none" stroke="midnightblue" d="M277.183,-392.895C253.168,-383.89 215.171,-369.641 188.131,-359.501"/>
<polygon fill="midnightblue" stroke="midnightblue" points="189.303,-356.202 178.71,-355.968 186.845,-362.757 189.303,-356.202"/>
</g>
<!-- Node16&#45;&gt;Node11 -->
<g id="edge19" class="edge"><title>Node16&#45;&gt;Node11</title>
<path fill="none" stroke="midnightblue" d="M276.782,-395.985C244.022,-388.205 182.139,-373.271 120.25,-356.715"/>
<polygon fill="midnightblue" stroke="midnightblue" points="120.888,-353.262 110.322,-354.045 119.07,-360.022 120.888,-353.262"/>
</g>
<!-- Node17 -->
<g id="node18" class="node"><title>Node17</title>
<g id="a_node18"><a xlink:title=" ">
<polygon fill="white" stroke="#bfbfbf" points="278,-336.952 278,-355.952 326,-355.952 326,-336.952 278,-336.952"/>
<text text-anchor="middle" x="302" y="-343.952" font-family="Helvetica,sans-Serif" font-size="10.00">limits.h</text>
</a>
</g>
</g>
<!-- Node16&#45;&gt;Node17 -->
<g id="edge18" class="edge"><title>Node16&#45;&gt;Node17</title>
<path fill="none" stroke="midnightblue" d="M300.33,-392.535C300.592,-385.458 300.968,-375.313 301.297,-366.438"/>
<polygon fill="midnightblue" stroke="midnightblue" points="304.803,-366.325 301.676,-356.203 297.808,-366.066 304.803,-366.325"/>
</g>
<!-- Node18 -->
<g id="node19" class="node"><title>Node18</title>
<g id="a_node19"><a xlink:title=" ">
<polygon fill="white" stroke="#bfbfbf" points="438,-336.952 438,-355.952 484,-355.952 484,-336.952 438,-336.952"/>
<text text-anchor="middle" x="461" y="-343.952" font-family="Helvetica,sans-Serif" font-size="10.00">cstring</text>
</a>
</g>
</g>
<!-- Node16&#45;&gt;Node18 -->
<g id="edge20" class="edge"><title>Node16&#45;&gt;Node18</title>
<path fill="none" stroke="midnightblue" d="M323.067,-393.715C350.685,-384.452 397.12,-368.877 428.396,-358.387"/>
<polygon fill="midnightblue" stroke="midnightblue" points="429.607,-361.672 437.975,-355.174 427.381,-355.036 429.607,-361.672"/>
</g>
<!-- Node19 -->
<g id="node20" class="node"><title>Node19</title>
<g id="a_node20"><a xlink:title=" ">
<polygon fill="white" stroke="#bfbfbf" points="726.5,-0.951632 726.5,-19.9516 767.5,-19.9516 767.5,-0.951632 726.5,-0.951632"/>
<text text-anchor="middle" x="747" y="-7.95163" font-family="Helvetica,sans-Serif" font-size="10.00">string</text>
</a>
</g>
</g>
<!-- Node16&#45;&gt;Node19 -->
<g id="edge21" class="edge"><title>Node16&#45;&gt;Node19</title>
<path fill="none" stroke="midnightblue" d="M323.208,-400.742C440.554,-396.543 963,-370.276 963,-235.452 963,-235.452 963,-235.452 963,-121.452 963,-88.6409 953.915,-76.5753 928,-56.4516 883.817,-22.1425 816.839,-13.6463 777.952,-11.7485"/>
<polygon fill="midnightblue" stroke="midnightblue" points="777.894,-8.24405 767.772,-11.3722 777.635,-15.2393 777.894,-8.24405"/>
</g>
<!-- Node20 -->
<g id="node21" class="node"><title>Node20</title>
<g id="a_node21"><a xlink:title=" ">
<polygon fill="white" stroke="#bfbfbf" points="329,-112.952 329,-131.952 381,-131.952 381,-112.952 329,-112.952"/>
<text text-anchor="middle" x="355" y="-119.952" font-family="Helvetica,sans-Serif" font-size="10.00">memory</text>
</a>
</g>
</g>
<!-- Node16&#45;&gt;Node20 -->
<g id="edge23" class="edge"><title>Node16&#45;&gt;Node20</title>
<path fill="none" stroke="midnightblue" d="M290.607,-392.856C273.748,-376.713 238.909,-339.912 226,-300.452 223.236,-292.003 224.767,-289.255 226,-280.452 233.181,-229.182 224.358,-207.801 258,-168.452 273.654,-150.141 298.362,-138.831 318.923,-132.13"/>
<polygon fill="midnightblue" stroke="midnightblue" points="320.064,-135.441 328.625,-129.199 318.04,-128.74 320.064,-135.441"/>
</g>
<!-- Node21 -->
<g id="node22" class="node"><title>Node21</title>
<g id="a_node22"><a xlink:href="error_2error_8h.xhtml" target="_top" xlink:title=" ">
<polygon fill="white" stroke="black" points="344,-336.952 344,-355.952 420,-355.952 420,-336.952 344,-336.952"/>
<text text-anchor="middle" x="382" y="-343.952" font-family="Helvetica,sans-Serif" font-size="10.00">../error/error.h</text>
</a>
</g>
</g>
<!-- Node16&#45;&gt;Node21 -->
<g id="edge24" class="edge"><title>Node16&#45;&gt;Node21</title>
<path fill="none" stroke="midnightblue" d="M313.175,-392.776C325.847,-384.431 345.233,-371.664 360.206,-361.804"/>
<polygon fill="midnightblue" stroke="midnightblue" points="362.431,-364.529 368.858,-356.106 358.581,-358.683 362.431,-364.529"/>
</g>
<!-- Node24 -->
<g id="node25" class="node"><title>Node24</title>
<g id="a_node25"><a xlink:href="compiler_8h.xhtml" target="_top" xlink:title=" ">
<polygon fill="white" stroke="black" points="376,-56.9516 376,-75.9516 462,-75.9516 462,-56.9516 376,-56.9516"/>
<text text-anchor="middle" x="419" y="-63.9516" font-family="Helvetica,sans-Serif" font-size="10.00">../util/compiler.h</text>
</a>
</g>
</g>
<!-- Node16&#45;&gt;Node24 -->
<g id="edge65" class="edge"><title>Node16&#45;&gt;Node24</title>
<path fill="none" stroke="midnightblue" d="M285.953,-392.843C227.316,-355.945 9.45959,-208.665 104,-112.452 139.434,-76.391 285.221,-68.8917 365.451,-67.5463"/>
<polygon fill="midnightblue" stroke="midnightblue" points="365.895,-71.0405 375.845,-67.4003 365.797,-64.0412 365.895,-71.0405"/>
</g>
<!-- Node21&#45;&gt;Node19 -->
<g id="edge28" class="edge"><title>Node21&#45;&gt;Node19</title>
<path fill="none" stroke="midnightblue" d="M420.17,-337.837C423.152,-337.336 426.122,-336.866 429,-336.452 592.532,-312.89 642.657,-353.882 799,-300.452 872.469,-275.344 925,-257.092 925,-179.452 925,-179.452 925,-179.452 925,-121.452 925,-91.3538 927.373,-77.6425 906,-56.4516 871.659,-22.4044 813.607,-13.6839 777.957,-11.6988"/>
<polygon fill="midnightblue" stroke="midnightblue" points="777.798,-8.18947 767.663,-11.2784 777.512,-15.1836 777.798,-8.18947"/>
</g>
<!-- Node21&#45;&gt;Node20 -->
<g id="edge26" class="edge"><title>Node21&#45;&gt;Node20</title>
<path fill="none" stroke="midnightblue" d="M372.099,-336.817C347.881,-314.952 286.03,-254.429 264,-188.452 261.185,-180.02 259.31,-176.003 264,-168.452 276.012,-149.111 299.071,-137.831 318.971,-131.402"/>
<polygon fill="midnightblue" stroke="midnightblue" points="320.108,-134.716 328.718,-128.543 318.137,-127.999 320.108,-134.716"/>
</g>
<!-- Node22 -->
<g id="node23" class="node"><title>Node22</title>
<g id="a_node23"><a xlink:title=" ">
<polygon fill="white" stroke="#bfbfbf" points="843,-56.9516 843,-75.9516 897,-75.9516 897,-56.9516 843,-56.9516"/>
<text text-anchor="middle" x="870" y="-63.9516" font-family="Helvetica,sans-Serif" font-size="10.00">iostream</text>
</a>
</g>
</g>
<!-- Node21&#45;&gt;Node22 -->
<g id="edge25" class="edge"><title>Node21&#45;&gt;Node22</title>
<path fill="none" stroke="midnightblue" d="M420.187,-337.952C423.166,-337.424 426.13,-336.917 429,-336.452 527.388,-320.486 809.192,-324.929 868,-244.452 902.848,-196.762 886.497,-120.912 876.183,-86.0669"/>
<polygon fill="midnightblue" stroke="midnightblue" points="879.447,-84.7791 873.118,-76.2821 872.767,-86.8711 879.447,-84.7791"/>
</g>
<!-- Node23 -->
<g id="node24" class="node"><title>Node23</title>
<g id="a_node24"><a xlink:title=" ">
<polygon fill="white" stroke="#bfbfbf" points="235.5,-280.952 235.5,-299.952 294.5,-299.952 294.5,-280.952 235.5,-280.952"/>
<text text-anchor="middle" x="265" y="-287.952" font-family="Helvetica,sans-Serif" font-size="10.00">stdexcept</text>
</a>
</g>
</g>
<!-- Node21&#45;&gt;Node23 -->
<g id="edge27" class="edge"><title>Node21&#45;&gt;Node23</title>
<path fill="none" stroke="midnightblue" d="M363.461,-336.895C344.377,-328.087 314.425,-314.263 292.564,-304.174"/>
<polygon fill="midnightblue" stroke="midnightblue" points="293.999,-300.981 283.452,-299.968 291.065,-307.337 293.999,-300.981"/>
</g>
<!-- Node21&#45;&gt;Node24 -->
<g id="edge29" class="edge"><title>Node21&#45;&gt;Node24</title>
<path fill="none" stroke="midnightblue" d="M343.915,-337.746C304.002,-329.105 244.562,-314.461 226,-300.452 149.61,-242.798 58.5833,-185.001 121,-112.452 151.921,-76.5111 288.404,-68.9048 365.495,-67.5276"/>
<polygon fill="midnightblue" stroke="midnightblue" points="366.015,-71.0204 375.961,-67.3723 365.911,-64.0212 366.015,-71.0204"/>
</g>
<!-- Node27 -->
<g id="node28" class="node"><title>Node27</title>
<g id="a_node28"><a xlink:href="message_8h.xhtml" target="_top" xlink:title=" ">
<polygon fill="white" stroke="black" points="601.5,-280.952 601.5,-299.952 690.5,-299.952 690.5,-280.952 601.5,-280.952"/>
<text text-anchor="middle" x="646" y="-287.952" font-family="Helvetica,sans-Serif" font-size="10.00">../log/message.h</text>
</a>
</g>
</g>
<!-- Node21&#45;&gt;Node27 -->
<g id="edge34" class="edge"><title>Node21&#45;&gt;Node27</title>
<path fill="none" stroke="midnightblue" d="M420.106,-337.657C466.023,-328.265 543.367,-312.445 594.551,-301.975"/>
<polygon fill="midnightblue" stroke="midnightblue" points="595.326,-305.389 604.422,-299.956 593.923,-298.531 595.326,-305.389"/>
</g>
<!-- Node24&#45;&gt;Node19 -->
<g id="edge31" class="edge"><title>Node24&#45;&gt;Node19</title>
<path fill="none" stroke="midnightblue" d="M462.218,-58.3365C529.525,-47.2555 657.738,-26.1472 716.366,-16.495"/>
<polygon fill="midnightblue" stroke="midnightblue" points="717.174,-19.9092 726.473,-14.8311 716.037,-13.0021 717.174,-19.9092"/>
</g>
<!-- Node25 -->
<g id="node26" class="node"><title>Node25</title>
<g id="a_node26"><a xlink:title=" ">
<polygon fill="white" stroke="#bfbfbf" points="437,-0.951632 437,-19.9516 487,-19.9516 487,-0.951632 437,-0.951632"/>
<text text-anchor="middle" x="462" y="-7.95163" font-family="Helvetica,sans-Serif" font-size="10.00">ciso646</text>
</a>
</g>
</g>
<!-- Node24&#45;&gt;Node25 -->
<g id="edge30" class="edge"><title>Node24&#45;&gt;Node25</title>
<path fill="none" stroke="midnightblue" d="M426.101,-56.5346C432.237,-48.8284 441.27,-37.485 448.739,-28.1047"/>
<polygon fill="midnightblue" stroke="midnightblue" points="451.54,-30.2058 455.032,-20.2027 446.064,-25.8453 451.54,-30.2058"/>
</g>
<!-- Node26 -->
<g id="node27" class="node"><title>Node26</title>
<g id="a_node27"><a xlink:href="signal_8h.xhtml" target="_top" xlink:title=" ">
<polygon fill="white" stroke="black" points="351,-0.951632 351,-19.9516 401,-19.9516 401,-0.951632 351,-0.951632"/>
<text text-anchor="middle" x="376" y="-7.95163" font-family="Helvetica,sans-Serif" font-size="10.00">signal.h</text>
</a>
</g>
</g>
<!-- Node24&#45;&gt;Node26 -->
<g id="edge32" class="edge"><title>Node24&#45;&gt;Node26</title>
<path fill="none" stroke="midnightblue" d="M411.899,-56.5346C405.763,-48.8284 396.73,-37.485 389.261,-28.1047"/>
<polygon fill="midnightblue" stroke="midnightblue" points="391.936,-25.8453 382.968,-20.2027 386.46,-30.2058 391.936,-25.8453"/>
</g>
<!-- Node26&#45;&gt;Node26 -->
<g id="edge33" class="edge"><title>Node26&#45;&gt;Node26</title>
<path fill="none" stroke="midnightblue" d="M394.563,-20.0262C406.946,-22.7213 419,-19.5298 419,-10.4516 419,-3.92673 412.773,-0.442852 404.673,-0"/>
<polygon fill="midnightblue" stroke="midnightblue" points="404.223,3.47427 394.563,-0.877047 404.829,-3.49953 404.223,3.47427"/>
</g>
<!-- Node27&#45;&gt;Node7 -->
<g id="edge35" class="edge"><title>Node27&#45;&gt;Node7</title>
<path fill="none" stroke="midnightblue" d="M676.106,-280.895C710.677,-271.07 767.211,-255.002 802.967,-244.84"/>
<polygon fill="midnightblue" stroke="midnightblue" points="804.246,-248.115 812.908,-242.015 802.332,-241.382 804.246,-248.115"/>
</g>
<!-- Node27&#45;&gt;Node19 -->
<g id="edge36" class="edge"><title>Node27&#45;&gt;Node19</title>
<path fill="none" stroke="midnightblue" d="M648.525,-280.792C654.722,-260.288 671.947,-207.561 696,-168.452 707.061,-150.466 718.057,-151.579 727,-132.452 742.726,-98.817 746.308,-54.8598 746.993,-30.25"/>
<polygon fill="midnightblue" stroke="midnightblue" points="750.494,-30.1801 747.137,-20.1311 743.495,-30.0802 750.494,-30.1801"/>
</g>
<!-- Node28 -->
<g id="node29" class="node"><title>Node28</title>
<g id="a_node29"><a xlink:title=" ">
<polygon fill="white" stroke="#bfbfbf" points="595,-224.952 595,-243.952 645,-243.952 645,-224.952 595,-224.952"/>
<text text-anchor="middle" x="620" y="-231.952" font-family="Helvetica,sans-Serif" font-size="10.00">config.h</text>
</a>
</g>
</g>
<!-- Node27&#45;&gt;Node28 -->
<g id="edge37" class="edge"><title>Node27&#45;&gt;Node28</title>
<path fill="none" stroke="midnightblue" d="M641.707,-280.535C638.148,-273.143 632.978,-262.405 628.576,-253.263"/>
<polygon fill="midnightblue" stroke="midnightblue" points="631.705,-251.694 624.213,-244.203 625.398,-254.731 631.705,-251.694"/>
</g>
<!-- Node29 -->
<g id="node30" class="node"><title>Node29</title>
<g id="a_node30"><a xlink:href="constexpr_8h.xhtml" target="_top" xlink:title=" ">
<polygon fill="white" stroke="black" points="355,-224.952 355,-243.952 447,-243.952 447,-224.952 355,-224.952"/>
<text text-anchor="middle" x="401" y="-231.952" font-family="Helvetica,sans-Serif" font-size="10.00">../util/constexpr.h</text>
</a>
</g>
</g>
<!-- Node27&#45;&gt;Node29 -->
<g id="edge38" class="edge"><title>Node27&#45;&gt;Node29</title>
<path fill="none" stroke="midnightblue" d="M607.179,-280.895C564.439,-271.475 495.668,-256.317 449.434,-246.127"/>
<polygon fill="midnightblue" stroke="midnightblue" points="450.158,-242.703 439.639,-243.968 448.652,-249.539 450.158,-242.703"/>
</g>
<!-- Node31 -->
<g id="node32" class="node"><title>Node31</title>
<g id="a_node32"><a xlink:href="stringformatter_8h.xhtml" target="_top" xlink:title=" ">
<polygon fill="white" stroke="black" points="465,-224.952 465,-243.952 577,-243.952 577,-224.952 465,-224.952"/>
<text text-anchor="middle" x="521" y="-231.952" font-family="Helvetica,sans-Serif" font-size="10.00">../util/stringformatter.h</text>
</a>
</g>
</g>
<!-- Node27&#45;&gt;Node31 -->
<g id="edge40" class="edge"><title>Node27&#45;&gt;Node31</title>
<path fill="none" stroke="midnightblue" d="M626.193,-280.895C605.713,-272.048 573.517,-258.139 550.135,-248.038"/>
<polygon fill="midnightblue" stroke="midnightblue" points="551.282,-244.721 540.714,-243.968 548.506,-251.147 551.282,-244.721"/>
</g>
<!-- Node37 -->
<g id="node38" class="node"><title>Node37</title>
<g id="a_node38"><a xlink:href="logsink_8h.xhtml" target="_top" xlink:title=" ">
<polygon fill="white" stroke="black" points="701,-224.952 701,-243.952 757,-243.952 757,-224.952 701,-224.952"/>
<text text-anchor="middle" x="729" y="-231.952" font-family="Helvetica,sans-Serif" font-size="10.00">logsink.h</text>
</a>
</g>
</g>
<!-- Node27&#45;&gt;Node37 -->
<g id="edge56" class="edge"><title>Node27&#45;&gt;Node37</title>
<path fill="none" stroke="midnightblue" d="M659.335,-280.776C672.162,-272.431 691.785,-259.664 706.94,-249.804"/>
<polygon fill="midnightblue" stroke="midnightblue" points="709.224,-252.493 715.698,-244.106 705.407,-246.626 709.224,-252.493"/>
</g>
<!-- Node40 -->
<g id="node41" class="node"><title>Node40</title>
<g id="a_node41"><a xlink:href="level_8h.xhtml" target="_top" xlink:title=" ">
<polygon fill="white" stroke="black" points="815,-168.952 815,-187.952 859,-187.952 859,-168.952 815,-168.952"/>
<text text-anchor="middle" x="837" y="-175.952" font-family="Helvetica,sans-Serif" font-size="10.00">level.h</text>
</a>
</g>
</g>
<!-- Node27&#45;&gt;Node40 -->
<g id="edge64" class="edge"><title>Node27&#45;&gt;Node40</title>
<path fill="none" stroke="midnightblue" d="M678.605,-280.919C703.651,-273.513 738.496,-261.316 766,-244.452 787.913,-231.015 809.125,-210.26 822.568,-195.831"/>
<polygon fill="midnightblue" stroke="midnightblue" points="825.395,-197.924 829.531,-188.17 820.215,-193.216 825.395,-197.924"/>
</g>
<!-- Node30 -->
<g id="node31" class="node"><title>Node30</title>
<g id="a_node31"><a xlink:title=" ">
<polygon fill="white" stroke="#bfbfbf" points="273.5,-168.952 273.5,-187.952 318.5,-187.952 318.5,-168.952 273.5,-168.952"/>
<text text-anchor="middle" x="296" y="-175.952" font-family="Helvetica,sans-Serif" font-size="10.00">cstdlib</text>
</a>
</g>
</g>
<!-- Node29&#45;&gt;Node30 -->
<g id="edge39" class="edge"><title>Node29&#45;&gt;Node30</title>
<path fill="none" stroke="midnightblue" d="M384.13,-224.776C367.291,-216.116 341.193,-202.694 321.762,-192.701"/>
<polygon fill="midnightblue" stroke="midnightblue" points="323.322,-189.567 312.828,-188.106 320.12,-195.792 323.322,-189.567"/>
</g>
<!-- Node31&#45;&gt;Node15 -->
<g id="edge43" class="edge"><title>Node31&#45;&gt;Node15</title>
<path fill="none" stroke="midnightblue" d="M496.757,-224.895C471.129,-215.85 430.515,-201.516 401.762,-191.367"/>
<polygon fill="midnightblue" stroke="midnightblue" points="402.725,-187.996 392.13,-187.968 400.395,-194.597 402.725,-187.996"/>
</g>
<!-- Node31&#45;&gt;Node20 -->
<g id="edge42" class="edge"><title>Node31&#45;&gt;Node20</title>
<path fill="none" stroke="midnightblue" d="M507.519,-224.919C493.378,-215.938 470.535,-201.342 451,-188.452 424.894,-171.226 395.11,-150.964 375.732,-137.697"/>
<polygon fill="midnightblue" stroke="midnightblue" points="377.591,-134.728 367.364,-131.961 373.633,-140.502 377.591,-134.728"/>
</g>
<!-- Node31&#45;&gt;Node24 -->
<g id="edge44" class="edge"><title>Node31&#45;&gt;Node24</title>
<path fill="none" stroke="midnightblue" d="M511.848,-224.895C494.865,-208.529 458.355,-170.982 438,-132.452 430.277,-117.833 425.306,-99.6613 422.393,-86.2511"/>
<polygon fill="midnightblue" stroke="midnightblue" points="425.796,-85.4162 420.416,-76.289 418.93,-86.7791 425.796,-85.4162"/>
</g>
<!-- Node32 -->
<g id="node33" class="node"><title>Node32</title>
<g id="a_node33"><a xlink:title=" ">
<polygon fill="white" stroke="#bfbfbf" points="493,-168.952 493,-187.952 539,-187.952 539,-168.952 493,-168.952"/>
<text text-anchor="middle" x="516" y="-175.952" font-family="Helvetica,sans-Serif" font-size="10.00">atomic</text>
</a>
</g>
</g>
<!-- Node31&#45;&gt;Node32 -->
<g id="edge41" class="edge"><title>Node31&#45;&gt;Node32</title>
<path fill="none" stroke="midnightblue" d="M520.174,-224.535C519.519,-217.458 518.58,-207.313 517.758,-198.438"/>
<polygon fill="midnightblue" stroke="midnightblue" points="521.217,-197.837 516.81,-188.203 514.247,-198.483 521.217,-197.837"/>
</g>
<!-- Node33 -->
<g id="node34" class="node"><title>Node33</title>
<g id="a_node34"><a xlink:href="externalsstream_8h.xhtml" target="_top" xlink:title=" ">
<polygon fill="white" stroke="black" points="623.5,-112.952 623.5,-131.952 718.5,-131.952 718.5,-112.952 623.5,-112.952"/>
<text text-anchor="middle" x="671" y="-119.952" font-family="Helvetica,sans-Serif" font-size="10.00">externalsstream.h</text>
</a>
</g>
</g>
<!-- Node31&#45;&gt;Node33 -->
<g id="edge45" class="edge"><title>Node31&#45;&gt;Node33</title>
<path fill="none" stroke="midnightblue" d="M548.557,-224.948C569.574,-217.557 598.476,-205.367 620,-188.452 636.86,-175.202 651.421,-155.26 660.618,-140.961"/>
<polygon fill="midnightblue" stroke="midnightblue" points="663.806,-142.46 666.091,-132.114 657.853,-138.777 663.806,-142.46"/>
</g>
<!-- Node34 -->
<g id="node35" class="node"><title>Node34</title>
<g id="a_node35"><a xlink:href="strings_8h.xhtml" target="_top" xlink:title=" ">
<polygon fill="white" stroke="black" points="557,-168.952 557,-187.952 611,-187.952 611,-168.952 557,-168.952"/>
<text text-anchor="middle" x="584" y="-175.952" font-family="Helvetica,sans-Serif" font-size="10.00">strings.h</text>
</a>
</g>
</g>
<!-- Node31&#45;&gt;Node34 -->
<g id="edge48" class="edge"><title>Node31&#45;&gt;Node34</title>
<path fill="none" stroke="midnightblue" d="M531.122,-224.776C540.526,-216.715 554.744,-204.528 566.069,-194.821"/>
<polygon fill="midnightblue" stroke="midnightblue" points="568.379,-197.451 573.694,-188.286 563.823,-192.136 568.379,-197.451"/>
</g>
<!-- Node33&#45;&gt;Node19 -->
<g id="edge47" class="edge"><title>Node33&#45;&gt;Node19</title>
<path fill="none" stroke="midnightblue" d="M676.964,-112.82C689.506,-94.667 718.81,-52.2532 735.261,-28.4418"/>
<polygon fill="midnightblue" stroke="midnightblue" points="738.259,-30.2599 741.064,-20.0431 732.5,-26.2808 738.259,-30.2599"/>
</g>
<!-- Node33&#45;&gt;Node22 -->
<g id="edge46" class="edge"><title>Node33&#45;&gt;Node22</title>
<path fill="none" stroke="midnightblue" d="M702.532,-112.895C737.894,-103.299 795.197,-87.75 832.741,-77.562"/>
<polygon fill="midnightblue" stroke="midnightblue" points="834.038,-80.8368 842.772,-74.84 832.205,-74.0811 834.038,-80.8368"/>
</g>
<!-- Node34&#45;&gt;Node1 -->
<g id="edge50" class="edge"><title>Node34&#45;&gt;Node1</title>
<path fill="none" stroke="midnightblue" d="M556.959,-170.268C553.949,-169.595 550.918,-168.971 548,-168.452 401.446,-142.338 362.537,-152.269 215,-132.452 209.51,-131.714 203.73,-130.866 198.05,-129.992"/>
<polygon fill="midnightblue" stroke="midnightblue" points="198.447,-126.511 188.023,-128.408 197.354,-133.426 198.447,-126.511"/>
</g>
<!-- Node34&#45;&gt;Node3 -->
<g id="edge55" class="edge"><title>Node34&#45;&gt;Node3</title>
<path fill="none" stroke="midnightblue" d="M611.254,-174.114C688.972,-164.598 911.381,-137.364 993.789,-127.273"/>
<polygon fill="midnightblue" stroke="midnightblue" points="994.294,-130.738 1003.79,-126.048 993.443,-123.79 994.294,-130.738"/>
</g>
<!-- Node34&#45;&gt;Node12 -->
<g id="edge51" class="edge"><title>Node34&#45;&gt;Node12</title>
<path fill="none" stroke="midnightblue" d="M556.936,-170.391C553.93,-169.695 550.906,-169.032 548,-168.452 498.038,-158.47 351.931,-137.753 284.211,-128.319"/>
<polygon fill="midnightblue" stroke="midnightblue" points="284.429,-124.816 274.043,-126.906 283.465,-131.749 284.429,-124.816"/>
</g>
<!-- Node34&#45;&gt;Node19 -->
<g id="edge54" class="edge"><title>Node34&#45;&gt;Node19</title>
<path fill="none" stroke="midnightblue" d="M586.519,-168.718C590.646,-155.499 599.832,-130.085 614,-112.452 644.807,-74.1098 693.187,-42.2323 722.323,-25.0884"/>
<polygon fill="midnightblue" stroke="midnightblue" points="724.145,-28.0778 731.06,-20.0503 720.648,-22.0138 724.145,-28.0778"/>
</g>
<!-- Node34&#45;&gt;Node20 -->
<g id="edge52" class="edge"><title>Node34&#45;&gt;Node20</title>
<path fill="none" stroke="midnightblue" d="M556.885,-170.624C553.888,-169.884 550.881,-169.147 548,-168.452 493.353,-155.251 429.839,-140.569 391.039,-131.674"/>
<polygon fill="midnightblue" stroke="midnightblue" points="391.783,-128.254 381.254,-129.434 390.22,-135.077 391.783,-128.254"/>
</g>
<!-- Node35 -->
<g id="node36" class="node"><title>Node35</title>
<g id="a_node36"><a xlink:title=" ">
<polygon fill="white" stroke="#bfbfbf" points="517.5,-112.952 517.5,-131.952 566.5,-131.952 566.5,-112.952 517.5,-112.952"/>
<text text-anchor="middle" x="542" y="-119.952" font-family="Helvetica,sans-Serif" font-size="10.00">cstdarg</text>
</a>
</g>
</g>
<!-- Node34&#45;&gt;Node35 -->
<g id="edge49" class="edge"><title>Node34&#45;&gt;Node35</title>
<path fill="none" stroke="midnightblue" d="M577.065,-168.535C571.071,-160.828 562.248,-149.485 554.952,-140.105"/>
<polygon fill="midnightblue" stroke="midnightblue" points="557.709,-137.947 548.806,-132.203 552.183,-142.245 557.709,-137.947"/>
</g>
<!-- Node36 -->
<g id="node37" class="node"><title>Node36</title>
<g id="a_node37"><a xlink:title=" ">
<polygon fill="white" stroke="#bfbfbf" points="447,-112.952 447,-131.952 499,-131.952 499,-112.952 447,-112.952"/>
<text text-anchor="middle" x="473" y="-119.952" font-family="Helvetica,sans-Serif" font-size="10.00">sstream</text>
</a>
</g>
</g>
<!-- Node34&#45;&gt;Node36 -->
<g id="edge53" class="edge"><title>Node34&#45;&gt;Node36</title>
<path fill="none" stroke="midnightblue" d="M566.166,-168.776C548.284,-160.076 520.525,-146.572 499.954,-136.565"/>
<polygon fill="midnightblue" stroke="midnightblue" points="501.313,-133.334 490.79,-132.106 498.251,-139.628 501.313,-133.334"/>
</g>
<!-- Node38 -->
<g id="node39" class="node"><title>Node38</title>
<g id="a_node39"><a xlink:title=" ">
<polygon fill="white" stroke="#bfbfbf" points="767.5,-168.952 767.5,-187.952 796.5,-187.952 796.5,-168.952 767.5,-168.952"/>
<text text-anchor="middle" x="782" y="-175.952" font-family="Helvetica,sans-Serif" font-size="10.00">list</text>
</a>
</g>
</g>
<!-- Node37&#45;&gt;Node38 -->
<g id="edge57" class="edge"><title>Node37&#45;&gt;Node38</title>
<path fill="none" stroke="midnightblue" d="M737.752,-224.535C745.47,-216.671 756.905,-205.02 766.217,-195.533"/>
<polygon fill="midnightblue" stroke="midnightblue" points="768.904,-197.791 773.411,-188.203 763.908,-192.888 768.904,-197.791"/>
</g>
<!-- Node39 -->
<g id="node40" class="node"><title>Node39</title>
<g id="a_node40"><a xlink:title=" ">
<polygon fill="white" stroke="#bfbfbf" points="705,-168.952 705,-187.952 749,-187.952 749,-168.952 705,-168.952"/>
<text text-anchor="middle" x="727" y="-175.952" font-family="Helvetica,sans-Serif" font-size="10.00">mutex</text>
</a>
</g>
</g>
<!-- Node37&#45;&gt;Node39 -->
<g id="edge58" class="edge"><title>Node37&#45;&gt;Node39</title>
<path fill="none" stroke="midnightblue" d="M728.67,-224.535C728.408,-217.458 728.032,-207.313 727.703,-198.438"/>
<polygon fill="midnightblue" stroke="midnightblue" points="731.192,-198.066 727.324,-188.203 724.197,-198.325 731.192,-198.066"/>
</g>
<!-- Node37&#45;&gt;Node40 -->
<g id="edge59" class="edge"><title>Node37&#45;&gt;Node40</title>
<path fill="none" stroke="midnightblue" d="M746.352,-224.776C763.672,-216.116 790.515,-202.694 810.502,-192.701"/>
<polygon fill="midnightblue" stroke="midnightblue" points="812.312,-195.709 819.691,-188.106 809.181,-189.448 812.312,-195.709"/>
</g>
<!-- Node41 -->
<g id="node42" class="node"><title>Node41</title>
<g id="a_node42"><a xlink:href="enum_8h.xhtml" target="_top" xlink:title=" ">
<polygon fill="white" stroke="black" points="780,-112.952 780,-131.952 854,-131.952 854,-112.952 780,-112.952"/>
<text text-anchor="middle" x="817" y="-119.952" font-family="Helvetica,sans-Serif" font-size="10.00">../util/enum.h</text>
</a>
</g>
</g>
<!-- Node40&#45;&gt;Node41 -->
<g id="edge60" class="edge"><title>Node40&#45;&gt;Node41</title>
<path fill="none" stroke="midnightblue" d="M833.697,-168.535C831.018,-161.3 827.151,-150.86 823.814,-141.848"/>
<polygon fill="midnightblue" stroke="midnightblue" points="826.996,-140.365 820.241,-132.203 820.432,-142.796 826.996,-140.365"/>
</g>
<!-- Node41&#45;&gt;Node22 -->
<g id="edge61" class="edge"><title>Node41&#45;&gt;Node22</title>
<path fill="none" stroke="midnightblue" d="M825.752,-112.535C833.47,-104.671 844.905,-93.0205 854.217,-83.5329"/>
<polygon fill="midnightblue" stroke="midnightblue" points="856.904,-85.7912 861.411,-76.2027 851.908,-80.8879 856.904,-85.7912"/>
</g>
<!-- Node41&#45;&gt;Node24 -->
<g id="edge63" class="edge"><title>Node41&#45;&gt;Node24</title>
<path fill="none" stroke="midnightblue" d="M779.915,-116.42C709.036,-106.803 554.118,-85.7842 472.209,-74.671"/>
<polygon fill="midnightblue" stroke="midnightblue" points="472.492,-71.1774 462.113,-73.3011 471.551,-78.1138 472.492,-71.1774"/>
</g>
<!-- Node42 -->
<g id="node43" class="node"><title>Node42</title>
<g id="a_node43"><a xlink:title=" ">
<polygon fill="white" stroke="#bfbfbf" points="775,-56.9516 775,-75.9516 825,-75.9516 825,-56.9516 775,-56.9516"/>
<text text-anchor="middle" x="800" y="-63.9516" font-family="Helvetica,sans-Serif" font-size="10.00">typeinfo</text>
</a>
</g>
</g>
<!-- Node41&#45;&gt;Node42 -->
<g id="edge62" class="edge"><title>Node41&#45;&gt;Node42</title>
<path fill="none" stroke="midnightblue" d="M814.193,-112.535C811.915,-105.3 808.629,-94.8603 805.792,-85.8484"/>
<polygon fill="midnightblue" stroke="midnightblue" points="809.096,-84.6902 802.755,-76.2027 802.419,-86.7922 809.096,-84.6902"/>
</g>
<!-- Node43&#45;&gt;Node2 -->
<g id="edge67" class="edge"><title>Node43&#45;&gt;Node2</title>
<path fill="none" stroke="midnightblue" d="M1062.78,-561.715C1090.53,-552.689 1136.7,-537.67 1168.88,-527.201"/>
<polygon fill="midnightblue" stroke="midnightblue" points="1170.37,-530.398 1178.8,-523.976 1168.2,-523.741 1170.37,-530.398"/>
</g>
<!-- Node43&#45;&gt;Node3 -->
<g id="edge69" class="edge"><title>Node43&#45;&gt;Node3</title>
<path fill="none" stroke="midnightblue" d="M1039,-560.894C1039,-542.388 1039,-497.264 1039,-459.452 1039,-459.452 1039,-459.452 1039,-233.452 1039,-200.992 1032.93,-163.573 1028.78,-141.808"/>
<polygon fill="midnightblue" stroke="midnightblue" points="1032.21,-141.092 1026.83,-131.962 1025.34,-142.452 1032.21,-141.092"/>
</g>
<!-- Node43&#45;&gt;Node19 -->
<g id="edge70" class="edge"><title>Node43&#45;&gt;Node19</title>
<path fill="none" stroke="midnightblue" d="M1015.06,-567.15C989.119,-563.234 948.898,-552.698 930,-524.452 925.057,-517.064 927.363,-512.94 930,-504.452 973.049,-365.885 1115,-380.552 1115,-235.452 1115,-235.452 1115,-235.452 1115,-121.452 1115,-51.2783 866.255,-22.1384 777.779,-13.9932"/>
<polygon fill="midnightblue" stroke="midnightblue" points="777.845,-10.4853 767.574,-13.0821 777.223,-17.4576 777.845,-10.4853"/>
</g>
<!-- Node44 -->
<g id="node45" class="node"><title>Node44</title>
<g id="a_node45"><a xlink:title=" ">
<polygon fill="white" stroke="#bfbfbf" points="1067,-504.952 1067,-523.952 1145,-523.952 1145,-504.952 1067,-504.952"/>
<text text-anchor="middle" x="1106" y="-511.952" font-family="Helvetica,sans-Serif" font-size="10.00">unordered_set</text>
</a>
</g>
</g>
<!-- Node43&#45;&gt;Node44 -->
<g id="edge68" class="edge"><title>Node43&#45;&gt;Node44</title>
<path fill="none" stroke="midnightblue" d="M1049.76,-560.776C1059.77,-552.715 1074.89,-540.528 1086.93,-530.821"/>
<polygon fill="midnightblue" stroke="midnightblue" points="1089.45,-533.286 1095.04,-524.286 1085.06,-527.836 1089.45,-533.286"/>
</g>
<!-- Node45 -->
<g id="node46" class="node"><title>Node45</title>
<g id="a_node46"><a xlink:title=" ">
<polygon fill="white" stroke="#bfbfbf" points="939.5,-504.952 939.5,-523.952 1010.5,-523.952 1010.5,-504.952 939.5,-504.952"/>
<text text-anchor="middle" x="975" y="-511.952" font-family="Helvetica,sans-Serif" font-size="10.00">SDL2/SDL.h</text>
</a>
</g>
</g>
<!-- Node43&#45;&gt;Node45 -->
<g id="edge71" class="edge"><title>Node43&#45;&gt;Node45</title>
<path fill="none" stroke="midnightblue" d="M1028.72,-560.776C1019.16,-552.715 1004.72,-540.528 993.216,-530.821"/>
<polygon fill="midnightblue" stroke="midnightblue" points="995.37,-528.059 985.47,-524.286 990.856,-533.409 995.37,-528.059"/>
</g>
</g>
</svg>
        <g id="navigator" transform="translate(0 0)" fill="#404254">
                <rect fill="#f2f5e9" fill-opacity="0.5" stroke="#606060" stroke-width=".5" x="0" y="0" width="60" height="60"/>
                <use id="zoomplus" xlink:href="#zoomPlus" x="17" y="9" onmousedown="handleZoom(evt,'in')"/>
                <use id="zoomminus" xlink:href="#zoomMin" x="42" y="9" onmousedown="handleZoom(evt,'out')"/>
                <use id="reset" xlink:href="#resetDef" x="30" y="36" onmousedown="handleReset()"/>
                <g id="arrowUp" xlink:href="#dirArrow" transform="translate(30 24)" onmousedown="handlePan(0,-1)">
                  <use xlink:href="#rim" fill="#404040">
                        <set attributeName="fill" to="#808080" begin="arrowUp.mouseover" end="arrowUp.mouseout"/>
                  </use>
                  <path fill="none" stroke="white" stroke-width="1.5" d="M0,-3.0v7 M-2.5,-0.5L0,-3.0L2.5,-0.5"/>
                </g>
                <g id="arrowRight" xlink:href="#dirArrow" transform="rotate(90) translate(36 -43)" onmousedown="handlePan(1,0)">
                  <use xlink:href="#rim" fill="#404040">
                        <set attributeName="fill" to="#808080" begin="arrowRight.mouseover" end="arrowRight.mouseout"/>
                  </use>
                  <path fill="none" stroke="white" stroke-width="1.5" d="M0,-3.0v7 M-2.5,-0.5L0,-3.0L2.5,-0.5"/>
                </g>
                <g id="arrowDown" xlink:href="#dirArrow" transform="rotate(180) translate(-30 -48)" onmousedown="handlePan(0,1)">
                  <use xlink:href="#rim" fill="#404040">
                        <set attributeName="fill" to="#808080" begin="arrowDown.mouseover" end="arrowDown.mouseout"/>
                  </use>
                  <path fill="none" stroke="white" stroke-width="1.5" d="M0,-3.0v7 M-2.5,-0.5L0,-3.0L2.5,-0.5"/>
                </g>
                <g id="arrowLeft" xlink:href="#dirArrow" transform="rotate(270) translate(-36 17)" onmousedown="handlePan(-1,0)">
                  <use xlink:href="#rim" fill="#404040">
                        <set attributeName="fill" to="#808080" begin="arrowLeft.mouseover" end="arrowLeft.mouseout"/>
                  </use>
                  <path fill="none" stroke="white" stroke-width="1.5" d="M0,-3.0v7 M-2.5,-0.5L0,-3.0L2.5,-0.5"/>
                </g>
        </g>
        <svg viewBox="0 0 15 15" width="100%" height="30px" preserveAspectRatio="xMaxYMin meet">
         <g id="arrow_out" transform="scale(0.3 0.3)">
          <a xlink:href="input_2action_8h__incl_org.svg" target="_base">
           <rect id="button" ry="5" rx="5" y="6" x="6" height="38" width="38"
                fill="#f2f5e9" fill-opacity="0.5" stroke="#606060" stroke-width="1.0"/>
           <path id="arrow"
             d="M 11.500037,31.436501 C 11.940474,20.09759 22.043105,11.32322 32.158766,21.979434 L 37.068811,17.246167 C 37.068811,17.246167 37.088388,32 37.088388,32 L 22.160133,31.978069 C 22.160133,31.978069 26.997745,27.140456 26.997745,27.140456 C 18.528582,18.264221 13.291696,25.230495 11.500037,31.436501 z"
             style="fill:#404040;"/>
          </a>
         </g>
        </svg>
</svg>
