<?xml version="1.0" encoding="UTF-8" standalone="no"?>
<!DOCTYPE svg PUBLIC "-//W3C//DTD SVG 1.1//EN"
 "http://www.w3.org/Graphics/SVG/1.1/DTD/svg11.dtd">
<!-- Generated by graphviz version 2.38.0 (20140413.2041)
 -->
<!-- Title: libopenage/gamestate/market.h Pages: 1 -->
<svg width="1231pt" height="374pt"
 viewBox="0.00 0.00 1230.50 374.00" xmlns="http://www.w3.org/2000/svg" xmlns:xlink="http://www.w3.org/1999/xlink">
<g id="graph0" class="graph" transform="scale(1 1) rotate(0) translate(4 370)">
<title>libopenage/gamestate/market.h</title>
<polygon fill="white" stroke="none" points="-4,4 -4,-370 1226.5,-370 1226.5,4 -4,4"/>
<!-- Node4 -->
<g id="node1" class="node"><title>Node4</title>
<g id="a_node1"><a xlink:title=" ">
<polygon fill="#bfbfbf" stroke="black" points="663.5,-335.5 663.5,-365.5 775.5,-365.5 775.5,-335.5 663.5,-335.5"/>
<text text-anchor="start" x="671.5" y="-353.5" font-family="Helvetica,sans-Serif" font-size="10.00">libopenage/gamestate</text>
<text text-anchor="middle" x="719.5" y="-342.5" font-family="Helvetica,sans-Serif" font-size="10.00">/market.h</text>
</a>
</g>
</g>
<!-- Node5 -->
<g id="node2" class="node"><title>Node5</title>
<g id="a_node2"><a xlink:href="game__main_8h.xhtml" target="_top" xlink:title=" ">
<polygon fill="white" stroke="black" points="598.5,-268.5 598.5,-298.5 710.5,-298.5 710.5,-268.5 598.5,-268.5"/>
<text text-anchor="start" x="606.5" y="-286.5" font-family="Helvetica,sans-Serif" font-size="10.00">libopenage/gamestate</text>
<text text-anchor="middle" x="654.5" y="-275.5" font-family="Helvetica,sans-Serif" font-size="10.00">/game_main.h</text>
</a>
</g>
</g>
<!-- Node4&#45;&gt;Node5 -->
<g id="edge1" class="edge"><title>Node4&#45;&gt;Node5</title>
<path fill="none" stroke="midnightblue" d="M698.311,-328.311C688.561,-318.561 677.259,-307.259 668.577,-298.577"/>
<polygon fill="midnightblue" stroke="midnightblue" points="695.85,-330.8 705.396,-335.396 700.8,-325.85 695.85,-330.8"/>
</g>
<!-- Node24 -->
<g id="node21" class="node"><title>Node24</title>
<g id="a_node21"><a xlink:href="market_8cpp.xhtml" target="_top" xlink:title=" ">
<polygon fill="white" stroke="black" points="728.5,-268.5 728.5,-298.5 840.5,-298.5 840.5,-268.5 728.5,-268.5"/>
<text text-anchor="start" x="736.5" y="-286.5" font-family="Helvetica,sans-Serif" font-size="10.00">libopenage/gamestate</text>
<text text-anchor="middle" x="784.5" y="-275.5" font-family="Helvetica,sans-Serif" font-size="10.00">/market.cpp</text>
</a>
</g>
</g>
<!-- Node4&#45;&gt;Node24 -->
<g id="edge25" class="edge"><title>Node4&#45;&gt;Node24</title>
<path fill="none" stroke="midnightblue" d="M740.689,-328.311C750.439,-318.561 761.741,-307.259 770.423,-298.577"/>
<polygon fill="midnightblue" stroke="midnightblue" points="738.2,-325.85 733.604,-335.396 743.15,-330.8 738.2,-325.85"/>
</g>
<!-- Node6 -->
<g id="node3" class="node"><title>Node6</title>
<g id="a_node3"><a xlink:href="engine_8cpp.xhtml" target="_top" xlink:title=" ">
<polygon fill="white" stroke="black" points="100,-207 100,-226 213,-226 213,-207 100,-207"/>
<text text-anchor="middle" x="156.5" y="-214" font-family="Helvetica,sans-Serif" font-size="10.00">libopenage/engine.cpp</text>
</a>
</g>
</g>
<!-- Node5&#45;&gt;Node6 -->
<g id="edge2" class="edge"><title>Node5&#45;&gt;Node6</title>
<path fill="none" stroke="midnightblue" d="M588.13,-276.908C502.896,-269.236 350.57,-253.863 221.5,-232 211.81,-230.359 201.389,-228.209 191.791,-226.069"/>
<polygon fill="midnightblue" stroke="midnightblue" points="587.914,-280.403 598.186,-277.806 588.536,-273.431 587.914,-280.403"/>
</g>
<!-- Node7 -->
<g id="node4" class="node"><title>Node7</title>
<g id="a_node4"><a xlink:href="game__control_8h.xhtml" target="_top" xlink:title=" ">
<polygon fill="white" stroke="black" points="231,-207 231,-226 364,-226 364,-207 231,-207"/>
<text text-anchor="middle" x="297.5" y="-214" font-family="Helvetica,sans-Serif" font-size="10.00">libopenage/game_control.h</text>
</a>
</g>
</g>
<!-- Node5&#45;&gt;Node7 -->
<g id="edge3" class="edge"><title>Node5&#45;&gt;Node7</title>
<path fill="none" stroke="midnightblue" d="M588.159,-270.421C517.224,-257.506 406.562,-237.357 344.244,-226.011"/>
<polygon fill="midnightblue" stroke="midnightblue" points="587.861,-273.924 598.326,-272.272 589.115,-267.037 587.861,-273.924"/>
</g>
<!-- Node16 -->
<g id="node13" class="node"><title>Node16</title>
<g id="a_node13"><a xlink:href="game__renderer_8cpp.xhtml" target="_top" xlink:title=" ">
<polygon fill="white" stroke="black" points="683,-207 683,-226 832,-226 832,-207 683,-207"/>
<text text-anchor="middle" x="757.5" y="-214" font-family="Helvetica,sans-Serif" font-size="10.00">libopenage/game_renderer.cpp</text>
</a>
</g>
</g>
<!-- Node5&#45;&gt;Node16 -->
<g id="edge14" class="edge"><title>Node5&#45;&gt;Node16</title>
<path fill="none" stroke="midnightblue" d="M685.44,-262.975C704.971,-250.649 729.222,-235.345 744.02,-226.007"/>
<polygon fill="midnightblue" stroke="midnightblue" points="683.438,-260.099 676.849,-268.396 687.174,-266.019 683.438,-260.099"/>
</g>
<!-- Node17 -->
<g id="node14" class="node"><title>Node17</title>
<g id="a_node14"><a xlink:href="game__main_8cpp.xhtml" target="_top" xlink:title=" ">
<polygon fill="white" stroke="black" points="850.5,-201.5 850.5,-231.5 962.5,-231.5 962.5,-201.5 850.5,-201.5"/>
<text text-anchor="start" x="858.5" y="-219.5" font-family="Helvetica,sans-Serif" font-size="10.00">libopenage/gamestate</text>
<text text-anchor="middle" x="906.5" y="-208.5" font-family="Helvetica,sans-Serif" font-size="10.00">/game_main.cpp</text>
</a>
</g>
</g>
<!-- Node5&#45;&gt;Node17 -->
<g id="edge15" class="edge"><title>Node5&#45;&gt;Node17</title>
<path fill="none" stroke="midnightblue" d="M718.791,-265.917C759.914,-255.31 812.683,-241.699 851.793,-231.611"/>
<polygon fill="midnightblue" stroke="midnightblue" points="717.679,-262.589 708.87,-268.476 719.427,-269.367 717.679,-262.589"/>
</g>
<!-- Node18 -->
<g id="node15" class="node"><title>Node18</title>
<g id="a_node15"><a xlink:href="game__save_8cpp.xhtml" target="_top" xlink:title=" ">
<polygon fill="white" stroke="black" points="980.5,-201.5 980.5,-231.5 1092.5,-231.5 1092.5,-201.5 980.5,-201.5"/>
<text text-anchor="start" x="988.5" y="-219.5" font-family="Helvetica,sans-Serif" font-size="10.00">libopenage/gamestate</text>
<text text-anchor="middle" x="1036.5" y="-208.5" font-family="Helvetica,sans-Serif" font-size="10.00">/game_save.cpp</text>
</a>
</g>
</g>
<!-- Node5&#45;&gt;Node18 -->
<g id="edge16" class="edge"><title>Node5&#45;&gt;Node18</title>
<path fill="none" stroke="midnightblue" d="M720.795,-267.851C832.527,-247.912 863.357,-251.756 971.5,-232 974.343,-231.481 977.251,-230.924 980.184,-230.343"/>
<polygon fill="midnightblue" stroke="midnightblue" points="720.033,-264.432 710.816,-269.657 721.279,-271.321 720.033,-264.432"/>
</g>
<!-- Node19 -->
<g id="node16" class="node"><title>Node19</title>
<g id="a_node16"><a xlink:href="generator_8cpp.xhtml" target="_top" xlink:title=" ">
<polygon fill="white" stroke="black" points="1110.5,-201.5 1110.5,-231.5 1222.5,-231.5 1222.5,-201.5 1110.5,-201.5"/>
<text text-anchor="start" x="1118.5" y="-219.5" font-family="Helvetica,sans-Serif" font-size="10.00">libopenage/gamestate</text>
<text text-anchor="middle" x="1166.5" y="-208.5" font-family="Helvetica,sans-Serif" font-size="10.00">/generator.cpp</text>
</a>
</g>
</g>
<!-- Node5&#45;&gt;Node19 -->
<g id="edge17" class="edge"><title>Node5&#45;&gt;Node19</title>
<path fill="none" stroke="midnightblue" d="M720.766,-267.933C889.703,-242.024 936.268,-258.11 1101.5,-232 1104.36,-231.549 1107.27,-231.048 1110.21,-230.51"/>
<polygon fill="midnightblue" stroke="midnightblue" points="720.128,-264.49 710.787,-269.49 721.207,-271.406 720.128,-264.49"/>
</g>
<!-- Node20 -->
<g id="node17" class="node"><title>Node20</title>
<g id="a_node17"><a xlink:href="game__main__link_8h.xhtml" target="_top" xlink:title=" ">
<polygon fill="white" stroke="black" points="520.5,-201.5 520.5,-231.5 626.5,-231.5 626.5,-201.5 520.5,-201.5"/>
<text text-anchor="start" x="528.5" y="-219.5" font-family="Helvetica,sans-Serif" font-size="10.00">libopenage/gui/game</text>
<text text-anchor="middle" x="573.5" y="-208.5" font-family="Helvetica,sans-Serif" font-size="10.00">_main_link.h</text>
</a>
</g>
</g>
<!-- Node5&#45;&gt;Node20 -->
<g id="edge18" class="edge"><title>Node5&#45;&gt;Node20</title>
<path fill="none" stroke="midnightblue" d="M628.808,-261.883C616.499,-252.005 602.073,-240.429 591.041,-231.577"/>
<polygon fill="midnightblue" stroke="midnightblue" points="626.934,-264.867 636.924,-268.396 631.315,-259.407 626.934,-264.867"/>
</g>
<!-- Node21 -->
<g id="node18" class="node"><title>Node21</title>
<g id="a_node18"><a xlink:href="game__creator_8cpp.xhtml" target="_top" xlink:title=" ">
<polygon fill="white" stroke="black" points="439.5,-134.5 439.5,-164.5 545.5,-164.5 545.5,-134.5 439.5,-134.5"/>
<text text-anchor="start" x="447.5" y="-152.5" font-family="Helvetica,sans-Serif" font-size="10.00">libopenage/gui/game</text>
<text text-anchor="middle" x="492.5" y="-141.5" font-family="Helvetica,sans-Serif" font-size="10.00">_creator.cpp</text>
</a>
</g>
</g>
<!-- Node5&#45;&gt;Node21 -->
<g id="edge23" class="edge"><title>Node5&#45;&gt;Node21</title>
<path fill="none" stroke="midnightblue" d="M588.494,-273.436C561.115,-266.431 531.207,-254.013 511.5,-232 494.735,-213.273 491.952,-182.637 491.91,-164.741"/>
<polygon fill="midnightblue" stroke="midnightblue" points="587.907,-276.894 598.443,-275.78 589.512,-270.08 587.907,-276.894"/>
</g>
<!-- Node23 -->
<g id="node20" class="node"><title>Node23</title>
<g id="a_node20"><a xlink:href="game__saver_8cpp.xhtml" target="_top" xlink:title=" ">
<polygon fill="white" stroke="black" points="725.5,-134.5 725.5,-164.5 831.5,-164.5 831.5,-134.5 725.5,-134.5"/>
<text text-anchor="start" x="733.5" y="-152.5" font-family="Helvetica,sans-Serif" font-size="10.00">libopenage/gui/game</text>
<text text-anchor="middle" x="778.5" y="-141.5" font-family="Helvetica,sans-Serif" font-size="10.00">_saver.cpp</text>
</a>
</g>
</g>
<!-- Node5&#45;&gt;Node23 -->
<g id="edge24" class="edge"><title>Node5&#45;&gt;Node23</title>
<path fill="none" stroke="midnightblue" d="M655.115,-258.144C656.736,-240.55 661.456,-217.14 674.5,-201 688.189,-184.062 708.955,-172.41 728.342,-164.607"/>
<polygon fill="midnightblue" stroke="midnightblue" points="651.615,-258.023 654.459,-268.229 658.601,-258.477 651.615,-258.023"/>
</g>
<!-- Node8 -->
<g id="node5" class="node"><title>Node8</title>
<g id="a_node5"><a xlink:href="game__control_8cpp.xhtml" target="_top" xlink:title=" ">
<polygon fill="white" stroke="black" points="154,-140 154,-159 297,-159 297,-140 154,-140"/>
<text text-anchor="middle" x="225.5" y="-147" font-family="Helvetica,sans-Serif" font-size="10.00">libopenage/game_control.cpp</text>
</a>
</g>
</g>
<!-- Node7&#45;&gt;Node8 -->
<g id="edge4" class="edge"><title>Node7&#45;&gt;Node8</title>
<path fill="none" stroke="midnightblue" d="M280.172,-199.856C266.017,-187.078 246.537,-169.492 235.056,-159.127"/>
<polygon fill="midnightblue" stroke="midnightblue" points="278.022,-202.631 287.79,-206.734 282.712,-197.435 278.022,-202.631"/>
</g>
<!-- Node9 -->
<g id="node6" class="node"><title>Node9</title>
<g id="a_node6"><a xlink:href="game__control__link_8h.xhtml" target="_top" xlink:title=" ">
<polygon fill="white" stroke="black" points="315.5,-134.5 315.5,-164.5 421.5,-164.5 421.5,-134.5 315.5,-134.5"/>
<text text-anchor="start" x="323.5" y="-152.5" font-family="Helvetica,sans-Serif" font-size="10.00">libopenage/gui/game</text>
<text text-anchor="middle" x="368.5" y="-141.5" font-family="Helvetica,sans-Serif" font-size="10.00">_control_link.h</text>
</a>
</g>
</g>
<!-- Node7&#45;&gt;Node9 -->
<g id="edge5" class="edge"><title>Node7&#45;&gt;Node9</title>
<path fill="none" stroke="midnightblue" d="M314.509,-199.928C326.251,-189.179 341.736,-175.002 353.11,-164.589"/>
<polygon fill="midnightblue" stroke="midnightblue" points="312.088,-197.4 307.075,-206.734 316.815,-202.563 312.088,-197.4"/>
</g>
<!-- Node14 -->
<g id="node11" class="node"><title>Node14</title>
<g id="a_node11"><a xlink:href="resources__list__model_8cpp.xhtml" target="_top" xlink:title=" ">
<polygon fill="white" stroke="black" points="0,-67.5 0,-97.5 125,-97.5 125,-67.5 0,-67.5"/>
<text text-anchor="start" x="8" y="-85.5" font-family="Helvetica,sans-Serif" font-size="10.00">libopenage/gui/resources</text>
<text text-anchor="middle" x="62.5" y="-74.5" font-family="Helvetica,sans-Serif" font-size="10.00">_list_model.cpp</text>
</a>
</g>
</g>
<!-- Node7&#45;&gt;Node14 -->
<g id="edge12" class="edge"><title>Node7&#45;&gt;Node14</title>
<path fill="none" stroke="midnightblue" d="M243.387,-205.098C236.033,-203.707 228.583,-202.31 221.5,-201 176.879,-192.748 49.6212,-199.8 20.5,-165 3.03195,-144.125 27.6398,-114.774 45.9067,-97.5843"/>
<polygon fill="midnightblue" stroke="midnightblue" points="242.832,-208.555 253.31,-206.982 244.138,-201.678 242.832,-208.555"/>
</g>
<!-- Node15 -->
<g id="node12" class="node"><title>Node15</title>
<g id="a_node12"><a xlink:href="main_8cpp.xhtml" target="_top" xlink:title=" ">
<polygon fill="white" stroke="black" points="29.5,-140 29.5,-159 135.5,-159 135.5,-140 29.5,-140"/>
<text text-anchor="middle" x="82.5" y="-147" font-family="Helvetica,sans-Serif" font-size="10.00">libopenage/main.cpp</text>
</a>
</g>
</g>
<!-- Node7&#45;&gt;Node15 -->
<g id="edge13" class="edge"><title>Node7&#45;&gt;Node15</title>
<path fill="none" stroke="midnightblue" d="M259.226,-203.929C216.656,-191.059 148.885,-170.57 110.826,-159.064"/>
<polygon fill="midnightblue" stroke="midnightblue" points="258.365,-207.325 268.95,-206.869 260.39,-200.624 258.365,-207.325"/>
</g>
<!-- Node10 -->
<g id="node7" class="node"><title>Node10</title>
<g id="a_node7"><a xlink:href="actions__list__model_8h.xhtml" target="_top" xlink:title=" ">
<polygon fill="white" stroke="black" points="389,-67.5 389,-97.5 502,-97.5 502,-67.5 389,-67.5"/>
<text text-anchor="start" x="397" y="-85.5" font-family="Helvetica,sans-Serif" font-size="10.00">libopenage/gui/actions</text>
<text text-anchor="middle" x="445.5" y="-74.5" font-family="Helvetica,sans-Serif" font-size="10.00">_list_model.h</text>
</a>
</g>
</g>
<!-- Node9&#45;&gt;Node10 -->
<g id="edge6" class="edge"><title>Node9&#45;&gt;Node10</title>
<path fill="none" stroke="midnightblue" d="M392.923,-127.883C404.624,-118.005 418.338,-106.429 428.825,-97.5765"/>
<polygon fill="midnightblue" stroke="midnightblue" points="390.592,-125.271 385.208,-134.396 395.107,-130.62 390.592,-125.271"/>
</g>
<!-- Node11 -->
<g id="node8" class="node"><title>Node11</title>
<g id="a_node8"><a xlink:href="actions__list__model_8cpp.xhtml" target="_top" xlink:title=" ">
<polygon fill="white" stroke="black" points="346,-0.5 346,-30.5 459,-30.5 459,-0.5 346,-0.5"/>
<text text-anchor="start" x="354" y="-18.5" font-family="Helvetica,sans-Serif" font-size="10.00">libopenage/gui/actions</text>
<text text-anchor="middle" x="402.5" y="-7.5" font-family="Helvetica,sans-Serif" font-size="10.00">_list_model.cpp</text>
</a>
</g>
</g>
<!-- Node9&#45;&gt;Node11 -->
<g id="edge8" class="edge"><title>Node9&#45;&gt;Node11</title>
<path fill="none" stroke="midnightblue" d="M369.923,-124.044C371.331,-107.653 374.1,-85.7258 379.5,-67 383.184,-54.2259 389.58,-40.5491 394.693,-30.6549"/>
<polygon fill="midnightblue" stroke="midnightblue" points="366.404,-124.167 369.15,-134.4 373.385,-124.688 366.404,-124.167"/>
</g>
<!-- Node12 -->
<g id="node9" class="node"><title>Node12</title>
<g id="a_node9"><a xlink:href="category__contents__list__model_8cpp.xhtml" target="_top" xlink:title=" ">
<polygon fill="white" stroke="black" points="204.5,-67.5 204.5,-97.5 332.5,-97.5 332.5,-67.5 204.5,-67.5"/>
<text text-anchor="start" x="212.5" y="-85.5" font-family="Helvetica,sans-Serif" font-size="10.00">libopenage/gui/category</text>
<text text-anchor="middle" x="268.5" y="-74.5" font-family="Helvetica,sans-Serif" font-size="10.00">_contents_list_model.cpp</text>
</a>
</g>
</g>
<!-- Node9&#45;&gt;Node12 -->
<g id="edge9" class="edge"><title>Node9&#45;&gt;Node12</title>
<path fill="none" stroke="midnightblue" d="M338.09,-128.734C322.616,-118.676 304.169,-106.685 290.156,-97.5765"/>
<polygon fill="midnightblue" stroke="midnightblue" points="336.51,-131.881 346.801,-134.396 340.325,-126.011 336.51,-131.881"/>
</g>
<!-- Node13 -->
<g id="node10" class="node"><title>Node13</title>
<g id="a_node10"><a xlink:href="game__control__link_8cpp.xhtml" target="_top" xlink:title=" ">
<polygon fill="white" stroke="black" points="520.5,-67.5 520.5,-97.5 626.5,-97.5 626.5,-67.5 520.5,-67.5"/>
<text text-anchor="start" x="528.5" y="-85.5" font-family="Helvetica,sans-Serif" font-size="10.00">libopenage/gui/game</text>
<text text-anchor="middle" x="573.5" y="-74.5" font-family="Helvetica,sans-Serif" font-size="10.00">_control_link.cpp</text>
</a>
</g>
</g>
<!-- Node9&#45;&gt;Node13 -->
<g id="edge10" class="edge"><title>Node9&#45;&gt;Node13</title>
<path fill="none" stroke="midnightblue" d="M422.291,-131.444C455.522,-120.908 497.652,-107.549 528.996,-97.6109"/>
<polygon fill="midnightblue" stroke="midnightblue" points="421.204,-128.117 412.73,-134.476 423.32,-134.79 421.204,-128.117"/>
</g>
<!-- Node9&#45;&gt;Node14 -->
<g id="edge11" class="edge"><title>Node9&#45;&gt;Node14</title>
<path fill="none" stroke="midnightblue" d="M305.267,-133.976C237.729,-119.242 171.83,-105.641 125.007,-96.1086"/>
<polygon fill="midnightblue" stroke="midnightblue" points="304.725,-137.441 315.242,-136.158 306.221,-130.602 304.725,-137.441"/>
</g>
<!-- Node10&#45;&gt;Node11 -->
<g id="edge7" class="edge"><title>Node10&#45;&gt;Node11</title>
<path fill="none" stroke="midnightblue" d="M430.527,-58.8669C424.304,-49.4594 417.274,-38.8334 411.812,-30.5765"/>
<polygon fill="midnightblue" stroke="midnightblue" points="427.733,-60.9869 436.17,-67.396 433.571,-57.1247 427.733,-60.9869"/>
</g>
<!-- Node20&#45;&gt;Node13 -->
<g id="edge19" class="edge"><title>Node20&#45;&gt;Node13</title>
<path fill="none" stroke="midnightblue" d="M573.5,-191.024C573.5,-163.512 573.5,-119.789 573.5,-97.5247"/>
<polygon fill="midnightblue" stroke="midnightblue" points="570,-191.374 573.5,-201.374 577,-191.374 570,-191.374"/>
</g>
<!-- Node20&#45;&gt;Node21 -->
<g id="edge20" class="edge"><title>Node20&#45;&gt;Node21</title>
<path fill="none" stroke="midnightblue" d="M547.808,-194.883C535.499,-185.005 521.073,-173.429 510.041,-164.577"/>
<polygon fill="midnightblue" stroke="midnightblue" points="545.934,-197.867 555.924,-201.396 550.315,-192.407 545.934,-197.867"/>
</g>
<!-- Node22 -->
<g id="node19" class="node"><title>Node22</title>
<g id="a_node19"><a xlink:href="game__main__link_8cpp.xhtml" target="_top" xlink:title=" ">
<polygon fill="white" stroke="black" points="601.5,-134.5 601.5,-164.5 707.5,-164.5 707.5,-134.5 601.5,-134.5"/>
<text text-anchor="start" x="609.5" y="-152.5" font-family="Helvetica,sans-Serif" font-size="10.00">libopenage/gui/game</text>
<text text-anchor="middle" x="654.5" y="-141.5" font-family="Helvetica,sans-Serif" font-size="10.00">_main_link.cpp</text>
</a>
</g>
</g>
<!-- Node20&#45;&gt;Node22 -->
<g id="edge21" class="edge"><title>Node20&#45;&gt;Node22</title>
<path fill="none" stroke="midnightblue" d="M599.192,-194.883C611.501,-185.005 625.927,-173.429 636.959,-164.577"/>
<polygon fill="midnightblue" stroke="midnightblue" points="596.685,-192.407 591.076,-201.396 601.066,-197.867 596.685,-192.407"/>
</g>
<!-- Node20&#45;&gt;Node23 -->
<g id="edge22" class="edge"><title>Node20&#45;&gt;Node23</title>
<path fill="none" stroke="midnightblue" d="M627.291,-198.444C660.522,-187.908 702.652,-174.549 733.996,-164.611"/>
<polygon fill="midnightblue" stroke="midnightblue" points="626.204,-195.117 617.73,-201.476 628.32,-201.79 626.204,-195.117"/>
</g>
</g>
</svg>
