<?xml version="1.0" encoding="UTF-8" standalone="no"?>
<!DOCTYPE svg PUBLIC "-//W3C//DTD SVG 1.1//EN"
 "http://www.w3.org/Graphics/SVG/1.1/DTD/svg11.dtd">
<!-- Generated by graphviz version 2.38.0 (20140413.2041)
 -->
<!-- Title: C:/Users/Jameson/Documents/git&#45;projects/openage/libopenage/util/matrix.h Pages: 1 -->
<svg width="1062pt" height="498pt"
 viewBox="0.00 0.00 1062.00 498.45" xmlns="http://www.w3.org/2000/svg" xmlns:xlink="http://www.w3.org/1999/xlink">
<g id="graph0" class="graph" transform="scale(1 1) rotate(0) translate(4 494.452)">
<title>C:/Users/Jameson/Documents/git&#45;projects/openage/libopenage/util/matrix.h</title>
<polygon fill="white" stroke="none" points="-4,4 -4,-494.452 1058,-494.452 1058,4 -4,4"/>
<!-- Node0 -->
<g id="node1" class="node"><title>Node0</title>
<g id="a_node1"><a xlink:title=" ">
<polygon fill="#bfbfbf" stroke="black" points="795.5,-448.952 795.5,-489.952 952.5,-489.952 952.5,-448.952 795.5,-448.952"/>
<text text-anchor="start" x="803.5" y="-477.952" font-family="Helvetica,sans-Serif" font-size="10.00">C:/Users/Jameson/Documents</text>
<text text-anchor="start" x="803.5" y="-466.952" font-family="Helvetica,sans-Serif" font-size="10.00">/git&#45;projects/openage/libopenage</text>
<text text-anchor="middle" x="874" y="-455.952" font-family="Helvetica,sans-Serif" font-size="10.00">/util/matrix.h</text>
</a>
</g>
</g>
<!-- Node1 -->
<g id="node2" class="node"><title>Node1</title>
<g id="a_node2"><a xlink:title=" ">
<polygon fill="white" stroke="#bfbfbf" points="574,-336.952 574,-355.952 612,-355.952 612,-336.952 574,-336.952"/>
<text text-anchor="middle" x="593" y="-343.952" font-family="Helvetica,sans-Serif" font-size="10.00">array</text>
</a>
</g>
</g>
<!-- Node0&#45;&gt;Node1 -->
<g id="edge1" class="edge"><title>Node0&#45;&gt;Node1</title>
<path fill="none" stroke="midnightblue" d="M822.808,-448.925C795.923,-438.467 762.517,-425.153 733,-412.452 693.145,-395.302 647.703,-373.845 619.683,-360.389"/>
<polygon fill="midnightblue" stroke="midnightblue" points="621.064,-357.169 610.536,-355.983 618.026,-363.476 621.064,-357.169"/>
</g>
<!-- Node2 -->
<g id="node3" class="node"><title>Node2</title>
<g id="a_node3"><a xlink:title=" ">
<polygon fill="white" stroke="#bfbfbf" points="630,-336.952 630,-355.952 674,-355.952 674,-336.952 630,-336.952"/>
<text text-anchor="middle" x="652" y="-343.952" font-family="Helvetica,sans-Serif" font-size="10.00">cmath</text>
</a>
</g>
</g>
<!-- Node0&#45;&gt;Node2 -->
<g id="edge2" class="edge"><title>Node0&#45;&gt;Node2</title>
<path fill="none" stroke="midnightblue" d="M837.838,-448.742C792.532,-424.048 716.09,-382.384 676.862,-361.003"/>
<polygon fill="midnightblue" stroke="midnightblue" points="678.188,-357.739 667.732,-356.026 674.838,-363.885 678.188,-357.739"/>
</g>
<!-- Node3 -->
<g id="node4" class="node"><title>Node3</title>
<g id="a_node4"><a xlink:title=" ">
<polygon fill="white" stroke="#bfbfbf" points="942,-336.952 942,-355.952 988,-355.952 988,-336.952 942,-336.952"/>
<text text-anchor="middle" x="965" y="-343.952" font-family="Helvetica,sans-Serif" font-size="10.00">cstring</text>
</a>
</g>
</g>
<!-- Node0&#45;&gt;Node3 -->
<g id="edge3" class="edge"><title>Node0&#45;&gt;Node3</title>
<path fill="none" stroke="midnightblue" d="M888.823,-448.742C906.529,-425.199 935.836,-386.231 952.464,-364.121"/>
<polygon fill="midnightblue" stroke="midnightblue" points="955.338,-366.122 958.551,-356.026 949.743,-361.915 955.338,-366.122"/>
</g>
<!-- Node4 -->
<g id="node5" class="node"><title>Node4</title>
<g id="a_node5"><a xlink:title=" ">
<polygon fill="white" stroke="#bfbfbf" points="888,-56.9516 888,-75.9516 942,-75.9516 942,-56.9516 888,-56.9516"/>
<text text-anchor="middle" x="915" y="-63.9516" font-family="Helvetica,sans-Serif" font-size="10.00">iostream</text>
</a>
</g>
</g>
<!-- Node0&#45;&gt;Node4 -->
<g id="edge4" class="edge"><title>Node0&#45;&gt;Node4</title>
<path fill="none" stroke="midnightblue" d="M951.381,-448.906C1000.17,-431.413 1054,-400.168 1054,-347.452 1054,-347.452 1054,-347.452 1054,-177.452 1054,-125.172 992.79,-93.8379 951.607,-78.6724"/>
<polygon fill="midnightblue" stroke="midnightblue" points="952.725,-75.3556 942.131,-75.3343 950.4,-81.9579 952.725,-75.3556"/>
</g>
<!-- Node5 -->
<g id="node6" class="node"><title>Node5</title>
<g id="a_node6"><a xlink:title=" ">
<polygon fill="white" stroke="#bfbfbf" points="926,-168.952 926,-187.952 988,-187.952 988,-168.952 926,-168.952"/>
<text text-anchor="middle" x="957" y="-175.952" font-family="Helvetica,sans-Serif" font-size="10.00">type_traits</text>
</a>
</g>
</g>
<!-- Node0&#45;&gt;Node5 -->
<g id="edge5" class="edge"><title>Node0&#45;&gt;Node5</title>
<path fill="none" stroke="midnightblue" d="M908.288,-448.893C938.098,-429.697 979.217,-397.375 997,-356.452 1021.01,-301.201 986.834,-229.735 968,-197.104"/>
<polygon fill="midnightblue" stroke="midnightblue" points="970.864,-195.073 962.729,-188.285 964.855,-198.664 970.864,-195.073"/>
</g>
<!-- Node6 -->
<g id="node7" class="node"><title>Node6</title>
<g id="a_node7"><a xlink:href="vector_8h.xhtml" target="_top" xlink:title=" ">
<polygon fill="white" stroke="black" points="810,-392.952 810,-411.952 860,-411.952 860,-392.952 810,-392.952"/>
<text text-anchor="middle" x="835" y="-399.952" font-family="Helvetica,sans-Serif" font-size="10.00">vector.h</text>
</a>
</g>
</g>
<!-- Node0&#45;&gt;Node6 -->
<g id="edge6" class="edge"><title>Node0&#45;&gt;Node6</title>
<path fill="none" stroke="midnightblue" d="M862.299,-448.949C856.952,-440.038 850.668,-429.565 845.478,-420.915"/>
<polygon fill="midnightblue" stroke="midnightblue" points="848.338,-418.878 840.191,-412.104 842.335,-422.48 848.338,-418.878"/>
</g>
<!-- Node6&#45;&gt;Node1 -->
<g id="edge7" class="edge"><title>Node6&#45;&gt;Node1</title>
<path fill="none" stroke="midnightblue" d="M809.762,-397.023C771.263,-390.079 695.41,-375.661 622.063,-356.52"/>
<polygon fill="midnightblue" stroke="midnightblue" points="622.765,-353.085 612.202,-353.913 620.976,-359.853 622.765,-353.085"/>
</g>
<!-- Node6&#45;&gt;Node2 -->
<g id="edge8" class="edge"><title>Node6&#45;&gt;Node2</title>
<path fill="none" stroke="midnightblue" d="M809.938,-394.056C777.241,-384.408 719.985,-367.513 684.131,-356.933"/>
<polygon fill="midnightblue" stroke="midnightblue" points="684.765,-353.471 674.183,-353.997 682.784,-360.185 684.765,-353.471"/>
</g>
<!-- Node6&#45;&gt;Node3 -->
<g id="edge9" class="edge"><title>Node6&#45;&gt;Node3</title>
<path fill="none" stroke="midnightblue" d="M855.599,-392.895C876.993,-384.008 910.681,-370.015 935.024,-359.903"/>
<polygon fill="midnightblue" stroke="midnightblue" points="936.605,-363.036 944.497,-355.968 933.92,-356.572 936.605,-363.036"/>
</g>
<!-- Node6&#45;&gt;Node4 -->
<g id="edge10" class="edge"><title>Node6&#45;&gt;Node4</title>
<path fill="none" stroke="midnightblue" d="M848.604,-392.818C890.698,-365.624 1016,-280.861 1016,-235.452 1016,-235.452 1016,-235.452 1016,-177.452 1016,-133.045 970.787,-98.8187 940.862,-81.0289"/>
<polygon fill="midnightblue" stroke="midnightblue" points="942.553,-77.9635 932.133,-76.0425 939.08,-84.0417 942.553,-77.9635"/>
</g>
<!-- Node6&#45;&gt;Node5 -->
<g id="edge11" class="edge"><title>Node6&#45;&gt;Node5</title>
<path fill="none" stroke="midnightblue" d="M842.963,-392.883C858.125,-376.201 891.459,-337.721 912,-300.452 930.95,-266.067 945.036,-222.084 952.042,-197.738"/>
<polygon fill="midnightblue" stroke="midnightblue" points="955.432,-198.612 954.755,-188.039 948.691,-196.727 955.432,-198.612"/>
</g>
<!-- Node7 -->
<g id="node8" class="node"><title>Node7</title>
<g id="a_node8"><a xlink:href="error_2error_8h.xhtml" target="_top" xlink:title=" ">
<polygon fill="white" stroke="black" points="772,-336.952 772,-355.952 848,-355.952 848,-336.952 772,-336.952"/>
<text text-anchor="middle" x="810" y="-343.952" font-family="Helvetica,sans-Serif" font-size="10.00">../error/error.h</text>
</a>
</g>
</g>
<!-- Node6&#45;&gt;Node7 -->
<g id="edge12" class="edge"><title>Node6&#45;&gt;Node7</title>
<path fill="none" stroke="midnightblue" d="M830.872,-392.535C827.486,-385.222 822.584,-374.633 818.381,-365.555"/>
<polygon fill="midnightblue" stroke="midnightblue" points="821.429,-363.807 814.051,-356.203 815.077,-366.748 821.429,-363.807"/>
</g>
<!-- Node34 -->
<g id="node35" class="node"><title>Node34</title>
<g id="a_node35"><a xlink:href="log_8h.xhtml" target="_top" xlink:title=" ">
<polygon fill="white" stroke="black" points="692,-336.952 692,-355.952 754,-355.952 754,-336.952 692,-336.952"/>
<text text-anchor="middle" x="723" y="-343.952" font-family="Helvetica,sans-Serif" font-size="10.00">../log/log.h</text>
</a>
</g>
</g>
<!-- Node6&#45;&gt;Node34 -->
<g id="edge53" class="edge"><title>Node6&#45;&gt;Node34</title>
<path fill="none" stroke="midnightblue" d="M817.005,-392.776C798.962,-384.076 770.953,-370.572 750.197,-360.565"/>
<polygon fill="midnightblue" stroke="midnightblue" points="751.478,-357.296 740.95,-356.106 748.438,-363.602 751.478,-357.296"/>
</g>
<!-- Node7&#45;&gt;Node4 -->
<g id="edge13" class="edge"><title>Node7&#45;&gt;Node4</title>
<path fill="none" stroke="midnightblue" d="M830.017,-336.833C845.242,-329.31 865.618,-317.001 878,-300.452 896.107,-276.25 898,-265.677 898,-235.452 898,-235.452 898,-235.452 898,-177.452 898,-145.034 905.3,-107.867 910.333,-86.0955"/>
<polygon fill="midnightblue" stroke="midnightblue" points="913.772,-86.7618 912.707,-76.2207 906.966,-85.1253 913.772,-86.7618"/>
</g>
<!-- Node8 -->
<g id="node9" class="node"><title>Node8</title>
<g id="a_node9"><a xlink:title=" ">
<polygon fill="white" stroke="#bfbfbf" points="590,-112.952 590,-131.952 642,-131.952 642,-112.952 590,-112.952"/>
<text text-anchor="middle" x="616" y="-119.952" font-family="Helvetica,sans-Serif" font-size="10.00">memory</text>
</a>
</g>
</g>
<!-- Node7&#45;&gt;Node8 -->
<g id="edge14" class="edge"><title>Node7&#45;&gt;Node8</title>
<path fill="none" stroke="midnightblue" d="M788.465,-336.816C771.224,-329.136 747.168,-316.622 730,-300.452 678.641,-252.075 639.918,-176.018 623.977,-141.529"/>
<polygon fill="midnightblue" stroke="midnightblue" points="627.083,-139.905 619.772,-132.237 620.706,-142.791 627.083,-139.905"/>
</g>
<!-- Node9 -->
<g id="node10" class="node"><title>Node9</title>
<g id="a_node10"><a xlink:title=" ">
<polygon fill="white" stroke="#bfbfbf" points="810.5,-280.952 810.5,-299.952 869.5,-299.952 869.5,-280.952 810.5,-280.952"/>
<text text-anchor="middle" x="840" y="-287.952" font-family="Helvetica,sans-Serif" font-size="10.00">stdexcept</text>
</a>
</g>
</g>
<!-- Node7&#45;&gt;Node9 -->
<g id="edge15" class="edge"><title>Node7&#45;&gt;Node9</title>
<path fill="none" stroke="midnightblue" d="M814.954,-336.535C819.104,-329.064 825.153,-318.176 830.267,-308.971"/>
<polygon fill="midnightblue" stroke="midnightblue" points="833.341,-310.644 835.138,-300.203 827.222,-307.245 833.341,-310.644"/>
</g>
<!-- Node10 -->
<g id="node11" class="node"><title>Node10</title>
<g id="a_node11"><a xlink:title=" ">
<polygon fill="white" stroke="#bfbfbf" points="687.5,-0.951632 687.5,-19.9516 728.5,-19.9516 728.5,-0.951632 687.5,-0.951632"/>
<text text-anchor="middle" x="708" y="-7.95163" font-family="Helvetica,sans-Serif" font-size="10.00">string</text>
</a>
</g>
</g>
<!-- Node7&#45;&gt;Node10 -->
<g id="edge16" class="edge"><title>Node7&#45;&gt;Node10</title>
<path fill="none" stroke="midnightblue" d="M807.277,-336.627C803.764,-324.131 798.395,-300.562 801,-280.452 810.848,-204.435 873.949,-181.176 840,-112.452 818.863,-69.6635 769.942,-40.0061 737.959,-24.3724"/>
<polygon fill="midnightblue" stroke="midnightblue" points="739.165,-21.0713 728.627,-19.9718 736.179,-27.4026 739.165,-21.0713"/>
</g>
<!-- Node11 -->
<g id="node12" class="node"><title>Node11</title>
<g id="a_node12"><a xlink:href="compiler_8h.xhtml" target="_top" xlink:title=" ">
<polygon fill="white" stroke="black" points="304,-56.9516 304,-75.9516 390,-75.9516 390,-56.9516 304,-56.9516"/>
<text text-anchor="middle" x="347" y="-63.9516" font-family="Helvetica,sans-Serif" font-size="10.00">../util/compiler.h</text>
</a>
</g>
</g>
<!-- Node7&#45;&gt;Node11 -->
<g id="edge17" class="edge"><title>Node7&#45;&gt;Node11</title>
<path fill="none" stroke="midnightblue" d="M801.098,-336.939C792.206,-328.209 778.4,-314.024 768,-300.452 708.143,-222.332 733.292,-166.43 651,-112.452 610.789,-86.0757 476.464,-74.5324 400.512,-70.0111"/>
<polygon fill="midnightblue" stroke="midnightblue" points="400.382,-66.498 390.198,-69.4189 399.981,-73.4865 400.382,-66.498"/>
</g>
<!-- Node14 -->
<g id="node15" class="node"><title>Node14</title>
<g id="a_node15"><a xlink:href="message_8h.xhtml" target="_top" xlink:title=" ">
<polygon fill="white" stroke="black" points="429.5,-280.952 429.5,-299.952 518.5,-299.952 518.5,-280.952 429.5,-280.952"/>
<text text-anchor="middle" x="474" y="-287.952" font-family="Helvetica,sans-Serif" font-size="10.00">../log/message.h</text>
</a>
</g>
</g>
<!-- Node7&#45;&gt;Node14 -->
<g id="edge22" class="edge"><title>Node7&#45;&gt;Node14</title>
<path fill="none" stroke="midnightblue" d="M771.801,-338.022C768.825,-337.478 765.865,-336.949 763,-336.452 681.586,-322.323 586.9,-307.973 528.712,-299.393"/>
<polygon fill="midnightblue" stroke="midnightblue" points="529.04,-295.903 518.637,-297.911 528.021,-302.829 529.04,-295.903"/>
</g>
<!-- Node11&#45;&gt;Node10 -->
<g id="edge19" class="edge"><title>Node11&#45;&gt;Node10</title>
<path fill="none" stroke="midnightblue" d="M390.186,-58.9916C464.113,-47.9334 613.138,-25.6414 677.382,-16.0315"/>
<polygon fill="midnightblue" stroke="midnightblue" points="677.924,-19.4896 687.296,-14.5486 676.888,-12.5666 677.924,-19.4896"/>
</g>
<!-- Node12 -->
<g id="node13" class="node"><title>Node12</title>
<g id="a_node13"><a xlink:title=" ">
<polygon fill="white" stroke="#bfbfbf" points="365,-0.951632 365,-19.9516 415,-19.9516 415,-0.951632 365,-0.951632"/>
<text text-anchor="middle" x="390" y="-7.95163" font-family="Helvetica,sans-Serif" font-size="10.00">ciso646</text>
</a>
</g>
</g>
<!-- Node11&#45;&gt;Node12 -->
<g id="edge18" class="edge"><title>Node11&#45;&gt;Node12</title>
<path fill="none" stroke="midnightblue" d="M354.101,-56.5346C360.237,-48.8284 369.27,-37.485 376.739,-28.1047"/>
<polygon fill="midnightblue" stroke="midnightblue" points="379.54,-30.2058 383.032,-20.2027 374.064,-25.8453 379.54,-30.2058"/>
</g>
<!-- Node13 -->
<g id="node14" class="node"><title>Node13</title>
<g id="a_node14"><a xlink:href="signal_8h.xhtml" target="_top" xlink:title=" ">
<polygon fill="white" stroke="black" points="279,-0.951632 279,-19.9516 329,-19.9516 329,-0.951632 279,-0.951632"/>
<text text-anchor="middle" x="304" y="-7.95163" font-family="Helvetica,sans-Serif" font-size="10.00">signal.h</text>
</a>
</g>
</g>
<!-- Node11&#45;&gt;Node13 -->
<g id="edge20" class="edge"><title>Node11&#45;&gt;Node13</title>
<path fill="none" stroke="midnightblue" d="M339.899,-56.5346C333.763,-48.8284 324.73,-37.485 317.261,-28.1047"/>
<polygon fill="midnightblue" stroke="midnightblue" points="319.936,-25.8453 310.968,-20.2027 314.46,-30.2058 319.936,-25.8453"/>
</g>
<!-- Node13&#45;&gt;Node13 -->
<g id="edge21" class="edge"><title>Node13&#45;&gt;Node13</title>
<path fill="none" stroke="midnightblue" d="M322.563,-20.0262C334.946,-22.7213 347,-19.5298 347,-10.4516 347,-3.92673 340.773,-0.442852 332.673,-0"/>
<polygon fill="midnightblue" stroke="midnightblue" points="332.223,3.47427 322.563,-0.877047 332.829,-3.49953 332.223,3.47427"/>
</g>
<!-- Node14&#45;&gt;Node10 -->
<g id="edge24" class="edge"><title>Node14&#45;&gt;Node10</title>
<path fill="none" stroke="midnightblue" d="M518.525,-283.254C564.13,-276.017 630.844,-262.674 649,-244.452 708.479,-184.753 710.832,-74.2414 709.174,-30.2397"/>
<polygon fill="midnightblue" stroke="midnightblue" points="712.664,-29.9346 708.672,-20.1206 705.672,-30.2819 712.664,-29.9346"/>
</g>
<!-- Node15 -->
<g id="node16" class="node"><title>Node15</title>
<g id="a_node16"><a xlink:title=" ">
<polygon fill="white" stroke="#bfbfbf" points="286,-224.952 286,-243.952 332,-243.952 332,-224.952 286,-224.952"/>
<text text-anchor="middle" x="309" y="-231.952" font-family="Helvetica,sans-Serif" font-size="10.00">cstdint</text>
</a>
</g>
</g>
<!-- Node14&#45;&gt;Node15 -->
<g id="edge23" class="edge"><title>Node14&#45;&gt;Node15</title>
<path fill="none" stroke="midnightblue" d="M447.855,-280.895C419.075,-271.476 372.766,-256.321 341.629,-246.13"/>
<polygon fill="midnightblue" stroke="midnightblue" points="342.686,-242.794 332.094,-243.01 340.509,-249.446 342.686,-242.794"/>
</g>
<!-- Node16 -->
<g id="node17" class="node"><title>Node16</title>
<g id="a_node17"><a xlink:title=" ">
<polygon fill="white" stroke="#bfbfbf" points="350,-224.952 350,-243.952 400,-243.952 400,-224.952 350,-224.952"/>
<text text-anchor="middle" x="375" y="-231.952" font-family="Helvetica,sans-Serif" font-size="10.00">config.h</text>
</a>
</g>
</g>
<!-- Node14&#45;&gt;Node16 -->
<g id="edge25" class="edge"><title>Node14&#45;&gt;Node16</title>
<path fill="none" stroke="midnightblue" d="M458.094,-280.776C442.362,-272.194 418.058,-258.938 399.791,-248.974"/>
<polygon fill="midnightblue" stroke="midnightblue" points="401.322,-245.822 390.867,-244.106 397.97,-251.967 401.322,-245.822"/>
</g>
<!-- Node17 -->
<g id="node18" class="node"><title>Node17</title>
<g id="a_node18"><a xlink:href="constexpr_8h.xhtml" target="_top" xlink:title=" ">
<polygon fill="white" stroke="black" points="548,-224.952 548,-243.952 640,-243.952 640,-224.952 548,-224.952"/>
<text text-anchor="middle" x="594" y="-231.952" font-family="Helvetica,sans-Serif" font-size="10.00">../util/constexpr.h</text>
</a>
</g>
</g>
<!-- Node14&#45;&gt;Node17 -->
<g id="edge26" class="edge"><title>Node14&#45;&gt;Node17</title>
<path fill="none" stroke="midnightblue" d="M493.014,-280.895C512.588,-272.087 543.308,-258.263 565.729,-248.174"/>
<polygon fill="midnightblue" stroke="midnightblue" points="567.392,-251.263 575.075,-243.968 564.519,-244.88 567.392,-251.263"/>
</g>
<!-- Node19 -->
<g id="node20" class="node"><title>Node19</title>
<g id="a_node20"><a xlink:href="stringformatter_8h.xhtml" target="_top" xlink:title=" ">
<polygon fill="white" stroke="black" points="418,-224.952 418,-243.952 530,-243.952 530,-224.952 418,-224.952"/>
<text text-anchor="middle" x="474" y="-231.952" font-family="Helvetica,sans-Serif" font-size="10.00">../util/stringformatter.h</text>
</a>
</g>
</g>
<!-- Node14&#45;&gt;Node19 -->
<g id="edge28" class="edge"><title>Node14&#45;&gt;Node19</title>
<path fill="none" stroke="midnightblue" d="M474,-280.535C474,-273.458 474,-263.313 474,-254.438"/>
<polygon fill="midnightblue" stroke="midnightblue" points="477.5,-254.203 474,-244.203 470.5,-254.203 477.5,-254.203"/>
</g>
<!-- Node28 -->
<g id="node29" class="node"><title>Node28</title>
<g id="a_node29"><a xlink:href="logsink_8h.xhtml" target="_top" xlink:title=" ">
<polygon fill="white" stroke="black" points="60,-224.952 60,-243.952 116,-243.952 116,-224.952 60,-224.952"/>
<text text-anchor="middle" x="88" y="-231.952" font-family="Helvetica,sans-Serif" font-size="10.00">logsink.h</text>
</a>
</g>
</g>
<!-- Node14&#45;&gt;Node28 -->
<g id="edge44" class="edge"><title>Node14&#45;&gt;Node28</title>
<path fill="none" stroke="midnightblue" d="M429.344,-283.204C352.928,-272.514 198.383,-250.894 126.449,-240.831"/>
<polygon fill="midnightblue" stroke="midnightblue" points="126.843,-237.352 116.454,-239.432 125.873,-244.284 126.843,-237.352"/>
</g>
<!-- Node31 -->
<g id="node32" class="node"><title>Node31</title>
<g id="a_node32"><a xlink:href="level_8h.xhtml" target="_top" xlink:title=" ">
<polygon fill="white" stroke="black" points="110,-168.952 110,-187.952 154,-187.952 154,-168.952 110,-168.952"/>
<text text-anchor="middle" x="132" y="-175.952" font-family="Helvetica,sans-Serif" font-size="10.00">level.h</text>
</a>
</g>
</g>
<!-- Node14&#45;&gt;Node31 -->
<g id="edge52" class="edge"><title>Node14&#45;&gt;Node31</title>
<path fill="none" stroke="midnightblue" d="M429.499,-281.88C389.116,-274.401 328.233,-261.6 277,-244.452 233.941,-230.039 186.311,-207.29 157.788,-192.882"/>
<polygon fill="midnightblue" stroke="midnightblue" points="159.033,-189.588 148.535,-188.161 155.852,-195.823 159.033,-189.588"/>
</g>
<!-- Node18 -->
<g id="node19" class="node"><title>Node18</title>
<g id="a_node19"><a xlink:title=" ">
<polygon fill="white" stroke="#bfbfbf" points="583.5,-168.952 583.5,-187.952 628.5,-187.952 628.5,-168.952 583.5,-168.952"/>
<text text-anchor="middle" x="606" y="-175.952" font-family="Helvetica,sans-Serif" font-size="10.00">cstdlib</text>
</a>
</g>
</g>
<!-- Node17&#45;&gt;Node18 -->
<g id="edge27" class="edge"><title>Node17&#45;&gt;Node18</title>
<path fill="none" stroke="midnightblue" d="M595.982,-224.535C597.572,-217.379 599.859,-207.087 601.846,-198.143"/>
<polygon fill="midnightblue" stroke="midnightblue" points="605.303,-198.724 604.055,-188.203 598.469,-197.205 605.303,-198.724"/>
</g>
<!-- Node19&#45;&gt;Node5 -->
<g id="edge31" class="edge"><title>Node19&#45;&gt;Node5</title>
<path fill="none" stroke="midnightblue" d="M530.006,-225.587C533.047,-225.194 536.06,-224.813 539,-224.452 676.858,-207.491 840.739,-190.88 915.776,-183.471"/>
<polygon fill="midnightblue" stroke="midnightblue" points="916.154,-186.951 925.763,-182.487 915.468,-179.984 916.154,-186.951"/>
</g>
<!-- Node19&#45;&gt;Node8 -->
<g id="edge30" class="edge"><title>Node19&#45;&gt;Node8</title>
<path fill="none" stroke="midnightblue" d="M481.696,-224.804C493.616,-211.697 517.615,-186.427 541,-168.452 556.406,-156.609 575.151,-145.362 590.047,-137.074"/>
<polygon fill="midnightblue" stroke="midnightblue" points="592.103,-139.939 599.206,-132.078 588.751,-133.794 592.103,-139.939"/>
</g>
<!-- Node19&#45;&gt;Node11 -->
<g id="edge32" class="edge"><title>Node19&#45;&gt;Node11</title>
<path fill="none" stroke="midnightblue" d="M435.74,-224.947C367.334,-208.883 228.613,-172.11 201,-132.452 175.063,-95.2014 241.898,-79.0158 293.526,-72.1845"/>
<polygon fill="midnightblue" stroke="midnightblue" points="294.121,-75.6377 303.617,-70.9394 293.264,-68.6904 294.121,-75.6377"/>
</g>
<!-- Node20 -->
<g id="node21" class="node"><title>Node20</title>
<g id="a_node21"><a xlink:title=" ">
<polygon fill="white" stroke="#bfbfbf" points="371,-168.952 371,-187.952 417,-187.952 417,-168.952 371,-168.952"/>
<text text-anchor="middle" x="394" y="-175.952" font-family="Helvetica,sans-Serif" font-size="10.00">atomic</text>
</a>
</g>
</g>
<!-- Node19&#45;&gt;Node20 -->
<g id="edge29" class="edge"><title>Node19&#45;&gt;Node20</title>
<path fill="none" stroke="midnightblue" d="M461.147,-224.776C448.784,-216.431 429.87,-203.664 415.263,-193.804"/>
<polygon fill="midnightblue" stroke="midnightblue" points="417.068,-190.8 406.821,-188.106 413.152,-196.602 417.068,-190.8"/>
</g>
<!-- Node21 -->
<g id="node22" class="node"><title>Node21</title>
<g id="a_node22"><a xlink:href="externalsstream_8h.xhtml" target="_top" xlink:title=" ">
<polygon fill="white" stroke="black" points="736.5,-112.952 736.5,-131.952 831.5,-131.952 831.5,-112.952 736.5,-112.952"/>
<text text-anchor="middle" x="784" y="-119.952" font-family="Helvetica,sans-Serif" font-size="10.00">externalsstream.h</text>
</a>
</g>
</g>
<!-- Node19&#45;&gt;Node21 -->
<g id="edge33" class="edge"><title>Node19&#45;&gt;Node21</title>
<path fill="none" stroke="midnightblue" d="M486.74,-224.798C511.536,-208.011 564.678,-172.324 574,-168.452 623.251,-147.992 683.022,-136.347 726.184,-130.054"/>
<polygon fill="midnightblue" stroke="midnightblue" points="726.815,-133.5 736.23,-128.642 725.84,-126.568 726.815,-133.5"/>
</g>
<!-- Node22 -->
<g id="node23" class="node"><title>Node22</title>
<g id="a_node23"><a xlink:href="strings_8h.xhtml" target="_top" xlink:title=" ">
<polygon fill="white" stroke="black" points="435,-168.952 435,-187.952 489,-187.952 489,-168.952 435,-168.952"/>
<text text-anchor="middle" x="462" y="-175.952" font-family="Helvetica,sans-Serif" font-size="10.00">strings.h</text>
</a>
</g>
</g>
<!-- Node19&#45;&gt;Node22 -->
<g id="edge36" class="edge"><title>Node19&#45;&gt;Node22</title>
<path fill="none" stroke="midnightblue" d="M472.018,-224.535C470.428,-217.379 468.141,-207.087 466.154,-198.143"/>
<polygon fill="midnightblue" stroke="midnightblue" points="469.531,-197.205 463.945,-188.203 462.697,-198.724 469.531,-197.205"/>
</g>
<!-- Node21&#45;&gt;Node4 -->
<g id="edge34" class="edge"><title>Node21&#45;&gt;Node4</title>
<path fill="none" stroke="midnightblue" d="M804.757,-112.895C826.316,-104.008 860.263,-90.0148 884.794,-79.903"/>
<polygon fill="midnightblue" stroke="midnightblue" points="886.428,-83.015 894.34,-75.9681 883.761,-76.5433 886.428,-83.015"/>
</g>
<!-- Node21&#45;&gt;Node10 -->
<g id="edge35" class="edge"><title>Node21&#45;&gt;Node10</title>
<path fill="none" stroke="midnightblue" d="M778.036,-112.82C765.494,-94.667 736.19,-52.2532 719.739,-28.4418"/>
<polygon fill="midnightblue" stroke="midnightblue" points="722.5,-26.2808 713.936,-20.0431 716.741,-30.2599 722.5,-26.2808"/>
</g>
<!-- Node22&#45;&gt;Node8 -->
<g id="edge40" class="edge"><title>Node22&#45;&gt;Node8</title>
<path fill="none" stroke="midnightblue" d="M486.402,-168.895C512.197,-159.85 553.077,-145.516 582.018,-135.367"/>
<polygon fill="midnightblue" stroke="midnightblue" points="583.434,-138.58 591.712,-131.968 581.118,-131.974 583.434,-138.58"/>
</g>
<!-- Node22&#45;&gt;Node10 -->
<g id="edge42" class="edge"><title>Node22&#45;&gt;Node10</title>
<path fill="none" stroke="midnightblue" d="M478.799,-168.91C495.434,-160.269 521.465,-146.253 543,-132.452 597.987,-97.2128 659.096,-50.1809 689.173,-26.4699"/>
<polygon fill="midnightblue" stroke="midnightblue" points="691.47,-29.1155 697.137,-20.1637 687.124,-23.6276 691.47,-29.1155"/>
</g>
<!-- Node23 -->
<g id="node24" class="node"><title>Node23</title>
<g id="a_node24"><a xlink:title=" ">
<polygon fill="white" stroke="#bfbfbf" points="210.5,-112.952 210.5,-131.952 259.5,-131.952 259.5,-112.952 210.5,-112.952"/>
<text text-anchor="middle" x="235" y="-119.952" font-family="Helvetica,sans-Serif" font-size="10.00">cstdarg</text>
</a>
</g>
</g>
<!-- Node22&#45;&gt;Node23 -->
<g id="edge37" class="edge"><title>Node22&#45;&gt;Node23</title>
<path fill="none" stroke="midnightblue" d="M434.887,-170.613C431.89,-169.875 428.882,-169.142 426,-168.452 359.374,-152.486 340.133,-149.826 269.668,-132.552"/>
<polygon fill="midnightblue" stroke="midnightblue" points="270.405,-129.129 259.858,-130.134 268.73,-135.925 270.405,-129.129"/>
</g>
<!-- Node24 -->
<g id="node25" class="node"><title>Node24</title>
<g id="a_node25"><a xlink:title=" ">
<polygon fill="white" stroke="#bfbfbf" points="278,-112.952 278,-131.952 336,-131.952 336,-112.952 278,-112.952"/>
<text text-anchor="middle" x="307" y="-119.952" font-family="Helvetica,sans-Serif" font-size="10.00">functional</text>
</a>
</g>
</g>
<!-- Node22&#45;&gt;Node24 -->
<g id="edge38" class="edge"><title>Node22&#45;&gt;Node24</title>
<path fill="none" stroke="midnightblue" d="M437.44,-168.895C411.477,-159.85 370.332,-145.516 341.203,-135.367"/>
<polygon fill="midnightblue" stroke="midnightblue" points="342.04,-131.953 331.445,-131.968 339.737,-138.563 342.04,-131.953"/>
</g>
<!-- Node25 -->
<g id="node26" class="node"><title>Node25</title>
<g id="a_node26"><a xlink:title=" ">
<polygon fill="white" stroke="#bfbfbf" points="354,-112.952 354,-131.952 404,-131.952 404,-112.952 354,-112.952"/>
<text text-anchor="middle" x="379" y="-119.952" font-family="Helvetica,sans-Serif" font-size="10.00">iomanip</text>
</a>
</g>
</g>
<!-- Node22&#45;&gt;Node25 -->
<g id="edge39" class="edge"><title>Node22&#45;&gt;Node25</title>
<path fill="none" stroke="midnightblue" d="M448.665,-168.776C435.838,-160.431 416.215,-147.664 401.06,-137.804"/>
<polygon fill="midnightblue" stroke="midnightblue" points="402.593,-134.626 392.302,-132.106 398.776,-140.493 402.593,-134.626"/>
</g>
<!-- Node26 -->
<g id="node27" class="node"><title>Node26</title>
<g id="a_node27"><a xlink:title=" ">
<polygon fill="white" stroke="#bfbfbf" points="422,-112.952 422,-131.952 474,-131.952 474,-112.952 422,-112.952"/>
<text text-anchor="middle" x="448" y="-119.952" font-family="Helvetica,sans-Serif" font-size="10.00">sstream</text>
</a>
</g>
</g>
<!-- Node22&#45;&gt;Node26 -->
<g id="edge41" class="edge"><title>Node22&#45;&gt;Node26</title>
<path fill="none" stroke="midnightblue" d="M459.688,-168.535C457.833,-161.379 455.165,-151.087 452.846,-142.143"/>
<polygon fill="midnightblue" stroke="midnightblue" points="456.166,-141.004 450.269,-132.203 449.391,-142.761 456.166,-141.004"/>
</g>
<!-- Node27 -->
<g id="node28" class="node"><title>Node27</title>
<g id="a_node28"><a xlink:title=" ">
<polygon fill="white" stroke="#bfbfbf" points="492,-112.952 492,-131.952 534,-131.952 534,-112.952 492,-112.952"/>
<text text-anchor="middle" x="513" y="-119.952" font-family="Helvetica,sans-Serif" font-size="10.00">vector</text>
</a>
</g>
</g>
<!-- Node22&#45;&gt;Node27 -->
<g id="edge43" class="edge"><title>Node22&#45;&gt;Node27</title>
<path fill="none" stroke="midnightblue" d="M470.422,-168.535C477.848,-160.671 488.852,-149.02 497.812,-139.533"/>
<polygon fill="midnightblue" stroke="midnightblue" points="500.413,-141.876 504.735,-132.203 495.324,-137.07 500.413,-141.876"/>
</g>
<!-- Node29 -->
<g id="node30" class="node"><title>Node29</title>
<g id="a_node30"><a xlink:title=" ">
<polygon fill="white" stroke="#bfbfbf" points="62.5,-168.952 62.5,-187.952 91.5,-187.952 91.5,-168.952 62.5,-168.952"/>
<text text-anchor="middle" x="77" y="-175.952" font-family="Helvetica,sans-Serif" font-size="10.00">list</text>
</a>
</g>
</g>
<!-- Node28&#45;&gt;Node29 -->
<g id="edge45" class="edge"><title>Node28&#45;&gt;Node29</title>
<path fill="none" stroke="midnightblue" d="M86.1836,-224.535C84.7259,-217.379 82.6294,-207.087 80.8075,-198.143"/>
<polygon fill="midnightblue" stroke="midnightblue" points="84.2083,-197.303 78.7826,-188.203 77.3492,-198.7 84.2083,-197.303"/>
</g>
<!-- Node30 -->
<g id="node31" class="node"><title>Node30</title>
<g id="a_node31"><a xlink:title=" ">
<polygon fill="white" stroke="#bfbfbf" points="0,-168.952 0,-187.952 44,-187.952 44,-168.952 0,-168.952"/>
<text text-anchor="middle" x="22" y="-175.952" font-family="Helvetica,sans-Serif" font-size="10.00">mutex</text>
</a>
</g>
</g>
<!-- Node28&#45;&gt;Node30 -->
<g id="edge46" class="edge"><title>Node28&#45;&gt;Node30</title>
<path fill="none" stroke="midnightblue" d="M77.396,-224.776C67.5438,-216.715 52.6491,-204.528 40.7849,-194.821"/>
<polygon fill="midnightblue" stroke="midnightblue" points="42.7529,-191.909 32.797,-188.286 38.3202,-197.327 42.7529,-191.909"/>
</g>
<!-- Node28&#45;&gt;Node31 -->
<g id="edge47" class="edge"><title>Node28&#45;&gt;Node31</title>
<path fill="none" stroke="midnightblue" d="M95.2657,-224.535C101.545,-216.828 110.788,-205.485 118.431,-196.105"/>
<polygon fill="midnightblue" stroke="midnightblue" points="121.266,-198.166 124.869,-188.203 115.839,-193.744 121.266,-198.166"/>
</g>
<!-- Node32 -->
<g id="node33" class="node"><title>Node32</title>
<g id="a_node33"><a xlink:href="enum_8h.xhtml" target="_top" xlink:title=" ">
<polygon fill="white" stroke="black" points="80,-112.952 80,-131.952 154,-131.952 154,-112.952 80,-112.952"/>
<text text-anchor="middle" x="117" y="-119.952" font-family="Helvetica,sans-Serif" font-size="10.00">../util/enum.h</text>
</a>
</g>
</g>
<!-- Node31&#45;&gt;Node32 -->
<g id="edge48" class="edge"><title>Node31&#45;&gt;Node32</title>
<path fill="none" stroke="midnightblue" d="M129.523,-168.535C127.514,-161.3 124.614,-150.86 122.11,-141.848"/>
<polygon fill="midnightblue" stroke="midnightblue" points="125.48,-140.901 119.431,-132.203 118.735,-142.775 125.48,-140.901"/>
</g>
<!-- Node32&#45;&gt;Node4 -->
<g id="edge49" class="edge"><title>Node32&#45;&gt;Node4</title>
<path fill="none" stroke="midnightblue" d="M154.182,-117.114C168.767,-115.505 185.655,-113.757 201,-112.452 459.441,-90.4731 771.355,-74.4078 877.531,-69.2335"/>
<polygon fill="midnightblue" stroke="midnightblue" points="877.912,-72.7192 887.731,-68.7392 877.574,-65.7274 877.912,-72.7192"/>
</g>
<!-- Node32&#45;&gt;Node11 -->
<g id="edge51" class="edge"><title>Node32&#45;&gt;Node11</title>
<path fill="none" stroke="midnightblue" d="M153.444,-112.895C193.399,-103.515 257.587,-88.4443 300.985,-78.2552"/>
<polygon fill="midnightblue" stroke="midnightblue" points="301.791,-81.6612 310.726,-75.9681 300.191,-74.8465 301.791,-81.6612"/>
</g>
<!-- Node33 -->
<g id="node34" class="node"><title>Node33</title>
<g id="a_node34"><a xlink:title=" ">
<polygon fill="white" stroke="#bfbfbf" points="92,-56.9516 92,-75.9516 142,-75.9516 142,-56.9516 92,-56.9516"/>
<text text-anchor="middle" x="117" y="-63.9516" font-family="Helvetica,sans-Serif" font-size="10.00">typeinfo</text>
</a>
</g>
</g>
<!-- Node32&#45;&gt;Node33 -->
<g id="edge50" class="edge"><title>Node32&#45;&gt;Node33</title>
<path fill="none" stroke="midnightblue" d="M117,-112.535C117,-105.458 117,-95.3127 117,-86.4381"/>
<polygon fill="midnightblue" stroke="midnightblue" points="120.5,-86.2027 117,-76.2027 113.5,-86.2027 120.5,-86.2027"/>
</g>
<!-- Node34&#45;&gt;Node14 -->
<g id="edge55" class="edge"><title>Node34&#45;&gt;Node14</title>
<path fill="none" stroke="midnightblue" d="M691.997,-338.446C688.958,-337.769 685.92,-337.094 683,-336.452 628.636,-324.483 566.238,-311.094 523.878,-302.055"/>
<polygon fill="midnightblue" stroke="midnightblue" points="524.601,-298.631 514.091,-299.969 523.141,-305.477 524.601,-298.631"/>
</g>
<!-- Node34&#45;&gt;Node31 -->
<g id="edge54" class="edge"><title>Node34&#45;&gt;Node31</title>
<path fill="none" stroke="midnightblue" d="M691.609,-338.123C688.705,-337.525 685.802,-336.958 683,-336.452 478.684,-299.552 412.417,-333.792 225,-244.452 196.73,-230.976 167.705,-209.168 149.766,-194.575"/>
<polygon fill="midnightblue" stroke="midnightblue" points="151.835,-191.744 141.902,-188.059 147.369,-197.134 151.835,-191.744"/>
</g>
</g>
</svg>
