<?xml version="1.0" encoding="UTF-8" standalone="no"?>
<!DOCTYPE svg PUBLIC "-//W3C//DTD SVG 1.1//EN"
 "http://www.w3.org/Graphics/SVG/1.1/DTD/svg11.dtd">
<!-- Generated by graphviz version 2.38.0 (20140413.2041)
 -->
<!-- Title: C:/Users/Jameson/Documents/git&#45;projects/openage/libopenage/util/matrix.h Pages: 1 -->
<svg width="602pt" height="206pt"
 viewBox="0.00 0.00 602.00 206.00" xmlns="http://www.w3.org/2000/svg" xmlns:xlink="http://www.w3.org/1999/xlink">
<g id="graph0" class="graph" transform="scale(1 1) rotate(0) translate(4 202)">
<title>C:/Users/Jameson/Documents/git&#45;projects/openage/libopenage/util/matrix.h</title>
<polygon fill="white" stroke="none" points="-4,4 -4,-202 598,-202 598,4 -4,4"/>
<!-- Node35 -->
<g id="node1" class="node"><title>Node35</title>
<g id="a_node1"><a xlink:title=" ">
<polygon fill="#bfbfbf" stroke="black" points="175,-156.5 175,-197.5 332,-197.5 332,-156.5 175,-156.5"/>
<text text-anchor="start" x="183" y="-185.5" font-family="Helvetica,sans-Serif" font-size="10.00">C:/Users/Jameson/Documents</text>
<text text-anchor="start" x="183" y="-174.5" font-family="Helvetica,sans-Serif" font-size="10.00">/git&#45;projects/openage/libopenage</text>
<text text-anchor="middle" x="253.5" y="-163.5" font-family="Helvetica,sans-Serif" font-size="10.00">/util/matrix.h</text>
</a>
</g>
</g>
<!-- Node36 -->
<g id="node2" class="node"><title>Node36</title>
<g id="a_node2"><a xlink:href="matrix_8cpp.xhtml" target="_top" xlink:title=" ">
<polygon fill="white" stroke="black" points="0,-78.5 0,-119.5 157,-119.5 157,-78.5 0,-78.5"/>
<text text-anchor="start" x="8" y="-107.5" font-family="Helvetica,sans-Serif" font-size="10.00">C:/Users/Jameson/Documents</text>
<text text-anchor="start" x="8" y="-96.5" font-family="Helvetica,sans-Serif" font-size="10.00">/git&#45;projects/openage/libopenage</text>
<text text-anchor="middle" x="78.5" y="-85.5" font-family="Helvetica,sans-Serif" font-size="10.00">/util/matrix.cpp</text>
</a>
</g>
</g>
<!-- Node35&#45;&gt;Node36 -->
<g id="edge1" class="edge"><title>Node35&#45;&gt;Node36</title>
<path fill="none" stroke="midnightblue" d="M198.995,-152.329C174.712,-141.783 146.457,-129.513 123.414,-119.506"/>
<polygon fill="midnightblue" stroke="midnightblue" points="197.867,-155.655 208.433,-156.428 200.655,-149.234 197.867,-155.655"/>
</g>
<!-- Node37 -->
<g id="node3" class="node"><title>Node37</title>
<g id="a_node3"><a xlink:href="matrix__test_8cpp.xhtml" target="_top" xlink:title=" ">
<polygon fill="white" stroke="black" points="175,-78.5 175,-119.5 332,-119.5 332,-78.5 175,-78.5"/>
<text text-anchor="start" x="183" y="-107.5" font-family="Helvetica,sans-Serif" font-size="10.00">C:/Users/Jameson/Documents</text>
<text text-anchor="start" x="183" y="-96.5" font-family="Helvetica,sans-Serif" font-size="10.00">/git&#45;projects/openage/libopenage</text>
<text text-anchor="middle" x="253.5" y="-85.5" font-family="Helvetica,sans-Serif" font-size="10.00">/util/matrix_test.cpp</text>
</a>
</g>
</g>
<!-- Node35&#45;&gt;Node37 -->
<g id="edge2" class="edge"><title>Node35&#45;&gt;Node37</title>
<path fill="none" stroke="midnightblue" d="M253.5,-146.297C253.5,-137.301 253.5,-127.653 253.5,-119.506"/>
<polygon fill="midnightblue" stroke="midnightblue" points="250,-146.428 253.5,-156.428 257,-146.428 250,-146.428"/>
</g>
<!-- Node38 -->
<g id="node4" class="node"><title>Node38</title>
<g id="a_node4"><a xlink:href="quaternion_8h.xhtml" target="_top" xlink:title=" ">
<polygon fill="white" stroke="black" points="350,-78.5 350,-119.5 507,-119.5 507,-78.5 350,-78.5"/>
<text text-anchor="start" x="358" y="-107.5" font-family="Helvetica,sans-Serif" font-size="10.00">C:/Users/Jameson/Documents</text>
<text text-anchor="start" x="358" y="-96.5" font-family="Helvetica,sans-Serif" font-size="10.00">/git&#45;projects/openage/libopenage</text>
<text text-anchor="middle" x="428.5" y="-85.5" font-family="Helvetica,sans-Serif" font-size="10.00">/util/quaternion.h</text>
</a>
</g>
</g>
<!-- Node35&#45;&gt;Node38 -->
<g id="edge3" class="edge"><title>Node35&#45;&gt;Node38</title>
<path fill="none" stroke="midnightblue" d="M308.005,-152.329C332.288,-141.783 360.543,-129.513 383.586,-119.506"/>
<polygon fill="midnightblue" stroke="midnightblue" points="306.345,-149.234 298.567,-156.428 309.133,-155.655 306.345,-149.234"/>
</g>
<!-- Node39 -->
<g id="node5" class="node"><title>Node39</title>
<g id="a_node5"><a xlink:href="quaternion_8cpp.xhtml" target="_top" xlink:title=" ">
<polygon fill="white" stroke="black" points="262,-0.5 262,-41.5 419,-41.5 419,-0.5 262,-0.5"/>
<text text-anchor="start" x="270" y="-29.5" font-family="Helvetica,sans-Serif" font-size="10.00">C:/Users/Jameson/Documents</text>
<text text-anchor="start" x="270" y="-18.5" font-family="Helvetica,sans-Serif" font-size="10.00">/git&#45;projects/openage/libopenage</text>
<text text-anchor="middle" x="340.5" y="-7.5" font-family="Helvetica,sans-Serif" font-size="10.00">/util/quaternion.cpp</text>
</a>
</g>
</g>
<!-- Node38&#45;&gt;Node39 -->
<g id="edge4" class="edge"><title>Node38&#45;&gt;Node39</title>
<path fill="none" stroke="midnightblue" d="M398.138,-71.7785C386.634,-61.8432 373.75,-50.7159 363.085,-41.5056"/>
<polygon fill="midnightblue" stroke="midnightblue" points="395.982,-74.5408 405.838,-78.4281 400.557,-69.243 395.982,-74.5408"/>
</g>
<!-- Node40 -->
<g id="node6" class="node"><title>Node40</title>
<g id="a_node6"><a xlink:href="quaternion__test_8cpp.xhtml" target="_top" xlink:title=" ">
<polygon fill="white" stroke="black" points="437,-0.5 437,-41.5 594,-41.5 594,-0.5 437,-0.5"/>
<text text-anchor="start" x="445" y="-29.5" font-family="Helvetica,sans-Serif" font-size="10.00">C:/Users/Jameson/Documents</text>
<text text-anchor="start" x="445" y="-18.5" font-family="Helvetica,sans-Serif" font-size="10.00">/git&#45;projects/openage/libopenage</text>
<text text-anchor="middle" x="515.5" y="-7.5" font-family="Helvetica,sans-Serif" font-size="10.00">/util/quaternion_test.cpp</text>
</a>
</g>
</g>
<!-- Node38&#45;&gt;Node40 -->
<g id="edge5" class="edge"><title>Node38&#45;&gt;Node40</title>
<path fill="none" stroke="midnightblue" d="M458.517,-71.7785C469.89,-61.8432 482.628,-50.7159 493.171,-41.5056"/>
<polygon fill="midnightblue" stroke="midnightblue" points="456.133,-69.2133 450.905,-78.4281 460.738,-74.4851 456.133,-69.2133"/>
</g>
</g>
</svg>
