<?xml version="1.0" encoding="UTF-8" standalone="no"?>
<!DOCTYPE svg PUBLIC "-//W3C//DTD SVG 1.1//EN"
 "http://www.w3.org/Graphics/SVG/1.1/DTD/svg11.dtd">
<!-- Generated by graphviz version 2.38.0 (20140413.2041)
 -->
<!-- Title: libopenage/util/misc.cpp Pages: 1 -->
<!--zoomable 476 -->
<svg id="main" version="1.1" xmlns="http://www.w3.org/2000/svg" xmlns:xlink="http://www.w3.org/1999/xlink" xml:space="preserve" onload="init(evt)">
<style type="text/css"><![CDATA[
.edge:hover path { stroke: red; }
.edge:hover polygon { stroke: red; fill: red; }
]]></style>
<script type="text/javascript"><![CDATA[
var edges = document.getElementsByTagName('g');
if (edges && edges.length) {
  for (var i=0;i<edges.length;i++) {
    if (edges[i].id.substr(0,4)=='edge') {
      edges[i].setAttribute('class','edge');
    }
  }
}
]]></script>
        <defs>
                <circle id="rim" cx="0" cy="0" r="7"/>
                <circle id="rim2" cx="0" cy="0" r="3.5"/>
                <g id="zoomPlus">
                        <use xlink:href="#rim" fill="#404040">
                                <set attributeName="fill" to="#808080" begin="zoomplus.mouseover" end="zoomplus.mouseout"/>
                        </use>
                        <path d="M-4,0h8M0,-4v8" fill="none" stroke="white" stroke-width="1.5" pointer-events="none"/>
                </g>
                <g id="zoomMin">
                        <use xlink:href="#rim" fill="#404040">
                                <set attributeName="fill" to="#808080" begin="zoomminus.mouseover" end="zoomminus.mouseout"/>
                        </use>
                        <path d="M-4,0h8" fill="none" stroke="white" stroke-width="1.5" pointer-events="none"/>
                </g>
                <g id="dirArrow">
                        <path fill="none" stroke="white" stroke-width="1.5" d="M0,-3.0v7 M-2.5,-0.5L0,-3.0L2.5,-0.5"/>
                </g>
               <g id="resetDef">
                       <use xlink:href="#rim2" fill="#404040">
                               <set attributeName="fill" to="#808080" begin="reset.mouseover" end="reset.mouseout"/>
                       </use>
               </g>
        </defs>

<script type="text/javascript">
var viewWidth = 1187;
var viewHeight = 476;
var sectionId = 'dynsection-0';
</script>
<script xlink:href="svgpan.js"/>
<svg id="graph" class="graph">
<g id="viewport">
<title>libopenage/util/misc.cpp</title>
<polygon fill="white" stroke="none" points="-4,4 -4,-472.452 1183,-472.452 1183,4 -4,4"/>
<!-- Node0 -->
<g id="node1" class="node"><title>Node0</title>
<g id="a_node1"><a xlink:title=" ">
<polygon fill="#bfbfbf" stroke="black" points="215,-448.952 215,-467.952 337,-467.952 337,-448.952 215,-448.952"/>
<text text-anchor="middle" x="276" y="-455.952" font-family="Helvetica,sans-Serif" font-size="10.00">libopenage/util/misc.cpp</text>
</a>
</g>
</g>
<!-- Node1 -->
<g id="node2" class="node"><title>Node1</title>
<g id="a_node2"><a xlink:href="misc_8h.xhtml" target="_top" xlink:title=" ">
<polygon fill="white" stroke="black" points="253,-392.952 253,-411.952 299,-411.952 299,-392.952 253,-392.952"/>
<text text-anchor="middle" x="276" y="-399.952" font-family="Helvetica,sans-Serif" font-size="10.00">misc.h</text>
</a>
</g>
</g>
<!-- Node0&#45;&gt;Node1 -->
<g id="edge1" class="edge"><title>Node0&#45;&gt;Node1</title>
<path fill="none" stroke="midnightblue" d="M276,-448.535C276,-441.458 276,-431.313 276,-422.438"/>
<polygon fill="midnightblue" stroke="midnightblue" points="279.5,-422.203 276,-412.203 272.5,-422.203 279.5,-422.203"/>
</g>
<!-- Node2 -->
<g id="node3" class="node"><title>Node2</title>
<g id="a_node3"><a xlink:title=" ">
<polygon fill="white" stroke="#bfbfbf" points="0,-336.952 0,-355.952 56,-355.952 56,-336.952 0,-336.952"/>
<text text-anchor="middle" x="28" y="-343.952" font-family="Helvetica,sans-Serif" font-size="10.00">algorithm</text>
</a>
</g>
</g>
<!-- Node1&#45;&gt;Node2 -->
<g id="edge2" class="edge"><title>Node1&#45;&gt;Node2</title>
<path fill="none" stroke="midnightblue" d="M252.848,-396.739C215.634,-389.116 139.975,-373.419 66.1862,-356.675"/>
<polygon fill="midnightblue" stroke="midnightblue" points="66.7899,-353.223 56.2622,-354.414 65.2348,-360.048 66.7899,-353.223"/>
</g>
<!-- Node3 -->
<g id="node4" class="node"><title>Node3</title>
<g id="a_node4"><a xlink:title=" ">
<polygon fill="white" stroke="#bfbfbf" points="74,-336.952 74,-355.952 122,-355.952 122,-336.952 74,-336.952"/>
<text text-anchor="middle" x="98" y="-343.952" font-family="Helvetica,sans-Serif" font-size="10.00">limits.h</text>
</a>
</g>
</g>
<!-- Node1&#45;&gt;Node3 -->
<g id="edge3" class="edge"><title>Node1&#45;&gt;Node3</title>
<path fill="none" stroke="midnightblue" d="M252.73,-394.392C221.938,-385.051 167.431,-368.515 132.018,-357.772"/>
<polygon fill="midnightblue" stroke="midnightblue" points="132.716,-354.326 122.13,-354.772 130.684,-361.024 132.716,-354.326"/>
</g>
<!-- Node4 -->
<g id="node5" class="node"><title>Node4</title>
<g id="a_node5"><a xlink:title=" ">
<polygon fill="white" stroke="#bfbfbf" points="140,-336.952 140,-355.952 184,-355.952 184,-336.952 140,-336.952"/>
<text text-anchor="middle" x="162" y="-343.952" font-family="Helvetica,sans-Serif" font-size="10.00">cmath</text>
</a>
</g>
</g>
<!-- Node1&#45;&gt;Node4 -->
<g id="edge4" class="edge"><title>Node1&#45;&gt;Node4</title>
<path fill="none" stroke="midnightblue" d="M257.936,-392.895C239.425,-384.127 210.419,-370.387 189.145,-360.31"/>
<polygon fill="midnightblue" stroke="midnightblue" points="190.515,-357.086 179.979,-355.968 187.518,-363.412 190.515,-357.086"/>
</g>
<!-- Node5 -->
<g id="node6" class="node"><title>Node5</title>
<g id="a_node6"><a xlink:title=" ">
<polygon fill="white" stroke="#bfbfbf" points="202,-336.952 202,-355.952 248,-355.952 248,-336.952 202,-336.952"/>
<text text-anchor="middle" x="225" y="-343.952" font-family="Helvetica,sans-Serif" font-size="10.00">cstring</text>
</a>
</g>
</g>
<!-- Node1&#45;&gt;Node5 -->
<g id="edge5" class="edge"><title>Node1&#45;&gt;Node5</title>
<path fill="none" stroke="midnightblue" d="M267.578,-392.535C260.152,-384.671 249.148,-373.02 240.188,-363.533"/>
<polygon fill="midnightblue" stroke="midnightblue" points="242.676,-361.07 233.265,-356.203 237.587,-365.876 242.676,-361.07"/>
</g>
<!-- Node6 -->
<g id="node7" class="node"><title>Node6</title>
<g id="a_node7"><a xlink:title=" ">
<polygon fill="white" stroke="#bfbfbf" points="498.5,-0.951632 498.5,-19.9516 539.5,-19.9516 539.5,-0.951632 498.5,-0.951632"/>
<text text-anchor="middle" x="519" y="-7.95163" font-family="Helvetica,sans-Serif" font-size="10.00">string</text>
</a>
</g>
</g>
<!-- Node1&#45;&gt;Node6 -->
<g id="edge6" class="edge"><title>Node1&#45;&gt;Node6</title>
<path fill="none" stroke="midnightblue" d="M276,-392.894C276,-374.388 276,-329.264 276,-291.452 276,-291.452 276,-291.452 276,-121.452 276,-29.3318 422.726,-13.9567 488.151,-11.6799"/>
<polygon fill="midnightblue" stroke="midnightblue" points="488.379,-15.1752 498.282,-11.4104 488.192,-8.17765 488.379,-15.1752"/>
</g>
<!-- Node7 -->
<g id="node8" class="node"><title>Node7</title>
<g id="a_node8"><a xlink:title=" ">
<polygon fill="white" stroke="#bfbfbf" points="629,-112.952 629,-131.952 671,-131.952 671,-112.952 629,-112.952"/>
<text text-anchor="middle" x="650" y="-119.952" font-family="Helvetica,sans-Serif" font-size="10.00">vector</text>
</a>
</g>
</g>
<!-- Node1&#45;&gt;Node7 -->
<g id="edge7" class="edge"><title>Node1&#45;&gt;Node7</title>
<path fill="none" stroke="midnightblue" d="M279.711,-392.842C296.486,-354.319 366.258,-198.36 409,-168.452 484.357,-115.721 524.651,-151.592 618.879,-132.351"/>
<polygon fill="midnightblue" stroke="midnightblue" points="619.769,-135.739 628.781,-130.168 618.262,-128.903 619.769,-135.739"/>
</g>
<!-- Node8 -->
<g id="node9" class="node"><title>Node8</title>
<g id="a_node9"><a xlink:title=" ">
<polygon fill="white" stroke="#bfbfbf" points="1047,-112.952 1047,-131.952 1099,-131.952 1099,-112.952 1047,-112.952"/>
<text text-anchor="middle" x="1073" y="-119.952" font-family="Helvetica,sans-Serif" font-size="10.00">memory</text>
</a>
</g>
</g>
<!-- Node1&#45;&gt;Node8 -->
<g id="edge8" class="edge"><title>Node1&#45;&gt;Node8</title>
<path fill="none" stroke="midnightblue" d="M299.156,-400.511C360.797,-397.649 533.751,-387.267 674,-356.452 751.284,-339.471 768.85,-328.074 843,-300.452 941.389,-263.8 989.876,-273.819 1051,-188.452 1060.86,-174.679 1066.56,-156.153 1069.67,-142.404"/>
<polygon fill="midnightblue" stroke="midnightblue" points="1073.18,-142.678 1071.71,-132.186 1066.32,-141.306 1073.18,-142.678"/>
</g>
<!-- Node9 -->
<g id="node10" class="node"><title>Node9</title>
<g id="a_node10"><a xlink:href="error_2error_8h.xhtml" target="_top" xlink:title=" ">
<polygon fill="white" stroke="black" points="589,-336.952 589,-355.952 665,-355.952 665,-336.952 589,-336.952"/>
<text text-anchor="middle" x="627" y="-343.952" font-family="Helvetica,sans-Serif" font-size="10.00">../error/error.h</text>
</a>
</g>
</g>
<!-- Node1&#45;&gt;Node9 -->
<g id="edge9" class="edge"><title>Node1&#45;&gt;Node9</title>
<path fill="none" stroke="midnightblue" d="M299.03,-397.909C355.475,-389.225 501.681,-366.731 578.391,-354.93"/>
<polygon fill="midnightblue" stroke="midnightblue" points="579.386,-358.318 588.737,-353.338 578.321,-351.4 579.386,-358.318"/>
</g>
<!-- Node12 -->
<g id="node13" class="node"><title>Node12</title>
<g id="a_node13"><a xlink:href="compiler_8h.xhtml" target="_top" xlink:title=" ">
<polygon fill="white" stroke="black" points="1009,-56.9516 1009,-75.9516 1095,-75.9516 1095,-56.9516 1009,-56.9516"/>
<text text-anchor="middle" x="1052" y="-63.9516" font-family="Helvetica,sans-Serif" font-size="10.00">../util/compiler.h</text>
</a>
</g>
</g>
<!-- Node1&#45;&gt;Node12 -->
<g id="edge50" class="edge"><title>Node1&#45;&gt;Node12</title>
<path fill="none" stroke="midnightblue" d="M299.229,-401.133C440.569,-398.899 1179,-382.853 1179,-291.452 1179,-291.452 1179,-291.452 1179,-177.452 1179,-128.317 1124.01,-96.2175 1086.4,-80.0085"/>
<polygon fill="midnightblue" stroke="midnightblue" points="1087.37,-76.6202 1076.79,-76.043 1084.7,-83.0914 1087.37,-76.6202"/>
</g>
<!-- Node9&#45;&gt;Node6 -->
<g id="edge13" class="edge"><title>Node9&#45;&gt;Node6</title>
<path fill="none" stroke="midnightblue" d="M603.659,-336.846C566.529,-322.285 493.188,-289.874 444,-244.452 378.253,-183.738 358.756,-162.157 333,-76.4516 330.442,-67.9388 327.503,-63.4371 333,-56.4516 352.005,-32.2999 440.684,-19.554 488.406,-14.3421"/>
<polygon fill="midnightblue" stroke="midnightblue" points="488.902,-17.8095 498.483,-13.2872 488.173,-10.8475 488.902,-17.8095"/>
</g>
<!-- Node9&#45;&gt;Node8 -->
<g id="edge11" class="edge"><title>Node9&#45;&gt;Node8</title>
<path fill="none" stroke="midnightblue" d="M665.017,-337.045C726.013,-322.759 848.663,-290.723 945,-244.452 985.446,-225.025 997.161,-220.067 1029,-188.452 1043.16,-174.39 1055.52,-155.144 1063.5,-141.247"/>
<polygon fill="midnightblue" stroke="midnightblue" points="1066.72,-142.668 1068.51,-132.225 1060.6,-139.273 1066.72,-142.668"/>
</g>
<!-- Node10 -->
<g id="node11" class="node"><title>Node10</title>
<g id="a_node11"><a xlink:title=" ">
<polygon fill="white" stroke="#bfbfbf" points="342,-56.9516 342,-75.9516 396,-75.9516 396,-56.9516 342,-56.9516"/>
<text text-anchor="middle" x="369" y="-63.9516" font-family="Helvetica,sans-Serif" font-size="10.00">iostream</text>
</a>
</g>
</g>
<!-- Node9&#45;&gt;Node10 -->
<g id="edge10" class="edge"><title>Node9&#45;&gt;Node10</title>
<path fill="none" stroke="midnightblue" d="M603.22,-336.874C565.807,-322.456 492.478,-290.367 444,-244.452 401.72,-204.407 394.313,-187.731 376,-132.452 371.031,-117.452 369.396,-99.5433 368.939,-86.3256"/>
<polygon fill="midnightblue" stroke="midnightblue" points="372.435,-86.0551 368.786,-76.1087 365.436,-86.1601 372.435,-86.0551"/>
</g>
<!-- Node11 -->
<g id="node12" class="node"><title>Node11</title>
<g id="a_node12"><a xlink:title=" ">
<polygon fill="white" stroke="#bfbfbf" points="689.5,-280.952 689.5,-299.952 748.5,-299.952 748.5,-280.952 689.5,-280.952"/>
<text text-anchor="middle" x="719" y="-287.952" font-family="Helvetica,sans-Serif" font-size="10.00">stdexcept</text>
</a>
</g>
</g>
<!-- Node9&#45;&gt;Node11 -->
<g id="edge12" class="edge"><title>Node9&#45;&gt;Node11</title>
<path fill="none" stroke="midnightblue" d="M641.781,-336.776C656.267,-328.273 678.573,-315.18 695.493,-305.249"/>
<polygon fill="midnightblue" stroke="midnightblue" points="697.403,-308.187 704.255,-300.106 693.859,-302.15 697.403,-308.187"/>
</g>
<!-- Node9&#45;&gt;Node12 -->
<g id="edge14" class="edge"><title>Node9&#45;&gt;Node12</title>
<path fill="none" stroke="midnightblue" d="M665.217,-340.636C732.363,-330.879 874.223,-304.394 978,-244.452 1044.04,-206.307 1078.5,-202.78 1108,-132.452 1111.44,-124.255 1111.84,-120.467 1108,-112.452 1101.75,-99.4058 1089.66,-88.9437 1078.32,-81.4023"/>
<polygon fill="midnightblue" stroke="midnightblue" points="1079.85,-78.2386 1069.5,-75.9867 1076.19,-84.2032 1079.85,-78.2386"/>
</g>
<!-- Node15 -->
<g id="node16" class="node"><title>Node15</title>
<g id="a_node16"><a xlink:href="message_8h.xhtml" target="_top" xlink:title=" ">
<polygon fill="white" stroke="black" points="582.5,-280.952 582.5,-299.952 671.5,-299.952 671.5,-280.952 582.5,-280.952"/>
<text text-anchor="middle" x="627" y="-287.952" font-family="Helvetica,sans-Serif" font-size="10.00">../log/message.h</text>
</a>
</g>
</g>
<!-- Node9&#45;&gt;Node15 -->
<g id="edge19" class="edge"><title>Node9&#45;&gt;Node15</title>
<path fill="none" stroke="midnightblue" d="M627,-336.535C627,-329.458 627,-319.313 627,-310.438"/>
<polygon fill="midnightblue" stroke="midnightblue" points="630.5,-310.203 627,-300.203 623.5,-310.203 630.5,-310.203"/>
</g>
<!-- Node12&#45;&gt;Node6 -->
<g id="edge16" class="edge"><title>Node12&#45;&gt;Node6</title>
<path fill="none" stroke="midnightblue" d="M1008.78,-58.3376C1004.13,-57.6594 999.473,-57.0156 995,-56.4516 827.806,-35.3698 626.437,-19.4247 550.244,-13.7274"/>
<polygon fill="midnightblue" stroke="midnightblue" points="550.162,-10.2118 539.93,-12.9618 549.643,-17.1926 550.162,-10.2118"/>
</g>
<!-- Node13 -->
<g id="node14" class="node"><title>Node13</title>
<g id="a_node14"><a xlink:title=" ">
<polygon fill="white" stroke="#bfbfbf" points="1070,-0.951632 1070,-19.9516 1120,-19.9516 1120,-0.951632 1070,-0.951632"/>
<text text-anchor="middle" x="1095" y="-7.95163" font-family="Helvetica,sans-Serif" font-size="10.00">ciso646</text>
</a>
</g>
</g>
<!-- Node12&#45;&gt;Node13 -->
<g id="edge15" class="edge"><title>Node12&#45;&gt;Node13</title>
<path fill="none" stroke="midnightblue" d="M1059.1,-56.5346C1065.24,-48.8284 1074.27,-37.485 1081.74,-28.1047"/>
<polygon fill="midnightblue" stroke="midnightblue" points="1084.54,-30.2058 1088.03,-20.2027 1079.06,-25.8453 1084.54,-30.2058"/>
</g>
<!-- Node14 -->
<g id="node15" class="node"><title>Node14</title>
<g id="a_node15"><a xlink:href="signal_8h.xhtml" target="_top" xlink:title=" ">
<polygon fill="white" stroke="black" points="984,-0.951632 984,-19.9516 1034,-19.9516 1034,-0.951632 984,-0.951632"/>
<text text-anchor="middle" x="1009" y="-7.95163" font-family="Helvetica,sans-Serif" font-size="10.00">signal.h</text>
</a>
</g>
</g>
<!-- Node12&#45;&gt;Node14 -->
<g id="edge17" class="edge"><title>Node12&#45;&gt;Node14</title>
<path fill="none" stroke="midnightblue" d="M1044.9,-56.5346C1038.76,-48.8284 1029.73,-37.485 1022.26,-28.1047"/>
<polygon fill="midnightblue" stroke="midnightblue" points="1024.94,-25.8453 1015.97,-20.2027 1019.46,-30.2058 1024.94,-25.8453"/>
</g>
<!-- Node14&#45;&gt;Node14 -->
<g id="edge18" class="edge"><title>Node14&#45;&gt;Node14</title>
<path fill="none" stroke="midnightblue" d="M1027.56,-20.0262C1039.95,-22.7213 1052,-19.5298 1052,-10.4516 1052,-3.92673 1045.77,-0.442852 1037.67,-0"/>
<polygon fill="midnightblue" stroke="midnightblue" points="1037.22,3.47427 1027.56,-0.877047 1037.83,-3.49953 1037.22,3.47427"/>
</g>
<!-- Node15&#45;&gt;Node6 -->
<g id="edge21" class="edge"><title>Node15&#45;&gt;Node6</title>
<path fill="none" stroke="midnightblue" d="M632.205,-280.746C644.331,-259.216 671.489,-202.737 645,-168.452 606.247,-118.292 545.753,-182.611 507,-132.452 483.859,-102.5 499.02,-55.1492 510.182,-29.4634"/>
<polygon fill="midnightblue" stroke="midnightblue" points="513.452,-30.7296 514.457,-20.1826 507.094,-27.8008 513.452,-30.7296"/>
</g>
<!-- Node16 -->
<g id="node17" class="node"><title>Node16</title>
<g id="a_node17"><a xlink:title=" ">
<polygon fill="white" stroke="#bfbfbf" points="692,-224.952 692,-243.952 738,-243.952 738,-224.952 692,-224.952"/>
<text text-anchor="middle" x="715" y="-231.952" font-family="Helvetica,sans-Serif" font-size="10.00">cstdint</text>
</a>
</g>
</g>
<!-- Node15&#45;&gt;Node16 -->
<g id="edge20" class="edge"><title>Node15&#45;&gt;Node16</title>
<path fill="none" stroke="midnightblue" d="M641.139,-280.776C654.866,-272.352 675.936,-259.423 692.064,-249.526"/>
<polygon fill="midnightblue" stroke="midnightblue" points="694.204,-252.319 700.896,-244.106 690.543,-246.353 694.204,-252.319"/>
</g>
<!-- Node17 -->
<g id="node18" class="node"><title>Node17</title>
<g id="a_node18"><a xlink:title=" ">
<polygon fill="white" stroke="#bfbfbf" points="756,-224.952 756,-243.952 806,-243.952 806,-224.952 756,-224.952"/>
<text text-anchor="middle" x="781" y="-231.952" font-family="Helvetica,sans-Serif" font-size="10.00">config.h</text>
</a>
</g>
</g>
<!-- Node15&#45;&gt;Node17 -->
<g id="edge22" class="edge"><title>Node15&#45;&gt;Node17</title>
<path fill="none" stroke="midnightblue" d="M651.402,-280.895C677.197,-271.85 718.077,-257.516 747.018,-247.367"/>
<polygon fill="midnightblue" stroke="midnightblue" points="748.434,-250.58 756.712,-243.968 746.118,-243.974 748.434,-250.58"/>
</g>
<!-- Node18 -->
<g id="node19" class="node"><title>Node18</title>
<g id="a_node19"><a xlink:href="constexpr_8h.xhtml" target="_top" xlink:title=" ">
<polygon fill="white" stroke="black" points="544,-224.952 544,-243.952 636,-243.952 636,-224.952 544,-224.952"/>
<text text-anchor="middle" x="590" y="-231.952" font-family="Helvetica,sans-Serif" font-size="10.00">../util/constexpr.h</text>
</a>
</g>
</g>
<!-- Node15&#45;&gt;Node18 -->
<g id="edge23" class="edge"><title>Node15&#45;&gt;Node18</title>
<path fill="none" stroke="midnightblue" d="M620.89,-280.535C615.718,-272.986 608.154,-261.946 601.806,-252.681"/>
<polygon fill="midnightblue" stroke="midnightblue" points="604.536,-250.474 595.996,-244.203 598.761,-254.43 604.536,-250.474"/>
</g>
<!-- Node20 -->
<g id="node21" class="node"><title>Node20</title>
<g id="a_node21"><a xlink:href="stringformatter_8h.xhtml" target="_top" xlink:title=" ">
<polygon fill="white" stroke="black" points="824,-224.952 824,-243.952 936,-243.952 936,-224.952 824,-224.952"/>
<text text-anchor="middle" x="880" y="-231.952" font-family="Helvetica,sans-Serif" font-size="10.00">../util/stringformatter.h</text>
</a>
</g>
</g>
<!-- Node15&#45;&gt;Node20 -->
<g id="edge25" class="edge"><title>Node15&#45;&gt;Node20</title>
<path fill="none" stroke="midnightblue" d="M667.089,-280.895C711.316,-271.455 782.539,-256.254 830.285,-246.063"/>
<polygon fill="midnightblue" stroke="midnightblue" points="831.05,-249.478 840.099,-243.968 829.589,-242.633 831.05,-249.478"/>
</g>
<!-- Node29 -->
<g id="node30" class="node"><title>Node29</title>
<g id="a_node30"><a xlink:href="logsink_8h.xhtml" target="_top" xlink:title=" ">
<polygon fill="white" stroke="black" points="470,-224.952 470,-243.952 526,-243.952 526,-224.952 470,-224.952"/>
<text text-anchor="middle" x="498" y="-231.952" font-family="Helvetica,sans-Serif" font-size="10.00">logsink.h</text>
</a>
</g>
</g>
<!-- Node15&#45;&gt;Node29 -->
<g id="edge41" class="edge"><title>Node15&#45;&gt;Node29</title>
<path fill="none" stroke="midnightblue" d="M606.56,-280.895C585.33,-272.008 551.901,-258.015 527.745,-247.903"/>
<polygon fill="midnightblue" stroke="midnightblue" points="528.921,-244.601 518.345,-243.968 526.218,-251.058 528.921,-244.601"/>
</g>
<!-- Node32 -->
<g id="node33" class="node"><title>Node32</title>
<g id="a_node33"><a xlink:href="level_8h.xhtml" target="_top" xlink:title=" ">
<polygon fill="white" stroke="black" points="418,-168.952 418,-187.952 462,-187.952 462,-168.952 418,-168.952"/>
<text text-anchor="middle" x="440" y="-175.952" font-family="Helvetica,sans-Serif" font-size="10.00">level.h</text>
</a>
</g>
</g>
<!-- Node15&#45;&gt;Node32 -->
<g id="edge49" class="edge"><title>Node15&#45;&gt;Node32</title>
<path fill="none" stroke="midnightblue" d="M582.232,-288.622C545.181,-285.562 493.526,-275.46 461,-244.452 448.402,-232.442 443.347,-212.839 441.327,-198.296"/>
<polygon fill="midnightblue" stroke="midnightblue" points="444.769,-197.552 440.271,-187.96 437.805,-198.264 444.769,-197.552"/>
</g>
<!-- Node19 -->
<g id="node20" class="node"><title>Node19</title>
<g id="a_node20"><a xlink:title=" ">
<polygon fill="white" stroke="#bfbfbf" points="590.5,-168.952 590.5,-187.952 635.5,-187.952 635.5,-168.952 590.5,-168.952"/>
<text text-anchor="middle" x="613" y="-175.952" font-family="Helvetica,sans-Serif" font-size="10.00">cstdlib</text>
</a>
</g>
</g>
<!-- Node18&#45;&gt;Node19 -->
<g id="edge24" class="edge"><title>Node18&#45;&gt;Node19</title>
<path fill="none" stroke="midnightblue" d="M593.798,-224.535C596.913,-217.222 601.423,-206.633 605.289,-197.555"/>
<polygon fill="midnightblue" stroke="midnightblue" points="608.574,-198.774 609.273,-188.203 602.134,-196.031 608.574,-198.774"/>
</g>
<!-- Node20&#45;&gt;Node8 -->
<g id="edge27" class="edge"><title>Node20&#45;&gt;Node8</title>
<path fill="none" stroke="midnightblue" d="M914.263,-224.892C939.896,-217.57 975.175,-205.494 1003,-188.452 1024.75,-175.128 1045.64,-154.35 1058.84,-139.885"/>
<polygon fill="midnightblue" stroke="midnightblue" points="1061.65,-141.999 1065.68,-132.202 1056.42,-137.346 1061.65,-141.999"/>
</g>
<!-- Node20&#45;&gt;Node12 -->
<g id="edge29" class="edge"><title>Node20&#45;&gt;Node12</title>
<path fill="none" stroke="midnightblue" d="M905.342,-224.822C924.604,-217.363 950.947,-205.143 970,-188.452 1004.22,-158.47 1030.73,-111.131 1043.54,-85.4553"/>
<polygon fill="midnightblue" stroke="midnightblue" points="1046.83,-86.7032 1048.04,-76.1783 1040.53,-83.648 1046.83,-86.7032"/>
</g>
<!-- Node21 -->
<g id="node22" class="node"><title>Node21</title>
<g id="a_node22"><a xlink:title=" ">
<polygon fill="white" stroke="#bfbfbf" points="835,-168.952 835,-187.952 881,-187.952 881,-168.952 835,-168.952"/>
<text text-anchor="middle" x="858" y="-175.952" font-family="Helvetica,sans-Serif" font-size="10.00">atomic</text>
</a>
</g>
</g>
<!-- Node20&#45;&gt;Node21 -->
<g id="edge26" class="edge"><title>Node20&#45;&gt;Node21</title>
<path fill="none" stroke="midnightblue" d="M876.367,-224.535C873.388,-217.222 869.074,-206.633 865.375,-197.555"/>
<polygon fill="midnightblue" stroke="midnightblue" points="868.58,-196.143 861.565,-188.203 862.097,-198.784 868.58,-196.143"/>
</g>
<!-- Node22 -->
<g id="node23" class="node"><title>Node22</title>
<g id="a_node23"><a xlink:title=" ">
<polygon fill="white" stroke="#bfbfbf" points="899,-168.952 899,-187.952 961,-187.952 961,-168.952 899,-168.952"/>
<text text-anchor="middle" x="930" y="-175.952" font-family="Helvetica,sans-Serif" font-size="10.00">type_traits</text>
</a>
</g>
</g>
<!-- Node20&#45;&gt;Node22 -->
<g id="edge28" class="edge"><title>Node20&#45;&gt;Node22</title>
<path fill="none" stroke="midnightblue" d="M888.256,-224.535C895.465,-216.75 906.11,-205.253 914.846,-195.818"/>
<polygon fill="midnightblue" stroke="midnightblue" points="917.671,-197.918 921.897,-188.203 912.535,-193.162 917.671,-197.918"/>
</g>
<!-- Node23 -->
<g id="node24" class="node"><title>Node23</title>
<g id="a_node24"><a xlink:href="externalsstream_8h.xhtml" target="_top" xlink:title=" ">
<polygon fill="white" stroke="black" points="515.5,-112.952 515.5,-131.952 610.5,-131.952 610.5,-112.952 515.5,-112.952"/>
<text text-anchor="middle" x="563" y="-119.952" font-family="Helvetica,sans-Serif" font-size="10.00">externalsstream.h</text>
</a>
</g>
</g>
<!-- Node20&#45;&gt;Node23 -->
<g id="edge30" class="edge"><title>Node20&#45;&gt;Node23</title>
<path fill="none" stroke="midnightblue" d="M855.389,-224.912C799.328,-205.458 662.006,-157.807 597.515,-135.428"/>
<polygon fill="midnightblue" stroke="midnightblue" points="598.408,-132.034 587.814,-132.062 596.114,-138.647 598.408,-132.034"/>
</g>
<!-- Node24 -->
<g id="node25" class="node"><title>Node24</title>
<g id="a_node25"><a xlink:href="strings_8h.xhtml" target="_top" xlink:title=" ">
<polygon fill="white" stroke="black" points="763,-168.952 763,-187.952 817,-187.952 817,-168.952 763,-168.952"/>
<text text-anchor="middle" x="790" y="-175.952" font-family="Helvetica,sans-Serif" font-size="10.00">strings.h</text>
</a>
</g>
</g>
<!-- Node20&#45;&gt;Node24 -->
<g id="edge33" class="edge"><title>Node20&#45;&gt;Node24</title>
<path fill="none" stroke="midnightblue" d="M865.54,-224.776C851.5,-216.352 829.952,-203.423 813.457,-193.526"/>
<polygon fill="midnightblue" stroke="midnightblue" points="814.8,-190.25 804.424,-188.106 811.198,-196.252 814.8,-190.25"/>
</g>
<!-- Node23&#45;&gt;Node6 -->
<g id="edge32" class="edge"><title>Node23&#45;&gt;Node6</title>
<path fill="none" stroke="midnightblue" d="M559.547,-112.82C552.383,-94.9079 535.769,-53.3749 526.179,-29.3998"/>
<polygon fill="midnightblue" stroke="midnightblue" points="529.4,-28.0279 522.437,-20.0431 522.901,-30.6277 529.4,-28.0279"/>
</g>
<!-- Node23&#45;&gt;Node10 -->
<g id="edge31" class="edge"><title>Node23&#45;&gt;Node10</title>
<path fill="none" stroke="midnightblue" d="M532.26,-112.895C497.982,-103.354 442.556,-87.926 405.946,-77.7357"/>
<polygon fill="midnightblue" stroke="midnightblue" points="406.725,-74.3194 396.153,-75.0096 404.848,-81.0631 406.725,-74.3194"/>
</g>
<!-- Node24&#45;&gt;Node6 -->
<g id="edge39" class="edge"><title>Node24&#45;&gt;Node6</title>
<path fill="none" stroke="midnightblue" d="M817.039,-170.6C865.184,-158.369 960.871,-133.914 962,-132.452 967.432,-125.416 967.543,-119.401 962,-112.452 909.951,-47.2009 641.234,-20.811 549.631,-13.6223"/>
<polygon fill="midnightblue" stroke="midnightblue" points="549.845,-10.1285 539.608,-12.8575 549.312,-17.1082 549.845,-10.1285"/>
</g>
<!-- Node24&#45;&gt;Node7 -->
<g id="edge40" class="edge"><title>Node24&#45;&gt;Node7</title>
<path fill="none" stroke="midnightblue" d="M767.817,-168.895C744.298,-159.824 706.985,-145.432 680.662,-135.278"/>
<polygon fill="midnightblue" stroke="midnightblue" points="681.753,-131.948 671.163,-131.615 679.234,-138.479 681.753,-131.948"/>
</g>
<!-- Node24&#45;&gt;Node8 -->
<g id="edge37" class="edge"><title>Node24&#45;&gt;Node8</title>
<path fill="none" stroke="midnightblue" d="M817.083,-170.481C820.085,-169.768 823.103,-169.077 826,-168.452 900.625,-152.343 988.756,-137.213 1036.98,-129.262"/>
<polygon fill="midnightblue" stroke="midnightblue" points="1037.63,-132.703 1046.93,-127.63 1036.5,-125.795 1037.63,-132.703"/>
</g>
<!-- Node25 -->
<g id="node26" class="node"><title>Node25</title>
<g id="a_node26"><a xlink:title=" ">
<polygon fill="white" stroke="#bfbfbf" points="903.5,-112.952 903.5,-131.952 952.5,-131.952 952.5,-112.952 903.5,-112.952"/>
<text text-anchor="middle" x="928" y="-119.952" font-family="Helvetica,sans-Serif" font-size="10.00">cstdarg</text>
</a>
</g>
</g>
<!-- Node24&#45;&gt;Node25 -->
<g id="edge34" class="edge"><title>Node24&#45;&gt;Node25</title>
<path fill="none" stroke="midnightblue" d="M811.867,-168.895C834.779,-159.929 870.975,-145.766 896.866,-135.634"/>
<polygon fill="midnightblue" stroke="midnightblue" points="898.199,-138.871 906.236,-131.968 895.648,-132.353 898.199,-138.871"/>
</g>
<!-- Node26 -->
<g id="node27" class="node"><title>Node26</title>
<g id="a_node27"><a xlink:title=" ">
<polygon fill="white" stroke="#bfbfbf" points="689,-112.952 689,-131.952 747,-131.952 747,-112.952 689,-112.952"/>
<text text-anchor="middle" x="718" y="-119.952" font-family="Helvetica,sans-Serif" font-size="10.00">functional</text>
</a>
</g>
</g>
<!-- Node24&#45;&gt;Node26 -->
<g id="edge35" class="edge"><title>Node24&#45;&gt;Node26</title>
<path fill="none" stroke="midnightblue" d="M778.432,-168.776C767.58,-160.636 751.119,-148.291 738.117,-138.539"/>
<polygon fill="midnightblue" stroke="midnightblue" points="739.879,-135.486 729.779,-132.286 735.679,-141.086 739.879,-135.486"/>
</g>
<!-- Node27 -->
<g id="node28" class="node"><title>Node27</title>
<g id="a_node28"><a xlink:title=" ">
<polygon fill="white" stroke="#bfbfbf" points="765,-112.952 765,-131.952 815,-131.952 815,-112.952 765,-112.952"/>
<text text-anchor="middle" x="790" y="-119.952" font-family="Helvetica,sans-Serif" font-size="10.00">iomanip</text>
</a>
</g>
</g>
<!-- Node24&#45;&gt;Node27 -->
<g id="edge36" class="edge"><title>Node24&#45;&gt;Node27</title>
<path fill="none" stroke="midnightblue" d="M790,-168.535C790,-161.458 790,-151.313 790,-142.438"/>
<polygon fill="midnightblue" stroke="midnightblue" points="793.5,-142.203 790,-132.203 786.5,-142.203 793.5,-142.203"/>
</g>
<!-- Node28 -->
<g id="node29" class="node"><title>Node28</title>
<g id="a_node29"><a xlink:title=" ">
<polygon fill="white" stroke="#bfbfbf" points="833,-112.952 833,-131.952 885,-131.952 885,-112.952 833,-112.952"/>
<text text-anchor="middle" x="859" y="-119.952" font-family="Helvetica,sans-Serif" font-size="10.00">sstream</text>
</a>
</g>
</g>
<!-- Node24&#45;&gt;Node28 -->
<g id="edge38" class="edge"><title>Node24&#45;&gt;Node28</title>
<path fill="none" stroke="midnightblue" d="M801.086,-168.776C811.486,-160.636 827.261,-148.291 839.722,-138.539"/>
<polygon fill="midnightblue" stroke="midnightblue" points="841.994,-141.205 847.712,-132.286 837.68,-135.692 841.994,-141.205"/>
</g>
<!-- Node30 -->
<g id="node31" class="node"><title>Node30</title>
<g id="a_node31"><a xlink:title=" ">
<polygon fill="white" stroke="#bfbfbf" points="480.5,-168.952 480.5,-187.952 509.5,-187.952 509.5,-168.952 480.5,-168.952"/>
<text text-anchor="middle" x="495" y="-175.952" font-family="Helvetica,sans-Serif" font-size="10.00">list</text>
</a>
</g>
</g>
<!-- Node29&#45;&gt;Node30 -->
<g id="edge42" class="edge"><title>Node29&#45;&gt;Node30</title>
<path fill="none" stroke="midnightblue" d="M497.505,-224.535C497.111,-217.458 496.548,-207.313 496.055,-198.438"/>
<polygon fill="midnightblue" stroke="midnightblue" points="499.536,-197.993 495.486,-188.203 492.546,-198.381 499.536,-197.993"/>
</g>
<!-- Node31 -->
<g id="node32" class="node"><title>Node31</title>
<g id="a_node32"><a xlink:title=" ">
<polygon fill="white" stroke="#bfbfbf" points="528,-168.952 528,-187.952 572,-187.952 572,-168.952 528,-168.952"/>
<text text-anchor="middle" x="550" y="-175.952" font-family="Helvetica,sans-Serif" font-size="10.00">mutex</text>
</a>
</g>
</g>
<!-- Node29&#45;&gt;Node31 -->
<g id="edge43" class="edge"><title>Node29&#45;&gt;Node31</title>
<path fill="none" stroke="midnightblue" d="M506.587,-224.535C514.159,-216.671 525.378,-205.02 534.514,-195.533"/>
<polygon fill="midnightblue" stroke="midnightblue" points="537.158,-197.834 541.573,-188.203 532.115,-192.978 537.158,-197.834"/>
</g>
<!-- Node29&#45;&gt;Node32 -->
<g id="edge44" class="edge"><title>Node29&#45;&gt;Node32</title>
<path fill="none" stroke="midnightblue" d="M488.681,-224.776C480.107,-216.793 467.188,-204.764 456.812,-195.105"/>
<polygon fill="midnightblue" stroke="midnightblue" points="459.192,-192.538 449.488,-188.286 454.422,-197.661 459.192,-192.538"/>
</g>
<!-- Node33 -->
<g id="node34" class="node"><title>Node33</title>
<g id="a_node34"><a xlink:href="enum_8h.xhtml" target="_top" xlink:title=" ">
<polygon fill="white" stroke="black" points="385,-112.952 385,-131.952 459,-131.952 459,-112.952 385,-112.952"/>
<text text-anchor="middle" x="422" y="-119.952" font-family="Helvetica,sans-Serif" font-size="10.00">../util/enum.h</text>
</a>
</g>
</g>
<!-- Node32&#45;&gt;Node33 -->
<g id="edge45" class="edge"><title>Node32&#45;&gt;Node33</title>
<path fill="none" stroke="midnightblue" d="M437.028,-168.535C434.616,-161.3 431.136,-150.86 428.132,-141.848"/>
<polygon fill="midnightblue" stroke="midnightblue" points="431.4,-140.583 424.917,-132.203 424.759,-142.796 431.4,-140.583"/>
</g>
<!-- Node33&#45;&gt;Node10 -->
<g id="edge46" class="edge"><title>Node33&#45;&gt;Node10</title>
<path fill="none" stroke="midnightblue" d="M413.248,-112.535C405.53,-104.671 394.095,-93.0205 384.783,-83.5329"/>
<polygon fill="midnightblue" stroke="midnightblue" points="387.092,-80.8879 377.589,-76.2027 382.096,-85.7912 387.092,-80.8879"/>
</g>
<!-- Node33&#45;&gt;Node12 -->
<g id="edge48" class="edge"><title>Node33&#45;&gt;Node12</title>
<path fill="none" stroke="midnightblue" d="M459.219,-117.323C474.075,-115.724 491.34,-113.927 507,-112.452 687.117,-95.4823 901.06,-78.8423 998.673,-71.4436"/>
<polygon fill="midnightblue" stroke="midnightblue" points="999.166,-74.9164 1008.87,-70.672 998.638,-67.9364 999.166,-74.9164"/>
</g>
<!-- Node34 -->
<g id="node35" class="node"><title>Node34</title>
<g id="a_node35"><a xlink:title=" ">
<polygon fill="white" stroke="#bfbfbf" points="414,-56.9516 414,-75.9516 464,-75.9516 464,-56.9516 414,-56.9516"/>
<text text-anchor="middle" x="439" y="-63.9516" font-family="Helvetica,sans-Serif" font-size="10.00">typeinfo</text>
</a>
</g>
</g>
<!-- Node33&#45;&gt;Node34 -->
<g id="edge47" class="edge"><title>Node33&#45;&gt;Node34</title>
<path fill="none" stroke="midnightblue" d="M424.807,-112.535C427.085,-105.3 430.371,-94.8603 433.208,-85.8484"/>
<polygon fill="midnightblue" stroke="midnightblue" points="436.581,-86.7922 436.245,-76.2027 429.904,-84.6902 436.581,-86.7922"/>
</g>
</g>
</svg>
        <g id="navigator" transform="translate(0 0)" fill="#404254">
                <rect fill="#f2f5e9" fill-opacity="0.5" stroke="#606060" stroke-width=".5" x="0" y="0" width="60" height="60"/>
                <use id="zoomplus" xlink:href="#zoomPlus" x="17" y="9" onmousedown="handleZoom(evt,'in')"/>
                <use id="zoomminus" xlink:href="#zoomMin" x="42" y="9" onmousedown="handleZoom(evt,'out')"/>
                <use id="reset" xlink:href="#resetDef" x="30" y="36" onmousedown="handleReset()"/>
                <g id="arrowUp" xlink:href="#dirArrow" transform="translate(30 24)" onmousedown="handlePan(0,-1)">
                  <use xlink:href="#rim" fill="#404040">
                        <set attributeName="fill" to="#808080" begin="arrowUp.mouseover" end="arrowUp.mouseout"/>
                  </use>
                  <path fill="none" stroke="white" stroke-width="1.5" d="M0,-3.0v7 M-2.5,-0.5L0,-3.0L2.5,-0.5"/>
                </g>
                <g id="arrowRight" xlink:href="#dirArrow" transform="rotate(90) translate(36 -43)" onmousedown="handlePan(1,0)">
                  <use xlink:href="#rim" fill="#404040">
                        <set attributeName="fill" to="#808080" begin="arrowRight.mouseover" end="arrowRight.mouseout"/>
                  </use>
                  <path fill="none" stroke="white" stroke-width="1.5" d="M0,-3.0v7 M-2.5,-0.5L0,-3.0L2.5,-0.5"/>
                </g>
                <g id="arrowDown" xlink:href="#dirArrow" transform="rotate(180) translate(-30 -48)" onmousedown="handlePan(0,1)">
                  <use xlink:href="#rim" fill="#404040">
                        <set attributeName="fill" to="#808080" begin="arrowDown.mouseover" end="arrowDown.mouseout"/>
                  </use>
                  <path fill="none" stroke="white" stroke-width="1.5" d="M0,-3.0v7 M-2.5,-0.5L0,-3.0L2.5,-0.5"/>
                </g>
                <g id="arrowLeft" xlink:href="#dirArrow" transform="rotate(270) translate(-36 17)" onmousedown="handlePan(-1,0)">
                  <use xlink:href="#rim" fill="#404040">
                        <set attributeName="fill" to="#808080" begin="arrowLeft.mouseover" end="arrowLeft.mouseout"/>
                  </use>
                  <path fill="none" stroke="white" stroke-width="1.5" d="M0,-3.0v7 M-2.5,-0.5L0,-3.0L2.5,-0.5"/>
                </g>
        </g>
        <svg viewBox="0 0 15 15" width="100%" height="30px" preserveAspectRatio="xMaxYMin meet">
         <g id="arrow_out" transform="scale(0.3 0.3)">
          <a xlink:href="misc_8cpp__incl_org.svg" target="_base">
           <rect id="button" ry="5" rx="5" y="6" x="6" height="38" width="38"
                fill="#f2f5e9" fill-opacity="0.5" stroke="#606060" stroke-width="1.0"/>
           <path id="arrow"
             d="M 11.500037,31.436501 C 11.940474,20.09759 22.043105,11.32322 32.158766,21.979434 L 37.068811,17.246167 C 37.068811,17.246167 37.088388,32 37.088388,32 L 22.160133,31.978069 C 22.160133,31.978069 26.997745,27.140456 26.997745,27.140456 C 18.528582,18.264221 13.291696,25.230495 11.500037,31.436501 z"
             style="fill:#404040;"/>
          </a>
         </g>
        </svg>
</svg>
