<?xml version="1.0" encoding="UTF-8" standalone="no"?>
<!DOCTYPE svg PUBLIC "-//W3C//DTD SVG 1.1//EN"
 "http://www.w3.org/Graphics/SVG/1.1/DTD/svg11.dtd">
<!-- Generated by graphviz version 2.38.0 (20140413.2041)
 -->
<!-- Title: openage.util.strings.lstrip_once Pages: 1 -->
<svg width="472pt" height="28pt"
 viewBox="0.00 0.00 472.00 28.00" xmlns="http://www.w3.org/2000/svg" xmlns:xlink="http://www.w3.org/1999/xlink">
<g id="graph0" class="graph" transform="scale(1 1) rotate(0) translate(4 24)">
<title>openage.util.strings.lstrip_once</title>
<polygon fill="white" stroke="none" points="-4,4 -4,-24 468,-24 468,4 -4,4"/>
<!-- Node20 -->
<g id="node1" class="node"><title>Node20</title>
<g id="a_node1"><a xlink:title="Removes substr at the start of string, and raises ValueError on failure.">
<polygon fill="#bfbfbf" stroke="black" points="0,-0.5 0,-19.5 152,-19.5 152,-0.5 0,-0.5"/>
<text text-anchor="middle" x="76" y="-7.5" font-family="Helvetica,sans-Serif" font-size="10.00">openage.util.strings.lstrip_once</text>
</a>
</g>
</g>
<!-- Node21 -->
<g id="node2" class="node"><title>Node21</title>
<g id="a_node2"><a xlink:href="namespaceopenage_1_1util.xhtml#a7bc4421a5f0f57f3a0aba3f96eb8d19c" target="_top" xlink:title=" ">
<polygon fill="white" stroke="black" points="188,-0.5 188,-19.5 283,-19.5 283,-0.5 188,-0.5"/>
<text text-anchor="middle" x="235.5" y="-7.5" font-family="Helvetica,sans-Serif" font-size="10.00">openage::util::repr</text>
</a>
</g>
</g>
<!-- Node20&#45;&gt;Node21 -->
<g id="edge1" class="edge"><title>Node20&#45;&gt;Node21</title>
<path fill="none" stroke="midnightblue" d="M152.06,-10C160.734,-10 169.469,-10 177.84,-10"/>
<polygon fill="midnightblue" stroke="midnightblue" points="177.844,-13.5001 187.844,-10 177.844,-6.5001 177.844,-13.5001"/>
</g>
<!-- Node22 -->
<g id="node3" class="node"><title>Node22</title>
<g id="a_node3"><a xlink:href="namespaceopenage_1_1testing_1_1testing.xhtml#ac25bf81db406af62d08113ef7ae9fd6e" target="_top" xlink:title=" ">
<polygon fill="white" stroke="black" points="319,-0.5 319,-19.5 464,-19.5 464,-0.5 319,-0.5"/>
<text text-anchor="middle" x="391.5" y="-7.5" font-family="Helvetica,sans-Serif" font-size="10.00">openage.testing.testing.result</text>
</a>
</g>
</g>
<!-- Node21&#45;&gt;Node22 -->
<g id="edge2" class="edge"><title>Node21&#45;&gt;Node22</title>
<path fill="none" stroke="midnightblue" d="M283.123,-3.74037C291.204,-3.46585 299.816,-3.30659 308.514,-3.26259"/>
<polygon fill="midnightblue" stroke="midnightblue" points="308.736,-6.76252 318.737,-3.2639 308.737,0.237475 308.736,-6.76252"/>
</g>
<!-- Node22&#45;&gt;Node21 -->
<g id="edge3" class="edge"><title>Node22&#45;&gt;Node21</title>
<path fill="none" stroke="midnightblue" d="M318.737,-16.7361C310.23,-16.7813 301.637,-16.7162 293.377,-16.5408"/>
<polygon fill="midnightblue" stroke="midnightblue" points="293.215,-13.0352 283.123,-16.2596 293.023,-20.0325 293.215,-13.0352"/>
</g>
</g>
</svg>
