<?xml version="1.0" encoding="UTF-8" standalone="no"?>
<!DOCTYPE svg PUBLIC "-//W3C//DTD SVG 1.1//EN"
 "http://www.w3.org/Graphics/SVG/1.1/DTD/svg11.dtd">
<!-- Generated by graphviz version 2.38.0 (20140413.2041)
 -->
<!-- Title: std::sqrt Pages: 1 -->
<svg width="689pt" height="372pt"
 viewBox="0.00 0.00 689.00 372.00" xmlns="http://www.w3.org/2000/svg" xmlns:xlink="http://www.w3.org/1999/xlink">
<g id="graph0" class="graph" transform="scale(1 1) rotate(0) translate(4 368)">
<title>std::sqrt</title>
<polygon fill="white" stroke="none" points="-4,4 -4,-368 685,-368 685,4 -4,4"/>
<!-- Node120 -->
<g id="node1" class="node"><title>Node120</title>
<g id="a_node1"><a xlink:title=" ">
<polygon fill="#bfbfbf" stroke="black" points="628,-175 628,-194 681,-194 681,-175 628,-175"/>
<text text-anchor="middle" x="654.5" y="-182" font-family="Helvetica,sans-Serif" font-size="10.00">std::sqrt</text>
</a>
</g>
</g>
<!-- Node121 -->
<g id="node2" class="node"><title>Node121</title>
<g id="a_node2"><a xlink:href="classopenage_1_1_terrain.xhtml#a72f81eb7623d4ade8272f8163bfcb4d9" target="_top" xlink:title="calculate blending masks for a given tile position.">
<polygon fill="white" stroke="black" points="458,-333.5 458,-363.5 592,-363.5 592,-333.5 458,-333.5"/>
<text text-anchor="start" x="466" y="-351.5" font-family="Helvetica,sans-Serif" font-size="10.00">openage::Terrain::calculate</text>
<text text-anchor="middle" x="525" y="-340.5" font-family="Helvetica,sans-Serif" font-size="10.00">_masks</text>
</a>
</g>
</g>
<!-- Node120&#45;&gt;Node121 -->
<g id="edge1" class="edge"><title>Node120&#45;&gt;Node121</title>
<path fill="none" stroke="midnightblue" d="M649.963,-204.222C643.586,-234.227 627.388,-291.345 592,-324.5 588.352,-327.918 584.18,-330.856 579.744,-333.382"/>
<polygon fill="midnightblue" stroke="midnightblue" points="653.447,-204.645 651.945,-194.157 646.579,-203.292 653.447,-204.645"/>
</g>
<!-- Node122 -->
<g id="node3" class="node"><title>Node122</title>
<g id="a_node3"><a xlink:href="classopenage_1_1_terrain.xhtml#a16e91ba2a775715dc81088e47e508786" target="_top" xlink:title="create rendering and blending information for a single tile on the terrain.">
<polygon fill="white" stroke="black" points="464,-284.5 464,-314.5 586,-314.5 586,-284.5 464,-284.5"/>
<text text-anchor="start" x="472" y="-302.5" font-family="Helvetica,sans-Serif" font-size="10.00">openage::Terrain::create</text>
<text text-anchor="middle" x="525" y="-291.5" font-family="Helvetica,sans-Serif" font-size="10.00">_tile_advice</text>
</a>
</g>
</g>
<!-- Node120&#45;&gt;Node122 -->
<g id="edge2" class="edge"><title>Node120&#45;&gt;Node122</title>
<path fill="none" stroke="midnightblue" d="M645.133,-203.445C635.206,-223.895 616.82,-256.132 592,-275.5 587.674,-278.875 582.83,-281.806 577.784,-284.343"/>
<polygon fill="midnightblue" stroke="midnightblue" points="648.386,-204.751 649.431,-194.208 642.039,-201.798 648.386,-204.751"/>
</g>
<!-- Node123 -->
<g id="node4" class="node"><title>Node123</title>
<g id="a_node4"><a xlink:href="namespaceopenage_1_1util_1_1tests.xhtml#a66cf54ea365e3f8f1357577ddaa1adfb" target="_top" xlink:title=" ">
<polygon fill="white" stroke="black" points="475,-235.5 475,-265.5 575,-265.5 575,-235.5 475,-235.5"/>
<text text-anchor="start" x="483" y="-253.5" font-family="Helvetica,sans-Serif" font-size="10.00">openage::util::tests</text>
<text text-anchor="middle" x="525" y="-242.5" font-family="Helvetica,sans-Serif" font-size="10.00">::fixed_point</text>
</a>
</g>
</g>
<!-- Node120&#45;&gt;Node123 -->
<g id="edge3" class="edge"><title>Node120&#45;&gt;Node123</title>
<path fill="none" stroke="midnightblue" d="M632.683,-200.094C621.096,-208.326 606.186,-218.204 592,-225.5 585.027,-229.087 577.415,-232.443 569.92,-235.459"/>
<polygon fill="midnightblue" stroke="midnightblue" points="634.785,-202.892 640.828,-194.189 630.677,-197.225 634.785,-202.892"/>
</g>
<!-- Node124 -->
<g id="node5" class="node"><title>Node124</title>
<g id="a_node5"><a xlink:href="namespaceopenage_1_1math.xhtml#a29c55215e73408c49f2654261fd73d8e" target="_top" xlink:title=" ">
<polygon fill="white" stroke="black" points="467,-197 467,-216 583,-216 583,-197 467,-197"/>
<text text-anchor="middle" x="525" y="-204" font-family="Helvetica,sans-Serif" font-size="10.00">openage::math::hypot3</text>
</a>
</g>
</g>
<!-- Node120&#45;&gt;Node124 -->
<g id="edge4" class="edge"><title>Node120&#45;&gt;Node124</title>
<path fill="none" stroke="midnightblue" d="M617.761,-190.667C606.429,-192.622 593.623,-194.832 581.251,-196.966"/>
<polygon fill="midnightblue" stroke="midnightblue" points="618.439,-194.102 627.698,-188.952 617.249,-187.203 618.439,-194.102"/>
</g>
<!-- Node128 -->
<g id="node9" class="node"><title>Node128</title>
<g id="a_node9"><a xlink:href="classopenage_1_1util_1_1_vector.xhtml#a5b3b46a13e28d59eaefacf1549269f9b" target="_top" xlink:title="Euclidian norm aka length.">
<polygon fill="white" stroke="black" points="471.5,-147.5 471.5,-177.5 578.5,-177.5 578.5,-147.5 471.5,-147.5"/>
<text text-anchor="start" x="479.5" y="-165.5" font-family="Helvetica,sans-Serif" font-size="10.00">openage::util::Vector</text>
<text text-anchor="middle" x="525" y="-154.5" font-family="Helvetica,sans-Serif" font-size="10.00">::norm</text>
</a>
</g>
</g>
<!-- Node120&#45;&gt;Node128 -->
<g id="edge8" class="edge"><title>Node120&#45;&gt;Node128</title>
<path fill="none" stroke="midnightblue" d="M617.561,-178.299C605.472,-176.213 591.725,-173.841 578.624,-171.58"/>
<polygon fill="midnightblue" stroke="midnightblue" points="617.249,-181.797 627.698,-180.048 618.439,-174.898 617.249,-181.797"/>
</g>
<!-- Node130 -->
<g id="node11" class="node"><title>Node130</title>
<g id="a_node11"><a xlink:href="classopenage_1_1util_1_1_quaternion.xhtml#a82f95e1d240ee7f39982060a17fe37ec" target="_top" xlink:title="Calculate the length of the quaternion.">
<polygon fill="white" stroke="black" points="462.5,-98.5 462.5,-128.5 587.5,-128.5 587.5,-98.5 462.5,-98.5"/>
<text text-anchor="start" x="470.5" y="-116.5" font-family="Helvetica,sans-Serif" font-size="10.00">openage::util::Quaternion</text>
<text text-anchor="middle" x="525" y="-105.5" font-family="Helvetica,sans-Serif" font-size="10.00">::norm</text>
</a>
</g>
</g>
<!-- Node120&#45;&gt;Node130 -->
<g id="edge10" class="edge"><title>Node120&#45;&gt;Node130</title>
<path fill="none" stroke="midnightblue" d="M634.609,-168.181C622.902,-158.639 607.236,-146.866 592,-138.5 585.341,-134.844 578.036,-131.492 570.789,-128.512"/>
<polygon fill="midnightblue" stroke="midnightblue" points="632.45,-170.938 642.372,-174.654 636.933,-165.561 632.45,-170.938"/>
</g>
<!-- Node134 -->
<g id="node15" class="node"><title>Node134</title>
<g id="a_node15"><a xlink:href="classopenage_1_1util_1_1_quaternion.xhtml#aa16fe3c08c498d69f102951ae67fc4ca" target="_top" xlink:title="Constructs a quaternion from a rotation matrix.">
<polygon fill="white" stroke="black" points="462.5,-49.5 462.5,-79.5 587.5,-79.5 587.5,-49.5 462.5,-49.5"/>
<text text-anchor="start" x="470.5" y="-67.5" font-family="Helvetica,sans-Serif" font-size="10.00">openage::util::Quaternion</text>
<text text-anchor="middle" x="525" y="-56.5" font-family="Helvetica,sans-Serif" font-size="10.00">::Quaternion</text>
</a>
</g>
</g>
<!-- Node120&#45;&gt;Node134 -->
<g id="edge14" class="edge"><title>Node120&#45;&gt;Node134</title>
<path fill="none" stroke="midnightblue" d="M645.726,-165.731C636.05,-144.495 617.618,-110.182 592,-89.5 587.233,-85.6517 581.811,-82.3529 576.17,-79.5359"/>
<polygon fill="midnightblue" stroke="midnightblue" points="642.559,-167.223 649.766,-174.988 648.974,-164.423 642.559,-167.223"/>
</g>
<!-- Node135 -->
<g id="node16" class="node"><title>Node135</title>
<g id="a_node16"><a xlink:href="classopenage_1_1util_1_1_fixed_point.xhtml#ae963a0d669b00ec8a65da1bf0041172a" target="_top" xlink:title=" ">
<polygon fill="white" stroke="black" points="462.5,-0.5 462.5,-30.5 587.5,-30.5 587.5,-0.5 462.5,-0.5"/>
<text text-anchor="start" x="470.5" y="-18.5" font-family="Helvetica,sans-Serif" font-size="10.00">openage::util::FixedPoint</text>
<text text-anchor="middle" x="525" y="-7.5" font-family="Helvetica,sans-Serif" font-size="10.00">&lt; int64_t, 16 &gt;::sqrt</text>
</a>
</g>
</g>
<!-- Node120&#45;&gt;Node135 -->
<g id="edge15" class="edge"><title>Node120&#45;&gt;Node135</title>
<path fill="none" stroke="midnightblue" d="M650.338,-164.942C644.362,-134.122 628.568,-74.201 592,-39.5 588.374,-36.059 584.216,-33.1046 579.791,-30.5692"/>
<polygon fill="midnightblue" stroke="midnightblue" points="646.909,-165.652 652.116,-174.879 653.8,-164.419 646.909,-165.652"/>
</g>
<!-- Node125 -->
<g id="node6" class="node"><title>Node125</title>
<g id="a_node6"><a xlink:href="classopenage_1_1_unit_texture.xhtml#ae0fe182788f2f7b1f346abf32cbac39a" target="_top" xlink:title="draw object with direction">
<polygon fill="white" stroke="black" points="305,-242.5 305,-272.5 414,-272.5 414,-242.5 305,-242.5"/>
<text text-anchor="start" x="313" y="-260.5" font-family="Helvetica,sans-Serif" font-size="10.00">openage::UnitTexture</text>
<text text-anchor="middle" x="359.5" y="-249.5" font-family="Helvetica,sans-Serif" font-size="10.00">::draw</text>
</a>
</g>
</g>
<!-- Node124&#45;&gt;Node125 -->
<g id="edge5" class="edge"><title>Node124&#45;&gt;Node125</title>
<path fill="none" stroke="midnightblue" d="M482.415,-219.007C474.312,-221.471 465.885,-224.052 458,-226.5 441.546,-231.609 423.562,-237.297 407.571,-242.391"/>
<polygon fill="midnightblue" stroke="midnightblue" points="483.528,-222.328 492.082,-216.077 481.497,-215.629 483.528,-222.328"/>
</g>
<!-- Node126 -->
<g id="node7" class="node"><title>Node126</title>
<g id="a_node7"><a xlink:href="structopenage_1_1coord_1_1phys3__delta.xhtml#af63b7f5b841ffab9004b2ffd3550ab9e" target="_top" xlink:title=" ">
<polygon fill="white" stroke="black" points="301.5,-193.5 301.5,-223.5 417.5,-223.5 417.5,-193.5 301.5,-193.5"/>
<text text-anchor="start" x="309.5" y="-211.5" font-family="Helvetica,sans-Serif" font-size="10.00">openage::coord::phys3</text>
<text text-anchor="middle" x="359.5" y="-200.5" font-family="Helvetica,sans-Serif" font-size="10.00">_delta::length</text>
</a>
</g>
</g>
<!-- Node124&#45;&gt;Node126 -->
<g id="edge6" class="edge"><title>Node124&#45;&gt;Node126</title>
<path fill="none" stroke="midnightblue" d="M456.577,-207.325C443.646,-207.483 430.221,-207.647 417.652,-207.801"/>
<polygon fill="midnightblue" stroke="midnightblue" points="456.859,-210.822 466.816,-207.2 456.774,-203.822 456.859,-210.822"/>
</g>
<!-- Node127 -->
<g id="node8" class="node"><title>Node127</title>
<g id="a_node8"><a xlink:href="structopenage_1_1coord_1_1phys3__delta.xhtml#a42b05574ff3cf1e1f25ddc4586060a0f" target="_top" xlink:title=" ">
<polygon fill="white" stroke="black" points="140.5,-193.5 140.5,-223.5 256.5,-223.5 256.5,-193.5 140.5,-193.5"/>
<text text-anchor="start" x="148.5" y="-211.5" font-family="Helvetica,sans-Serif" font-size="10.00">openage::coord::phys3</text>
<text text-anchor="middle" x="198.5" y="-200.5" font-family="Helvetica,sans-Serif" font-size="10.00">_delta::normalize</text>
</a>
</g>
</g>
<!-- Node126&#45;&gt;Node127 -->
<g id="edge7" class="edge"><title>Node126&#45;&gt;Node127</title>
<path fill="none" stroke="midnightblue" d="M290.755,-208.5C279.362,-208.5 267.639,-208.5 256.552,-208.5"/>
<polygon fill="midnightblue" stroke="midnightblue" points="291.097,-212 301.097,-208.5 291.097,-205 291.097,-212"/>
</g>
<!-- Node129 -->
<g id="node10" class="node"><title>Node129</title>
<g id="a_node10"><a xlink:href="classopenage_1_1util_1_1_vector.xhtml#aae6e40b885d6cdf296bd2568bd2b5e49" target="_top" xlink:title="Scales the Vector so that its norm is 1.">
<polygon fill="white" stroke="black" points="306,-144.5 306,-174.5 413,-174.5 413,-144.5 306,-144.5"/>
<text text-anchor="start" x="314" y="-162.5" font-family="Helvetica,sans-Serif" font-size="10.00">openage::util::Vector</text>
<text text-anchor="middle" x="359.5" y="-151.5" font-family="Helvetica,sans-Serif" font-size="10.00">::normalize</text>
</a>
</g>
</g>
<!-- Node128&#45;&gt;Node129 -->
<g id="edge9" class="edge"><title>Node128&#45;&gt;Node129</title>
<path fill="none" stroke="midnightblue" d="M461.104,-161.346C445.225,-161.055 428.343,-160.745 413.034,-160.464"/>
<polygon fill="midnightblue" stroke="midnightblue" points="461.305,-164.85 471.368,-161.534 461.434,-157.851 461.305,-164.85"/>
</g>
<!-- Node131 -->
<g id="node12" class="node"><title>Node131</title>
<g id="a_node12"><a xlink:href="classopenage_1_1util_1_1_quaternion.xhtml#a1ea971d2f39920e062b0b91971296b65" target="_top" xlink:title="Ensure that the quaternion&#39;s length equals 1.">
<polygon fill="white" stroke="black" points="297,-95.5 297,-125.5 422,-125.5 422,-95.5 297,-95.5"/>
<text text-anchor="start" x="305" y="-113.5" font-family="Helvetica,sans-Serif" font-size="10.00">openage::util::Quaternion</text>
<text text-anchor="middle" x="359.5" y="-102.5" font-family="Helvetica,sans-Serif" font-size="10.00">::normalize</text>
</a>
</g>
</g>
<!-- Node130&#45;&gt;Node131 -->
<g id="edge11" class="edge"><title>Node130&#45;&gt;Node131</title>
<path fill="none" stroke="midnightblue" d="M451.926,-112.178C441.987,-111.995 431.855,-111.809 422.128,-111.631"/>
<polygon fill="midnightblue" stroke="midnightblue" points="452.125,-115.682 462.188,-112.366 452.254,-108.683 452.125,-115.682"/>
</g>
<!-- Node132 -->
<g id="node13" class="node"><title>Node132</title>
<g id="a_node13"><a xlink:href="classopenage_1_1util_1_1_quaternion.xhtml#adaf56c826ceec78d0f4980148ce498fa" target="_top" xlink:title="Return the normalized version of this quaternion.">
<polygon fill="white" stroke="black" points="136,-95.5 136,-125.5 261,-125.5 261,-95.5 136,-95.5"/>
<text text-anchor="start" x="144" y="-113.5" font-family="Helvetica,sans-Serif" font-size="10.00">openage::util::Quaternion</text>
<text text-anchor="middle" x="198.5" y="-102.5" font-family="Helvetica,sans-Serif" font-size="10.00">::normalized</text>
</a>
</g>
</g>
<!-- Node131&#45;&gt;Node132 -->
<g id="edge12" class="edge"><title>Node131&#45;&gt;Node132</title>
<path fill="none" stroke="midnightblue" d="M286.408,-110.5C278.01,-110.5 269.501,-110.5 261.26,-110.5"/>
<polygon fill="midnightblue" stroke="midnightblue" points="286.571,-114 296.571,-110.5 286.571,-107 286.571,-114"/>
</g>
<!-- Node133 -->
<g id="node14" class="node"><title>Node133</title>
<g id="a_node14"><a xlink:href="namespaceopenage_1_1util_1_1tests.xhtml#ab3f1d081c603b383598beeee8e4429df" target="_top" xlink:title=" ">
<polygon fill="white" stroke="black" points="0,-95.5 0,-125.5 100,-125.5 100,-95.5 0,-95.5"/>
<text text-anchor="start" x="8" y="-113.5" font-family="Helvetica,sans-Serif" font-size="10.00">openage::util::tests</text>
<text text-anchor="middle" x="50" y="-102.5" font-family="Helvetica,sans-Serif" font-size="10.00">::quaternion</text>
</a>
</g>
</g>
<!-- Node132&#45;&gt;Node133 -->
<g id="edge13" class="edge"><title>Node132&#45;&gt;Node133</title>
<path fill="none" stroke="midnightblue" d="M125.697,-110.5C117.059,-110.5 108.394,-110.5 100.184,-110.5"/>
<polygon fill="midnightblue" stroke="midnightblue" points="125.795,-114 135.795,-110.5 125.795,-107 125.795,-114"/>
</g>
</g>
</svg>
