<?xml version="1.0" encoding="UTF-8" standalone="no"?>
<!DOCTYPE svg PUBLIC "-//W3C//DTD SVG 1.1//EN"
 "http://www.w3.org/Graphics/SVG/1.1/DTD/svg11.dtd">
<!-- Generated by graphviz version 2.38.0 (20140413.2041)
 -->
<!-- Title: openage::gui::textureSize Pages: 1 -->
<svg width="523pt" height="149pt"
 viewBox="0.00 0.00 523.00 148.50" xmlns="http://www.w3.org/2000/svg" xmlns:xlink="http://www.w3.org/1999/xlink">
<g id="graph0" class="graph" transform="scale(1 1) rotate(0) translate(4 144.5)">
<title>openage::gui::textureSize</title>
<polygon fill="white" stroke="none" points="-4,4 -4,-144.5 519,-144.5 519,4 -4,4"/>
<!-- Node58 -->
<g id="node1" class="node"><title>Node58</title>
<g id="a_node1"><a xlink:title=" ">
<polygon fill="#bfbfbf" stroke="black" points="387,-55 387,-74 515,-74 515,-55 387,-55"/>
<text text-anchor="middle" x="451" y="-62" font-family="Helvetica,sans-Serif" font-size="10.00">openage::gui::textureSize</text>
</a>
</g>
</g>
<!-- Node59 -->
<g id="node2" class="node"><title>Node59</title>
<g id="a_node2"><a xlink:href="classopenage_1_1gui_1_1_gui_filled_texture_handles.xhtml#a08b5dcae915c7b1cb98cf3763f4b2361" target="_top" xlink:title=" ">
<polygon fill="white" stroke="black" points="202,-99 202,-140 351,-140 351,-99 202,-99"/>
<text text-anchor="start" x="210" y="-128" font-family="Helvetica,sans-Serif" font-size="10.00">openage::gui::GuiFilledTexture</text>
<text text-anchor="start" x="210" y="-117" font-family="Helvetica,sans-Serif" font-size="10.00">Handles::fill_all_handles</text>
<text text-anchor="middle" x="276.5" y="-106" font-family="Helvetica,sans-Serif" font-size="10.00">_with_texture</text>
</a>
</g>
</g>
<!-- Node58&#45;&gt;Node59 -->
<g id="edge1" class="edge"><title>Node58&#45;&gt;Node59</title>
<path fill="none" stroke="midnightblue" d="M410.412,-77.1222C390.106,-83.5967 364.863,-91.6452 341.848,-98.9834"/>
<polygon fill="midnightblue" stroke="midnightblue" points="411.489,-80.4527 419.953,-74.0803 409.362,-73.7835 411.489,-80.4527"/>
</g>
<!-- Node60 -->
<g id="node3" class="node"><title>Node60</title>
<g id="a_node3"><a xlink:href="classopenage_1_1gui_1_1_gui_texture_factory.xhtml#a2af0c7e7d25985cd93743b6d08468d9d" target="_top" xlink:title=" ">
<polygon fill="white" stroke="black" points="214,-49.5 214,-79.5 339,-79.5 339,-49.5 214,-49.5"/>
<text text-anchor="start" x="222" y="-67.5" font-family="Helvetica,sans-Serif" font-size="10.00">openage::gui::GuiTexture</text>
<text text-anchor="middle" x="276.5" y="-56.5" font-family="Helvetica,sans-Serif" font-size="10.00">Factory::textureSize</text>
</a>
</g>
</g>
<!-- Node58&#45;&gt;Node60 -->
<g id="edge2" class="edge"><title>Node58&#45;&gt;Node60</title>
<path fill="none" stroke="midnightblue" d="M376.393,-64.5C363.938,-64.5 351.124,-64.5 339.019,-64.5"/>
<polygon fill="midnightblue" stroke="midnightblue" points="376.747,-68.0001 386.747,-64.5 376.747,-61.0001 376.747,-68.0001"/>
</g>
<!-- Node62 -->
<g id="node5" class="node"><title>Node62</title>
<g id="a_node5"><a xlink:href="classopenage_1_1gui_1_1_gui_texture.xhtml#a1cf359edf8b8ca23bd7c445d44ecc5f2" target="_top" xlink:title=" ">
<polygon fill="white" stroke="black" points="214,-0.5 214,-30.5 339,-30.5 339,-0.5 214,-0.5"/>
<text text-anchor="start" x="222" y="-18.5" font-family="Helvetica,sans-Serif" font-size="10.00">openage::gui::GuiTexture</text>
<text text-anchor="middle" x="276.5" y="-7.5" font-family="Helvetica,sans-Serif" font-size="10.00">::textureSize</text>
</a>
</g>
</g>
<!-- Node58&#45;&gt;Node62 -->
<g id="edge4" class="edge"><title>Node58&#45;&gt;Node62</title>
<path fill="none" stroke="midnightblue" d="M406.468,-52.1343C383.371,-45.5735 354.807,-37.4597 330.436,-30.537"/>
<polygon fill="midnightblue" stroke="midnightblue" points="405.755,-55.5702 416.331,-54.936 407.668,-48.8366 405.755,-55.5702"/>
</g>
<!-- Node61 -->
<g id="node4" class="node"><title>Node61</title>
<g id="a_node4"><a xlink:href="classopenage_1_1gui_1_1_gui_game_spec_image_provider_impl.xhtml#a8a2c7319a6690e41380689f6f3283eea" target="_top" xlink:title=" ">
<polygon fill="white" stroke="black" points="0,-49.5 0,-79.5 166,-79.5 166,-49.5 0,-49.5"/>
<text text-anchor="start" x="8" y="-67.5" font-family="Helvetica,sans-Serif" font-size="10.00">openage::gui::GuiGameSpec</text>
<text text-anchor="middle" x="83" y="-56.5" font-family="Helvetica,sans-Serif" font-size="10.00">ImageProviderImpl::requestTexture</text>
</a>
</g>
</g>
<!-- Node60&#45;&gt;Node61 -->
<g id="edge3" class="edge"><title>Node60&#45;&gt;Node61</title>
<path fill="none" stroke="midnightblue" d="M203.71,-64.5C191.455,-64.5 178.639,-64.5 166.14,-64.5"/>
<polygon fill="midnightblue" stroke="midnightblue" points="203.854,-68.0001 213.854,-64.5 203.854,-61.0001 203.854,-68.0001"/>
</g>
</g>
</svg>
