<?xml version="1.0" encoding="UTF-8" standalone="no"?>
<!DOCTYPE svg PUBLIC "-//W3C//DTD SVG 1.1//EN"
 "http://www.w3.org/Graphics/SVG/1.1/DTD/svg11.dtd">
<!-- Generated by graphviz version 2.38.0 (20140413.2041)
 -->
<!-- Title: openage::rng::time_seed Pages: 1 -->
<!--zoomable 339 -->
<svg id="main" version="1.1" xmlns="http://www.w3.org/2000/svg" xmlns:xlink="http://www.w3.org/1999/xlink" xml:space="preserve" onload="init(evt)">
<style type="text/css"><![CDATA[
.edge:hover path { stroke: red; }
.edge:hover polygon { stroke: red; fill: red; }
]]></style>
<script type="text/javascript"><![CDATA[
var edges = document.getElementsByTagName('g');
if (edges && edges.length) {
  for (var i=0;i<edges.length;i++) {
    if (edges[i].id.substr(0,4)=='edge') {
      edges[i].setAttribute('class','edge');
    }
  }
}
]]></script>
        <defs>
                <circle id="rim" cx="0" cy="0" r="7"/>
                <circle id="rim2" cx="0" cy="0" r="3.5"/>
                <g id="zoomPlus">
                        <use xlink:href="#rim" fill="#404040">
                                <set attributeName="fill" to="#808080" begin="zoomplus.mouseover" end="zoomplus.mouseout"/>
                        </use>
                        <path d="M-4,0h8M0,-4v8" fill="none" stroke="white" stroke-width="1.5" pointer-events="none"/>
                </g>
                <g id="zoomMin">
                        <use xlink:href="#rim" fill="#404040">
                                <set attributeName="fill" to="#808080" begin="zoomminus.mouseover" end="zoomminus.mouseout"/>
                        </use>
                        <path d="M-4,0h8" fill="none" stroke="white" stroke-width="1.5" pointer-events="none"/>
                </g>
                <g id="dirArrow">
                        <path fill="none" stroke="white" stroke-width="1.5" d="M0,-3.0v7 M-2.5,-0.5L0,-3.0L2.5,-0.5"/>
                </g>
               <g id="resetDef">
                       <use xlink:href="#rim2" fill="#404040">
                               <set attributeName="fill" to="#808080" begin="reset.mouseover" end="reset.mouseout"/>
                       </use>
               </g>
        </defs>

<script type="text/javascript">
var viewWidth = 728;
var viewHeight = 339;
var sectionId = 'dynsection-15';
</script>
<script xlink:href="svgpan.js"/>
<svg id="graph" class="graph">
<g id="viewport">
<title>openage::rng::time_seed</title>
<polygon fill="white" stroke="none" points="-4,4 -4,-334.852 724,-334.852 724,4 -4,4"/>
<!-- Node123 -->
<g id="node1" class="node"><title>Node123</title>
<g id="a_node1"><a xlink:title=" ">
<polygon fill="#bfbfbf" stroke="black" points="596,-171.852 596,-190.852 720,-190.852 720,-171.852 596,-171.852"/>
<text text-anchor="middle" x="658" y="-178.852" font-family="Helvetica,sans-Serif" font-size="10.00">openage::rng::time_seed</text>
</a>
</g>
</g>
<!-- Node124 -->
<g id="node2" class="node"><title>Node124</title>
<g id="a_node2"><a xlink:href="namespaceopenage_1_1rng_1_1tests.xhtml#a3b24c3f995bfb45b9d833030720bd88f" target="_top" xlink:title="Tests filling doubles.">
<polygon fill="white" stroke="black" points="271,-218.352 271,-248.352 372,-248.352 372,-218.352 271,-218.352"/>
<text text-anchor="start" x="279" y="-236.352" font-family="Helvetica,sans-Serif" font-size="10.00">openage::rng::tests</text>
<text text-anchor="middle" x="321.5" y="-225.352" font-family="Helvetica,sans-Serif" font-size="10.00">::fill_real</text>
</a>
</g>
</g>
<!-- Node123&#45;&gt;Node124 -->
<g id="edge1" class="edge"><title>Node123&#45;&gt;Node124</title>
<path fill="none" stroke="midnightblue" d="M585.585,-192.454C521.299,-202.448 428.504,-216.874 372.031,-225.653"/>
<polygon fill="midnightblue" stroke="midnightblue" points="586.304,-195.885 595.648,-190.89 585.229,-188.968 586.304,-195.885"/>
</g>
<!-- Node126 -->
<g id="node4" class="node"><title>Node126</title>
<g id="a_node4"><a xlink:href="namespaceopenage_1_1rng_1_1tests.xhtml#acad40865d58b96a35f6f453e04642f00" target="_top" xlink:title="Tests the distribution of the bit generator.">
<polygon fill="white" stroke="black" points="441,-103.352 441,-133.352 542,-133.352 542,-103.352 441,-103.352"/>
<text text-anchor="start" x="449" y="-121.352" font-family="Helvetica,sans-Serif" font-size="10.00">openage::rng::tests</text>
<text text-anchor="middle" x="491.5" y="-110.352" font-family="Helvetica,sans-Serif" font-size="10.00">::freq_dist</text>
</a>
</g>
</g>
<!-- Node123&#45;&gt;Node126 -->
<g id="edge3" class="edge"><title>Node123&#45;&gt;Node126</title>
<path fill="none" stroke="midnightblue" d="M623.215,-167.938C604.599,-160.592 581.06,-151.377 560,-143.352 551.475,-140.104 542.324,-136.676 533.596,-133.434"/>
<polygon fill="midnightblue" stroke="midnightblue" points="622.145,-171.279 632.732,-171.7 624.719,-164.769 622.145,-171.279"/>
</g>
<!-- Node127 -->
<g id="node5" class="node"><title>Node127</title>
<g id="a_node5"><a xlink:href="namespaceopenage_1_1rng.xhtml#a510f1a8aa7487e18b60b1844cd2af86a" target="_top" xlink:title="Returns a seed based on time since epoch as well as data from std::random_device if available.">
<polygon fill="white" stroke="black" points="423,-152.852 423,-171.852 560,-171.852 560,-152.852 423,-152.852"/>
<text text-anchor="middle" x="491.5" y="-159.852" font-family="Helvetica,sans-Serif" font-size="10.00">openage::rng::random_seed</text>
</a>
</g>
</g>
<!-- Node123&#45;&gt;Node127 -->
<g id="edge5" class="edge"><title>Node123&#45;&gt;Node127</title>
<path fill="none" stroke="midnightblue" d="M585.561,-173.101C577.128,-172.127 568.54,-171.135 560.161,-170.167"/>
<polygon fill="midnightblue" stroke="midnightblue" points="585.411,-176.607 595.746,-174.278 586.214,-169.653 585.411,-176.607"/>
</g>
<!-- Node133 -->
<g id="node11" class="node"><title>Node133</title>
<g id="a_node11"><a xlink:href="namespaceopenage_1_1rng_1_1tests.xhtml#a1270464ae98991431da5e3fa6ee60ab5" target="_top" xlink:title="Tests the distribution of the floating point numbers.">
<polygon fill="white" stroke="black" points="441,-300.352 441,-330.352 542,-330.352 542,-300.352 441,-300.352"/>
<text text-anchor="start" x="449" y="-318.352" font-family="Helvetica,sans-Serif" font-size="10.00">openage::rng::tests</text>
<text text-anchor="middle" x="491.5" y="-307.352" font-family="Helvetica,sans-Serif" font-size="10.00">::real_dist</text>
</a>
</g>
</g>
<!-- Node123&#45;&gt;Node133 -->
<g id="edge13" class="edge"><title>Node123&#45;&gt;Node133</title>
<path fill="none" stroke="midnightblue" d="M639.941,-198.169C621.051,-216.466 589.376,-246.199 560,-269.352 546.078,-280.325 529.658,-291.55 516.5,-300.164"/>
<polygon fill="midnightblue" stroke="midnightblue" points="642.495,-200.567 647.21,-191.08 637.607,-195.556 642.495,-200.567"/>
</g>
<!-- Node134 -->
<g id="node12" class="node"><title>Node134</title>
<g id="a_node12"><a xlink:href="namespaceopenage_1_1rng_1_1tests.xhtml#aa77427d76c14080c4993edd5b79a293e" target="_top" xlink:title="Tests reproducibility.">
<polygon fill="white" stroke="black" points="441,-229.352 441,-259.352 542,-259.352 542,-229.352 441,-229.352"/>
<text text-anchor="start" x="449" y="-247.352" font-family="Helvetica,sans-Serif" font-size="10.00">openage::rng::tests</text>
<text text-anchor="middle" x="491.5" y="-236.352" font-family="Helvetica,sans-Serif" font-size="10.00">::reproduce</text>
</a>
</g>
</g>
<!-- Node123&#45;&gt;Node134 -->
<g id="edge15" class="edge"><title>Node123&#45;&gt;Node134</title>
<path fill="none" stroke="midnightblue" d="M622.403,-194.602C595.935,-204.739 559.415,-218.725 531.837,-229.287"/>
<polygon fill="midnightblue" stroke="midnightblue" points="623.929,-197.766 632.016,-190.921 621.426,-191.229 623.929,-197.766"/>
</g>
<!-- Node135 -->
<g id="node13" class="node"><title>Node135</title>
<g id="a_node13"><a xlink:href="namespaceopenage_1_1rng.xhtml#adde6a014119705e9ea92a28bae96f385" target="_top" xlink:title="Returns a seed based on time since epoch.">
<polygon fill="white" stroke="black" points="429.5,-64.8524 429.5,-83.8524 553.5,-83.8524 553.5,-64.8524 429.5,-64.8524"/>
<text text-anchor="middle" x="491.5" y="-71.8524" font-family="Helvetica,sans-Serif" font-size="10.00">openage::rng::time_seed</text>
</a>
</g>
</g>
<!-- Node123&#45;&gt;Node135 -->
<g id="edge17" class="edge"><title>Node123&#45;&gt;Node135</title>
<path fill="none" stroke="midnightblue" d="M642.255,-164.151C624.583,-144.566 593.176,-112.891 560,-94.3524 552.425,-90.1193 543.859,-86.6958 535.436,-83.9585"/>
<polygon fill="midnightblue" stroke="midnightblue" points="639.708,-166.555 648.953,-171.731 644.954,-161.92 639.708,-166.555"/>
</g>
<!-- Node125 -->
<g id="node3" class="node"><title>Node125</title>
<g id="a_node3"><a xlink:href="namespaceopenage_1_1rng_1_1tests.xhtml#ae22d2c6364226e0169f0eed1c9701592" target="_top" xlink:title=" ">
<polygon fill="white" stroke="black" points="50,-198.852 50,-217.852 170,-217.852 170,-198.852 50,-198.852"/>
<text text-anchor="middle" x="110" y="-205.852" font-family="Helvetica,sans-Serif" font-size="10.00">openage::rng::tests::run</text>
</a>
</g>
</g>
<!-- Node124&#45;&gt;Node125 -->
<g id="edge2" class="edge"><title>Node124&#45;&gt;Node125</title>
<path fill="none" stroke="midnightblue" d="M260.68,-226.214C232.354,-222.834 198.62,-218.808 170.354,-215.435"/>
<polygon fill="midnightblue" stroke="midnightblue" points="260.507,-229.718 270.851,-227.428 261.337,-222.767 260.507,-229.718"/>
</g>
<!-- Node126&#45;&gt;Node125 -->
<g id="edge4" class="edge"><title>Node126&#45;&gt;Node125</title>
<path fill="none" stroke="midnightblue" d="M432.026,-100.084C428.817,-98.0631 425.775,-95.8265 423,-93.3524 396.591,-69.8082 417.148,-40.8683 387,-22.3524 337.387,8.11755 306.56,6.51739 256,-22.3524 228.662,-37.9622 238.423,-57.8257 220,-83.3524 186.805,-129.348 140.152,-178.576 120.411,-198.824"/>
<polygon fill="midnightblue" stroke="midnightblue" points="430.395,-103.182 440.842,-104.945 433.775,-97.0517 430.395,-103.182"/>
</g>
<!-- Node128 -->
<g id="node6" class="node"><title>Node128</title>
<g id="a_node6"><a xlink:href="namespaceopenage_1_1rng_1_1tests.xhtml#ab46fd4b091c16460f3ed825fe2ec269b" target="_top" xlink:title="Tests the distribution of the boolean generation.">
<polygon fill="white" stroke="black" points="271,-169.352 271,-199.352 372,-199.352 372,-169.352 271,-169.352"/>
<text text-anchor="start" x="279" y="-187.352" font-family="Helvetica,sans-Serif" font-size="10.00">openage::rng::tests</text>
<text text-anchor="middle" x="321.5" y="-176.352" font-family="Helvetica,sans-Serif" font-size="10.00">::bool_dist</text>
</a>
</g>
</g>
<!-- Node127&#45;&gt;Node128 -->
<g id="edge6" class="edge"><title>Node127&#45;&gt;Node128</title>
<path fill="none" stroke="midnightblue" d="M412.645,-172.548C398.817,-174.359 384.767,-176.198 372.002,-177.87"/>
<polygon fill="midnightblue" stroke="midnightblue" points="413.191,-176.006 422.652,-171.237 412.282,-169.065 413.191,-176.006"/>
</g>
<!-- Node129 -->
<g id="node7" class="node"><title>Node129</title>
<g id="a_node7"><a xlink:href="namespaceopenage_1_1rng_1_1tests.xhtml#a7c865b312f955cab3ff9ea078fd0cc95" target="_top" xlink:title="Tests filling integers.">
<polygon fill="white" stroke="black" points="271,-32.3524 271,-62.3524 372,-62.3524 372,-32.3524 271,-32.3524"/>
<text text-anchor="start" x="279" y="-50.3524" font-family="Helvetica,sans-Serif" font-size="10.00">openage::rng::tests</text>
<text text-anchor="middle" x="321.5" y="-39.3524" font-family="Helvetica,sans-Serif" font-size="10.00">::fill</text>
</a>
</g>
</g>
<!-- Node127&#45;&gt;Node129 -->
<g id="edge8" class="edge"><title>Node127&#45;&gt;Node129</title>
<path fill="none" stroke="midnightblue" d="M429.545,-148.002C427.247,-146.595 425.053,-145.049 423,-143.352 395.425,-120.558 413.62,-95.256 387,-71.3524 382.644,-67.4409 377.592,-64.1475 372.271,-61.3789"/>
<polygon fill="midnightblue" stroke="midnightblue" points="428.339,-151.318 438.833,-152.777 431.54,-145.092 428.339,-151.318"/>
</g>
<!-- Node131 -->
<g id="node9" class="node"><title>Node131</title>
<g id="a_node9"><a xlink:href="namespaceopenage_1_1rng.xhtml#a595e7ab593687bbb092d69186c65c45a" target="_top" xlink:title="Returns the value of the global seed.">
<polygon fill="white" stroke="black" points="256,-130.852 256,-149.852 387,-149.852 387,-130.852 256,-130.852"/>
<text text-anchor="middle" x="321.5" y="-137.852" font-family="Helvetica,sans-Serif" font-size="10.00">openage::rng::global_seed</text>
</a>
</g>
</g>
<!-- Node127&#45;&gt;Node131 -->
<g id="edge11" class="edge"><title>Node127&#45;&gt;Node131</title>
<path fill="none" stroke="midnightblue" d="M412.658,-152.159C404.092,-151.037 395.44,-149.904 387.062,-148.807"/>
<polygon fill="midnightblue" stroke="midnightblue" points="412.282,-155.639 422.652,-153.468 413.191,-148.699 412.282,-155.639"/>
</g>
<!-- Node132 -->
<g id="node10" class="node"><title>Node132</title>
<g id="a_node10"><a xlink:href="namespaceopenage_1_1rng_1_1tests.xhtml#a265e3eddfd2efda00d3f1d1d9291469d" target="_top" xlink:title="Tests the serializing functionality.">
<polygon fill="white" stroke="black" points="271,-81.3524 271,-111.352 372,-111.352 372,-81.3524 271,-81.3524"/>
<text text-anchor="start" x="279" y="-99.3524" font-family="Helvetica,sans-Serif" font-size="10.00">openage::rng::tests</text>
<text text-anchor="middle" x="321.5" y="-88.3524" font-family="Helvetica,sans-Serif" font-size="10.00">::serialize</text>
</a>
</g>
</g>
<!-- Node127&#45;&gt;Node132 -->
<g id="edge12" class="edge"><title>Node127&#45;&gt;Node132</title>
<path fill="none" stroke="midnightblue" d="M439.853,-149.74C434.087,-147.822 428.361,-145.692 423,-143.352 405.814,-135.853 403.809,-129.663 387,-121.352 379.895,-117.84 372.166,-114.476 364.607,-111.419"/>
<polygon fill="midnightblue" stroke="midnightblue" points="438.947,-153.124 449.536,-152.766 441.035,-146.443 438.947,-153.124"/>
</g>
<!-- Node128&#45;&gt;Node125 -->
<g id="edge7" class="edge"><title>Node128&#45;&gt;Node125</title>
<path fill="none" stroke="midnightblue" d="M260.68,-191.205C232.354,-194.45 198.62,-198.315 170.354,-201.553"/>
<polygon fill="midnightblue" stroke="midnightblue" points="261.315,-194.656 270.851,-190.04 260.518,-187.701 261.315,-194.656"/>
</g>
<!-- Node129&#45;&gt;Node125 -->
<g id="edge9" class="edge"><title>Node129&#45;&gt;Node125</title>
<path fill="none" stroke="midnightblue" d="M264.14,-66.7414C261.335,-68.1951 258.604,-69.7319 256,-71.3524 195.721,-108.862 139.001,-174.149 118.794,-198.673"/>
<polygon fill="midnightblue" stroke="midnightblue" points="265.769,-69.8423 273.291,-62.3812 262.758,-63.5229 265.769,-69.8423"/>
</g>
<!-- Node130 -->
<g id="node8" class="node"><title>Node130</title>
<g id="a_node8"><a xlink:href="classopenage_1_1util_1_1compress_1_1_huffman_table.xhtml#af44253d3e7adef12c7a4c4371b97a2fd" target="_top" xlink:title="This function was originally coded by David Tritscher.">
<polygon fill="white" stroke="black" points="0,-21.3524 0,-73.3524 220,-73.3524 220,-21.3524 0,-21.3524"/>
<text text-anchor="start" x="8" y="-61.3524" font-family="Helvetica,sans-Serif" font-size="10.00">openage::util::compress</text>
<text text-anchor="start" x="8" y="-50.3524" font-family="Helvetica,sans-Serif" font-size="10.00">::HuffmanTable&lt; LZX_PRETREE</text>
<text text-anchor="start" x="8" y="-39.3524" font-family="Helvetica,sans-Serif" font-size="10.00">_MAXSYMBOLS, LZX_PRETREE_TABLEBITS</text>
<text text-anchor="middle" x="110" y="-28.3524" font-family="Helvetica,sans-Serif" font-size="10.00"> &gt;::try_make_decode_table</text>
</a>
</g>
</g>
<!-- Node129&#45;&gt;Node130 -->
<g id="edge10" class="edge"><title>Node129&#45;&gt;Node130</title>
<path fill="none" stroke="midnightblue" d="M260.851,-47.3524C248.061,-47.3524 234.162,-47.3524 220.158,-47.3524"/>
<polygon fill="midnightblue" stroke="midnightblue" points="260.851,-50.8525 270.851,-47.3524 260.851,-43.8525 260.851,-50.8525"/>
</g>
<!-- Node133&#45;&gt;Node125 -->
<g id="edge14" class="edge"><title>Node133&#45;&gt;Node125</title>
<path fill="none" stroke="midnightblue" d="M430.469,-309.119C382.495,-303.127 313.933,-292.281 256,-274.352 207.911,-259.471 154.911,-232.39 128.288,-217.978"/>
<polygon fill="midnightblue" stroke="midnightblue" points="430.335,-312.629 440.684,-310.361 431.179,-305.68 430.335,-312.629"/>
</g>
<!-- Node134&#45;&gt;Node125 -->
<g id="edge16" class="edge"><title>Node134&#45;&gt;Node125</title>
<path fill="none" stroke="midnightblue" d="M430.686,-253.835C416.409,-255.712 401.194,-257.397 387,-258.352 328.909,-262.263 313.422,-267.975 256,-258.352 210.041,-250.651 159.158,-230.114 131.56,-217.889"/>
<polygon fill="midnightblue" stroke="midnightblue" points="431.454,-257.262 440.889,-252.441 430.507,-250.327 431.454,-257.262"/>
</g>
</g>
</svg>
        <g id="navigator" transform="translate(0 0)" fill="#404254">
                <rect fill="#f2f5e9" fill-opacity="0.5" stroke="#606060" stroke-width=".5" x="0" y="0" width="60" height="60"/>
                <use id="zoomplus" xlink:href="#zoomPlus" x="17" y="9" onmousedown="handleZoom(evt,'in')"/>
                <use id="zoomminus" xlink:href="#zoomMin" x="42" y="9" onmousedown="handleZoom(evt,'out')"/>
                <use id="reset" xlink:href="#resetDef" x="30" y="36" onmousedown="handleReset()"/>
                <g id="arrowUp" xlink:href="#dirArrow" transform="translate(30 24)" onmousedown="handlePan(0,-1)">
                  <use xlink:href="#rim" fill="#404040">
                        <set attributeName="fill" to="#808080" begin="arrowUp.mouseover" end="arrowUp.mouseout"/>
                  </use>
                  <path fill="none" stroke="white" stroke-width="1.5" d="M0,-3.0v7 M-2.5,-0.5L0,-3.0L2.5,-0.5"/>
                </g>
                <g id="arrowRight" xlink:href="#dirArrow" transform="rotate(90) translate(36 -43)" onmousedown="handlePan(1,0)">
                  <use xlink:href="#rim" fill="#404040">
                        <set attributeName="fill" to="#808080" begin="arrowRight.mouseover" end="arrowRight.mouseout"/>
                  </use>
                  <path fill="none" stroke="white" stroke-width="1.5" d="M0,-3.0v7 M-2.5,-0.5L0,-3.0L2.5,-0.5"/>
                </g>
                <g id="arrowDown" xlink:href="#dirArrow" transform="rotate(180) translate(-30 -48)" onmousedown="handlePan(0,1)">
                  <use xlink:href="#rim" fill="#404040">
                        <set attributeName="fill" to="#808080" begin="arrowDown.mouseover" end="arrowDown.mouseout"/>
                  </use>
                  <path fill="none" stroke="white" stroke-width="1.5" d="M0,-3.0v7 M-2.5,-0.5L0,-3.0L2.5,-0.5"/>
                </g>
                <g id="arrowLeft" xlink:href="#dirArrow" transform="rotate(270) translate(-36 17)" onmousedown="handlePan(-1,0)">
                  <use xlink:href="#rim" fill="#404040">
                        <set attributeName="fill" to="#808080" begin="arrowLeft.mouseover" end="arrowLeft.mouseout"/>
                  </use>
                  <path fill="none" stroke="white" stroke-width="1.5" d="M0,-3.0v7 M-2.5,-0.5L0,-3.0L2.5,-0.5"/>
                </g>
        </g>
        <svg viewBox="0 0 15 15" width="100%" height="30px" preserveAspectRatio="xMaxYMin meet">
         <g id="arrow_out" transform="scale(0.3 0.3)">
          <a xlink:href="namespaceopenage_1_1rng_a4bdd2cc5c7f7f5d81ff514287f65eef0_icgraph_org.svg" target="_base">
           <rect id="button" ry="5" rx="5" y="6" x="6" height="38" width="38"
                fill="#f2f5e9" fill-opacity="0.5" stroke="#606060" stroke-width="1.0"/>
           <path id="arrow"
             d="M 11.500037,31.436501 C 11.940474,20.09759 22.043105,11.32322 32.158766,21.979434 L 37.068811,17.246167 C 37.068811,17.246167 37.088388,32 37.088388,32 L 22.160133,31.978069 C 22.160133,31.978069 26.997745,27.140456 26.997745,27.140456 C 18.528582,18.264221 13.291696,25.230495 11.500037,31.436501 z"
             style="fill:#404040;"/>
          </a>
         </g>
        </svg>
</svg>
