<?xml version="1.0" encoding="UTF-8" standalone="no"?>
<!DOCTYPE svg PUBLIC "-//W3C//DTD SVG 1.1//EN"
 "http://www.w3.org/Graphics/SVG/1.1/DTD/svg11.dtd">
<!-- Generated by graphviz version 2.38.0 (20140413.2041)
 -->
<!-- Title: openage::util::is_symbol Pages: 1 -->
<svg width="426pt" height="39pt"
 viewBox="0.00 0.00 426.00 39.00" xmlns="http://www.w3.org/2000/svg" xmlns:xlink="http://www.w3.org/1999/xlink">
<g id="graph0" class="graph" transform="scale(1 1) rotate(0) translate(4 35)">
<title>openage::util::is_symbol</title>
<polygon fill="white" stroke="none" points="-4,4 -4,-35 422,-35 422,4 -4,4"/>
<!-- Node196 -->
<g id="node1" class="node"><title>Node196</title>
<g id="a_node1"><a xlink:title="Returns true if the address is the (exact) address of a symbol.">
<polygon fill="#bfbfbf" stroke="black" points="296,-6 296,-25 418,-25 418,-6 296,-6"/>
<text text-anchor="middle" x="357" y="-13" font-family="Helvetica,sans-Serif" font-size="10.00">openage::util::is_symbol</text>
</a>
</g>
</g>
<!-- Node197 -->
<g id="node2" class="node"><title>Node197</title>
<g id="a_node2"><a xlink:href="namespaceopenage_1_1pyinterface.xhtml#a591d9bd55fa1f9904547f3f2dcb3796d" target="_top" xlink:title="Adds a Python interface component.">
<polygon fill="white" stroke="black" points="143,-0.5 143,-30.5 260,-30.5 260,-0.5 143,-0.5"/>
<text text-anchor="start" x="151" y="-18.5" font-family="Helvetica,sans-Serif" font-size="10.00">openage::pyinterface</text>
<text text-anchor="middle" x="201.5" y="-7.5" font-family="Helvetica,sans-Serif" font-size="10.00">::add_py_if_component</text>
</a>
</g>
</g>
<!-- Node196&#45;&gt;Node197 -->
<g id="edge1" class="edge"><title>Node196&#45;&gt;Node197</title>
<path fill="none" stroke="midnightblue" d="M285.749,-15.5C277.145,-15.5 268.43,-15.5 260.043,-15.5"/>
<polygon fill="midnightblue" stroke="midnightblue" points="285.773,-19.0001 295.773,-15.5 285.773,-12.0001 285.773,-19.0001"/>
</g>
<!-- Node198 -->
<g id="node3" class="node"><title>Node198</title>
<g id="a_node3"><a xlink:href="classopenage_1_1pyinterface_1_1_py_if_func.xhtml#a151c2faee8d91169645204f1eb3a6a22" target="_top" xlink:title=" ">
<polygon fill="white" stroke="black" points="0,-0.5 0,-30.5 107,-30.5 107,-0.5 0,-0.5"/>
<text text-anchor="start" x="8" y="-18.5" font-family="Helvetica,sans-Serif" font-size="10.00">openage::pyinterface</text>
<text text-anchor="middle" x="53.5" y="-7.5" font-family="Helvetica,sans-Serif" font-size="10.00">::PyIfFunc::PyIfFunc</text>
</a>
</g>
</g>
<!-- Node197&#45;&gt;Node198 -->
<g id="edge2" class="edge"><title>Node197&#45;&gt;Node198</title>
<path fill="none" stroke="midnightblue" d="M132.74,-15.5C124.11,-15.5 115.382,-15.5 107.042,-15.5"/>
<polygon fill="midnightblue" stroke="midnightblue" points="132.797,-19.0001 142.797,-15.5 132.797,-12.0001 132.797,-19.0001"/>
</g>
</g>
</svg>
