<?xml version="1.0" encoding="UTF-8" standalone="no"?>
<!DOCTYPE svg PUBLIC "-//W3C//DTD SVG 1.1//EN"
 "http://www.w3.org/Graphics/SVG/1.1/DTD/svg11.dtd">
<!-- Generated by graphviz version 2.38.0 (20140413.2041)
 -->
<!-- Title: std::to_string Pages: 1 -->
<!--zoomable 372 -->
<svg id="main" version="1.1" xmlns="http://www.w3.org/2000/svg" xmlns:xlink="http://www.w3.org/1999/xlink" xml:space="preserve" onload="init(evt)">
<style type="text/css"><![CDATA[
.edge:hover path { stroke: red; }
.edge:hover polygon { stroke: red; fill: red; }
]]></style>
<script type="text/javascript"><![CDATA[
var edges = document.getElementsByTagName('g');
if (edges && edges.length) {
  for (var i=0;i<edges.length;i++) {
    if (edges[i].id.substr(0,4)=='edge') {
      edges[i].setAttribute('class','edge');
    }
  }
}
]]></script>
        <defs>
                <circle id="rim" cx="0" cy="0" r="7"/>
                <circle id="rim2" cx="0" cy="0" r="3.5"/>
                <g id="zoomPlus">
                        <use xlink:href="#rim" fill="#404040">
                                <set attributeName="fill" to="#808080" begin="zoomplus.mouseover" end="zoomplus.mouseout"/>
                        </use>
                        <path d="M-4,0h8M0,-4v8" fill="none" stroke="white" stroke-width="1.5" pointer-events="none"/>
                </g>
                <g id="zoomMin">
                        <use xlink:href="#rim" fill="#404040">
                                <set attributeName="fill" to="#808080" begin="zoomminus.mouseover" end="zoomminus.mouseout"/>
                        </use>
                        <path d="M-4,0h8" fill="none" stroke="white" stroke-width="1.5" pointer-events="none"/>
                </g>
                <g id="dirArrow">
                        <path fill="none" stroke="white" stroke-width="1.5" d="M0,-3.0v7 M-2.5,-0.5L0,-3.0L2.5,-0.5"/>
                </g>
               <g id="resetDef">
                       <use xlink:href="#rim2" fill="#404040">
                               <set attributeName="fill" to="#808080" begin="reset.mouseover" end="reset.mouseout"/>
                       </use>
               </g>
        </defs>

<script type="text/javascript">
var viewWidth = 823;
var viewHeight = 372;
var sectionId = 'dynsection-10';
</script>
<script xlink:href="svgpan.js"/>
<svg id="graph" class="graph">
<g id="viewport">
<title>std::to_string</title>
<polygon fill="white" stroke="none" points="-4,4 -4,-368 819,-368 819,4 -4,4"/>
<!-- Node139 -->
<g id="node1" class="node"><title>Node139</title>
<g id="a_node1"><a xlink:title=" ">
<polygon fill="#bfbfbf" stroke="black" points="741,-170 741,-189 815,-189 815,-170 741,-170"/>
<text text-anchor="middle" x="778" y="-177" font-family="Helvetica,sans-Serif" font-size="10.00">std::to_string</text>
</a>
</g>
</g>
<!-- Node140 -->
<g id="node2" class="node"><title>Node140</title>
<g id="a_node2"><a xlink:href="classopenage_1_1_action_mode.xhtml#a6288ce1c7b45e988f140ace30845bc69" target="_top" xlink:title="sends to gui the properties that it needs">
<polygon fill="white" stroke="black" points="569,-323.5 569,-353.5 680,-353.5 680,-323.5 569,-323.5"/>
<text text-anchor="start" x="577" y="-341.5" font-family="Helvetica,sans-Serif" font-size="10.00">openage::ActionMode</text>
<text text-anchor="middle" x="624.5" y="-330.5" font-family="Helvetica,sans-Serif" font-size="10.00">::announce</text>
</a>
</g>
</g>
<!-- Node139&#45;&gt;Node140 -->
<g id="edge1" class="edge"><title>Node139&#45;&gt;Node140</title>
<path fill="none" stroke="midnightblue" d="M770.993,-198.845C761.383,-226.776 739.991,-278.347 705,-308.5 697.736,-314.76 689.036,-319.775 680.097,-323.773"/>
<polygon fill="midnightblue" stroke="midnightblue" points="774.405,-199.67 774.201,-189.077 767.755,-197.486 774.405,-199.67"/>
</g>
<!-- Node143 -->
<g id="node5" class="node"><title>Node143</title>
<g id="a_node5"><a xlink:href="classopenage_1_1_action_mode.xhtml#a43f98279255b857ee8fa9943117271e8" target="_top" xlink:title="Called after GameControl has been set by QML from set_game_control.">
<polygon fill="white" stroke="black" points="189,-284.5 189,-314.5 305,-314.5 305,-284.5 189,-284.5"/>
<text text-anchor="start" x="197" y="-302.5" font-family="Helvetica,sans-Serif" font-size="10.00">openage::ActionMode</text>
<text text-anchor="middle" x="247" y="-291.5" font-family="Helvetica,sans-Serif" font-size="10.00">::on_game_control_set</text>
</a>
</g>
</g>
<!-- Node139&#45;&gt;Node143 -->
<g id="edge16" class="edge"><title>Node139&#45;&gt;Node143</title>
<path fill="none" stroke="midnightblue" d="M768.762,-198.538C757.835,-221.156 736.22,-257.91 705,-274.5 637.289,-310.482 411.926,-306.419 305.106,-302.24"/>
<polygon fill="midnightblue" stroke="midnightblue" points="772.029,-199.811 773.026,-189.264 765.669,-196.887 772.029,-199.811"/>
</g>
<!-- Node144 -->
<g id="node6" class="node"><title>Node144</title>
<g id="a_node6"><a xlink:href="classopenage_1_1_game_control.xhtml#a3d4b9fbef261d19138ba87083e4083a5" target="_top" xlink:title=" ">
<polygon fill="white" stroke="black" points="544,-235.5 544,-265.5 705,-265.5 705,-235.5 544,-235.5"/>
<text text-anchor="start" x="552" y="-253.5" font-family="Helvetica,sans-Serif" font-size="10.00">openage::GameControl</text>
<text text-anchor="middle" x="624.5" y="-242.5" font-family="Helvetica,sans-Serif" font-size="10.00">::announce_current_player_name</text>
</a>
</g>
</g>
<!-- Node139&#45;&gt;Node144 -->
<g id="edge5" class="edge"><title>Node139&#45;&gt;Node144</title>
<path fill="none" stroke="midnightblue" d="M755.967,-195.042C742.045,-204.789 723.084,-217.062 705,-225.5 697.133,-229.171 688.587,-232.494 680.112,-235.432"/>
<polygon fill="midnightblue" stroke="midnightblue" points="758.227,-197.729 764.328,-189.067 754.157,-192.033 758.227,-197.729"/>
</g>
<!-- Node150 -->
<g id="node12" class="node"><title>Node150</title>
<g id="a_node12"><a xlink:href="classopenage_1_1input_1_1_event.xhtml#a241514ea09af26b4f9bd106dbf79475d" target="_top" xlink:title="logable debug info">
<polygon fill="white" stroke="black" points="569.5,-186.5 569.5,-216.5 679.5,-216.5 679.5,-186.5 569.5,-186.5"/>
<text text-anchor="start" x="577.5" y="-204.5" font-family="Helvetica,sans-Serif" font-size="10.00">openage::input::Event</text>
<text text-anchor="middle" x="624.5" y="-193.5" font-family="Helvetica,sans-Serif" font-size="10.00">::info</text>
</a>
</g>
</g>
<!-- Node139&#45;&gt;Node150 -->
<g id="edge11" class="edge"><title>Node139&#45;&gt;Node150</title>
<path fill="none" stroke="midnightblue" d="M730.475,-186.256C714.383,-188.593 696.214,-191.231 679.569,-193.648"/>
<polygon fill="midnightblue" stroke="midnightblue" points="731.319,-189.67 740.712,-184.77 730.313,-182.743 731.319,-189.67"/>
</g>
<!-- Node151 -->
<g id="node13" class="node"><title>Node151</title>
<g id="a_node13"><a xlink:href="classopenage_1_1_unit.xhtml#ae769f520dfdb148ec831c151a954a881" target="_top" xlink:title="Returns the unit&#39;s name as the LogSource name.">
<polygon fill="white" stroke="black" points="547.5,-148 547.5,-167 701.5,-167 701.5,-148 547.5,-148"/>
<text text-anchor="middle" x="624.5" y="-155" font-family="Helvetica,sans-Serif" font-size="10.00">openage::Unit::logsource_name</text>
</a>
</g>
</g>
<!-- Node139&#45;&gt;Node151 -->
<g id="edge12" class="edge"><title>Node139&#45;&gt;Node151</title>
<path fill="none" stroke="midnightblue" d="M730.578,-172.759C718.119,-170.95 704.409,-168.959 691.122,-167.029"/>
<polygon fill="midnightblue" stroke="midnightblue" points="730.313,-176.257 740.712,-174.23 731.319,-169.33 730.313,-176.257"/>
</g>
<!-- Node152 -->
<g id="node14" class="node"><title>Node152</title>
<g id="a_node14"><a xlink:href="classopenage_1_1input_1_1_input_manager.xhtml#a0ba02d8e086457a659747b154facab7a" target="_top" xlink:title="Return the string representation of the mouse event.">
<polygon fill="white" stroke="black" points="552,-98.5 552,-128.5 697,-128.5 697,-98.5 552,-98.5"/>
<text text-anchor="start" x="560" y="-116.5" font-family="Helvetica,sans-Serif" font-size="10.00">openage::input::InputManager</text>
<text text-anchor="middle" x="624.5" y="-105.5" font-family="Helvetica,sans-Serif" font-size="10.00">::mouse_bind_to_string</text>
</a>
</g>
</g>
<!-- Node139&#45;&gt;Node152 -->
<g id="edge13" class="edge"><title>Node139&#45;&gt;Node152</title>
<path fill="none" stroke="midnightblue" d="M753.517,-164.433C739.755,-156.039 721.82,-145.834 705,-138.5 696.777,-134.915 687.874,-131.6 679.103,-128.634"/>
<polygon fill="midnightblue" stroke="midnightblue" points="751.972,-167.593 762.313,-169.897 755.665,-161.647 751.972,-167.593"/>
</g>
<!-- Node155 -->
<g id="node17" class="node"><title>Node155</title>
<g id="a_node17"><a xlink:href="classopenage_1_1_unit_selection.xhtml#ac96d0e9e50c7efe2810017f60aa7a6ce" target="_top" xlink:title="Must be given a valid unit to display text attribute indicators.">
<polygon fill="white" stroke="black" points="566,-49.5 566,-79.5 683,-79.5 683,-49.5 566,-49.5"/>
<text text-anchor="start" x="574" y="-67.5" font-family="Helvetica,sans-Serif" font-size="10.00">openage::UnitSelection</text>
<text text-anchor="middle" x="624.5" y="-56.5" font-family="Helvetica,sans-Serif" font-size="10.00">::show_attributes</text>
</a>
</g>
</g>
<!-- Node139&#45;&gt;Node155 -->
<g id="edge17" class="edge"><title>Node139&#45;&gt;Node155</title>
<path fill="none" stroke="midnightblue" d="M767.133,-161.189C755.108,-140.57 732.897,-107.476 705,-88.5 698.324,-83.9592 690.765,-80.2565 683.028,-77.2426"/>
<polygon fill="midnightblue" stroke="midnightblue" points="764.106,-162.945 772.063,-169.94 770.205,-159.51 764.106,-162.945"/>
</g>
<!-- Node158 -->
<g id="node20" class="node"><title>Node158</title>
<g id="a_node20"><a xlink:href="classopenage_1_1options_1_1_option_value.xhtml#a22038d95a9d6f275c9c87f415a8295a5" target="_top" xlink:title="Value converted to a string.">
<polygon fill="white" stroke="black" points="562,-0.5 562,-30.5 687,-30.5 687,-0.5 562,-0.5"/>
<text text-anchor="start" x="570" y="-18.5" font-family="Helvetica,sans-Serif" font-size="10.00">openage::options::Option</text>
<text text-anchor="middle" x="624.5" y="-7.5" font-family="Helvetica,sans-Serif" font-size="10.00">Value::str_value</text>
</a>
</g>
</g>
<!-- Node139&#45;&gt;Node158 -->
<g id="edge20" class="edge"><title>Node139&#45;&gt;Node158</title>
<path fill="none" stroke="midnightblue" d="M772.215,-159.882C763.814,-129.592 743.53,-71.5922 705,-39.5 699.683,-35.0711 693.564,-31.4592 687.132,-28.5138"/>
<polygon fill="midnightblue" stroke="midnightblue" points="768.864,-160.902 774.784,-169.688 775.635,-159.128 768.864,-160.902"/>
</g>
<!-- Node141 -->
<g id="node3" class="node"><title>Node141</title>
<g id="a_node3"><a xlink:href="classopenage_1_1_action_mode.xhtml#a30654ed7b85fa4cf0a2728c447dfa652" target="_top" xlink:title="sends to gui the buttons it should use for the action buttons (if changed)">
<polygon fill="white" stroke="black" points="370.5,-323.5 370.5,-353.5 496.5,-353.5 496.5,-323.5 370.5,-323.5"/>
<text text-anchor="start" x="378.5" y="-341.5" font-family="Helvetica,sans-Serif" font-size="10.00">openage::ActionMode</text>
<text text-anchor="middle" x="433.5" y="-330.5" font-family="Helvetica,sans-Serif" font-size="10.00">::announce_buttons_type</text>
</a>
</g>
</g>
<!-- Node140&#45;&gt;Node141 -->
<g id="edge2" class="edge"><title>Node140&#45;&gt;Node141</title>
<path fill="none" stroke="midnightblue" d="M558.56,-338.5C538.531,-338.5 516.53,-338.5 496.69,-338.5"/>
<polygon fill="midnightblue" stroke="midnightblue" points="558.833,-342 568.833,-338.5 558.833,-335 558.833,-342"/>
</g>
<!-- Node142 -->
<g id="node4" class="node"><title>Node142</title>
<g id="a_node4"><a xlink:href="classopenage_1_1_action_mode.xhtml#a9c7d1f16c862692b1172079402ac0f18" target="_top" xlink:title="Called when the mode is left.">
<polygon fill="white" stroke="black" points="191.5,-333.5 191.5,-363.5 302.5,-363.5 302.5,-333.5 191.5,-333.5"/>
<text text-anchor="start" x="199.5" y="-351.5" font-family="Helvetica,sans-Serif" font-size="10.00">openage::ActionMode</text>
<text text-anchor="middle" x="247" y="-340.5" font-family="Helvetica,sans-Serif" font-size="10.00">::on_exit</text>
</a>
</g>
</g>
<!-- Node141&#45;&gt;Node142 -->
<g id="edge3" class="edge"><title>Node141&#45;&gt;Node142</title>
<path fill="none" stroke="midnightblue" d="M360.096,-342.424C340.929,-343.463 320.562,-344.567 302.521,-345.545"/>
<polygon fill="midnightblue" stroke="midnightblue" points="360.498,-345.908 370.294,-341.872 360.119,-338.918 360.498,-345.908"/>
</g>
<!-- Node141&#45;&gt;Node143 -->
<g id="edge4" class="edge"><title>Node141&#45;&gt;Node143</title>
<path fill="none" stroke="midnightblue" d="M360.285,-323.235C342.032,-319.377 322.678,-315.286 305.274,-311.607"/>
<polygon fill="midnightblue" stroke="midnightblue" points="359.786,-326.707 370.294,-325.351 361.234,-319.858 359.786,-326.707"/>
</g>
<!-- Node145 -->
<g id="node7" class="node"><title>Node145</title>
<g id="a_node7"><a xlink:href="classopenage_1_1_game_control_signals.xhtml#acd3484cc1f7feb2163be431acfc88c96" target="_top" xlink:title=" ">
<polygon fill="white" stroke="black" points="359,-235.5 359,-265.5 508,-265.5 508,-235.5 359,-235.5"/>
<text text-anchor="start" x="367" y="-253.5" font-family="Helvetica,sans-Serif" font-size="10.00">openage::GameControlSignals</text>
<text text-anchor="middle" x="433.5" y="-242.5" font-family="Helvetica,sans-Serif" font-size="10.00">::on_game_running</text>
</a>
</g>
</g>
<!-- Node144&#45;&gt;Node145 -->
<g id="edge6" class="edge"><title>Node144&#45;&gt;Node145</title>
<path fill="none" stroke="midnightblue" d="M533.877,-250.5C525.308,-250.5 516.686,-250.5 508.292,-250.5"/>
<polygon fill="midnightblue" stroke="midnightblue" points="533.895,-254 543.895,-250.5 533.895,-247 533.895,-254"/>
</g>
<!-- Node148 -->
<g id="node10" class="node"><title>Node148</title>
<g id="a_node10"><a xlink:href="classopenage_1_1_game_control.xhtml#ad7c9d48df33f8f56ab5686c36648bfa5" target="_top" xlink:title=" ">
<polygon fill="white" stroke="black" points="375.5,-186.5 375.5,-216.5 491.5,-216.5 491.5,-186.5 375.5,-186.5"/>
<text text-anchor="start" x="383.5" y="-204.5" font-family="Helvetica,sans-Serif" font-size="10.00">openage::GameControl</text>
<text text-anchor="middle" x="433.5" y="-193.5" font-family="Helvetica,sans-Serif" font-size="10.00">::set_engine</text>
</a>
</g>
</g>
<!-- Node144&#45;&gt;Node148 -->
<g id="edge9" class="edge"><title>Node144&#45;&gt;Node148</title>
<path fill="none" stroke="midnightblue" d="M555.716,-232.926C534.762,-227.494 511.898,-221.566 491.731,-216.338"/>
<polygon fill="midnightblue" stroke="midnightblue" points="554.951,-236.344 565.509,-235.465 556.708,-229.568 554.951,-236.344"/>
</g>
<!-- Node146 -->
<g id="node8" class="node"><title>Node146</title>
<g id="a_node8"><a xlink:href="classopenage_1_1_game_control.xhtml#ae6ce3ec10ca18afc9cb7235c88ac7113" target="_top" xlink:title=" ">
<polygon fill="white" stroke="black" points="189,-235.5 189,-265.5 305,-265.5 305,-235.5 189,-235.5"/>
<text text-anchor="start" x="197" y="-253.5" font-family="Helvetica,sans-Serif" font-size="10.00">openage::GameControl</text>
<text text-anchor="middle" x="247" y="-242.5" font-family="Helvetica,sans-Serif" font-size="10.00">::set_game</text>
</a>
</g>
</g>
<!-- Node145&#45;&gt;Node146 -->
<g id="edge7" class="edge"><title>Node145&#45;&gt;Node146</title>
<path fill="none" stroke="midnightblue" d="M348.652,-250.5C333.922,-250.5 318.904,-250.5 305.116,-250.5"/>
<polygon fill="midnightblue" stroke="midnightblue" points="348.785,-254 358.785,-250.5 348.785,-247 348.785,-254"/>
</g>
<!-- Node147 -->
<g id="node9" class="node"><title>Node147</title>
<g id="a_node9"><a xlink:href="classopenage_1_1gui_1_1_game_control_link.xhtml#ae7ae95345cce7b97f5cbab741589808a" target="_top" xlink:title=" ">
<polygon fill="white" stroke="black" points="0,-235.5 0,-265.5 135,-265.5 135,-235.5 0,-235.5"/>
<text text-anchor="start" x="8" y="-253.5" font-family="Helvetica,sans-Serif" font-size="10.00">openage::gui::GameControl</text>
<text text-anchor="middle" x="67.5" y="-242.5" font-family="Helvetica,sans-Serif" font-size="10.00">Link::set_game</text>
</a>
</g>
</g>
<!-- Node146&#45;&gt;Node147 -->
<g id="edge8" class="edge"><title>Node146&#45;&gt;Node147</title>
<path fill="none" stroke="midnightblue" d="M178.641,-250.5C164.385,-250.5 149.346,-250.5 135.117,-250.5"/>
<polygon fill="midnightblue" stroke="midnightblue" points="178.861,-254 188.861,-250.5 178.861,-247 178.861,-254"/>
</g>
<!-- Node149 -->
<g id="node11" class="node"><title>Node149</title>
<g id="a_node11"><a xlink:href="classopenage_1_1gui_1_1_game_control_link.xhtml#a0a4bb8a5d7b2e5637d317fe51f02ad5f" target="_top" xlink:title=" ">
<polygon fill="white" stroke="black" points="179.5,-186.5 179.5,-216.5 314.5,-216.5 314.5,-186.5 179.5,-186.5"/>
<text text-anchor="start" x="187.5" y="-204.5" font-family="Helvetica,sans-Serif" font-size="10.00">openage::gui::GameControl</text>
<text text-anchor="middle" x="247" y="-193.5" font-family="Helvetica,sans-Serif" font-size="10.00">Link::set_engine</text>
</a>
</g>
</g>
<!-- Node148&#45;&gt;Node149 -->
<g id="edge10" class="edge"><title>Node148&#45;&gt;Node149</title>
<path fill="none" stroke="midnightblue" d="M365.263,-201.5C348.73,-201.5 331.037,-201.5 314.536,-201.5"/>
<polygon fill="midnightblue" stroke="midnightblue" points="365.387,-205 375.387,-201.5 365.387,-198 365.387,-205"/>
</g>
<!-- Node153 -->
<g id="node15" class="node"><title>Node153</title>
<g id="a_node15"><a xlink:href="classopenage_1_1input_1_1_input_manager.xhtml#a368dbccb090d17ca142b1bfde0763011" target="_top" xlink:title="Return the string representation of the bind assignated to an action.">
<polygon fill="white" stroke="black" points="361,-98.5 361,-128.5 506,-128.5 506,-98.5 361,-98.5"/>
<text text-anchor="start" x="369" y="-116.5" font-family="Helvetica,sans-Serif" font-size="10.00">openage::input::InputManager</text>
<text text-anchor="middle" x="433.5" y="-105.5" font-family="Helvetica,sans-Serif" font-size="10.00">::get_bind</text>
</a>
</g>
</g>
<!-- Node152&#45;&gt;Node153 -->
<g id="edge14" class="edge"><title>Node152&#45;&gt;Node153</title>
<path fill="none" stroke="midnightblue" d="M541.522,-113.5C529.754,-113.5 517.722,-113.5 506.173,-113.5"/>
<polygon fill="midnightblue" stroke="midnightblue" points="541.778,-117 551.778,-113.5 541.778,-110 541.778,-117"/>
</g>
<!-- Node154 -->
<g id="node16" class="node"><title>Node154</title>
<g id="a_node16"><a xlink:href="classopenage_1_1input_1_1_action_manager.xhtml#a172292484fa92f4c391479d6e656808a" target="_top" xlink:title=" ">
<polygon fill="white" stroke="black" points="171,-98.5 171,-128.5 323,-128.5 323,-98.5 171,-98.5"/>
<text text-anchor="start" x="179" y="-116.5" font-family="Helvetica,sans-Serif" font-size="10.00">openage::input::ActionManager</text>
<text text-anchor="middle" x="247" y="-105.5" font-family="Helvetica,sans-Serif" font-size="10.00">::create</text>
</a>
</g>
</g>
<!-- Node153&#45;&gt;Node154 -->
<g id="edge15" class="edge"><title>Node153&#45;&gt;Node154</title>
<path fill="none" stroke="midnightblue" d="M350.669,-113.5C341.535,-113.5 332.263,-113.5 323.217,-113.5"/>
<polygon fill="midnightblue" stroke="midnightblue" points="350.903,-117 360.903,-113.5 350.903,-110 350.903,-117"/>
</g>
<!-- Node156 -->
<g id="node18" class="node"><title>Node156</title>
<g id="a_node18"><a xlink:href="classopenage_1_1_unit_selection.xhtml#a0a21b9382975a037b94a1331628b320c" target="_top" xlink:title="execute the drawing action.">
<polygon fill="white" stroke="black" points="375,-49.5 375,-79.5 492,-79.5 492,-49.5 375,-49.5"/>
<text text-anchor="start" x="383" y="-67.5" font-family="Helvetica,sans-Serif" font-size="10.00">openage::UnitSelection</text>
<text text-anchor="middle" x="433.5" y="-56.5" font-family="Helvetica,sans-Serif" font-size="10.00">::on_drawhud</text>
</a>
</g>
</g>
<!-- Node155&#45;&gt;Node156 -->
<g id="edge18" class="edge"><title>Node155&#45;&gt;Node156</title>
<path fill="none" stroke="midnightblue" d="M555.73,-64.5C534.936,-64.5 512.26,-64.5 492.205,-64.5"/>
<polygon fill="midnightblue" stroke="midnightblue" points="555.767,-68.0001 565.767,-64.5 555.767,-61.0001 555.767,-68.0001"/>
</g>
<!-- Node157 -->
<g id="node19" class="node"><title>Node157</title>
<g id="a_node19"><a xlink:href="classopenage_1_1_action_mode.xhtml#aab55848d4a5495b982df54fe1d41865b" target="_top" xlink:title="Display this mode.">
<polygon fill="white" stroke="black" points="191.5,-49.5 191.5,-79.5 302.5,-79.5 302.5,-49.5 191.5,-49.5"/>
<text text-anchor="start" x="199.5" y="-67.5" font-family="Helvetica,sans-Serif" font-size="10.00">openage::ActionMode</text>
<text text-anchor="middle" x="247" y="-56.5" font-family="Helvetica,sans-Serif" font-size="10.00">::render</text>
</a>
</g>
</g>
<!-- Node156&#45;&gt;Node157 -->
<g id="edge19" class="edge"><title>Node156&#45;&gt;Node157</title>
<path fill="none" stroke="midnightblue" d="M364.698,-64.5C344.271,-64.5 322.121,-64.5 302.663,-64.5"/>
<polygon fill="midnightblue" stroke="midnightblue" points="364.882,-68.0001 374.882,-64.5 364.882,-61.0001 364.882,-68.0001"/>
</g>
</g>
</svg>
        <g id="navigator" transform="translate(0 0)" fill="#404254">
                <rect fill="#f2f5e9" fill-opacity="0.5" stroke="#606060" stroke-width=".5" x="0" y="0" width="60" height="60"/>
                <use id="zoomplus" xlink:href="#zoomPlus" x="17" y="9" onmousedown="handleZoom(evt,'in')"/>
                <use id="zoomminus" xlink:href="#zoomMin" x="42" y="9" onmousedown="handleZoom(evt,'out')"/>
                <use id="reset" xlink:href="#resetDef" x="30" y="36" onmousedown="handleReset()"/>
                <g id="arrowUp" xlink:href="#dirArrow" transform="translate(30 24)" onmousedown="handlePan(0,-1)">
                  <use xlink:href="#rim" fill="#404040">
                        <set attributeName="fill" to="#808080" begin="arrowUp.mouseover" end="arrowUp.mouseout"/>
                  </use>
                  <path fill="none" stroke="white" stroke-width="1.5" d="M0,-3.0v7 M-2.5,-0.5L0,-3.0L2.5,-0.5"/>
                </g>
                <g id="arrowRight" xlink:href="#dirArrow" transform="rotate(90) translate(36 -43)" onmousedown="handlePan(1,0)">
                  <use xlink:href="#rim" fill="#404040">
                        <set attributeName="fill" to="#808080" begin="arrowRight.mouseover" end="arrowRight.mouseout"/>
                  </use>
                  <path fill="none" stroke="white" stroke-width="1.5" d="M0,-3.0v7 M-2.5,-0.5L0,-3.0L2.5,-0.5"/>
                </g>
                <g id="arrowDown" xlink:href="#dirArrow" transform="rotate(180) translate(-30 -48)" onmousedown="handlePan(0,1)">
                  <use xlink:href="#rim" fill="#404040">
                        <set attributeName="fill" to="#808080" begin="arrowDown.mouseover" end="arrowDown.mouseout"/>
                  </use>
                  <path fill="none" stroke="white" stroke-width="1.5" d="M0,-3.0v7 M-2.5,-0.5L0,-3.0L2.5,-0.5"/>
                </g>
                <g id="arrowLeft" xlink:href="#dirArrow" transform="rotate(270) translate(-36 17)" onmousedown="handlePan(-1,0)">
                  <use xlink:href="#rim" fill="#404040">
                        <set attributeName="fill" to="#808080" begin="arrowLeft.mouseover" end="arrowLeft.mouseout"/>
                  </use>
                  <path fill="none" stroke="white" stroke-width="1.5" d="M0,-3.0v7 M-2.5,-0.5L0,-3.0L2.5,-0.5"/>
                </g>
        </g>
        <svg viewBox="0 0 15 15" width="100%" height="30px" preserveAspectRatio="xMaxYMin meet">
         <g id="arrow_out" transform="scale(0.3 0.3)">
          <a xlink:href="namespacestd_a26aa0f4be3a77ac5cc3ce0cabb545042_icgraph_org.svg" target="_base">
           <rect id="button" ry="5" rx="5" y="6" x="6" height="38" width="38"
                fill="#f2f5e9" fill-opacity="0.5" stroke="#606060" stroke-width="1.0"/>
           <path id="arrow"
             d="M 11.500037,31.436501 C 11.940474,20.09759 22.043105,11.32322 32.158766,21.979434 L 37.068811,17.246167 C 37.068811,17.246167 37.088388,32 37.088388,32 L 22.160133,31.978069 C 22.160133,31.978069 26.997745,27.140456 26.997745,27.140456 C 18.528582,18.264221 13.291696,25.230495 11.500037,31.436501 z"
             style="fill:#404040;"/>
          </a>
         </g>
        </svg>
</svg>
