<?xml version="1.0" encoding="UTF-8" standalone="no"?>
<!DOCTYPE svg PUBLIC "-//W3C//DTD SVG 1.1//EN"
 "http://www.w3.org/Graphics/SVG/1.1/DTD/svg11.dtd">
<!-- Generated by graphviz version 2.38.0 (20140413.2041)
 -->
<!-- Title: openage::util::hash Pages: 1 -->
<!--zoomable 296 -->
<svg id="main" version="1.1" xmlns="http://www.w3.org/2000/svg" xmlns:xlink="http://www.w3.org/1999/xlink" xml:space="preserve" onload="init(evt)">
<style type="text/css"><![CDATA[
.edge:hover path { stroke: red; }
.edge:hover polygon { stroke: red; fill: red; }
]]></style>
<script type="text/javascript"><![CDATA[
var edges = document.getElementsByTagName('g');
if (edges && edges.length) {
  for (var i=0;i<edges.length;i++) {
    if (edges[i].id.substr(0,4)=='edge') {
      edges[i].setAttribute('class','edge');
    }
  }
}
]]></script>
        <defs>
                <circle id="rim" cx="0" cy="0" r="7"/>
                <circle id="rim2" cx="0" cy="0" r="3.5"/>
                <g id="zoomPlus">
                        <use xlink:href="#rim" fill="#404040">
                                <set attributeName="fill" to="#808080" begin="zoomplus.mouseover" end="zoomplus.mouseout"/>
                        </use>
                        <path d="M-4,0h8M0,-4v8" fill="none" stroke="white" stroke-width="1.5" pointer-events="none"/>
                </g>
                <g id="zoomMin">
                        <use xlink:href="#rim" fill="#404040">
                                <set attributeName="fill" to="#808080" begin="zoomminus.mouseover" end="zoomminus.mouseout"/>
                        </use>
                        <path d="M-4,0h8" fill="none" stroke="white" stroke-width="1.5" pointer-events="none"/>
                </g>
                <g id="dirArrow">
                        <path fill="none" stroke="white" stroke-width="1.5" d="M0,-3.0v7 M-2.5,-0.5L0,-3.0L2.5,-0.5"/>
                </g>
               <g id="resetDef">
                       <use xlink:href="#rim2" fill="#404040">
                               <set attributeName="fill" to="#808080" begin="reset.mouseover" end="reset.mouseout"/>
                       </use>
               </g>
        </defs>

<script type="text/javascript">
var viewWidth = 594;
var viewHeight = 296;
var sectionId = 'dynsection-22';
</script>
<script xlink:href="svgpan.js"/>
<svg id="graph" class="graph">
<g id="viewport">
<title>openage::util::hash</title>
<polygon fill="white" stroke="none" points="-4,4 -4,-291.5 590,-291.5 590,4 -4,4"/>
<!-- Node177 -->
<g id="node1" class="node"><title>Node177</title>
<g id="a_node1"><a xlink:title=" ">
<polygon fill="#bfbfbf" stroke="black" points="487,-139.5 487,-158.5 586,-158.5 586,-139.5 487,-139.5"/>
<text text-anchor="middle" x="536.5" y="-146.5" font-family="Helvetica,sans-Serif" font-size="10.00">openage::util::hash</text>
</a>
</g>
</g>
<!-- Node178 -->
<g id="node2" class="node"><title>Node178</title>
<g id="a_node2"><a xlink:href="classopenage_1_1convert_1_1dataformat_1_1header__snippet_1_1_header_snippet.xhtml#a3eb4f0dc98dbea6b9b2bbbcf3b2ac03c" target="_top" xlink:title="hash all relevant snippet properties">
<polygon fill="white" stroke="black" points="281.5,-257 281.5,-287 449.5,-287 449.5,-257 281.5,-257"/>
<text text-anchor="start" x="289.5" y="-275" font-family="Helvetica,sans-Serif" font-size="10.00">openage.convert.dataformat.header</text>
<text text-anchor="middle" x="365.5" y="-264" font-family="Helvetica,sans-Serif" font-size="10.00">_snippet.HeaderSnippet.__hash__</text>
</a>
</g>
</g>
<!-- Node177&#45;&gt;Node178 -->
<g id="edge1" class="edge"><title>Node177&#45;&gt;Node178</title>
<path fill="none" stroke="midnightblue" d="M524.835,-167.056C510.729,-189.372 483.783,-226.964 451,-248 445.609,-251.459 439.713,-254.429 433.622,-256.978"/>
<polygon fill="midnightblue" stroke="midnightblue" points="527.826,-168.874 530.074,-158.521 521.86,-165.213 527.826,-168.874"/>
</g>
<!-- Node179 -->
<g id="node3" class="node"><title>Node179</title>
<g id="a_node3"><a xlink:href="classopenage_1_1convert_1_1dataformat_1_1struct__snippet_1_1_struct_snippet.xhtml#a9e739fd9d74f6571c56fea8df3f70e76" target="_top" xlink:title="hash all relevant snippet properties">
<polygon fill="white" stroke="black" points="283.5,-208 283.5,-238 447.5,-238 447.5,-208 283.5,-208"/>
<text text-anchor="start" x="291.5" y="-226" font-family="Helvetica,sans-Serif" font-size="10.00">openage.convert.dataformat.struct</text>
<text text-anchor="middle" x="365.5" y="-215" font-family="Helvetica,sans-Serif" font-size="10.00">_snippet.StructSnippet.__hash__</text>
</a>
</g>
</g>
<!-- Node177&#45;&gt;Node179 -->
<g id="edge2" class="edge"><title>Node177&#45;&gt;Node179</title>
<path fill="none" stroke="midnightblue" d="M513.298,-164.292C496.725,-175.162 473.203,-189.468 451,-199 443.293,-202.309 434.997,-205.304 426.721,-207.967"/>
<polygon fill="midnightblue" stroke="midnightblue" points="515.364,-167.121 521.738,-158.658 511.478,-161.299 515.364,-167.121"/>
</g>
<!-- Node180 -->
<g id="node4" class="node"><title>Node180</title>
<g id="a_node4"><a xlink:href="classopenage_1_1convert_1_1dataformat_1_1content__snippet_1_1_content_snippet.xhtml#aac51f2cc25a8fd6dd2949923bd704169" target="_top" xlink:title="hash all relevant snippet properties">
<polygon fill="white" stroke="black" points="280,-159 280,-189 451,-189 451,-159 280,-159"/>
<text text-anchor="start" x="288" y="-177" font-family="Helvetica,sans-Serif" font-size="10.00">openage.convert.dataformat.content</text>
<text text-anchor="middle" x="365.5" y="-166" font-family="Helvetica,sans-Serif" font-size="10.00">_snippet.ContentSnippet.__hash__</text>
</a>
</g>
</g>
<!-- Node177&#45;&gt;Node180 -->
<g id="edge3" class="edge"><title>Node177&#45;&gt;Node180</title>
<path fill="none" stroke="midnightblue" d="M476.481,-157.731C468.308,-158.94 459.786,-160.2 451.259,-161.462"/>
<polygon fill="midnightblue" stroke="midnightblue" points="477.238,-161.157 486.618,-156.231 476.214,-154.232 477.238,-161.157"/>
</g>
<!-- Node181 -->
<g id="node5" class="node"><title>Node181</title>
<g id="a_node5"><a xlink:href="classopenage_1_1util_1_1_siphash.xhtml#a59bdccc7e794fe057e4777031a177650" target="_top" xlink:title=" ">
<polygon fill="white" stroke="black" points="309,-110 309,-140 422,-140 422,-110 309,-110"/>
<text text-anchor="start" x="317" y="-128" font-family="Helvetica,sans-Serif" font-size="10.00">openage::util::Siphash</text>
<text text-anchor="middle" x="365.5" y="-117" font-family="Helvetica,sans-Serif" font-size="10.00">::digest</text>
</a>
</g>
</g>
<!-- Node177&#45;&gt;Node181 -->
<g id="edge4" class="edge"><title>Node177&#45;&gt;Node181</title>
<path fill="none" stroke="midnightblue" d="M476.445,-140.613C458.801,-138.108 439.524,-135.37 422.109,-132.897"/>
<polygon fill="midnightblue" stroke="midnightblue" points="476.225,-144.117 486.618,-142.058 477.21,-137.187 476.225,-144.117"/>
</g>
<!-- Node182 -->
<g id="node6" class="node"><title>Node182</title>
<g id="a_node6"><a xlink:href="classopenage_1_1renderer_1_1_glyph_atlas.xhtml#a936adb09a68c1fc46e9572cd2866d961" target="_top" xlink:title=" ">
<polygon fill="white" stroke="black" points="297,-61 297,-91 434,-91 434,-61 297,-61"/>
<text text-anchor="start" x="305" y="-79" font-family="Helvetica,sans-Serif" font-size="10.00">openage::renderer::</text>
<text text-anchor="middle" x="365.5" y="-68" font-family="Helvetica,sans-Serif" font-size="10.00">GlyphAtlas::get_cache_key</text>
</a>
</g>
</g>
<!-- Node177&#45;&gt;Node182 -->
<g id="edge5" class="edge"><title>Node177&#45;&gt;Node182</title>
<path fill="none" stroke="midnightblue" d="M512.585,-134.073C495.991,-123.745 472.746,-110.249 451,-101 442.412,-97.3476 433.119,-94.0164 423.945,-91.0606"/>
<polygon fill="midnightblue" stroke="midnightblue" points="510.746,-137.051 521.068,-139.438 514.487,-131.135 510.746,-137.051"/>
</g>
<!-- Node185 -->
<g id="node9" class="node"><title>Node185</title>
<g id="a_node9"><a xlink:href="structstd_1_1hash_3_01openage_1_1renderer_1_1font__description_01_4.xhtml#a69356bbc9713e82eb3c678c45181c760" target="_top" xlink:title=" ">
<polygon fill="white" stroke="black" points="299.5,-0.5 299.5,-41.5 431.5,-41.5 431.5,-0.5 299.5,-0.5"/>
<text text-anchor="start" x="307.5" y="-29.5" font-family="Helvetica,sans-Serif" font-size="10.00">std::hash&lt; openage</text>
<text text-anchor="start" x="307.5" y="-18.5" font-family="Helvetica,sans-Serif" font-size="10.00">::renderer::font_description</text>
<text text-anchor="middle" x="365.5" y="-7.5" font-family="Helvetica,sans-Serif" font-size="10.00"> &gt;::operator()</text>
</a>
</g>
</g>
<!-- Node177&#45;&gt;Node185 -->
<g id="edge8" class="edge"><title>Node177&#45;&gt;Node185</title>
<path fill="none" stroke="midnightblue" d="M523.852,-130.751C509.232,-109.182 482.249,-73.5114 451,-52 445.079,-47.9242 438.558,-44.3122 431.843,-41.129"/>
<polygon fill="midnightblue" stroke="midnightblue" points="521.072,-132.893 529.504,-139.309 526.913,-129.035 521.072,-132.893"/>
</g>
<!-- Node183 -->
<g id="node7" class="node"><title>Node183</title>
<g id="a_node7"><a xlink:href="classopenage_1_1renderer_1_1_glyph_atlas.xhtml#ae5ac0cf0b966e3636c0f9a950e3f1870" target="_top" xlink:title=" ">
<polygon fill="white" stroke="black" points="143,-61 143,-91 244,-91 244,-61 143,-61"/>
<text text-anchor="start" x="151" y="-79" font-family="Helvetica,sans-Serif" font-size="10.00">openage::renderer::</text>
<text text-anchor="middle" x="193.5" y="-68" font-family="Helvetica,sans-Serif" font-size="10.00">GlyphAtlas::get</text>
</a>
</g>
</g>
<!-- Node182&#45;&gt;Node183 -->
<g id="edge6" class="edge"><title>Node182&#45;&gt;Node183</title>
<path fill="none" stroke="midnightblue" d="M286.42,-76C272.037,-76 257.387,-76 244.133,-76"/>
<polygon fill="midnightblue" stroke="midnightblue" points="286.823,-79.5001 296.823,-76 286.823,-72.5001 286.823,-79.5001"/>
</g>
<!-- Node184 -->
<g id="node8" class="node"><title>Node184</title>
<g id="a_node8"><a xlink:href="classopenage_1_1renderer_1_1_text_renderer.xhtml#ad5f8238ffefc1fcf24366c34141b710e" target="_top" xlink:title=" ">
<polygon fill="white" stroke="black" points="0,-61 0,-91 107,-91 107,-61 0,-61"/>
<text text-anchor="start" x="8" y="-79" font-family="Helvetica,sans-Serif" font-size="10.00">openage::renderer::</text>
<text text-anchor="middle" x="53.5" y="-68" font-family="Helvetica,sans-Serif" font-size="10.00">TextRenderer::render</text>
</a>
</g>
</g>
<!-- Node183&#45;&gt;Node184 -->
<g id="edge7" class="edge"><title>Node183&#45;&gt;Node184</title>
<path fill="none" stroke="midnightblue" d="M132.475,-76C124.007,-76 115.354,-76 107.041,-76"/>
<polygon fill="midnightblue" stroke="midnightblue" points="132.679,-79.5001 142.679,-76 132.679,-72.5001 132.679,-79.5001"/>
</g>
</g>
</svg>
        <g id="navigator" transform="translate(0 0)" fill="#404254">
                <rect fill="#f2f5e9" fill-opacity="0.5" stroke="#606060" stroke-width=".5" x="0" y="0" width="60" height="60"/>
                <use id="zoomplus" xlink:href="#zoomPlus" x="17" y="9" onmousedown="handleZoom(evt,'in')"/>
                <use id="zoomminus" xlink:href="#zoomMin" x="42" y="9" onmousedown="handleZoom(evt,'out')"/>
                <use id="reset" xlink:href="#resetDef" x="30" y="36" onmousedown="handleReset()"/>
                <g id="arrowUp" xlink:href="#dirArrow" transform="translate(30 24)" onmousedown="handlePan(0,-1)">
                  <use xlink:href="#rim" fill="#404040">
                        <set attributeName="fill" to="#808080" begin="arrowUp.mouseover" end="arrowUp.mouseout"/>
                  </use>
                  <path fill="none" stroke="white" stroke-width="1.5" d="M0,-3.0v7 M-2.5,-0.5L0,-3.0L2.5,-0.5"/>
                </g>
                <g id="arrowRight" xlink:href="#dirArrow" transform="rotate(90) translate(36 -43)" onmousedown="handlePan(1,0)">
                  <use xlink:href="#rim" fill="#404040">
                        <set attributeName="fill" to="#808080" begin="arrowRight.mouseover" end="arrowRight.mouseout"/>
                  </use>
                  <path fill="none" stroke="white" stroke-width="1.5" d="M0,-3.0v7 M-2.5,-0.5L0,-3.0L2.5,-0.5"/>
                </g>
                <g id="arrowDown" xlink:href="#dirArrow" transform="rotate(180) translate(-30 -48)" onmousedown="handlePan(0,1)">
                  <use xlink:href="#rim" fill="#404040">
                        <set attributeName="fill" to="#808080" begin="arrowDown.mouseover" end="arrowDown.mouseout"/>
                  </use>
                  <path fill="none" stroke="white" stroke-width="1.5" d="M0,-3.0v7 M-2.5,-0.5L0,-3.0L2.5,-0.5"/>
                </g>
                <g id="arrowLeft" xlink:href="#dirArrow" transform="rotate(270) translate(-36 17)" onmousedown="handlePan(-1,0)">
                  <use xlink:href="#rim" fill="#404040">
                        <set attributeName="fill" to="#808080" begin="arrowLeft.mouseover" end="arrowLeft.mouseout"/>
                  </use>
                  <path fill="none" stroke="white" stroke-width="1.5" d="M0,-3.0v7 M-2.5,-0.5L0,-3.0L2.5,-0.5"/>
                </g>
        </g>
        <svg viewBox="0 0 15 15" width="100%" height="30px" preserveAspectRatio="xMaxYMin meet">
         <g id="arrow_out" transform="scale(0.3 0.3)">
          <a xlink:href="namespaceopenage_1_1util_a3cb605abe74b26763ac7340c3785656a_icgraph_org.svg" target="_base">
           <rect id="button" ry="5" rx="5" y="6" x="6" height="38" width="38"
                fill="#f2f5e9" fill-opacity="0.5" stroke="#606060" stroke-width="1.0"/>
           <path id="arrow"
             d="M 11.500037,31.436501 C 11.940474,20.09759 22.043105,11.32322 32.158766,21.979434 L 37.068811,17.246167 C 37.068811,17.246167 37.088388,32 37.088388,32 L 22.160133,31.978069 C 22.160133,31.978069 26.997745,27.140456 26.997745,27.140456 C 18.528582,18.264221 13.291696,25.230495 11.500037,31.436501 z"
             style="fill:#404040;"/>
          </a>
         </g>
        </svg>
</svg>
