<?xml version="1.0" encoding="UTF-8" standalone="no"?>
<!DOCTYPE svg PUBLIC "-//W3C//DTD SVG 1.1//EN"
 "http://www.w3.org/Graphics/SVG/1.1/DTD/svg11.dtd">
<!-- Generated by graphviz version 2.38.0 (20140413.2041)
 -->
<!-- Title: openage.convert.driver.change_dir Pages: 1 -->
<svg width="920pt" height="66pt"
 viewBox="0.00 0.00 920.00 66.00" xmlns="http://www.w3.org/2000/svg" xmlns:xlink="http://www.w3.org/1999/xlink">
<g id="graph0" class="graph" transform="scale(1 1) rotate(0) translate(4 62)">
<title>openage.convert.driver.change_dir</title>
<polygon fill="white" stroke="none" points="-4,4 -4,-62 916,-62 916,4 -4,4"/>
<!-- Node4 -->
<g id="node1" class="node"><title>Node4</title>
<g id="a_node1"><a xlink:title=" ">
<polygon fill="#bfbfbf" stroke="black" points="749,-19.5 749,-38.5 912,-38.5 912,-19.5 749,-19.5"/>
<text text-anchor="middle" x="830.5" y="-26.5" font-family="Helvetica,sans-Serif" font-size="10.00">openage.convert.driver.change_dir</text>
</a>
</g>
</g>
<!-- Node5 -->
<g id="node2" class="node"><title>Node5</title>
<g id="a_node2"><a xlink:href="namespaceopenage_1_1convert_1_1driver.xhtml#a7d1272350acf362f78ea6e0373880c59" target="_top" xlink:title=" ">
<polygon fill="white" stroke="black" points="547.5,-38.5 547.5,-57.5 711.5,-57.5 711.5,-38.5 547.5,-38.5"/>
<text text-anchor="middle" x="629.5" y="-45.5" font-family="Helvetica,sans-Serif" font-size="10.00">openage.convert.driver.convert_slp</text>
</a>
</g>
</g>
<!-- Node4&#45;&gt;Node5 -->
<g id="edge1" class="edge"><title>Node4&#45;&gt;Node5</title>
<path fill="none" stroke="midnightblue" d="M738.698,-37.6696C729.658,-38.5326 720.523,-39.4049 711.592,-40.2575"/>
<polygon fill="midnightblue" stroke="midnightblue" points="739.224,-41.1353 748.846,-36.7006 738.559,-34.167 739.224,-41.1353"/>
</g>
<!-- Node9 -->
<g id="node6" class="node"><title>Node9</title>
<g id="a_node6"><a xlink:href="namespaceopenage_1_1convert_1_1driver.xhtml#ac829030d79b4d14be0f6cf8c1eb035a8" target="_top" xlink:title="Convert a wav audio file to an opus file.">
<polygon fill="white" stroke="black" points="546,-0.5 546,-19.5 713,-19.5 713,-0.5 546,-0.5"/>
<text text-anchor="middle" x="629.5" y="-7.5" font-family="Helvetica,sans-Serif" font-size="10.00">openage.convert.driver.convert_wav</text>
</a>
</g>
</g>
<!-- Node4&#45;&gt;Node9 -->
<g id="edge5" class="edge"><title>Node4&#45;&gt;Node9</title>
<path fill="none" stroke="midnightblue" d="M738.866,-20.3465C730.318,-19.5303 721.681,-18.7057 713.212,-17.8971"/>
<polygon fill="midnightblue" stroke="midnightblue" points="738.559,-23.833 748.846,-21.2994 739.224,-16.8647 738.559,-23.833"/>
</g>
<!-- Node6 -->
<g id="node3" class="node"><title>Node6</title>
<g id="a_node3"><a xlink:href="namespaceopenage_1_1convert_1_1driver.xhtml#a43cdddabcdd60c8443967f3b81047bd4" target="_top" xlink:title=" ">
<polygon fill="white" stroke="black" points="364,-14 364,-44 510,-44 510,-14 364,-14"/>
<text text-anchor="start" x="372" y="-32" font-family="Helvetica,sans-Serif" font-size="10.00">openage.convert.driver.convert</text>
<text text-anchor="middle" x="437" y="-21" font-family="Helvetica,sans-Serif" font-size="10.00">_mediafile</text>
</a>
</g>
</g>
<!-- Node5&#45;&gt;Node6 -->
<g id="edge2" class="edge"><title>Node5&#45;&gt;Node6</title>
<path fill="none" stroke="midnightblue" d="M537.244,-38.8984C528.185,-37.9948 519.077,-37.0865 510.25,-36.206"/>
<polygon fill="midnightblue" stroke="midnightblue" points="537.137,-42.4049 547.435,-39.9147 537.831,-35.4395 537.137,-42.4049"/>
</g>
<!-- Node7 -->
<g id="node4" class="node"><title>Node7</title>
<g id="a_node4"><a xlink:href="namespaceopenage_1_1convert_1_1driver.xhtml#ad7f7fa271abe4e1c3bc43160e84bc58f" target="_top" xlink:title="Converts the media part.">
<polygon fill="white" stroke="black" points="182,-14 182,-44 328,-44 328,-14 182,-14"/>
<text text-anchor="start" x="190" y="-32" font-family="Helvetica,sans-Serif" font-size="10.00">openage.convert.driver.convert</text>
<text text-anchor="middle" x="255" y="-21" font-family="Helvetica,sans-Serif" font-size="10.00">_media</text>
</a>
</g>
</g>
<!-- Node6&#45;&gt;Node7 -->
<g id="edge3" class="edge"><title>Node6&#45;&gt;Node7</title>
<path fill="none" stroke="midnightblue" d="M353.561,-29C345.094,-29 336.536,-29 328.192,-29"/>
<polygon fill="midnightblue" stroke="midnightblue" points="353.824,-32.5001 363.824,-29 353.824,-25.5001 353.824,-32.5001"/>
</g>
<!-- Node8 -->
<g id="node5" class="node"><title>Node8</title>
<g id="a_node5"><a xlink:href="namespaceopenage_1_1convert_1_1driver.xhtml#ac0a5dae7195fabd749cffb70a062a647" target="_top" xlink:title=" ">
<polygon fill="white" stroke="black" points="0,-19.5 0,-38.5 146,-38.5 146,-19.5 0,-19.5"/>
<text text-anchor="middle" x="73" y="-26.5" font-family="Helvetica,sans-Serif" font-size="10.00">openage.convert.driver.convert</text>
</a>
</g>
</g>
<!-- Node7&#45;&gt;Node8 -->
<g id="edge4" class="edge"><title>Node7&#45;&gt;Node8</title>
<path fill="none" stroke="midnightblue" d="M171.561,-29C163.094,-29 154.536,-29 146.192,-29"/>
<polygon fill="midnightblue" stroke="midnightblue" points="171.824,-32.5001 181.824,-29 171.824,-25.5001 171.824,-32.5001"/>
</g>
<!-- Node9&#45;&gt;Node6 -->
<g id="edge6" class="edge"><title>Node9&#45;&gt;Node6</title>
<path fill="none" stroke="midnightblue" d="M535.732,-19.2524C527.152,-20.1082 518.546,-20.9666 510.191,-21.7999"/>
<polygon fill="midnightblue" stroke="midnightblue" points="536.172,-22.726 545.775,-18.2508 535.477,-15.7606 536.172,-22.726"/>
</g>
</g>
</svg>
