<?xml version="1.0" encoding="UTF-8" standalone="no"?>
<!DOCTYPE svg PUBLIC "-//W3C//DTD SVG 1.1//EN"
 "http://www.w3.org/Graphics/SVG/1.1/DTD/svg11.dtd">
<!-- Generated by graphviz version 2.38.0 (20140413.2041)
 -->
<!-- Title: openage::util::array64_to_array8 Pages: 1 -->
<svg width="570pt" height="61pt"
 viewBox="0.00 0.00 570.00 61.00" xmlns="http://www.w3.org/2000/svg" xmlns:xlink="http://www.w3.org/1999/xlink">
<g id="graph0" class="graph" transform="scale(1 1) rotate(0) translate(4 57)">
<title>openage::util::array64_to_array8</title>
<polygon fill="white" stroke="none" points="-4,4 -4,-57 566,-57 566,4 -4,4"/>
<!-- Node18 -->
<g id="node1" class="node"><title>Node18</title>
<g id="a_node1"><a xlink:title=" ">
<polygon fill="#bfbfbf" stroke="black" points="0,-22.5 0,-52.5 110,-52.5 110,-22.5 0,-22.5"/>
<text text-anchor="start" x="8" y="-40.5" font-family="Helvetica,sans-Serif" font-size="10.00">openage::util::array64</text>
<text text-anchor="middle" x="55" y="-29.5" font-family="Helvetica,sans-Serif" font-size="10.00">_to_array8</text>
</a>
</g>
</g>
<!-- Node19 -->
<g id="node2" class="node"><title>Node19</title>
<g id="a_node2"><a xlink:href="namespaceopenage_1_1testing_1_1testing.xhtml#ac25bf81db406af62d08113ef7ae9fd6e" target="_top" xlink:title=" ">
<polygon fill="white" stroke="black" points="286,-28 286,-47 431,-47 431,-28 286,-28"/>
<text text-anchor="middle" x="358.5" y="-35" font-family="Helvetica,sans-Serif" font-size="10.00">openage.testing.testing.result</text>
</a>
</g>
</g>
<!-- Node18&#45;&gt;Node19 -->
<g id="edge1" class="edge"><title>Node18&#45;&gt;Node19</title>
<path fill="none" stroke="midnightblue" d="M110.248,-39.6007C122.033,-39.9753 134.433,-40.3073 146,-40.5 192.216,-41.27 203.782,-41.1448 250,-40.5 258.319,-40.3839 267,-40.2174 275.663,-40.0214"/>
<polygon fill="midnightblue" stroke="midnightblue" points="275.89,-43.5171 285.803,-39.7791 275.722,-36.5191 275.89,-43.5171"/>
</g>
<!-- Node21 -->
<g id="node4" class="node"><title>Node21</title>
<g id="a_node4"><a xlink:href="namespaceopenage_1_1util.xhtml#ae9d6c19aadc0f6a1d502f42852172de0" target="_top" xlink:title=" ">
<polygon fill="white" stroke="black" points="146,-0.5 146,-30.5 250,-30.5 250,-0.5 146,-0.5"/>
<text text-anchor="start" x="154" y="-18.5" font-family="Helvetica,sans-Serif" font-size="10.00">openage::util::uint64</text>
<text text-anchor="middle" x="198" y="-7.5" font-family="Helvetica,sans-Serif" font-size="10.00">_to_array8</text>
</a>
</g>
</g>
<!-- Node18&#45;&gt;Node21 -->
<g id="edge4" class="edge"><title>Node18&#45;&gt;Node21</title>
<path fill="none" stroke="midnightblue" d="M110.111,-29.0571C118.484,-27.7507 127.183,-26.3934 135.7,-25.0645"/>
<polygon fill="midnightblue" stroke="midnightblue" points="136.244,-28.5221 145.585,-23.5223 135.165,-21.6058 136.244,-28.5221"/>
</g>
<!-- Node20 -->
<g id="node3" class="node"><title>Node20</title>
<g id="a_node3"><a xlink:href="namespaceopenage_1_1util.xhtml#a7bc4421a5f0f57f3a0aba3f96eb8d19c" target="_top" xlink:title=" ">
<polygon fill="white" stroke="black" points="467,-28 467,-47 562,-47 562,-28 467,-28"/>
<text text-anchor="middle" x="514.5" y="-35" font-family="Helvetica,sans-Serif" font-size="10.00">openage::util::repr</text>
</a>
</g>
</g>
<!-- Node19&#45;&gt;Node20 -->
<g id="edge2" class="edge"><title>Node19&#45;&gt;Node20</title>
<path fill="none" stroke="midnightblue" d="M431.09,-30.7648C439.595,-30.7181 448.189,-30.7817 456.453,-30.9556"/>
<polygon fill="midnightblue" stroke="midnightblue" points="456.622,-34.4614 466.713,-31.2348 456.812,-27.464 456.622,-34.4614"/>
</g>
<!-- Node20&#45;&gt;Node19 -->
<g id="edge3" class="edge"><title>Node20&#45;&gt;Node19</title>
<path fill="none" stroke="midnightblue" d="M466.713,-43.7652C458.626,-44.0381 450.01,-44.1958 441.312,-44.2383"/>
<polygon fill="midnightblue" stroke="midnightblue" points="441.091,-40.7383 431.09,-44.2352 441.089,-47.7383 441.091,-40.7383"/>
</g>
<!-- Node21&#45;&gt;Node19 -->
<g id="edge5" class="edge"><title>Node21&#45;&gt;Node19</title>
<path fill="none" stroke="midnightblue" d="M250.023,-22.582C259.225,-23.8592 269.01,-25.2175 278.785,-26.5743"/>
<polygon fill="midnightblue" stroke="midnightblue" points="278.557,-30.076 288.943,-27.9842 279.519,-23.1425 278.557,-30.076"/>
</g>
</g>
</svg>
