<?xml version="1.0" encoding="UTF-8" standalone="no"?>
<!DOCTYPE svg PUBLIC "-//W3C//DTD SVG 1.1//EN"
 "http://www.w3.org/Graphics/SVG/1.1/DTD/svg11.dtd">
<!-- Generated by graphviz version 2.38.0 (20140413.2041)
 -->
<!-- Title: openage::renderer::vulkan::vlk_debug_cb Pages: 1 -->
<svg width="606pt" height="132pt"
 viewBox="0.00 0.00 606.00 132.00" xmlns="http://www.w3.org/2000/svg" xmlns:xlink="http://www.w3.org/1999/xlink">
<g id="graph0" class="graph" transform="scale(1 1) rotate(0) translate(4 128)">
<title>openage::renderer::vulkan::vlk_debug_cb</title>
<polygon fill="white" stroke="none" points="-4,4 -4,-128 602,-128 602,4 -4,4"/>
<!-- Node14 -->
<g id="node1" class="node"><title>Node14</title>
<g id="a_node1"><a xlink:title=" ">
<polygon fill="#bfbfbf" stroke="black" points="0,-80 0,-110 108,-110 108,-80 0,-80"/>
<text text-anchor="start" x="8" y="-98" font-family="Helvetica,sans-Serif" font-size="10.00">openage::renderer::</text>
<text text-anchor="middle" x="54" y="-87" font-family="Helvetica,sans-Serif" font-size="10.00">vulkan::vlk_debug_cb</text>
</a>
</g>
</g>
<!-- Node15 -->
<g id="node2" class="node"><title>Node15</title>
<g id="a_node2"><a xlink:href="namespaceopenage_1_1log.xhtml#aad3d76b2466dbc4f81552935f2d84faa" target="_top" xlink:title="debug message">
<polygon fill="white" stroke="black" points="145.5,-104.5 145.5,-123.5 233.5,-123.5 233.5,-104.5 145.5,-104.5"/>
<text text-anchor="middle" x="189.5" y="-111.5" font-family="Helvetica,sans-Serif" font-size="10.00">openage.log.dbg</text>
</a>
</g>
</g>
<!-- Node14&#45;&gt;Node15 -->
<g id="edge1" class="edge"><title>Node14&#45;&gt;Node15</title>
<path fill="none" stroke="midnightblue" d="M108.146,-102.564C117.127,-103.842 126.452,-105.169 135.431,-106.447"/>
<polygon fill="midnightblue" stroke="midnightblue" points="134.992,-109.92 145.385,-107.864 135.978,-102.99 134.992,-109.92"/>
</g>
<!-- Node16 -->
<g id="node3" class="node"><title>Node16</title>
<g id="a_node3"><a xlink:href="namespaceopenage_1_1log.xhtml#a0eff614e7d6e818746700ed9d29e583f" target="_top" xlink:title=" ">
<polygon fill="white" stroke="black" points="144,-66.5 144,-85.5 235,-85.5 235,-66.5 144,-66.5"/>
<text text-anchor="middle" x="189.5" y="-73.5" font-family="Helvetica,sans-Serif" font-size="10.00">openage::log::log</text>
</a>
</g>
</g>
<!-- Node14&#45;&gt;Node16 -->
<g id="edge2" class="edge"><title>Node14&#45;&gt;Node16</title>
<path fill="none" stroke="midnightblue" d="M108.146,-87.4361C116.521,-86.2442 125.194,-85.0099 133.607,-83.8125"/>
<polygon fill="midnightblue" stroke="midnightblue" points="134.296,-87.2498 143.703,-82.3757 133.309,-80.3197 134.296,-87.2498"/>
</g>
<!-- Node17 -->
<g id="node4" class="node"><title>Node17</title>
<g id="a_node4"><a xlink:href="namespaceopenage_1_1log.xhtml#a3fbb0c225d01e222648ec28a43507188" target="_top" xlink:title=" ">
<polygon fill="white" stroke="black" points="287.5,-83 287.5,-113 397.5,-113 397.5,-83 287.5,-83"/>
<text text-anchor="start" x="295.5" y="-101" font-family="Helvetica,sans-Serif" font-size="10.00">openage::log::general</text>
<text text-anchor="middle" x="342.5" y="-90" font-family="Helvetica,sans-Serif" font-size="10.00">_source</text>
</a>
</g>
</g>
<!-- Node16&#45;&gt;Node17 -->
<g id="edge3" class="edge"><title>Node16&#45;&gt;Node17</title>
<path fill="none" stroke="midnightblue" d="M235.396,-82.5412C248.548,-84.4573 263.191,-86.5907 277.296,-88.6457"/>
<polygon fill="midnightblue" stroke="midnightblue" points="277.042,-92.1456 287.442,-90.124 278.051,-85.2188 277.042,-92.1456"/>
</g>
<!-- Node18 -->
<g id="node5" class="node"><title>Node18</title>
<g id="a_node5"><a xlink:href="classopenage_1_1log_1_1_log_source.xhtml#a5640099e20af4cd368c767dbcef3a1df" target="_top" xlink:title=" ">
<polygon fill="white" stroke="black" points="271,-44.5 271,-63.5 414,-63.5 414,-44.5 271,-44.5"/>
<text text-anchor="middle" x="342.5" y="-51.5" font-family="Helvetica,sans-Serif" font-size="10.00">openage::log::LogSource::log</text>
</a>
</g>
</g>
<!-- Node16&#45;&gt;Node18 -->
<g id="edge4" class="edge"><title>Node16&#45;&gt;Node18</title>
<path fill="none" stroke="midnightblue" d="M235.396,-69.4588C245.081,-68.0479 255.574,-66.5191 266.065,-64.9905"/>
<polygon fill="midnightblue" stroke="midnightblue" points="266.706,-68.4342 276.097,-63.5289 265.697,-61.5073 266.706,-68.4342"/>
</g>
<!-- Node19 -->
<g id="node6" class="node"><title>Node19</title>
<g id="a_node6"><a xlink:href="namespaceopenage_1_1log.xhtml#a3d2885be9c3a09b9ff7ee8764b2e5f39" target="_top" xlink:title=" ">
<polygon fill="white" stroke="black" points="472,-88 472,-118 576,-118 576,-88 472,-88"/>
<text text-anchor="start" x="480" y="-106" font-family="Helvetica,sans-Serif" font-size="10.00">openage::log::global</text>
<text text-anchor="middle" x="524" y="-95" font-family="Helvetica,sans-Serif" font-size="10.00">_stdoutsink</text>
</a>
</g>
</g>
<!-- Node18&#45;&gt;Node19 -->
<g id="edge5" class="edge"><title>Node18&#45;&gt;Node19</title>
<path fill="none" stroke="midnightblue" d="M378.536,-63.564C402.265,-70.0416 434.246,-78.7718 462.085,-86.3714"/>
<polygon fill="midnightblue" stroke="midnightblue" points="461.17,-89.7497 471.739,-89.0067 463.014,-82.9968 461.17,-89.7497"/>
</g>
<!-- Node20 -->
<g id="node7" class="node"><title>Node20</title>
<g id="a_node7"><a xlink:href="classopenage_1_1log_1_1_log_sink_list.xhtml#a2d47416fab12651553b4b58c86fd6f84" target="_top" xlink:title=" ">
<polygon fill="white" stroke="black" points="459.5,-39 459.5,-69 588.5,-69 588.5,-39 459.5,-39"/>
<text text-anchor="start" x="467.5" y="-57" font-family="Helvetica,sans-Serif" font-size="10.00">openage::log::LogSinkList</text>
<text text-anchor="middle" x="524" y="-46" font-family="Helvetica,sans-Serif" font-size="10.00">::instance</text>
</a>
</g>
</g>
<!-- Node18&#45;&gt;Node20 -->
<g id="edge6" class="edge"><title>Node18&#45;&gt;Node20</title>
<path fill="none" stroke="midnightblue" d="M414.185,-54C425.719,-54 437.693,-54 449.297,-54"/>
<polygon fill="midnightblue" stroke="midnightblue" points="449.38,-57.5001 459.379,-54 449.379,-50.5001 449.38,-57.5001"/>
</g>
<!-- Node21 -->
<g id="node8" class="node"><title>Node21</title>
<g id="a_node8"><a xlink:href="classopenage_1_1log_1_1_log_sink_list.xhtml#a8456b84ab55e1fe151c51438c5bfebdd" target="_top" xlink:title=" ">
<polygon fill="white" stroke="black" points="450,-0.5 450,-19.5 598,-19.5 598,-0.5 450,-0.5"/>
<text text-anchor="middle" x="524" y="-7.5" font-family="Helvetica,sans-Serif" font-size="10.00">openage::log::LogSinkList::log</text>
</a>
</g>
</g>
<!-- Node18&#45;&gt;Node21 -->
<g id="edge7" class="edge"><title>Node18&#45;&gt;Node21</title>
<path fill="none" stroke="midnightblue" d="M382.449,-44.4527C409.382,-37.8508 445.415,-29.0181 474.253,-21.949"/>
<polygon fill="midnightblue" stroke="midnightblue" points="475.248,-25.3089 484.127,-19.5287 473.581,-18.5102 475.248,-25.3089"/>
</g>
</g>
</svg>
