<?xml version="1.0" encoding="UTF-8" standalone="no"?>
<!DOCTYPE svg PUBLIC "-//W3C//DTD SVG 1.1//EN"
 "http://www.w3.org/Graphics/SVG/1.1/DTD/svg11.dtd">
<!-- Generated by graphviz version 2.38.0 (20140413.2041)
 -->
<!-- Title: openage.convert.driver.extract_mediafiles_names_map Pages: 1 -->
<svg width="594pt" height="39pt"
 viewBox="0.00 0.00 594.00 39.00" xmlns="http://www.w3.org/2000/svg" xmlns:xlink="http://www.w3.org/1999/xlink">
<g id="graph0" class="graph" transform="scale(1 1) rotate(0) translate(4 35)">
<title>openage.convert.driver.extract_mediafiles_names_map</title>
<polygon fill="white" stroke="none" points="-4,4 -4,-35 590,-35 590,4 -4,4"/>
<!-- Node124 -->
<g id="node1" class="node"><title>Node124</title>
<g id="a_node1"><a xlink:title=" ">
<polygon fill="#bfbfbf" stroke="black" points="0,-0.5 0,-30.5 146,-30.5 146,-0.5 0,-0.5"/>
<text text-anchor="start" x="8" y="-18.5" font-family="Helvetica,sans-Serif" font-size="10.00">openage.convert.driver.extract</text>
<text text-anchor="middle" x="73" y="-7.5" font-family="Helvetica,sans-Serif" font-size="10.00">_mediafiles_names_map</text>
</a>
</g>
</g>
<!-- Node125 -->
<g id="node2" class="node"><title>Node125</title>
<g id="a_node2"><a xlink:href="namespaceopenage_1_1py.xhtml#a5ba80af3e9224d2de11179ce232f75d9" target="_top" xlink:title=" ">
<polygon fill="white" stroke="black" points="182,-6 182,-25 274,-25 274,-6 182,-6"/>
<text text-anchor="middle" x="228" y="-13" font-family="Helvetica,sans-Serif" font-size="10.00">openage::py::dict</text>
</a>
</g>
</g>
<!-- Node124&#45;&gt;Node125 -->
<g id="edge1" class="edge"><title>Node124&#45;&gt;Node125</title>
<path fill="none" stroke="midnightblue" d="M146.02,-15.5C154.726,-15.5 163.51,-15.5 171.918,-15.5"/>
<polygon fill="midnightblue" stroke="midnightblue" points="171.958,-19.0001 181.958,-15.5 171.958,-12.0001 171.958,-19.0001"/>
</g>
<!-- Node126 -->
<g id="node3" class="node"><title>Node126</title>
<g id="a_node3"><a xlink:href="namespaceopenage_1_1testing_1_1testing.xhtml#ac25bf81db406af62d08113ef7ae9fd6e" target="_top" xlink:title=" ">
<polygon fill="white" stroke="black" points="310,-6 310,-25 455,-25 455,-6 310,-6"/>
<text text-anchor="middle" x="382.5" y="-13" font-family="Helvetica,sans-Serif" font-size="10.00">openage.testing.testing.result</text>
</a>
</g>
</g>
<!-- Node125&#45;&gt;Node126 -->
<g id="edge2" class="edge"><title>Node125&#45;&gt;Node126</title>
<path fill="none" stroke="midnightblue" d="M274.342,-15.5C282.356,-15.5 290.919,-15.5 299.58,-15.5"/>
<polygon fill="midnightblue" stroke="midnightblue" points="299.765,-19.0001 309.765,-15.5 299.765,-12.0001 299.765,-19.0001"/>
</g>
<!-- Node127 -->
<g id="node4" class="node"><title>Node127</title>
<g id="a_node4"><a xlink:href="namespaceopenage_1_1util.xhtml#a7bc4421a5f0f57f3a0aba3f96eb8d19c" target="_top" xlink:title=" ">
<polygon fill="white" stroke="black" points="491,-6 491,-25 586,-25 586,-6 491,-6"/>
<text text-anchor="middle" x="538.5" y="-13" font-family="Helvetica,sans-Serif" font-size="10.00">openage::util::repr</text>
</a>
</g>
</g>
<!-- Node126&#45;&gt;Node127 -->
<g id="edge3" class="edge"><title>Node126&#45;&gt;Node127</title>
<path fill="none" stroke="midnightblue" d="M455.09,-8.76483C463.595,-8.71813 472.189,-8.78172 480.453,-8.9556"/>
<polygon fill="midnightblue" stroke="midnightblue" points="480.622,-12.4614 490.713,-9.23483 480.812,-5.46399 480.622,-12.4614"/>
</g>
<!-- Node127&#45;&gt;Node126 -->
<g id="edge4" class="edge"><title>Node127&#45;&gt;Node126</title>
<path fill="none" stroke="midnightblue" d="M490.713,-21.7652C482.626,-22.0381 474.01,-22.1958 465.312,-22.2383"/>
<polygon fill="midnightblue" stroke="midnightblue" points="465.091,-18.7383 455.09,-22.2352 465.089,-25.7383 465.091,-18.7383"/>
</g>
</g>
</svg>
