<?xml version="1.0" encoding="UTF-8" standalone="no"?>
<!DOCTYPE svg PUBLIC "-//W3C//DTD SVG 1.1//EN"
 "http://www.w3.org/Graphics/SVG/1.1/DTD/svg11.dtd">
<!-- Generated by graphviz version 2.38.0 (20140413.2041)
 -->
<!-- Title: openage.convert.main.mount_input Pages: 1 -->
<svg width="1523pt" height="441pt"
 viewBox="0.00 0.00 1523.00 440.50" xmlns="http://www.w3.org/2000/svg" xmlns:xlink="http://www.w3.org/1999/xlink">
<g id="graph0" class="graph" transform="scale(1 1) rotate(0) translate(4 436.5)">
<title>openage.convert.main.mount_input</title>
<polygon fill="white" stroke="none" points="-4,4 -4,-436.5 1519,-436.5 1519,4 -4,4"/>
<!-- Node193 -->
<g id="node1" class="node"><title>Node193</title>
<g id="a_node1"><a xlink:title="Mount the input folders for conversion.">
<polygon fill="#bfbfbf" stroke="black" points="0,-93.5 0,-123.5 141,-123.5 141,-93.5 0,-93.5"/>
<text text-anchor="start" x="8" y="-111.5" font-family="Helvetica,sans-Serif" font-size="10.00">openage.convert.main.mount</text>
<text text-anchor="middle" x="70.5" y="-100.5" font-family="Helvetica,sans-Serif" font-size="10.00">_input</text>
</a>
</g>
</g>
<!-- Node194 -->
<g id="node2" class="node"><title>Node194</title>
<g id="a_node2"><a xlink:href="namespaceopenage_1_1convert_1_1main.xhtml#a3974808f6a0e99b94c7dea8fdea4bceb" target="_top" xlink:title="Acquires source dir for the asset conversion.">
<polygon fill="white" stroke="black" points="177,-208.5 177,-238.5 323,-238.5 323,-208.5 177,-208.5"/>
<text text-anchor="start" x="185" y="-226.5" font-family="Helvetica,sans-Serif" font-size="10.00">openage.convert.main.acquire</text>
<text text-anchor="middle" x="250" y="-215.5" font-family="Helvetica,sans-Serif" font-size="10.00">_conversion_source_dir</text>
</a>
</g>
</g>
<!-- Node193&#45;&gt;Node194 -->
<g id="edge1" class="edge"><title>Node193&#45;&gt;Node194</title>
<path fill="none" stroke="midnightblue" d="M94.705,-123.534C126.065,-143.852 182.095,-180.153 217.312,-202.97"/>
<polygon fill="midnightblue" stroke="midnightblue" points="215.494,-205.962 225.789,-208.462 219.3,-200.087 215.494,-205.962"/>
</g>
<!-- Node197 -->
<g id="node5" class="node"><title>Node197</title>
<g id="a_node5"><a xlink:href="namespaceopenage_1_1log.xhtml#a7ca418e1b1fcf210ff91cd25dc8e6a36" target="_top" xlink:title="warning message">
<polygon fill="white" stroke="black" points="570,-120 570,-139 662,-139 662,-120 570,-120"/>
<text text-anchor="middle" x="616" y="-127" font-family="Helvetica,sans-Serif" font-size="10.00">openage.log.warn</text>
</a>
</g>
</g>
<!-- Node193&#45;&gt;Node197 -->
<g id="edge34" class="edge"><title>Node193&#45;&gt;Node197</title>
<path fill="none" stroke="midnightblue" d="M141.163,-111.192C250.439,-115.414 459.941,-123.509 559.64,-127.361"/>
<polygon fill="midnightblue" stroke="midnightblue" points="559.675,-130.865 569.803,-127.754 559.946,-123.87 559.675,-130.865"/>
</g>
<!-- Node200 -->
<g id="node8" class="node"><title>Node200</title>
<g id="a_node8"><a xlink:href="namespaceopenage_1_1log.xhtml#a3f1815b698faf5786fc5e20bcac7704b" target="_top" xlink:title="info message">
<polygon fill="white" stroke="black" points="572.5,-413 572.5,-432 659.5,-432 659.5,-413 572.5,-413"/>
<text text-anchor="middle" x="616" y="-420" font-family="Helvetica,sans-Serif" font-size="10.00">openage.log.info</text>
</a>
</g>
</g>
<!-- Node193&#45;&gt;Node200 -->
<g id="edge31" class="edge"><title>Node193&#45;&gt;Node200</title>
<path fill="none" stroke="midnightblue" d="M80.5103,-123.643C97.1369,-150.737 134.82,-208.332 177,-247.5 247.642,-313.098 270.101,-328.212 359,-365.5 426.117,-393.651 509.224,-408.87 562.187,-416.331"/>
<polygon fill="midnightblue" stroke="midnightblue" points="561.983,-419.835 572.364,-417.721 562.93,-412.9 561.983,-419.835"/>
</g>
<!-- Node219 -->
<g id="node27" class="node"><title>Node219</title>
<g id="a_node27"><a xlink:href="namespaceopenage_1_1convert_1_1game__versions.xhtml#ada336dd772d11efcb72fc7ce67aba0c2" target="_top" xlink:title=" ">
<polygon fill="white" stroke="black" points="178.5,-49.5 178.5,-79.5 321.5,-79.5 321.5,-49.5 178.5,-49.5"/>
<text text-anchor="start" x="186.5" y="-67.5" font-family="Helvetica,sans-Serif" font-size="10.00">openage.convert.game</text>
<text text-anchor="middle" x="250" y="-56.5" font-family="Helvetica,sans-Serif" font-size="10.00">_versions.get_game_versions</text>
</a>
</g>
</g>
<!-- Node193&#45;&gt;Node219 -->
<g id="edge30" class="edge"><title>Node193&#45;&gt;Node219</title>
<path fill="none" stroke="midnightblue" d="M132.089,-93.4808C147.001,-89.7844 163.095,-85.7947 178.433,-81.9926"/>
<polygon fill="midnightblue" stroke="midnightblue" points="179.519,-85.3295 188.383,-79.5262 177.835,-78.5351 179.519,-85.3295"/>
</g>
<!-- Node220 -->
<g id="node28" class="node"><title>Node220</title>
<g id="a_node28"><a xlink:href="namespaceopenage_1_1convert_1_1main.xhtml#aa61aac4f71477fb39e50782b54c1c7c6" target="_top" xlink:title=" ">
<polygon fill="white" stroke="black" points="179.5,-0.5 179.5,-30.5 320.5,-30.5 320.5,-0.5 179.5,-0.5"/>
<text text-anchor="start" x="187.5" y="-18.5" font-family="Helvetica,sans-Serif" font-size="10.00">openage.convert.main.mount</text>
<text text-anchor="middle" x="250" y="-7.5" font-family="Helvetica,sans-Serif" font-size="10.00">_drs_archives</text>
</a>
</g>
</g>
<!-- Node193&#45;&gt;Node220 -->
<g id="edge32" class="edge"><title>Node193&#45;&gt;Node220</title>
<path fill="none" stroke="midnightblue" d="M91.1978,-93.3842C111.73,-78.1773 145.279,-54.8414 177,-39.5 180.803,-37.6606 184.783,-35.9055 188.836,-34.2425"/>
<polygon fill="midnightblue" stroke="midnightblue" points="190.324,-37.4191 198.375,-30.5326 187.787,-30.8951 190.324,-37.4191"/>
</g>
<!-- Node195 -->
<g id="node3" class="node"><title>Node195</title>
<g id="a_node3"><a xlink:href="namespaceopenage_1_1convert_1_1main.xhtml#a1496a2822465ce5d6389a93ec88b96b3" target="_top" xlink:title="Expand relative path to an absolute one, including abbreviations like ~ and environment variables.">
<polygon fill="white" stroke="black" points="543,-178.5 543,-208.5 689,-208.5 689,-178.5 543,-178.5"/>
<text text-anchor="start" x="551" y="-196.5" font-family="Helvetica,sans-Serif" font-size="10.00">openage.convert.main.expand</text>
<text text-anchor="middle" x="616" y="-185.5" font-family="Helvetica,sans-Serif" font-size="10.00">_relative_path</text>
</a>
</g>
</g>
<!-- Node194&#45;&gt;Node195 -->
<g id="edge2" class="edge"><title>Node194&#45;&gt;Node195</title>
<path fill="none" stroke="midnightblue" d="M323.038,-229.608C373.408,-232.53 442.111,-233.816 502,-225.5 513.083,-223.961 535.434,-217.859 557.354,-211.391"/>
<polygon fill="midnightblue" stroke="midnightblue" points="558.436,-214.72 567.019,-208.508 556.436,-208.012 558.436,-214.72"/>
</g>
<!-- Node196 -->
<g id="node4" class="node"><title>Node196</title>
<g id="a_node4"><a xlink:href="namespaceopenage_1_1convert_1_1main.xhtml#a0158a3e3bc758a1a1615d61ca2bb7000" target="_top" xlink:title=" ">
<polygon fill="white" stroke="black" points="361.5,-137.5 361.5,-167.5 499.5,-167.5 499.5,-137.5 361.5,-137.5"/>
<text text-anchor="start" x="369.5" y="-155.5" font-family="Helvetica,sans-Serif" font-size="10.00">openage.convert.main.query</text>
<text text-anchor="middle" x="430.5" y="-144.5" font-family="Helvetica,sans-Serif" font-size="10.00">_source_dir</text>
</a>
</g>
</g>
<!-- Node194&#45;&gt;Node196 -->
<g id="edge3" class="edge"><title>Node194&#45;&gt;Node196</title>
<path fill="none" stroke="midnightblue" d="M283.795,-208.39C305.053,-198.804 333.446,-186.391 359,-176.5 363.776,-174.651 368.762,-172.8 373.778,-170.992"/>
<polygon fill="midnightblue" stroke="midnightblue" points="375.158,-174.216 383.415,-167.578 372.821,-167.618 375.158,-174.216"/>
</g>
<!-- Node198 -->
<g id="node6" class="node"><title>Node198</title>
<g id="a_node6"><a xlink:href="namespaceopenage_1_1convert_1_1main.xhtml#a83fe7e9eb04e731e92c18a14eba73870" target="_top" xlink:title="Allow the customization of the WINEPREFIX environment variable.">
<polygon fill="white" stroke="black" points="366.5,-186.5 366.5,-216.5 494.5,-216.5 494.5,-186.5 366.5,-186.5"/>
<text text-anchor="start" x="374.5" y="-204.5" font-family="Helvetica,sans-Serif" font-size="10.00">openage.convert.main.set</text>
<text text-anchor="middle" x="430.5" y="-193.5" font-family="Helvetica,sans-Serif" font-size="10.00">_custom_wineprefix</text>
</a>
</g>
</g>
<!-- Node194&#45;&gt;Node198 -->
<g id="edge6" class="edge"><title>Node194&#45;&gt;Node198</title>
<path fill="none" stroke="midnightblue" d="M323.088,-214.615C334.052,-213.264 345.375,-211.868 356.361,-210.514"/>
<polygon fill="midnightblue" stroke="midnightblue" points="356.839,-213.982 366.336,-209.285 355.983,-207.035 356.839,-213.982"/>
</g>
<!-- Node199 -->
<g id="node7" class="node"><title>Node199</title>
<g id="a_node7"><a xlink:href="namespaceopenage_1_1convert_1_1main.xhtml#aa5695bc5f7849528b2fdd1f5b186a1cc" target="_top" xlink:title="Yield a list of directory names where an installation might be found.">
<polygon fill="white" stroke="black" points="359,-325.5 359,-355.5 502,-355.5 502,-325.5 359,-325.5"/>
<text text-anchor="start" x="367" y="-343.5" font-family="Helvetica,sans-Serif" font-size="10.00">openage.convert.main.source</text>
<text text-anchor="middle" x="430.5" y="-332.5" font-family="Helvetica,sans-Serif" font-size="10.00">_dir_proposals</text>
</a>
</g>
</g>
<!-- Node194&#45;&gt;Node199 -->
<g id="edge8" class="edge"><title>Node194&#45;&gt;Node199</title>
<path fill="none" stroke="midnightblue" d="M265.867,-238.676C285.636,-258.163 322.363,-292.022 359,-313.5 363.805,-316.317 368.958,-318.943 374.211,-321.364"/>
<polygon fill="midnightblue" stroke="midnightblue" points="373.153,-324.72 383.72,-325.496 375.943,-318.3 373.153,-324.72"/>
</g>
<!-- Node204 -->
<g id="node12" class="node"><title>Node204</title>
<g id="a_node12"><a xlink:href="namespaceopenage_1_1convert_1_1main.xhtml#a4a6e38f51a7b482ac175c932acd397e9" target="_top" xlink:title=" ">
<polygon fill="white" stroke="black" points="359.5,-274.5 359.5,-304.5 501.5,-304.5 501.5,-274.5 359.5,-274.5"/>
<text text-anchor="start" x="367.5" y="-292.5" font-family="Helvetica,sans-Serif" font-size="10.00">openage.convert.main.wanna</text>
<text text-anchor="middle" x="430.5" y="-281.5" font-family="Helvetica,sans-Serif" font-size="10.00">_use_wine</text>
</a>
</g>
</g>
<!-- Node194&#45;&gt;Node204 -->
<g id="edge13" class="edge"><title>Node194&#45;&gt;Node204</title>
<path fill="none" stroke="midnightblue" d="M291.952,-238.642C317.916,-248.242 351.685,-260.728 379.265,-270.926"/>
<polygon fill="midnightblue" stroke="midnightblue" points="378.146,-274.243 388.739,-274.429 380.573,-267.678 378.146,-274.243"/>
</g>
<!-- Node196&#45;&gt;Node195 -->
<g id="edge4" class="edge"><title>Node196&#45;&gt;Node195</title>
<path fill="none" stroke="midnightblue" d="M498.787,-167.534C511.502,-170.375 524.894,-173.367 537.884,-176.27"/>
<polygon fill="midnightblue" stroke="midnightblue" points="537.199,-179.703 547.721,-178.468 538.725,-172.871 537.199,-179.703"/>
</g>
<!-- Node196&#45;&gt;Node197 -->
<g id="edge5" class="edge"><title>Node196&#45;&gt;Node197</title>
<path fill="none" stroke="midnightblue" d="M499.568,-143.968C519.453,-141.476 540.932,-138.784 559.907,-136.405"/>
<polygon fill="midnightblue" stroke="midnightblue" points="560.384,-139.873 569.871,-135.156 559.514,-132.927 560.384,-139.873"/>
</g>
<!-- Node198&#45;&gt;Node195 -->
<g id="edge7" class="edge"><title>Node198&#45;&gt;Node195</title>
<path fill="none" stroke="midnightblue" d="M494.65,-198.747C506.921,-198.212 519.95,-197.644 532.73,-197.087"/>
<polygon fill="midnightblue" stroke="midnightblue" points="533.07,-200.575 542.908,-196.643 532.765,-193.582 533.07,-200.575"/>
</g>
<!-- Node199&#45;&gt;Node200 -->
<g id="edge9" class="edge"><title>Node199&#45;&gt;Node200</title>
<path fill="none" stroke="midnightblue" d="M452.956,-355.752C473.797,-369.934 506.78,-390.738 538,-403.5 545.787,-406.683 554.242,-409.429 562.604,-411.765"/>
<polygon fill="midnightblue" stroke="midnightblue" points="561.769,-415.164 572.331,-414.321 563.548,-408.394 561.769,-415.164"/>
</g>
<!-- Node201 -->
<g id="node9" class="node"><title>Node201</title>
<g id="a_node9"><a xlink:href="namespaceopenage_1_1convert_1_1main.xhtml#aaa17c535c5bc580e7b8eefb2d754e806" target="_top" xlink:title="Turn a Wine file path (C:\xyz) into a local filesystem path (~/.wine/xyz)">
<polygon fill="white" stroke="black" points="549,-325.5 549,-355.5 683,-355.5 683,-325.5 549,-325.5"/>
<text text-anchor="start" x="557" y="-343.5" font-family="Helvetica,sans-Serif" font-size="10.00">openage.convert.main.wine</text>
<text text-anchor="middle" x="616" y="-332.5" font-family="Helvetica,sans-Serif" font-size="10.00">_to_real_path</text>
</a>
</g>
</g>
<!-- Node199&#45;&gt;Node201 -->
<g id="edge10" class="edge"><title>Node199&#45;&gt;Node201</title>
<path fill="none" stroke="midnightblue" d="M502.183,-340.5C514.173,-340.5 526.669,-340.5 538.793,-340.5"/>
<polygon fill="midnightblue" stroke="midnightblue" points="538.87,-344 548.87,-340.5 538.87,-337 538.87,-344"/>
</g>
<!-- Node202 -->
<g id="node10" class="node"><title>Node202</title>
<g id="a_node10"><a xlink:href="namespaceopenage_1_1convert_1_1main.xhtml#af8a76f3d32546fca995c8f50f164f9b7" target="_top" xlink:title="Remove quotes and escapes from a Wine registry value.">
<polygon fill="white" stroke="black" points="538,-276.5 538,-306.5 694,-306.5 694,-276.5 538,-276.5"/>
<text text-anchor="start" x="546" y="-294.5" font-family="Helvetica,sans-Serif" font-size="10.00">openage.convert.main.unescape</text>
<text text-anchor="middle" x="616" y="-283.5" font-family="Helvetica,sans-Serif" font-size="10.00">_winereg</text>
</a>
</g>
</g>
<!-- Node199&#45;&gt;Node202 -->
<g id="edge11" class="edge"><title>Node199&#45;&gt;Node202</title>
<path fill="none" stroke="midnightblue" d="M487.803,-325.465C507.178,-320.292 529.045,-314.452 549.114,-309.093"/>
<polygon fill="midnightblue" stroke="midnightblue" points="550.045,-312.468 558.803,-306.506 548.239,-305.705 550.045,-312.468"/>
</g>
<!-- Node203 -->
<g id="node11" class="node"><title>Node203</title>
<g id="a_node11"><a xlink:href="namespaceopenage_1_1log.xhtml#aad3d76b2466dbc4f81552935f2d84faa" target="_top" xlink:title="debug message">
<polygon fill="white" stroke="black" points="572,-375 572,-394 660,-394 660,-375 572,-375"/>
<text text-anchor="middle" x="616" y="-382" font-family="Helvetica,sans-Serif" font-size="10.00">openage.log.dbg</text>
</a>
</g>
</g>
<!-- Node199&#45;&gt;Node203 -->
<g id="edge12" class="edge"><title>Node199&#45;&gt;Node203</title>
<path fill="none" stroke="midnightblue" d="M494.137,-355.519C517.456,-361.111 543.575,-367.374 565.549,-372.643"/>
<polygon fill="midnightblue" stroke="midnightblue" points="564.788,-376.059 575.329,-374.988 566.421,-369.252 564.788,-376.059"/>
</g>
<!-- Node205 -->
<g id="node13" class="node"><title>Node205</title>
<g id="a_node13"><a xlink:href="namespaceopenage_1_1subprocess.xhtml#aea6af6d7d8e5290e58dfafd50a96a069" target="_top" xlink:title="finds the path to an executable by evaluating env[PATH]">
<polygon fill="white" stroke="black" points="561,-227.5 561,-257.5 671,-257.5 671,-227.5 561,-227.5"/>
<text text-anchor="start" x="569" y="-245.5" font-family="Helvetica,sans-Serif" font-size="10.00">openage::subprocess</text>
<text text-anchor="middle" x="616" y="-234.5" font-family="Helvetica,sans-Serif" font-size="10.00">::which</text>
</a>
</g>
</g>
<!-- Node204&#45;&gt;Node205 -->
<g id="edge14" class="edge"><title>Node204&#45;&gt;Node205</title>
<path fill="none" stroke="midnightblue" d="M490.065,-274.5C509.446,-269.536 531.111,-263.987 550.886,-258.922"/>
<polygon fill="midnightblue" stroke="midnightblue" points="551.909,-262.273 560.727,-256.401 550.172,-255.492 551.909,-262.273"/>
</g>
<!-- Node206 -->
<g id="node14" class="node"><title>Node206</title>
<g id="a_node14"><a xlink:href="namespaceopenage_1_1subprocess.xhtml#af8b5d87acaf3d044fdd924ef68a1cec8" target="_top" xlink:title="returns true IFF the file is executable">
<polygon fill="white" stroke="black" points="730,-249.5 730,-279.5 840,-279.5 840,-249.5 730,-249.5"/>
<text text-anchor="start" x="738" y="-267.5" font-family="Helvetica,sans-Serif" font-size="10.00">openage::subprocess</text>
<text text-anchor="middle" x="785" y="-256.5" font-family="Helvetica,sans-Serif" font-size="10.00">::is_executable</text>
</a>
</g>
</g>
<!-- Node205&#45;&gt;Node206 -->
<g id="edge15" class="edge"><title>Node205&#45;&gt;Node206</title>
<path fill="none" stroke="midnightblue" d="M671.22,-249.643C686.611,-251.67 703.522,-253.898 719.459,-255.998"/>
<polygon fill="midnightblue" stroke="midnightblue" points="719.395,-259.519 729.766,-257.355 720.309,-252.579 719.395,-259.519"/>
</g>
<!-- Node207 -->
<g id="node15" class="node"><title>Node207</title>
<g id="a_node15"><a xlink:href="namespaceopenage_1_1util.xhtml#a664e0be1f5d2f4d1e1a624f6f4a5f0c1" target="_top" xlink:title="get the filename (last part) of a given path">
<polygon fill="white" stroke="black" points="890.5,-299 890.5,-318 1004.5,-318 1004.5,-299 890.5,-299"/>
<text text-anchor="middle" x="947.5" y="-306" font-family="Helvetica,sans-Serif" font-size="10.00">openage::util::filename</text>
</a>
</g>
</g>
<!-- Node205&#45;&gt;Node207 -->
<g id="edge29" class="edge"><title>Node205&#45;&gt;Node207</title>
<path fill="none" stroke="midnightblue" d="M671.069,-257.49C678.88,-260.19 686.73,-263.207 694,-266.5 711.08,-274.237 712.203,-282.596 730,-288.5 778.591,-304.62 836.463,-309.273 880.143,-310.085"/>
<polygon fill="midnightblue" stroke="midnightblue" points="880.321,-313.587 890.363,-310.21 880.407,-306.588 880.321,-313.587"/>
</g>
<!-- Node208 -->
<g id="node16" class="node"><title>Node208</title>
<g id="a_node16"><a xlink:href="namespaceopenage_1_1log.xhtml#a0eff614e7d6e818746700ed9d29e583f" target="_top" xlink:title="Convenience method that makes use of the &#39;general&#39; LogSource.">
<polygon fill="white" stroke="black" points="739.5,-211 739.5,-230 830.5,-230 830.5,-211 739.5,-211"/>
<text text-anchor="middle" x="785" y="-218" font-family="Helvetica,sans-Serif" font-size="10.00">openage::log::log</text>
</a>
</g>
</g>
<!-- Node205&#45;&gt;Node208 -->
<g id="edge17" class="edge"><title>Node205&#45;&gt;Node208</title>
<path fill="none" stroke="midnightblue" d="M671.22,-235.357C689.783,-232.912 710.556,-230.175 729.167,-227.723"/>
<polygon fill="midnightblue" stroke="midnightblue" points="729.799,-231.171 739.256,-226.394 728.885,-224.231 729.799,-231.171"/>
</g>
<!-- Node214 -->
<g id="node22" class="node"><title>Node214</title>
<g id="a_node22"><a xlink:href="namespaceopenage_1_1util.xhtml#a854794aef09b81dbec641eca208a66d7" target="_top" xlink:title="Copies the given string to the returned unique_ptr, including 0 byte.">
<polygon fill="white" stroke="black" points="735.5,-161.5 735.5,-191.5 834.5,-191.5 834.5,-161.5 735.5,-161.5"/>
<text text-anchor="start" x="743.5" y="-179.5" font-family="Helvetica,sans-Serif" font-size="10.00">openage::util::copy</text>
<text text-anchor="middle" x="785" y="-168.5" font-family="Helvetica,sans-Serif" font-size="10.00">_string</text>
</a>
</g>
</g>
<!-- Node205&#45;&gt;Node214 -->
<g id="edge23" class="edge"><title>Node205&#45;&gt;Node214</title>
<path fill="none" stroke="midnightblue" d="M666.175,-227.456C675.483,-224.349 685.092,-220.962 694,-217.5 699.053,-215.536 721.03,-205.529 741.999,-195.894"/>
<polygon fill="midnightblue" stroke="midnightblue" points="743.562,-199.028 751.184,-191.668 740.637,-192.668 743.562,-199.028"/>
</g>
<!-- Node206&#45;&gt;Node207 -->
<g id="edge16" class="edge"><title>Node206&#45;&gt;Node207</title>
<path fill="none" stroke="midnightblue" d="M840.338,-279.396C860.227,-284.849 882.494,-290.953 901.479,-296.158"/>
<polygon fill="midnightblue" stroke="midnightblue" points="900.795,-299.599 911.364,-298.868 902.646,-292.848 900.795,-299.599"/>
</g>
<!-- Node209 -->
<g id="node17" class="node"><title>Node209</title>
<g id="a_node17"><a xlink:href="namespaceopenage_1_1log.xhtml#a3fbb0c225d01e222648ec28a43507188" target="_top" xlink:title="Returns a reference to a general named log source, for use by log::log().">
<polygon fill="white" stroke="black" points="892.5,-249.5 892.5,-279.5 1002.5,-279.5 1002.5,-249.5 892.5,-249.5"/>
<text text-anchor="start" x="900.5" y="-267.5" font-family="Helvetica,sans-Serif" font-size="10.00">openage::log::general</text>
<text text-anchor="middle" x="947.5" y="-256.5" font-family="Helvetica,sans-Serif" font-size="10.00">_source</text>
</a>
</g>
</g>
<!-- Node208&#45;&gt;Node209 -->
<g id="edge18" class="edge"><title>Node208&#45;&gt;Node209</title>
<path fill="none" stroke="midnightblue" d="M820.826,-230.047C838.893,-235 861.541,-241.209 882.615,-246.986"/>
<polygon fill="midnightblue" stroke="midnightblue" points="881.916,-250.424 892.485,-249.692 883.767,-243.673 881.916,-250.424"/>
</g>
<!-- Node210 -->
<g id="node18" class="node"><title>Node210</title>
<g id="a_node18"><a xlink:href="classopenage_1_1log_1_1_log_source.xhtml#a5640099e20af4cd368c767dbcef3a1df" target="_top" xlink:title="Logs a message (get one via MSG(level)).">
<polygon fill="white" stroke="black" points="876,-211 876,-230 1019,-230 1019,-211 876,-211"/>
<text text-anchor="middle" x="947.5" y="-218" font-family="Helvetica,sans-Serif" font-size="10.00">openage::log::LogSource::log</text>
</a>
</g>
</g>
<!-- Node208&#45;&gt;Node210 -->
<g id="edge19" class="edge"><title>Node208&#45;&gt;Node210</title>
<path fill="none" stroke="midnightblue" d="M830.708,-220.5C841.65,-220.5 853.697,-220.5 865.759,-220.5"/>
<polygon fill="midnightblue" stroke="midnightblue" points="865.871,-224 875.871,-220.5 865.871,-217 865.871,-224"/>
</g>
<!-- Node211 -->
<g id="node19" class="node"><title>Node211</title>
<g id="a_node19"><a xlink:href="namespaceopenage_1_1log.xhtml#a3d2885be9c3a09b9ff7ee8764b2e5f39" target="_top" xlink:title="Returns a reference to the global stdout logsink object; Initializes the object if needed.">
<polygon fill="white" stroke="black" points="1077,-264.5 1077,-294.5 1181,-294.5 1181,-264.5 1077,-264.5"/>
<text text-anchor="start" x="1085" y="-282.5" font-family="Helvetica,sans-Serif" font-size="10.00">openage::log::global</text>
<text text-anchor="middle" x="1129" y="-271.5" font-family="Helvetica,sans-Serif" font-size="10.00">_stdoutsink</text>
</a>
</g>
</g>
<!-- Node210&#45;&gt;Node211 -->
<g id="edge20" class="edge"><title>Node210&#45;&gt;Node211</title>
<path fill="none" stroke="midnightblue" d="M987.563,-230.046C997.869,-232.831 1008.92,-236.059 1019,-239.5 1035.4,-245.101 1038.79,-248.355 1055,-254.5 1060.84,-256.713 1066.97,-258.948 1073.09,-261.125"/>
<polygon fill="midnightblue" stroke="midnightblue" points="1072.07,-264.476 1082.66,-264.485 1074.39,-257.871 1072.07,-264.476"/>
</g>
<!-- Node212 -->
<g id="node20" class="node"><title>Node212</title>
<g id="a_node20"><a xlink:href="classopenage_1_1log_1_1_log_sink_list.xhtml#a2d47416fab12651553b4b58c86fd6f84" target="_top" xlink:title=" ">
<polygon fill="white" stroke="black" points="1064.5,-215.5 1064.5,-245.5 1193.5,-245.5 1193.5,-215.5 1064.5,-215.5"/>
<text text-anchor="start" x="1072.5" y="-233.5" font-family="Helvetica,sans-Serif" font-size="10.00">openage::log::LogSinkList</text>
<text text-anchor="middle" x="1129" y="-222.5" font-family="Helvetica,sans-Serif" font-size="10.00">::instance</text>
</a>
</g>
</g>
<!-- Node210&#45;&gt;Node212 -->
<g id="edge21" class="edge"><title>Node210&#45;&gt;Node212</title>
<path fill="none" stroke="midnightblue" d="M1019.19,-224.438C1030.72,-225.08 1042.69,-225.748 1054.3,-226.394"/>
<polygon fill="midnightblue" stroke="midnightblue" points="1054.2,-229.894 1064.38,-226.956 1054.59,-222.905 1054.2,-229.894"/>
</g>
<!-- Node213 -->
<g id="node21" class="node"><title>Node213</title>
<g id="a_node21"><a xlink:href="classopenage_1_1log_1_1_log_sink_list.xhtml#a8456b84ab55e1fe151c51438c5bfebdd" target="_top" xlink:title=" ">
<polygon fill="white" stroke="black" points="1055,-177 1055,-196 1203,-196 1203,-177 1055,-177"/>
<text text-anchor="middle" x="1129" y="-184" font-family="Helvetica,sans-Serif" font-size="10.00">openage::log::LogSinkList::log</text>
</a>
</g>
</g>
<!-- Node210&#45;&gt;Node213 -->
<g id="edge22" class="edge"><title>Node210&#45;&gt;Node213</title>
<path fill="none" stroke="midnightblue" d="M998.978,-210.939C1020.29,-206.902 1045.28,-202.168 1067.57,-197.947"/>
<polygon fill="midnightblue" stroke="midnightblue" points="1068.42,-201.348 1077.59,-196.048 1067.11,-194.471 1068.42,-201.348"/>
</g>
<!-- Node215 -->
<g id="node23" class="node"><title>Node215</title>
<g id="a_node23"><a xlink:href="namespaceopenage_1_1util_1_1constexpr__.xhtml#a72a87a05e383ec62bf0b60359f314df7" target="_top" xlink:title="Returns the length of the string literal, excluding the terminating NULL byte.">
<polygon fill="white" stroke="black" points="887,-142.5 887,-172.5 1008,-172.5 1008,-142.5 887,-142.5"/>
<text text-anchor="start" x="895" y="-160.5" font-family="Helvetica,sans-Serif" font-size="10.00">openage::util::constexpr</text>
<text text-anchor="middle" x="947.5" y="-149.5" font-family="Helvetica,sans-Serif" font-size="10.00">_::strlen</text>
</a>
</g>
</g>
<!-- Node214&#45;&gt;Node215 -->
<g id="edge24" class="edge"><title>Node214&#45;&gt;Node215</title>
<path fill="none" stroke="midnightblue" d="M834.591,-170.748C847.806,-169.183 862.386,-167.457 876.532,-165.783"/>
<polygon fill="midnightblue" stroke="midnightblue" points="877.211,-169.227 886.73,-164.576 876.388,-162.275 877.211,-169.227"/>
</g>
<!-- Node216 -->
<g id="node24" class="node"><title>Node216</title>
<g id="a_node24"><a xlink:href="namespaceopenage_1_1py.xhtml#a4d2bbe46a5d10404c658b54f3b199551" target="_top" xlink:title="str(value);">
<polygon fill="white" stroke="black" points="1085.5,-139 1085.5,-158 1172.5,-158 1172.5,-139 1085.5,-139"/>
<text text-anchor="middle" x="1129" y="-146" font-family="Helvetica,sans-Serif" font-size="10.00">openage::py::str</text>
</a>
</g>
</g>
<!-- Node215&#45;&gt;Node216 -->
<g id="edge25" class="edge"><title>Node215&#45;&gt;Node216</title>
<path fill="none" stroke="midnightblue" d="M1008.27,-154.503C1029.92,-153.418 1054.2,-152.2 1075.2,-151.147"/>
<polygon fill="midnightblue" stroke="midnightblue" points="1075.41,-154.641 1085.22,-150.645 1075.06,-147.65 1075.41,-154.641"/>
</g>
<!-- Node217 -->
<g id="node25" class="node"><title>Node217</title>
<g id="a_node25"><a xlink:href="namespaceopenage_1_1testing_1_1testing.xhtml#ac25bf81db406af62d08113ef7ae9fd6e" target="_top" xlink:title=" ">
<polygon fill="white" stroke="black" points="1239,-139 1239,-158 1384,-158 1384,-139 1239,-139"/>
<text text-anchor="middle" x="1311.5" y="-146" font-family="Helvetica,sans-Serif" font-size="10.00">openage.testing.testing.result</text>
</a>
</g>
</g>
<!-- Node216&#45;&gt;Node217 -->
<g id="edge26" class="edge"><title>Node216&#45;&gt;Node217</title>
<path fill="none" stroke="midnightblue" d="M1172.78,-148.5C1189.55,-148.5 1209.39,-148.5 1228.71,-148.5"/>
<polygon fill="midnightblue" stroke="midnightblue" points="1228.75,-152 1238.75,-148.5 1228.75,-145 1228.75,-152"/>
</g>
<!-- Node218 -->
<g id="node26" class="node"><title>Node218</title>
<g id="a_node26"><a xlink:href="namespaceopenage_1_1util.xhtml#a7bc4421a5f0f57f3a0aba3f96eb8d19c" target="_top" xlink:title="method that behaves similar to python&#39;s &quot;repr&quot;.">
<polygon fill="white" stroke="black" points="1420,-139 1420,-158 1515,-158 1515,-139 1420,-139"/>
<text text-anchor="middle" x="1467.5" y="-146" font-family="Helvetica,sans-Serif" font-size="10.00">openage::util::repr</text>
</a>
</g>
</g>
<!-- Node217&#45;&gt;Node218 -->
<g id="edge27" class="edge"><title>Node217&#45;&gt;Node218</title>
<path fill="none" stroke="midnightblue" d="M1384.09,-141.765C1392.6,-141.718 1401.19,-141.782 1409.45,-141.956"/>
<polygon fill="midnightblue" stroke="midnightblue" points="1409.62,-145.461 1419.71,-142.235 1409.81,-138.464 1409.62,-145.461"/>
</g>
<!-- Node218&#45;&gt;Node217 -->
<g id="edge28" class="edge"><title>Node218&#45;&gt;Node217</title>
<path fill="none" stroke="midnightblue" d="M1419.71,-154.765C1411.63,-155.038 1403.01,-155.196 1394.31,-155.238"/>
<polygon fill="midnightblue" stroke="midnightblue" points="1394.09,-151.738 1384.09,-155.235 1394.09,-158.738 1394.09,-151.738"/>
</g>
<!-- Node221 -->
<g id="node29" class="node"><title>Node221</title>
<g id="a_node29"><a xlink:href="namespaceopenage_1_1convert_1_1game__versions.xhtml#a34537bbd9836f1e83d73d08545ff07c6" target="_top" xlink:title="Determine whether any of the versions has patch 1, i.e.">
<polygon fill="white" stroke="black" points="373.5,-0.5 373.5,-30.5 487.5,-30.5 487.5,-0.5 373.5,-0.5"/>
<text text-anchor="start" x="381.5" y="-18.5" font-family="Helvetica,sans-Serif" font-size="10.00">openage.convert.game</text>
<text text-anchor="middle" x="430.5" y="-7.5" font-family="Helvetica,sans-Serif" font-size="10.00">_versions.has_x1_p1</text>
</a>
</g>
</g>
<!-- Node220&#45;&gt;Node221 -->
<g id="edge33" class="edge"><title>Node220&#45;&gt;Node221</title>
<path fill="none" stroke="midnightblue" d="M320.524,-15.5C334.624,-15.5 349.415,-15.5 363.393,-15.5"/>
<polygon fill="midnightblue" stroke="midnightblue" points="363.406,-19.0001 373.406,-15.5 363.406,-12.0001 363.406,-19.0001"/>
</g>
</g>
</svg>
