<?xml version="1.0" encoding="UTF-8" standalone="no"?>
<!DOCTYPE svg PUBLIC "-//W3C//DTD SVG 1.1//EN"
 "http://www.w3.org/Graphics/SVG/1.1/DTD/svg11.dtd">
<!-- Generated by graphviz version 2.38.0 (20140413.2041)
 -->
<!-- Title: openage::util::constexpr_::create_truncated_string_literal Pages: 1 -->
<svg width="295pt" height="50pt"
 viewBox="0.00 0.00 295.00 50.00" xmlns="http://www.w3.org/2000/svg" xmlns:xlink="http://www.w3.org/1999/xlink">
<g id="graph0" class="graph" transform="scale(1 1) rotate(0) translate(4 46)">
<title>openage::util::constexpr_::create_truncated_string_literal</title>
<polygon fill="white" stroke="none" points="-4,4 -4,-46 291,-46 291,4 -4,4"/>
<!-- Node5 -->
<g id="node1" class="node"><title>Node5</title>
<g id="a_node1"><a xlink:title="Creates a truncated_string_literal from a regular string literal.">
<polygon fill="#bfbfbf" stroke="black" points="157,-0.5 157,-41.5 287,-41.5 287,-0.5 157,-0.5"/>
<text text-anchor="start" x="165" y="-29.5" font-family="Helvetica,sans-Serif" font-size="10.00">openage::util::constexpr</text>
<text text-anchor="start" x="165" y="-18.5" font-family="Helvetica,sans-Serif" font-size="10.00">_::create_truncated_string</text>
<text text-anchor="middle" x="222" y="-7.5" font-family="Helvetica,sans-Serif" font-size="10.00">_literal</text>
</a>
</g>
</g>
<!-- Node6 -->
<g id="node2" class="node"><title>Node6</title>
<g id="a_node2"><a xlink:href="namespaceopenage_1_1util_1_1constexpr__.xhtml#a6a9d0df52733d9d7ae0bcc1bc561e38f" target="_top" xlink:title="Strips a prefix, given as const char *, from a given string literal.">
<polygon fill="white" stroke="black" points="0,-6 0,-36 121,-36 121,-6 0,-6"/>
<text text-anchor="start" x="8" y="-24" font-family="Helvetica,sans-Serif" font-size="10.00">openage::util::constexpr</text>
<text text-anchor="middle" x="60.5" y="-13" font-family="Helvetica,sans-Serif" font-size="10.00">_::strip_prefix</text>
</a>
</g>
</g>
<!-- Node5&#45;&gt;Node6 -->
<g id="edge1" class="edge"><title>Node5&#45;&gt;Node6</title>
<path fill="none" stroke="midnightblue" d="M146.374,-21C137.952,-21 129.452,-21 121.254,-21"/>
<polygon fill="midnightblue" stroke="midnightblue" points="146.585,-24.5001 156.585,-21 146.585,-17.5001 146.585,-24.5001"/>
</g>
</g>
</svg>
