<?xml version="1.0" encoding="UTF-8" standalone="no"?>
<!DOCTYPE svg PUBLIC "-//W3C//DTD SVG 1.1//EN"
 "http://www.w3.org/Graphics/SVG/1.1/DTD/svg11.dtd">
<!-- Generated by graphviz version 2.38.0 (20140413.2041)
 -->
<!-- Title: openage.codegen.codegen.postprocess_write Pages: 1 -->
<svg width="382pt" height="78pt"
 viewBox="0.00 0.00 382.00 77.50" xmlns="http://www.w3.org/2000/svg" xmlns:xlink="http://www.w3.org/1999/xlink">
<g id="graph0" class="graph" transform="scale(1 1) rotate(0) translate(4 73.5)">
<title>openage.codegen.codegen.postprocess_write</title>
<polygon fill="white" stroke="none" points="-4,4 -4,-73.5 378,-73.5 378,4 -4,4"/>
<!-- Node34 -->
<g id="node1" class="node"><title>Node34</title>
<g id="a_node1"><a xlink:title="Post&#45;processes a single write operation, as intercepted during codegen.">
<polygon fill="#bfbfbf" stroke="black" points="0,-17 0,-47 189,-47 189,-17 0,-17"/>
<text text-anchor="start" x="8" y="-35" font-family="Helvetica,sans-Serif" font-size="10.00">openage.codegen.codegen.postprocess</text>
<text text-anchor="middle" x="94.5" y="-24" font-family="Helvetica,sans-Serif" font-size="10.00">_write</text>
</a>
</g>
</g>
<!-- Node35 -->
<g id="node2" class="node"><title>Node35</title>
<g id="a_node2"><a xlink:href="namespaceopenage_1_1codegen_1_1codegen.xhtml#a7cce911eb4c73e57753d1a055e95549b" target="_top" xlink:title="Yields the lines for the automatically&#45;added file header.">
<polygon fill="white" stroke="black" points="225,-39 225,-69 374,-69 374,-39 225,-39"/>
<text text-anchor="start" x="233" y="-57" font-family="Helvetica,sans-Serif" font-size="10.00">openage.codegen.codegen.get</text>
<text text-anchor="middle" x="299.5" y="-46" font-family="Helvetica,sans-Serif" font-size="10.00">_header_lines</text>
</a>
</g>
</g>
<!-- Node34&#45;&gt;Node35 -->
<g id="edge1" class="edge"><title>Node34&#45;&gt;Node35</title>
<path fill="none" stroke="midnightblue" d="M189.275,-42.1628C197.769,-43.0833 206.335,-44.0116 214.734,-44.9219"/>
<polygon fill="midnightblue" stroke="midnightblue" points="214.56,-48.4235 224.879,-46.0214 215.315,-41.4643 214.56,-48.4235"/>
</g>
<!-- Node36 -->
<g id="node3" class="node"><title>Node36</title>
<g id="a_node3"><a xlink:href="namespaceopenage_1_1util.xhtml#af74fec80080f6c627e5539bb20493ba0" target="_top" xlink:title=" ">
<polygon fill="white" stroke="black" points="251.5,-0.5 251.5,-19.5 347.5,-19.5 347.5,-0.5 251.5,-0.5"/>
<text text-anchor="middle" x="299.5" y="-7.5" font-family="Helvetica,sans-Serif" font-size="10.00">openage::util::split</text>
</a>
</g>
</g>
<!-- Node34&#45;&gt;Node36 -->
<g id="edge2" class="edge"><title>Node34&#45;&gt;Node36</title>
<path fill="none" stroke="midnightblue" d="M189.275,-21.8372C206.916,-19.9254 224.869,-17.9797 240.987,-16.2329"/>
<polygon fill="midnightblue" stroke="midnightblue" points="241.728,-19.6732 251.293,-15.1161 240.974,-12.714 241.728,-19.6732"/>
</g>
</g>
</svg>
