<?xml version="1.0" encoding="UTF-8" standalone="no"?>
<!DOCTYPE svg PUBLIC "-//W3C//DTD SVG 1.1//EN"
 "http://www.w3.org/Graphics/SVG/1.1/DTD/svg11.dtd">
<!-- Generated by graphviz version 2.38.0 (20140413.2041)
 -->
<!-- Title: openage::dir_group Pages: 1 -->
<svg width="364pt" height="39pt"
 viewBox="0.00 0.00 364.00 39.00" xmlns="http://www.w3.org/2000/svg" xmlns:xlink="http://www.w3.org/1999/xlink">
<g id="graph0" class="graph" transform="scale(1 1) rotate(0) translate(4 35)">
<title>openage::dir_group</title>
<polygon fill="white" stroke="none" points="-4,4 -4,-35 360,-35 360,4 -4,4"/>
<!-- Node36 -->
<g id="node1" class="node"><title>Node36</title>
<g id="a_node1"><a xlink:title=" ">
<polygon fill="#bfbfbf" stroke="black" points="0,-6 0,-25 99,-25 99,-6 0,-6"/>
<text text-anchor="middle" x="49.5" y="-13" font-family="Helvetica,sans-Serif" font-size="10.00">openage::dir_group</text>
</a>
</g>
</g>
<!-- Node37 -->
<g id="node2" class="node"><title>Node37</title>
<g id="a_node2"><a xlink:href="namespacestd.xhtml#a8058d6b15a78f7a977945ee4d62de903" target="_top" xlink:title=" ">
<polygon fill="white" stroke="black" points="135,-6 135,-25 195,-25 195,-6 135,-6"/>
<text text-anchor="middle" x="165" y="-13" font-family="Helvetica,sans-Serif" font-size="10.00">std::hypot</text>
</a>
</g>
</g>
<!-- Node36&#45;&gt;Node37 -->
<g id="edge1" class="edge"><title>Node36&#45;&gt;Node37</title>
<path fill="none" stroke="midnightblue" d="M99.2929,-15.5C107.827,-15.5 116.605,-15.5 124.836,-15.5"/>
<polygon fill="midnightblue" stroke="midnightblue" points="124.909,-19.0001 134.909,-15.5 124.909,-12.0001 124.909,-19.0001"/>
</g>
<!-- Node38 -->
<g id="node3" class="node"><title>Node38</title>
<g id="a_node3"><a xlink:href="classopenage_1_1util_1_1_fixed_point.xhtml#aa0eb736578910b123ea19652c670daab" target="_top" xlink:title=" ">
<polygon fill="white" stroke="black" points="231,-0.5 231,-30.5 356,-30.5 356,-0.5 231,-0.5"/>
<text text-anchor="start" x="239" y="-18.5" font-family="Helvetica,sans-Serif" font-size="10.00">openage::util::FixedPoint</text>
<text text-anchor="middle" x="293.5" y="-7.5" font-family="Helvetica,sans-Serif" font-size="10.00">::hypot</text>
</a>
</g>
</g>
<!-- Node37&#45;&gt;Node38 -->
<g id="edge2" class="edge"><title>Node37&#45;&gt;Node38</title>
<path fill="none" stroke="midnightblue" d="M195.022,-15.5C202.812,-15.5 211.595,-15.5 220.616,-15.5"/>
<polygon fill="midnightblue" stroke="midnightblue" points="220.862,-19.0001 230.862,-15.5 220.862,-12.0001 220.862,-19.0001"/>
</g>
</g>
</svg>
