<?xml version="1.0" encoding="UTF-8" standalone="no"?>
<!DOCTYPE svg PUBLIC "-//W3C//DTD SVG 1.1//EN"
 "http://www.w3.org/Graphics/SVG/1.1/DTD/svg11.dtd">
<!-- Generated by graphviz version 2.38.0 (20140413.2041)
 -->
<!-- Title: openage.assets.get_asset_path Pages: 1 -->
<svg width="281pt" height="104pt"
 viewBox="0.00 0.00 281.00 104.00" xmlns="http://www.w3.org/2000/svg" xmlns:xlink="http://www.w3.org/1999/xlink">
<g id="graph0" class="graph" transform="scale(1 1) rotate(0) translate(4 100)">
<title>openage.assets.get_asset_path</title>
<polygon fill="white" stroke="none" points="-4,4 -4,-100 277,-100 277,4 -4,4"/>
<!-- Node1 -->
<g id="node1" class="node"><title>Node1</title>
<g id="a_node1"><a xlink:title="Returns a Path object for the game assets.">
<polygon fill="#bfbfbf" stroke="black" points="171,-33 171,-63 273,-63 273,-33 171,-33"/>
<text text-anchor="start" x="179" y="-51" font-family="Helvetica,sans-Serif" font-size="10.00">openage.assets.get</text>
<text text-anchor="middle" x="222" y="-40" font-family="Helvetica,sans-Serif" font-size="10.00">_asset_path</text>
</a>
</g>
</g>
<!-- Node2 -->
<g id="node2" class="node"><title>Node2</title>
<g id="a_node2"><a xlink:href="namespaceopenage_1_1game_1_1main.xhtml#ae53287c14640e82b47c8b3af1e85c4ca" target="_top" xlink:title=" ">
<polygon fill="white" stroke="black" points="3.5,-76.5 3.5,-95.5 131.5,-95.5 131.5,-76.5 3.5,-76.5"/>
<text text-anchor="middle" x="67.5" y="-83.5" font-family="Helvetica,sans-Serif" font-size="10.00">openage.game.main.main</text>
</a>
</g>
</g>
<!-- Node1&#45;&gt;Node2 -->
<g id="edge1" class="edge"><title>Node1&#45;&gt;Node2</title>
<path fill="none" stroke="midnightblue" d="M160.697,-63.0264C142.508,-67.5586 123.053,-72.4066 106.724,-76.4754"/>
<polygon fill="midnightblue" stroke="midnightblue" points="161.786,-66.362 170.643,-60.5479 160.094,-59.5697 161.786,-66.362"/>
</g>
<!-- Node3 -->
<g id="node3" class="node"><title>Node3</title>
<g id="a_node3"><a xlink:href="namespaceopenage_1_1convert_1_1main.xhtml#ab4e998cdda52db3b3cae6efbcd2eda23" target="_top" xlink:title="CLI entry point.">
<polygon fill="white" stroke="black" points="0,-38.5 0,-57.5 135,-57.5 135,-38.5 0,-38.5"/>
<text text-anchor="middle" x="67.5" y="-45.5" font-family="Helvetica,sans-Serif" font-size="10.00">openage.convert.main.main</text>
</a>
</g>
</g>
<!-- Node1&#45;&gt;Node3 -->
<g id="edge2" class="edge"><title>Node1&#45;&gt;Node3</title>
<path fill="none" stroke="midnightblue" d="M160.598,-48C152.231,-48 143.597,-48 135.124,-48"/>
<polygon fill="midnightblue" stroke="midnightblue" points="160.643,-51.5001 170.643,-48 160.643,-44.5001 160.643,-51.5001"/>
</g>
<!-- Node4 -->
<g id="node4" class="node"><title>Node4</title>
<g id="a_node4"><a xlink:href="namespaceopenage_1_1assets.xhtml#a362b18ac5b307e65b5ee2a0e2bc69b77" target="_top" xlink:title="Tests whether a specific asset exists.">
<polygon fill="white" stroke="black" points="15,-0.5 15,-19.5 120,-19.5 120,-0.5 15,-0.5"/>
<text text-anchor="middle" x="67.5" y="-7.5" font-family="Helvetica,sans-Serif" font-size="10.00">openage.assets.test</text>
</a>
</g>
</g>
<!-- Node1&#45;&gt;Node4 -->
<g id="edge3" class="edge"><title>Node1&#45;&gt;Node4</title>
<path fill="none" stroke="midnightblue" d="M160.697,-32.9736C142.508,-28.4414 123.053,-23.5934 106.724,-19.5246"/>
<polygon fill="midnightblue" stroke="midnightblue" points="160.094,-36.4303 170.643,-35.4521 161.786,-29.638 160.094,-36.4303"/>
</g>
</g>
</svg>
