<?xml version="1.0" encoding="UTF-8" standalone="no"?>
<!DOCTYPE svg PUBLIC "-//W3C//DTD SVG 1.1//EN"
 "http://www.w3.org/Graphics/SVG/1.1/DTD/svg11.dtd">
<!-- Generated by graphviz version 2.38.0 (20140413.2041)
 -->
<!-- Title: openage::renderer::resources::vertex_input_size Pages: 1 -->
<svg width="314pt" height="50pt"
 viewBox="0.00 0.00 314.00 50.00" xmlns="http://www.w3.org/2000/svg" xmlns:xlink="http://www.w3.org/1999/xlink">
<g id="graph0" class="graph" transform="scale(1 1) rotate(0) translate(4 46)">
<title>openage::renderer::resources::vertex_input_size</title>
<polygon fill="white" stroke="none" points="-4,4 -4,-46 310,-46 310,4 -4,4"/>
<!-- Node21 -->
<g id="node1" class="node"><title>Node21</title>
<g id="a_node1"><a xlink:title="Returns the size in bytes of a per&#45;vertex input.">
<polygon fill="#bfbfbf" stroke="black" points="166,-6 166,-36 306,-36 306,-6 166,-6"/>
<text text-anchor="start" x="174" y="-24" font-family="Helvetica,sans-Serif" font-size="10.00">openage::renderer::</text>
<text text-anchor="middle" x="236" y="-13" font-family="Helvetica,sans-Serif" font-size="10.00">resources::vertex_input_size</text>
</a>
</g>
</g>
<!-- Node22 -->
<g id="node2" class="node"><title>Node22</title>
<g id="a_node2"><a xlink:href="classopenage_1_1renderer_1_1resources_1_1_vertex_input_info.xhtml#a32cc6408584ff4eecd6d43565eed9864" target="_top" xlink:title="Returns the size of a single vertex.">
<polygon fill="white" stroke="black" points="0,-0.5 0,-41.5 130,-41.5 130,-0.5 0,-0.5"/>
<text text-anchor="start" x="8" y="-29.5" font-family="Helvetica,sans-Serif" font-size="10.00">openage::renderer::</text>
<text text-anchor="start" x="8" y="-18.5" font-family="Helvetica,sans-Serif" font-size="10.00">resources::VertexInputInfo</text>
<text text-anchor="middle" x="65" y="-7.5" font-family="Helvetica,sans-Serif" font-size="10.00">::vert_size</text>
</a>
</g>
</g>
<!-- Node21&#45;&gt;Node22 -->
<g id="edge1" class="edge"><title>Node21&#45;&gt;Node22</title>
<path fill="none" stroke="midnightblue" d="M155.497,-21C147.026,-21 138.487,-21 130.224,-21"/>
<polygon fill="midnightblue" stroke="midnightblue" points="155.774,-24.5001 165.774,-21 155.774,-17.5001 155.774,-24.5001"/>
</g>
</g>
</svg>
