<?xml version="1.0" encoding="UTF-8" standalone="no"?>
<!DOCTYPE svg PUBLIC "-//W3C//DTD SVG 1.1//EN"
 "http://www.w3.org/Graphics/SVG/1.1/DTD/svg11.dtd">
<!-- Generated by graphviz version 2.38.0 (20140413.2041)
 -->
<!-- Title: openage::util::utf8_pop_back Pages: 1 -->
<svg width="272pt" height="39pt"
 viewBox="0.00 0.00 272.00 39.00" xmlns="http://www.w3.org/2000/svg" xmlns:xlink="http://www.w3.org/1999/xlink">
<g id="graph0" class="graph" transform="scale(1 1) rotate(0) translate(4 35)">
<title>openage::util::utf8_pop_back</title>
<polygon fill="white" stroke="none" points="-4,4 -4,-35 268,-35 268,4 -4,4"/>
<!-- Node763 -->
<g id="node1" class="node"><title>Node763</title>
<g id="a_node1"><a xlink:title=" ">
<polygon fill="#bfbfbf" stroke="black" points="170,-0.5 170,-30.5 264,-30.5 264,-0.5 170,-0.5"/>
<text text-anchor="start" x="178" y="-18.5" font-family="Helvetica,sans-Serif" font-size="10.00">openage::util::utf8</text>
<text text-anchor="middle" x="217" y="-7.5" font-family="Helvetica,sans-Serif" font-size="10.00">_pop_back</text>
</a>
</g>
</g>
<!-- Node764 -->
<g id="node2" class="node"><title>Node764</title>
<g id="a_node2"><a xlink:href="classopenage_1_1console_1_1_console.xhtml#ab5e30408417ac212bd3f35e50edd3a82" target="_top" xlink:title=" ">
<polygon fill="white" stroke="black" points="0,-0.5 0,-30.5 134,-30.5 134,-0.5 0,-0.5"/>
<text text-anchor="start" x="8" y="-18.5" font-family="Helvetica,sans-Serif" font-size="10.00">openage::console::Console</text>
<text text-anchor="middle" x="67" y="-7.5" font-family="Helvetica,sans-Serif" font-size="10.00">::register_to_engine</text>
</a>
</g>
</g>
<!-- Node763&#45;&gt;Node764 -->
<g id="edge1" class="edge"><title>Node763&#45;&gt;Node764</title>
<path fill="none" stroke="midnightblue" d="M159.895,-15.5C151.465,-15.5 142.705,-15.5 134.09,-15.5"/>
<polygon fill="midnightblue" stroke="midnightblue" points="159.983,-19.0001 169.983,-15.5 159.983,-12.0001 159.983,-19.0001"/>
</g>
</g>
</svg>
