<?xml version="1.0" encoding="UTF-8" standalone="no"?>
<!DOCTYPE svg PUBLIC "-//W3C//DTD SVG 1.1//EN"
 "http://www.w3.org/Graphics/SVG/1.1/DTD/svg11.dtd">
<!-- Generated by graphviz version 2.38.0 (20140413.2041)
 -->
<!-- Title: openage::rng::time_seed Pages: 1 -->
<svg width="575pt" height="88pt"
 viewBox="0.00 0.00 575.00 88.00" xmlns="http://www.w3.org/2000/svg" xmlns:xlink="http://www.w3.org/1999/xlink">
<g id="graph0" class="graph" transform="scale(1 1) rotate(0) translate(4 84)">
<title>openage::rng::time_seed</title>
<polygon fill="white" stroke="none" points="-4,4 -4,-84 571,-84 571,4 -4,4"/>
<!-- Node136 -->
<g id="node1" class="node"><title>Node136</title>
<g id="a_node1"><a xlink:title=" ">
<polygon fill="#bfbfbf" stroke="black" points="0,-30 0,-49 124,-49 124,-30 0,-30"/>
<text text-anchor="middle" x="62" y="-37" font-family="Helvetica,sans-Serif" font-size="10.00">openage::rng::time_seed</text>
</a>
</g>
</g>
<!-- Node137 -->
<g id="node2" class="node"><title>Node137</title>
<g id="a_node2"><a xlink:href="namespaceopenage_1_1rng.xhtml#a4bdd2cc5c7f7f5d81ff514287f65eef0" target="_top" xlink:title=" ">
<polygon fill="white" stroke="black" points="160,-30 160,-49 284,-49 284,-30 160,-30"/>
<text text-anchor="middle" x="222" y="-37" font-family="Helvetica,sans-Serif" font-size="10.00">openage::rng::time_seed</text>
</a>
</g>
</g>
<!-- Node136&#45;&gt;Node137 -->
<g id="edge1" class="edge"><title>Node136&#45;&gt;Node137</title>
<path fill="none" stroke="midnightblue" d="M124.087,-39.5C132.513,-39.5 141.226,-39.5 149.815,-39.5"/>
<polygon fill="midnightblue" stroke="midnightblue" points="149.815,-43.0001 159.815,-39.5 149.815,-36.0001 149.815,-43.0001"/>
</g>
<!-- Node138 -->
<g id="node3" class="node"><title>Node138</title>
<g id="a_node3"><a xlink:href="namespaceopenage_1_1timing.xhtml#aea51f4c8e71a8c326e3dd9dcc05c00eb" target="_top" xlink:title=" ">
<polygon fill="white" stroke="black" points="331.5,-49.5 331.5,-79.5 436.5,-79.5 436.5,-49.5 331.5,-49.5"/>
<text text-anchor="start" x="339.5" y="-67.5" font-family="Helvetica,sans-Serif" font-size="10.00">openage::timing::get</text>
<text text-anchor="middle" x="384" y="-56.5" font-family="Helvetica,sans-Serif" font-size="10.00">_real_time</text>
</a>
</g>
</g>
<!-- Node137&#45;&gt;Node138 -->
<g id="edge2" class="edge"><title>Node137&#45;&gt;Node138</title>
<path fill="none" stroke="midnightblue" d="M283.946,-49.0227C296.158,-50.9309 308.998,-52.9373 321.238,-54.8497"/>
<polygon fill="midnightblue" stroke="midnightblue" points="320.93,-58.3439 331.35,-56.4297 322.011,-51.4278 320.93,-58.3439"/>
</g>
<!-- Node139 -->
<g id="node4" class="node"><title>Node139</title>
<g id="a_node4"><a xlink:href="namespaceopenage_1_1rng.xhtml#a924b85bc82578378e68818dab9a247b6" target="_top" xlink:title=" ">
<polygon fill="white" stroke="black" points="320,-0.5 320,-30.5 448,-30.5 448,-0.5 320,-0.5"/>
<text text-anchor="start" x="328" y="-18.5" font-family="Helvetica,sans-Serif" font-size="10.00">openage::rng::try_random</text>
<text text-anchor="middle" x="384" y="-7.5" font-family="Helvetica,sans-Serif" font-size="10.00">_device</text>
</a>
</g>
</g>
<!-- Node137&#45;&gt;Node139 -->
<g id="edge3" class="edge"><title>Node137&#45;&gt;Node139</title>
<path fill="none" stroke="midnightblue" d="M284.403,-30.2896C292.764,-29.0355 301.412,-27.7383 309.953,-26.4571"/>
<polygon fill="midnightblue" stroke="midnightblue" points="310.537,-29.9087 319.907,-24.9639 309.499,-22.9861 310.537,-29.9087"/>
</g>
<!-- Node140 -->
<g id="node5" class="node"><title>Node140</title>
<g id="a_node5"><a xlink:href="namespaceopenage_1_1log.xhtml#a325b0901ddb3f2af36f93781b7dd9744" target="_top" xlink:title="error message">
<polygon fill="white" stroke="black" points="484,-6 484,-25 567,-25 567,-6 484,-6"/>
<text text-anchor="middle" x="525.5" y="-13" font-family="Helvetica,sans-Serif" font-size="10.00">openage.log.err</text>
</a>
</g>
</g>
<!-- Node139&#45;&gt;Node140 -->
<g id="edge4" class="edge"><title>Node139&#45;&gt;Node140</title>
<path fill="none" stroke="midnightblue" d="M448.219,-15.5C456.735,-15.5 465.382,-15.5 473.645,-15.5"/>
<polygon fill="midnightblue" stroke="midnightblue" points="473.87,-19.0001 483.87,-15.5 473.87,-12.0001 473.87,-19.0001"/>
</g>
</g>
</svg>
