<?xml version="1.0" encoding="UTF-8" standalone="no"?>
<!DOCTYPE svg PUBLIC "-//W3C//DTD SVG 1.1//EN"
 "http://www.w3.org/Graphics/SVG/1.1/DTD/svg11.dtd">
<!-- Generated by graphviz version 2.38.0 (20140413.2041)
 -->
<!-- Title: openage::util::dirname Pages: 1 -->
<svg width="826pt" height="114pt"
 viewBox="0.00 0.00 826.00 113.91" xmlns="http://www.w3.org/2000/svg" xmlns:xlink="http://www.w3.org/1999/xlink">
<g id="graph0" class="graph" transform="scale(1 1) rotate(0) translate(4 109.908)">
<title>openage::util::dirname</title>
<polygon fill="white" stroke="none" points="-4,4 -4,-109.908 822,-109.908 822,4 -4,4"/>
<!-- Node90 -->
<g id="node1" class="node"><title>Node90</title>
<g id="a_node1"><a xlink:title=" ">
<polygon fill="#bfbfbf" stroke="black" points="705,-21.9081 705,-40.9081 818,-40.9081 818,-21.9081 705,-21.9081"/>
<text text-anchor="middle" x="761.5" y="-28.9081" font-family="Helvetica,sans-Serif" font-size="10.00">openage::util::dirname</text>
</a>
</g>
</g>
<!-- Node91 -->
<g id="node2" class="node"><title>Node91</title>
<g id="a_node2"><a xlink:href="classopenage_1_1util_1_1_c_s_v_collection.xhtml#a687817b834b18f90124915261c3752a8" target="_top" xlink:title=" ">
<polygon fill="white" stroke="black" points="528,-16.4081 528,-46.4081 669,-46.4081 669,-16.4081 528,-16.4081"/>
<text text-anchor="start" x="536" y="-34.4081" font-family="Helvetica,sans-Serif" font-size="10.00">openage::util::CSVCollection</text>
<text text-anchor="middle" x="598.5" y="-23.4081" font-family="Helvetica,sans-Serif" font-size="10.00">::read</text>
</a>
</g>
</g>
<!-- Node90&#45;&gt;Node91 -->
<g id="edge1" class="edge"><title>Node90&#45;&gt;Node91</title>
<path fill="none" stroke="midnightblue" d="M694.559,-31.4081C686.184,-31.4081 677.592,-31.4081 669.16,-31.4081"/>
<polygon fill="midnightblue" stroke="midnightblue" points="694.642,-34.9082 704.642,-31.4081 694.642,-27.9082 694.642,-34.9082"/>
</g>
<!-- Node92 -->
<g id="node3" class="node"><title>Node92</title>
<g id="a_node3"><a xlink:href="structopenage_1_1util_1_1csv__subdata.xhtml#a24b1327a670ab69e55c089234bdcbfec" target="_top" xlink:title=" ">
<polygon fill="white" stroke="black" points="400,-16.4081 400,-46.4081 492,-46.4081 492,-16.4081 400,-16.4081"/>
<text text-anchor="start" x="408" y="-34.4081" font-family="Helvetica,sans-Serif" font-size="10.00">openage::util::csv</text>
<text text-anchor="middle" x="446" y="-23.4081" font-family="Helvetica,sans-Serif" font-size="10.00">_subdata::read</text>
</a>
</g>
</g>
<!-- Node91&#45;&gt;Node92 -->
<g id="edge2" class="edge"><title>Node91&#45;&gt;Node92</title>
<path fill="none" stroke="midnightblue" d="M517.976,-31.4081C509.124,-31.4081 500.352,-31.4081 492.15,-31.4081"/>
<polygon fill="midnightblue" stroke="midnightblue" points="517.977,-34.9082 527.977,-31.4081 517.977,-27.9082 517.977,-34.9082"/>
</g>
<!-- Node93 -->
<g id="node4" class="node"><title>Node93</title>
<g id="a_node4"><a xlink:href="classopenage_1_1convert_1_1dataformat_1_1exportable_1_1_exportable.xhtml#aadb76e27d69a7a94abc320498c316efe" target="_top" xlink:title="recursively read defined binary data from raw at given offset.">
<polygon fill="white" stroke="black" points="177,-57.4081 177,-87.4081 364,-87.4081 364,-57.4081 177,-57.4081"/>
<text text-anchor="start" x="185" y="-75.4081" font-family="Helvetica,sans-Serif" font-size="10.00">openage.convert.dataformat.exportable.</text>
<text text-anchor="middle" x="270.5" y="-64.4081" font-family="Helvetica,sans-Serif" font-size="10.00">Exportable.read</text>
</a>
</g>
</g>
<!-- Node91&#45;&gt;Node93 -->
<g id="edge7" class="edge"><title>Node91&#45;&gt;Node93</title>
<path fill="none" stroke="midnightblue" d="M528.356,-48.66C516.294,-51.2324 503.825,-53.6171 492,-55.4081 450.242,-61.7326 403.658,-65.7608 364.106,-68.2982"/>
<polygon fill="midnightblue" stroke="midnightblue" points="529.35,-52.0252 538.368,-46.4641 527.851,-45.1877 529.35,-52.0252"/>
</g>
<!-- Node94 -->
<g id="node5" class="node"><title>Node94</title>
<g id="a_node5"><a xlink:href="classopenage_1_1convert_1_1peresource_1_1_string_literal.xhtml#afe54133fe4a7d4cb75352a250a11a024" target="_top" xlink:title="In addition to the static data, reads the string.">
<polygon fill="white" stroke="black" points="0,-13.4081 0,-43.4081 141,-43.4081 141,-13.4081 0,-13.4081"/>
<text text-anchor="start" x="8" y="-31.4081" font-family="Helvetica,sans-Serif" font-size="10.00">openage.convert.peresource.</text>
<text text-anchor="middle" x="70.5" y="-20.4081" font-family="Helvetica,sans-Serif" font-size="10.00">StringLiteral.readall</text>
</a>
</g>
</g>
<!-- Node91&#45;&gt;Node94 -->
<g id="edge8" class="edge"><title>Node91&#45;&gt;Node94</title>
<path fill="none" stroke="midnightblue" d="M534.796,-14.0248C520.818,-10.8588 505.991,-8.04324 492,-6.40814 369.109,7.95355 224.913,-6.29086 141.299,-17.5939"/>
<polygon fill="midnightblue" stroke="midnightblue" points="534.264,-17.4952 544.8,-16.3803 535.869,-10.6816 534.264,-17.4952"/>
</g>
<!-- Node92&#45;&gt;Node93 -->
<g id="edge3" class="edge"><title>Node92&#45;&gt;Node93</title>
<path fill="none" stroke="midnightblue" d="M389.853,-44.44C372.412,-48.5615 352.997,-53.1495 335.019,-57.3979"/>
<polygon fill="midnightblue" stroke="midnightblue" points="390.941,-47.7794 399.868,-42.0734 389.331,-40.967 390.941,-47.7794"/>
</g>
<!-- Node92&#45;&gt;Node94 -->
<g id="edge6" class="edge"><title>Node92&#45;&gt;Node94</title>
<path fill="none" stroke="midnightblue" d="M389.741,-30.9643C323.682,-30.4337 213.066,-29.5452 141.199,-28.968"/>
<polygon fill="midnightblue" stroke="midnightblue" points="389.919,-34.4657 399.947,-31.0463 389.976,-27.466 389.919,-34.4657"/>
</g>
<!-- Node93&#45;&gt;Node93 -->
<g id="edge4" class="edge"><title>Node93&#45;&gt;Node93</title>
<path fill="none" stroke="midnightblue" d="M301.418,-97.866C297.58,-102.587 287.274,-105.908 270.5,-105.908 242.973,-105.908 232.865,-96.9647 240.177,-87.5671"/>
<polygon fill="midnightblue" stroke="midnightblue" points="304.894,-97.3487 300.823,-87.5671 297.905,-97.7523 304.894,-97.3487"/>
</g>
<!-- Node93&#45;&gt;Node94 -->
<g id="edge5" class="edge"><title>Node93&#45;&gt;Node94</title>
<path fill="none" stroke="midnightblue" d="M191.792,-55.1397C174.392,-51.273 156.07,-47.2015 139.118,-43.4343"/>
<polygon fill="midnightblue" stroke="midnightblue" points="191.392,-58.6362 201.913,-57.3889 192.911,-51.8029 191.392,-58.6362"/>
</g>
</g>
</svg>
