<?xml version="1.0" encoding="UTF-8" standalone="no"?>
<!DOCTYPE svg PUBLIC "-//W3C//DTD SVG 1.1//EN"
 "http://www.w3.org/Graphics/SVG/1.1/DTD/svg11.dtd">
<!-- Generated by graphviz version 2.38.0 (20140413.2041)
 -->
<!-- Title: openage::allowed_terrains Pages: 1 -->
<svg width="628pt" height="127pt"
 viewBox="0.00 0.00 628.00 126.50" xmlns="http://www.w3.org/2000/svg" xmlns:xlink="http://www.w3.org/1999/xlink">
<g id="graph0" class="graph" transform="scale(1 1) rotate(0) translate(4 122.5)">
<title>openage::allowed_terrains</title>
<polygon fill="white" stroke="none" points="-4,4 -4,-122.5 624,-122.5 624,4 -4,4"/>
<!-- Node0 -->
<g id="node1" class="node"><title>Node0</title>
<g id="a_node1"><a xlink:title=" ">
<polygon fill="#bfbfbf" stroke="black" points="0,-47.5 0,-66.5 129,-66.5 129,-47.5 0,-47.5"/>
<text text-anchor="middle" x="64.5" y="-54.5" font-family="Helvetica,sans-Serif" font-size="10.00">openage::allowed_terrains</text>
</a>
</g>
</g>
<!-- Node1 -->
<g id="node2" class="node"><title>Node1</title>
<g id="a_node2"><a xlink:href="namespaceopenage_1_1log.xhtml#a0eff614e7d6e818746700ed9d29e583f" target="_top" xlink:title=" ">
<polygon fill="white" stroke="black" points="165.5,-66.5 165.5,-85.5 256.5,-85.5 256.5,-66.5 165.5,-66.5"/>
<text text-anchor="middle" x="211" y="-73.5" font-family="Helvetica,sans-Serif" font-size="10.00">openage::log::log</text>
</a>
</g>
</g>
<!-- Node0&#45;&gt;Node1 -->
<g id="edge1" class="edge"><title>Node0&#45;&gt;Node1</title>
<path fill="none" stroke="midnightblue" d="M129.3,-65.389C137.9,-66.5198 146.662,-67.6719 155.09,-68.78"/>
<polygon fill="midnightblue" stroke="midnightblue" points="154.799,-72.2718 165.17,-70.1054 155.712,-65.3315 154.799,-72.2718"/>
</g>
<!-- Node7 -->
<g id="node8" class="node"><title>Node7</title>
<g id="a_node8"><a xlink:href="namespaceopenage_1_1log.xhtml#a7ca418e1b1fcf210ff91cd25dc8e6a36" target="_top" xlink:title="warning message">
<polygon fill="white" stroke="black" points="165,-28.5 165,-47.5 257,-47.5 257,-28.5 165,-28.5"/>
<text text-anchor="middle" x="211" y="-35.5" font-family="Helvetica,sans-Serif" font-size="10.00">openage.log.warn</text>
</a>
</g>
</g>
<!-- Node0&#45;&gt;Node7 -->
<g id="edge7" class="edge"><title>Node0&#45;&gt;Node7</title>
<path fill="none" stroke="midnightblue" d="M129.3,-48.611C137.793,-47.4944 146.443,-46.3569 154.774,-45.2616"/>
<polygon fill="midnightblue" stroke="midnightblue" points="155.285,-48.7245 164.744,-43.9506 154.373,-41.7843 155.285,-48.7245"/>
</g>
<!-- Node2 -->
<g id="node3" class="node"><title>Node2</title>
<g id="a_node3"><a xlink:href="namespaceopenage_1_1log.xhtml#a3fbb0c225d01e222648ec28a43507188" target="_top" xlink:title=" ">
<polygon fill="white" stroke="black" points="309.5,-83 309.5,-113 419.5,-113 419.5,-83 309.5,-83"/>
<text text-anchor="start" x="317.5" y="-101" font-family="Helvetica,sans-Serif" font-size="10.00">openage::log::general</text>
<text text-anchor="middle" x="364.5" y="-90" font-family="Helvetica,sans-Serif" font-size="10.00">_source</text>
</a>
</g>
</g>
<!-- Node1&#45;&gt;Node2 -->
<g id="edge2" class="edge"><title>Node1&#45;&gt;Node2</title>
<path fill="none" stroke="midnightblue" d="M256.636,-82.4817C269.91,-84.4094 284.727,-86.5611 299,-88.6337"/>
<polygon fill="midnightblue" stroke="midnightblue" points="298.867,-92.151 309.266,-90.1245 299.873,-85.2237 298.867,-92.151"/>
</g>
<!-- Node3 -->
<g id="node4" class="node"><title>Node3</title>
<g id="a_node4"><a xlink:href="classopenage_1_1log_1_1_log_source.xhtml#a5640099e20af4cd368c767dbcef3a1df" target="_top" xlink:title=" ">
<polygon fill="white" stroke="black" points="293,-44.5 293,-63.5 436,-63.5 436,-44.5 293,-44.5"/>
<text text-anchor="middle" x="364.5" y="-51.5" font-family="Helvetica,sans-Serif" font-size="10.00">openage::log::LogSource::log</text>
</a>
</g>
</g>
<!-- Node1&#45;&gt;Node3 -->
<g id="edge3" class="edge"><title>Node1&#45;&gt;Node3</title>
<path fill="none" stroke="midnightblue" d="M256.636,-69.5183C266.425,-68.0967 277.053,-66.5533 287.683,-65.0097"/>
<polygon fill="midnightblue" stroke="midnightblue" points="288.455,-68.4344 297.848,-63.5336 287.449,-61.507 288.455,-68.4344"/>
</g>
<!-- Node4 -->
<g id="node5" class="node"><title>Node4</title>
<g id="a_node5"><a xlink:href="namespaceopenage_1_1log.xhtml#a3d2885be9c3a09b9ff7ee8764b2e5f39" target="_top" xlink:title=" ">
<polygon fill="white" stroke="black" points="494,-88 494,-118 598,-118 598,-88 494,-88"/>
<text text-anchor="start" x="502" y="-106" font-family="Helvetica,sans-Serif" font-size="10.00">openage::log::global</text>
<text text-anchor="middle" x="546" y="-95" font-family="Helvetica,sans-Serif" font-size="10.00">_stdoutsink</text>
</a>
</g>
</g>
<!-- Node3&#45;&gt;Node4 -->
<g id="edge4" class="edge"><title>Node3&#45;&gt;Node4</title>
<path fill="none" stroke="midnightblue" d="M400.536,-63.564C424.265,-70.0416 456.246,-78.7718 484.085,-86.3714"/>
<polygon fill="midnightblue" stroke="midnightblue" points="483.17,-89.7497 493.739,-89.0067 485.014,-82.9968 483.17,-89.7497"/>
</g>
<!-- Node5 -->
<g id="node6" class="node"><title>Node5</title>
<g id="a_node6"><a xlink:href="classopenage_1_1log_1_1_log_sink_list.xhtml#a2d47416fab12651553b4b58c86fd6f84" target="_top" xlink:title=" ">
<polygon fill="white" stroke="black" points="481.5,-39 481.5,-69 610.5,-69 610.5,-39 481.5,-39"/>
<text text-anchor="start" x="489.5" y="-57" font-family="Helvetica,sans-Serif" font-size="10.00">openage::log::LogSinkList</text>
<text text-anchor="middle" x="546" y="-46" font-family="Helvetica,sans-Serif" font-size="10.00">::instance</text>
</a>
</g>
</g>
<!-- Node3&#45;&gt;Node5 -->
<g id="edge5" class="edge"><title>Node3&#45;&gt;Node5</title>
<path fill="none" stroke="midnightblue" d="M436.185,-54C447.719,-54 459.693,-54 471.297,-54"/>
<polygon fill="midnightblue" stroke="midnightblue" points="471.38,-57.5001 481.379,-54 471.379,-50.5001 471.38,-57.5001"/>
</g>
<!-- Node6 -->
<g id="node7" class="node"><title>Node6</title>
<g id="a_node7"><a xlink:href="classopenage_1_1log_1_1_log_sink_list.xhtml#a8456b84ab55e1fe151c51438c5bfebdd" target="_top" xlink:title=" ">
<polygon fill="white" stroke="black" points="472,-0.5 472,-19.5 620,-19.5 620,-0.5 472,-0.5"/>
<text text-anchor="middle" x="546" y="-7.5" font-family="Helvetica,sans-Serif" font-size="10.00">openage::log::LogSinkList::log</text>
</a>
</g>
</g>
<!-- Node3&#45;&gt;Node6 -->
<g id="edge6" class="edge"><title>Node3&#45;&gt;Node6</title>
<path fill="none" stroke="midnightblue" d="M404.449,-44.4527C431.382,-37.8508 467.415,-29.0181 496.253,-21.949"/>
<polygon fill="midnightblue" stroke="midnightblue" points="497.248,-25.3089 506.127,-19.5287 495.581,-18.5102 497.248,-25.3089"/>
</g>
</g>
</svg>
