<?xml version="1.0" encoding="UTF-8" standalone="no"?>
<!DOCTYPE svg PUBLIC "-//W3C//DTD SVG 1.1//EN"
 "http://www.w3.org/Graphics/SVG/1.1/DTD/svg11.dtd">
<!-- Generated by graphviz version 2.38.0 (20140413.2041)
 -->
<!-- Title: openage.convert.driver.convert_mediafile Pages: 1 -->
<!--zoomable 165 -->
<svg id="main" version="1.1" xmlns="http://www.w3.org/2000/svg" xmlns:xlink="http://www.w3.org/1999/xlink" xml:space="preserve" onload="init(evt)">
<style type="text/css"><![CDATA[
.edge:hover path { stroke: red; }
.edge:hover polygon { stroke: red; fill: red; }
]]></style>
<script type="text/javascript"><![CDATA[
var edges = document.getElementsByTagName('g');
if (edges && edges.length) {
  for (var i=0;i<edges.length;i++) {
    if (edges[i].id.substr(0,4)=='edge') {
      edges[i].setAttribute('class','edge');
    }
  }
}
]]></script>
        <defs>
                <circle id="rim" cx="0" cy="0" r="7"/>
                <circle id="rim2" cx="0" cy="0" r="3.5"/>
                <g id="zoomPlus">
                        <use xlink:href="#rim" fill="#404040">
                                <set attributeName="fill" to="#808080" begin="zoomplus.mouseover" end="zoomplus.mouseout"/>
                        </use>
                        <path d="M-4,0h8M0,-4v8" fill="none" stroke="white" stroke-width="1.5" pointer-events="none"/>
                </g>
                <g id="zoomMin">
                        <use xlink:href="#rim" fill="#404040">
                                <set attributeName="fill" to="#808080" begin="zoomminus.mouseover" end="zoomminus.mouseout"/>
                        </use>
                        <path d="M-4,0h8" fill="none" stroke="white" stroke-width="1.5" pointer-events="none"/>
                </g>
                <g id="dirArrow">
                        <path fill="none" stroke="white" stroke-width="1.5" d="M0,-3.0v7 M-2.5,-0.5L0,-3.0L2.5,-0.5"/>
                </g>
               <g id="resetDef">
                       <use xlink:href="#rim2" fill="#404040">
                               <set attributeName="fill" to="#808080" begin="reset.mouseover" end="reset.mouseout"/>
                       </use>
               </g>
        </defs>

<script type="text/javascript">
var viewWidth = 1131;
var viewHeight = 165;
var sectionId = 'dynsection-5';
</script>
<script xlink:href="svgpan.js"/>
<svg id="graph" class="graph">
<g id="viewport">
<title>openage.convert.driver.convert_mediafile</title>
<polygon fill="white" stroke="none" points="-4,4 -4,-161 1127,-161 1127,4 -4,4"/>
<!-- Node65 -->
<g id="node1" class="node"><title>Node65</title>
<g id="a_node1"><a xlink:title=" ">
<polygon fill="#bfbfbf" stroke="black" points="0,-17 0,-47 146,-47 146,-17 0,-17"/>
<text text-anchor="start" x="8" y="-35" font-family="Helvetica,sans-Serif" font-size="10.00">openage.convert.driver.convert</text>
<text text-anchor="middle" x="73" y="-24" font-family="Helvetica,sans-Serif" font-size="10.00">_mediafile</text>
</a>
</g>
</g>
<!-- Node66 -->
<g id="node2" class="node"><title>Node66</title>
<g id="a_node2"><a xlink:href="namespaceopenage_1_1convert_1_1driver.xhtml#a7d1272350acf362f78ea6e0373880c59" target="_top" xlink:title=" ">
<polygon fill="white" stroke="black" points="183.5,-42.5 183.5,-61.5 347.5,-61.5 347.5,-42.5 183.5,-42.5"/>
<text text-anchor="middle" x="265.5" y="-49.5" font-family="Helvetica,sans-Serif" font-size="10.00">openage.convert.driver.convert_slp</text>
</a>
</g>
</g>
<!-- Node65&#45;&gt;Node66 -->
<g id="edge1" class="edge"><title>Node65&#45;&gt;Node66</title>
<path fill="none" stroke="midnightblue" d="M146.02,-39.5611C154.996,-40.5035 164.264,-41.4766 173.48,-42.4441"/>
<polygon fill="midnightblue" stroke="midnightblue" points="173.132,-45.9268 183.443,-43.4901 173.863,-38.965 173.132,-45.9268"/>
</g>
<!-- Node76 -->
<g id="node12" class="node"><title>Node76</title>
<g id="a_node12"><a xlink:href="namespaceopenage_1_1convert_1_1driver.xhtml#ac829030d79b4d14be0f6cf8c1eb035a8" target="_top" xlink:title="Convert a wav audio file to an opus file.">
<polygon fill="white" stroke="black" points="182,-3.5 182,-22.5 349,-22.5 349,-3.5 182,-3.5"/>
<text text-anchor="middle" x="265.5" y="-10.5" font-family="Helvetica,sans-Serif" font-size="10.00">openage.convert.driver.convert_wav</text>
</a>
</g>
</g>
<!-- Node65&#45;&gt;Node76 -->
<g id="edge13" class="edge"><title>Node65&#45;&gt;Node76</title>
<path fill="none" stroke="midnightblue" d="M146.02,-24.8169C154.426,-23.9785 163.089,-23.1145 171.725,-22.2531"/>
<polygon fill="midnightblue" stroke="midnightblue" points="172.23,-25.7202 181.833,-21.245 171.535,-18.7548 172.23,-25.7202"/>
</g>
<!-- Node67 -->
<g id="node3" class="node"><title>Node67</title>
<g id="a_node3"><a xlink:href="namespaceopenage_1_1convert_1_1interface_1_1rename.xhtml#a045e4e1a64322c77bfee10f24e8613e7" target="_top" xlink:title="Renaming interface assets and splitting into directories.">
<polygon fill="white" stroke="black" points="385,-88 385,-118 566,-118 566,-88 385,-88"/>
<text text-anchor="start" x="393" y="-106" font-family="Helvetica,sans-Serif" font-size="10.00">openage.convert.interface.rename.hud</text>
<text text-anchor="middle" x="475.5" y="-95" font-family="Helvetica,sans-Serif" font-size="10.00">_rename</text>
</a>
</g>
</g>
<!-- Node66&#45;&gt;Node67 -->
<g id="edge2" class="edge"><title>Node66&#45;&gt;Node67</title>
<path fill="none" stroke="midnightblue" d="M305.623,-61.5927C333.032,-68.3131 370.45,-77.4877 403.099,-85.4931"/>
<polygon fill="midnightblue" stroke="midnightblue" points="402.517,-88.9538 413.062,-87.936 404.184,-82.1552 402.517,-88.9538"/>
</g>
<!-- Node73 -->
<g id="node9" class="node"><title>Node73</title>
<g id="a_node9"><a xlink:href="namespaceopenage_1_1convert_1_1driver.xhtml#a3a28ebc76c4e7841f81931892db4849a" target="_top" xlink:title="Returns a human&#45;readable name if it&#39;s in the map.">
<polygon fill="white" stroke="black" points="411.5,-39 411.5,-69 539.5,-69 539.5,-39 411.5,-39"/>
<text text-anchor="start" x="419.5" y="-57" font-family="Helvetica,sans-Serif" font-size="10.00">openage.convert.driver.slp</text>
<text text-anchor="middle" x="475.5" y="-46" font-family="Helvetica,sans-Serif" font-size="10.00">_rename</text>
</a>
</g>
</g>
<!-- Node66&#45;&gt;Node73 -->
<g id="edge9" class="edge"><title>Node66&#45;&gt;Node73</title>
<path fill="none" stroke="midnightblue" d="M347.514,-52.779C365.25,-52.9495 383.924,-53.1291 401.332,-53.2965"/>
<polygon fill="midnightblue" stroke="midnightblue" points="401.385,-56.797 411.418,-53.3934 401.452,-49.7974 401.385,-56.797"/>
</g>
<!-- Node74 -->
<g id="node10" class="node"><title>Node74</title>
<g id="a_node10"><a xlink:href="namespaceopenage_1_1convert_1_1driver.xhtml#a6dce2cf04f6cf53afeba4c3dc859a3f0" target="_top" xlink:title=" ">
<polygon fill="white" stroke="black" points="394,-0.5 394,-19.5 557,-19.5 557,-0.5 394,-0.5"/>
<text text-anchor="middle" x="475.5" y="-7.5" font-family="Helvetica,sans-Serif" font-size="10.00">openage.convert.driver.change_dir</text>
</a>
</g>
</g>
<!-- Node66&#45;&gt;Node74 -->
<g id="edge10" class="edge"><title>Node66&#45;&gt;Node74</title>
<path fill="none" stroke="midnightblue" d="M313.698,-42.4695C344.439,-36.2623 384.73,-28.1265 417.291,-21.5518"/>
<polygon fill="midnightblue" stroke="midnightblue" points="418.019,-24.9755 427.129,-19.5653 416.634,-18.1139 418.019,-24.9755"/>
</g>
<!-- Node68 -->
<g id="node4" class="node"><title>Node68</title>
<g id="a_node4"><a xlink:href="namespaceopenage_1_1py.xhtml#a4d2bbe46a5d10404c658b54f3b199551" target="_top" xlink:title="str(value);">
<polygon fill="white" stroke="black" points="663,-137.5 663,-156.5 750,-156.5 750,-137.5 663,-137.5"/>
<text text-anchor="middle" x="706.5" y="-144.5" font-family="Helvetica,sans-Serif" font-size="10.00">openage::py::str</text>
</a>
</g>
</g>
<!-- Node67&#45;&gt;Node68 -->
<g id="edge3" class="edge"><title>Node67&#45;&gt;Node68</title>
<path fill="none" stroke="midnightblue" d="M551.121,-118.057C567.853,-121.38 585.526,-124.847 602,-128 618.568,-131.171 636.649,-134.526 652.997,-137.52"/>
<polygon fill="midnightblue" stroke="midnightblue" points="652.456,-140.979 662.922,-139.333 653.714,-134.093 652.456,-140.979"/>
</g>
<!-- Node71 -->
<g id="node7" class="node"><title>Node71</title>
<g id="a_node7"><a xlink:href="namespaceopenage_1_1convert_1_1interface_1_1hardcoded.xhtml#a5269bff8c865ba582e87918dd9e28d0d" target="_top" xlink:title="Index in the hardcoded list of the known ingame hud backgrounds to match the civ.">
<polygon fill="white" stroke="black" points="602,-88 602,-118 811,-118 811,-88 602,-88"/>
<text text-anchor="start" x="610" y="-106" font-family="Helvetica,sans-Serif" font-size="10.00">openage.convert.interface.hardcoded.ingame</text>
<text text-anchor="middle" x="706.5" y="-95" font-family="Helvetica,sans-Serif" font-size="10.00">_hud_background_index</text>
</a>
</g>
</g>
<!-- Node67&#45;&gt;Node71 -->
<g id="edge7" class="edge"><title>Node67&#45;&gt;Node71</title>
<path fill="none" stroke="midnightblue" d="M566.021,-103C574.497,-103 583.164,-103 591.825,-103"/>
<polygon fill="midnightblue" stroke="midnightblue" points="591.978,-106.5 601.978,-103 591.977,-99.5001 591.978,-106.5"/>
</g>
<!-- Node72 -->
<g id="node8" class="node"><title>Node72</title>
<g id="a_node8"><a xlink:href="namespaceopenage_1_1convert_1_1interface_1_1rename.xhtml#ac64b3950e30561002141b4459599afb0" target="_top" xlink:title="Rename a slp asset path by the lookup map above.">
<polygon fill="white" stroke="black" points="612,-39 612,-69 801,-69 801,-39 612,-39"/>
<text text-anchor="start" x="620" y="-57" font-family="Helvetica,sans-Serif" font-size="10.00">openage.convert.interface.rename.asset</text>
<text text-anchor="middle" x="706.5" y="-46" font-family="Helvetica,sans-Serif" font-size="10.00">_rename</text>
</a>
</g>
</g>
<!-- Node67&#45;&gt;Node72 -->
<g id="edge8" class="edge"><title>Node67&#45;&gt;Node72</title>
<path fill="none" stroke="midnightblue" d="M546.764,-87.9654C571.602,-82.6506 599.723,-76.6335 625.322,-71.156"/>
<polygon fill="midnightblue" stroke="midnightblue" points="626.323,-74.5212 635.369,-69.0062 624.858,-67.6761 626.323,-74.5212"/>
</g>
<!-- Node69 -->
<g id="node5" class="node"><title>Node69</title>
<g id="a_node5"><a xlink:href="namespaceopenage_1_1testing_1_1testing.xhtml#ac25bf81db406af62d08113ef7ae9fd6e" target="_top" xlink:title=" ">
<polygon fill="white" stroke="black" points="847,-68.5 847,-87.5 992,-87.5 992,-68.5 847,-68.5"/>
<text text-anchor="middle" x="919.5" y="-75.5" font-family="Helvetica,sans-Serif" font-size="10.00">openage.testing.testing.result</text>
</a>
</g>
</g>
<!-- Node68&#45;&gt;Node69 -->
<g id="edge4" class="edge"><title>Node68&#45;&gt;Node69</title>
<path fill="none" stroke="midnightblue" d="M750.145,-141.664C769.058,-138.664 791.417,-134.239 811,-128 839.912,-118.788 871.174,-103.605 892.492,-92.3822"/>
<polygon fill="midnightblue" stroke="midnightblue" points="894.377,-95.3437 901.543,-87.5404 891.075,-89.1714 894.377,-95.3437"/>
</g>
<!-- Node70 -->
<g id="node6" class="node"><title>Node70</title>
<g id="a_node6"><a xlink:href="namespaceopenage_1_1util.xhtml#a7bc4421a5f0f57f3a0aba3f96eb8d19c" target="_top" xlink:title="method that behaves similar to python&#39;s &quot;repr&quot;.">
<polygon fill="white" stroke="black" points="1028,-68.5 1028,-87.5 1123,-87.5 1123,-68.5 1028,-68.5"/>
<text text-anchor="middle" x="1075.5" y="-75.5" font-family="Helvetica,sans-Serif" font-size="10.00">openage::util::repr</text>
</a>
</g>
</g>
<!-- Node69&#45;&gt;Node70 -->
<g id="edge5" class="edge"><title>Node69&#45;&gt;Node70</title>
<path fill="none" stroke="midnightblue" d="M992.09,-71.2648C1000.6,-71.2181 1009.19,-71.2817 1017.45,-71.4556"/>
<polygon fill="midnightblue" stroke="midnightblue" points="1017.62,-74.9614 1027.71,-71.7348 1017.81,-67.964 1017.62,-74.9614"/>
</g>
<!-- Node70&#45;&gt;Node69 -->
<g id="edge6" class="edge"><title>Node70&#45;&gt;Node69</title>
<path fill="none" stroke="midnightblue" d="M1027.71,-84.2652C1019.63,-84.5381 1011.01,-84.6958 1002.31,-84.7383"/>
<polygon fill="midnightblue" stroke="midnightblue" points="1002.09,-81.2383 992.09,-84.7352 1002.09,-88.2383 1002.09,-81.2383"/>
</g>
<!-- Node75 -->
<g id="node11" class="node"><title>Node75</title>
<g id="a_node11"><a xlink:href="namespaceopenage_1_1py.xhtml#a58cbca251b8e2118e0a6b9b0b78a7b32" target="_top" xlink:title="list()">
<polygon fill="white" stroke="black" points="662,-0.5 662,-19.5 751,-19.5 751,-0.5 662,-0.5"/>
<text text-anchor="middle" x="706.5" y="-7.5" font-family="Helvetica,sans-Serif" font-size="10.00">openage::py::list</text>
</a>
</g>
</g>
<!-- Node74&#45;&gt;Node75 -->
<g id="edge11" class="edge"><title>Node74&#45;&gt;Node75</title>
<path fill="none" stroke="midnightblue" d="M557.237,-10C588.546,-10 623.554,-10 651.688,-10"/>
<polygon fill="midnightblue" stroke="midnightblue" points="651.722,-13.5001 661.722,-10 651.722,-6.5001 651.722,-13.5001"/>
</g>
<!-- Node75&#45;&gt;Node69 -->
<g id="edge12" class="edge"><title>Node75&#45;&gt;Node69</title>
<path fill="none" stroke="midnightblue" d="M751.134,-15.5685C769.826,-18.5776 791.742,-22.9453 811,-29 839.675,-38.0156 870.75,-52.7676 892.079,-63.7333"/>
<polygon fill="midnightblue" stroke="midnightblue" points="890.665,-66.9435 901.149,-68.471 893.906,-60.7389 890.665,-66.9435"/>
</g>
<!-- Node76&#45;&gt;Node74 -->
<g id="edge14" class="edge"><title>Node76&#45;&gt;Node74</title>
<path fill="none" stroke="midnightblue" d="M349.006,-11.81C360.41,-11.6455 372.175,-11.4758 383.719,-11.3093"/>
<polygon fill="midnightblue" stroke="midnightblue" points="383.844,-14.808 393.792,-11.1641 383.743,-7.80873 383.844,-14.808"/>
</g>
</g>
</svg>
        <g id="navigator" transform="translate(0 0)" fill="#404254">
                <rect fill="#f2f5e9" fill-opacity="0.5" stroke="#606060" stroke-width=".5" x="0" y="0" width="60" height="60"/>
                <use id="zoomplus" xlink:href="#zoomPlus" x="17" y="9" onmousedown="handleZoom(evt,'in')"/>
                <use id="zoomminus" xlink:href="#zoomMin" x="42" y="9" onmousedown="handleZoom(evt,'out')"/>
                <use id="reset" xlink:href="#resetDef" x="30" y="36" onmousedown="handleReset()"/>
                <g id="arrowUp" xlink:href="#dirArrow" transform="translate(30 24)" onmousedown="handlePan(0,-1)">
                  <use xlink:href="#rim" fill="#404040">
                        <set attributeName="fill" to="#808080" begin="arrowUp.mouseover" end="arrowUp.mouseout"/>
                  </use>
                  <path fill="none" stroke="white" stroke-width="1.5" d="M0,-3.0v7 M-2.5,-0.5L0,-3.0L2.5,-0.5"/>
                </g>
                <g id="arrowRight" xlink:href="#dirArrow" transform="rotate(90) translate(36 -43)" onmousedown="handlePan(1,0)">
                  <use xlink:href="#rim" fill="#404040">
                        <set attributeName="fill" to="#808080" begin="arrowRight.mouseover" end="arrowRight.mouseout"/>
                  </use>
                  <path fill="none" stroke="white" stroke-width="1.5" d="M0,-3.0v7 M-2.5,-0.5L0,-3.0L2.5,-0.5"/>
                </g>
                <g id="arrowDown" xlink:href="#dirArrow" transform="rotate(180) translate(-30 -48)" onmousedown="handlePan(0,1)">
                  <use xlink:href="#rim" fill="#404040">
                        <set attributeName="fill" to="#808080" begin="arrowDown.mouseover" end="arrowDown.mouseout"/>
                  </use>
                  <path fill="none" stroke="white" stroke-width="1.5" d="M0,-3.0v7 M-2.5,-0.5L0,-3.0L2.5,-0.5"/>
                </g>
                <g id="arrowLeft" xlink:href="#dirArrow" transform="rotate(270) translate(-36 17)" onmousedown="handlePan(-1,0)">
                  <use xlink:href="#rim" fill="#404040">
                        <set attributeName="fill" to="#808080" begin="arrowLeft.mouseover" end="arrowLeft.mouseout"/>
                  </use>
                  <path fill="none" stroke="white" stroke-width="1.5" d="M0,-3.0v7 M-2.5,-0.5L0,-3.0L2.5,-0.5"/>
                </g>
        </g>
        <svg viewBox="0 0 15 15" width="100%" height="30px" preserveAspectRatio="xMaxYMin meet">
         <g id="arrow_out" transform="scale(0.3 0.3)">
          <a xlink:href="namespaceopenage_1_1convert_1_1driver_a43cdddabcdd60c8443967f3b81047bd4_cgraph_org.svg" target="_base">
           <rect id="button" ry="5" rx="5" y="6" x="6" height="38" width="38"
                fill="#f2f5e9" fill-opacity="0.5" stroke="#606060" stroke-width="1.0"/>
           <path id="arrow"
             d="M 11.500037,31.436501 C 11.940474,20.09759 22.043105,11.32322 32.158766,21.979434 L 37.068811,17.246167 C 37.068811,17.246167 37.088388,32 37.088388,32 L 22.160133,31.978069 C 22.160133,31.978069 26.997745,27.140456 26.997745,27.140456 C 18.528582,18.264221 13.291696,25.230495 11.500037,31.436501 z"
             style="fill:#404040;"/>
          </a>
         </g>
        </svg>
</svg>
