<?xml version="1.0" encoding="UTF-8" standalone="no"?>
<!DOCTYPE svg PUBLIC "-//W3C//DTD SVG 1.1//EN"
 "http://www.w3.org/Graphics/SVG/1.1/DTD/svg11.dtd">
<!-- Generated by graphviz version 2.38.0 (20140413.2041)
 -->
<!-- Title: openage::gameio::load Pages: 1 -->
<!--zoomable 434 -->
<svg id="main" version="1.1" xmlns="http://www.w3.org/2000/svg" xmlns:xlink="http://www.w3.org/1999/xlink" xml:space="preserve" onload="init(evt)">
<style type="text/css"><![CDATA[
.edge:hover path { stroke: red; }
.edge:hover polygon { stroke: red; fill: red; }
]]></style>
<script type="text/javascript"><![CDATA[
var edges = document.getElementsByTagName('g');
if (edges && edges.length) {
  for (var i=0;i<edges.length;i++) {
    if (edges[i].id.substr(0,4)=='edge') {
      edges[i].setAttribute('class','edge');
    }
  }
}
]]></script>
        <defs>
                <circle id="rim" cx="0" cy="0" r="7"/>
                <circle id="rim2" cx="0" cy="0" r="3.5"/>
                <g id="zoomPlus">
                        <use xlink:href="#rim" fill="#404040">
                                <set attributeName="fill" to="#808080" begin="zoomplus.mouseover" end="zoomplus.mouseout"/>
                        </use>
                        <path d="M-4,0h8M0,-4v8" fill="none" stroke="white" stroke-width="1.5" pointer-events="none"/>
                </g>
                <g id="zoomMin">
                        <use xlink:href="#rim" fill="#404040">
                                <set attributeName="fill" to="#808080" begin="zoomminus.mouseover" end="zoomminus.mouseout"/>
                        </use>
                        <path d="M-4,0h8" fill="none" stroke="white" stroke-width="1.5" pointer-events="none"/>
                </g>
                <g id="dirArrow">
                        <path fill="none" stroke="white" stroke-width="1.5" d="M0,-3.0v7 M-2.5,-0.5L0,-3.0L2.5,-0.5"/>
                </g>
               <g id="resetDef">
                       <use xlink:href="#rim2" fill="#404040">
                               <set attributeName="fill" to="#808080" begin="reset.mouseover" end="reset.mouseout"/>
                       </use>
               </g>
        </defs>

<script type="text/javascript">
var viewWidth = 974;
var viewHeight = 434;
var sectionId = 'dynsection-0';
</script>
<script xlink:href="svgpan.js"/>
<svg id="graph" class="graph">
<g id="viewport">
<title>openage::gameio::load</title>
<polygon fill="white" stroke="none" points="-4,4 -4,-430 970,-430 970,4 -4,4"/>
<!-- Node0 -->
<g id="node1" class="node"><title>Node0</title>
<g id="a_node1"><a xlink:title="a game load function that sometimes works">
<polygon fill="#bfbfbf" stroke="black" points="0,-176.5 0,-195.5 115,-195.5 115,-176.5 0,-176.5"/>
<text text-anchor="middle" x="57.5" y="-183.5" font-family="Helvetica,sans-Serif" font-size="10.00">openage::gameio::load</text>
</a>
</g>
</g>
<!-- Node1 -->
<g id="node2" class="node"><title>Node1</title>
<g id="a_node2"><a xlink:href="namespaceopenage_1_1log.xhtml#aad3d76b2466dbc4f81552935f2d84faa" target="_top" xlink:title="debug message">
<polygon fill="white" stroke="black" points="175,-313.5 175,-332.5 263,-332.5 263,-313.5 175,-313.5"/>
<text text-anchor="middle" x="219" y="-320.5" font-family="Helvetica,sans-Serif" font-size="10.00">openage.log.dbg</text>
</a>
</g>
</g>
<!-- Node0&#45;&gt;Node1 -->
<g id="edge1" class="edge"><title>Node0&#45;&gt;Node1</title>
<path fill="none" stroke="midnightblue" d="M63.2832,-195.625C74.9893,-218.168 107.342,-274.696 151,-304 155.343,-306.915 160.132,-309.388 165.092,-311.484"/>
<polygon fill="midnightblue" stroke="midnightblue" points="164.176,-314.877 174.769,-315.069 166.608,-308.313 164.176,-314.877"/>
</g>
<!-- Node2 -->
<g id="node3" class="node"><title>Node2</title>
<g id="a_node3"><a xlink:href="classopenage_1_1_terrain_chunk.xhtml#af163db3fba4ae99206de76666f8424df" target="_top" xlink:title="get tile data by absolute coordinates.">
<polygon fill="white" stroke="black" points="161,-264 161,-294 277,-294 277,-264 161,-264"/>
<text text-anchor="start" x="169" y="-282" font-family="Helvetica,sans-Serif" font-size="10.00">openage::TerrainChunk</text>
<text text-anchor="middle" x="219" y="-271" font-family="Helvetica,sans-Serif" font-size="10.00">::get_data</text>
</a>
</g>
</g>
<!-- Node0&#45;&gt;Node2 -->
<g id="edge2" class="edge"><title>Node0&#45;&gt;Node2</title>
<path fill="none" stroke="midnightblue" d="M69.1645,-195.642C85.6719,-210.159 118.869,-237.761 151,-255 154.239,-256.738 157.63,-258.396 161.094,-259.969"/>
<polygon fill="midnightblue" stroke="midnightblue" points="159.808,-263.226 170.38,-263.933 162.556,-256.788 159.808,-263.226"/>
</g>
<!-- Node5 -->
<g id="node6" class="node"><title>Node5</title>
<g id="a_node6"><a xlink:href="namespaceopenage_1_1gameio.xhtml#a4141acb6d3c777a66792c1f02a8678bc" target="_top" xlink:title=" ">
<polygon fill="white" stroke="black" points="161.5,-215 161.5,-245 276.5,-245 276.5,-215 161.5,-215"/>
<text text-anchor="start" x="169.5" y="-233" font-family="Helvetica,sans-Serif" font-size="10.00">openage::gameio::load</text>
<text text-anchor="middle" x="219" y="-222" font-family="Helvetica,sans-Serif" font-size="10.00">_tile_content</text>
</a>
</g>
</g>
<!-- Node0&#45;&gt;Node5 -->
<g id="edge5" class="edge"><title>Node0&#45;&gt;Node5</title>
<path fill="none" stroke="midnightblue" d="M93.1091,-195.547C110.826,-200.435 132.976,-206.545 153.682,-212.257"/>
<polygon fill="midnightblue" stroke="midnightblue" points="152.817,-215.649 163.388,-214.935 154.679,-208.901 152.817,-215.649"/>
</g>
<!-- Node6 -->
<g id="node7" class="node"><title>Node6</title>
<g id="a_node7"><a xlink:href="namespaceopenage_1_1gameio.xhtml#ac86e0756708907f826cb04e6f13d588d" target="_top" xlink:title=" ">
<polygon fill="white" stroke="black" points="151,-176.5 151,-195.5 287,-195.5 287,-176.5 151,-176.5"/>
<text text-anchor="middle" x="219" y="-183.5" font-family="Helvetica,sans-Serif" font-size="10.00">openage::gameio::load_unit</text>
</a>
</g>
</g>
<!-- Node0&#45;&gt;Node6 -->
<g id="edge6" class="edge"><title>Node0&#45;&gt;Node6</title>
<path fill="none" stroke="midnightblue" d="M115.183,-186C123.485,-186 132.152,-186 140.779,-186"/>
<polygon fill="midnightblue" stroke="midnightblue" points="140.865,-189.5 150.865,-186 140.865,-182.5 140.865,-189.5"/>
</g>
<!-- Node10 -->
<g id="node11" class="node"><title>Node10</title>
<g id="a_node11"><a xlink:href="namespaceopenage_1_1log.xhtml#a0eff614e7d6e818746700ed9d29e583f" target="_top" xlink:title="Convenience method that makes use of the &#39;general&#39; LogSource.">
<polygon fill="white" stroke="black" points="504,-110.5 504,-129.5 595,-129.5 595,-110.5 504,-110.5"/>
<text text-anchor="middle" x="549.5" y="-117.5" font-family="Helvetica,sans-Serif" font-size="10.00">openage::log::log</text>
</a>
</g>
</g>
<!-- Node0&#45;&gt;Node10 -->
<g id="edge25" class="edge"><title>Node0&#45;&gt;Node10</title>
<path fill="none" stroke="midnightblue" d="M85.8409,-176.384C133.341,-160.243 234.506,-128.353 323,-117 383.394,-109.252 399.12,-115.968 460,-117 470.945,-117.185 482.648,-117.5 493.84,-117.857"/>
<polygon fill="midnightblue" stroke="midnightblue" points="493.828,-121.358 503.939,-118.195 494.062,-114.362 493.828,-121.358"/>
</g>
<!-- Node25 -->
<g id="node26" class="node"><title>Node25</title>
<g id="a_node26"><a xlink:href="classopenage_1_1_unit_container.xhtml#ae475b34e7deb9bd70b01db1abc698779" target="_top" xlink:title=" ">
<polygon fill="white" stroke="black" points="160,-39 160,-69 278,-69 278,-39 160,-39"/>
<text text-anchor="start" x="168" y="-57" font-family="Helvetica,sans-Serif" font-size="10.00">openage::UnitContainer</text>
<text text-anchor="middle" x="219" y="-46" font-family="Helvetica,sans-Serif" font-size="10.00">::reset</text>
</a>
</g>
</g>
<!-- Node0&#45;&gt;Node25 -->
<g id="edge26" class="edge"><title>Node0&#45;&gt;Node25</title>
<path fill="none" stroke="midnightblue" d="M65.1117,-176.351C79.0002,-156.687 113.074,-111.513 151,-84 156.213,-80.2184 161.978,-76.7608 167.875,-73.6466"/>
<polygon fill="midnightblue" stroke="midnightblue" points="169.778,-76.6102 177.189,-69.0385 166.674,-70.3361 169.778,-76.6102"/>
</g>
<!-- Node26 -->
<g id="node27" class="node"><title>Node26</title>
<g id="a_node27"><a xlink:href="namespaceopenage_1_1log.xhtml#a7ca418e1b1fcf210ff91cd25dc8e6a36" target="_top" xlink:title="warning message">
<polygon fill="white" stroke="black" points="173,-0.5 173,-19.5 265,-19.5 265,-0.5 173,-0.5"/>
<text text-anchor="middle" x="219" y="-7.5" font-family="Helvetica,sans-Serif" font-size="10.00">openage.log.warn</text>
</a>
</g>
</g>
<!-- Node0&#45;&gt;Node26 -->
<g id="edge27" class="edge"><title>Node0&#45;&gt;Node26</title>
<path fill="none" stroke="midnightblue" d="M61.4161,-176.153C70.1281,-148.478 98.6592,-69.4003 151,-29 154.807,-26.0611 159.05,-23.5768 163.499,-21.4767"/>
<polygon fill="midnightblue" stroke="midnightblue" points="164.9,-24.6854 172.851,-17.6832 162.269,-18.1987 164.9,-24.6854"/>
</g>
<!-- Node3 -->
<g id="node4" class="node"><title>Node3</title>
<g id="a_node4"><a xlink:href="structopenage_1_1coord_1_1tile.xhtml#ab4811e492cabe885d33e85df51ceff83" target="_top" xlink:title=" ">
<polygon fill="white" stroke="black" points="339.5,-379 339.5,-409 443.5,-409 443.5,-379 339.5,-379"/>
<text text-anchor="start" x="347.5" y="-397" font-family="Helvetica,sans-Serif" font-size="10.00">openage::coord::tile</text>
<text text-anchor="middle" x="391.5" y="-386" font-family="Helvetica,sans-Serif" font-size="10.00">::get_pos_on_chunk</text>
</a>
</g>
</g>
<!-- Node2&#45;&gt;Node3 -->
<g id="edge3" class="edge"><title>Node2&#45;&gt;Node3</title>
<path fill="none" stroke="midnightblue" d="M269.479,-294.006C275.642,-296.856 281.649,-300.171 287,-304 307.548,-318.704 304.369,-330.932 323,-348 333.066,-357.222 345.107,-366.012 356.213,-373.392"/>
<polygon fill="midnightblue" stroke="midnightblue" points="354.567,-376.496 364.865,-378.99 358.37,-370.619 354.567,-376.496"/>
</g>
<!-- Node4 -->
<g id="node5" class="node"><title>Node4</title>
<g id="a_node5"><a xlink:href="namespaceopenage_1_1util.xhtml#a7e483e123bf554b630319eb3dd012c02" target="_top" xlink:title="modulo operation that guarantees to return positive values.">
<polygon fill="white" stroke="black" points="501,-406.5 501,-425.5 598,-425.5 598,-406.5 501,-406.5"/>
<text text-anchor="middle" x="549.5" y="-413.5" font-family="Helvetica,sans-Serif" font-size="10.00">openage::util::mod</text>
</a>
</g>
</g>
<!-- Node3&#45;&gt;Node4 -->
<g id="edge4" class="edge"><title>Node3&#45;&gt;Node4</title>
<path fill="none" stroke="midnightblue" d="M443.58,-401.204C458.669,-403.332 475.29,-405.675 490.767,-407.858"/>
<polygon fill="midnightblue" stroke="midnightblue" points="490.353,-411.334 500.744,-409.265 491.331,-404.403 490.353,-411.334"/>
</g>
<!-- Node7 -->
<g id="node8" class="node"><title>Node7</title>
<g id="a_node8"><a xlink:href="classopenage_1_1_game_main.xhtml#ace86de3be7238212c0b49ecc1247e8a4" target="_top" xlink:title="player by index">
<polygon fill="white" stroke="black" points="335,-215 335,-245 448,-245 448,-215 335,-215"/>
<text text-anchor="start" x="343" y="-233" font-family="Helvetica,sans-Serif" font-size="10.00">openage::GameMain::</text>
<text text-anchor="middle" x="391.5" y="-222" font-family="Helvetica,sans-Serif" font-size="10.00">get_player</text>
</a>
</g>
</g>
<!-- Node6&#45;&gt;Node7 -->
<g id="edge7" class="edge"><title>Node6&#45;&gt;Node7</title>
<path fill="none" stroke="midnightblue" d="M256.996,-195.547C276.878,-200.678 301.981,-207.156 325.039,-213.107"/>
<polygon fill="midnightblue" stroke="midnightblue" points="324.218,-216.51 334.775,-215.619 325.967,-209.732 324.218,-216.51"/>
</g>
<!-- Node8 -->
<g id="node9" class="node"><title>Node8</title>
<g id="a_node9"><a xlink:href="classopenage_1_1_player.xhtml#a67c7f6853d4be5c38d2456169af3d5a1" target="_top" xlink:title="unit types by aoe gamedata unit ids – the unit type which corresponds to an aoe unit id">
<polygon fill="white" stroke="black" points="326,-176.5 326,-195.5 457,-195.5 457,-176.5 326,-176.5"/>
<text text-anchor="middle" x="391.5" y="-183.5" font-family="Helvetica,sans-Serif" font-size="10.00">openage::Player::get_type</text>
</a>
</g>
</g>
<!-- Node6&#45;&gt;Node8 -->
<g id="edge8" class="edge"><title>Node6&#45;&gt;Node8</title>
<path fill="none" stroke="midnightblue" d="M287.386,-186C296.683,-186 306.276,-186 315.696,-186"/>
<polygon fill="midnightblue" stroke="midnightblue" points="315.829,-189.5 325.829,-186 315.829,-182.5 315.829,-189.5"/>
</g>
<!-- Node16 -->
<g id="node17" class="node"><title>Node16</title>
<g id="a_node17"><a xlink:href="classopenage_1_1_unit_container.xhtml#a39947500d16e9d67eb72458f3df7c796" target="_top" xlink:title="creates a new unit without initialising">
<polygon fill="white" stroke="black" points="332.5,-127 332.5,-157 450.5,-157 450.5,-127 332.5,-127"/>
<text text-anchor="start" x="340.5" y="-145" font-family="Helvetica,sans-Serif" font-size="10.00">openage::UnitContainer</text>
<text text-anchor="middle" x="391.5" y="-134" font-family="Helvetica,sans-Serif" font-size="10.00">::new_unit</text>
</a>
</g>
</g>
<!-- Node6&#45;&gt;Node16 -->
<g id="edge16" class="edge"><title>Node6&#45;&gt;Node16</title>
<path fill="none" stroke="midnightblue" d="M256.996,-176.453C276.192,-171.499 300.255,-165.289 322.646,-159.511"/>
<polygon fill="midnightblue" stroke="midnightblue" points="323.647,-162.867 332.455,-156.979 321.898,-156.089 323.647,-162.867"/>
</g>
<!-- Node17 -->
<g id="node18" class="node"><title>Node17</title>
<g id="a_node18"><a xlink:href="structopenage_1_1coord_1_1tile.xhtml#ac306cc74c14e094567447277327b389a" target="_top" xlink:title=" ">
<polygon fill="white" stroke="black" points="340.5,-308 340.5,-338 442.5,-338 442.5,-308 340.5,-308"/>
<text text-anchor="start" x="348.5" y="-326" font-family="Helvetica,sans-Serif" font-size="10.00">openage::coord::tile</text>
<text text-anchor="middle" x="391.5" y="-315" font-family="Helvetica,sans-Serif" font-size="10.00">::to_phys3</text>
</a>
</g>
</g>
<!-- Node6&#45;&gt;Node17 -->
<g id="edge17" class="edge"><title>Node6&#45;&gt;Node17</title>
<path fill="none" stroke="midnightblue" d="M272.248,-195.587C277.613,-198.047 282.673,-201.132 287,-205 318.506,-233.161 293.57,-262.676 323,-293 326.592,-296.701 330.722,-299.98 335.131,-302.877"/>
<polygon fill="midnightblue" stroke="midnightblue" points="333.487,-305.97 343.887,-307.991 337.017,-299.926 333.487,-305.97"/>
</g>
<!-- Node20 -->
<g id="node21" class="node"><title>Node20</title>
<g id="a_node21"><a xlink:href="namespaceopenage.xhtml#a8c248986ac22a8251e1f27a6cef087eb" target="_top" xlink:title="sets a building to a fully completed state">
<polygon fill="white" stroke="black" points="323,-264.5 323,-283.5 460,-283.5 460,-264.5 323,-264.5"/>
<text text-anchor="middle" x="391.5" y="-271.5" font-family="Helvetica,sans-Serif" font-size="10.00">openage::complete_building</text>
</a>
</g>
</g>
<!-- Node6&#45;&gt;Node20 -->
<g id="edge20" class="edge"><title>Node6&#45;&gt;Node20</title>
<path fill="none" stroke="midnightblue" d="M268.634,-195.552C275.132,-198.017 281.456,-201.113 287,-205 309.42,-220.722 300.565,-239.3 323,-255 325.88,-257.015 328.969,-258.818 332.184,-260.43"/>
<polygon fill="midnightblue" stroke="midnightblue" points="330.939,-263.705 341.505,-264.487 333.732,-257.287 330.939,-263.705"/>
</g>
<!-- Node9 -->
<g id="node10" class="node"><title>Node9</title>
<g id="a_node10"><a xlink:href="namespaceopenage_1_1log.xhtml#a3f1815b698faf5786fc5e20bcac7704b" target="_top" xlink:title="info message">
<polygon fill="white" stroke="black" points="506,-171.5 506,-190.5 593,-190.5 593,-171.5 506,-171.5"/>
<text text-anchor="middle" x="549.5" y="-178.5" font-family="Helvetica,sans-Serif" font-size="10.00">openage.log.info</text>
</a>
</g>
</g>
<!-- Node8&#45;&gt;Node9 -->
<g id="edge9" class="edge"><title>Node8&#45;&gt;Node9</title>
<path fill="none" stroke="midnightblue" d="M457.303,-183.923C470.121,-183.512 483.43,-183.086 495.788,-182.689"/>
<polygon fill="midnightblue" stroke="midnightblue" points="496.031,-186.184 505.914,-182.365 495.807,-179.187 496.031,-186.184"/>
</g>
<!-- Node8&#45;&gt;Node10 -->
<g id="edge10" class="edge"><title>Node8&#45;&gt;Node10</title>
<path fill="none" stroke="midnightblue" d="M429.371,-176.46C439.437,-173.483 450.253,-169.935 460,-166 482.083,-157.085 505.982,-144.472 523.371,-134.708"/>
<polygon fill="midnightblue" stroke="midnightblue" points="525.352,-137.608 532.309,-129.618 521.888,-131.525 525.352,-137.608"/>
</g>
<!-- Node11 -->
<g id="node12" class="node"><title>Node11</title>
<g id="a_node12"><a xlink:href="namespaceopenage_1_1log.xhtml#a3fbb0c225d01e222648ec28a43507188" target="_top" xlink:title="Returns a reference to a general named log source, for use by log::log().">
<polygon fill="white" stroke="black" points="655.5,-127 655.5,-157 765.5,-157 765.5,-127 655.5,-127"/>
<text text-anchor="start" x="663.5" y="-145" font-family="Helvetica,sans-Serif" font-size="10.00">openage::log::general</text>
<text text-anchor="middle" x="710.5" y="-134" font-family="Helvetica,sans-Serif" font-size="10.00">_source</text>
</a>
</g>
</g>
<!-- Node10&#45;&gt;Node11 -->
<g id="edge11" class="edge"><title>Node10&#45;&gt;Node11</title>
<path fill="none" stroke="midnightblue" d="M595.213,-126.187C610.655,-128.323 628.277,-130.762 644.983,-133.073"/>
<polygon fill="midnightblue" stroke="midnightblue" points="644.854,-136.588 655.239,-134.492 645.813,-129.655 644.854,-136.588"/>
</g>
<!-- Node12 -->
<g id="node13" class="node"><title>Node12</title>
<g id="a_node13"><a xlink:href="classopenage_1_1log_1_1_log_source.xhtml#a5640099e20af4cd368c767dbcef3a1df" target="_top" xlink:title="Logs a message (get one via MSG(level)).">
<polygon fill="white" stroke="black" points="639,-88.5 639,-107.5 782,-107.5 782,-88.5 639,-88.5"/>
<text text-anchor="middle" x="710.5" y="-95.5" font-family="Helvetica,sans-Serif" font-size="10.00">openage::log::LogSource::log</text>
</a>
</g>
</g>
<!-- Node10&#45;&gt;Node12 -->
<g id="edge12" class="edge"><title>Node10&#45;&gt;Node12</title>
<path fill="none" stroke="midnightblue" d="M595.213,-113.813C606.264,-112.284 618.432,-110.601 630.582,-108.919"/>
<polygon fill="midnightblue" stroke="midnightblue" points="631.333,-112.349 640.759,-107.511 630.374,-105.415 631.333,-112.349"/>
</g>
<!-- Node13 -->
<g id="node14" class="node"><title>Node13</title>
<g id="a_node14"><a xlink:href="namespaceopenage_1_1log.xhtml#a3d2885be9c3a09b9ff7ee8764b2e5f39" target="_top" xlink:title="Returns a reference to the global stdout logsink object; Initializes the object if needed.">
<polygon fill="white" stroke="black" points="840,-132 840,-162 944,-162 944,-132 840,-132"/>
<text text-anchor="start" x="848" y="-150" font-family="Helvetica,sans-Serif" font-size="10.00">openage::log::global</text>
<text text-anchor="middle" x="892" y="-139" font-family="Helvetica,sans-Serif" font-size="10.00">_stdoutsink</text>
</a>
</g>
</g>
<!-- Node12&#45;&gt;Node13 -->
<g id="edge13" class="edge"><title>Node12&#45;&gt;Node13</title>
<path fill="none" stroke="midnightblue" d="M747.014,-107.531C758.211,-110.547 770.625,-113.902 782,-117 797.535,-121.231 814.305,-125.831 829.925,-130.129"/>
<polygon fill="midnightblue" stroke="midnightblue" points="829.429,-133.622 839.999,-132.903 831.287,-126.873 829.429,-133.622"/>
</g>
<!-- Node14 -->
<g id="node15" class="node"><title>Node14</title>
<g id="a_node15"><a xlink:href="classopenage_1_1log_1_1_log_sink_list.xhtml#a2d47416fab12651553b4b58c86fd6f84" target="_top" xlink:title=" ">
<polygon fill="white" stroke="black" points="827.5,-83 827.5,-113 956.5,-113 956.5,-83 827.5,-83"/>
<text text-anchor="start" x="835.5" y="-101" font-family="Helvetica,sans-Serif" font-size="10.00">openage::log::LogSinkList</text>
<text text-anchor="middle" x="892" y="-90" font-family="Helvetica,sans-Serif" font-size="10.00">::instance</text>
</a>
</g>
</g>
<!-- Node12&#45;&gt;Node14 -->
<g id="edge14" class="edge"><title>Node12&#45;&gt;Node14</title>
<path fill="none" stroke="midnightblue" d="M782.185,-98C793.719,-98 805.693,-98 817.297,-98"/>
<polygon fill="midnightblue" stroke="midnightblue" points="817.38,-101.5 827.379,-98 817.379,-94.5001 817.38,-101.5"/>
</g>
<!-- Node15 -->
<g id="node16" class="node"><title>Node15</title>
<g id="a_node16"><a xlink:href="classopenage_1_1log_1_1_log_sink_list.xhtml#a8456b84ab55e1fe151c51438c5bfebdd" target="_top" xlink:title=" ">
<polygon fill="white" stroke="black" points="818,-44.5 818,-63.5 966,-63.5 966,-44.5 818,-44.5"/>
<text text-anchor="middle" x="892" y="-51.5" font-family="Helvetica,sans-Serif" font-size="10.00">openage::log::LogSinkList::log</text>
</a>
</g>
</g>
<!-- Node12&#45;&gt;Node15 -->
<g id="edge15" class="edge"><title>Node12&#45;&gt;Node15</title>
<path fill="none" stroke="midnightblue" d="M750.449,-88.4527C777.382,-81.8508 813.415,-73.0181 842.253,-65.949"/>
<polygon fill="midnightblue" stroke="midnightblue" points="843.248,-69.3089 852.127,-63.5287 841.581,-62.5102 843.248,-69.3089"/>
</g>
<!-- Node18 -->
<g id="node19" class="node"><title>Node18</title>
<g id="a_node19"><a xlink:href="structopenage_1_1coord_1_1tile3.xhtml#a4c8cdcd73dd2d7d1e6109c8b4a82ba65" target="_top" xlink:title=" ">
<polygon fill="white" stroke="black" points="496,-308 496,-338 603,-338 603,-308 496,-308"/>
<text text-anchor="start" x="504" y="-326" font-family="Helvetica,sans-Serif" font-size="10.00">openage::coord::tile3</text>
<text text-anchor="middle" x="549.5" y="-315" font-family="Helvetica,sans-Serif" font-size="10.00">::to_phys3</text>
</a>
</g>
</g>
<!-- Node17&#45;&gt;Node18 -->
<g id="edge18" class="edge"><title>Node17&#45;&gt;Node18</title>
<path fill="none" stroke="midnightblue" d="M442.718,-323C456.408,-323 471.411,-323 485.705,-323"/>
<polygon fill="midnightblue" stroke="midnightblue" points="485.959,-326.5 495.959,-323 485.959,-319.5 485.959,-326.5"/>
</g>
<!-- Node19 -->
<g id="node20" class="node"><title>Node19</title>
<g id="a_node20"><a xlink:href="structopenage_1_1coord_1_1tile.xhtml#a3b1cc7af8687d57f014cf86e57476b2b" target="_top" xlink:title="adds an UP component to the coordinate.">
<polygon fill="white" stroke="black" points="498.5,-357 498.5,-387 600.5,-387 600.5,-357 498.5,-357"/>
<text text-anchor="start" x="506.5" y="-375" font-family="Helvetica,sans-Serif" font-size="10.00">openage::coord::tile</text>
<text text-anchor="middle" x="549.5" y="-364" font-family="Helvetica,sans-Serif" font-size="10.00">::to_tile3</text>
</a>
</g>
</g>
<!-- Node17&#45;&gt;Node19 -->
<g id="edge19" class="edge"><title>Node17&#45;&gt;Node19</title>
<path fill="none" stroke="midnightblue" d="M440.578,-338.101C456.518,-343.108 474.424,-348.732 491,-353.939"/>
<polygon fill="midnightblue" stroke="midnightblue" points="489.991,-357.291 500.581,-356.948 492.089,-350.613 489.991,-357.291"/>
</g>
<!-- Node21 -->
<g id="node22" class="node"><title>Node21</title>
<g id="a_node22"><a xlink:href="classopenage_1_1_unit.xhtml#a3e12324401051119f44e212dae1a87ce" target="_top" xlink:title="returns attribute based on templated value">
<polygon fill="white" stroke="black" points="501.5,-210 501.5,-240 597.5,-240 597.5,-210 501.5,-210"/>
<text text-anchor="start" x="509.5" y="-228" font-family="Helvetica,sans-Serif" font-size="10.00">openage::Unit::get</text>
<text text-anchor="middle" x="549.5" y="-217" font-family="Helvetica,sans-Serif" font-size="10.00">_attribute</text>
</a>
</g>
</g>
<!-- Node20&#45;&gt;Node21 -->
<g id="edge21" class="edge"><title>Node20&#45;&gt;Node21</title>
<path fill="none" stroke="midnightblue" d="M427.637,-264.486C438.085,-261.556 449.535,-258.244 460,-255 471.622,-251.397 484.03,-247.331 495.766,-243.381"/>
<polygon fill="midnightblue" stroke="midnightblue" points="497.088,-246.629 505.435,-240.104 494.84,-239.999 497.088,-246.629"/>
</g>
<!-- Node23 -->
<g id="node24" class="node"><title>Node23</title>
<g id="a_node24"><a xlink:href="classopenage_1_1_unit.xhtml#a6c56a8b7e9856a8e0535cacbe831bae7" target="_top" xlink:title="returns whether attribute is available">
<polygon fill="white" stroke="black" points="500.5,-259 500.5,-289 598.5,-289 598.5,-259 500.5,-259"/>
<text text-anchor="start" x="508.5" y="-277" font-family="Helvetica,sans-Serif" font-size="10.00">openage::Unit::has</text>
<text text-anchor="middle" x="549.5" y="-266" font-family="Helvetica,sans-Serif" font-size="10.00">_attribute</text>
</a>
</g>
</g>
<!-- Node20&#45;&gt;Node23 -->
<g id="edge23" class="edge"><title>Node20&#45;&gt;Node23</title>
<path fill="none" stroke="midnightblue" d="M460.017,-274C470.04,-274 480.298,-274 490.113,-274"/>
<polygon fill="midnightblue" stroke="midnightblue" points="490.152,-277.5 500.152,-274 490.152,-270.5 490.152,-277.5"/>
</g>
<!-- Node22 -->
<g id="node23" class="node"><title>Node22</title>
<g id="a_node23"><a xlink:href="classopenage_1_1_attributes.xhtml#a08f927be3be6911e7cf77604f9ead10f" target="_top" xlink:title="Get the attribute based on the type.">
<polygon fill="white" stroke="black" points="650,-215.5 650,-234.5 771,-234.5 771,-215.5 650,-215.5"/>
<text text-anchor="middle" x="710.5" y="-222.5" font-family="Helvetica,sans-Serif" font-size="10.00">openage::Attributes::get</text>
</a>
</g>
</g>
<!-- Node21&#45;&gt;Node22 -->
<g id="edge22" class="edge"><title>Node21&#45;&gt;Node22</title>
<path fill="none" stroke="midnightblue" d="M597.775,-225C610.96,-225 625.569,-225 639.757,-225"/>
<polygon fill="midnightblue" stroke="midnightblue" points="639.988,-228.5 649.988,-225 639.988,-221.5 639.988,-228.5"/>
</g>
<!-- Node24 -->
<g id="node25" class="node"><title>Node24</title>
<g id="a_node25"><a xlink:href="classopenage_1_1_attributes.xhtml#aee38f453ac85b68821958ad74cdd8df5" target="_top" xlink:title="Check if the attribute of the given type exists.">
<polygon fill="white" stroke="black" points="649,-264.5 649,-283.5 772,-283.5 772,-264.5 649,-264.5"/>
<text text-anchor="middle" x="710.5" y="-271.5" font-family="Helvetica,sans-Serif" font-size="10.00">openage::Attributes::has</text>
</a>
</g>
</g>
<!-- Node23&#45;&gt;Node24 -->
<g id="edge24" class="edge"><title>Node23&#45;&gt;Node24</title>
<path fill="none" stroke="midnightblue" d="M598.637,-274C611.237,-274 625.09,-274 638.607,-274"/>
<polygon fill="midnightblue" stroke="midnightblue" points="638.851,-277.5 648.851,-274 638.851,-270.5 638.851,-277.5"/>
</g>
</g>
</svg>
        <g id="navigator" transform="translate(0 0)" fill="#404254">
                <rect fill="#f2f5e9" fill-opacity="0.5" stroke="#606060" stroke-width=".5" x="0" y="0" width="60" height="60"/>
                <use id="zoomplus" xlink:href="#zoomPlus" x="17" y="9" onmousedown="handleZoom(evt,'in')"/>
                <use id="zoomminus" xlink:href="#zoomMin" x="42" y="9" onmousedown="handleZoom(evt,'out')"/>
                <use id="reset" xlink:href="#resetDef" x="30" y="36" onmousedown="handleReset()"/>
                <g id="arrowUp" xlink:href="#dirArrow" transform="translate(30 24)" onmousedown="handlePan(0,-1)">
                  <use xlink:href="#rim" fill="#404040">
                        <set attributeName="fill" to="#808080" begin="arrowUp.mouseover" end="arrowUp.mouseout"/>
                  </use>
                  <path fill="none" stroke="white" stroke-width="1.5" d="M0,-3.0v7 M-2.5,-0.5L0,-3.0L2.5,-0.5"/>
                </g>
                <g id="arrowRight" xlink:href="#dirArrow" transform="rotate(90) translate(36 -43)" onmousedown="handlePan(1,0)">
                  <use xlink:href="#rim" fill="#404040">
                        <set attributeName="fill" to="#808080" begin="arrowRight.mouseover" end="arrowRight.mouseout"/>
                  </use>
                  <path fill="none" stroke="white" stroke-width="1.5" d="M0,-3.0v7 M-2.5,-0.5L0,-3.0L2.5,-0.5"/>
                </g>
                <g id="arrowDown" xlink:href="#dirArrow" transform="rotate(180) translate(-30 -48)" onmousedown="handlePan(0,1)">
                  <use xlink:href="#rim" fill="#404040">
                        <set attributeName="fill" to="#808080" begin="arrowDown.mouseover" end="arrowDown.mouseout"/>
                  </use>
                  <path fill="none" stroke="white" stroke-width="1.5" d="M0,-3.0v7 M-2.5,-0.5L0,-3.0L2.5,-0.5"/>
                </g>
                <g id="arrowLeft" xlink:href="#dirArrow" transform="rotate(270) translate(-36 17)" onmousedown="handlePan(-1,0)">
                  <use xlink:href="#rim" fill="#404040">
                        <set attributeName="fill" to="#808080" begin="arrowLeft.mouseover" end="arrowLeft.mouseout"/>
                  </use>
                  <path fill="none" stroke="white" stroke-width="1.5" d="M0,-3.0v7 M-2.5,-0.5L0,-3.0L2.5,-0.5"/>
                </g>
        </g>
        <svg viewBox="0 0 15 15" width="100%" height="30px" preserveAspectRatio="xMaxYMin meet">
         <g id="arrow_out" transform="scale(0.3 0.3)">
          <a xlink:href="namespaceopenage_1_1gameio_ae6761d88280466d1d1b5c638e7c7a042_cgraph_org.svg" target="_base">
           <rect id="button" ry="5" rx="5" y="6" x="6" height="38" width="38"
                fill="#f2f5e9" fill-opacity="0.5" stroke="#606060" stroke-width="1.0"/>
           <path id="arrow"
             d="M 11.500037,31.436501 C 11.940474,20.09759 22.043105,11.32322 32.158766,21.979434 L 37.068811,17.246167 C 37.068811,17.246167 37.088388,32 37.088388,32 L 22.160133,31.978069 C 22.160133,31.978069 26.997745,27.140456 26.997745,27.140456 C 18.528582,18.264221 13.291696,25.230495 11.500037,31.436501 z"
             style="fill:#404040;"/>
          </a>
         </g>
        </svg>
</svg>
