<?xml version="1.0" encoding="UTF-8" standalone="no"?>
<!DOCTYPE svg PUBLIC "-//W3C//DTD SVG 1.1//EN"
 "http://www.w3.org/Graphics/SVG/1.1/DTD/svg11.dtd">
<!-- Generated by graphviz version 2.38.0 (20140413.2041)
 -->
<!-- Title: openage::util::constexpr_::strip_prefix Pages: 1 -->
<!--zoomable 186 -->
<svg id="main" version="1.1" xmlns="http://www.w3.org/2000/svg" xmlns:xlink="http://www.w3.org/1999/xlink" xml:space="preserve" onload="init(evt)">
<style type="text/css"><![CDATA[
.edge:hover path { stroke: red; }
.edge:hover polygon { stroke: red; fill: red; }
]]></style>
<script type="text/javascript"><![CDATA[
var edges = document.getElementsByTagName('g');
if (edges && edges.length) {
  for (var i=0;i<edges.length;i++) {
    if (edges[i].id.substr(0,4)=='edge') {
      edges[i].setAttribute('class','edge');
    }
  }
}
]]></script>
        <defs>
                <circle id="rim" cx="0" cy="0" r="7"/>
                <circle id="rim2" cx="0" cy="0" r="3.5"/>
                <g id="zoomPlus">
                        <use xlink:href="#rim" fill="#404040">
                                <set attributeName="fill" to="#808080" begin="zoomplus.mouseover" end="zoomplus.mouseout"/>
                        </use>
                        <path d="M-4,0h8M0,-4v8" fill="none" stroke="white" stroke-width="1.5" pointer-events="none"/>
                </g>
                <g id="zoomMin">
                        <use xlink:href="#rim" fill="#404040">
                                <set attributeName="fill" to="#808080" begin="zoomminus.mouseover" end="zoomminus.mouseout"/>
                        </use>
                        <path d="M-4,0h8" fill="none" stroke="white" stroke-width="1.5" pointer-events="none"/>
                </g>
                <g id="dirArrow">
                        <path fill="none" stroke="white" stroke-width="1.5" d="M0,-3.0v7 M-2.5,-0.5L0,-3.0L2.5,-0.5"/>
                </g>
               <g id="resetDef">
                       <use xlink:href="#rim2" fill="#404040">
                               <set attributeName="fill" to="#808080" begin="reset.mouseover" end="reset.mouseout"/>
                       </use>
               </g>
        </defs>

<script type="text/javascript">
var viewWidth = 887;
var viewHeight = 186;
var sectionId = 'dynsection-8';
</script>
<script xlink:href="svgpan.js"/>
<svg id="graph" class="graph">
<g id="viewport">
<title>openage::util::constexpr_::strip_prefix</title>
<polygon fill="white" stroke="none" points="-4,4 -4,-182.358 883,-182.358 883,4 -4,4"/>
<!-- Node31 -->
<g id="node1" class="node"><title>Node31</title>
<g id="a_node1"><a xlink:title="Strips a prefix, given as const char *, from a given string literal.">
<polygon fill="#bfbfbf" stroke="black" points="0,-82.5 0,-112.5 121,-112.5 121,-82.5 0,-82.5"/>
<text text-anchor="start" x="8" y="-100.5" font-family="Helvetica,sans-Serif" font-size="10.00">openage::util::constexpr</text>
<text text-anchor="middle" x="60.5" y="-89.5" font-family="Helvetica,sans-Serif" font-size="10.00">_::strip_prefix</text>
</a>
</g>
</g>
<!-- Node32 -->
<g id="node2" class="node"><title>Node32</title>
<g id="a_node2"><a xlink:href="namespaceopenage_1_1util_1_1constexpr__.xhtml#a671299bb61bb30cecb3fa42de25333b0" target="_top" xlink:title="Creates a truncated_string_literal from a regular string literal.">
<polygon fill="white" stroke="black" points="157,-126 157,-167 287,-167 287,-126 157,-126"/>
<text text-anchor="start" x="165" y="-155" font-family="Helvetica,sans-Serif" font-size="10.00">openage::util::constexpr</text>
<text text-anchor="start" x="165" y="-144" font-family="Helvetica,sans-Serif" font-size="10.00">_::create_truncated_string</text>
<text text-anchor="middle" x="222" y="-133" font-family="Helvetica,sans-Serif" font-size="10.00">_literal</text>
</a>
</g>
</g>
<!-- Node31&#45;&gt;Node32 -->
<g id="edge1" class="edge"><title>Node31&#45;&gt;Node32</title>
<path fill="none" stroke="midnightblue" d="M110.657,-112.601C122.141,-116.129 134.622,-119.964 146.922,-123.743"/>
<polygon fill="midnightblue" stroke="midnightblue" points="146.139,-127.163 156.726,-126.754 148.195,-120.472 146.139,-127.163"/>
</g>
<!-- Node33 -->
<g id="node3" class="node"><title>Node33</title>
<g id="a_node3"><a xlink:href="namespaceopenage_1_1py.xhtml#a4d2bbe46a5d10404c658b54f3b199551" target="_top" xlink:title="str(value);">
<polygon fill="white" stroke="black" points="480,-88 480,-107 567,-107 567,-88 480,-88"/>
<text text-anchor="middle" x="523.5" y="-95" font-family="Helvetica,sans-Serif" font-size="10.00">openage::py::str</text>
</a>
</g>
</g>
<!-- Node31&#45;&gt;Node33 -->
<g id="edge8" class="edge"><title>Node31&#45;&gt;Node33</title>
<path fill="none" stroke="midnightblue" d="M121.295,-97.5C212.129,-97.5 383.425,-97.5 469.829,-97.5"/>
<polygon fill="midnightblue" stroke="midnightblue" points="469.934,-101 479.934,-97.5 469.934,-94.0001 469.934,-101"/>
</g>
<!-- Node37 -->
<g id="node7" class="node"><title>Node37</title>
<g id="a_node7"><a xlink:href="namespaceopenage_1_1util_1_1constexpr__.xhtml#ae2139acfbb2a838e378d0652e23943b8" target="_top" xlink:title="Strips a prefix from a given string literal.">
<polygon fill="white" stroke="black" points="161.5,-38.5 161.5,-68.5 282.5,-68.5 282.5,-38.5 161.5,-38.5"/>
<text text-anchor="start" x="169.5" y="-56.5" font-family="Helvetica,sans-Serif" font-size="10.00">openage::util::constexpr</text>
<text text-anchor="middle" x="222" y="-45.5" font-family="Helvetica,sans-Serif" font-size="10.00">_::strip_prefix</text>
</a>
</g>
</g>
<!-- Node31&#45;&gt;Node37 -->
<g id="edge9" class="edge"><title>Node31&#45;&gt;Node37</title>
<path fill="none" stroke="midnightblue" d="M115.945,-82.4808C129.089,-78.8548 143.256,-74.9466 156.801,-71.2101"/>
<polygon fill="midnightblue" stroke="midnightblue" points="157.821,-74.5595 166.53,-68.5262 155.959,-67.8116 157.821,-74.5595"/>
</g>
<!-- Node32&#45;&gt;Node33 -->
<g id="edge2" class="edge"><title>Node32&#45;&gt;Node33</title>
<path fill="none" stroke="midnightblue" d="M287.406,-166.935C332.607,-177.817 393.713,-185.459 444,-166.5 471.037,-156.307 494.812,-132.096 508.922,-115.251"/>
<polygon fill="midnightblue" stroke="midnightblue" points="511.838,-117.21 515.385,-107.227 506.386,-112.819 511.838,-117.21"/>
</g>
<!-- Node36 -->
<g id="node6" class="node"><title>Node36</title>
<g id="a_node6"><a xlink:href="namespaceopenage_1_1util_1_1constexpr__.xhtml#a72a87a05e383ec62bf0b60359f314df7" target="_top" xlink:title="Returns the length of the string literal, excluding the terminating NULL byte.">
<polygon fill="white" stroke="black" points="323,-126.5 323,-156.5 444,-156.5 444,-126.5 323,-126.5"/>
<text text-anchor="start" x="331" y="-144.5" font-family="Helvetica,sans-Serif" font-size="10.00">openage::util::constexpr</text>
<text text-anchor="middle" x="383.5" y="-133.5" font-family="Helvetica,sans-Serif" font-size="10.00">_::strlen</text>
</a>
</g>
</g>
<!-- Node32&#45;&gt;Node36 -->
<g id="edge6" class="edge"><title>Node32&#45;&gt;Node36</title>
<path fill="none" stroke="midnightblue" d="M287.415,-144.481C295.713,-144.221 304.241,-143.953 312.622,-143.691"/>
<polygon fill="midnightblue" stroke="midnightblue" points="312.86,-147.185 322.746,-143.373 312.641,-140.188 312.86,-147.185"/>
</g>
<!-- Node34 -->
<g id="node4" class="node"><title>Node34</title>
<g id="a_node4"><a xlink:href="namespaceopenage_1_1testing_1_1testing.xhtml#ac25bf81db406af62d08113ef7ae9fd6e" target="_top" xlink:title=" ">
<polygon fill="white" stroke="black" points="603,-88 603,-107 748,-107 748,-88 603,-88"/>
<text text-anchor="middle" x="675.5" y="-95" font-family="Helvetica,sans-Serif" font-size="10.00">openage.testing.testing.result</text>
</a>
</g>
</g>
<!-- Node33&#45;&gt;Node34 -->
<g id="edge3" class="edge"><title>Node33&#45;&gt;Node34</title>
<path fill="none" stroke="midnightblue" d="M567.083,-97.5C575.201,-97.5 583.946,-97.5 592.818,-97.5"/>
<polygon fill="midnightblue" stroke="midnightblue" points="592.86,-101 602.86,-97.5 592.86,-94.0001 592.86,-101"/>
</g>
<!-- Node35 -->
<g id="node5" class="node"><title>Node35</title>
<g id="a_node5"><a xlink:href="namespaceopenage_1_1util.xhtml#a7bc4421a5f0f57f3a0aba3f96eb8d19c" target="_top" xlink:title="method that behaves similar to python&#39;s &quot;repr&quot;.">
<polygon fill="white" stroke="black" points="784,-88 784,-107 879,-107 879,-88 784,-88"/>
<text text-anchor="middle" x="831.5" y="-95" font-family="Helvetica,sans-Serif" font-size="10.00">openage::util::repr</text>
</a>
</g>
</g>
<!-- Node34&#45;&gt;Node35 -->
<g id="edge4" class="edge"><title>Node34&#45;&gt;Node35</title>
<path fill="none" stroke="midnightblue" d="M748.09,-90.7648C756.595,-90.7181 765.189,-90.7817 773.453,-90.9556"/>
<polygon fill="midnightblue" stroke="midnightblue" points="773.622,-94.4614 783.713,-91.2348 773.812,-87.464 773.622,-94.4614"/>
</g>
<!-- Node35&#45;&gt;Node34 -->
<g id="edge5" class="edge"><title>Node35&#45;&gt;Node34</title>
<path fill="none" stroke="midnightblue" d="M783.713,-103.765C775.626,-104.038 767.01,-104.196 758.312,-104.238"/>
<polygon fill="midnightblue" stroke="midnightblue" points="758.091,-100.738 748.09,-104.235 758.089,-107.738 758.091,-100.738"/>
</g>
<!-- Node36&#45;&gt;Node33 -->
<g id="edge7" class="edge"><title>Node36&#45;&gt;Node33</title>
<path fill="none" stroke="midnightblue" d="M431.606,-126.481C448.288,-121.162 466.876,-115.235 482.873,-110.135"/>
<polygon fill="midnightblue" stroke="midnightblue" points="483.995,-113.451 492.459,-107.078 481.868,-106.781 483.995,-113.451"/>
</g>
<!-- Node37&#45;&gt;Node33 -->
<g id="edge12" class="edge"><title>Node37&#45;&gt;Node33</title>
<path fill="none" stroke="midnightblue" d="M282.66,-60.9163C327.19,-66.6173 389.492,-74.9435 444,-83.5 452.355,-84.8116 461.193,-86.2945 469.808,-87.7922"/>
<polygon fill="midnightblue" stroke="midnightblue" points="469.32,-91.2601 479.776,-89.5479 470.535,-84.3662 469.32,-91.2601"/>
</g>
<!-- Node38 -->
<g id="node8" class="node"><title>Node38</title>
<g id="a_node8"><a xlink:href="namespaceopenage_1_1util_1_1constexpr__.xhtml#aa4f041b85b8ae3df628165f73397d1fa" target="_top" xlink:title="Tests whether a string literal starts with the given prefix.">
<polygon fill="white" stroke="black" points="323,-0.5 323,-30.5 444,-30.5 444,-0.5 323,-0.5"/>
<text text-anchor="start" x="331" y="-18.5" font-family="Helvetica,sans-Serif" font-size="10.00">openage::util::constexpr</text>
<text text-anchor="middle" x="383.5" y="-7.5" font-family="Helvetica,sans-Serif" font-size="10.00">_::has_prefix</text>
</a>
</g>
</g>
<!-- Node37&#45;&gt;Node38 -->
<g id="edge10" class="edge"><title>Node37&#45;&gt;Node38</title>
<path fill="none" stroke="midnightblue" d="M282.846,-39.2421C292.658,-36.9044 302.899,-34.4645 312.923,-32.0765"/>
<polygon fill="midnightblue" stroke="midnightblue" points="313.933,-35.4338 322.849,-29.7114 312.31,-28.6244 313.933,-35.4338"/>
</g>
<!-- Node38&#45;&gt;Node33 -->
<g id="edge11" class="edge"><title>Node38&#45;&gt;Node33</title>
<path fill="none" stroke="midnightblue" d="M416.058,-30.5434C425.191,-35.1292 435.096,-40.3303 444,-45.5 463.736,-56.9586 485.291,-71.3834 500.812,-82.1319"/>
<polygon fill="midnightblue" stroke="midnightblue" points="498.991,-85.1294 509.194,-87.9854 502.999,-79.3903 498.991,-85.1294"/>
</g>
</g>
</svg>
        <g id="navigator" transform="translate(0 0)" fill="#404254">
                <rect fill="#f2f5e9" fill-opacity="0.5" stroke="#606060" stroke-width=".5" x="0" y="0" width="60" height="60"/>
                <use id="zoomplus" xlink:href="#zoomPlus" x="17" y="9" onmousedown="handleZoom(evt,'in')"/>
                <use id="zoomminus" xlink:href="#zoomMin" x="42" y="9" onmousedown="handleZoom(evt,'out')"/>
                <use id="reset" xlink:href="#resetDef" x="30" y="36" onmousedown="handleReset()"/>
                <g id="arrowUp" xlink:href="#dirArrow" transform="translate(30 24)" onmousedown="handlePan(0,-1)">
                  <use xlink:href="#rim" fill="#404040">
                        <set attributeName="fill" to="#808080" begin="arrowUp.mouseover" end="arrowUp.mouseout"/>
                  </use>
                  <path fill="none" stroke="white" stroke-width="1.5" d="M0,-3.0v7 M-2.5,-0.5L0,-3.0L2.5,-0.5"/>
                </g>
                <g id="arrowRight" xlink:href="#dirArrow" transform="rotate(90) translate(36 -43)" onmousedown="handlePan(1,0)">
                  <use xlink:href="#rim" fill="#404040">
                        <set attributeName="fill" to="#808080" begin="arrowRight.mouseover" end="arrowRight.mouseout"/>
                  </use>
                  <path fill="none" stroke="white" stroke-width="1.5" d="M0,-3.0v7 M-2.5,-0.5L0,-3.0L2.5,-0.5"/>
                </g>
                <g id="arrowDown" xlink:href="#dirArrow" transform="rotate(180) translate(-30 -48)" onmousedown="handlePan(0,1)">
                  <use xlink:href="#rim" fill="#404040">
                        <set attributeName="fill" to="#808080" begin="arrowDown.mouseover" end="arrowDown.mouseout"/>
                  </use>
                  <path fill="none" stroke="white" stroke-width="1.5" d="M0,-3.0v7 M-2.5,-0.5L0,-3.0L2.5,-0.5"/>
                </g>
                <g id="arrowLeft" xlink:href="#dirArrow" transform="rotate(270) translate(-36 17)" onmousedown="handlePan(-1,0)">
                  <use xlink:href="#rim" fill="#404040">
                        <set attributeName="fill" to="#808080" begin="arrowLeft.mouseover" end="arrowLeft.mouseout"/>
                  </use>
                  <path fill="none" stroke="white" stroke-width="1.5" d="M0,-3.0v7 M-2.5,-0.5L0,-3.0L2.5,-0.5"/>
                </g>
        </g>
        <svg viewBox="0 0 15 15" width="100%" height="30px" preserveAspectRatio="xMaxYMin meet">
         <g id="arrow_out" transform="scale(0.3 0.3)">
          <a xlink:href="namespaceopenage_1_1util_1_1constexpr___a6a9d0df52733d9d7ae0bcc1bc561e38f_cgraph_org.svg" target="_base">
           <rect id="button" ry="5" rx="5" y="6" x="6" height="38" width="38"
                fill="#f2f5e9" fill-opacity="0.5" stroke="#606060" stroke-width="1.0"/>
           <path id="arrow"
             d="M 11.500037,31.436501 C 11.940474,20.09759 22.043105,11.32322 32.158766,21.979434 L 37.068811,17.246167 C 37.068811,17.246167 37.088388,32 37.088388,32 L 22.160133,31.978069 C 22.160133,31.978069 26.997745,27.140456 26.997745,27.140456 C 18.528582,18.264221 13.291696,25.230495 11.500037,31.436501 z"
             style="fill:#404040;"/>
          </a>
         </g>
        </svg>
</svg>
