<?xml version="1.0" encoding="UTF-8" standalone="no"?>
<!DOCTYPE svg PUBLIC "-//W3C//DTD SVG 1.1//EN"
 "http://www.w3.org/Graphics/SVG/1.1/DTD/svg11.dtd">
<!-- Generated by graphviz version 2.38.0 (20140413.2041)
 -->
<!-- Title: qtsdl::checked_static_cast Pages: 1 -->
<svg width="862pt" height="100pt"
 viewBox="0.00 0.00 862.00 99.50" xmlns="http://www.w3.org/2000/svg" xmlns:xlink="http://www.w3.org/1999/xlink">
<g id="graph0" class="graph" transform="scale(1 1) rotate(0) translate(4 95.5)">
<title>qtsdl::checked_static_cast</title>
<polygon fill="white" stroke="none" points="-4,4 -4,-95.5 858,-95.5 858,4 -4,4"/>
<!-- Node3 -->
<g id="node1" class="node"><title>Node3</title>
<g id="a_node1"><a xlink:title=" ">
<polygon fill="#bfbfbf" stroke="black" points="720,-44.5 720,-63.5 854,-63.5 854,-44.5 720,-44.5"/>
<text text-anchor="middle" x="787" y="-51.5" font-family="Helvetica,sans-Serif" font-size="10.00">qtsdl::checked_static_cast</text>
</a>
</g>
</g>
<!-- Node4 -->
<g id="node2" class="node"><title>Node4</title>
<g id="a_node2"><a xlink:href="classqtsdl_1_1_gui_item_core_instantiator.xhtml#a2069f6020034faeaae197821519fb732" target="_top" xlink:title=" ">
<polygon fill="white" stroke="black" points="513,-61 513,-91 684,-91 684,-61 513,-61"/>
<text text-anchor="start" x="521" y="-79" font-family="Helvetica,sans-Serif" font-size="10.00">qtsdl::GuiItemCoreInstantiator</text>
<text text-anchor="middle" x="598.5" y="-68" font-family="Helvetica,sans-Serif" font-size="10.00">&lt; GameSpecLink &gt;::do_adopt_core</text>
</a>
</g>
</g>
<!-- Node3&#45;&gt;Node4 -->
<g id="edge1" class="edge"><title>Node3&#45;&gt;Node4</title>
<path fill="none" stroke="midnightblue" d="M710.042,-62.9602C701.478,-63.9704 692.712,-65.0045 684.047,-66.0266"/>
<polygon fill="midnightblue" stroke="midnightblue" points="710.464,-66.4348 719.985,-61.7873 709.643,-59.483 710.464,-66.4348"/>
</g>
<!-- Node5 -->
<g id="node3" class="node"><title>Node5</title>
<g id="a_node3"><a xlink:href="namespaceqtsdl.xhtml#a5a0a6c84da4886196d22ea5de4477e66" target="_top" xlink:title=" ">
<polygon fill="white" stroke="black" points="566.5,-22.5 566.5,-41.5 630.5,-41.5 630.5,-22.5 566.5,-22.5"/>
<text text-anchor="middle" x="598.5" y="-29.5" font-family="Helvetica,sans-Serif" font-size="10.00">qtsdl::wrap</text>
</a>
</g>
</g>
<!-- Node3&#45;&gt;Node5 -->
<g id="edge2" class="edge"><title>Node3&#45;&gt;Node5</title>
<path fill="none" stroke="midnightblue" d="M709.881,-45.0208C682.148,-41.7493 652.321,-38.2309 630.672,-35.6772"/>
<polygon fill="midnightblue" stroke="midnightblue" points="709.643,-48.517 719.985,-46.2127 710.464,-41.5652 709.643,-48.517"/>
</g>
<!-- Node6 -->
<g id="node4" class="node"><title>Node6</title>
<g id="a_node4"><a xlink:href="classopenage_1_1gui_1_1_game_control_link.xhtml#a652b322aaebf092e2f0735aae8b54e1c" target="_top" xlink:title=" ">
<polygon fill="white" stroke="black" points="342,-39 342,-69 477,-69 477,-39 342,-39"/>
<text text-anchor="start" x="350" y="-57" font-family="Helvetica,sans-Serif" font-size="10.00">openage::gui::GameControl</text>
<text text-anchor="middle" x="409.5" y="-46" font-family="Helvetica,sans-Serif" font-size="10.00">Link::on_mode_changed</text>
</a>
</g>
</g>
<!-- Node5&#45;&gt;Node6 -->
<g id="edge3" class="edge"><title>Node5&#45;&gt;Node6</title>
<path fill="none" stroke="midnightblue" d="M556.042,-36.8774C532.904,-39.5996 503.526,-43.0557 477.233,-46.1491"/>
<polygon fill="midnightblue" stroke="midnightblue" points="556.678,-40.3268 566.2,-35.6823 555.86,-33.3748 556.678,-40.3268"/>
</g>
<!-- Node9 -->
<g id="node7" class="node"><title>Node9</title>
<g id="a_node7"><a xlink:href="namespaceqtsdl.xhtml#a182757d03b4347d5c8577102b0c3259f" target="_top" xlink:title=" ">
<polygon fill="white" stroke="black" points="362,-0.5 362,-19.5 457,-19.5 457,-0.5 362,-0.5"/>
<text text-anchor="middle" x="409.5" y="-7.5" font-family="Helvetica,sans-Serif" font-size="10.00">qtsdl::wrap_if_can</text>
</a>
</g>
</g>
<!-- Node5&#45;&gt;Node9 -->
<g id="edge7" class="edge"><title>Node5&#45;&gt;Node9</title>
<path fill="none" stroke="midnightblue" d="M555.926,-27.109C526.731,-23.6743 487.645,-19.0759 457.347,-15.5114"/>
<polygon fill="midnightblue" stroke="midnightblue" points="555.86,-30.6252 566.2,-28.3177 556.678,-23.6732 555.86,-30.6252"/>
</g>
<!-- Node7 -->
<g id="node5" class="node"><title>Node7</title>
<g id="a_node5"><a xlink:href="classopenage_1_1gui_1_1_game_control_link.xhtml#ac65023c9d5f785efe775b1dd99111c42" target="_top" xlink:title=" ">
<polygon fill="white" stroke="black" points="0,-39 0,-69 135,-69 135,-39 0,-39"/>
<text text-anchor="start" x="8" y="-57" font-family="Helvetica,sans-Serif" font-size="10.00">openage::gui::GameControl</text>
<text text-anchor="middle" x="67.5" y="-46" font-family="Helvetica,sans-Serif" font-size="10.00">Link::on_core_adopted</text>
</a>
</g>
</g>
<!-- Node6&#45;&gt;Node7 -->
<g id="edge4" class="edge"><title>Node6&#45;&gt;Node7</title>
<path fill="none" stroke="midnightblue" d="M331.669,-56.4928C323.011,-56.7011 314.316,-56.8783 306,-57 246.006,-57.8778 230.994,-57.8778 171,-57 159.429,-56.8307 147.127,-56.554 135.209,-56.2353"/>
<polygon fill="midnightblue" stroke="midnightblue" points="331.883,-59.9886 341.791,-56.2353 331.705,-52.9908 331.883,-59.9886"/>
</g>
<!-- Node8 -->
<g id="node6" class="node"><title>Node8</title>
<g id="a_node6"><a xlink:href="classopenage_1_1gui_1_1_game_control_link.xhtml#aef267067b8bc03f0df3bfdecce515cd6" target="_top" xlink:title=" ">
<polygon fill="white" stroke="black" points="171,-17 171,-47 306,-47 306,-17 171,-17"/>
<text text-anchor="start" x="179" y="-35" font-family="Helvetica,sans-Serif" font-size="10.00">openage::gui::GameControl</text>
<text text-anchor="middle" x="238.5" y="-24" font-family="Helvetica,sans-Serif" font-size="10.00">Link::on_modes_changed</text>
</a>
</g>
</g>
<!-- Node6&#45;&gt;Node8 -->
<g id="edge5" class="edge"><title>Node6&#45;&gt;Node8</title>
<path fill="none" stroke="midnightblue" d="M331.729,-44.0061C323.169,-42.8918 314.503,-41.7636 306.085,-40.6678"/>
<polygon fill="midnightblue" stroke="midnightblue" points="331.339,-47.4848 341.707,-45.305 332.242,-40.5433 331.339,-47.4848"/>
</g>
<!-- Node8&#45;&gt;Node7 -->
<g id="edge6" class="edge"><title>Node8&#45;&gt;Node7</title>
<path fill="none" stroke="midnightblue" d="M160.729,-41.9939C152.169,-43.1082 143.503,-44.2364 135.085,-45.3322"/>
<polygon fill="midnightblue" stroke="midnightblue" points="161.242,-45.4567 170.707,-40.695 160.339,-38.5152 161.242,-45.4567"/>
</g>
</g>
</svg>
