<?xml version="1.0" encoding="UTF-8" standalone="no"?>
<!DOCTYPE svg PUBLIC "-//W3C//DTD SVG 1.1//EN"
 "http://www.w3.org/Graphics/SVG/1.1/DTD/svg11.dtd">
<!-- Generated by graphviz version 2.38.0 (20140413.2041)
 -->
<!-- Title: openage::util::vector_remove_swap_end Pages: 1 -->
<svg width="451pt" height="112pt"
 viewBox="0.00 0.00 451.00 112.00" xmlns="http://www.w3.org/2000/svg" xmlns:xlink="http://www.w3.org/1999/xlink">
<g id="graph0" class="graph" transform="scale(1 1) rotate(0) translate(4 108)">
<title>openage::util::vector_remove_swap_end</title>
<polygon fill="white" stroke="none" points="-4,4 -4,-108 447,-108 447,4 -4,4"/>
<!-- Node772 -->
<g id="node1" class="node"><title>Node772</title>
<g id="a_node1"><a xlink:title="Remove the given element index in the vector.">
<polygon fill="#bfbfbf" stroke="black" points="339,-48.5 339,-78.5 443,-78.5 443,-48.5 339,-48.5"/>
<text text-anchor="start" x="347" y="-66.5" font-family="Helvetica,sans-Serif" font-size="10.00">openage::util::vector</text>
<text text-anchor="middle" x="391" y="-55.5" font-family="Helvetica,sans-Serif" font-size="10.00">_remove_swap_end</text>
</a>
</g>
</g>
<!-- Node773 -->
<g id="node2" class="node"><title>Node773</title>
<g id="a_node2"><a xlink:href="classopenage_1_1audio_1_1_audio_manager.xhtml#a4a4b32a5632f953c11696400487b1ef5" target="_top" xlink:title="Called from the audio system once to request new data.">
<polygon fill="white" stroke="black" points="152,-73.5 152,-103.5 303,-103.5 303,-73.5 152,-73.5"/>
<text text-anchor="start" x="160" y="-91.5" font-family="Helvetica,sans-Serif" font-size="10.00">openage::audio::AudioManager</text>
<text text-anchor="middle" x="227.5" y="-80.5" font-family="Helvetica,sans-Serif" font-size="10.00">::audio_callback</text>
</a>
</g>
</g>
<!-- Node772&#45;&gt;Node773 -->
<g id="edge1" class="edge"><title>Node772&#45;&gt;Node773</title>
<path fill="none" stroke="midnightblue" d="M328.842,-72.9672C320.452,-74.266 311.761,-75.6113 303.163,-76.9422"/>
<polygon fill="midnightblue" stroke="midnightblue" points="329.554,-76.3988 338.9,-71.4102 328.483,-69.4812 329.554,-76.3988"/>
</g>
<!-- Node774 -->
<g id="node3" class="node"><title>Node774</title>
<g id="a_node3"><a xlink:href="classopenage_1_1audio_1_1_audio_manager.xhtml#a30af6b961d77d0b564e4813560666b2c" target="_top" xlink:title=" ">
<polygon fill="white" stroke="black" points="152,-24.5 152,-54.5 303,-54.5 303,-24.5 152,-24.5"/>
<text text-anchor="start" x="160" y="-42.5" font-family="Helvetica,sans-Serif" font-size="10.00">openage::audio::AudioManager</text>
<text text-anchor="middle" x="227.5" y="-31.5" font-family="Helvetica,sans-Serif" font-size="10.00">::remove_sound</text>
</a>
</g>
</g>
<!-- Node772&#45;&gt;Node774 -->
<g id="edge2" class="edge"><title>Node772&#45;&gt;Node774</title>
<path fill="none" stroke="midnightblue" d="M328.842,-54.4115C320.452,-53.1646 311.761,-51.8732 303.163,-50.5955"/>
<polygon fill="midnightblue" stroke="midnightblue" points="328.495,-57.8982 338.9,-55.9063 329.524,-50.9743 328.495,-57.8982"/>
</g>
<!-- Node775 -->
<g id="node4" class="node"><title>Node775</title>
<g id="a_node4"><a xlink:href="classopenage_1_1audio_1_1_sound.xhtml#a2974dc942136bfead20c8f7b988cb1ac" target="_top" xlink:title="Pauses the sound at it&#39;s current playing offset.">
<polygon fill="white" stroke="black" points="0,-49.5 0,-79.5 116,-79.5 116,-49.5 0,-49.5"/>
<text text-anchor="start" x="8" y="-67.5" font-family="Helvetica,sans-Serif" font-size="10.00">openage::audio::Sound</text>
<text text-anchor="middle" x="58" y="-56.5" font-family="Helvetica,sans-Serif" font-size="10.00">::pause</text>
</a>
</g>
</g>
<!-- Node774&#45;&gt;Node775 -->
<g id="edge3" class="edge"><title>Node774&#45;&gt;Node775</title>
<path fill="none" stroke="midnightblue" d="M141.538,-52.1809C132.982,-53.4579 124.443,-54.7324 116.278,-55.9511"/>
<polygon fill="midnightblue" stroke="midnightblue" points="142.195,-55.6217 151.568,-50.6838 141.161,-48.6984 142.195,-55.6217"/>
</g>
<!-- Node776 -->
<g id="node5" class="node"><title>Node776</title>
<g id="a_node5"><a xlink:href="classopenage_1_1audio_1_1_sound.xhtml#af11cd36b7a1dd5475d811e30580298fe" target="_top" xlink:title="Resets the sound to it&#39;s beginning and stops playing it.">
<polygon fill="white" stroke="black" points="0,-0.5 0,-30.5 116,-30.5 116,-0.5 0,-0.5"/>
<text text-anchor="start" x="8" y="-18.5" font-family="Helvetica,sans-Serif" font-size="10.00">openage::audio::Sound</text>
<text text-anchor="middle" x="58" y="-7.5" font-family="Helvetica,sans-Serif" font-size="10.00">::stop</text>
</a>
</g>
</g>
<!-- Node774&#45;&gt;Node776 -->
<g id="edge4" class="edge"><title>Node774&#45;&gt;Node776</title>
<path fill="none" stroke="midnightblue" d="M141.538,-27.3264C132.982,-26.1004 124.443,-24.8769 116.278,-23.707"/>
<polygon fill="midnightblue" stroke="midnightblue" points="141.173,-30.8097 151.568,-28.7635 142.166,-23.8805 141.173,-30.8097"/>
</g>
</g>
</svg>
