<?xml version="1.0" encoding="UTF-8" standalone="no"?>
<!DOCTYPE svg PUBLIC "-//W3C//DTD SVG 1.1//EN"
 "http://www.w3.org/Graphics/SVG/1.1/DTD/svg11.dtd">
<!-- Generated by graphviz version 2.38.0 (20140413.2041)
 -->
<!-- Title: openage.convert.main.acquire_conversion_source_dir Pages: 1 -->
<svg width="1346pt" height="402pt"
 viewBox="0.00 0.00 1346.00 401.65" xmlns="http://www.w3.org/2000/svg" xmlns:xlink="http://www.w3.org/1999/xlink">
<g id="graph0" class="graph" transform="scale(1 1) rotate(0) translate(4 397.649)">
<title>openage.convert.main.acquire_conversion_source_dir</title>
<polygon fill="white" stroke="none" points="-4,4 -4,-397.649 1342,-397.649 1342,4 -4,4"/>
<!-- Node0 -->
<g id="node1" class="node"><title>Node0</title>
<g id="a_node1"><a xlink:title="Acquires source dir for the asset conversion.">
<polygon fill="#bfbfbf" stroke="black" points="0,-292 0,-322 146,-322 146,-292 0,-292"/>
<text text-anchor="start" x="8" y="-310" font-family="Helvetica,sans-Serif" font-size="10.00">openage.convert.main.acquire</text>
<text text-anchor="middle" x="73" y="-299" font-family="Helvetica,sans-Serif" font-size="10.00">_conversion_source_dir</text>
</a>
</g>
</g>
<!-- Node1 -->
<g id="node2" class="node"><title>Node1</title>
<g id="a_node2"><a xlink:href="namespaceopenage_1_1convert_1_1main.xhtml#a1496a2822465ce5d6389a93ec88b96b3" target="_top" xlink:title="Expand relative path to an absolute one, including abbreviations like ~ and environment variables.">
<polygon fill="white" stroke="black" points="366,-355 366,-385 512,-385 512,-355 366,-355"/>
<text text-anchor="start" x="374" y="-373" font-family="Helvetica,sans-Serif" font-size="10.00">openage.convert.main.expand</text>
<text text-anchor="middle" x="439" y="-362" font-family="Helvetica,sans-Serif" font-size="10.00">_relative_path</text>
</a>
</g>
</g>
<!-- Node0&#45;&gt;Node1 -->
<g id="edge1" class="edge"><title>Node0&#45;&gt;Node1</title>
<path fill="none" stroke="midnightblue" d="M89.5336,-322.254C109.158,-340.346 144.873,-369.501 182,-381 240.064,-398.984 309.077,-394.636 360.808,-386.672"/>
<polygon fill="midnightblue" stroke="midnightblue" points="361.603,-390.089 370.916,-385.037 360.485,-383.179 361.603,-390.089"/>
</g>
<!-- Node2 -->
<g id="node3" class="node"><title>Node2</title>
<g id="a_node3"><a xlink:href="namespaceopenage_1_1convert_1_1main.xhtml#a0158a3e3bc758a1a1615d61ca2bb7000" target="_top" xlink:title=" ">
<polygon fill="white" stroke="black" points="184.5,-292 184.5,-322 322.5,-322 322.5,-292 184.5,-292"/>
<text text-anchor="start" x="192.5" y="-310" font-family="Helvetica,sans-Serif" font-size="10.00">openage.convert.main.query</text>
<text text-anchor="middle" x="253.5" y="-299" font-family="Helvetica,sans-Serif" font-size="10.00">_source_dir</text>
</a>
</g>
</g>
<!-- Node0&#45;&gt;Node2 -->
<g id="edge2" class="edge"><title>Node0&#45;&gt;Node2</title>
<path fill="none" stroke="midnightblue" d="M146.088,-307C155.397,-307 164.964,-307 174.364,-307"/>
<polygon fill="midnightblue" stroke="midnightblue" points="174.479,-310.5 184.479,-307 174.479,-303.5 174.479,-310.5"/>
</g>
<!-- Node4 -->
<g id="node5" class="node"><title>Node4</title>
<g id="a_node5"><a xlink:href="namespaceopenage_1_1convert_1_1main.xhtml#a83fe7e9eb04e731e92c18a14eba73870" target="_top" xlink:title="Allow the customization of the WINEPREFIX environment variable.">
<polygon fill="white" stroke="black" points="189.5,-341 189.5,-371 317.5,-371 317.5,-341 189.5,-341"/>
<text text-anchor="start" x="197.5" y="-359" font-family="Helvetica,sans-Serif" font-size="10.00">openage.convert.main.set</text>
<text text-anchor="middle" x="253.5" y="-348" font-family="Helvetica,sans-Serif" font-size="10.00">_custom_wineprefix</text>
</a>
</g>
</g>
<!-- Node0&#45;&gt;Node4 -->
<g id="edge5" class="edge"><title>Node0&#45;&gt;Node4</title>
<path fill="none" stroke="midnightblue" d="M129.012,-322.101C147.593,-327.202 168.506,-332.943 187.768,-338.23"/>
<polygon fill="midnightblue" stroke="midnightblue" points="187.099,-341.676 197.669,-340.948 188.953,-334.926 187.099,-341.676"/>
</g>
<!-- Node5 -->
<g id="node6" class="node"><title>Node5</title>
<g id="a_node6"><a xlink:href="namespaceopenage_1_1convert_1_1main.xhtml#aa5695bc5f7849528b2fdd1f5b186a1cc" target="_top" xlink:title="Yield a list of directory names where an installation might be found.">
<polygon fill="white" stroke="black" points="182,-229 182,-259 325,-259 325,-229 182,-229"/>
<text text-anchor="start" x="190" y="-247" font-family="Helvetica,sans-Serif" font-size="10.00">openage.convert.main.source</text>
<text text-anchor="middle" x="253.5" y="-236" font-family="Helvetica,sans-Serif" font-size="10.00">_dir_proposals</text>
</a>
</g>
</g>
<!-- Node0&#45;&gt;Node5 -->
<g id="edge7" class="edge"><title>Node0&#45;&gt;Node5</title>
<path fill="none" stroke="midnightblue" d="M116.755,-291.91C141.833,-283.059 173.705,-271.81 200.263,-262.437"/>
<polygon fill="midnightblue" stroke="midnightblue" points="201.52,-265.705 209.785,-259.076 199.19,-259.104 201.52,-265.705"/>
</g>
<!-- Node10 -->
<g id="node11" class="node"><title>Node10</title>
<g id="a_node11"><a xlink:href="namespaceopenage_1_1convert_1_1main.xhtml#a4a6e38f51a7b482ac175c932acd397e9" target="_top" xlink:title=" ">
<polygon fill="white" stroke="black" points="182.5,-136 182.5,-166 324.5,-166 324.5,-136 182.5,-136"/>
<text text-anchor="start" x="190.5" y="-154" font-family="Helvetica,sans-Serif" font-size="10.00">openage.convert.main.wanna</text>
<text text-anchor="middle" x="253.5" y="-143" font-family="Helvetica,sans-Serif" font-size="10.00">_use_wine</text>
</a>
</g>
</g>
<!-- Node0&#45;&gt;Node10 -->
<g id="edge12" class="edge"><title>Node0&#45;&gt;Node10</title>
<path fill="none" stroke="midnightblue" d="M91.4403,-291.758C123.248,-263.96 190.776,-204.944 227.481,-172.865"/>
<polygon fill="midnightblue" stroke="midnightblue" points="230.025,-175.29 235.252,-166.074 225.419,-170.019 230.025,-175.29"/>
</g>
<!-- Node2&#45;&gt;Node1 -->
<g id="edge3" class="edge"><title>Node2&#45;&gt;Node1</title>
<path fill="none" stroke="midnightblue" d="M297.014,-322.031C306.244,-325.307 315.952,-328.762 325,-332 341.017,-337.732 344.908,-339.484 361,-345 367.432,-347.205 374.182,-349.469 380.901,-351.691"/>
<polygon fill="midnightblue" stroke="midnightblue" points="380.089,-355.109 390.682,-354.906 382.275,-348.459 380.089,-355.109"/>
</g>
<!-- Node3 -->
<g id="node4" class="node"><title>Node3</title>
<g id="a_node4"><a xlink:href="namespaceopenage_1_1log.xhtml#a7ca418e1b1fcf210ff91cd25dc8e6a36" target="_top" xlink:title="warning message">
<polygon fill="white" stroke="black" points="393,-316.5 393,-335.5 485,-335.5 485,-316.5 393,-316.5"/>
<text text-anchor="middle" x="439" y="-323.5" font-family="Helvetica,sans-Serif" font-size="10.00">openage.log.warn</text>
</a>
</g>
</g>
<!-- Node2&#45;&gt;Node3 -->
<g id="edge4" class="edge"><title>Node2&#45;&gt;Node3</title>
<path fill="none" stroke="midnightblue" d="M322.568,-314.048C342.453,-316.107 363.932,-318.331 382.907,-320.296"/>
<polygon fill="midnightblue" stroke="midnightblue" points="382.564,-323.779 392.871,-321.327 383.285,-316.816 382.564,-323.779"/>
</g>
<!-- Node4&#45;&gt;Node1 -->
<g id="edge6" class="edge"><title>Node4&#45;&gt;Node1</title>
<path fill="none" stroke="midnightblue" d="M317.65,-360.818C329.921,-361.754 342.95,-362.748 355.73,-363.723"/>
<polygon fill="midnightblue" stroke="midnightblue" points="355.671,-367.229 365.908,-364.5 356.203,-360.249 355.671,-367.229"/>
</g>
<!-- Node6 -->
<g id="node7" class="node"><title>Node6</title>
<g id="a_node7"><a xlink:href="namespaceopenage_1_1log.xhtml#a3f1815b698faf5786fc5e20bcac7704b" target="_top" xlink:title="info message">
<polygon fill="white" stroke="black" points="395.5,-278.5 395.5,-297.5 482.5,-297.5 482.5,-278.5 395.5,-278.5"/>
<text text-anchor="middle" x="439" y="-285.5" font-family="Helvetica,sans-Serif" font-size="10.00">openage.log.info</text>
</a>
</g>
</g>
<!-- Node5&#45;&gt;Node6 -->
<g id="edge8" class="edge"><title>Node5&#45;&gt;Node6</title>
<path fill="none" stroke="midnightblue" d="M317.137,-259.019C340.456,-264.611 366.575,-270.874 388.549,-276.143"/>
<polygon fill="midnightblue" stroke="midnightblue" points="387.788,-279.559 398.329,-278.488 389.421,-272.752 387.788,-279.559"/>
</g>
<!-- Node7 -->
<g id="node8" class="node"><title>Node7</title>
<g id="a_node8"><a xlink:href="namespaceopenage_1_1convert_1_1main.xhtml#aaa17c535c5bc580e7b8eefb2d754e806" target="_top" xlink:title="Turn a Wine file path (C:\xyz) into a local filesystem path (~/.wine/xyz)">
<polygon fill="white" stroke="black" points="372,-229 372,-259 506,-259 506,-229 372,-229"/>
<text text-anchor="start" x="380" y="-247" font-family="Helvetica,sans-Serif" font-size="10.00">openage.convert.main.wine</text>
<text text-anchor="middle" x="439" y="-236" font-family="Helvetica,sans-Serif" font-size="10.00">_to_real_path</text>
</a>
</g>
</g>
<!-- Node5&#45;&gt;Node7 -->
<g id="edge9" class="edge"><title>Node5&#45;&gt;Node7</title>
<path fill="none" stroke="midnightblue" d="M325.183,-244C337.173,-244 349.669,-244 361.793,-244"/>
<polygon fill="midnightblue" stroke="midnightblue" points="361.87,-247.5 371.87,-244 361.87,-240.5 361.87,-247.5"/>
</g>
<!-- Node8 -->
<g id="node9" class="node"><title>Node8</title>
<g id="a_node9"><a xlink:href="namespaceopenage_1_1convert_1_1main.xhtml#af8a76f3d32546fca995c8f50f164f9b7" target="_top" xlink:title="Remove quotes and escapes from a Wine registry value.">
<polygon fill="white" stroke="black" points="361,-180 361,-210 517,-210 517,-180 361,-180"/>
<text text-anchor="start" x="369" y="-198" font-family="Helvetica,sans-Serif" font-size="10.00">openage.convert.main.unescape</text>
<text text-anchor="middle" x="439" y="-187" font-family="Helvetica,sans-Serif" font-size="10.00">_winereg</text>
</a>
</g>
</g>
<!-- Node5&#45;&gt;Node8 -->
<g id="edge10" class="edge"><title>Node5&#45;&gt;Node8</title>
<path fill="none" stroke="midnightblue" d="M310.803,-228.965C330.178,-223.792 352.045,-217.952 372.114,-212.593"/>
<polygon fill="midnightblue" stroke="midnightblue" points="373.045,-215.968 381.803,-210.006 371.239,-209.205 373.045,-215.968"/>
</g>
<!-- Node9 -->
<g id="node10" class="node"><title>Node9</title>
<g id="a_node10"><a xlink:href="namespaceopenage_1_1log.xhtml#aad3d76b2466dbc4f81552935f2d84faa" target="_top" xlink:title="debug message">
<polygon fill="white" stroke="black" points="395,-141.5 395,-160.5 483,-160.5 483,-141.5 395,-141.5"/>
<text text-anchor="middle" x="439" y="-148.5" font-family="Helvetica,sans-Serif" font-size="10.00">openage.log.dbg</text>
</a>
</g>
</g>
<!-- Node5&#45;&gt;Node9 -->
<g id="edge11" class="edge"><title>Node5&#45;&gt;Node9</title>
<path fill="none" stroke="midnightblue" d="M272.106,-228.701C292.274,-211.94 326.944,-185.396 361,-170 368.493,-166.613 376.68,-163.772 384.829,-161.407"/>
<polygon fill="midnightblue" stroke="midnightblue" points="385.954,-164.729 394.703,-158.753 384.137,-157.969 385.954,-164.729"/>
</g>
<!-- Node11 -->
<g id="node12" class="node"><title>Node11</title>
<g id="a_node12"><a xlink:href="namespaceopenage_1_1subprocess.xhtml#aea6af6d7d8e5290e58dfafd50a96a069" target="_top" xlink:title=" ">
<polygon fill="white" stroke="black" points="384,-92 384,-122 494,-122 494,-92 384,-92"/>
<text text-anchor="start" x="392" y="-110" font-family="Helvetica,sans-Serif" font-size="10.00">openage::subprocess</text>
<text text-anchor="middle" x="439" y="-99" font-family="Helvetica,sans-Serif" font-size="10.00">::which</text>
</a>
</g>
</g>
<!-- Node10&#45;&gt;Node11 -->
<g id="edge13" class="edge"><title>Node10&#45;&gt;Node11</title>
<path fill="none" stroke="midnightblue" d="M317.137,-135.981C335.531,-131.57 355.666,-126.742 374.135,-122.314"/>
<polygon fill="midnightblue" stroke="midnightblue" points="375.004,-125.705 383.912,-119.969 373.372,-118.898 375.004,-125.705"/>
</g>
<!-- Node12 -->
<g id="node13" class="node"><title>Node12</title>
<g id="a_node13"><a xlink:href="namespaceopenage_1_1subprocess.xhtml#af8b5d87acaf3d044fdd924ef68a1cec8" target="_top" xlink:title=" ">
<polygon fill="white" stroke="black" points="553,-155 553,-185 663,-185 663,-155 553,-155"/>
<text text-anchor="start" x="561" y="-173" font-family="Helvetica,sans-Serif" font-size="10.00">openage::subprocess</text>
<text text-anchor="middle" x="608" y="-162" font-family="Helvetica,sans-Serif" font-size="10.00">::is_executable</text>
</a>
</g>
</g>
<!-- Node11&#45;&gt;Node12 -->
<g id="edge14" class="edge"><title>Node11&#45;&gt;Node12</title>
<path fill="none" stroke="midnightblue" d="M488.687,-122.109C498.13,-125.236 507.913,-128.613 517,-132 532.384,-137.733 549.001,-144.564 563.72,-150.842"/>
<polygon fill="midnightblue" stroke="midnightblue" points="562.517,-154.134 573.086,-154.871 565.283,-147.704 562.517,-154.134"/>
</g>
<!-- Node13 -->
<g id="node14" class="node"><title>Node13</title>
<g id="a_node14"><a xlink:href="namespaceopenage_1_1util.xhtml#a664e0be1f5d2f4d1e1a624f6f4a5f0c1" target="_top" xlink:title=" ">
<polygon fill="white" stroke="black" points="713.5,-160.5 713.5,-179.5 827.5,-179.5 827.5,-160.5 713.5,-160.5"/>
<text text-anchor="middle" x="770.5" y="-167.5" font-family="Helvetica,sans-Serif" font-size="10.00">openage::util::filename</text>
</a>
</g>
</g>
<!-- Node11&#45;&gt;Node13 -->
<g id="edge28" class="edge"><title>Node11&#45;&gt;Node13</title>
<path fill="none" stroke="midnightblue" d="M494.248,-115.283C539.512,-122.424 605.645,-133.393 663,-145 682.162,-148.878 703.133,-153.679 721.36,-158.034"/>
<polygon fill="midnightblue" stroke="midnightblue" points="720.634,-161.459 731.175,-160.399 722.274,-154.654 720.634,-161.459"/>
</g>
<!-- Node14 -->
<g id="node15" class="node"><title>Node14</title>
<g id="a_node15"><a xlink:href="namespaceopenage_1_1log.xhtml#a0eff614e7d6e818746700ed9d29e583f" target="_top" xlink:title=" ">
<polygon fill="white" stroke="black" points="562.5,-78.5 562.5,-97.5 653.5,-97.5 653.5,-78.5 562.5,-78.5"/>
<text text-anchor="middle" x="608" y="-85.5" font-family="Helvetica,sans-Serif" font-size="10.00">openage::log::log</text>
</a>
</g>
</g>
<!-- Node11&#45;&gt;Node14 -->
<g id="edge16" class="edge"><title>Node11&#45;&gt;Node14</title>
<path fill="none" stroke="midnightblue" d="M494.22,-100.831C512.783,-98.7193 533.556,-96.3559 552.167,-94.2384"/>
<polygon fill="midnightblue" stroke="midnightblue" points="552.716,-97.6987 562.256,-93.0906 551.925,-90.7435 552.716,-97.6987"/>
</g>
<!-- Node20 -->
<g id="node21" class="node"><title>Node20</title>
<g id="a_node21"><a xlink:href="namespaceopenage_1_1util.xhtml#a854794aef09b81dbec641eca208a66d7" target="_top" xlink:title=" ">
<polygon fill="white" stroke="black" points="558.5,-21 558.5,-51 657.5,-51 657.5,-21 558.5,-21"/>
<text text-anchor="start" x="566.5" y="-39" font-family="Helvetica,sans-Serif" font-size="10.00">openage::util::copy</text>
<text text-anchor="middle" x="608" y="-28" font-family="Helvetica,sans-Serif" font-size="10.00">_string</text>
</a>
</g>
</g>
<!-- Node11&#45;&gt;Node20 -->
<g id="edge22" class="edge"><title>Node11&#45;&gt;Node20</title>
<path fill="none" stroke="midnightblue" d="M475.416,-91.9427C500.768,-81.1646 535.09,-66.5727 562.324,-54.9942"/>
<polygon fill="midnightblue" stroke="midnightblue" points="563.801,-58.1692 571.635,-51.0356 561.062,-51.7272 563.801,-58.1692"/>
</g>
<!-- Node12&#45;&gt;Node13 -->
<g id="edge15" class="edge"><title>Node12&#45;&gt;Node13</title>
<path fill="none" stroke="midnightblue" d="M663.338,-170C676.165,-170 689.982,-170 703.269,-170"/>
<polygon fill="midnightblue" stroke="midnightblue" points="703.302,-173.5 713.301,-170 703.301,-166.5 703.302,-173.5"/>
</g>
<!-- Node15 -->
<g id="node16" class="node"><title>Node15</title>
<g id="a_node16"><a xlink:href="namespaceopenage_1_1log.xhtml#a3fbb0c225d01e222648ec28a43507188" target="_top" xlink:title=" ">
<polygon fill="white" stroke="black" points="715.5,-111 715.5,-141 825.5,-141 825.5,-111 715.5,-111"/>
<text text-anchor="start" x="723.5" y="-129" font-family="Helvetica,sans-Serif" font-size="10.00">openage::log::general</text>
<text text-anchor="middle" x="770.5" y="-118" font-family="Helvetica,sans-Serif" font-size="10.00">_source</text>
</a>
</g>
</g>
<!-- Node14&#45;&gt;Node15 -->
<g id="edge17" class="edge"><title>Node14&#45;&gt;Node15</title>
<path fill="none" stroke="midnightblue" d="M649.501,-97.589C666.503,-101.614 686.69,-106.394 705.61,-110.873"/>
<polygon fill="midnightblue" stroke="midnightblue" points="704.827,-114.285 715.365,-113.183 706.44,-107.473 704.827,-114.285"/>
</g>
<!-- Node16 -->
<g id="node17" class="node"><title>Node16</title>
<g id="a_node17"><a xlink:href="classopenage_1_1log_1_1_log_source.xhtml#a5640099e20af4cd368c767dbcef3a1df" target="_top" xlink:title=" ">
<polygon fill="white" stroke="black" points="699,-72.5 699,-91.5 842,-91.5 842,-72.5 699,-72.5"/>
<text text-anchor="middle" x="770.5" y="-79.5" font-family="Helvetica,sans-Serif" font-size="10.00">openage::log::LogSource::log</text>
</a>
</g>
</g>
<!-- Node14&#45;&gt;Node16 -->
<g id="edge18" class="edge"><title>Node14&#45;&gt;Node16</title>
<path fill="none" stroke="midnightblue" d="M653.708,-86.3287C664.65,-85.9196 676.697,-85.4693 688.759,-85.0183"/>
<polygon fill="midnightblue" stroke="midnightblue" points="689.008,-88.5116 698.871,-84.6404 688.747,-81.5165 689.008,-88.5116"/>
</g>
<!-- Node17 -->
<g id="node18" class="node"><title>Node17</title>
<g id="a_node18"><a xlink:href="namespaceopenage_1_1log.xhtml#a3d2885be9c3a09b9ff7ee8764b2e5f39" target="_top" xlink:title=" ">
<polygon fill="white" stroke="black" points="900,-126 900,-156 1004,-156 1004,-126 900,-126"/>
<text text-anchor="start" x="908" y="-144" font-family="Helvetica,sans-Serif" font-size="10.00">openage::log::global</text>
<text text-anchor="middle" x="952" y="-133" font-family="Helvetica,sans-Serif" font-size="10.00">_stdoutsink</text>
</a>
</g>
</g>
<!-- Node16&#45;&gt;Node17 -->
<g id="edge19" class="edge"><title>Node16&#45;&gt;Node17</title>
<path fill="none" stroke="midnightblue" d="M810.563,-91.5461C820.869,-94.3311 831.923,-97.5594 842,-101 858.404,-106.601 861.792,-109.855 878,-116 883.836,-118.213 889.967,-120.448 896.09,-122.625"/>
<polygon fill="midnightblue" stroke="midnightblue" points="895.07,-125.976 905.664,-125.985 897.388,-119.371 895.07,-125.976"/>
</g>
<!-- Node18 -->
<g id="node19" class="node"><title>Node18</title>
<g id="a_node19"><a xlink:href="classopenage_1_1log_1_1_log_sink_list.xhtml#a2d47416fab12651553b4b58c86fd6f84" target="_top" xlink:title=" ">
<polygon fill="white" stroke="black" points="887.5,-77 887.5,-107 1016.5,-107 1016.5,-77 887.5,-77"/>
<text text-anchor="start" x="895.5" y="-95" font-family="Helvetica,sans-Serif" font-size="10.00">openage::log::LogSinkList</text>
<text text-anchor="middle" x="952" y="-84" font-family="Helvetica,sans-Serif" font-size="10.00">::instance</text>
</a>
</g>
</g>
<!-- Node16&#45;&gt;Node18 -->
<g id="edge20" class="edge"><title>Node16&#45;&gt;Node18</title>
<path fill="none" stroke="midnightblue" d="M842.185,-85.9379C853.719,-86.5805 865.693,-87.2475 877.297,-87.894"/>
<polygon fill="midnightblue" stroke="midnightblue" points="877.2,-91.3939 887.379,-88.4557 877.59,-84.4048 877.2,-91.3939"/>
</g>
<!-- Node19 -->
<g id="node20" class="node"><title>Node19</title>
<g id="a_node20"><a xlink:href="classopenage_1_1log_1_1_log_sink_list.xhtml#a8456b84ab55e1fe151c51438c5bfebdd" target="_top" xlink:title=" ">
<polygon fill="white" stroke="black" points="878,-38.5 878,-57.5 1026,-57.5 1026,-38.5 878,-38.5"/>
<text text-anchor="middle" x="952" y="-45.5" font-family="Helvetica,sans-Serif" font-size="10.00">openage::log::LogSinkList::log</text>
</a>
</g>
</g>
<!-- Node16&#45;&gt;Node19 -->
<g id="edge21" class="edge"><title>Node16&#45;&gt;Node19</title>
<path fill="none" stroke="midnightblue" d="M821.978,-72.4386C843.29,-68.4019 868.282,-63.6681 890.565,-59.4473"/>
<polygon fill="midnightblue" stroke="midnightblue" points="891.416,-62.8485 900.59,-57.5485 890.113,-55.9707 891.416,-62.8485"/>
</g>
<!-- Node21 -->
<g id="node22" class="node"><title>Node21</title>
<g id="a_node22"><a xlink:href="namespaceopenage_1_1util_1_1constexpr__.xhtml#a72a87a05e383ec62bf0b60359f314df7" target="_top" xlink:title=" ">
<polygon fill="white" stroke="black" points="710,-14 710,-44 831,-44 831,-14 710,-14"/>
<text text-anchor="start" x="718" y="-32" font-family="Helvetica,sans-Serif" font-size="10.00">openage::util::constexpr</text>
<text text-anchor="middle" x="770.5" y="-21" font-family="Helvetica,sans-Serif" font-size="10.00">_::strlen</text>
</a>
</g>
</g>
<!-- Node20&#45;&gt;Node21 -->
<g id="edge23" class="edge"><title>Node20&#45;&gt;Node21</title>
<path fill="none" stroke="midnightblue" d="M657.591,-33.8808C670.806,-33.3044 685.386,-32.6685 699.532,-32.0516"/>
<polygon fill="midnightblue" stroke="midnightblue" points="699.892,-35.5393 709.73,-31.6068 699.587,-28.5459 699.892,-35.5393"/>
</g>
<!-- Node22 -->
<g id="node23" class="node"><title>Node22</title>
<g id="a_node23"><a xlink:href="namespaceopenage_1_1py.xhtml#a4d2bbe46a5d10404c658b54f3b199551" target="_top" xlink:title=" ">
<polygon fill="white" stroke="black" points="908.5,-0.5 908.5,-19.5 995.5,-19.5 995.5,-0.5 908.5,-0.5"/>
<text text-anchor="middle" x="952" y="-7.5" font-family="Helvetica,sans-Serif" font-size="10.00">openage::py::str</text>
</a>
</g>
</g>
<!-- Node21&#45;&gt;Node22 -->
<g id="edge24" class="edge"><title>Node21&#45;&gt;Node22</title>
<path fill="none" stroke="midnightblue" d="M831.271,-22.6733C852.919,-20.3818 877.196,-17.8121 898.201,-15.5887"/>
<polygon fill="midnightblue" stroke="midnightblue" points="898.648,-19.061 908.224,-14.5278 897.912,-12.0999 898.648,-19.061"/>
</g>
<!-- Node23 -->
<g id="node24" class="node"><title>Node23</title>
<g id="a_node24"><a xlink:href="namespaceopenage_1_1testing_1_1testing.xhtml#ac25bf81db406af62d08113ef7ae9fd6e" target="_top" xlink:title=" ">
<polygon fill="white" stroke="black" points="1062,-0.5 1062,-19.5 1207,-19.5 1207,-0.5 1062,-0.5"/>
<text text-anchor="middle" x="1134.5" y="-7.5" font-family="Helvetica,sans-Serif" font-size="10.00">openage.testing.testing.result</text>
</a>
</g>
</g>
<!-- Node22&#45;&gt;Node23 -->
<g id="edge25" class="edge"><title>Node22&#45;&gt;Node23</title>
<path fill="none" stroke="midnightblue" d="M995.776,-10C1012.55,-10 1032.39,-10 1051.71,-10"/>
<polygon fill="midnightblue" stroke="midnightblue" points="1051.75,-13.5001 1061.75,-10 1051.75,-6.5001 1051.75,-13.5001"/>
</g>
<!-- Node24 -->
<g id="node25" class="node"><title>Node24</title>
<g id="a_node25"><a xlink:href="namespaceopenage_1_1util.xhtml#a7bc4421a5f0f57f3a0aba3f96eb8d19c" target="_top" xlink:title=" ">
<polygon fill="white" stroke="black" points="1243,-0.5 1243,-19.5 1338,-19.5 1338,-0.5 1243,-0.5"/>
<text text-anchor="middle" x="1290.5" y="-7.5" font-family="Helvetica,sans-Serif" font-size="10.00">openage::util::repr</text>
</a>
</g>
</g>
<!-- Node23&#45;&gt;Node24 -->
<g id="edge26" class="edge"><title>Node23&#45;&gt;Node24</title>
<path fill="none" stroke="midnightblue" d="M1207.09,-3.26483C1215.6,-3.21813 1224.19,-3.28172 1232.45,-3.4556"/>
<polygon fill="midnightblue" stroke="midnightblue" points="1232.62,-6.9614 1242.71,-3.73483 1232.81,0.0360109 1232.62,-6.9614"/>
</g>
<!-- Node24&#45;&gt;Node23 -->
<g id="edge27" class="edge"><title>Node24&#45;&gt;Node23</title>
<path fill="none" stroke="midnightblue" d="M1242.71,-16.2652C1234.63,-16.5381 1226.01,-16.6958 1217.31,-16.7383"/>
<polygon fill="midnightblue" stroke="midnightblue" points="1217.09,-13.2383 1207.09,-16.7352 1217.09,-20.2383 1217.09,-13.2383"/>
</g>
</g>
</svg>
