<?xml version="1.0" encoding="UTF-8" standalone="no"?>
<!DOCTYPE svg PUBLIC "-//W3C//DTD SVG 1.1//EN"
 "http://www.w3.org/Graphics/SVG/1.1/DTD/svg11.dtd">
<!-- Generated by graphviz version 2.38.0 (20140413.2041)
 -->
<!-- Title: openage.convert.main.query_source_dir Pages: 1 -->
<svg width="328pt" height="78pt"
 viewBox="0.00 0.00 328.00 77.50" xmlns="http://www.w3.org/2000/svg" xmlns:xlink="http://www.w3.org/1999/xlink">
<g id="graph0" class="graph" transform="scale(1 1) rotate(0) translate(4 73.5)">
<title>openage.convert.main.query_source_dir</title>
<polygon fill="white" stroke="none" points="-4,4 -4,-73.5 324,-73.5 324,4 -4,4"/>
<!-- Node227 -->
<g id="node1" class="node"><title>Node227</title>
<g id="a_node1"><a xlink:title=" ">
<polygon fill="#bfbfbf" stroke="black" points="0,-17 0,-47 138,-47 138,-17 0,-17"/>
<text text-anchor="start" x="8" y="-35" font-family="Helvetica,sans-Serif" font-size="10.00">openage.convert.main.query</text>
<text text-anchor="middle" x="69" y="-24" font-family="Helvetica,sans-Serif" font-size="10.00">_source_dir</text>
</a>
</g>
</g>
<!-- Node228 -->
<g id="node2" class="node"><title>Node228</title>
<g id="a_node2"><a xlink:href="namespaceopenage_1_1convert_1_1main.xhtml#a1496a2822465ce5d6389a93ec88b96b3" target="_top" xlink:title="Expand relative path to an absolute one, including abbreviations like ~ and environment variables.">
<polygon fill="white" stroke="black" points="174,-39 174,-69 320,-69 320,-39 174,-39"/>
<text text-anchor="start" x="182" y="-57" font-family="Helvetica,sans-Serif" font-size="10.00">openage.convert.main.expand</text>
<text text-anchor="middle" x="247" y="-46" font-family="Helvetica,sans-Serif" font-size="10.00">_relative_path</text>
</a>
</g>
</g>
<!-- Node227&#45;&gt;Node228 -->
<g id="edge1" class="edge"><title>Node227&#45;&gt;Node228</title>
<path fill="none" stroke="midnightblue" d="M138.046,-40.5058C146.459,-41.5573 155.128,-42.641 163.724,-43.7156"/>
<polygon fill="midnightblue" stroke="midnightblue" points="163.405,-47.2028 173.762,-44.9703 164.274,-40.2569 163.405,-47.2028"/>
</g>
<!-- Node229 -->
<g id="node3" class="node"><title>Node229</title>
<g id="a_node3"><a xlink:href="namespaceopenage_1_1log.xhtml#a7ca418e1b1fcf210ff91cd25dc8e6a36" target="_top" xlink:title="warning message">
<polygon fill="white" stroke="black" points="201,-0.5 201,-19.5 293,-19.5 293,-0.5 201,-0.5"/>
<text text-anchor="middle" x="247" y="-7.5" font-family="Helvetica,sans-Serif" font-size="10.00">openage.log.warn</text>
</a>
</g>
</g>
<!-- Node227&#45;&gt;Node229 -->
<g id="edge2" class="edge"><title>Node227&#45;&gt;Node229</title>
<path fill="none" stroke="midnightblue" d="M138.046,-23.4942C155.509,-21.3113 174.079,-18.9901 190.804,-16.8995"/>
<polygon fill="midnightblue" stroke="midnightblue" points="191.464,-20.3444 200.952,-15.631 190.595,-13.3984 191.464,-20.3444"/>
</g>
</g>
</svg>
