<?xml version="1.0" encoding="UTF-8" standalone="no"?>
<!DOCTYPE svg PUBLIC "-//W3C//DTD SVG 1.1//EN"
 "http://www.w3.org/Graphics/SVG/1.1/DTD/svg11.dtd">
<!-- Generated by graphviz version 2.38.0 (20140413.2041)
 -->
<!-- Title: openage.util.threading.test_concurrent_chain Pages: 1 -->
<!--zoomable 198 -->
<svg id="main" version="1.1" xmlns="http://www.w3.org/2000/svg" xmlns:xlink="http://www.w3.org/1999/xlink" xml:space="preserve" onload="init(evt)">
<style type="text/css"><![CDATA[
.edge:hover path { stroke: red; }
.edge:hover polygon { stroke: red; fill: red; }
]]></style>
<script type="text/javascript"><![CDATA[
var edges = document.getElementsByTagName('g');
if (edges && edges.length) {
  for (var i=0;i<edges.length;i++) {
    if (edges[i].id.substr(0,4)=='edge') {
      edges[i].setAttribute('class','edge');
    }
  }
}
]]></script>
        <defs>
                <circle id="rim" cx="0" cy="0" r="7"/>
                <circle id="rim2" cx="0" cy="0" r="3.5"/>
                <g id="zoomPlus">
                        <use xlink:href="#rim" fill="#404040">
                                <set attributeName="fill" to="#808080" begin="zoomplus.mouseover" end="zoomplus.mouseout"/>
                        </use>
                        <path d="M-4,0h8M0,-4v8" fill="none" stroke="white" stroke-width="1.5" pointer-events="none"/>
                </g>
                <g id="zoomMin">
                        <use xlink:href="#rim" fill="#404040">
                                <set attributeName="fill" to="#808080" begin="zoomminus.mouseover" end="zoomminus.mouseout"/>
                        </use>
                        <path d="M-4,0h8" fill="none" stroke="white" stroke-width="1.5" pointer-events="none"/>
                </g>
                <g id="dirArrow">
                        <path fill="none" stroke="white" stroke-width="1.5" d="M0,-3.0v7 M-2.5,-0.5L0,-3.0L2.5,-0.5"/>
                </g>
               <g id="resetDef">
                       <use xlink:href="#rim2" fill="#404040">
                               <set attributeName="fill" to="#808080" begin="reset.mouseover" end="reset.mouseout"/>
                       </use>
               </g>
        </defs>

<script type="text/javascript">
var viewWidth = 648;
var viewHeight = 198;
var sectionId = 'dynsection-1';
</script>
<script xlink:href="svgpan.js"/>
<svg id="graph" class="graph">
<g id="viewport">
<title>openage.util.threading.test_concurrent_chain</title>
<polygon fill="white" stroke="none" points="-4,4 -4,-194.435 644,-194.435 644,4 -4,4"/>
<!-- Node7 -->
<g id="node1" class="node"><title>Node7</title>
<g id="a_node1"><a xlink:title="Tests concurrent_chain.">
<polygon fill="#bfbfbf" stroke="black" points="0,-66.9345 0,-96.9345 131,-96.9345 131,-66.9345 0,-66.9345"/>
<text text-anchor="start" x="8" y="-84.9345" font-family="Helvetica,sans-Serif" font-size="10.00">openage.util.threading.test</text>
<text text-anchor="middle" x="65.5" y="-73.9345" font-family="Helvetica,sans-Serif" font-size="10.00">_concurrent_chain</text>
</a>
</g>
</g>
<!-- Node8 -->
<g id="node2" class="node"><title>Node8</title>
<g id="a_node2"><a xlink:href="namespaceopenage_1_1testing_1_1testing.xhtml#a1e253d6f2b396e2a0162c7b1c8ab36d9" target="_top" xlink:title="Context guard that asserts that a certain exception is raised inside.">
<polygon fill="white" stroke="black" points="173.5,-159.935 173.5,-189.935 321.5,-189.935 321.5,-159.935 173.5,-159.935"/>
<text text-anchor="start" x="181.5" y="-177.935" font-family="Helvetica,sans-Serif" font-size="10.00">openage.testing.testing.assert</text>
<text text-anchor="middle" x="247.5" y="-166.935" font-family="Helvetica,sans-Serif" font-size="10.00">_raises</text>
</a>
</g>
</g>
<!-- Node7&#45;&gt;Node8 -->
<g id="edge1" class="edge"><title>Node7&#45;&gt;Node8</title>
<path fill="none" stroke="midnightblue" d="M84.6964,-97.0118C104.054,-112.41 136.089,-136.101 167,-150.935 170.983,-152.846 175.151,-154.643 179.403,-156.327"/>
<polygon fill="midnightblue" stroke="midnightblue" points="178.214,-159.619 188.807,-159.831 180.658,-153.06 178.214,-159.619"/>
</g>
<!-- Node9 -->
<g id="node3" class="node"><title>Node9</title>
<g id="a_node3"><a xlink:href="namespaceopenage_1_1testing_1_1testing.xhtml#a2800c6619c18337197b7ad519bbad072" target="_top" xlink:title=" ">
<polygon fill="white" stroke="black" points="173.5,-110.935 173.5,-140.935 321.5,-140.935 321.5,-110.935 173.5,-110.935"/>
<text text-anchor="start" x="181.5" y="-128.935" font-family="Helvetica,sans-Serif" font-size="10.00">openage.testing.testing.assert</text>
<text text-anchor="middle" x="247.5" y="-117.935" font-family="Helvetica,sans-Serif" font-size="10.00">_value</text>
</a>
</g>
</g>
<!-- Node7&#45;&gt;Node9 -->
<g id="edge2" class="edge"><title>Node7&#45;&gt;Node9</title>
<path fill="none" stroke="midnightblue" d="M127.942,-96.9538C143.064,-100.65 159.385,-104.64 174.939,-108.442"/>
<polygon fill="midnightblue" stroke="midnightblue" points="174.484,-111.934 185.029,-110.908 176.146,-105.134 174.484,-111.934"/>
</g>
<!-- Node11 -->
<g id="node5" class="node"><title>Node11</title>
<g id="a_node5"><a xlink:href="namespaceopenage_1_1testing_1_1testing.xhtml#ac25bf81db406af62d08113ef7ae9fd6e" target="_top" xlink:title=" ">
<polygon fill="white" stroke="black" points="495,-91.4345 495,-110.435 640,-110.435 640,-91.4345 495,-91.4345"/>
<text text-anchor="middle" x="567.5" y="-98.4345" font-family="Helvetica,sans-Serif" font-size="10.00">openage.testing.testing.result</text>
</a>
</g>
</g>
<!-- Node7&#45;&gt;Node11 -->
<g id="edge9" class="edge"><title>Node7&#45;&gt;Node11</title>
<path fill="none" stroke="midnightblue" d="M131.098,-84.3892C221.485,-87.824 385.69,-94.0637 484.566,-97.821"/>
<polygon fill="midnightblue" stroke="midnightblue" points="484.686,-101.328 494.812,-98.2104 484.952,-94.3331 484.686,-101.328"/>
</g>
<!-- Node12 -->
<g id="node6" class="node"><title>Node12</title>
<g id="a_node6"><a xlink:href="namespaceopenage_1_1util_1_1threading.xhtml#a95e47e3e6d90915099eb2ee2ebc15260" target="_top" xlink:title=" ">
<polygon fill="white" stroke="black" points="167,-22.9345 167,-52.9345 328,-52.9345 328,-22.9345 167,-22.9345"/>
<text text-anchor="start" x="175" y="-40.9345" font-family="Helvetica,sans-Serif" font-size="10.00">openage.util.threading.concurrent</text>
<text text-anchor="middle" x="247.5" y="-29.9345" font-family="Helvetica,sans-Serif" font-size="10.00">_chain</text>
</a>
</g>
</g>
<!-- Node7&#45;&gt;Node12 -->
<g id="edge6" class="edge"><title>Node7&#45;&gt;Node12</title>
<path fill="none" stroke="midnightblue" d="M127.942,-66.9153C143.064,-63.2189 159.385,-59.2292 174.939,-55.4271"/>
<polygon fill="midnightblue" stroke="midnightblue" points="176.146,-58.7352 185.029,-52.9607 174.484,-51.9354 176.146,-58.7352"/>
</g>
<!-- Node13 -->
<g id="node7" class="node"><title>Node13</title>
<g id="a_node7"><a xlink:href="namespaceopenage_1_1py.xhtml#a58cbca251b8e2118e0a6b9b0b78a7b32" target="_top" xlink:title="list()">
<polygon fill="white" stroke="black" points="367,-9.43451 367,-28.4345 456,-28.4345 456,-9.43451 367,-9.43451"/>
<text text-anchor="middle" x="411.5" y="-16.4345" font-family="Helvetica,sans-Serif" font-size="10.00">openage::py::list</text>
</a>
</g>
</g>
<!-- Node7&#45;&gt;Node13 -->
<g id="edge7" class="edge"><title>Node7&#45;&gt;Node13</title>
<path fill="none" stroke="midnightblue" d="M81.9237,-66.8148C100.371,-49.8936 133.041,-23.4701 167,-12.9345 229.912,6.58345 306.416,0.127764 356.68,-7.91942"/>
<polygon fill="midnightblue" stroke="midnightblue" points="356.24,-11.3945 366.682,-9.5973 357.398,-4.49099 356.24,-11.3945"/>
</g>
<!-- Node10 -->
<g id="node4" class="node"><title>Node10</title>
<g id="a_node4"><a xlink:href="namespaceopenage_1_1util.xhtml#a7bc4421a5f0f57f3a0aba3f96eb8d19c" target="_top" xlink:title="method that behaves similar to python&#39;s &quot;repr&quot;.">
<polygon fill="white" stroke="black" points="364,-110.435 364,-129.435 459,-129.435 459,-110.435 364,-110.435"/>
<text text-anchor="middle" x="411.5" y="-117.435" font-family="Helvetica,sans-Serif" font-size="10.00">openage::util::repr</text>
</a>
</g>
</g>
<!-- Node9&#45;&gt;Node10 -->
<g id="edge3" class="edge"><title>Node9&#45;&gt;Node10</title>
<path fill="none" stroke="midnightblue" d="M321.916,-123.215C332.59,-122.82 343.441,-122.418 353.719,-122.037"/>
<polygon fill="midnightblue" stroke="midnightblue" points="353.915,-125.533 363.779,-121.665 353.656,-118.538 353.915,-125.533"/>
</g>
<!-- Node10&#45;&gt;Node11 -->
<g id="edge4" class="edge"><title>Node10&#45;&gt;Node11</title>
<path fill="none" stroke="midnightblue" d="M444.409,-110.405C456.363,-108.232 470.556,-106.098 484.961,-104.255"/>
<polygon fill="midnightblue" stroke="midnightblue" points="485.445,-107.722 494.944,-103.028 484.591,-100.774 485.445,-107.722"/>
</g>
<!-- Node11&#45;&gt;Node10 -->
<g id="edge5" class="edge"><title>Node11&#45;&gt;Node10</title>
<path fill="none" stroke="midnightblue" d="M534.664,-110.451C515.747,-113.892 491.206,-117.236 469.087,-119.488"/>
<polygon fill="midnightblue" stroke="midnightblue" points="468.744,-116.004 459.123,-120.442 469.411,-122.972 468.744,-116.004"/>
</g>
<!-- Node13&#45;&gt;Node11 -->
<g id="edge8" class="edge"><title>Node13&#45;&gt;Node11</title>
<path fill="none" stroke="midnightblue" d="M430.467,-28.5014C457.359,-42.8207 508.26,-69.9238 539.598,-86.6101"/>
<polygon fill="midnightblue" stroke="midnightblue" points="538.176,-89.8179 548.647,-91.4285 541.466,-83.6392 538.176,-89.8179"/>
</g>
</g>
</svg>
        <g id="navigator" transform="translate(0 0)" fill="#404254">
                <rect fill="#f2f5e9" fill-opacity="0.5" stroke="#606060" stroke-width=".5" x="0" y="0" width="60" height="60"/>
                <use id="zoomplus" xlink:href="#zoomPlus" x="17" y="9" onmousedown="handleZoom(evt,'in')"/>
                <use id="zoomminus" xlink:href="#zoomMin" x="42" y="9" onmousedown="handleZoom(evt,'out')"/>
                <use id="reset" xlink:href="#resetDef" x="30" y="36" onmousedown="handleReset()"/>
                <g id="arrowUp" xlink:href="#dirArrow" transform="translate(30 24)" onmousedown="handlePan(0,-1)">
                  <use xlink:href="#rim" fill="#404040">
                        <set attributeName="fill" to="#808080" begin="arrowUp.mouseover" end="arrowUp.mouseout"/>
                  </use>
                  <path fill="none" stroke="white" stroke-width="1.5" d="M0,-3.0v7 M-2.5,-0.5L0,-3.0L2.5,-0.5"/>
                </g>
                <g id="arrowRight" xlink:href="#dirArrow" transform="rotate(90) translate(36 -43)" onmousedown="handlePan(1,0)">
                  <use xlink:href="#rim" fill="#404040">
                        <set attributeName="fill" to="#808080" begin="arrowRight.mouseover" end="arrowRight.mouseout"/>
                  </use>
                  <path fill="none" stroke="white" stroke-width="1.5" d="M0,-3.0v7 M-2.5,-0.5L0,-3.0L2.5,-0.5"/>
                </g>
                <g id="arrowDown" xlink:href="#dirArrow" transform="rotate(180) translate(-30 -48)" onmousedown="handlePan(0,1)">
                  <use xlink:href="#rim" fill="#404040">
                        <set attributeName="fill" to="#808080" begin="arrowDown.mouseover" end="arrowDown.mouseout"/>
                  </use>
                  <path fill="none" stroke="white" stroke-width="1.5" d="M0,-3.0v7 M-2.5,-0.5L0,-3.0L2.5,-0.5"/>
                </g>
                <g id="arrowLeft" xlink:href="#dirArrow" transform="rotate(270) translate(-36 17)" onmousedown="handlePan(-1,0)">
                  <use xlink:href="#rim" fill="#404040">
                        <set attributeName="fill" to="#808080" begin="arrowLeft.mouseover" end="arrowLeft.mouseout"/>
                  </use>
                  <path fill="none" stroke="white" stroke-width="1.5" d="M0,-3.0v7 M-2.5,-0.5L0,-3.0L2.5,-0.5"/>
                </g>
        </g>
        <svg viewBox="0 0 15 15" width="100%" height="30px" preserveAspectRatio="xMaxYMin meet">
         <g id="arrow_out" transform="scale(0.3 0.3)">
          <a xlink:href="namespaceopenage_1_1util_1_1threading_aaf02a648f9349f36e6ee76f092059ef0_cgraph_org.svg" target="_base">
           <rect id="button" ry="5" rx="5" y="6" x="6" height="38" width="38"
                fill="#f2f5e9" fill-opacity="0.5" stroke="#606060" stroke-width="1.0"/>
           <path id="arrow"
             d="M 11.500037,31.436501 C 11.940474,20.09759 22.043105,11.32322 32.158766,21.979434 L 37.068811,17.246167 C 37.068811,17.246167 37.088388,32 37.088388,32 L 22.160133,31.978069 C 22.160133,31.978069 26.997745,27.140456 26.997745,27.140456 C 18.528582,18.264221 13.291696,25.230495 11.500037,31.436501 z"
             style="fill:#404040;"/>
          </a>
         </g>
        </svg>
</svg>
