<?xml version="1.0" encoding="UTF-8" standalone="no"?>
<!DOCTYPE svg PUBLIC "-//W3C//DTD SVG 1.1//EN"
 "http://www.w3.org/Graphics/SVG/1.1/DTD/svg11.dtd">
<!-- Generated by graphviz version 2.38.0 (20140413.2041)
 -->
<!-- Title: openage::input::text_to_event Pages: 1 -->
<svg width="480pt" height="88pt"
 viewBox="0.00 0.00 480.00 88.00" xmlns="http://www.w3.org/2000/svg" xmlns:xlink="http://www.w3.org/1999/xlink">
<g id="graph0" class="graph" transform="scale(1 1) rotate(0) translate(4 84)">
<title>openage::input::text_to_event</title>
<polygon fill="white" stroke="none" points="-4,4 -4,-84 476,-84 476,4 -4,4"/>
<!-- Node47 -->
<g id="node1" class="node"><title>Node47</title>
<g id="a_node1"><a xlink:title=" ">
<polygon fill="#bfbfbf" stroke="black" points="369,-24.5 369,-54.5 472,-54.5 472,-24.5 369,-24.5"/>
<text text-anchor="start" x="377" y="-42.5" font-family="Helvetica,sans-Serif" font-size="10.00">openage::input::text</text>
<text text-anchor="middle" x="420.5" y="-31.5" font-family="Helvetica,sans-Serif" font-size="10.00">_to_event</text>
</a>
</g>
</g>
<!-- Node48 -->
<g id="node2" class="node"><title>Node48</title>
<g id="a_node2"><a xlink:href="namespaceopenage_1_1input_1_1tests.xhtml#a0291195ab14d6ffb5dcb8e894ec20972" target="_top" xlink:title=" ">
<polygon fill="white" stroke="black" points="206.5,-49.5 206.5,-79.5 314.5,-79.5 314.5,-49.5 206.5,-49.5"/>
<text text-anchor="start" x="214.5" y="-67.5" font-family="Helvetica,sans-Serif" font-size="10.00">openage::input::tests</text>
<text text-anchor="middle" x="260.5" y="-56.5" font-family="Helvetica,sans-Serif" font-size="10.00">::parse_event_string</text>
</a>
</g>
</g>
<!-- Node47&#45;&gt;Node48 -->
<g id="edge1" class="edge"><title>Node47&#45;&gt;Node48</title>
<path fill="none" stroke="midnightblue" d="M358.755,-49.1115C344.242,-51.4079 328.859,-53.8419 314.715,-56.08"/>
<polygon fill="midnightblue" stroke="midnightblue" points="359.308,-52.5677 368.638,-47.5478 358.214,-45.6537 359.308,-52.5677"/>
</g>
<!-- Node49 -->
<g id="node3" class="node"><title>Node49</title>
<g id="a_node3"><a xlink:href="classopenage_1_1input_1_1_input_manager.xhtml#af93e6ca8bded1892c1c9d83332468e2d" target="_top" xlink:title=" ">
<polygon fill="white" stroke="black" points="188,-0.5 188,-30.5 333,-30.5 333,-0.5 188,-0.5"/>
<text text-anchor="start" x="196" y="-18.5" font-family="Helvetica,sans-Serif" font-size="10.00">openage::input::InputManager</text>
<text text-anchor="middle" x="260.5" y="-7.5" font-family="Helvetica,sans-Serif" font-size="10.00">::set_bind</text>
</a>
</g>
</g>
<!-- Node47&#45;&gt;Node49 -->
<g id="edge2" class="edge"><title>Node47&#45;&gt;Node49</title>
<path fill="none" stroke="midnightblue" d="M358.665,-30.2593C350.352,-28.9966 341.756,-27.6907 333.271,-26.4019"/>
<polygon fill="midnightblue" stroke="midnightblue" points="358.226,-33.7326 368.638,-31.7741 359.277,-26.812 358.226,-33.7326"/>
</g>
<!-- Node50 -->
<g id="node4" class="node"><title>Node50</title>
<g id="a_node4"><a xlink:href="classopenage_1_1input_1_1_action_manager.xhtml#a172292484fa92f4c391479d6e656808a" target="_top" xlink:title=" ">
<polygon fill="white" stroke="black" points="0,-0.5 0,-30.5 152,-30.5 152,-0.5 0,-0.5"/>
<text text-anchor="start" x="8" y="-18.5" font-family="Helvetica,sans-Serif" font-size="10.00">openage::input::ActionManager</text>
<text text-anchor="middle" x="76" y="-7.5" font-family="Helvetica,sans-Serif" font-size="10.00">::create</text>
</a>
</g>
</g>
<!-- Node49&#45;&gt;Node50 -->
<g id="edge3" class="edge"><title>Node49&#45;&gt;Node50</title>
<path fill="none" stroke="midnightblue" d="M177.862,-15.5C169.255,-15.5 160.532,-15.5 152.005,-15.5"/>
<polygon fill="midnightblue" stroke="midnightblue" points="177.895,-19.0001 187.895,-15.5 177.895,-12.0001 177.895,-19.0001"/>
</g>
</g>
</svg>
