<?xml version="1.0" encoding="UTF-8" standalone="no"?>
<!DOCTYPE svg PUBLIC "-//W3C//DTD SVG 1.1//EN"
 "http://www.w3.org/Graphics/SVG/1.1/DTD/svg11.dtd">
<!-- Generated by graphviz version 2.38.0 (20140413.2041)
 -->
<!-- Title: openage.util.fsprinting.print_tree Pages: 1 -->
<svg width="534pt" height="127pt"
 viewBox="0.00 0.00 534.00 126.50" xmlns="http://www.w3.org/2000/svg" xmlns:xlink="http://www.w3.org/1999/xlink">
<g id="graph0" class="graph" transform="scale(1 1) rotate(0) translate(4 122.5)">
<title>openage.util.fsprinting.print_tree</title>
<polygon fill="white" stroke="none" points="-4,4 -4,-122.5 530,-122.5 530,4 -4,4"/>
<!-- Node15 -->
<g id="node1" class="node"><title>Node15</title>
<g id="a_node1"><a xlink:title="Obj is a filesystem&#45;like object; path must be a string.">
<polygon fill="#bfbfbf" stroke="black" points="0,-44.5 0,-63.5 155,-63.5 155,-44.5 0,-44.5"/>
<text text-anchor="middle" x="77.5" y="-51.5" font-family="Helvetica,sans-Serif" font-size="10.00">openage.util.fsprinting.print_tree</text>
</a>
</g>
</g>
<!-- Node16 -->
<g id="node2" class="node"><title>Node16</title>
<g id="a_node2"><a xlink:href="namespaceopenage_1_1util_1_1fsprinting.xhtml#a9ea772d63d59830dc4d401a1aeefccd7" target="_top" xlink:title="Colorizes the dirname, using the &#39;di&#39; rule from LS_COLORS.">
<polygon fill="white" stroke="black" points="197.5,-39 197.5,-69 345.5,-69 345.5,-39 197.5,-39"/>
<text text-anchor="start" x="205.5" y="-57" font-family="Helvetica,sans-Serif" font-size="10.00">openage.util.fsprinting.colorize</text>
<text text-anchor="middle" x="271.5" y="-46" font-family="Helvetica,sans-Serif" font-size="10.00">_dirname</text>
</a>
</g>
</g>
<!-- Node15&#45;&gt;Node16 -->
<g id="edge1" class="edge"><title>Node15&#45;&gt;Node16</title>
<path fill="none" stroke="midnightblue" d="M155.211,-54C165.739,-54 176.589,-54 187.227,-54"/>
<polygon fill="midnightblue" stroke="midnightblue" points="187.344,-57.5001 197.344,-54 187.344,-50.5001 187.344,-57.5001"/>
</g>
<!-- Node19 -->
<g id="node5" class="node"><title>Node19</title>
<g id="a_node5"><a xlink:href="namespaceopenage_1_1util_1_1fsprinting.xhtml#a0eb0d6448fcaae850a400f03bab4575a" target="_top" xlink:title="Colorizes the filename, using the globbing rules from LS_COLORS.">
<polygon fill="white" stroke="black" points="197.5,-88 197.5,-118 345.5,-118 345.5,-88 197.5,-88"/>
<text text-anchor="start" x="205.5" y="-106" font-family="Helvetica,sans-Serif" font-size="10.00">openage.util.fsprinting.colorize</text>
<text text-anchor="middle" x="271.5" y="-95" font-family="Helvetica,sans-Serif" font-size="10.00">_filename</text>
</a>
</g>
</g>
<!-- Node15&#45;&gt;Node19 -->
<g id="edge4" class="edge"><title>Node15&#45;&gt;Node19</title>
<path fill="none" stroke="midnightblue" d="M115.975,-63.564C140.283,-69.7676 172.686,-78.0371 201.541,-85.401"/>
<polygon fill="midnightblue" stroke="midnightblue" points="201.025,-88.8814 211.58,-87.963 202.756,-82.0988 201.025,-88.8814"/>
</g>
<!-- Node20 -->
<g id="node6" class="node"><title>Node20</title>
<g id="a_node6"><a xlink:href="namespaceopenage_1_1util_1_1iterators.xhtml#a843780725ecd55c667e672085026f3be" target="_top" xlink:title="Provides all sorts of iterator&#45;related stuff.">
<polygon fill="white" stroke="black" points="191,-0.5 191,-19.5 352,-19.5 352,-0.5 191,-0.5"/>
<text text-anchor="middle" x="271.5" y="-7.5" font-family="Helvetica,sans-Serif" font-size="10.00">openage.util.iterators.denote_last</text>
</a>
</g>
</g>
<!-- Node15&#45;&gt;Node20 -->
<g id="edge7" class="edge"><title>Node15&#45;&gt;Node20</title>
<path fill="none" stroke="midnightblue" d="M120.161,-44.4527C149.221,-37.7931 188.186,-28.8637 219.165,-21.7642"/>
<polygon fill="midnightblue" stroke="midnightblue" points="219.955,-25.1741 228.92,-19.5287 218.391,-18.351 219.955,-25.1741"/>
</g>
<!-- Node17 -->
<g id="node3" class="node"><title>Node17</title>
<g id="a_node3"><a xlink:href="namespaceopenage_1_1util_1_1strings.xhtml#a8f24773995264adf47e500b704fa7d42" target="_top" xlink:title="Colorizes string with the given EMCA&#45;48 SGR code.">
<polygon fill="white" stroke="black" points="388,-91.5 388,-110.5 526,-110.5 526,-91.5 388,-91.5"/>
<text text-anchor="middle" x="457" y="-98.5" font-family="Helvetica,sans-Serif" font-size="10.00">openage.util.strings.colorize</text>
</a>
</g>
</g>
<!-- Node16&#45;&gt;Node17 -->
<g id="edge2" class="edge"><title>Node16&#45;&gt;Node17</title>
<path fill="none" stroke="midnightblue" d="M331.065,-69.0003C356.212,-75.4412 385.203,-82.8666 408.923,-88.9422"/>
<polygon fill="midnightblue" stroke="midnightblue" points="408.184,-92.3658 418.74,-91.4566 409.921,-85.5847 408.184,-92.3658"/>
</g>
<!-- Node18 -->
<g id="node4" class="node"><title>Node18</title>
<g id="a_node4"><a xlink:href="namespaceopenage_1_1util_1_1fsprinting.xhtml#a362ed67b3bcb25c3f351eee931e3ae19" target="_top" xlink:title="Returns a dict of pattern : colorcode, retrieved from LS_COLORS.">
<polygon fill="white" stroke="black" points="393,-40 393,-70 521,-70 521,-40 393,-40"/>
<text text-anchor="start" x="401" y="-58" font-family="Helvetica,sans-Serif" font-size="10.00">openage.util.fsprinting.get</text>
<text text-anchor="middle" x="457" y="-47" font-family="Helvetica,sans-Serif" font-size="10.00">_color_rules</text>
</a>
</g>
</g>
<!-- Node16&#45;&gt;Node18 -->
<g id="edge3" class="edge"><title>Node16&#45;&gt;Node18</title>
<path fill="none" stroke="midnightblue" d="M345.551,-54.3981C357.81,-54.4649 370.534,-54.5342 382.797,-54.6011"/>
<polygon fill="midnightblue" stroke="midnightblue" points="382.95,-58.1019 392.969,-54.6565 382.988,-51.102 382.95,-58.1019"/>
</g>
<!-- Node19&#45;&gt;Node17 -->
<g id="edge5" class="edge"><title>Node19&#45;&gt;Node17</title>
<path fill="none" stroke="midnightblue" d="M345.551,-102.204C356.155,-102.088 367.107,-101.969 377.807,-101.852"/>
<polygon fill="midnightblue" stroke="midnightblue" points="378.008,-105.35 387.969,-101.741 377.931,-98.3508 378.008,-105.35"/>
</g>
<!-- Node19&#45;&gt;Node18 -->
<g id="edge6" class="edge"><title>Node19&#45;&gt;Node18</title>
<path fill="none" stroke="midnightblue" d="M330.057,-87.9442C348.674,-83.0744 369.483,-77.6312 388.739,-72.5942"/>
<polygon fill="midnightblue" stroke="midnightblue" points="389.858,-75.9192 398.647,-70.0024 388.087,-69.147 389.858,-75.9192"/>
</g>
</g>
</svg>
