<?xml version="1.0" encoding="UTF-8" standalone="no"?>
<!DOCTYPE svg PUBLIC "-//W3C//DTD SVG 1.1//EN"
 "http://www.w3.org/Graphics/SVG/1.1/DTD/svg11.dtd">
<!-- Generated by graphviz version 2.38.0 (20140413.2041)
 -->
<!-- Title: openage.convert.driver.convert Pages: 1 -->
<svg width="1548pt" height="679pt"
 viewBox="0.00 0.00 1548.00 679.33" xmlns="http://www.w3.org/2000/svg" xmlns:xlink="http://www.w3.org/1999/xlink">
<g id="graph0" class="graph" transform="scale(1 1) rotate(0) translate(4 675.328)">
<title>openage.convert.driver.convert</title>
<polygon fill="white" stroke="none" points="-4,4 -4,-675.328 1544,-675.328 1544,4 -4,4"/>
<!-- Node10 -->
<g id="node1" class="node"><title>Node10</title>
<g id="a_node1"><a xlink:title=" ">
<polygon fill="#bfbfbf" stroke="black" points="0,-402.828 0,-421.828 146,-421.828 146,-402.828 0,-402.828"/>
<text text-anchor="middle" x="73" y="-409.828" font-family="Helvetica,sans-Serif" font-size="10.00">openage.convert.driver.convert</text>
</a>
</g>
</g>
<!-- Node11 -->
<g id="node2" class="node"><title>Node11</title>
<g id="a_node2"><a xlink:href="namespaceopenage_1_1convert_1_1driver.xhtml#ad7f7fa271abe4e1c3bc43160e84bc58f" target="_top" xlink:title="Converts the media part.">
<polygon fill="white" stroke="black" points="182,-449.328 182,-479.328 328,-479.328 328,-449.328 182,-449.328"/>
<text text-anchor="start" x="190" y="-467.328" font-family="Helvetica,sans-Serif" font-size="10.00">openage.convert.driver.convert</text>
<text text-anchor="middle" x="255" y="-456.328" font-family="Helvetica,sans-Serif" font-size="10.00">_media</text>
</a>
</g>
</g>
<!-- Node10&#45;&gt;Node11 -->
<g id="edge1" class="edge"><title>Node10&#45;&gt;Node11</title>
<path fill="none" stroke="midnightblue" d="M107.015,-421.866C130.711,-428.711 163.36,-438.143 191.869,-446.379"/>
<polygon fill="midnightblue" stroke="midnightblue" points="191.18,-449.823 201.759,-449.236 193.123,-443.098 191.18,-449.823"/>
</g>
<!-- Node13 -->
<g id="node4" class="node"><title>Node13</title>
<g id="a_node4"><a xlink:href="namespaceopenage_1_1log.xhtml#a3f1815b698faf5786fc5e20bcac7704b" target="_top" xlink:title="info message">
<polygon fill="white" stroke="black" points="849,-331.828 849,-350.828 936,-350.828 936,-331.828 849,-331.828"/>
<text text-anchor="middle" x="892.5" y="-338.828" font-family="Helvetica,sans-Serif" font-size="10.00">openage.log.info</text>
</a>
</g>
</g>
<!-- Node10&#45;&gt;Node13 -->
<g id="edge45" class="edge"><title>Node10&#45;&gt;Node13</title>
<path fill="none" stroke="midnightblue" d="M146.189,-406.058C307.973,-392.007 696.5,-358.264 838.434,-345.937"/>
<polygon fill="midnightblue" stroke="midnightblue" points="838.959,-349.404 848.619,-345.052 838.353,-342.431 838.959,-349.404"/>
</g>
<!-- Node22 -->
<g id="node13" class="node"><title>Node22</title>
<g id="a_node13"><a xlink:href="namespaceopenage_1_1py.xhtml#a4d2bbe46a5d10404c658b54f3b199551" target="_top" xlink:title="str(value);">
<polygon fill="white" stroke="black" points="1080,-651.828 1080,-670.828 1167,-670.828 1167,-651.828 1080,-651.828"/>
<text text-anchor="middle" x="1123.5" y="-658.828" font-family="Helvetica,sans-Serif" font-size="10.00">openage::py::str</text>
</a>
</g>
</g>
<!-- Node10&#45;&gt;Node22 -->
<g id="edge46" class="edge"><title>Node10&#45;&gt;Node22</title>
<path fill="none" stroke="midnightblue" d="M81.0567,-422.089C115.235,-468.126 269.063,-661.328 443.5,-661.328 443.5,-661.328 443.5,-661.328 664.5,-661.328 811.245,-661.328 984.437,-661.328 1069.68,-661.328"/>
<polygon fill="midnightblue" stroke="midnightblue" points="1069.88,-664.828 1079.88,-661.328 1069.88,-657.828 1069.88,-664.828"/>
</g>
<!-- Node29 -->
<g id="node20" class="node"><title>Node29</title>
<g id="a_node20"><a xlink:href="namespaceopenage_1_1convert_1_1driver.xhtml#a2147ca3608a15047a639e9661a7a928c" target="_top" xlink:title="Converts the metadata part.">
<polygon fill="white" stroke="black" points="182,-165.328 182,-195.328 328,-195.328 328,-165.328 182,-165.328"/>
<text text-anchor="start" x="190" y="-183.328" font-family="Helvetica,sans-Serif" font-size="10.00">openage.convert.driver.convert</text>
<text text-anchor="middle" x="255" y="-172.328" font-family="Helvetica,sans-Serif" font-size="10.00">_metadata</text>
</a>
</g>
</g>
<!-- Node10&#45;&gt;Node29 -->
<g id="edge23" class="edge"><title>Node10&#45;&gt;Node29</title>
<path fill="none" stroke="midnightblue" d="M81.5052,-402.655C107.985,-368.525 197.519,-253.125 236.085,-203.418"/>
<polygon fill="midnightblue" stroke="midnightblue" points="238.88,-205.526 242.245,-195.479 233.349,-201.235 238.88,-205.526"/>
</g>
<!-- Node12 -->
<g id="node3" class="node"><title>Node12</title>
<g id="a_node3"><a xlink:href="namespaceopenage_1_1convert_1_1driver.xhtml#afe85df8866da2e79953e9176945e1b7b" target="_top" xlink:title=" ">
<polygon fill="white" stroke="black" points="380,-515.328 380,-545.328 509,-545.328 509,-515.328 380,-515.328"/>
<text text-anchor="start" x="388" y="-533.328" font-family="Helvetica,sans-Serif" font-size="10.00">openage.convert.driver.get</text>
<text text-anchor="middle" x="444.5" y="-522.328" font-family="Helvetica,sans-Serif" font-size="10.00">_filter</text>
</a>
</g>
</g>
<!-- Node11&#45;&gt;Node12 -->
<g id="edge2" class="edge"><title>Node11&#45;&gt;Node12</title>
<path fill="none" stroke="midnightblue" d="M299.016,-479.47C326.409,-489.112 362.071,-501.665 391.111,-511.887"/>
<polygon fill="midnightblue" stroke="midnightblue" points="390.089,-515.238 400.684,-515.257 392.413,-508.635 390.089,-515.238"/>
</g>
<!-- Node11&#45;&gt;Node13 -->
<g id="edge3" class="edge"><title>Node11&#45;&gt;Node13</title>
<path fill="none" stroke="midnightblue" d="M284.027,-449.309C305.344,-438.593 335.73,-424.803 364,-417.328 537.715,-371.392 589.277,-406.823 766,-374.328 794.725,-369.046 826.54,-360.651 850.95,-353.651"/>
<polygon fill="midnightblue" stroke="midnightblue" points="851.965,-357.001 860.591,-350.848 850.011,-350.279 851.965,-357.001"/>
</g>
<!-- Node14 -->
<g id="node5" class="node"><title>Node14</title>
<g id="a_node5"><a xlink:href="namespaceopenage_1_1convert_1_1driver.xhtml#a28ccfa2e5a8c4ad49ed409f882732472" target="_top" xlink:title=" ">
<polygon fill="white" stroke="black" points="590.5,-471.328 590.5,-501.328 736.5,-501.328 736.5,-471.328 590.5,-471.328"/>
<text text-anchor="start" x="598.5" y="-489.328" font-family="Helvetica,sans-Serif" font-size="10.00">openage.convert.driver.extract</text>
<text text-anchor="middle" x="663.5" y="-478.328" font-family="Helvetica,sans-Serif" font-size="10.00">_mediafiles_names_map</text>
</a>
</g>
</g>
<!-- Node11&#45;&gt;Node14 -->
<g id="edge4" class="edge"><title>Node11&#45;&gt;Node14</title>
<path fill="none" stroke="midnightblue" d="M328.206,-468.236C398.805,-472.057 506.178,-477.868 580.084,-481.868"/>
<polygon fill="midnightblue" stroke="midnightblue" points="580.109,-485.374 590.283,-482.42 580.487,-478.384 580.109,-485.374"/>
</g>
<!-- Node18 -->
<g id="node9" class="node"><title>Node18</title>
<g id="a_node9"><a xlink:href="namespaceopenage_1_1util_1_1threading.xhtml#a95e47e3e6d90915099eb2ee2ebc15260" target="_top" xlink:title=" ">
<polygon fill="white" stroke="black" points="364,-427.328 364,-457.328 525,-457.328 525,-427.328 364,-427.328"/>
<text text-anchor="start" x="372" y="-445.328" font-family="Helvetica,sans-Serif" font-size="10.00">openage.util.threading.concurrent</text>
<text text-anchor="middle" x="444.5" y="-434.328" font-family="Helvetica,sans-Serif" font-size="10.00">_chain</text>
</a>
</g>
</g>
<!-- Node11&#45;&gt;Node18 -->
<g id="edge9" class="edge"><title>Node11&#45;&gt;Node18</title>
<path fill="none" stroke="midnightblue" d="M328.224,-455.854C336.603,-454.87 345.224,-453.859 353.8,-452.853"/>
<polygon fill="midnightblue" stroke="midnightblue" points="354.306,-456.317 363.83,-451.676 353.49,-449.365 354.306,-456.317"/>
</g>
<!-- Node19 -->
<g id="node10" class="node"><title>Node19</title>
<g id="a_node10"><a xlink:href="namespaceopenage_1_1convert_1_1driver.xhtml#a43cdddabcdd60c8443967f3b81047bd4" target="_top" xlink:title=" ">
<polygon fill="white" stroke="black" points="371.5,-564.328 371.5,-594.328 517.5,-594.328 517.5,-564.328 371.5,-564.328"/>
<text text-anchor="start" x="379.5" y="-582.328" font-family="Helvetica,sans-Serif" font-size="10.00">openage.convert.driver.convert</text>
<text text-anchor="middle" x="444.5" y="-571.328" font-family="Helvetica,sans-Serif" font-size="10.00">_mediafile</text>
</a>
</g>
</g>
<!-- Node11&#45;&gt;Node19 -->
<g id="edge10" class="edge"><title>Node11&#45;&gt;Node19</title>
<path fill="none" stroke="midnightblue" d="M270.335,-479.51C289.808,-499.32 326.51,-533.862 364,-554.328 367.965,-556.492 372.144,-558.5 376.428,-560.359"/>
<polygon fill="midnightblue" stroke="midnightblue" points="375.345,-563.696 385.929,-564.188 377.963,-557.203 375.345,-563.696"/>
</g>
<!-- Node15 -->
<g id="node6" class="node"><title>Node15</title>
<g id="a_node6"><a xlink:href="namespaceopenage_1_1py.xhtml#a5ba80af3e9224d2de11179ce232f75d9" target="_top" xlink:title="dict()">
<polygon fill="white" stroke="black" points="1077.5,-495.828 1077.5,-514.828 1169.5,-514.828 1169.5,-495.828 1077.5,-495.828"/>
<text text-anchor="middle" x="1123.5" y="-502.828" font-family="Helvetica,sans-Serif" font-size="10.00">openage::py::dict</text>
</a>
</g>
</g>
<!-- Node14&#45;&gt;Node15 -->
<g id="edge5" class="edge"><title>Node14&#45;&gt;Node15</title>
<path fill="none" stroke="midnightblue" d="M736.566,-489.318C828.125,-493.116 984.173,-499.589 1067.01,-503.026"/>
<polygon fill="midnightblue" stroke="midnightblue" points="1067.09,-506.532 1077.23,-503.45 1067.38,-499.538 1067.09,-506.532"/>
</g>
<!-- Node16 -->
<g id="node7" class="node"><title>Node16</title>
<g id="a_node7"><a xlink:href="namespaceopenage_1_1testing_1_1testing.xhtml#ac25bf81db406af62d08113ef7ae9fd6e" target="_top" xlink:title=" ">
<polygon fill="white" stroke="black" points="1264,-495.828 1264,-514.828 1409,-514.828 1409,-495.828 1264,-495.828"/>
<text text-anchor="middle" x="1336.5" y="-502.828" font-family="Helvetica,sans-Serif" font-size="10.00">openage.testing.testing.result</text>
</a>
</g>
</g>
<!-- Node15&#45;&gt;Node16 -->
<g id="edge6" class="edge"><title>Node15&#45;&gt;Node16</title>
<path fill="none" stroke="midnightblue" d="M1169.51,-505.328C1194.08,-505.328 1225.27,-505.328 1253.97,-505.328"/>
<polygon fill="midnightblue" stroke="midnightblue" points="1254,-508.828 1264,-505.328 1254,-501.828 1254,-508.828"/>
</g>
<!-- Node17 -->
<g id="node8" class="node"><title>Node17</title>
<g id="a_node8"><a xlink:href="namespaceopenage_1_1util.xhtml#a7bc4421a5f0f57f3a0aba3f96eb8d19c" target="_top" xlink:title="method that behaves similar to python&#39;s &quot;repr&quot;.">
<polygon fill="white" stroke="black" points="1445,-495.828 1445,-514.828 1540,-514.828 1540,-495.828 1445,-495.828"/>
<text text-anchor="middle" x="1492.5" y="-502.828" font-family="Helvetica,sans-Serif" font-size="10.00">openage::util::repr</text>
</a>
</g>
</g>
<!-- Node16&#45;&gt;Node17 -->
<g id="edge7" class="edge"><title>Node16&#45;&gt;Node17</title>
<path fill="none" stroke="midnightblue" d="M1409.09,-498.593C1417.6,-498.546 1426.19,-498.61 1434.45,-498.784"/>
<polygon fill="midnightblue" stroke="midnightblue" points="1434.62,-502.289 1444.71,-499.063 1434.81,-495.292 1434.62,-502.289"/>
</g>
<!-- Node17&#45;&gt;Node16 -->
<g id="edge8" class="edge"><title>Node17&#45;&gt;Node16</title>
<path fill="none" stroke="midnightblue" d="M1444.71,-511.593C1436.63,-511.866 1428.01,-512.024 1419.31,-512.066"/>
<polygon fill="midnightblue" stroke="midnightblue" points="1419.09,-508.566 1409.09,-512.063 1419.09,-515.566 1419.09,-508.566"/>
</g>
<!-- Node20 -->
<g id="node11" class="node"><title>Node20</title>
<g id="a_node11"><a xlink:href="namespaceopenage_1_1convert_1_1driver.xhtml#a7d1272350acf362f78ea6e0373880c59" target="_top" xlink:title=" ">
<polygon fill="white" stroke="black" points="581.5,-566.828 581.5,-585.828 745.5,-585.828 745.5,-566.828 581.5,-566.828"/>
<text text-anchor="middle" x="663.5" y="-573.828" font-family="Helvetica,sans-Serif" font-size="10.00">openage.convert.driver.convert_slp</text>
</a>
</g>
</g>
<!-- Node19&#45;&gt;Node20 -->
<g id="edge11" class="edge"><title>Node19&#45;&gt;Node20</title>
<path fill="none" stroke="midnightblue" d="M517.758,-578.329C534.763,-578.094 553.111,-577.84 570.843,-577.595"/>
<polygon fill="midnightblue" stroke="midnightblue" points="571.247,-581.09 581.198,-577.452 571.151,-574.091 571.247,-581.09"/>
</g>
<!-- Node28 -->
<g id="node19" class="node"><title>Node28</title>
<g id="a_node19"><a xlink:href="namespaceopenage_1_1convert_1_1driver.xhtml#ac829030d79b4d14be0f6cf8c1eb035a8" target="_top" xlink:title="Convert a wav audio file to an opus file.">
<polygon fill="white" stroke="black" points="580,-525.828 580,-544.828 747,-544.828 747,-525.828 580,-525.828"/>
<text text-anchor="middle" x="663.5" y="-532.828" font-family="Helvetica,sans-Serif" font-size="10.00">openage.convert.driver.convert_wav</text>
</a>
</g>
</g>
<!-- Node19&#45;&gt;Node28 -->
<g id="edge21" class="edge"><title>Node19&#45;&gt;Node28</title>
<path fill="none" stroke="midnightblue" d="M517.758,-564.677C546.292,-558.891 578.604,-552.339 605.448,-546.896"/>
<polygon fill="midnightblue" stroke="midnightblue" points="606.345,-550.286 615.45,-544.868 604.954,-543.425 606.345,-550.286"/>
</g>
<!-- Node21 -->
<g id="node12" class="node"><title>Node21</title>
<g id="a_node12"><a xlink:href="namespaceopenage_1_1convert_1_1interface_1_1rename.xhtml#a045e4e1a64322c77bfee10f24e8613e7" target="_top" xlink:title="Renaming interface assets and splitting into directories.">
<polygon fill="white" stroke="black" points="802,-602.328 802,-632.328 983,-632.328 983,-602.328 802,-602.328"/>
<text text-anchor="start" x="810" y="-620.328" font-family="Helvetica,sans-Serif" font-size="10.00">openage.convert.interface.rename.hud</text>
<text text-anchor="middle" x="892.5" y="-609.328" font-family="Helvetica,sans-Serif" font-size="10.00">_rename</text>
</a>
</g>
</g>
<!-- Node20&#45;&gt;Node21 -->
<g id="edge12" class="edge"><title>Node20&#45;&gt;Node21</title>
<path fill="none" stroke="midnightblue" d="M717.149,-585.837C741.178,-590.177 770.374,-595.451 797.948,-600.431"/>
<polygon fill="midnightblue" stroke="midnightblue" points="797.558,-603.917 808.021,-602.25 798.802,-597.028 797.558,-603.917"/>
</g>
<!-- Node25 -->
<g id="node16" class="node"><title>Node25</title>
<g id="a_node16"><a xlink:href="namespaceopenage_1_1convert_1_1driver.xhtml#a3a28ebc76c4e7841f81931892db4849a" target="_top" xlink:title="Returns a human&#45;readable name if it&#39;s in the map.">
<polygon fill="white" stroke="black" points="828.5,-553.328 828.5,-583.328 956.5,-583.328 956.5,-553.328 828.5,-553.328"/>
<text text-anchor="start" x="836.5" y="-571.328" font-family="Helvetica,sans-Serif" font-size="10.00">openage.convert.driver.slp</text>
<text text-anchor="middle" x="892.5" y="-560.328" font-family="Helvetica,sans-Serif" font-size="10.00">_rename</text>
</a>
</g>
</g>
<!-- Node20&#45;&gt;Node25 -->
<g id="edge17" class="edge"><title>Node20&#45;&gt;Node25</title>
<path fill="none" stroke="midnightblue" d="M745.811,-573.462C769.415,-572.63 795.044,-571.727 818.131,-570.914"/>
<polygon fill="midnightblue" stroke="midnightblue" points="818.328,-574.409 828.198,-570.559 818.081,-567.413 818.328,-574.409"/>
</g>
<!-- Node26 -->
<g id="node17" class="node"><title>Node26</title>
<g id="a_node17"><a xlink:href="namespaceopenage_1_1convert_1_1driver.xhtml#a6dce2cf04f6cf53afeba4c3dc859a3f0" target="_top" xlink:title=" ">
<polygon fill="white" stroke="black" points="811,-514.828 811,-533.828 974,-533.828 974,-514.828 811,-514.828"/>
<text text-anchor="middle" x="892.5" y="-521.828" font-family="Helvetica,sans-Serif" font-size="10.00">openage.convert.driver.change_dir</text>
</a>
</g>
</g>
<!-- Node20&#45;&gt;Node26 -->
<g id="edge18" class="edge"><title>Node20&#45;&gt;Node26</title>
<path fill="none" stroke="midnightblue" d="M712.456,-566.788C729.441,-563.184 748.64,-558.853 766,-554.328 782.189,-550.108 785.802,-547.513 802,-543.328 811.804,-540.795 822.276,-538.345 832.474,-536.094"/>
<polygon fill="midnightblue" stroke="midnightblue" points="833.513,-539.45 842.547,-533.914 832.032,-532.608 833.513,-539.45"/>
</g>
<!-- Node21&#45;&gt;Node22 -->
<g id="edge13" class="edge"><title>Node21&#45;&gt;Node22</title>
<path fill="none" stroke="midnightblue" d="M968.121,-632.385C984.853,-635.707 1002.53,-639.175 1019,-642.328 1035.57,-645.499 1053.65,-648.854 1070,-651.848"/>
<polygon fill="midnightblue" stroke="midnightblue" points="1069.46,-655.307 1079.92,-653.661 1070.71,-648.421 1069.46,-655.307"/>
</g>
<!-- Node23 -->
<g id="node14" class="node"><title>Node23</title>
<g id="a_node14"><a xlink:href="namespaceopenage_1_1convert_1_1interface_1_1hardcoded.xhtml#a5269bff8c865ba582e87918dd9e28d0d" target="_top" xlink:title="Index in the hardcoded list of the known ingame hud backgrounds to match the civ.">
<polygon fill="white" stroke="black" points="1019,-602.328 1019,-632.328 1228,-632.328 1228,-602.328 1019,-602.328"/>
<text text-anchor="start" x="1027" y="-620.328" font-family="Helvetica,sans-Serif" font-size="10.00">openage.convert.interface.hardcoded.ingame</text>
<text text-anchor="middle" x="1123.5" y="-609.328" font-family="Helvetica,sans-Serif" font-size="10.00">_hud_background_index</text>
</a>
</g>
</g>
<!-- Node21&#45;&gt;Node23 -->
<g id="edge15" class="edge"><title>Node21&#45;&gt;Node23</title>
<path fill="none" stroke="midnightblue" d="M983.021,-617.328C991.497,-617.328 1000.16,-617.328 1008.82,-617.328"/>
<polygon fill="midnightblue" stroke="midnightblue" points="1008.98,-620.828 1018.98,-617.328 1008.98,-613.828 1008.98,-620.828"/>
</g>
<!-- Node24 -->
<g id="node15" class="node"><title>Node24</title>
<g id="a_node15"><a xlink:href="namespaceopenage_1_1convert_1_1interface_1_1rename.xhtml#ac64b3950e30561002141b4459599afb0" target="_top" xlink:title="Rename a slp asset path by the lookup map above.">
<polygon fill="white" stroke="black" points="1029,-553.328 1029,-583.328 1218,-583.328 1218,-553.328 1029,-553.328"/>
<text text-anchor="start" x="1037" y="-571.328" font-family="Helvetica,sans-Serif" font-size="10.00">openage.convert.interface.rename.asset</text>
<text text-anchor="middle" x="1123.5" y="-560.328" font-family="Helvetica,sans-Serif" font-size="10.00">_rename</text>
</a>
</g>
</g>
<!-- Node21&#45;&gt;Node24 -->
<g id="edge16" class="edge"><title>Node21&#45;&gt;Node24</title>
<path fill="none" stroke="midnightblue" d="M963.764,-602.293C988.602,-596.978 1016.72,-590.961 1042.32,-585.484"/>
<polygon fill="midnightblue" stroke="midnightblue" points="1043.32,-588.849 1052.37,-583.334 1041.86,-582.004 1043.32,-588.849"/>
</g>
<!-- Node22&#45;&gt;Node16 -->
<g id="edge14" class="edge"><title>Node22&#45;&gt;Node16</title>
<path fill="none" stroke="midnightblue" d="M1167.23,-660.329C1186.91,-658.216 1209.86,-653.287 1228,-642.328 1276.12,-613.251 1311.06,-554.118 1326.57,-523.944"/>
<polygon fill="midnightblue" stroke="midnightblue" points="1329.75,-525.418 1331.08,-514.907 1323.48,-522.294 1329.75,-525.418"/>
</g>
<!-- Node27 -->
<g id="node18" class="node"><title>Node27</title>
<g id="a_node18"><a xlink:href="namespaceopenage_1_1py.xhtml#a58cbca251b8e2118e0a6b9b0b78a7b32" target="_top" xlink:title="list()">
<polygon fill="white" stroke="black" points="1079,-457.828 1079,-476.828 1168,-476.828 1168,-457.828 1079,-457.828"/>
<text text-anchor="middle" x="1123.5" y="-464.828" font-family="Helvetica,sans-Serif" font-size="10.00">openage::py::list</text>
</a>
</g>
</g>
<!-- Node26&#45;&gt;Node27 -->
<g id="edge19" class="edge"><title>Node26&#45;&gt;Node27</title>
<path fill="none" stroke="midnightblue" d="M921.661,-514.808C946.933,-506.503 985.149,-494.532 1019,-486.328 1035.02,-482.445 1052.61,-478.939 1068.66,-476.026"/>
<polygon fill="midnightblue" stroke="midnightblue" points="1069.73,-479.392 1078.96,-474.2 1068.51,-472.5 1069.73,-479.392"/>
</g>
<!-- Node27&#45;&gt;Node16 -->
<g id="edge20" class="edge"><title>Node27&#45;&gt;Node16</title>
<path fill="none" stroke="midnightblue" d="M1168.22,-475.202C1198.3,-480.619 1238.73,-487.901 1272.31,-493.948"/>
<polygon fill="midnightblue" stroke="midnightblue" points="1272.03,-497.454 1282.49,-495.781 1273.27,-490.564 1272.03,-497.454"/>
</g>
<!-- Node28&#45;&gt;Node26 -->
<g id="edge22" class="edge"><title>Node28&#45;&gt;Node26</title>
<path fill="none" stroke="midnightblue" d="M747.094,-531.326C764.473,-530.483 782.899,-529.591 800.564,-528.734"/>
<polygon fill="midnightblue" stroke="midnightblue" points="801.045,-532.215 810.864,-528.235 800.706,-525.224 801.045,-532.215"/>
</g>
<!-- Node29&#45;&gt;Node13 -->
<g id="edge24" class="edge"><title>Node29&#45;&gt;Node13</title>
<path fill="none" stroke="midnightblue" d="M273.935,-195.383C294.46,-211.885 329.683,-238.04 364,-253.328 526.226,-325.596 740.524,-338.998 838.509,-341.155"/>
<polygon fill="midnightblue" stroke="midnightblue" points="838.684,-344.659 848.748,-341.349 838.816,-337.66 838.684,-344.659"/>
</g>
<!-- Node30 -->
<g id="node21" class="node"><title>Node30</title>
<g id="a_node21"><a xlink:href="namespaceopenage_1_1convert_1_1driver.xhtml#af79fabd89ea708bced76ef970ae9f413" target="_top" xlink:title="Read and create the color palette.">
<polygon fill="white" stroke="black" points="380,-165.328 380,-195.328 509,-195.328 509,-165.328 380,-165.328"/>
<text text-anchor="start" x="388" y="-183.328" font-family="Helvetica,sans-Serif" font-size="10.00">openage.convert.driver.get</text>
<text text-anchor="middle" x="444.5" y="-172.328" font-family="Helvetica,sans-Serif" font-size="10.00">_palette</text>
</a>
</g>
</g>
<!-- Node29&#45;&gt;Node30 -->
<g id="edge25" class="edge"><title>Node29&#45;&gt;Node30</title>
<path fill="none" stroke="midnightblue" d="M328.224,-180.328C341.789,-180.328 355.988,-180.328 369.603,-180.328"/>
<polygon fill="midnightblue" stroke="midnightblue" points="369.88,-183.828 379.88,-180.328 369.88,-176.828 369.88,-183.828"/>
</g>
<!-- Node31 -->
<g id="node22" class="node"><title>Node31</title>
<g id="a_node22"><a xlink:href="namespaceopenage_1_1convert_1_1driver.xhtml#af952f8f82261ef86e5c83facd56758f9" target="_top" xlink:title="reads empires.dat and fixes it">
<polygon fill="white" stroke="black" points="380,-116.328 380,-146.328 509,-146.328 509,-116.328 380,-116.328"/>
<text text-anchor="start" x="388" y="-134.328" font-family="Helvetica,sans-Serif" font-size="10.00">openage.convert.driver.get</text>
<text text-anchor="middle" x="444.5" y="-123.328" font-family="Helvetica,sans-Serif" font-size="10.00">_gamespec</text>
</a>
</g>
</g>
<!-- Node29&#45;&gt;Node31 -->
<g id="edge26" class="edge"><title>Node29&#45;&gt;Node31</title>
<path fill="none" stroke="midnightblue" d="M313.53,-165.293C333.328,-160.12 355.672,-154.28 376.178,-148.921"/>
<polygon fill="midnightblue" stroke="midnightblue" points="377.288,-152.249 386.078,-146.334 375.518,-145.476 377.288,-152.249"/>
</g>
<!-- Node35 -->
<g id="node26" class="node"><title>Node35</title>
<g id="a_node26"><a xlink:href="namespaceopenage_1_1log.xhtml#aad3d76b2466dbc4f81552935f2d84faa" target="_top" xlink:title="debug message">
<polygon fill="white" stroke="black" points="1079.5,-66.8279 1079.5,-85.8279 1167.5,-85.8279 1167.5,-66.8279 1079.5,-66.8279"/>
<text text-anchor="middle" x="1123.5" y="-73.8279" font-family="Helvetica,sans-Serif" font-size="10.00">openage.log.dbg</text>
</a>
</g>
</g>
<!-- Node29&#45;&gt;Node35 -->
<g id="edge44" class="edge"><title>Node29&#45;&gt;Node35</title>
<path fill="none" stroke="midnightblue" d="M263.789,-164.895C278.772,-137.164 314.554,-79.7137 364,-57.3279 616.481,56.9774 966.296,-29.4407 1082.91,-63.8539"/>
<polygon fill="midnightblue" stroke="midnightblue" points="1082.24,-67.3062 1092.82,-66.8207 1084.24,-60.6002 1082.24,-67.3062"/>
</g>
<!-- Node38 -->
<g id="node29" class="node"><title>Node38</title>
<g id="a_node29"><a xlink:href="namespaceopenage_1_1convert_1_1driver.xhtml#a8c15f89a4e29ef83e1c5e0237f511ad2" target="_top" xlink:title="reads blendomatic.dat">
<polygon fill="white" stroke="black" points="380,-67.3279 380,-97.3279 509,-97.3279 509,-67.3279 380,-67.3279"/>
<text text-anchor="start" x="388" y="-85.3279" font-family="Helvetica,sans-Serif" font-size="10.00">openage.convert.driver.get</text>
<text text-anchor="middle" x="444.5" y="-74.3279" font-family="Helvetica,sans-Serif" font-size="10.00">_blendomatic_data</text>
</a>
</g>
</g>
<!-- Node29&#45;&gt;Node38 -->
<g id="edge34" class="edge"><title>Node29&#45;&gt;Node38</title>
<path fill="none" stroke="midnightblue" d="M274.418,-165.069C295.091,-148.593 330.181,-122.537 364,-106.328 367.984,-104.419 372.153,-102.622 376.405,-100.94"/>
<polygon fill="midnightblue" stroke="midnightblue" points="377.66,-104.207 385.81,-97.4377 375.217,-97.6475 377.66,-104.207"/>
</g>
<!-- Node39 -->
<g id="node30" class="node"><title>Node39</title>
<g id="a_node30"><a xlink:href="namespaceopenage_1_1convert_1_1driver.xhtml#adbdd640ef25ad8535078cc706f314686" target="_top" xlink:title="reads the (language) string resources">
<polygon fill="white" stroke="black" points="380,-214.328 380,-244.328 509,-244.328 509,-214.328 380,-214.328"/>
<text text-anchor="start" x="388" y="-232.328" font-family="Helvetica,sans-Serif" font-size="10.00">openage.convert.driver.get</text>
<text text-anchor="middle" x="444.5" y="-221.328" font-family="Helvetica,sans-Serif" font-size="10.00">_string_resources</text>
</a>
</g>
</g>
<!-- Node29&#45;&gt;Node39 -->
<g id="edge35" class="edge"><title>Node29&#45;&gt;Node39</title>
<path fill="none" stroke="midnightblue" d="M313.53,-195.363C333.328,-200.536 355.672,-206.375 376.178,-211.734"/>
<polygon fill="midnightblue" stroke="midnightblue" points="375.518,-215.18 386.078,-214.322 377.288,-208.407 375.518,-215.18"/>
</g>
<!-- Node32 -->
<g id="node23" class="node"><title>Node32</title>
<g id="a_node23"><a xlink:href="namespaceopenage_1_1convert_1_1game__versions.xhtml#a34537bbd9836f1e83d73d08545ff07c6" target="_top" xlink:title="Determine whether any of the versions has patch 1, i.e.">
<polygon fill="white" stroke="black" points="606.5,-165.328 606.5,-195.328 720.5,-195.328 720.5,-165.328 606.5,-165.328"/>
<text text-anchor="start" x="614.5" y="-183.328" font-family="Helvetica,sans-Serif" font-size="10.00">openage.convert.game</text>
<text text-anchor="middle" x="663.5" y="-172.328" font-family="Helvetica,sans-Serif" font-size="10.00">_versions.has_x1_p1</text>
</a>
</g>
</g>
<!-- Node31&#45;&gt;Node32 -->
<g id="edge27" class="edge"><title>Node31&#45;&gt;Node32</title>
<path fill="none" stroke="midnightblue" d="M509.141,-145.698C536.541,-151.885 568.573,-159.119 596.256,-165.37"/>
<polygon fill="midnightblue" stroke="midnightblue" points="595.716,-168.836 606.241,-167.624 597.258,-162.008 595.716,-168.836"/>
</g>
<!-- Node33 -->
<g id="node24" class="node"><title>Node33</title>
<g id="a_node24"><a xlink:href="namespaceopenage_1_1convert_1_1gamedata_1_1empiresdat.xhtml#a571729db3187f457aefbdb94af2364d0" target="_top" xlink:title=" ">
<polygon fill="white" stroke="black" points="561,-67.3279 561,-97.3279 766,-97.3279 766,-67.3279 561,-67.3279"/>
<text text-anchor="start" x="569" y="-85.3279" font-family="Helvetica,sans-Serif" font-size="10.00">openage.convert.gamedata.empiresdat.load</text>
<text text-anchor="middle" x="663.5" y="-74.3279" font-family="Helvetica,sans-Serif" font-size="10.00">_gamespec</text>
</a>
</g>
</g>
<!-- Node31&#45;&gt;Node33 -->
<g id="edge28" class="edge"><title>Node31&#45;&gt;Node33</title>
<path fill="none" stroke="midnightblue" d="M509.141,-116.957C533.209,-111.523 560.851,-105.281 585.981,-99.6065"/>
<polygon fill="midnightblue" stroke="midnightblue" points="586.857,-102.997 595.841,-97.38 585.315,-96.1687 586.857,-102.997"/>
</g>
<!-- Node37 -->
<g id="node28" class="node"><title>Node37</title>
<g id="a_node28"><a xlink:href="namespaceopenage_1_1convert_1_1fix__data.xhtml#aa8a9618d6c503e4ea34ed5854a8d534f" target="_top" xlink:title="modernizes/patches the gamespec.">
<polygon fill="white" stroke="black" points="613.5,-116.328 613.5,-146.328 713.5,-146.328 713.5,-116.328 613.5,-116.328"/>
<text text-anchor="start" x="621.5" y="-134.328" font-family="Helvetica,sans-Serif" font-size="10.00">openage.convert.fix</text>
<text text-anchor="middle" x="663.5" y="-123.328" font-family="Helvetica,sans-Serif" font-size="10.00">_data.fix_data</text>
</a>
</g>
</g>
<!-- Node31&#45;&gt;Node37 -->
<g id="edge33" class="edge"><title>Node31&#45;&gt;Node37</title>
<path fill="none" stroke="midnightblue" d="M509.141,-131.328C538.898,-131.328 574.119,-131.328 603.299,-131.328"/>
<polygon fill="midnightblue" stroke="midnightblue" points="603.349,-134.828 613.349,-131.328 603.349,-127.828 603.349,-134.828"/>
</g>
<!-- Node33&#45;&gt;Node13 -->
<g id="edge29" class="edge"><title>Node33&#45;&gt;Node13</title>
<path fill="none" stroke="midnightblue" d="M754.978,-97.6063C758.947,-100.122 762.658,-103.012 766,-106.328 813.752,-153.701 768.753,-194.855 802,-253.328 818.964,-283.163 848.931,-309.596 869.481,-325.52"/>
<polygon fill="midnightblue" stroke="midnightblue" points="867.555,-328.452 877.646,-331.681 871.771,-322.864 867.555,-328.452"/>
</g>
<!-- Node34 -->
<g id="node25" class="node"><title>Node34</title>
<g id="a_node25"><a xlink:href="namespaceopenage_1_1log.xhtml#a7ca418e1b1fcf210ff91cd25dc8e6a36" target="_top" xlink:title="warning message">
<polygon fill="white" stroke="black" points="846.5,-142.828 846.5,-161.828 938.5,-161.828 938.5,-142.828 846.5,-142.828"/>
<text text-anchor="middle" x="892.5" y="-149.828" font-family="Helvetica,sans-Serif" font-size="10.00">openage.log.warn</text>
</a>
</g>
</g>
<!-- Node33&#45;&gt;Node34 -->
<g id="edge30" class="edge"><title>Node33&#45;&gt;Node34</title>
<path fill="none" stroke="midnightblue" d="M742.922,-97.4087C750.875,-99.9576 758.702,-102.911 766,-106.328 784.113,-114.808 783.79,-125.057 802,-133.328 812.627,-138.155 824.526,-141.776 836.092,-144.486"/>
<polygon fill="midnightblue" stroke="midnightblue" points="835.619,-147.964 846.131,-146.64 837.088,-141.12 835.619,-147.964"/>
</g>
<!-- Node33&#45;&gt;Node35 -->
<g id="edge31" class="edge"><title>Node33&#45;&gt;Node35</title>
<path fill="none" stroke="midnightblue" d="M766.145,-80.9963C859.902,-79.7681 995.421,-77.9927 1069.4,-77.0236"/>
<polygon fill="midnightblue" stroke="midnightblue" points="1069.46,-80.5231 1079.42,-76.8923 1069.37,-73.5237 1069.46,-80.5231"/>
</g>
<!-- Node36 -->
<g id="node27" class="node"><title>Node36</title>
<g id="a_node27"><a xlink:href="namespaceopenage_1_1log.xhtml#a173fdf777356d529586708570ee36be4" target="_top" xlink:title="spam message">
<polygon fill="white" stroke="black" points="844.5,-104.828 844.5,-123.828 940.5,-123.828 940.5,-104.828 844.5,-104.828"/>
<text text-anchor="middle" x="892.5" y="-111.828" font-family="Helvetica,sans-Serif" font-size="10.00">openage.log.spam</text>
</a>
</g>
</g>
<!-- Node33&#45;&gt;Node36 -->
<g id="edge32" class="edge"><title>Node33&#45;&gt;Node36</title>
<path fill="none" stroke="midnightblue" d="M766.049,-96.6432C789.377,-99.9317 813.385,-103.316 834.074,-106.233"/>
<polygon fill="midnightblue" stroke="midnightblue" points="833.866,-109.738 844.257,-107.668 834.843,-102.806 833.866,-109.738"/>
</g>
<!-- Node39&#45;&gt;Node32 -->
<g id="edge43" class="edge"><title>Node39&#45;&gt;Node32</title>
<path fill="none" stroke="midnightblue" d="M509.141,-214.957C536.541,-208.77 568.573,-201.537 596.256,-195.286"/>
<polygon fill="midnightblue" stroke="midnightblue" points="597.258,-198.648 606.241,-193.032 595.716,-191.82 597.258,-198.648"/>
</g>
<!-- Node40 -->
<g id="node31" class="node"><title>Node40</title>
<g id="a_node31"><a xlink:href="namespaceopenage_1_1convert_1_1hdlanguagefile.xhtml#a352b2dbd5b398f49f4f46dcca838cebd" target="_top" xlink:title=" ">
<polygon fill="white" stroke="black" points="577,-214.328 577,-244.328 750,-244.328 750,-214.328 577,-214.328"/>
<text text-anchor="start" x="585" y="-232.328" font-family="Helvetica,sans-Serif" font-size="10.00">openage.convert.hdlanguagefile.read</text>
<text text-anchor="middle" x="663.5" y="-221.328" font-family="Helvetica,sans-Serif" font-size="10.00">_age2_hd_fe_stringresources</text>
</a>
</g>
</g>
<!-- Node39&#45;&gt;Node40 -->
<g id="edge36" class="edge"><title>Node39&#45;&gt;Node40</title>
<path fill="none" stroke="midnightblue" d="M509.141,-229.328C527.139,-229.328 547.135,-229.328 566.585,-229.328"/>
<polygon fill="midnightblue" stroke="midnightblue" points="566.693,-232.828 576.693,-229.328 566.693,-225.828 566.693,-232.828"/>
</g>
<!-- Node43 -->
<g id="node34" class="node"><title>Node43</title>
<g id="a_node34"><a xlink:href="namespaceopenage_1_1convert_1_1hdlanguagefile.xhtml#a189674ed7c17e3398bf7e39919e3b641" target="_top" xlink:title=" ">
<polygon fill="white" stroke="black" points="577,-263.328 577,-293.328 750,-293.328 750,-263.328 577,-263.328"/>
<text text-anchor="start" x="585" y="-281.328" font-family="Helvetica,sans-Serif" font-size="10.00">openage.convert.hdlanguagefile.read</text>
<text text-anchor="middle" x="663.5" y="-270.328" font-family="Helvetica,sans-Serif" font-size="10.00">_age2_hd_3x_stringresources</text>
</a>
</g>
</g>
<!-- Node39&#45;&gt;Node43 -->
<g id="edge40" class="edge"><title>Node39&#45;&gt;Node43</title>
<path fill="none" stroke="midnightblue" d="M509.141,-243.698C533.209,-249.133 560.851,-255.375 585.981,-261.049"/>
<polygon fill="midnightblue" stroke="midnightblue" points="585.315,-264.487 595.841,-263.276 586.857,-257.659 585.315,-264.487"/>
</g>
<!-- Node41 -->
<g id="node32" class="node"><title>Node41</title>
<g id="a_node32"><a xlink:href="namespaceopenage_1_1convert_1_1hdlanguagefile.xhtml#acc46a3a14127905594fced841fdfb09b" target="_top" xlink:title="Takes a file object, and the file&#39;s language code.">
<polygon fill="white" stroke="black" points="806,-214.328 806,-244.328 979,-244.328 979,-214.328 806,-214.328"/>
<text text-anchor="start" x="814" y="-232.328" font-family="Helvetica,sans-Serif" font-size="10.00">openage.convert.hdlanguagefile.read</text>
<text text-anchor="middle" x="892.5" y="-221.328" font-family="Helvetica,sans-Serif" font-size="10.00">_hd_language_file</text>
</a>
</g>
</g>
<!-- Node40&#45;&gt;Node41 -->
<g id="edge37" class="edge"><title>Node40&#45;&gt;Node41</title>
<path fill="none" stroke="midnightblue" d="M750.319,-229.328C765.111,-229.328 780.57,-229.328 795.607,-229.328"/>
<polygon fill="midnightblue" stroke="midnightblue" points="795.936,-232.828 805.936,-229.328 795.936,-225.828 795.936,-232.828"/>
</g>
<!-- Node41&#45;&gt;Node35 -->
<g id="edge38" class="edge"><title>Node41&#45;&gt;Node35</title>
<path fill="none" stroke="midnightblue" d="M917.151,-214.21C935.25,-202.59 960.792,-186.083 983,-171.328 1024.66,-143.648 1072.79,-110.642 1100.24,-91.7208"/>
<polygon fill="midnightblue" stroke="midnightblue" points="1102.47,-94.4323 1108.71,-85.8719 1098.49,-88.6709 1102.47,-94.4323"/>
</g>
<!-- Node42 -->
<g id="node33" class="node"><title>Node42</title>
<g id="a_node33"><a xlink:href="namespaceopenage_1_1util.xhtml#a9556b8562574e2c6ad102d8fd87569c6" target="_top" xlink:title="Split a string at a delimiter into a vector.">
<polygon fill="white" stroke="black" points="1075.5,-219.828 1075.5,-238.828 1171.5,-238.828 1171.5,-219.828 1075.5,-219.828"/>
<text text-anchor="middle" x="1123.5" y="-226.828" font-family="Helvetica,sans-Serif" font-size="10.00">openage::util::split</text>
</a>
</g>
</g>
<!-- Node41&#45;&gt;Node42 -->
<g id="edge39" class="edge"><title>Node41&#45;&gt;Node42</title>
<path fill="none" stroke="midnightblue" d="M979.097,-229.328C1007.81,-229.328 1039.11,-229.328 1065.13,-229.328"/>
<polygon fill="midnightblue" stroke="midnightblue" points="1065.19,-232.828 1075.19,-229.328 1065.19,-225.828 1065.19,-232.828"/>
</g>
<!-- Node43&#45;&gt;Node27 -->
<g id="edge41" class="edge"><title>Node43&#45;&gt;Node27</title>
<path fill="none" stroke="midnightblue" d="M750.154,-275.234C816.995,-276.235 910.376,-285.346 983,-322.328 1041.96,-352.352 1090.04,-417.322 1111.06,-449.092"/>
<polygon fill="midnightblue" stroke="midnightblue" points="1108.33,-451.314 1116.7,-457.81 1114.21,-447.512 1108.33,-451.314"/>
</g>
<!-- Node43&#45;&gt;Node41 -->
<g id="edge42" class="edge"><title>Node43&#45;&gt;Node41</title>
<path fill="none" stroke="midnightblue" d="M734.15,-263.293C758.772,-257.978 786.647,-251.961 812.022,-246.484"/>
<polygon fill="midnightblue" stroke="midnightblue" points="812.945,-249.865 821.982,-244.334 811.468,-243.023 812.945,-249.865"/>
</g>
</g>
</svg>
