<?xml version="1.0" encoding="UTF-8" standalone="no"?>
<!DOCTYPE svg PUBLIC "-//W3C//DTD SVG 1.1//EN"
 "http://www.w3.org/Graphics/SVG/1.1/DTD/svg11.dtd">
<!-- Generated by graphviz version 2.38.0 (20140413.2041)
 -->
<!-- Title: openage::util::safe_shift Pages: 1 -->
<svg width="236pt" height="39pt"
 viewBox="0.00 0.00 236.00 39.00" xmlns="http://www.w3.org/2000/svg" xmlns:xlink="http://www.w3.org/1999/xlink">
<g id="graph0" class="graph" transform="scale(1 1) rotate(0) translate(4 35)">
<title>openage::util::safe_shift</title>
<polygon fill="white" stroke="none" points="-4,4 -4,-35 232,-35 232,4 -4,4"/>
<!-- Node642 -->
<g id="node1" class="node"><title>Node642</title>
<g id="a_node1"><a xlink:title=" ">
<polygon fill="#bfbfbf" stroke="black" points="0,-0.5 0,-30.5 96,-30.5 96,-0.5 0,-0.5"/>
<text text-anchor="start" x="8" y="-18.5" font-family="Helvetica,sans-Serif" font-size="10.00">openage::util::safe</text>
<text text-anchor="middle" x="48" y="-7.5" font-family="Helvetica,sans-Serif" font-size="10.00">_shift</text>
</a>
</g>
</g>
<!-- Node643 -->
<g id="node2" class="node"><title>Node643</title>
<g id="a_node2"><a xlink:href="namespaceopenage_1_1util.xhtml#a1f37c9c7cfd9dbe87e3ce104476bbda4" target="_top" xlink:title=" ">
<polygon fill="white" stroke="black" points="132,-0.5 132,-30.5 228,-30.5 228,-0.5 132,-0.5"/>
<text text-anchor="start" x="140" y="-18.5" font-family="Helvetica,sans-Serif" font-size="10.00">openage::util::safe</text>
<text text-anchor="middle" x="180" y="-7.5" font-family="Helvetica,sans-Serif" font-size="10.00">_shiftright</text>
</a>
</g>
</g>
<!-- Node642&#45;&gt;Node643 -->
<g id="edge1" class="edge"><title>Node642&#45;&gt;Node643</title>
<path fill="none" stroke="midnightblue" d="M96.3007,-15.5C104.559,-15.5 113.229,-15.5 121.722,-15.5"/>
<polygon fill="midnightblue" stroke="midnightblue" points="121.952,-19.0001 131.952,-15.5 121.952,-12.0001 121.952,-19.0001"/>
</g>
</g>
</svg>
