<?xml version="1.0" encoding="UTF-8" standalone="no"?>
<!DOCTYPE svg PUBLIC "-//W3C//DTD SVG 1.1//EN"
 "http://www.w3.org/Graphics/SVG/1.1/DTD/svg11.dtd">
<!-- Generated by graphviz version 2.38.0 (20140413.2041)
 -->
<!-- Title: openage::renderer::vulkan::find_capabilities Pages: 1 -->
<!--zoomable 132 -->
<svg id="main" version="1.1" xmlns="http://www.w3.org/2000/svg" xmlns:xlink="http://www.w3.org/1999/xlink" xml:space="preserve" onload="init(evt)">
<style type="text/css"><![CDATA[
.edge:hover path { stroke: red; }
.edge:hover polygon { stroke: red; fill: red; }
]]></style>
<script type="text/javascript"><![CDATA[
var edges = document.getElementsByTagName('g');
if (edges && edges.length) {
  for (var i=0;i<edges.length;i++) {
    if (edges[i].id.substr(0,4)=='edge') {
      edges[i].setAttribute('class','edge');
    }
  }
}
]]></script>
        <defs>
                <circle id="rim" cx="0" cy="0" r="7"/>
                <circle id="rim2" cx="0" cy="0" r="3.5"/>
                <g id="zoomPlus">
                        <use xlink:href="#rim" fill="#404040">
                                <set attributeName="fill" to="#808080" begin="zoomplus.mouseover" end="zoomplus.mouseout"/>
                        </use>
                        <path d="M-4,0h8M0,-4v8" fill="none" stroke="white" stroke-width="1.5" pointer-events="none"/>
                </g>
                <g id="zoomMin">
                        <use xlink:href="#rim" fill="#404040">
                                <set attributeName="fill" to="#808080" begin="zoomminus.mouseover" end="zoomminus.mouseout"/>
                        </use>
                        <path d="M-4,0h8" fill="none" stroke="white" stroke-width="1.5" pointer-events="none"/>
                </g>
                <g id="dirArrow">
                        <path fill="none" stroke="white" stroke-width="1.5" d="M0,-3.0v7 M-2.5,-0.5L0,-3.0L2.5,-0.5"/>
                </g>
               <g id="resetDef">
                       <use xlink:href="#rim2" fill="#404040">
                               <set attributeName="fill" to="#808080" begin="reset.mouseover" end="reset.mouseout"/>
                       </use>
               </g>
        </defs>

<script type="text/javascript">
var viewWidth = 617;
var viewHeight = 132;
var sectionId = 'dynsection-0';
</script>
<script xlink:href="svgpan.js"/>
<svg id="graph" class="graph">
<g id="viewport">
<title>openage::renderer::vulkan::find_capabilities</title>
<polygon fill="white" stroke="none" points="-4,4 -4,-128 613,-128 613,4 -4,4"/>
<!-- Node0 -->
<g id="node1" class="node"><title>Node0</title>
<g id="a_node1"><a xlink:title="Queries the Vulkan implementation for available extensions and layers.">
<polygon fill="#bfbfbf" stroke="black" points="0,-61 0,-91 119,-91 119,-61 0,-61"/>
<text text-anchor="start" x="8" y="-79" font-family="Helvetica,sans-Serif" font-size="10.00">openage::renderer::</text>
<text text-anchor="middle" x="59.5" y="-68" font-family="Helvetica,sans-Serif" font-size="10.00">vulkan::find_capabilities</text>
</a>
</g>
</g>
<!-- Node1 -->
<g id="node2" class="node"><title>Node1</title>
<g id="a_node2"><a xlink:href="namespaceopenage_1_1log.xhtml#aad3d76b2466dbc4f81552935f2d84faa" target="_top" xlink:title="debug message">
<polygon fill="white" stroke="black" points="156.5,-104.5 156.5,-123.5 244.5,-123.5 244.5,-104.5 156.5,-104.5"/>
<text text-anchor="middle" x="200.5" y="-111.5" font-family="Helvetica,sans-Serif" font-size="10.00">openage.log.dbg</text>
</a>
</g>
</g>
<!-- Node0&#45;&gt;Node1 -->
<g id="edge1" class="edge"><title>Node0&#45;&gt;Node1</title>
<path fill="none" stroke="midnightblue" d="M115.436,-91.0186C128.49,-94.5871 142.261,-98.3519 154.794,-101.778"/>
<polygon fill="midnightblue" stroke="midnightblue" points="153.973,-105.182 164.542,-104.443 155.819,-98.43 153.973,-105.182"/>
</g>
<!-- Node2 -->
<g id="node3" class="node"><title>Node2</title>
<g id="a_node3"><a xlink:href="namespaceopenage_1_1log.xhtml#a0eff614e7d6e818746700ed9d29e583f" target="_top" xlink:title=" ">
<polygon fill="white" stroke="black" points="155,-66.5 155,-85.5 246,-85.5 246,-66.5 155,-66.5"/>
<text text-anchor="middle" x="200.5" y="-73.5" font-family="Helvetica,sans-Serif" font-size="10.00">openage::log::log</text>
</a>
</g>
</g>
<!-- Node0&#45;&gt;Node2 -->
<g id="edge2" class="edge"><title>Node0&#45;&gt;Node2</title>
<path fill="none" stroke="midnightblue" d="M119.046,-76C127.591,-76 136.363,-76 144.827,-76"/>
<polygon fill="midnightblue" stroke="midnightblue" points="144.962,-79.5001 154.962,-76 144.962,-72.5001 144.962,-79.5001"/>
</g>
<!-- Node8 -->
<g id="node9" class="node"><title>Node8</title>
<g id="a_node9"><a xlink:href="util_8h.xhtml#a856371a624dd7d99cc9da19f0d7889f0" target="_top" xlink:title=" ">
<polygon fill="white" stroke="black" points="166.5,-28.5 166.5,-47.5 234.5,-47.5 234.5,-28.5 166.5,-28.5"/>
<text text-anchor="middle" x="200.5" y="-35.5" font-family="Helvetica,sans-Serif" font-size="10.00">vk_do_ritual</text>
</a>
</g>
</g>
<!-- Node0&#45;&gt;Node8 -->
<g id="edge8" class="edge"><title>Node0&#45;&gt;Node8</title>
<path fill="none" stroke="midnightblue" d="M115.436,-60.9814C128.969,-57.2819 143.272,-53.3716 156.168,-49.846"/>
<polygon fill="midnightblue" stroke="midnightblue" points="157.444,-53.1257 166.167,-47.1125 155.598,-46.3735 157.444,-53.1257"/>
</g>
<!-- Node3 -->
<g id="node4" class="node"><title>Node3</title>
<g id="a_node4"><a xlink:href="namespaceopenage_1_1log.xhtml#a3fbb0c225d01e222648ec28a43507188" target="_top" xlink:title=" ">
<polygon fill="white" stroke="black" points="298.5,-83 298.5,-113 408.5,-113 408.5,-83 298.5,-83"/>
<text text-anchor="start" x="306.5" y="-101" font-family="Helvetica,sans-Serif" font-size="10.00">openage::log::general</text>
<text text-anchor="middle" x="353.5" y="-90" font-family="Helvetica,sans-Serif" font-size="10.00">_source</text>
</a>
</g>
</g>
<!-- Node2&#45;&gt;Node3 -->
<g id="edge3" class="edge"><title>Node2&#45;&gt;Node3</title>
<path fill="none" stroke="midnightblue" d="M246.396,-82.5412C259.548,-84.4573 274.191,-86.5907 288.296,-88.6457"/>
<polygon fill="midnightblue" stroke="midnightblue" points="288.042,-92.1456 298.442,-90.124 289.051,-85.2188 288.042,-92.1456"/>
</g>
<!-- Node4 -->
<g id="node5" class="node"><title>Node4</title>
<g id="a_node5"><a xlink:href="classopenage_1_1log_1_1_log_source.xhtml#a5640099e20af4cd368c767dbcef3a1df" target="_top" xlink:title=" ">
<polygon fill="white" stroke="black" points="282,-44.5 282,-63.5 425,-63.5 425,-44.5 282,-44.5"/>
<text text-anchor="middle" x="353.5" y="-51.5" font-family="Helvetica,sans-Serif" font-size="10.00">openage::log::LogSource::log</text>
</a>
</g>
</g>
<!-- Node2&#45;&gt;Node4 -->
<g id="edge4" class="edge"><title>Node2&#45;&gt;Node4</title>
<path fill="none" stroke="midnightblue" d="M246.396,-69.4588C256.081,-68.0479 266.574,-66.5191 277.065,-64.9905"/>
<polygon fill="midnightblue" stroke="midnightblue" points="277.706,-68.4342 287.097,-63.5289 276.697,-61.5073 277.706,-68.4342"/>
</g>
<!-- Node5 -->
<g id="node6" class="node"><title>Node5</title>
<g id="a_node6"><a xlink:href="namespaceopenage_1_1log.xhtml#a3d2885be9c3a09b9ff7ee8764b2e5f39" target="_top" xlink:title=" ">
<polygon fill="white" stroke="black" points="483,-88 483,-118 587,-118 587,-88 483,-88"/>
<text text-anchor="start" x="491" y="-106" font-family="Helvetica,sans-Serif" font-size="10.00">openage::log::global</text>
<text text-anchor="middle" x="535" y="-95" font-family="Helvetica,sans-Serif" font-size="10.00">_stdoutsink</text>
</a>
</g>
</g>
<!-- Node4&#45;&gt;Node5 -->
<g id="edge5" class="edge"><title>Node4&#45;&gt;Node5</title>
<path fill="none" stroke="midnightblue" d="M389.536,-63.564C413.265,-70.0416 445.246,-78.7718 473.085,-86.3714"/>
<polygon fill="midnightblue" stroke="midnightblue" points="472.17,-89.7497 482.739,-89.0067 474.014,-82.9968 472.17,-89.7497"/>
</g>
<!-- Node6 -->
<g id="node7" class="node"><title>Node6</title>
<g id="a_node7"><a xlink:href="classopenage_1_1log_1_1_log_sink_list.xhtml#a2d47416fab12651553b4b58c86fd6f84" target="_top" xlink:title=" ">
<polygon fill="white" stroke="black" points="470.5,-39 470.5,-69 599.5,-69 599.5,-39 470.5,-39"/>
<text text-anchor="start" x="478.5" y="-57" font-family="Helvetica,sans-Serif" font-size="10.00">openage::log::LogSinkList</text>
<text text-anchor="middle" x="535" y="-46" font-family="Helvetica,sans-Serif" font-size="10.00">::instance</text>
</a>
</g>
</g>
<!-- Node4&#45;&gt;Node6 -->
<g id="edge6" class="edge"><title>Node4&#45;&gt;Node6</title>
<path fill="none" stroke="midnightblue" d="M425.185,-54C436.719,-54 448.693,-54 460.297,-54"/>
<polygon fill="midnightblue" stroke="midnightblue" points="460.38,-57.5001 470.379,-54 460.379,-50.5001 460.38,-57.5001"/>
</g>
<!-- Node7 -->
<g id="node8" class="node"><title>Node7</title>
<g id="a_node8"><a xlink:href="classopenage_1_1log_1_1_log_sink_list.xhtml#a8456b84ab55e1fe151c51438c5bfebdd" target="_top" xlink:title=" ">
<polygon fill="white" stroke="black" points="461,-0.5 461,-19.5 609,-19.5 609,-0.5 461,-0.5"/>
<text text-anchor="middle" x="535" y="-7.5" font-family="Helvetica,sans-Serif" font-size="10.00">openage::log::LogSinkList::log</text>
</a>
</g>
</g>
<!-- Node4&#45;&gt;Node7 -->
<g id="edge7" class="edge"><title>Node4&#45;&gt;Node7</title>
<path fill="none" stroke="midnightblue" d="M393.449,-44.4527C420.382,-37.8508 456.415,-29.0181 485.253,-21.949"/>
<polygon fill="midnightblue" stroke="midnightblue" points="486.248,-25.3089 495.127,-19.5287 484.581,-18.5102 486.248,-25.3089"/>
</g>
</g>
</svg>
        <g id="navigator" transform="translate(0 0)" fill="#404254">
                <rect fill="#f2f5e9" fill-opacity="0.5" stroke="#606060" stroke-width=".5" x="0" y="0" width="60" height="60"/>
                <use id="zoomplus" xlink:href="#zoomPlus" x="17" y="9" onmousedown="handleZoom(evt,'in')"/>
                <use id="zoomminus" xlink:href="#zoomMin" x="42" y="9" onmousedown="handleZoom(evt,'out')"/>
                <use id="reset" xlink:href="#resetDef" x="30" y="36" onmousedown="handleReset()"/>
                <g id="arrowUp" xlink:href="#dirArrow" transform="translate(30 24)" onmousedown="handlePan(0,-1)">
                  <use xlink:href="#rim" fill="#404040">
                        <set attributeName="fill" to="#808080" begin="arrowUp.mouseover" end="arrowUp.mouseout"/>
                  </use>
                  <path fill="none" stroke="white" stroke-width="1.5" d="M0,-3.0v7 M-2.5,-0.5L0,-3.0L2.5,-0.5"/>
                </g>
                <g id="arrowRight" xlink:href="#dirArrow" transform="rotate(90) translate(36 -43)" onmousedown="handlePan(1,0)">
                  <use xlink:href="#rim" fill="#404040">
                        <set attributeName="fill" to="#808080" begin="arrowRight.mouseover" end="arrowRight.mouseout"/>
                  </use>
                  <path fill="none" stroke="white" stroke-width="1.5" d="M0,-3.0v7 M-2.5,-0.5L0,-3.0L2.5,-0.5"/>
                </g>
                <g id="arrowDown" xlink:href="#dirArrow" transform="rotate(180) translate(-30 -48)" onmousedown="handlePan(0,1)">
                  <use xlink:href="#rim" fill="#404040">
                        <set attributeName="fill" to="#808080" begin="arrowDown.mouseover" end="arrowDown.mouseout"/>
                  </use>
                  <path fill="none" stroke="white" stroke-width="1.5" d="M0,-3.0v7 M-2.5,-0.5L0,-3.0L2.5,-0.5"/>
                </g>
                <g id="arrowLeft" xlink:href="#dirArrow" transform="rotate(270) translate(-36 17)" onmousedown="handlePan(-1,0)">
                  <use xlink:href="#rim" fill="#404040">
                        <set attributeName="fill" to="#808080" begin="arrowLeft.mouseover" end="arrowLeft.mouseout"/>
                  </use>
                  <path fill="none" stroke="white" stroke-width="1.5" d="M0,-3.0v7 M-2.5,-0.5L0,-3.0L2.5,-0.5"/>
                </g>
        </g>
        <svg viewBox="0 0 15 15" width="100%" height="30px" preserveAspectRatio="xMaxYMin meet">
         <g id="arrow_out" transform="scale(0.3 0.3)">
          <a xlink:href="namespaceopenage_1_1renderer_1_1vulkan_ab2538fa764e64cb8a28639cb511058ae_cgraph_org.svg" target="_base">
           <rect id="button" ry="5" rx="5" y="6" x="6" height="38" width="38"
                fill="#f2f5e9" fill-opacity="0.5" stroke="#606060" stroke-width="1.0"/>
           <path id="arrow"
             d="M 11.500037,31.436501 C 11.940474,20.09759 22.043105,11.32322 32.158766,21.979434 L 37.068811,17.246167 C 37.068811,17.246167 37.088388,32 37.088388,32 L 22.160133,31.978069 C 22.160133,31.978069 26.997745,27.140456 26.997745,27.140456 C 18.528582,18.264221 13.291696,25.230495 11.500037,31.436501 z"
             style="fill:#404040;"/>
          </a>
         </g>
        </svg>
</svg>
