<?xml version="1.0" encoding="UTF-8" standalone="no"?>
<!DOCTYPE svg PUBLIC "-//W3C//DTD SVG 1.1//EN"
 "http://www.w3.org/Graphics/SVG/1.1/DTD/svg11.dtd">
<!-- Generated by graphviz version 2.38.0 (20140413.2041)
 -->
<!-- Title: openage::util::uint64_to_array8 Pages: 1 -->
<svg width="397pt" height="127pt"
 viewBox="0.00 0.00 397.00 127.00" xmlns="http://www.w3.org/2000/svg" xmlns:xlink="http://www.w3.org/1999/xlink">
<g id="graph0" class="graph" transform="scale(1 1) rotate(0) translate(4 123)">
<title>openage::util::uint64_to_array8</title>
<polygon fill="white" stroke="none" points="-4,4 -4,-123 393,-123 393,4 -4,4"/>
<!-- Node733 -->
<g id="node1" class="node"><title>Node733</title>
<g id="a_node1"><a xlink:title="Convert a uint64_t to an array of uint8_t.">
<polygon fill="#bfbfbf" stroke="black" points="285,-44.5 285,-74.5 389,-74.5 389,-44.5 285,-44.5"/>
<text text-anchor="start" x="293" y="-62.5" font-family="Helvetica,sans-Serif" font-size="10.00">openage::util::uint64</text>
<text text-anchor="middle" x="337" y="-51.5" font-family="Helvetica,sans-Serif" font-size="10.00">_to_array8</text>
</a>
</g>
</g>
<!-- Node734 -->
<g id="node2" class="node"><title>Node734</title>
<g id="a_node2"><a xlink:href="namespaceopenage_1_1util.xhtml#af9f52b617e7434a421cd5f9de448b600" target="_top" xlink:title="Convert a C&#45;style array of uint64_t to a std::vector of uint8_t.">
<polygon fill="white" stroke="black" points="137.5,-88.5 137.5,-118.5 247.5,-118.5 247.5,-88.5 137.5,-88.5"/>
<text text-anchor="start" x="145.5" y="-106.5" font-family="Helvetica,sans-Serif" font-size="10.00">openage::util::array64</text>
<text text-anchor="middle" x="192.5" y="-95.5" font-family="Helvetica,sans-Serif" font-size="10.00">_to_array8</text>
</a>
</g>
</g>
<!-- Node733&#45;&gt;Node734 -->
<g id="edge1" class="edge"><title>Node733&#45;&gt;Node734</title>
<path fill="none" stroke="midnightblue" d="M277.663,-77.5129C265.951,-81.1292 253.758,-84.8941 242.406,-88.3991"/>
<polygon fill="midnightblue" stroke="midnightblue" points="278.836,-80.8138 287.358,-74.5192 276.771,-74.1254 278.836,-80.8138"/>
</g>
<!-- Node735 -->
<g id="node3" class="node"><title>Node735</title>
<g id="a_node3"><a xlink:href="namespaceopenage_1_1util_1_1tests.xhtml#a48fcf768166ffb9362daf1fdf19acf45" target="_top" xlink:title=" ">
<polygon fill="white" stroke="black" points="0,-66.5 0,-96.5 100,-96.5 100,-66.5 0,-66.5"/>
<text text-anchor="start" x="8" y="-84.5" font-family="Helvetica,sans-Serif" font-size="10.00">openage::util::tests</text>
<text text-anchor="middle" x="50" y="-73.5" font-family="Helvetica,sans-Serif" font-size="10.00">::array_conversion</text>
</a>
</g>
</g>
<!-- Node733&#45;&gt;Node735 -->
<g id="edge3" class="edge"><title>Node733&#45;&gt;Node735</title>
<path fill="none" stroke="midnightblue" d="M274.606,-64.2392C222.528,-68.2592 148.784,-73.9517 100.438,-77.6837"/>
<polygon fill="midnightblue" stroke="midnightblue" points="275.018,-67.7179 284.719,-63.4586 274.479,-60.7387 275.018,-67.7179"/>
</g>
<!-- Node736 -->
<g id="node4" class="node"><title>Node736</title>
<g id="a_node4"><a xlink:href="classopenage_1_1util_1_1_siphash.xhtml#a0cb5db9ffca1f96885bc53e2f5c0c65d" target="_top" xlink:title="Hashes a single uint64_t number and returns the result.">
<polygon fill="white" stroke="black" points="136,-0.5 136,-30.5 249,-30.5 249,-0.5 136,-0.5"/>
<text text-anchor="start" x="144" y="-18.5" font-family="Helvetica,sans-Serif" font-size="10.00">openage::util::Siphash</text>
<text text-anchor="middle" x="192.5" y="-7.5" font-family="Helvetica,sans-Serif" font-size="10.00">::digest</text>
</a>
</g>
</g>
<!-- Node733&#45;&gt;Node736 -->
<g id="edge4" class="edge"><title>Node733&#45;&gt;Node736</title>
<path fill="none" stroke="midnightblue" d="M277.663,-41.4871C265.951,-37.8708 253.758,-34.1059 242.406,-30.6009"/>
<polygon fill="midnightblue" stroke="midnightblue" points="276.771,-44.8746 287.358,-44.4808 278.836,-38.1862 276.771,-44.8746"/>
</g>
<!-- Node734&#45;&gt;Node735 -->
<g id="edge2" class="edge"><title>Node734&#45;&gt;Node735</title>
<path fill="none" stroke="midnightblue" d="M127.051,-93.4084C118.003,-91.9916 108.827,-90.5547 100.126,-89.1924"/>
<polygon fill="midnightblue" stroke="midnightblue" points="126.758,-96.905 137.179,-94.9942 127.841,-89.9893 126.758,-96.905"/>
</g>
</g>
</svg>
