<?xml version="1.0" encoding="UTF-8" standalone="no"?>
<!DOCTYPE svg PUBLIC "-//W3C//DTD SVG 1.1//EN"
 "http://www.w3.org/Graphics/SVG/1.1/DTD/svg11.dtd">
<!-- Generated by graphviz version 2.38.0 (20140413.2041)
 -->
<!-- Title: openage.convert.driver.get_gamespec Pages: 1 -->
<!--zoomable 189 -->
<svg id="main" version="1.1" xmlns="http://www.w3.org/2000/svg" xmlns:xlink="http://www.w3.org/1999/xlink" xml:space="preserve" onload="init(evt)">
<style type="text/css"><![CDATA[
.edge:hover path { stroke: red; }
.edge:hover polygon { stroke: red; fill: red; }
]]></style>
<script type="text/javascript"><![CDATA[
var edges = document.getElementsByTagName('g');
if (edges && edges.length) {
  for (var i=0;i<edges.length;i++) {
    if (edges[i].id.substr(0,4)=='edge') {
      edges[i].setAttribute('class','edge');
    }
  }
}
]]></script>
        <defs>
                <circle id="rim" cx="0" cy="0" r="7"/>
                <circle id="rim2" cx="0" cy="0" r="3.5"/>
                <g id="zoomPlus">
                        <use xlink:href="#rim" fill="#404040">
                                <set attributeName="fill" to="#808080" begin="zoomplus.mouseover" end="zoomplus.mouseout"/>
                        </use>
                        <path d="M-4,0h8M0,-4v8" fill="none" stroke="white" stroke-width="1.5" pointer-events="none"/>
                </g>
                <g id="zoomMin">
                        <use xlink:href="#rim" fill="#404040">
                                <set attributeName="fill" to="#808080" begin="zoomminus.mouseover" end="zoomminus.mouseout"/>
                        </use>
                        <path d="M-4,0h8" fill="none" stroke="white" stroke-width="1.5" pointer-events="none"/>
                </g>
                <g id="dirArrow">
                        <path fill="none" stroke="white" stroke-width="1.5" d="M0,-3.0v7 M-2.5,-0.5L0,-3.0L2.5,-0.5"/>
                </g>
               <g id="resetDef">
                       <use xlink:href="#rim2" fill="#404040">
                               <set attributeName="fill" to="#808080" begin="reset.mouseover" end="reset.mouseout"/>
                       </use>
               </g>
        </defs>

<script type="text/javascript">
var viewWidth = 510;
var viewHeight = 189;
var sectionId = 'dynsection-17';
</script>
<script xlink:href="svgpan.js"/>
<svg id="graph" class="graph">
<g id="viewport">
<title>openage.convert.driver.get_gamespec</title>
<polygon fill="white" stroke="none" points="-4,4 -4,-184.5 506,-184.5 506,4 -4,4"/>
<!-- Node139 -->
<g id="node1" class="node"><title>Node139</title>
<g id="a_node1"><a xlink:title="reads empires.dat and fixes it">
<polygon fill="#bfbfbf" stroke="black" points="0,-101 0,-131 129,-131 129,-101 0,-101"/>
<text text-anchor="start" x="8" y="-119" font-family="Helvetica,sans-Serif" font-size="10.00">openage.convert.driver.get</text>
<text text-anchor="middle" x="64.5" y="-108" font-family="Helvetica,sans-Serif" font-size="10.00">_gamespec</text>
</a>
</g>
</g>
<!-- Node140 -->
<g id="node2" class="node"><title>Node140</title>
<g id="a_node2"><a xlink:href="namespaceopenage_1_1convert_1_1fix__data.xhtml#aa8a9618d6c503e4ea34ed5854a8d534f" target="_top" xlink:title="modernizes/patches the gamespec.">
<polygon fill="white" stroke="black" points="217.5,-150 217.5,-180 317.5,-180 317.5,-150 217.5,-150"/>
<text text-anchor="start" x="225.5" y="-168" font-family="Helvetica,sans-Serif" font-size="10.00">openage.convert.fix</text>
<text text-anchor="middle" x="267.5" y="-157" font-family="Helvetica,sans-Serif" font-size="10.00">_data.fix_data</text>
</a>
</g>
</g>
<!-- Node139&#45;&gt;Node140 -->
<g id="edge1" class="edge"><title>Node139&#45;&gt;Node140</title>
<path fill="none" stroke="midnightblue" d="M124.657,-131.008C137.922,-134.333 151.935,-137.814 165,-141 178.731,-144.348 193.525,-147.886 207.457,-151.186"/>
<polygon fill="midnightblue" stroke="midnightblue" points="206.885,-154.647 217.422,-153.541 208.495,-147.835 206.885,-154.647"/>
</g>
<!-- Node141 -->
<g id="node3" class="node"><title>Node141</title>
<g id="a_node3"><a xlink:href="namespaceopenage_1_1convert_1_1game__versions.xhtml#a34537bbd9836f1e83d73d08545ff07c6" target="_top" xlink:title="Determine whether any of the versions has patch 1, i.e.">
<polygon fill="white" stroke="black" points="210.5,-101 210.5,-131 324.5,-131 324.5,-101 210.5,-101"/>
<text text-anchor="start" x="218.5" y="-119" font-family="Helvetica,sans-Serif" font-size="10.00">openage.convert.game</text>
<text text-anchor="middle" x="267.5" y="-108" font-family="Helvetica,sans-Serif" font-size="10.00">_versions.has_x1_p1</text>
</a>
</g>
</g>
<!-- Node139&#45;&gt;Node141 -->
<g id="edge2" class="edge"><title>Node139&#45;&gt;Node141</title>
<path fill="none" stroke="midnightblue" d="M129.098,-116C151.738,-116 177.28,-116 200.146,-116"/>
<polygon fill="midnightblue" stroke="midnightblue" points="200.444,-119.5 210.444,-116 200.443,-112.5 200.444,-119.5"/>
</g>
<!-- Node142 -->
<g id="node4" class="node"><title>Node142</title>
<g id="a_node4"><a xlink:href="namespaceopenage_1_1convert_1_1gamedata_1_1empiresdat.xhtml#a571729db3187f457aefbdb94af2364d0" target="_top" xlink:title=" ">
<polygon fill="white" stroke="black" points="165,-52 165,-82 370,-82 370,-52 165,-52"/>
<text text-anchor="start" x="173" y="-70" font-family="Helvetica,sans-Serif" font-size="10.00">openage.convert.gamedata.empiresdat.load</text>
<text text-anchor="middle" x="267.5" y="-59" font-family="Helvetica,sans-Serif" font-size="10.00">_gamespec</text>
</a>
</g>
</g>
<!-- Node139&#45;&gt;Node142 -->
<g id="edge3" class="edge"><title>Node139&#45;&gt;Node142</title>
<path fill="none" stroke="midnightblue" d="M127.173,-100.965C148.588,-95.7446 172.784,-89.8463 194.93,-84.4474"/>
<polygon fill="midnightblue" stroke="midnightblue" points="196.058,-87.7751 204.944,-82.0062 194.4,-80.9743 196.058,-87.7751"/>
</g>
<!-- Node143 -->
<g id="node5" class="node"><title>Node143</title>
<g id="a_node5"><a xlink:href="namespaceopenage_1_1log.xhtml#a3f1815b698faf5786fc5e20bcac7704b" target="_top" xlink:title="info message">
<polygon fill="white" stroke="black" points="410.5,-114.5 410.5,-133.5 497.5,-133.5 497.5,-114.5 410.5,-114.5"/>
<text text-anchor="middle" x="454" y="-121.5" font-family="Helvetica,sans-Serif" font-size="10.00">openage.log.info</text>
</a>
</g>
</g>
<!-- Node142&#45;&gt;Node143 -->
<g id="edge4" class="edge"><title>Node142&#45;&gt;Node143</title>
<path fill="none" stroke="midnightblue" d="M334.629,-82.0026C346.479,-85.0552 358.661,-88.4334 370,-92 379.597,-95.0186 400.924,-103.253 419.556,-110.613"/>
<polygon fill="midnightblue" stroke="midnightblue" points="418.391,-113.916 428.977,-114.349 420.972,-107.409 418.391,-113.916"/>
</g>
<!-- Node144 -->
<g id="node6" class="node"><title>Node144</title>
<g id="a_node6"><a xlink:href="namespaceopenage_1_1log.xhtml#a7ca418e1b1fcf210ff91cd25dc8e6a36" target="_top" xlink:title="warning message">
<polygon fill="white" stroke="black" points="408,-76.5 408,-95.5 500,-95.5 500,-76.5 408,-76.5"/>
<text text-anchor="middle" x="454" y="-83.5" font-family="Helvetica,sans-Serif" font-size="10.00">openage.log.warn</text>
</a>
</g>
</g>
<!-- Node142&#45;&gt;Node144 -->
<g id="edge5" class="edge"><title>Node142&#45;&gt;Node144</title>
<path fill="none" stroke="midnightblue" d="M370.194,-77.4726C379.681,-78.4496 389.033,-79.4126 397.844,-80.32"/>
<polygon fill="midnightblue" stroke="midnightblue" points="397.607,-83.814 407.913,-81.3569 398.324,-76.8509 397.607,-83.814"/>
</g>
<!-- Node145 -->
<g id="node7" class="node"><title>Node145</title>
<g id="a_node7"><a xlink:href="namespaceopenage_1_1log.xhtml#aad3d76b2466dbc4f81552935f2d84faa" target="_top" xlink:title="debug message">
<polygon fill="white" stroke="black" points="410,-38.5 410,-57.5 498,-57.5 498,-38.5 410,-38.5"/>
<text text-anchor="middle" x="454" y="-45.5" font-family="Helvetica,sans-Serif" font-size="10.00">openage.log.dbg</text>
</a>
</g>
</g>
<!-- Node142&#45;&gt;Node145 -->
<g id="edge6" class="edge"><title>Node142&#45;&gt;Node145</title>
<path fill="none" stroke="midnightblue" d="M370.194,-56.5274C380.27,-55.4898 390.193,-54.4679 399.478,-53.5118"/>
<polygon fill="midnightblue" stroke="midnightblue" points="400.073,-56.9691 409.662,-52.463 399.356,-50.0059 400.073,-56.9691"/>
</g>
<!-- Node146 -->
<g id="node8" class="node"><title>Node146</title>
<g id="a_node8"><a xlink:href="namespaceopenage_1_1log.xhtml#a173fdf777356d529586708570ee36be4" target="_top" xlink:title="spam message">
<polygon fill="white" stroke="black" points="406,-0.5 406,-19.5 502,-19.5 502,-0.5 406,-0.5"/>
<text text-anchor="middle" x="454" y="-7.5" font-family="Helvetica,sans-Serif" font-size="10.00">openage.log.spam</text>
</a>
</g>
</g>
<!-- Node142&#45;&gt;Node146 -->
<g id="edge7" class="edge"><title>Node142&#45;&gt;Node146</title>
<path fill="none" stroke="midnightblue" d="M317.458,-51.8747C347.028,-42.7393 384.272,-31.2329 412.234,-22.5944"/>
<polygon fill="midnightblue" stroke="midnightblue" points="413.563,-25.8472 422.084,-19.5513 411.496,-19.1591 413.563,-25.8472"/>
</g>
</g>
</svg>
        <g id="navigator" transform="translate(0 0)" fill="#404254">
                <rect fill="#f2f5e9" fill-opacity="0.5" stroke="#606060" stroke-width=".5" x="0" y="0" width="60" height="60"/>
                <use id="zoomplus" xlink:href="#zoomPlus" x="17" y="9" onmousedown="handleZoom(evt,'in')"/>
                <use id="zoomminus" xlink:href="#zoomMin" x="42" y="9" onmousedown="handleZoom(evt,'out')"/>
                <use id="reset" xlink:href="#resetDef" x="30" y="36" onmousedown="handleReset()"/>
                <g id="arrowUp" xlink:href="#dirArrow" transform="translate(30 24)" onmousedown="handlePan(0,-1)">
                  <use xlink:href="#rim" fill="#404040">
                        <set attributeName="fill" to="#808080" begin="arrowUp.mouseover" end="arrowUp.mouseout"/>
                  </use>
                  <path fill="none" stroke="white" stroke-width="1.5" d="M0,-3.0v7 M-2.5,-0.5L0,-3.0L2.5,-0.5"/>
                </g>
                <g id="arrowRight" xlink:href="#dirArrow" transform="rotate(90) translate(36 -43)" onmousedown="handlePan(1,0)">
                  <use xlink:href="#rim" fill="#404040">
                        <set attributeName="fill" to="#808080" begin="arrowRight.mouseover" end="arrowRight.mouseout"/>
                  </use>
                  <path fill="none" stroke="white" stroke-width="1.5" d="M0,-3.0v7 M-2.5,-0.5L0,-3.0L2.5,-0.5"/>
                </g>
                <g id="arrowDown" xlink:href="#dirArrow" transform="rotate(180) translate(-30 -48)" onmousedown="handlePan(0,1)">
                  <use xlink:href="#rim" fill="#404040">
                        <set attributeName="fill" to="#808080" begin="arrowDown.mouseover" end="arrowDown.mouseout"/>
                  </use>
                  <path fill="none" stroke="white" stroke-width="1.5" d="M0,-3.0v7 M-2.5,-0.5L0,-3.0L2.5,-0.5"/>
                </g>
                <g id="arrowLeft" xlink:href="#dirArrow" transform="rotate(270) translate(-36 17)" onmousedown="handlePan(-1,0)">
                  <use xlink:href="#rim" fill="#404040">
                        <set attributeName="fill" to="#808080" begin="arrowLeft.mouseover" end="arrowLeft.mouseout"/>
                  </use>
                  <path fill="none" stroke="white" stroke-width="1.5" d="M0,-3.0v7 M-2.5,-0.5L0,-3.0L2.5,-0.5"/>
                </g>
        </g>
        <svg viewBox="0 0 15 15" width="100%" height="30px" preserveAspectRatio="xMaxYMin meet">
         <g id="arrow_out" transform="scale(0.3 0.3)">
          <a xlink:href="namespaceopenage_1_1convert_1_1driver_af952f8f82261ef86e5c83facd56758f9_cgraph_org.svg" target="_base">
           <rect id="button" ry="5" rx="5" y="6" x="6" height="38" width="38"
                fill="#f2f5e9" fill-opacity="0.5" stroke="#606060" stroke-width="1.0"/>
           <path id="arrow"
             d="M 11.500037,31.436501 C 11.940474,20.09759 22.043105,11.32322 32.158766,21.979434 L 37.068811,17.246167 C 37.068811,17.246167 37.088388,32 37.088388,32 L 22.160133,31.978069 C 22.160133,31.978069 26.997745,27.140456 26.997745,27.140456 C 18.528582,18.264221 13.291696,25.230495 11.500037,31.436501 z"
             style="fill:#404040;"/>
          </a>
         </g>
        </svg>
</svg>
