<?xml version="1.0" encoding="UTF-8" standalone="no"?>
<!DOCTYPE svg PUBLIC "-//W3C//DTD SVG 1.1//EN"
 "http://www.w3.org/Graphics/SVG/1.1/DTD/svg11.dtd">
<!-- Generated by graphviz version 2.38.0 (20140413.2041)
 -->
<!-- Title: libopenage/renderer/opengl/render_target.h Pages: 1 -->
<svg width="518pt" height="173pt"
 viewBox="0.00 0.00 518.00 173.00" xmlns="http://www.w3.org/2000/svg" xmlns:xlink="http://www.w3.org/1999/xlink">
<g id="graph0" class="graph" transform="scale(1 1) rotate(0) translate(4 169)">
<title>libopenage/renderer/opengl/render_target.h</title>
<polygon fill="white" stroke="none" points="-4,4 -4,-169 514,-169 514,4 -4,4"/>
<!-- Node56 -->
<g id="node1" class="node"><title>Node56</title>
<g id="a_node1"><a xlink:title=" ">
<polygon fill="#bfbfbf" stroke="black" points="196.5,-134.5 196.5,-164.5 312.5,-164.5 312.5,-134.5 196.5,-134.5"/>
<text text-anchor="start" x="204.5" y="-152.5" font-family="Helvetica,sans-Serif" font-size="10.00">libopenage/renderer</text>
<text text-anchor="middle" x="254.5" y="-141.5" font-family="Helvetica,sans-Serif" font-size="10.00">/opengl/render_target.h</text>
</a>
</g>
</g>
<!-- Node57 -->
<g id="node2" class="node"><title>Node57</title>
<g id="a_node2"><a xlink:href="render__target_8cpp.xhtml" target="_top" xlink:title=" ">
<polygon fill="white" stroke="black" points="0,-67.5 0,-97.5 127,-97.5 127,-67.5 0,-67.5"/>
<text text-anchor="start" x="8" y="-85.5" font-family="Helvetica,sans-Serif" font-size="10.00">libopenage/renderer</text>
<text text-anchor="middle" x="63.5" y="-74.5" font-family="Helvetica,sans-Serif" font-size="10.00">/opengl/render_target.cpp</text>
</a>
</g>
</g>
<!-- Node56&#45;&gt;Node57 -->
<g id="edge1" class="edge"><title>Node56&#45;&gt;Node57</title>
<path fill="none" stroke="midnightblue" d="M203.346,-131.092C172.513,-120.599 133.753,-107.408 104.863,-97.5765"/>
<polygon fill="midnightblue" stroke="midnightblue" points="202.461,-134.488 213.056,-134.396 204.717,-127.861 202.461,-134.488"/>
</g>
<!-- Node58 -->
<g id="node3" class="node"><title>Node58</title>
<g id="a_node3"><a xlink:href="opengl_2renderer_8h.xhtml" target="_top" xlink:title=" ">
<polygon fill="white" stroke="black" points="145,-67.5 145,-97.5 246,-97.5 246,-67.5 145,-67.5"/>
<text text-anchor="start" x="153" y="-85.5" font-family="Helvetica,sans-Serif" font-size="10.00">libopenage/renderer</text>
<text text-anchor="middle" x="195.5" y="-74.5" font-family="Helvetica,sans-Serif" font-size="10.00">/opengl/renderer.h</text>
</a>
</g>
</g>
<!-- Node56&#45;&gt;Node58 -->
<g id="edge2" class="edge"><title>Node56&#45;&gt;Node58</title>
<path fill="none" stroke="midnightblue" d="M234.745,-126.736C226.016,-117.119 216.004,-106.089 208.277,-97.5765"/>
<polygon fill="midnightblue" stroke="midnightblue" points="232.385,-129.344 241.698,-134.396 237.568,-124.639 232.385,-129.344"/>
</g>
<!-- Node61 -->
<g id="node6" class="node"><title>Node61</title>
<g id="a_node6"><a xlink:href="renderer_2opengl_2texture_8cpp.xhtml" target="_top" xlink:title=" ">
<polygon fill="white" stroke="black" points="264,-67.5 264,-97.5 365,-97.5 365,-67.5 264,-67.5"/>
<text text-anchor="start" x="272" y="-85.5" font-family="Helvetica,sans-Serif" font-size="10.00">libopenage/renderer</text>
<text text-anchor="middle" x="314.5" y="-74.5" font-family="Helvetica,sans-Serif" font-size="10.00">/opengl/texture.cpp</text>
</a>
</g>
</g>
<!-- Node56&#45;&gt;Node61 -->
<g id="edge5" class="edge"><title>Node56&#45;&gt;Node61</title>
<path fill="none" stroke="midnightblue" d="M274.324,-127.024C283.263,-117.34 293.57,-106.174 301.506,-97.5765"/>
<polygon fill="midnightblue" stroke="midnightblue" points="271.73,-124.674 267.519,-134.396 276.874,-129.422 271.73,-124.674"/>
</g>
<!-- Node62 -->
<g id="node7" class="node"><title>Node62</title>
<g id="a_node7"><a xlink:href="opengl_2texture__array_8cpp.xhtml" target="_top" xlink:title=" ">
<polygon fill="white" stroke="black" points="383,-67.5 383,-97.5 510,-97.5 510,-67.5 383,-67.5"/>
<text text-anchor="start" x="391" y="-85.5" font-family="Helvetica,sans-Serif" font-size="10.00">libopenage/renderer</text>
<text text-anchor="middle" x="446.5" y="-74.5" font-family="Helvetica,sans-Serif" font-size="10.00">/opengl/texture_array.cpp</text>
</a>
</g>
</g>
<!-- Node56&#45;&gt;Node62 -->
<g id="edge6" class="edge"><title>Node56&#45;&gt;Node62</title>
<path fill="none" stroke="midnightblue" d="M305.922,-131.092C336.916,-120.599 375.879,-107.408 404.92,-97.5765"/>
<polygon fill="midnightblue" stroke="midnightblue" points="304.511,-127.874 296.161,-134.396 306.755,-134.504 304.511,-127.874"/>
</g>
<!-- Node59 -->
<g id="node4" class="node"><title>Node59</title>
<g id="a_node4"><a xlink:href="opengl_2renderer_8cpp.xhtml" target="_top" xlink:title=" ">
<polygon fill="white" stroke="black" points="82,-0.5 82,-30.5 187,-30.5 187,-0.5 82,-0.5"/>
<text text-anchor="start" x="90" y="-18.5" font-family="Helvetica,sans-Serif" font-size="10.00">libopenage/renderer</text>
<text text-anchor="middle" x="134.5" y="-7.5" font-family="Helvetica,sans-Serif" font-size="10.00">/opengl/renderer.cpp</text>
</a>
</g>
</g>
<!-- Node58&#45;&gt;Node59 -->
<g id="edge3" class="edge"><title>Node58&#45;&gt;Node59</title>
<path fill="none" stroke="midnightblue" d="M175.346,-60.0243C166.257,-50.3398 155.779,-39.1739 147.71,-30.5765"/>
<polygon fill="midnightblue" stroke="midnightblue" points="172.869,-62.4992 182.264,-67.396 177.973,-57.709 172.869,-62.4992"/>
</g>
<!-- Node60 -->
<g id="node5" class="node"><title>Node60</title>
<g id="a_node5"><a xlink:href="opengl_2window_8cpp.xhtml" target="_top" xlink:title=" ">
<polygon fill="white" stroke="black" points="205,-0.5 205,-30.5 306,-30.5 306,-0.5 205,-0.5"/>
<text text-anchor="start" x="213" y="-18.5" font-family="Helvetica,sans-Serif" font-size="10.00">libopenage/renderer</text>
<text text-anchor="middle" x="255.5" y="-7.5" font-family="Helvetica,sans-Serif" font-size="10.00">/opengl/window.cpp</text>
</a>
</g>
</g>
<!-- Node58&#45;&gt;Node60 -->
<g id="edge4" class="edge"><title>Node58&#45;&gt;Node60</title>
<path fill="none" stroke="midnightblue" d="M215.324,-60.0243C224.263,-50.3398 234.57,-39.1739 242.506,-30.5765"/>
<polygon fill="midnightblue" stroke="midnightblue" points="212.73,-57.6739 208.519,-67.396 217.874,-62.4219 212.73,-57.6739"/>
</g>
</g>
</svg>
