<?xml version="1.0" encoding="UTF-8" standalone="no"?>
<!DOCTYPE svg PUBLIC "-//W3C//DTD SVG 1.1//EN"
 "http://www.w3.org/Graphics/SVG/1.1/DTD/svg11.dtd">
<!-- Generated by graphviz version 2.38.0 (20140413.2041)
 -->
<!-- Title: libopenage/audio/opus_loading.h Pages: 1 -->
<svg width="468pt" height="173pt"
 viewBox="0.00 0.00 468.00 173.00" xmlns="http://www.w3.org/2000/svg" xmlns:xlink="http://www.w3.org/1999/xlink">
<g id="graph0" class="graph" transform="scale(1 1) rotate(0) translate(4 169)">
<title>libopenage/audio/opus_loading.h</title>
<polygon fill="white" stroke="none" points="-4,4 -4,-169 464,-169 464,4 -4,4"/>
<!-- Node41 -->
<g id="node1" class="node"><title>Node41</title>
<g id="a_node1"><a xlink:title=" ">
<polygon fill="#bfbfbf" stroke="black" points="212,-134.5 212,-164.5 325,-164.5 325,-134.5 212,-134.5"/>
<text text-anchor="start" x="220" y="-152.5" font-family="Helvetica,sans-Serif" font-size="10.00">libopenage/audio/opus</text>
<text text-anchor="middle" x="268.5" y="-141.5" font-family="Helvetica,sans-Serif" font-size="10.00">_loading.h</text>
</a>
</g>
</g>
<!-- Node42 -->
<g id="node2" class="node"><title>Node42</title>
<g id="a_node2"><a xlink:href="opus__dynamic__loader_8h.xhtml" target="_top" xlink:title=" ">
<polygon fill="white" stroke="black" points="77,-67.5 77,-97.5 190,-97.5 190,-67.5 77,-67.5"/>
<text text-anchor="start" x="85" y="-85.5" font-family="Helvetica,sans-Serif" font-size="10.00">libopenage/audio/opus</text>
<text text-anchor="middle" x="133.5" y="-74.5" font-family="Helvetica,sans-Serif" font-size="10.00">_dynamic_loader.h</text>
</a>
</g>
</g>
<!-- Node41&#45;&gt;Node42 -->
<g id="edge1" class="edge"><title>Node41&#45;&gt;Node42</title>
<path fill="none" stroke="midnightblue" d="M230.06,-129.992C208.662,-119.689 182.448,-107.068 162.736,-97.5765"/>
<polygon fill="midnightblue" stroke="midnightblue" points="228.679,-133.211 239.207,-134.396 231.715,-126.904 228.679,-133.211"/>
</g>
<!-- Node45 -->
<g id="node5" class="node"><title>Node45</title>
<g id="a_node5"><a xlink:href="opus__in__memory__loader_8cpp.xhtml" target="_top" xlink:title=" ">
<polygon fill="white" stroke="black" points="208.5,-67.5 208.5,-97.5 328.5,-97.5 328.5,-67.5 208.5,-67.5"/>
<text text-anchor="start" x="216.5" y="-85.5" font-family="Helvetica,sans-Serif" font-size="10.00">libopenage/audio/opus</text>
<text text-anchor="middle" x="268.5" y="-74.5" font-family="Helvetica,sans-Serif" font-size="10.00">_in_memory_loader.cpp</text>
</a>
</g>
</g>
<!-- Node41&#45;&gt;Node45 -->
<g id="edge4" class="edge"><title>Node41&#45;&gt;Node45</title>
<path fill="none" stroke="midnightblue" d="M268.5,-124.108C268.5,-115.154 268.5,-105.323 268.5,-97.5765"/>
<polygon fill="midnightblue" stroke="midnightblue" points="265,-124.396 268.5,-134.396 272,-124.396 265,-124.396"/>
</g>
<!-- Node46 -->
<g id="node6" class="node"><title>Node46</title>
<g id="a_node6"><a xlink:href="opus__loading_8cpp.xhtml" target="_top" xlink:title=" ">
<polygon fill="white" stroke="black" points="347,-67.5 347,-97.5 460,-97.5 460,-67.5 347,-67.5"/>
<text text-anchor="start" x="355" y="-85.5" font-family="Helvetica,sans-Serif" font-size="10.00">libopenage/audio/opus</text>
<text text-anchor="middle" x="403.5" y="-74.5" font-family="Helvetica,sans-Serif" font-size="10.00">_loading.cpp</text>
</a>
</g>
</g>
<!-- Node41&#45;&gt;Node46 -->
<g id="edge5" class="edge"><title>Node41&#45;&gt;Node46</title>
<path fill="none" stroke="midnightblue" d="M306.94,-129.992C328.338,-119.689 354.552,-107.068 374.264,-97.5765"/>
<polygon fill="midnightblue" stroke="midnightblue" points="305.285,-126.904 297.793,-134.396 308.321,-133.211 305.285,-126.904"/>
</g>
<!-- Node43 -->
<g id="node3" class="node"><title>Node43</title>
<g id="a_node3"><a xlink:href="dynamic__loader_8cpp.xhtml" target="_top" xlink:title=" ">
<polygon fill="white" stroke="black" points="0,-0.5 0,-30.5 129,-30.5 129,-0.5 0,-0.5"/>
<text text-anchor="start" x="8" y="-18.5" font-family="Helvetica,sans-Serif" font-size="10.00">libopenage/audio/dynamic</text>
<text text-anchor="middle" x="64.5" y="-7.5" font-family="Helvetica,sans-Serif" font-size="10.00">_loader.cpp</text>
</a>
</g>
</g>
<!-- Node42&#45;&gt;Node43 -->
<g id="edge2" class="edge"><title>Node42&#45;&gt;Node43</title>
<path fill="none" stroke="midnightblue" d="M111.008,-60.3115C100.657,-50.5612 88.6596,-39.259 79.4428,-30.5765"/>
<polygon fill="midnightblue" stroke="midnightblue" points="108.849,-63.0866 118.528,-67.396 113.649,-57.9914 108.849,-63.0866"/>
</g>
<!-- Node44 -->
<g id="node4" class="node"><title>Node44</title>
<g id="a_node4"><a xlink:href="opus__dynamic__loader_8cpp.xhtml" target="_top" xlink:title=" ">
<polygon fill="white" stroke="black" points="147,-0.5 147,-30.5 260,-30.5 260,-0.5 147,-0.5"/>
<text text-anchor="start" x="155" y="-18.5" font-family="Helvetica,sans-Serif" font-size="10.00">libopenage/audio/opus</text>
<text text-anchor="middle" x="203.5" y="-7.5" font-family="Helvetica,sans-Serif" font-size="10.00">_dynamic_loader.cpp</text>
</a>
</g>
</g>
<!-- Node42&#45;&gt;Node44 -->
<g id="edge3" class="edge"><title>Node42&#45;&gt;Node44</title>
<path fill="none" stroke="midnightblue" d="M156.318,-60.3115C166.819,-50.5612 178.99,-39.259 188.341,-30.5765"/>
<polygon fill="midnightblue" stroke="midnightblue" points="153.635,-58.0266 148.689,-67.396 158.399,-63.1562 153.635,-58.0266"/>
</g>
</g>
</svg>
