<?xml version="1.0" encoding="UTF-8" standalone="no"?>
<!DOCTYPE svg PUBLIC "-//W3C//DTD SVG 1.1//EN"
 "http://www.w3.org/Graphics/SVG/1.1/DTD/svg11.dtd">
<!-- Generated by graphviz version 2.38.0 (20140413.2041)
 -->
<!-- Title: C:/Users/Jameson/Documents/git&#45;projects/openage/libopenage/util/profiler.h Pages: 1 -->
<svg width="3840pt" height="206pt"
 viewBox="0.00 0.00 3840.00 206.00" xmlns="http://www.w3.org/2000/svg" xmlns:xlink="http://www.w3.org/1999/xlink">
<g id="graph0" class="graph" transform="scale(1 1) rotate(0) translate(4 202)">
<title>C:/Users/Jameson/Documents/git&#45;projects/openage/libopenage/util/profiler.h</title>
<polygon fill="white" stroke="none" points="-4,4 -4,-202 3836,-202 3836,4 -4,4"/>
<!-- Node6 -->
<g id="node1" class="node"><title>Node6</title>
<g id="a_node1"><a xlink:title=" ">
<polygon fill="#bfbfbf" stroke="black" points="2389,-156.5 2389,-197.5 2546,-197.5 2546,-156.5 2389,-156.5"/>
<text text-anchor="start" x="2397" y="-185.5" font-family="Helvetica,sans-Serif" font-size="10.00">C:/Users/Jameson/Documents</text>
<text text-anchor="start" x="2397" y="-174.5" font-family="Helvetica,sans-Serif" font-size="10.00">/git&#45;projects/openage/libopenage</text>
<text text-anchor="middle" x="2467.5" y="-163.5" font-family="Helvetica,sans-Serif" font-size="10.00">/util/profiler.h</text>
</a>
</g>
</g>
<!-- Node7 -->
<g id="node2" class="node"><title>Node7</title>
<g id="a_node2"><a xlink:href="engine_8h.xhtml" target="_top" xlink:title=" ">
<polygon fill="white" stroke="black" points="1925,-78.5 1925,-119.5 2082,-119.5 2082,-78.5 1925,-78.5"/>
<text text-anchor="start" x="1933" y="-107.5" font-family="Helvetica,sans-Serif" font-size="10.00">C:/Users/Jameson/Documents</text>
<text text-anchor="start" x="1933" y="-96.5" font-family="Helvetica,sans-Serif" font-size="10.00">/git&#45;projects/openage/libopenage</text>
<text text-anchor="middle" x="2003.5" y="-85.5" font-family="Helvetica,sans-Serif" font-size="10.00">/engine.h</text>
</a>
</g>
</g>
<!-- Node6&#45;&gt;Node7 -->
<g id="edge1" class="edge"><title>Node6&#45;&gt;Node7</title>
<path fill="none" stroke="midnightblue" d="M2378.81,-161.474C2293.07,-147.43 2164.41,-126.355 2082.21,-112.892"/>
<polygon fill="midnightblue" stroke="midnightblue" points="2378.35,-164.945 2388.79,-163.108 2379.49,-158.037 2378.35,-164.945"/>
</g>
<!-- Node29 -->
<g id="node24" class="node"><title>Node29</title>
<g id="a_node24"><a xlink:href="profiler_8cpp.xhtml" target="_top" xlink:title=" ">
<polygon fill="white" stroke="black" points="3675,-0.5 3675,-41.5 3832,-41.5 3832,-0.5 3675,-0.5"/>
<text text-anchor="start" x="3683" y="-29.5" font-family="Helvetica,sans-Serif" font-size="10.00">C:/Users/Jameson/Documents</text>
<text text-anchor="start" x="3683" y="-18.5" font-family="Helvetica,sans-Serif" font-size="10.00">/git&#45;projects/openage/libopenage</text>
<text text-anchor="middle" x="3753.5" y="-7.5" font-family="Helvetica,sans-Serif" font-size="10.00">/util/profiler.cpp</text>
</a>
</g>
</g>
<!-- Node6&#45;&gt;Node29 -->
<g id="edge24" class="edge"><title>Node6&#45;&gt;Node29</title>
<path fill="none" stroke="midnightblue" d="M2556.27,-169.583C2755.74,-154.4 3254.25,-112.184 3666.5,-42 3669.25,-41.5318 3672.04,-41.0306 3674.86,-40.5033"/>
<polygon fill="midnightblue" stroke="midnightblue" points="2555.85,-166.105 2546.14,-170.35 2556.38,-173.085 2555.85,-166.105"/>
</g>
<!-- Node8 -->
<g id="node3" class="node"><title>Node8</title>
<g id="a_node3"><a xlink:href="dynamic__resource_8cpp.xhtml" target="_top" xlink:title=" ">
<polygon fill="white" stroke="black" points="0,-0.5 0,-41.5 157,-41.5 157,-0.5 0,-0.5"/>
<text text-anchor="start" x="8" y="-29.5" font-family="Helvetica,sans-Serif" font-size="10.00">C:/Users/Jameson/Documents</text>
<text text-anchor="start" x="8" y="-18.5" font-family="Helvetica,sans-Serif" font-size="10.00">/git&#45;projects/openage/libopenage</text>
<text text-anchor="middle" x="78.5" y="-7.5" font-family="Helvetica,sans-Serif" font-size="10.00">/audio/dynamic_resource.cpp</text>
</a>
</g>
</g>
<!-- Node7&#45;&gt;Node8 -->
<g id="edge2" class="edge"><title>Node7&#45;&gt;Node8</title>
<path fill="none" stroke="midnightblue" d="M1914.71,-97.5935C1595.93,-95.7755 509.85,-86.3923 165.5,-42 162.733,-41.6433 159.925,-41.2379 157.096,-40.7924"/>
<polygon fill="midnightblue" stroke="midnightblue" points="1914.8,-101.094 1924.82,-97.6501 1914.84,-94.0941 1914.8,-101.094"/>
</g>
<!-- Node9 -->
<g id="node4" class="node"><title>Node9</title>
<g id="a_node4"><a xlink:href="audio_2resource_8cpp.xhtml" target="_top" xlink:title=" ">
<polygon fill="white" stroke="black" points="175,-0.5 175,-41.5 332,-41.5 332,-0.5 175,-0.5"/>
<text text-anchor="start" x="183" y="-29.5" font-family="Helvetica,sans-Serif" font-size="10.00">C:/Users/Jameson/Documents</text>
<text text-anchor="start" x="183" y="-18.5" font-family="Helvetica,sans-Serif" font-size="10.00">/git&#45;projects/openage/libopenage</text>
<text text-anchor="middle" x="253.5" y="-7.5" font-family="Helvetica,sans-Serif" font-size="10.00">/audio/resource.cpp</text>
</a>
</g>
</g>
<!-- Node7&#45;&gt;Node9 -->
<g id="edge3" class="edge"><title>Node7&#45;&gt;Node9</title>
<path fill="none" stroke="midnightblue" d="M1914.24,-97.257C1615,-94.4115 648.893,-82.259 340.5,-42 337.734,-41.6389 334.926,-41.2297 332.098,-40.7809"/>
<polygon fill="midnightblue" stroke="midnightblue" points="1914.57,-100.76 1924.6,-97.3543 1914.63,-93.7605 1914.57,-100.76"/>
</g>
<!-- Node10 -->
<g id="node5" class="node"><title>Node10</title>
<g id="a_node5"><a xlink:href="console_8cpp.xhtml" target="_top" xlink:title=" ">
<polygon fill="white" stroke="black" points="350,-0.5 350,-41.5 507,-41.5 507,-0.5 350,-0.5"/>
<text text-anchor="start" x="358" y="-29.5" font-family="Helvetica,sans-Serif" font-size="10.00">C:/Users/Jameson/Documents</text>
<text text-anchor="start" x="358" y="-18.5" font-family="Helvetica,sans-Serif" font-size="10.00">/git&#45;projects/openage/libopenage</text>
<text text-anchor="middle" x="428.5" y="-7.5" font-family="Helvetica,sans-Serif" font-size="10.00">/console/console.cpp</text>
</a>
</g>
</g>
<!-- Node7&#45;&gt;Node10 -->
<g id="edge4" class="edge"><title>Node7&#45;&gt;Node10</title>
<path fill="none" stroke="midnightblue" d="M1914.73,-96.8527C1637.24,-92.9203 788.423,-78.1777 515.5,-42 512.735,-41.6334 509.928,-41.2195 507.099,-40.7667"/>
<polygon fill="midnightblue" stroke="midnightblue" points="1914.71,-100.353 1924.76,-96.9936 1914.81,-93.3533 1914.71,-100.353"/>
</g>
<!-- Node11 -->
<g id="node6" class="node"><title>Node11</title>
<g id="a_node6"><a xlink:href="draw_8cpp.xhtml" target="_top" xlink:title=" ">
<polygon fill="white" stroke="black" points="525,-0.5 525,-41.5 682,-41.5 682,-0.5 525,-0.5"/>
<text text-anchor="start" x="533" y="-29.5" font-family="Helvetica,sans-Serif" font-size="10.00">C:/Users/Jameson/Documents</text>
<text text-anchor="start" x="533" y="-18.5" font-family="Helvetica,sans-Serif" font-size="10.00">/git&#45;projects/openage/libopenage</text>
<text text-anchor="middle" x="603.5" y="-7.5" font-family="Helvetica,sans-Serif" font-size="10.00">/console/draw.cpp</text>
</a>
</g>
</g>
<!-- Node7&#45;&gt;Node11 -->
<g id="edge5" class="edge"><title>Node7&#45;&gt;Node11</title>
<path fill="none" stroke="midnightblue" d="M1914.42,-96.3298C1659.11,-91.2044 927.87,-74.0698 690.5,-42 687.735,-41.6265 684.93,-41.2066 682.102,-40.7488"/>
<polygon fill="midnightblue" stroke="midnightblue" points="1914.69,-99.8358 1924.76,-96.536 1914.83,-92.8372 1914.69,-99.8358"/>
</g>
<!-- Node12 -->
<g id="node7" class="node"><title>Node12</title>
<g id="a_node7"><a xlink:href="engine_8cpp.xhtml" target="_top" xlink:title=" ">
<polygon fill="white" stroke="black" points="700,-0.5 700,-41.5 857,-41.5 857,-0.5 700,-0.5"/>
<text text-anchor="start" x="708" y="-29.5" font-family="Helvetica,sans-Serif" font-size="10.00">C:/Users/Jameson/Documents</text>
<text text-anchor="start" x="708" y="-18.5" font-family="Helvetica,sans-Serif" font-size="10.00">/git&#45;projects/openage/libopenage</text>
<text text-anchor="middle" x="778.5" y="-7.5" font-family="Helvetica,sans-Serif" font-size="10.00">/engine.cpp</text>
</a>
</g>
</g>
<!-- Node7&#45;&gt;Node12 -->
<g id="edge6" class="edge"><title>Node7&#45;&gt;Node12</title>
<path fill="none" stroke="midnightblue" d="M1914.77,-95.6635C1683.79,-89.2555 1067.74,-69.9979 865.5,-42 862.737,-41.6175 859.932,-41.1898 857.105,-40.7253"/>
<polygon fill="midnightblue" stroke="midnightblue" points="1914.72,-99.1634 1924.82,-95.9408 1914.92,-92.1661 1914.72,-99.1634"/>
</g>
<!-- Node13 -->
<g id="node8" class="node"><title>Node13</title>
<g id="a_node8"><a xlink:href="game__control_8cpp.xhtml" target="_top" xlink:title=" ">
<polygon fill="white" stroke="black" points="875,-0.5 875,-41.5 1032,-41.5 1032,-0.5 875,-0.5"/>
<text text-anchor="start" x="883" y="-29.5" font-family="Helvetica,sans-Serif" font-size="10.00">C:/Users/Jameson/Documents</text>
<text text-anchor="start" x="883" y="-18.5" font-family="Helvetica,sans-Serif" font-size="10.00">/git&#45;projects/openage/libopenage</text>
<text text-anchor="middle" x="953.5" y="-7.5" font-family="Helvetica,sans-Serif" font-size="10.00">/game_control.cpp</text>
</a>
</g>
</g>
<!-- Node7&#45;&gt;Node13 -->
<g id="edge7" class="edge"><title>Node7&#45;&gt;Node13</title>
<path fill="none" stroke="midnightblue" d="M1914.55,-97.7998C1744.08,-96.3187 1359.95,-87.6762 1040.5,-42 1037.74,-41.6051 1034.94,-41.1669 1032.11,-40.6934"/>
<polygon fill="midnightblue" stroke="midnightblue" points="1914.7,-101.301 1924.73,-97.8819 1914.75,-94.3013 1914.7,-101.301"/>
</g>
<!-- Node14 -->
<g id="node9" class="node"><title>Node14</title>
<g id="a_node9"><a xlink:href="game__renderer_8cpp.xhtml" target="_top" xlink:title=" ">
<polygon fill="white" stroke="black" points="1050,-0.5 1050,-41.5 1207,-41.5 1207,-0.5 1050,-0.5"/>
<text text-anchor="start" x="1058" y="-29.5" font-family="Helvetica,sans-Serif" font-size="10.00">C:/Users/Jameson/Documents</text>
<text text-anchor="start" x="1058" y="-18.5" font-family="Helvetica,sans-Serif" font-size="10.00">/git&#45;projects/openage/libopenage</text>
<text text-anchor="middle" x="1128.5" y="-7.5" font-family="Helvetica,sans-Serif" font-size="10.00">/game_renderer.cpp</text>
</a>
</g>
</g>
<!-- Node7&#45;&gt;Node14 -->
<g id="edge8" class="edge"><title>Node7&#45;&gt;Node14</title>
<path fill="none" stroke="midnightblue" d="M1914.49,-96.1627C1767.98,-92.1355 1467.18,-79.6395 1215.5,-42 1212.74,-41.5874 1209.94,-41.1339 1207.12,-40.6474"/>
<polygon fill="midnightblue" stroke="midnightblue" points="1914.68,-99.6689 1924.77,-96.4383 1914.87,-92.6714 1914.68,-99.6689"/>
</g>
<!-- Node15 -->
<g id="node10" class="node"><title>Node15</title>
<g id="a_node10"><a xlink:href="game__main_8cpp.xhtml" target="_top" xlink:title=" ">
<polygon fill="white" stroke="black" points="1225,-0.5 1225,-41.5 1382,-41.5 1382,-0.5 1225,-0.5"/>
<text text-anchor="start" x="1233" y="-29.5" font-family="Helvetica,sans-Serif" font-size="10.00">C:/Users/Jameson/Documents</text>
<text text-anchor="start" x="1233" y="-18.5" font-family="Helvetica,sans-Serif" font-size="10.00">/git&#45;projects/openage/libopenage</text>
<text text-anchor="middle" x="1303.5" y="-7.5" font-family="Helvetica,sans-Serif" font-size="10.00">/gamestate/game_main.cpp</text>
</a>
</g>
</g>
<!-- Node7&#45;&gt;Node15 -->
<g id="edge9" class="edge"><title>Node7&#45;&gt;Node15</title>
<path fill="none" stroke="midnightblue" d="M1914.49,-93.6407C1794.79,-86.9198 1575.58,-71.5893 1390.5,-42 1387.75,-41.5596 1384.95,-41.0823 1382.13,-40.5753"/>
<polygon fill="midnightblue" stroke="midnightblue" points="1914.52,-97.1477 1924.7,-94.2065 1914.91,-90.1584 1914.52,-97.1477"/>
</g>
<!-- Node16 -->
<g id="node11" class="node"><title>Node16</title>
<g id="a_node11"><a xlink:href="game__spec_8cpp.xhtml" target="_top" xlink:title=" ">
<polygon fill="white" stroke="black" points="1400,-0.5 1400,-41.5 1557,-41.5 1557,-0.5 1400,-0.5"/>
<text text-anchor="start" x="1408" y="-29.5" font-family="Helvetica,sans-Serif" font-size="10.00">C:/Users/Jameson/Documents</text>
<text text-anchor="start" x="1408" y="-18.5" font-family="Helvetica,sans-Serif" font-size="10.00">/git&#45;projects/openage/libopenage</text>
<text text-anchor="middle" x="1478.5" y="-7.5" font-family="Helvetica,sans-Serif" font-size="10.00">/gamestate/game_spec.cpp</text>
</a>
</g>
</g>
<!-- Node7&#45;&gt;Node16 -->
<g id="edge10" class="edge"><title>Node7&#45;&gt;Node16</title>
<path fill="none" stroke="midnightblue" d="M1914.79,-89.2575C1826.03,-79.9008 1685.77,-63.4578 1565.5,-42 1562.75,-41.51 1559.96,-40.99 1557.15,-40.4467"/>
<polygon fill="midnightblue" stroke="midnightblue" points="1914.5,-92.7471 1924.81,-90.3076 1915.23,-85.7852 1914.5,-92.7471"/>
</g>
<!-- Node17 -->
<g id="node12" class="node"><title>Node17</title>
<g id="a_node12"><a xlink:href="engine__link_8cpp.xhtml" target="_top" xlink:title=" ">
<polygon fill="white" stroke="black" points="1575,-0.5 1575,-41.5 1732,-41.5 1732,-0.5 1575,-0.5"/>
<text text-anchor="start" x="1583" y="-29.5" font-family="Helvetica,sans-Serif" font-size="10.00">C:/Users/Jameson/Documents</text>
<text text-anchor="start" x="1583" y="-18.5" font-family="Helvetica,sans-Serif" font-size="10.00">/git&#45;projects/openage/libopenage</text>
<text text-anchor="middle" x="1653.5" y="-7.5" font-family="Helvetica,sans-Serif" font-size="10.00">/gui/engine_link.cpp</text>
</a>
</g>
</g>
<!-- Node7&#45;&gt;Node17 -->
<g id="edge11" class="edge"><title>Node7&#45;&gt;Node17</title>
<path fill="none" stroke="midnightblue" d="M1914.87,-79.5016C1863.84,-68.7558 1798.51,-54.8423 1740.5,-42 1737.78,-41.397 1735.01,-40.7799 1732.21,-40.1537"/>
<polygon fill="midnightblue" stroke="midnightblue" points="1914.38,-82.9738 1924.88,-81.6073 1915.82,-76.1237 1914.38,-82.9738"/>
</g>
<!-- Node18 -->
<g id="node13" class="node"><title>Node18</title>
<g id="a_node13"><a xlink:href="game__control__link_8cpp.xhtml" target="_top" xlink:title=" ">
<polygon fill="white" stroke="black" points="1750,-0.5 1750,-41.5 1907,-41.5 1907,-0.5 1750,-0.5"/>
<text text-anchor="start" x="1758" y="-29.5" font-family="Helvetica,sans-Serif" font-size="10.00">C:/Users/Jameson/Documents</text>
<text text-anchor="start" x="1758" y="-18.5" font-family="Helvetica,sans-Serif" font-size="10.00">/git&#45;projects/openage/libopenage</text>
<text text-anchor="middle" x="1828.5" y="-7.5" font-family="Helvetica,sans-Serif" font-size="10.00">/gui/game_control_link.cpp</text>
</a>
</g>
</g>
<!-- Node7&#45;&gt;Node18 -->
<g id="edge12" class="edge"><title>Node7&#45;&gt;Node18</title>
<path fill="none" stroke="midnightblue" d="M1948.99,-74.3291C1924.71,-63.7835 1896.46,-51.5129 1873.41,-41.5056"/>
<polygon fill="midnightblue" stroke="midnightblue" points="1947.87,-77.655 1958.43,-78.4281 1950.65,-71.2343 1947.87,-77.655"/>
</g>
<!-- Node19 -->
<g id="node14" class="node"><title>Node19</title>
<g id="a_node14"><a xlink:href="game__main__link_8cpp.xhtml" target="_top" xlink:title=" ">
<polygon fill="white" stroke="black" points="1925,-0.5 1925,-41.5 2082,-41.5 2082,-0.5 1925,-0.5"/>
<text text-anchor="start" x="1933" y="-29.5" font-family="Helvetica,sans-Serif" font-size="10.00">C:/Users/Jameson/Documents</text>
<text text-anchor="start" x="1933" y="-18.5" font-family="Helvetica,sans-Serif" font-size="10.00">/git&#45;projects/openage/libopenage</text>
<text text-anchor="middle" x="2003.5" y="-7.5" font-family="Helvetica,sans-Serif" font-size="10.00">/gui/game_main_link.cpp</text>
</a>
</g>
</g>
<!-- Node7&#45;&gt;Node19 -->
<g id="edge13" class="edge"><title>Node7&#45;&gt;Node19</title>
<path fill="none" stroke="midnightblue" d="M2003.5,-68.2965C2003.5,-59.3009 2003.5,-49.6532 2003.5,-41.5056"/>
<polygon fill="midnightblue" stroke="midnightblue" points="2000,-68.4281 2003.5,-78.4281 2007,-68.4281 2000,-68.4281"/>
</g>
<!-- Node20 -->
<g id="node15" class="node"><title>Node20</title>
<g id="a_node15"><a xlink:href="gui_2gui_8cpp.xhtml" target="_top" xlink:title=" ">
<polygon fill="white" stroke="black" points="2100,-0.5 2100,-41.5 2257,-41.5 2257,-0.5 2100,-0.5"/>
<text text-anchor="start" x="2108" y="-29.5" font-family="Helvetica,sans-Serif" font-size="10.00">C:/Users/Jameson/Documents</text>
<text text-anchor="start" x="2108" y="-18.5" font-family="Helvetica,sans-Serif" font-size="10.00">/git&#45;projects/openage/libopenage</text>
<text text-anchor="middle" x="2178.5" y="-7.5" font-family="Helvetica,sans-Serif" font-size="10.00">/gui/gui.cpp</text>
</a>
</g>
</g>
<!-- Node7&#45;&gt;Node20 -->
<g id="edge14" class="edge"><title>Node7&#45;&gt;Node20</title>
<path fill="none" stroke="midnightblue" d="M2058.01,-74.3291C2082.29,-63.7835 2110.54,-51.5129 2133.59,-41.5056"/>
<polygon fill="midnightblue" stroke="midnightblue" points="2056.35,-71.2343 2048.57,-78.4281 2059.13,-77.655 2056.35,-71.2343"/>
</g>
<!-- Node21 -->
<g id="node16" class="node"><title>Node21</title>
<g id="a_node16"><a xlink:href="main_8cpp.xhtml" target="_top" xlink:title=" ">
<polygon fill="white" stroke="black" points="2275,-0.5 2275,-41.5 2432,-41.5 2432,-0.5 2275,-0.5"/>
<text text-anchor="start" x="2283" y="-29.5" font-family="Helvetica,sans-Serif" font-size="10.00">C:/Users/Jameson/Documents</text>
<text text-anchor="start" x="2283" y="-18.5" font-family="Helvetica,sans-Serif" font-size="10.00">/git&#45;projects/openage/libopenage</text>
<text text-anchor="middle" x="2353.5" y="-7.5" font-family="Helvetica,sans-Serif" font-size="10.00">/main.cpp</text>
</a>
</g>
</g>
<!-- Node7&#45;&gt;Node21 -->
<g id="edge15" class="edge"><title>Node7&#45;&gt;Node21</title>
<path fill="none" stroke="midnightblue" d="M2092.05,-79.3692C2142.85,-68.608 2207.8,-54.7228 2265.5,-42 2268.56,-41.3253 2271.68,-40.6339 2274.83,-39.9326"/>
<polygon fill="midnightblue" stroke="midnightblue" points="2091.15,-75.9834 2082.09,-81.4786 2092.6,-82.8316 2091.15,-75.9834"/>
</g>
<!-- Node22 -->
<g id="node17" class="node"><title>Node22</title>
<g id="a_node17"><a xlink:href="terrain_8cpp.xhtml" target="_top" xlink:title=" ">
<polygon fill="white" stroke="black" points="2450,-0.5 2450,-41.5 2607,-41.5 2607,-0.5 2450,-0.5"/>
<text text-anchor="start" x="2458" y="-29.5" font-family="Helvetica,sans-Serif" font-size="10.00">C:/Users/Jameson/Documents</text>
<text text-anchor="start" x="2458" y="-18.5" font-family="Helvetica,sans-Serif" font-size="10.00">/git&#45;projects/openage/libopenage</text>
<text text-anchor="middle" x="2528.5" y="-7.5" font-family="Helvetica,sans-Serif" font-size="10.00">/terrain/terrain.cpp</text>
</a>
</g>
</g>
<!-- Node7&#45;&gt;Node22 -->
<g id="edge16" class="edge"><title>Node7&#45;&gt;Node22</title>
<path fill="none" stroke="midnightblue" d="M2092.4,-89.1379C2180.97,-79.7152 2320.66,-63.2458 2440.5,-42 2443.59,-41.453 2446.73,-40.8694 2449.89,-40.2583"/>
<polygon fill="midnightblue" stroke="midnightblue" points="2091.97,-85.6639 2082.39,-90.1958 2092.71,-92.6252 2091.97,-85.6639"/>
</g>
<!-- Node23 -->
<g id="node18" class="node"><title>Node23</title>
<g id="a_node18"><a xlink:href="terrain__chunk_8cpp.xhtml" target="_top" xlink:title=" ">
<polygon fill="white" stroke="black" points="2625,-0.5 2625,-41.5 2782,-41.5 2782,-0.5 2625,-0.5"/>
<text text-anchor="start" x="2633" y="-29.5" font-family="Helvetica,sans-Serif" font-size="10.00">C:/Users/Jameson/Documents</text>
<text text-anchor="start" x="2633" y="-18.5" font-family="Helvetica,sans-Serif" font-size="10.00">/git&#45;projects/openage/libopenage</text>
<text text-anchor="middle" x="2703.5" y="-7.5" font-family="Helvetica,sans-Serif" font-size="10.00">/terrain/terrain_chunk.cpp</text>
</a>
</g>
</g>
<!-- Node7&#45;&gt;Node23 -->
<g id="edge17" class="edge"><title>Node7&#45;&gt;Node23</title>
<path fill="none" stroke="midnightblue" d="M2092.36,-93.5623C2211.85,-86.7538 2430.68,-71.3257 2615.5,-42 2618.59,-41.5089 2621.74,-40.9725 2624.92,-40.4009"/>
<polygon fill="midnightblue" stroke="midnightblue" points="2091.95,-90.0794 2082.16,-94.1357 2092.35,-97.0683 2091.95,-90.0794"/>
</g>
<!-- Node24 -->
<g id="node19" class="node"><title>Node24</title>
<g id="a_node19"><a xlink:href="terrain__object_8cpp.xhtml" target="_top" xlink:title=" ">
<polygon fill="white" stroke="black" points="2800,-0.5 2800,-41.5 2957,-41.5 2957,-0.5 2800,-0.5"/>
<text text-anchor="start" x="2808" y="-29.5" font-family="Helvetica,sans-Serif" font-size="10.00">C:/Users/Jameson/Documents</text>
<text text-anchor="start" x="2808" y="-18.5" font-family="Helvetica,sans-Serif" font-size="10.00">/git&#45;projects/openage/libopenage</text>
<text text-anchor="middle" x="2878.5" y="-7.5" font-family="Helvetica,sans-Serif" font-size="10.00">/terrain/terrain_object.cpp</text>
</a>
</g>
</g>
<!-- Node7&#45;&gt;Node24 -->
<g id="edge18" class="edge"><title>Node7&#45;&gt;Node24</title>
<path fill="none" stroke="midnightblue" d="M2092.39,-96.0836C2238.69,-91.9438 2539.09,-79.2912 2790.5,-42 2793.6,-41.5402 2796.75,-41.0302 2799.93,-40.4807"/>
<polygon fill="midnightblue" stroke="midnightblue" points="2092.02,-92.5922 2082.12,-96.3671 2092.22,-99.5896 2092.02,-92.5922"/>
</g>
<!-- Node25 -->
<g id="node20" class="node"><title>Node25</title>
<g id="a_node20"><a xlink:href="unit_2action_8cpp.xhtml" target="_top" xlink:title=" ">
<polygon fill="white" stroke="black" points="2975,-0.5 2975,-41.5 3132,-41.5 3132,-0.5 2975,-0.5"/>
<text text-anchor="start" x="2983" y="-29.5" font-family="Helvetica,sans-Serif" font-size="10.00">C:/Users/Jameson/Documents</text>
<text text-anchor="start" x="2983" y="-18.5" font-family="Helvetica,sans-Serif" font-size="10.00">/git&#45;projects/openage/libopenage</text>
<text text-anchor="middle" x="3053.5" y="-7.5" font-family="Helvetica,sans-Serif" font-size="10.00">/unit/action.cpp</text>
</a>
</g>
</g>
<!-- Node7&#45;&gt;Node25 -->
<g id="edge19" class="edge"><title>Node7&#45;&gt;Node25</title>
<path fill="none" stroke="midnightblue" d="M2092.45,-97.7998C2262.92,-96.3187 2647.05,-87.6762 2966.5,-42 2969.26,-41.6051 2972.06,-41.1669 2974.89,-40.6934"/>
<polygon fill="midnightblue" stroke="midnightblue" points="2092.25,-94.3013 2082.27,-97.8819 2092.3,-101.301 2092.25,-94.3013"/>
</g>
<!-- Node26 -->
<g id="node21" class="node"><title>Node26</title>
<g id="a_node21"><a xlink:href="producer_8cpp.xhtml" target="_top" xlink:title=" ">
<polygon fill="white" stroke="black" points="3150,-0.5 3150,-41.5 3307,-41.5 3307,-0.5 3150,-0.5"/>
<text text-anchor="start" x="3158" y="-29.5" font-family="Helvetica,sans-Serif" font-size="10.00">C:/Users/Jameson/Documents</text>
<text text-anchor="start" x="3158" y="-18.5" font-family="Helvetica,sans-Serif" font-size="10.00">/git&#45;projects/openage/libopenage</text>
<text text-anchor="middle" x="3228.5" y="-7.5" font-family="Helvetica,sans-Serif" font-size="10.00">/unit/producer.cpp</text>
</a>
</g>
</g>
<!-- Node7&#45;&gt;Node26 -->
<g id="edge20" class="edge"><title>Node7&#45;&gt;Node26</title>
<path fill="none" stroke="midnightblue" d="M2092.23,-95.6635C2323.21,-89.2555 2939.26,-69.9979 3141.5,-42 3144.26,-41.6175 3147.07,-41.1898 3149.9,-40.7253"/>
<polygon fill="midnightblue" stroke="midnightblue" points="2092.08,-92.1661 2082.18,-95.9408 2092.28,-99.1634 2092.08,-92.1661"/>
</g>
<!-- Node27 -->
<g id="node22" class="node"><title>Node27</title>
<g id="a_node22"><a xlink:href="selection_8cpp.xhtml" target="_top" xlink:title=" ">
<polygon fill="white" stroke="black" points="3325,-0.5 3325,-41.5 3482,-41.5 3482,-0.5 3325,-0.5"/>
<text text-anchor="start" x="3333" y="-29.5" font-family="Helvetica,sans-Serif" font-size="10.00">C:/Users/Jameson/Documents</text>
<text text-anchor="start" x="3333" y="-18.5" font-family="Helvetica,sans-Serif" font-size="10.00">/git&#45;projects/openage/libopenage</text>
<text text-anchor="middle" x="3403.5" y="-7.5" font-family="Helvetica,sans-Serif" font-size="10.00">/unit/selection.cpp</text>
</a>
</g>
</g>
<!-- Node7&#45;&gt;Node27 -->
<g id="edge21" class="edge"><title>Node7&#45;&gt;Node27</title>
<path fill="none" stroke="midnightblue" d="M2092.58,-96.3298C2347.89,-91.2044 3079.13,-74.0698 3316.5,-42 3319.26,-41.6265 3322.07,-41.2066 3324.9,-40.7488"/>
<polygon fill="midnightblue" stroke="midnightblue" points="2092.17,-92.8372 2082.24,-96.536 2092.31,-99.8358 2092.17,-92.8372"/>
</g>
<!-- Node28 -->
<g id="node23" class="node"><title>Node28</title>
<g id="a_node23"><a xlink:href="unit_8cpp.xhtml" target="_top" xlink:title=" ">
<polygon fill="white" stroke="black" points="3500,-0.5 3500,-41.5 3657,-41.5 3657,-0.5 3500,-0.5"/>
<text text-anchor="start" x="3508" y="-29.5" font-family="Helvetica,sans-Serif" font-size="10.00">C:/Users/Jameson/Documents</text>
<text text-anchor="start" x="3508" y="-18.5" font-family="Helvetica,sans-Serif" font-size="10.00">/git&#45;projects/openage/libopenage</text>
<text text-anchor="middle" x="3578.5" y="-7.5" font-family="Helvetica,sans-Serif" font-size="10.00">/unit/unit.cpp</text>
</a>
</g>
</g>
<!-- Node7&#45;&gt;Node28 -->
<g id="edge22" class="edge"><title>Node7&#45;&gt;Node28</title>
<path fill="none" stroke="midnightblue" d="M2092.27,-96.8527C2369.76,-92.9203 3218.58,-78.1777 3491.5,-42 3494.27,-41.6334 3497.07,-41.2195 3499.9,-40.7667"/>
<polygon fill="midnightblue" stroke="midnightblue" points="2092.19,-93.3533 2082.24,-96.9936 2092.29,-100.353 2092.19,-93.3533"/>
</g>
<!-- Node7&#45;&gt;Node29 -->
<g id="edge23" class="edge"><title>Node7&#45;&gt;Node29</title>
<path fill="none" stroke="midnightblue" d="M2092.47,-96.0063C2414.76,-88.6461 3510.42,-62.3748 3666.5,-42 3669.27,-41.6389 3672.07,-41.2297 3674.9,-40.7809"/>
<polygon fill="midnightblue" stroke="midnightblue" points="2092.16,-92.5123 2082.25,-96.2393 2092.32,-99.5104 2092.16,-92.5123"/>
</g>
</g>
</svg>
