<?xml version="1.0" encoding="UTF-8" standalone="no"?>
<!DOCTYPE svg PUBLIC "-//W3C//DTD SVG 1.1//EN"
 "http://www.w3.org/Graphics/SVG/1.1/DTD/svg11.dtd">
<!-- Generated by graphviz version 2.38.0 (20140413.2041)
 -->
<!-- Title: libopenage/util/quaternion.h Pages: 1 -->
<svg width="300pt" height="95pt"
 viewBox="0.00 0.00 299.50 95.00" xmlns="http://www.w3.org/2000/svg" xmlns:xlink="http://www.w3.org/1999/xlink">
<g id="graph0" class="graph" transform="scale(1 1) rotate(0) translate(4 91)">
<title>libopenage/util/quaternion.h</title>
<polygon fill="white" stroke="none" points="-4,4 -4,-91 295.5,-91 295.5,4 -4,4"/>
<!-- Node38 -->
<g id="node1" class="node"><title>Node38</title>
<g id="a_node1"><a xlink:title=" ">
<polygon fill="#bfbfbf" stroke="black" points="82.5,-67.5 82.5,-86.5 217.5,-86.5 217.5,-67.5 82.5,-67.5"/>
<text text-anchor="middle" x="150" y="-74.5" font-family="Helvetica,sans-Serif" font-size="10.00">libopenage/util/quaternion.h</text>
</a>
</g>
</g>
<!-- Node39 -->
<g id="node2" class="node"><title>Node39</title>
<g id="a_node2"><a xlink:href="quaternion_8cpp.xhtml" target="_top" xlink:title=" ">
<polygon fill="white" stroke="black" points="0,-6 0,-25 146,-25 146,-6 0,-6"/>
<text text-anchor="middle" x="73" y="-13" font-family="Helvetica,sans-Serif" font-size="10.00">libopenage/util/quaternion.cpp</text>
</a>
</g>
</g>
<!-- Node38&#45;&gt;Node39 -->
<g id="edge1" class="edge"><title>Node38&#45;&gt;Node39</title>
<path fill="none" stroke="midnightblue" d="M130.968,-61.2938C116.198,-49.8803 96.2393,-34.4577 84.0118,-25.0091"/>
<polygon fill="midnightblue" stroke="midnightblue" points="128.915,-64.1301 138.968,-67.4751 133.195,-58.5911 128.915,-64.1301"/>
</g>
<!-- Node40 -->
<g id="node3" class="node"><title>Node40</title>
<g id="a_node3"><a xlink:href="quaternion__test_8cpp.xhtml" target="_top" xlink:title=" ">
<polygon fill="white" stroke="black" points="164.5,-0.5 164.5,-30.5 291.5,-30.5 291.5,-0.5 164.5,-0.5"/>
<text text-anchor="start" x="172.5" y="-18.5" font-family="Helvetica,sans-Serif" font-size="10.00">libopenage/util/quaternion</text>
<text text-anchor="middle" x="228" y="-7.5" font-family="Helvetica,sans-Serif" font-size="10.00">_test.cpp</text>
</a>
</g>
</g>
<!-- Node38&#45;&gt;Node40 -->
<g id="edge2" class="edge"><title>Node38&#45;&gt;Node40</title>
<path fill="none" stroke="midnightblue" d="M169.408,-61.1955C181.707,-51.8129 197.519,-39.7512 209.617,-30.523"/>
<polygon fill="midnightblue" stroke="midnightblue" points="167.004,-58.6272 161.175,-67.4751 171.249,-64.1928 167.004,-58.6272"/>
</g>
</g>
</svg>
