<?xml version="1.0" encoding="UTF-8" standalone="no"?>
<!DOCTYPE svg PUBLIC "-//W3C//DTD SVG 1.1//EN"
 "http://www.w3.org/Graphics/SVG/1.1/DTD/svg11.dtd">
<!-- Generated by graphviz version 2.38.0 (20140413.2041)
 -->
<!-- Title: libopenage/curve/queue_filter_iterator.h Pages: 1 -->
<svg width="347pt" height="173pt"
 viewBox="0.00 0.00 346.50 173.00" xmlns="http://www.w3.org/2000/svg" xmlns:xlink="http://www.w3.org/1999/xlink">
<g id="graph0" class="graph" transform="scale(1 1) rotate(0) translate(4 169)">
<title>libopenage/curve/queue_filter_iterator.h</title>
<polygon fill="white" stroke="none" points="-4,4 -4,-169 342.5,-169 342.5,4 -4,4"/>
<!-- Node42 -->
<g id="node1" class="node"><title>Node42</title>
<g id="a_node1"><a xlink:title=" ">
<polygon fill="#bfbfbf" stroke="black" points="150.5,-134.5 150.5,-164.5 268.5,-164.5 268.5,-134.5 150.5,-134.5"/>
<text text-anchor="start" x="158.5" y="-152.5" font-family="Helvetica,sans-Serif" font-size="10.00">libopenage/curve/queue</text>
<text text-anchor="middle" x="209.5" y="-141.5" font-family="Helvetica,sans-Serif" font-size="10.00">_filter_iterator.h</text>
</a>
</g>
</g>
<!-- Node43 -->
<g id="node2" class="node"><title>Node43</title>
<g id="a_node2"><a xlink:href="queue_8h.xhtml" target="_top" xlink:title=" ">
<polygon fill="white" stroke="black" points="76.5,-73 76.5,-92 202.5,-92 202.5,-73 76.5,-73"/>
<text text-anchor="middle" x="139.5" y="-80" font-family="Helvetica,sans-Serif" font-size="10.00">libopenage/curve/queue.h</text>
</a>
</g>
</g>
<!-- Node42&#45;&gt;Node43 -->
<g id="edge1" class="edge"><title>Node42&#45;&gt;Node43</title>
<path fill="none" stroke="midnightblue" d="M186.707,-127.335C173.855,-115.401 158.493,-101.136 148.863,-92.1945"/>
<polygon fill="midnightblue" stroke="midnightblue" points="184.601,-130.156 194.311,-134.396 189.365,-125.027 184.601,-130.156"/>
</g>
<!-- Node46 -->
<g id="node5" class="node"><title>Node46</title>
<g id="a_node5"><a xlink:href="queue__filter__iterator_8cpp.xhtml" target="_top" xlink:title=" ">
<polygon fill="white" stroke="black" points="220.5,-67.5 220.5,-97.5 338.5,-97.5 338.5,-67.5 220.5,-67.5"/>
<text text-anchor="start" x="228.5" y="-85.5" font-family="Helvetica,sans-Serif" font-size="10.00">libopenage/curve/queue</text>
<text text-anchor="middle" x="279.5" y="-74.5" font-family="Helvetica,sans-Serif" font-size="10.00">_filter_iterator.cpp</text>
</a>
</g>
</g>
<!-- Node42&#45;&gt;Node46 -->
<g id="edge4" class="edge"><title>Node42&#45;&gt;Node46</title>
<path fill="none" stroke="midnightblue" d="M232.318,-127.311C242.819,-117.561 254.99,-106.259 264.341,-97.5765"/>
<polygon fill="midnightblue" stroke="midnightblue" points="229.635,-125.027 224.689,-134.396 234.399,-130.156 229.635,-125.027"/>
</g>
<!-- Node44 -->
<g id="node3" class="node"><title>Node44</title>
<g id="a_node3"><a xlink:href="queue_8cpp.xhtml" target="_top" xlink:title=" ">
<polygon fill="white" stroke="black" points="0,-6 0,-25 137,-25 137,-6 0,-6"/>
<text text-anchor="middle" x="68.5" y="-13" font-family="Helvetica,sans-Serif" font-size="10.00">libopenage/curve/queue.cpp</text>
</a>
</g>
</g>
<!-- Node43&#45;&gt;Node44 -->
<g id="edge2" class="edge"><title>Node43&#45;&gt;Node44</title>
<path fill="none" stroke="midnightblue" d="M122.412,-65.8564C108.454,-53.0777 89.2446,-35.4915 77.9237,-25.1273"/>
<polygon fill="midnightblue" stroke="midnightblue" points="120.185,-68.5628 129.925,-72.7338 124.912,-63.3997 120.185,-68.5628"/>
</g>
<!-- Node45 -->
<g id="node4" class="node"><title>Node45</title>
<g id="a_node4"><a xlink:href="container_8cpp.xhtml" target="_top" xlink:title=" ">
<polygon fill="white" stroke="black" points="155,-0.5 155,-30.5 268,-30.5 268,-0.5 155,-0.5"/>
<text text-anchor="start" x="163" y="-18.5" font-family="Helvetica,sans-Serif" font-size="10.00">libopenage/curve/tests</text>
<text text-anchor="middle" x="211.5" y="-7.5" font-family="Helvetica,sans-Serif" font-size="10.00">/container.cpp</text>
</a>
</g>
</g>
<!-- Node43&#45;&gt;Node45 -->
<g id="edge3" class="edge"><title>Node43&#45;&gt;Node45</title>
<path fill="none" stroke="midnightblue" d="M156.749,-65.928C168.656,-55.1788 184.359,-41.0024 195.894,-30.589"/>
<polygon fill="midnightblue" stroke="midnightblue" points="154.288,-63.4348 149.21,-72.7338 158.978,-68.6307 154.288,-63.4348"/>
</g>
</g>
</svg>
