<?xml version="1.0" encoding="UTF-8" standalone="no"?>
<!DOCTYPE svg PUBLIC "-//W3C//DTD SVG 1.1//EN"
 "http://www.w3.org/Graphics/SVG/1.1/DTD/svg11.dtd">
<!-- Generated by graphviz version 2.38.0 (20140413.2041)
 -->
<!-- Title: libopenage/gui/guisys/private/livereload/recursive_directory_watcher_worker.h Pages: 1 -->
<svg width="338pt" height="106pt"
 viewBox="0.00 0.00 338.00 106.00" xmlns="http://www.w3.org/2000/svg" xmlns:xlink="http://www.w3.org/1999/xlink">
<g id="graph0" class="graph" transform="scale(1 1) rotate(0) translate(4 102)">
<title>libopenage/gui/guisys/private/livereload/recursive_directory_watcher_worker.h</title>
<polygon fill="white" stroke="none" points="-4,4 -4,-102 334,-102 334,4 -4,4"/>
<!-- Node0 -->
<g id="node1" class="node"><title>Node0</title>
<g id="a_node1"><a xlink:title=" ">
<polygon fill="#bfbfbf" stroke="black" points="108,-56.5 108,-97.5 248,-97.5 248,-56.5 108,-56.5"/>
<text text-anchor="start" x="116" y="-85.5" font-family="Helvetica,sans-Serif" font-size="10.00">libopenage/gui/guisys</text>
<text text-anchor="start" x="116" y="-74.5" font-family="Helvetica,sans-Serif" font-size="10.00">/private/livereload/recursive</text>
<text text-anchor="middle" x="178" y="-63.5" font-family="Helvetica,sans-Serif" font-size="10.00">_directory_watcher_worker.h</text>
</a>
</g>
</g>
<!-- Node1 -->
<g id="node2" class="node"><title>Node1</title>
<g id="a_node2"><a xlink:title=" ">
<polygon fill="white" stroke="#bfbfbf" points="0,-0.5 0,-19.5 52,-19.5 52,-0.5 0,-0.5"/>
<text text-anchor="middle" x="26" y="-7.5" font-family="Helvetica,sans-Serif" font-size="10.00">memory</text>
</a>
</g>
</g>
<!-- Node0&#45;&gt;Node1 -->
<g id="edge1" class="edge"><title>Node0&#45;&gt;Node1</title>
<path fill="none" stroke="midnightblue" d="M132.395,-56.4979C107.522,-45.8614 77.4486,-33.001 55.6294,-23.6705"/>
<polygon fill="midnightblue" stroke="midnightblue" points="56.8043,-20.3663 46.2335,-19.6525 54.0519,-26.8025 56.8043,-20.3663"/>
</g>
<!-- Node2 -->
<g id="node3" class="node"><title>Node2</title>
<g id="a_node3"><a xlink:title=" ">
<polygon fill="white" stroke="#bfbfbf" points="70,-0.5 70,-19.5 180,-19.5 180,-0.5 70,-0.5"/>
<text text-anchor="middle" x="125" y="-7.5" font-family="Helvetica,sans-Serif" font-size="10.00">QFileSystemWatcher</text>
</a>
</g>
</g>
<!-- Node0&#45;&gt;Node2 -->
<g id="edge2" class="edge"><title>Node0&#45;&gt;Node2</title>
<path fill="none" stroke="midnightblue" d="M162.098,-56.4979C154.597,-47.2987 145.74,-36.4362 138.562,-27.6323"/>
<polygon fill="midnightblue" stroke="midnightblue" points="141.087,-25.1909 132.055,-19.6525 135.662,-29.6145 141.087,-25.1909"/>
</g>
<!-- Node3 -->
<g id="node4" class="node"><title>Node3</title>
<g id="a_node4"><a xlink:title=" ">
<polygon fill="white" stroke="#bfbfbf" points="198.5,-0.5 198.5,-19.5 263.5,-19.5 263.5,-0.5 198.5,-0.5"/>
<text text-anchor="middle" x="231" y="-7.5" font-family="Helvetica,sans-Serif" font-size="10.00">QStringList</text>
</a>
</g>
</g>
<!-- Node0&#45;&gt;Node3 -->
<g id="edge3" class="edge"><title>Node0&#45;&gt;Node3</title>
<path fill="none" stroke="midnightblue" d="M193.902,-56.4979C201.403,-47.2987 210.26,-36.4362 217.438,-27.6323"/>
<polygon fill="midnightblue" stroke="midnightblue" points="220.338,-29.6145 223.945,-19.6525 214.913,-25.1909 220.338,-29.6145"/>
</g>
<!-- Node4 -->
<g id="node5" class="node"><title>Node4</title>
<g id="a_node5"><a xlink:title=" ">
<polygon fill="white" stroke="#bfbfbf" points="282,-0.5 282,-19.5 330,-19.5 330,-0.5 282,-0.5"/>
<text text-anchor="middle" x="306" y="-7.5" font-family="Helvetica,sans-Serif" font-size="10.00">QTimer</text>
</a>
</g>
</g>
<!-- Node0&#45;&gt;Node4 -->
<g id="edge4" class="edge"><title>Node0&#45;&gt;Node4</title>
<path fill="none" stroke="midnightblue" d="M216.404,-56.4979C236.878,-46.1009 261.536,-33.5792 279.797,-24.3062"/>
<polygon fill="midnightblue" stroke="midnightblue" points="281.63,-27.301 288.961,-19.6525 278.46,-21.0596 281.63,-27.301"/>
</g>
</g>
</svg>
