<?xml version="1.0" encoding="UTF-8" standalone="no"?>
<!DOCTYPE svg PUBLIC "-//W3C//DTD SVG 1.1//EN"
 "http://www.w3.org/Graphics/SVG/1.1/DTD/svg11.dtd">
<!-- Generated by graphviz version 2.38.0 (20140413.2041)
 -->
<!-- Title: libopenage/renderer/texture.h Pages: 1 -->
<!--zoomable 374 -->
<svg id="main" version="1.1" xmlns="http://www.w3.org/2000/svg" xmlns:xlink="http://www.w3.org/1999/xlink" xml:space="preserve" onload="init(evt)">
<style type="text/css"><![CDATA[
.edge:hover path { stroke: red; }
.edge:hover polygon { stroke: red; fill: red; }
]]></style>
<script type="text/javascript"><![CDATA[
var edges = document.getElementsByTagName('g');
if (edges && edges.length) {
  for (var i=0;i<edges.length;i++) {
    if (edges[i].id.substr(0,4)=='edge') {
      edges[i].setAttribute('class','edge');
    }
  }
}
]]></script>
        <defs>
                <circle id="rim" cx="0" cy="0" r="7"/>
                <circle id="rim2" cx="0" cy="0" r="3.5"/>
                <g id="zoomPlus">
                        <use xlink:href="#rim" fill="#404040">
                                <set attributeName="fill" to="#808080" begin="zoomplus.mouseover" end="zoomplus.mouseout"/>
                        </use>
                        <path d="M-4,0h8M0,-4v8" fill="none" stroke="white" stroke-width="1.5" pointer-events="none"/>
                </g>
                <g id="zoomMin">
                        <use xlink:href="#rim" fill="#404040">
                                <set attributeName="fill" to="#808080" begin="zoomminus.mouseover" end="zoomminus.mouseout"/>
                        </use>
                        <path d="M-4,0h8" fill="none" stroke="white" stroke-width="1.5" pointer-events="none"/>
                </g>
                <g id="dirArrow">
                        <path fill="none" stroke="white" stroke-width="1.5" d="M0,-3.0v7 M-2.5,-0.5L0,-3.0L2.5,-0.5"/>
                </g>
               <g id="resetDef">
                       <use xlink:href="#rim2" fill="#404040">
                               <set attributeName="fill" to="#808080" begin="reset.mouseover" end="reset.mouseout"/>
                       </use>
               </g>
        </defs>

<script type="text/javascript">
var viewWidth = 756;
var viewHeight = 374;
var sectionId = 'dynsection-1';
</script>
<script xlink:href="svgpan.js"/>
<svg id="graph" class="graph">
<g id="viewport">
<title>libopenage/renderer/texture.h</title>
<polygon fill="white" stroke="none" points="-4,4 -4,-370 752,-370 752,4 -4,4"/>
<!-- Node49 -->
<g id="node1" class="node"><title>Node49</title>
<g id="a_node1"><a xlink:title=" ">
<polygon fill="#bfbfbf" stroke="black" points="528,-335.5 528,-365.5 629,-365.5 629,-335.5 528,-335.5"/>
<text text-anchor="start" x="536" y="-353.5" font-family="Helvetica,sans-Serif" font-size="10.00">libopenage/renderer</text>
<text text-anchor="middle" x="578.5" y="-342.5" font-family="Helvetica,sans-Serif" font-size="10.00">/texture.h</text>
</a>
</g>
</g>
<!-- Node50 -->
<g id="node2" class="node"><title>Node50</title>
<g id="a_node2"><a xlink:href="renderer_2opengl_2texture_8h.xhtml" target="_top" xlink:title=" ">
<polygon fill="white" stroke="black" points="409,-268.5 409,-298.5 510,-298.5 510,-268.5 409,-268.5"/>
<text text-anchor="start" x="417" y="-286.5" font-family="Helvetica,sans-Serif" font-size="10.00">libopenage/renderer</text>
<text text-anchor="middle" x="459.5" y="-275.5" font-family="Helvetica,sans-Serif" font-size="10.00">/opengl/texture.h</text>
</a>
</g>
</g>
<!-- Node49&#45;&gt;Node50 -->
<g id="edge1" class="edge"><title>Node49&#45;&gt;Node50</title>
<path fill="none" stroke="midnightblue" d="M543.853,-330.575C525.133,-320.35 502.413,-307.94 485.271,-298.577"/>
<polygon fill="midnightblue" stroke="midnightblue" points="542.225,-333.674 552.679,-335.396 545.58,-327.531 542.225,-333.674"/>
</g>
<!-- Node61 -->
<g id="node13" class="node"><title>Node61</title>
<g id="a_node13"><a xlink:href="renderer_2tests_8cpp.xhtml" target="_top" xlink:title=" ">
<polygon fill="white" stroke="black" points="528,-268.5 528,-298.5 629,-298.5 629,-268.5 528,-268.5"/>
<text text-anchor="start" x="536" y="-286.5" font-family="Helvetica,sans-Serif" font-size="10.00">libopenage/renderer</text>
<text text-anchor="middle" x="578.5" y="-275.5" font-family="Helvetica,sans-Serif" font-size="10.00">/tests.cpp</text>
</a>
</g>
</g>
<!-- Node49&#45;&gt;Node61 -->
<g id="edge15" class="edge"><title>Node49&#45;&gt;Node61</title>
<path fill="none" stroke="midnightblue" d="M578.5,-325.108C578.5,-316.154 578.5,-306.323 578.5,-298.577"/>
<polygon fill="midnightblue" stroke="midnightblue" points="575,-325.396 578.5,-335.396 582,-325.396 575,-325.396"/>
</g>
<!-- Node62 -->
<g id="node14" class="node"><title>Node62</title>
<g id="a_node14"><a xlink:href="renderer_2texture_8cpp.xhtml" target="_top" xlink:title=" ">
<polygon fill="white" stroke="black" points="647,-268.5 647,-298.5 748,-298.5 748,-268.5 647,-268.5"/>
<text text-anchor="start" x="655" y="-286.5" font-family="Helvetica,sans-Serif" font-size="10.00">libopenage/renderer</text>
<text text-anchor="middle" x="697.5" y="-275.5" font-family="Helvetica,sans-Serif" font-size="10.00">/texture.cpp</text>
</a>
</g>
</g>
<!-- Node49&#45;&gt;Node62 -->
<g id="edge16" class="edge"><title>Node49&#45;&gt;Node62</title>
<path fill="none" stroke="midnightblue" d="M613.147,-330.575C631.867,-320.35 654.587,-307.94 671.729,-298.577"/>
<polygon fill="midnightblue" stroke="midnightblue" points="611.42,-327.531 604.321,-335.396 614.775,-333.674 611.42,-327.531"/>
</g>
<!-- Node51 -->
<g id="node3" class="node"><title>Node51</title>
<g id="a_node3"><a xlink:href="framebuffer_8h.xhtml" target="_top" xlink:title=" ">
<polygon fill="white" stroke="black" points="286,-201.5 286,-231.5 393,-231.5 393,-201.5 286,-201.5"/>
<text text-anchor="start" x="294" y="-219.5" font-family="Helvetica,sans-Serif" font-size="10.00">libopenage/renderer</text>
<text text-anchor="middle" x="339.5" y="-208.5" font-family="Helvetica,sans-Serif" font-size="10.00">/opengl/framebuffer.h</text>
</a>
</g>
</g>
<!-- Node50&#45;&gt;Node51 -->
<g id="edge2" class="edge"><title>Node50&#45;&gt;Node51</title>
<path fill="none" stroke="midnightblue" d="M424.562,-263.575C405.685,-253.35 382.774,-240.94 365.487,-231.577"/>
<polygon fill="midnightblue" stroke="midnightblue" points="423.002,-266.711 433.462,-268.396 426.336,-260.556 423.002,-266.711"/>
</g>
<!-- Node53 -->
<g id="node5" class="node"><title>Node53</title>
<g id="a_node5"><a xlink:href="opengl_2render__target_8h.xhtml" target="_top" xlink:title=" ">
<polygon fill="white" stroke="black" points="282.5,-134.5 282.5,-164.5 398.5,-164.5 398.5,-134.5 282.5,-134.5"/>
<text text-anchor="start" x="290.5" y="-152.5" font-family="Helvetica,sans-Serif" font-size="10.00">libopenage/renderer</text>
<text text-anchor="middle" x="340.5" y="-141.5" font-family="Helvetica,sans-Serif" font-size="10.00">/opengl/render_target.h</text>
</a>
</g>
</g>
<!-- Node50&#45;&gt;Node53 -->
<g id="edge11" class="edge"><title>Node50&#45;&gt;Node53</title>
<path fill="none" stroke="midnightblue" d="M445.558,-259.668C434.623,-242.631 418.46,-219.245 401.5,-201 388.863,-187.406 372.591,-174.105 360.031,-164.57"/>
<polygon fill="midnightblue" stroke="midnightblue" points="442.773,-261.815 451.066,-268.408 448.695,-258.082 442.773,-261.815"/>
</g>
<!-- Node56 -->
<g id="node8" class="node"><title>Node56</title>
<g id="a_node8"><a xlink:href="opengl_2renderer_8cpp.xhtml" target="_top" xlink:title=" ">
<polygon fill="white" stroke="black" points="447,-0.5 447,-30.5 552,-30.5 552,-0.5 447,-0.5"/>
<text text-anchor="start" x="455" y="-18.5" font-family="Helvetica,sans-Serif" font-size="10.00">libopenage/renderer</text>
<text text-anchor="middle" x="499.5" y="-7.5" font-family="Helvetica,sans-Serif" font-size="10.00">/opengl/renderer.cpp</text>
</a>
</g>
</g>
<!-- Node50&#45;&gt;Node56 -->
<g id="edge12" class="edge"><title>Node50&#45;&gt;Node56</title>
<path fill="none" stroke="midnightblue" d="M469.884,-258.802C484.401,-224.249 510.045,-157.648 519.5,-98 521.657,-84.3921 522.082,-80.5336 519.5,-67 517.061,-54.2174 511.44,-40.5413 506.776,-30.6495"/>
<polygon fill="midnightblue" stroke="midnightblue" points="466.639,-257.489 465.936,-268.061 473.078,-260.235 466.639,-257.489"/>
</g>
<!-- Node58 -->
<g id="node10" class="node"><title>Node58</title>
<g id="a_node10"><a xlink:href="renderer_2opengl_2texture_8cpp.xhtml" target="_top" xlink:title=" ">
<polygon fill="white" stroke="black" points="409,-67.5 409,-97.5 510,-97.5 510,-67.5 409,-67.5"/>
<text text-anchor="start" x="417" y="-85.5" font-family="Helvetica,sans-Serif" font-size="10.00">libopenage/renderer</text>
<text text-anchor="middle" x="459.5" y="-74.5" font-family="Helvetica,sans-Serif" font-size="10.00">/opengl/texture.cpp</text>
</a>
</g>
</g>
<!-- Node50&#45;&gt;Node58 -->
<g id="edge14" class="edge"><title>Node50&#45;&gt;Node58</title>
<path fill="none" stroke="midnightblue" d="M459.5,-257.998C459.5,-215.93 459.5,-131.256 459.5,-97.6819"/>
<polygon fill="midnightblue" stroke="midnightblue" points="456,-258.188 459.5,-268.188 463,-258.188 456,-258.188"/>
</g>
<!-- Node60 -->
<g id="node12" class="node"><title>Node60</title>
<g id="a_node12"><a xlink:href="shader__program_8cpp.xhtml" target="_top" xlink:title=" ">
<polygon fill="white" stroke="black" points="566.5,-201.5 566.5,-231.5 706.5,-231.5 706.5,-201.5 566.5,-201.5"/>
<text text-anchor="start" x="574.5" y="-219.5" font-family="Helvetica,sans-Serif" font-size="10.00">libopenage/renderer</text>
<text text-anchor="middle" x="636.5" y="-208.5" font-family="Helvetica,sans-Serif" font-size="10.00">/opengl/shader_program.cpp</text>
</a>
</g>
</g>
<!-- Node50&#45;&gt;Node60 -->
<g id="edge13" class="edge"><title>Node50&#45;&gt;Node60</title>
<path fill="none" stroke="midnightblue" d="M507.648,-264.819C536.098,-254.371 571.628,-241.323 598.169,-231.577"/>
<polygon fill="midnightblue" stroke="midnightblue" points="506.087,-261.663 497.906,-268.396 508.5,-268.234 506.087,-261.663"/>
</g>
<!-- Node52 -->
<g id="node4" class="node"><title>Node52</title>
<g id="a_node4"><a xlink:href="framebuffer_8cpp.xhtml" target="_top" xlink:title=" ">
<polygon fill="white" stroke="black" points="147,-134.5 147,-164.5 264,-164.5 264,-134.5 147,-134.5"/>
<text text-anchor="start" x="155" y="-152.5" font-family="Helvetica,sans-Serif" font-size="10.00">libopenage/renderer</text>
<text text-anchor="middle" x="205.5" y="-141.5" font-family="Helvetica,sans-Serif" font-size="10.00">/opengl/framebuffer.cpp</text>
</a>
</g>
</g>
<!-- Node51&#45;&gt;Node52 -->
<g id="edge3" class="edge"><title>Node51&#45;&gt;Node52</title>
<path fill="none" stroke="midnightblue" d="M301.345,-196.992C280.105,-186.689 254.086,-174.068 234.519,-164.577"/>
<polygon fill="midnightblue" stroke="midnightblue" points="299.899,-200.181 310.424,-201.396 302.954,-193.882 299.899,-200.181"/>
</g>
<!-- Node51&#45;&gt;Node53 -->
<g id="edge4" class="edge"><title>Node51&#45;&gt;Node53</title>
<path fill="none" stroke="midnightblue" d="M339.875,-191.108C340.013,-182.154 340.164,-172.323 340.283,-164.577"/>
<polygon fill="midnightblue" stroke="midnightblue" points="336.371,-191.343 339.717,-201.396 343.37,-191.451 336.371,-191.343"/>
</g>
<!-- Node54 -->
<g id="node6" class="node"><title>Node54</title>
<g id="a_node6"><a xlink:href="render__target_8cpp.xhtml" target="_top" xlink:title=" ">
<polygon fill="white" stroke="black" points="145,-67.5 145,-97.5 272,-97.5 272,-67.5 145,-67.5"/>
<text text-anchor="start" x="153" y="-85.5" font-family="Helvetica,sans-Serif" font-size="10.00">libopenage/renderer</text>
<text text-anchor="middle" x="208.5" y="-74.5" font-family="Helvetica,sans-Serif" font-size="10.00">/opengl/render_target.cpp</text>
</a>
</g>
</g>
<!-- Node53&#45;&gt;Node54 -->
<g id="edge5" class="edge"><title>Node53&#45;&gt;Node54</title>
<path fill="none" stroke="midnightblue" d="M302.633,-129.853C281.762,-119.576 256.274,-107.025 237.086,-97.5765"/>
<polygon fill="midnightblue" stroke="midnightblue" points="301.34,-133.118 311.858,-134.396 304.433,-126.838 301.34,-133.118"/>
</g>
<!-- Node55 -->
<g id="node7" class="node"><title>Node55</title>
<g id="a_node7"><a xlink:href="opengl_2renderer_8h.xhtml" target="_top" xlink:title=" ">
<polygon fill="white" stroke="black" points="290,-67.5 290,-97.5 391,-97.5 391,-67.5 290,-67.5"/>
<text text-anchor="start" x="298" y="-85.5" font-family="Helvetica,sans-Serif" font-size="10.00">libopenage/renderer</text>
<text text-anchor="middle" x="340.5" y="-74.5" font-family="Helvetica,sans-Serif" font-size="10.00">/opengl/renderer.h</text>
</a>
</g>
</g>
<!-- Node53&#45;&gt;Node55 -->
<g id="edge6" class="edge"><title>Node53&#45;&gt;Node55</title>
<path fill="none" stroke="midnightblue" d="M340.5,-124.108C340.5,-115.154 340.5,-105.323 340.5,-97.5765"/>
<polygon fill="midnightblue" stroke="midnightblue" points="337,-124.396 340.5,-134.396 344,-124.396 337,-124.396"/>
</g>
<!-- Node53&#45;&gt;Node58 -->
<g id="edge9" class="edge"><title>Node53&#45;&gt;Node58</title>
<path fill="none" stroke="midnightblue" d="M375.147,-129.575C393.867,-119.35 416.587,-106.94 433.729,-97.5765"/>
<polygon fill="midnightblue" stroke="midnightblue" points="373.42,-126.531 366.321,-134.396 376.775,-132.674 373.42,-126.531"/>
</g>
<!-- Node59 -->
<g id="node11" class="node"><title>Node59</title>
<g id="a_node11"><a xlink:href="opengl_2texture__array_8cpp.xhtml" target="_top" xlink:title=" ">
<polygon fill="white" stroke="black" points="0,-67.5 0,-97.5 127,-97.5 127,-67.5 0,-67.5"/>
<text text-anchor="start" x="8" y="-85.5" font-family="Helvetica,sans-Serif" font-size="10.00">libopenage/renderer</text>
<text text-anchor="middle" x="63.5" y="-74.5" font-family="Helvetica,sans-Serif" font-size="10.00">/opengl/texture_array.cpp</text>
</a>
</g>
</g>
<!-- Node53&#45;&gt;Node59 -->
<g id="edge10" class="edge"><title>Node53&#45;&gt;Node59</title>
<path fill="none" stroke="midnightblue" d="M272.617,-132.571C226.953,-121.855 167.305,-107.859 123.405,-97.5571"/>
<polygon fill="midnightblue" stroke="midnightblue" points="271.897,-135.997 282.432,-134.874 273.496,-129.182 271.897,-135.997"/>
</g>
<!-- Node55&#45;&gt;Node56 -->
<g id="edge7" class="edge"><title>Node55&#45;&gt;Node56</title>
<path fill="none" stroke="midnightblue" d="M384.423,-63.5442C409.866,-53.143 441.433,-40.238 465.067,-30.5765"/>
<polygon fill="midnightblue" stroke="midnightblue" points="382.933,-60.3721 375.001,-67.396 385.581,-66.8516 382.933,-60.3721"/>
</g>
<!-- Node57 -->
<g id="node9" class="node"><title>Node57</title>
<g id="a_node9"><a xlink:href="opengl_2window_8cpp.xhtml" target="_top" xlink:title=" ">
<polygon fill="white" stroke="black" points="290,-0.5 290,-30.5 391,-30.5 391,-0.5 290,-0.5"/>
<text text-anchor="start" x="298" y="-18.5" font-family="Helvetica,sans-Serif" font-size="10.00">libopenage/renderer</text>
<text text-anchor="middle" x="340.5" y="-7.5" font-family="Helvetica,sans-Serif" font-size="10.00">/opengl/window.cpp</text>
</a>
</g>
</g>
<!-- Node55&#45;&gt;Node57 -->
<g id="edge8" class="edge"><title>Node55&#45;&gt;Node57</title>
<path fill="none" stroke="midnightblue" d="M340.5,-57.1081C340.5,-48.1539 340.5,-38.3227 340.5,-30.5765"/>
<polygon fill="midnightblue" stroke="midnightblue" points="337,-57.3959 340.5,-67.396 344,-57.396 337,-57.3959"/>
</g>
</g>
</svg>
        <g id="navigator" transform="translate(0 0)" fill="#404254">
                <rect fill="#f2f5e9" fill-opacity="0.5" stroke="#606060" stroke-width=".5" x="0" y="0" width="60" height="60"/>
                <use id="zoomplus" xlink:href="#zoomPlus" x="17" y="9" onmousedown="handleZoom(evt,'in')"/>
                <use id="zoomminus" xlink:href="#zoomMin" x="42" y="9" onmousedown="handleZoom(evt,'out')"/>
                <use id="reset" xlink:href="#resetDef" x="30" y="36" onmousedown="handleReset()"/>
                <g id="arrowUp" xlink:href="#dirArrow" transform="translate(30 24)" onmousedown="handlePan(0,-1)">
                  <use xlink:href="#rim" fill="#404040">
                        <set attributeName="fill" to="#808080" begin="arrowUp.mouseover" end="arrowUp.mouseout"/>
                  </use>
                  <path fill="none" stroke="white" stroke-width="1.5" d="M0,-3.0v7 M-2.5,-0.5L0,-3.0L2.5,-0.5"/>
                </g>
                <g id="arrowRight" xlink:href="#dirArrow" transform="rotate(90) translate(36 -43)" onmousedown="handlePan(1,0)">
                  <use xlink:href="#rim" fill="#404040">
                        <set attributeName="fill" to="#808080" begin="arrowRight.mouseover" end="arrowRight.mouseout"/>
                  </use>
                  <path fill="none" stroke="white" stroke-width="1.5" d="M0,-3.0v7 M-2.5,-0.5L0,-3.0L2.5,-0.5"/>
                </g>
                <g id="arrowDown" xlink:href="#dirArrow" transform="rotate(180) translate(-30 -48)" onmousedown="handlePan(0,1)">
                  <use xlink:href="#rim" fill="#404040">
                        <set attributeName="fill" to="#808080" begin="arrowDown.mouseover" end="arrowDown.mouseout"/>
                  </use>
                  <path fill="none" stroke="white" stroke-width="1.5" d="M0,-3.0v7 M-2.5,-0.5L0,-3.0L2.5,-0.5"/>
                </g>
                <g id="arrowLeft" xlink:href="#dirArrow" transform="rotate(270) translate(-36 17)" onmousedown="handlePan(-1,0)">
                  <use xlink:href="#rim" fill="#404040">
                        <set attributeName="fill" to="#808080" begin="arrowLeft.mouseover" end="arrowLeft.mouseout"/>
                  </use>
                  <path fill="none" stroke="white" stroke-width="1.5" d="M0,-3.0v7 M-2.5,-0.5L0,-3.0L2.5,-0.5"/>
                </g>
        </g>
        <svg viewBox="0 0 15 15" width="100%" height="30px" preserveAspectRatio="xMaxYMin meet">
         <g id="arrow_out" transform="scale(0.3 0.3)">
          <a xlink:href="renderer_2texture_8h__dep__incl_org.svg" target="_base">
           <rect id="button" ry="5" rx="5" y="6" x="6" height="38" width="38"
                fill="#f2f5e9" fill-opacity="0.5" stroke="#606060" stroke-width="1.0"/>
           <path id="arrow"
             d="M 11.500037,31.436501 C 11.940474,20.09759 22.043105,11.32322 32.158766,21.979434 L 37.068811,17.246167 C 37.068811,17.246167 37.088388,32 37.088388,32 L 22.160133,31.978069 C 22.160133,31.978069 26.997745,27.140456 26.997745,27.140456 C 18.528582,18.264221 13.291696,25.230495 11.500037,31.436501 z"
             style="fill:#404040;"/>
          </a>
         </g>
        </svg>
</svg>
