<?xml version="1.0" encoding="UTF-8" standalone="no"?>
<!DOCTYPE svg PUBLIC "-//W3C//DTD SVG 1.1//EN"
 "http://www.w3.org/Graphics/SVG/1.1/DTD/svg11.dtd">
<!-- Generated by graphviz version 2.38.0 (20140413.2041)
 -->
<!-- Title: libopenage/unit/research.h Pages: 1 -->
<!--zoomable 151 -->
<svg id="main" version="1.1" xmlns="http://www.w3.org/2000/svg" xmlns:xlink="http://www.w3.org/1999/xlink" xml:space="preserve" onload="init(evt)">
<style type="text/css"><![CDATA[
.edge:hover path { stroke: red; }
.edge:hover polygon { stroke: red; fill: red; }
]]></style>
<script type="text/javascript"><![CDATA[
var edges = document.getElementsByTagName('g');
if (edges && edges.length) {
  for (var i=0;i<edges.length;i++) {
    if (edges[i].id.substr(0,4)=='edge') {
      edges[i].setAttribute('class','edge');
    }
  }
}
]]></script>
        <defs>
                <circle id="rim" cx="0" cy="0" r="7"/>
                <circle id="rim2" cx="0" cy="0" r="3.5"/>
                <g id="zoomPlus">
                        <use xlink:href="#rim" fill="#404040">
                                <set attributeName="fill" to="#808080" begin="zoomplus.mouseover" end="zoomplus.mouseout"/>
                        </use>
                        <path d="M-4,0h8M0,-4v8" fill="none" stroke="white" stroke-width="1.5" pointer-events="none"/>
                </g>
                <g id="zoomMin">
                        <use xlink:href="#rim" fill="#404040">
                                <set attributeName="fill" to="#808080" begin="zoomminus.mouseover" end="zoomminus.mouseout"/>
                        </use>
                        <path d="M-4,0h8" fill="none" stroke="white" stroke-width="1.5" pointer-events="none"/>
                </g>
                <g id="dirArrow">
                        <path fill="none" stroke="white" stroke-width="1.5" d="M0,-3.0v7 M-2.5,-0.5L0,-3.0L2.5,-0.5"/>
                </g>
               <g id="resetDef">
                       <use xlink:href="#rim2" fill="#404040">
                               <set attributeName="fill" to="#808080" begin="reset.mouseover" end="reset.mouseout"/>
                       </use>
               </g>
        </defs>

<script type="text/javascript">
var viewWidth = 1029;
var viewHeight = 151;
var sectionId = 'dynsection-1';
</script>
<script xlink:href="svgpan.js"/>
<svg id="graph" class="graph">
<g id="viewport">
<title>libopenage/unit/research.h</title>
<polygon fill="white" stroke="none" points="-4,4 -4,-147 1025,-147 1025,4 -4,4"/>
<!-- Node3 -->
<g id="node1" class="node"><title>Node3</title>
<g id="a_node1"><a xlink:title=" ">
<polygon fill="#bfbfbf" stroke="black" points="240,-123.5 240,-142.5 371,-142.5 371,-123.5 240,-123.5"/>
<text text-anchor="middle" x="305.5" y="-130.5" font-family="Helvetica,sans-Serif" font-size="10.00">libopenage/unit/research.h</text>
</a>
</g>
</g>
<!-- Node4 -->
<g id="node2" class="node"><title>Node4</title>
<g id="a_node2"><a xlink:href="unit_2action_8h.xhtml" target="_top" xlink:title=" ">
<polygon fill="white" stroke="black" points="307,-67.5 307,-86.5 426,-86.5 426,-67.5 307,-67.5"/>
<text text-anchor="middle" x="366.5" y="-74.5" font-family="Helvetica,sans-Serif" font-size="10.00">libopenage/unit/action.h</text>
</a>
</g>
</g>
<!-- Node3&#45;&gt;Node4 -->
<g id="edge1" class="edge"><title>Node3&#45;&gt;Node4</title>
<path fill="none" stroke="midnightblue" d="M322.967,-116.537C333.844,-106.909 347.444,-94.8694 356.521,-86.8339"/>
<polygon fill="midnightblue" stroke="midnightblue" points="320.468,-114.075 315.301,-123.324 325.108,-119.316 320.468,-114.075"/>
</g>
<!-- Node6 -->
<g id="node4" class="node"><title>Node6</title>
<g id="a_node4"><a xlink:href="ability_8cpp.xhtml" target="_top" xlink:title=" ">
<polygon fill="white" stroke="black" points="0,-6 0,-25 129,-25 129,-6 0,-6"/>
<text text-anchor="middle" x="64.5" y="-13" font-family="Helvetica,sans-Serif" font-size="10.00">libopenage/unit/ability.cpp</text>
</a>
</g>
</g>
<!-- Node3&#45;&gt;Node6 -->
<g id="edge9" class="edge"><title>Node3&#45;&gt;Node6</title>
<path fill="none" stroke="midnightblue" d="M278.197,-118.915C228.456,-95.0766 124.352,-45.1844 82.4956,-25.1245"/>
<polygon fill="midnightblue" stroke="midnightblue" points="276.855,-122.153 287.386,-123.319 279.881,-115.841 276.855,-122.153"/>
</g>
<!-- Node7 -->
<g id="node5" class="node"><title>Node7</title>
<g id="a_node5"><a xlink:href="unit_2action_8cpp.xhtml" target="_top" xlink:title=" ">
<polygon fill="white" stroke="black" points="147.5,-6 147.5,-25 277.5,-25 277.5,-6 147.5,-6"/>
<text text-anchor="middle" x="212.5" y="-13" font-family="Helvetica,sans-Serif" font-size="10.00">libopenage/unit/action.cpp</text>
</a>
</g>
</g>
<!-- Node3&#45;&gt;Node7 -->
<g id="edge10" class="edge"><title>Node3&#45;&gt;Node7</title>
<path fill="none" stroke="midnightblue" d="M292.214,-115.5C272.214,-90.6606 235.064,-44.5235 219.571,-25.282"/>
<polygon fill="midnightblue" stroke="midnightblue" points="289.512,-117.725 298.51,-123.319 294.964,-113.335 289.512,-117.725"/>
</g>
<!-- Node12 -->
<g id="node10" class="node"><title>Node12</title>
<g id="a_node10"><a xlink:href="research_8cpp.xhtml" target="_top" xlink:title=" ">
<polygon fill="white" stroke="black" points="444,-67.5 444,-86.5 585,-86.5 585,-67.5 444,-67.5"/>
<text text-anchor="middle" x="514.5" y="-74.5" font-family="Helvetica,sans-Serif" font-size="10.00">libopenage/unit/research.cpp</text>
</a>
</g>
</g>
<!-- Node3&#45;&gt;Node12 -->
<g id="edge11" class="edge"><title>Node3&#45;&gt;Node12</title>
<path fill="none" stroke="midnightblue" d="M348.484,-120.894C387.952,-110.697 445.6,-95.802 481.538,-86.5164"/>
<polygon fill="midnightblue" stroke="midnightblue" points="347.423,-117.553 338.617,-123.444 349.174,-124.331 347.423,-117.553"/>
</g>
<!-- Node5 -->
<g id="node3" class="node"><title>Node5</title>
<g id="a_node3"><a xlink:href="game__renderer_8cpp.xhtml" target="_top" xlink:title=" ">
<polygon fill="white" stroke="black" points="872,-6 872,-25 1021,-25 1021,-6 872,-6"/>
<text text-anchor="middle" x="946.5" y="-13" font-family="Helvetica,sans-Serif" font-size="10.00">libopenage/game_renderer.cpp</text>
</a>
</g>
</g>
<!-- Node4&#45;&gt;Node5 -->
<g id="edge2" class="edge"><title>Node4&#45;&gt;Node5</title>
<path fill="none" stroke="midnightblue" d="M436.391,-66.9573C627.018,-46.9407 677.414,-55.0321 863.5,-31 875.976,-29.3887 889.437,-27.2237 901.813,-25.0587"/>
<polygon fill="midnightblue" stroke="midnightblue" points="435.894,-63.4904 426.319,-68.0272 436.633,-70.4512 435.894,-63.4904"/>
</g>
<!-- Node4&#45;&gt;Node6 -->
<g id="edge3" class="edge"><title>Node4&#45;&gt;Node6</title>
<path fill="none" stroke="midnightblue" d="M313.074,-65.474C254.545,-53.9427 161.809,-35.6719 107.689,-25.0091"/>
<polygon fill="midnightblue" stroke="midnightblue" points="312.743,-68.976 323.231,-67.4751 314.096,-62.108 312.743,-68.976"/>
</g>
<!-- Node4&#45;&gt;Node7 -->
<g id="edge4" class="edge"><title>Node4&#45;&gt;Node7</title>
<path fill="none" stroke="midnightblue" d="M334.878,-63.7824C304.951,-52.2199 260.807,-35.1641 234.524,-25.0091"/>
<polygon fill="midnightblue" stroke="midnightblue" points="333.846,-67.1358 344.436,-67.4751 336.369,-60.6062 333.846,-67.1358"/>
</g>
<!-- Node8 -->
<g id="node6" class="node"><title>Node8</title>
<g id="a_node6"><a xlink:href="producer_8cpp.xhtml" target="_top" xlink:title=" ">
<polygon fill="white" stroke="black" points="296,-6 296,-25 437,-25 437,-6 296,-6"/>
<text text-anchor="middle" x="366.5" y="-13" font-family="Helvetica,sans-Serif" font-size="10.00">libopenage/unit/producer.cpp</text>
</a>
</g>
</g>
<!-- Node4&#45;&gt;Node8 -->
<g id="edge5" class="edge"><title>Node4&#45;&gt;Node8</title>
<path fill="none" stroke="midnightblue" d="M366.5,-57.3165C366.5,-46.4962 366.5,-33.398 366.5,-25.0091"/>
<polygon fill="midnightblue" stroke="midnightblue" points="363,-57.4751 366.5,-67.4751 370,-57.4751 363,-57.4751"/>
</g>
<!-- Node9 -->
<g id="node7" class="node"><title>Node9</title>
<g id="a_node7"><a xlink:href="selection_8cpp.xhtml" target="_top" xlink:title=" ">
<polygon fill="white" stroke="black" points="455,-6 455,-25 598,-25 598,-6 455,-6"/>
<text text-anchor="middle" x="526.5" y="-13" font-family="Helvetica,sans-Serif" font-size="10.00">libopenage/unit/selection.cpp</text>
</a>
</g>
</g>
<!-- Node4&#45;&gt;Node9 -->
<g id="edge6" class="edge"><title>Node4&#45;&gt;Node9</title>
<path fill="none" stroke="midnightblue" d="M398.949,-63.9329C430.047,-52.3683 476.192,-35.2083 503.618,-25.0091"/>
<polygon fill="midnightblue" stroke="midnightblue" points="397.577,-60.709 389.424,-67.4751 400.017,-67.27 397.577,-60.709"/>
</g>
<!-- Node10 -->
<g id="node8" class="node"><title>Node10</title>
<g id="a_node8"><a xlink:href="unit_8cpp.xhtml" target="_top" xlink:title=" ">
<polygon fill="white" stroke="black" points="616,-6 616,-25 735,-25 735,-6 616,-6"/>
<text text-anchor="middle" x="675.5" y="-13" font-family="Helvetica,sans-Serif" font-size="10.00">libopenage/unit/unit.cpp</text>
</a>
</g>
</g>
<!-- Node4&#45;&gt;Node10 -->
<g id="edge7" class="edge"><title>Node4&#45;&gt;Node10</title>
<path fill="none" stroke="midnightblue" d="M424.193,-65.654C473.065,-56.7877 544.96,-43.5045 607.5,-31 616.851,-29.1303 626.906,-27.0337 636.341,-25.0284"/>
<polygon fill="midnightblue" stroke="midnightblue" points="423.342,-62.2512 414.126,-67.4771 424.589,-69.1392 423.342,-62.2512"/>
</g>
<!-- Node11 -->
<g id="node9" class="node"><title>Node11</title>
<g id="a_node9"><a xlink:href="unit__type_8cpp.xhtml" target="_top" xlink:title=" ">
<polygon fill="white" stroke="black" points="753,-0.5 753,-30.5 854,-30.5 854,-0.5 753,-0.5"/>
<text text-anchor="start" x="761" y="-18.5" font-family="Helvetica,sans-Serif" font-size="10.00">libopenage/unit/unit</text>
<text text-anchor="middle" x="803.5" y="-7.5" font-family="Helvetica,sans-Serif" font-size="10.00">_type.cpp</text>
</a>
</g>
</g>
<!-- Node4&#45;&gt;Node11 -->
<g id="edge8" class="edge"><title>Node4&#45;&gt;Node11</title>
<path fill="none" stroke="midnightblue" d="M436.446,-66.9111C574.45,-50.299 611.623,-54.9715 744.5,-31 747.199,-30.5131 749.958,-29.9756 752.738,-29.4026"/>
<polygon fill="midnightblue" stroke="midnightblue" points="435.835,-63.4596 426.333,-68.1447 436.683,-70.4081 435.835,-63.4596"/>
</g>
</g>
</svg>
        <g id="navigator" transform="translate(0 0)" fill="#404254">
                <rect fill="#f2f5e9" fill-opacity="0.5" stroke="#606060" stroke-width=".5" x="0" y="0" width="60" height="60"/>
                <use id="zoomplus" xlink:href="#zoomPlus" x="17" y="9" onmousedown="handleZoom(evt,'in')"/>
                <use id="zoomminus" xlink:href="#zoomMin" x="42" y="9" onmousedown="handleZoom(evt,'out')"/>
                <use id="reset" xlink:href="#resetDef" x="30" y="36" onmousedown="handleReset()"/>
                <g id="arrowUp" xlink:href="#dirArrow" transform="translate(30 24)" onmousedown="handlePan(0,-1)">
                  <use xlink:href="#rim" fill="#404040">
                        <set attributeName="fill" to="#808080" begin="arrowUp.mouseover" end="arrowUp.mouseout"/>
                  </use>
                  <path fill="none" stroke="white" stroke-width="1.5" d="M0,-3.0v7 M-2.5,-0.5L0,-3.0L2.5,-0.5"/>
                </g>
                <g id="arrowRight" xlink:href="#dirArrow" transform="rotate(90) translate(36 -43)" onmousedown="handlePan(1,0)">
                  <use xlink:href="#rim" fill="#404040">
                        <set attributeName="fill" to="#808080" begin="arrowRight.mouseover" end="arrowRight.mouseout"/>
                  </use>
                  <path fill="none" stroke="white" stroke-width="1.5" d="M0,-3.0v7 M-2.5,-0.5L0,-3.0L2.5,-0.5"/>
                </g>
                <g id="arrowDown" xlink:href="#dirArrow" transform="rotate(180) translate(-30 -48)" onmousedown="handlePan(0,1)">
                  <use xlink:href="#rim" fill="#404040">
                        <set attributeName="fill" to="#808080" begin="arrowDown.mouseover" end="arrowDown.mouseout"/>
                  </use>
                  <path fill="none" stroke="white" stroke-width="1.5" d="M0,-3.0v7 M-2.5,-0.5L0,-3.0L2.5,-0.5"/>
                </g>
                <g id="arrowLeft" xlink:href="#dirArrow" transform="rotate(270) translate(-36 17)" onmousedown="handlePan(-1,0)">
                  <use xlink:href="#rim" fill="#404040">
                        <set attributeName="fill" to="#808080" begin="arrowLeft.mouseover" end="arrowLeft.mouseout"/>
                  </use>
                  <path fill="none" stroke="white" stroke-width="1.5" d="M0,-3.0v7 M-2.5,-0.5L0,-3.0L2.5,-0.5"/>
                </g>
        </g>
        <svg viewBox="0 0 15 15" width="100%" height="30px" preserveAspectRatio="xMaxYMin meet">
         <g id="arrow_out" transform="scale(0.3 0.3)">
          <a xlink:href="research_8h__dep__incl_org.svg" target="_base">
           <rect id="button" ry="5" rx="5" y="6" x="6" height="38" width="38"
                fill="#f2f5e9" fill-opacity="0.5" stroke="#606060" stroke-width="1.0"/>
           <path id="arrow"
             d="M 11.500037,31.436501 C 11.940474,20.09759 22.043105,11.32322 32.158766,21.979434 L 37.068811,17.246167 C 37.068811,17.246167 37.088388,32 37.088388,32 L 22.160133,31.978069 C 22.160133,31.978069 26.997745,27.140456 26.997745,27.140456 C 18.528582,18.264221 13.291696,25.230495 11.500037,31.436501 z"
             style="fill:#404040;"/>
          </a>
         </g>
        </svg>
</svg>
