<?xml version="1.0" encoding="UTF-8" standalone="no"?>
<!DOCTYPE svg PUBLIC "-//W3C//DTD SVG 1.1//EN"
 "http://www.w3.org/Graphics/SVG/1.1/DTD/svg11.dtd">
<!-- Generated by graphviz version 2.38.0 (20140413.2041)
 -->
<!-- Title: C:/Users/Jameson/Documents/git&#45;projects/openage/libopenage/audio/resource_def.h Pages: 1 -->
<!--zoomable 284 -->
<svg id="main" version="1.1" xmlns="http://www.w3.org/2000/svg" xmlns:xlink="http://www.w3.org/1999/xlink" xml:space="preserve" onload="init(evt)">
<style type="text/css"><![CDATA[
.edge:hover path { stroke: red; }
.edge:hover polygon { stroke: red; fill: red; }
]]></style>
<script type="text/javascript"><![CDATA[
var edges = document.getElementsByTagName('g');
if (edges && edges.length) {
  for (var i=0;i<edges.length;i++) {
    if (edges[i].id.substr(0,4)=='edge') {
      edges[i].setAttribute('class','edge');
    }
  }
}
]]></script>
        <defs>
                <circle id="rim" cx="0" cy="0" r="7"/>
                <circle id="rim2" cx="0" cy="0" r="3.5"/>
                <g id="zoomPlus">
                        <use xlink:href="#rim" fill="#404040">
                                <set attributeName="fill" to="#808080" begin="zoomplus.mouseover" end="zoomplus.mouseout"/>
                        </use>
                        <path d="M-4,0h8M0,-4v8" fill="none" stroke="white" stroke-width="1.5" pointer-events="none"/>
                </g>
                <g id="zoomMin">
                        <use xlink:href="#rim" fill="#404040">
                                <set attributeName="fill" to="#808080" begin="zoomminus.mouseover" end="zoomminus.mouseout"/>
                        </use>
                        <path d="M-4,0h8" fill="none" stroke="white" stroke-width="1.5" pointer-events="none"/>
                </g>
                <g id="dirArrow">
                        <path fill="none" stroke="white" stroke-width="1.5" d="M0,-3.0v7 M-2.5,-0.5L0,-3.0L2.5,-0.5"/>
                </g>
               <g id="resetDef">
                       <use xlink:href="#rim2" fill="#404040">
                               <set attributeName="fill" to="#808080" begin="reset.mouseover" end="reset.mouseout"/>
                       </use>
               </g>
        </defs>

<script type="text/javascript">
var viewWidth = 4015;
var viewHeight = 284;
var sectionId = 'dynsection-1';
</script>
<script xlink:href="svgpan.js"/>
<svg id="graph" class="graph">
<g id="viewport">
<title>C:/Users/Jameson/Documents/git&#45;projects/openage/libopenage/audio/resource_def.h</title>
<polygon fill="white" stroke="none" points="-4,4 -4,-280 4011,-280 4011,4 -4,4"/>
<!-- Node44 -->
<g id="node1" class="node"><title>Node44</title>
<g id="a_node1"><a xlink:title=" ">
<polygon fill="#bfbfbf" stroke="black" points="3271,-234.5 3271,-275.5 3428,-275.5 3428,-234.5 3271,-234.5"/>
<text text-anchor="start" x="3279" y="-263.5" font-family="Helvetica,sans-Serif" font-size="10.00">C:/Users/Jameson/Documents</text>
<text text-anchor="start" x="3279" y="-252.5" font-family="Helvetica,sans-Serif" font-size="10.00">/git&#45;projects/openage/libopenage</text>
<text text-anchor="middle" x="3349.5" y="-241.5" font-family="Helvetica,sans-Serif" font-size="10.00">/audio/resource_def.h</text>
</a>
</g>
</g>
<!-- Node45 -->
<g id="node2" class="node"><title>Node45</title>
<g id="a_node2"><a xlink:href="audio__manager_8h.xhtml" target="_top" xlink:title=" ">
<polygon fill="white" stroke="black" points="3184,-156.5 3184,-197.5 3341,-197.5 3341,-156.5 3184,-156.5"/>
<text text-anchor="start" x="3192" y="-185.5" font-family="Helvetica,sans-Serif" font-size="10.00">C:/Users/Jameson/Documents</text>
<text text-anchor="start" x="3192" y="-174.5" font-family="Helvetica,sans-Serif" font-size="10.00">/git&#45;projects/openage/libopenage</text>
<text text-anchor="middle" x="3262.5" y="-163.5" font-family="Helvetica,sans-Serif" font-size="10.00">/audio/audio_manager.h</text>
</a>
</g>
</g>
<!-- Node44&#45;&gt;Node45 -->
<g id="edge1" class="edge"><title>Node44&#45;&gt;Node45</title>
<path fill="none" stroke="midnightblue" d="M3319.48,-227.779C3308.11,-217.843 3295.37,-206.716 3284.83,-197.506"/>
<polygon fill="midnightblue" stroke="midnightblue" points="3317.26,-230.485 3327.1,-234.428 3321.87,-225.213 3317.26,-230.485"/>
</g>
<!-- Node56 -->
<g id="node13" class="node"><title>Node56</title>
<g id="a_node13"><a xlink:href="game__spec_8cpp.xhtml" target="_top" xlink:title=" ">
<polygon fill="white" stroke="black" points="0,-0.5 0,-41.5 157,-41.5 157,-0.5 0,-0.5"/>
<text text-anchor="start" x="8" y="-29.5" font-family="Helvetica,sans-Serif" font-size="10.00">C:/Users/Jameson/Documents</text>
<text text-anchor="start" x="8" y="-18.5" font-family="Helvetica,sans-Serif" font-size="10.00">/git&#45;projects/openage/libopenage</text>
<text text-anchor="middle" x="78.5" y="-7.5" font-family="Helvetica,sans-Serif" font-size="10.00">/gamestate/game_spec.cpp</text>
</a>
</g>
</g>
<!-- Node44&#45;&gt;Node56 -->
<g id="edge39" class="edge"><title>Node44&#45;&gt;Node56</title>
<path fill="none" stroke="midnightblue" d="M3260.83,-253.263C2884.47,-249.051 1382.81,-221.277 165.5,-42 162.74,-41.5935 159.938,-41.1454 157.114,-40.6633"/>
<polygon fill="midnightblue" stroke="midnightblue" points="3260.8,-256.763 3270.84,-253.373 3260.88,-249.763 3260.8,-256.763"/>
</g>
<!-- Node71 -->
<g id="node28" class="node"><title>Node71</title>
<g id="a_node28"><a xlink:href="audio_2resource_8h.xhtml" target="_top" xlink:title=" ">
<polygon fill="white" stroke="black" points="3359,-156.5 3359,-197.5 3516,-197.5 3516,-156.5 3359,-156.5"/>
<text text-anchor="start" x="3367" y="-185.5" font-family="Helvetica,sans-Serif" font-size="10.00">C:/Users/Jameson/Documents</text>
<text text-anchor="start" x="3367" y="-174.5" font-family="Helvetica,sans-Serif" font-size="10.00">/git&#45;projects/openage/libopenage</text>
<text text-anchor="middle" x="3437.5" y="-163.5" font-family="Helvetica,sans-Serif" font-size="10.00">/audio/resource.h</text>
</a>
</g>
</g>
<!-- Node44&#45;&gt;Node71 -->
<g id="edge28" class="edge"><title>Node44&#45;&gt;Node71</title>
<path fill="none" stroke="midnightblue" d="M3379.86,-227.779C3391.37,-217.843 3404.25,-206.716 3414.91,-197.506"/>
<polygon fill="midnightblue" stroke="midnightblue" points="3377.44,-225.243 3372.16,-234.428 3382.02,-230.541 3377.44,-225.243"/>
</g>
<!-- Node75 -->
<g id="node32" class="node"><title>Node75</title>
<g id="a_node32"><a xlink:href="resource__def_8cpp.xhtml" target="_top" xlink:title=" ">
<polygon fill="white" stroke="black" points="3534,-156.5 3534,-197.5 3691,-197.5 3691,-156.5 3534,-156.5"/>
<text text-anchor="start" x="3542" y="-185.5" font-family="Helvetica,sans-Serif" font-size="10.00">C:/Users/Jameson/Documents</text>
<text text-anchor="start" x="3542" y="-174.5" font-family="Helvetica,sans-Serif" font-size="10.00">/git&#45;projects/openage/libopenage</text>
<text text-anchor="middle" x="3612.5" y="-163.5" font-family="Helvetica,sans-Serif" font-size="10.00">/audio/resource_def.cpp</text>
</a>
</g>
</g>
<!-- Node44&#45;&gt;Node75 -->
<g id="edge38" class="edge"><title>Node44&#45;&gt;Node75</title>
<path fill="none" stroke="midnightblue" d="M3427.08,-231.58C3464.51,-220.764 3508.99,-207.911 3545,-197.506"/>
<polygon fill="midnightblue" stroke="midnightblue" points="3425.86,-228.289 3417.23,-234.428 3427.81,-235.014 3425.86,-228.289"/>
</g>
<!-- Node46 -->
<g id="node3" class="node"><title>Node46</title>
<g id="a_node3"><a xlink:href="audio__manager_8cpp.xhtml" target="_top" xlink:title=" ">
<polygon fill="white" stroke="black" points="3184,-78.5 3184,-119.5 3341,-119.5 3341,-78.5 3184,-78.5"/>
<text text-anchor="start" x="3192" y="-107.5" font-family="Helvetica,sans-Serif" font-size="10.00">C:/Users/Jameson/Documents</text>
<text text-anchor="start" x="3192" y="-96.5" font-family="Helvetica,sans-Serif" font-size="10.00">/git&#45;projects/openage/libopenage</text>
<text text-anchor="middle" x="3262.5" y="-85.5" font-family="Helvetica,sans-Serif" font-size="10.00">/audio/audio_manager.cpp</text>
</a>
</g>
</g>
<!-- Node45&#45;&gt;Node46 -->
<g id="edge2" class="edge"><title>Node45&#45;&gt;Node46</title>
<path fill="none" stroke="midnightblue" d="M3262.5,-146.297C3262.5,-137.301 3262.5,-127.653 3262.5,-119.506"/>
<polygon fill="midnightblue" stroke="midnightblue" points="3259,-146.428 3262.5,-156.428 3266,-146.428 3259,-146.428"/>
</g>
<!-- Node47 -->
<g id="node4" class="node"><title>Node47</title>
<g id="a_node4"><a xlink:href="dynamic__resource_8cpp.xhtml" target="_top" xlink:title=" ">
<polygon fill="white" stroke="black" points="3500,-0.5 3500,-41.5 3657,-41.5 3657,-0.5 3500,-0.5"/>
<text text-anchor="start" x="3508" y="-29.5" font-family="Helvetica,sans-Serif" font-size="10.00">C:/Users/Jameson/Documents</text>
<text text-anchor="start" x="3508" y="-18.5" font-family="Helvetica,sans-Serif" font-size="10.00">/git&#45;projects/openage/libopenage</text>
<text text-anchor="middle" x="3578.5" y="-7.5" font-family="Helvetica,sans-Serif" font-size="10.00">/audio/dynamic_resource.cpp</text>
</a>
</g>
</g>
<!-- Node45&#45;&gt;Node47 -->
<g id="edge3" class="edge"><title>Node45&#45;&gt;Node47</title>
<path fill="none" stroke="midnightblue" d="M3204.99,-151.128C3192.8,-143.042 3181.51,-132.769 3174.5,-120 3165.52,-103.637 3162.07,-91.9263 3174.5,-78 3221.56,-25.2716 3420.82,-53.8496 3490.5,-42 3493.59,-41.4746 3496.73,-40.9093 3499.9,-40.3134"/>
<polygon fill="midnightblue" stroke="midnightblue" points="3203.19,-154.124 3213.54,-156.38 3206.85,-148.161 3203.19,-154.124"/>
</g>
<!-- Node48 -->
<g id="node5" class="node"><title>Node48</title>
<g id="a_node5"><a xlink:href="engine_8h.xhtml" target="_top" xlink:title=" ">
<polygon fill="white" stroke="black" points="1925,-78.5 1925,-119.5 2082,-119.5 2082,-78.5 1925,-78.5"/>
<text text-anchor="start" x="1933" y="-107.5" font-family="Helvetica,sans-Serif" font-size="10.00">C:/Users/Jameson/Documents</text>
<text text-anchor="start" x="1933" y="-96.5" font-family="Helvetica,sans-Serif" font-size="10.00">/git&#45;projects/openage/libopenage</text>
<text text-anchor="middle" x="2003.5" y="-85.5" font-family="Helvetica,sans-Serif" font-size="10.00">/engine.h</text>
</a>
</g>
</g>
<!-- Node45&#45;&gt;Node48 -->
<g id="edge4" class="edge"><title>Node45&#45;&gt;Node48</title>
<path fill="none" stroke="midnightblue" d="M3173.54,-170.63C2938.71,-156.454 2304.98,-118.199 2082.23,-104.752"/>
<polygon fill="midnightblue" stroke="midnightblue" points="3173.55,-174.137 3183.74,-171.246 3173.97,-167.15 3173.55,-174.137"/>
</g>
<!-- Node70 -->
<g id="node27" class="node"><title>Node70</title>
<g id="a_node27"><a xlink:href="sound_8cpp.xhtml" target="_top" xlink:title=" ">
<polygon fill="white" stroke="black" points="3359,-78.5 3359,-119.5 3516,-119.5 3516,-78.5 3359,-78.5"/>
<text text-anchor="start" x="3367" y="-107.5" font-family="Helvetica,sans-Serif" font-size="10.00">C:/Users/Jameson/Documents</text>
<text text-anchor="start" x="3367" y="-96.5" font-family="Helvetica,sans-Serif" font-size="10.00">/git&#45;projects/openage/libopenage</text>
<text text-anchor="middle" x="3437.5" y="-85.5" font-family="Helvetica,sans-Serif" font-size="10.00">/audio/sound.cpp</text>
</a>
</g>
</g>
<!-- Node45&#45;&gt;Node70 -->
<g id="edge27" class="edge"><title>Node45&#45;&gt;Node70</title>
<path fill="none" stroke="midnightblue" d="M3317.01,-152.329C3341.29,-141.783 3369.54,-129.513 3392.59,-119.506"/>
<polygon fill="midnightblue" stroke="midnightblue" points="3315.35,-149.234 3307.57,-156.428 3318.13,-155.655 3315.35,-149.234"/>
</g>
<!-- Node48&#45;&gt;Node47 -->
<g id="edge5" class="edge"><title>Node48&#45;&gt;Node47</title>
<path fill="none" stroke="midnightblue" d="M2092.21,-96.8223C2369.5,-92.7996 3217.72,-77.8183 3490.5,-42 3493.61,-41.5921 3496.77,-41.1258 3499.95,-40.6128"/>
<polygon fill="midnightblue" stroke="midnightblue" points="2092.14,-93.3228 2082.19,-96.9664 2092.24,-100.322 2092.14,-93.3228"/>
</g>
<!-- Node49 -->
<g id="node6" class="node"><title>Node49</title>
<g id="a_node6"><a xlink:href="audio_2resource_8cpp.xhtml" target="_top" xlink:title=" ">
<polygon fill="white" stroke="black" points="3675,-0.5 3675,-41.5 3832,-41.5 3832,-0.5 3675,-0.5"/>
<text text-anchor="start" x="3683" y="-29.5" font-family="Helvetica,sans-Serif" font-size="10.00">C:/Users/Jameson/Documents</text>
<text text-anchor="start" x="3683" y="-18.5" font-family="Helvetica,sans-Serif" font-size="10.00">/git&#45;projects/openage/libopenage</text>
<text text-anchor="middle" x="3753.5" y="-7.5" font-family="Helvetica,sans-Serif" font-size="10.00">/audio/resource.cpp</text>
</a>
</g>
</g>
<!-- Node48&#45;&gt;Node49 -->
<g id="edge6" class="edge"><title>Node48&#45;&gt;Node49</title>
<path fill="none" stroke="midnightblue" d="M2092.71,-97.2264C2391.75,-94.2832 3357.24,-81.8553 3665.5,-42 3668.61,-41.5982 3671.77,-41.1371 3674.95,-40.6285"/>
<polygon fill="midnightblue" stroke="midnightblue" points="2092.32,-93.73 2082.35,-97.3272 2092.38,-100.73 2092.32,-93.73"/>
</g>
<!-- Node50 -->
<g id="node7" class="node"><title>Node50</title>
<g id="a_node7"><a xlink:href="console_8cpp.xhtml" target="_top" xlink:title=" ">
<polygon fill="white" stroke="black" points="1750,-0.5 1750,-41.5 1907,-41.5 1907,-0.5 1750,-0.5"/>
<text text-anchor="start" x="1758" y="-29.5" font-family="Helvetica,sans-Serif" font-size="10.00">C:/Users/Jameson/Documents</text>
<text text-anchor="start" x="1758" y="-18.5" font-family="Helvetica,sans-Serif" font-size="10.00">/git&#45;projects/openage/libopenage</text>
<text text-anchor="middle" x="1828.5" y="-7.5" font-family="Helvetica,sans-Serif" font-size="10.00">/console/console.cpp</text>
</a>
</g>
</g>
<!-- Node48&#45;&gt;Node50 -->
<g id="edge7" class="edge"><title>Node48&#45;&gt;Node50</title>
<path fill="none" stroke="midnightblue" d="M1948.99,-74.3291C1924.71,-63.7835 1896.46,-51.5129 1873.41,-41.5056"/>
<polygon fill="midnightblue" stroke="midnightblue" points="1947.87,-77.655 1958.43,-78.4281 1950.65,-71.2343 1947.87,-77.655"/>
</g>
<!-- Node51 -->
<g id="node8" class="node"><title>Node51</title>
<g id="a_node8"><a xlink:href="draw_8cpp.xhtml" target="_top" xlink:title=" ">
<polygon fill="white" stroke="black" points="1925,-0.5 1925,-41.5 2082,-41.5 2082,-0.5 1925,-0.5"/>
<text text-anchor="start" x="1933" y="-29.5" font-family="Helvetica,sans-Serif" font-size="10.00">C:/Users/Jameson/Documents</text>
<text text-anchor="start" x="1933" y="-18.5" font-family="Helvetica,sans-Serif" font-size="10.00">/git&#45;projects/openage/libopenage</text>
<text text-anchor="middle" x="2003.5" y="-7.5" font-family="Helvetica,sans-Serif" font-size="10.00">/console/draw.cpp</text>
</a>
</g>
</g>
<!-- Node48&#45;&gt;Node51 -->
<g id="edge8" class="edge"><title>Node48&#45;&gt;Node51</title>
<path fill="none" stroke="midnightblue" d="M2003.5,-68.2965C2003.5,-59.3009 2003.5,-49.6532 2003.5,-41.5056"/>
<polygon fill="midnightblue" stroke="midnightblue" points="2000,-68.4281 2003.5,-78.4281 2007,-68.4281 2000,-68.4281"/>
</g>
<!-- Node52 -->
<g id="node9" class="node"><title>Node52</title>
<g id="a_node9"><a xlink:href="engine_8cpp.xhtml" target="_top" xlink:title=" ">
<polygon fill="white" stroke="black" points="2100,-0.5 2100,-41.5 2257,-41.5 2257,-0.5 2100,-0.5"/>
<text text-anchor="start" x="2108" y="-29.5" font-family="Helvetica,sans-Serif" font-size="10.00">C:/Users/Jameson/Documents</text>
<text text-anchor="start" x="2108" y="-18.5" font-family="Helvetica,sans-Serif" font-size="10.00">/git&#45;projects/openage/libopenage</text>
<text text-anchor="middle" x="2178.5" y="-7.5" font-family="Helvetica,sans-Serif" font-size="10.00">/engine.cpp</text>
</a>
</g>
</g>
<!-- Node48&#45;&gt;Node52 -->
<g id="edge9" class="edge"><title>Node48&#45;&gt;Node52</title>
<path fill="none" stroke="midnightblue" d="M2058.01,-74.3291C2082.29,-63.7835 2110.54,-51.5129 2133.59,-41.5056"/>
<polygon fill="midnightblue" stroke="midnightblue" points="2056.35,-71.2343 2048.57,-78.4281 2059.13,-77.655 2056.35,-71.2343"/>
</g>
<!-- Node53 -->
<g id="node10" class="node"><title>Node53</title>
<g id="a_node10"><a xlink:href="game__control_8cpp.xhtml" target="_top" xlink:title=" ">
<polygon fill="white" stroke="black" points="2275,-0.5 2275,-41.5 2432,-41.5 2432,-0.5 2275,-0.5"/>
<text text-anchor="start" x="2283" y="-29.5" font-family="Helvetica,sans-Serif" font-size="10.00">C:/Users/Jameson/Documents</text>
<text text-anchor="start" x="2283" y="-18.5" font-family="Helvetica,sans-Serif" font-size="10.00">/git&#45;projects/openage/libopenage</text>
<text text-anchor="middle" x="2353.5" y="-7.5" font-family="Helvetica,sans-Serif" font-size="10.00">/game_control.cpp</text>
</a>
</g>
</g>
<!-- Node48&#45;&gt;Node53 -->
<g id="edge10" class="edge"><title>Node48&#45;&gt;Node53</title>
<path fill="none" stroke="midnightblue" d="M2092.05,-79.3692C2142.85,-68.608 2207.8,-54.7228 2265.5,-42 2268.56,-41.3253 2271.68,-40.6339 2274.83,-39.9326"/>
<polygon fill="midnightblue" stroke="midnightblue" points="2091.15,-75.9834 2082.09,-81.4786 2092.6,-82.8316 2091.15,-75.9834"/>
</g>
<!-- Node54 -->
<g id="node11" class="node"><title>Node54</title>
<g id="a_node11"><a xlink:href="game__renderer_8cpp.xhtml" target="_top" xlink:title=" ">
<polygon fill="white" stroke="black" points="2450,-0.5 2450,-41.5 2607,-41.5 2607,-0.5 2450,-0.5"/>
<text text-anchor="start" x="2458" y="-29.5" font-family="Helvetica,sans-Serif" font-size="10.00">C:/Users/Jameson/Documents</text>
<text text-anchor="start" x="2458" y="-18.5" font-family="Helvetica,sans-Serif" font-size="10.00">/git&#45;projects/openage/libopenage</text>
<text text-anchor="middle" x="2528.5" y="-7.5" font-family="Helvetica,sans-Serif" font-size="10.00">/game_renderer.cpp</text>
</a>
</g>
</g>
<!-- Node48&#45;&gt;Node54 -->
<g id="edge11" class="edge"><title>Node48&#45;&gt;Node54</title>
<path fill="none" stroke="midnightblue" d="M2092.4,-89.1379C2180.97,-79.7152 2320.66,-63.2458 2440.5,-42 2443.59,-41.453 2446.73,-40.8694 2449.89,-40.2583"/>
<polygon fill="midnightblue" stroke="midnightblue" points="2091.97,-85.6639 2082.39,-90.1958 2092.71,-92.6252 2091.97,-85.6639"/>
</g>
<!-- Node55 -->
<g id="node12" class="node"><title>Node55</title>
<g id="a_node12"><a xlink:href="game__main_8cpp.xhtml" target="_top" xlink:title=" ">
<polygon fill="white" stroke="black" points="2625,-0.5 2625,-41.5 2782,-41.5 2782,-0.5 2625,-0.5"/>
<text text-anchor="start" x="2633" y="-29.5" font-family="Helvetica,sans-Serif" font-size="10.00">C:/Users/Jameson/Documents</text>
<text text-anchor="start" x="2633" y="-18.5" font-family="Helvetica,sans-Serif" font-size="10.00">/git&#45;projects/openage/libopenage</text>
<text text-anchor="middle" x="2703.5" y="-7.5" font-family="Helvetica,sans-Serif" font-size="10.00">/gamestate/game_main.cpp</text>
</a>
</g>
</g>
<!-- Node48&#45;&gt;Node55 -->
<g id="edge12" class="edge"><title>Node48&#45;&gt;Node55</title>
<path fill="none" stroke="midnightblue" d="M2092.36,-93.5623C2211.85,-86.7538 2430.68,-71.3257 2615.5,-42 2618.59,-41.5089 2621.74,-40.9725 2624.92,-40.4009"/>
<polygon fill="midnightblue" stroke="midnightblue" points="2091.95,-90.0794 2082.16,-94.1357 2092.35,-97.0683 2091.95,-90.0794"/>
</g>
<!-- Node48&#45;&gt;Node56 -->
<g id="edge13" class="edge"><title>Node48&#45;&gt;Node56</title>
<path fill="none" stroke="midnightblue" d="M1914.84,-96.3177C1571.48,-89.6631 339.615,-64.4462 165.5,-42 162.733,-41.6433 159.925,-41.2379 157.096,-40.7924"/>
<polygon fill="midnightblue" stroke="midnightblue" points="1914.92,-99.8198 1924.98,-96.5139 1915.05,-92.8211 1914.92,-99.8198"/>
</g>
<!-- Node57 -->
<g id="node14" class="node"><title>Node57</title>
<g id="a_node14"><a xlink:href="engine__link_8cpp.xhtml" target="_top" xlink:title=" ">
<polygon fill="white" stroke="black" points="2800,-0.5 2800,-41.5 2957,-41.5 2957,-0.5 2800,-0.5"/>
<text text-anchor="start" x="2808" y="-29.5" font-family="Helvetica,sans-Serif" font-size="10.00">C:/Users/Jameson/Documents</text>
<text text-anchor="start" x="2808" y="-18.5" font-family="Helvetica,sans-Serif" font-size="10.00">/git&#45;projects/openage/libopenage</text>
<text text-anchor="middle" x="2878.5" y="-7.5" font-family="Helvetica,sans-Serif" font-size="10.00">/gui/engine_link.cpp</text>
</a>
</g>
</g>
<!-- Node48&#45;&gt;Node57 -->
<g id="edge14" class="edge"><title>Node48&#45;&gt;Node57</title>
<path fill="none" stroke="midnightblue" d="M2092.39,-96.0836C2238.69,-91.9438 2539.09,-79.2912 2790.5,-42 2793.6,-41.5402 2796.75,-41.0302 2799.93,-40.4807"/>
<polygon fill="midnightblue" stroke="midnightblue" points="2092.02,-92.5922 2082.12,-96.3671 2092.22,-99.5896 2092.02,-92.5922"/>
</g>
<!-- Node58 -->
<g id="node15" class="node"><title>Node58</title>
<g id="a_node15"><a xlink:href="game__control__link_8cpp.xhtml" target="_top" xlink:title=" ">
<polygon fill="white" stroke="black" points="2975,-0.5 2975,-41.5 3132,-41.5 3132,-0.5 2975,-0.5"/>
<text text-anchor="start" x="2983" y="-29.5" font-family="Helvetica,sans-Serif" font-size="10.00">C:/Users/Jameson/Documents</text>
<text text-anchor="start" x="2983" y="-18.5" font-family="Helvetica,sans-Serif" font-size="10.00">/git&#45;projects/openage/libopenage</text>
<text text-anchor="middle" x="3053.5" y="-7.5" font-family="Helvetica,sans-Serif" font-size="10.00">/gui/game_control_link.cpp</text>
</a>
</g>
</g>
<!-- Node48&#45;&gt;Node58 -->
<g id="edge15" class="edge"><title>Node48&#45;&gt;Node58</title>
<path fill="none" stroke="midnightblue" d="M2092.35,-97.7202C2262.62,-96.1041 2646.33,-87.2424 2965.5,-42 2968.6,-41.5602 2971.76,-41.0671 2974.94,-40.5316"/>
<polygon fill="midnightblue" stroke="midnightblue" points="2092.15,-94.2217 2082.18,-97.8105 2092.21,-101.221 2092.15,-94.2217"/>
</g>
<!-- Node59 -->
<g id="node16" class="node"><title>Node59</title>
<g id="a_node16"><a xlink:href="game__main__link_8cpp.xhtml" target="_top" xlink:title=" ">
<polygon fill="white" stroke="black" points="3150,-0.5 3150,-41.5 3307,-41.5 3307,-0.5 3150,-0.5"/>
<text text-anchor="start" x="3158" y="-29.5" font-family="Helvetica,sans-Serif" font-size="10.00">C:/Users/Jameson/Documents</text>
<text text-anchor="start" x="3158" y="-18.5" font-family="Helvetica,sans-Serif" font-size="10.00">/git&#45;projects/openage/libopenage</text>
<text text-anchor="middle" x="3228.5" y="-7.5" font-family="Helvetica,sans-Serif" font-size="10.00">/gui/game_main_link.cpp</text>
</a>
</g>
</g>
<!-- Node48&#45;&gt;Node59 -->
<g id="edge16" class="edge"><title>Node48&#45;&gt;Node59</title>
<path fill="none" stroke="midnightblue" d="M2092.21,-98.8687C2284.29,-99.6043 2752.66,-95.2106 3140.5,-42 3143.6,-41.5741 3146.76,-41.0927 3149.94,-40.567"/>
<polygon fill="midnightblue" stroke="midnightblue" points="2092.18,-95.3687 2082.16,-98.8246 2092.15,-102.369 2092.18,-95.3687"/>
</g>
<!-- Node60 -->
<g id="node17" class="node"><title>Node60</title>
<g id="a_node17"><a xlink:href="gui_2gui_8cpp.xhtml" target="_top" xlink:title=" ">
<polygon fill="white" stroke="black" points="3325,-0.5 3325,-41.5 3482,-41.5 3482,-0.5 3325,-0.5"/>
<text text-anchor="start" x="3333" y="-29.5" font-family="Helvetica,sans-Serif" font-size="10.00">C:/Users/Jameson/Documents</text>
<text text-anchor="start" x="3333" y="-18.5" font-family="Helvetica,sans-Serif" font-size="10.00">/git&#45;projects/openage/libopenage</text>
<text text-anchor="middle" x="3403.5" y="-7.5" font-family="Helvetica,sans-Serif" font-size="10.00">/gui/gui.cpp</text>
</a>
</g>
</g>
<!-- Node48&#45;&gt;Node60 -->
<g id="edge17" class="edge"><title>Node48&#45;&gt;Node60</title>
<path fill="none" stroke="midnightblue" d="M2092.51,-96.2992C2347.62,-91.0911 3078.27,-73.7548 3315.5,-42 3318.61,-41.5843 3321.76,-41.1114 3324.95,-40.5929"/>
<polygon fill="midnightblue" stroke="midnightblue" points="2092.1,-92.8066 2082.18,-96.5088 2092.24,-99.8052 2092.1,-92.8066"/>
</g>
<!-- Node61 -->
<g id="node18" class="node"><title>Node61</title>
<g id="a_node18"><a xlink:href="main_8cpp.xhtml" target="_top" xlink:title=" ">
<polygon fill="white" stroke="black" points="175,-0.5 175,-41.5 332,-41.5 332,-0.5 175,-0.5"/>
<text text-anchor="start" x="183" y="-29.5" font-family="Helvetica,sans-Serif" font-size="10.00">C:/Users/Jameson/Documents</text>
<text text-anchor="start" x="183" y="-18.5" font-family="Helvetica,sans-Serif" font-size="10.00">/git&#45;projects/openage/libopenage</text>
<text text-anchor="middle" x="253.5" y="-7.5" font-family="Helvetica,sans-Serif" font-size="10.00">/main.cpp</text>
</a>
</g>
</g>
<!-- Node48&#45;&gt;Node61 -->
<g id="edge18" class="edge"><title>Node48&#45;&gt;Node61</title>
<path fill="none" stroke="midnightblue" d="M1914.53,-96.0063C1592.24,-88.6461 496.576,-62.3748 340.5,-42 337.734,-41.6389 334.926,-41.2297 332.098,-40.7809"/>
<polygon fill="midnightblue" stroke="midnightblue" points="1914.68,-99.5104 1924.75,-96.2393 1914.84,-92.5123 1914.68,-99.5104"/>
</g>
<!-- Node62 -->
<g id="node19" class="node"><title>Node62</title>
<g id="a_node19"><a xlink:href="terrain_8cpp.xhtml" target="_top" xlink:title=" ">
<polygon fill="white" stroke="black" points="350,-0.5 350,-41.5 507,-41.5 507,-0.5 350,-0.5"/>
<text text-anchor="start" x="358" y="-29.5" font-family="Helvetica,sans-Serif" font-size="10.00">C:/Users/Jameson/Documents</text>
<text text-anchor="start" x="358" y="-18.5" font-family="Helvetica,sans-Serif" font-size="10.00">/git&#45;projects/openage/libopenage</text>
<text text-anchor="middle" x="428.5" y="-7.5" font-family="Helvetica,sans-Serif" font-size="10.00">/terrain/terrain.cpp</text>
</a>
</g>
</g>
<!-- Node48&#45;&gt;Node62 -->
<g id="edge19" class="edge"><title>Node48&#45;&gt;Node62</title>
<path fill="none" stroke="midnightblue" d="M1914.73,-96.8527C1637.24,-92.9203 788.423,-78.1777 515.5,-42 512.735,-41.6334 509.928,-41.2195 507.099,-40.7667"/>
<polygon fill="midnightblue" stroke="midnightblue" points="1914.71,-100.353 1924.76,-96.9936 1914.81,-93.3533 1914.71,-100.353"/>
</g>
<!-- Node63 -->
<g id="node20" class="node"><title>Node63</title>
<g id="a_node20"><a xlink:href="terrain__chunk_8cpp.xhtml" target="_top" xlink:title=" ">
<polygon fill="white" stroke="black" points="525,-0.5 525,-41.5 682,-41.5 682,-0.5 525,-0.5"/>
<text text-anchor="start" x="533" y="-29.5" font-family="Helvetica,sans-Serif" font-size="10.00">C:/Users/Jameson/Documents</text>
<text text-anchor="start" x="533" y="-18.5" font-family="Helvetica,sans-Serif" font-size="10.00">/git&#45;projects/openage/libopenage</text>
<text text-anchor="middle" x="603.5" y="-7.5" font-family="Helvetica,sans-Serif" font-size="10.00">/terrain/terrain_chunk.cpp</text>
</a>
</g>
</g>
<!-- Node48&#45;&gt;Node63 -->
<g id="edge20" class="edge"><title>Node48&#45;&gt;Node63</title>
<path fill="none" stroke="midnightblue" d="M1914.42,-96.3298C1659.11,-91.2044 927.87,-74.0698 690.5,-42 687.735,-41.6265 684.93,-41.2066 682.102,-40.7488"/>
<polygon fill="midnightblue" stroke="midnightblue" points="1914.69,-99.8358 1924.76,-96.536 1914.83,-92.8372 1914.69,-99.8358"/>
</g>
<!-- Node64 -->
<g id="node21" class="node"><title>Node64</title>
<g id="a_node21"><a xlink:href="terrain__object_8cpp.xhtml" target="_top" xlink:title=" ">
<polygon fill="white" stroke="black" points="700,-0.5 700,-41.5 857,-41.5 857,-0.5 700,-0.5"/>
<text text-anchor="start" x="708" y="-29.5" font-family="Helvetica,sans-Serif" font-size="10.00">C:/Users/Jameson/Documents</text>
<text text-anchor="start" x="708" y="-18.5" font-family="Helvetica,sans-Serif" font-size="10.00">/git&#45;projects/openage/libopenage</text>
<text text-anchor="middle" x="778.5" y="-7.5" font-family="Helvetica,sans-Serif" font-size="10.00">/terrain/terrain_object.cpp</text>
</a>
</g>
</g>
<!-- Node48&#45;&gt;Node64 -->
<g id="edge21" class="edge"><title>Node48&#45;&gt;Node64</title>
<path fill="none" stroke="midnightblue" d="M1914.77,-95.6635C1683.79,-89.2555 1067.74,-69.9979 865.5,-42 862.737,-41.6175 859.932,-41.1898 857.105,-40.7253"/>
<polygon fill="midnightblue" stroke="midnightblue" points="1914.72,-99.1634 1924.82,-95.9408 1914.92,-92.1661 1914.72,-99.1634"/>
</g>
<!-- Node65 -->
<g id="node22" class="node"><title>Node65</title>
<g id="a_node22"><a xlink:href="unit_2action_8cpp.xhtml" target="_top" xlink:title=" ">
<polygon fill="white" stroke="black" points="875,-0.5 875,-41.5 1032,-41.5 1032,-0.5 875,-0.5"/>
<text text-anchor="start" x="883" y="-29.5" font-family="Helvetica,sans-Serif" font-size="10.00">C:/Users/Jameson/Documents</text>
<text text-anchor="start" x="883" y="-18.5" font-family="Helvetica,sans-Serif" font-size="10.00">/git&#45;projects/openage/libopenage</text>
<text text-anchor="middle" x="953.5" y="-7.5" font-family="Helvetica,sans-Serif" font-size="10.00">/unit/action.cpp</text>
</a>
</g>
</g>
<!-- Node48&#45;&gt;Node65 -->
<g id="edge22" class="edge"><title>Node48&#45;&gt;Node65</title>
<path fill="none" stroke="midnightblue" d="M1914.55,-97.7998C1744.08,-96.3187 1359.95,-87.6762 1040.5,-42 1037.74,-41.6051 1034.94,-41.1669 1032.11,-40.6934"/>
<polygon fill="midnightblue" stroke="midnightblue" points="1914.7,-101.301 1924.73,-97.8819 1914.75,-94.3013 1914.7,-101.301"/>
</g>
<!-- Node66 -->
<g id="node23" class="node"><title>Node66</title>
<g id="a_node23"><a xlink:href="producer_8cpp.xhtml" target="_top" xlink:title="Many values in this file are hardcoded, due to limited understanding of how the original game files w...">
<polygon fill="white" stroke="black" points="1050,-0.5 1050,-41.5 1207,-41.5 1207,-0.5 1050,-0.5"/>
<text text-anchor="start" x="1058" y="-29.5" font-family="Helvetica,sans-Serif" font-size="10.00">C:/Users/Jameson/Documents</text>
<text text-anchor="start" x="1058" y="-18.5" font-family="Helvetica,sans-Serif" font-size="10.00">/git&#45;projects/openage/libopenage</text>
<text text-anchor="middle" x="1128.5" y="-7.5" font-family="Helvetica,sans-Serif" font-size="10.00">/unit/producer.cpp</text>
</a>
</g>
</g>
<!-- Node48&#45;&gt;Node66 -->
<g id="edge23" class="edge"><title>Node48&#45;&gt;Node66</title>
<path fill="none" stroke="midnightblue" d="M1914.49,-96.1627C1767.98,-92.1355 1467.18,-79.6395 1215.5,-42 1212.74,-41.5874 1209.94,-41.1339 1207.12,-40.6474"/>
<polygon fill="midnightblue" stroke="midnightblue" points="1914.68,-99.6689 1924.77,-96.4383 1914.87,-92.6714 1914.68,-99.6689"/>
</g>
<!-- Node67 -->
<g id="node24" class="node"><title>Node67</title>
<g id="a_node24"><a xlink:href="selection_8cpp.xhtml" target="_top" xlink:title=" ">
<polygon fill="white" stroke="black" points="1225,-0.5 1225,-41.5 1382,-41.5 1382,-0.5 1225,-0.5"/>
<text text-anchor="start" x="1233" y="-29.5" font-family="Helvetica,sans-Serif" font-size="10.00">C:/Users/Jameson/Documents</text>
<text text-anchor="start" x="1233" y="-18.5" font-family="Helvetica,sans-Serif" font-size="10.00">/git&#45;projects/openage/libopenage</text>
<text text-anchor="middle" x="1303.5" y="-7.5" font-family="Helvetica,sans-Serif" font-size="10.00">/unit/selection.cpp</text>
</a>
</g>
</g>
<!-- Node48&#45;&gt;Node67 -->
<g id="edge24" class="edge"><title>Node48&#45;&gt;Node67</title>
<path fill="none" stroke="midnightblue" d="M1914.49,-93.6407C1794.79,-86.9198 1575.58,-71.5893 1390.5,-42 1387.75,-41.5596 1384.95,-41.0823 1382.13,-40.5753"/>
<polygon fill="midnightblue" stroke="midnightblue" points="1914.52,-97.1477 1924.7,-94.2065 1914.91,-90.1584 1914.52,-97.1477"/>
</g>
<!-- Node68 -->
<g id="node25" class="node"><title>Node68</title>
<g id="a_node25"><a xlink:href="unit_8cpp.xhtml" target="_top" xlink:title=" ">
<polygon fill="white" stroke="black" points="1400,-0.5 1400,-41.5 1557,-41.5 1557,-0.5 1400,-0.5"/>
<text text-anchor="start" x="1408" y="-29.5" font-family="Helvetica,sans-Serif" font-size="10.00">C:/Users/Jameson/Documents</text>
<text text-anchor="start" x="1408" y="-18.5" font-family="Helvetica,sans-Serif" font-size="10.00">/git&#45;projects/openage/libopenage</text>
<text text-anchor="middle" x="1478.5" y="-7.5" font-family="Helvetica,sans-Serif" font-size="10.00">/unit/unit.cpp</text>
</a>
</g>
</g>
<!-- Node48&#45;&gt;Node68 -->
<g id="edge25" class="edge"><title>Node48&#45;&gt;Node68</title>
<path fill="none" stroke="midnightblue" d="M1914.79,-89.2575C1826.03,-79.9008 1685.77,-63.4578 1565.5,-42 1562.75,-41.51 1559.96,-40.99 1557.15,-40.4467"/>
<polygon fill="midnightblue" stroke="midnightblue" points="1914.5,-92.7471 1924.81,-90.3076 1915.23,-85.7852 1914.5,-92.7471"/>
</g>
<!-- Node69 -->
<g id="node26" class="node"><title>Node69</title>
<g id="a_node26"><a xlink:href="profiler_8cpp.xhtml" target="_top" xlink:title=" ">
<polygon fill="white" stroke="black" points="1575,-0.5 1575,-41.5 1732,-41.5 1732,-0.5 1575,-0.5"/>
<text text-anchor="start" x="1583" y="-29.5" font-family="Helvetica,sans-Serif" font-size="10.00">C:/Users/Jameson/Documents</text>
<text text-anchor="start" x="1583" y="-18.5" font-family="Helvetica,sans-Serif" font-size="10.00">/git&#45;projects/openage/libopenage</text>
<text text-anchor="middle" x="1653.5" y="-7.5" font-family="Helvetica,sans-Serif" font-size="10.00">/util/profiler.cpp</text>
</a>
</g>
</g>
<!-- Node48&#45;&gt;Node69 -->
<g id="edge26" class="edge"><title>Node48&#45;&gt;Node69</title>
<path fill="none" stroke="midnightblue" d="M1914.87,-79.5016C1863.84,-68.7558 1798.51,-54.8423 1740.5,-42 1737.78,-41.397 1735.01,-40.7799 1732.21,-40.1537"/>
<polygon fill="midnightblue" stroke="midnightblue" points="1914.38,-82.9738 1924.88,-81.6073 1915.82,-76.1237 1914.38,-82.9738"/>
</g>
<!-- Node71&#45;&gt;Node46 -->
<g id="edge29" class="edge"><title>Node71&#45;&gt;Node46</title>
<path fill="none" stroke="midnightblue" d="M3382.99,-152.329C3358.71,-141.783 3330.46,-129.513 3307.41,-119.506"/>
<polygon fill="midnightblue" stroke="midnightblue" points="3381.87,-155.655 3392.43,-156.428 3384.65,-149.234 3381.87,-155.655"/>
</g>
<!-- Node71&#45;&gt;Node49 -->
<g id="edge36" class="edge"><title>Node71&#45;&gt;Node49</title>
<path fill="none" stroke="midnightblue" d="M3526.03,-155.835C3604.75,-141.177 3638.07,-165.264 3699.5,-120 3725.93,-100.525 3741,-64.0544 3748.19,-41.5146"/>
<polygon fill="midnightblue" stroke="midnightblue" points="3525.31,-152.41 3516.2,-157.822 3526.7,-159.271 3525.31,-152.41"/>
</g>
<!-- Node71&#45;&gt;Node70 -->
<g id="edge37" class="edge"><title>Node71&#45;&gt;Node70</title>
<path fill="none" stroke="midnightblue" d="M3437.5,-146.297C3437.5,-137.301 3437.5,-127.653 3437.5,-119.506"/>
<polygon fill="midnightblue" stroke="midnightblue" points="3434,-146.428 3437.5,-156.428 3441,-146.428 3434,-146.428"/>
</g>
<!-- Node72 -->
<g id="node29" class="node"><title>Node72</title>
<g id="a_node29"><a xlink:href="dynamic__resource_8h.xhtml" target="_top" xlink:title=" ">
<polygon fill="white" stroke="black" points="3534,-78.5 3534,-119.5 3691,-119.5 3691,-78.5 3534,-78.5"/>
<text text-anchor="start" x="3542" y="-107.5" font-family="Helvetica,sans-Serif" font-size="10.00">C:/Users/Jameson/Documents</text>
<text text-anchor="start" x="3542" y="-96.5" font-family="Helvetica,sans-Serif" font-size="10.00">/git&#45;projects/openage/libopenage</text>
<text text-anchor="middle" x="3612.5" y="-85.5" font-family="Helvetica,sans-Serif" font-size="10.00">/audio/dynamic_resource.h</text>
</a>
</g>
</g>
<!-- Node71&#45;&gt;Node72 -->
<g id="edge30" class="edge"><title>Node71&#45;&gt;Node72</title>
<path fill="none" stroke="midnightblue" d="M3492.01,-152.329C3516.29,-141.783 3544.54,-129.513 3567.59,-119.506"/>
<polygon fill="midnightblue" stroke="midnightblue" points="3490.35,-149.234 3482.57,-156.428 3493.13,-155.655 3490.35,-149.234"/>
</g>
<!-- Node73 -->
<g id="node30" class="node"><title>Node73</title>
<g id="a_node30"><a xlink:href="in__memory__resource_8h.xhtml" target="_top" xlink:title=" ">
<polygon fill="white" stroke="black" points="3748,-78.5 3748,-119.5 3905,-119.5 3905,-78.5 3748,-78.5"/>
<text text-anchor="start" x="3756" y="-107.5" font-family="Helvetica,sans-Serif" font-size="10.00">C:/Users/Jameson/Documents</text>
<text text-anchor="start" x="3756" y="-96.5" font-family="Helvetica,sans-Serif" font-size="10.00">/git&#45;projects/openage/libopenage</text>
<text text-anchor="middle" x="3826.5" y="-85.5" font-family="Helvetica,sans-Serif" font-size="10.00">/audio/in_memory_resource.h</text>
</a>
</g>
</g>
<!-- Node71&#45;&gt;Node73 -->
<g id="edge33" class="edge"><title>Node71&#45;&gt;Node73</title>
<path fill="none" stroke="midnightblue" d="M3526.24,-155.7C3618.63,-137.445 3644.12,-137.3 3733.5,-120 3738.2,-119.09 3743.03,-118.129 3747.9,-117.141"/>
<polygon fill="midnightblue" stroke="midnightblue" points="3525.3,-152.319 3516.18,-157.708 3526.67,-159.184 3525.3,-152.319"/>
</g>
<!-- Node72&#45;&gt;Node47 -->
<g id="edge31" class="edge"><title>Node72&#45;&gt;Node47</title>
<path fill="none" stroke="midnightblue" d="M3599.6,-69.1744C3595.47,-59.9317 3590.99,-49.9188 3587.23,-41.5056"/>
<polygon fill="midnightblue" stroke="midnightblue" points="3596.47,-70.7292 3603.74,-78.4281 3602.86,-67.8706 3596.47,-70.7292"/>
</g>
<!-- Node72&#45;&gt;Node49 -->
<g id="edge32" class="edge"><title>Node72&#45;&gt;Node49</title>
<path fill="none" stroke="midnightblue" d="M3657.72,-73.6266C3676.99,-63.2416 3699.16,-51.2915 3717.31,-41.5056"/>
<polygon fill="midnightblue" stroke="midnightblue" points="3655.95,-70.6024 3648.81,-78.4281 3659.27,-76.7643 3655.95,-70.6024"/>
</g>
<!-- Node73&#45;&gt;Node49 -->
<g id="edge35" class="edge"><title>Node73&#45;&gt;Node49</title>
<path fill="none" stroke="midnightblue" d="M3800.76,-71.204C3791.36,-61.416 3780.91,-50.5388 3772.24,-41.5056"/>
<polygon fill="midnightblue" stroke="midnightblue" points="3798.25,-73.6407 3807.7,-78.4281 3803.3,-68.7915 3798.25,-73.6407"/>
</g>
<!-- Node74 -->
<g id="node31" class="node"><title>Node74</title>
<g id="a_node31"><a xlink:href="in__memory__resource_8cpp.xhtml" target="_top" xlink:title=" ">
<polygon fill="white" stroke="black" points="3850,-0.5 3850,-41.5 4007,-41.5 4007,-0.5 3850,-0.5"/>
<text text-anchor="start" x="3858" y="-29.5" font-family="Helvetica,sans-Serif" font-size="10.00">C:/Users/Jameson/Documents</text>
<text text-anchor="start" x="3858" y="-18.5" font-family="Helvetica,sans-Serif" font-size="10.00">/git&#45;projects/openage/libopenage</text>
<text text-anchor="middle" x="3928.5" y="-7.5" font-family="Helvetica,sans-Serif" font-size="10.00">/audio/in_memory_resource.cpp</text>
</a>
</g>
</g>
<!-- Node73&#45;&gt;Node74 -->
<g id="edge34" class="edge"><title>Node73&#45;&gt;Node74</title>
<path fill="none" stroke="midnightblue" d="M3860.92,-72.3503C3874.45,-62.2719 3889.72,-50.893 3902.32,-41.5056"/>
<polygon fill="midnightblue" stroke="midnightblue" points="3858.7,-69.6467 3852.77,-78.4281 3862.88,-75.2599 3858.7,-69.6467"/>
</g>
</g>
</svg>
        <g id="navigator" transform="translate(0 0)" fill="#404254">
                <rect fill="#f2f5e9" fill-opacity="0.5" stroke="#606060" stroke-width=".5" x="0" y="0" width="60" height="60"/>
                <use id="zoomplus" xlink:href="#zoomPlus" x="17" y="9" onmousedown="handleZoom(evt,'in')"/>
                <use id="zoomminus" xlink:href="#zoomMin" x="42" y="9" onmousedown="handleZoom(evt,'out')"/>
                <use id="reset" xlink:href="#resetDef" x="30" y="36" onmousedown="handleReset()"/>
                <g id="arrowUp" xlink:href="#dirArrow" transform="translate(30 24)" onmousedown="handlePan(0,-1)">
                  <use xlink:href="#rim" fill="#404040">
                        <set attributeName="fill" to="#808080" begin="arrowUp.mouseover" end="arrowUp.mouseout"/>
                  </use>
                  <path fill="none" stroke="white" stroke-width="1.5" d="M0,-3.0v7 M-2.5,-0.5L0,-3.0L2.5,-0.5"/>
                </g>
                <g id="arrowRight" xlink:href="#dirArrow" transform="rotate(90) translate(36 -43)" onmousedown="handlePan(1,0)">
                  <use xlink:href="#rim" fill="#404040">
                        <set attributeName="fill" to="#808080" begin="arrowRight.mouseover" end="arrowRight.mouseout"/>
                  </use>
                  <path fill="none" stroke="white" stroke-width="1.5" d="M0,-3.0v7 M-2.5,-0.5L0,-3.0L2.5,-0.5"/>
                </g>
                <g id="arrowDown" xlink:href="#dirArrow" transform="rotate(180) translate(-30 -48)" onmousedown="handlePan(0,1)">
                  <use xlink:href="#rim" fill="#404040">
                        <set attributeName="fill" to="#808080" begin="arrowDown.mouseover" end="arrowDown.mouseout"/>
                  </use>
                  <path fill="none" stroke="white" stroke-width="1.5" d="M0,-3.0v7 M-2.5,-0.5L0,-3.0L2.5,-0.5"/>
                </g>
                <g id="arrowLeft" xlink:href="#dirArrow" transform="rotate(270) translate(-36 17)" onmousedown="handlePan(-1,0)">
                  <use xlink:href="#rim" fill="#404040">
                        <set attributeName="fill" to="#808080" begin="arrowLeft.mouseover" end="arrowLeft.mouseout"/>
                  </use>
                  <path fill="none" stroke="white" stroke-width="1.5" d="M0,-3.0v7 M-2.5,-0.5L0,-3.0L2.5,-0.5"/>
                </g>
        </g>
        <svg viewBox="0 0 15 15" width="100%" height="30px" preserveAspectRatio="xMaxYMin meet">
         <g id="arrow_out" transform="scale(0.3 0.3)">
          <a xlink:href="resource__def_8h__dep__incl_org.svg" target="_base">
           <rect id="button" ry="5" rx="5" y="6" x="6" height="38" width="38"
                fill="#f2f5e9" fill-opacity="0.5" stroke="#606060" stroke-width="1.0"/>
           <path id="arrow"
             d="M 11.500037,31.436501 C 11.940474,20.09759 22.043105,11.32322 32.158766,21.979434 L 37.068811,17.246167 C 37.068811,17.246167 37.088388,32 37.088388,32 L 22.160133,31.978069 C 22.160133,31.978069 26.997745,27.140456 26.997745,27.140456 C 18.528582,18.264221 13.291696,25.230495 11.500037,31.436501 z"
             style="fill:#404040;"/>
          </a>
         </g>
        </svg>
</svg>
