<?xml version="1.0" encoding="UTF-8" standalone="no"?>
<!DOCTYPE svg PUBLIC "-//W3C//DTD SVG 1.1//EN"
 "http://www.w3.org/Graphics/SVG/1.1/DTD/svg11.dtd">
<!-- Generated by graphviz version 2.38.0 (20140413.2041)
 -->
<!-- Title: C:/Users/Jameson/Documents/git&#45;projects/openage/libopenage/pyinterface/setup.h Pages: 1 -->
<svg width="239pt" height="162pt"
 viewBox="0.00 0.00 238.50 162.45" xmlns="http://www.w3.org/2000/svg" xmlns:xlink="http://www.w3.org/1999/xlink">
<g id="graph0" class="graph" transform="scale(1 1) rotate(0) translate(4 158.452)">
<title>C:/Users/Jameson/Documents/git&#45;projects/openage/libopenage/pyinterface/setup.h</title>
<polygon fill="white" stroke="none" points="-4,4 -4,-158.452 234.5,-158.452 234.5,4 -4,4"/>
<!-- Node0 -->
<g id="node1" class="node"><title>Node0</title>
<g id="a_node1"><a xlink:title=" ">
<polygon fill="#bfbfbf" stroke="black" points="0,-112.952 0,-153.952 157,-153.952 157,-112.952 0,-112.952"/>
<text text-anchor="start" x="8" y="-141.952" font-family="Helvetica,sans-Serif" font-size="10.00">C:/Users/Jameson/Documents</text>
<text text-anchor="start" x="8" y="-130.952" font-family="Helvetica,sans-Serif" font-size="10.00">/git&#45;projects/openage/libopenage</text>
<text text-anchor="middle" x="78.5" y="-119.952" font-family="Helvetica,sans-Serif" font-size="10.00">/pyinterface/setup.h</text>
</a>
</g>
</g>
<!-- Node1 -->
<g id="node2" class="node"><title>Node1</title>
<g id="a_node2"><a xlink:title=" ">
<polygon fill="white" stroke="#bfbfbf" points="4.5,-56.9516 4.5,-75.9516 62.5,-75.9516 62.5,-56.9516 4.5,-56.9516"/>
<text text-anchor="middle" x="33.5" y="-63.9516" font-family="Helvetica,sans-Serif" font-size="10.00">functional</text>
</a>
</g>
</g>
<!-- Node0&#45;&gt;Node1 -->
<g id="edge1" class="edge"><title>Node0&#45;&gt;Node1</title>
<path fill="none" stroke="midnightblue" d="M64.9985,-112.949C58.6962,-103.846 51.2662,-93.1139 45.2056,-84.3597"/>
<polygon fill="midnightblue" stroke="midnightblue" points="48.06,-82.3338 39.4902,-76.1041 42.3046,-86.3183 48.06,-82.3338"/>
</g>
<!-- Node2 -->
<g id="node3" class="node"><title>Node2</title>
<g id="a_node3"><a xlink:href="compiler_8h.xhtml" target="_top" xlink:title=" ">
<polygon fill="white" stroke="black" points="80.5,-56.9516 80.5,-75.9516 166.5,-75.9516 166.5,-56.9516 80.5,-56.9516"/>
<text text-anchor="middle" x="123.5" y="-63.9516" font-family="Helvetica,sans-Serif" font-size="10.00">../util/compiler.h</text>
</a>
</g>
</g>
<!-- Node0&#45;&gt;Node2 -->
<g id="edge2" class="edge"><title>Node0&#45;&gt;Node2</title>
<path fill="none" stroke="midnightblue" d="M92.0015,-112.949C98.3038,-103.846 105.734,-93.1139 111.794,-84.3597"/>
<polygon fill="midnightblue" stroke="midnightblue" points="114.695,-86.3183 117.51,-76.1041 108.94,-82.3338 114.695,-86.3183"/>
</g>
<!-- Node3 -->
<g id="node4" class="node"><title>Node3</title>
<g id="a_node4"><a xlink:title=" ">
<polygon fill="white" stroke="#bfbfbf" points="34.5,-0.951632 34.5,-19.9516 84.5,-19.9516 84.5,-0.951632 34.5,-0.951632"/>
<text text-anchor="middle" x="59.5" y="-7.95163" font-family="Helvetica,sans-Serif" font-size="10.00">ciso646</text>
</a>
</g>
</g>
<!-- Node2&#45;&gt;Node3 -->
<g id="edge3" class="edge"><title>Node2&#45;&gt;Node3</title>
<path fill="none" stroke="midnightblue" d="M113.217,-56.7756C103.664,-48.7148 89.2203,-36.5281 77.7157,-26.8211"/>
<polygon fill="midnightblue" stroke="midnightblue" points="79.8698,-24.0592 69.9698,-20.2855 75.3557,-29.4093 79.8698,-24.0592"/>
</g>
<!-- Node4 -->
<g id="node5" class="node"><title>Node4</title>
<g id="a_node5"><a xlink:title=" ">
<polygon fill="white" stroke="#bfbfbf" points="103,-0.951632 103,-19.9516 144,-19.9516 144,-0.951632 103,-0.951632"/>
<text text-anchor="middle" x="123.5" y="-7.95163" font-family="Helvetica,sans-Serif" font-size="10.00">string</text>
</a>
</g>
</g>
<!-- Node2&#45;&gt;Node4 -->
<g id="edge4" class="edge"><title>Node2&#45;&gt;Node4</title>
<path fill="none" stroke="midnightblue" d="M123.5,-56.5346C123.5,-49.4575 123.5,-39.3127 123.5,-30.4381"/>
<polygon fill="midnightblue" stroke="midnightblue" points="127,-30.2027 123.5,-20.2027 120,-30.2027 127,-30.2027"/>
</g>
<!-- Node5 -->
<g id="node6" class="node"><title>Node5</title>
<g id="a_node6"><a xlink:href="signal_8h.xhtml" target="_top" xlink:title=" ">
<polygon fill="white" stroke="black" points="162.5,-0.951632 162.5,-19.9516 212.5,-19.9516 212.5,-0.951632 162.5,-0.951632"/>
<text text-anchor="middle" x="187.5" y="-7.95163" font-family="Helvetica,sans-Serif" font-size="10.00">signal.h</text>
</a>
</g>
</g>
<!-- Node2&#45;&gt;Node5 -->
<g id="edge5" class="edge"><title>Node2&#45;&gt;Node5</title>
<path fill="none" stroke="midnightblue" d="M133.783,-56.7756C143.336,-48.7148 157.78,-36.5281 169.284,-26.8211"/>
<polygon fill="midnightblue" stroke="midnightblue" points="171.644,-29.4093 177.03,-20.2855 167.13,-24.0592 171.644,-29.4093"/>
</g>
<!-- Node5&#45;&gt;Node5 -->
<g id="edge6" class="edge"><title>Node5&#45;&gt;Node5</title>
<path fill="none" stroke="midnightblue" d="M206.063,-20.0262C218.446,-22.7213 230.5,-19.5298 230.5,-10.4516 230.5,-3.92673 224.273,-0.442852 216.173,-0"/>
<polygon fill="midnightblue" stroke="midnightblue" points="215.723,3.47427 206.063,-0.877047 216.329,-3.49953 215.723,3.47427"/>
</g>
</g>
</svg>
