<?xml version="1.0" encoding="UTF-8" standalone="no"?>
<!DOCTYPE svg PUBLIC "-//W3C//DTD SVG 1.1//EN"
 "http://www.w3.org/Graphics/SVG/1.1/DTD/svg11.dtd">
<!-- Generated by graphviz version 2.38.0 (20140413.2041)
 -->
<!-- Title: C:/Users/Jameson/Documents/git&#45;projects/openage/libopenage/renderer/resources/shader_source.h Pages: 1 -->
<!--zoomable 284 -->
<svg id="main" version="1.1" xmlns="http://www.w3.org/2000/svg" xmlns:xlink="http://www.w3.org/1999/xlink" xml:space="preserve" onload="init(evt)">
<style type="text/css"><![CDATA[
.edge:hover path { stroke: red; }
.edge:hover polygon { stroke: red; fill: red; }
]]></style>
<script type="text/javascript"><![CDATA[
var edges = document.getElementsByTagName('g');
if (edges && edges.length) {
  for (var i=0;i<edges.length;i++) {
    if (edges[i].id.substr(0,4)=='edge') {
      edges[i].setAttribute('class','edge');
    }
  }
}
]]></script>
        <defs>
                <circle id="rim" cx="0" cy="0" r="7"/>
                <circle id="rim2" cx="0" cy="0" r="3.5"/>
                <g id="zoomPlus">
                        <use xlink:href="#rim" fill="#404040">
                                <set attributeName="fill" to="#808080" begin="zoomplus.mouseover" end="zoomplus.mouseout"/>
                        </use>
                        <path d="M-4,0h8M0,-4v8" fill="none" stroke="white" stroke-width="1.5" pointer-events="none"/>
                </g>
                <g id="zoomMin">
                        <use xlink:href="#rim" fill="#404040">
                                <set attributeName="fill" to="#808080" begin="zoomminus.mouseover" end="zoomminus.mouseout"/>
                        </use>
                        <path d="M-4,0h8" fill="none" stroke="white" stroke-width="1.5" pointer-events="none"/>
                </g>
                <g id="dirArrow">
                        <path fill="none" stroke="white" stroke-width="1.5" d="M0,-3.0v7 M-2.5,-0.5L0,-3.0L2.5,-0.5"/>
                </g>
               <g id="resetDef">
                       <use xlink:href="#rim2" fill="#404040">
                               <set attributeName="fill" to="#808080" begin="reset.mouseover" end="reset.mouseout"/>
                       </use>
               </g>
        </defs>

<script type="text/javascript">
var viewWidth = 1061;
var viewHeight = 284;
var sectionId = 'dynsection-1';
</script>
<script xlink:href="svgpan.js"/>
<svg id="graph" class="graph">
<g id="viewport">
<title>C:/Users/Jameson/Documents/git&#45;projects/openage/libopenage/renderer/resources/shader_source.h</title>
<polygon fill="white" stroke="none" points="-4,4 -4,-280 1056.5,-280 1056.5,4 -4,4"/>
<!-- Node40 -->
<g id="node1" class="node"><title>Node40</title>
<g id="a_node1"><a xlink:title=" ">
<polygon fill="#bfbfbf" stroke="black" points="568.5,-234.5 568.5,-275.5 744.5,-275.5 744.5,-234.5 568.5,-234.5"/>
<text text-anchor="start" x="576.5" y="-263.5" font-family="Helvetica,sans-Serif" font-size="10.00">C:/Users/Jameson/Documents</text>
<text text-anchor="start" x="576.5" y="-252.5" font-family="Helvetica,sans-Serif" font-size="10.00">/git&#45;projects/openage/libopenage</text>
<text text-anchor="middle" x="656.5" y="-241.5" font-family="Helvetica,sans-Serif" font-size="10.00">/renderer/resources/shader_source.h</text>
</a>
</g>
</g>
<!-- Node41 -->
<g id="node2" class="node"><title>Node41</title>
<g id="a_node2"><a xlink:href="opengl_2shader__program_8h.xhtml" target="_top" xlink:title=" ">
<polygon fill="white" stroke="black" points="105,-156.5 105,-197.5 272,-197.5 272,-156.5 105,-156.5"/>
<text text-anchor="start" x="113" y="-185.5" font-family="Helvetica,sans-Serif" font-size="10.00">C:/Users/Jameson/Documents</text>
<text text-anchor="start" x="113" y="-174.5" font-family="Helvetica,sans-Serif" font-size="10.00">/git&#45;projects/openage/libopenage</text>
<text text-anchor="middle" x="188.5" y="-163.5" font-family="Helvetica,sans-Serif" font-size="10.00">/renderer/opengl/shader_program.h</text>
</a>
</g>
</g>
<!-- Node40&#45;&gt;Node41 -->
<g id="edge1" class="edge"><title>Node40&#45;&gt;Node41</title>
<path fill="none" stroke="midnightblue" d="M558.502,-240.883C483.123,-230.408 376.476,-214.752 283.5,-198 279.768,-197.328 275.958,-196.619 272.113,-195.885"/>
<polygon fill="midnightblue" stroke="midnightblue" points="558.076,-244.357 568.462,-242.262 559.037,-237.424 558.076,-244.357"/>
</g>
<!-- Node46 -->
<g id="node7" class="node"><title>Node46</title>
<g id="a_node7"><a xlink:href="renderer_2opengl_2shader_8h.xhtml" target="_top" xlink:title=" ">
<polygon fill="white" stroke="black" points="293,-156.5 293,-197.5 450,-197.5 450,-156.5 293,-156.5"/>
<text text-anchor="start" x="301" y="-185.5" font-family="Helvetica,sans-Serif" font-size="10.00">C:/Users/Jameson/Documents</text>
<text text-anchor="start" x="301" y="-174.5" font-family="Helvetica,sans-Serif" font-size="10.00">/git&#45;projects/openage/libopenage</text>
<text text-anchor="middle" x="371.5" y="-163.5" font-family="Helvetica,sans-Serif" font-size="10.00">/renderer/opengl/shader.h</text>
</a>
</g>
</g>
<!-- Node40&#45;&gt;Node46 -->
<g id="edge7" class="edge"><title>Node40&#45;&gt;Node46</title>
<path fill="none" stroke="midnightblue" d="M573.203,-231.787C532.482,-220.929 483.917,-207.978 444.646,-197.506"/>
<polygon fill="midnightblue" stroke="midnightblue" points="572.541,-235.233 583.105,-234.428 574.345,-228.47 572.541,-235.233"/>
</g>
<!-- Node48 -->
<g id="node9" class="node"><title>Node48</title>
<g id="a_node9"><a xlink:href="shader__source_8cpp.xhtml" target="_top" xlink:title=" ">
<polygon fill="white" stroke="black" points="468.5,-156.5 468.5,-197.5 654.5,-197.5 654.5,-156.5 468.5,-156.5"/>
<text text-anchor="start" x="476.5" y="-185.5" font-family="Helvetica,sans-Serif" font-size="10.00">C:/Users/Jameson/Documents</text>
<text text-anchor="start" x="476.5" y="-174.5" font-family="Helvetica,sans-Serif" font-size="10.00">/git&#45;projects/openage/libopenage</text>
<text text-anchor="middle" x="561.5" y="-163.5" font-family="Helvetica,sans-Serif" font-size="10.00">/renderer/resources/shader_source.cpp</text>
</a>
</g>
</g>
<!-- Node40&#45;&gt;Node48 -->
<g id="edge10" class="edge"><title>Node40&#45;&gt;Node48</title>
<path fill="none" stroke="midnightblue" d="M624.081,-228.065C611.572,-218.057 597.506,-206.804 585.882,-197.506"/>
<polygon fill="midnightblue" stroke="midnightblue" points="622.04,-230.914 632.035,-234.428 626.413,-225.448 622.04,-230.914"/>
</g>
<!-- Node49 -->
<g id="node10" class="node"><title>Node49</title>
<g id="a_node10"><a xlink:href="renderer_2tests_8cpp.xhtml" target="_top" xlink:title=" ">
<polygon fill="white" stroke="black" points="673,-156.5 673,-197.5 830,-197.5 830,-156.5 673,-156.5"/>
<text text-anchor="start" x="681" y="-185.5" font-family="Helvetica,sans-Serif" font-size="10.00">C:/Users/Jameson/Documents</text>
<text text-anchor="start" x="681" y="-174.5" font-family="Helvetica,sans-Serif" font-size="10.00">/git&#45;projects/openage/libopenage</text>
<text text-anchor="middle" x="751.5" y="-163.5" font-family="Helvetica,sans-Serif" font-size="10.00">/renderer/tests.cpp</text>
</a>
</g>
</g>
<!-- Node40&#45;&gt;Node49 -->
<g id="edge11" class="edge"><title>Node40&#45;&gt;Node49</title>
<path fill="none" stroke="midnightblue" d="M688.919,-228.065C701.428,-218.057 715.494,-206.804 727.118,-197.506"/>
<polygon fill="midnightblue" stroke="midnightblue" points="686.587,-225.448 680.965,-234.428 690.96,-230.914 686.587,-225.448"/>
</g>
<!-- Node50 -->
<g id="node11" class="node"><title>Node50</title>
<g id="a_node11"><a xlink:href="vulkan_2renderer_8cpp.xhtml" target="_top" xlink:title=" ">
<polygon fill="white" stroke="black" points="835,-78.5 835,-119.5 992,-119.5 992,-78.5 835,-78.5"/>
<text text-anchor="start" x="843" y="-107.5" font-family="Helvetica,sans-Serif" font-size="10.00">C:/Users/Jameson/Documents</text>
<text text-anchor="start" x="843" y="-96.5" font-family="Helvetica,sans-Serif" font-size="10.00">/git&#45;projects/openage/libopenage</text>
<text text-anchor="middle" x="913.5" y="-85.5" font-family="Helvetica,sans-Serif" font-size="10.00">/renderer/vulkan/renderer.cpp</text>
</a>
</g>
</g>
<!-- Node40&#45;&gt;Node50 -->
<g id="edge12" class="edge"><title>Node40&#45;&gt;Node50</title>
<path fill="none" stroke="midnightblue" d="M754.482,-235.792C783.249,-227.399 813.634,-215.307 838.5,-198 853.975,-187.23 883.621,-144.948 900.639,-119.574"/>
<polygon fill="midnightblue" stroke="midnightblue" points="753.487,-232.436 744.799,-238.499 755.372,-239.177 753.487,-232.436"/>
</g>
<!-- Node51 -->
<g id="node12" class="node"><title>Node51</title>
<g id="a_node12"><a xlink:href="vulkan_2shader__program_8h.xhtml" target="_top" xlink:title=" ">
<polygon fill="white" stroke="black" points="886.5,-156.5 886.5,-197.5 1052.5,-197.5 1052.5,-156.5 886.5,-156.5"/>
<text text-anchor="start" x="894.5" y="-185.5" font-family="Helvetica,sans-Serif" font-size="10.00">C:/Users/Jameson/Documents</text>
<text text-anchor="start" x="894.5" y="-174.5" font-family="Helvetica,sans-Serif" font-size="10.00">/git&#45;projects/openage/libopenage</text>
<text text-anchor="middle" x="969.5" y="-163.5" font-family="Helvetica,sans-Serif" font-size="10.00">/renderer/vulkan/shader_program.h</text>
</a>
</g>
</g>
<!-- Node40&#45;&gt;Node51 -->
<g id="edge13" class="edge"><title>Node40&#45;&gt;Node51</title>
<path fill="none" stroke="midnightblue" d="M746.848,-232.062C791.799,-221.148 845.674,-208.066 889.168,-197.506"/>
<polygon fill="midnightblue" stroke="midnightblue" points="745.997,-228.667 737.105,-234.428 747.649,-235.47 745.997,-228.667"/>
</g>
<!-- Node42 -->
<g id="node3" class="node"><title>Node42</title>
<g id="a_node3"><a xlink:href="opengl_2renderer_8h.xhtml" target="_top" xlink:title=" ">
<polygon fill="white" stroke="black" points="107,-78.5 107,-119.5 264,-119.5 264,-78.5 107,-78.5"/>
<text text-anchor="start" x="115" y="-107.5" font-family="Helvetica,sans-Serif" font-size="10.00">C:/Users/Jameson/Documents</text>
<text text-anchor="start" x="115" y="-96.5" font-family="Helvetica,sans-Serif" font-size="10.00">/git&#45;projects/openage/libopenage</text>
<text text-anchor="middle" x="185.5" y="-85.5" font-family="Helvetica,sans-Serif" font-size="10.00">/renderer/opengl/renderer.h</text>
</a>
</g>
</g>
<!-- Node41&#45;&gt;Node42 -->
<g id="edge2" class="edge"><title>Node41&#45;&gt;Node42</title>
<path fill="none" stroke="midnightblue" d="M187.327,-146.297C186.972,-137.301 186.592,-127.653 186.27,-119.506"/>
<polygon fill="midnightblue" stroke="midnightblue" points="183.836,-146.574 187.727,-156.428 190.83,-146.298 183.836,-146.574"/>
</g>
<!-- Node43 -->
<g id="node4" class="node"><title>Node43</title>
<g id="a_node4"><a xlink:href="opengl_2renderer_8cpp.xhtml" target="_top" xlink:title=" ">
<polygon fill="white" stroke="black" points="0,-0.5 0,-41.5 157,-41.5 157,-0.5 0,-0.5"/>
<text text-anchor="start" x="8" y="-29.5" font-family="Helvetica,sans-Serif" font-size="10.00">C:/Users/Jameson/Documents</text>
<text text-anchor="start" x="8" y="-18.5" font-family="Helvetica,sans-Serif" font-size="10.00">/git&#45;projects/openage/libopenage</text>
<text text-anchor="middle" x="78.5" y="-7.5" font-family="Helvetica,sans-Serif" font-size="10.00">/renderer/opengl/renderer.cpp</text>
</a>
</g>
</g>
<!-- Node41&#45;&gt;Node43 -->
<g id="edge5" class="edge"><title>Node41&#45;&gt;Node43</title>
<path fill="none" stroke="midnightblue" d="M132.316,-151.387C119.112,-143.166 106.332,-132.764 97.5,-120 81.3269,-96.6278 78.078,-62.982 77.8316,-41.8176"/>
<polygon fill="midnightblue" stroke="midnightblue" points="130.617,-154.449 141.016,-156.478 134.152,-148.407 130.617,-154.449"/>
</g>
<!-- Node45 -->
<g id="node6" class="node"><title>Node45</title>
<g id="a_node6"><a xlink:href="shader__program_8cpp.xhtml" target="_top" xlink:title=" ">
<polygon fill="white" stroke="black" points="282.5,-78.5 282.5,-119.5 460.5,-119.5 460.5,-78.5 282.5,-78.5"/>
<text text-anchor="start" x="290.5" y="-107.5" font-family="Helvetica,sans-Serif" font-size="10.00">C:/Users/Jameson/Documents</text>
<text text-anchor="start" x="290.5" y="-96.5" font-family="Helvetica,sans-Serif" font-size="10.00">/git&#45;projects/openage/libopenage</text>
<text text-anchor="middle" x="371.5" y="-85.5" font-family="Helvetica,sans-Serif" font-size="10.00">/renderer/opengl/shader_program.cpp</text>
</a>
</g>
</g>
<!-- Node41&#45;&gt;Node45 -->
<g id="edge6" class="edge"><title>Node41&#45;&gt;Node45</title>
<path fill="none" stroke="midnightblue" d="M245.16,-152.469C270.628,-141.892 300.329,-129.557 324.533,-119.506"/>
<polygon fill="midnightblue" stroke="midnightblue" points="243.52,-149.36 235.627,-156.428 246.205,-155.825 243.52,-149.36"/>
</g>
<!-- Node42&#45;&gt;Node43 -->
<g id="edge3" class="edge"><title>Node42&#45;&gt;Node43</title>
<path fill="none" stroke="midnightblue" d="M149.789,-72.6352C135.501,-62.4868 119.303,-50.9816 105.962,-41.5056"/>
<polygon fill="midnightblue" stroke="midnightblue" points="147.765,-75.4908 157.945,-78.4281 151.819,-69.7839 147.765,-75.4908"/>
</g>
<!-- Node44 -->
<g id="node5" class="node"><title>Node44</title>
<g id="a_node5"><a xlink:href="opengl_2window_8cpp.xhtml" target="_top" xlink:title=" ">
<polygon fill="white" stroke="black" points="175,-0.5 175,-41.5 332,-41.5 332,-0.5 175,-0.5"/>
<text text-anchor="start" x="183" y="-29.5" font-family="Helvetica,sans-Serif" font-size="10.00">C:/Users/Jameson/Documents</text>
<text text-anchor="start" x="183" y="-18.5" font-family="Helvetica,sans-Serif" font-size="10.00">/git&#45;projects/openage/libopenage</text>
<text text-anchor="middle" x="253.5" y="-7.5" font-family="Helvetica,sans-Serif" font-size="10.00">/renderer/opengl/window.cpp</text>
</a>
</g>
</g>
<!-- Node42&#45;&gt;Node44 -->
<g id="edge4" class="edge"><title>Node42&#45;&gt;Node44</title>
<path fill="none" stroke="midnightblue" d="M209.733,-70.9158C218.424,-61.2029 228.045,-50.4502 236.048,-41.5056"/>
<polygon fill="midnightblue" stroke="midnightblue" points="207.071,-68.6419 203.012,-78.4281 212.288,-73.3095 207.071,-68.6419"/>
</g>
<!-- Node46&#45;&gt;Node45 -->
<g id="edge9" class="edge"><title>Node46&#45;&gt;Node45</title>
<path fill="none" stroke="midnightblue" d="M371.5,-146.297C371.5,-137.301 371.5,-127.653 371.5,-119.506"/>
<polygon fill="midnightblue" stroke="midnightblue" points="368,-146.428 371.5,-156.428 375,-146.428 368,-146.428"/>
</g>
<!-- Node47 -->
<g id="node8" class="node"><title>Node47</title>
<g id="a_node8"><a xlink:href="renderer_2opengl_2shader_8cpp.xhtml" target="_top" xlink:title=" ">
<polygon fill="white" stroke="black" points="479,-78.5 479,-119.5 636,-119.5 636,-78.5 479,-78.5"/>
<text text-anchor="start" x="487" y="-107.5" font-family="Helvetica,sans-Serif" font-size="10.00">C:/Users/Jameson/Documents</text>
<text text-anchor="start" x="487" y="-96.5" font-family="Helvetica,sans-Serif" font-size="10.00">/git&#45;projects/openage/libopenage</text>
<text text-anchor="middle" x="557.5" y="-85.5" font-family="Helvetica,sans-Serif" font-size="10.00">/renderer/opengl/shader.cpp</text>
</a>
</g>
</g>
<!-- Node46&#45;&gt;Node47 -->
<g id="edge8" class="edge"><title>Node46&#45;&gt;Node47</title>
<path fill="none" stroke="midnightblue" d="M428.747,-152.609C454.708,-142.001 485.054,-129.602 509.763,-119.506"/>
<polygon fill="midnightblue" stroke="midnightblue" points="427.333,-149.406 419.4,-156.428 429.981,-155.886 427.333,-149.406"/>
</g>
<!-- Node51&#45;&gt;Node50 -->
<g id="edge14" class="edge"><title>Node51&#45;&gt;Node50</title>
<path fill="none" stroke="midnightblue" d="M949.117,-148.338C942.073,-138.778 934.333,-128.273 927.873,-119.506"/>
<polygon fill="midnightblue" stroke="midnightblue" points="946.329,-150.454 955.079,-156.428 951.964,-146.301 946.329,-150.454"/>
</g>
</g>
</svg>
        <g id="navigator" transform="translate(0 0)" fill="#404254">
                <rect fill="#f2f5e9" fill-opacity="0.5" stroke="#606060" stroke-width=".5" x="0" y="0" width="60" height="60"/>
                <use id="zoomplus" xlink:href="#zoomPlus" x="17" y="9" onmousedown="handleZoom(evt,'in')"/>
                <use id="zoomminus" xlink:href="#zoomMin" x="42" y="9" onmousedown="handleZoom(evt,'out')"/>
                <use id="reset" xlink:href="#resetDef" x="30" y="36" onmousedown="handleReset()"/>
                <g id="arrowUp" xlink:href="#dirArrow" transform="translate(30 24)" onmousedown="handlePan(0,-1)">
                  <use xlink:href="#rim" fill="#404040">
                        <set attributeName="fill" to="#808080" begin="arrowUp.mouseover" end="arrowUp.mouseout"/>
                  </use>
                  <path fill="none" stroke="white" stroke-width="1.5" d="M0,-3.0v7 M-2.5,-0.5L0,-3.0L2.5,-0.5"/>
                </g>
                <g id="arrowRight" xlink:href="#dirArrow" transform="rotate(90) translate(36 -43)" onmousedown="handlePan(1,0)">
                  <use xlink:href="#rim" fill="#404040">
                        <set attributeName="fill" to="#808080" begin="arrowRight.mouseover" end="arrowRight.mouseout"/>
                  </use>
                  <path fill="none" stroke="white" stroke-width="1.5" d="M0,-3.0v7 M-2.5,-0.5L0,-3.0L2.5,-0.5"/>
                </g>
                <g id="arrowDown" xlink:href="#dirArrow" transform="rotate(180) translate(-30 -48)" onmousedown="handlePan(0,1)">
                  <use xlink:href="#rim" fill="#404040">
                        <set attributeName="fill" to="#808080" begin="arrowDown.mouseover" end="arrowDown.mouseout"/>
                  </use>
                  <path fill="none" stroke="white" stroke-width="1.5" d="M0,-3.0v7 M-2.5,-0.5L0,-3.0L2.5,-0.5"/>
                </g>
                <g id="arrowLeft" xlink:href="#dirArrow" transform="rotate(270) translate(-36 17)" onmousedown="handlePan(-1,0)">
                  <use xlink:href="#rim" fill="#404040">
                        <set attributeName="fill" to="#808080" begin="arrowLeft.mouseover" end="arrowLeft.mouseout"/>
                  </use>
                  <path fill="none" stroke="white" stroke-width="1.5" d="M0,-3.0v7 M-2.5,-0.5L0,-3.0L2.5,-0.5"/>
                </g>
        </g>
        <svg viewBox="0 0 15 15" width="100%" height="30px" preserveAspectRatio="xMaxYMin meet">
         <g id="arrow_out" transform="scale(0.3 0.3)">
          <a xlink:href="shader__source_8h__dep__incl_org.svg" target="_base">
           <rect id="button" ry="5" rx="5" y="6" x="6" height="38" width="38"
                fill="#f2f5e9" fill-opacity="0.5" stroke="#606060" stroke-width="1.0"/>
           <path id="arrow"
             d="M 11.500037,31.436501 C 11.940474,20.09759 22.043105,11.32322 32.158766,21.979434 L 37.068811,17.246167 C 37.068811,17.246167 37.088388,32 37.088388,32 L 22.160133,31.978069 C 22.160133,31.978069 26.997745,27.140456 26.997745,27.140456 C 18.528582,18.264221 13.291696,25.230495 11.500037,31.436501 z"
             style="fill:#404040;"/>
          </a>
         </g>
        </svg>
</svg>
