<?xml version="1.0" encoding="UTF-8" standalone="no"?>
<!DOCTYPE svg PUBLIC "-//W3C//DTD SVG 1.1//EN"
 "http://www.w3.org/Graphics/SVG/1.1/DTD/svg11.dtd">
<!-- Generated by graphviz version 2.38.0 (20140413.2041)
 -->
<!-- Title: C:/Users/Jameson/Documents/git&#45;projects/openage/libopenage/renderer/resources/shader_source.cpp Pages: 1 -->
<!--zoomable 778 -->
<svg id="main" version="1.1" xmlns="http://www.w3.org/2000/svg" xmlns:xlink="http://www.w3.org/1999/xlink" xml:space="preserve" onload="init(evt)">
<style type="text/css"><![CDATA[
.edge:hover path { stroke: red; }
.edge:hover polygon { stroke: red; fill: red; }
]]></style>
<script type="text/javascript"><![CDATA[
var edges = document.getElementsByTagName('g');
if (edges && edges.length) {
  for (var i=0;i<edges.length;i++) {
    if (edges[i].id.substr(0,4)=='edge') {
      edges[i].setAttribute('class','edge');
    }
  }
}
]]></script>
        <defs>
                <circle id="rim" cx="0" cy="0" r="7"/>
                <circle id="rim2" cx="0" cy="0" r="3.5"/>
                <g id="zoomPlus">
                        <use xlink:href="#rim" fill="#404040">
                                <set attributeName="fill" to="#808080" begin="zoomplus.mouseover" end="zoomplus.mouseout"/>
                        </use>
                        <path d="M-4,0h8M0,-4v8" fill="none" stroke="white" stroke-width="1.5" pointer-events="none"/>
                </g>
                <g id="zoomMin">
                        <use xlink:href="#rim" fill="#404040">
                                <set attributeName="fill" to="#808080" begin="zoomminus.mouseover" end="zoomminus.mouseout"/>
                        </use>
                        <path d="M-4,0h8" fill="none" stroke="white" stroke-width="1.5" pointer-events="none"/>
                </g>
                <g id="dirArrow">
                        <path fill="none" stroke="white" stroke-width="1.5" d="M0,-3.0v7 M-2.5,-0.5L0,-3.0L2.5,-0.5"/>
                </g>
               <g id="resetDef">
                       <use xlink:href="#rim2" fill="#404040">
                               <set attributeName="fill" to="#808080" begin="reset.mouseover" end="reset.mouseout"/>
                       </use>
               </g>
        </defs>

<script type="text/javascript">
var viewWidth = 1316;
var viewHeight = 778;
var sectionId = 'dynsection-0';
</script>
<script xlink:href="svgpan.js"/>
<svg id="graph" class="graph">
<g id="viewport">
<title>C:/Users/Jameson/Documents/git&#45;projects/openage/libopenage/renderer/resources/shader_source.cpp</title>
<polygon fill="white" stroke="none" points="-4,4 -4,-774.452 1311.5,-774.452 1311.5,4 -4,4"/>
<!-- Node0 -->
<g id="node1" class="node"><title>Node0</title>
<g id="a_node1"><a xlink:title=" ">
<polygon fill="#bfbfbf" stroke="black" points="1121.5,-728.952 1121.5,-769.952 1307.5,-769.952 1307.5,-728.952 1121.5,-728.952"/>
<text text-anchor="start" x="1129.5" y="-757.952" font-family="Helvetica,sans-Serif" font-size="10.00">C:/Users/Jameson/Documents</text>
<text text-anchor="start" x="1129.5" y="-746.952" font-family="Helvetica,sans-Serif" font-size="10.00">/git&#45;projects/openage/libopenage</text>
<text text-anchor="middle" x="1214.5" y="-735.952" font-family="Helvetica,sans-Serif" font-size="10.00">/renderer/resources/shader_source.cpp</text>
</a>
</g>
</g>
<!-- Node1 -->
<g id="node2" class="node"><title>Node1</title>
<g id="a_node2"><a xlink:href="shader__source_8h.xhtml" target="_top" xlink:title=" ">
<polygon fill="white" stroke="black" points="1134,-672.952 1134,-691.952 1223,-691.952 1223,-672.952 1134,-672.952"/>
<text text-anchor="middle" x="1178.5" y="-679.952" font-family="Helvetica,sans-Serif" font-size="10.00">shader_source.h</text>
</a>
</g>
</g>
<!-- Node0&#45;&gt;Node1 -->
<g id="edge1" class="edge"><title>Node0&#45;&gt;Node1</title>
<path fill="none" stroke="midnightblue" d="M1203.7,-728.949C1198.76,-720.038 1192.96,-709.565 1188.17,-700.915"/>
<polygon fill="midnightblue" stroke="midnightblue" points="1191.2,-699.156 1183.29,-692.104 1185.08,-702.548 1191.2,-699.156"/>
</g>
<!-- Node38 -->
<g id="node39" class="node"><title>Node38</title>
<g id="a_node39"><a xlink:href="file_8h.xhtml" target="_top" xlink:title=" ">
<polygon fill="white" stroke="black" points="1005,-560.952 1005,-579.952 1042,-579.952 1042,-560.952 1005,-560.952"/>
<text text-anchor="middle" x="1023.5" y="-567.952" font-family="Helvetica,sans-Serif" font-size="10.00">file.h</text>
</a>
</g>
</g>
<!-- Node0&#45;&gt;Node38 -->
<g id="edge71" class="edge"><title>Node0&#45;&gt;Node38</title>
<path fill="none" stroke="midnightblue" d="M1226.93,-728.689C1235.38,-712.504 1243.24,-689.566 1232.5,-672.452 1192.38,-608.502 1099.06,-584.061 1051.89,-575.55"/>
<polygon fill="midnightblue" stroke="midnightblue" points="1052.46,-572.098 1042.02,-573.883 1051.29,-579 1052.46,-572.098"/>
</g>
<!-- Node2 -->
<g id="node3" class="node"><title>Node2</title>
<g id="a_node3"><a xlink:title=" ">
<polygon fill="white" stroke="#bfbfbf" points="1022,-0.951632 1022,-19.9516 1063,-19.9516 1063,-0.951632 1022,-0.951632"/>
<text text-anchor="middle" x="1042.5" y="-7.95163" font-family="Helvetica,sans-Serif" font-size="10.00">string</text>
</a>
</g>
</g>
<!-- Node1&#45;&gt;Node2 -->
<g id="edge2" class="edge"><title>Node1&#45;&gt;Node2</title>
<path fill="none" stroke="midnightblue" d="M1183.22,-672.908C1192.77,-654.789 1213.5,-610.932 1213.5,-571.452 1213.5,-571.452 1213.5,-571.452 1213.5,-121.452 1213.5,-55.5144 1122.46,-27.2362 1073.23,-16.7657"/>
<polygon fill="midnightblue" stroke="midnightblue" points="1073.62,-13.2734 1063.13,-14.7407 1072.24,-20.137 1073.62,-13.2734"/>
</g>
<!-- Node3 -->
<g id="node4" class="node"><title>Node3</title>
<g id="a_node4"><a xlink:href="util_2path_8h.xhtml" target="_top" xlink:title=" ">
<polygon fill="white" stroke="black" points="951,-616.952 951,-635.952 1028,-635.952 1028,-616.952 951,-616.952"/>
<text text-anchor="middle" x="989.5" y="-623.952" font-family="Helvetica,sans-Serif" font-size="10.00">../../util/path.h</text>
</a>
</g>
</g>
<!-- Node1&#45;&gt;Node3 -->
<g id="edge3" class="edge"><title>Node1&#45;&gt;Node3</title>
<path fill="none" stroke="midnightblue" d="M1148.55,-672.895C1116.34,-663.692 1064.97,-649.013 1029.36,-638.84"/>
<polygon fill="midnightblue" stroke="midnightblue" points="1029.88,-635.35 1019.31,-635.968 1027.96,-642.081 1029.88,-635.35"/>
</g>
<!-- Node3&#45;&gt;Node2 -->
<g id="edge4" class="edge"><title>Node3&#45;&gt;Node2</title>
<path fill="none" stroke="midnightblue" d="M1028.04,-620.144C1082.52,-610.227 1175.5,-583.356 1175.5,-515.452 1175.5,-515.452 1175.5,-515.452 1175.5,-121.452 1175.5,-68.527 1112.19,-36.2701 1072.93,-21.355"/>
<polygon fill="midnightblue" stroke="midnightblue" points="1073.88,-17.9749 1063.28,-17.852 1071.49,-24.5546 1073.88,-17.9749"/>
</g>
<!-- Node4 -->
<g id="node5" class="node"><title>Node4</title>
<g id="a_node5"><a xlink:title=" ">
<polygon fill="white" stroke="#bfbfbf" points="853.5,-112.952 853.5,-131.952 895.5,-131.952 895.5,-112.952 853.5,-112.952"/>
<text text-anchor="middle" x="874.5" y="-119.952" font-family="Helvetica,sans-Serif" font-size="10.00">vector</text>
</a>
</g>
</g>
<!-- Node3&#45;&gt;Node4 -->
<g id="edge5" class="edge"><title>Node3&#45;&gt;Node4</title>
<path fill="none" stroke="midnightblue" d="M972.55,-616.834C935.653,-596.872 849.522,-543.379 826.5,-468.452 823.889,-459.955 825.154,-457.238 826.5,-448.452 840.888,-354.523 876.112,-338.38 890.5,-244.452 896.067,-208.107 886.737,-165.441 880.146,-141.721"/>
<polygon fill="midnightblue" stroke="midnightblue" points="883.462,-140.59 877.291,-131.977 876.744,-142.558 883.462,-140.59"/>
</g>
<!-- Node5 -->
<g id="node6" class="node"><title>Node5</title>
<g id="a_node6"><a xlink:href="pyobject_8h.xhtml" target="_top" xlink:title=" ">
<polygon fill="white" stroke="black" points="874,-504.952 874,-523.952 995,-523.952 995,-504.952 874,-504.952"/>
<text text-anchor="middle" x="934.5" y="-511.952" font-family="Helvetica,sans-Serif" font-size="10.00">../pyinterface/pyobject.h</text>
</a>
</g>
</g>
<!-- Node3&#45;&gt;Node5 -->
<g id="edge6" class="edge"><title>Node3&#45;&gt;Node5</title>
<path fill="none" stroke="midnightblue" d="M985.184,-616.82C976.188,-598.828 955.275,-557.002 943.313,-533.078"/>
<polygon fill="midnightblue" stroke="midnightblue" points="946.398,-531.422 938.796,-524.043 940.137,-534.553 946.398,-531.422"/>
</g>
<!-- Node3&#45;&gt;Node38 -->
<g id="edge61" class="edge"><title>Node3&#45;&gt;Node38</title>
<path fill="none" stroke="midnightblue" d="M995.114,-616.535C999.867,-608.986 1006.82,-597.946 1012.65,-588.681"/>
<polygon fill="midnightblue" stroke="midnightblue" points="1015.62,-590.53 1017.99,-580.203 1009.7,-586.8 1015.62,-590.53"/>
</g>
<!-- Node40 -->
<g id="node41" class="node"><title>Node40</title>
<g id="a_node41"><a xlink:href="fslike_2native_8h.xhtml" target="_top" xlink:title=" ">
<polygon fill="white" stroke="black" points="704,-560.952 704,-579.952 779,-579.952 779,-560.952 704,-560.952"/>
<text text-anchor="middle" x="741.5" y="-567.952" font-family="Helvetica,sans-Serif" font-size="10.00">fslike/native.h</text>
</a>
</g>
</g>
<!-- Node3&#45;&gt;Node40 -->
<g id="edge70" class="edge"><title>Node3&#45;&gt;Node40</title>
<path fill="none" stroke="midnightblue" d="M950.75,-617.014C907.09,-607.508 836.102,-592.05 789.104,-581.817"/>
<polygon fill="midnightblue" stroke="midnightblue" points="789.682,-578.361 779.166,-579.653 788.192,-585.201 789.682,-578.361"/>
</g>
<!-- Node5&#45;&gt;Node2 -->
<g id="edge8" class="edge"><title>Node5&#45;&gt;Node2</title>
<path fill="none" stroke="midnightblue" d="M954.403,-504.916C998.288,-484.603 1099.5,-428.923 1099.5,-347.452 1099.5,-347.452 1099.5,-347.452 1099.5,-121.452 1099.5,-84.7521 1074.18,-48.1083 1057.29,-27.7489"/>
<polygon fill="midnightblue" stroke="midnightblue" points="1059.85,-25.3554 1050.67,-20.0678 1054.55,-29.9267 1059.85,-25.3554"/>
</g>
<!-- Node5&#45;&gt;Node4 -->
<g id="edge9" class="edge"><title>Node5&#45;&gt;Node4</title>
<path fill="none" stroke="midnightblue" d="M936.2,-504.934C939.723,-486.507 947.5,-441.527 947.5,-403.452 947.5,-403.452 947.5,-403.452 947.5,-289.452 947.5,-230.646 908.638,-169.281 887.623,-140.398"/>
<polygon fill="midnightblue" stroke="midnightblue" points="890.29,-138.12 881.5,-132.206 884.684,-142.311 890.29,-138.12"/>
</g>
<!-- Node6 -->
<g id="node7" class="node"><title>Node6</title>
<g id="a_node7"><a xlink:title=" ">
<polygon fill="white" stroke="#bfbfbf" points="835.5,-224.952 835.5,-243.952 881.5,-243.952 881.5,-224.952 835.5,-224.952"/>
<text text-anchor="middle" x="858.5" y="-231.952" font-family="Helvetica,sans-Serif" font-size="10.00">cstdint</text>
</a>
</g>
</g>
<!-- Node5&#45;&gt;Node6 -->
<g id="edge7" class="edge"><title>Node5&#45;&gt;Node6</title>
<path fill="none" stroke="midnightblue" d="M932.142,-504.827C921.569,-466.153 878.4,-308.245 863.548,-253.917"/>
<polygon fill="midnightblue" stroke="midnightblue" points="866.844,-252.699 860.83,-243.976 860.091,-254.545 866.844,-252.699"/>
</g>
<!-- Node7 -->
<g id="node8" class="node"><title>Node7</title>
<g id="a_node8"><a xlink:href="defs_8h.xhtml" target="_top" xlink:title=" ">
<polygon fill="white" stroke="black" points="836,-448.952 836,-467.952 879,-467.952 879,-448.952 836,-448.952"/>
<text text-anchor="middle" x="857.5" y="-455.952" font-family="Helvetica,sans-Serif" font-size="10.00">defs.h</text>
</a>
</g>
</g>
<!-- Node5&#45;&gt;Node7 -->
<g id="edge10" class="edge"><title>Node5&#45;&gt;Node7</title>
<path fill="none" stroke="midnightblue" d="M922.129,-504.776C910.342,-496.509 892.368,-483.904 878.364,-474.084"/>
<polygon fill="midnightblue" stroke="midnightblue" points="880.038,-470.982 869.841,-468.106 876.018,-476.714 880.038,-470.982"/>
</g>
<!-- Node8 -->
<g id="node9" class="node"><title>Node8</title>
<g id="a_node9"><a xlink:href="functional_8h.xhtml" target="_top" xlink:title=" ">
<polygon fill="white" stroke="black" points="251.5,-448.952 251.5,-467.952 317.5,-467.952 317.5,-448.952 251.5,-448.952"/>
<text text-anchor="middle" x="284.5" y="-455.952" font-family="Helvetica,sans-Serif" font-size="10.00">functional.h</text>
</a>
</g>
</g>
<!-- Node5&#45;&gt;Node8 -->
<g id="edge11" class="edge"><title>Node5&#45;&gt;Node8</title>
<path fill="none" stroke="midnightblue" d="M873.933,-508.42C743.892,-497.616 440.632,-472.423 327.804,-463.049"/>
<polygon fill="midnightblue" stroke="midnightblue" points="328.06,-459.558 317.804,-462.218 327.48,-466.534 328.06,-459.558"/>
</g>
<!-- Node9 -->
<g id="node10" class="node"><title>Node9</title>
<g id="a_node10"><a xlink:title=" ">
<polygon fill="white" stroke="#bfbfbf" points="39.5,-112.952 39.5,-131.952 97.5,-131.952 97.5,-112.952 39.5,-112.952"/>
<text text-anchor="middle" x="68.5" y="-119.952" font-family="Helvetica,sans-Serif" font-size="10.00">functional</text>
</a>
</g>
</g>
<!-- Node8&#45;&gt;Node9 -->
<g id="edge12" class="edge"><title>Node8&#45;&gt;Node9</title>
<path fill="none" stroke="midnightblue" d="M251.172,-458.19C210.858,-457.281 143.223,-449.723 101.5,-412.452 78.5338,-391.936 77.5,-378.247 77.5,-347.452 77.5,-347.452 77.5,-347.452 77.5,-233.452 77.5,-201.293 73.6316,-164.02 70.9671,-142.162"/>
<polygon fill="midnightblue" stroke="midnightblue" points="74.4074,-141.47 69.6766,-131.99 67.4631,-142.351 74.4074,-141.47"/>
</g>
<!-- Node10 -->
<g id="node11" class="node"><title>Node10</title>
<g id="a_node11"><a xlink:title=" ">
<polygon fill="white" stroke="#bfbfbf" points="651.5,-168.952 651.5,-187.952 695.5,-187.952 695.5,-168.952 651.5,-168.952"/>
<text text-anchor="middle" x="673.5" y="-175.952" font-family="Helvetica,sans-Serif" font-size="10.00">mutex</text>
</a>
</g>
</g>
<!-- Node8&#45;&gt;Node10 -->
<g id="edge13" class="edge"><title>Node8&#45;&gt;Node10</title>
<path fill="none" stroke="midnightblue" d="M317.651,-458.311C388.957,-458.262 550.5,-447.149 550.5,-347.452 550.5,-347.452 550.5,-347.452 550.5,-289.452 550.5,-259.226 550.373,-247.001 570.5,-224.452 580.409,-213.35 615.07,-199.504 641.472,-190.124"/>
<polygon fill="midnightblue" stroke="midnightblue" points="642.827,-193.359 651.118,-186.763 640.523,-186.749 642.827,-193.359"/>
</g>
<!-- Node11 -->
<g id="node12" class="node"><title>Node11</title>
<g id="a_node12"><a xlink:href="compiler_8h.xhtml" target="_top" xlink:title=" ">
<polygon fill="white" stroke="black" points="294.5,-56.9516 294.5,-75.9516 380.5,-75.9516 380.5,-56.9516 294.5,-56.9516"/>
<text text-anchor="middle" x="337.5" y="-63.9516" font-family="Helvetica,sans-Serif" font-size="10.00">../util/compiler.h</text>
</a>
</g>
</g>
<!-- Node8&#45;&gt;Node11 -->
<g id="edge14" class="edge"><title>Node8&#45;&gt;Node11</title>
<path fill="none" stroke="midnightblue" d="M251.111,-451.347C201.859,-440.199 115.5,-411.516 115.5,-347.452 115.5,-347.452 115.5,-347.452 115.5,-233.452 115.5,-166.693 146.523,-145.548 204.5,-112.452 231.25,-97.1818 263.995,-86.0228 290.3,-78.6365"/>
<polygon fill="midnightblue" stroke="midnightblue" points="291.309,-81.9896 300.041,-75.9897 289.473,-75.2345 291.309,-81.9896"/>
</g>
<!-- Node14 -->
<g id="node15" class="node"><title>Node14</title>
<g id="a_node15"><a xlink:href="language_8h.xhtml" target="_top" xlink:title=" ">
<polygon fill="white" stroke="black" points="240,-392.952 240,-411.952 329,-411.952 329,-392.952 240,-392.952"/>
<text text-anchor="middle" x="284.5" y="-399.952" font-family="Helvetica,sans-Serif" font-size="10.00">../util/language.h</text>
</a>
</g>
</g>
<!-- Node8&#45;&gt;Node14 -->
<g id="edge19" class="edge"><title>Node8&#45;&gt;Node14</title>
<path fill="none" stroke="midnightblue" d="M284.5,-448.535C284.5,-441.458 284.5,-431.313 284.5,-422.438"/>
<polygon fill="midnightblue" stroke="midnightblue" points="288,-422.203 284.5,-412.203 281,-422.203 288,-422.203"/>
</g>
<!-- Node15 -->
<g id="node16" class="node"><title>Node15</title>
<g id="a_node16"><a xlink:href="exctranslate_8h.xhtml" target="_top" xlink:title=" ">
<polygon fill="white" stroke="black" points="396.5,-392.952 396.5,-411.952 474.5,-411.952 474.5,-392.952 396.5,-392.952"/>
<text text-anchor="middle" x="435.5" y="-399.952" font-family="Helvetica,sans-Serif" font-size="10.00">exctranslate.h</text>
</a>
</g>
</g>
<!-- Node8&#45;&gt;Node15 -->
<g id="edge20" class="edge"><title>Node8&#45;&gt;Node15</title>
<path fill="none" stroke="midnightblue" d="M308.426,-448.895C333.719,-439.85 373.802,-425.516 402.18,-415.367"/>
<polygon fill="midnightblue" stroke="midnightblue" points="403.448,-418.631 411.686,-411.968 401.091,-412.04 403.448,-418.631"/>
</g>
<!-- Node37 -->
<g id="node38" class="node"><title>Node37</title>
<g id="a_node38"><a xlink:href="setup_8h.xhtml" target="_top" xlink:title=" ">
<polygon fill="white" stroke="black" points="0,-168.952 0,-187.952 49,-187.952 49,-168.952 0,-168.952"/>
<text text-anchor="middle" x="24.5" y="-175.952" font-family="Helvetica,sans-Serif" font-size="10.00">setup.h</text>
</a>
</g>
</g>
<!-- Node8&#45;&gt;Node37 -->
<g id="edge58" class="edge"><title>Node8&#45;&gt;Node37</title>
<path fill="none" stroke="midnightblue" d="M251.277,-454.319C196.973,-448.615 92.347,-434.994 63.5,-412.452 38.2808,-392.744 32.5,-379.458 32.5,-347.452 32.5,-347.452 32.5,-347.452 32.5,-289.452 32.5,-257.315 29.0614,-220.036 26.693,-198.17"/>
<polygon fill="midnightblue" stroke="midnightblue" points="30.1441,-197.539 25.5459,-187.994 23.1881,-198.323 30.1441,-197.539"/>
</g>
<!-- Node11&#45;&gt;Node2 -->
<g id="edge16" class="edge"><title>Node11&#45;&gt;Node2</title>
<path fill="none" stroke="midnightblue" d="M380.767,-60.3312C392.96,-58.9733 406.242,-57.5742 418.5,-56.4516 645.862,-35.6301 920.562,-18.662 1011.57,-13.2576"/>
<polygon fill="midnightblue" stroke="midnightblue" points="1011.96,-16.7404 1021.74,-12.6564 1011.55,-9.75259 1011.96,-16.7404"/>
</g>
<!-- Node12 -->
<g id="node13" class="node"><title>Node12</title>
<g id="a_node13"><a xlink:title=" ">
<polygon fill="white" stroke="#bfbfbf" points="278.5,-0.951632 278.5,-19.9516 328.5,-19.9516 328.5,-0.951632 278.5,-0.951632"/>
<text text-anchor="middle" x="303.5" y="-7.95163" font-family="Helvetica,sans-Serif" font-size="10.00">ciso646</text>
</a>
</g>
</g>
<!-- Node11&#45;&gt;Node12 -->
<g id="edge15" class="edge"><title>Node11&#45;&gt;Node12</title>
<path fill="none" stroke="midnightblue" d="M331.886,-56.5346C327.133,-48.9857 320.182,-37.9465 314.348,-28.6814"/>
<polygon fill="midnightblue" stroke="midnightblue" points="317.3,-26.8002 309.01,-20.2027 311.376,-30.5299 317.3,-26.8002"/>
</g>
<!-- Node13 -->
<g id="node14" class="node"><title>Node13</title>
<g id="a_node14"><a xlink:href="signal_8h.xhtml" target="_top" xlink:title=" ">
<polygon fill="white" stroke="black" points="346.5,-0.951632 346.5,-19.9516 396.5,-19.9516 396.5,-0.951632 346.5,-0.951632"/>
<text text-anchor="middle" x="371.5" y="-7.95163" font-family="Helvetica,sans-Serif" font-size="10.00">signal.h</text>
</a>
</g>
</g>
<!-- Node11&#45;&gt;Node13 -->
<g id="edge17" class="edge"><title>Node11&#45;&gt;Node13</title>
<path fill="none" stroke="midnightblue" d="M343.114,-56.5346C347.867,-48.9857 354.818,-37.9465 360.652,-28.6814"/>
<polygon fill="midnightblue" stroke="midnightblue" points="363.624,-30.5299 365.99,-20.2027 357.7,-26.8002 363.624,-30.5299"/>
</g>
<!-- Node13&#45;&gt;Node13 -->
<g id="edge18" class="edge"><title>Node13&#45;&gt;Node13</title>
<path fill="none" stroke="midnightblue" d="M390.063,-20.0262C402.446,-22.7213 414.5,-19.5298 414.5,-10.4516 414.5,-3.92673 408.273,-0.442852 400.173,-0"/>
<polygon fill="midnightblue" stroke="midnightblue" points="399.723,3.47427 390.063,-0.877047 400.329,-3.49953 399.723,3.47427"/>
</g>
<!-- Node16 -->
<g id="node17" class="node"><title>Node16</title>
<g id="a_node17"><a xlink:href="error_2error_8h.xhtml" target="_top" xlink:title=" ">
<polygon fill="white" stroke="black" points="421.5,-336.952 421.5,-355.952 497.5,-355.952 497.5,-336.952 421.5,-336.952"/>
<text text-anchor="middle" x="459.5" y="-343.952" font-family="Helvetica,sans-Serif" font-size="10.00">../error/error.h</text>
</a>
</g>
</g>
<!-- Node15&#45;&gt;Node16 -->
<g id="edge21" class="edge"><title>Node15&#45;&gt;Node16</title>
<path fill="none" stroke="midnightblue" d="M439.463,-392.535C442.713,-385.222 447.419,-374.633 451.454,-365.555"/>
<polygon fill="midnightblue" stroke="midnightblue" points="454.748,-366.762 455.611,-356.203 448.351,-363.919 454.748,-366.762"/>
</g>
<!-- Node16&#45;&gt;Node2 -->
<g id="edge25" class="edge"><title>Node16&#45;&gt;Node2</title>
<path fill="none" stroke="midnightblue" d="M497.569,-343.731C576.063,-338.704 759.506,-319.21 890.5,-244.452 958.21,-205.81 979.804,-195.616 1025.5,-132.452 1046.11,-103.961 1049.44,-91.5623 1047.5,-56.4516 1047.02,-47.8096 1046.03,-38.2768 1045.05,-30.2182"/>
<polygon fill="midnightblue" stroke="midnightblue" points="1048.49,-29.5244 1043.74,-20.0548 1041.55,-30.4206 1048.49,-29.5244"/>
</g>
<!-- Node16&#45;&gt;Node11 -->
<g id="edge26" class="edge"><title>Node16&#45;&gt;Node11</title>
<path fill="none" stroke="midnightblue" d="M421.387,-346.398C347.397,-346.046 191.5,-333.652 191.5,-235.452 191.5,-235.452 191.5,-235.452 191.5,-177.452 191.5,-143.988 204.304,-134.474 229.5,-112.452 247.324,-96.8728 271.302,-86.1522 292.138,-79.0951"/>
<polygon fill="midnightblue" stroke="midnightblue" points="293.307,-82.3959 301.763,-76.0131 291.172,-75.7292 293.307,-82.3959"/>
</g>
<!-- Node17 -->
<g id="node18" class="node"><title>Node17</title>
<g id="a_node18"><a xlink:title=" ">
<polygon fill="white" stroke="#bfbfbf" points="798.5,-56.9516 798.5,-75.9516 852.5,-75.9516 852.5,-56.9516 798.5,-56.9516"/>
<text text-anchor="middle" x="825.5" y="-63.9516" font-family="Helvetica,sans-Serif" font-size="10.00">iostream</text>
</a>
</g>
</g>
<!-- Node16&#45;&gt;Node17 -->
<g id="edge22" class="edge"><title>Node16&#45;&gt;Node17</title>
<path fill="none" stroke="midnightblue" d="M497.557,-345.271C547.405,-343.553 636.239,-335.307 702.5,-300.452 764.802,-267.679 784.641,-252.202 814.5,-188.452 830.102,-155.141 829.552,-111.066 827.616,-86.3487"/>
<polygon fill="midnightblue" stroke="midnightblue" points="831.08,-85.8055 826.651,-76.1812 824.112,-86.4674 831.08,-85.8055"/>
</g>
<!-- Node18 -->
<g id="node19" class="node"><title>Node18</title>
<g id="a_node19"><a xlink:title=" ">
<polygon fill="white" stroke="#bfbfbf" points="238.5,-112.952 238.5,-131.952 290.5,-131.952 290.5,-112.952 238.5,-112.952"/>
<text text-anchor="middle" x="264.5" y="-119.952" font-family="Helvetica,sans-Serif" font-size="10.00">memory</text>
</a>
</g>
</g>
<!-- Node16&#45;&gt;Node18 -->
<g id="edge23" class="edge"><title>Node16&#45;&gt;Node18</title>
<path fill="none" stroke="midnightblue" d="M430.161,-336.927C389.117,-323.594 314.646,-294.063 270.5,-244.452 247.124,-218.182 242.523,-203.104 248.5,-168.452 250.068,-159.361 253.295,-149.674 256.443,-141.624"/>
<polygon fill="midnightblue" stroke="midnightblue" points="259.765,-142.751 260.389,-132.175 253.306,-140.053 259.765,-142.751"/>
</g>
<!-- Node19 -->
<g id="node20" class="node"><title>Node19</title>
<g id="a_node20"><a xlink:title=" ">
<polygon fill="white" stroke="#bfbfbf" points="430,-280.952 430,-299.952 489,-299.952 489,-280.952 430,-280.952"/>
<text text-anchor="middle" x="459.5" y="-287.952" font-family="Helvetica,sans-Serif" font-size="10.00">stdexcept</text>
</a>
</g>
</g>
<!-- Node16&#45;&gt;Node19 -->
<g id="edge24" class="edge"><title>Node16&#45;&gt;Node19</title>
<path fill="none" stroke="midnightblue" d="M459.5,-336.535C459.5,-329.458 459.5,-319.313 459.5,-310.438"/>
<polygon fill="midnightblue" stroke="midnightblue" points="463,-310.203 459.5,-300.203 456,-310.203 463,-310.203"/>
</g>
<!-- Node20 -->
<g id="node21" class="node"><title>Node20</title>
<g id="a_node21"><a xlink:href="message_8h.xhtml" target="_top" xlink:title=" ">
<polygon fill="white" stroke="black" points="605,-280.952 605,-299.952 694,-299.952 694,-280.952 605,-280.952"/>
<text text-anchor="middle" x="649.5" y="-287.952" font-family="Helvetica,sans-Serif" font-size="10.00">../log/message.h</text>
</a>
</g>
</g>
<!-- Node16&#45;&gt;Node20 -->
<g id="edge27" class="edge"><title>Node16&#45;&gt;Node20</title>
<path fill="none" stroke="midnightblue" d="M489.606,-336.895C522.126,-327.653 574.079,-312.887 609.891,-302.709"/>
<polygon fill="midnightblue" stroke="midnightblue" points="610.873,-306.069 619.535,-299.968 608.959,-299.335 610.873,-306.069"/>
</g>
<!-- Node20&#45;&gt;Node2 -->
<g id="edge29" class="edge"><title>Node20&#45;&gt;Node2</title>
<path fill="none" stroke="midnightblue" d="M671.527,-280.939C745.284,-252.271 980.306,-159.522 1004.5,-132.452 1030.57,-103.278 1038.76,-56.3025 1041.33,-30.297"/>
<polygon fill="midnightblue" stroke="midnightblue" points="1044.82,-30.5045 1042.14,-20.2553 1037.84,-29.9411 1044.82,-30.5045"/>
</g>
<!-- Node20&#45;&gt;Node6 -->
<g id="edge28" class="edge"><title>Node20&#45;&gt;Node6</title>
<path fill="none" stroke="midnightblue" d="M682.617,-280.895C721.711,-270.794 786.337,-254.097 825.417,-243.999"/>
<polygon fill="midnightblue" stroke="midnightblue" points="826.439,-247.35 835.245,-241.46 824.688,-240.573 826.439,-247.35"/>
</g>
<!-- Node21 -->
<g id="node22" class="node"><title>Node21</title>
<g id="a_node22"><a xlink:title=" ">
<polygon fill="white" stroke="#bfbfbf" points="579.5,-224.952 579.5,-243.952 629.5,-243.952 629.5,-224.952 579.5,-224.952"/>
<text text-anchor="middle" x="604.5" y="-231.952" font-family="Helvetica,sans-Serif" font-size="10.00">config.h</text>
</a>
</g>
</g>
<!-- Node20&#45;&gt;Node21 -->
<g id="edge30" class="edge"><title>Node20&#45;&gt;Node21</title>
<path fill="none" stroke="midnightblue" d="M642.069,-280.535C635.647,-272.828 626.194,-261.485 618.378,-252.105"/>
<polygon fill="midnightblue" stroke="midnightblue" points="620.883,-249.644 611.793,-244.203 615.506,-254.126 620.883,-249.644"/>
</g>
<!-- Node22 -->
<g id="node23" class="node"><title>Node22</title>
<g id="a_node23"><a xlink:href="constexpr_8h.xhtml" target="_top" xlink:title=" ">
<polygon fill="white" stroke="black" points="279.5,-224.952 279.5,-243.952 371.5,-243.952 371.5,-224.952 279.5,-224.952"/>
<text text-anchor="middle" x="325.5" y="-231.952" font-family="Helvetica,sans-Serif" font-size="10.00">../util/constexpr.h</text>
</a>
</g>
</g>
<!-- Node20&#45;&gt;Node22 -->
<g id="edge31" class="edge"><title>Node20&#45;&gt;Node22</title>
<path fill="none" stroke="midnightblue" d="M604.789,-282C546.659,-272.311 445.102,-255.385 381.786,-244.833"/>
<polygon fill="midnightblue" stroke="midnightblue" points="382.021,-241.324 371.582,-243.132 380.87,-248.228 382.021,-241.324"/>
</g>
<!-- Node24 -->
<g id="node25" class="node"><title>Node24</title>
<g id="a_node25"><a xlink:href="stringformatter_8h.xhtml" target="_top" xlink:title=" ">
<polygon fill="white" stroke="black" points="410.5,-224.952 410.5,-243.952 522.5,-243.952 522.5,-224.952 410.5,-224.952"/>
<text text-anchor="middle" x="466.5" y="-231.952" font-family="Helvetica,sans-Serif" font-size="10.00">../util/stringformatter.h</text>
</a>
</g>
</g>
<!-- Node20&#45;&gt;Node24 -->
<g id="edge33" class="edge"><title>Node20&#45;&gt;Node24</title>
<path fill="none" stroke="midnightblue" d="M620.503,-280.895C589.315,-271.692 539.57,-257.013 505.092,-246.84"/>
<polygon fill="midnightblue" stroke="midnightblue" points="505.943,-243.441 495.361,-243.968 503.962,-250.155 505.943,-243.441"/>
</g>
<!-- Node32 -->
<g id="node33" class="node"><title>Node32</title>
<g id="a_node33"><a xlink:href="logsink_8h.xhtml" target="_top" xlink:title=" ">
<polygon fill="white" stroke="black" points="647.5,-224.952 647.5,-243.952 703.5,-243.952 703.5,-224.952 647.5,-224.952"/>
<text text-anchor="middle" x="675.5" y="-231.952" font-family="Helvetica,sans-Serif" font-size="10.00">logsink.h</text>
</a>
</g>
</g>
<!-- Node20&#45;&gt;Node32 -->
<g id="edge49" class="edge"><title>Node20&#45;&gt;Node32</title>
<path fill="none" stroke="midnightblue" d="M653.793,-280.535C657.352,-273.143 662.522,-262.405 666.924,-253.263"/>
<polygon fill="midnightblue" stroke="midnightblue" points="670.102,-254.731 671.287,-244.203 663.795,-251.694 670.102,-254.731"/>
</g>
<!-- Node34 -->
<g id="node35" class="node"><title>Node34</title>
<g id="a_node35"><a xlink:href="level_8h.xhtml" target="_top" xlink:title=" ">
<polygon fill="white" stroke="black" points="761.5,-168.952 761.5,-187.952 805.5,-187.952 805.5,-168.952 761.5,-168.952"/>
<text text-anchor="middle" x="783.5" y="-175.952" font-family="Helvetica,sans-Serif" font-size="10.00">level.h</text>
</a>
</g>
</g>
<!-- Node20&#45;&gt;Node34 -->
<g id="edge57" class="edge"><title>Node20&#45;&gt;Node34</title>
<path fill="none" stroke="midnightblue" d="M662.383,-280.924C675.357,-272.182 695.788,-257.987 712.5,-244.452 732.041,-228.625 753.139,-208.947 767.213,-195.413"/>
<polygon fill="midnightblue" stroke="midnightblue" points="769.879,-197.704 774.623,-188.23 765.007,-192.678 769.879,-197.704"/>
</g>
<!-- Node23 -->
<g id="node24" class="node"><title>Node23</title>
<g id="a_node24"><a xlink:title=" ">
<polygon fill="white" stroke="#bfbfbf" points="258,-168.952 258,-187.952 303,-187.952 303,-168.952 258,-168.952"/>
<text text-anchor="middle" x="280.5" y="-175.952" font-family="Helvetica,sans-Serif" font-size="10.00">cstdlib</text>
</a>
</g>
</g>
<!-- Node22&#45;&gt;Node23 -->
<g id="edge32" class="edge"><title>Node22&#45;&gt;Node23</title>
<path fill="none" stroke="midnightblue" d="M318.069,-224.535C311.647,-216.828 302.194,-205.485 294.378,-196.105"/>
<polygon fill="midnightblue" stroke="midnightblue" points="296.883,-193.644 287.793,-188.203 291.506,-198.126 296.883,-193.644"/>
</g>
<!-- Node24&#45;&gt;Node11 -->
<g id="edge37" class="edge"><title>Node24&#45;&gt;Node11</title>
<path fill="none" stroke="midnightblue" d="M453.121,-224.891C429.909,-209.34 382.201,-174.171 356.5,-132.452 347.732,-118.219 342.843,-99.7443 340.228,-86.1308"/>
<polygon fill="midnightblue" stroke="midnightblue" points="343.641,-85.3201 338.532,-76.0386 336.738,-86.4804 343.641,-85.3201"/>
</g>
<!-- Node24&#45;&gt;Node18 -->
<g id="edge35" class="edge"><title>Node24&#45;&gt;Node18</title>
<path fill="none" stroke="midnightblue" d="M440.592,-224.904C417.582,-216.86 383.379,-203.78 355.5,-188.452 328.744,-173.741 300.519,-152.574 282.728,-138.435"/>
<polygon fill="midnightblue" stroke="midnightblue" points="284.867,-135.664 274.884,-132.118 280.477,-141.116 284.867,-135.664"/>
</g>
<!-- Node25 -->
<g id="node26" class="node"><title>Node25</title>
<g id="a_node26"><a xlink:title=" ">
<polygon fill="white" stroke="#bfbfbf" points="587.5,-168.952 587.5,-187.952 633.5,-187.952 633.5,-168.952 587.5,-168.952"/>
<text text-anchor="middle" x="610.5" y="-175.952" font-family="Helvetica,sans-Serif" font-size="10.00">atomic</text>
</a>
</g>
</g>
<!-- Node24&#45;&gt;Node25 -->
<g id="edge34" class="edge"><title>Node24&#45;&gt;Node25</title>
<path fill="none" stroke="midnightblue" d="M489.317,-224.895C513.332,-215.89 551.329,-201.641 578.369,-191.501"/>
<polygon fill="midnightblue" stroke="midnightblue" points="579.655,-194.757 587.79,-187.968 577.197,-188.202 579.655,-194.757"/>
</g>
<!-- Node26 -->
<g id="node27" class="node"><title>Node26</title>
<g id="a_node27"><a xlink:title=" ">
<polygon fill="white" stroke="#bfbfbf" points="435.5,-168.952 435.5,-187.952 497.5,-187.952 497.5,-168.952 435.5,-168.952"/>
<text text-anchor="middle" x="466.5" y="-175.952" font-family="Helvetica,sans-Serif" font-size="10.00">type_traits</text>
</a>
</g>
</g>
<!-- Node24&#45;&gt;Node26 -->
<g id="edge36" class="edge"><title>Node24&#45;&gt;Node26</title>
<path fill="none" stroke="midnightblue" d="M466.5,-224.535C466.5,-217.458 466.5,-207.313 466.5,-198.438"/>
<polygon fill="midnightblue" stroke="midnightblue" points="470,-198.203 466.5,-188.203 463,-198.203 470,-198.203"/>
</g>
<!-- Node27 -->
<g id="node28" class="node"><title>Node27</title>
<g id="a_node28"><a xlink:href="externalsstream_8h.xhtml" target="_top" xlink:title=" ">
<polygon fill="white" stroke="black" points="366,-112.952 366,-131.952 461,-131.952 461,-112.952 366,-112.952"/>
<text text-anchor="middle" x="413.5" y="-119.952" font-family="Helvetica,sans-Serif" font-size="10.00">externalsstream.h</text>
</a>
</g>
</g>
<!-- Node24&#45;&gt;Node27 -->
<g id="edge38" class="edge"><title>Node24&#45;&gt;Node27</title>
<path fill="none" stroke="midnightblue" d="M456.285,-224.899C447.032,-216.565 433.769,-203.048 426.5,-188.452 419.286,-173.965 416.075,-155.78 414.646,-142.331"/>
<polygon fill="midnightblue" stroke="midnightblue" points="418.131,-142.01 413.816,-132.334 411.155,-142.589 418.131,-142.01"/>
</g>
<!-- Node28 -->
<g id="node29" class="node"><title>Node28</title>
<g id="a_node29"><a xlink:href="strings_8h.xhtml" target="_top" xlink:title=" ">
<polygon fill="white" stroke="black" points="515.5,-168.952 515.5,-187.952 569.5,-187.952 569.5,-168.952 515.5,-168.952"/>
<text text-anchor="middle" x="542.5" y="-175.952" font-family="Helvetica,sans-Serif" font-size="10.00">strings.h</text>
</a>
</g>
</g>
<!-- Node24&#45;&gt;Node28 -->
<g id="edge41" class="edge"><title>Node24&#45;&gt;Node28</title>
<path fill="none" stroke="midnightblue" d="M478.711,-224.776C490.276,-216.558 507.875,-204.053 521.661,-194.258"/>
<polygon fill="midnightblue" stroke="midnightblue" points="523.943,-196.931 530.067,-188.286 519.888,-191.225 523.943,-196.931"/>
</g>
<!-- Node27&#45;&gt;Node2 -->
<g id="edge40" class="edge"><title>Node27&#45;&gt;Node2</title>
<path fill="none" stroke="midnightblue" d="M418.696,-112.796C427.998,-98.1986 449.025,-69.0485 475.5,-56.4516 571.632,-10.7114 908.061,-10.0985 1011.8,-11.0432"/>
<polygon fill="midnightblue" stroke="midnightblue" points="1011.89,-14.5441 1021.92,-11.1474 1011.96,-7.54448 1011.89,-14.5441"/>
</g>
<!-- Node27&#45;&gt;Node17 -->
<g id="edge39" class="edge"><title>Node27&#45;&gt;Node17</title>
<path fill="none" stroke="midnightblue" d="M461.288,-116.492C544.013,-107.785 711.635,-89.5816 788.263,-76.423"/>
<polygon fill="midnightblue" stroke="midnightblue" points="789.225,-79.8065 798.453,-74.6012 787.993,-72.9157 789.225,-79.8065"/>
</g>
<!-- Node28&#45;&gt;Node2 -->
<g id="edge47" class="edge"><title>Node28&#45;&gt;Node2</title>
<path fill="none" stroke="midnightblue" d="M532.072,-168.899C517.502,-155.916 494.347,-130.807 508.5,-112.452 570.683,-31.807 907.672,-15.3518 1011.82,-12.1743"/>
<polygon fill="midnightblue" stroke="midnightblue" points="1012.08,-15.6683 1021.98,-11.8845 1011.88,-8.6711 1012.08,-15.6683"/>
</g>
<!-- Node28&#45;&gt;Node4 -->
<g id="edge48" class="edge"><title>Node28&#45;&gt;Node4</title>
<path fill="none" stroke="midnightblue" d="M569.565,-170.395C572.571,-169.698 575.594,-169.034 578.5,-168.452 628.829,-158.358 777.684,-137.054 843.083,-127.845"/>
<polygon fill="midnightblue" stroke="midnightblue" points="843.782,-131.282 853.197,-126.424 842.808,-124.35 843.782,-131.282"/>
</g>
<!-- Node28&#45;&gt;Node9 -->
<g id="edge43" class="edge"><title>Node28&#45;&gt;Node9</title>
<path fill="none" stroke="midnightblue" d="M515.462,-170.253C512.451,-169.582 509.419,-168.964 506.5,-168.452 360.703,-142.872 184.865,-130.243 107.852,-125.608"/>
<polygon fill="midnightblue" stroke="midnightblue" points="107.843,-122.101 97.6544,-125.006 107.431,-129.089 107.843,-122.101"/>
</g>
<!-- Node28&#45;&gt;Node18 -->
<g id="edge45" class="edge"><title>Node28&#45;&gt;Node18</title>
<path fill="none" stroke="midnightblue" d="M515.415,-170.492C512.413,-169.777 509.396,-169.082 506.5,-168.452 433.907,-152.644 348.304,-137.553 300.84,-129.496"/>
<polygon fill="midnightblue" stroke="midnightblue" points="301.191,-126.005 290.747,-127.791 300.025,-132.908 301.191,-126.005"/>
</g>
<!-- Node29 -->
<g id="node30" class="node"><title>Node29</title>
<g id="a_node30"><a xlink:title=" ">
<polygon fill="white" stroke="#bfbfbf" points="656,-112.952 656,-131.952 705,-131.952 705,-112.952 656,-112.952"/>
<text text-anchor="middle" x="680.5" y="-119.952" font-family="Helvetica,sans-Serif" font-size="10.00">cstdarg</text>
</a>
</g>
</g>
<!-- Node28&#45;&gt;Node29 -->
<g id="edge42" class="edge"><title>Node28&#45;&gt;Node29</title>
<path fill="none" stroke="midnightblue" d="M564.367,-168.895C587.279,-159.929 623.475,-145.766 649.366,-135.634"/>
<polygon fill="midnightblue" stroke="midnightblue" points="650.699,-138.871 658.736,-131.968 648.148,-132.353 650.699,-138.871"/>
</g>
<!-- Node30 -->
<g id="node31" class="node"><title>Node30</title>
<g id="a_node31"><a xlink:title=" ">
<polygon fill="white" stroke="#bfbfbf" points="517.5,-112.952 517.5,-131.952 567.5,-131.952 567.5,-112.952 517.5,-112.952"/>
<text text-anchor="middle" x="542.5" y="-119.952" font-family="Helvetica,sans-Serif" font-size="10.00">iomanip</text>
</a>
</g>
</g>
<!-- Node28&#45;&gt;Node30 -->
<g id="edge44" class="edge"><title>Node28&#45;&gt;Node30</title>
<path fill="none" stroke="midnightblue" d="M542.5,-168.535C542.5,-161.458 542.5,-151.313 542.5,-142.438"/>
<polygon fill="midnightblue" stroke="midnightblue" points="546,-142.203 542.5,-132.203 539,-142.203 546,-142.203"/>
</g>
<!-- Node31 -->
<g id="node32" class="node"><title>Node31</title>
<g id="a_node32"><a xlink:title=" ">
<polygon fill="white" stroke="#bfbfbf" points="585.5,-112.952 585.5,-131.952 637.5,-131.952 637.5,-112.952 585.5,-112.952"/>
<text text-anchor="middle" x="611.5" y="-119.952" font-family="Helvetica,sans-Serif" font-size="10.00">sstream</text>
</a>
</g>
</g>
<!-- Node28&#45;&gt;Node31 -->
<g id="edge46" class="edge"><title>Node28&#45;&gt;Node31</title>
<path fill="none" stroke="midnightblue" d="M553.586,-168.776C563.986,-160.636 579.761,-148.291 592.222,-138.539"/>
<polygon fill="midnightblue" stroke="midnightblue" points="594.494,-141.205 600.212,-132.286 590.18,-135.692 594.494,-141.205"/>
</g>
<!-- Node32&#45;&gt;Node10 -->
<g id="edge51" class="edge"><title>Node32&#45;&gt;Node10</title>
<path fill="none" stroke="midnightblue" d="M675.17,-224.535C674.908,-217.458 674.532,-207.313 674.203,-198.438"/>
<polygon fill="midnightblue" stroke="midnightblue" points="677.692,-198.066 673.824,-188.203 670.697,-198.325 677.692,-198.066"/>
</g>
<!-- Node33 -->
<g id="node34" class="node"><title>Node33</title>
<g id="a_node34"><a xlink:title=" ">
<polygon fill="white" stroke="#bfbfbf" points="714,-168.952 714,-187.952 743,-187.952 743,-168.952 714,-168.952"/>
<text text-anchor="middle" x="728.5" y="-175.952" font-family="Helvetica,sans-Serif" font-size="10.00">list</text>
</a>
</g>
</g>
<!-- Node32&#45;&gt;Node33 -->
<g id="edge50" class="edge"><title>Node32&#45;&gt;Node33</title>
<path fill="none" stroke="midnightblue" d="M684.252,-224.535C691.97,-216.671 703.405,-205.02 712.717,-195.533"/>
<polygon fill="midnightblue" stroke="midnightblue" points="715.404,-197.791 719.911,-188.203 710.408,-192.888 715.404,-197.791"/>
</g>
<!-- Node32&#45;&gt;Node34 -->
<g id="edge52" class="edge"><title>Node32&#45;&gt;Node34</title>
<path fill="none" stroke="midnightblue" d="M692.852,-224.776C710.172,-216.116 737.015,-202.694 757.002,-192.701"/>
<polygon fill="midnightblue" stroke="midnightblue" points="758.812,-195.709 766.191,-188.106 755.681,-189.448 758.812,-195.709"/>
</g>
<!-- Node35 -->
<g id="node36" class="node"><title>Node35</title>
<g id="a_node36"><a xlink:href="enum_8h.xhtml" target="_top" xlink:title=" ">
<polygon fill="white" stroke="black" points="723.5,-112.952 723.5,-131.952 797.5,-131.952 797.5,-112.952 723.5,-112.952"/>
<text text-anchor="middle" x="760.5" y="-119.952" font-family="Helvetica,sans-Serif" font-size="10.00">../util/enum.h</text>
</a>
</g>
</g>
<!-- Node34&#45;&gt;Node35 -->
<g id="edge53" class="edge"><title>Node34&#45;&gt;Node35</title>
<path fill="none" stroke="midnightblue" d="M779.702,-168.535C776.587,-161.222 772.077,-150.633 768.211,-141.555"/>
<polygon fill="midnightblue" stroke="midnightblue" points="771.366,-140.031 764.227,-132.203 764.926,-142.774 771.366,-140.031"/>
</g>
<!-- Node35&#45;&gt;Node11 -->
<g id="edge56" class="edge"><title>Node35&#45;&gt;Node11</title>
<path fill="none" stroke="midnightblue" d="M723.342,-114.087C720.019,-113.504 716.702,-112.949 713.5,-112.452 599.105,-94.6758 464.183,-80.063 391.098,-72.6722"/>
<polygon fill="midnightblue" stroke="midnightblue" points="391.073,-69.1522 380.773,-71.6347 390.373,-76.1171 391.073,-69.1522"/>
</g>
<!-- Node35&#45;&gt;Node17 -->
<g id="edge54" class="edge"><title>Node35&#45;&gt;Node17</title>
<path fill="none" stroke="midnightblue" d="M770.943,-112.776C780.646,-104.715 795.315,-92.5281 807,-82.8211"/>
<polygon fill="midnightblue" stroke="midnightblue" points="809.411,-85.3679 814.867,-76.2855 804.938,-79.9836 809.411,-85.3679"/>
</g>
<!-- Node36 -->
<g id="node37" class="node"><title>Node36</title>
<g id="a_node37"><a xlink:title=" ">
<polygon fill="white" stroke="#bfbfbf" points="730.5,-56.9516 730.5,-75.9516 780.5,-75.9516 780.5,-56.9516 730.5,-56.9516"/>
<text text-anchor="middle" x="755.5" y="-63.9516" font-family="Helvetica,sans-Serif" font-size="10.00">typeinfo</text>
</a>
</g>
</g>
<!-- Node35&#45;&gt;Node36 -->
<g id="edge55" class="edge"><title>Node35&#45;&gt;Node36</title>
<path fill="none" stroke="midnightblue" d="M759.674,-112.535C759.019,-105.458 758.08,-95.3127 757.258,-86.4381"/>
<polygon fill="midnightblue" stroke="midnightblue" points="760.717,-85.8374 756.31,-76.2027 753.747,-86.4828 760.717,-85.8374"/>
</g>
<!-- Node37&#45;&gt;Node9 -->
<g id="edge59" class="edge"><title>Node37&#45;&gt;Node9</title>
<path fill="none" stroke="midnightblue" d="M31.7657,-168.535C38.0448,-160.828 47.2876,-149.485 54.9308,-140.105"/>
<polygon fill="midnightblue" stroke="midnightblue" points="57.7661,-142.166 61.3695,-132.203 52.3394,-137.744 57.7661,-142.166"/>
</g>
<!-- Node37&#45;&gt;Node11 -->
<g id="edge60" class="edge"><title>Node37&#45;&gt;Node11</title>
<path fill="none" stroke="midnightblue" d="M22.2527,-168.51C19.3313,-154.543 16.1549,-127.585 30.5,-112.452 64.2812,-76.8131 205.651,-69.1126 284.235,-67.6322"/>
<polygon fill="midnightblue" stroke="midnightblue" points="284.482,-71.1288 294.424,-67.4684 284.369,-64.1297 284.482,-71.1288"/>
</g>
<!-- Node38&#45;&gt;Node2 -->
<g id="edge63" class="edge"><title>Node38&#45;&gt;Node2</title>
<path fill="none" stroke="midnightblue" d="M1042.07,-561.823C1074.37,-547.174 1137.5,-511.845 1137.5,-459.452 1137.5,-459.452 1137.5,-459.452 1137.5,-121.452 1137.5,-78.1901 1094.89,-43.5378 1066.75,-25.3665"/>
<polygon fill="midnightblue" stroke="midnightblue" points="1068.53,-22.3548 1058.19,-20.0559 1064.84,-28.3027 1068.53,-22.3548"/>
</g>
<!-- Node38&#45;&gt;Node4 -->
<g id="edge64" class="edge"><title>Node38&#45;&gt;Node4</title>
<path fill="none" stroke="midnightblue" d="M1022.34,-560.755C1016.92,-521.272 992.699,-355.17 951.5,-224.452 943.36,-198.626 943.581,-190.238 927.5,-168.452 918.875,-156.767 906.651,-146.126 896.116,-138.129"/>
<polygon fill="midnightblue" stroke="midnightblue" points="897.926,-135.117 887.779,-132.068 893.809,-140.779 897.926,-135.117"/>
</g>
<!-- Node38&#45;&gt;Node5 -->
<g id="edge69" class="edge"><title>Node38&#45;&gt;Node5</title>
<path fill="none" stroke="midnightblue" d="M1009.2,-560.776C995.317,-552.352 974.008,-539.423 957.696,-529.526"/>
<polygon fill="midnightblue" stroke="midnightblue" points="959.129,-526.301 948.764,-524.106 955.498,-532.286 959.129,-526.301"/>
</g>
<!-- Node38&#45;&gt;Node18 -->
<g id="edge62" class="edge"><title>Node38&#45;&gt;Node18</title>
<path fill="none" stroke="midnightblue" d="M1004.79,-564.533C974.965,-556.606 914.856,-540.286 864.5,-524.452 693.545,-470.695 653.329,-449.667 483.5,-392.452 358.966,-350.496 279.623,-406.853 202.5,-300.452 165.137,-248.905 221.017,-172.844 249.501,-139.787"/>
<polygon fill="midnightblue" stroke="midnightblue" points="252.385,-141.809 256.395,-132.003 247.145,-137.168 252.385,-141.809"/>
</g>
<!-- Node39 -->
<g id="node40" class="node"><title>Node39</title>
<g id="a_node40"><a xlink:href="filelike_8h.xhtml" target="_top" xlink:title=" ">
<polygon fill="white" stroke="black" points="913.5,-112.952 913.5,-131.952 995.5,-131.952 995.5,-112.952 913.5,-112.952"/>
<text text-anchor="middle" x="954.5" y="-119.952" font-family="Helvetica,sans-Serif" font-size="10.00">filelike/filelike.h</text>
</a>
</g>
</g>
<!-- Node38&#45;&gt;Node39 -->
<g id="edge65" class="edge"><title>Node38&#45;&gt;Node39</title>
<path fill="none" stroke="midnightblue" d="M1028.78,-560.683C1039.23,-542.495 1061.5,-499.053 1061.5,-459.452 1061.5,-459.452 1061.5,-459.452 1061.5,-233.452 1061.5,-187.865 1013.7,-154.075 981.994,-136.679"/>
<polygon fill="midnightblue" stroke="midnightblue" points="983.616,-133.577 973.138,-132.01 980.352,-139.77 983.616,-133.577"/>
</g>
<!-- Node39&#45;&gt;Node2 -->
<g id="edge67" class="edge"><title>Node39&#45;&gt;Node2</title>
<path fill="none" stroke="midnightblue" d="M961.405,-112.82C975.992,-94.5867 1010.16,-51.8773 1029.16,-28.1268"/>
<polygon fill="midnightblue" stroke="midnightblue" points="1032.11,-30.0382 1035.63,-20.0431 1026.65,-25.6653 1032.11,-30.0382"/>
</g>
<!-- Node39&#45;&gt;Node11 -->
<g id="edge68" class="edge"><title>Node39&#45;&gt;Node11</title>
<path fill="none" stroke="midnightblue" d="M913.349,-113.712C910.36,-113.252 907.387,-112.825 904.5,-112.452 716.515,-88.1338 491.65,-74.9834 390.907,-69.9257"/>
<polygon fill="midnightblue" stroke="midnightblue" points="390.845,-66.4184 380.684,-69.419 390.499,-73.4099 390.845,-66.4184"/>
</g>
<!-- Node39&#45;&gt;Node17 -->
<g id="edge66" class="edge"><title>Node39&#45;&gt;Node17</title>
<path fill="none" stroke="midnightblue" d="M934.06,-112.895C912.83,-104.008 879.401,-90.0148 855.245,-79.903"/>
<polygon fill="midnightblue" stroke="midnightblue" points="856.421,-76.601 845.845,-75.9681 853.718,-83.058 856.421,-76.601"/>
</g>
</g>
</svg>
        <g id="navigator" transform="translate(0 0)" fill="#404254">
                <rect fill="#f2f5e9" fill-opacity="0.5" stroke="#606060" stroke-width=".5" x="0" y="0" width="60" height="60"/>
                <use id="zoomplus" xlink:href="#zoomPlus" x="17" y="9" onmousedown="handleZoom(evt,'in')"/>
                <use id="zoomminus" xlink:href="#zoomMin" x="42" y="9" onmousedown="handleZoom(evt,'out')"/>
                <use id="reset" xlink:href="#resetDef" x="30" y="36" onmousedown="handleReset()"/>
                <g id="arrowUp" xlink:href="#dirArrow" transform="translate(30 24)" onmousedown="handlePan(0,-1)">
                  <use xlink:href="#rim" fill="#404040">
                        <set attributeName="fill" to="#808080" begin="arrowUp.mouseover" end="arrowUp.mouseout"/>
                  </use>
                  <path fill="none" stroke="white" stroke-width="1.5" d="M0,-3.0v7 M-2.5,-0.5L0,-3.0L2.5,-0.5"/>
                </g>
                <g id="arrowRight" xlink:href="#dirArrow" transform="rotate(90) translate(36 -43)" onmousedown="handlePan(1,0)">
                  <use xlink:href="#rim" fill="#404040">
                        <set attributeName="fill" to="#808080" begin="arrowRight.mouseover" end="arrowRight.mouseout"/>
                  </use>
                  <path fill="none" stroke="white" stroke-width="1.5" d="M0,-3.0v7 M-2.5,-0.5L0,-3.0L2.5,-0.5"/>
                </g>
                <g id="arrowDown" xlink:href="#dirArrow" transform="rotate(180) translate(-30 -48)" onmousedown="handlePan(0,1)">
                  <use xlink:href="#rim" fill="#404040">
                        <set attributeName="fill" to="#808080" begin="arrowDown.mouseover" end="arrowDown.mouseout"/>
                  </use>
                  <path fill="none" stroke="white" stroke-width="1.5" d="M0,-3.0v7 M-2.5,-0.5L0,-3.0L2.5,-0.5"/>
                </g>
                <g id="arrowLeft" xlink:href="#dirArrow" transform="rotate(270) translate(-36 17)" onmousedown="handlePan(-1,0)">
                  <use xlink:href="#rim" fill="#404040">
                        <set attributeName="fill" to="#808080" begin="arrowLeft.mouseover" end="arrowLeft.mouseout"/>
                  </use>
                  <path fill="none" stroke="white" stroke-width="1.5" d="M0,-3.0v7 M-2.5,-0.5L0,-3.0L2.5,-0.5"/>
                </g>
        </g>
        <svg viewBox="0 0 15 15" width="100%" height="30px" preserveAspectRatio="xMaxYMin meet">
         <g id="arrow_out" transform="scale(0.3 0.3)">
          <a xlink:href="shader__source_8cpp__incl_org.svg" target="_base">
           <rect id="button" ry="5" rx="5" y="6" x="6" height="38" width="38"
                fill="#f2f5e9" fill-opacity="0.5" stroke="#606060" stroke-width="1.0"/>
           <path id="arrow"
             d="M 11.500037,31.436501 C 11.940474,20.09759 22.043105,11.32322 32.158766,21.979434 L 37.068811,17.246167 C 37.068811,17.246167 37.088388,32 37.088388,32 L 22.160133,31.978069 C 22.160133,31.978069 26.997745,27.140456 26.997745,27.140456 C 18.528582,18.264221 13.291696,25.230495 11.500037,31.436501 z"
             style="fill:#404040;"/>
          </a>
         </g>
        </svg>
</svg>
