<?xml version="1.0" encoding="UTF-8" standalone="no"?>
<!DOCTYPE svg PUBLIC "-//W3C//DTD SVG 1.1//EN"
 "http://www.w3.org/Graphics/SVG/1.1/DTD/svg11.dtd">
<!-- Generated by graphviz version 2.38.0 (20140413.2041)
 -->
<!-- Title: libopenage/error/stackanalyzer.h Pages: 1 -->
<svg width="484pt" height="84pt"
 viewBox="0.00 0.00 483.50 84.00" xmlns="http://www.w3.org/2000/svg" xmlns:xlink="http://www.w3.org/1999/xlink">
<g id="graph0" class="graph" transform="scale(1 1) rotate(0) translate(4 80)">
<title>libopenage/error/stackanalyzer.h</title>
<polygon fill="white" stroke="none" points="-4,4 -4,-80 479.5,-80 479.5,4 -4,4"/>
<!-- Node6 -->
<g id="node1" class="node"><title>Node6</title>
<g id="a_node1"><a xlink:title=" ">
<polygon fill="#bfbfbf" stroke="black" points="138.5,-56.5 138.5,-75.5 296.5,-75.5 296.5,-56.5 138.5,-56.5"/>
<text text-anchor="middle" x="217.5" y="-63.5" font-family="Helvetica,sans-Serif" font-size="10.00">libopenage/error/stackanalyzer.h</text>
</a>
</g>
</g>
<!-- Node7 -->
<g id="node2" class="node"><title>Node7</title>
<g id="a_node2"><a xlink:href="error_2error_8cpp.xhtml" target="_top" xlink:title=" ">
<polygon fill="white" stroke="black" points="0,-0.5 0,-19.5 127,-19.5 127,-0.5 0,-0.5"/>
<text text-anchor="middle" x="63.5" y="-7.5" font-family="Helvetica,sans-Serif" font-size="10.00">libopenage/error/error.cpp</text>
</a>
</g>
</g>
<!-- Node6&#45;&gt;Node7 -->
<g id="edge1" class="edge"><title>Node6&#45;&gt;Node7</title>
<path fill="none" stroke="midnightblue" d="M183.389,-53.0392C154.413,-42.8786 113.538,-28.5457 87.7876,-19.5164"/>
<polygon fill="midnightblue" stroke="midnightblue" points="182.503,-56.4373 193.098,-56.4435 184.82,-49.8317 182.503,-56.4373"/>
</g>
<!-- Node8 -->
<g id="node3" class="node"><title>Node8</title>
<g id="a_node3"><a xlink:href="error_2handlers_8cpp.xhtml" target="_top" xlink:title=" ">
<polygon fill="white" stroke="black" points="145.5,-0.5 145.5,-19.5 289.5,-19.5 289.5,-0.5 145.5,-0.5"/>
<text text-anchor="middle" x="217.5" y="-7.5" font-family="Helvetica,sans-Serif" font-size="10.00">libopenage/error/handlers.cpp</text>
</a>
</g>
</g>
<!-- Node6&#45;&gt;Node8 -->
<g id="edge2" class="edge"><title>Node6&#45;&gt;Node8</title>
<path fill="none" stroke="midnightblue" d="M217.5,-45.8045C217.5,-36.9102 217.5,-26.7798 217.5,-19.7511"/>
<polygon fill="midnightblue" stroke="midnightblue" points="214,-46.083 217.5,-56.083 221,-46.083 214,-46.083"/>
</g>
<!-- Node9 -->
<g id="node4" class="node"><title>Node9</title>
<g id="a_node4"><a xlink:href="stackanalyzer_8cpp.xhtml" target="_top" xlink:title=" ">
<polygon fill="white" stroke="black" points="307.5,-0.5 307.5,-19.5 475.5,-19.5 475.5,-0.5 307.5,-0.5"/>
<text text-anchor="middle" x="391.5" y="-7.5" font-family="Helvetica,sans-Serif" font-size="10.00">libopenage/error/stackanalyzer.cpp</text>
</a>
</g>
</g>
<!-- Node6&#45;&gt;Node9 -->
<g id="edge3" class="edge"><title>Node6&#45;&gt;Node9</title>
<path fill="none" stroke="midnightblue" d="M254.761,-53.4363C287.567,-43.2551 334.583,-28.664 364.058,-19.5164"/>
<polygon fill="midnightblue" stroke="midnightblue" points="253.584,-50.1368 245.071,-56.4435 255.659,-56.8222 253.584,-50.1368"/>
</g>
</g>
</svg>
