<?xml version="1.0" encoding="UTF-8" standalone="no"?>
<!DOCTYPE svg PUBLIC "-//W3C//DTD SVG 1.1//EN"
 "http://www.w3.org/Graphics/SVG/1.1/DTD/svg11.dtd">
<!-- Generated by graphviz version 2.38.0 (20140413.2041)
 -->
<!-- Title: C:/Users/Jameson/Documents/git&#45;projects/openage/libopenage/log/stdout_logsink.cpp Pages: 1 -->
<!--zoomable 498 -->
<svg id="main" version="1.1" xmlns="http://www.w3.org/2000/svg" xmlns:xlink="http://www.w3.org/1999/xlink" xml:space="preserve" onload="init(evt)">
<style type="text/css"><![CDATA[
.edge:hover path { stroke: red; }
.edge:hover polygon { stroke: red; fill: red; }
]]></style>
<script type="text/javascript"><![CDATA[
var edges = document.getElementsByTagName('g');
if (edges && edges.length) {
  for (var i=0;i<edges.length;i++) {
    if (edges[i].id.substr(0,4)=='edge') {
      edges[i].setAttribute('class','edge');
    }
  }
}
]]></script>
        <defs>
                <circle id="rim" cx="0" cy="0" r="7"/>
                <circle id="rim2" cx="0" cy="0" r="3.5"/>
                <g id="zoomPlus">
                        <use xlink:href="#rim" fill="#404040">
                                <set attributeName="fill" to="#808080" begin="zoomplus.mouseover" end="zoomplus.mouseout"/>
                        </use>
                        <path d="M-4,0h8M0,-4v8" fill="none" stroke="white" stroke-width="1.5" pointer-events="none"/>
                </g>
                <g id="zoomMin">
                        <use xlink:href="#rim" fill="#404040">
                                <set attributeName="fill" to="#808080" begin="zoomminus.mouseover" end="zoomminus.mouseout"/>
                        </use>
                        <path d="M-4,0h8" fill="none" stroke="white" stroke-width="1.5" pointer-events="none"/>
                </g>
                <g id="dirArrow">
                        <path fill="none" stroke="white" stroke-width="1.5" d="M0,-3.0v7 M-2.5,-0.5L0,-3.0L2.5,-0.5"/>
                </g>
               <g id="resetDef">
                       <use xlink:href="#rim2" fill="#404040">
                               <set attributeName="fill" to="#808080" begin="reset.mouseover" end="reset.mouseout"/>
                       </use>
               </g>
        </defs>

<script type="text/javascript">
var viewWidth = 856;
var viewHeight = 498;
var sectionId = 'dynsection-0';
</script>
<script xlink:href="svgpan.js"/>
<svg id="graph" class="graph">
<g id="viewport">
<title>C:/Users/Jameson/Documents/git&#45;projects/openage/libopenage/log/stdout_logsink.cpp</title>
<polygon fill="white" stroke="none" points="-4,4 -4,-494.452 852,-494.452 852,4 -4,4"/>
<!-- Node0 -->
<g id="node1" class="node"><title>Node0</title>
<g id="a_node1"><a xlink:title=" ">
<polygon fill="#bfbfbf" stroke="black" points="297.5,-448.952 297.5,-489.952 454.5,-489.952 454.5,-448.952 297.5,-448.952"/>
<text text-anchor="start" x="305.5" y="-477.952" font-family="Helvetica,sans-Serif" font-size="10.00">C:/Users/Jameson/Documents</text>
<text text-anchor="start" x="305.5" y="-466.952" font-family="Helvetica,sans-Serif" font-size="10.00">/git&#45;projects/openage/libopenage</text>
<text text-anchor="middle" x="376" y="-455.952" font-family="Helvetica,sans-Serif" font-size="10.00">/log/stdout_logsink.cpp</text>
</a>
</g>
</g>
<!-- Node1 -->
<g id="node2" class="node"><title>Node1</title>
<g id="a_node2"><a xlink:href="stdout__logsink_8h.xhtml" target="_top" xlink:title=" ">
<polygon fill="white" stroke="black" points="272,-336.952 272,-355.952 360,-355.952 360,-336.952 272,-336.952"/>
<text text-anchor="middle" x="316" y="-343.952" font-family="Helvetica,sans-Serif" font-size="10.00">stdout_logsink.h</text>
</a>
</g>
</g>
<!-- Node0&#45;&gt;Node1 -->
<g id="edge1" class="edge"><title>Node0&#45;&gt;Node1</title>
<path fill="none" stroke="midnightblue" d="M366.226,-448.742C354.708,-425.513 335.743,-387.267 324.709,-365.014"/>
<polygon fill="midnightblue" stroke="midnightblue" points="327.83,-363.431 320.252,-356.026 321.559,-366.54 327.83,-363.431"/>
</g>
<!-- Node7 -->
<g id="node8" class="node"><title>Node7</title>
<g id="a_node8"><a xlink:title=" ">
<polygon fill="white" stroke="#bfbfbf" points="68,-56.9516 68,-75.9516 122,-75.9516 122,-56.9516 68,-56.9516"/>
<text text-anchor="middle" x="95" y="-63.9516" font-family="Helvetica,sans-Serif" font-size="10.00">iostream</text>
</a>
</g>
</g>
<!-- Node0&#45;&gt;Node7 -->
<g id="edge14" class="edge"><title>Node0&#45;&gt;Node7</title>
<path fill="none" stroke="midnightblue" d="M297.487,-457.085C195.403,-440.054 30,-403.77 30,-347.452 30,-347.452 30,-347.452 30,-177.452 30,-147.354 33.5157,-138.261 49,-112.452 55.7768,-101.156 66.069,-90.7197 75.2009,-82.7471"/>
<polygon fill="midnightblue" stroke="midnightblue" points="77.6705,-85.2458 83.1269,-76.1641 73.198,-79.8609 77.6705,-85.2458"/>
</g>
<!-- Node13 -->
<g id="node14" class="node"><title>Node13</title>
<g id="a_node14"><a xlink:title=" ">
<polygon fill="white" stroke="#bfbfbf" points="694,-56.9516 694,-75.9516 744,-75.9516 744,-56.9516 694,-56.9516"/>
<text text-anchor="middle" x="719" y="-63.9516" font-family="Helvetica,sans-Serif" font-size="10.00">iomanip</text>
</a>
</g>
</g>
<!-- Node0&#45;&gt;Node13 -->
<g id="edge15" class="edge"><title>Node0&#45;&gt;Node13</title>
<path fill="none" stroke="midnightblue" d="M454.736,-464.443C589.028,-455.432 848,-427.658 848,-347.452 848,-347.452 848,-347.452 848,-177.452 848,-127.873 792.148,-95.9141 753.945,-79.8529"/>
<polygon fill="midnightblue" stroke="midnightblue" points="754.763,-76.4093 744.179,-75.9267 752.152,-82.9041 754.763,-76.4093"/>
</g>
<!-- Node14 -->
<g id="node15" class="node"><title>Node14</title>
<g id="a_node15"><a xlink:href="named__logsource_8h.xhtml" target="_top" xlink:title=" ">
<polygon fill="white" stroke="black" points="372.5,-392.952 372.5,-411.952 473.5,-411.952 473.5,-392.952 372.5,-392.952"/>
<text text-anchor="middle" x="423" y="-399.952" font-family="Helvetica,sans-Serif" font-size="10.00">named_logsource.h</text>
</a>
</g>
</g>
<!-- Node0&#45;&gt;Node14 -->
<g id="edge16" class="edge"><title>Node0&#45;&gt;Node14</title>
<path fill="none" stroke="midnightblue" d="M390.102,-448.949C396.684,-439.846 404.444,-429.114 410.774,-420.36"/>
<polygon fill="midnightblue" stroke="midnightblue" points="413.72,-422.258 416.744,-412.104 408.048,-418.157 413.72,-422.258"/>
</g>
<!-- Node2 -->
<g id="node3" class="node"><title>Node2</title>
<g id="a_node3"><a xlink:href="logsink_8h.xhtml" target="_top" xlink:title=" ">
<polygon fill="white" stroke="black" points="190,-224.952 190,-243.952 246,-243.952 246,-224.952 190,-224.952"/>
<text text-anchor="middle" x="218" y="-231.952" font-family="Helvetica,sans-Serif" font-size="10.00">logsink.h</text>
</a>
</g>
</g>
<!-- Node1&#45;&gt;Node2 -->
<g id="edge2" class="edge"><title>Node1&#45;&gt;Node2</title>
<path fill="none" stroke="midnightblue" d="M308.31,-336.82C291.994,-318.506 253.68,-275.501 232.577,-251.814"/>
<polygon fill="midnightblue" stroke="midnightblue" points="234.92,-249.181 225.654,-244.043 229.693,-253.838 234.92,-249.181"/>
</g>
<!-- Node3 -->
<g id="node4" class="node"><title>Node3</title>
<g id="a_node4"><a xlink:title=" ">
<polygon fill="white" stroke="#bfbfbf" points="130.5,-168.952 130.5,-187.952 159.5,-187.952 159.5,-168.952 130.5,-168.952"/>
<text text-anchor="middle" x="145" y="-175.952" font-family="Helvetica,sans-Serif" font-size="10.00">list</text>
</a>
</g>
</g>
<!-- Node2&#45;&gt;Node3 -->
<g id="edge3" class="edge"><title>Node2&#45;&gt;Node3</title>
<path fill="none" stroke="midnightblue" d="M206.271,-224.776C195.163,-216.558 178.258,-204.053 165.017,-194.258"/>
<polygon fill="midnightblue" stroke="midnightblue" points="167.063,-191.419 156.942,-188.286 162.9,-197.046 167.063,-191.419"/>
</g>
<!-- Node4 -->
<g id="node5" class="node"><title>Node4</title>
<g id="a_node5"><a xlink:title=" ">
<polygon fill="white" stroke="#bfbfbf" points="178,-168.952 178,-187.952 222,-187.952 222,-168.952 178,-168.952"/>
<text text-anchor="middle" x="200" y="-175.952" font-family="Helvetica,sans-Serif" font-size="10.00">mutex</text>
</a>
</g>
</g>
<!-- Node2&#45;&gt;Node4 -->
<g id="edge4" class="edge"><title>Node2&#45;&gt;Node4</title>
<path fill="none" stroke="midnightblue" d="M215.028,-224.535C212.616,-217.3 209.136,-206.86 206.132,-197.848"/>
<polygon fill="midnightblue" stroke="midnightblue" points="209.4,-196.583 202.917,-188.203 202.759,-198.796 209.4,-196.583"/>
</g>
<!-- Node5 -->
<g id="node6" class="node"><title>Node5</title>
<g id="a_node6"><a xlink:href="level_8h.xhtml" target="_top" xlink:title=" ">
<polygon fill="white" stroke="black" points="240,-168.952 240,-187.952 284,-187.952 284,-168.952 240,-168.952"/>
<text text-anchor="middle" x="262" y="-175.952" font-family="Helvetica,sans-Serif" font-size="10.00">level.h</text>
</a>
</g>
</g>
<!-- Node2&#45;&gt;Node5 -->
<g id="edge5" class="edge"><title>Node2&#45;&gt;Node5</title>
<path fill="none" stroke="midnightblue" d="M225.266,-224.535C231.545,-216.828 240.788,-205.485 248.431,-196.105"/>
<polygon fill="midnightblue" stroke="midnightblue" points="251.266,-198.166 254.869,-188.203 245.839,-193.744 251.266,-198.166"/>
</g>
<!-- Node6 -->
<g id="node7" class="node"><title>Node6</title>
<g id="a_node7"><a xlink:href="enum_8h.xhtml" target="_top" xlink:title=" ">
<polygon fill="white" stroke="black" points="58,-112.952 58,-131.952 132,-131.952 132,-112.952 58,-112.952"/>
<text text-anchor="middle" x="95" y="-119.952" font-family="Helvetica,sans-Serif" font-size="10.00">../util/enum.h</text>
</a>
</g>
</g>
<!-- Node5&#45;&gt;Node6 -->
<g id="edge6" class="edge"><title>Node5&#45;&gt;Node6</title>
<path fill="none" stroke="midnightblue" d="M239.824,-170.281C212.083,-161.311 164.218,-145.833 131.15,-135.141"/>
<polygon fill="midnightblue" stroke="midnightblue" points="131.994,-131.735 121.402,-131.989 129.84,-138.396 131.994,-131.735"/>
</g>
<!-- Node6&#45;&gt;Node7 -->
<g id="edge7" class="edge"><title>Node6&#45;&gt;Node7</title>
<path fill="none" stroke="midnightblue" d="M95,-112.535C95,-105.458 95,-95.3127 95,-86.4381"/>
<polygon fill="midnightblue" stroke="midnightblue" points="98.5001,-86.2027 95,-76.2027 91.5001,-86.2027 98.5001,-86.2027"/>
</g>
<!-- Node8 -->
<g id="node9" class="node"><title>Node8</title>
<g id="a_node9"><a xlink:title=" ">
<polygon fill="white" stroke="#bfbfbf" points="0,-56.9516 0,-75.9516 50,-75.9516 50,-56.9516 0,-56.9516"/>
<text text-anchor="middle" x="25" y="-63.9516" font-family="Helvetica,sans-Serif" font-size="10.00">typeinfo</text>
</a>
</g>
</g>
<!-- Node6&#45;&gt;Node8 -->
<g id="edge8" class="edge"><title>Node6&#45;&gt;Node8</title>
<path fill="none" stroke="midnightblue" d="M83.7533,-112.776C73.2026,-104.636 57.1993,-92.2911 44.5578,-82.5391"/>
<polygon fill="midnightblue" stroke="midnightblue" points="46.507,-79.6224 36.4513,-76.2855 42.2314,-85.1648 46.507,-79.6224"/>
</g>
<!-- Node9 -->
<g id="node10" class="node"><title>Node9</title>
<g id="a_node10"><a xlink:href="compiler_8h.xhtml" target="_top" xlink:title=" ">
<polygon fill="white" stroke="black" points="140,-56.9516 140,-75.9516 202,-75.9516 202,-56.9516 140,-56.9516"/>
<text text-anchor="middle" x="171" y="-63.9516" font-family="Helvetica,sans-Serif" font-size="10.00">compiler.h</text>
</a>
</g>
</g>
<!-- Node6&#45;&gt;Node9 -->
<g id="edge9" class="edge"><title>Node6&#45;&gt;Node9</title>
<path fill="none" stroke="midnightblue" d="M107.211,-112.776C118.776,-104.558 136.375,-92.0533 150.161,-82.2585"/>
<polygon fill="midnightblue" stroke="midnightblue" points="152.443,-84.9308 158.567,-76.2855 148.388,-79.2245 152.443,-84.9308"/>
</g>
<!-- Node10 -->
<g id="node11" class="node"><title>Node10</title>
<g id="a_node11"><a xlink:title=" ">
<polygon fill="white" stroke="#bfbfbf" points="170,-0.951632 170,-19.9516 220,-19.9516 220,-0.951632 170,-0.951632"/>
<text text-anchor="middle" x="195" y="-7.95163" font-family="Helvetica,sans-Serif" font-size="10.00">ciso646</text>
</a>
</g>
</g>
<!-- Node9&#45;&gt;Node10 -->
<g id="edge10" class="edge"><title>Node9&#45;&gt;Node10</title>
<path fill="none" stroke="midnightblue" d="M174.963,-56.5346C178.213,-49.2216 182.919,-38.633 186.954,-29.555"/>
<polygon fill="midnightblue" stroke="midnightblue" points="190.248,-30.7623 191.111,-20.2027 183.851,-27.9193 190.248,-30.7623"/>
</g>
<!-- Node11 -->
<g id="node12" class="node"><title>Node11</title>
<g id="a_node12"><a xlink:title=" ">
<polygon fill="white" stroke="#bfbfbf" points="454.5,-0.951632 454.5,-19.9516 495.5,-19.9516 495.5,-0.951632 454.5,-0.951632"/>
<text text-anchor="middle" x="475" y="-7.95163" font-family="Helvetica,sans-Serif" font-size="10.00">string</text>
</a>
</g>
</g>
<!-- Node9&#45;&gt;Node11 -->
<g id="edge11" class="edge"><title>Node9&#45;&gt;Node11</title>
<path fill="none" stroke="midnightblue" d="M202.105,-59.9265C260.513,-49.5512 385.946,-27.2704 444.155,-16.9306"/>
<polygon fill="midnightblue" stroke="midnightblue" points="444.977,-20.3396 454.21,-15.1445 443.752,-13.4475 444.977,-20.3396"/>
</g>
<!-- Node12 -->
<g id="node13" class="node"><title>Node12</title>
<g id="a_node13"><a xlink:href="signal_8h.xhtml" target="_top" xlink:title=" ">
<polygon fill="white" stroke="black" points="84,-0.951632 84,-19.9516 134,-19.9516 134,-0.951632 84,-0.951632"/>
<text text-anchor="middle" x="109" y="-7.95163" font-family="Helvetica,sans-Serif" font-size="10.00">signal.h</text>
</a>
</g>
</g>
<!-- Node9&#45;&gt;Node12 -->
<g id="edge12" class="edge"><title>Node9&#45;&gt;Node12</title>
<path fill="none" stroke="midnightblue" d="M161.039,-56.7756C151.873,-48.793 138.063,-36.7644 126.972,-27.1045"/>
<polygon fill="midnightblue" stroke="midnightblue" points="128.982,-24.2141 119.143,-20.2855 124.385,-29.4927 128.982,-24.2141"/>
</g>
<!-- Node12&#45;&gt;Node12 -->
<g id="edge13" class="edge"><title>Node12&#45;&gt;Node12</title>
<path fill="none" stroke="midnightblue" d="M127.563,-20.0262C139.946,-22.7213 152,-19.5298 152,-10.4516 152,-3.92673 145.773,-0.442852 137.673,-0"/>
<polygon fill="midnightblue" stroke="midnightblue" points="137.223,3.47427 127.563,-0.877047 137.829,-3.49953 137.223,3.47427"/>
</g>
<!-- Node14&#45;&gt;Node11 -->
<g id="edge17" class="edge"><title>Node14&#45;&gt;Node11</title>
<path fill="none" stroke="midnightblue" d="M473.593,-397.72C578.494,-388.588 810,-360.602 810,-291.452 810,-291.452 810,-291.452 810,-121.452 810,-88.6409 801.839,-75.325 775,-56.4516 731.96,-26.1858 573.348,-15.7517 505.793,-12.6295"/>
<polygon fill="midnightblue" stroke="midnightblue" points="505.909,-9.13124 495.765,-12.1892 505.602,-16.1245 505.909,-9.13124"/>
</g>
<!-- Node15 -->
<g id="node16" class="node"><title>Node15</title>
<g id="a_node16"><a xlink:href="logsource_8h.xhtml" target="_top" xlink:title=" ">
<polygon fill="white" stroke="black" points="389.5,-336.952 389.5,-355.952 456.5,-355.952 456.5,-336.952 389.5,-336.952"/>
<text text-anchor="middle" x="423" y="-343.952" font-family="Helvetica,sans-Serif" font-size="10.00">logsource.h</text>
</a>
</g>
</g>
<!-- Node14&#45;&gt;Node15 -->
<g id="edge18" class="edge"><title>Node14&#45;&gt;Node15</title>
<path fill="none" stroke="midnightblue" d="M423,-392.535C423,-385.458 423,-375.313 423,-366.438"/>
<polygon fill="midnightblue" stroke="midnightblue" points="426.5,-366.203 423,-356.203 419.5,-366.203 426.5,-366.203"/>
</g>
<!-- Node15&#45;&gt;Node11 -->
<g id="edge19" class="edge"><title>Node15&#45;&gt;Node11</title>
<path fill="none" stroke="midnightblue" d="M403.155,-336.843C371.228,-321.495 312,-286.186 312,-235.452 312,-235.452 312,-235.452 312,-177.452 312,-123.525 270.046,-99.1371 303,-56.4516 320.157,-34.2286 399.784,-20.8659 444.434,-14.9929"/>
<polygon fill="midnightblue" stroke="midnightblue" points="444.967,-18.4534 454.448,-13.7242 444.087,-11.509 444.967,-18.4534"/>
</g>
<!-- Node16 -->
<g id="node17" class="node"><title>Node16</title>
<g id="a_node17"><a xlink:href="message_8h.xhtml" target="_top" xlink:title=" ">
<polygon fill="white" stroke="black" points="411.5,-280.952 411.5,-299.952 476.5,-299.952 476.5,-280.952 411.5,-280.952"/>
<text text-anchor="middle" x="444" y="-287.952" font-family="Helvetica,sans-Serif" font-size="10.00">message.h</text>
</a>
</g>
</g>
<!-- Node15&#45;&gt;Node16 -->
<g id="edge20" class="edge"><title>Node15&#45;&gt;Node16</title>
<path fill="none" stroke="midnightblue" d="M426.468,-336.535C429.312,-329.222 433.429,-318.633 436.96,-309.555"/>
<polygon fill="midnightblue" stroke="midnightblue" points="440.234,-310.791 440.597,-300.203 433.71,-308.254 440.234,-310.791"/>
</g>
<!-- Node16&#45;&gt;Node2 -->
<g id="edge42" class="edge"><title>Node16&#45;&gt;Node2</title>
<path fill="none" stroke="midnightblue" d="M411.138,-281.6C369.996,-271.769 299.656,-254.962 256.171,-244.572"/>
<polygon fill="midnightblue" stroke="midnightblue" points="256.799,-241.124 246.26,-242.204 255.172,-247.932 256.799,-241.124"/>
</g>
<!-- Node16&#45;&gt;Node5 -->
<g id="edge43" class="edge"><title>Node16&#45;&gt;Node5</title>
<path fill="none" stroke="midnightblue" d="M413.741,-280.842C390.099,-273.324 357.001,-261.018 331,-244.452 309.651,-230.85 289.048,-210.128 276.001,-195.752"/>
<polygon fill="midnightblue" stroke="midnightblue" points="278.494,-193.288 269.243,-188.123 273.254,-197.93 278.494,-193.288"/>
</g>
<!-- Node16&#45;&gt;Node11 -->
<g id="edge22" class="edge"><title>Node16&#45;&gt;Node11</title>
<path fill="none" stroke="midnightblue" d="M476.649,-285.582C559.613,-274.844 772,-241.315 772,-179.452 772,-179.452 772,-179.452 772,-121.452 772,-91.3538 775.559,-76.3755 753,-56.4516 716.799,-24.4797 570.895,-15.0545 506.178,-12.4176"/>
<polygon fill="midnightblue" stroke="midnightblue" points="505.923,-8.90554 495.798,-12.025 505.659,-15.9005 505.923,-8.90554"/>
</g>
<!-- Node17 -->
<g id="node18" class="node"><title>Node17</title>
<g id="a_node18"><a xlink:title=" ">
<polygon fill="white" stroke="#bfbfbf" points="556,-224.952 556,-243.952 602,-243.952 602,-224.952 556,-224.952"/>
<text text-anchor="middle" x="579" y="-231.952" font-family="Helvetica,sans-Serif" font-size="10.00">cstdint</text>
</a>
</g>
</g>
<!-- Node16&#45;&gt;Node17 -->
<g id="edge21" class="edge"><title>Node16&#45;&gt;Node17</title>
<path fill="none" stroke="midnightblue" d="M465.391,-280.895C487.707,-271.969 522.903,-257.89 548.208,-247.768"/>
<polygon fill="midnightblue" stroke="midnightblue" points="549.724,-250.932 557.709,-243.968 547.124,-244.432 549.724,-250.932"/>
</g>
<!-- Node18 -->
<g id="node19" class="node"><title>Node18</title>
<g id="a_node19"><a xlink:title=" ">
<polygon fill="white" stroke="#bfbfbf" points="340,-224.952 340,-243.952 390,-243.952 390,-224.952 340,-224.952"/>
<text text-anchor="middle" x="365" y="-231.952" font-family="Helvetica,sans-Serif" font-size="10.00">config.h</text>
</a>
</g>
</g>
<!-- Node16&#45;&gt;Node18 -->
<g id="edge23" class="edge"><title>Node16&#45;&gt;Node18</title>
<path fill="none" stroke="midnightblue" d="M431.307,-280.776C419.099,-272.431 400.422,-259.664 385.997,-249.804"/>
<polygon fill="midnightblue" stroke="midnightblue" points="387.892,-246.86 377.661,-244.106 383.942,-252.639 387.892,-246.86"/>
</g>
<!-- Node19 -->
<g id="node20" class="node"><title>Node19</title>
<g id="a_node20"><a xlink:href="constexpr_8h.xhtml" target="_top" xlink:title=" ">
<polygon fill="white" stroke="black" points="408,-224.952 408,-243.952 500,-243.952 500,-224.952 408,-224.952"/>
<text text-anchor="middle" x="454" y="-231.952" font-family="Helvetica,sans-Serif" font-size="10.00">../util/constexpr.h</text>
</a>
</g>
</g>
<!-- Node16&#45;&gt;Node19 -->
<g id="edge24" class="edge"><title>Node16&#45;&gt;Node19</title>
<path fill="none" stroke="midnightblue" d="M445.651,-280.535C446.976,-273.379 448.882,-263.087 450.539,-254.143"/>
<polygon fill="midnightblue" stroke="midnightblue" points="454,-254.673 452.379,-244.203 447.117,-253.398 454,-254.673"/>
</g>
<!-- Node21 -->
<g id="node22" class="node"><title>Node21</title>
<g id="a_node22"><a xlink:href="stringformatter_8h.xhtml" target="_top" xlink:title=" ">
<polygon fill="white" stroke="black" points="414,-168.952 414,-187.952 526,-187.952 526,-168.952 414,-168.952"/>
<text text-anchor="middle" x="470" y="-175.952" font-family="Helvetica,sans-Serif" font-size="10.00">../util/stringformatter.h</text>
</a>
</g>
</g>
<!-- Node16&#45;&gt;Node21 -->
<g id="edge26" class="edge"><title>Node16&#45;&gt;Node21</title>
<path fill="none" stroke="midnightblue" d="M465.808,-280.899C480.945,-273.673 499.955,-261.715 509,-244.452 518.088,-227.106 503.436,-207.965 489.571,-194.976"/>
<polygon fill="midnightblue" stroke="midnightblue" points="491.521,-192.032 481.683,-188.098 486.92,-197.308 491.521,-192.032"/>
</g>
<!-- Node20 -->
<g id="node21" class="node"><title>Node20</title>
<g id="a_node21"><a xlink:title=" ">
<polygon fill="white" stroke="#bfbfbf" points="350.5,-168.952 350.5,-187.952 395.5,-187.952 395.5,-168.952 350.5,-168.952"/>
<text text-anchor="middle" x="373" y="-175.952" font-family="Helvetica,sans-Serif" font-size="10.00">cstdlib</text>
</a>
</g>
</g>
<!-- Node19&#45;&gt;Node20 -->
<g id="edge25" class="edge"><title>Node19&#45;&gt;Node20</title>
<path fill="none" stroke="midnightblue" d="M440.986,-224.776C428.468,-216.431 409.318,-203.664 394.529,-193.804"/>
<polygon fill="midnightblue" stroke="midnightblue" points="396.244,-190.741 385.982,-188.106 392.361,-196.565 396.244,-190.741"/>
</g>
<!-- Node21&#45;&gt;Node9 -->
<g id="edge30" class="edge"><title>Node21&#45;&gt;Node9</title>
<path fill="none" stroke="midnightblue" d="M413.842,-169.633C330.424,-157.899 183.076,-136.655 179,-132.452 167.27,-120.352 166.441,-100.474 167.822,-85.881"/>
<polygon fill="midnightblue" stroke="midnightblue" points="171.291,-86.3473 169.165,-75.9679 164.354,-85.4073 171.291,-86.3473"/>
</g>
<!-- Node22 -->
<g id="node23" class="node"><title>Node22</title>
<g id="a_node23"><a xlink:title=" ">
<polygon fill="white" stroke="#bfbfbf" points="458,-112.952 458,-131.952 504,-131.952 504,-112.952 458,-112.952"/>
<text text-anchor="middle" x="481" y="-119.952" font-family="Helvetica,sans-Serif" font-size="10.00">atomic</text>
</a>
</g>
</g>
<!-- Node21&#45;&gt;Node22 -->
<g id="edge27" class="edge"><title>Node21&#45;&gt;Node22</title>
<path fill="none" stroke="midnightblue" d="M471.816,-168.535C473.274,-161.379 475.371,-151.087 477.193,-142.143"/>
<polygon fill="midnightblue" stroke="midnightblue" points="480.651,-142.7 479.217,-132.203 473.792,-141.303 480.651,-142.7"/>
</g>
<!-- Node23 -->
<g id="node24" class="node"><title>Node23</title>
<g id="a_node24"><a xlink:title=" ">
<polygon fill="white" stroke="#bfbfbf" points="312,-56.9516 312,-75.9516 364,-75.9516 364,-56.9516 312,-56.9516"/>
<text text-anchor="middle" x="338" y="-63.9516" font-family="Helvetica,sans-Serif" font-size="10.00">memory</text>
</a>
</g>
</g>
<!-- Node21&#45;&gt;Node23 -->
<g id="edge28" class="edge"><title>Node21&#45;&gt;Node23</title>
<path fill="none" stroke="midnightblue" d="M463.409,-168.74C453.156,-155.55 432.338,-130.173 411,-112.452 396.438,-100.357 378.333,-89.1758 363.797,-80.9841"/>
<polygon fill="midnightblue" stroke="midnightblue" points="365.282,-77.8064 354.833,-76.0532 361.908,-83.9397 365.282,-77.8064"/>
</g>
<!-- Node24 -->
<g id="node25" class="node"><title>Node24</title>
<g id="a_node25"><a xlink:title=" ">
<polygon fill="white" stroke="#bfbfbf" points="340,-112.952 340,-131.952 402,-131.952 402,-112.952 340,-112.952"/>
<text text-anchor="middle" x="371" y="-119.952" font-family="Helvetica,sans-Serif" font-size="10.00">type_traits</text>
</a>
</g>
</g>
<!-- Node21&#45;&gt;Node24 -->
<g id="edge29" class="edge"><title>Node21&#45;&gt;Node24</title>
<path fill="none" stroke="midnightblue" d="M454.094,-168.776C438.362,-160.194 414.058,-146.938 395.791,-136.974"/>
<polygon fill="midnightblue" stroke="midnightblue" points="397.322,-133.822 386.867,-132.106 393.97,-139.967 397.322,-133.822"/>
</g>
<!-- Node25 -->
<g id="node26" class="node"><title>Node25</title>
<g id="a_node26"><a xlink:href="externalsstream_8h.xhtml" target="_top" xlink:title=" ">
<polygon fill="white" stroke="black" points="188.5,-112.952 188.5,-131.952 283.5,-131.952 283.5,-112.952 188.5,-112.952"/>
<text text-anchor="middle" x="236" y="-119.952" font-family="Helvetica,sans-Serif" font-size="10.00">externalsstream.h</text>
</a>
</g>
</g>
<!-- Node21&#45;&gt;Node25 -->
<g id="edge31" class="edge"><title>Node21&#45;&gt;Node25</title>
<path fill="none" stroke="midnightblue" d="M432.922,-168.895C392.272,-159.515 326.968,-144.444 282.816,-134.255"/>
<polygon fill="midnightblue" stroke="midnightblue" points="283.435,-130.806 272.905,-131.968 281.861,-137.627 283.435,-130.806"/>
</g>
<!-- Node26 -->
<g id="node27" class="node"><title>Node26</title>
<g id="a_node27"><a xlink:href="strings_8h.xhtml" target="_top" xlink:title=" ">
<polygon fill="white" stroke="black" points="522,-112.952 522,-131.952 576,-131.952 576,-112.952 522,-112.952"/>
<text text-anchor="middle" x="549" y="-119.952" font-family="Helvetica,sans-Serif" font-size="10.00">strings.h</text>
</a>
</g>
</g>
<!-- Node21&#45;&gt;Node26 -->
<g id="edge34" class="edge"><title>Node21&#45;&gt;Node26</title>
<path fill="none" stroke="midnightblue" d="M482.693,-168.776C494.901,-160.431 513.578,-147.664 528.003,-137.804"/>
<polygon fill="midnightblue" stroke="midnightblue" points="530.058,-140.639 536.339,-132.106 526.108,-134.86 530.058,-140.639"/>
</g>
<!-- Node25&#45;&gt;Node7 -->
<g id="edge32" class="edge"><title>Node25&#45;&gt;Node7</title>
<path fill="none" stroke="midnightblue" d="M213.658,-112.895C190.247,-103.929 153.264,-89.7657 126.81,-79.6343"/>
<polygon fill="midnightblue" stroke="midnightblue" points="127.828,-76.2761 117.237,-75.9681 125.324,-82.8131 127.828,-76.2761"/>
</g>
<!-- Node25&#45;&gt;Node11 -->
<g id="edge33" class="edge"><title>Node25&#45;&gt;Node11</title>
<path fill="none" stroke="midnightblue" d="M238.014,-112.756C241.758,-98.6298 251.178,-70.8336 270,-56.4516 321.647,-16.9876 400.854,-10.6719 444.136,-10.4699"/>
<polygon fill="midnightblue" stroke="midnightblue" points="444.305,-13.971 454.327,-10.5338 444.349,-6.97111 444.305,-13.971"/>
</g>
<!-- Node26&#45;&gt;Node11 -->
<g id="edge40" class="edge"><title>Node26&#45;&gt;Node11</title>
<path fill="none" stroke="midnightblue" d="M576.06,-115.147C611.903,-105.518 668.154,-85.19 646,-56.4516 628.996,-34.3936 550.186,-20.9971 505.73,-15.0655"/>
<polygon fill="midnightblue" stroke="midnightblue" points="506.115,-11.5862 495.75,-13.7822 505.222,-18.5291 506.115,-11.5862"/>
</g>
<!-- Node26&#45;&gt;Node13 -->
<g id="edge37" class="edge"><title>Node26&#45;&gt;Node13</title>
<path fill="none" stroke="midnightblue" d="M575.937,-112.895C605.167,-103.61 651.946,-88.7512 684.002,-78.5687"/>
<polygon fill="midnightblue" stroke="midnightblue" points="685.38,-81.8032 693.852,-75.4399 683.261,-75.1317 685.38,-81.8032"/>
</g>
<!-- Node26&#45;&gt;Node23 -->
<g id="edge38" class="edge"><title>Node26&#45;&gt;Node23</title>
<path fill="none" stroke="midnightblue" d="M521.861,-114.525C489.113,-106.164 432.12,-91.6046 374.073,-76.7243"/>
<polygon fill="midnightblue" stroke="midnightblue" points="374.928,-73.3306 364.372,-74.2372 373.19,-80.1112 374.928,-73.3306"/>
</g>
<!-- Node27 -->
<g id="node28" class="node"><title>Node27</title>
<g id="a_node28"><a xlink:title=" ">
<polygon fill="white" stroke="#bfbfbf" points="588.5,-56.9516 588.5,-75.9516 637.5,-75.9516 637.5,-56.9516 588.5,-56.9516"/>
<text text-anchor="middle" x="613" y="-63.9516" font-family="Helvetica,sans-Serif" font-size="10.00">cstdarg</text>
</a>
</g>
</g>
<!-- Node26&#45;&gt;Node27 -->
<g id="edge35" class="edge"><title>Node26&#45;&gt;Node27</title>
<path fill="none" stroke="midnightblue" d="M559.283,-112.776C568.836,-104.715 583.28,-92.5281 594.784,-82.8211"/>
<polygon fill="midnightblue" stroke="midnightblue" points="597.144,-85.4093 602.53,-76.2855 592.63,-80.0592 597.144,-85.4093"/>
</g>
<!-- Node28 -->
<g id="node29" class="node"><title>Node28</title>
<g id="a_node29"><a xlink:title=" ">
<polygon fill="white" stroke="#bfbfbf" points="382,-56.9516 382,-75.9516 440,-75.9516 440,-56.9516 382,-56.9516"/>
<text text-anchor="middle" x="411" y="-63.9516" font-family="Helvetica,sans-Serif" font-size="10.00">functional</text>
</a>
</g>
</g>
<!-- Node26&#45;&gt;Node28 -->
<g id="edge36" class="edge"><title>Node26&#45;&gt;Node28</title>
<path fill="none" stroke="midnightblue" d="M527.133,-112.895C504.221,-103.929 468.025,-89.7657 442.134,-79.6343"/>
<polygon fill="midnightblue" stroke="midnightblue" points="443.352,-76.3528 432.764,-75.9681 440.801,-82.8715 443.352,-76.3528"/>
</g>
<!-- Node29 -->
<g id="node30" class="node"><title>Node29</title>
<g id="a_node30"><a xlink:title=" ">
<polygon fill="white" stroke="#bfbfbf" points="458,-56.9516 458,-75.9516 510,-75.9516 510,-56.9516 458,-56.9516"/>
<text text-anchor="middle" x="484" y="-63.9516" font-family="Helvetica,sans-Serif" font-size="10.00">sstream</text>
</a>
</g>
</g>
<!-- Node26&#45;&gt;Node29 -->
<g id="edge39" class="edge"><title>Node26&#45;&gt;Node29</title>
<path fill="none" stroke="midnightblue" d="M538.557,-112.776C528.854,-104.715 514.185,-92.5281 502.5,-82.8211"/>
<polygon fill="midnightblue" stroke="midnightblue" points="504.562,-79.9836 494.633,-76.2855 500.089,-85.3679 504.562,-79.9836"/>
</g>
<!-- Node30 -->
<g id="node31" class="node"><title>Node30</title>
<g id="a_node31"><a xlink:title=" ">
<polygon fill="white" stroke="#bfbfbf" points="528,-56.9516 528,-75.9516 570,-75.9516 570,-56.9516 528,-56.9516"/>
<text text-anchor="middle" x="549" y="-63.9516" font-family="Helvetica,sans-Serif" font-size="10.00">vector</text>
</a>
</g>
</g>
<!-- Node26&#45;&gt;Node30 -->
<g id="edge41" class="edge"><title>Node26&#45;&gt;Node30</title>
<path fill="none" stroke="midnightblue" d="M549,-112.535C549,-105.458 549,-95.3127 549,-86.4381"/>
<polygon fill="midnightblue" stroke="midnightblue" points="552.5,-86.2027 549,-76.2027 545.5,-86.2027 552.5,-86.2027"/>
</g>
</g>
</svg>
        <g id="navigator" transform="translate(0 0)" fill="#404254">
                <rect fill="#f2f5e9" fill-opacity="0.5" stroke="#606060" stroke-width=".5" x="0" y="0" width="60" height="60"/>
                <use id="zoomplus" xlink:href="#zoomPlus" x="17" y="9" onmousedown="handleZoom(evt,'in')"/>
                <use id="zoomminus" xlink:href="#zoomMin" x="42" y="9" onmousedown="handleZoom(evt,'out')"/>
                <use id="reset" xlink:href="#resetDef" x="30" y="36" onmousedown="handleReset()"/>
                <g id="arrowUp" xlink:href="#dirArrow" transform="translate(30 24)" onmousedown="handlePan(0,-1)">
                  <use xlink:href="#rim" fill="#404040">
                        <set attributeName="fill" to="#808080" begin="arrowUp.mouseover" end="arrowUp.mouseout"/>
                  </use>
                  <path fill="none" stroke="white" stroke-width="1.5" d="M0,-3.0v7 M-2.5,-0.5L0,-3.0L2.5,-0.5"/>
                </g>
                <g id="arrowRight" xlink:href="#dirArrow" transform="rotate(90) translate(36 -43)" onmousedown="handlePan(1,0)">
                  <use xlink:href="#rim" fill="#404040">
                        <set attributeName="fill" to="#808080" begin="arrowRight.mouseover" end="arrowRight.mouseout"/>
                  </use>
                  <path fill="none" stroke="white" stroke-width="1.5" d="M0,-3.0v7 M-2.5,-0.5L0,-3.0L2.5,-0.5"/>
                </g>
                <g id="arrowDown" xlink:href="#dirArrow" transform="rotate(180) translate(-30 -48)" onmousedown="handlePan(0,1)">
                  <use xlink:href="#rim" fill="#404040">
                        <set attributeName="fill" to="#808080" begin="arrowDown.mouseover" end="arrowDown.mouseout"/>
                  </use>
                  <path fill="none" stroke="white" stroke-width="1.5" d="M0,-3.0v7 M-2.5,-0.5L0,-3.0L2.5,-0.5"/>
                </g>
                <g id="arrowLeft" xlink:href="#dirArrow" transform="rotate(270) translate(-36 17)" onmousedown="handlePan(-1,0)">
                  <use xlink:href="#rim" fill="#404040">
                        <set attributeName="fill" to="#808080" begin="arrowLeft.mouseover" end="arrowLeft.mouseout"/>
                  </use>
                  <path fill="none" stroke="white" stroke-width="1.5" d="M0,-3.0v7 M-2.5,-0.5L0,-3.0L2.5,-0.5"/>
                </g>
        </g>
        <svg viewBox="0 0 15 15" width="100%" height="30px" preserveAspectRatio="xMaxYMin meet">
         <g id="arrow_out" transform="scale(0.3 0.3)">
          <a xlink:href="stdout__logsink_8cpp__incl_org.svg" target="_base">
           <rect id="button" ry="5" rx="5" y="6" x="6" height="38" width="38"
                fill="#f2f5e9" fill-opacity="0.5" stroke="#606060" stroke-width="1.0"/>
           <path id="arrow"
             d="M 11.500037,31.436501 C 11.940474,20.09759 22.043105,11.32322 32.158766,21.979434 L 37.068811,17.246167 C 37.068811,17.246167 37.088388,32 37.088388,32 L 22.160133,31.978069 C 22.160133,31.978069 26.997745,27.140456 26.997745,27.140456 C 18.528582,18.264221 13.291696,25.230495 11.500037,31.436501 z"
             style="fill:#404040;"/>
          </a>
         </g>
        </svg>
</svg>
