<?xml version="1.0" encoding="UTF-8" standalone="no"?>
<!DOCTYPE svg PUBLIC "-//W3C//DTD SVG 1.1//EN"
 "http://www.w3.org/Graphics/SVG/1.1/DTD/svg11.dtd">
<!-- Generated by graphviz version 2.38.0 (20140413.2041)
 -->
<!-- Title: C:/Users/Jameson/Documents/git&#45;projects/openage/libopenage/util/strings.h Pages: 1 -->
<svg width="462pt" height="106pt"
 viewBox="0.00 0.00 461.50 106.00" xmlns="http://www.w3.org/2000/svg" xmlns:xlink="http://www.w3.org/1999/xlink">
<g id="graph0" class="graph" transform="scale(1 1) rotate(0) translate(4 102)">
<title>C:/Users/Jameson/Documents/git&#45;projects/openage/libopenage/util/strings.h</title>
<polygon fill="white" stroke="none" points="-4,4 -4,-102 457.5,-102 457.5,4 -4,4"/>
<!-- Node0 -->
<g id="node1" class="node"><title>Node0</title>
<g id="a_node1"><a xlink:title=" ">
<polygon fill="#bfbfbf" stroke="black" points="159,-56.5 159,-97.5 316,-97.5 316,-56.5 159,-56.5"/>
<text text-anchor="start" x="167" y="-85.5" font-family="Helvetica,sans-Serif" font-size="10.00">C:/Users/Jameson/Documents</text>
<text text-anchor="start" x="167" y="-74.5" font-family="Helvetica,sans-Serif" font-size="10.00">/git&#45;projects/openage/libopenage</text>
<text text-anchor="middle" x="237.5" y="-63.5" font-family="Helvetica,sans-Serif" font-size="10.00">/util/strings.h</text>
</a>
</g>
</g>
<!-- Node1 -->
<g id="node2" class="node"><title>Node1</title>
<g id="a_node2"><a xlink:title=" ">
<polygon fill="white" stroke="#bfbfbf" points="0,-0.5 0,-19.5 49,-19.5 49,-0.5 0,-0.5"/>
<text text-anchor="middle" x="24.5" y="-7.5" font-family="Helvetica,sans-Serif" font-size="10.00">cstdarg</text>
</a>
</g>
</g>
<!-- Node0&#45;&gt;Node1 -->
<g id="edge1" class="edge"><title>Node0&#45;&gt;Node1</title>
<path fill="none" stroke="midnightblue" d="M173.593,-56.4979C135.941,-45.0077 89.7844,-30.9225 58.8917,-21.4951"/>
<polygon fill="midnightblue" stroke="midnightblue" points="59.6207,-18.0583 49.0345,-18.4871 57.5775,-24.7535 59.6207,-18.0583"/>
</g>
<!-- Node2 -->
<g id="node3" class="node"><title>Node2</title>
<g id="a_node3"><a xlink:title=" ">
<polygon fill="white" stroke="#bfbfbf" points="67.5,-0.5 67.5,-19.5 125.5,-19.5 125.5,-0.5 67.5,-0.5"/>
<text text-anchor="middle" x="96.5" y="-7.5" font-family="Helvetica,sans-Serif" font-size="10.00">functional</text>
</a>
</g>
</g>
<!-- Node0&#45;&gt;Node2 -->
<g id="edge2" class="edge"><title>Node0&#45;&gt;Node2</title>
<path fill="none" stroke="midnightblue" d="M195.195,-56.4979C172.33,-45.9572 144.728,-33.2326 124.534,-23.9235"/>
<polygon fill="midnightblue" stroke="midnightblue" points="125.816,-20.6605 115.269,-19.6525 122.885,-27.0176 125.816,-20.6605"/>
</g>
<!-- Node3 -->
<g id="node4" class="node"><title>Node3</title>
<g id="a_node4"><a xlink:title=" ">
<polygon fill="white" stroke="#bfbfbf" points="143.5,-0.5 143.5,-19.5 193.5,-19.5 193.5,-0.5 143.5,-0.5"/>
<text text-anchor="middle" x="168.5" y="-7.5" font-family="Helvetica,sans-Serif" font-size="10.00">iomanip</text>
</a>
</g>
</g>
<!-- Node0&#45;&gt;Node3 -->
<g id="edge3" class="edge"><title>Node0&#45;&gt;Node3</title>
<path fill="none" stroke="midnightblue" d="M216.798,-56.4979C206.626,-46.9154 194.538,-35.5281 184.999,-26.5428"/>
<polygon fill="midnightblue" stroke="midnightblue" points="187.364,-23.9618 177.685,-19.6525 182.564,-29.0571 187.364,-23.9618"/>
</g>
<!-- Node4 -->
<g id="node5" class="node"><title>Node4</title>
<g id="a_node5"><a xlink:title=" ">
<polygon fill="white" stroke="#bfbfbf" points="211.5,-0.5 211.5,-19.5 263.5,-19.5 263.5,-0.5 211.5,-0.5"/>
<text text-anchor="middle" x="237.5" y="-7.5" font-family="Helvetica,sans-Serif" font-size="10.00">memory</text>
</a>
</g>
</g>
<!-- Node0&#45;&gt;Node4 -->
<g id="edge4" class="edge"><title>Node0&#45;&gt;Node4</title>
<path fill="none" stroke="midnightblue" d="M237.5,-56.4979C237.5,-48.0653 237.5,-38.2351 237.5,-29.874"/>
<polygon fill="midnightblue" stroke="midnightblue" points="241,-29.6525 237.5,-19.6525 234,-29.6525 241,-29.6525"/>
</g>
<!-- Node5 -->
<g id="node6" class="node"><title>Node5</title>
<g id="a_node6"><a xlink:title=" ">
<polygon fill="white" stroke="#bfbfbf" points="281.5,-0.5 281.5,-19.5 333.5,-19.5 333.5,-0.5 281.5,-0.5"/>
<text text-anchor="middle" x="307.5" y="-7.5" font-family="Helvetica,sans-Serif" font-size="10.00">sstream</text>
</a>
</g>
</g>
<!-- Node0&#45;&gt;Node5 -->
<g id="edge5" class="edge"><title>Node0&#45;&gt;Node5</title>
<path fill="none" stroke="midnightblue" d="M258.502,-56.4979C268.822,-46.9154 281.085,-35.5281 290.762,-26.5428"/>
<polygon fill="midnightblue" stroke="midnightblue" points="293.236,-29.0218 298.182,-19.6525 288.472,-23.8922 293.236,-29.0218"/>
</g>
<!-- Node6 -->
<g id="node7" class="node"><title>Node6</title>
<g id="a_node7"><a xlink:title=" ">
<polygon fill="white" stroke="#bfbfbf" points="352,-0.5 352,-19.5 393,-19.5 393,-0.5 352,-0.5"/>
<text text-anchor="middle" x="372.5" y="-7.5" font-family="Helvetica,sans-Serif" font-size="10.00">string</text>
</a>
</g>
</g>
<!-- Node0&#45;&gt;Node6 -->
<g id="edge6" class="edge"><title>Node0&#45;&gt;Node6</title>
<path fill="none" stroke="midnightblue" d="M278.004,-56.4979C299.797,-46.0051 326.084,-33.3482 345.395,-24.0507"/>
<polygon fill="midnightblue" stroke="midnightblue" points="347.038,-27.1442 354.529,-19.6525 344.001,-20.8372 347.038,-27.1442"/>
</g>
<!-- Node7 -->
<g id="node8" class="node"><title>Node7</title>
<g id="a_node8"><a xlink:title=" ">
<polygon fill="white" stroke="#bfbfbf" points="411.5,-0.5 411.5,-19.5 453.5,-19.5 453.5,-0.5 411.5,-0.5"/>
<text text-anchor="middle" x="432.5" y="-7.5" font-family="Helvetica,sans-Serif" font-size="10.00">vector</text>
</a>
</g>
</g>
<!-- Node0&#45;&gt;Node7 -->
<g id="edge7" class="edge"><title>Node0&#45;&gt;Node7</title>
<path fill="none" stroke="midnightblue" d="M296.006,-56.4979C330.777,-44.9078 373.468,-30.6773 401.749,-21.2502"/>
<polygon fill="midnightblue" stroke="midnightblue" points="403.095,-24.491 411.475,-18.0082 400.882,-17.8502 403.095,-24.491"/>
</g>
</g>
</svg>
