<?xml version="1.0" encoding="UTF-8" standalone="no"?>
<!DOCTYPE svg PUBLIC "-//W3C//DTD SVG 1.1//EN"
 "http://www.w3.org/Graphics/SVG/1.1/DTD/svg11.dtd">
<!-- Generated by graphviz version 2.38.0 (20140413.2041)
 -->
<!-- Title: openage::renderer::opengl::GlGeometry::GlMesh Pages: 1 -->
<svg width="240pt" height="464pt"
 viewBox="0.00 0.00 240.00 464.00" xmlns="http://www.w3.org/2000/svg" xmlns:xlink="http://www.w3.org/1999/xlink">
<g id="graph0" class="graph" transform="scale(1 1) rotate(0) translate(4 460)">
<title>openage::renderer::opengl::GlGeometry::GlMesh</title>
<polygon fill="white" stroke="none" points="-4,4 -4,-460 236,-460 236,4 -4,4"/>
<!-- Node1 -->
<g id="node1" class="node"><title>Node1</title>
<g id="a_node1"><a xlink:title="All the pieces of OpenGL state that represent a mesh.">
<polygon fill="#bfbfbf" stroke="black" points="43.5,-0.5 43.5,-112.5 153.5,-112.5 153.5,-0.5 43.5,-0.5"/>
<text text-anchor="start" x="51.5" y="-100.5" font-family="Helvetica,sans-Serif" font-size="10.00">openage::renderer::</text>
<text text-anchor="start" x="51.5" y="-89.5" font-family="Helvetica,sans-Serif" font-size="10.00">opengl::GlGeometry::</text>
<text text-anchor="middle" x="98.5" y="-78.5" font-family="Helvetica,sans-Serif" font-size="10.00">GlMesh</text>
<polyline fill="none" stroke="black" points="43.5,-71.5 153.5,-71.5 "/>
<text text-anchor="start" x="51.5" y="-59.5" font-family="Helvetica,sans-Serif" font-size="10.00">+ indices</text>
<text text-anchor="start" x="51.5" y="-48.5" font-family="Helvetica,sans-Serif" font-size="10.00">+ index_type</text>
<text text-anchor="start" x="51.5" y="-37.5" font-family="Helvetica,sans-Serif" font-size="10.00">+ vert_count</text>
<text text-anchor="start" x="51.5" y="-26.5" font-family="Helvetica,sans-Serif" font-size="10.00">+ primitive</text>
<polyline fill="none" stroke="black" points="43.5,-19.5 153.5,-19.5 "/>
<text text-anchor="middle" x="98.5" y="-7.5" font-family="Helvetica,sans-Serif" font-size="10.00"> </text>
</a>
</g>
</g>
<!-- Node2 -->
<g id="node2" class="node"><title>Node2</title>
<g id="a_node2"><a xlink:href="classopenage_1_1renderer_1_1opengl_1_1_gl_buffer.xhtml" target="_top" xlink:title=" ">
<polygon fill="white" stroke="black" points="0,-160.5 0,-272.5 101,-272.5 101,-160.5 0,-160.5"/>
<text text-anchor="start" x="8" y="-260.5" font-family="Helvetica,sans-Serif" font-size="10.00">openage::renderer::</text>
<text text-anchor="middle" x="50.5" y="-249.5" font-family="Helvetica,sans-Serif" font-size="10.00">opengl::GlBuffer</text>
<polyline fill="none" stroke="black" points="0,-242.5 101,-242.5 "/>
<text text-anchor="start" x="8" y="-230.5" font-family="Helvetica,sans-Serif" font-size="10.00">&#45; size</text>
<polyline fill="none" stroke="black" points="0,-223.5 101,-223.5 "/>
<text text-anchor="start" x="8" y="-211.5" font-family="Helvetica,sans-Serif" font-size="10.00">+ GlBuffer()</text>
<text text-anchor="start" x="8" y="-200.5" font-family="Helvetica,sans-Serif" font-size="10.00">+ GlBuffer()</text>
<text text-anchor="start" x="8" y="-189.5" font-family="Helvetica,sans-Serif" font-size="10.00">+ get_size()</text>
<text text-anchor="start" x="8" y="-178.5" font-family="Helvetica,sans-Serif" font-size="10.00">+ upload_data()</text>
<text text-anchor="start" x="8" y="-167.5" font-family="Helvetica,sans-Serif" font-size="10.00">+ bind()</text>
</a>
</g>
</g>
<!-- Node2&#45;&gt;Node1 -->
<g id="edge1" class="edge"><title>Node2&#45;&gt;Node1</title>
<path fill="none" stroke="#404040" d="M67.2881,-160.239C70.7958,-148.693 74.5302,-136.401 78.151,-124.482"/>
<polygon fill="none" stroke="#404040" points="78.2332,-124.211 76.15,-117.308 81.7214,-112.73 83.8046,-119.633 78.2332,-124.211"/>
<text text-anchor="middle" x="98" y="-134" font-family="Helvetica,sans-Serif" font-size="10.00"> +vertices</text>
</g>
<!-- Node3 -->
<g id="node3" class="node"><title>Node3</title>
<g id="a_node3"><a xlink:href="classopenage_1_1renderer_1_1opengl_1_1_gl_simple_object.xhtml" target="_top" xlink:title=" ">
<polygon fill="white" stroke="black" points="66,-310.5 66,-455.5 185,-455.5 185,-310.5 66,-310.5"/>
<text text-anchor="start" x="74" y="-443.5" font-family="Helvetica,sans-Serif" font-size="10.00">openage::renderer::</text>
<text text-anchor="middle" x="125.5" y="-432.5" font-family="Helvetica,sans-Serif" font-size="10.00">opengl::GlSimpleObject</text>
<polyline fill="none" stroke="black" points="66,-425.5 185,-425.5 "/>
<text text-anchor="start" x="74" y="-413.5" font-family="Helvetica,sans-Serif" font-size="10.00"># handle</text>
<text text-anchor="start" x="74" y="-402.5" font-family="Helvetica,sans-Serif" font-size="10.00"># delete_fun</text>
<polyline fill="none" stroke="black" points="66,-395.5 185,-395.5 "/>
<text text-anchor="start" x="74" y="-383.5" font-family="Helvetica,sans-Serif" font-size="10.00">+ GlSimpleObject()</text>
<text text-anchor="start" x="74" y="-372.5" font-family="Helvetica,sans-Serif" font-size="10.00">+ operator=()</text>
<text text-anchor="start" x="74" y="-361.5" font-family="Helvetica,sans-Serif" font-size="10.00">+ GlSimpleObject()</text>
<text text-anchor="start" x="74" y="-350.5" font-family="Helvetica,sans-Serif" font-size="10.00">+ operator=()</text>
<text text-anchor="start" x="74" y="-339.5" font-family="Helvetica,sans-Serif" font-size="10.00">+ ~GlSimpleObject()</text>
<text text-anchor="start" x="74" y="-328.5" font-family="Helvetica,sans-Serif" font-size="10.00">+ get_handle()</text>
<text text-anchor="start" x="74" y="-317.5" font-family="Helvetica,sans-Serif" font-size="10.00"># GlSimpleObject()</text>
</a>
</g>
</g>
<!-- Node3&#45;&gt;Node2 -->
<g id="edge2" class="edge"><title>Node3&#45;&gt;Node2</title>
<path fill="none" stroke="midnightblue" d="M88.6154,-301.1C84.216,-291.45 79.8052,-281.776 75.6255,-272.609"/>
<polygon fill="none" stroke="midnightblue" points="85.489,-302.679 92.8221,-310.326 91.8582,-299.776 85.489,-302.679"/>
</g>
<!-- Node4 -->
<g id="node4" class="node"><title>Node4</title>
<g id="a_node4"><a xlink:href="classopenage_1_1renderer_1_1opengl_1_1_gl_vertex_array.xhtml" target="_top" xlink:title=" ">
<polygon fill="white" stroke="black" points="119,-182.5 119,-250.5 232,-250.5 232,-182.5 119,-182.5"/>
<text text-anchor="start" x="127" y="-238.5" font-family="Helvetica,sans-Serif" font-size="10.00">openage::renderer::</text>
<text text-anchor="middle" x="175.5" y="-227.5" font-family="Helvetica,sans-Serif" font-size="10.00">opengl::GlVertexArray</text>
<polyline fill="none" stroke="black" points="119,-220.5 232,-220.5 "/>
<text text-anchor="middle" x="175.5" y="-208.5" font-family="Helvetica,sans-Serif" font-size="10.00"> </text>
<polyline fill="none" stroke="black" points="119,-201.5 232,-201.5 "/>
<text text-anchor="middle" x="175.5" y="-189.5" font-family="Helvetica,sans-Serif" font-size="10.00"> </text>
</a>
</g>
</g>
<!-- Node3&#45;&gt;Node4 -->
<g id="edge4" class="edge"><title>Node3&#45;&gt;Node4</title>
<path fill="none" stroke="midnightblue" d="M150.26,-300.54C155.628,-282.877 161.012,-265.166 165.419,-250.665"/>
<polygon fill="none" stroke="midnightblue" points="146.845,-299.741 147.285,-310.326 153.542,-301.777 146.845,-299.741"/>
</g>
<!-- Node4&#45;&gt;Node1 -->
<g id="edge3" class="edge"><title>Node4&#45;&gt;Node1</title>
<path fill="none" stroke="#404040" d="M159.358,-182.378C151.022,-165.273 140.546,-143.777 130.647,-123.463"/>
<polygon fill="none" stroke="#404040" points="130.638,-123.445 124.413,-119.804 125.381,-112.658 131.605,-116.299 130.638,-123.445"/>
<text text-anchor="middle" x="150.5" y="-134" font-family="Helvetica,sans-Serif" font-size="10.00"> +vao</text>
</g>
</g>
</svg>
