<?xml version="1.0" encoding="UTF-8" standalone="no"?>
<!DOCTYPE svg PUBLIC "-//W3C//DTD SVG 1.1//EN"
 "http://www.w3.org/Graphics/SVG/1.1/DTD/svg11.dtd">
<!-- Generated by graphviz version 2.38.0 (20140413.2041)
 -->
<!-- Title: openage::coord::camgame::to_tile Pages: 1 -->
<svg width="603pt" height="78pt"
 viewBox="0.00 0.00 603.00 77.50" xmlns="http://www.w3.org/2000/svg" xmlns:xlink="http://www.w3.org/1999/xlink">
<g id="graph0" class="graph" transform="scale(1 1) rotate(0) translate(4 73.5)">
<title>openage::coord::camgame::to_tile</title>
<polygon fill="white" stroke="none" points="-4,4 -4,-73.5 599,-73.5 599,4 -4,4"/>
<!-- Node22 -->
<g id="node1" class="node"><title>Node22</title>
<g id="a_node1"><a xlink:title=" ">
<polygon fill="#bfbfbf" stroke="black" points="463,-17 463,-47 595,-47 595,-17 463,-17"/>
<text text-anchor="start" x="471" y="-35" font-family="Helvetica,sans-Serif" font-size="10.00">openage::coord::camgame</text>
<text text-anchor="middle" x="529" y="-24" font-family="Helvetica,sans-Serif" font-size="10.00">::to_tile</text>
</a>
</g>
</g>
<!-- Node23 -->
<g id="node2" class="node"><title>Node23</title>
<g id="a_node2"><a xlink:href="structopenage_1_1coord_1_1viewport.xhtml#ad78ba1b1f9b64caa7b6eda78aaf7513a" target="_top" xlink:title=" ">
<polygon fill="white" stroke="black" points="303,-17 303,-47 427,-47 427,-17 303,-17"/>
<text text-anchor="start" x="311" y="-35" font-family="Helvetica,sans-Serif" font-size="10.00">openage::coord::viewport</text>
<text text-anchor="middle" x="365" y="-24" font-family="Helvetica,sans-Serif" font-size="10.00">::to_tile</text>
</a>
</g>
</g>
<!-- Node22&#45;&gt;Node23 -->
<g id="edge1" class="edge"><title>Node22&#45;&gt;Node23</title>
<path fill="none" stroke="midnightblue" d="M452.359,-32C443.932,-32 435.427,-32 427.212,-32"/>
<polygon fill="midnightblue" stroke="midnightblue" points="452.575,-35.5001 462.575,-32 452.575,-28.5001 452.575,-35.5001"/>
</g>
<!-- Node24 -->
<g id="node3" class="node"><title>Node24</title>
<g id="a_node3"><a xlink:href="classopenage_1_1_editor_mode.xhtml#a1f47d053e9c09aaf9bc6ec3a85f4a49e" target="_top" xlink:title=" ">
<polygon fill="white" stroke="black" points="155,-39 155,-69 264,-69 264,-39 155,-39"/>
<text text-anchor="start" x="163" y="-57" font-family="Helvetica,sans-Serif" font-size="10.00">openage::EditorMode</text>
<text text-anchor="middle" x="209.5" y="-46" font-family="Helvetica,sans-Serif" font-size="10.00">::paint_terrain_at</text>
</a>
</g>
</g>
<!-- Node23&#45;&gt;Node24 -->
<g id="edge2" class="edge"><title>Node23&#45;&gt;Node24</title>
<path fill="none" stroke="midnightblue" d="M292.969,-42.1804C283.381,-43.5545 273.674,-44.9458 264.45,-46.2678"/>
<polygon fill="midnightblue" stroke="midnightblue" points="293.489,-45.6416 302.892,-40.7582 292.496,-38.7124 293.489,-45.6416"/>
</g>
<!-- Node26 -->
<g id="node5" class="node"><title>Node26</title>
<g id="a_node5"><a xlink:href="classopenage_1_1_terrain.xhtml#ae8e6bd38cdaa86dcff31251de1c6deec" target="_top" xlink:title=" ">
<polygon fill="white" stroke="black" points="152,-0.5 152,-19.5 267,-19.5 267,-0.5 152,-0.5"/>
<text text-anchor="middle" x="209.5" y="-7.5" font-family="Helvetica,sans-Serif" font-size="10.00">openage::Terrain::draw</text>
</a>
</g>
</g>
<!-- Node23&#45;&gt;Node26 -->
<g id="edge4" class="edge"><title>Node23&#45;&gt;Node26</title>
<path fill="none" stroke="midnightblue" d="M292.921,-21.8128C284.369,-20.5871 275.722,-19.3478 267.409,-18.1563"/>
<polygon fill="midnightblue" stroke="midnightblue" points="292.496,-25.2876 302.892,-23.2418 293.489,-18.3584 292.496,-25.2876"/>
</g>
<!-- Node25 -->
<g id="node4" class="node"><title>Node25</title>
<g id="a_node4"><a xlink:href="classopenage_1_1_editor_mode.xhtml#a29b4d3a8c32153ccdc566f60fcdacf7f" target="_top" xlink:title=" ">
<polygon fill="white" stroke="black" points="0,-39 0,-69 116,-69 116,-39 0,-39"/>
<text text-anchor="start" x="8" y="-57" font-family="Helvetica,sans-Serif" font-size="10.00">openage::EditorMode</text>
<text text-anchor="middle" x="58" y="-46" font-family="Helvetica,sans-Serif" font-size="10.00">::on_game_control_set</text>
</a>
</g>
</g>
<!-- Node24&#45;&gt;Node25 -->
<g id="edge3" class="edge"><title>Node24&#45;&gt;Node25</title>
<path fill="none" stroke="midnightblue" d="M144.78,-54C135.293,-54 125.563,-54 116.221,-54"/>
<polygon fill="midnightblue" stroke="midnightblue" points="144.949,-57.5001 154.949,-54 144.949,-50.5001 144.949,-57.5001"/>
</g>
</g>
</svg>
