<?xml version="1.0" encoding="UTF-8" standalone="no"?>
<!DOCTYPE svg PUBLIC "-//W3C//DTD SVG 1.1//EN"
 "http://www.w3.org/Graphics/SVG/1.1/DTD/svg11.dtd">
<!-- Generated by graphviz version 2.38.0 (20140413.2041)
 -->
<!-- Title: openage::input::action_arg_t Pages: 1 -->
<svg width="418pt" height="386pt"
 viewBox="0.00 0.00 418.00 386.00" xmlns="http://www.w3.org/2000/svg" xmlns:xlink="http://www.w3.org/1999/xlink">
<g id="graph0" class="graph" transform="scale(1 1) rotate(0) translate(4 382)">
<title>openage::input::action_arg_t</title>
<polygon fill="white" stroke="none" points="-4,4 -4,-382 414,-382 414,4 -4,4"/>
<!-- Node1 -->
<g id="node1" class="node"><title>Node1</title>
<g id="a_node1"><a xlink:title=" ">
<polygon fill="#bfbfbf" stroke="black" points="142.5,-0.5 142.5,-68.5 255.5,-68.5 255.5,-0.5 142.5,-0.5"/>
<text text-anchor="start" x="150.5" y="-56.5" font-family="Helvetica,sans-Serif" font-size="10.00">openage::input::action</text>
<text text-anchor="middle" x="199" y="-45.5" font-family="Helvetica,sans-Serif" font-size="10.00">_arg_t</text>
<polyline fill="none" stroke="black" points="142.5,-38.5 255.5,-38.5 "/>
<text text-anchor="start" x="150.5" y="-26.5" font-family="Helvetica,sans-Serif" font-size="10.00">+ hints</text>
<polyline fill="none" stroke="black" points="142.5,-19.5 255.5,-19.5 "/>
<text text-anchor="middle" x="199" y="-7.5" font-family="Helvetica,sans-Serif" font-size="10.00"> </text>
</a>
</g>
</g>
<!-- Node2 -->
<g id="node2" class="node"><title>Node2</title>
<g id="a_node2"><a xlink:href="structopenage_1_1coord_1_1input.xhtml" target="_top" xlink:title=" ">
<polygon fill="white" stroke="black" points="11,-138.5 11,-217.5 121,-217.5 121,-138.5 11,-138.5"/>
<text text-anchor="middle" x="66" y="-205.5" font-family="Helvetica,sans-Serif" font-size="10.00">openage::coord::input</text>
<polyline fill="none" stroke="black" points="11,-198.5 121,-198.5 "/>
<text text-anchor="middle" x="66" y="-186.5" font-family="Helvetica,sans-Serif" font-size="10.00"> </text>
<polyline fill="none" stroke="black" points="11,-179.5 121,-179.5 "/>
<text text-anchor="start" x="19" y="-167.5" font-family="Helvetica,sans-Serif" font-size="10.00">+ to_viewport()</text>
<text text-anchor="start" x="19" y="-156.5" font-family="Helvetica,sans-Serif" font-size="10.00">+ to_camgame()</text>
<text text-anchor="start" x="19" y="-145.5" font-family="Helvetica,sans-Serif" font-size="10.00">+ to_phys3()</text>
</a>
</g>
</g>
<!-- Node2&#45;&gt;Node1 -->
<g id="edge1" class="edge"><title>Node2&#45;&gt;Node1</title>
<path fill="none" stroke="#404040" d="M102.343,-138.335C120.004,-119.544 141.266,-96.9234 159.347,-77.6877"/>
<polygon fill="none" stroke="#404040" points="159.452,-77.5758 160.646,-70.4644 167.67,-68.832 166.476,-75.9434 159.452,-77.5758"/>
<text text-anchor="middle" x="168.5" y="-90" font-family="Helvetica,sans-Serif" font-size="10.00"> +mouse</text>
</g>
<!-- Node3 -->
<g id="node3" class="node"><title>Node3</title>
<g id="a_node3"><a xlink:title=" ">
<polygon fill="white" stroke="#bfbfbf" points="0,-298.5 0,-366.5 122,-366.5 122,-298.5 0,-298.5"/>
<text text-anchor="start" x="8" y="-354.5" font-family="Helvetica,sans-Serif" font-size="10.00">CoordXYAbsolute&lt; pixel</text>
<text text-anchor="middle" x="61" y="-343.5" font-family="Helvetica,sans-Serif" font-size="10.00">_t, input, input_delta &gt;</text>
<polyline fill="none" stroke="#bfbfbf" points="0,-336.5 122,-336.5 "/>
<text text-anchor="middle" x="61" y="-324.5" font-family="Helvetica,sans-Serif" font-size="10.00"> </text>
<polyline fill="none" stroke="#bfbfbf" points="0,-317.5 122,-317.5 "/>
<text text-anchor="middle" x="61" y="-305.5" font-family="Helvetica,sans-Serif" font-size="10.00"> </text>
</a>
</g>
</g>
<!-- Node3&#45;&gt;Node2 -->
<g id="edge2" class="edge"><title>Node3&#45;&gt;Node2</title>
<path fill="none" stroke="midnightblue" d="M62.4182,-288.246C63.1463,-266.036 64.0262,-239.2 64.7317,-217.684"/>
<polygon fill="none" stroke="midnightblue" points="58.9146,-288.3 62.0849,-298.41 65.9108,-288.53 58.9146,-288.3"/>
</g>
<!-- Node4 -->
<g id="node4" class="node"><title>Node4</title>
<g id="a_node4"><a xlink:href="structopenage_1_1coord_1_1input__delta.xhtml" target="_top" xlink:title=" ">
<polygon fill="white" stroke="black" points="144,-133 144,-223 254,-223 254,-133 144,-133"/>
<text text-anchor="start" x="152" y="-211" font-family="Helvetica,sans-Serif" font-size="10.00">openage::coord::input</text>
<text text-anchor="middle" x="199" y="-200" font-family="Helvetica,sans-Serif" font-size="10.00">_delta</text>
<polyline fill="none" stroke="black" points="144,-193 254,-193 "/>
<text text-anchor="middle" x="199" y="-181" font-family="Helvetica,sans-Serif" font-size="10.00"> </text>
<polyline fill="none" stroke="black" points="144,-174 254,-174 "/>
<text text-anchor="start" x="152" y="-162" font-family="Helvetica,sans-Serif" font-size="10.00">+ to_viewport()</text>
<text text-anchor="start" x="152" y="-151" font-family="Helvetica,sans-Serif" font-size="10.00">+ to_camgame()</text>
<text text-anchor="start" x="152" y="-140" font-family="Helvetica,sans-Serif" font-size="10.00">+ to_phys3()</text>
</a>
</g>
</g>
<!-- Node4&#45;&gt;Node1 -->
<g id="edge3" class="edge"><title>Node4&#45;&gt;Node1</title>
<path fill="none" stroke="#404040" d="M199,-132.617C199,-116.212 199,-97.5999 199,-81.0897"/>
<polygon fill="none" stroke="#404040" points="199,-80.9453 195,-74.9453 199,-68.9453 203,-74.9453 199,-80.9453"/>
<text text-anchor="middle" x="218.5" y="-90" font-family="Helvetica,sans-Serif" font-size="10.00"> +motion</text>
</g>
<!-- Node5 -->
<g id="node5" class="node"><title>Node5</title>
<g id="a_node5"><a xlink:title=" ">
<polygon fill="white" stroke="#bfbfbf" points="140.5,-298.5 140.5,-366.5 257.5,-366.5 257.5,-298.5 140.5,-298.5"/>
<text text-anchor="start" x="148.5" y="-354.5" font-family="Helvetica,sans-Serif" font-size="10.00">CoordXYRelative&lt; pixel</text>
<text text-anchor="middle" x="199" y="-343.5" font-family="Helvetica,sans-Serif" font-size="10.00">_t, input, input_delta &gt;</text>
<polyline fill="none" stroke="#bfbfbf" points="140.5,-336.5 257.5,-336.5 "/>
<text text-anchor="middle" x="199" y="-324.5" font-family="Helvetica,sans-Serif" font-size="10.00"> </text>
<polyline fill="none" stroke="#bfbfbf" points="140.5,-317.5 257.5,-317.5 "/>
<text text-anchor="middle" x="199" y="-305.5" font-family="Helvetica,sans-Serif" font-size="10.00"> </text>
</a>
</g>
</g>
<!-- Node5&#45;&gt;Node4 -->
<g id="edge4" class="edge"><title>Node5&#45;&gt;Node4</title>
<path fill="none" stroke="midnightblue" d="M199,-288.144C199,-267.76 199,-243.495 199,-223.026"/>
<polygon fill="none" stroke="midnightblue" points="195.5,-288.41 199,-298.41 202.5,-288.41 195.5,-288.41"/>
</g>
<!-- Node6 -->
<g id="node6" class="node"><title>Node6</title>
<g id="a_node6"><a xlink:href="classopenage_1_1input_1_1_event.xhtml" target="_top" xlink:title=" ">
<polygon fill="white" stroke="black" points="280,-116.5 280,-239.5 390,-239.5 390,-116.5 280,-116.5"/>
<text text-anchor="middle" x="335" y="-227.5" font-family="Helvetica,sans-Serif" font-size="10.00">openage::input::Event</text>
<polyline fill="none" stroke="black" points="280,-220.5 390,-220.5 "/>
<text text-anchor="start" x="288" y="-208.5" font-family="Helvetica,sans-Serif" font-size="10.00">+ mod</text>
<text text-anchor="start" x="288" y="-197.5" font-family="Helvetica,sans-Serif" font-size="10.00">+ utf8</text>
<polyline fill="none" stroke="black" points="280,-190.5 390,-190.5 "/>
<text text-anchor="start" x="288" y="-178.5" font-family="Helvetica,sans-Serif" font-size="10.00">+ Event()</text>
<text text-anchor="start" x="288" y="-167.5" font-family="Helvetica,sans-Serif" font-size="10.00">+ Event()</text>
<text text-anchor="start" x="288" y="-156.5" font-family="Helvetica,sans-Serif" font-size="10.00">+ as_char()</text>
<text text-anchor="start" x="288" y="-145.5" font-family="Helvetica,sans-Serif" font-size="10.00">+ as_utf8()</text>
<text text-anchor="start" x="288" y="-134.5" font-family="Helvetica,sans-Serif" font-size="10.00">+ info()</text>
<text text-anchor="start" x="288" y="-123.5" font-family="Helvetica,sans-Serif" font-size="10.00">+ operator==()</text>
</a>
</g>
</g>
<!-- Node6&#45;&gt;Node1 -->
<g id="edge5" class="edge"><title>Node6&#45;&gt;Node1</title>
<path fill="none" stroke="#404040" d="M279.684,-119.447C266.18,-105.397 251.984,-90.627 239.33,-77.461"/>
<polygon fill="none" stroke="#404040" points="239.159,-77.2826 232.117,-75.7285 230.843,-68.6308 237.885,-70.1848 239.159,-77.2826"/>
<text text-anchor="middle" x="266.5" y="-90" font-family="Helvetica,sans-Serif" font-size="10.00"> +e</text>
</g>
<!-- Node7 -->
<g id="node7" class="node"><title>Node7</title>
<g id="a_node7"><a xlink:href="classopenage_1_1input_1_1_class_code.xhtml" target="_top" xlink:title=" ">
<polygon fill="white" stroke="black" points="276,-287.5 276,-377.5 410,-377.5 410,-287.5 276,-287.5"/>
<text text-anchor="middle" x="343" y="-365.5" font-family="Helvetica,sans-Serif" font-size="10.00">openage::input::ClassCode</text>
<polyline fill="none" stroke="black" points="276,-358.5 410,-358.5 "/>
<text text-anchor="start" x="284" y="-346.5" font-family="Helvetica,sans-Serif" font-size="10.00">+ eclass</text>
<text text-anchor="start" x="284" y="-335.5" font-family="Helvetica,sans-Serif" font-size="10.00">+ code</text>
<polyline fill="none" stroke="black" points="276,-328.5 410,-328.5 "/>
<text text-anchor="start" x="284" y="-316.5" font-family="Helvetica,sans-Serif" font-size="10.00">+ ClassCode()</text>
<text text-anchor="start" x="284" y="-305.5" font-family="Helvetica,sans-Serif" font-size="10.00">+ get_classes()</text>
<text text-anchor="start" x="284" y="-294.5" font-family="Helvetica,sans-Serif" font-size="10.00">+ has_class()</text>
</a>
</g>
</g>
<!-- Node7&#45;&gt;Node6 -->
<g id="edge6" class="edge"><title>Node7&#45;&gt;Node6</title>
<path fill="none" stroke="#404040" d="M340.686,-287.391C340.101,-276.241 339.457,-263.969 338.82,-251.813"/>
<polygon fill="none" stroke="#404040" points="338.815,-251.726 334.506,-245.944 338.187,-239.743 342.495,-245.525 338.815,-251.726"/>
<text text-anchor="middle" x="350" y="-261" font-family="Helvetica,sans-Serif" font-size="10.00"> +cc</text>
</g>
</g>
</svg>
