<?xml version="1.0" encoding="UTF-8" standalone="no"?>
<!DOCTYPE svg PUBLIC "-//W3C//DTD SVG 1.1//EN"
 "http://www.w3.org/Graphics/SVG/1.1/DTD/svg11.dtd">
<!-- Generated by graphviz version 2.38.0 (20140413.2041)
 -->
<!-- Title: openage::coord::viewport_delta::to_phys3 Pages: 1 -->
<svg width="612pt" height="107pt"
 viewBox="0.00 0.00 612.00 106.50" xmlns="http://www.w3.org/2000/svg" xmlns:xlink="http://www.w3.org/1999/xlink">
<g id="graph0" class="graph" transform="scale(1 1) rotate(0) translate(4 102.5)">
<title>openage::coord::viewport_delta::to_phys3</title>
<polygon fill="white" stroke="none" points="-4,4 -4,-102.5 608,-102.5 608,4 -4,4"/>
<!-- Node7 -->
<g id="node1" class="node"><title>Node7</title>
<g id="a_node1"><a xlink:title=" ">
<polygon fill="#bfbfbf" stroke="black" points="0,-43 0,-73 124,-73 124,-43 0,-43"/>
<text text-anchor="start" x="8" y="-61" font-family="Helvetica,sans-Serif" font-size="10.00">openage::coord::viewport</text>
<text text-anchor="middle" x="62" y="-50" font-family="Helvetica,sans-Serif" font-size="10.00">_delta::to_phys3</text>
</a>
</g>
</g>
<!-- Node8 -->
<g id="node2" class="node"><title>Node8</title>
<g id="a_node2"><a xlink:href="structopenage_1_1coord_1_1viewport__delta.xhtml#a0b6723ea20118b76cc7a4b66e5abdf4d" target="_top" xlink:title=" ">
<polygon fill="white" stroke="black" points="164,-68 164,-98 288,-98 288,-68 164,-68"/>
<text text-anchor="start" x="172" y="-86" font-family="Helvetica,sans-Serif" font-size="10.00">openage::coord::viewport</text>
<text text-anchor="middle" x="226" y="-75" font-family="Helvetica,sans-Serif" font-size="10.00">_delta::to_camgame</text>
</a>
</g>
</g>
<!-- Node7&#45;&gt;Node8 -->
<g id="edge1" class="edge"><title>Node7&#45;&gt;Node8</title>
<path fill="none" stroke="midnightblue" d="M124.245,-67.4514C133.888,-68.9395 143.928,-70.4889 153.773,-72.0082"/>
<polygon fill="midnightblue" stroke="midnightblue" points="153.52,-75.5105 163.937,-73.5767 154.588,-68.5924 153.52,-75.5105"/>
</g>
<!-- Node9 -->
<g id="node3" class="node"><title>Node9</title>
<g id="a_node3"><a xlink:href="structopenage_1_1coord_1_1camgame__delta.xhtml#a7e761e4e14092c27b01fbc0ee0a39330" target="_top" xlink:title=" ">
<polygon fill="white" stroke="black" points="160,-19 160,-49 292,-49 292,-19 160,-19"/>
<text text-anchor="start" x="168" y="-37" font-family="Helvetica,sans-Serif" font-size="10.00">openage::coord::camgame</text>
<text text-anchor="middle" x="226" y="-26" font-family="Helvetica,sans-Serif" font-size="10.00">_delta::to_phys3</text>
</a>
</g>
</g>
<!-- Node7&#45;&gt;Node9 -->
<g id="edge2" class="edge"><title>Node7&#45;&gt;Node9</title>
<path fill="none" stroke="midnightblue" d="M124.245,-48.9266C132.617,-47.6863 141.289,-46.4016 149.873,-45.13"/>
<polygon fill="midnightblue" stroke="midnightblue" points="150.506,-48.5744 159.885,-43.6466 149.48,-41.65 150.506,-48.5744"/>
</g>
<!-- Node10 -->
<g id="node4" class="node"><title>Node10</title>
<g id="a_node4"><a xlink:href="classopenage_1_1util_1_1_fixed_point.xhtml#a703b41f0cb3fb93f1b5dcd20e6c968b4" target="_top" xlink:title=" ">
<polygon fill="white" stroke="black" points="338,-38.5 338,-79.5 463,-79.5 463,-38.5 338,-38.5"/>
<text text-anchor="start" x="346" y="-67.5" font-family="Helvetica,sans-Serif" font-size="10.00">openage::util::FixedPoint</text>
<text text-anchor="start" x="346" y="-56.5" font-family="Helvetica,sans-Serif" font-size="10.00">&lt; int64_t, phys_t_radix</text>
<text text-anchor="middle" x="400.5" y="-45.5" font-family="Helvetica,sans-Serif" font-size="10.00">_pos &gt;::from_int</text>
</a>
</g>
</g>
<!-- Node9&#45;&gt;Node10 -->
<g id="edge3" class="edge"><title>Node9&#45;&gt;Node10</title>
<path fill="none" stroke="midnightblue" d="M292.215,-43.4514C303.8,-45.1305 315.925,-46.8877 327.681,-48.5915"/>
<polygon fill="midnightblue" stroke="midnightblue" points="327.497,-52.1012 337.895,-50.0718 328.501,-45.1736 327.497,-52.1012"/>
</g>
<!-- Node11 -->
<g id="node5" class="node"><title>Node11</title>
<g id="a_node5"><a xlink:href="namespaceopenage_1_1testing_1_1testing.xhtml#ac25bf81db406af62d08113ef7ae9fd6e" target="_top" xlink:title=" ">
<polygon fill="white" stroke="black" points="328,-0.5 328,-19.5 473,-19.5 473,-0.5 328,-0.5"/>
<text text-anchor="middle" x="400.5" y="-7.5" font-family="Helvetica,sans-Serif" font-size="10.00">openage.testing.testing.result</text>
</a>
</g>
</g>
<!-- Node9&#45;&gt;Node11 -->
<g id="edge4" class="edge"><title>Node9&#45;&gt;Node11</title>
<path fill="none" stroke="midnightblue" d="M292.215,-24.9266C301.633,-23.6163 311.407,-22.2564 321.05,-20.9148"/>
<polygon fill="midnightblue" stroke="midnightblue" points="321.609,-24.3708 331.031,-19.5261 320.644,-17.4376 321.609,-24.3708"/>
</g>
<!-- Node12 -->
<g id="node6" class="node"><title>Node12</title>
<g id="a_node6"><a xlink:href="namespaceopenage_1_1util.xhtml#a7bc4421a5f0f57f3a0aba3f96eb8d19c" target="_top" xlink:title=" ">
<polygon fill="white" stroke="black" points="509,-0.5 509,-19.5 604,-19.5 604,-0.5 509,-0.5"/>
<text text-anchor="middle" x="556.5" y="-7.5" font-family="Helvetica,sans-Serif" font-size="10.00">openage::util::repr</text>
</a>
</g>
</g>
<!-- Node11&#45;&gt;Node12 -->
<g id="edge5" class="edge"><title>Node11&#45;&gt;Node12</title>
<path fill="none" stroke="midnightblue" d="M473.09,-3.26483C481.595,-3.21813 490.189,-3.28172 498.453,-3.4556"/>
<polygon fill="midnightblue" stroke="midnightblue" points="498.622,-6.9614 508.713,-3.73483 498.812,0.0360109 498.622,-6.9614"/>
</g>
<!-- Node12&#45;&gt;Node11 -->
<g id="edge6" class="edge"><title>Node12&#45;&gt;Node11</title>
<path fill="none" stroke="midnightblue" d="M508.713,-16.2652C500.626,-16.5381 492.01,-16.6958 483.312,-16.7383"/>
<polygon fill="midnightblue" stroke="midnightblue" points="483.091,-13.2383 473.09,-16.7352 483.089,-20.2383 483.091,-13.2383"/>
</g>
</g>
</svg>
