<?xml version="1.0" encoding="UTF-8" standalone="no"?>
<!DOCTYPE svg PUBLIC "-//W3C//DTD SVG 1.1//EN"
 "http://www.w3.org/Graphics/SVG/1.1/DTD/svg11.dtd">
<!-- Generated by graphviz version 2.38.0 (20140413.2041)
 -->
<!-- Title: std::hash&lt; openage::renderer::font_description &gt;::operator() Pages: 1 -->
<svg width="728pt" height="97pt"
 viewBox="0.00 0.00 728.00 96.50" xmlns="http://www.w3.org/2000/svg" xmlns:xlink="http://www.w3.org/1999/xlink">
<g id="graph0" class="graph" transform="scale(1 1) rotate(0) translate(4 92.5)">
<title>std::hash&lt; openage::renderer::font_description &gt;::operator()</title>
<polygon fill="white" stroke="none" points="-4,4 -4,-92.5 724,-92.5 724,4 -4,4"/>
<!-- Node0 -->
<g id="node1" class="node"><title>Node0</title>
<g id="a_node1"><a xlink:title=" ">
<polygon fill="#bfbfbf" stroke="black" points="0,-17 0,-58 132,-58 132,-17 0,-17"/>
<text text-anchor="start" x="8" y="-46" font-family="Helvetica,sans-Serif" font-size="10.00">std::hash&lt; openage</text>
<text text-anchor="start" x="8" y="-35" font-family="Helvetica,sans-Serif" font-size="10.00">::renderer::font_description</text>
<text text-anchor="middle" x="66" y="-24" font-family="Helvetica,sans-Serif" font-size="10.00"> &gt;::operator()</text>
</a>
</g>
</g>
<!-- Node1 -->
<g id="node2" class="node"><title>Node1</title>
<g id="a_node2"><a xlink:href="namespaceopenage_1_1util.xhtml#a3cb605abe74b26763ac7340c3785656a" target="_top" xlink:title="Siphash implementation.">
<polygon fill="white" stroke="black" points="168,-50 168,-69 267,-69 267,-50 168,-50"/>
<text text-anchor="middle" x="217.5" y="-57" font-family="Helvetica,sans-Serif" font-size="10.00">openage::util::hash</text>
</a>
</g>
</g>
<!-- Node0&#45;&gt;Node1 -->
<g id="edge1" class="edge"><title>Node0&#45;&gt;Node1</title>
<path fill="none" stroke="midnightblue" d="M132.138,-47.0855C140.641,-48.3368 149.313,-49.6129 157.703,-50.8476"/>
<polygon fill="midnightblue" stroke="midnightblue" points="157.365,-54.3355 167.768,-52.3287 158.384,-47.41 157.365,-54.3355"/>
</g>
<!-- Node6 -->
<g id="node7" class="node"><title>Node6</title>
<g id="a_node7"><a xlink:href="namespaceopenage_1_1util.xhtml#a5cfc0e84830b5945b5731d2148eea3b4" target="_top" xlink:title="Creates a hash value as a combination of two other hashes.">
<polygon fill="white" stroke="black" points="168,-0.5 168,-30.5 267,-30.5 267,-0.5 168,-0.5"/>
<text text-anchor="start" x="176" y="-18.5" font-family="Helvetica,sans-Serif" font-size="10.00">openage::util::hash</text>
<text text-anchor="middle" x="217.5" y="-7.5" font-family="Helvetica,sans-Serif" font-size="10.00">_combine</text>
</a>
</g>
</g>
<!-- Node0&#45;&gt;Node6 -->
<g id="edge7" class="edge"><title>Node0&#45;&gt;Node6</title>
<path fill="none" stroke="midnightblue" d="M132.138,-27.9145C140.641,-26.6632 149.313,-25.3871 157.703,-24.1524"/>
<polygon fill="midnightblue" stroke="midnightblue" points="158.384,-27.59 167.768,-22.6713 157.365,-20.6645 158.384,-27.59"/>
</g>
<!-- Node2 -->
<g id="node3" class="node"><title>Node2</title>
<g id="a_node3"><a xlink:href="namespaceopenage_1_1util.xhtml#a69b6ecf2b5119f11c33d2b5b89cec86c" target="_top" xlink:title="Convert a C&#45;style array of uint8_t to a uint64_t.">
<polygon fill="white" stroke="black" points="303,-44.5 303,-74.5 408,-74.5 408,-44.5 303,-44.5"/>
<text text-anchor="start" x="311" y="-62.5" font-family="Helvetica,sans-Serif" font-size="10.00">openage::util::array8</text>
<text text-anchor="middle" x="355.5" y="-51.5" font-family="Helvetica,sans-Serif" font-size="10.00">_to_uint64</text>
</a>
</g>
</g>
<!-- Node1&#45;&gt;Node2 -->
<g id="edge2" class="edge"><title>Node1&#45;&gt;Node2</title>
<path fill="none" stroke="midnightblue" d="M267.215,-59.5C275.542,-59.5 284.289,-59.5 292.899,-59.5"/>
<polygon fill="midnightblue" stroke="midnightblue" points="292.909,-63.0001 302.908,-59.5 292.908,-56.0001 292.909,-63.0001"/>
</g>
<!-- Node3 -->
<g id="node4" class="node"><title>Node3</title>
<g id="a_node4"><a xlink:href="namespaceopenage_1_1log.xhtml#a325b0901ddb3f2af36f93781b7dd9744" target="_top" xlink:title="error message">
<polygon fill="white" stroke="black" points="475,-69 475,-88 558,-88 558,-69 475,-69"/>
<text text-anchor="middle" x="516.5" y="-76" font-family="Helvetica,sans-Serif" font-size="10.00">openage.log.err</text>
</a>
</g>
</g>
<!-- Node2&#45;&gt;Node3 -->
<g id="edge3" class="edge"><title>Node2&#45;&gt;Node3</title>
<path fill="none" stroke="midnightblue" d="M408.123,-65.6688C426.324,-67.8437 446.757,-70.2854 464.875,-72.4504"/>
<polygon fill="midnightblue" stroke="midnightblue" points="464.611,-75.9437 474.956,-73.6551 465.442,-68.9932 464.611,-75.9437"/>
</g>
<!-- Node4 -->
<g id="node5" class="node"><title>Node4</title>
<g id="a_node5"><a xlink:href="namespaceopenage_1_1testing_1_1testing.xhtml#ac25bf81db406af62d08113ef7ae9fd6e" target="_top" xlink:title=" ">
<polygon fill="white" stroke="black" points="444,-31 444,-50 589,-50 589,-31 444,-31"/>
<text text-anchor="middle" x="516.5" y="-38" font-family="Helvetica,sans-Serif" font-size="10.00">openage.testing.testing.result</text>
</a>
</g>
</g>
<!-- Node2&#45;&gt;Node4 -->
<g id="edge4" class="edge"><title>Node2&#45;&gt;Node4</title>
<path fill="none" stroke="midnightblue" d="M408.123,-53.3312C416.335,-52.3499 425.001,-51.3143 433.704,-50.2743"/>
<polygon fill="midnightblue" stroke="midnightblue" points="434.399,-53.7163 443.913,-49.0545 433.568,-46.7658 434.399,-53.7163"/>
</g>
<!-- Node5 -->
<g id="node6" class="node"><title>Node5</title>
<g id="a_node6"><a xlink:href="namespaceopenage_1_1util.xhtml#a7bc4421a5f0f57f3a0aba3f96eb8d19c" target="_top" xlink:title="method that behaves similar to python&#39;s &quot;repr&quot;.">
<polygon fill="white" stroke="black" points="625,-31 625,-50 720,-50 720,-31 625,-31"/>
<text text-anchor="middle" x="672.5" y="-38" font-family="Helvetica,sans-Serif" font-size="10.00">openage::util::repr</text>
</a>
</g>
</g>
<!-- Node4&#45;&gt;Node5 -->
<g id="edge5" class="edge"><title>Node4&#45;&gt;Node5</title>
<path fill="none" stroke="midnightblue" d="M589.09,-33.7648C597.595,-33.7181 606.189,-33.7817 614.453,-33.9556"/>
<polygon fill="midnightblue" stroke="midnightblue" points="614.622,-37.4614 624.713,-34.2348 614.812,-30.464 614.622,-37.4614"/>
</g>
<!-- Node5&#45;&gt;Node4 -->
<g id="edge6" class="edge"><title>Node5&#45;&gt;Node4</title>
<path fill="none" stroke="midnightblue" d="M624.713,-46.7652C616.626,-47.0381 608.01,-47.1958 599.312,-47.2383"/>
<polygon fill="midnightblue" stroke="midnightblue" points="599.091,-43.7383 589.09,-47.2352 599.089,-50.7383 599.091,-43.7383"/>
</g>
</g>
</svg>
