<?xml version="1.0" encoding="UTF-8" standalone="no"?>
<!DOCTYPE svg PUBLIC "-//W3C//DTD SVG 1.1//EN"
 "http://www.w3.org/Graphics/SVG/1.1/DTD/svg11.dtd">
<!-- Generated by graphviz version 2.38.0 (20140413.2041)
 -->
<!-- Title: C:/Users/Jameson/Documents/git&#45;projects/openage/libopenage/gamestate/team.h Pages: 1 -->
<svg width="235pt" height="218pt"
 viewBox="0.00 0.00 235.19 218.00" xmlns="http://www.w3.org/2000/svg" xmlns:xlink="http://www.w3.org/1999/xlink">
<g id="graph0" class="graph" transform="scale(1 1) rotate(0) translate(4 214)">
<title>C:/Users/Jameson/Documents/git&#45;projects/openage/libopenage/gamestate/team.h</title>
<polygon fill="white" stroke="none" points="-4,4 -4,-214 231.189,-214 231.189,4 -4,4"/>
<!-- Node0 -->
<g id="node1" class="node"><title>Node0</title>
<g id="a_node1"><a xlink:title=" ">
<polygon fill="#bfbfbf" stroke="black" points="19.1889,-168.5 19.1889,-209.5 176.189,-209.5 176.189,-168.5 19.1889,-168.5"/>
<text text-anchor="start" x="27.1889" y="-197.5" font-family="Helvetica,sans-Serif" font-size="10.00">C:/Users/Jameson/Documents</text>
<text text-anchor="start" x="27.1889" y="-186.5" font-family="Helvetica,sans-Serif" font-size="10.00">/git&#45;projects/openage/libopenage</text>
<text text-anchor="middle" x="97.6889" y="-175.5" font-family="Helvetica,sans-Serif" font-size="10.00">/gamestate/team.h</text>
</a>
</g>
</g>
<!-- Node1 -->
<g id="node2" class="node"><title>Node1</title>
<g id="a_node2"><a xlink:title=" ">
<polygon fill="white" stroke="#bfbfbf" points="26.1889,-0.5 26.1889,-19.5 67.1889,-19.5 67.1889,-0.5 26.1889,-0.5"/>
<text text-anchor="middle" x="46.6889" y="-7.5" font-family="Helvetica,sans-Serif" font-size="10.00">string</text>
</a>
</g>
</g>
<!-- Node0&#45;&gt;Node1 -->
<g id="edge1" class="edge"><title>Node0&#45;&gt;Node1</title>
<path fill="none" stroke="midnightblue" d="M46.6196,-168.472C30.9709,-159.796 15.5568,-147.87 6.68888,-132 -12.6426,-97.4051 14.6594,-51.9854 32.8018,-27.8245"/>
<polygon fill="midnightblue" stroke="midnightblue" points="35.7769,-29.7024 39.1903,-19.6724 30.2672,-25.3846 35.7769,-29.7024"/>
</g>
<!-- Node2 -->
<g id="node3" class="node"><title>Node2</title>
<g id="a_node3"><a xlink:title=" ">
<polygon fill="white" stroke="#bfbfbf" points="16.1889,-112.5 16.1889,-131.5 99.1889,-131.5 99.1889,-112.5 16.1889,-112.5"/>
<text text-anchor="middle" x="57.6889" y="-119.5" font-family="Helvetica,sans-Serif" font-size="10.00">unordered_map</text>
</a>
</g>
</g>
<!-- Node0&#45;&gt;Node2 -->
<g id="edge2" class="edge"><title>Node0&#45;&gt;Node2</title>
<path fill="none" stroke="midnightblue" d="M85.6876,-168.498C80.1445,-159.49 73.62,-148.888 68.2644,-140.185"/>
<polygon fill="midnightblue" stroke="midnightblue" points="71.2353,-138.335 63.0135,-131.652 65.2737,-142.003 71.2353,-138.335"/>
</g>
<!-- Node3 -->
<g id="node4" class="node"><title>Node3</title>
<g id="a_node4"><a xlink:title=" ">
<polygon fill="white" stroke="#bfbfbf" points="117.689,-112.5 117.689,-131.5 159.689,-131.5 159.689,-112.5 117.689,-112.5"/>
<text text-anchor="middle" x="138.689" y="-119.5" font-family="Helvetica,sans-Serif" font-size="10.00">vector</text>
</a>
</g>
</g>
<!-- Node0&#45;&gt;Node3 -->
<g id="edge3" class="edge"><title>Node0&#45;&gt;Node3</title>
<path fill="none" stroke="midnightblue" d="M109.99,-168.498C115.672,-159.49 122.359,-148.888 127.849,-140.185"/>
<polygon fill="midnightblue" stroke="midnightblue" points="130.856,-141.978 133.231,-131.652 124.936,-138.243 130.856,-141.978"/>
</g>
<!-- Node4 -->
<g id="node5" class="node"><title>Node4</title>
<g id="a_node5"><a xlink:href="score_8h.xhtml" target="_top" xlink:title=" ">
<polygon fill="white" stroke="black" points="178.189,-112.5 178.189,-131.5 227.189,-131.5 227.189,-112.5 178.189,-112.5"/>
<text text-anchor="middle" x="202.689" y="-119.5" font-family="Helvetica,sans-Serif" font-size="10.00">score.h</text>
</a>
</g>
</g>
<!-- Node0&#45;&gt;Node4 -->
<g id="edge4" class="edge"><title>Node0&#45;&gt;Node4</title>
<path fill="none" stroke="midnightblue" d="M129.192,-168.498C145.6,-158.34 165.284,-146.155 180.151,-136.952"/>
<polygon fill="midnightblue" stroke="midnightblue" points="182.051,-139.892 188.712,-131.652 178.367,-133.94 182.051,-139.892"/>
</g>
<!-- Node5 -->
<g id="node6" class="node"><title>Node5</title>
<g id="a_node6"><a xlink:title=" ">
<polygon fill="white" stroke="#bfbfbf" points="143.689,-0.5 143.689,-19.5 201.689,-19.5 201.689,-0.5 143.689,-0.5"/>
<text text-anchor="middle" x="172.689" y="-7.5" font-family="Helvetica,sans-Serif" font-size="10.00">functional</text>
</a>
</g>
</g>
<!-- Node4&#45;&gt;Node5 -->
<g id="edge5" class="edge"><title>Node4&#45;&gt;Node5</title>
<path fill="none" stroke="midnightblue" d="M200.335,-112.368C195.472,-94.5366 184.224,-53.2953 177.672,-29.2717"/>
<polygon fill="midnightblue" stroke="midnightblue" points="181.04,-28.3181 175.032,-19.5914 174.287,-30.16 181.04,-28.3181"/>
</g>
<!-- Node6 -->
<g id="node7" class="node"><title>Node6</title>
<g id="a_node7"><a xlink:href="gamestate_2resource_8h.xhtml" target="_top" xlink:title=" ">
<polygon fill="white" stroke="black" points="112.689,-56.5 112.689,-75.5 174.689,-75.5 174.689,-56.5 112.689,-56.5"/>
<text text-anchor="middle" x="143.689" y="-63.5" font-family="Helvetica,sans-Serif" font-size="10.00">resource.h</text>
</a>
</g>
</g>
<!-- Node4&#45;&gt;Node6 -->
<g id="edge6" class="edge"><title>Node4&#45;&gt;Node6</title>
<path fill="none" stroke="midnightblue" d="M193.21,-112.324C184.488,-104.341 171.345,-92.3128 160.791,-82.6529"/>
<polygon fill="midnightblue" stroke="midnightblue" points="163.081,-80.0036 153.341,-75.8339 158.354,-85.1674 163.081,-80.0036"/>
</g>
<!-- Node6&#45;&gt;Node1 -->
<g id="edge8" class="edge"><title>Node6&#45;&gt;Node1</title>
<path fill="none" stroke="midnightblue" d="M128.104,-56.324C112.69,-47.7428 88.8767,-34.486 70.9791,-24.5224"/>
<polygon fill="midnightblue" stroke="midnightblue" points="72.6747,-21.4606 62.2349,-19.6545 69.2698,-27.5767 72.6747,-21.4606"/>
</g>
<!-- Node6&#45;&gt;Node5 -->
<g id="edge7" class="edge"><title>Node6&#45;&gt;Node5</title>
<path fill="none" stroke="midnightblue" d="M148.478,-56.083C152.447,-48.6913 158.214,-37.9533 163.124,-28.8111"/>
<polygon fill="midnightblue" stroke="midnightblue" points="166.341,-30.217 167.989,-19.7511 160.174,-26.9051 166.341,-30.217"/>
</g>
</g>
</svg>
