<?xml version="1.0" encoding="UTF-8" standalone="no"?>
<!DOCTYPE svg PUBLIC "-//W3C//DTD SVG 1.1//EN"
 "http://www.w3.org/Graphics/SVG/1.1/DTD/svg11.dtd">
<!-- Generated by graphviz version 2.38.0 (20140413.2041)
 -->
<!-- Title: C:/Users/Jameson/Documents/git&#45;projects/openage/libopenage/renderer/text.h Pages: 1 -->
<svg width="690pt" height="128pt"
 viewBox="0.00 0.00 690.00 128.00" xmlns="http://www.w3.org/2000/svg" xmlns:xlink="http://www.w3.org/1999/xlink">
<g id="graph0" class="graph" transform="scale(1 1) rotate(0) translate(4 124)">
<title>C:/Users/Jameson/Documents/git&#45;projects/openage/libopenage/renderer/text.h</title>
<polygon fill="white" stroke="none" points="-4,4 -4,-124 686,-124 686,4 -4,4"/>
<!-- Node53 -->
<g id="node1" class="node"><title>Node53</title>
<g id="a_node1"><a xlink:title=" ">
<polygon fill="#bfbfbf" stroke="black" points="262,-78.5 262,-119.5 419,-119.5 419,-78.5 262,-78.5"/>
<text text-anchor="start" x="270" y="-107.5" font-family="Helvetica,sans-Serif" font-size="10.00">C:/Users/Jameson/Documents</text>
<text text-anchor="start" x="270" y="-96.5" font-family="Helvetica,sans-Serif" font-size="10.00">/git&#45;projects/openage/libopenage</text>
<text text-anchor="middle" x="340.5" y="-85.5" font-family="Helvetica,sans-Serif" font-size="10.00">/renderer/text.h</text>
</a>
</g>
</g>
<!-- Node54 -->
<g id="node2" class="node"><title>Node54</title>
<g id="a_node2"><a xlink:href="draw_8cpp.xhtml" target="_top" xlink:title=" ">
<polygon fill="white" stroke="black" points="0,-0.5 0,-41.5 157,-41.5 157,-0.5 0,-0.5"/>
<text text-anchor="start" x="8" y="-29.5" font-family="Helvetica,sans-Serif" font-size="10.00">C:/Users/Jameson/Documents</text>
<text text-anchor="start" x="8" y="-18.5" font-family="Helvetica,sans-Serif" font-size="10.00">/git&#45;projects/openage/libopenage</text>
<text text-anchor="middle" x="78.5" y="-7.5" font-family="Helvetica,sans-Serif" font-size="10.00">/console/draw.cpp</text>
</a>
</g>
</g>
<!-- Node53&#45;&gt;Node54 -->
<g id="edge1" class="edge"><title>Node53&#45;&gt;Node54</title>
<path fill="none" stroke="midnightblue" d="M263.212,-75.5805C225.925,-64.7644 181.616,-51.9115 145.743,-41.5056"/>
<polygon fill="midnightblue" stroke="midnightblue" points="262.449,-79.0036 273.028,-78.4281 264.399,-72.2807 262.449,-79.0036"/>
</g>
<!-- Node55 -->
<g id="node3" class="node"><title>Node55</title>
<g id="a_node3"><a xlink:href="engine_8cpp.xhtml" target="_top" xlink:title=" ">
<polygon fill="white" stroke="black" points="175,-0.5 175,-41.5 332,-41.5 332,-0.5 175,-0.5"/>
<text text-anchor="start" x="183" y="-29.5" font-family="Helvetica,sans-Serif" font-size="10.00">C:/Users/Jameson/Documents</text>
<text text-anchor="start" x="183" y="-18.5" font-family="Helvetica,sans-Serif" font-size="10.00">/git&#45;projects/openage/libopenage</text>
<text text-anchor="middle" x="253.5" y="-7.5" font-family="Helvetica,sans-Serif" font-size="10.00">/engine.cpp</text>
</a>
</g>
</g>
<!-- Node53&#45;&gt;Node55 -->
<g id="edge2" class="edge"><title>Node53&#45;&gt;Node55</title>
<path fill="none" stroke="midnightblue" d="M310.483,-71.7785C299.11,-61.8432 286.372,-50.7159 275.829,-41.5056"/>
<polygon fill="midnightblue" stroke="midnightblue" points="308.262,-74.4851 318.095,-78.4281 312.867,-69.2133 308.262,-74.4851"/>
</g>
<!-- Node56 -->
<g id="node4" class="node"><title>Node56</title>
<g id="a_node4"><a xlink:href="game__renderer_8cpp.xhtml" target="_top" xlink:title=" ">
<polygon fill="white" stroke="black" points="350,-0.5 350,-41.5 507,-41.5 507,-0.5 350,-0.5"/>
<text text-anchor="start" x="358" y="-29.5" font-family="Helvetica,sans-Serif" font-size="10.00">C:/Users/Jameson/Documents</text>
<text text-anchor="start" x="358" y="-18.5" font-family="Helvetica,sans-Serif" font-size="10.00">/git&#45;projects/openage/libopenage</text>
<text text-anchor="middle" x="428.5" y="-7.5" font-family="Helvetica,sans-Serif" font-size="10.00">/game_renderer.cpp</text>
</a>
</g>
</g>
<!-- Node53&#45;&gt;Node56 -->
<g id="edge3" class="edge"><title>Node53&#45;&gt;Node56</title>
<path fill="none" stroke="midnightblue" d="M370.862,-71.7785C382.366,-61.8432 395.25,-50.7159 405.915,-41.5056"/>
<polygon fill="midnightblue" stroke="midnightblue" points="368.443,-69.243 363.162,-78.4281 373.018,-74.5408 368.443,-69.243"/>
</g>
<!-- Node57 -->
<g id="node5" class="node"><title>Node57</title>
<g id="a_node5"><a xlink:href="text_8cpp.xhtml" target="_top" xlink:title=" ">
<polygon fill="white" stroke="black" points="525,-0.5 525,-41.5 682,-41.5 682,-0.5 525,-0.5"/>
<text text-anchor="start" x="533" y="-29.5" font-family="Helvetica,sans-Serif" font-size="10.00">C:/Users/Jameson/Documents</text>
<text text-anchor="start" x="533" y="-18.5" font-family="Helvetica,sans-Serif" font-size="10.00">/git&#45;projects/openage/libopenage</text>
<text text-anchor="middle" x="603.5" y="-7.5" font-family="Helvetica,sans-Serif" font-size="10.00">/renderer/text.cpp</text>
</a>
</g>
</g>
<!-- Node53&#45;&gt;Node57 -->
<g id="edge4" class="edge"><title>Node53&#45;&gt;Node57</title>
<path fill="none" stroke="midnightblue" d="M418.083,-75.5805C455.513,-64.7644 499.991,-51.9115 536,-41.5056"/>
<polygon fill="midnightblue" stroke="midnightblue" points="416.864,-72.2895 408.229,-78.4281 418.808,-79.0143 416.864,-72.2895"/>
</g>
</g>
</svg>
