<?xml version="1.0" encoding="UTF-8" standalone="no"?>
<!DOCTYPE svg PUBLIC "-//W3C//DTD SVG 1.1//EN"
 "http://www.w3.org/Graphics/SVG/1.1/DTD/svg11.dtd">
<!-- Generated by graphviz version 2.38.0 (20140413.2041)
 -->
<!-- Title: C:/Users/Jameson/Documents/git&#45;projects/openage/libopenage/unit/action.h Pages: 1 -->
<!--zoomable 128 -->
<svg id="main" version="1.1" xmlns="http://www.w3.org/2000/svg" xmlns:xlink="http://www.w3.org/1999/xlink" xml:space="preserve" onload="init(evt)">
<style type="text/css"><![CDATA[
.edge:hover path { stroke: red; }
.edge:hover polygon { stroke: red; fill: red; }
]]></style>
<script type="text/javascript"><![CDATA[
var edges = document.getElementsByTagName('g');
if (edges && edges.length) {
  for (var i=0;i<edges.length;i++) {
    if (edges[i].id.substr(0,4)=='edge') {
      edges[i].setAttribute('class','edge');
    }
  }
}
]]></script>
        <defs>
                <circle id="rim" cx="0" cy="0" r="7"/>
                <circle id="rim2" cx="0" cy="0" r="3.5"/>
                <g id="zoomPlus">
                        <use xlink:href="#rim" fill="#404040">
                                <set attributeName="fill" to="#808080" begin="zoomplus.mouseover" end="zoomplus.mouseout"/>
                        </use>
                        <path d="M-4,0h8M0,-4v8" fill="none" stroke="white" stroke-width="1.5" pointer-events="none"/>
                </g>
                <g id="zoomMin">
                        <use xlink:href="#rim" fill="#404040">
                                <set attributeName="fill" to="#808080" begin="zoomminus.mouseover" end="zoomminus.mouseout"/>
                        </use>
                        <path d="M-4,0h8" fill="none" stroke="white" stroke-width="1.5" pointer-events="none"/>
                </g>
                <g id="dirArrow">
                        <path fill="none" stroke="white" stroke-width="1.5" d="M0,-3.0v7 M-2.5,-0.5L0,-3.0L2.5,-0.5"/>
                </g>
               <g id="resetDef">
                       <use xlink:href="#rim2" fill="#404040">
                               <set attributeName="fill" to="#808080" begin="reset.mouseover" end="reset.mouseout"/>
                       </use>
               </g>
        </defs>

<script type="text/javascript">
var viewWidth = 1215;
var viewHeight = 128;
var sectionId = 'dynsection-1';
</script>
<script xlink:href="svgpan.js"/>
<svg id="graph" class="graph">
<g id="viewport">
<title>C:/Users/Jameson/Documents/git&#45;projects/openage/libopenage/unit/action.h</title>
<polygon fill="white" stroke="none" points="-4,4 -4,-124 1211,-124 1211,4 -4,4"/>
<!-- Node68 -->
<g id="node1" class="node"><title>Node68</title>
<g id="a_node1"><a xlink:title=" ">
<polygon fill="#bfbfbf" stroke="black" points="525,-78.5 525,-119.5 682,-119.5 682,-78.5 525,-78.5"/>
<text text-anchor="start" x="533" y="-107.5" font-family="Helvetica,sans-Serif" font-size="10.00">C:/Users/Jameson/Documents</text>
<text text-anchor="start" x="533" y="-96.5" font-family="Helvetica,sans-Serif" font-size="10.00">/git&#45;projects/openage/libopenage</text>
<text text-anchor="middle" x="603.5" y="-85.5" font-family="Helvetica,sans-Serif" font-size="10.00">/unit/action.h</text>
</a>
</g>
</g>
<!-- Node69 -->
<g id="node2" class="node"><title>Node69</title>
<g id="a_node2"><a xlink:href="game__renderer_8cpp.xhtml" target="_top" xlink:title=" ">
<polygon fill="white" stroke="black" points="0,-0.5 0,-41.5 157,-41.5 157,-0.5 0,-0.5"/>
<text text-anchor="start" x="8" y="-29.5" font-family="Helvetica,sans-Serif" font-size="10.00">C:/Users/Jameson/Documents</text>
<text text-anchor="start" x="8" y="-18.5" font-family="Helvetica,sans-Serif" font-size="10.00">/git&#45;projects/openage/libopenage</text>
<text text-anchor="middle" x="78.5" y="-7.5" font-family="Helvetica,sans-Serif" font-size="10.00">/game_renderer.cpp</text>
</a>
</g>
</g>
<!-- Node68&#45;&gt;Node69 -->
<g id="edge1" class="edge"><title>Node68&#45;&gt;Node69</title>
<path fill="none" stroke="midnightblue" d="M514.786,-89.2575C426.027,-79.9008 285.766,-63.4578 165.5,-42 162.754,-41.51 159.963,-40.99 157.149,-40.4467"/>
<polygon fill="midnightblue" stroke="midnightblue" points="514.504,-92.7471 524.815,-90.3076 515.234,-85.7852 514.504,-92.7471"/>
</g>
<!-- Node70 -->
<g id="node3" class="node"><title>Node70</title>
<g id="a_node3"><a xlink:href="ability_8cpp.xhtml" target="_top" xlink:title=" ">
<polygon fill="white" stroke="black" points="175,-0.5 175,-41.5 332,-41.5 332,-0.5 175,-0.5"/>
<text text-anchor="start" x="183" y="-29.5" font-family="Helvetica,sans-Serif" font-size="10.00">C:/Users/Jameson/Documents</text>
<text text-anchor="start" x="183" y="-18.5" font-family="Helvetica,sans-Serif" font-size="10.00">/git&#45;projects/openage/libopenage</text>
<text text-anchor="middle" x="253.5" y="-7.5" font-family="Helvetica,sans-Serif" font-size="10.00">/unit/ability.cpp</text>
</a>
</g>
</g>
<!-- Node68&#45;&gt;Node70 -->
<g id="edge2" class="edge"><title>Node68&#45;&gt;Node70</title>
<path fill="none" stroke="midnightblue" d="M514.874,-79.5016C463.838,-68.7558 398.507,-54.8423 340.5,-42 337.776,-41.397 335.005,-40.7799 332.208,-40.1537"/>
<polygon fill="midnightblue" stroke="midnightblue" points="514.378,-82.9738 524.885,-81.6073 515.819,-76.1237 514.378,-82.9738"/>
</g>
<!-- Node71 -->
<g id="node4" class="node"><title>Node71</title>
<g id="a_node4"><a xlink:href="unit_2action_8cpp.xhtml" target="_top" xlink:title=" ">
<polygon fill="white" stroke="black" points="350,-0.5 350,-41.5 507,-41.5 507,-0.5 350,-0.5"/>
<text text-anchor="start" x="358" y="-29.5" font-family="Helvetica,sans-Serif" font-size="10.00">C:/Users/Jameson/Documents</text>
<text text-anchor="start" x="358" y="-18.5" font-family="Helvetica,sans-Serif" font-size="10.00">/git&#45;projects/openage/libopenage</text>
<text text-anchor="middle" x="428.5" y="-7.5" font-family="Helvetica,sans-Serif" font-size="10.00">/unit/action.cpp</text>
</a>
</g>
</g>
<!-- Node68&#45;&gt;Node71 -->
<g id="edge3" class="edge"><title>Node68&#45;&gt;Node71</title>
<path fill="none" stroke="midnightblue" d="M548.995,-74.3291C524.712,-63.7835 496.457,-51.5129 473.414,-41.5056"/>
<polygon fill="midnightblue" stroke="midnightblue" points="547.867,-77.655 558.433,-78.4281 550.655,-71.2343 547.867,-77.655"/>
</g>
<!-- Node72 -->
<g id="node5" class="node"><title>Node72</title>
<g id="a_node5"><a xlink:href="producer_8cpp.xhtml" target="_top" xlink:title=" ">
<polygon fill="white" stroke="black" points="525,-0.5 525,-41.5 682,-41.5 682,-0.5 525,-0.5"/>
<text text-anchor="start" x="533" y="-29.5" font-family="Helvetica,sans-Serif" font-size="10.00">C:/Users/Jameson/Documents</text>
<text text-anchor="start" x="533" y="-18.5" font-family="Helvetica,sans-Serif" font-size="10.00">/git&#45;projects/openage/libopenage</text>
<text text-anchor="middle" x="603.5" y="-7.5" font-family="Helvetica,sans-Serif" font-size="10.00">/unit/producer.cpp</text>
</a>
</g>
</g>
<!-- Node68&#45;&gt;Node72 -->
<g id="edge4" class="edge"><title>Node68&#45;&gt;Node72</title>
<path fill="none" stroke="midnightblue" d="M603.5,-68.2965C603.5,-59.3009 603.5,-49.6532 603.5,-41.5056"/>
<polygon fill="midnightblue" stroke="midnightblue" points="600,-68.4281 603.5,-78.4281 607,-68.4281 600,-68.4281"/>
</g>
<!-- Node73 -->
<g id="node6" class="node"><title>Node73</title>
<g id="a_node6"><a xlink:href="selection_8cpp.xhtml" target="_top" xlink:title=" ">
<polygon fill="white" stroke="black" points="700,-0.5 700,-41.5 857,-41.5 857,-0.5 700,-0.5"/>
<text text-anchor="start" x="708" y="-29.5" font-family="Helvetica,sans-Serif" font-size="10.00">C:/Users/Jameson/Documents</text>
<text text-anchor="start" x="708" y="-18.5" font-family="Helvetica,sans-Serif" font-size="10.00">/git&#45;projects/openage/libopenage</text>
<text text-anchor="middle" x="778.5" y="-7.5" font-family="Helvetica,sans-Serif" font-size="10.00">/unit/selection.cpp</text>
</a>
</g>
</g>
<!-- Node68&#45;&gt;Node73 -->
<g id="edge5" class="edge"><title>Node68&#45;&gt;Node73</title>
<path fill="none" stroke="midnightblue" d="M658.005,-74.3291C682.288,-63.7835 710.543,-51.5129 733.586,-41.5056"/>
<polygon fill="midnightblue" stroke="midnightblue" points="656.345,-71.2343 648.567,-78.4281 659.133,-77.655 656.345,-71.2343"/>
</g>
<!-- Node74 -->
<g id="node7" class="node"><title>Node74</title>
<g id="a_node7"><a xlink:href="unit_8cpp.xhtml" target="_top" xlink:title=" ">
<polygon fill="white" stroke="black" points="875,-0.5 875,-41.5 1032,-41.5 1032,-0.5 875,-0.5"/>
<text text-anchor="start" x="883" y="-29.5" font-family="Helvetica,sans-Serif" font-size="10.00">C:/Users/Jameson/Documents</text>
<text text-anchor="start" x="883" y="-18.5" font-family="Helvetica,sans-Serif" font-size="10.00">/git&#45;projects/openage/libopenage</text>
<text text-anchor="middle" x="953.5" y="-7.5" font-family="Helvetica,sans-Serif" font-size="10.00">/unit/unit.cpp</text>
</a>
</g>
</g>
<!-- Node68&#45;&gt;Node74 -->
<g id="edge6" class="edge"><title>Node68&#45;&gt;Node74</title>
<path fill="none" stroke="midnightblue" d="M692.126,-79.5016C743.162,-68.7558 808.493,-54.8423 866.5,-42 869.224,-41.397 871.995,-40.7799 874.792,-40.1537"/>
<polygon fill="midnightblue" stroke="midnightblue" points="691.181,-76.1237 682.115,-81.6073 692.622,-82.9738 691.181,-76.1237"/>
</g>
<!-- Node75 -->
<g id="node8" class="node"><title>Node75</title>
<g id="a_node8"><a xlink:href="unit__type_8cpp.xhtml" target="_top" xlink:title=" ">
<polygon fill="white" stroke="black" points="1050,-0.5 1050,-41.5 1207,-41.5 1207,-0.5 1050,-0.5"/>
<text text-anchor="start" x="1058" y="-29.5" font-family="Helvetica,sans-Serif" font-size="10.00">C:/Users/Jameson/Documents</text>
<text text-anchor="start" x="1058" y="-18.5" font-family="Helvetica,sans-Serif" font-size="10.00">/git&#45;projects/openage/libopenage</text>
<text text-anchor="middle" x="1128.5" y="-7.5" font-family="Helvetica,sans-Serif" font-size="10.00">/unit/unit_type.cpp</text>
</a>
</g>
</g>
<!-- Node68&#45;&gt;Node75 -->
<g id="edge7" class="edge"><title>Node68&#45;&gt;Node75</title>
<path fill="none" stroke="midnightblue" d="M692.214,-89.2575C780.973,-79.9008 921.234,-63.4578 1041.5,-42 1044.25,-41.51 1047.04,-40.99 1049.85,-40.4467"/>
<polygon fill="midnightblue" stroke="midnightblue" points="691.766,-85.7852 682.185,-90.3076 692.496,-92.7471 691.766,-85.7852"/>
</g>
</g>
</svg>
        <g id="navigator" transform="translate(0 0)" fill="#404254">
                <rect fill="#f2f5e9" fill-opacity="0.5" stroke="#606060" stroke-width=".5" x="0" y="0" width="60" height="60"/>
                <use id="zoomplus" xlink:href="#zoomPlus" x="17" y="9" onmousedown="handleZoom(evt,'in')"/>
                <use id="zoomminus" xlink:href="#zoomMin" x="42" y="9" onmousedown="handleZoom(evt,'out')"/>
                <use id="reset" xlink:href="#resetDef" x="30" y="36" onmousedown="handleReset()"/>
                <g id="arrowUp" xlink:href="#dirArrow" transform="translate(30 24)" onmousedown="handlePan(0,-1)">
                  <use xlink:href="#rim" fill="#404040">
                        <set attributeName="fill" to="#808080" begin="arrowUp.mouseover" end="arrowUp.mouseout"/>
                  </use>
                  <path fill="none" stroke="white" stroke-width="1.5" d="M0,-3.0v7 M-2.5,-0.5L0,-3.0L2.5,-0.5"/>
                </g>
                <g id="arrowRight" xlink:href="#dirArrow" transform="rotate(90) translate(36 -43)" onmousedown="handlePan(1,0)">
                  <use xlink:href="#rim" fill="#404040">
                        <set attributeName="fill" to="#808080" begin="arrowRight.mouseover" end="arrowRight.mouseout"/>
                  </use>
                  <path fill="none" stroke="white" stroke-width="1.5" d="M0,-3.0v7 M-2.5,-0.5L0,-3.0L2.5,-0.5"/>
                </g>
                <g id="arrowDown" xlink:href="#dirArrow" transform="rotate(180) translate(-30 -48)" onmousedown="handlePan(0,1)">
                  <use xlink:href="#rim" fill="#404040">
                        <set attributeName="fill" to="#808080" begin="arrowDown.mouseover" end="arrowDown.mouseout"/>
                  </use>
                  <path fill="none" stroke="white" stroke-width="1.5" d="M0,-3.0v7 M-2.5,-0.5L0,-3.0L2.5,-0.5"/>
                </g>
                <g id="arrowLeft" xlink:href="#dirArrow" transform="rotate(270) translate(-36 17)" onmousedown="handlePan(-1,0)">
                  <use xlink:href="#rim" fill="#404040">
                        <set attributeName="fill" to="#808080" begin="arrowLeft.mouseover" end="arrowLeft.mouseout"/>
                  </use>
                  <path fill="none" stroke="white" stroke-width="1.5" d="M0,-3.0v7 M-2.5,-0.5L0,-3.0L2.5,-0.5"/>
                </g>
        </g>
        <svg viewBox="0 0 15 15" width="100%" height="30px" preserveAspectRatio="xMaxYMin meet">
         <g id="arrow_out" transform="scale(0.3 0.3)">
          <a xlink:href="unit_2action_8h__dep__incl_org.svg" target="_base">
           <rect id="button" ry="5" rx="5" y="6" x="6" height="38" width="38"
                fill="#f2f5e9" fill-opacity="0.5" stroke="#606060" stroke-width="1.0"/>
           <path id="arrow"
             d="M 11.500037,31.436501 C 11.940474,20.09759 22.043105,11.32322 32.158766,21.979434 L 37.068811,17.246167 C 37.068811,17.246167 37.088388,32 37.088388,32 L 22.160133,31.978069 C 22.160133,31.978069 26.997745,27.140456 26.997745,27.140456 C 18.528582,18.264221 13.291696,25.230495 11.500037,31.436501 z"
             style="fill:#404040;"/>
          </a>
         </g>
        </svg>
</svg>
