<?xml version="1.0" encoding="UTF-8" standalone="no"?>
<!DOCTYPE svg PUBLIC "-//W3C//DTD SVG 1.1//EN"
 "http://www.w3.org/Graphics/SVG/1.1/DTD/svg11.dtd">
<!-- Generated by graphviz version 2.38.0 (20140413.2041)
 -->
<!-- Title: C:/Users/Jameson/Documents/git&#45;projects/openage/libopenage/unit/unit.h Pages: 1 -->
<svg width="1855pt" height="206pt"
 viewBox="0.00 0.00 1855.00 206.00" xmlns="http://www.w3.org/2000/svg" xmlns:xlink="http://www.w3.org/1999/xlink">
<g id="graph0" class="graph" transform="scale(1 1) rotate(0) translate(4 202)">
<title>C:/Users/Jameson/Documents/git&#45;projects/openage/libopenage/unit/unit.h</title>
<polygon fill="white" stroke="none" points="-4,4 -4,-202 1851,-202 1851,4 -4,4"/>
<!-- Node64 -->
<g id="node1" class="node"><title>Node64</title>
<g id="a_node1"><a xlink:title=" ">
<polygon fill="#bfbfbf" stroke="black" points="928,-156.5 928,-197.5 1085,-197.5 1085,-156.5 928,-156.5"/>
<text text-anchor="start" x="936" y="-185.5" font-family="Helvetica,sans-Serif" font-size="10.00">C:/Users/Jameson/Documents</text>
<text text-anchor="start" x="936" y="-174.5" font-family="Helvetica,sans-Serif" font-size="10.00">/git&#45;projects/openage/libopenage</text>
<text text-anchor="middle" x="1006.5" y="-163.5" font-family="Helvetica,sans-Serif" font-size="10.00">/unit/unit.h</text>
</a>
</g>
</g>
<!-- Node65 -->
<g id="node2" class="node"><title>Node65</title>
<g id="a_node2"><a xlink:href="unit_2action_8h.xhtml" target="_top" xlink:title=" ">
<polygon fill="white" stroke="black" points="549,-78.5 549,-119.5 706,-119.5 706,-78.5 549,-78.5"/>
<text text-anchor="start" x="557" y="-107.5" font-family="Helvetica,sans-Serif" font-size="10.00">C:/Users/Jameson/Documents</text>
<text text-anchor="start" x="557" y="-96.5" font-family="Helvetica,sans-Serif" font-size="10.00">/git&#45;projects/openage/libopenage</text>
<text text-anchor="middle" x="627.5" y="-85.5" font-family="Helvetica,sans-Serif" font-size="10.00">/unit/action.h</text>
</a>
</g>
</g>
<!-- Node64&#45;&gt;Node65 -->
<g id="edge1" class="edge"><title>Node64&#45;&gt;Node65</title>
<path fill="none" stroke="midnightblue" d="M917.878,-158.229C853.781,-145.376 767.952,-128.165 706.254,-115.792"/>
<polygon fill="midnightblue" stroke="midnightblue" points="917.478,-161.718 927.971,-160.253 918.854,-154.855 917.478,-161.718"/>
</g>
<!-- Node66 -->
<g id="node3" class="node"><title>Node66</title>
<g id="a_node3"><a xlink:href="game__renderer_8cpp.xhtml" target="_top" xlink:title=" ">
<polygon fill="white" stroke="black" points="350,-0.5 350,-41.5 507,-41.5 507,-0.5 350,-0.5"/>
<text text-anchor="start" x="358" y="-29.5" font-family="Helvetica,sans-Serif" font-size="10.00">C:/Users/Jameson/Documents</text>
<text text-anchor="start" x="358" y="-18.5" font-family="Helvetica,sans-Serif" font-size="10.00">/git&#45;projects/openage/libopenage</text>
<text text-anchor="middle" x="428.5" y="-7.5" font-family="Helvetica,sans-Serif" font-size="10.00">/game_renderer.cpp</text>
</a>
</g>
</g>
<!-- Node64&#45;&gt;Node66 -->
<g id="edge18" class="edge"><title>Node64&#45;&gt;Node66</title>
<path fill="none" stroke="midnightblue" d="M917.279,-171.614C801.081,-164.825 605.052,-149.377 539.5,-120 499.62,-102.128 463.757,-64.7763 444.162,-41.6976"/>
<polygon fill="midnightblue" stroke="midnightblue" points="917.392,-175.126 927.576,-172.205 917.794,-168.138 917.392,-175.126"/>
</g>
<!-- Node67 -->
<g id="node4" class="node"><title>Node67</title>
<g id="a_node4"><a xlink:href="ability_8cpp.xhtml" target="_top" xlink:title=" ">
<polygon fill="white" stroke="black" points="0,-0.5 0,-41.5 157,-41.5 157,-0.5 0,-0.5"/>
<text text-anchor="start" x="8" y="-29.5" font-family="Helvetica,sans-Serif" font-size="10.00">C:/Users/Jameson/Documents</text>
<text text-anchor="start" x="8" y="-18.5" font-family="Helvetica,sans-Serif" font-size="10.00">/git&#45;projects/openage/libopenage</text>
<text text-anchor="middle" x="78.5" y="-7.5" font-family="Helvetica,sans-Serif" font-size="10.00">/unit/ability.cpp</text>
</a>
</g>
</g>
<!-- Node64&#45;&gt;Node67 -->
<g id="edge23" class="edge"><title>Node64&#45;&gt;Node67</title>
<path fill="none" stroke="midnightblue" d="M917.441,-175.225C791.895,-172.569 556.321,-161.833 360.5,-120 274.333,-101.592 178.25,-64.4162 123.419,-41.5161"/>
<polygon fill="midnightblue" stroke="midnightblue" points="917.698,-178.731 927.765,-175.43 917.837,-171.732 917.698,-178.731"/>
</g>
<!-- Node69 -->
<g id="node6" class="node"><title>Node69</title>
<g id="a_node6"><a xlink:href="producer_8cpp.xhtml" target="_top" xlink:title=" ">
<polygon fill="white" stroke="black" points="525,-0.5 525,-41.5 682,-41.5 682,-0.5 525,-0.5"/>
<text text-anchor="start" x="533" y="-29.5" font-family="Helvetica,sans-Serif" font-size="10.00">C:/Users/Jameson/Documents</text>
<text text-anchor="start" x="533" y="-18.5" font-family="Helvetica,sans-Serif" font-size="10.00">/git&#45;projects/openage/libopenage</text>
<text text-anchor="middle" x="603.5" y="-7.5" font-family="Helvetica,sans-Serif" font-size="10.00">/unit/producer.cpp</text>
</a>
</g>
</g>
<!-- Node64&#45;&gt;Node69 -->
<g id="edge25" class="edge"><title>Node64&#45;&gt;Node69</title>
<path fill="none" stroke="midnightblue" d="M943.149,-152.969C915.832,-142.958 883.548,-131.021 854.5,-120 784.3,-93.367 703.464,-61.6084 652.922,-41.6199"/>
<polygon fill="midnightblue" stroke="midnightblue" points="941.998,-156.275 952.591,-156.425 944.404,-149.701 941.998,-156.275"/>
</g>
<!-- Node70 -->
<g id="node7" class="node"><title>Node70</title>
<g id="a_node7"><a xlink:href="selection_8cpp.xhtml" target="_top" xlink:title=" ">
<polygon fill="white" stroke="black" points="875,-0.5 875,-41.5 1032,-41.5 1032,-0.5 875,-0.5"/>
<text text-anchor="start" x="883" y="-29.5" font-family="Helvetica,sans-Serif" font-size="10.00">C:/Users/Jameson/Documents</text>
<text text-anchor="start" x="883" y="-18.5" font-family="Helvetica,sans-Serif" font-size="10.00">/git&#45;projects/openage/libopenage</text>
<text text-anchor="middle" x="953.5" y="-7.5" font-family="Helvetica,sans-Serif" font-size="10.00">/unit/selection.cpp</text>
</a>
</g>
</g>
<!-- Node64&#45;&gt;Node70 -->
<g id="edge26" class="edge"><title>Node64&#45;&gt;Node70</title>
<path fill="none" stroke="midnightblue" d="M918.293,-158.696C897.993,-150.405 878.781,-138.14 866.5,-120 856.035,-104.543 857.56,-94.3866 866.5,-78 875.017,-62.3891 889.957,-50.4774 905.08,-41.7384"/>
<polygon fill="midnightblue" stroke="midnightblue" points="917.083,-161.981 927.675,-162.233 919.552,-155.431 917.083,-161.981"/>
</g>
<!-- Node71 -->
<g id="node8" class="node"><title>Node71</title>
<g id="a_node8"><a xlink:href="unit_8cpp.xhtml" target="_top" xlink:title=" ">
<polygon fill="white" stroke="black" points="1050,-0.5 1050,-41.5 1207,-41.5 1207,-0.5 1050,-0.5"/>
<text text-anchor="start" x="1058" y="-29.5" font-family="Helvetica,sans-Serif" font-size="10.00">C:/Users/Jameson/Documents</text>
<text text-anchor="start" x="1058" y="-18.5" font-family="Helvetica,sans-Serif" font-size="10.00">/git&#45;projects/openage/libopenage</text>
<text text-anchor="middle" x="1128.5" y="-7.5" font-family="Helvetica,sans-Serif" font-size="10.00">/unit/unit.cpp</text>
</a>
</g>
</g>
<!-- Node64&#45;&gt;Node71 -->
<g id="edge27" class="edge"><title>Node64&#45;&gt;Node71</title>
<path fill="none" stroke="midnightblue" d="M1028.4,-148.355C1052.7,-117.679 1091.32,-68.937 1112.79,-41.8323"/>
<polygon fill="midnightblue" stroke="midnightblue" points="1025.42,-146.484 1021.95,-156.496 1030.9,-150.831 1025.42,-146.484"/>
</g>
<!-- Node72 -->
<g id="node9" class="node"><title>Node72</title>
<g id="a_node9"><a xlink:href="unit__type_8cpp.xhtml" target="_top" xlink:title=" ">
<polygon fill="white" stroke="black" points="175,-0.5 175,-41.5 332,-41.5 332,-0.5 175,-0.5"/>
<text text-anchor="start" x="183" y="-29.5" font-family="Helvetica,sans-Serif" font-size="10.00">C:/Users/Jameson/Documents</text>
<text text-anchor="start" x="183" y="-18.5" font-family="Helvetica,sans-Serif" font-size="10.00">/git&#45;projects/openage/libopenage</text>
<text text-anchor="middle" x="253.5" y="-7.5" font-family="Helvetica,sans-Serif" font-size="10.00">/unit/unit_type.cpp</text>
</a>
</g>
</g>
<!-- Node64&#45;&gt;Node72 -->
<g id="edge29" class="edge"><title>Node64&#45;&gt;Node72</title>
<path fill="none" stroke="midnightblue" d="M917.836,-174.934C811.345,-171.766 628.102,-160.275 476.5,-120 407.223,-101.596 331.923,-64.6008 288.946,-41.7013"/>
<polygon fill="midnightblue" stroke="midnightblue" points="917.804,-178.434 927.898,-175.215 918,-171.437 917.804,-178.434"/>
</g>
<!-- Node73 -->
<g id="node10" class="node"><title>Node73</title>
<g id="a_node10"><a xlink:href="producer_8h.xhtml" target="_top" xlink:title=" ">
<polygon fill="white" stroke="black" points="875,-78.5 875,-119.5 1032,-119.5 1032,-78.5 875,-78.5"/>
<text text-anchor="start" x="883" y="-107.5" font-family="Helvetica,sans-Serif" font-size="10.00">C:/Users/Jameson/Documents</text>
<text text-anchor="start" x="883" y="-96.5" font-family="Helvetica,sans-Serif" font-size="10.00">/git&#45;projects/openage/libopenage</text>
<text text-anchor="middle" x="953.5" y="-85.5" font-family="Helvetica,sans-Serif" font-size="10.00">/unit/producer.h</text>
</a>
</g>
</g>
<!-- Node64&#45;&gt;Node73 -->
<g id="edge9" class="edge"><title>Node64&#45;&gt;Node73</title>
<path fill="none" stroke="midnightblue" d="M987.007,-148.048C980.394,-138.566 973.155,-128.185 967.103,-119.506"/>
<polygon fill="midnightblue" stroke="midnightblue" points="984.26,-150.228 992.851,-156.428 990.002,-146.224 984.26,-150.228"/>
</g>
<!-- Node74 -->
<g id="node11" class="node"><title>Node74</title>
<g id="a_node11"><a xlink:href="game__save_8cpp.xhtml" target="_top" xlink:title=" ">
<polygon fill="white" stroke="black" points="1400,-0.5 1400,-41.5 1557,-41.5 1557,-0.5 1400,-0.5"/>
<text text-anchor="start" x="1408" y="-29.5" font-family="Helvetica,sans-Serif" font-size="10.00">C:/Users/Jameson/Documents</text>
<text text-anchor="start" x="1408" y="-18.5" font-family="Helvetica,sans-Serif" font-size="10.00">/git&#45;projects/openage/libopenage</text>
<text text-anchor="middle" x="1478.5" y="-7.5" font-family="Helvetica,sans-Serif" font-size="10.00">/gamestate/game_save.cpp</text>
</a>
</g>
</g>
<!-- Node64&#45;&gt;Node74 -->
<g id="edge19" class="edge"><title>Node64&#45;&gt;Node74</title>
<path fill="none" stroke="midnightblue" d="M1043.44,-150.188C1055.86,-141.051 1069.58,-130.44 1081.5,-120 1101.12,-102.811 1099.19,-89.7033 1122.5,-78 1230.3,-23.8845 1272.82,-63.5353 1391.5,-42 1394.24,-41.5019 1397.03,-40.975 1399.85,-40.4258"/>
<polygon fill="midnightblue" stroke="midnightblue" points="1041.12,-147.547 1035.09,-156.258 1045.24,-153.21 1041.12,-147.547"/>
</g>
<!-- Node76 -->
<g id="node13" class="node"><title>Node76</title>
<g id="a_node13"><a xlink:href="unit__container_8cpp.xhtml" target="_top" xlink:title=" ">
<polygon fill="white" stroke="black" points="1575,-0.5 1575,-41.5 1732,-41.5 1732,-0.5 1575,-0.5"/>
<text text-anchor="start" x="1583" y="-29.5" font-family="Helvetica,sans-Serif" font-size="10.00">C:/Users/Jameson/Documents</text>
<text text-anchor="start" x="1583" y="-18.5" font-family="Helvetica,sans-Serif" font-size="10.00">/git&#45;projects/openage/libopenage</text>
<text text-anchor="middle" x="1653.5" y="-7.5" font-family="Helvetica,sans-Serif" font-size="10.00">/unit/unit_container.cpp</text>
</a>
</g>
</g>
<!-- Node64&#45;&gt;Node76 -->
<g id="edge28" class="edge"><title>Node64&#45;&gt;Node76</title>
<path fill="none" stroke="midnightblue" d="M1061.63,-151.999C1079.54,-143.091 1099.03,-132.16 1115.5,-120 1136.49,-104.505 1132.93,-89.1705 1156.5,-78 1239.15,-38.835 1476.16,-56.2798 1566.5,-42 1569.26,-41.5645 1572.05,-41.0913 1574.87,-40.5879"/>
<polygon fill="midnightblue" stroke="midnightblue" points="1059.9,-148.95 1052.43,-156.468 1062.96,-155.246 1059.9,-148.95"/>
</g>
<!-- Node77 -->
<g id="node14" class="node"><title>Node77</title>
<g id="a_node14"><a xlink:href="generator_8cpp.xhtml" target="_top" xlink:title=" ">
<polygon fill="white" stroke="black" points="1165,-78.5 1165,-119.5 1322,-119.5 1322,-78.5 1165,-78.5"/>
<text text-anchor="start" x="1173" y="-107.5" font-family="Helvetica,sans-Serif" font-size="10.00">C:/Users/Jameson/Documents</text>
<text text-anchor="start" x="1173" y="-96.5" font-family="Helvetica,sans-Serif" font-size="10.00">/git&#45;projects/openage/libopenage</text>
<text text-anchor="middle" x="1243.5" y="-85.5" font-family="Helvetica,sans-Serif" font-size="10.00">/gamestate/generator.cpp</text>
</a>
</g>
</g>
<!-- Node64&#45;&gt;Node77 -->
<g id="edge20" class="edge"><title>Node64&#45;&gt;Node77</title>
<path fill="none" stroke="midnightblue" d="M1077.28,-153.304C1110.82,-142.546 1150.5,-129.823 1182.67,-119.506"/>
<polygon fill="midnightblue" stroke="midnightblue" points="1075.99,-150.042 1067.53,-156.428 1078.12,-156.707 1075.99,-150.042"/>
</g>
<!-- Node78 -->
<g id="node15" class="node"><title>Node78</title>
<g id="a_node15"><a xlink:href="player_8cpp.xhtml" target="_top" xlink:title=" ">
<polygon fill="white" stroke="black" points="1340,-78.5 1340,-119.5 1497,-119.5 1497,-78.5 1340,-78.5"/>
<text text-anchor="start" x="1348" y="-107.5" font-family="Helvetica,sans-Serif" font-size="10.00">C:/Users/Jameson/Documents</text>
<text text-anchor="start" x="1348" y="-96.5" font-family="Helvetica,sans-Serif" font-size="10.00">/git&#45;projects/openage/libopenage</text>
<text text-anchor="middle" x="1418.5" y="-85.5" font-family="Helvetica,sans-Serif" font-size="10.00">/gamestate/player.cpp</text>
</a>
</g>
</g>
<!-- Node64&#45;&gt;Node78 -->
<g id="edge21" class="edge"><title>Node64&#45;&gt;Node78</title>
<path fill="none" stroke="midnightblue" d="M1095.08,-162.095C1160.56,-151.486 1251.81,-136.012 1331.5,-120 1334.23,-119.45 1337.02,-118.879 1339.82,-118.292"/>
<polygon fill="midnightblue" stroke="midnightblue" points="1094.52,-158.641 1085.2,-163.69 1095.63,-165.551 1094.52,-158.641"/>
</g>
<!-- Node79 -->
<g id="node16" class="node"><title>Node79</title>
<g id="a_node16"><a xlink:href="terrain__object_8cpp.xhtml" target="_top" xlink:title=" ">
<polygon fill="white" stroke="black" points="1515,-78.5 1515,-119.5 1672,-119.5 1672,-78.5 1515,-78.5"/>
<text text-anchor="start" x="1523" y="-107.5" font-family="Helvetica,sans-Serif" font-size="10.00">C:/Users/Jameson/Documents</text>
<text text-anchor="start" x="1523" y="-96.5" font-family="Helvetica,sans-Serif" font-size="10.00">/git&#45;projects/openage/libopenage</text>
<text text-anchor="middle" x="1593.5" y="-85.5" font-family="Helvetica,sans-Serif" font-size="10.00">/terrain/terrain_object.cpp</text>
</a>
</g>
</g>
<!-- Node64&#45;&gt;Node79 -->
<g id="edge22" class="edge"><title>Node64&#45;&gt;Node79</title>
<path fill="none" stroke="midnightblue" d="M1095.36,-169.139C1195.66,-160.678 1363.52,-144.359 1506.5,-120 1509.25,-119.531 1512.04,-119.03 1514.86,-118.502"/>
<polygon fill="midnightblue" stroke="midnightblue" points="1094.94,-165.662 1085.26,-169.983 1095.52,-172.637 1094.94,-165.662"/>
</g>
<!-- Node80 -->
<g id="node17" class="node"><title>Node80</title>
<g id="a_node17"><a xlink:href="attribute_8cpp.xhtml" target="_top" xlink:title=" ">
<polygon fill="white" stroke="black" points="1690,-78.5 1690,-119.5 1847,-119.5 1847,-78.5 1690,-78.5"/>
<text text-anchor="start" x="1698" y="-107.5" font-family="Helvetica,sans-Serif" font-size="10.00">C:/Users/Jameson/Documents</text>
<text text-anchor="start" x="1698" y="-96.5" font-family="Helvetica,sans-Serif" font-size="10.00">/git&#45;projects/openage/libopenage</text>
<text text-anchor="middle" x="1768.5" y="-85.5" font-family="Helvetica,sans-Serif" font-size="10.00">/unit/attribute.cpp</text>
</a>
</g>
</g>
<!-- Node64&#45;&gt;Node80 -->
<g id="edge24" class="edge"><title>Node64&#45;&gt;Node80</title>
<path fill="none" stroke="midnightblue" d="M1095.4,-172.682C1224.95,-166.93 1472.92,-152.456 1681.5,-120 1684.26,-119.571 1687.06,-119.104 1689.88,-118.605"/>
<polygon fill="midnightblue" stroke="midnightblue" points="1094.98,-169.197 1085.14,-173.13 1095.28,-176.19 1094.98,-169.197"/>
</g>
<!-- Node65&#45;&gt;Node66 -->
<g id="edge2" class="edge"><title>Node65&#45;&gt;Node66</title>
<path fill="none" stroke="midnightblue" d="M566.617,-74.7481C538.761,-64.1096 506.125,-51.6458 479.574,-41.5056"/>
<polygon fill="midnightblue" stroke="midnightblue" points="565.662,-78.13 576.253,-78.4281 568.159,-71.5906 565.662,-78.13"/>
</g>
<!-- Node65&#45;&gt;Node67 -->
<g id="edge3" class="edge"><title>Node65&#45;&gt;Node67</title>
<path fill="none" stroke="midnightblue" d="M538.685,-90.038C445.365,-81.0181 294.503,-64.5816 165.5,-42 162.752,-41.519 159.961,-41.0067 157.145,-40.47"/>
<polygon fill="midnightblue" stroke="midnightblue" points="538.365,-93.5233 548.653,-90.9944 539.033,-86.5553 538.365,-93.5233"/>
</g>
<!-- Node68 -->
<g id="node5" class="node"><title>Node68</title>
<g id="a_node5"><a xlink:href="unit_2action_8cpp.xhtml" target="_top" xlink:title=" ">
<polygon fill="white" stroke="black" points="700,-0.5 700,-41.5 857,-41.5 857,-0.5 700,-0.5"/>
<text text-anchor="start" x="708" y="-29.5" font-family="Helvetica,sans-Serif" font-size="10.00">C:/Users/Jameson/Documents</text>
<text text-anchor="start" x="708" y="-18.5" font-family="Helvetica,sans-Serif" font-size="10.00">/git&#45;projects/openage/libopenage</text>
<text text-anchor="middle" x="778.5" y="-7.5" font-family="Helvetica,sans-Serif" font-size="10.00">/unit/action.cpp</text>
</a>
</g>
</g>
<!-- Node65&#45;&gt;Node68 -->
<g id="edge4" class="edge"><title>Node65&#45;&gt;Node68</title>
<path fill="none" stroke="midnightblue" d="M675.367,-73.9082C696.129,-63.4581 720.126,-51.3801 739.746,-41.5056"/>
<polygon fill="midnightblue" stroke="midnightblue" points="673.745,-70.8059 666.386,-78.4281 676.892,-77.0586 673.745,-70.8059"/>
</g>
<!-- Node65&#45;&gt;Node69 -->
<g id="edge5" class="edge"><title>Node65&#45;&gt;Node69</title>
<path fill="none" stroke="midnightblue" d="M618.305,-68.8823C615.412,-59.7211 612.289,-49.8303 609.66,-41.5056"/>
<polygon fill="midnightblue" stroke="midnightblue" points="614.97,-69.9463 621.319,-78.4281 621.646,-67.8383 614.97,-69.9463"/>
</g>
<!-- Node65&#45;&gt;Node70 -->
<g id="edge6" class="edge"><title>Node65&#45;&gt;Node70</title>
<path fill="none" stroke="midnightblue" d="M716.161,-77.3306C765.702,-65.7812 826.902,-51.5137 874.747,-40.3596"/>
<polygon fill="midnightblue" stroke="midnightblue" points="715.36,-73.9234 706.416,-79.6025 716.949,-80.7406 715.36,-73.9234"/>
</g>
<!-- Node65&#45;&gt;Node71 -->
<g id="edge7" class="edge"><title>Node65&#45;&gt;Node71</title>
<path fill="none" stroke="midnightblue" d="M716.072,-88.3971C800.151,-78.7204 929.906,-62.3303 1041.5,-42 1044.24,-41.5 1047.03,-40.9714 1049.85,-40.4208"/>
<polygon fill="midnightblue" stroke="midnightblue" points="715.587,-84.9297 706.049,-89.5437 716.382,-91.8843 715.587,-84.9297"/>
</g>
<!-- Node65&#45;&gt;Node72 -->
<g id="edge8" class="edge"><title>Node65&#45;&gt;Node72</title>
<path fill="none" stroke="midnightblue" d="M538.764,-81.4744C481.977,-70.7041 406.786,-56.0819 340.5,-42 337.771,-41.4203 334.996,-40.8232 332.195,-40.2141"/>
<polygon fill="midnightblue" stroke="midnightblue" points="538.311,-84.9508 548.787,-83.3718 539.613,-78.0729 538.311,-84.9508"/>
</g>
<!-- Node73&#45;&gt;Node66 -->
<g id="edge10" class="edge"><title>Node73&#45;&gt;Node66</title>
<path fill="none" stroke="midnightblue" d="M864.786,-89.2575C776.027,-79.9008 635.766,-63.4578 515.5,-42 512.754,-41.51 509.963,-40.99 507.149,-40.4467"/>
<polygon fill="midnightblue" stroke="midnightblue" points="864.504,-92.7471 874.815,-90.3076 865.234,-85.7852 864.504,-92.7471"/>
</g>
<!-- Node73&#45;&gt;Node68 -->
<g id="edge13" class="edge"><title>Node73&#45;&gt;Node68</title>
<path fill="none" stroke="midnightblue" d="M898.995,-74.3291C874.712,-63.7835 846.457,-51.5129 823.414,-41.5056"/>
<polygon fill="midnightblue" stroke="midnightblue" points="897.867,-77.655 908.433,-78.4281 900.655,-71.2343 897.867,-77.655"/>
</g>
<!-- Node73&#45;&gt;Node69 -->
<g id="edge14" class="edge"><title>Node73&#45;&gt;Node69</title>
<path fill="none" stroke="midnightblue" d="M864.874,-79.5016C813.838,-68.7558 748.507,-54.8423 690.5,-42 687.776,-41.397 685.005,-40.7799 682.208,-40.1537"/>
<polygon fill="midnightblue" stroke="midnightblue" points="864.378,-82.9738 874.885,-81.6073 865.819,-76.1237 864.378,-82.9738"/>
</g>
<!-- Node73&#45;&gt;Node70 -->
<g id="edge15" class="edge"><title>Node73&#45;&gt;Node70</title>
<path fill="none" stroke="midnightblue" d="M953.5,-68.2965C953.5,-59.3009 953.5,-49.6532 953.5,-41.5056"/>
<polygon fill="midnightblue" stroke="midnightblue" points="950,-68.4281 953.5,-78.4281 957,-68.4281 950,-68.4281"/>
</g>
<!-- Node73&#45;&gt;Node71 -->
<g id="edge16" class="edge"><title>Node73&#45;&gt;Node71</title>
<path fill="none" stroke="midnightblue" d="M1008.01,-74.3291C1032.29,-63.7835 1060.54,-51.5129 1083.59,-41.5056"/>
<polygon fill="midnightblue" stroke="midnightblue" points="1006.35,-71.2343 998.567,-78.4281 1009.13,-77.655 1006.35,-71.2343"/>
</g>
<!-- Node73&#45;&gt;Node74 -->
<g id="edge11" class="edge"><title>Node73&#45;&gt;Node74</title>
<path fill="none" stroke="midnightblue" d="M1042.26,-84.0215C1056.38,-81.9215 1070.83,-79.8442 1084.5,-78 1220.65,-59.6304 1256.13,-65.4242 1391.5,-42 1394.25,-41.5243 1397.04,-41.0167 1399.86,-40.4839"/>
<polygon fill="midnightblue" stroke="midnightblue" points="1041.43,-80.6073 1032.06,-85.5516 1042.47,-87.5299 1041.43,-80.6073"/>
</g>
<!-- Node75 -->
<g id="node12" class="node"><title>Node75</title>
<g id="a_node12"><a xlink:href="game__spec_8cpp.xhtml" target="_top" xlink:title=" ">
<polygon fill="white" stroke="black" points="1225,-0.5 1225,-41.5 1382,-41.5 1382,-0.5 1225,-0.5"/>
<text text-anchor="start" x="1233" y="-29.5" font-family="Helvetica,sans-Serif" font-size="10.00">C:/Users/Jameson/Documents</text>
<text text-anchor="start" x="1233" y="-18.5" font-family="Helvetica,sans-Serif" font-size="10.00">/git&#45;projects/openage/libopenage</text>
<text text-anchor="middle" x="1303.5" y="-7.5" font-family="Helvetica,sans-Serif" font-size="10.00">/gamestate/game_spec.cpp</text>
</a>
</g>
</g>
<!-- Node73&#45;&gt;Node75 -->
<g id="edge12" class="edge"><title>Node73&#45;&gt;Node75</title>
<path fill="none" stroke="midnightblue" d="M1042.13,-79.5016C1093.16,-68.7558 1158.49,-54.8423 1216.5,-42 1219.22,-41.397 1221.99,-40.7799 1224.79,-40.1537"/>
<polygon fill="midnightblue" stroke="midnightblue" points="1041.18,-76.1237 1032.12,-81.6073 1042.62,-82.9738 1041.18,-76.1237"/>
</g>
<!-- Node73&#45;&gt;Node76 -->
<g id="edge17" class="edge"><title>Node73&#45;&gt;Node76</title>
<path fill="none" stroke="midnightblue" d="M1042.26,-86.872C1068.11,-83.8001 1096.42,-80.6 1122.5,-78 1319.5,-58.363 1370.84,-72.2575 1566.5,-42 1569.26,-41.5737 1572.06,-41.1084 1574.88,-40.6118"/>
<polygon fill="midnightblue" stroke="midnightblue" points="1041.62,-83.4236 1032.11,-88.0868 1042.45,-90.374 1041.62,-83.4236"/>
</g>
</g>
</svg>
