<?xml version="1.0" encoding="UTF-8" standalone="no"?>
<!DOCTYPE svg PUBLIC "-//W3C//DTD SVG 1.1//EN"
 "http://www.w3.org/Graphics/SVG/1.1/DTD/svg11.dtd">
<!-- Generated by graphviz version 2.38.0 (20140413.2041)
 -->
<!-- Title: libopenage/util/vector.h Pages: 1 -->
<!--zoomable 229 -->
<svg id="main" version="1.1" xmlns="http://www.w3.org/2000/svg" xmlns:xlink="http://www.w3.org/1999/xlink" xml:space="preserve" onload="init(evt)">
<style type="text/css"><![CDATA[
.edge:hover path { stroke: red; }
.edge:hover polygon { stroke: red; fill: red; }
]]></style>
<script type="text/javascript"><![CDATA[
var edges = document.getElementsByTagName('g');
if (edges && edges.length) {
  for (var i=0;i<edges.length;i++) {
    if (edges[i].id.substr(0,4)=='edge') {
      edges[i].setAttribute('class','edge');
    }
  }
}
]]></script>
        <defs>
                <circle id="rim" cx="0" cy="0" r="7"/>
                <circle id="rim2" cx="0" cy="0" r="3.5"/>
                <g id="zoomPlus">
                        <use xlink:href="#rim" fill="#404040">
                                <set attributeName="fill" to="#808080" begin="zoomplus.mouseover" end="zoomplus.mouseout"/>
                        </use>
                        <path d="M-4,0h8M0,-4v8" fill="none" stroke="white" stroke-width="1.5" pointer-events="none"/>
                </g>
                <g id="zoomMin">
                        <use xlink:href="#rim" fill="#404040">
                                <set attributeName="fill" to="#808080" begin="zoomminus.mouseover" end="zoomminus.mouseout"/>
                        </use>
                        <path d="M-4,0h8" fill="none" stroke="white" stroke-width="1.5" pointer-events="none"/>
                </g>
                <g id="dirArrow">
                        <path fill="none" stroke="white" stroke-width="1.5" d="M0,-3.0v7 M-2.5,-0.5L0,-3.0L2.5,-0.5"/>
                </g>
               <g id="resetDef">
                       <use xlink:href="#rim2" fill="#404040">
                               <set attributeName="fill" to="#808080" begin="reset.mouseover" end="reset.mouseout"/>
                       </use>
               </g>
        </defs>

<script type="text/javascript">
var viewWidth = 1042;
var viewHeight = 229;
var sectionId = 'dynsection-1';
</script>
<script xlink:href="svgpan.js"/>
<svg id="graph" class="graph">
<g id="viewport">
<title>libopenage/util/vector.h</title>
<polygon fill="white" stroke="none" points="-4,4 -4,-225 1037.5,-225 1037.5,4 -4,4"/>
<!-- Node34 -->
<g id="node1" class="node"><title>Node34</title>
<g id="a_node1"><a xlink:title=" ">
<polygon fill="#bfbfbf" stroke="black" points="652,-201.5 652,-220.5 768,-220.5 768,-201.5 652,-201.5"/>
<text text-anchor="middle" x="710" y="-208.5" font-family="Helvetica,sans-Serif" font-size="10.00">libopenage/util/vector.h</text>
</a>
</g>
</g>
<!-- Node35 -->
<g id="node2" class="node"><title>Node35</title>
<g id="a_node2"><a xlink:href="gamestate_8h.xhtml" target="_top" xlink:title=" ">
<polygon fill="white" stroke="black" points="220,-134.5 220,-164.5 336,-164.5 336,-134.5 220,-134.5"/>
<text text-anchor="start" x="228" y="-152.5" font-family="Helvetica,sans-Serif" font-size="10.00">libopenage/event/demo</text>
<text text-anchor="middle" x="278" y="-141.5" font-family="Helvetica,sans-Serif" font-size="10.00">/gamestate.h</text>
</a>
</g>
</g>
<!-- Node34&#45;&gt;Node35 -->
<g id="edge1" class="edge"><title>Node34&#45;&gt;Node35</title>
<path fill="none" stroke="midnightblue" d="M641.747,-200.599C557.406,-188.983 415.354,-169.418 336.027,-158.492"/>
<polygon fill="midnightblue" stroke="midnightblue" points="641.354,-204.078 651.739,-201.976 642.31,-197.144 641.354,-204.078"/>
</g>
<!-- Node42 -->
<g id="node9" class="node"><title>Node42</title>
<g id="a_node9"><a xlink:href="matrix_8h.xhtml" target="_top" xlink:title=" ">
<polygon fill="white" stroke="black" points="608.5,-140 608.5,-159 725.5,-159 725.5,-140 608.5,-140"/>
<text text-anchor="middle" x="667" y="-147" font-family="Helvetica,sans-Serif" font-size="10.00">libopenage/util/matrix.h</text>
</a>
</g>
</g>
<!-- Node34&#45;&gt;Node42 -->
<g id="edge10" class="edge"><title>Node34&#45;&gt;Node42</title>
<path fill="none" stroke="midnightblue" d="M697.958,-193.338C689.887,-182.169 679.595,-167.928 673.149,-159.009"/>
<polygon fill="midnightblue" stroke="midnightblue" points="695.145,-195.42 703.839,-201.475 700.818,-191.32 695.145,-195.42"/>
</g>
<!-- Node44 -->
<g id="node11" class="node"><title>Node44</title>
<g id="a_node11"><a xlink:href="matrix__test_8cpp.xhtml" target="_top" xlink:title=" ">
<polygon fill="white" stroke="black" points="488.5,-67.5 488.5,-97.5 597.5,-97.5 597.5,-67.5 488.5,-67.5"/>
<text text-anchor="start" x="496.5" y="-85.5" font-family="Helvetica,sans-Serif" font-size="10.00">libopenage/util/matrix</text>
<text text-anchor="middle" x="543" y="-74.5" font-family="Helvetica,sans-Serif" font-size="10.00">_test.cpp</text>
</a>
</g>
</g>
<!-- Node34&#45;&gt;Node44 -->
<g id="edge16" class="edge"><title>Node34&#45;&gt;Node44</title>
<path fill="none" stroke="midnightblue" d="M665.122,-198.414C643.546,-191.279 618.257,-180.476 599,-165 575.85,-146.395 558.414,-115.716 549.542,-97.779"/>
<polygon fill="midnightblue" stroke="midnightblue" points="664.149,-201.777 674.739,-201.437 666.249,-195.099 664.149,-201.777"/>
</g>
<!-- Node45 -->
<g id="node12" class="node"><title>Node45</title>
<g id="a_node12"><a xlink:href="quaternion_8h.xhtml" target="_top" xlink:title=" ">
<polygon fill="white" stroke="black" points="762.5,-73 762.5,-92 897.5,-92 897.5,-73 762.5,-73"/>
<text text-anchor="middle" x="830" y="-80" font-family="Helvetica,sans-Serif" font-size="10.00">libopenage/util/quaternion.h</text>
</a>
</g>
</g>
<!-- Node34&#45;&gt;Node45 -->
<g id="edge17" class="edge"><title>Node34&#45;&gt;Node45</title>
<path fill="none" stroke="midnightblue" d="M722.94,-192.908C735.209,-177.073 754.47,-153.15 773,-134 788.078,-118.418 807.23,-102.075 819.048,-92.3414"/>
<polygon fill="midnightblue" stroke="midnightblue" points="719.89,-191.133 716.583,-201.199 725.445,-195.393 719.89,-191.133"/>
</g>
<!-- Node48 -->
<g id="node15" class="node"><title>Node48</title>
<g id="a_node15"><a xlink:href="vector_8cpp.xhtml" target="_top" xlink:title=" ">
<polygon fill="white" stroke="black" points="782,-140 782,-159 908,-159 908,-140 782,-140"/>
<text text-anchor="middle" x="845" y="-147" font-family="Helvetica,sans-Serif" font-size="10.00">libopenage/util/vector.cpp</text>
</a>
</g>
</g>
<!-- Node34&#45;&gt;Node48 -->
<g id="edge18" class="edge"><title>Node34&#45;&gt;Node48</title>
<path fill="none" stroke="midnightblue" d="M738.753,-197.327C764.962,-185.776 802.953,-169.032 825.694,-159.009"/>
<polygon fill="midnightblue" stroke="midnightblue" points="737.081,-194.239 729.342,-201.475 739.904,-200.645 737.081,-194.239"/>
</g>
<!-- Node49 -->
<g id="node16" class="node"><title>Node49</title>
<g id="a_node16"><a xlink:href="vector__test_8cpp.xhtml" target="_top" xlink:title=" ">
<polygon fill="white" stroke="black" points="926.5,-134.5 926.5,-164.5 1033.5,-164.5 1033.5,-134.5 926.5,-134.5"/>
<text text-anchor="start" x="934.5" y="-152.5" font-family="Helvetica,sans-Serif" font-size="10.00">libopenage/util/vector</text>
<text text-anchor="middle" x="980" y="-141.5" font-family="Helvetica,sans-Serif" font-size="10.00">_test.cpp</text>
</a>
</g>
</g>
<!-- Node34&#45;&gt;Node49 -->
<g id="edge19" class="edge"><title>Node34&#45;&gt;Node49</title>
<path fill="none" stroke="midnightblue" d="M760.065,-199.295C802.011,-190.282 863.454,-176.982 917,-165 920.067,-164.314 923.216,-163.604 926.394,-162.885"/>
<polygon fill="midnightblue" stroke="midnightblue" points="759.144,-195.912 750.102,-201.433 760.614,-202.756 759.144,-195.912"/>
</g>
<!-- Node36 -->
<g id="node3" class="node"><title>Node36</title>
<g id="a_node3"><a xlink:href="aicontroller_8h.xhtml" target="_top" xlink:title=" ">
<polygon fill="white" stroke="black" points="220,-67.5 220,-97.5 336,-97.5 336,-67.5 220,-67.5"/>
<text text-anchor="start" x="228" y="-85.5" font-family="Helvetica,sans-Serif" font-size="10.00">libopenage/event/demo</text>
<text text-anchor="middle" x="278" y="-74.5" font-family="Helvetica,sans-Serif" font-size="10.00">/aicontroller.h</text>
</a>
</g>
</g>
<!-- Node35&#45;&gt;Node36 -->
<g id="edge2" class="edge"><title>Node35&#45;&gt;Node36</title>
<path fill="none" stroke="midnightblue" d="M278,-124.108C278,-115.154 278,-105.323 278,-97.5765"/>
<polygon fill="midnightblue" stroke="midnightblue" points="274.5,-124.396 278,-134.396 281.5,-124.396 274.5,-124.396"/>
</g>
<!-- Node38 -->
<g id="node5" class="node"><title>Node38</title>
<g id="a_node5"><a xlink:href="event_2demo_2main_8cpp.xhtml" target="_top" xlink:title=" ">
<polygon fill="white" stroke="black" points="134,-0.5 134,-30.5 250,-30.5 250,-0.5 134,-0.5"/>
<text text-anchor="start" x="142" y="-18.5" font-family="Helvetica,sans-Serif" font-size="10.00">libopenage/event/demo</text>
<text text-anchor="middle" x="192" y="-7.5" font-family="Helvetica,sans-Serif" font-size="10.00">/main.cpp</text>
</a>
</g>
</g>
<!-- Node35&#45;&gt;Node38 -->
<g id="edge6" class="edge"><title>Node35&#45;&gt;Node38</title>
<path fill="none" stroke="midnightblue" d="M242.739,-128.839C231.047,-120.706 218.992,-110.28 211,-98 197.448,-77.1777 193.523,-47.8089 192.411,-30.6016"/>
<polygon fill="midnightblue" stroke="midnightblue" points="240.846,-131.783 251.125,-134.35 244.69,-125.933 240.846,-131.783"/>
</g>
<!-- Node39 -->
<g id="node6" class="node"><title>Node39</title>
<g id="a_node6"><a xlink:href="gamestate_8cpp.xhtml" target="_top" xlink:title=" ">
<polygon fill="white" stroke="black" points="354,-67.5 354,-97.5 470,-97.5 470,-67.5 354,-67.5"/>
<text text-anchor="start" x="362" y="-85.5" font-family="Helvetica,sans-Serif" font-size="10.00">libopenage/event/demo</text>
<text text-anchor="middle" x="412" y="-74.5" font-family="Helvetica,sans-Serif" font-size="10.00">/gamestate.cpp</text>
</a>
</g>
</g>
<!-- Node35&#45;&gt;Node39 -->
<g id="edge5" class="edge"><title>Node35&#45;&gt;Node39</title>
<path fill="none" stroke="midnightblue" d="M316.155,-129.992C337.395,-119.689 363.414,-107.068 382.981,-97.5765"/>
<polygon fill="midnightblue" stroke="midnightblue" points="314.546,-126.882 307.076,-134.396 317.601,-133.181 314.546,-126.882"/>
</g>
<!-- Node40 -->
<g id="node7" class="node"><title>Node40</title>
<g id="a_node7"><a xlink:href="physics_8h.xhtml" target="_top" xlink:title=" ">
<polygon fill="white" stroke="black" points="48,-67.5 48,-97.5 164,-97.5 164,-67.5 48,-67.5"/>
<text text-anchor="start" x="56" y="-85.5" font-family="Helvetica,sans-Serif" font-size="10.00">libopenage/event/demo</text>
<text text-anchor="middle" x="106" y="-74.5" font-family="Helvetica,sans-Serif" font-size="10.00">/physics.h</text>
</a>
</g>
</g>
<!-- Node35&#45;&gt;Node40 -->
<g id="edge7" class="edge"><title>Node35&#45;&gt;Node40</title>
<path fill="none" stroke="midnightblue" d="M231.212,-130.819C203.565,-120.371 169.04,-107.323 143.249,-97.5765"/>
<polygon fill="midnightblue" stroke="midnightblue" points="230.087,-134.135 240.679,-134.396 232.562,-127.587 230.087,-134.135"/>
</g>
<!-- Node37 -->
<g id="node4" class="node"><title>Node37</title>
<g id="a_node4"><a xlink:href="aicontroller_8cpp.xhtml" target="_top" xlink:title=" ">
<polygon fill="white" stroke="black" points="268,-0.5 268,-30.5 384,-30.5 384,-0.5 268,-0.5"/>
<text text-anchor="start" x="276" y="-18.5" font-family="Helvetica,sans-Serif" font-size="10.00">libopenage/event/demo</text>
<text text-anchor="middle" x="326" y="-7.5" font-family="Helvetica,sans-Serif" font-size="10.00">/aicontroller.cpp</text>
</a>
</g>
</g>
<!-- Node36&#45;&gt;Node37 -->
<g id="edge3" class="edge"><title>Node36&#45;&gt;Node37</title>
<path fill="none" stroke="midnightblue" d="M294.499,-59.1575C301.499,-49.6788 309.445,-38.9186 315.605,-30.5765"/>
<polygon fill="midnightblue" stroke="midnightblue" points="291.54,-57.2725 288.415,-67.396 297.171,-61.4308 291.54,-57.2725"/>
</g>
<!-- Node36&#45;&gt;Node38 -->
<g id="edge4" class="edge"><title>Node36&#45;&gt;Node38</title>
<path fill="none" stroke="midnightblue" d="M251.099,-61.1677C237.948,-51.2283 222.45,-39.5144 210.624,-30.5765"/>
<polygon fill="midnightblue" stroke="midnightblue" points="249.251,-64.1585 259.339,-67.396 253.472,-58.5741 249.251,-64.1585"/>
</g>
<!-- Node40&#45;&gt;Node38 -->
<g id="edge8" class="edge"><title>Node40&#45;&gt;Node38</title>
<path fill="none" stroke="midnightblue" d="M132.901,-61.1677C146.052,-51.2283 161.55,-39.5144 173.376,-30.5765"/>
<polygon fill="midnightblue" stroke="midnightblue" points="130.528,-58.5741 124.661,-67.396 134.749,-64.1585 130.528,-58.5741"/>
</g>
<!-- Node41 -->
<g id="node8" class="node"><title>Node41</title>
<g id="a_node8"><a xlink:href="physics_8cpp.xhtml" target="_top" xlink:title=" ">
<polygon fill="white" stroke="black" points="0,-0.5 0,-30.5 116,-30.5 116,-0.5 0,-0.5"/>
<text text-anchor="start" x="8" y="-18.5" font-family="Helvetica,sans-Serif" font-size="10.00">libopenage/event/demo</text>
<text text-anchor="middle" x="58" y="-7.5" font-family="Helvetica,sans-Serif" font-size="10.00">/physics.cpp</text>
</a>
</g>
</g>
<!-- Node40&#45;&gt;Node41 -->
<g id="edge9" class="edge"><title>Node40&#45;&gt;Node41</title>
<path fill="none" stroke="midnightblue" d="M89.5009,-59.1575C82.5013,-49.6788 74.5552,-38.9186 68.395,-30.5765"/>
<polygon fill="midnightblue" stroke="midnightblue" points="86.8287,-61.4308 95.5847,-67.396 92.4598,-57.2725 86.8287,-61.4308"/>
</g>
<!-- Node43 -->
<g id="node10" class="node"><title>Node43</title>
<g id="a_node10"><a xlink:href="matrix_8cpp.xhtml" target="_top" xlink:title=" ">
<polygon fill="white" stroke="black" points="616,-73 616,-92 744,-92 744,-73 616,-73"/>
<text text-anchor="middle" x="680" y="-80" font-family="Helvetica,sans-Serif" font-size="10.00">libopenage/util/matrix.cpp</text>
</a>
</g>
</g>
<!-- Node42&#45;&gt;Node43 -->
<g id="edge11" class="edge"><title>Node42&#45;&gt;Node43</title>
<path fill="none" stroke="midnightblue" d="M670.717,-129.915C673.202,-117.488 676.357,-101.717 678.275,-92.1273"/>
<polygon fill="midnightblue" stroke="midnightblue" points="667.282,-129.242 668.753,-139.734 674.147,-130.614 667.282,-129.242"/>
</g>
<!-- Node42&#45;&gt;Node44 -->
<g id="edge12" class="edge"><title>Node42&#45;&gt;Node44</title>
<path fill="none" stroke="midnightblue" d="M641.617,-135.194C620.759,-124.261 591.284,-108.81 569.997,-97.6516"/>
<polygon fill="midnightblue" stroke="midnightblue" points="640.052,-138.326 650.534,-139.869 643.302,-132.126 640.052,-138.326"/>
</g>
<!-- Node42&#45;&gt;Node45 -->
<g id="edge13" class="edge"><title>Node42&#45;&gt;Node45</title>
<path fill="none" stroke="midnightblue" d="M698.085,-136.104C730.449,-123.198 780.28,-103.327 808.525,-92.0637"/>
<polygon fill="midnightblue" stroke="midnightblue" points="696.637,-132.913 688.645,-139.869 699.23,-139.415 696.637,-132.913"/>
</g>
<!-- Node46 -->
<g id="node13" class="node"><title>Node46</title>
<g id="a_node13"><a xlink:href="quaternion_8cpp.xhtml" target="_top" xlink:title=" ">
<polygon fill="white" stroke="black" points="834,-6 834,-25 980,-25 980,-6 834,-6"/>
<text text-anchor="middle" x="907" y="-13" font-family="Helvetica,sans-Serif" font-size="10.00">libopenage/util/quaternion.cpp</text>
</a>
</g>
</g>
<!-- Node45&#45;&gt;Node46 -->
<g id="edge14" class="edge"><title>Node45&#45;&gt;Node46</title>
<path fill="none" stroke="midnightblue" d="M848.109,-66.2134C863.279,-53.407 884.388,-35.5884 896.78,-25.1273"/>
<polygon fill="midnightblue" stroke="midnightblue" points="845.768,-63.6088 840.385,-72.7338 850.284,-68.9577 845.768,-63.6088"/>
</g>
<!-- Node47 -->
<g id="node14" class="node"><title>Node47</title>
<g id="a_node14"><a xlink:href="quaternion__test_8cpp.xhtml" target="_top" xlink:title=" ">
<polygon fill="white" stroke="black" points="688.5,-0.5 688.5,-30.5 815.5,-30.5 815.5,-0.5 688.5,-0.5"/>
<text text-anchor="start" x="696.5" y="-18.5" font-family="Helvetica,sans-Serif" font-size="10.00">libopenage/util/quaternion</text>
<text text-anchor="middle" x="752" y="-7.5" font-family="Helvetica,sans-Serif" font-size="10.00">_test.cpp</text>
</a>
</g>
</g>
<!-- Node45&#45;&gt;Node47 -->
<g id="edge15" class="edge"><title>Node45&#45;&gt;Node47</title>
<path fill="none" stroke="midnightblue" d="M811.685,-66.2371C798.742,-55.4518 781.523,-41.1025 768.907,-30.589"/>
<polygon fill="midnightblue" stroke="midnightblue" points="809.558,-69.0207 819.481,-72.7338 814.039,-63.6431 809.558,-69.0207"/>
</g>
</g>
</svg>
        <g id="navigator" transform="translate(0 0)" fill="#404254">
                <rect fill="#f2f5e9" fill-opacity="0.5" stroke="#606060" stroke-width=".5" x="0" y="0" width="60" height="60"/>
                <use id="zoomplus" xlink:href="#zoomPlus" x="17" y="9" onmousedown="handleZoom(evt,'in')"/>
                <use id="zoomminus" xlink:href="#zoomMin" x="42" y="9" onmousedown="handleZoom(evt,'out')"/>
                <use id="reset" xlink:href="#resetDef" x="30" y="36" onmousedown="handleReset()"/>
                <g id="arrowUp" xlink:href="#dirArrow" transform="translate(30 24)" onmousedown="handlePan(0,-1)">
                  <use xlink:href="#rim" fill="#404040">
                        <set attributeName="fill" to="#808080" begin="arrowUp.mouseover" end="arrowUp.mouseout"/>
                  </use>
                  <path fill="none" stroke="white" stroke-width="1.5" d="M0,-3.0v7 M-2.5,-0.5L0,-3.0L2.5,-0.5"/>
                </g>
                <g id="arrowRight" xlink:href="#dirArrow" transform="rotate(90) translate(36 -43)" onmousedown="handlePan(1,0)">
                  <use xlink:href="#rim" fill="#404040">
                        <set attributeName="fill" to="#808080" begin="arrowRight.mouseover" end="arrowRight.mouseout"/>
                  </use>
                  <path fill="none" stroke="white" stroke-width="1.5" d="M0,-3.0v7 M-2.5,-0.5L0,-3.0L2.5,-0.5"/>
                </g>
                <g id="arrowDown" xlink:href="#dirArrow" transform="rotate(180) translate(-30 -48)" onmousedown="handlePan(0,1)">
                  <use xlink:href="#rim" fill="#404040">
                        <set attributeName="fill" to="#808080" begin="arrowDown.mouseover" end="arrowDown.mouseout"/>
                  </use>
                  <path fill="none" stroke="white" stroke-width="1.5" d="M0,-3.0v7 M-2.5,-0.5L0,-3.0L2.5,-0.5"/>
                </g>
                <g id="arrowLeft" xlink:href="#dirArrow" transform="rotate(270) translate(-36 17)" onmousedown="handlePan(-1,0)">
                  <use xlink:href="#rim" fill="#404040">
                        <set attributeName="fill" to="#808080" begin="arrowLeft.mouseover" end="arrowLeft.mouseout"/>
                  </use>
                  <path fill="none" stroke="white" stroke-width="1.5" d="M0,-3.0v7 M-2.5,-0.5L0,-3.0L2.5,-0.5"/>
                </g>
        </g>
        <svg viewBox="0 0 15 15" width="100%" height="30px" preserveAspectRatio="xMaxYMin meet">
         <g id="arrow_out" transform="scale(0.3 0.3)">
          <a xlink:href="vector_8h__dep__incl_org.svg" target="_base">
           <rect id="button" ry="5" rx="5" y="6" x="6" height="38" width="38"
                fill="#f2f5e9" fill-opacity="0.5" stroke="#606060" stroke-width="1.0"/>
           <path id="arrow"
             d="M 11.500037,31.436501 C 11.940474,20.09759 22.043105,11.32322 32.158766,21.979434 L 37.068811,17.246167 C 37.068811,17.246167 37.088388,32 37.088388,32 L 22.160133,31.978069 C 22.160133,31.978069 26.997745,27.140456 26.997745,27.140456 C 18.528582,18.264221 13.291696,25.230495 11.500037,31.436501 z"
             style="fill:#404040;"/>
          </a>
         </g>
        </svg>
</svg>
